<svg width="1000" height="1000" viewBox="0 0 1000 1000" fill="none" xmlns="http://www.w3.org/2000/svg">
<path d="M365.245 102.303C359.665 105.67 350.911 110.673 345.716 113.462L336.288 118.561L330.805 116.733C325.513 114.906 325.032 114.906 317.913 116.445C313.873 117.407 309.929 118.369 309.063 118.657C308.293 118.946 305.599 122.89 303.098 127.412C300.597 131.933 297.999 135.685 297.518 135.685C296.941 135.685 289.437 136.551 280.779 137.513L265.098 139.341L255.959 136.551C250.956 135.108 246.531 133.665 246.146 133.376C245.761 133.184 241.625 128.182 236.814 122.313C230.08 114.136 227.579 111.731 225.751 111.731C224.404 111.635 215.746 112.789 206.414 114.232L189.483 116.733L186.789 125.873C184.576 133.665 184.288 136.07 184.769 142.323L185.442 149.635L163.316 172.723L163.219 182.536V192.253L166.875 193.118L170.435 193.984L171.012 201.584C171.493 208.318 172.166 210.627 176.592 219.767C180.343 227.463 182.171 232.658 183.518 239.777C184.48 244.972 185.346 249.974 185.346 250.936C185.346 251.898 182.171 254.688 177.169 257.863L168.991 263.154V274.698L159.564 277.392C153.022 279.316 147.442 281.914 140.9 285.858L131.472 291.438L125.027 288.744C120.313 286.724 115.695 285.665 108.48 284.896C102.9 284.415 98.09 284.126 97.8014 284.319C97.4166 284.511 96.8394 288.071 96.4546 292.207C96.166 296.344 95.3964 304.521 94.8191 310.486C93.5685 322.607 94.6267 321.453 83.6596 322.8L78.6571 323.473L72.2115 333.478L65.8621 343.58L60.8595 343.291L55.9532 343.002L55.1836 350.314L54.3178 357.529L60.0899 369.073C64.0342 376.962 67.8824 382.83 72.3077 387.929L78.6571 395.24L85.5837 395.914C98.09 396.972 97.4166 396.587 100.206 405.149C101.65 409.286 102.612 413.134 102.419 413.711C102.227 414.192 96.3584 419.484 89.3356 425.544C77.5026 435.646 75.4824 436.992 63.3608 442.476C56.1456 445.843 49.7 449.018 49.0266 449.595C48.4494 450.268 43.1582 462.486 37.2899 476.82C31.4215 491.155 24.4949 507.605 21.8012 513.281C19.1075 519.053 17.0873 524.248 17.2797 524.729C17.5683 525.307 18.8189 526.461 20.1658 527.135C22.5708 528.385 23.0518 528.193 31.8063 521.074L40.9456 513.762H48.3532C55.1836 513.762 57.3962 513.185 73.1735 507.317C82.7938 503.853 91.0672 500.967 91.5482 500.967C92.3179 500.967 116.657 516.648 119.736 519.053C119.832 519.15 119.543 522.132 118.966 525.595C118.004 531.656 118.1 532.137 122.237 543.681C124.546 550.223 126.758 556.38 127.143 557.246C127.624 558.4 129.356 559.17 132.434 559.555C134.936 559.843 137.533 560.421 138.11 560.805C139.072 561.383 162.065 609.773 162.546 612.178C162.642 612.659 157.736 616.988 151.675 621.702C145.614 626.416 135.994 634.401 130.318 639.403C120.313 648.254 119.928 648.735 119.351 653.353C118.966 655.95 118.196 658.644 117.619 659.413C117.042 660.183 109.923 663.839 101.842 667.591L87.1229 674.421L68.171 674.517C57.7811 674.517 44.8899 675.094 39.5987 675.672L29.9785 676.826L24.4949 685.003C19.3961 692.507 18.4341 693.373 13.7202 695.105C10.8341 696.163 8.23662 697.317 7.94801 697.606C7.467 698.087 8.23662 700.877 10.7379 707.9C11.0265 708.765 12.7581 708.477 17.5683 706.649C21.0316 705.302 24.4949 704.244 25.2645 704.244C25.9379 704.244 27.2848 706.649 28.2468 709.631L29.8822 715.019L38.1557 714.441C42.6772 714.153 50.6621 713.672 55.9532 713.383L65.5735 712.806L79.5229 726.755L93.4723 740.801L89.8166 747.824L86.1609 754.75L88.9508 767.641L91.8368 780.533L96.5508 784.573C99.0521 786.786 102.419 789.672 104.055 791.019L106.844 793.52L99.3407 801.89L91.7406 810.163L94.8191 820.457C96.5508 826.037 100.303 835.272 103.189 840.948L108.384 851.338L101.938 848.933C98.3786 847.586 95.0115 846.239 94.5305 845.854C92.6065 844.7 97.9938 851.242 106.171 859.9L114.637 868.847L133.396 871.637C151.098 874.33 153.503 875.004 177.265 883.181L202.47 891.839H244.126L265.772 898.189L287.513 904.538L303.002 898.958L318.587 893.475L346.005 891.743C361.108 890.781 375.635 890.011 378.329 890.011L383.235 889.915L383.909 885.298C384.197 882.796 384.774 875.1 385.159 868.077L385.736 855.378L394.01 852.589C398.531 851.049 402.283 849.414 402.283 848.933C402.283 848.452 401.898 841.044 401.417 832.482C400.648 817.09 400.648 816.801 403.245 809.105C405.266 803.14 406.228 801.312 407.863 800.928C410.749 800.254 424.025 797.561 424.314 797.561C424.506 797.561 428.45 802.563 432.972 808.624C440.38 818.533 441.919 819.976 446.633 822.092C455.002 825.748 454.521 826.037 458.947 815.55C462.025 808.239 465.008 803.429 472.03 794.29L481.073 782.457L494.157 775.049L507.144 767.545L515.899 772.067L524.557 776.685L540.911 775.049C560.922 773.125 563.038 773.125 577.084 775.145L588.436 776.685L593.919 771.874C596.998 769.277 599.98 766.872 600.653 766.487C601.231 766.102 604.213 766.968 607.195 768.411L612.583 771.105L621.337 766.391L629.995 761.773L639.423 771.009L655.97 765.621L658.952 758.983C661.357 753.307 662.512 751.864 666.456 749.459C671.747 746.284 671.747 747.247 666.552 735.991L663.763 729.641L665.59 725.024C666.552 722.522 668.861 713.383 670.689 704.821C675.403 682.213 676.269 678.846 677.038 677.884C677.423 677.499 693.585 675.383 713.018 673.363L748.229 669.611L763.044 680.77L777.955 691.93L781.515 688.755C783.535 687.024 792.097 679.039 800.563 670.958C809.029 662.973 820.573 652.583 826.249 647.965C834.522 641.231 836.831 638.922 837.601 636.036C838.082 634.112 838.563 625.261 838.563 616.315V600.056L834.234 594.765C831.829 591.879 829.905 589.282 829.905 588.897C829.905 588.512 832.31 587.454 835.196 586.492L840.487 584.856L847.125 571.676C853.378 559.17 853.763 557.823 855.398 546.567C857.13 535.119 857.13 534.446 855.398 527.712L853.667 520.689L857.322 511.646L860.978 502.699L857.515 477.494L864.057 465.469C870.021 454.213 871.176 452.674 880.315 444.304C897.439 428.334 895.996 429.2 910.042 425.16L922.74 421.504L933.996 422.466L945.348 423.524L955.642 417.944C968.244 411.21 992.776 392.258 992.103 389.757C990.756 385.043 983.541 362.147 983.252 361.666C983.06 361.377 972.862 362.82 960.644 364.84L938.325 368.592L921.875 363.109C910.042 359.164 901.287 355.509 890.512 349.929C876.948 342.81 874.735 342.04 865.5 340.405C859.92 339.443 852.512 338.673 848.953 338.673C843.373 338.673 841.738 338.288 837.601 335.691C833.753 333.286 832.887 332.324 833.272 330.688C833.56 329.534 834.811 321.934 836.158 313.853L838.563 299.134L844.335 291.438C848.183 286.339 850.107 282.779 850.107 280.952C850.107 278.931 851.166 277.488 854.629 274.795C857.13 272.87 861.652 268.349 864.73 264.693L870.406 257.959L867.52 252.379C865.981 249.301 864.441 244.298 864.057 241.22C863.672 238.237 862.998 235.736 862.614 235.736C862.229 235.736 859.824 237.564 857.226 239.777C854.629 241.989 851.839 244.394 850.973 245.068C849.626 246.222 847.221 246.126 835.1 244.491C827.307 243.336 817.495 242.47 813.454 242.47C807.297 242.47 804.219 241.893 796.041 238.911C786.998 235.64 785.363 234.678 777.186 227.559C765.449 217.169 760.35 215.053 740.629 212.551L725.813 210.627L716.001 216.496L706.188 222.268L696.087 222.364C690.603 222.364 683.965 222.749 681.368 223.134C675.403 224.096 668.476 222.653 662.319 218.997C658.087 216.496 657.798 216.111 657.125 211.108C656.74 207.741 655.97 205.529 654.912 205.048C652.699 203.797 618.836 196.293 609.216 194.946L601.423 193.792L582.375 203.22L574.967 202.161C569.965 201.488 566.405 201.488 564.289 202.161C559.863 203.412 548.993 202.354 540.527 199.66C532.349 197.063 528.886 197.544 522.633 202.161C519.458 204.47 517.823 204.951 513.205 204.951H507.625L501.276 192.156C497.716 185.23 494.446 179.169 493.868 178.88C493.387 178.496 491.175 177.918 488.962 177.63C485.018 176.956 455.676 170.607 452.597 169.741C451.058 169.26 450.866 167.913 450.866 159.832V150.404L446.537 148.769C444.228 147.807 442.111 146.364 441.823 145.498C441.63 144.632 441.053 139.918 440.764 135.012L440.091 126.161L426.43 125.584L420.369 117.022C417.099 112.404 414.212 108.268 413.924 108.075C413.635 107.786 410.076 108.749 405.843 110.192L398.339 112.885L387.276 104.612C381.119 99.9941 375.924 96.2422 375.731 96.2422C375.539 96.2422 370.825 98.9359 365.245 102.303Z" fill="white"/>
<circle id="17" cx="264" cy="659" fill="#5CE50D"/>
<circle id="880" cx="530" cy="440" fill="#E52A0D"/>
<circle id="20" cx="470" cy="580" fill="#E52A0D"/>
<circle id="881" cx="828" cy="500" fill="#E52A0D"/>
</svg>
