<svg width="1000" height="1000" viewBox="0 0 1000 1000" fill="none" xmlns="http://www.w3.org/2000/svg">
<path d="M939.625 126.489C933.283 140.807 922.52 161.467 920.31 163.773C918.1 166.079 917.908 166.752 918.965 168.001C919.926 169.154 919.541 170.115 916.466 173.478C914.448 175.785 911.95 177.899 910.893 178.283C906.569 179.628 906.184 178.956 909.163 175.881C911.181 173.767 912.334 171.46 912.815 168.482L913.488 164.157L903.686 173.286C893.404 182.799 890.81 184.817 887.927 184.817C887.062 184.817 878.414 191.448 868.804 199.423C859.291 207.495 850.258 215.087 848.913 216.24C846.511 218.162 846.511 218.354 848.048 220.083C851.123 223.447 849.298 225.753 840.937 229.02C836.709 230.558 833.058 231.903 832.866 231.903C832.577 231.903 833.154 230.558 833.923 229.02C835.364 226.329 835.268 226.041 833.73 225.465C832.77 225.176 831.713 224.696 831.328 224.504C830.944 224.312 829.406 226.041 827.869 228.251C826.043 230.846 822.776 233.633 819.124 235.747C812.494 239.59 811.437 241.224 814.224 243.146C816.146 244.491 816.146 244.587 813.167 248.335C811.533 250.353 809.899 253.235 809.515 254.581L808.842 257.079L806.632 255.157L804.326 253.332L801.635 256.31C800.002 258.232 798.753 261.019 798.368 264.094C797.311 270.628 792.122 274.952 790.681 270.34C790.393 269.283 789.816 268.418 789.432 268.418C788.279 268.514 776.267 284.562 775.979 286.58C775.69 288.213 775.114 288.405 770.597 287.925L765.601 287.445L760.988 292.826C758.394 295.805 753.493 300.321 749.938 302.915C742.442 308.489 719.572 331.455 718.707 334.242C718.227 335.779 715.921 336.836 708.81 339.046C700.258 341.545 698.72 342.314 692.666 347.695C689.015 350.962 681.519 356.824 676.138 360.571C666.625 367.298 664.607 369.7 667.682 370.853C669.22 371.43 669.604 375.754 668.355 377.58C667.97 378.156 666.433 379.021 664.799 379.598C662.301 380.366 661.917 381.039 661.628 384.594C661.34 387.765 660.956 388.534 659.899 388.15C659.034 387.862 658.169 387.573 657.977 387.573C657.784 387.573 657.592 386.132 657.592 384.306C657.592 381.616 657.112 380.847 654.71 379.886C652.115 378.829 651.154 379.021 645.773 381.327C637.893 384.787 635.491 386.324 635.491 388.054C635.491 389.015 636.548 389.495 638.854 389.495C642.89 389.495 643.082 390.264 639.815 393.339C638.47 394.588 637.413 396.126 637.413 396.702C637.413 397.375 636.548 398.624 635.491 399.585C633.185 401.603 632.993 405.158 635.01 406.792C636.836 408.329 635.971 409.675 632.993 409.675C631.071 409.675 630.686 410.155 630.686 412.557C630.686 414.96 630.11 415.632 627.227 416.882C624.056 418.131 623.768 418.611 624.248 421.11C624.729 423.224 624.152 424.761 622.038 427.548C620.5 429.662 619.155 432.449 619.155 433.89C619.155 436.388 618.867 436.581 615.311 436.581C610.891 436.581 610.603 437.445 613.87 441.674L616.176 444.845L612.621 450.802C610.699 454.069 608.585 456.76 607.912 456.76C607.24 456.76 606.663 457.433 606.663 458.202C606.663 459.162 605.702 459.643 603.684 459.643C602.051 459.643 600.033 460.027 599.072 460.604C596.862 461.757 592.441 459.547 586.291 454.454C581.006 450.034 580.141 446.863 580.91 435.62C581.198 432.833 580.91 432.256 579.277 432.256C577.067 432.256 571.109 441.481 571.109 444.941C571.109 446.67 570.532 447.151 568.61 447.151C564.767 447.151 562.46 448.88 562.46 451.667C562.46 454.069 562.653 454.069 567.169 453.685C571.878 453.205 572.07 453.301 576.586 457.913C579.373 460.796 584.177 464.255 588.694 466.465C594.459 469.444 596.093 470.694 596.093 472.327C596.093 473.48 596.766 475.114 597.63 476.075C599.648 478.381 597.63 481.744 594.171 481.744C592.345 481.744 590.808 482.801 588.886 485.492L586.003 489.239L576.298 489.624C567.649 489.912 566.112 490.2 562.653 492.603C558.232 495.486 551.89 496.062 546.029 494.14C541.416 492.603 532.672 483.858 532.672 480.879C532.672 479.63 531.999 477.804 531.134 476.844C529.693 475.21 529.404 475.21 525.369 477.228C520.468 479.63 519.603 482.417 523.831 482.897C525.849 483.09 526.522 483.762 526.714 485.78C526.906 487.318 527.579 488.471 528.347 488.471C529.02 488.471 530.269 489.528 531.134 490.873C533.248 494.14 531.518 497.119 527.29 497.119C525.561 497.119 522.87 498.272 520.564 500.002C518.546 501.539 515.759 502.885 514.51 502.885C513.261 502.885 510.186 504.038 507.784 505.479C504.613 507.401 501.441 508.362 496.637 508.746C489.334 509.515 481.839 511.437 479.724 513.07C478.764 513.839 476.169 513.935 470.788 513.263C465.599 512.59 462.908 512.686 462.236 513.359C461.659 513.935 458.008 514.416 454.164 514.416C447.918 514.416 446.765 514.128 444.939 512.11L442.825 509.899L404.484 512.398L400.352 509.996C398.142 508.746 395.739 506.632 395.163 505.479C394.49 504.326 393.914 503.269 393.817 503.077C393.721 502.981 390.07 503.75 385.746 504.807L377.962 506.824L374.022 504.614C370.947 502.885 369.986 502.692 369.41 503.75C368.737 504.807 367.008 504.807 360.089 503.942C345.771 502.212 342.504 500.771 338.66 494.909C333.183 486.261 325.015 482.705 324.342 488.663C324.054 490.873 323.093 491.546 317.328 493.756C309.928 496.639 307.814 496.446 307.814 492.987C307.814 489.816 305.7 488.279 300.031 487.414C296.283 486.837 294.457 487.029 291.959 488.182C289.076 489.528 288.211 489.624 284.56 488.471C282.254 487.702 279.371 487.222 278.026 487.318C276.2 487.51 275.143 486.837 273.798 484.627C272.837 482.993 271.587 481.84 271.011 482.129C266.206 484.147 262.266 484.819 258.615 484.243C255.059 483.666 254.195 483.186 253.33 480.783C251.888 476.844 247.564 476.844 243.24 480.687C239.877 483.57 237.667 483.666 237.667 480.783C237.667 479.726 235.841 477.708 233.15 475.883C230.556 474.153 227 471.366 225.078 469.54C222.1 466.658 221.043 466.273 218.64 466.85C216.142 467.33 215.469 468.195 213.451 473.865L211.241 480.303L203.458 483.09C196.155 485.684 195.482 486.165 193.56 490.104C191.734 493.948 191.254 494.236 187.891 494.236C184.816 494.236 182.702 495.293 175.687 500.578C171.074 504.134 167.038 507.785 166.846 508.746C166.462 509.996 165.501 510.572 163.579 510.572C162.042 510.572 158.102 511.917 154.931 513.551C149.357 516.338 148.589 516.434 141.189 515.857C131.196 515.088 119.953 515.088 115.437 515.761C112.265 516.242 111.785 516.049 109.959 512.974C108.037 509.611 107.941 509.611 101.215 509.611C96.8906 509.611 93.3352 509.035 91.4133 508.074C89.5876 507.113 87.3774 506.728 85.6478 507.113C81.5158 507.978 76.615 505.767 67.5823 499.137L59.4144 493.179L56.1473 465.889L58.1652 463.775C59.991 461.853 60.0871 461.276 59.03 458.97C57.973 456.76 58.0691 456.184 59.3183 455.223C60.4714 454.454 60.8558 452.436 60.8558 447.151C60.8558 440.328 60.7597 440.136 57.0121 436.388C54.9941 434.274 52.784 432.833 52.3035 433.121C51.8231 433.506 51.0543 437.157 50.67 441.385C50.0934 448.016 49.8051 449.073 48.2676 449.073C46.9223 449.073 46.4419 448.4 46.4419 446.67C46.4419 445.325 45.2888 441.481 43.9435 437.926C40.8685 430.431 39.2349 430.911 39.2349 439.463C39.2349 442.538 39.0427 445.229 38.7545 445.517C38.4662 445.709 36.6404 446.286 34.5264 446.574L30.8748 447.247L31.6436 440.713C32.8928 430.815 32.2201 417.554 30.2022 413.711L28.4725 410.443L27.2233 413.422C26.2624 415.728 26.2624 416.689 27.1272 417.746C28.0882 418.803 27.9921 419.764 26.8389 422.071C25.9741 423.608 25.3015 426.683 25.3015 428.797C25.3015 432.449 25.0132 432.833 20.689 435.043L16.0765 437.349L11.9446 450.706L7.81256 463.967L92.5664 611.95C139.268 693.341 177.609 760.221 177.993 760.606C178.281 760.99 283.311 787.704 411.306 820.087L644.043 878.8L670.469 862.176C693.051 848.05 697.086 845.167 697.855 842.669C698.432 841.035 699.104 831.714 699.393 821.913L699.969 804.136L714.383 745.519L727.164 732.066C739.56 718.901 740.136 718.229 751.571 697.953L763.294 677.197L770.021 674.987C778.669 672.2 779.054 671.432 778.093 656.441L777.516 645.198L784.627 636.55L785.492 623.001C786.165 613.391 787.029 608.202 788.375 605.127C789.336 602.725 790.2 600.419 790.2 599.938C790.2 599.554 786.741 596.671 782.513 593.596C774.345 587.735 773.961 587.062 775.402 580.047C775.979 577.164 776.459 576.972 803.365 567.747L830.848 558.33L841.802 563.808L852.757 569.189L858.715 567.651C862.847 566.594 866.498 566.306 870.534 566.69L876.492 567.267L881.489 561.021L886.389 554.775L882.93 549.105C880.72 545.55 878.318 542.955 876.588 542.283C873.225 540.841 872.264 538.055 874.089 535.172C874.858 534.019 875.723 532.001 875.915 530.655C876.203 528.061 876.492 528.061 858.907 529.887C850.835 530.655 850.066 530.559 847.376 528.638C838.247 522.007 836.421 520.566 836.325 520.085C836.325 519.797 840.457 514.896 845.55 509.227L854.775 498.945L855.736 491.257C856.601 483.858 856.601 483.57 853.814 478.573C851.123 473.865 850.931 472.808 850.355 459.259L849.778 445.037L855.736 431.199L861.597 417.362L856.216 396.51L850.739 375.562L863.711 363.742L880.432 359.322C889.56 356.824 897.344 354.998 897.632 355.286C898.017 355.767 906.473 375.177 906.473 375.754C906.473 376.042 899.458 377.964 898.305 377.964C897.728 377.964 896.479 376.715 895.614 375.081C894.077 372.583 893.692 372.391 891.578 373.352L889.176 374.409L904.935 405.158L894.173 414.96L895.806 420.725C897.44 426.299 897.632 426.491 901.284 427.164C909.452 428.605 911.47 428.124 915.602 424.089L919.445 420.341L923.866 423.128L928.286 425.818L933.667 421.398C938.568 417.362 939.24 416.305 940.105 411.596C940.682 408.714 941.354 405.639 941.643 404.774C941.931 403.909 945.871 400.642 950.483 397.663C957.979 392.666 959.324 391.417 962.399 385.747C965.666 379.598 965.762 379.213 964.897 374.024C964.032 368.931 964.128 368.355 966.723 364.607C969.317 360.667 969.51 360.571 974.026 360.956C976.524 361.148 978.542 361.052 978.542 360.667C978.542 360.283 977.485 357.592 976.236 354.806L974.026 349.617L977.293 335.203C980.08 322.999 980.656 318.675 980.849 307.24L981.041 293.594L985.461 286.58C990.362 278.796 990.458 275.913 985.845 275.337C984.5 275.145 983.347 274.76 983.347 274.376C983.347 273.031 987.095 268.034 989.593 266.112L992.188 263.998L990.17 259.962L988.056 255.83L990.074 245.548C991.995 235.458 992.476 226.618 991.419 222.678C990.746 220.083 982.29 217.297 977.485 218.065C974.41 218.546 973.834 218.258 971.528 215.183L968.837 211.819L964.321 213.549C960.477 215.087 959.804 215.759 959.516 218.354C959.324 220.372 958.075 222.197 955.672 224.215C953.75 225.753 951.829 227.098 951.444 227.098C950.964 227.098 948.946 226.041 946.928 224.792L943.18 222.39L941.835 206.054L947.216 195.676C953.654 183.088 955.096 176.169 956.057 152.818L956.729 136.675L941.931 121.492L939.625 126.489Z" fill="white"/>
<path d="M223.06 439.846C220.85 442.921 220.85 445.9 223.349 453.203C225.655 460.217 226.712 461.563 227.577 458.776C227.961 457.335 229.018 456.758 230.94 456.758C232.766 456.758 234.399 455.797 236.129 453.779C239.012 450.32 238.916 449.071 234.88 442.344C232.574 438.5 231.805 438.02 228.442 437.732C225.367 437.54 224.406 438.02 223.06 439.846Z" fill="white"/>
<path d="M462.524 476.46C461.275 477.806 459.353 478.863 458.296 478.863C457.143 478.959 455.221 479.535 453.875 480.304C452.53 481.073 448.879 481.649 445.515 481.746C440.519 481.746 438.212 482.418 431.101 485.878C420.147 491.163 420.243 491.163 420.916 492.796C421.3 493.853 423.126 494.238 428.507 494.238C435.233 494.238 435.522 494.334 437.251 497.12C439.173 500.388 439.654 500.58 447.822 501.445C455.221 502.213 458.584 500.484 458.488 495.967C458.392 494.141 459.064 492.508 460.121 491.739C462.524 489.913 463.869 490.009 465.791 492.22C467.232 493.757 467.232 494.045 465.887 495.199C463.581 497.12 464.157 499.042 467.136 499.042C468.674 499.042 470.692 499.715 471.749 500.484C474.247 502.405 475.016 502.309 475.016 500.003C475.016 498.177 475.112 498.177 478.187 499.619C481.166 501.06 481.55 501.06 484.913 499.042C488.277 497.024 488.565 496.544 488.277 492.988C487.988 489.145 487.988 489.049 482.799 487.895C472.517 485.589 463.869 479.824 470.692 479.824C473.671 479.824 473.767 478.863 470.884 476.172C467.905 473.385 465.31 473.482 462.524 476.46Z" fill="white"/>
<circle id="713" cx="574" cy="449" fill="#5CE50D"/>
<circle id="712" cx="766" cy="294" fill="#E52A0D"/>
<circle id="1550" cx="907" cy="180" fill="#E52A0D"/>
<circle id="715" cx="826" cy="518" fill="#E52A0D"/>
</svg>
