<svg width="1000" height="1000" viewBox="0 0 1000 1000" fill="none" xmlns="http://www.w3.org/2000/svg">
<path d="M714.081 131.755L706.879 134.924L702.846 142.51C700.638 146.735 698.717 151.248 698.717 152.592C698.621 154.321 697.181 156.145 693.82 158.738C690.459 161.427 688.73 163.635 687.962 166.324C687.098 169.205 685.754 170.741 681.72 173.334C675.767 177.079 675.383 179 678.552 187.354C679.608 190.235 680.472 194.748 680.472 197.821C680.472 202.91 680.376 203.198 677.207 204.735C674.903 205.791 673.75 207.135 673.27 209.152C672.886 210.784 672.31 212.129 671.926 212.129C671.542 212.129 668.757 210.4 665.78 208.384L660.403 204.543L651.472 205.407C646.575 205.887 639.853 206.367 636.588 206.367H630.635L625.257 214.049L619.784 221.731L621.32 228.261L622.76 234.695L619.495 237.96L616.327 241.225L607.876 235.847C603.267 232.774 599.042 230.374 598.466 230.374C597.89 230.47 592.992 231.238 587.519 232.198C579.549 233.542 577.052 234.407 574.075 236.807C569.466 240.456 566.777 241.801 555.83 245.738C550.837 247.466 544.307 250.539 541.138 252.652C537.969 254.668 535.089 256.301 534.704 256.301C534.32 256.301 530.191 253.996 525.582 251.211C519.244 247.37 516.556 245.162 515.019 242.281C513.291 239.304 511.274 237.672 504.936 234.407L497.062 230.278L486.691 232.198L476.417 234.119L464.701 222.019L454.235 220.771C444.44 219.523 442.807 219.619 428.788 221.635C414.672 223.652 413.52 223.748 408.622 222.307C404.493 221.059 402.573 219.811 399.788 216.45C396.331 212.321 395.947 212.129 391.049 212.129C387.4 212.129 383.751 211.264 378.95 209.152C375.109 207.519 371.94 206.367 371.748 206.559C371.652 206.751 369.059 211.648 366.179 217.506C363.202 223.364 360.129 228.453 359.265 228.837C358.401 229.125 351.007 229.413 342.844 229.413H328.056L317.589 235.367L307.219 241.321L306.642 248.138C306.162 253.9 305.298 256.397 301.169 264.079C296.656 272.721 296.368 273.489 296.368 280.691C296.368 287.989 296.176 288.661 291.854 296.344C287.821 303.545 286.381 305.082 278.891 310.651L270.537 316.989L265.351 316.317L260.07 315.645L256.901 321.598L253.636 327.552L249.795 326.688C247.682 326.304 242.209 325.92 237.6 326.016C230.59 326.112 228.189 326.592 222.236 329.088C218.395 330.721 209.848 333.218 203.222 334.658C196.597 336.098 191.027 337.347 190.835 337.539C190.643 337.731 191.699 340.804 193.14 344.26L195.828 350.694L192.948 353.191C190.547 355.304 189.875 356.744 189.011 362.313C188.434 365.866 187.858 369.035 187.666 369.131C187.474 369.323 179.024 373.548 168.749 378.734C150.696 387.76 149.928 388.048 147.527 386.608C145.223 385.168 144.839 385.264 139.845 388.433C136.964 390.161 134.276 391.697 133.988 391.697C133.603 391.697 133.699 389.969 134.084 387.76C134.852 383.919 134.756 383.823 126.305 373.933L117.759 363.946L111.421 366.058C105.276 368.171 104.796 368.171 93.8487 366.923L82.6136 365.482L77.0441 357.032C72.2428 349.542 71.2825 348.486 68.7859 348.486C62.5442 348.486 61.6799 349.446 58.7991 360.105C57.2627 365.578 55.0541 372.588 53.8058 375.565C52.5574 378.638 51.5012 382.767 51.5012 384.88C51.5012 386.992 50.4449 391.601 49.1965 395.154C47.18 400.724 46.8919 402.548 47.372 410.423L47.9482 419.449L42.8588 426.171C38.2496 432.124 37.0972 433.085 31.1436 435.389C27.5907 436.83 24.6138 438.27 24.6138 438.558C24.6138 440.383 28.743 445.568 32.584 448.737C36.329 451.81 36.8092 452.578 36.233 454.883C35.5608 457.379 35.3688 457.475 26.6304 457.955L17.6039 458.436L13.4748 463.237C8.76955 468.518 8.67352 469.286 10.2099 482.922C10.9781 489.548 10.8821 492.045 9.63378 496.558C8.09736 501.839 8.09736 502.223 10.2099 507.217L12.4185 512.498L21.1569 514.995C29.1271 517.3 33.2562 519.7 33.2562 522.293C33.2562 522.773 30.7595 525.078 27.5907 527.574C23.5576 530.743 21.541 533.24 20.3887 536.025C19.5245 538.329 16.6437 542.266 14.051 544.859C9.82583 548.988 9.24968 550.044 9.24968 553.501C9.24968 555.614 12.9947 572.707 17.5079 591.432C26.2463 628.114 26.1503 627.057 23.0774 641.077L21.445 647.895L24.3258 653.176L27.2066 658.554L24.5178 661.147C21.8291 663.739 21.7331 664.027 21.7331 674.014V684.289L47.372 692.163C75.6997 700.901 81.4613 703.782 82.7096 709.736C83.0937 711.368 84.6302 714.729 86.1666 717.226L88.8553 721.643L87.4149 732.11C86.0705 741.809 85.6864 742.769 82.4216 746.514C80.501 748.722 70.4183 759.861 60.1435 771.385L41.4184 792.318L39.4979 799.904C37.6734 807.01 37.1933 807.778 30.9516 814.212C27.2066 817.861 24.4218 821.03 24.7099 821.318C24.9019 821.51 48.3323 831.017 76.66 842.54L128.226 863.378L155.882 862.321C171.054 861.745 187.474 860.785 192.275 860.209C200.246 859.152 202.262 859.248 218.202 861.745C233.855 864.242 235.679 864.722 238.656 867.219C241.633 869.907 245.474 871.828 247.49 871.828C247.971 871.828 248.355 870.388 248.355 868.563C248.355 866.066 249.315 864.338 252.388 860.977C256.709 856.464 261.99 854.063 274.09 851.374L280.043 850.03L298.384 855.119L316.725 860.305L403.053 833.033L407.854 824.775L403.533 819.59L399.116 814.5L402.957 801.729C405.069 794.719 406.798 788.477 406.798 787.997C406.798 787.421 405.741 785.596 404.397 783.868C403.053 782.14 401.996 780.123 401.996 779.451C401.996 778.779 404.205 771.673 406.798 763.703L411.695 749.107L417.361 747.57C422.354 746.13 423.122 745.65 424.082 742.673C424.659 740.944 425.811 738.928 426.675 738.16C427.539 737.487 429.844 734.703 431.861 732.014C436.854 725.196 448.185 718.186 454.139 718.186H458.46L459.516 722.603C460.572 726.636 460.86 726.924 463.261 726.444C464.701 726.156 471.231 725.196 477.857 724.428C489.764 722.891 508.009 718.09 510.218 715.978C510.794 715.305 511.466 713.961 511.658 712.905C511.946 711.272 511.082 710.888 504.936 709.928C497.926 708.872 496.102 707.815 496.102 704.646C496.102 703.11 508.297 697.445 517.804 694.564C522.701 693.123 532.592 683.329 533.84 678.719C534.512 676.127 534.897 675.935 539.314 675.935C543.443 675.935 544.307 676.319 546.132 678.719C547.572 680.736 549.781 681.984 554.006 683.137C557.271 684.001 560.439 684.961 561.112 685.249C562.072 685.633 562.36 684.865 562.168 682.656C561.88 679.776 562.168 679.392 565.625 678.239L569.37 676.895L572.827 680.928C574.747 683.233 578.012 686.882 580.125 689.186L583.966 693.315L590.784 692.643L597.506 691.971L616.135 658.554V620.432L623.721 613.326L631.403 606.22L629.098 602.283L626.89 598.25L630.058 594.12L633.323 589.991L631.595 583.077L629.77 576.26L634.38 573.763C637.548 572.034 640.909 571.17 645.999 570.786C649.936 570.498 659.25 568.577 666.644 566.657L680.28 563.104L684.217 555.23C686.426 550.813 688.154 546.972 688.154 546.684C688.154 546.395 685.561 543.419 682.393 540.154C675.767 533.24 674.807 529.495 678.359 524.501C681.144 520.66 681.048 520.372 677.399 520.372C675.671 520.372 671.446 519.124 668.085 517.684L661.939 515.091L659.25 507.889C656.273 500.207 656.273 499.151 659.73 495.214C661.555 493.101 662.995 492.621 666.74 492.429C670.773 492.333 672.694 493.101 681.624 497.998L691.995 503.664L704.191 502.415C714.753 501.359 733.382 497.326 735.879 495.502C736.359 495.214 738.856 491.853 741.641 488.204C745.674 482.634 746.634 480.329 747.594 474.952L748.747 468.326L744.81 463.141C741.449 458.724 740.969 457.379 740.969 453.058C740.969 448.833 741.449 447.489 744.137 444.128C746.058 441.727 748.17 437.406 749.419 433.085C750.571 429.148 751.627 425.883 751.723 425.691C751.915 425.595 757.773 422.618 764.783 419.161C771.697 415.704 777.458 412.535 777.458 412.055C777.362 411.671 776.978 409.558 776.594 407.35C775.922 403.701 776.018 403.125 778.515 400.724L781.299 398.035L778.707 395.346C776.21 392.754 776.21 392.562 777.458 387.568C778.611 382.575 778.515 381.903 775.73 373.356C773.905 367.787 772.561 361.161 772.081 355.976L771.505 347.621L766.031 343.78C763.055 341.764 758.349 337.635 755.468 334.754L750.379 329.473L761.998 313.244C768.336 304.314 774.29 296.344 775.25 295.479C776.882 294.039 777.747 294.135 786.005 296.728C790.998 298.264 795.223 299.416 795.319 299.224C795.511 299.032 796.664 295.383 797.912 291.062C799.16 286.645 800.505 282.9 800.793 282.612C801.081 282.324 804.73 281.555 808.859 281.075C817.693 279.827 819.23 278.963 830.753 267.728L839.395 259.373L866.379 257.933C881.167 257.165 894.994 256.781 897.203 257.165C900.276 257.741 902.58 257.357 908.15 255.34L915.256 252.748L929.372 257.549L943.391 262.35L947.425 259.181C950.497 256.781 953.474 255.532 959.524 254.188C967.878 252.364 974.312 249.291 974.312 247.082C974.312 246.41 972.968 242.185 971.431 237.864C969.319 232.294 968.646 228.933 969.03 226.821C969.703 222.98 970.663 222.403 973.832 223.844C976.04 224.804 976.617 224.612 979.401 222.019L982.474 219.042L986.123 220.867L989.676 222.788L990.828 220.291C991.789 218.178 991.597 217.506 989.772 215.586C986.795 212.417 979.785 210.496 976.713 212.129C974.792 213.185 974.12 212.993 971.143 210.784C968.358 208.672 966.918 208.288 961.348 208.288C955.683 208.288 954.338 208.672 952.322 210.592C950.785 211.937 946.656 213.665 941.663 215.009C937.15 216.162 930.14 218.37 926.011 219.907C916.888 223.268 915.736 223.364 918.425 220.483C920.249 218.466 920.441 217.794 919.481 215.201C918.521 212.417 918.041 212.129 914.68 212.129C912.663 212.129 909.206 211.456 907.19 210.592C903.541 209.152 902.772 209.152 892.498 211.648C886.544 212.993 880.878 214.337 880.014 214.625C879.15 214.913 877.806 216.93 877.037 219.139L875.789 223.172L869.451 224.036C863.402 224.9 863.21 224.996 859.945 229.701C858.12 232.39 854.183 237.287 851.11 240.552L845.637 246.506L837.667 247.658C833.346 248.33 828.928 249.195 827.872 249.579C826.816 249.963 819.23 255.82 811.068 262.542C793.399 277.138 793.879 276.85 786.677 278.387L781.107 279.539L776.786 275.314C771.601 270.32 765.071 259.181 761.518 249.867C759.117 243.145 759.021 242.569 760.078 234.983C760.75 230.566 762.382 224.036 763.727 220.483L766.319 213.953L764.303 209.92C761.518 203.966 762.286 194.172 766.031 188.218C768.048 185.145 768.816 182.649 768.816 179.672C768.816 175.831 768.624 175.543 766.703 176.215C765.455 176.503 763.343 177.463 761.902 178.135C760.462 178.904 757.101 179.48 754.508 179.48C749.899 179.48 749.707 179.384 748.843 176.311C748.17 174.102 748.363 170.741 749.227 165.94C749.899 162.003 750.475 156.241 750.475 152.977L750.571 147.215L743.369 143.086C739.336 140.877 732.998 136.652 729.253 133.771C725.508 130.891 722.147 128.586 721.859 128.586C721.571 128.586 718.018 130.026 714.081 131.755Z" fill="white"/>
<circle id="1" cx="626" cy="450" fill="#5CE50D"/>
<circle id="2" cx="115" cy="462" fill="#E52A0D"/>
<circle id="4" cx="344" cy="680" fill="#E52A0D"/>
<circle id="3" cx="530" cy="296" fill="#E52A0D"/>
</svg>
