<svg width="1000" height="1000" viewBox="0 0 1000 1000" fill="none" xmlns="http://www.w3.org/2000/svg">
<path d="M108.674 977.322L101.625 982.564L99.002 990.021L94.5684 990.426L95.1748 981.958L95.7764 976.518L107.474 972.081L108.674 977.322Z" fill="white"/>
<path d="M699.767 694.108L699.896 694.229L700.017 694.27L700.243 694.331L700.475 694.393H700.692L700.898 694.36L701.06 694.409L701.347 694.493H701.468L701.589 694.551L701.694 694.725L701.852 694.995L702.046 695.299L702.288 695.46L702.56 695.589L702.879 695.763L703.203 695.92L703.627 696.005L703.93 695.993L704.326 695.892L704.492 695.83L704.678 695.79L704.775 695.803L704.856 695.932L704.998 696.004L705.248 696.194L705.354 696.355L705.471 696.445L705.657 696.598L705.939 696.699L706.13 696.829L706.34 696.89L706.878 697.233L706.895 697.302L707.02 697.455L707.173 697.584L707.278 697.826L707.311 698.089L707.367 698.38L707.448 698.581L707.815 699.245L707.944 699.387L708.337 699.452L708.449 699.528L708.538 699.552L708.664 699.45L708.761 699.467L709.043 699.552L709.354 699.682L709.476 699.771V699.863L709.843 700.033L710.146 700.154L710.373 700.247L710.607 700.47L710.79 700.729L711.065 700.89L711.449 701.1L711.85 701.262L711.955 701.253L712.044 701.321L712.437 701.312L712.549 701.341L712.694 701.199L712.828 701.159L712.966 701.252L713.185 701.26L713.382 701.212L713.689 701.252L714.081 701.381L714.441 701.36L714.554 701.333L714.619 701.26L714.651 701.413L714.874 701.481L715.124 701.474L715.362 701.481H715.563L715.637 701.09L715.596 700.969L715.516 700.867L715.427 700.773L715.418 700.697H715.499L715.789 700.907L715.732 701.198L715.7 701.514L715.772 701.582L716.084 701.432L716.205 701.339L716.271 701.23L716.263 701.048L716.355 701.23L716.509 701.271L716.799 701.25L717.054 701.197L717.397 701.148L717.68 701.136L718.152 701.047L718.282 701.007L718.347 700.926L718.4 700.744L718.546 700.724L718.796 700.643L718.946 700.574L719.059 700.4L719.188 700.279H719.375L719.58 700.312L719.727 700.319L719.823 700.243L719.949 700.251L720.11 700.319H720.584L720.737 700.292L720.875 700.372L721.178 700.474L721.348 700.494L721.748 700.575L721.983 700.596L722.254 700.523L722.808 700.273L723.143 700.063L723.378 699.942L723.547 699.881L723.705 699.76L723.729 699.627L723.745 699.327L723.811 699.041L723.891 698.884L724.085 698.822L724.194 698.831L724.251 698.992L724.316 699.153H724.635L724.772 699.073L724.845 698.964L724.828 698.852L724.731 698.69L725.062 698.602L725.086 698.73L724.997 698.803L724.965 698.911L725.07 699.094H725.228L725.414 699.054L725.608 698.973L725.677 698.871L725.653 698.79L725.511 698.621L725.333 698.176L725.431 698.127H725.503L725.624 698.527L725.774 698.822L725.863 699.134V699.519L726.457 699.77L727.035 699.729L727.226 699.75L727.476 699.669L727.638 699.552L727.694 699.467L727.859 699.329L728.102 699.229L728.364 699.167L728.438 699.006L728.526 698.953L728.566 698.832L728.606 698.69H728.991L729.326 698.674L729.633 698.701L729.815 698.681L730.091 698.62L730.442 698.579L730.822 698.526L731.206 698.385L731.429 698.256L731.671 698.046L731.893 697.872L732.03 697.755L732.217 697.634L732.455 697.662L732.641 697.723L732.904 697.763L733.194 697.824L733.413 697.975L733.797 698.174L733.987 698.125L734.214 698.045L734.432 697.924L734.727 697.722L734.896 697.653L735.151 697.621L735.427 697.642L735.624 697.723L735.802 697.824L735.932 697.913L736.178 698.225L736.339 698.419L736.46 698.621L736.536 698.831L736.585 699.073L736.657 699.142L736.827 699.327L736.965 699.55L736.941 699.829L736.884 700.031L736.941 700.415L737.056 700.781L737.193 701.044L737.371 701.415L737.403 701.771L737.339 702.002L737.29 702.354L737.354 702.685L737.396 702.939L737.323 703.149L737.307 703.573L737.371 704.067L737.509 704.544L737.74 705.065L738.079 705.659L738.262 706.035L738.646 706.678L739.135 707.191L739.579 707.555L739.915 707.777L740.282 707.879L740.362 708.076L740.476 708.291L740.572 708.481L740.948 709.027L740.932 709.116L741.134 709.089V709.169L741.202 709.277L741.437 709.473L741.731 709.622L741.909 709.684H742.088L742.237 709.756L742.399 709.845L742.649 710.035L743.05 710.428L743.228 710.589L743.353 711.025L743.515 711.35L743.684 711.45L743.785 711.508L743.915 711.62L744.093 711.701H744.23L744.271 711.507L744.484 711.56L744.565 711.386L744.549 711.56L744.949 711.632L745.062 711.065L745.191 711.087L745.094 711.688L745.305 711.729L745.288 711.882L745.607 711.931L746.048 711.87L746.234 711.74L746.355 711.72L746.432 711.821L746.553 711.78L746.233 711.369L746.282 711.235L746.432 711.154L746.578 711.275L746.779 711.507H747.091L747.451 711.498H747.661L747.888 711.6L748.062 711.661L748.32 711.722L748.688 711.701L749.111 711.588L749.298 711.653L749.387 711.609L749.488 711.601L749.609 711.925L749.747 712.62L749.828 713.638L749.885 713.848L749.724 713.949L749.812 713.998V714.11L749.626 714.333L749.658 714.697L749.577 714.774L749.476 715.069L749.258 715.489L749.128 715.864L749.193 716.115L749.38 716.228L749.78 716.458L749.699 716.511L749.587 716.49L749.506 716.467L749.397 716.365L749.26 716.337L749.106 716.458L748.978 716.681L748.961 717.186L749.041 717.671L749.252 718.225L749.538 718.875L750.02 719.514L750.262 719.817L750.532 720.116L750.71 720.258L750.993 720.411L751.264 720.338L751.336 720.218L751.426 720.258L751.857 720.209L751.923 720.116L752.028 720.156L752.122 720.116L752.194 720.311L752.404 720.492L752.602 720.594L753.079 720.582L753.163 720.649H753.887L753.87 720.803L752.683 720.79L752.362 721.073H752.21L752.137 721.146L752.053 721.254L752.044 721.444L752.089 721.537L751.898 721.639L751.489 722.557L751.53 722.739L751.85 723.261L751.744 723.394L751.663 723.333L751.174 722.807L751.053 722.888L750.862 723.118L750.806 723.426L750.822 723.632L750.839 724.048L750.944 724.218L751.062 724.33L751.183 724.37L751.303 724.35L751.376 724.277L751.473 724.188L751.63 724.156L751.703 724.249L751.809 724.439L751.914 724.682L751.856 724.844L751.679 724.795L751.55 724.911V725.134L751.59 725.34L751.872 725.664L752.475 726.173L753.178 726.658L753.429 726.711L754.088 726.819L754.649 727.018L755.239 727.143L755.377 727.534L755.578 727.979L755.752 728.13L755.994 728.312L756.314 728.643L756.719 728.873L756.965 729.128L757.365 729.431L758.25 730.086L758.473 730.167H758.755L759.066 730.146L759.228 730.154L759.401 730.288L759.732 730.457L759.923 730.607L760.149 730.802L760.484 731.012L760.975 731.214L761.9 731.396L762.284 731.363L762.636 731.255L762.911 731.247L763.19 731.308L763.51 731.417L763.721 731.569L763.938 731.869L764.379 732.232L765.074 732.727L765.588 732.917L765.927 732.929L766.142 732.917L766.207 732.767L766.183 732.476L766.062 732.294L766.159 732.262L766.337 732.436L766.369 732.363L766.475 732.226L766.458 732.376L766.369 732.525L766.297 732.967L766.458 733.072L766.539 732.797L766.522 733.172L766.905 733.479L767.231 733.519L767.562 733.54L768.307 733.83L768.469 733.77L768.638 733.619L768.876 733.606L769.021 733.809V733.982L768.747 734.395L768.649 734.786L768.673 735.139L768.843 735.49L768.866 736.86L768.898 737.356L768.834 737.53L768.672 737.971L768.664 738.302L768.49 739.099L768.271 739.665L768.041 740.219L767.326 740.695L766.975 740.793L766.658 740.935L766.484 741.157L766.258 741.348L765.883 741.48L765.361 741.542L764.864 741.622L763.968 741.663H763.397L763.162 741.743L762.827 741.658L762.472 741.274L762.819 741.428L763.001 741.339H763.421L763.725 741.411L763.987 741.473L764.148 741.359L764.286 741.339L764.447 741.379L764.532 741.271L764.638 741.158L764.816 741.179L764.945 740.956L764.735 740.848L764.5 740.402L763.995 739.97L763.595 739.769L763.243 739.433L762.754 739.304L762.354 739.081L762.256 738.851L761.989 738.7L761.767 738.647L761.375 738.498L760.97 738.292L760.658 738.296L760.194 738.578L759.87 738.857L759.83 739.295L759.991 739.545L760.072 739.869L759.959 740.192L759.769 740.423L759.404 740.436L758.491 740.02L758.188 739.971L758.019 740.161L757.897 740.424L757.816 740.598L757.905 740.666L758.107 740.573L758.345 740.666L759.045 740.868L759.255 741.038L759.363 741.313L759.246 741.637L758.923 741.787L758.644 742.005L758.376 742.309L758.497 742.482L758.897 742.51H759.313L759.685 742.438L760.206 742.551L760.47 742.562H760.622L760.958 742.498L761.07 742.308L761.24 742.227L761.463 742.38L761.56 742.59L761.511 742.881L761.431 743.156L760.998 743.33L760.801 743.071L760.501 742.945L760.134 742.78L759.718 743.015L759.483 743.197L759.427 743.367L759.306 744.034L759.188 744.083L759.075 744.479L759.019 744.75L758.569 744.629L758.271 744.649L758.153 744.974L758.064 745.176L757.952 745.435L757.912 745.798L757.977 746.122L758.09 746.105L758.327 746.207L758.595 746.288L758.89 746.102L759.58 746.125L759.799 746.492L759.557 746.908L759.339 747.01L758.89 747.171L758.595 747.333L757.863 747.354L757.366 747.337L757.063 747.555L757.08 747.979L756.772 748.238L755.77 748.42L754.663 748.521L754.133 748.946L753.551 749.588L752.965 749.855L752.524 750.102L752.387 750.578L751.849 750.909L751.433 751.362L750.951 752.292L750.79 753.02L751.053 753.985L751.695 755.274L752.056 756.079L752.241 756.907L752.642 757.069L752.966 756.887L753.293 756.123L753.96 755.437L754.825 754.45L755.201 754.467L755.451 754.733L755.629 755.942L755.395 756.585L755.225 756.602L755.002 756.921L754.962 757.151L754.44 757.737L754.057 758.461L753.838 758.323L753.592 759.006L753.511 760.072L753.653 759.911L753.952 759.79L754.238 760.04L754.514 760.469L754.627 760.437L754.864 759.83L755.265 759.042L755.933 758.258L756.6 756.808L757.359 756.455L758.571 755.72L759.134 755.559L759.837 755.68L760.852 755.094L761.659 754.532L762.948 754.087L763.938 753.926L764.496 754.127L764.812 754.778L764.795 755.93L765.09 756.767L764.521 757.834L764.641 759.188L764.819 760.053L765.041 760.295L765.644 760.679L766.553 760.639L766.88 761.059L766.286 761.943L764.916 763.771L763.898 765.997L763.607 766.604L763.673 767.674L763.567 770.011L763.976 770.576L765.043 770.754L766.149 770.916L766.474 769.646L766.671 769.69L766.514 770.395H766.776L767.402 769.788L768.211 769.4L768.845 769.631L768.958 769.926L769.244 769.48L769.127 769.271L769.35 768.633L770.162 768.136L771.313 766.968L772.037 766.342L772.744 765.658L773.408 765.274H774.156L774.997 765.396L775.462 765.675L776.169 766.16L776.634 766.828L775.158 767.956L774.637 767.935L774.173 768.278L773.344 768.501L773.227 768.861L772.984 769.629L772.642 770.255L772.463 770.918L771.695 771.483L773.01 771.646L773.531 771.2L774.198 770.699L774.942 770.554L775.969 770.478L776.717 770.194L777.02 769.852L777.605 769.491L778.184 769.527L778.289 769.285H778.527V769.491L779.578 769.593V769.226H779.886V769.593L780.157 769.62L780.573 769.272L780.505 769.123L780.553 768.439L780.488 768.278L780.646 768.036L780.791 768.319L780.711 768.944L781.378 769.708L781.354 770.012L781.835 770.072H782.34L783.205 769.911L784.058 769.973L784.923 770.259L783.977 769.325L784.539 768.603L784.481 767.935L784.842 767.895L784.539 766.524L784.818 765.377L784.62 764.29L784.419 762.899L784.361 762.091L784.035 762.212L783.433 762.151L783.409 761.969L783.914 761.99L784.459 761.707L784.298 761.627L783.752 761.869L783.712 761.646L784.036 761.384L784.116 760.296L784.076 759.391L783.474 758.38L782.791 757.596L782.742 757.187L781.918 756.621L781.583 756.71L781.453 756.96L781.583 757.425L781.053 757.671L780.491 757.995L779.768 758.075L779.582 757.817L779.182 757.55L779.116 757.19L779.581 756.28L780.264 755.657L781.258 755.011L781.234 754.85L781.137 754.567L781.419 754.43L781.634 754.567L782.543 754.147L782.566 753.662L783.129 753.399L783.286 752.757L782.95 752.029L783.129 751.948L783.751 752.773H784.034L784.802 752.272L785.908 751.649L787.295 750.619L787.465 750.801L787.986 750.396L788.75 749.911L789.437 750.659L789.614 750.518L788.932 749.608L789.239 749.046L789.559 749.066L789.785 748.865L789.802 748.197L789.984 748.299L790.251 748.38L790.748 748.138L791.693 747.555L791.733 747.171L791.92 747.029L792.077 747.212L792.542 746.949L792.663 746.524L793.047 746.023V745.802L793.507 745.341L794.064 744.997L794.854 744.626L795.1 743.967L795.205 742.759L795.326 742.415L795.383 741.323L794.967 740.903L794.887 740.52L794.438 739.896L793.795 739.473L793.714 739.169L794.66 738.846L794.887 738.987L795.448 739.29L796.208 739.614L796.858 739.473L797.077 739.148L797.42 738.305L797.646 737.679L798.047 737.496L798.285 737.617L798.709 738.243V738.604L798.992 738.846L799.153 739.492L799.032 739.896L799.089 740.224L799.23 740.688L799.194 741.063L799.042 741.12L798.674 741.267L798.392 741.565L798.19 742.232L798.659 742.778L799.06 743.126L799.686 742.88L800.207 742.858L800.55 743.183L800.752 743.583L800.631 744.169L801.273 745.297L801.438 745.939L801.576 746.38L801.544 746.711L801.447 746.949L801.176 746.989L800.828 746.928L800.061 746.366L799.059 746.827L798.69 747.09L798.513 747.393L798.69 747.554L798.712 748.16L798.033 748.844L797.447 749.829L796.861 750.173L794.864 751.746L794.505 752.069L793.397 752.672L792.868 752.873L792.642 753.141L792.347 753.944L792.468 754.51L792.241 754.931L791.921 755.011L791.517 755.031L791.254 755.396L791.092 755.981L791.173 757.069L791.654 757.995L792.386 758.864L792.77 759.288L792.931 759.628L793.529 759.547L793.894 759.106L794.423 759.789L794.742 759.851L794.581 760.255L794.358 760.76L794.141 761.083V761.383L794.464 762.494L794.929 763.378L794.479 764.345L795.531 765.335L796.274 765.921L796.396 766.805L797.463 766.098L798.207 765.96L798.635 765.636L799.156 765.672L800.143 765.858L800.51 765.895L801.177 766.399L801.193 766.845L801.376 766.986L801.497 767.472L801.643 768.417L801.699 768.882L802.003 769.646L802.459 770.737L802.709 770.773L803.11 770.874L803.752 771.186L804.258 771.521L804.843 771.966L805.404 772.144L805.789 772.257L806.132 772.136L806.815 772.087L807.6 771.945H808.011L808.468 772.265L808.973 772.346L812.218 772.528L813.111 771.845L813.749 771.283L814.057 770.798L814.595 770.516L815.181 770.475L815.523 770.774L816.045 771.359L816.454 771.765L817.08 771.986L818.146 772.008L818.906 771.562L819.598 771.098L820.729 770.799L821.691 770.697L822.358 770.738L822.597 771.139L822.479 771.583L822.092 771.481H821.373L820.665 771.543L820.079 771.927L819.518 772.853L819.068 773.839L819.336 774.425L820.811 773.983L821.09 773.458L821.716 774.04L821.065 774.384L821.292 775.03L821.837 774.95L822.342 775.33L823.086 775.576L823.81 775.773L824.273 775.935L824.209 776.359L824.011 776.258L823.793 776.723L823.688 777.445L823.408 777.851L822.7 778.092L822.114 778.355L821.553 778.796L820.866 779.12L820.441 779.141L819.88 779.181L819.572 779.262L819.051 779.706L818.65 780.976L818.707 781.743L818.731 782.548L818.69 782.83L818.464 783.416L818.69 783.836L818.853 784.381L818.447 784.826L817.279 784.624L816.956 784.766L816.409 785.312L816.467 785.713L816.426 786.137L816.106 786.703L815.839 786.819L815.746 787.288L815.88 787.951L816.49 788.315L816.865 788.856L816.53 790.009L816.329 790.291L816.091 790.894L815.586 792.566L815.865 793.88L815.8 794.725L815.683 795.089L815.881 795.671L815.643 796.455L815.8 797.103L815.48 797.507L816.188 797.203V796.864L816.572 796.841L817.157 796.238L817.72 795.551L818.2 794.545L818.665 793.434L818.944 792.487L819.995 790.596L820.945 789.303L821.208 789.222L821.435 789.303L821.956 789.464L822.397 789.384L822.7 789.04L823.222 788.781L824.087 788.636L824.713 788.534L825.461 788.437L825.42 788.072L825.622 788.274L825.845 788.254L826.39 788.031L826.773 788.133L827.352 787.95L828.141 787.749L828.711 787.547L829.111 787.228L830.667 787.389L830.986 787.187L831.311 786.965L831.832 786.844L832.761 786.682L833.162 786.197L833.202 785.671L833.546 785.372L834.091 785.312L834.415 785.513L835.078 785.67L835.502 785.952L836.007 785.932L836.609 785.446L837.154 784.603L837.315 784.804L837.21 785.309L837.291 785.973L837.153 786.275L836.891 786.699L836.592 786.882L835.945 786.816H835.54L835.303 786.861L835.052 787.019L834.798 787.225L834.293 787.544L833.893 787.968L833.642 788.655L833.788 789.318L833.546 789.742L833.308 790.066L833.521 790.427L833.708 790.794L833.441 791.012L833.203 790.991L832.577 790.086L832.137 789.722L831.793 789.701H831.389L831.085 790.045V790.368L831.23 790.39L831.413 790.647L831.574 791.233L831.91 791.416L832.439 792.463L832.738 792.745L833.349 793.008L833.813 793.246L834.295 793.352L835.014 792.906L835.24 792.542L835.543 792.138L835.907 791.535L836.211 791.334L836.47 791.476L836.812 792.224L836.999 792.321L837.44 792.139L837.678 791.719L837.743 791.174L838.184 790.891L838.589 790.992L839.171 791.175L839.479 790.67L839.624 790.411L839.798 790.225L840.024 789.542L840.319 788.834L841.027 788.05L841.307 787.804L841.573 787.889L841.541 788.601L841.291 789.481L841.134 790.226L841.013 791.155L840.688 791.983L840.123 792.728L839.904 793.132L840.025 793.37L840.664 793.977L841.052 794.078L841.573 794.139H842.236L842.383 793.694L842.863 792.748L843.05 791.984L843.106 791.419L842.985 790.57L843.132 789.504V788.437L843.686 788.009L844.264 788.094V789.484L844.397 790.328L844.664 790.833L845.064 791.197L845.186 791.379L845.667 791.339L845.812 791.076L845.756 790.413L845.586 789.827L845.715 789.484L845.849 789.302H846.173L846.436 789.484L846.718 789.767L847.118 790.227L847.542 790.251L847.566 790.028L847.865 789.887L848.232 789.825L848.714 789.846L848.128 789.118L847.927 788.557L847.288 787.87L846.783 787.228L846.452 786.419L846.411 786.076L847.014 786.402L847.423 786.27L847.811 786.217L849.35 787.219L849.637 786.876L849.758 786.564L850.158 786.354L851.233 786.634L851.738 786.181L851.617 785.695L852.037 785.335L852.926 785.185L852.828 784.829L852.129 784.525L851.232 784.521H850.67L849.7 784.562L849.259 784.845L849.081 784.425L849.178 784.053L849.396 783.811L849.676 783.528L850.108 782.603L851.499 782.138L851.434 781.862L851.964 781.806V781.462L851.762 781.191L851.018 780.888L850.67 780.491L850.687 780.196L851.321 780.136L851.624 780.164L851.859 780.062L852.485 779.925H852.805L853.775 780.851L854.15 780.98L854.588 780.798L855.59 780.459L856.553 780.325L856.682 780.378L857.042 780.535L857.555 780.325L857.842 780.729L857.873 781.234L857.776 781.646L858.067 782.261L858.693 782.543L858.973 782.907L859.744 782.867L860.306 783.028L860.266 783.716L859.583 784.608L859.413 784.96L859.542 785.247H860.023L860.384 785.408L860.788 785.89L861.277 786.455L861.88 786.576L862.199 786.253L862.361 785.646V785.085L862.647 784.316L863.048 783.791H863.209L864.22 784.115L864.515 784.406L864.454 784.607L864.66 785.246L865.101 785.443L865.792 785.646L867.323 785.568L868.046 785.043L868.236 784.606L868.366 784.315L868.815 784.033L870.189 782.865L870.63 782.42L871.512 782.259L872.603 782.583L873.084 782.017L873.614 781.737L874.373 781.777L875.724 781.54L876.173 781.317L876.285 781.648L876.188 782.403L875.586 783.188L874.825 783.873L874.461 784.06L874.037 783.95L873.661 784.12L873.613 784.561L873.043 784.885L872.352 784.966L871.47 785.442L870.892 785.438L870.196 786.064L869.711 786.161L869.618 787.014L869.457 787.499V787.984L869.946 788.502L870.62 788.15L870.964 787.616L871.268 787.059L871.797 787.014L872.399 787.58L872.764 787.419L872.921 786.897L873.611 786.493L874.093 786.21L874.453 786.412L874.824 787.54L875.185 787.572L875.391 787.544L875.899 787.487L875.787 787.256L876.066 786.855L876.467 785.982L876.798 784.956L877.117 784.677L878.281 784.984L878.811 784.677L879.235 784.231L879.341 783.827L878.974 783.266L878.893 782.74L879.984 781.855L880.546 782.296L881.395 782.22L880.994 782.902L880.913 783.388L880.582 783.59L880.385 783.949H880.712L880.873 784.476L880.546 784.827L880.264 784.88L879.903 784.678L879.653 784.605L879.463 784.678L879.285 784.929L879.172 785.611L879.293 785.785L879.62 785.887L879.79 786.137L879.571 786.298L879.381 786.209L879.22 786.088L878.853 785.967L878.42 786.088L878.145 786.359L877.882 787.067L878.169 787.62L878.459 787.973L878.504 788.304L878.273 788.728L878.055 788.982L877.117 789.436V789.637L876.956 790.32L876.848 790.542L876.557 790.765L875.789 790.526L874.786 790.486L873.614 791.493L873.372 791.453L872.802 791.412L872.244 791.772L871.562 791.979L871.326 792.513L871.31 793.106L871.738 793.534L872.366 793.148L873.017 793.59L873.668 794.463L874.124 794.221L874.302 793.149L874.925 792.899L875.422 793.194L875.551 793.998L875.519 794.835L875.575 795.481L875.656 796.197L875.575 796.642L875.386 797.021L874.589 797.183L874.14 797.583L873.384 799.604L873.024 800.974L872.887 801.96L872.821 802.465L873.178 803.512L873.856 804.194L874.619 804.515L874.353 805.016L873.856 805.161L873.536 804.964L872.805 805.201L872.247 805.08L870.833 804.6L869.342 803.832L868.542 804.033L867.932 804.68L867.37 805.004L866.84 804.879L866.479 804.681L867.135 803.856L867.417 802.964L868.011 802.906L869.22 802.866L868.698 802.502L868.092 802.017H867.53L866.879 802.138L866.277 802.299L865.594 801.895L865.518 801.212L866.277 800.124L866.56 799.356L863.904 796.495L863.294 796.696L862.894 797.138L863.011 798.265L863.455 799.68V800.165L863.002 800.517L861.802 800.618L861.486 800.961L860.933 801.495L860.46 801.75L860.237 802.013L860.068 802.34L860.254 802.728L860.59 803.107L861.054 803.22L861.991 802.262L862.505 801.851L862.885 801.789L863.131 801.976L863.373 802.403L863.789 803.422L863.829 804.137L863.61 804.598L863.445 804.832L862.932 805.159L862.567 805.07L862.281 805.002L861.639 804.614L861.125 804.764L860.669 805.2L860.31 806.252L859.586 806.616L858.854 807.339L858.535 808.106L857.884 808.269L857.165 807.662L856.785 807.011L856.418 806.85L855.75 807.137L854.219 807.742L853.657 807.904L852.89 807.823L852.408 808.345L851.807 808.754L851.196 808.669L849.947 808.066L849.385 808.588L849.305 809.355L849.607 809.824L850.723 810.277L850.755 810.523L850.314 810.766L849.385 811.211L849.103 811.611L849.264 812.016L849.947 812.258H851.357L851.316 812.783L849.947 813.79L849.542 814.558L848.132 815.726L846.321 817.258L844.988 818.466L844.18 819.554L843.336 819.755L843.179 819.957L842.567 819.552L841.283 818.829L841.193 819.274H840.834L839.496 819.387L838.404 819.819L839.423 819.698L839.702 820.199L839.863 820.789L840.466 820.99L840.393 821.366L841.192 822.579L841.763 822.82L842.021 823.168L842.494 823.27L843.336 822.659L844.22 821.892L845.38 820.856L845.966 820.756L846.657 820.384L847.521 820.223L847.994 820.505L848.432 820.081L848.581 819.71L848.653 819.354H849.385L849.842 819.851L849.987 818.828L850.072 818.278L849.898 817.575L850.104 817.296L851.595 817.376L852.125 816.491L853.01 815.684L853.938 815.644H854.581L855.39 816.371L856.271 818.061L855.991 818.465L855.591 818.425L855.309 818.626L855.151 819.272L855.39 820.036L855.83 820.603H855.951L856.602 820.278L857.164 820.561L857.726 821.288H858.134L858.615 821.567L859.016 822.174L858.575 822.538L858.454 823.383L858.814 823.948L859.353 824.385L859.594 824.397L859.97 824.135L860.652 823.448L861.501 822.494L862.079 822.555L863.627 822.184L863.453 822.781L863.813 823.227L863.373 823.384L864.02 824.111L862.884 824.689L862.843 825.134L863.708 825.353L865.029 826.281L865.426 826.087L865.915 825.764L866.998 826.123L867.365 825.683L868.129 825.197L868.735 824.918L868.978 824.231L869.418 823.948L869.988 824.47L870.426 825.521L870.709 826.328L870.729 826.947L871.028 826.85L871.348 826.001V824.595L871.15 823.342L871.632 822.699L872.683 823.023L873.774 823.266L874.663 823.141L875.504 822.979L875.545 822.053L876.397 821.771L876.955 821.973H877.605L877.93 821.41L878.087 820.077L878.491 819.272L878.648 818.546L878.973 819.272H879.579L880.181 819.111H880.751L880.67 819.839L880.465 820.846L880.913 821.73L880.505 822.701L879.862 822.902L879.381 823.428L878.973 824.111L879.34 824.717L879.562 824.959L879.861 824.717L880.553 824.486L881.296 824.729L881.712 824.741L882.193 824.959L883.228 825.545L882.723 825.735L882.242 825.562L881.753 825.764L881.15 826.168H880.423L879.619 826.41L878.973 826.972L878.37 828.625L878.73 828.827L879.301 828.342L879.664 827.817L879.946 827.861L880.427 828.141L881.114 828.707L880.859 830.049V830.905L881.494 831.289L881.943 831.564L882.978 831.759L883.637 831.662L884.591 831.407L885.447 831.157L886.353 831.358L886.987 831.564L886.555 831.965L885.293 832.365L884.19 832.722L883.232 832.568L882.823 832.115L882.278 831.836L881.7 831.969L881.469 832.365L881.566 832.919L881.413 833.424L881.268 833.675L880.763 833.775L880.459 834.28L880.54 835.424L880.964 836.095H881.316L882.12 835.742L881.708 837.157L881.717 838.563L882.023 839.771L882.929 841.234L883.987 841.186L884.695 841.08L885.552 841.739L885.446 842.293L885.095 842.592L883.328 844.205L883.231 845.216L883.433 845.871L883.174 846.78H882.119L881.763 847.233L881.565 848.24L881.917 849.149H882.422L883.23 849.603L883.881 850.209L885.045 850.407L885.647 849.854L886.258 849.656L885.95 850.86L883.735 852.877L882.325 853.786L880.712 854.59L880.457 854.541L880.654 853.645L880.824 853.341L880.303 852.626L879.936 852.392L879.35 852.02L878.243 851.014L877.435 851.163L876.328 851.77L875.516 852.573L874.865 854.138L874.962 855.601L875.156 856.842L875.222 857.213L874.514 857.767L873.706 858.167L872.845 858.822L872.045 859.227L871.803 859.004L871.598 858.807L871.94 858.423L871.893 857.97L871.339 857.613L870.587 857.666L869.774 857.816L869.172 858.066L868.413 858.822L867.964 859.529L867.656 860.888L867.705 861.999L867.964 863.106L868.413 863.861L868.821 863.761L869.625 863.913L870.588 864.015L871.436 863.861L872.199 863.712L872.936 863.646L872.479 864.443L872.248 865.211L871.909 865.611L871.241 866.12L870.287 866.188L869.382 865.886L869.181 865.712L869.055 865.352L868.78 865.513L868.675 865.856L868.076 865.986L867.64 866.188L867.065 866.692L866.357 866.794L865.796 866.317L865.828 865.683L865.593 865.581L865.08 865.524L864.745 865.711L864.49 865.856L864.24 865.683L864.038 865.918L864.24 866.896L864.543 867.671L864.721 867.631L865.429 867.971L865.756 868.375L865.193 868.981L864.288 869.312L863.783 869.082L863.076 868.637L862.228 868.677L861.561 868.435L860.941 868.075L860.639 868.014L860.206 868.034L859.906 867.97L858.496 868.171L857.983 868.256L857.158 867.929L856.516 867.974L855.938 868.042L855.215 867.868L853.73 867.67L852.647 867.827L852.15 867.807L851.31 867.767L850.097 868.102L848.424 868.405L847.506 868.13L845.469 868.21L844.907 868.363L843.723 868.505L842.234 868.202L840.687 868.311L838.779 867.393L836.62 866.818L835.389 866.015L833.573 865.376L832.393 864.572L830.158 863.202L828.667 861.954L825.073 859.965L823.764 859.532L822.483 858.655L821.206 857.548L820.066 857.144L818.478 856.336L817.277 855.229L815.325 854.461L813.409 853.92L812.173 853.763L810.665 853.831L810.427 853.681L809.049 854.594L808.572 855.302L807.934 855.173L807.331 854.695L806.402 853.589L805.897 853.115L804.733 852.954L804.074 853.358L803.407 854.155L802.776 855.979L802.87 857.914L802.95 858.94L803.455 859.539L804.382 860.028L804.931 860.776L805.229 861.059L805.775 861.241L806.095 861.612L805.246 862.49L804.846 863.46L804.539 864.866L804.846 865.541L805.72 865.411L806.055 865.844L806.729 867.227L807.363 867.428L807.908 868.03L807.635 868.495L807.372 869.587L807.403 870.35L807.908 871.126L808.012 872.8L808.469 873.508L809.115 874.453L809.52 875.258L810.224 875.593L811.092 875.217L811.638 875.318L811.795 875.723L812.17 876.701L812.445 877.509L812.902 878.01L813.585 878.414L814.058 878.213L815.124 877.375L815.767 878.144L815.491 878.515L815.362 879.121L815.693 880.054L815.924 879.993L816.503 880.195L817.104 881.132L817.408 881.205L818.22 881.366L818.895 882.143L818.854 882.615L819.117 883.432L819.63 884.761L819.55 885.832L819.525 886.203L819.053 886.271L818.245 886.502L817.683 887.21L817.21 888.155L816.835 889.299L817.409 889.529L817.138 890.677L816.398 891.385L815.694 891.441L815.468 891.817L815.727 892.492L815.436 892.653L815.173 893.122L815.29 893.635L815.076 894.261L814.938 893.485L815.197 892.79L814.417 891.885L814.385 891.007L814.555 890.878L814.514 890.231L814.785 889.799L815.093 888.962L815.165 888.314L814.724 887.611L814.287 887.247L813.512 886.976L813.047 886.944L813.079 886.774L812.282 886.887L811.328 887.247L810.383 887.854L809.772 888.702L809.363 889.526L808.874 890.747L809.642 891.916L811.141 893.026L811.311 893.589L811.497 894.393L811.938 895.192L812.499 895.383L813.203 896.086L813.712 896.951H814.039L814.815 897.097L815.288 897.935L815.652 898.335L815.725 898.94L815.394 899.346L815.858 899.947L815.252 900.323V901.633L814.847 902.672L815.288 903.577L815.122 904.252L814.921 904.386L813.511 904.616L812.468 904.919L811.425 904.847L811.319 904.446L811.993 903.376L812.099 902.47L811.465 901.622L811.121 901.016L810.212 899.807L809.477 899.273L808.802 899.144L808.32 898.957L808.062 899.144L807.392 899.678L806.982 899.815L806.578 900.453L805.713 899.908L805.208 899.548L804.966 899.374L805.306 898.833L805.371 898.518L805.047 898.098L804.68 898.15L804.785 898.417L804.857 898.773L804.712 899.157L804.51 899.348L804.207 899.578L804.166 900.354L804.639 901.26L805.544 901.927L806.422 902.028L806.685 901.77L807.393 901.163L808.137 901.119L808.698 901.596L809.046 902.429L808.844 902.974L808.541 903.54L807.36 903.812L807.19 904.485L806.285 904.187L805.153 903.629L804.713 903.944L805.218 905.295L804.857 905.485L803.965 905.962L804.062 906.463L803.46 906.665L802.986 907.324L802.897 907.772L802.489 907.745L802.04 907.798L801.919 908.149L801.847 908.684L801.038 909.285L800.206 909.124L799.604 909.387L798.318 909.258L798.189 908.927L797.615 908.219L797.324 908.041L797.109 908.278L796.811 908.783L796.075 908.25L794.629 908.182L794.357 908.379L794.325 908.884L793.787 908.804L793.444 909.025L792.511 908.856L791.622 909.176L791.432 909.543L791.286 910.173L791.107 910.428L791.06 910.031H790.603L790.53 910.367L790.228 910.233L790.3 909.788L789.625 909.121L788.061 908.038L787.401 907.743L786.985 907.354L786.326 907.137L785.356 906.765L785.053 907.21L784.482 907.344H783.849L783.072 905.698L783.113 904.922L784.051 905.193L785.021 904.862L785.494 904.038L785.788 903.391L785.695 902.037L785.461 901.333L784.987 900.585L784.18 899.882L783.505 899.64L783.263 899.74L783.154 899.963L782.528 899.592L781.396 898.815L781.299 898.973L780.826 898.714L780.721 897.732L781.533 897.535L781.626 897.806L782.204 897.503L782.236 896.727L782.03 896.699L781.429 896.428L781.013 895.688L780.2 894.714L780.168 894.258L780.043 893.967L779.962 893.583L780.273 893.312L780.594 893.373L780.828 892.699L780.348 892.294L779.817 892.063L779.184 892.023L778.516 892.354L778.164 892.637L778.026 892.968L778.236 893.775L778.438 894.31L778.572 895.113L778.075 895.417L777.331 895.243L776.826 894.508L776.192 893.663L775.856 893.731L775.558 893.938L775.485 894.607L775.89 895.187L776.456 895.85L777.034 896.303L777.903 896.727L778.034 896.583L778.275 896.681L778.211 896.922L778.412 896.995L779.52 896.49L779.831 896.659L779.88 897.145L779.172 897.961L778.886 898.607L778.95 899.844L779.521 901.024L780.6 901.559L781.666 901.894L781.403 902.266L780.458 902.03L779.791 901.63L779.334 901.59L779.351 901.286L779.027 901.27L777.601 901.253L777.136 901.427L776.824 901.832L776.4 902.292L775.018 903.141L774.314 903.505L773.95 904.01L773.982 904.2L773.744 904.653L773.174 904.916L773.372 905.821L773.036 906.192L772.261 906.294L771.586 905.794L770.951 905.418L769.812 904.783L768.834 904.513L768.231 904.714L767.896 904.451V903.951L768.664 903.272L768.736 902.598L768.13 901.732L767.123 900.552L766.444 899.945L766.089 899.655L765.68 899.816L765.336 900.418L764.807 900.45H764.196L763.429 900.22L762.754 899.573L762.487 899.242L762.843 898.364L762.984 897.993L763.243 897.528L763.692 897.439L764.027 897.318L764.399 897.056L765.069 896.288L765.417 896.001L766.112 895.412L766.282 895.007L766.581 894.203L766.674 894.001L767.054 893.727L767.584 893.625L768.465 893.597L769.37 893.528L769.771 893.266L770.046 892.963L770.373 893.298L771.488 893.427L772.171 893.06L772.491 892.922L772.394 892.49L772.692 892.413L772.85 892.825L773.728 892.546L773.704 891.895L774.071 891.878L774.104 891.656L773.957 891.628L773.974 890.746L773.868 890.415L773.605 889.466L773.9 889.296L773.703 888.758L773.573 888.357L773.775 887.549L773.973 886.773L773.629 885.937V885.432L774.134 885.128L775.016 884.757L775.853 883.92L775.699 883.144L775.251 882.291L774.786 882.138L774.511 880.796L774.405 880.595L773.572 880.526L772.864 880.797L772.594 880.494L771.397 880.304L770.778 880.425L769.842 880.667L768.734 880.825L768.278 880.421L767.757 880.452L767.651 880.796L767.251 880.728L767.323 880.353L766.85 880.19L766.648 880.555L766.167 880.354L766.042 881.027L765.937 881L765.536 880.858L765.67 879.953L765.261 879.646L764.958 879.338L764.739 879.258L764.602 879.205L764.348 879.306L763.688 879.69L763.401 879.427L763.321 879.354L762.613 879.314L761.909 879.456L761.13 879.921L759.989 880.629L759.557 881.303L759.46 881.841L759.5 882.382L759.508 882.823L759.317 883.077L759.059 883.009L758.809 883.077L758.627 883.26L758.578 883.551L758.178 883.922L757.64 883.954L757.445 883.981L757.299 884.253L757.102 884.892L756.956 885.538L757.036 886.27L757.134 886.978H756.947L756.531 886.775L756.059 887.078L755.93 887.552L755.521 887.786L755.145 888.13L755.229 888.651L755.311 889.366L755.048 890.231L754.551 890.271L754.029 890.438L753.403 891.181L752.729 892.046L752.475 892.531L752.458 893.053L752.386 893.529L752.531 894.104L752.714 894.54L753.13 894.84L753.837 895.264L754.431 895.91L754.633 896.937L755.256 897.66L755.587 898.294L755.684 898.799L755.401 898.985L754.848 899.002L754.174 898.436L753.51 897.936L752.257 897.431L751.223 896.756L749.812 894.638L749.537 894.307L748.907 893.931L748.029 893.329L747.262 893.228L746.514 893.155L746.234 893.179L745.976 893.458L745.446 893.431L745.175 892.978L744.524 892.998L743.986 892.565L743.489 892.452L742.245 892.121L741.869 892.264L741.469 892.041L741.045 892.149L740.729 892.121L740.386 892.425H739.751L739.032 891.939L738.854 891.645L739.097 891.144L738.854 890.077L738.56 889.773L738.021 889.398L737.396 889.442L737.29 889.374L737.011 889.2L736.48 888.958L735.968 888.927L735.309 889.121L734.512 889.263L734.015 889.501L733.207 889.905L732.831 889.808L732.277 889.747L731.797 889.978L731.308 890.2L731.161 890.709L730.688 890.58L730.729 890.079L731.032 889.731L730.35 889.271L729.751 889.203L729.222 889.304L728.57 889.474L727.937 889.732L726.959 890.137L725.892 890.743L725.924 891.248V891.851L725.818 892.457L725.621 892.957L725.216 893.867L725.548 894.34L725.785 895.1L725.571 895.916L725.401 896.157L725.01 896.223L723.975 896.356L723.627 895.722L723.029 895.48L721.849 895.763L720.645 895.754L719.985 895.985L719.924 896.187L719.169 897.133L717.221 897.164L716.242 896.728L715.601 896.559L715.176 896.59L714.694 896.631L714.299 896.89L713.628 896.8L713.115 896.824L712.585 897.458L712.286 897.858L712.145 898.488L710.915 898.557L709.953 898.618L709.189 898.979L708.749 898.99L707.892 898.619L707.137 898.659L706.681 898.99L706.055 899.092L705.149 899.327L704.466 899.901L703.186 900.354L702.729 900.528L702.28 900.447L701.701 900.366L701.156 900.723L700.954 901.123L700.995 901.831L700.849 902.102L699.782 902.203L698.805 902.006L698.202 901.569L698.372 900.494L699.006 900.159L699.398 899.186L699.301 897.812L699.503 897.088L699.414 895.584L699.847 895.019L700.186 894.142L699.814 893.405L699.31 892.63L699.382 891.894L700.09 890.948L701.06 890.313L700.555 889.174L699.815 888.296L698.805 887.694L697.932 887.226L697.099 887.157L696.799 887.25L696.015 887.488L695.51 888.64L695.756 888.938L695.78 889.646L695.25 890.483L694.272 891.018L693.639 891.191L693.093 892.097L692.39 892.569L691.985 892.198L691.682 891.395L691.722 890.614L691.249 890.315L690.599 890.214L689.891 890.182L688.258 890.484L687.28 890.949L686.812 891.422L686.589 891.535L686.067 891.793L685.635 891.552L685.562 890.513L685.938 889.91L686.435 889.607L686.94 889.175L687.013 888.568L686.571 887.663L685.961 887.089L685.128 886.551L684.021 886.184L682.809 886.05L681.342 886.414L680.788 886.62L680.363 886.786L679.592 886.644L678.921 886.11L678.489 885.536L677.074 884.769H676.169L674.956 884.728L674.02 884.979L673.292 885.302L672.798 885.233L672.472 885.639L671.63 886.184L670.685 886.111L669.953 885.775L669.512 885.308L669.718 884.567L669.374 883.488L669.682 882.987L669.576 882.279L669.172 881.273L668.068 880.599L667.095 879.964L666.222 879.688L664.9 879.931L664.569 879.903L663.762 880.061L662.783 881.01H662.182L661.677 880.639L661.276 879.862L660.568 879.458L659.453 879.628L658.221 879.499L656.781 879.159L656.029 879.257L655.059 879.151L654.206 878.63L652.917 878.366L652.178 878.346L651.632 878.148L650.359 877.44L650.101 877.739L649.422 877.833L648.844 877.962L648.339 877.845L646.467 878.217H644.81L643.338 878.621L641.758 879.256L640.675 879.094L640.219 878.867L639.362 878.536L639.152 878.063L639.035 877.752L638.833 877.211L638.231 876.774L637.455 876.807L637.051 877.109L636.658 877.36L636.129 877.408L635.51 877.34L635.23 877.154L634.98 876.863L634.896 876.16L634.548 875.344L634.188 875.061L633.827 874.892L632.91 874.96L632.215 874.794L632.005 874.964L631.508 874.892L631.37 874.486L631.892 874.224L632.43 873.46L632.397 872.898L631.524 870.812L630.954 868.646L629.567 865.877L629.095 865.259L628.646 864.341L628.549 863.859L628.468 862.946L628.101 862.412L627.785 862.34L627.24 861.563L627.042 861.042L627.074 860.504L627.14 859.946L627.459 859.413L627.451 857.578L627.273 855.606L626.824 854.807L626.408 853.044L626.262 852.05L625.503 851.407L624.893 850.74L624.827 850.235L625.045 849.811L624.924 847.374L624.763 846.045L624.46 845.074L623.922 844.533L623.417 844.654L622.984 844.593L622.709 844.351L622.597 843.736L622.718 843.312L622.912 843.166L623.271 843.017L623.49 842.928L623.624 842.936L623.883 843.089L624.234 843.19L624.558 843.312L625.022 843.028L625.616 842.111L626.073 841.666L626.425 841.112L626.336 840.607L626.359 840.417L626.76 840.275L626.905 840.384L626.995 840.416H627.196L627.313 840.639L627.475 840.747L627.563 840.877L627.795 841.059L628.045 841.079L628.11 841.173L628.405 841.181H628.632L628.806 841.153L629.072 841.141L629.311 840.963L629.496 840.922L629.577 841.011L629.675 840.999L630.131 840.215L630.377 839.898L630.725 839.167L630.947 838.452L631.108 837.636L631.469 836.222L631.574 835.854L631.703 835.143L631.926 834.778L632.087 834.145L631.975 834.136L631.909 833.765L631.784 833.481L631.719 833.251L631.8 832.939L631.949 832.787L632.168 832.706L632.233 832.576L632.456 832.443L632.65 832.402L632.93 832.545L633.229 832.432L633.334 832.274L633.294 832.189L633.374 832.133L633.391 831.959H633.484L633.59 831.607L633.518 831.526L633.428 831.519L633.437 831.323L633.525 831.247L633.485 830.823H633.417L633.453 830.601L633.688 830.479L633.745 829.433L633.769 828.341L633.607 826.247L633.353 825.048L633.126 824.521V823.737L632.782 822.424L632.358 821.546L631.425 820.633L631.058 820.172L630.84 820.055L630.763 819.743L630.553 819.712L630.513 819.82L630.29 819.731L630.015 819.44L629.761 819.533L629.51 819.279L629.23 819.323L628.899 819.057L628.883 819.154H628.718L628.571 819.234L628.171 819.118L628.105 819.279L627.815 819.654L627.311 819.824L626.918 819.812L626.543 819.844L626.021 819.933L625.459 819.872L625.524 819.702L625.557 819.258L625.674 818.804L625.973 818.433L626.243 817.907L626.574 817.956L626.725 817.879L626.83 817.563L626.968 817.588L626.911 817.382L626.959 817.22V817.051L627.032 816.849L627.223 816.72L627.433 816.667L627.602 816.688L627.744 816.809L627.841 816.861L628.011 817.104L628.156 817.374L628.362 817.557L628.638 817.597L628.973 817.589L629.293 817.442L629.543 817.261L629.445 817.091L629.673 817.293L629.846 817.503L629.936 817.604L630.448 818.501L631.034 818.743L631.636 819.167L632.238 819.708L632.864 820.557L633.199 821.123L633.56 821.725L633.992 822.804L634.34 824.538L634.396 824.619L634.91 824.599V824.437L634.74 824.389L634.675 823.714L634.429 822.715L634.146 821.976L633.754 821.212L633.087 820.186L633.329 819.972L634.186 820.477L634.153 820.962L634.756 822.089L634.901 821.777L634.861 821.212L634.724 821.07L634.812 820.815L635.564 821.051L635.479 821.366L635.343 821.402L635.366 821.907L635.205 822.271L635.1 822.34L634.926 822.655L635.091 823.27L635.75 822.716L636 822.373L635.758 821.617L636.167 821.403L636.77 822.151L635.993 823.17L635.181 823.864L635.238 824.236L635.043 824.431L635.026 824.528L635.904 824.431L636.591 823.654L636.688 823.384L636.931 823.318L636.907 823.168H637.178L637.25 823.984L636.947 824.006L636.515 824.547L636.745 824.753L637.291 824.288L637.565 824.753L637.027 825.112L637.322 825.416V826.421L638.397 827.532L638.612 827.387L638.813 827.561L638.991 827.37L639.097 827.362L639.23 827.209L639.296 827.067L639.377 826.994L639.304 826.894L639.328 826.731L639.4 826.623L639.546 826.521L639.729 826.51L639.809 826.533L639.897 826.432L640.051 826.419L640.306 826.08L640.108 825.813L640.29 825.623L640.273 825.425L639.85 825.028L639.482 825.041L639.207 825.34L639.065 825.202L639.113 825.021L639.008 825.149L638.612 824.738L638.636 824.092L638.627 823.408L638.668 823.186L638.829 822.628L639.245 821.723L639.269 821.614L639.357 821.129L639.341 820.563L639.212 819.929L639.11 819.314L638.909 818.409L638.86 817.512L638.868 816.918L639.015 816.062L639.104 815.564L639.326 814.935L639.561 814.39L639.881 813.501L639.856 813.06L639.529 812.898L639.44 812.765L639.335 812.737L639.148 812.798L639.048 812.777L638.95 812.765L638.853 812.918L638.926 812.975L638.853 813.634L638.599 813.885L638.389 814.381V814.721L638.501 815.456L638.121 815.728L637.378 817.562L638.09 819.154L637.523 820.205L635.733 819.66L634.707 817.332L635.468 815.29L636.773 814.644L636.975 814.062L637.327 813.14L637.528 812.828L638.191 812.577L638.345 812.586L638.491 812.688L638.681 812.728L638.923 812.659L638.851 812.518L638.689 812.469L638.548 812.497L636.975 812.044L636.604 812.052L636.511 812.165L636.373 812.484L636.364 812.908L636.146 813.705L635.682 814.062L635.553 813.908L635.593 813.84L635.419 813.505L635.007 813.424L635.185 814.07L635.396 814.261L634.85 814.867L634.607 814.617L634.713 814.483L634.479 813.227L634.062 813.08L633.933 812.902L633.8 812.87L633.702 812.879L633.711 813.004L633.88 813.064L633.904 813.215L634.062 814.152L634.102 814.719L634.126 815.32L634.327 815.434L633.475 816.379L633.204 816.201L633.475 815.914L633.596 815.219L633.636 814.818L633.596 814.221L633.39 813.142L633.54 813.093L633.475 812.729L633.114 812.62L632.994 812.628L632.885 812.66L632.853 812.79L632.836 812.879L632.897 812.964L633.173 814.395L633.196 815.028L633.067 815.744L632.897 816.257L632.578 816.831L632.372 817.146L632.323 817.356V817.761L632.21 817.87L632.064 817.897L631.895 817.89L631.575 817.699L631.349 817.444L630.956 816.883L630.851 816.802L630.916 816.66L631.021 816.688L631.038 816.79L631.159 816.843L631.265 816.729L631.305 816.802L631.414 816.754L631.438 816.652L631.494 816.417L631.454 816.345L631.615 816.228L631.647 816.316L631.745 816.175L631.736 816.033L631.72 815.832L631.87 815.662L631.942 815.67L632.008 815.521L631.91 815.209L631.942 815.039L632.063 815.096L632.258 815.075L632.267 814.894L632.137 814.036L631.81 812.687L631.454 812.517L631.349 812.455L631.438 812.322L631.696 812.415L631.753 812.245L631.696 812.023L631.535 811.74L631.304 811.486L631.126 811.224L630.726 810.572L629.945 809.569L629.465 809.198L629.056 809.09L628.68 809.081L628.551 809.162L628.316 809.291L627.459 809.319L627.338 809.412L627.347 809.569L627.419 809.716L627.54 809.796L627.557 810.055L627.298 810.217L627.06 810.329L626.793 810.316L626.61 810.357L626.166 810.722L625.903 810.923L625.536 811.064L625.14 811.146L624.805 811.064L624.635 810.964L624.444 810.754L624.202 810.552L623.891 810.329L623.346 810.018L622.881 809.804L622.671 809.492L622.352 809.047L621.677 808.494L620.993 808.118L620.763 808.078L620.347 808.18L619.991 808.374L619.68 808.523L619.296 808.589L618.965 808.565L618.63 808.444L618.197 808.396L617.707 808.387L617.024 808.334L616.168 808.303L615.598 808.343L615.182 808.537L614.883 808.93L614.701 809.697V810.057L614.475 810.17L614.256 810.231L613.953 810.21L613.601 810.028L613.406 809.927L613.285 809.685L613.253 809.475L613.205 809.24L613.062 809.082L613.152 808.274L612.999 808.072L612.861 807.842L613.128 807.356L613.528 807.268L613.823 807.304L614.171 807.336L614.515 807.005L615.004 806.391L615.752 805.643L615.828 805.5L615.797 805.137L615.918 804.994L616.217 804.757L616.617 804.252L616.818 803.847L616.887 803.516L616.624 803.366L616.454 803.245L616.297 803.003L616.185 802.699H616.297L616.463 802.801L616.616 802.842L616.665 802.761L616.633 802.631L616.616 802.337L616.794 802.43L616.944 802.385L617.009 802.284L616.929 802.105L617.058 802.215L617.441 802.651L617.376 802.853L617.489 802.93L617.4 803.151L617.57 803.184L617.954 803.252L618.702 803.002L619.776 802.707L620.088 802.469L620.186 802.045L620.291 801.721L620.481 801.046L620.587 801.357L620.563 801.673L620.466 801.984L620.951 802.175L621.206 802.284L621.488 802.275L621.727 802.167L621.912 802.054L622.046 802.184L622.029 802.781L622.118 802.89L622.712 803.545L622.914 803.568L623.427 803.537L623.779 803.416L624.171 803.282L624.276 803.185L624.397 803.104L624.709 802.983L625.097 802.89L625.506 803.104L625.841 803.043L626.035 803.104L626.209 803.282L626.307 803.469L626.763 803.322L627.183 802.942L627.47 802.64L627.87 802.175L628.193 801.774L628.824 800.623L629.059 800.183L629.075 799.718L629.229 799.705L629.435 799.697L629.612 799.547L629.973 799.172L630.15 799.002L630.256 799.062L630.406 799.071L630.633 798.963L630.944 798.861L631.268 798.8L631.555 798.93L632.027 799.051H632.402L632.799 798.989L633.11 798.747L633.511 798.679H633.899L634.537 798.658L634.609 798.586L634.699 798.456L634.819 798.396L634.97 798.383H635.236L635.294 798.254L635.399 798.245L635.508 798.322L635.605 798.536L635.783 798.759L636.037 799.183L636.224 799.291L636.329 799.393L636.467 799.421L636.624 799.412L636.811 799.453L637.171 799.614L637.372 799.796L637.991 800.1L638.473 800.391L638.808 800.52L639.297 800.601L639.435 800.702L639.754 800.733L640.15 800.612L640.324 800.601H640.6L640.862 800.539L641.064 800.58L641.505 800.499L642.001 800.195L642.401 799.715L643.109 798.858L643.421 798.434L643.72 797.868L643.886 797.367L643.975 796.842L643.998 796.288L644.056 795.783L644.25 795.363L644.487 795.016L644.746 794.644L644.984 794.442L645.179 794.07L645.401 793.739L645.684 793.505L645.922 793.104L646.181 792.578L646.371 792.033L646.483 791.459L646.411 791.378L646.581 791.249H646.727L646.751 791.019V790.643L646.799 790.21L646.989 790.016L647.216 790.008L647.447 790.039L647.803 790.101L648.154 790.189L648.515 790.016L648.79 789.793L648.87 789.838L648.979 789.825L649.108 789.809L649.157 789.696L649.068 789.543L649.044 789.333L649.239 789.172L649.542 789.01L649.655 788.832L649.882 788.565L649.979 788.327L649.913 787.882L649.775 787.53L649.614 787.599L649.344 787.631L649.278 787.518L648.996 787.417L649.004 787.154L649.109 786.883L649.207 786.673L649.158 786.471L649.256 786.35L649.361 786.217L649.434 786.055L649.769 785.934L650.063 785.926L650.201 785.788L650.602 784.737L650.884 784.001L651.106 782.765L651.268 781.855L651.284 780.525L650.804 779.334L650.007 777.964H649.703L648.669 778.219L647.433 778.368L646.078 778.207L644.971 777.181L644.284 777.423L642.918 778.591L641.778 779.447L641.713 779.601L641.507 779.447L640.504 779.617H639.725L638.956 779.496L638.387 779.617L636.977 779.853L636.438 779.804L635.634 779.779L635.112 779.752L634.907 779.982L634.118 780.225L633.476 780.326L632.772 780.306L632.138 780.358L631.682 780.407L631.289 780.638L630.599 781.636L630.068 782.372L629.22 782.825L628.938 782.744L627.641 781.907L626.893 781.567L625.987 781.398H625.158L624.774 781.523L624.277 781.766L623.267 782.473L621.905 783.33L621.279 783.915L621.044 784.57L620.349 785.711L619.738 785.853L618.312 785.981L617.402 785.82L616.93 785.396L616.121 785.417L615.92 785.275L615.055 784.741L614.429 784.188L614.149 783.985L614.044 783.331L614.981 782.931L615.216 782.627L615.968 782.021L616.668 781.387L617.173 780.829L617.5 780.146L617.701 779.604L618.11 778.797L618.239 778.029L618.279 777.136L617.774 776.882L617.294 776.578L616.384 776.299L616.308 776.024L616.562 775.721L616.905 775.551L617.141 775.369L617.396 775.114L617.573 774.561L617.917 773.906L618.28 773.198L618.786 772.467L619.489 771.517L620.88 769.674L620.678 769.452L620.661 768.918L620.782 768.85L621.028 768.987L621.264 769.121L621.535 768.886L621.939 768.583L621.842 768.364V767.98L622.137 767.758H622.339L622.46 767.819L622.893 767.278L623.179 766.902L623.421 766.247L623.453 765.794L623.267 765.773L622.964 765.471L622.175 765.106L622.135 764.767L622.24 764.532L622.584 764.634L622.745 764.358L622.947 764.127L623.242 763.756L623.549 763.251L623.723 762.851L623.691 762.265L623.618 761.982L623.453 761.845L623.113 761.743L622.811 761.845L622.544 761.659L622.459 761.307L622.442 760.854L622.786 760.47L623.044 760.252L623.299 759.722L623.242 759.398L623.452 758.687L623.771 758.755L624.325 759.219L624.561 759.239L625.833 759.212L626.762 759.059L627.283 758.776L628.071 758.372L629.13 757.757L629.684 757.284L630.517 756.649L631.014 756.097L631.03 755.842L631.176 755.713L631.382 755.773L631.6 755.543L631.52 755.288L631.297 754.937L631.447 754.706L631.616 754.423H632.187L632.668 754.322L633.229 754.301H633.492L633.938 754.07L634.28 754.119L634.434 754.301L634.705 754.543L635.089 754.948H635.493L635.748 754.806L635.998 754.774L636.302 754.673L636.581 754.774L637.224 754.831L637.393 754.56L637.53 754.354L637.656 754.038L637.866 753.093V752.122L637.834 751.096L637.592 749.908L637.009 749.079H636.581L636.148 749.16L635.918 749.079L635.372 749.16L634.633 748.999L634.37 748.962H633.832L633.253 749.16L632.894 749.099L632.853 748.828L633.051 748.492L633.252 748.291L633.579 748.121L633.995 748.072L634.605 747.822L635.208 747.75L635.818 747.588L636.041 747.298L636.251 747.145L636.452 747.047L636.618 747.115L636.853 747.177L637.006 747.197L637.221 747.278L637.487 747.399L637.71 747.549L637.911 747.779L638.336 747.723L638.465 747.9L638.695 748.021H639.137L639.419 747.853L639.657 747.953L639.858 748.115L640.274 748.56L640.573 748.588L640.853 748.762L641.269 749.032L641.911 749.264L642.113 749.696H643.173L644.309 749.465L644.511 749.162L644.786 748.762L644.968 748.838L645.113 749.04L645.345 749.525L645.587 750.471L646.092 751.139L646.156 751.644L646.173 752.148L646.396 752.771L646.981 753.074L647.866 753.297H648.569L649.928 752.953L650.591 752.718L651.233 752.468L651.396 752.186L651.722 751.947L651.964 751.725L652.146 751.875L652.227 751.847L652.389 751.928L652.51 751.875L652.821 752.025L652.918 752.178L653.071 752.251L653.269 752.34L653.464 752.429L653.423 752.663L653.601 752.854L653.662 752.752L653.856 752.825L654.059 752.945L654.321 753.128V753.306L654.548 753.338L654.794 753.528V753.682L654.964 753.702L655.117 753.965L655.148 754.224L655.141 754.39L655.258 754.547L655.452 754.607L655.662 754.526L655.755 754.567L656.046 755.093L656.216 755.424V755.779L656.309 755.958L656.519 756.1L656.87 756.132L657.032 756.051L657.392 755.982L657.667 756.091L657.725 756.322L657.732 756.646L657.825 756.977L657.732 757.329L657.651 757.825L657.7 758.298L658.165 758.933L658.735 759.474L659.462 759.821L660.17 760.048L660.878 760.278L661.374 760.371L662.353 760.219L663.056 759.915L663.331 759.786L663.528 759.462L663.787 759.261L664.099 758.913L664.341 759.114L664.406 759.275L664.414 759.405L664.597 759.534L664.709 759.628H664.879L664.887 759.721L664.774 759.822L664.977 759.898H665.142L665.263 759.939L665.384 760.081L665.449 760.214L665.558 760.404L665.905 760.506L666.548 760.538L667.194 760.377L667.227 760.305L667.234 760.203L667.267 760.062L667.364 760.183L667.559 760.223L668.173 760.053L668.383 759.56L668.625 759.114L668.969 759.013L669.114 759.054L669.32 759.102L669.49 759.167L669.762 759.15L670.173 758.981L670.29 758.682L670.437 758.46L670.46 758.156L670.694 758.136L671.038 758.237L671.244 758.52L671.373 758.912L671.83 759.575L672.319 759.939L672.425 760.125L672.619 760.121L672.717 759.891L672.891 759.858L672.987 759.705L673.093 759.737V759.858L672.972 760.04L672.819 760.335V760.599L672.939 760.909L673.086 760.938L673.68 760.715L674.072 760.565L674.585 760.524L675.018 760.666L675.7 761.038L676.873 761.685L678.121 762.711L678.34 762.816L678.635 762.95L678.982 762.99H679.285L679.612 762.869L679.969 762.748L680.32 762.485L680.6 762.255L680.697 762.187L681.21 761.722L681.739 761.483L682.104 761.416H682.415L682.782 761.483L683.312 761.783L683.898 762.39L684.354 762.906L684.715 763.407L685.021 763.226L685.231 762.118L685.03 762.029L684.852 761.908L684.795 761.694L684.941 761.289L684.981 761.092L684.812 761.03L684.573 760.861L684.484 760.76L684.202 760.715L684.149 760.121L683.794 760.101L680.673 760.133V759.931L683.676 759.918L683.368 759.559L683.385 759.304L683.224 759.235L683.183 759.123L683.224 758.852L683.001 758.791L682.912 758.71V758.568L680.665 758.548V758.325L683.154 758.309V758.029H683.057L683.065 757.561L683.154 757.557L683.182 756.934L682.701 756.804L682.438 756.84H682.118L681.852 756.8L681.609 756.639L681.682 756.437L681.217 756.267L680.954 756.178L680.785 756.077L680.753 755.826L680.776 755.665L680.53 755.576L680.174 755.531L680.19 755.334L679.597 755.272L679.662 754.739L679.407 754.707L679.302 755.078L679.02 755.01L679.092 754.618L678.74 754.626L678.7 754.868L678.243 754.848L678.235 754.969L678.041 754.907L677.984 754.653L677.916 754.415L677.924 754.133L677.722 754.112L677.569 754.746L677.128 754.645L676.938 754.592L676.832 754.454L676.8 753.969L676.865 753.564L676.982 753.362L677.169 753.335L677.464 753.375L677.487 753.263L677.168 753.246L676.815 753.273L676.621 753.282L676.427 753.384L676.318 753.666L676.116 754.037L675.66 754.029L675.434 753.98L674.888 753.758L674.282 753.604L674.258 753.678L673.942 753.576L673.817 753.936L669.804 753.071L669.828 752.909V752.646L669.819 752.344L669.957 751.891L669.98 751.579L670.175 751.005L670.486 750.973L670.968 750.952L671.392 750.932L671.792 750.87L672.083 750.951L672.313 751.097L672.925 750.995L673.143 751.174L673.51 751.456L674.129 751.517L674.537 751.909L674.812 751.881L674.869 751.982H675.141L675.222 752.051L675.501 752.071H675.832L676.176 751.829L676.43 751.821L676.721 751.566L676.922 751.126L677.233 750.787L677.307 750.524L677.403 750.245L677.48 749.51L677.403 748.632L677.128 747.869L676.785 747.375L676.534 747.241L676.312 747.233L675.907 747.092L675.604 747.241L675.204 747.443L674.82 747.456L674.562 747.174L674.29 747.012L673.854 747.004L673.247 746.964L672.939 746.936L672.075 746.31L671.578 746.337L670.863 746.127L670.423 745.985L669.78 745.541L668.987 745.056L668.507 744.865L667.904 744.675L667.056 744.603L666.389 744.704L665.916 744.886L665.362 745.128L664.809 745.548L664.533 745.872L664.599 746.228L664.457 746.559L664.174 746.964L663.645 747.25L663.252 747.437L662.962 747.605L662.707 747.545L662.562 747.375L662.473 747.011L662.634 746.85L662.674 746.667L662.666 746.324L662.634 746.042L662.233 745.67L662.177 745.509L662.282 745.42L662.504 745.469L662.706 745.407L662.992 745.096L663.676 744.252L664.172 743.633L664.718 743.071L665.368 742.558L666.043 741.79L666.601 741.062L667.413 739.733L668.188 738.392L668.367 737.959L668.188 737.587L667.958 737.244L667.453 736.097L667.404 735.785L667.461 735.47L667.644 735.17L667.781 734.835L667.976 734.354L668.073 733.897L668.121 733.453L667.952 733.274L667.887 733.032L668.113 732.899L668.247 732.722L668.663 732.228L668.979 731.952L669.116 731.751L669.177 731.447L669.653 730.57L669.917 730.089L670.365 729.261L671.203 727.615L671.587 726.763L671.987 726.258L672.509 725.421L672.868 724.847L673.216 724.212L673.591 723.366L673.846 722.695L674.047 722.065L674.217 721.325L674.257 720.885L674.266 720.278L674.225 719.976L674.047 719.878L673.551 719.954L673.519 719.854L674.594 719.591H674.795L674.969 719.691L675.066 719.927L675.235 720.028L675.516 720.157V720.259L675.365 720.279L675.204 720.4L675.301 720.61L675.939 720.534L676.052 719.819L675.861 719.706L675.627 719.564L675.667 719.383L675.659 719.1L675.86 718.931V718.748L675.666 718.578L675.456 718.162L675.161 718.357L675.259 718.397L675.315 718.555L675.433 718.667L675.424 719.011L675.112 719.039L674.96 718.788L674.681 718.578L674.511 718.555L674.397 718.7V718.879L674.551 718.963L674.632 718.979L674.64 719.153L674.454 719.304L673.892 719.316L673.701 719.324L673.411 719.235L673.067 719.183L673.1 718.98L673.019 718.913L672.832 718.76L672.595 718.541L672.448 718.238L672.327 717.935L672.137 717.604L672.209 717.422L672.241 717.32L672.326 717.333L672.625 717.604L672.787 717.592L673.099 717.612L673.171 717.692L673.345 717.794L673.587 718.076L673.781 718.098L674.076 718.036L674.525 717.854L675.127 717.563L675.835 717.086L676.562 716.586L676.675 716.444L676.651 716.343L676.812 716.192L677.116 715.991L677.374 715.769L677.5 715.586L677.597 715.658L677.702 715.748L678.022 715.565L678.2 715.424L678.329 715.303L678.656 715.161L679.049 714.834L679.324 714.607L680.051 713.863L680.415 713.528L680.92 712.854L681.304 712.239L681.817 711.442L682.108 710.836L682.339 710.403L682.73 709.842L683.325 708.944L683.806 708.298L684.263 707.461L684.23 707.359L683.943 706.915L683.592 706.118L683.35 705.624L683.159 705.482L682.884 705.212L682.666 704.888L682.549 704.686L682.403 704.254L682.036 703.559L682.076 703.457L682.339 703.274L682.5 703.307L682.715 703.246L682.844 703.181L683.078 703.075L683.276 702.922L683.664 702.619L683.749 702.477L683.936 702.206L684.104 702.032L684.271 701.951L684.408 701.79L684.416 701.66L684.505 701.519L684.658 701.43H684.784L685.011 701.498L685.163 701.712L685.637 701.761H685.899L686.3 701.749L686.704 701.681L686.983 701.632L687.25 701.471L687.376 701.357V701.006L687.473 700.823L687.683 700.662L687.691 700.521L687.849 700.29L687.954 700.048L688.066 699.897L688.236 699.845L688.378 699.824L688.58 699.896L688.66 699.985H688.932L689.182 700.094H689.437L689.655 700.037H689.824L690.145 700.046L690.439 700.066L690.536 699.985L690.723 699.958L690.828 700.006L690.979 699.897L691.147 699.744L691.343 699.413L691.468 699.252L691.662 699.19L691.904 699.102L692.11 699.09H692.28L692.566 699.17L692.744 699.102L693.031 698.9L693.442 698.476L693.729 698.173L693.673 697.829V697.668L693.49 697.56L693.369 697.45V697.107L693.458 697.055L693.615 697.297L693.777 697.397L693.938 697.438L694.371 697.54L694.795 697.633L694.867 697.58L694.908 697.499L695.099 697.641L695.309 697.702L695.535 697.682L696.165 697.37L696.359 697.236L696.294 697.115L696.678 696.905L696.735 696.816L696.61 696.574L696.678 696.413L696.569 696.312L696.44 696.239L696.359 696.109L696.399 695.948L696.506 696.001L696.663 696.099L696.743 696.272L696.832 696.361L696.985 696.373L697.257 696.342L697.491 696.273L697.689 696.164L697.924 696.173L698.219 696.02L698.291 695.931L698.412 695.761L698.606 695.547L698.749 695.485L698.861 695.417L699.031 695.297L699.2 695.188L699.254 694.953L699.351 694.581L699.432 694.318L699.649 694.097L699.767 694.108Z" fill="white"/>
<path d="M892.446 840.412L893.004 840.562L893.278 840.816L893.028 841.019L892.952 841.402L893.109 841.572L892.847 842.125L892.952 842.227L892.742 842.478L892.71 842.679L892.848 842.954L892.269 843.115L891.363 843.313L891.129 843.236L890.762 842.812L890.486 842.731L890.329 842.711L890.305 843.015L890.185 843.415H889.752L889.319 843.285L889.515 842.654L889.652 842.33L889.781 841.877L889.822 841.473L889.75 841.02L890.223 840.534L890.793 840.393L891.395 840.331H892.018L892.446 840.412Z" fill="white"/>
<path d="M888.49 817.229L889.101 817.984L890.159 818.644L890.762 819.097L891.465 818.995L892.173 819.299L892.977 819.246L894.137 819.447L895.195 819.346L896.456 819.751L897.059 819.549L898.117 819.852L899.936 820.204L901.141 820.657L901.751 821.764L902.397 822.775H902.902L903.763 822.37L905.525 822.067V822.727L905.068 823.579L904.467 823.833H903.307L902.305 823.478L901.492 823.631L900.938 823.78L899.584 823.833L899.325 824.738L899.374 825.494L898.574 826.153L897.714 825.596L897.41 824.738L897.563 824.541L898.117 824.488L898.267 823.733L897.915 823.229L897.361 822.925L896.808 823.078L896.562 822.423L896.352 821.918L896.61 821.668L897.06 821.515L896.962 820.812L896.457 820.508L896.105 820.812L895.397 820.859L894.643 820.961L893.987 821.014L893.078 821.212L892.727 822.02L892.775 822.524L892.832 823.025L892.222 823.228L891.514 823.935L890.916 823.479L890.763 823.025L890.406 822.674L889.857 822.523L890.055 822.119L890.608 821.966V821.513L890.159 820.709L889.352 820.507L888.337 820.657L887.432 821.162L885.925 820.96L884.207 820.71L885.02 819.8L885.42 819.347L885.925 818.847L886.526 818.543H887.234L887.489 818.188L887.788 817.33L887.335 817.08L887.536 816.93H888.244L888.49 817.229Z" fill="white"/>
<path d="M828.873 784.011L829.281 784.969L828.979 785.624L828.368 785.976L827.616 786.332L826.965 786.736L826.233 786.534L826.011 786.159L826.613 785.508L827.22 785.366L827.502 785.051L827.822 784.598L828.057 784.145L828.368 783.708L828.873 784.011Z" fill="white"/>
<path d="M845.956 785.971L845.581 786.387L845.293 786.638L845.164 786.484L845.253 786.133L845.726 785.882L845.956 785.971Z" fill="white"/>
<path d="M820.091 783.716L820.406 784.006L820.5 784.337L820.317 784.641L820 784.722L819.371 784.217L819.56 783.954L819.496 783.793L819.859 783.603L820.091 783.716Z" fill="white"/>
<path d="M847.202 779.69L847.537 780.021L848.091 780.163L848.773 780.397L849.094 780.75L849.246 781.234L849.622 782.011L849.384 782.241L848.846 782.613L848.066 782.666L847.432 782.863L847 782.741L846.657 782.665L846.225 782.641L845.949 782.888L845.452 782.714L845.246 782.463L845.166 782.24L845.389 781.856L845.55 781.703L845.853 781.676H846.802L846.983 781.655L847.064 781.372L847.403 781.102L847.432 780.798L847.388 780.366L846.882 780.298L846.6 780.062L846.494 779.658L846.681 779.439H846.983L847.202 779.69Z" fill="white"/>
<path d="M846.445 774.67L846.81 775.236L847.283 775.709L847.821 776.08L848.262 776.518L848.832 776.687L849.979 777.051L850.46 777.087L850.707 776.99L850.965 776.545L850.981 776.263L851.365 776.416L851.872 776.614L852.353 776.667L853.061 776.565H853.363L854.341 776.918L854.709 777.119H854.895L855 777.391L855.098 777.657L855.295 777.997L853.909 778.328L852.883 778.178L852.025 778.279L851.214 778.663L850.446 778.703L849.46 778.428L848.663 778.057L848.598 777.471L847.938 777.087L847.187 776.918L846.374 776.971L845.469 777.35L844.733 777.956L844.456 777.998L844.259 777.727V777.222L844.187 776.688V776.162L844.408 775.859L844.994 775.782L845.318 775.581L845.742 775.257L845.899 774.731L846.046 774.299L846.445 774.67Z" fill="white"/>
<path d="M839.861 769.55L839.51 770.205L838.697 770.961L838.556 772.016L837.945 772.573L836.887 772.724L836.486 773.229L835.73 773.884L834.519 775.039H834.118L833.213 774.789L831.144 775.092L830.189 774.789L829.279 774.485L827.918 775.496L825.954 776.854L825.199 776.454L825.183 775.853L825.802 775.192L826.756 774.537L826.966 773.782L826.707 772.675L826.663 772.222L827.666 773.277L828.724 773.984L830.793 773.884L831.392 773.379L832.002 772.117L832.252 772.223L832.709 773.278L833.815 773.479L834.014 773.026L833.92 772.068L834.369 771.766L835.177 772.068L836.382 772.117L837.792 771.414L838.2 770.759L838.557 770.104L839.053 769.449L839.861 769.55Z" fill="white"/>
<path d="M822.763 768.066L822.98 768.499V768.952L822.427 769.234L821.953 769.001L822.055 768.568L822.192 768.225L822.531 767.994L822.763 768.066Z" fill="white"/>
<path d="M827.009 744.358L827.304 746.222L828.868 746.977L829.623 746.826H830.889L831.892 747.732L832.752 747.833L833.608 748.391L833.208 749.349L833.503 751.361L832.703 751.414L830.832 752.873L829.68 753.128L829.275 753.932L826.96 755.141L826.504 755.293L825.242 755.395L824.737 756.3L824.184 758.87L823.728 758.821L822.822 758.167L822.22 758.316L821.868 759.477L822.422 760.231L821.966 760.482L821.162 760.179H820.256L818.798 761.189L817.48 760.785L816.422 762.047L815.622 762.248L814.458 762.297L812.749 761.489L811.435 761.69L809.976 762.499L808.61 763.457L806.044 764.969L805.236 764.916L804.48 764.969L803.47 765.575L802.27 766.428L801.058 765.522L799.999 765.021L800.298 763.708L800.499 762.852L800.803 761.389L800.394 759.428L800.042 757.608L801.053 758.065L801.958 758.772L803.368 759.273L804.581 759.072L805.991 758.264L807.147 757.108L807.959 757.562L809.771 757.913L810.982 757.61L812.49 756.906L813.747 755.193L815.36 753.682L815.971 752.319L816.573 751.819L816.876 752.171L817.184 753.731L817.785 753.881L819.499 753.982L819.798 752.07L820.606 751.969L822.113 751.92L822.47 751.314L823.375 749.095L823.076 747.481L823.375 746.071L823.629 745.918L824.49 745.971L824.939 745.615L825.894 745.364L826.35 744.763L827.009 743.251V744.358Z" fill="white"/>
<path d="M630.712 748.885L630.918 748.853L631.128 749.035L631.274 749.019L631.537 749.095L631.929 749.196L632.139 749.104L632.309 749.249L632.539 749.387L632.382 749.912L632.132 749.904L631.86 749.762L631.234 749.521L631 749.351L630.665 749.306L630.463 749.351L630.35 749.318L630.407 749.148L630.248 749.056V748.953H630.485V748.845L630.712 748.885Z" fill="white"/>
<path d="M820.333 743L819.985 743.724L819.803 743.469L819.926 743.069L820.083 742.767L820.357 742.414L820.612 742.313L820.333 743Z" fill="white"/>
<path d="M830.767 743.076L830.868 743.097L831.037 743.352L831.014 743.622L830.768 743.502L830.509 743.001L830.469 742.677L830.767 743.076Z" fill="white"/>
<path d="M827.959 741.513L828.04 742.018L827.732 741.937L827.813 741.48L827.959 741.513Z" fill="white"/>
<path d="M818.771 738.433L818.928 739.096L819.13 739.642L819.153 740.506L818.967 741.085L818.624 741.638L818.264 741.921L817.956 741.686L817.892 741.354L818.022 740.627L818.241 739.823L818.423 738.793L818.601 738.19L818.771 738.433Z" fill="white"/>
<path d="M827.812 739.067L828.048 739.33L828.245 739.771V740.257L827.95 740.507L827.615 740.257L827.812 740.055V739.73L827.74 738.894L827.812 739.067Z" fill="white"/>
<path d="M822.353 737.281L822.094 738.413L821.67 738.766L821.415 738.737L821.488 738.028L821.671 737.422L821.953 737.002L822.191 736.881L822.353 737.281Z" fill="white"/>
<path d="M822.835 731.785L822.475 731.838V731.635L822.607 731.465L822.875 731.433H823.138L822.835 731.785Z" fill="white"/>
<path d="M779.095 725.512L779.499 726.114L780.004 726.619L780.812 727.02L781.164 727.577H781.919L782.473 727.476L782.873 726.869L783.083 727.274L782.978 728.285V728.887L782.223 729.691L781.717 730.653V731.66L780.91 731.76L780.308 731.558L780.106 730.951L780.005 729.844L779.803 729.189L779.096 728.938L779.5 728.737L779.803 728.381L780.106 727.727L779.956 727.071L779.354 726.465L778.945 725.964L778.896 725.209L779.095 725.512Z" fill="white"/>
<path d="M824.576 730.729L824.773 730.932L824.652 731.385L824.471 731.587L824.269 731.408H823.845L823.307 731.385L823.885 730.984L824.245 730.682L824.576 730.729Z" fill="white"/>
<path d="M827.174 725.023L827.372 724.89L827.518 725.322L827.372 725.831L827.518 725.799L827.679 726.082L827.573 726.587L827.444 727.188L827.598 727.371L827.444 727.572L827.541 727.944L827.573 728.651L827.291 729.759L827.174 729.889L827.396 730.24L827.013 730.866H826.705L826.563 730.725L826.54 730.061L826.305 729.718L825.679 729.535L825.603 729.758L825.174 730.122L824.773 730.162L824.576 729.738L823.917 729.657L823.307 729.354L822.939 729.217L822.762 728.731L822.875 728.546L823.242 728.279L823.684 728.194L823.812 727.875L824.269 728.045L824.551 728.178L824.822 728.117L825.174 728.348L825.4 728.601L825.833 728.682L826.403 728.451L826.787 728.216L826.811 727.513L826.771 726.809L826.689 725.932L826.589 725.374L826.669 724.954L826.835 724.667L827.174 725.023Z" fill="white"/>
<path d="M786.661 708.319L786.884 708.643L786.818 709.124L787.094 709.508L787.623 710.434L788.072 711.322L788.65 711.823L789.181 712.171L789.888 712.301L790.345 712.229L790.89 712.2L791.496 712.128L792.381 711.896L792.482 711.695L792.838 711.594L792.685 711.093L792.79 710.656L792.969 710.758L793.312 711.292L794.02 711.635L794.569 711.971L795.43 712.241L795.66 712.12H796.286L797.312 712.173H798.606L799.285 712.271L799.814 712.473L800.219 712.877L800.434 713.511L800.264 714.287L800.499 714.489L801.004 715.326L801.245 715.9L801.443 716.607L801.277 716.858L800.817 716.879L800.234 716.858H799.83L799.228 716.96L798.524 717.109L797.776 717.413L797.287 717.946L796.992 718.755L796.766 719.381L795.957 719.68L795.9 719.962L795.355 719.935H794.972L794.641 720.063L793.464 720.738L792.651 720.939L791.924 721.474L791.746 722.052L791.978 722.635L792.123 723.438L791.949 723.943L791.65 724.348L791.497 724.065L791.38 723.593L791.42 722.655L791.097 721.629L790.793 721.022L790.312 720.497L789.84 720.396H789.358L788.873 720.314L787.817 720.873L787.846 721.475L787.445 721.576L787.263 721.705L787.183 722.053L786.98 722.413L786.557 722.817L786.132 723.46L785.7 723.865L785.61 723.945L785.108 724.062L784.707 723.892L784.368 722.853L783.936 722.024L783.616 721.822L783.211 721.802L782.629 721.522L781.921 721.139L781.775 720.634L781.978 719.857L782.458 718.899L782.704 718.649L783.093 718.476L783.46 718.244L783.812 717.771L784.159 717.097L784.422 716.111L784.438 715.485L784.462 714.899L784.087 713.941L783.812 713.407L784.038 713.137H784.235L784.389 712.983L784.438 712.53L784.838 712.259L785.569 711.875L786.236 711.321L786.54 710.99L786.516 710.485L786.236 709.527L786.188 708.299L786.41 708.137L786.661 708.319Z" fill="white"/>
<path d="M824.115 721.354L824.147 721.527L824.015 721.807L823.812 721.455V721.204L823.764 720.819L824.115 721.354Z" fill="white"/>
<path fill-rule="evenodd" clip-rule="evenodd" d="M686.309 10.0947L688.196 11.5381L689.167 12.4873L689.991 13.5879L690.21 14.2998L691.115 15.1523L691.854 15.7305L692.175 16.6436L693.307 17.4688L694.413 18.0391L694.806 18.8105L695.48 20.1035L696.939 21.9551L697.698 22.9658L699.545 24.7002L700.899 26.2754L701.485 26.8164L702.367 27.9326L703.018 29.084L703.883 30.0098L704.267 30.8779H704.269L704.714 31.8926L705.308 32.7578L705.958 33.7646L706.02 34.5527L706.431 35.7334L707.769 36.7324L708.469 36.9023L708.933 37.8154L709.179 38.458L709.479 39.0771L709.805 39.6553L710.104 40.0635L710.431 40.5977L710.512 41.0742L710.904 41.4629L711.394 42.0166L711.843 42.7598L712.453 42.9023L713.212 43.6016L714.667 43.4639L715.164 42.9062L716.053 42.5547L716.23 42.2432L717.047 42.1748L717.722 42.0771L718.017 41.8867L718.845 41.3936L719.358 41.126L719.948 41.1143L720.881 40.9727L721.956 40.8301L723.573 40.5557L724.826 41.2461L725.582 41.5459L726.35 42.6973L727.081 43.9541L728.213 45.2393L729.356 46.7305L730.326 47.3125L730.905 48.0684L731.677 48.4688L732.654 48.04L733.552 48.3193L734.041 47.6807L734.97 46.2588L735.464 45.3809L736.078 45.3086L736.907 45.3252L738.711 44.9688L739.418 45.3291L740.153 45.2891L740.854 45.1318L742.651 45.1523L743.622 44.7119L744.52 45.4473L745.291 45.7861L745.731 45.9648L746.115 46.4775L746.678 46.9912L747.004 47.6611L747.518 47.8799L748.306 48.7041L748.706 49.29L748.512 49.7178L748.803 50.1592L749.073 50.9473L749.43 51.6846L749.902 52.3955L750.581 52.8369L751.673 53.5645L751.826 54.0244L752.69 55.9922L753.854 57.4805L754.489 57.5459L754.816 58.0947L756.502 59.1084L757.815 60.2725L758.851 61.5664L759.355 62.6729L759.452 63.6191L760.062 64.8232L760.415 65.3242L761.299 65.6396L761.691 66.6064L761.764 67.4834L762.516 68.9424L763.858 71.0518L764.152 71.8936L764.827 72.6201L766.133 73.458L766.695 74.0195L767.507 74.8525L768.283 75.168L769.366 76.3154L770.409 77.2773L770.337 77.9766L770.386 78.9033L770.964 79.6621L771.215 80.3936L772.241 81.3398L774.621 83.2031L776.505 84.5684L777.718 85.583L778.287 86.124L779.217 86.2324L779.617 86.0186L780.195 86.0869L781.133 86.4834L782.176 87.0771L782.657 88.1924L783.315 89.6025L783.829 90.6533L784.399 91.3535L785.474 93.0752L786.06 93.1357L786.974 94.2021L788.748 96.1143L790.198 97.1572L791.354 97.9941L792.009 98.9648L792.942 99.8984L793.687 100.706L794.567 101.309L795.113 102.008L795.643 102.881L796.302 103.439L797.636 104.349L798.003 105.146L798.868 106.867L799.502 108.048L800.137 108.528L800.561 109.341L801.312 110.178L802.044 111.961L803.535 112.955L804.521 115.95L806.021 118.439L807.12 120.38L807.576 121.516L808.188 122.34L808.462 123.1L808.235 123.884L808.685 124.972L808.661 126.386L809.599 127.089L810.084 128.932L810.233 130.027L810.339 130.598L810.958 130.679L811.325 131.22L811.454 131.773L810.428 132.121L810.598 132.889L810.764 133.495L811.039 134.267L811.414 134.756L811.911 135.1L811.976 136.09L811.798 136.32L811.887 138.625L812.129 140.011L812.505 140.849L812.985 141.648L813.427 142.174L813.778 142.869L814.215 143.961L814.47 144.919L814.736 145.638L815.031 146.81L815.241 147.998L815.225 149.554L815.382 150.1L815.447 152.451L815.282 152.96L815.294 154.577L815.399 155.006L815.113 155.139L815.399 155.588L815.416 156.655L815.724 157.597L816.156 158.36L816.652 158.659L816.964 159.188L817.518 159.273L818.281 160.583L818.216 161.815L818.462 161.94L818.454 163.157L818.6 163.376L818.632 163.72L818.329 164.059L818.353 164.531L818.345 165.809L818.198 167.215L818.158 168.321L818.345 169.316L819.145 171.146L818.935 171.946L818.404 172.759L817.774 173.481L817.863 174.54L817.637 174.956L817.807 175.494L817.726 176.016L817.908 177.191L818.231 177.641L818.135 178.013L817.988 178.542L817.253 179.015L816.841 179.888L816.227 180.562L815.919 181.104L815.847 181.945L815.601 182.361L815.257 182.999L814.998 183.549L815.007 184.52L814.998 185.319L815.365 186.136L815.382 187.534L814.728 188.233L814.117 188.856L813.426 189.548L812.626 189.948L811.725 190.777L811.413 191.815L811.583 193.529L811.708 195.238L812.137 196.435L812.416 198.432L812.695 200.186L812.691 201.991L812.865 202.646L813.24 203.103L813.491 203.686L813.851 204.397L813.956 205.23L813.818 206.091L813.738 206.835L813.378 207.53L813.115 208.217L813.034 209.66L812.65 210.089L812.04 210.954L810.804 212.288L809.866 214.106L809.915 215.768L810.036 217.028L810.428 218.73L810.918 220.25L811.969 221.397L812.704 222.134L813.468 222.46L814.293 223.055L813.957 223.656L813.298 224.352L813.347 225.387L813.25 226.364L813.492 227.411L812.776 227.621L812.857 228.312L812.696 229.161L813.149 230.042L813.355 230.717L813.372 231.323L813.404 231.897L814.029 232.205L814.35 232.844L814.127 233.381L814.79 233.507L815.114 233.818L815.538 234.206L815.865 234.55L816.011 235.357L817.191 235.366L818.105 236.207L818.089 237.048L817.77 237.654L817.354 238.265L816.759 238.685L815.81 238.083L815.058 237.989L814.674 237.589L814.366 236.66L814.039 235.978L813.599 235.407L812.507 233.702L810.619 231.826L809.306 231.019L807.131 229.858L804.911 228.573L803.537 228.594L803.048 227.458L801.818 227.106L800.359 226.973L799.758 226.496L799.054 226.479L798.076 226.483L797.09 226.415L795.927 226.392L794.561 226.229L791.877 226.003L789.436 225.728L787.977 225.393L786.478 226.277L785.443 227.195L784.303 227.846L783.741 228.311L783.196 228.815L782.86 229.301L782.29 230.363L781.705 232.348L781.305 233.609L780.751 233.88L780.206 234.677L779.006 236.395L777.873 237.854L777.449 237.962L777.433 236.826L777.534 236.24L777.591 235.307L777.882 234.309L777.999 233.483L778.039 231.438L777.672 229.183L776.847 226.673L775.651 223.653L774.584 221.567L773.501 219.566L771.241 215.735L769.645 213.431L767.155 211.042L765.037 209.106L762.608 207.356L760.757 205.857L757.253 204.051L754.997 202.955L753.865 202.588L751.267 202.66L748.821 203.021L746.061 202.996L744.832 202.07L743.263 200.995L742.082 200.785L740.887 200.151L740.103 199.784L739.298 199.021L738.546 198.103L737.52 196.324L736.218 194.671L734.831 193.143L733.348 192.022L731.832 191.376L729.799 190.066L728.982 189.893L728.574 189.29L726.643 188.146L724.899 187.912L724.859 187.479L723.688 186.748L722.082 185.135L721.492 184.682L720.672 183.606L719.605 183.542L718.356 182.745L717.063 182.228L715.483 180.355L713.733 180.312L712.958 181.172L712.379 181.391L712.178 180.42L713.208 180.335L713.446 179.797L712.653 178.738L711.562 178.718H709.509L708.442 178.504L706.098 178.262L703.276 177.797L700.693 177.833L698.733 178.213L695.928 178.917L692.214 180.897L687.072 183.367L681.939 186.628L678.689 189.045L675.779 190.812L674.462 191.672L673.101 192.698L671.831 193.236L670.747 193.144L669.705 193.131L668.815 192.69L667.732 191.829L666.698 190.395L666.649 189.448L666.532 188.163L666.634 186.745L666.723 184.942L667.021 183.185L667.357 181.184L668.031 178.524L669.139 174.762L670.86 169.924L672.529 167.074L673.621 164.718L674.356 162.362L674.664 161.514L675.379 159.117L675.944 157.327L676.422 155.097L675.993 153.063L676.229 150.549L676.426 149.422L676.813 148.33L677.149 147.17L677.671 144.936L678.224 141.84L678.656 138.582L678.875 136.049L679.024 134.448L678.948 133.478L678.624 132.563L678.224 130.522L677.351 127.741L676.676 124.888L676.26 123.728L676.475 123.077L676.324 122.321L675.828 118.644L675.707 115.07L675.569 113.394L675.266 111.644L674.99 108.548L674.518 105.853L673.791 103.068L673.002 100.891L672.294 99.4512L671.862 98.0527L670.899 96.5488L669.752 95.498L669 94.6133L667.573 93.3477L665.472 91.4121L663.933 90.042L662.76 88.7002L662.068 87.6445L662.021 86.1943L661.611 84.3711L661.506 83.7373L661.578 81.3203L660.944 79.5459L660.577 79.3721L660.625 78.915L660.193 77.1367L659.519 75.0957L658.581 72.9287L657.644 70.6943L656.92 69.8291L656.814 69.4619L655.582 67.7197L653.049 64.5498L651.925 63.3496L650.914 62.7354L650.514 62.3682L648.716 60.7842L646.468 58.8799L645.041 57.9629L644.225 57.085L642.043 55.5166L639.307 53.5283L638.672 53.3135L638.337 52.6465L638.002 52.3262L637.694 52.1895L637.262 51.748L636.57 51.1504L636.389 50.5518L635.835 49.918L636.005 49.457L636.138 48.5078L636.628 48.3867L636.943 48.1406L637.889 47.082L638.232 46.5566L639.076 46.2207L639.291 45.833L639.981 45.3564L641.105 44.5674L641.905 44.373L643.453 43.334L644.812 42.417L645.883 41.1475L647.257 39.5469L647.447 38.7051L648.025 38.4873L648.341 37.6348L648.604 36.6973L649.751 35.4609L650.144 34.6641L650.544 34.4131L651.251 33.5078L651.381 32.5625L652.528 31.0635L652.653 30.877H652.659L653.966 28.998L655.319 26.5039L656.011 26.0762L658.104 25.9385L659.122 26.2051L660.352 26.96L661.447 27.2314L662.073 28.4805L663.669 28.6094L663.831 29.7012L663.766 30.7764L663.284 31.3467L662.169 32.627L661.817 33.5L661.831 34.042H661.829L661.848 34.8135L661.686 35.5537L661.399 36.0586L661.141 36.3252L661.783 36.2568H662.487V37.2031L662.394 37.9424L662.843 38.0078L662.682 38.582L662.232 38.8857L662.394 39.3584L662.681 39.8916L662.842 40.2637L663.218 40.3652L663.314 41.1045L663.537 41.6094L663.603 42.1475L664.758 42.8555L666.427 42.5928L666.232 41.7842L665.654 41.3838L665.035 40.373L664.17 38.7686L663.479 36.707L663.168 35.7002L663.095 34.0156L663.321 33.4258L663.993 32.6729L664.438 32.1875L664.503 31.1133L664.508 31.1084L664.727 30.96L664.781 30.8779L664.908 30.6787L665.09 30.4082L665.106 29.8145L664.973 29.5156L664.989 29.0664L665.204 28.835L665.106 28.4395L664.893 27.9424L664.545 27.3486L664.577 26.29L664.666 25.8936L664.795 25.3975L664.601 25.1299L664.633 24.1396L665.546 24.0068L665.935 24.2041L666.31 24.0068L666.969 23.9414L667.696 24.3018L667.979 24.666L668.25 24.2773L669.681 24.585L670.121 25.3613L672.575 24.2012L672.38 23.6309L672.894 23.1816L674.49 22.584L675.517 22.4912L676.167 23L677.282 24.4395L678.05 24.6172L678.879 24.3457L679.558 23.8975L680.361 23.541L680.987 22.6436L681.153 21.8027L682.212 21.7139L682.64 20.3359L682.292 20.2471L682.381 19.499L682.64 19.3486L682.781 17.6143L683.098 17.4004L683.44 17.1338L683.578 16.5078L683.833 16.2656L684.092 15.7842L684.378 15.2178L684.778 14.3809L684.581 13.0918L684.411 12.4658L684.011 12.4053L683.521 12.793L682.616 13.2129L682.18 13.751V14.2324L682.438 14.6484L682.83 15.3115L682.381 16.2656L681.852 16.7061L681.508 17.7363L681.436 19.1309L681.747 19.9727L681.541 20.4902L680.664 20.2314L679.969 19.7178L679.718 19.2051L679.196 19.2412L679.091 20.4902L679.511 20.8164L679.479 21.3701L679.196 21.8115L678.675 22.0654L678.146 21.8428L677.907 21.2578V20.4902L677.729 19.9404L677.802 18.874L676.929 17.7734L676.335 18.251L676.188 19.1689L676.229 19.9727L676.116 20.708L675.562 20.8164L674.827 20.9668L675.106 19.6455L675.522 18.4326L675.946 17.665L676.263 17.3457L676.453 16.7715L676.085 16.4043L675.782 16.4482L675.677 16.7881L675.099 16.7754L674.674 16.6904L674.367 16.877L674.072 17.1152L673.599 17.042L673.51 16.2539L673.615 15.9512L673.902 15.4697L674.104 15.1455L674.225 14.6523L674.439 14.2285L675.024 13.7832L675.489 13.3594L675.676 13.0068L676.646 12.4219L677.458 12.1064L678.514 11.8955L679.245 11.6904L679.638 11.4756L680.591 11.415L680.923 11.1729L681.347 10.6475L681.803 10.3164L682.396 10.2432L683.152 10.3447L684.146 10.4062L684.979 10.4629L685.242 10.0625L686.309 10.0947ZM698.271 36.8066L697.06 37.6143L695.248 38.6211L693.636 39.6279L688.996 38.6211L687.787 40.4365L687.989 46.4814L688.596 50.3135L689.603 53.5381L693.434 57.5684L698.672 60.5957L700.892 61.3994L707.14 62.4062H709.965L712.382 60.9961L714.598 62.6104L716.211 64.8291L719.032 67.4482L721.854 69.2627L722.46 65.0312L721.652 61.4014L722.663 57.5703L724.878 57.7725L726.693 58.9844L728.306 58.7832L729.316 56.9678L729.519 53.3389L731.132 49.5068L728.71 49.3057L725.688 51.1201L722.865 52.5303L719.838 52.333L718.428 50.1133L716.415 48.7031L713.19 47.6924H709.763L707.543 49.1064L705.324 49.9111L703.108 50.3154H701.092L700.288 48.5L701.092 46.4834L702.099 44.0674L702.705 41.8477L701.901 39.6279L700.087 36.2041L698.271 36.8066Z" fill="white"/>
<circle id="25" cx="681" cy="766" fill="#5CE50D"/>
<circle cx="727" cy="64" fill="#E52A0D"/>
<circle cx="762" cy="209" fill="#E52A0D"/>
<circle cx="801" cy="852" fill="#E52A0D"/>
</svg>
