<svg width="1000" height="1000" viewBox="0 0 1000 1000" fill="none" xmlns="http://www.w3.org/2000/svg">
<path d="M385.514 28.2567C380.668 31.8912 376.381 36.178 372.653 41.1172C367.434 48.1067 367.061 48.8522 366.13 55.9349C365.198 63.1107 365.104 63.3903 362.588 63.6698C359.513 64.0426 357.649 67.3043 354.015 79.0466C351.592 86.8748 351.126 87.5271 346.373 91.1616C343.577 93.2118 339.663 97.4055 337.613 100.294C335.562 103.277 332.114 107.004 329.784 108.589C324.659 112.13 322.795 116.137 322.795 124.058C322.795 129.464 322.609 130.023 319.999 131.887C318.135 133.285 315.433 137.385 312.078 144.002C308.35 151.457 305.089 156.303 299.59 162.547C295.49 167.113 291.948 171.866 291.576 172.984C290.83 175.128 291.016 175.221 313.01 195.444L316.738 198.799L314.128 204.018C311.985 208.584 311.612 210.448 311.612 217.624C311.612 222.19 311.985 226.85 312.451 228.061C312.917 229.273 312.823 232.534 312.264 235.983C311.426 241.201 311.146 241.76 308.909 242.04C306.859 242.32 306.486 242.879 306.207 245.581C306.02 247.352 306.3 250.521 306.766 252.571C307.418 255.739 307.232 256.671 305.368 259.281L303.131 262.17L307.139 264.965L311.239 267.761L310.68 273.446C310.121 279.69 310.307 279.783 315.246 278.105C317.483 277.36 320.372 277.267 326.057 278.012C333.046 278.944 335.096 279.69 346.839 286.12C354.108 289.941 360.818 293.109 361.936 293.109C363.893 293.109 363.986 293.389 363.334 298.421C362.961 301.776 361.843 305.224 360.352 307.461C358.022 311.002 358.022 311.282 359.14 317.805C360.258 324.329 360.258 324.515 357.835 327.963C355.878 330.852 355.412 332.716 355.412 337.096C355.412 341.756 355.972 343.62 358.767 348.745L362.215 354.803L360.072 359.369C358.022 363.656 357.556 364.029 350.473 366.731L343.018 369.62L334.724 366.825C330.25 365.334 326.523 364.402 326.523 364.774C326.523 366.452 329.691 374.746 330.53 375.305C331.089 375.585 333.233 376.144 335.376 376.423C338.917 376.983 339.29 377.355 340.781 381.456C342.831 387.141 342.831 387.141 339.383 396.18C336.681 403.542 336.215 404.102 331.462 406.991C326.802 409.786 326.523 410.159 326.523 413.794C326.523 417.055 325.964 418.174 322.795 421.249L319.067 424.884V433.923C319.067 440.913 319.533 443.988 320.931 447.25L322.702 451.537H328.2C333.326 451.537 333.792 451.723 337.426 455.451C340.595 458.712 341.527 460.576 342.459 465.143L343.577 470.827L338.172 481.451C335.003 487.602 332.487 493.846 332.114 496.176C331.648 500.09 331.369 500.369 327.734 501.674C325.498 502.326 323.727 503.258 323.727 503.538C323.727 503.911 324.938 505.588 326.336 507.266L328.853 510.341L327.827 523.574C327.175 530.843 326.243 538.299 325.684 540.069C324.286 544.543 324.379 545.474 326.43 546.127C327.361 546.406 329.132 548.457 330.344 550.693C332.487 554.794 332.487 554.794 330.903 561.69C329.971 565.418 329.319 568.866 329.319 569.332C329.319 569.798 331.555 567.747 334.351 564.859C337.147 561.97 339.849 559.64 340.315 559.64C341.061 559.64 344.229 572.966 344.229 576.135C344.229 577.346 325.777 587.132 324.938 586.293C324.659 586.106 324.938 584.336 325.591 582.565C326.616 579.396 326.523 578.931 323.727 575.482L320.745 571.755L318.415 573.619C317.11 574.644 315.153 575.482 314.035 575.576C313.01 575.576 311.332 575.948 310.4 576.321C308.816 576.88 308.816 577.067 310.68 579.49C313.569 583.217 316.085 592.071 316.365 600.178L316.644 607.168L312.358 610.15C307.232 613.691 307.325 613.691 306.393 629.441L305.834 641.09L298.472 649.757C294.371 654.51 291.11 658.703 291.11 658.983C291.11 659.822 295.49 667.65 303.504 681.163C310.494 692.905 310.773 692.998 312.078 685.17L312.637 681.629L315.619 683.399C317.297 684.424 320.652 686.381 323.075 687.779L327.548 690.296L327.268 698.403C326.989 706.138 326.896 706.418 324.659 706.697C322.981 706.884 320.652 705.579 316.551 702.224C313.383 699.708 310.587 697.565 310.307 697.565C309.375 697.565 324.566 716.762 328.759 720.863L333.046 724.963V752.828L329.691 756.835C326.896 760.376 325.87 760.935 322.795 760.935C319.161 760.935 318.135 759.91 318.135 756.276C318.135 753.2 311.612 741.924 307.139 737.358C304.716 734.841 300.988 731.58 298.751 729.995L294.837 727.293L291.016 730.275C287.289 733.164 287.289 733.257 288.966 735.214C289.991 736.239 292.228 738.849 293.999 740.899C298.472 746.118 305.461 759.258 307.698 766.806C309.841 773.889 314.781 780.599 328.387 794.857C336.028 802.779 336.867 803.338 351.219 810.514C359.42 814.614 369.95 820.206 374.517 823.002C379.176 825.704 386.445 829.432 390.826 831.296C398.467 834.464 398.84 834.744 401.356 839.59C403.872 844.343 404.432 844.809 409.744 846.672C412.912 847.698 417.572 849.748 419.995 851.239C424.188 853.662 425.12 854.967 431.923 867.734C436.024 875.376 439.752 883.204 440.311 885.161C441.149 888.423 440.963 888.982 438.354 892.616L435.465 896.53L438.447 897.742C440.031 898.394 444.411 901.004 448.232 903.613C452.705 906.595 455.967 908.179 457.924 908.179C464.261 908.179 465.1 920.015 459.229 925.42L456.153 928.216L458.017 931.198C460.067 934.46 459.322 938.094 456.247 939.772C455.221 940.331 453.917 942.101 453.358 943.686C452.332 946.575 452.426 946.575 455.128 946.202L457.831 945.829L457.272 950.023C456.992 952.353 456.153 956.36 455.501 958.969C454.849 961.485 454.476 963.815 454.662 964.002C454.849 964.188 457.458 963.908 460.347 963.349C467.616 962.138 473.58 963.629 482.9 969.127C493.617 975.371 504.427 978.26 510.857 976.489C512.721 976.023 513.001 975.464 512.535 973.414C512.255 971.55 512.628 970.339 513.933 969.127C515.797 967.45 515.983 967.45 522.506 970.152C523.811 970.711 524.091 970.246 524.091 967.263C524.091 964.095 524.836 962.977 530.707 957.012L537.324 950.302L534.994 946.295C533.13 943.033 532.571 940.61 532.292 933.994L531.919 925.886H535.181C537.324 925.886 541.052 927.191 545.245 929.334L551.955 932.875L555.217 929.707C558.385 926.631 558.572 926.072 558.572 920.667C558.572 915.355 558.199 914.237 552.328 903.986C548.973 898.021 545.152 892.43 543.941 891.684C541.984 890.38 541.797 889.634 542.263 886.838C542.636 884.788 542.077 880.315 540.958 875.562C539.933 871.182 539.281 867.547 539.467 867.361C539.654 867.175 541.797 867.454 544.313 867.92C548.6 868.852 548.88 868.759 552.701 865.684C555.776 863.167 556.894 861.397 558.106 857.11C558.945 854.221 559.783 851.146 560.063 850.4C560.249 849.561 562.486 846.952 564.909 844.529L569.382 840.149L572.551 842.385L575.812 844.622L584.573 840.149L589.884 843.317C594.824 846.393 595.383 846.486 598.085 845.368C599.67 844.622 605.354 842.106 610.853 839.776L620.638 835.396L623.434 826.822C626.136 818.435 626.136 818.156 624.832 812.005L623.527 805.761L632.846 794.951L633.405 785.165C634.058 773.05 635.176 769.416 639.276 766.713C641.699 765.129 642.445 764.011 642.445 761.774C642.445 759.91 643.47 757.674 645.52 755.344C648.316 751.989 648.596 750.964 649.9 739.781L651.298 727.852L655.306 725.709C658.101 724.124 660.152 721.981 662.109 718.44C663.693 715.644 665.37 713.407 665.836 713.407C666.302 713.407 669.844 714.246 673.664 715.364C677.485 716.389 682.425 717.135 684.475 716.949L688.389 716.669L690.439 709.214C693.328 698.217 699.013 690.482 706.375 687.5C709.264 686.288 709.264 686.288 710.848 673.521C712.246 662.524 712.339 659.542 711.314 652.832L710.196 644.911L701.622 636.523C693.98 629.161 692.862 627.67 692.489 624.315C692.21 622.079 692.583 619.656 693.328 618.258C694.26 616.58 694.54 611.455 694.54 598.315V580.608L690.905 576.508L687.177 572.407L680.281 573.059C674.037 573.619 673.012 573.432 667.234 570.823C663.786 569.332 660.711 568.027 660.524 568.027C660.338 568.027 658.567 570.543 656.517 573.525L652.789 579.024L643.563 576.694L634.43 574.364L617.842 520.499H603.77L601.161 516.119C598.551 511.925 598.551 511.646 599.856 508.291L601.254 504.749L586.157 481.824L581.684 460.856C579.261 449.3 577.303 439.608 577.21 439.142C577.21 438.769 578.608 438.49 580.379 438.49C583.454 438.49 583.454 438.396 587.741 428.145L591.935 417.894L585.132 412.862C578.142 407.643 577.21 406.059 577.21 398.231C577.21 396.273 576.372 395.062 573.389 393.198C570.873 391.614 569.009 389.47 567.798 386.675L565.934 382.574L568.543 377.821C570.966 373.441 571.898 372.696 581.218 368.036C586.716 365.24 591.189 362.445 591.189 361.699C591.189 360.954 589.046 355.642 586.436 349.864L581.777 339.24L583.081 333.835C584.386 328.709 584.386 327.963 582.615 322.838L580.752 317.339L582.802 311.096C584.2 306.716 586.064 303.547 588.487 301.031L592.121 297.21V286.12C592.121 275.403 592.307 274.751 594.917 270.277C596.967 266.829 597.713 264.406 597.713 261.144C597.713 257.137 598.179 256.019 601.72 251.825C604.236 248.75 605.634 246.327 605.448 245.115C602.465 228.9 598.924 216.692 595.569 210.821C591.935 204.577 591.842 204.204 592.401 197.867C592.96 191.343 592.96 191.25 587.927 181.185C584.386 174.289 582.802 169.909 582.802 167.579C582.802 164.597 581.684 162.64 575.346 154.719C568.357 145.959 567.518 145.213 560.715 142.138C548.973 136.826 543.847 133.564 542.636 130.675C541.984 129.277 541.052 128.252 540.399 128.532C539.84 128.718 537.044 129.184 534.249 129.557C530.241 130.023 527.818 129.65 522.693 127.879L516.169 125.643L515.89 119.212C515.703 113.341 515.424 112.596 512.908 110.359C510.298 108.123 510.205 107.843 511.137 104.488C511.976 101.32 511.789 100.108 509.553 94.7029C508.155 91.348 504.707 84.5449 502.004 79.6057C497.065 70.7524 497.065 70.6592 491.753 68.8886C488.398 67.7703 484.298 65.3473 480.849 62.4583C470.505 53.605 471.53 54.1642 466.777 56.1212C463.329 57.5191 462.118 58.7306 459.788 63.1107L456.899 68.5158H449.537C442.175 68.5158 442.175 68.5158 437.701 72.4299C434.44 75.3188 430.898 77.1827 425.12 79.233L417.013 81.9355L411.701 77.7419C406.948 74.1074 405.923 72.7095 403.313 66.186C401.636 62.0856 400.052 56.8668 399.679 54.6301C399.12 50.8093 399.306 50.3433 401.822 48.3863L404.525 46.2429L403.313 39.4398C401.729 30.2137 400.89 28.2567 397.069 25.3677C395.206 23.9698 393.528 22.8516 393.342 22.8516C393.062 22.8516 389.521 25.2745 385.514 28.2567Z" fill="white"/>
<circle id="5" cx="406" cy="447" fill="#5CE50D"/>
<circle id="1587" cx="466" cy="912" fill="#E52A0D"/>
<circle id="7" cx="346" cy="739" fill="#E52A0D"/>
<circle id="8" cx="346" cy="198" fill="#E52A0D"/>
</svg>
