<svg width="1000" height="1000" viewBox="0 0 1000 1000" fill="none" xmlns="http://www.w3.org/2000/svg">
<path d="M427.63 8.44C425.507 11.239 425.411 11.7215 426.569 14.0379C427.727 16.1612 427.63 16.8368 426.086 18.8636C424.349 21.0834 424.445 21.18 428.21 26.4883C433.325 33.5339 433.325 33.5339 443.459 37.1049C451.759 40.0969 452.145 40.3864 452.145 43.1854C452.145 45.3087 451.759 45.9843 450.697 45.5983C445.486 43.4749 426.762 38.2631 423.094 37.7805C419.137 37.2015 410.547 39.1318 401.378 42.7028C400.606 42.9924 400.027 42.1237 399.834 40.3864C399.545 37.684 399.448 37.684 393.754 37.9736C388.349 38.2631 387.77 38.1666 386.612 35.8502C385.357 33.6304 384.874 33.4374 378.408 33.6304C374.644 33.6304 370.687 33.4374 369.528 32.9548C367.695 32.2792 367.502 32.7618 366.44 39.7108C365.764 43.861 364.703 47.6251 364.027 48.0111C362.193 49.1693 360.456 48.8798 360.456 47.5286C360.456 46.853 359.877 45.5017 359.201 44.5366C358.043 42.9924 357.657 43.0889 353.7 46.2739C347.909 50.8101 345.979 49.8449 345.979 42.4133C345.979 39.4213 345.593 37.2015 345.11 37.3945C344.628 37.491 341.925 40.676 339.03 44.4401L333.818 51.1961L326.965 51.4857C322.429 51.6787 317.893 51.0996 313.26 49.8449C306.794 48.0111 305.636 47.239 297.625 39.6143C290.869 33.2443 288.359 31.4106 286.236 31.4106C283.341 31.4106 282.279 33.1478 282.279 38.3596C282.279 42.0272 281.024 42.4133 275.813 40.0969C271.855 38.2631 270.118 38.0701 263.748 38.6492L256.22 39.2283V35.8502C256.22 33.4374 255.544 31.9896 253.711 30.5419C251.394 28.7081 251.008 28.7081 247.823 29.9628C243.287 31.8931 241.453 31.7966 239.33 29.4803C237.689 27.6465 237.496 27.6465 235.759 29.0942C234.504 30.3489 234.022 32.0862 234.022 36.1398C234.022 40.9655 233.636 42.0272 230.451 46.0808C227.555 49.5554 226.3 50.424 224.66 50.0379C223.501 49.7484 218.483 49.4589 213.56 49.4589C201.206 49.2658 182.386 53.8985 174.761 59.0138C170.032 62.1023 169.164 62.3918 166.268 61.5232C164.531 60.9441 156.231 60.3651 147.93 60.0755L132.777 59.5929L121.389 66.8315C115.115 70.8851 107.877 76.1935 105.174 78.7994L100.348 83.4321L89.4422 77.8342L78.6326 72.2363L74.4824 74.1666C72.2626 75.2283 68.4985 76.3865 66.0856 76.7726C61.9355 77.5447 61.5494 77.3516 55.5655 72.8154C49.5816 68.1827 49.292 68.0862 42.729 68.0862C37.2277 68.0862 35.1044 68.5688 30.2786 70.9817C26.3215 73.0085 23.4261 73.8771 21.0132 73.6841C17.7317 73.3945 17.3456 73.6841 12.7129 80.2471C7.98367 87.0031 7.98367 87.1962 9.14185 90.8637C9.81745 92.9871 11.5547 95.8825 13.099 97.5233L15.8014 100.419L14.4502 106.692C13.678 110.167 13.3885 113.255 13.7746 113.545C14.1606 113.834 16.3805 114.896 18.7933 115.861C21.2062 116.826 27.2866 120.011 32.4019 122.81C39.7371 126.864 42.536 127.925 46.0105 127.925C50.1607 127.925 50.9328 128.408 64.7344 140.086C72.6487 146.842 79.2117 152.344 79.3082 152.44C79.5012 152.537 79.1151 154.177 78.6326 155.915C77.8605 158.714 77.957 159.486 79.7907 161.416L81.8176 163.539L79.3082 169.33C77.2814 174.06 76.9918 175.7 77.7639 178.306C78.2465 180.044 78.6326 183.422 78.6326 185.834C78.6326 189.888 79.0186 190.66 83.8444 195.389C88.4771 199.926 89.9248 202.531 95.6192 215.368L102.086 230.135L99.3833 236.698L96.7774 243.261L99.2868 245.191C101.41 246.928 101.7 247.7 101.217 250.982C100.928 253.105 98.9972 258.124 96.9704 262.081C94.9436 266.038 90.89 274.821 87.9945 281.577C81.6245 296.44 75.9302 303.969 71.8765 303.1C69.4637 302.521 69.1741 302.81 68.595 306.188C68.3055 308.215 68.0159 311.207 68.0159 312.945C68.0159 316.709 66.3752 317.963 65.217 314.971C64.4449 312.945 64.2519 313.138 61.646 317.867C59.04 322.596 58.461 323.079 53.2492 324.623C48.5199 325.974 47.0722 326.939 44.3698 330.607C42.343 333.309 41.0883 336.398 40.8952 338.714L40.5092 342.575L44.9489 343.54C50.5467 344.891 55.5655 349.234 58.7505 355.604C61.3564 360.719 62.1285 368.537 60.1982 369.792C58.3644 370.95 55.7585 378.285 55.1795 384.462C54.5038 390.446 54.6004 390.736 60.1982 401.835C63.2867 408.012 65.6031 413.706 65.41 414.382C65.1205 415.057 65.6031 416.698 66.4717 417.953C67.7264 419.883 68.8846 420.366 72.2626 420.366C75.0615 420.366 77.2814 421.041 79.0186 422.392C81.335 424.226 81.528 424.902 81.528 431.465V438.51L78.0535 437.545C73.9033 436.387 73.4208 436.773 74.2894 440.441C74.6755 442.564 76.3162 444.301 80.0803 446.811C85.1956 450.189 90.2144 457.427 90.2144 461.384C90.2144 463.218 87.3189 464.473 81.4315 465.245C74.6755 466.114 71.587 469.781 71.1044 477.599L70.7183 483.679L77.2814 486.285C80.9489 487.829 86.9329 490.821 90.6004 492.945C96.6809 496.516 97.646 496.805 101.989 496.323C106.332 495.744 107.684 496.13 115.598 500.183C120.52 502.596 127.083 506.457 130.268 508.677C133.453 510.897 138.954 514.371 142.429 516.301L148.799 519.776H176.306L189.818 511.669L198.311 512.923C203.04 513.599 209.796 514.854 213.464 515.626C217.035 516.494 221.861 517.267 223.984 517.267C226.493 517.363 228.81 518.039 230.064 519.197C232.188 521.127 232.188 521.127 236.724 516.687L241.26 512.248L253.325 511.765C264.327 511.186 265.678 511.283 268.284 513.02C270.118 514.178 272.821 514.95 275.523 514.95C279.48 514.95 280.542 515.529 287.105 521.224L294.343 527.497L302.065 527.594H309.786L317.99 533.674C324.649 538.5 327.255 541.299 331.984 548.248C337.003 555.583 338.354 557.031 342.118 558.382C347.427 560.409 351.384 565.717 352.349 571.894C352.735 574.789 353.99 577.395 356.209 579.808C360.167 584.248 360.842 585.696 362.386 591.969C363.255 595.926 363.931 596.988 365.185 596.602C366.054 596.409 367.695 595.926 368.949 595.54C370.783 595.058 371.169 595.347 371.652 597.663C372.424 601.524 388.445 612.72 391.92 611.851C393.947 611.369 394.236 611.562 394.236 613.685C394.236 614.94 394.526 617.449 394.815 619.09C395.394 621.696 395.781 622.082 398.676 622.082C401.668 622.082 401.957 622.371 401.957 624.977C401.957 627.294 402.633 628.355 405.335 629.899C407.845 631.444 408.81 632.698 409.293 635.401C410.354 641.771 410.644 642.35 412.864 641.964C414.022 641.771 422.612 640.227 431.877 638.489C441.143 636.849 450.697 635.015 453.11 634.532C457.26 633.567 457.454 633.663 460.349 637.042L463.244 640.42L471.255 639.454L479.266 638.586L486.215 632.409C490.076 629.031 496.253 623.819 500.113 620.73L507.062 615.229L514.011 615.905C520.864 616.58 520.96 616.58 523.952 620.924C525.593 623.336 531.48 631.347 536.982 638.682L546.923 652.098L545.765 660.977C544.703 668.795 544.703 671.401 546.247 681.728C547.212 688.194 548.274 693.503 548.564 693.503C548.853 693.503 550.687 693.889 552.714 694.371L556.188 695.143L560.724 688.58C563.33 684.72 565.936 681.921 566.901 682.017C567.77 682.017 571.534 683.176 575.202 684.623L581.958 687.229L586.011 694.95C588.231 699.197 590.837 703.154 591.802 703.83C594.698 705.76 617.089 713.771 619.599 713.771C621.239 713.771 622.977 715.412 626.355 720.141L630.891 726.511L636.392 725.835C639.384 725.546 642.473 725.063 643.245 724.774C644.017 724.484 647.491 720.72 650.966 716.28L657.239 708.173L667.373 704.795C672.971 702.961 680.789 700.452 684.746 699.294C691.213 697.267 692.66 696.398 697.776 690.993L703.663 684.816L708.682 688.291C712.542 690.8 715.727 692.055 721.615 693.02C725.861 693.792 729.529 694.564 729.626 694.661C729.722 694.854 732.424 698.425 735.609 702.672L741.4 710.489L741.883 720.044C742.172 727.186 742.848 731.047 744.489 735.004L746.612 740.312L741.786 749.192C739.084 754.018 735.706 761.063 734.355 764.827L731.845 771.68L734.934 776.409C736.575 779.111 738.698 781.428 739.567 781.717C740.435 781.91 744.682 782.876 748.929 783.841C755.878 785.288 758.677 786.736 777.207 798.125L797.862 810.768L797.282 814.146C796.896 815.98 796.414 825.921 796.124 836.055L795.545 854.683L801.336 857.964L799.213 862.211L797.186 866.457L800.854 869.353L804.425 872.248V880.935C804.425 885.664 804.811 890.297 805.293 891.165C805.776 892.13 809.25 894.35 813.014 896.088C819.674 899.369 819.77 899.466 820.832 904.098C821.315 906.704 821.797 909.407 821.797 910.082C821.797 910.758 823.341 913.46 825.175 916.066C828.071 920.12 828.553 921.567 828.553 926.104C828.553 930.157 830.194 936.431 835.406 952.066L842.355 972.817L840.618 981.793C839.749 986.715 839.17 991.444 839.556 992.216C839.942 993.278 841.776 993.664 847.084 993.664C855.964 993.664 859.921 992.506 863.685 988.935C865.326 987.391 867.738 985.846 869.09 985.46C870.441 985.074 874.977 982.179 879.127 979.09C885.497 974.361 887.524 973.396 890.709 973.396C893.604 973.396 896.114 972.431 900.746 969.342L906.923 965.289L918.023 970.887C928.446 976.002 929.315 976.291 932.307 975.23C935.009 974.168 935.878 974.265 938.098 975.712C940.318 977.16 941.958 977.353 949.68 976.774L958.559 976.098L959.234 978.608C959.524 979.959 960.2 981.117 960.682 981.117C962.516 981.117 964.929 976.967 965.315 973.01C965.797 969.149 965.411 967.798 961.744 961.718C959.524 957.857 957.111 952.742 956.436 950.136C955.277 945.793 955.277 945.407 957.497 943.38C960.007 941.063 960.393 938.651 958.752 935.659C957.98 934.114 958.655 931.122 962.13 921.181C964.543 914.232 966.57 908.441 966.57 908.248C966.57 908.055 965.218 907.669 963.674 907.283C961.937 906.897 960.2 905.643 959.427 904.098C958.173 901.782 958.269 901.203 960.007 898.79L962.033 895.991L957.98 891.937C954.891 888.752 954.023 887.208 954.023 884.506C954.023 881.996 953.251 880.356 951.127 878.329C948.618 876.012 948.328 875.047 948.811 872.345C949.39 869.256 949.293 869.16 946.591 869.739C944.661 870.125 943.406 869.835 942.537 868.774C941.765 867.809 939.738 867.23 937.519 867.23C933.368 867.23 933.368 867.23 932.307 856.999C931.824 852.077 932.017 850.919 933.272 850.436C936.071 849.374 938.001 849.857 942.441 852.656L946.784 855.455L951.61 850.243C954.312 847.444 957.594 844.838 958.945 844.549L961.454 843.873L963.192 862.018L971.395 852.945C975.932 847.83 980.275 843.487 981.047 843.101C981.819 842.715 984.714 841.364 987.32 840.109L992.146 837.792L987.803 837.503C980.564 837.117 979.406 836.538 976.8 832.098C974.677 828.527 973.712 827.755 970.43 827.176C966.666 826.5 966.377 826.211 962.612 818.876L958.752 811.154L961.358 807.873L963.867 804.495L957.883 797.739C954.602 794.071 951.706 790.983 951.417 790.983C951.224 790.983 949.486 792.044 947.556 793.299C943.599 796.002 944.757 796.581 932.982 787.122L925.165 780.849L920.628 769.46C916.285 758.264 916.189 757.975 917.733 754.983C918.505 753.245 919.663 750.06 920.242 747.744C921.111 744.27 921.594 743.69 923.427 744.077C924.586 744.366 929.122 744.849 933.368 745.138L941.283 745.717L943.406 740.505C945.24 736.066 946.108 735.101 948.425 734.811C950.355 734.522 951.513 734.811 952.092 735.969C952.865 737.417 964.35 741.374 965.315 740.409C965.508 740.216 962.902 736.838 959.427 732.977C954.505 727.379 953.057 725.16 953.057 722.843C953.057 720.334 953.637 719.562 956.146 718.5C957.883 717.825 960.875 715.798 962.709 714.157C964.832 712.227 967.631 710.875 970.237 710.393C972.457 710.007 974.291 709.621 974.291 709.428C974.291 709.331 973.615 707.69 972.843 705.76C971.685 702.961 969.851 701.513 962.323 697.46C954.891 693.406 952.285 692.538 948.425 692.538C944.95 692.538 943.213 693.02 941.958 694.468C940.8 695.723 939.545 696.109 937.615 695.819C936.167 695.433 934.044 695.723 932.982 696.302C931.342 697.17 931.052 696.977 930.473 693.696C930.183 691.766 929.894 688.484 929.894 686.554C929.894 684.237 929.122 682.114 927.674 680.377L925.358 677.771L922.366 679.991C919.76 681.921 918.988 682.114 916.864 681.149C915.513 680.57 913.293 678.253 911.846 676.13C909.24 672.463 908.95 672.269 905.283 672.849C903.159 673.235 893.701 677.288 884.339 682.017C870.055 689.16 866.387 690.607 862.623 690.607C860.017 690.704 856.929 691.283 855.577 692.055C854.226 692.827 852.875 693.406 852.586 693.503C852.199 693.503 851.62 690.318 851.331 686.457C849.883 671.594 850.559 672.849 839.749 664.355C830.194 656.827 830.001 656.731 825.658 657.31C821.508 657.792 821.218 657.696 819.095 654.414C817.358 651.615 817.165 650.65 818.033 649.009C818.612 647.851 818.709 646.693 818.226 646.307C817.84 645.921 815.62 644.184 813.304 642.35C808.961 639.068 801.722 629.127 797.379 620.537L794.87 615.615L777.111 608.28C767.363 604.226 756.264 600.173 752.5 599.208C744.778 597.374 745.357 598.339 744.103 585.889C743.717 582.028 742.365 577.974 740.049 573.535C736.961 567.454 736.768 566.779 738.215 565.234C739.18 564.173 739.76 561.76 739.76 558.575V553.556L732.328 548.73C724.896 544.001 724.703 543.905 716.982 543.905C710.805 543.905 706.752 543.133 697.969 540.527C691.888 538.693 685.132 537.149 683.105 537.149C680.017 537.149 678.666 536.473 675.77 533.481L672.199 529.813L674.323 524.891L676.349 519.969L687.062 517.942C708.103 514.082 734.258 514.854 737.54 519.39C738.215 520.452 740.821 523.25 743.331 525.856L747.963 530.393L749.894 526.435C751.631 522.961 752.596 522.189 758.58 519.872L765.336 517.363L765.626 511.09C765.915 505.685 766.398 504.237 769.293 500.569C773.154 495.551 773.154 495.165 770.644 491.304C769.583 489.663 768.714 487.926 768.714 487.347C768.714 485.996 776.435 481.846 782.998 479.722C785.701 478.854 788.017 478.081 788.017 477.985C788.017 477.888 787.438 475.572 786.666 472.773C785.315 467.851 785.315 467.754 788.017 465.245C790.333 463.025 790.816 461.577 791.781 453.084C793.422 438.124 793.711 438.896 786.183 433.106C777.786 426.639 775.856 421.91 783.095 425.674C785.797 427.025 785.894 427.025 786.473 424.033C787.727 417.76 787.245 416.602 783.288 414.961C780.682 413.899 779.138 412.548 778.269 410.425C777.593 408.687 776.918 407.24 776.821 407.047C776.725 406.854 775.567 407.336 774.312 408.108C773.154 408.977 770.548 409.845 768.714 410.232C765.626 410.811 764.66 410.425 759.931 406.467C756.939 404.055 753.658 402.028 752.693 402.028C750.28 402.028 734.837 395.561 714.955 386.199C699.802 379.154 698.934 378.864 692.081 378.864H684.939L673.454 366.8C663.706 356.376 661.583 353.577 658.494 346.725C653.572 335.722 653.668 335.819 648.36 335.046C645.851 334.757 640.542 333.309 636.682 331.958C630.891 329.835 628.961 328.58 625.679 324.623L621.722 319.894L622.977 314.778C623.652 311.883 623.942 308.119 623.556 306.285C623.073 303.679 623.556 301.942 625.486 298.371L628.092 293.738L622.397 287.947C616.896 282.446 616.51 282.253 612.649 282.639C607.245 283.218 603.674 279.84 603.674 274.049C603.674 271.54 602.805 268.934 600.875 266.038C596.628 259.668 597.4 256.483 605.797 247.99C611.877 241.813 612.746 240.462 613.711 235.54C614.773 230.231 614.966 229.942 619.116 228.397C621.529 227.432 633.014 219.711 644.692 211.025L665.926 195.389L673.068 176.086L671.427 171.55C669.883 167.497 669.4 167.014 667.084 167.304C665.25 167.497 664.478 167.11 664.478 166.145C664.478 165.18 663.223 164.505 661.1 164.119C659.266 163.829 656.178 163.443 654.344 163.057C651.641 162.671 650.58 161.899 649.325 159.196C647.974 156.397 647.202 155.915 644.499 155.915C641.604 155.915 641.314 155.625 641.314 153.116C641.314 151.186 640.349 149.448 638.033 147.421C635.717 145.491 634.462 143.271 633.979 140.762C632.821 134.199 628.864 131.786 625.389 135.647C623.073 138.253 622.494 138.156 620.081 134.199L617.958 130.821L620.95 125.416L624.038 120.108L618.633 117.791C611.974 114.799 611.395 114.799 611.395 117.695C611.395 120.011 609.851 121.169 606.666 121.169C605.7 121.169 603.77 122.038 602.515 123.1C600.392 124.74 599.137 124.933 593.636 124.354L587.266 123.775L583.695 117.888C581.765 114.606 580.124 111.904 580.027 111.711C579.931 111.614 577.422 112.387 574.333 113.545C570.859 114.896 568.928 116.247 568.928 117.212C568.832 120.783 567.481 121.459 562.462 120.301C558.698 119.336 557.346 118.467 555.899 116.054C554.934 114.317 552.617 111.325 550.783 109.298C547.695 106.113 546.73 105.727 542.773 105.727H538.14L537.561 100.129C537.271 97.1372 536.789 92.9871 536.499 90.9603L535.92 87.2927L530.033 87.5822C525.11 87.7753 524.049 88.1613 523.759 89.609C523.566 90.5742 524.145 92.215 525.014 93.1801C526.848 95.1104 526.558 98.1989 524.338 101.191C523.373 102.542 521.057 103.121 515.459 103.7L507.931 104.376L508.51 95.6895C509.379 84.6868 510.633 82.7565 518.354 80.3436C522.987 78.9924 525.11 78.7994 529.84 79.5715C535.148 80.4401 536.306 80.2471 543.641 77.4482L551.556 74.5527V57.1801L548.564 57.8557C546.44 58.2417 544.799 57.8557 542.966 56.601C541.518 55.5393 539.105 54.5742 537.561 54.3811C535.052 54.0916 534.665 53.609 534.376 50.8101C533.99 47.432 533.7 47.046 527.234 42.4133L523.759 39.9039L517.775 44.247L511.888 48.5902L502.043 48.1076C496.639 47.8181 492.199 47.5286 492.102 47.432C492.006 47.432 491.716 45.9843 491.427 44.3436C490.848 41.4481 491.234 40.9655 496.446 37.298C501.078 34.113 502.236 32.7618 502.816 29.8663C503.395 26.4883 503.105 26.0057 498.472 21.2765C493.743 16.4507 493.55 16.0647 493.84 11.5285L494.129 6.79926L490.076 6.5097C486.505 6.22015 485.25 6.79926 479.266 11.239C475.116 14.3274 472.124 17.4159 471.545 19.0566C470.773 21.2765 470.097 21.7591 468.36 21.2765C459.866 19.2497 456.488 19.0566 455.137 20.3113C453.979 21.4695 453.207 21.18 450.215 18.4775C447.706 16.1612 445.1 15.0031 440.949 14.1344C435.641 13.1693 434.966 12.6866 432.939 9.21216C431.781 7.08881 430.622 5.35156 430.429 5.35156C430.236 5.35156 428.982 6.70276 427.63 8.44Z" fill="white"/>
<path d="M638.708 259.762C635.717 262.078 635.523 262.561 635.523 268.159C635.523 273.274 635.813 274.335 637.55 275.397C639.384 276.555 639.577 277.327 639.095 281.381C638.612 285.531 638.805 286.11 640.832 287.172C642.955 288.33 643.631 288.041 648.553 284.18C651.545 281.864 654.633 279.451 655.406 278.872C656.274 278.196 656.757 275.88 656.757 272.309C656.757 267.772 656.274 266.132 654.151 263.333C651.545 259.858 646.816 257.252 643.534 257.252C642.569 257.252 640.349 258.411 638.708 259.762Z" fill="white"/>
<circle id="33" cx="357" cy="434" fill="#5CE50D"/>
<circle id="34" cx="169" cy="210" fill="#E52A0D"/>
<circle id="35" cx="372" cy="225" fill="#E52A0D"/>
<circle id="1159" cx="919" cy="847" fill="#E52A0D"/>
</svg>
