<svg width="1000" height="1000" viewBox="0 0 1000 1000" fill="none" xmlns="http://www.w3.org/2000/svg">
<path d="M113.137 15.2523C109.383 22.7595 109.094 23.0482 103.993 24.9732C101.106 26.0319 97.6409 27.1868 96.2935 27.5718C94.4648 28.053 93.4061 29.4967 91.6737 33.9241C89.5562 39.4101 89.3638 39.6026 86.5726 39.2176C85.0327 38.9289 83.0115 38.4477 82.1453 38.0627C80.7978 37.5814 80.4128 38.4477 79.8354 43.0675C79.2579 48.361 78.8729 49.0348 72.8094 55.1945C67.5158 60.5843 66.5534 61.9318 67.4196 63.3755C67.997 64.2417 71.2694 70.209 74.8305 76.6575L81.2791 88.2071L78.9691 93.9818C76.6592 99.6604 76.6592 99.7566 78.1992 106.301L79.7391 112.846L84.6477 112.269C87.2463 111.884 92.3474 111.402 96.0048 111.017C99.5659 110.729 102.453 110.151 102.453 109.863C102.55 109.574 102.935 99.7566 103.416 88.1108L104.282 66.9366L101.876 65.0117L99.3734 62.9905L104.763 61.3543C110.73 59.4294 115.254 54.9058 122.954 42.6825C127.67 35.2715 127.092 35.6565 140.278 33.2504L143.935 32.5766L140.663 28.5343C138.931 26.4169 135.466 21.797 133.06 18.3322C129.21 12.9424 127.862 11.7874 123.435 10.1512C120.644 9.09251 118.045 8.13004 117.66 7.93755C117.275 7.74506 115.254 11.1137 113.137 15.2523Z" fill="white"/>
<path d="M340.952 116.988C340.663 117.277 301.78 117.662 254.426 117.854C191.77 118.046 167.227 118.528 164.051 119.298C160.682 120.26 157.506 120.26 149.903 119.298L140.182 118.143L130.75 123.244C118.526 129.885 102.646 134.793 93.6948 134.793C90.0375 134.793 87.0538 134.986 87.0538 135.275C87.0538 135.563 88.9788 139.221 91.3849 143.359C93.7911 147.498 96.871 154.139 98.1222 157.989C101.395 167.517 110.73 181.569 120.644 191.771L128.729 200.145L131.423 211.983C133.926 223.148 135.177 226.035 153.753 264.245L173.387 304.668L168.19 316.699C163.088 328.537 162.896 328.826 153.945 337.392L144.802 346.054V359.625L149.71 364.341C152.694 367.325 156.062 372.137 158.469 376.853C162.222 384.264 162.319 384.649 161.741 391.483C161.164 397.931 161.26 398.701 163.57 402.358C165.013 404.572 168.671 411.694 171.751 418.047C174.927 424.495 179.643 433.831 182.338 438.74C185.225 444.129 187.15 448.942 187.15 450.77C187.15 453.465 188.209 454.716 195.427 460.587C199.951 464.245 204.089 467.806 204.667 468.48C205.244 469.25 204.763 470.982 203.031 474.062C201.587 476.468 200.528 478.586 200.721 478.778C200.913 478.874 202.934 480.414 205.244 482.147L209.287 485.323V494.562C209.191 499.76 208.421 508.037 207.458 513.042C206.014 520.838 205.918 524.591 206.592 539.028L207.458 555.871L201.683 567.998C198.507 574.736 192.444 585.419 188.113 591.771L180.317 603.417L174.831 604.476C171.847 605.053 168.671 605.727 167.805 606.016C166.938 606.208 162.8 610.058 158.469 614.485L150.576 622.57V636.718L141.048 645.284C133.156 652.31 131.327 654.524 130.461 657.796C129.595 661.165 128.729 662.127 124.59 664.437L119.778 667.036L120.259 675.506C120.548 680.125 121.029 687.151 121.221 691.194L121.703 698.509L115.928 707.363L110.153 716.122L108.998 747.402L101.876 772.907C97.9297 786.959 92.0586 807.075 88.7863 817.662L83.0115 837.007L78.0067 838.932C75.023 840.183 73.1943 841.435 73.2906 842.301C73.3868 843.071 75.5043 857.123 77.8142 873.581L82.2415 903.513L80.7016 922.474C79.9316 932.965 79.3541 942.493 79.5466 943.744C79.8353 945.958 80.1241 945.862 88.69 940.376C93.5986 937.2 98.1222 934.601 98.6034 934.601C99.1809 934.601 102.549 936.526 106.111 938.932L112.655 943.263L117.083 941.723C121.318 940.376 121.799 940.376 125.264 942.108L128.921 944.033L137.583 939.702C142.299 937.296 149.133 933.254 152.598 930.751C158.18 926.709 160.105 925.939 169.248 923.918C178.392 921.993 180.413 921.897 185.899 922.763C191.577 923.821 192.829 924.399 197.16 928.634C199.855 931.232 206.399 935.852 211.693 938.932C218.623 942.878 222.954 946.151 227.285 950.77L233.156 957.123L238.834 955.872C241.914 955.102 246.63 953.562 249.229 952.407L254.138 950.289L394.561 949.134C514.58 948.076 535.081 948.076 535.947 949.231C536.525 950 542.299 956.641 548.748 964.052L560.49 977.623L567.227 978.874C573.964 980.126 574.061 980.126 581.087 977.142L588.209 974.158L600.625 977.431C607.458 979.259 614.965 980.799 617.372 980.799C621.221 980.799 621.991 981.184 623.435 983.687L625.167 986.574L635.37 978.874L642.203 981.858L649.133 984.938L656.544 983.398L664.051 981.858L681.568 987.633L698.988 993.408L708.132 989.558L717.275 985.804L727.477 989.077C733.06 990.905 738.353 992.349 739.316 992.349C742.107 992.349 875.601 971.175 877.526 970.405C878.969 969.827 876.852 968.287 868.19 963.571C857.218 957.411 857.025 957.315 852.02 949.615C848.267 943.744 840.086 934.89 818.334 912.946L789.653 884.072L786.765 875.409L783.781 866.747L785.129 633.35H787.631C788.979 633.35 819.778 634.216 856.063 635.275C892.347 636.333 923.243 637.2 924.686 637.2C927.381 637.2 927.381 637.2 922.088 631.136L916.698 625.169V610.058L921.799 604.187C929.884 594.659 929.499 595.91 927.862 588.499C926.13 580.414 925.264 568.576 925.264 552.022C925.168 539.51 925.168 539.51 929.21 529.404L933.252 519.298L931.039 514.967C929.114 511.213 928.729 508.711 928.247 497.161L927.766 483.687L924.59 489.654C922.858 493.023 921.221 495.717 920.836 495.717C920.451 495.717 913.04 493.696 904.475 491.29L888.786 486.767L883.493 490.809C876.948 495.814 875.119 496.391 864.725 497.065C858.469 497.546 855.485 497.257 852.116 496.006C847.785 494.466 847.497 494.562 844.802 496.487L841.914 498.509L833.06 496.199C828.151 494.851 824.013 493.792 823.916 493.792C823.724 493.792 823.339 495.044 823.05 496.487C822.569 498.894 821.51 499.664 814.677 502.262C810.346 503.995 806.496 505.342 805.918 505.342C805.437 505.342 805.052 502.551 805.052 499.086C805.052 495.621 804.186 489.558 803.031 485.515C801.972 481.569 801.202 478.104 801.395 477.912C801.491 477.816 803.512 476.757 805.629 475.698L809.576 473.677L809.094 464.437C808.806 459.048 809.094 453.08 809.768 449.712C810.923 444.322 810.923 444.033 805.629 427.767L800.24 411.213L782.242 394.755L777.718 382.82L773.098 370.886L776.563 364.052C779.835 357.604 779.932 356.93 778.969 353.08C778.007 349.423 778.295 346.632 782.049 328.634L786.38 308.422L783.204 292.637C780.22 277.527 779.835 276.661 776.467 273.196L773.002 269.635L773.579 261.357C774.061 254.235 774.638 252.214 778.199 245.381L782.338 237.488L780.413 228.249L778.584 219.009L687.92 219.586L687.246 212.079C686.669 205.342 686.861 203.995 688.883 199.278C693.406 188.98 693.984 189.75 682.627 190.328C673.579 190.809 672.521 191.001 670.981 193.119L669.152 195.429H641.818C626.804 195.429 614.484 195.621 614.484 195.91C614.484 196.102 615.35 197.738 616.313 199.375L618.238 202.455L615.35 206.401L612.559 210.443L613.425 220.453L614.195 230.559L611.5 234.601C609.576 237.392 607.747 238.739 605.629 239.221C600.913 240.279 600.913 240.376 604.089 245.573L607.169 250.385L603.705 256.834C601.01 261.839 600.336 264.052 600.721 266.555L601.298 269.827L580.702 269.25C558.661 268.576 559.624 268.768 556.255 263.379C554.715 260.876 541.626 262.32 538.834 265.4C537.006 267.421 535.947 267.613 528.247 267.613C519.874 267.613 519.585 267.71 513.907 271.463L508.132 275.313H470.403L461.452 260.106C456.351 251.636 448.459 239.991 443.166 233.446C438.064 227.094 431.808 218.913 429.402 215.159L424.879 208.422V189.558L415.35 171.271L405.822 153.08L407.843 145.284L409.768 137.488L405.244 133.638C400.817 129.885 400.817 129.789 400.817 123.821V117.758L394.369 117.18C386.573 116.41 341.722 116.314 340.952 116.988Z" fill="white"/>
<circle id="21" cx="163" cy="334" fill="#5CE50D"/>
<circle id="1588" cx="661" cy="555" fill="#E52A0D"/>
<circle id="1146" cx="174" cy="614" fill="#E52A0D"/>
<circle id="24" cx="234" cy="816" fill="#E52A0D"/>
</svg>
