<svg width="1000" height="1000" viewBox="0 0 1000 1000" fill="none" xmlns="http://www.w3.org/2000/svg">
<path fill-rule="evenodd" clip-rule="evenodd" d="M441.957 447.971L440.966 441.594L430.455 430.399L428.722 421.047L431.075 419.99L436.535 415.477L441.622 412.808L443.921 405.801L450.047 404.994L455.247 402.705L461.865 395.346L476.203 391.138L479.985 387.671L494.036 386.93L504.342 380.565L511.331 372.834L516.401 359.414V353.037L517.328 345.929L516.586 337.819L525.058 332.379L532.12 335.232L538.247 336.475L541.036 339.014L544.623 343.037L550.443 344.77L554.16 337.651L557.691 336.41L560.537 333.935L561.528 328.792L564.679 325.575L563.132 312.238L564.865 310.189L561.093 306.102L565.913 298.187L574.522 300.42L580.704 304.378L585.774 307.78L587.508 310.811L590.603 315.389L588.397 323.125L595.599 329.023L615.522 329.524L631.555 336.93L637.453 330.389L641.602 330.65L645.513 319.461L652.162 322.829L657.605 325.329L663.906 322.819L666.589 325.164L670.413 325.686L673.019 330.792L676.714 330.292L677.485 310.64L679.289 306.066L688.034 302.243L692.204 292.185L707.543 294.183L707.727 280.252L712.561 267.704L709.617 254.865L713.615 247L731.268 248.62L732.049 254.499L734.471 259.887L741.924 257.628H746.825L749.421 249.578L751.301 252.154L757.526 251.904L766.392 257.356L774.073 257.096L777.527 262.288L786.37 266.275L793.658 267.144L798.764 273.814L810.974 274.509L814.2 270.195L819.99 271.315L851.708 294.355L880.209 294.41L886.52 293.639L894.473 291.727L896.906 280.994L904.434 281.168L907.791 279.952L919.101 285.589L923.946 284.787L927.922 288.557L928.356 292.349H934.342L940.382 294.424L947.768 294.164L954.417 295.293L957.534 300.485L961.445 316.769L963.27 324.905L963.443 328.589L956.958 337.303L952.874 344.505L951.483 349.86L951.744 354.456L951.233 359.648L952.797 363.721L958.566 370.196L960.391 376.431L965.497 380.766L966.269 386.111L968.702 393.487L969.832 399.191L974.501 401.312L981.953 408.155L985.766 413.133V418.565L986.113 426.18L993.642 426.788L995.184 431.264L990.232 436.902L989.711 440.009L987.886 447.395L988.32 452.751L984.094 456.283L980.475 458.097L983.158 463.703L984.723 468.027L984.451 471.644L985.233 473.274L986.102 478.283V482.193L988.449 487.136L983.18 488.516L969.948 492.763L964.147 493.023L960.627 491.122L954.391 496.075L945.57 495.554L942.734 487.667L937.465 485.592L933.228 484.724L929.957 482.93L925.286 483.973L920.962 484.407L918.54 487.96L915.673 490.024L910.817 495.641L905.927 497.01L904.721 500.878L910.96 505.094L917.379 503.529L925.648 507.496L930.416 506.54L935.421 509.747L935.943 517.796L941.145 523.358V525.703L938.974 528.995L935.995 530.549L936.256 536.61L932.346 541.215L928.109 545.692L925.968 549.279H918.429L915.983 551.246L910.606 547.684L909.921 555.159L907.401 560.787L911.801 563.393L913.887 568.989L914.147 572.607L914.721 578.028L909.862 580.7L909.601 585.187L907.646 587.578L908.861 592.152L911.416 595.989L912.198 602.116L919.216 598.043L920.867 602.811L918.781 606.364L914.989 607.917L914.555 611.024L916.685 615.101H921.182L921.106 618.621L914.099 621.576V624.238L917.977 626.651L914.881 628.867L893.795 629.118L886.569 635.072L879.312 645.175L871.436 653.322L865.723 658.386L859.342 663.316L854.269 663.664L854.018 681.957L855.812 685.206L858.647 686.771L860.461 689.888L860.962 696.627L854.901 691.587L851.164 690.11L845.961 687.504L838.498 685.07L830.689 686.635L825.67 688.286L821.172 690.707H815.904L812.307 690.013L806.767 693.488L798.988 695.313L795.728 697.736V702.722L789.318 704.113L786.407 705.657L782.246 702.007L778.596 700.356L769.331 702.094L761.25 701.485L755.807 703.571L748.702 702.094L741.271 701.322L731.919 702.441L727.835 702.876L722.653 709.407L718.089 706.202L713.679 708.711L705.05 711.835L702.04 719.852L698.999 729.042L688.048 733.53L682.507 739.264L677.009 743.219L671.934 745.197L671.587 748.728L668.296 753.389L665.046 752.162L660.299 746.892L656.746 747.153L649.173 745.937L647.174 742.829L633.585 745.937L613.152 744.297L604.112 736.421L596.67 735.986L591.293 736.508L580.477 729.991L572.775 731.989H565.062L557.871 728.601H547.67L540.392 724.256L533.635 724.777L530.093 722.865L523.337 722.604H515.983L511.245 719.922L502.153 723.05L496.46 723.3L490.04 721.736L480.427 718.097L474.105 714.979L458.758 714.197L437.422 713.241L434.206 708.299L428.264 705.191L424.288 708.396L418.007 703.169L402.234 704.038L396.899 700.486L387.73 698.4L381.495 694.327L379.006 689.982L375.879 683.389L370.957 681.325L366.786 679.152L365.657 675.718V671.948L368.068 668.938L362.052 658.167L356.262 660.937L353.089 656.839L346.864 653.895L348.58 648.811L345.714 644.65L345.018 632.406L354.881 631.277L357.816 622.855L355.296 620.346L343.847 621.388L335.526 625.549L327.553 627.874L319.396 629.177L314.136 633.849L306.056 636.803L298.246 637.846L296.856 642.538L293.64 641.495L286.915 637.617L278.856 636.584L275.248 635.281L265.884 638.149L260.083 632.889L252.392 641.874L241.603 637.039L219.877 641.548L214.35 647.032L208.441 652.312L208.18 657.852L205.15 663.795L203.325 668.564L197.697 677.322L193.287 676.8H183.913L178.046 677.061L170.498 674.802L164.849 671.24L159.928 671.761L164.707 663.906L158.211 664.515L153.637 657.768L147.836 658.551L139.081 661.494L128.227 659.516L124.818 652.256L128.891 644.478L123.796 639.73L118.798 635.243L116.396 633.362L112.421 631.374L104.6 642.486L100.83 645.062H96.6035L95.1257 650.081L91.911 653.97L80.3408 658.901L73.6711 656.904L69.1282 652.959L64.9782 648.287L60.2096 646.115L55.6256 645.43L50.0956 642.399L48.7927 637.968L51.0309 631.907V629.582L48.6187 625.191L44.1873 624.941L37.7229 620.378L32.7802 619.857L23.0034 615.457L15.2801 616.933L18.3218 601.064L11.6834 594.492L9.97685 585.625L6.80328 582.518L11.7352 578.792L5 574.729L14.8081 564.758L16.7198 555.578L22.7816 556.697L26.6706 553.319L23.2527 544.701L22.5577 540.092L14.9537 536.714L13.6606 532.467L19.1134 530.12L24.6327 530.969L30.7707 528.633L34.7467 523.027L41.2326 516.823H44.7845L46.0013 521.668L48.26 523.232L51.9858 525.221L58.677 524.178L62.9345 528.337L66.3133 531.466L67.2585 536.376L72.6458 536.877L75.5897 541.569L80.9555 543.916L80.7053 548.837L77.0773 550.738L78.6303 554.259L78.8043 559.876L87.202 558.312L96.3044 556.747V559.757L93.2628 566.622V571.804L89.364 575.422L89.103 579.409L97.7714 579.148L117.086 563.691L119.074 559.389L124.787 554.38L130.686 547.526L129.914 541.996L124.461 532.188L126.71 526.658L123.516 522.345L132.107 520.346V526.593L142.079 530.221L148.999 523.986L153.942 525.376L159.906 524.855L161.894 527.712L166.978 529.189L167.903 533.373L172.314 532.852L184.61 529.376L185.827 533.429L181.145 539.459L188.642 540.23L195.746 549.594L193.073 557.188L212.812 557.883L222.001 551.203L229.692 551.724L227.357 557.473L235.852 557.299L244.172 547.22H252.601L250.026 543.97L255.739 536.984L273.336 535.594L274.118 527.708L282.974 521.243L287.375 523.318L300.301 522.797L308.361 525.142L311.065 520.081L328.307 517.91L354.789 519.79L353.573 515.39L352.541 502.203L363.033 496.847L361.74 504.171L371.777 502.443L381.207 504.267L387.084 503.302V508.288L394.495 516.436L402.177 513.193L408.805 506.728L425.881 507.414L429.597 511.814L435.126 518.396L432.55 523.481L432.29 528.066L433.756 531.434L439.818 531.684L452.476 546.253L457.805 544.898L460.206 546.723L466.897 541.857L462.855 536.404L466.55 530.797L465.072 526.223L468.169 523.214L468.43 519.151L472.069 515.425L472.329 507.385L461.489 499.326L457.687 500.889L447.517 501.662L446.224 496.315L451.819 489.341V485.267L460.718 475.142L460.032 470.308L455.458 465.473L450.787 455.631L446.745 452.109L442.943 451.164L441.957 447.971Z" fill="white"/>
<circle id="41" cx="886" cy="404" fill="#5CE50D"/>
<circle id="44" cx="470" cy="485" fill="#E52A0D"/>
<circle id="892" cx="233" cy="599" fill="#E52A0D"/>
<circle id="42" cx="766" cy="629" fill="#E52A0D"/>
</svg>
