<svg width="1000" height="1000" viewBox="0 0 1000 1000" fill="none" xmlns="http://www.w3.org/2000/svg">
<path d="M717.239 44.0526C717.239 45.298 715.897 46.3518 713.311 47.4056C710.053 48.6511 709.479 49.3217 710.053 50.8546C710.341 51.9083 710.149 56.4111 709.479 60.7222C708.712 66.5661 707.85 69.3444 706.221 71.0688C702.772 74.8051 698.078 83.0441 698.078 85.3433C698.078 86.5887 698.653 87.3552 699.803 87.3552C701.719 87.451 705.263 89.846 704.114 90.325C703.635 90.5167 701.91 92.5285 700.186 94.7319C697.024 98.8514 696.929 98.8514 698.366 102.875C699.611 106.707 699.515 107.186 697.791 109.581C695.013 113.413 694.054 121.078 695.779 125.293C696.737 127.592 697.216 131.424 697.024 136.597C696.929 140.813 697.408 145.603 697.982 147.136C698.94 149.435 698.653 150.968 696.641 157.003C695.013 161.793 694.246 166.296 694.246 170.511C694.246 179.134 691.276 187.277 686.007 192.738C682.941 195.899 681.696 198.102 681.217 201.168C680.259 207.012 675.948 213.335 671.158 215.826C665.793 218.508 660.141 217.742 653.051 213.527C650.177 211.706 646.441 209.79 644.812 209.12C642.896 208.353 641.363 206.725 640.309 204.33C637.914 198.965 629.196 193.696 622.873 193.696C617.604 193.696 615.018 192.163 607.737 184.786C599.498 176.451 590.396 170.607 584.361 169.937C581.104 169.553 579.954 168.979 579.283 167.35C578.804 166.009 577.367 164.955 575.547 164.668C573.44 164.189 572.098 163.135 571.044 160.835C569.895 158.345 567.691 156.716 560.506 153.075C555.524 150.585 551.022 147.711 550.543 146.753C549.106 144.07 550.926 139.663 558.207 128.55C565.009 118.012 566.638 113.509 563.093 114.659C560.123 115.521 558.782 112.168 560.41 108.144C561.847 104.695 564.817 102.396 569.033 101.342C571.332 100.767 571.619 100.959 571.619 103.163C571.619 106.707 574.206 106.132 575.068 102.396C575.451 100.767 575.739 98.564 575.547 97.606C575.451 96.7438 576.601 94.3487 578.134 92.3369C579.667 90.4208 581.87 86.9719 583.02 84.7685C585.032 80.7448 585.032 80.7448 583.211 79.691C582.158 79.212 580.625 78.733 579.762 78.733C578.9 78.733 576.793 77.6791 575.068 76.3379L572.003 74.0386L568.841 75.9547C565.775 77.775 565.775 77.9666 567.308 79.691C569.128 81.7028 568.649 84.4811 566.542 84.4811C565.009 84.4811 562.614 81.9902 561.752 79.4994C561.273 78.0624 560.698 77.9666 558.686 78.733C554.95 80.17 554.183 79.9784 555.333 77.8707C555.812 76.8169 556.291 75.6673 556.291 75.3799C556.291 74.0386 548.052 76.1463 546.519 77.8707C544.507 80.2658 542.112 80.17 539.334 77.5833C537.609 75.9547 535.406 75.3799 529.658 74.9009C524.964 74.5176 519.407 73.1765 514.33 71.2604C508.677 69.0569 504.749 68.1947 500.726 68.1947C497.373 68.1947 494.69 67.7157 494.115 66.9493C493.54 66.3745 492.008 64.3626 490.571 62.6382C487.409 58.7103 483.002 58.4229 479.553 62.0634C477.35 64.4584 477.35 64.5543 478.979 67.3325C479.841 68.9611 480.607 71.2604 480.607 72.6016C480.607 75.9547 474.572 79.5952 467.099 80.649C456.848 82.1818 454.07 81.8944 451.675 79.212C449.376 76.5295 447.46 76.2421 443.723 77.9666C442.191 78.6371 441.328 79.7868 441.328 81.2238C441.328 82.8525 440.945 83.2357 439.412 82.8525C438.358 82.5651 435.963 82.6608 434.143 82.9482C430.886 83.6189 430.79 83.8105 430.79 87.8342C430.79 91.6663 430.598 92.0494 427.916 92.6243C426.287 93.0075 425.042 93.6781 425.042 94.0613C425.042 94.5403 424.084 95.7858 422.934 96.9354C420.922 98.7556 420.922 98.9472 422.551 102.3C423.413 104.216 424.084 105.845 423.892 106.037C420.348 108.527 418.527 109.39 416.899 109.39C415.366 109.39 414.312 110.635 412.588 114.755C411.438 117.724 408.947 122.036 407.223 124.335C403.199 129.604 403.103 132.861 406.84 137.172C410.001 140.909 410.48 142.92 408.181 142.92C406.648 142.92 406.744 144.741 408.468 149.339C409.139 150.968 409.043 150.968 406.361 149.243C404.732 148.285 402.337 146.369 400.9 145.028L398.217 142.537V145.22C398.217 147.423 397.93 147.711 396.876 146.848C394.864 145.22 385.667 142.633 382.41 142.825C379.248 143.016 375.225 146.273 375.225 148.669C375.225 150.297 373.5 152.501 372.159 152.501C371.776 152.501 372.255 150.201 373.309 147.423L375.321 142.441L364.495 132.191C357.597 125.58 352.52 121.557 350.412 120.982C348.592 120.407 346.197 119.066 344.951 117.916C341.886 115.042 338.724 116.192 339.395 119.832C339.874 121.94 339.491 122.802 337.479 124.047C334.413 126.155 334.03 126.059 334.03 123.76C334.03 120.599 329.431 121.173 328.186 124.431C327.419 126.251 326.94 126.634 326.653 125.676C326.366 124.91 326.078 123.664 325.791 122.994C325.503 122.036 324.929 122.036 323.492 122.802C321.959 123.664 321.671 124.239 322.438 125.101C323.204 126.059 323.108 126.73 322.055 127.592C321.192 128.263 320.809 129.604 321.192 130.849C321.384 131.903 321.097 133.628 320.33 134.586C319.181 136.31 318.893 136.214 316.019 132.957C314.39 131.041 312.858 129.508 312.57 129.508C312.379 129.508 311.9 130.945 311.612 132.67C311.133 135.448 310.462 136.118 307.205 137.076C304.619 137.843 302.894 139.088 302.032 140.909C300.786 143.304 300.786 143.783 302.415 145.411C303.373 146.369 304.427 148.19 304.81 149.435C305.385 151.351 305.193 151.447 302.894 150.585C297.625 148.573 292.835 150.585 292.835 154.704C292.835 155.566 292.356 156.333 291.781 156.333C291.206 156.333 288.62 157.291 285.937 158.44L281.147 160.548L281.722 168.212C282.105 173.29 282.009 177.122 281.243 179.325C279.71 183.732 279.902 183.636 276.932 181.337C273.866 178.942 271.95 178.75 271.088 180.858C270.609 182.104 270.226 182.008 268.405 180.283C266.681 178.655 265.531 178.367 263.232 178.846C260.166 179.517 259.496 180.667 261.316 181.816C261.891 182.199 262.082 183.732 261.699 185.648C261.22 188.522 261.603 189.48 264.477 192.929C268.022 197.049 268.884 199.444 266.681 199.444C265.914 199.444 264.382 200.498 263.136 201.839C261.508 203.563 261.124 204.809 261.508 207.108C261.891 208.641 261.987 209.982 261.795 209.982C261.029 209.982 251.832 194.845 249.437 189.48C247.904 186.127 246.467 184.115 245.988 184.69C245.509 185.169 243.593 187.468 241.677 189.768C239.76 192.067 236.599 195.133 234.587 196.57C228.935 200.689 226.54 209.407 228.36 219.85C228.743 222.34 229.318 223.298 230.18 223.011C230.947 222.724 231.905 223.298 232.48 224.256C233.246 225.789 232.096 227.035 224.145 233.07C215.235 239.968 214.948 240.351 211.978 247.632C208.05 257.117 204.122 261.045 191.668 267.751C180.459 273.882 174.998 275.223 163.023 274.936C153.443 274.744 146.545 276.852 147.695 279.726C148.461 281.834 146.449 282.792 141.18 282.792C135.624 282.792 131.408 284.42 125.66 288.923C119.72 293.426 113.206 294.384 108.416 291.414C105.35 289.498 104.967 289.498 102.955 290.839C100.081 292.851 99.3145 292.755 99.3145 290.168C99.2187 288.252 98.9313 288.348 95.9614 291.605C93.6622 294 91.2671 295.533 88.5846 296.108C85.998 296.683 83.2197 298.407 80.2499 301.281C70.5738 310.574 62.3348 316.322 55.1497 318.717C46.3359 321.783 43.7492 324.178 40.8752 332.609C38.9591 338.165 38.1927 339.315 36.4683 339.315C34.8396 339.315 34.2648 338.549 33.7858 335.387C33.4026 333.279 33.4026 329.352 33.7858 326.765C34.3606 322.262 34.3606 322.071 32.0614 322.071C29.9537 322.071 29.1873 323.124 26.1216 329.735C21.4273 340.081 21.2357 341.71 23.535 347.746C25.2594 352.057 25.451 354.068 24.972 360.679C24.3972 368.056 24.1098 368.918 19.7029 375.432C16.4456 380.222 15.0086 383.192 15.0086 385.492C15.0086 394.21 26.3132 419.31 35.2228 430.231C37.7137 433.297 37.8095 433.584 36.5641 437.033C35.7976 439.045 34.648 441.823 33.9774 443.165L32.732 445.655L30.4327 440.769C28.6125 437.033 27.6545 436.075 26.3132 436.363C24.972 436.746 24.5888 436.267 24.5888 434.542C24.5888 431.477 22.0979 426.495 19.4155 424.387C16.6372 422.088 15.9666 422.28 15.9666 425.25C15.9666 430.71 17.8826 435.021 21.8105 438.374C25.2594 441.248 25.6426 442.015 25.3552 445.272C24.8762 451.404 22.2895 450.733 18.7448 443.452C15.4876 436.842 12.1345 433.584 12.1345 436.937C12.1345 437.991 11.5597 438.949 10.9849 439.237C10.0268 439.62 10.0268 439.907 10.8891 440.961C11.5597 441.632 12.1345 442.973 12.1345 443.931C12.1345 444.985 14.1463 448.242 16.733 451.212C19.2239 454.278 23.6308 460.313 26.5048 464.816C31.5823 472.576 31.7739 473.151 32.8278 482.252C33.8816 491.736 33.8816 491.736 38.2885 496.239C42.887 501.029 45.8569 507.927 43.1744 507.927C41.1626 507.927 41.45 508.502 47.1981 515.878L52.563 522.776L51.9882 533.602C51.5092 544.14 51.5092 544.619 55.2455 556.69C57.9279 565.216 60.8978 572.21 64.9215 579.395C71.4361 591.179 72.3941 595.682 70.7654 609.956C70.0948 616.566 69.8074 617.237 68.9452 615.225C68.1788 613.501 67.9872 616.375 68.083 626.721C68.1788 641.858 67.0292 647.798 63.8677 647.798C63.0055 647.798 60.323 647.127 58.1195 646.361C55.9161 645.595 53.8084 644.924 53.521 644.924C53.042 644.924 54.0959 660.827 54.8623 665.042C55.3413 667.342 56.0119 667.821 59.7482 668.395C64.9215 669.162 71.4361 673.569 76.6094 679.796C78.6212 682.191 80.7289 684.203 81.2079 684.203C81.7827 684.203 85.3274 685.544 89.0637 687.173C95.2908 689.951 96.5362 690.143 102.763 689.664C106.595 689.376 111.481 689.568 113.781 690.047C116.271 690.622 118.188 690.622 118.762 690.047C119.241 689.568 120.774 689.472 122.594 690.047C124.51 690.526 125.947 690.526 126.522 689.951C127.097 689.376 128.726 688.993 130.163 688.993C131.696 688.993 133.133 688.322 133.42 687.556C133.803 686.694 135.24 686.119 136.773 686.119C139.264 686.119 139.456 685.927 138.593 684.299C137.061 681.425 137.348 680.658 140.605 679.317C142.33 678.646 144.916 677.018 146.545 675.676C148.653 673.856 150.664 673.186 153.826 673.09C159.957 672.898 165.705 670.024 165.035 667.533C164.747 666.479 165.322 664.851 166.376 663.701C167.43 662.552 169.058 660.635 170.016 659.294C171.837 657.091 172.028 656.995 176.818 658.145C184.004 659.773 187.836 659.582 190.614 657.378C192.338 656.037 194.446 655.462 198.182 655.462C201.056 655.462 203.835 654.983 204.505 654.313C205.368 653.45 207.188 653.546 212.361 654.408C216.097 655.079 220.696 655.366 222.516 655.079C225.007 654.6 225.965 654.792 226.444 655.941C226.827 657.091 227.594 657.378 229.031 656.899C230.084 656.516 235.354 656.037 240.623 655.845C248.478 655.462 250.395 655.654 251.257 656.899C252.119 658.049 252.885 658.145 254.897 657.378C256.334 656.899 258.442 656.42 259.687 656.42C263.615 656.42 269.459 650.289 272.142 643.199C275.974 633.236 277.602 631.128 282.871 629.212C285.458 628.35 289.099 626.817 290.919 625.763C298.391 621.644 309.6 616.183 310.462 616.183C311.037 616.183 312.57 614.65 313.911 612.83C317.552 607.753 321.384 606.89 331.826 609.19L340.353 611.01L356.639 606.603C368.231 603.442 375.512 600.759 382.506 597.31L392.086 592.424L402.145 592.329C408.468 592.329 413.833 591.754 416.899 590.796C420.539 589.742 423.796 589.454 430.407 589.933C437.688 590.412 439.604 590.317 441.424 588.975C442.67 588.113 445.544 587.443 447.843 587.443C451.483 587.443 452.825 588.113 458.86 592.999C470.356 602.292 470.261 602.292 476.967 600.376L482.619 598.843L489.325 603.058L495.936 607.37L505.516 604.304L508.486 607.178C510.881 609.477 511.36 610.531 511.072 613.501C510.881 615.513 510.881 617.141 511.168 617.141C511.36 617.141 512.988 616.279 514.713 615.129C517.204 613.597 518.066 613.405 518.353 614.459C518.545 615.129 519.215 617.141 519.79 618.962C520.748 621.931 520.652 622.123 518.832 621.644C517.012 621.165 516.82 621.357 517.395 624.039C517.683 625.668 517.97 627.584 517.97 628.254C517.97 628.925 521.898 632.661 526.688 636.493C533.682 642.146 535.31 643.87 534.927 645.595C534.64 647.127 535.981 649.043 540.196 653.259C544.986 658.049 545.753 659.198 545.274 661.402C544.89 663.031 545.178 664.851 546.136 666.192C546.998 667.342 547.669 669.833 547.669 671.557C547.669 674.335 547.381 674.814 545.753 674.335C543.358 673.76 543.932 674.718 549.776 681.425C553.992 686.119 554.471 686.406 556.962 685.544C559.357 684.682 559.644 684.203 559.644 679.988C559.644 674.91 562.135 671.749 564.626 673.76C565.584 674.623 566.063 674.335 566.733 672.611C570.757 661.977 574.398 658.049 584.553 653.546C590.78 650.768 592.313 649.618 592.6 647.798C592.696 646.457 594.324 643.774 596.145 641.858C597.965 639.846 599.402 637.356 599.402 636.398C599.402 635.344 599.881 634.194 600.456 633.907C601.031 633.523 602.659 631.512 604.192 629.404C606.395 626.434 606.779 624.997 606.395 622.315C606.012 620.303 606.204 619.057 606.874 619.057C608.407 619.057 610.132 622.698 609.461 624.71C609.174 625.668 609.557 627.967 610.419 629.883C612.239 634.194 612.239 634.098 609.94 634.673C607.833 635.248 607.641 636.493 608.982 643.008L609.749 647.319L599.498 657.57L598.252 671.078C597.198 681.808 596.719 684.586 595.666 684.394C594.899 684.203 592.696 684.394 590.78 684.682C588.001 685.161 586.948 685.927 585.702 688.61C583.211 693.879 583.499 695.029 587.235 694.166C588.864 693.687 593.462 693.496 597.294 693.591L604.192 693.879V691.292C604.192 689.855 605.246 687.268 606.587 685.544C608.312 683.341 609.174 680.658 609.653 676.634C609.94 673.377 610.515 670.791 610.898 670.791C611.281 670.791 611.952 669.258 612.239 667.437C612.623 665.617 613.293 664.084 613.772 664.084C615.688 664.084 620.862 675.293 622.49 683.053L624.119 691.196L620.957 695.603C616.646 701.735 614.443 706.237 615.784 706.237C616.359 706.237 618.083 707.579 619.52 709.111C622.011 711.794 622.394 711.89 623.736 710.453C624.598 709.686 625.268 708.153 625.268 707.1C625.268 704.321 627.759 703.842 633.316 705.567C639.447 707.579 644.621 712.752 650.177 722.524C653.53 728.463 654.297 730.859 654.776 736.128C655.063 740.151 654.776 743.696 654.009 745.42C652.955 748.103 653.147 748.869 656.883 755.767C660.62 762.761 670.487 776.844 672.595 778.281C673.17 778.664 676.427 779.718 679.876 780.58C687.253 782.592 694.246 786.903 694.246 789.585C694.246 792.555 698.845 792.172 699.994 789.106C700.761 787.094 701.335 786.807 704.018 787.382C705.742 787.669 708.425 788.819 709.958 789.873C711.874 791.214 713.981 791.789 716.76 791.597C720.208 791.501 721.167 791.885 723.178 794.184C724.903 796.291 726.723 797.154 730.172 797.633C733.429 798.207 735.345 799.07 736.591 800.698C737.644 801.944 739.081 802.998 739.944 802.998C740.71 802.998 742.626 803.764 744.159 804.626C747.033 806.351 747.608 806.159 749.045 802.902C749.811 801.273 767.918 788.436 770.409 787.861C773.858 786.903 775.199 782.879 772.037 782.879C771.079 782.879 769.93 782.592 769.642 782.208C768.589 781.25 775.87 777.227 778.648 777.131C780.851 777.131 781.33 777.706 782.193 780.963L783.151 784.795L778.839 787.861C774.049 791.118 774.049 791.118 782.097 793.896C787.557 795.812 788.803 795.525 787.27 792.651C785.737 789.777 786.983 786.711 789.665 786.711C792.443 786.711 793.497 788.723 792.156 791.214C790.719 793.705 793.018 797.345 797.617 799.932C799.82 801.177 801.544 802.614 801.544 803.189C801.544 803.764 802.215 805.105 803.077 805.967C804.323 807.309 805.089 807.5 806.43 806.734C808.442 805.68 810.167 806.255 810.167 808.075C810.167 808.746 811.029 810.279 812.083 811.62C813.999 813.919 814.095 814.015 815.436 812.195C816.202 811.141 816.873 808.937 816.873 807.309C816.873 803.093 818.885 800.794 825.687 796.962C829.04 795.046 836.8 789.01 843.027 783.55C854.236 773.682 854.523 773.586 860.175 772.916C868.414 772.053 878.186 772.149 881.539 773.203C886.521 774.544 895.335 770.329 899.071 764.772C902.52 759.791 903.095 755.575 901.37 747.911C900.412 743.6 900.508 742.93 902.137 741.684C903.574 740.535 904.34 737.756 905.49 728.272C907.119 714.764 910.663 703.938 915.932 696.753C919.669 691.58 921.297 687.173 921.297 682.287C921.297 677.018 923.692 671.174 927.716 666.575C931.261 662.552 933.752 656.133 933.752 651.151C933.752 649.906 936.242 644.349 939.308 638.793C943.523 631.128 945.918 627.967 949.75 624.997C955.499 620.399 967.282 604.495 967.282 601.142C967.282 599.897 968.336 597.981 969.677 596.831C971.402 595.298 972.072 593.766 972.072 591.275C972.072 589.359 972.456 587.443 972.935 586.964C974.467 585.335 976.958 569.911 975.904 568.857C974.467 567.42 974.851 560.426 976.383 558.319C977.15 557.265 977.821 555.445 977.821 554.199C977.821 553.05 979.162 547.972 980.695 543.086C982.419 537.721 983.569 531.973 983.569 529.003C983.569 522.872 984.718 518.944 988.455 511.471C990.083 508.502 990.85 506.011 990.275 506.011C989.796 506.011 989.317 504.574 989.317 502.849C989.317 498.155 983.664 478.228 981.557 475.546C980.599 474.204 979.737 472.767 979.737 472.288C979.737 471.809 978.779 470.564 977.629 469.606C975.809 468.169 975.617 467.594 976.671 466.636C978.108 465.103 978.395 429.848 976.958 430.806C976.096 431.285 973.988 425.824 973.988 423.142C973.988 422.567 973.509 420.555 972.935 418.543C972.264 415.957 971.498 414.999 970.061 414.999C968.911 414.999 966.803 414.136 965.27 413.083C962.971 411.358 962.492 410.209 961.917 405.418C961.438 400.916 960.959 399.67 959.714 399.67C957.319 399.67 950.421 392.006 949.08 387.982C947.739 383.767 943.715 380.222 941.033 380.893C938.829 381.468 929.536 374.666 925.321 369.205C922.543 365.756 922.351 364.99 921.68 353.589C921.201 343.53 920.722 341.423 919.094 339.507C916.507 336.728 915.549 336.824 915.549 339.794C915.549 341.135 915.262 342.189 914.974 342.189C912.962 342.189 907.981 337.878 906.161 334.621C904.532 331.747 903.574 330.98 902.137 331.363C900.604 331.747 900.221 332.705 900.221 336.249V340.656L894.952 335.483C889.874 330.405 889.683 330.118 889.683 324.945C889.683 319.196 887.575 312.203 885.084 309.137C884.126 308.083 882.593 305.497 881.539 303.485C880.486 301.473 877.611 298.024 875.121 295.821C869.947 291.414 868.989 288.54 872.917 289.306C874.258 289.498 875.312 289.402 875.312 289.115C875.312 287.678 871.384 280.876 870.618 280.876C870.139 280.876 868.414 279.726 866.786 278.385C864.487 276.469 863.816 276.277 863.816 277.427C863.816 279.918 860.559 279.151 858.93 276.181C857.78 274.265 856.343 273.307 853.853 272.828C851.362 272.349 850.02 271.391 849.254 269.858C848.488 268.23 847.817 267.751 847.051 268.421C846.284 269.092 845.326 268.038 843.889 265.068C841.973 261.14 841.494 260.757 838.428 260.757C835.746 260.757 834.309 260.087 832.105 257.691L829.327 254.626V259.991L824.824 256.638C822.238 254.817 819.268 253.093 818.118 252.71C814.957 251.752 812.658 247.441 812.945 242.842C813.137 239.393 812.658 238.244 809.688 235.082C805.951 230.867 805.664 228.951 807.293 219.083C808.155 214.006 807.963 212.76 805.856 207.491C804.514 204.234 803.461 200.402 803.461 199.061C803.461 197.144 802.886 196.665 800.874 196.378C798.958 196.186 798.096 195.516 797.904 194.079C797.712 192.929 796.563 191.013 795.222 189.768C793.689 188.331 792.922 186.606 792.922 184.211C792.922 179.9 791.198 170.511 789.473 164.955C788.707 162.56 788.132 159.303 788.132 157.578C788.132 155.95 787.653 154.225 787.078 153.938C786.408 153.459 786.599 152.501 787.557 150.968C789.282 148.477 789.473 147.327 788.228 148.19C787.749 148.477 785.162 146.561 782.48 143.974C779.893 141.388 776.54 139.088 775.199 138.705C773.858 138.322 772.421 137.364 772.133 136.406C769.451 128.838 769.068 128.167 767.247 129.796C766.289 130.754 764.661 131.137 763.511 130.849C761.978 130.466 761.02 130.945 759.871 132.765C758.721 134.49 757.38 135.256 755.464 135.256C752.302 135.256 750.769 132.957 748.949 125.389C748.374 122.802 747.225 119.736 746.458 118.587C745.309 116.862 745.213 115.904 746.171 113.509C747.033 111.21 747.033 109.869 746.267 108.24C745.596 106.995 744.925 103.642 744.734 100.767C744.542 97.8934 743.776 95.4025 743.201 95.2109C742.626 95.0193 742.147 93.5823 742.147 92.0494C742.147 90.2292 741.093 88.3132 738.89 86.1097C734.675 81.7986 733.812 79.1161 736.016 76.7211C738.123 74.4219 736.782 71.452 733.717 71.7394C731.513 72.0268 730.555 70.015 728.256 60.5305C725.094 47.8846 724.903 47.2141 722.891 46.6392C721.454 46.1602 721.262 45.6812 721.933 44.819C723.274 43.2861 722.316 42.3281 719.442 42.3281C717.909 42.3281 717.239 42.903 717.239 44.0526Z" fill="white"/>
<path d="M773.57 875.901L773.858 887.588L779.031 894.486C784.396 901.863 785.641 903.971 789.473 912.497L791.869 917.958L789.09 916.521C787.557 915.754 786.12 915.084 785.833 915.084C785.641 915.084 787.27 920.257 789.473 926.58C793.018 936.735 794.072 938.747 798.383 943.154C801.065 945.932 804.323 950.243 805.664 952.83L807.963 957.524L814.095 957.332C817.448 957.237 821.567 957.62 823.196 958.099C825.495 958.769 826.549 958.578 827.507 957.62C828.273 956.949 830.573 955.704 832.68 955.033C835.363 954.075 836.608 953.117 836.8 951.584C837.087 949.764 836.8 949.572 834.405 950.147L831.722 950.722L834.596 948.231C836.225 946.89 837.949 945.836 838.524 945.74C839.099 945.74 839.386 944.495 839.099 942.771C838.812 940.567 839.195 939.513 840.728 938.459C841.781 937.693 842.739 936.16 842.739 935.106C842.739 932.903 843.123 932.903 846.093 934.819C848.296 936.256 848.296 936.352 846.763 939.034C845.23 941.717 845.23 941.908 847.53 944.303L849.925 946.794L851.649 944.591C853.086 942.866 853.373 941.525 852.894 938.172C852.128 932.903 853.853 918.916 855.769 913.359C857.014 910.102 857.685 909.336 859.696 909.336H862.091L860.75 873.41L857.301 869.769C855.385 867.853 853.373 866.225 852.703 866.225C852.128 866.225 848.775 867.47 845.326 869.099C840.44 871.302 837.566 871.973 833.159 871.973C829.423 871.973 826.549 872.548 824.92 873.506C823.579 874.368 820.13 875.709 817.256 876.38L811.987 877.529L800.586 872.356C790.048 867.566 779.893 864.404 775.199 864.309C773.379 864.309 773.283 864.883 773.57 875.901Z" fill="white"/>
<circle id="856" cx="857" cy="702" fill="#5CE50D"/>
<circle id="891" cx="647" cy="689" fill="#E52A0D"/>
<circle id="40" cx="78" cy="590" fill="#E52A0D"/>
<circle id="37" cx="933" cy="650" fill="#E52A0D"/>
<circle id="39" cx="963" cy="470" fill="#E52A0D"/>
</svg>
