<svg width="1000" height="1000" viewBox="0 0 1000 1000" fill="none" xmlns="http://www.w3.org/2000/svg">
<path d="M300.391 2.63279L295.605 5.36716L295.312 13.5703C295.117 18.1601 294.531 22.2617 293.945 22.8476C293.262 23.5312 285.254 23.8242 270.02 23.7265C245.215 23.4336 244.238 23.3359 237.695 17.6719C236.035 16.1094 232.422 14.5469 229.199 13.7656C223.828 12.5937 223.535 12.5937 218.066 15.6211C214.941 17.2812 210.352 20.1133 207.91 21.8711C203.906 24.8984 203.32 25.7773 202.148 31.2461C201.172 35.9336 200.293 37.5937 198.34 38.7656C182.812 48.1406 182.812 48.2383 177.246 59.8593C173.73 66.9883 171.777 72.5547 171.289 76.0703C170.996 79.0976 169.629 83.9804 168.262 87.0078L165.918 92.3789L159.375 94.039C155.762 94.9179 148.828 95.8945 143.848 96.1875L134.863 96.7734L133.301 93.1601C132.52 91.207 129.004 85.7383 125.488 81.0508C119.629 73.2383 118.262 71.9687 107.227 65.1328C100.586 61.0312 94.6289 57.3203 93.9453 56.832C92.8711 56.1484 92.8711 54.7812 93.75 49.7031L94.9219 43.4531L88.5742 37.5937C80.1758 29.9765 73.4375 21.0898 72.2656 16.207C70.8008 10.4453 68.5547 4.48826 66.9922 2.43747C65.7227 0.679662 65.332 0.679662 57.5195 2.24216C53.0273 3.21872 45.5078 3.90232 40.8203 3.90232H32.4219L24.0234 10.9336C18.6523 15.4258 15.8203 18.5508 16.0156 19.5273C16.3086 20.3086 17.1875 24.4101 18.1641 28.5117C19.8242 35.9336 19.8242 36.0312 17.8711 37.789C16.1133 39.3515 16.0156 40.3281 16.6016 47.8476C17.0898 54 16.8945 57.125 15.8203 59.8593C14.8438 62.3984 14.7461 63.8633 15.4297 64.7422C17.0898 66.6953 17.1875 78.2187 15.625 81.9297L14.2578 85.25L19.4336 89.8398C22.3633 92.3789 24.2188 94.7226 23.7305 95.0156C23.1445 95.4062 21.4844 99.9961 20.0195 105.367L17.2852 115.035L8.59375 115.719C-1.46484 116.5 -1.17188 115.523 4.98047 128.805C7.03125 133.297 8.78906 137.105 8.78906 137.301C8.78906 137.496 6.83594 137.691 4.39453 137.691C1.95312 137.691 0 137.984 0 138.277C0 138.57 1.36719 142.086 3.02734 146.09C5.17578 151.266 5.95703 154.293 5.46875 156.344C5.07812 158.297 5.56641 160.543 6.83594 163.18C8.59375 166.5 8.69141 167.281 7.42188 169.234C6.73828 170.406 5.85938 173.629 5.56641 176.363C5.07812 181.051 5.37109 181.93 11.0352 192.379C15.918 201.168 17.7734 203.707 20.7031 205.367L24.4141 207.418L29.1992 205.074C33.9844 202.828 34.375 202.828 46.0938 204C64.0625 205.758 62.3047 204.879 67.7734 215.133C74.5117 227.73 82.2266 238.473 88.8672 244.332C94.3359 249.117 94.6289 249.605 96.7773 257.809C98.7305 265.719 99.2188 266.5 102.734 268.648C106.934 271.187 106.934 271.578 103.906 279.488L102.148 284.176L104.98 287.105C108.008 290.328 108.008 290.23 103.906 301.07L102.148 305.66L110.156 313.473C114.551 317.672 118.164 321.871 118.164 322.75C118.164 323.629 117.09 326.266 115.723 328.512C112.5 334.078 113.477 337.594 118.359 338.082L121.582 338.375L122.559 348.141C123.145 353.902 123.242 358.883 122.754 360.348C122.168 361.91 122.363 368.16 123.34 377.047L124.805 391.305L141.309 413.863L157.715 436.422L163.672 436.52C167.09 436.52 170.312 435.934 171.387 435.152C172.363 434.469 173.926 433.98 174.707 434.176C175.586 434.371 177.832 434.762 179.785 435.055C183.398 435.543 183.398 435.641 184.57 442.184C185.156 445.797 187.109 451.461 188.672 454.781C191.992 461.227 193.164 461.91 201.66 461.91C209.375 461.91 211.914 462.887 212.012 465.719C212.012 467.086 213.672 472.848 215.625 478.512L219.238 488.766L224.219 489.547C228.906 490.328 229.199 490.523 230.078 493.941L230.957 497.555L238.672 498.727C245.898 499.801 246.68 500.191 250.977 504.391L255.566 508.883L256.152 521.383C256.543 528.219 257.129 535.836 257.422 538.375L258.105 542.867L297.559 570.211L304.395 584.957L311.23 599.801L338.77 625.094L366.406 650.387H371.582C374.512 650.387 377.051 649.996 377.441 649.508C377.734 649.02 379.883 647.848 382.227 646.969C385.84 645.602 387.305 645.504 391.797 646.383C396.484 647.359 397.461 648.043 401.172 652.828L405.371 658.199L401.27 663.082C397.266 667.77 397.266 667.965 398.828 670.406C400 672.262 401.27 672.848 403.809 672.848C406.738 672.848 407.227 673.141 407.227 675.094C407.227 676.266 404.98 679.977 402.246 683.395C397.363 689.352 397.266 689.547 398.828 691.891C400 693.648 401.27 694.332 403.711 694.332H407.031L410.547 713.082C412.5 723.434 414.355 733.102 414.648 734.469C414.941 735.934 416.211 738.473 417.48 740.23L419.824 743.453L422.07 738.766L424.316 734.176L430.176 734.762C435.449 735.25 436.328 735.738 439.062 738.961C441.797 742.281 442.285 743.648 443.262 752.926C443.945 758.59 444.727 764.547 445.02 766.207L445.508 769.332L463.184 770.699L485.352 789.547C506.641 807.711 507.52 808.59 509.277 813.863C510.254 816.793 510.84 819.527 510.547 819.82C510.254 820.113 505.664 821.969 500.391 823.824C491.309 827.047 490.43 827.242 485.449 826.266C482.52 825.68 479.98 825.387 479.785 825.582C479.59 825.777 484.375 828.805 490.43 832.418L501.367 839.059L507.324 837.594C513.086 836.227 518.359 836.812 517.188 838.766C516.895 839.254 510.742 841.695 503.516 844.234C490.918 848.629 490.234 848.824 485.254 847.75C482.52 847.164 479.98 846.773 479.785 846.969C479.59 847.164 484.375 850.289 490.43 853.902L501.367 860.543L507.324 859.078C513.184 857.613 513.184 857.613 522.461 860.934L531.738 864.254L540.527 861.812C545.41 860.445 549.609 859.371 550 859.371C551.367 859.371 557.715 871.383 559.277 876.949C560.449 881.148 562.207 884.273 566.113 888.863C574.707 898.824 575.879 899.996 585.059 907.711C593.75 915.035 593.848 915.035 599.512 915.035H605.176L628.516 933.004C651.27 950.582 651.953 951.168 657.129 959.371C660.059 963.961 662.891 967.77 663.477 967.77C663.965 967.77 669.141 966.598 674.902 965.231L685.449 962.789L697.656 970.699L709.961 978.707L724.023 972.555C737.695 966.695 738.086 966.402 737.207 964.156C736.719 962.887 736.328 960.348 736.328 958.492C736.328 955.27 736.426 955.172 741.699 954.098C744.629 953.512 747.07 952.731 747.07 952.438C747.07 952.145 745.898 947.75 744.531 942.672C741.992 933.102 742.09 931.734 745.898 931.637C747.461 931.637 747.559 932.516 742.871 914.449L738.77 898.629L729.004 887.691C723.535 881.539 718.945 875.582 718.652 874.02C718.164 871.578 718.555 870.895 722.266 868.16C724.609 866.5 726.66 864.84 726.953 864.352C727.246 863.961 726.465 859.957 725.195 855.367L722.949 847.164L725.293 844.234C726.562 842.574 731.445 836.52 736.133 830.562L744.727 819.82L751.465 818.062C755.273 817.086 759.961 815.816 761.914 815.328L765.625 814.352L765.527 798.043C765.43 784.371 765.723 781.051 767.188 778.023C768.555 775.191 768.652 773.824 767.871 771.188C766.895 767.965 767.188 767.477 773.535 758.688L780.176 749.508L780.371 727.047L795.41 713.18C803.711 705.465 811.914 698.531 813.77 697.652C817.09 696.09 817.188 696.09 823.926 700.094L830.762 704.195L832.031 711.52L833.203 718.941L841.211 722.652C847.852 725.68 850.586 726.363 856.543 726.559C870.312 727.145 869.727 727.34 870.996 720.699C872.07 715.23 871.973 714.645 869.629 709.957C867.773 706.344 867.48 705.074 868.555 705.074C869.336 705.074 870.312 703.023 870.996 699.312L872.168 693.453L867.383 683.883C863.867 676.852 862.402 672.75 862.012 668.355C861.426 662.984 857.227 649.41 855.371 646.969C854.98 646.383 850 644.43 844.336 642.574L833.984 639.254V632.125L842.285 630.367C846.875 629.391 850.879 628.805 851.172 629.195C851.465 629.488 851.953 632.418 852.246 635.641C852.539 638.961 853.125 641.598 853.418 641.598C853.711 641.5 856.836 640.914 860.352 640.133C863.867 639.352 868.848 638.766 871.582 638.668C875.586 638.668 876.758 638.277 878.516 636.031L880.566 633.395L889.258 634.371C896.191 635.152 899.316 635.055 904.688 633.883L911.328 632.418L910.645 629C908.594 617.77 908.398 618.844 915.039 612.594C922.168 605.953 922.852 605.562 922.852 608.395C922.852 610.738 923.145 610.738 932.324 606.93C935.449 605.66 938.086 604.781 938.184 604.879C938.281 604.977 938.086 608.98 937.695 613.668L936.914 622.359L939.844 624.117C943.652 626.461 945.02 626.461 945.801 624.215C946.094 623.336 948.242 620.504 950.488 618.062C954.199 613.961 955.371 613.375 961.816 611.91C969.336 610.25 975.586 607.125 975.586 605.074C975.586 604.391 974.902 601.656 974.121 599.02C972.266 592.867 972.266 589.352 974.219 586.422C975.391 584.566 975.586 582.516 975.195 576.949C974.512 567.965 974.512 566.5 975.195 558.297C975.684 552.633 975.391 550.777 973.145 545.016L970.508 538.277L964.258 537.105L958.105 535.934L957.52 530.367C957.227 527.34 956.445 522.066 955.762 518.551L954.59 512.203L943.555 508.297C930.762 503.805 931.738 504.879 921.777 482.906C915.43 469.039 915.039 466.207 920.117 470.016C921.875 471.383 924.902 472.75 926.758 473.141C928.613 473.434 937.5 475.484 946.582 477.73C962.793 481.637 962.988 481.637 971.191 480.465C980.664 479.098 980.078 480.074 978.516 467.867C977.832 462.496 977.832 460.348 978.711 459.859C979.297 459.469 984.082 458.883 989.453 458.492C994.727 458.102 999.316 457.418 999.609 456.93C999.902 456.441 999.805 452.047 999.414 447.066L998.73 438.18L987.891 438.766C974.707 439.449 975.977 437.984 989.453 437.008C994.727 436.617 999.316 435.934 999.609 435.445C999.902 434.957 999.805 430.465 999.414 425.582L998.73 416.695L986.914 417.379L975 417.965L965.82 409.469C960.742 404.879 956.543 400.387 956.641 399.508C956.641 398.629 956.934 395.602 957.324 392.77L957.91 387.691H943.164L933.691 379L924.316 370.309L922.461 360.152C920.801 350.484 920.508 349.801 917.578 348.043C911.719 344.527 898.34 340.816 891.406 340.816H884.961L877.637 334.664C867.773 326.559 866.699 321.969 873.438 317.281C876.367 315.328 876.855 314.352 877.832 308.199C878.613 303.512 878.711 299.508 878.027 295.895C877.441 292.379 877.539 288.766 878.223 285.25C879.102 280.855 879.59 279.879 881.934 279.098C883.691 278.512 885.645 276.461 887.207 273.727L889.648 269.332L883.789 261.91L889.355 261.129L894.922 260.25L896.777 253.414C898.34 247.652 899.219 246.09 901.953 244.234L905.273 241.891V219.332L908.789 215.719C912.109 212.301 912.402 211.422 913.379 203.121C914.16 196.578 914.16 193.648 913.379 192.379C911.621 189.645 913.672 176.656 916.211 174.703C917.383 173.727 918.652 170.992 919.434 167.086C920.508 161.812 920.508 160.25 919.336 156.832C918.066 153.316 918.066 151.852 919.336 146.187C920.605 139.937 920.508 139.254 918.457 132.516L916.211 125.484L905.566 121.48C899.805 119.332 893.555 116.793 891.895 115.914C887.598 113.668 880.762 114.449 865.234 119.137C858.496 121.187 850.195 123.629 846.68 124.605C842.09 125.777 837.695 128.121 831.055 132.809C825.977 136.324 821.289 139.547 820.605 139.937C819.922 140.328 816.406 141.012 812.793 141.5L806.152 142.281L799.512 136.031C792.188 129.195 789.844 127.926 784.277 127.926C782.324 127.926 779.98 127.34 779.102 126.656C775 123.336 772.754 116.207 775.879 116.207C776.66 116.207 777.734 114.547 778.516 112.203C779.59 108.395 779.492 107.809 776.953 103.023C774.707 98.9219 774.316 97.2617 774.805 94.332C775.195 92.2812 775.195 89.3515 774.902 87.6914L774.219 84.7617L765.625 85.3476L757.031 86.0312L757.812 82.5156C758.496 79.5859 758.301 78.9023 756.738 78.0234C753.711 76.4609 749.805 67.6719 750.488 64.2539C751.562 59.5664 750.098 51.5586 747.656 48.5312L745.508 45.7968L742.676 52.9258C741.113 56.832 739.258 61.5195 738.574 63.375L737.207 66.6953L735.352 63.6679C733.691 61.0312 732.91 60.6406 727.344 60.0547C721.777 59.4687 720.508 59.664 714.355 62.4961C707.715 65.5234 707.422 65.5234 701.66 64.3515C697.461 63.4726 694.824 62.2031 691.895 59.5664C682.422 51.0703 681.641 50.7773 671.582 50.7773C662.793 50.7773 662.207 50.6797 658.594 47.75C656.543 46.0898 651.172 42.7695 646.68 40.3281L638.477 35.8359L630.859 43.4531L632.422 49.1172C633.496 53.5117 633.691 55.5625 632.812 58.0039C631.836 61.0312 631.543 61.2265 624.219 62.3008C620.117 62.9843 612.695 63.4726 607.715 63.4726C599.121 63.4726 598.73 63.375 596.68 60.8359C595.312 59.0781 594.824 57.5156 595.312 56.1484C595.605 55.0742 596.094 52.6328 596.387 50.6797C596.777 47.457 596.484 46.9687 593.457 45.0156C590.332 43.0625 589.844 43.0625 586.523 44.4297C583.887 45.6015 581.348 45.7968 577.148 45.3086C571.582 44.7226 571.289 44.8203 567.09 48.2383C561.914 52.4375 559.082 58.3945 558.105 67.0859C557.422 73.1406 557.324 73.2383 553.906 74.2148C549.023 75.582 548.34 75.4844 540.43 73.1406C534.863 71.4804 531.152 69.4297 523.047 63.375C517.285 59.0781 512.109 54.5859 511.523 53.2187C510.254 50.3867 505.078 46.8711 502.344 46.8711C501.27 46.8711 495.605 48.2383 489.551 49.8984L478.613 52.9258L475.781 50.875C474.219 49.8008 470.898 48.3359 468.262 47.6523L463.672 46.3828L459.961 50.7773C457.91 53.2187 456.055 54.9765 455.762 54.6836C455.469 54.3906 453.711 52.3398 451.855 50.0937L448.438 45.9922L445.605 50.289C442.383 55.2695 440.625 54.9765 439.844 49.2148C438.867 42.6718 438.867 42.6718 434.473 45.6015C430.566 48.1406 430.273 48.1406 424.023 47.0664C417.578 45.9922 417.48 45.8945 410.352 38.1797C401.66 28.707 400 28.3164 394.336 34.3711L390.43 38.5703L379.688 38.375L368.945 38.082L358.984 29C347.07 18.0625 337.598 10.6406 333.594 9.17576C331.348 8.39451 329.492 8.49216 326.27 9.46873C323.926 10.1523 321.582 10.7383 321.191 10.7383C320.801 10.7383 319.238 8.39451 317.676 5.56247C314.941 0.582006 314.844 0.48435 310.059 0.191381C306.25 0.093725 304.102 0.582006 300.391 2.63279Z" fill="white"/>
<circle id="89" cx="706" cy="539" fill="#5CE50D"/>
<circle id="91" cx="736" cy="284" fill="#E52A0D"/>
<circle id="90" cx="339" cy="224" fill="#E52A0D"/>
<circle id="907" cx="500" cy="687" fill="#E52A0D"/>
</svg>
