<svg width="1000" height="1000" viewBox="0 0 1000 1000" fill="none" xmlns="http://www.w3.org/2000/svg">
<path d="M198.73 1.16952C192.578 2.04843 191.211 2.73202 185.059 7.32187C179.883 11.3258 175.684 13.4742 167.676 16.3062L157.129 20.0172L151.27 29.9781L145.312 40.0367H122.266L112.402 60.2516C106.934 71.482 97.7539 89.2555 92.0898 99.9977L81.8359 119.334L85.4492 135.154L89.0625 150.877L86.6211 156.931L84.1797 162.888L86.1328 171.091C87.5977 177.146 87.8906 180.955 87.4023 186.033L86.8164 192.869L95.6055 215.33L104.492 237.791L110.254 241.111C116.699 244.822 116.797 244.92 117.773 257.615C118.262 264.451 117.969 266.013 114.941 275.095L111.523 285.056L113.77 295.603C117.383 313.084 117.578 323.826 114.746 347.068L112.305 367.283L114.258 390.427C115.43 403.123 116.504 414.451 116.797 415.525C117.09 416.599 119.727 422.654 122.754 428.904L128.223 440.232L124.609 454.587L121.094 468.845L125.098 481.931L129.199 494.92L139.258 503.318L149.316 511.814L147.461 518.357C146.484 521.97 144.336 530.271 142.578 536.814L139.551 548.728L149.121 566.111L150.293 583.103C150.879 592.478 151.66 602.537 151.953 605.466L152.441 610.837L146.582 617.38L140.625 623.826V648.826L147.656 671.775L154.59 694.724L153.32 703.513C152.637 708.396 151.953 712.791 151.66 713.377C151.465 713.962 157.129 717.576 164.258 721.384L177.246 728.318L180.957 737.595C185.449 749.119 193.457 774.216 193.555 776.951C193.555 778.025 191.699 784.666 189.355 791.697L185.156 804.49L189.062 812.205L192.871 819.822L241.406 820.798L245.117 830.076C247.07 835.154 249.805 843.552 250.977 848.63L253.223 857.908L249.609 865.134C247.559 869.041 246.289 872.654 246.777 873.044C247.168 873.435 253.32 877.927 260.254 882.908L272.949 892.087L301.27 897.556L313.379 892.673C320.117 889.939 326.27 887.693 327.051 887.693C330.859 887.693 360.254 901.365 374.805 909.861L390.723 919.236L404.98 920.505C420.41 921.775 420.605 921.775 453.125 914.451L460.449 912.888L472.656 920.212C479.395 924.314 495.41 934.959 508.398 944.041L531.934 960.447L549.316 980.173L566.699 999.998H577.539L588.379 999.9L594.531 992.283C600.586 984.861 600.781 984.666 608.203 982.517L615.723 980.369L635.938 955.271L641.211 957.615C644.141 958.884 646.68 959.959 646.875 959.959C648.438 959.959 654.785 949.021 657.129 942.283C658.789 937.791 662.012 929.88 664.453 924.607L668.848 915.232L687.012 905.662L695.801 907.908C700.684 909.08 704.883 910.154 705.176 910.154C705.566 910.154 706.348 908.201 707.031 905.759C708.398 900.877 710.645 897.752 719.727 887.986L725.781 881.541L736.133 880.271C742.48 879.587 746.68 878.513 747.168 877.732C747.656 877.048 750.977 871.287 754.59 864.841L761.23 853.318L769.238 850.095C778.418 846.384 788.281 838.865 797.168 828.806C802.734 822.459 802.832 822.361 814.258 818.65L825.684 814.841L828.809 807.029C830.957 801.853 831.934 797.556 832.031 793.943C832.129 789.06 832.422 788.181 836.23 784.08C838.965 781.15 841.602 779.294 843.848 778.806C849.609 777.537 850.586 776.658 850.586 772.556C850.586 770.017 851.953 766.306 855.176 760.544C859.57 752.439 860.059 751.951 871.68 743.552L883.594 734.861L888.477 715.037C893.164 695.505 893.262 695.017 891.992 689.158C890.039 679.88 890.039 679.88 894.824 679.49L898.926 679.197L899.219 673.142C899.512 667.087 899.512 667.087 905.078 662.302C910.547 657.615 910.742 657.127 914.453 645.798L918.262 634.177L916.211 617.283L914.062 600.388L906.055 591.502C901.66 586.521 896.973 581.345 895.703 579.88C894.434 578.416 892.969 575.193 892.48 572.556C891.699 568.65 890.527 566.892 885.059 561.326C881.445 557.615 878.027 554.685 877.441 554.685C876.855 554.685 875 557.517 873.34 560.935L870.215 567.185L863.965 567.869C858.008 568.552 857.52 568.357 848.926 564.06C832.324 555.759 823.34 549.998 821.582 546.384C820.605 544.529 811.719 535.837 801.758 526.951C784.766 511.814 783.301 510.642 777.051 508.787L770.41 506.736L765.137 511.13L759.961 515.623H744.336L729.785 503.904C716.016 492.869 714.941 492.185 707.52 490.232C703.223 489.06 697.07 487.4 693.848 486.423L688.086 484.763L675.195 463.474L670.02 462.205L664.844 460.837L659.473 465.525C656.543 468.064 653.613 470.603 652.93 471.091C652.051 471.677 647.168 469.529 637.695 464.255L623.633 456.541L618.945 449.119L614.16 441.697L602.734 439.06C594.629 437.205 582.715 433.005 561.816 424.607L532.422 412.693L531.25 406.638C530.566 403.22 529.59 399.802 528.906 399.021C528.32 398.142 518.848 392.478 507.812 386.326L487.793 375.193L468.066 346.97C450.293 321.677 447.754 318.552 443.359 316.111L438.477 313.279L438.379 305.857C438.281 301.658 437.988 295.212 437.598 291.306L437.012 284.373L424.609 273.533C412.793 263.181 411.719 262.009 397.949 241.99L383.594 221.287L385.156 208.005C386.035 200.779 386.719 194.529 386.719 194.236C386.719 193.943 383.594 192.478 379.785 190.818C372.949 188.084 372.852 187.888 369.434 181.15C367.48 177.341 361.816 164.255 356.738 151.951C348.047 130.564 347.656 129.295 347.656 122.263C347.656 116.795 346.777 112.009 344.043 102.634C342.09 95.8961 340.332 90.1344 340.234 89.9391C340.039 89.7437 338.086 90.3297 335.742 91.2086C331.641 92.7711 331.348 92.6734 316.895 88.5719L302.246 84.275L291.016 67.9664C280.273 52.4391 279.492 51.5601 273.438 48.2398C269.922 46.2867 264.941 42.8687 262.207 40.525C259.57 38.2789 246.777 28.2203 233.984 18.1617C216.504 4.48983 210.059 -0.00235339 208.105 0.0953029C206.738 0.192959 202.539 0.68124 198.73 1.16952Z" fill="white"/>
<circle id="61" cx="253" cy="817" fill="#5CE50D"/>
<circle cx="550" cy="428" fill="#E52A0D"/>
<circle id="62" cx="134" cy="245" fill="#E52A0D"/>
<circle cx="888" cy="690" fill="#E52A0D"/>
</svg>
