<svg width="1000" height="1000" viewBox="0 0 1000 1000" fill="none" xmlns="http://www.w3.org/2000/svg">
<path d="M197.91 6.25C195.273 10.2539 194.004 13.0859 194.395 14.3555C194.688 15.625 193.809 17.9688 191.855 20.8008C188.047 26.2695 187.559 32.4219 190.977 31.9336C192.344 31.7383 193.418 30.5664 194.102 28.6133L195.176 25.4883L204.062 29.0039L213.047 32.5195L214.707 37.9883C215.586 40.918 216.562 44.1406 216.758 45.0195C217.246 46.4844 216.562 46.7773 212.852 46.7773C208.262 46.7773 206.016 48.0469 195.371 56.7383C191.562 59.668 191.562 59.7656 192.246 64.9414L192.832 70.1172L186.875 73.1445C182.383 75.3906 180.137 76.0742 177.988 75.5859C175.352 75 174.473 75.4883 169.004 81.543C159.727 91.6016 159.824 91.4062 162.754 94.4336C164.121 95.8984 165.586 98.2422 165.879 99.707C166.562 102.246 166.367 102.441 163.73 102.441C161.875 102.441 160.02 103.32 158.555 104.883C156.602 106.934 156.309 108.203 156.504 112.207C156.699 116.699 156.504 117.188 154.062 118.066C151.523 119.043 151.426 119.238 152.012 125.195C152.695 132.129 156.016 141.992 158.848 145.117L160.801 147.266L164.316 144.531C166.27 143.066 169.688 141.309 172.031 140.82C176.035 139.746 176.328 139.844 178.184 142.383C180.527 145.508 192.051 155.371 198.887 159.961L203.477 163.086V178.418L206.895 179.004C209.629 179.59 210.605 180.371 211.777 183.008C212.461 184.863 213.828 186.426 214.609 186.426C215.391 186.426 217.246 187.988 218.711 189.844C220.957 192.871 221.836 193.262 225.84 193.262C228.77 193.262 231.211 193.945 232.773 195.215C235.703 197.461 241.758 197.754 243.516 195.703C244.199 194.824 246.348 194.238 248.496 194.238C251.23 194.238 252.305 193.848 252.305 192.773C252.305 190.332 255.527 191.113 259.531 194.336C262.949 197.266 263.145 197.754 262.754 201.465C262.461 203.711 261.973 206.543 261.582 207.91C261.191 209.668 261.875 211.816 264.219 215.723C267.051 220.508 267.832 221.094 271.055 221.387C273.008 221.582 275.156 222.363 275.742 223.145C276.426 223.926 278.281 224.512 279.844 224.512C283.75 224.512 288.438 227.148 288.438 229.297C288.438 230.371 286.387 232.812 283.945 234.863C279.844 238.379 279.551 238.867 280.527 241.309C281.309 243.262 281.211 244.141 280.137 245.02C279.258 245.801 278.867 247.07 279.258 248.535C280.137 252.051 276.719 251.562 270.566 247.461L265.488 243.945L262.949 246.973C259.629 250.879 253.77 251.172 250.449 247.559C248.594 245.605 246.934 245.117 240.586 244.531C233.555 243.945 232.773 244.043 228.965 246.387C224.18 249.414 224.082 249.414 218.223 246.875C214.121 245.215 212.949 245.02 209.434 245.996L205.43 247.07V252.441C205.43 256.445 204.062 261.816 199.961 273.633C191.758 296.973 191.562 297.559 187.559 298.242C184.531 298.828 183.164 298.242 175.449 293.164L166.855 287.402L161.582 288.184C158.652 288.672 156.016 289.16 155.82 289.453C155.625 289.648 156.699 292.09 158.359 294.922L161.289 300L159.238 303.223C158.066 304.98 155.43 307.227 153.477 308.105C151.426 308.984 149.766 309.863 149.766 309.863C149.766 309.961 150.156 311.426 150.645 313.184L151.621 316.309L147.715 315.723L143.906 315.039V319.727C143.906 322.852 143.32 325.098 141.953 326.758C140.879 328.125 140 329.59 140 330.078C140 330.566 142.441 334.473 145.371 338.77C149.473 344.824 150.742 347.461 150.742 350.293C150.742 358.984 151.621 360.938 157.09 364.551C160.41 366.699 165.293 368.75 170.469 370.02C176.914 371.68 180.43 373.34 187.852 378.223C192.93 381.641 199.961 386.914 203.477 389.941C209.824 395.312 209.824 395.41 216.27 395.41C220.664 395.41 224.18 396.094 227.402 397.461L231.992 399.512L236.68 395.02L240.195 398.438C245.469 403.418 247.227 407.715 246.25 412.598C245.566 415.82 244.785 416.992 242.539 417.871C239.707 419.043 239.609 419.238 239.609 426.27C239.609 432.422 239.902 433.594 241.562 434.473C242.93 435.254 243.516 436.523 243.516 438.867C243.516 442.09 243.711 442.285 246.641 442.285C249.668 442.285 249.668 442.285 247.812 444.336C246.836 445.508 245.957 447.559 245.859 449.023C245.566 461.914 245.566 461.816 243.027 461.816C241.465 461.816 239.707 463.086 237.559 465.723C235.02 468.848 233.945 469.434 232.09 469.043C230.82 468.652 228.477 468.945 226.914 469.629C224.473 470.703 223.691 471.875 221.934 477.539C220.859 481.152 220.176 485.059 220.566 486.133C220.859 487.207 220.664 492.676 220.078 498.242C219.199 507.324 219.199 508.887 220.762 512.012C222.031 514.746 223.301 515.82 226.23 516.699C229.16 517.578 230.82 518.945 232.871 522.168C234.336 524.512 237.559 527.637 239.902 529.199C242.734 530.957 244.492 532.812 244.688 534.277C244.883 536.035 245.664 536.621 248.105 536.816L251.133 537.109L249.766 540.43C248.984 542.285 248.398 546.191 248.398 549.121C248.398 553.906 248.105 554.688 245.566 556.445C243.418 558.008 242.637 559.473 242.246 563.086C241.562 568.848 243.223 574.902 245.762 576.27C246.836 576.855 252.598 577.441 258.555 577.637C264.512 577.832 270.957 578.418 272.812 579.004C274.668 579.492 277.891 579.98 279.844 579.98C285.801 579.98 284.629 582.617 273.887 593.652C263.633 604.395 262.07 607.422 262.07 617.578C262.07 621.289 262.461 622.07 265.391 623.828C268.125 625.586 268.711 626.66 269.297 630.566C270.078 636.328 273.105 641.504 275.742 641.504C278.281 641.504 279.355 644.141 277.891 646.484C277.207 647.461 276.719 649.707 276.719 651.27C276.719 652.93 276.035 655.566 275.254 657.031C274.473 658.594 274.082 660.059 274.375 660.254C274.57 660.547 275.254 666.797 275.742 674.121C276.621 685.449 276.523 687.988 275.254 691.016C273.398 695.41 273.789 696.68 277.402 697.461C279.062 697.852 281.016 699.414 282.383 701.465C284.629 704.688 284.629 705.176 283.945 720.312L283.262 735.938L288.828 745.117C293.125 752.344 294.297 755.273 294.297 758.398C294.297 761.719 294.688 762.5 296.445 762.988C298.594 763.477 298.594 763.672 295.078 767.188C290.684 771.777 289.805 775.977 291.758 782.617C292.637 785.254 293.32 790.039 293.32 793.164C293.32 798.633 293.223 798.828 290.293 799.902C287.559 800.879 287.363 801.172 288.047 804.004C288.926 807.52 289.023 812.891 288.438 819.727L287.949 824.609L293.32 827.734C296.445 829.688 299.277 832.227 300.059 833.887C301.719 837.207 306.016 838.086 306.016 835.059C306.016 830.762 304.746 829.102 300.84 827.734C297.129 826.562 296.738 826.074 294.688 819.922C292.832 814.551 292.637 812.988 293.613 810.449C294.199 808.887 294.98 807.52 295.371 807.52C295.957 807.52 298.398 814.746 299.766 820.41C300.742 824.512 307.773 825.586 311.582 821.973L313.828 819.922V823.926C313.828 826.172 314.609 829.492 315.488 831.348C316.758 834.18 316.855 835.254 315.977 837.305C315.293 838.672 314.805 842.188 314.805 845.117V850.488H321.152C327.207 850.488 327.5 850.391 329.062 847.363C330.527 844.434 330.527 844.238 328.672 842.773C326.719 841.309 326.719 841.016 328.086 835.84C328.867 832.91 329.355 828.223 329.16 825.391C328.867 821.191 329.062 820.312 330.625 819.922C331.602 819.629 332.383 818.555 332.383 817.285C332.383 816.211 333.652 813.574 335.215 811.621C337.461 808.887 338.242 806.738 338.438 803.125L338.73 798.242L340.781 801.758C342.734 804.98 342.832 806.25 342.344 819.141C341.758 835.254 342.539 837.793 347.422 837.793C349.961 837.793 350.938 837.012 353.184 833.496C356.113 828.809 356.699 822.852 354.355 820.215C353.184 818.945 353.184 817.969 354.062 814.941C355.039 812.012 356.113 810.742 359.336 809.18C363.438 807.227 363.438 807.227 363.828 801.27C364.023 797.168 364.902 794.043 366.562 791.504L368.906 787.695L370.664 792.871C372.031 796.973 372.324 799.707 371.836 806.055C371.152 813.965 371.152 814.16 367.93 815.723C363.438 817.871 362.754 821.094 365.977 825.391C367.344 827.246 368.516 829.395 368.516 830.176C368.516 833.496 370.664 837.598 372.715 838.184C375.254 838.867 378.281 836.328 377.988 833.691C377.793 831.934 378.477 831.738 384.434 831.445C392.539 831.152 394.883 829.492 393.125 825.586C392.539 824.219 390.879 822.559 389.414 821.973C385.996 820.41 382.188 812.598 382.188 807.031C382.188 803.516 382.48 802.637 383.945 802.637C387.559 802.637 388.34 804.102 386.582 807.52C384.922 810.645 385.02 810.742 387.949 813.77C391.758 817.676 397.715 820.117 398.887 818.164C399.473 817.09 399.961 817.09 400.938 818.066C401.523 818.652 403.965 819.238 406.309 819.238C409.922 819.238 410.605 818.848 411.973 816.309C412.754 814.746 415.391 812.305 417.832 810.84C421.445 808.789 422.227 807.812 422.227 805.566C422.227 804.004 421.152 801.465 419.785 799.902C417.539 797.266 417.441 796.484 418.027 790.43L418.613 783.789L411.973 778.32L416.172 778.223C421.152 778.223 421.152 778.906 417.734 760.547C414.805 744.727 415.293 738.184 419.688 731.641C421.348 729.297 422.227 726.66 422.227 724.219C422.227 720.898 422.422 720.605 424.082 721.582C425.742 722.363 426.523 721.875 429.746 717.871C431.797 715.234 435.117 711.719 437.07 709.961C440.293 707.129 440.781 706.934 440.781 708.691C440.781 709.766 438.828 712.402 436.387 714.648C433.555 717.188 431.113 720.801 429.551 724.512C428.184 727.734 425.156 733.496 422.812 737.402L418.516 744.434L420.469 748.438C423.789 754.785 426.133 765.332 426.133 774.023C426.133 783.984 428.965 792.383 432.676 793.262C436.191 794.238 436.875 793.262 436.875 787.207C436.973 782.617 437.461 780.957 439.805 777.832C441.855 775.195 442.734 772.852 442.734 770.41C442.734 765.625 446.836 761.621 451.621 761.719H454.941L450.84 763.77C446.641 765.918 445.664 767.578 445.664 773.438C445.664 775.977 444.883 777.637 442.832 779.59C441.074 781.25 439.805 783.594 439.609 785.645C439.219 788.867 439.414 789.062 443.125 790.039C446.836 791.016 447.227 790.918 449.18 788.477C450.352 787.012 452.988 782.812 455.039 779.102C457.09 775.488 459.727 772.07 460.801 771.582C461.973 771.094 465.781 768.359 469.395 765.723L475.938 760.742V770.215L471.641 770.801C468.613 771.289 466.855 772.168 465.781 773.828C465 775.098 462.559 777.148 460.312 778.32C455.527 781.055 451.914 786.23 451.035 791.699C450.449 795.215 449.863 796.094 447.031 797.266C443.906 798.535 443.711 798.926 443.711 803.32C443.711 816.113 446.348 818.848 452.695 812.695C454.746 810.645 456.406 808.301 456.406 807.422C456.406 806.445 456.895 805.371 457.383 805.078C459.824 803.613 457.383 812.012 454.844 813.867C452.109 815.82 453.574 819.531 458.066 821.973C461.484 823.828 462.949 824.121 467.246 823.535C471.348 822.949 473.301 821.973 477.988 818.164C484.141 812.988 485.117 810.84 489.316 792.871C490.391 788.281 491.953 784.473 493.516 782.617C494.883 780.957 497.031 776.855 498.203 773.535C499.473 770.215 500.938 767.285 501.523 766.895C502.305 766.406 502.402 766.797 501.914 767.969C501.621 768.945 501.523 771.191 501.914 772.949C502.5 776.074 502.695 776.27 506.797 776.27C510.898 776.27 511.191 776.074 513.926 771.289C515.488 768.457 517.051 764.746 517.441 762.793C517.93 759.961 518.711 759.18 522.715 757.52C526.328 755.957 528.086 754.395 530.82 750C534.141 745.02 534.531 743.652 535.312 734.375C535.996 726.562 535.898 723.34 534.922 719.824C534.141 717.383 533.555 711.621 533.555 707.031V698.633L527.891 694.238C522.715 690.43 521.934 689.258 519.785 683.105C517.832 677.441 517.734 676.27 518.906 675.879C519.688 675.586 521.641 674.121 523.203 672.559C525.938 669.727 526.035 669.629 525.352 661.523L524.668 653.32L528.379 654.785C535.898 657.91 546.543 654.297 547.422 648.34C547.812 645.703 547.324 645.117 543.418 642.578C539.902 640.332 537.266 639.551 531.406 639.062C523.301 638.281 520.176 636.426 519.688 631.738C519.395 629.395 519.688 629.297 526.426 628.516C532.969 627.734 533.652 627.832 537.949 630.273C540.391 631.738 542.637 632.715 542.93 632.52C543.125 632.227 542.637 628.418 541.855 624.023C540.977 619.531 540.391 615.527 540.586 615.039C540.781 614.648 542.539 615.625 544.59 617.383C547.715 620.02 548.594 621.582 549.766 626.855C550.645 630.371 552.5 635.156 554.062 637.598C555.82 640.43 557.48 645.02 558.555 650.586C560.02 658.203 560.703 659.766 564.902 665.039C567.539 668.262 569.688 671.289 569.688 671.777C569.688 672.266 571.055 672.754 572.812 672.949C575.449 673.242 576.035 673.828 577.207 677.246C578.086 679.98 579.746 682.129 582.188 683.887C584.238 685.254 586.68 687.793 587.656 689.453C589.023 691.797 589.902 692.285 591.562 691.797C592.637 691.504 595.273 690.918 597.324 690.625C602.012 689.941 602.891 687.207 600.059 681.738C598.008 677.637 597.324 673.73 598.789 673.73C600.645 673.73 603.672 678.516 604.844 683.203C606.113 687.988 606.309 688.281 610.508 689.355C613.242 690.039 617.93 690.137 623.203 689.746C630.234 689.16 631.895 688.672 634.238 686.523C635.801 685.059 637.266 682.52 637.559 680.469C638.242 676.953 638.145 676.953 633.945 675.879C631.602 675.293 628.672 674.609 627.402 674.512C624.668 674.219 623.301 671.777 625.84 671.777C627.207 671.777 627.402 671.191 627.012 668.848C626.426 666.016 626.523 665.918 629.746 665.918C632.773 665.918 633.164 666.211 633.164 668.359C633.164 670.508 633.555 670.801 636.973 670.801C640.195 670.801 646.445 669.336 647.715 668.262C647.91 668.066 647.422 667.09 646.445 666.016C644.883 664.258 644.883 664.258 649.082 664.648L653.379 665.137L654.355 661.426C654.941 658.594 655.82 657.52 657.578 657.129C659.141 656.738 660.41 655.469 660.996 653.711C661.484 652.148 663.34 649.609 665 648.145C666.66 646.68 668.418 643.945 668.809 642.285C669.395 639.258 669.492 639.16 670.273 641.211C670.957 642.773 670.566 645.117 668.906 649.512L666.562 655.664L670.762 661.523C673.105 664.746 677.207 669.141 679.941 671.289C683.555 674.121 688.535 680.762 699.082 696.582L713.34 717.871L714.805 727.344C716.367 737.988 718.32 744.043 721.055 746.484C722.812 748.145 722.91 748.047 723.594 745.605C723.887 744.141 724.375 743.066 724.473 743.262C724.668 743.457 725.352 749.023 726.035 755.664C727.012 765.625 727.402 767.48 728.379 766.113C729.844 764.258 729.941 764.844 731.797 780.176C732.773 787.793 733.848 791.211 737.754 799.805C742.441 809.863 742.539 810.254 741.562 815.234C741.074 818.164 740.586 823.633 740.586 827.441C740.586 833.984 739.609 836.816 737.461 836.816C737.07 836.816 736.68 835.352 736.68 833.594V830.469L734.727 832.91C733.652 834.277 732.09 837.5 731.211 840.039C729.746 844.531 729.746 845.02 731.797 850.391C733.555 855.273 733.848 857.227 733.262 863.77L732.578 871.484L736.094 873.145C739.512 874.805 739.609 874.805 739.609 872.852C739.609 871.289 740 870.996 741.855 871.484C743.027 871.875 744.688 872.363 745.566 872.559C746.836 872.949 747.617 871.484 749.277 866.211C751.816 857.812 751.816 854.297 749.375 846.973C747.422 841.309 747.422 838.77 749.375 838.77C749.961 838.77 750.156 839.746 749.766 841.016C749.375 842.969 749.766 843.555 752.109 844.531C754.551 845.605 755.527 845.508 758.164 844.141L761.387 842.48L760.801 846.387C760.41 848.438 758.945 852.344 757.48 854.98C755.137 858.984 754.746 860.84 754.844 866.406C754.941 871.289 754.648 872.949 753.672 872.949C752.891 872.949 751.621 874.609 750.742 876.66C747.617 884.18 747.617 884.375 756.211 895.312L764.121 905.566L763.535 911.914C763.242 915.43 762.754 920.801 762.461 923.73C761.973 929.102 761.973 929.199 767.148 935.547C769.98 938.965 773.105 943.652 774.082 945.801C775.547 948.926 777.012 950.293 781.113 952.344C785.801 954.59 786.484 955.371 787.461 959.082C788.828 964.355 797.422 983.301 801.133 989.16C802.695 991.602 805.527 995.117 807.383 996.875L810.898 1000.29V996.582C810.898 994.238 809.727 990.723 807.578 986.914C802.793 978.125 799.473 968.262 798.789 959.863C798.008 951.562 794.395 939.648 790.195 931.152C788.34 927.441 787.461 924.512 787.754 922.852C788.047 921.484 788.73 917.773 789.316 914.746C790.293 910.059 790.195 908.398 788.926 904.688C786.68 897.949 786.973 896.973 791.758 894.629C795.371 892.969 796.348 891.797 797.324 888.574C798.398 884.961 798.789 884.668 802.207 884.668C805.43 884.668 806.211 884.18 809.434 879.688L812.949 874.805L817.539 878.223C821.836 881.348 822.129 881.934 822.617 886.816L823.105 891.992L832.285 892.285C837.363 892.383 842.148 893.066 842.832 893.652C843.516 894.238 844.102 896.777 844.102 899.707C844.199 903.906 844.688 905.273 847.422 908.496L850.742 912.402L855.723 908.203C858.457 905.859 860.703 903.711 860.703 903.32C860.703 902.93 860.02 900.391 859.238 897.754C858.457 895.117 856.602 886.621 855.234 878.809C853.867 870.996 851.914 860.547 850.84 855.469C848.594 844.531 848.398 829.98 850.352 818.262C851.133 813.672 852.012 806.348 852.402 801.953C852.988 794.238 852.891 793.457 848.105 778.711C845.371 770.312 843.125 763.281 843.125 762.988C843.125 762.793 844.688 762.598 846.445 762.598C849.766 762.598 849.863 762.5 848.984 759.863C848.594 758.398 847.91 753.027 847.617 747.949C847.422 742.773 846.055 734.57 844.688 729.297C843.32 724.121 841.953 716.211 841.562 711.719C841.27 706.836 839.609 698.926 837.656 692.383C835.508 685.352 834.336 679.199 834.336 675.586C834.336 666.211 832.578 660.449 828.77 657.52C824.473 654.297 823.398 651.27 823.496 643.848L823.691 637.891L817.734 632.422L811.875 626.953V616.602C811.875 609.863 811.387 605.371 810.605 603.613C808.262 599.121 806.699 589.062 807.383 583.496C807.676 580.664 809.141 576.27 810.508 573.73C812.949 569.336 813.047 569.043 811.484 565.332C810.605 563.184 809.922 559.766 809.922 557.91C809.922 555.566 808.75 552.441 806.602 548.828C802.891 542.773 800.156 532.715 800.156 525.195C800.156 521.68 799.473 519.336 797.617 516.602C795.469 513.281 795.176 512.012 795.371 505.176C795.566 499.805 795.176 496.582 794.102 494.629L792.637 491.895L791.465 496.094C790.684 498.633 789.023 501.367 787.363 502.637L784.531 504.98V502.637C784.531 499.902 778.281 493.066 775.742 493.066C774.668 493.066 771.25 496.094 767.832 499.902C762.363 506.055 761.289 506.738 758.066 506.738C754.746 506.738 754.16 506.25 749.473 499.414C746.641 495.41 744.004 492.09 743.516 492.09C742.93 492.09 741.562 494.141 740.195 496.777L737.852 501.367L741.172 509.277C743.906 515.918 744.395 518.457 744.59 525.879C744.688 533.594 744.395 535.254 742.148 539.746C740.195 543.555 739.023 544.824 737.363 544.824C733.359 544.922 727.402 548.438 721.934 554.199C716.367 559.961 716.367 560.059 715.781 567.285C715.098 574.219 715.293 575.195 719.004 585.156C721.25 591.016 723.008 597.363 723.008 599.512C723.008 603.027 722.715 603.418 720.566 603.418C718.418 603.418 718.125 603.809 718.125 606.836C718.125 609.375 717.734 610.059 716.758 609.668C715.781 609.277 714.512 610.645 712.852 613.965C710.312 619.043 710.312 619.043 701.133 620.605C698.594 620.996 696.25 622.363 694.59 624.219L691.953 627.051L690.488 624.219C689.609 622.656 687.852 620.898 686.582 620.312C685.02 619.629 683.652 617.773 682.969 615.43C682.285 613.379 680.918 610.547 679.941 609.18C678.965 607.715 677.695 603.027 677.012 597.949C675.938 590.723 675.254 588.574 672.617 585.352C670.957 583.203 668.418 579.199 666.953 576.465L664.219 571.387L660.312 572.949C657.285 574.121 655.918 575.488 654.648 578.32L652.988 582.031L656.699 591.504C658.652 596.68 660.703 602.148 660.996 603.613C661.68 606.152 661.484 606.348 658.75 606.348C655.137 606.348 651.914 602.832 647.422 593.75C644.59 588.086 644.102 585.645 643.125 574.609C642.148 564.746 642.246 561.23 643.125 558.789C644.199 555.957 644.102 555.371 642.246 553.418C641.074 552.148 639.121 548.34 637.852 544.824C636.582 541.309 633.75 535.84 631.504 532.617C625.547 523.73 621.445 515.039 621.445 511.133C621.445 508.887 621.836 507.812 622.52 508.203C623.105 508.594 624.57 507.91 625.84 506.738C629.062 503.711 627.988 500.977 623.301 500.293C619.785 499.707 619.492 499.414 619.492 496.387C619.492 493.164 619.59 493.066 623.203 493.066C630.82 493.066 634.141 485.938 634.141 469.336C634.141 461.328 634.531 458.105 636.094 454.59L637.949 450.098H643.613C646.738 450.098 650.352 449.805 651.621 449.414C653.867 448.828 653.965 448.633 653.379 440.723L652.793 432.52L655.332 431.934C656.797 431.543 659.824 431.738 662.168 432.324C671.055 434.766 691.758 432.715 693.906 429.297C694.297 428.613 694.688 425 694.688 421.191C694.688 415.723 695.078 413.965 696.543 412.598C698.301 411.035 698.398 411.133 700.059 415.137C702.305 420.996 704.16 422.754 708.066 422.754C711.191 422.754 711.289 422.559 711.289 419.043C711.289 413.379 713.34 411.328 719.102 410.84L723.984 410.547V414.258C723.984 417.578 724.375 418.164 727.402 419.434C731.992 421.289 732.188 421.289 734.238 417.09C736.582 412.305 737.656 402.832 736.387 397.754C735.801 395.605 735.703 392.969 735.996 392.09C736.582 390.625 736.875 390.625 739.414 391.895C741.953 393.164 742.441 393.164 744.395 391.895C746.348 390.43 746.445 390.137 745.078 388.086C743.125 385.059 744.004 384.766 754.355 385.449C767.441 386.23 769.492 384.082 770.859 368.652C771.543 360.547 771.836 359.668 774.57 357.227C778.281 353.906 780.137 350.293 781.113 344.727C781.504 342.383 783.262 336.035 785.117 330.664C788.828 319.531 789.512 309.863 786.973 302.637C786.191 300.391 785.508 298.145 785.508 297.754C785.508 296.387 790.586 294.824 794.883 294.824C798.887 294.824 799.375 295.117 800.84 298.242L802.5 301.66H810.508C817.637 301.66 818.906 301.367 821.25 299.316L823.984 297.07L821.836 292.09C820.664 289.355 819.688 286.426 819.688 285.645C819.688 284.766 818.223 282.422 816.367 280.371C814.512 278.32 812.656 275.488 812.363 274.023C811.777 271.875 810.703 271.094 806.504 269.922C802.891 268.848 801.133 267.676 800.352 266.016C799.473 264.062 798.496 263.574 795.859 263.574C794.004 263.574 789.609 262.695 786.094 261.621C780.625 259.863 779.453 259.18 778.281 256.445C776.133 251.27 773.008 249.219 765.293 247.949C759.824 247.07 756.992 247.07 752.598 248.047C749.473 248.633 738.633 249.316 728.379 249.414C708.555 249.707 703.672 250.293 702.793 252.539C701.914 254.688 697.129 256.738 692.832 256.738C689.512 256.738 688.926 256.445 687.949 253.809C686.777 250.293 684.434 250 681.309 253.027C678.184 255.957 668.418 256.641 663.047 254.395C660.996 253.516 657.578 252.832 655.527 252.832C652.695 252.832 649.961 251.66 644.883 248.438C637.656 243.75 634.727 243.164 631.602 245.508C630.234 246.582 626.621 246.875 616.465 246.973C603.379 246.973 603.184 246.973 598.496 250C590.879 254.785 573.008 256.25 564.121 252.734C562.656 252.148 558.262 251.758 554.453 251.758C549.668 251.855 546.445 251.465 544.004 250.293C540.781 248.73 540.391 248.73 538.047 250.195C536.289 251.367 533.457 251.855 528.184 251.855C523.691 251.855 519.688 252.441 518.125 253.223C510.801 257.031 502.988 255.859 495.371 249.805C493.32 248.145 490.098 246.777 487.559 246.484C476.523 244.922 457.578 240.723 454.941 239.16C453.379 238.184 450.254 236.914 448.105 236.23C445.957 235.547 441.855 233.691 438.926 232.031C432.969 228.711 427.988 228.418 422.91 231.055C419.98 232.52 419.785 232.52 417.734 230.078C414.414 226.172 414.023 221.191 416.27 210.156C417.441 204.688 418.32 199.219 418.32 197.949C418.32 196.777 419.199 192.188 420.273 187.891C421.445 183.301 422.227 176.758 422.227 172.07C422.227 164.16 422.129 163.867 418.809 160.156C416.074 157.227 415.391 155.566 415.391 152.539C415.391 150.488 414.707 147.852 413.926 146.777C411.094 143.066 413.047 134.57 418.223 128.027C419.688 125.977 421.738 122.949 422.715 121.094C424.277 117.969 424.277 117.871 422.715 118.457C418.027 120.215 416.367 120.215 416.367 118.457C416.367 117.578 417.051 116.016 417.93 115.039C420.176 112.598 419.004 109.863 415.977 110.645C414.023 111.133 413.145 110.449 410.117 106.055C407.48 102.148 406.602 100 406.699 97.4609C406.895 95.4102 405.918 92.1875 404.355 88.9648C402.109 84.668 401.23 83.8867 398.984 83.8867C395.566 83.8867 393.906 82.3242 393.906 79.0039C393.809 75.5859 390.684 72.168 387.656 72.168C385.312 72.168 385.117 72.4609 385.117 76.4648C385.117 80.3711 384.824 80.8594 382.188 81.8359C380.625 82.3242 379.258 83.3008 379.258 83.8867C379.258 86.1328 381.406 88.8672 383.945 89.8438L386.582 90.918L382.285 92.5781C379.062 93.9453 378.379 94.4336 379.648 94.9219C380.625 95.3125 382.188 95.6055 383.164 95.6055C384.531 95.6055 386.094 97.3633 386.094 99.0234C386.094 99.1211 384.824 99.8047 383.262 100.488C380.234 101.758 378.477 104.883 378.086 110.156C377.695 114.453 374.57 115.82 371.25 113.184C369.98 112.207 366.758 111.133 364.121 110.742C355.723 109.668 354.844 109.277 352.891 106.152L351.035 103.125L348.984 106.641C345.859 111.914 342.539 111.621 338.828 105.859C337.363 103.418 335.215 100.977 334.238 100.391C333.164 99.9023 331.309 97.7539 330.039 95.8008C328.086 92.7734 326.523 91.7969 319.883 89.3555C312.461 86.8164 311.875 86.4258 311.484 83.4961C309.238 69.1406 308.848 67.7734 306.504 65.332C304.941 63.7695 304.062 61.6211 304.062 59.7656C304.062 57.1289 304.453 56.6406 306.992 56.0547C308.652 55.6641 309.922 55.0781 309.922 54.7852C309.922 54.3945 308.164 53.0273 306.016 51.6602C303.574 50.1953 301.719 48.0469 301.133 46.1914C300.352 43.8477 299.082 42.7734 295.664 41.4062C293.223 40.5273 290.781 38.8672 290.098 37.8906C289.414 36.7188 287.852 36.0352 285.996 36.0352C283.555 36.0352 282.578 36.8164 280.625 40.0391C277.891 44.4336 277.891 46.2891 280.918 49.4141C282.285 50.9766 284.043 51.6602 286.582 51.6602C290.098 51.6602 290.293 51.8555 290.879 55.5664C291.27 58.1055 292.148 59.5703 293.418 59.9609C294.395 60.3516 295.273 61.4258 295.273 62.4023C295.273 63.4766 296.348 65.0391 297.715 65.918C299.082 66.7969 299.961 67.8711 299.668 68.2617C298.789 69.6289 292.051 70.1172 287.363 69.1406C283.555 68.3594 282.285 67.4805 280.723 64.7461C278.672 61.2305 276.23 60.5469 272.715 62.4023C271.543 63.0859 270.859 64.4531 270.859 66.3086C270.859 67.9688 270.664 69.2383 270.469 69.2383C270.371 69.2383 268.809 68.75 267.246 68.1641C265.098 67.4805 264.121 66.4062 263.633 64.3555C263.34 62.793 261.973 60.7422 260.605 59.8633C258.164 58.3008 257.773 58.3008 251.035 60.6445C247.129 62.1094 243.223 63.4766 242.344 63.8672C240.977 64.4531 240.586 64.0625 240.586 62.3047C240.684 60.6445 242.246 58.7891 245.957 56.0547C248.887 53.9062 251.328 51.7578 251.328 51.3672C251.328 50.9766 249.766 49.707 247.91 48.6328C243.711 46.1914 242.246 43.75 243.027 40.625C243.613 38.5742 243.125 38.0859 239.219 36.6211C236.777 35.6445 233.75 33.6914 232.48 32.2266C231.211 30.6641 228.477 28.9062 226.328 28.2227C221.543 26.6602 214.707 21.582 213.34 18.6523C212.656 17.1875 211.484 16.5039 209.434 16.5039C205.82 16.5039 204.453 14.3555 203.086 6.05469L202.012 0L197.91 6.25Z" fill="white"/>
<path d="M534.727 659.082C532.969 659.473 531.406 659.961 531.211 660.156C531.016 660.352 529.355 665.234 527.402 670.996L523.984 681.348L526.23 684.668C528.672 688.184 534.043 692.285 539.121 694.238C542.051 695.312 542.344 695.996 544.102 703.809C547.91 720.41 548.398 724.316 548.008 735.449L547.617 746.484L543.418 752.441C539.512 758.008 539.219 758.984 538.438 767.09C538.047 772.266 536.875 777.637 535.605 780.469C534.531 783.105 533.555 785.449 533.555 785.742C533.555 786.816 538.145 784.668 540.781 782.227C543.711 779.59 543.613 780.078 539.707 786.23L537.461 789.941L540.195 791.309C542.93 792.773 543.125 792.676 547.52 788.184C550.156 785.547 552.109 782.617 552.109 781.445C552.109 779.785 552.988 779.004 555.918 778.223C557.969 777.734 561.484 775.586 563.73 773.535C567.637 770.117 568.027 769.336 571.25 756.738C574.668 743.359 576.328 733.203 577.109 719.141L577.598 711.328L571.25 702.148C567.051 696.094 564.805 691.894 564.805 690.137C564.805 688.086 564.316 687.402 562.949 687.402C561.777 687.402 560.898 686.523 560.508 684.961C560.02 683.008 559.238 682.519 556.992 682.519C553.477 682.519 551.133 678.711 551.133 672.754C551.133 669.824 550.254 667.48 548.203 664.355C543.906 658.105 541.953 657.324 534.727 659.082Z" fill="white"/>
<path d="M663.438 684.57C663.438 685.938 662.559 689.648 661.387 692.871C659.043 699.707 659.336 705.469 662.363 709.766C663.535 711.426 665.195 714.941 665.977 717.578C667.93 724.219 674.57 729.883 679.062 728.906C684.629 727.734 687.168 720.312 684.629 712.988C682.383 706.543 674.277 693.75 668.613 687.5C663.926 682.422 663.535 682.227 663.438 684.57Z" fill="white"/>
<path d="M608.652 707.129C608.652 710.547 608.262 722.461 607.871 733.789C607.188 752.93 606.895 754.883 604.258 762.305C602.695 766.699 601.719 770.508 602.012 770.898C603.574 772.363 607.578 769.922 610.02 766.016C611.875 763.086 613.926 761.328 616.855 760.156C626.328 756.445 628.867 750.391 625.449 739.941C624.375 736.523 622.617 730.664 621.445 726.758C620.176 722.168 617.93 717.773 615.098 713.867C611.875 709.473 610.703 707.031 610.703 704.492C610.703 702.637 610.312 701.074 609.727 701.074C609.141 701.074 608.75 703.809 608.652 707.129Z" fill="white"/>
<path d="M623.887 713.477C624.18 715.039 624.766 717.676 625.059 719.336C625.645 723.34 626.426 723.34 628.574 719.727C630.82 715.82 629.258 710.84 625.645 710.84C623.398 710.84 623.203 711.133 623.887 713.477Z" fill="white"/>
<path d="M530.918 764.453C528.086 765.82 525.059 767.969 524.18 769.238C523.398 770.41 520.957 772.266 518.809 773.438C516.074 774.805 515 775.879 515.391 776.855C515.684 777.734 515.977 778.809 515.977 779.395C515.977 779.98 517.246 780.176 519.395 779.785C523.594 779.004 523.887 780.371 520.273 784.18C517.051 787.5 517.734 789.941 521.738 789.941C525.547 789.941 527.5 786.328 528.77 777.539C529.258 774.121 530.234 770.117 531.016 768.652L532.383 766.016L533.848 769.434L535.215 772.852L535.996 768.262C536.387 765.723 536.484 763.281 536.387 762.793C536.191 762.207 533.652 762.988 530.918 764.453Z" fill="white"/>
<path d="M497.715 783.203C496.152 783.789 495.371 785.352 494.492 789.648C493.906 792.773 492.344 797.559 491.074 800.195C489.121 804.59 488.926 805.762 489.805 810.742C490.781 816.211 490.879 816.406 492.637 814.746C493.613 813.867 494.492 812.402 494.492 811.523C494.492 810.645 496.055 806.738 497.91 802.734C500.742 796.973 501.328 794.531 501.328 789.453C501.328 786.035 501.035 783.008 500.645 782.812C500.156 782.52 498.887 782.715 497.715 783.203Z" fill="white"/>
<path d="M506.992 783.301L503.379 784.277L507.48 792.676L504.844 795.898C501.914 799.414 501.621 804.199 504.453 805.859C505.625 806.641 506.797 806.348 509.531 804.199C516.367 799.023 517.734 792.578 513.438 786.035C511.973 783.887 510.801 782.129 510.703 782.227C510.703 782.324 508.945 782.715 506.992 783.301Z" fill="white"/>
<circle id="57" cx="532" cy="487" fill="#5CE50D"/>
<circle id="1591" cx="350" cy="287" fill="#E52A0D"/>
<circle id="59" cx="400" cy="669" fill="#E52A0D"/>
<circle id="58" cx="737" cy="729" fill="#E52A0D"/>
</svg>
