<svg width="1000" height="1000" viewBox="0 0 1000 1000" fill="none" xmlns="http://www.w3.org/2000/svg">
<path d="M575.684 91.3105C575.195 91.5059 572.852 92.1895 570.508 92.7754C566.797 93.752 565.82 94.6309 562.012 100.393C559.375 104.494 556.25 107.814 553.809 109.377C548.828 112.404 544.531 118.264 545.312 120.9C546.387 124.318 543.848 125.197 537.402 123.732C534.277 122.951 530.273 121.584 528.613 120.705C523.535 118.166 519.824 118.654 518.066 122.072L516.504 125.1L514.16 122.17C510.937 118.459 511.035 113.967 514.16 109.768C516.602 106.545 517.09 104.104 516.016 101.174C514.746 97.8535 504.395 99.709 495.312 104.885C492.285 106.643 487.207 108.596 484.082 109.279C479.59 110.256 478.516 110.842 478.906 112.111C480.664 117.971 480.566 119.143 478.613 121.975C477.441 123.537 476.562 125.1 476.562 125.49C476.562 125.783 478.32 128.127 480.371 130.666C483.984 135.061 487.305 142.482 487.305 146.389C487.305 147.365 486.23 148.732 484.863 149.416C481.836 151.076 469.434 149.221 465.82 146.584C464.453 145.607 461.523 143.85 459.277 142.678C455.273 140.725 454.98 140.725 448.633 142.189C440.039 144.143 434.668 147.854 434.57 151.857C434.57 153.42 433.301 156.936 431.836 159.572C429.687 163.479 426.758 166.213 416.211 173.928C409.18 179.104 401.465 185.061 399.121 187.111C395.898 190.139 393.164 191.408 386.719 193.264C378.906 195.412 378.027 195.998 371.582 202.248C364.746 208.986 364.648 208.986 359.277 208.986C355.078 208.986 353.418 209.475 352.051 210.939C349.805 213.479 349.219 213.381 345.215 210.354C342.09 208.01 341.504 207.912 336.426 208.693C331.25 209.67 330.859 209.572 327.051 206.74L323.145 203.811L323.73 189.455L316.406 187.111C312.402 185.842 307.52 184.572 305.566 184.279C303.711 183.986 299.316 182.033 295.996 179.787C292.383 177.443 287.695 175.393 284.375 174.709C281.348 174.123 277.344 172.561 275.586 171.389L272.266 169.143L262.891 173.635C257.715 176.076 253.027 178.518 252.637 179.104C252.246 179.689 252.148 182.619 252.441 185.549C252.734 188.479 252.637 191.408 252.148 191.994C250.781 194.045 241.504 194.436 232.715 192.775C224.707 191.311 223.926 190.92 220.703 187.209C215.723 181.545 214.941 179.689 214.844 174.611C214.844 172.072 214.16 168.459 213.281 166.604C211.816 163.576 211.816 162.6 212.988 157.521C214.453 151.369 214.355 140.627 212.793 140.627C212.305 140.627 208.496 142.58 204.297 145.021C199.219 147.951 193.652 150.1 187.012 151.76C181.641 153.127 174.512 155.275 171.191 156.643C167.773 157.912 160.352 159.768 154.59 160.646C148.73 161.525 143.164 162.6 142.09 163.088C140.918 163.479 131.543 170.119 121.094 177.834C107.227 188.088 91.6016 198.146 63.4766 214.943C42.2852 227.639 19.3359 241.018 12.5 244.533L0 251.076V256.545C0 259.572 1.17187 268.361 2.63672 275.979L5.27344 289.943L9.47266 290.627C13.4766 291.213 13.8672 291.604 18.0664 298.439C20.5078 302.443 22.4609 306.057 22.4609 306.447C22.4609 306.838 20.2148 309.377 17.4805 312.014L12.5 316.896L12.9883 329.201C13.4766 339.943 13.2812 341.994 11.6211 345.705L9.66797 349.904L12.5977 352.932C14.2578 354.689 16.0156 358.01 16.6992 360.646C17.2852 363.186 18.1641 365.432 18.5547 365.725C18.9453 366.018 22.4609 365.041 26.3672 363.576L33.4961 360.939L36.7187 364.65C38.4766 366.604 41.0156 370.998 42.4805 374.416C44.5312 379.201 45.7031 380.764 48.0469 381.643C50.7812 382.619 50.9766 382.912 50.293 386.623L49.6094 390.529L53.6133 391.213C57.5195 391.799 57.6172 391.994 57.6172 395.607C57.6172 399.221 57.7148 399.318 62.6953 400.783C65.5273 401.564 70.0195 402.736 72.6562 403.42C75.7812 404.201 79.3945 406.252 83.2031 409.377C86.4258 412.111 89.1601 414.064 89.2578 413.869C91.6016 411.037 96.6797 399.807 97.168 396.389L97.8516 391.994L107.617 390.334C113.086 389.357 120.117 387.307 123.633 385.744C128.027 383.791 130.859 383.01 132.812 383.498C134.961 383.889 137.207 383.107 142.187 380.373L148.828 376.662L151.855 380.178C153.613 382.131 157.52 388.967 160.645 395.314L166.406 406.936L171.777 408.303C178.711 410.061 178.906 410.939 178.125 431.838C177.441 448.146 177.441 448.244 179.883 451.857C183.691 457.717 185.547 464.455 185.547 472.658V480.08L207.812 500.979H212.891C218.848 500.979 225.293 497.951 234.082 491.115C241.602 485.256 243.848 484.963 244.727 489.846C245.117 491.799 244.922 495.314 244.434 497.658C243.848 500.002 243.652 502.15 243.945 502.443C244.238 502.736 248.535 502.932 253.516 502.932C264.648 502.932 274.512 506.057 281.348 511.818C285.254 515.041 286.035 516.311 287.012 521.096C288.477 528.811 288.379 541.408 286.621 547.854C284.18 556.838 284.668 562.111 288.184 566.506C289.844 568.654 291.797 572.268 292.48 574.514C293.164 576.76 294.336 578.713 295.215 578.908C297.656 579.396 303.613 573.342 306.738 567.189L309.57 561.525H335.645L340.137 565.041L344.727 568.654L354.883 568.166C362.109 567.775 366.211 566.994 369.629 565.529C372.266 564.357 376.27 563.479 378.906 563.479C383.008 563.479 383.691 563.771 384.668 566.115C385.352 567.678 387.988 570.314 390.723 572.17C397.559 576.857 402.051 582.424 404.004 588.674C405.371 592.971 406.445 594.436 409.473 596.389C415.82 600.393 416.016 600.295 416.016 595.412C416.016 592.971 416.406 590.725 416.797 590.432C417.187 590.139 419.336 590.334 421.484 590.822C424.121 591.408 426.367 592.971 428.906 595.9C430.957 598.244 432.52 600.295 432.52 600.588C432.52 600.881 428.418 604.201 423.437 608.107L414.355 615.139L413.77 624.904C413.281 634.084 412.988 635.256 409.277 642.189C407.031 646.291 405.371 649.807 405.469 649.904C410.352 653.225 413.477 654.299 417.773 654.299H422.754L423.926 659.963C424.707 663.869 426.074 666.506 428.32 668.947C430.469 671.193 431.738 673.732 432.227 676.467L432.812 680.568L427.148 680.861C421.484 681.154 421.484 681.154 420.605 684.67C419.922 687.6 419.043 688.479 414.453 690.725C409.375 693.264 409.18 693.459 409.18 697.268C409.18 700.197 409.863 701.955 412.305 704.689C414.844 707.521 415.137 708.4 413.965 709.084C409.766 711.623 409.863 711.525 411.621 714.65C413.184 717.287 413.867 717.58 420.117 717.971C425.879 718.459 427.344 718.947 429.785 721.291C432.617 724.025 432.715 724.025 438.281 722.854C448.047 720.803 456.055 721.291 460.156 724.123C466.895 728.713 476.367 731.545 486.523 732.131L495.996 732.717L502.148 728.811C510.84 723.244 515.137 721.193 522.949 718.654C526.758 717.482 532.031 715.041 534.863 713.283C537.598 711.525 541.504 709.768 543.359 709.377C546.387 708.889 546.973 708.303 547.852 704.982C548.34 702.932 549.316 699.416 549.805 697.268C550.391 695.119 551.66 691.896 552.734 690.139C554.297 687.404 554.394 686.232 553.516 680.861C552.344 673.244 553.418 671.291 561.523 666.213C566.406 663.088 567.383 661.916 568.945 657.619C570.41 653.127 571.191 652.346 575.781 650.1C579.883 648.049 581.445 646.584 583.301 643.068L585.547 638.576L589.844 641.994C593.848 645.119 594.824 645.51 600.391 645.51H606.641L603.223 651.564L599.902 657.717L601.66 662.111C602.637 664.553 603.418 666.799 603.418 667.189C603.516 667.58 601.562 668.459 599.121 669.045L594.727 670.119V676.174C594.727 679.787 593.945 684.182 592.773 687.307C591.406 690.92 590.82 694.729 590.82 700.393V708.303L586.328 713.479C582.519 717.971 581.934 719.24 582.227 722.365C582.519 725.979 582.617 726.076 589.062 728.029C598.535 730.861 601.465 734.475 601.562 743.264C601.562 753.908 600.879 755.764 596.094 758.107C590.527 760.744 590.625 762.697 596.289 768.459C600.293 772.463 600.879 773.537 601.269 778.322C601.758 782.912 601.465 783.986 599.707 785.549C598.437 786.721 597.656 788.576 597.656 790.529V793.752L606.25 794.338C613.184 794.924 615.918 794.631 621.289 793.068L627.734 791.213L632.812 794.631C635.547 796.486 640.234 798.83 643.066 799.807C645.996 800.783 650.195 802.736 652.539 804.006C654.883 805.373 658.301 806.74 660.254 807.033C663.477 807.619 664.062 808.205 666.309 813.283C667.676 816.311 669.238 820.021 669.824 821.486C670.703 823.732 671.484 824.221 674.023 824.221C677.051 824.221 677.441 824.611 679.199 829.299L681.25 834.475L688.379 835.842C695.117 837.111 695.898 837.111 701.562 835.061C704.785 833.889 707.812 833.01 708.203 833.01C709.18 833.01 719.727 846.193 719.727 847.365C719.727 847.854 718.652 849.318 717.285 850.588C714.746 852.932 714.648 854.299 716.406 860.451C717.09 862.99 724.219 863.283 729.199 861.135L733.301 859.377L738.965 862.99C742.09 865.041 746.484 867.58 748.828 868.557C752.734 870.314 752.93 870.607 752.93 874.514C752.93 880.275 755.762 892.678 757.617 894.729C758.691 895.998 758.887 897.658 758.496 900.783C757.91 904.592 758.105 905.373 759.961 906.74C763.672 909.279 769.531 908.498 778.613 904.299C783.203 902.15 787.598 900.393 788.379 900.393C789.16 900.393 791.016 902.346 792.383 904.787C794.336 908.01 795.605 909.182 797.363 909.182C799.414 909.182 799.805 908.498 801.269 902.248C802.539 896.584 804.687 890.529 806.152 888.869C806.836 888.088 819.238 894.631 821.191 896.877C823.144 898.928 824.414 899.416 828.223 899.416H832.91L833.984 895.217C834.57 892.971 835.254 890.529 835.449 889.846C835.742 889.162 837.5 888.674 839.746 888.674C843.262 888.674 843.75 888.967 844.922 892.092C846.094 895.412 846.387 895.607 850 895.314C853.125 895.119 854.394 894.24 857.519 890.529C861.133 886.33 861.426 885.646 862.793 874.611C864.551 861.33 868.164 852.248 871.875 851.76C873.73 851.467 873.144 850.686 867.676 845.998C860.84 840.139 861.133 841.115 863.477 831.74C865.234 824.611 862.402 820.412 855.859 820.314C854.199 820.314 853.516 819.24 852.148 814.162C851.172 810.549 849.316 806.936 847.656 805.178C846.094 803.518 844.141 799.807 843.262 796.389C842.285 793.166 841.406 790.236 841.113 789.846C840.918 789.455 838.574 790.139 835.937 791.506C833.301 792.873 830.859 793.947 830.566 793.947C829.687 793.947 830.078 778.225 831.055 770.998C831.836 765.529 832.519 763.771 834.473 762.404C835.84 761.428 836.914 760.256 836.914 759.865C836.914 759.377 834.57 757.521 831.641 755.568L826.465 752.15L827.148 747.854C828.223 741.604 833.398 730.959 837.109 727.639C838.867 725.979 842.578 723.732 845.312 722.658C848.926 721.193 850.879 719.631 852.148 717.287C853.906 714.064 853.906 713.869 851.66 709.084C848.73 703.029 849.414 700.393 854.492 697.268L858.398 694.826V687.99C858.398 682.033 858.789 680.568 860.937 677.639C862.305 675.783 864.453 672.17 865.723 669.631C867.285 666.213 870.41 662.893 876.562 657.619C887.793 648.049 888.281 647.463 889.062 641.701C889.648 637.6 890.234 636.428 893.457 633.889C899.316 629.201 902.441 629.885 904.199 636.232C906.055 642.678 907.519 644.045 911.816 642.971C915.039 642.189 915.527 641.604 916.504 637.697C917.383 633.986 917.969 633.303 920.117 633.01C922.656 632.717 922.754 632.912 923.926 639.943C924.805 645.021 925.879 648.146 927.637 650.295L930.176 653.42L933.496 647.854L936.719 642.385L934.668 638.576L932.519 634.865L935.254 634.182C940.039 633.205 940.332 633.01 942.871 629.006C945.996 623.928 945.996 623.049 942.383 619.631C940.332 617.678 939.453 615.92 939.453 613.869C939.453 611.232 940.137 610.549 944.629 608.107C948.535 606.057 950.098 604.592 951.367 601.564L952.93 597.756L966.211 597.17L969.336 585.939L972.363 574.709L978.125 574.807C981.348 574.904 986.523 575.295 989.746 575.686C995.508 576.369 995.605 576.369 997.852 573.342C1000 570.412 1000.1 569.924 998.926 564.846C997.754 559.572 997.559 559.377 991.113 555.666L984.57 551.76L985.059 547.658C985.449 545.314 987.793 538.479 990.43 532.424C993.066 526.467 995.019 521.096 994.727 520.705C994.531 520.314 992.09 518.947 989.355 517.678C984.57 515.334 984.57 515.334 982.715 507.912L980.859 500.49L974.609 499.318C965.234 497.561 961.133 497.756 957.324 500.1L953.906 502.248L942.187 490.529L943.652 485.549C944.434 482.814 944.824 480.275 944.531 479.982C944.238 479.689 942.773 479.494 941.211 479.494C939.453 479.494 938.477 479.006 938.477 478.029C938.477 474.611 941.309 471.389 948.828 466.408C954.98 462.307 957.812 459.67 960.449 455.471C962.402 452.443 963.867 449.807 963.672 449.709C963.184 449.221 951.953 446.486 947.461 445.803C943.945 445.217 942.871 445.412 941.016 447.17L938.769 449.318L938.086 442.482C937.5 436.232 936.914 434.768 930.859 425.1C924.609 415.041 924.023 414.455 917.969 411.428C912.5 408.693 910.937 408.303 906.641 408.791L901.66 409.377L899.512 404.396C898.047 400.979 896.777 399.318 895.215 399.025C882.227 396.193 872.461 394.631 870.703 395.119C869.141 395.51 868.262 394.924 866.894 392.58L865.137 389.553L861.328 392.58L857.617 395.51L851.953 393.557C846.387 391.604 846.191 391.604 844.434 393.361C842.676 395.217 842.48 395.217 837.598 392.482L832.519 389.748L828.125 393.947C824.902 397.17 822.559 398.537 819.043 399.221C814.551 400.1 814.355 400.1 812.988 397.463C811.719 395.021 811.719 394.143 813.086 390.236L814.648 385.744L811.426 380.568C809.57 377.834 805.859 373.342 803.027 370.705C797.949 366.115 797.852 365.92 797.852 360.451C797.852 357.326 798.535 352.834 799.414 350.393C800.879 345.998 800.977 345.9 806.152 345.217C811.914 344.533 811.914 344.533 812.891 336.916L813.574 332.521L817.383 332.814L821.191 333.205L821.875 328.225C822.461 323.83 822.949 322.951 826.074 321.096C828.027 319.924 829.687 318.947 829.883 318.85C830.078 318.654 829.394 316.799 828.516 314.455C826.953 310.549 826.66 310.451 823.633 310.939C820.996 311.525 820.312 311.232 819.824 309.475C819.434 308.303 819.531 307.131 820.117 306.74C830.273 300.393 830.859 299.611 832.031 293.264C833.008 287.404 832.91 286.916 830.664 283.498L828.125 279.885L830.469 276.955C831.738 275.295 834.18 273.244 836.035 272.365C839.16 270.803 839.355 270.412 839.844 264.553L840.332 258.303L844.531 257.424C849.219 256.447 849.609 255.178 846.191 251.955C843.066 249.025 842.871 243.068 845.703 238.771C846.777 237.111 847.656 234.475 847.656 232.814V229.689L840.82 229.006L833.887 228.322L830.566 223.049C826.66 216.896 825.781 216.701 815.918 219.826C807.91 222.268 805.469 221.779 800.293 216.896C797.852 214.455 795.019 212.893 792.773 212.502C787.5 211.525 778.32 207.131 778.32 205.471C778.32 202.053 771.191 182.619 768.848 179.396C764.941 174.416 760.644 173.83 753.809 177.346C744.336 182.131 738.574 183.596 729.492 183.596H720.898L713.867 191.408L708.496 188.967C703.418 186.721 702.832 186.721 699.121 187.99C695.605 189.26 691.602 189.162 689.258 187.795C688.867 187.6 689.844 183.889 691.406 179.592L694.238 171.877L691.602 170.51C690.137 169.826 684.473 168.85 678.906 168.459C667.09 167.678 666.016 166.799 666.016 158.4C666.016 153.225 665.918 153.029 659.668 146.584C653.516 140.236 653.32 139.846 653.32 134.963C653.32 131.74 654.297 127.639 655.859 123.732L658.398 117.58L656.152 112.795C654.297 108.986 652.246 106.936 646.289 102.834L638.769 97.5605L637.402 100.295C636.621 101.76 635.644 105.275 635.352 108.01C634.473 113.869 631.445 118.068 621.191 127.15C614.062 133.498 613.965 133.498 610.254 132.521C607.519 131.838 605.859 130.666 604.394 128.322C603.32 126.467 602.246 125.002 602.148 125.002C602.051 125.002 597.559 126.467 592.187 128.322C582.617 131.545 582.324 131.545 579.199 129.885C576.074 128.322 573.34 124.904 573.242 122.463C573.242 121.975 574.512 120.51 576.172 119.338L579.102 117.189L583.008 119.631C585.156 120.998 587.305 122.072 587.695 122.072C588.574 122.072 589.844 110.646 589.844 102.834C589.844 96.7793 587.5 93.0684 583.105 92.2871C581.152 91.9941 578.906 91.5059 578.125 91.3105C577.344 91.1152 576.269 91.1152 575.684 91.3105Z" fill="white"/>
<circle id="71" cx="500" cy="404" fill="#5CE50D"/>
<circle id="69" cx="500" cy="212" fill="#E52A0D"/>
<circle id="72" cx="813" cy="470" fill="#E52A0D"/>
<circle id="70" cx="303" cy="242" fill="#E52A0D"/>
</svg>
