<svg width="1000" height="1000" viewBox="0 0 1000 1000" fill="none" xmlns="http://www.w3.org/2000/svg">
<path fill-rule="evenodd" clip-rule="evenodd" d="M15.3506 728.588L15.469 728.47L15.5875 728.233L15.469 727.996L15.5875 727.641V727.522L16.0612 726.93L16.1797 726.575V726.457H16.2981L16.535 726.338L16.2981 725.983L16.4165 725.509V725.391H16.1797L16.0612 725.272V725.154L15.9428 725.035V724.798H16.1797V724.68L16.6534 724.562L16.535 724.088V723.732L17.0087 723.614L17.2456 723.377V723.022H17.1272L16.8903 722.903L17.2456 722.548L17.4825 722.43H17.7194L17.8378 722.311L17.7194 721.601L17.8378 721.364V721.245L18.3115 721.482L18.43 721.008H18.3115L18.0747 720.653L18.1931 720.416L18.43 720.179V719.824L18.6669 719.706V719.469L18.5484 719.35L18.6669 719.232L18.7853 718.876L19.1406 718.521L19.6144 718.403L19.4959 718.047H19.6144L19.7328 717.81V717.337L19.4959 717.1L19.8512 716.863L19.9697 716.626L20.0881 716.508V716.271L20.2066 715.915H20.325V714.85L20.4434 714.613L20.325 714.376H20.4434L20.5619 714.139L20.9172 713.784V713.665L21.3909 713.428L21.7463 713.31L22.22 712.955V712.718H22.1016L21.9831 712.244L21.7463 711.77V711.415L21.5094 711.06V710.941L21.3909 710.823V710.112L21.1541 709.757V709.52H20.9172L21.0356 709.283L20.9172 709.164L21.1541 708.928H21.3909L21.5094 708.809H21.7463V708.217L21.8647 708.099L21.7463 707.625L21.8647 707.269L21.5094 707.151L21.2725 706.796L20.9172 706.44L20.5619 706.559H20.325L20.0881 706.44V706.322L20.325 706.085L20.2066 705.848L20.0881 705.73V705.138L19.6144 704.901V704.664H19.4959L19.7328 704.427L20.0881 704.545L20.2066 704.427L20.4434 704.072L21.0356 703.598L21.1541 703.479V703.124L21.5094 702.887L21.6278 702.532V701.229L21.5094 700.874L21.3909 699.571V698.387L21.5094 698.031V697.676L21.3909 696.965L21.2725 695.663V695.307L21.3909 694.833L21.6278 694.478L21.8647 693.531V692.938L21.6278 692.465L21.5094 691.636L21.6278 691.28L21.7463 690.688V690.333L21.8647 689.859L21.9831 689.504L22.4569 688.912L22.22 688.319L21.9831 687.846L21.7463 687.727H21.0356L20.9172 687.017L21.0356 686.78H21.6278L22.1016 686.898L22.8122 687.017L23.6413 686.898L24.7072 686.069L25.0625 685.951L25.181 685.714L25.4178 685.358L25.5363 685.003V684.056L25.6547 683.582L25.7732 683.227L26.1285 682.634L26.3653 682.397L26.7207 681.332L26.8391 680.739L27.3129 680.029V679.555L27.4313 679.318L27.905 679.2V679.081L27.7866 678.371V678.015L27.905 677.66L28.2604 677.305L28.7341 676.594L28.8526 676.239V675.883L28.6157 675.41L27.7866 674.581L27.5497 674.225L27.4313 673.751L27.1944 673.041V672.922L25.2994 671.975L24.9441 671.738L24.3519 671.146L23.9966 671.027L23.6413 670.791L23.0491 670.317L22.9306 669.961L23.4044 669.606L23.5228 669.369L23.6413 668.896V667.474L23.5228 667.356V667L23.4044 666.29L23.286 666.053L23.0491 665.698V665.579L22.9306 665.461V665.105L22.5753 664.75L22.4569 664.276V663.21L22.3384 662.855L22.4569 662.263L22.5753 661.908L22.8122 661.315L22.9306 660.96L22.8122 660.723L22.4569 660.249L22.3384 660.131L22.22 659.894L21.9831 659.776H21.6278L21.3909 660.013L21.0356 660.131L20.2066 660.486L19.9697 660.605L19.6144 660.723L19.4959 660.842L19.0222 660.96L18.43 661.079L18.0747 660.96H17.8378L17.9562 660.842V660.368L18.1931 660.131L18.43 659.657L18.6669 659.42L18.7853 659.184L19.2591 658.473V658.236L19.3775 658.118V657.881H19.4959V657.644L19.6144 657.289L19.9697 656.696V656.459L20.0881 655.986L20.2066 655.63L19.9697 655.275L20.0881 655.157L19.9697 654.92L19.7328 654.683L19.3775 654.209L18.7853 652.906L18.5484 651.959L18.43 651.603V651.011L18.3115 648.998V647.34L18.5484 647.221H18.9037L19.8512 647.103H21.0356L25.7732 645.918L27.076 645.563L28.7341 645.208L30.1554 644.971L31.3398 644.497L32.2873 644.023L32.8795 643.668L33.7085 643.194L35.3667 642.01L36.1957 641.536L36.7879 641.062L37.3801 640.47L37.9723 639.76L38.3276 638.694L38.4461 637.865L38.3276 636.917L38.2092 635.496L38.0907 635.022V634.193L38.2092 632.653L38.4461 631.943L38.9198 631.351L39.512 630.877L40.9333 630.048L41.5255 629.692L42.2361 629.219L43.0652 628.982L44.0127 628.626L45.0786 628.39L45.7892 628.034L46.3814 627.679L46.8552 627.324L47.0921 626.613L47.3289 626.021V624.363L47.0921 622.231L46.9736 619.744L46.7367 617.493V614.414L46.8552 612.874L47.2105 611.69L47.5658 610.15L48.158 608.729L48.5133 608.255H48.6318L48.9871 608.374L49.1055 608.255L49.5793 608.018V607.9L49.9346 607.781L50.053 607.544L50.6452 606.952L51.0005 606.834L51.2374 606.597V606.478L51.4743 606.242L51.7112 606.36L51.8296 606.123V605.768L52.3033 605.413H52.7771V605.294L53.2508 605.176L53.6062 604.583L53.843 604.228L53.7246 603.991L53.843 603.636L53.7246 603.281L53.6062 602.807L53.7246 602.57L53.6062 602.452V602.215L53.4877 602.096L53.2508 601.622L53.014 601.386V601.149L52.8955 600.912L52.4218 600.675L52.5402 600.32L52.6587 600.083V599.846L52.5402 599.609L52.7771 599.491V599.017H52.8955L53.1324 598.898L53.014 598.662L53.2508 598.543V598.306L53.1324 598.188L53.014 597.951H53.1324L53.2508 597.714H53.4877V597.596L53.6062 597.477L53.2508 597.122L53.3693 596.885L53.1324 596.648L53.014 596.411L52.8955 596.293L52.7771 596.056L52.4218 595.701L52.8955 595.227L52.7771 595.108L52.8955 594.872H52.7771V594.279L53.014 594.042L53.1324 593.687L53.014 593.569L53.2508 593.45L53.1324 593.213L53.2508 592.858L53.3693 592.384L53.2508 592.266L53.4877 592.029L53.3693 591.911L53.4877 591.792L53.6062 591.911L53.7246 591.555H53.6062L53.4877 591.2L53.2508 591.318L53.014 590.845L53.1324 590.608H52.8955V590.134L52.7771 590.016L52.5402 589.66L52.6587 589.542V589.423L52.4218 589.305L52.1849 589.068L51.948 588.594L51.8296 588.121V587.765H51.948L51.8296 587.528V587.055L51.7112 586.936V586.462L51.8296 585.989L51.5927 585.633V585.396L51.3558 585.278L51.119 584.923L51.0005 584.686L50.6452 584.567V584.331L50.5268 584.212H50.4083L50.2899 583.975H50.053L49.8161 583.857L49.6977 583.62V583.146L49.5793 582.791H49.3424L49.2239 582.554H49.1055L48.9871 582.436H48.8686L48.7502 582.317H48.3949L48.2764 582.199L48.158 582.317V582.436L47.9211 582.317L47.6842 582.554L47.4474 582.436L47.3289 582.317L47.2105 582.436H47.0921L46.9736 582.199H46.8552L46.6183 582.436L46.4999 582.199L46.0261 582.317L45.9077 582.199L45.6708 582.436H45.5524L44.9602 582.554V582.672H44.6049L44.4864 582.436H44.2495L44.1311 582.317H44.0127V582.199H43.7758L43.6573 581.962L43.302 581.606H43.0652L42.5914 581.133H42.3545V580.896H42.1176L41.9992 580.777L42.2361 580.659V580.304L42.3545 579.948L42.2361 579.711L42.3545 579.593L42.2361 579.356L42.3545 578.882H42.7098L42.9467 578.764V578.527L42.8283 578.409L43.0652 578.29V578.053L43.302 577.935V577.58L43.6573 577.224V576.987L43.5389 576.869L43.6573 576.75L43.7758 576.514L43.6573 576.395V576.158L44.0127 576.04L44.1311 575.685L44.368 575.566L44.4864 575.211V575.092L44.7233 574.974L44.9602 574.619L45.0786 574.263V573.789L45.3155 573.553V573.316L45.5524 572.96H45.6708V572.724L45.5524 572.605L45.4339 572.25V571.895H45.5524L45.4339 571.421V571.065H45.5524V570.71L45.3155 570.592L45.0786 569.644L44.9602 569.526V569.407L45.197 569.17L45.4339 569.052L45.5524 568.934V568.697H45.3155L45.197 568.46L45.4339 568.223L45.5524 567.986L45.7892 566.92V566.683L46.263 566.209L46.3814 565.854V565.025L46.4999 564.551L46.3814 564.196L46.263 564.078L46.1445 563.841V563.367L46.3814 563.012V562.538L46.263 562.419L45.6708 562.656H45.5524L45.197 562.893L44.4864 563.249H44.368L44.2495 563.012H44.1311L44.0127 562.893L43.5389 562.775L43.0652 562.538L42.9467 562.183L42.5914 562.064L42.3545 562.183V561.709L42.1176 561.472L42.3545 561.235H42.5914L42.7098 561.353L43.0652 561.472L43.1836 561.353L43.302 560.761H43.0652L42.9467 560.524L42.7098 560.406L42.5914 560.051V559.814H42.473L42.2361 559.932H41.9992L41.8808 559.814H41.407L41.2886 559.695V559.458L41.407 559.34V559.222H41.2886L40.9333 559.458L40.8148 559.577L40.6964 559.34V559.103L40.8148 558.866H40.9333V558.748H40.6964L40.1042 558.629L39.7489 558.511L39.512 558.629L39.2751 558.393L38.9198 557.919L38.6829 558.037L38.4461 557.682V557.563H38.6829V557.208L38.3276 557.327L38.0907 557.445L38.2092 557.563L38.0907 557.8H37.8539L37.617 557.682L37.4986 557.8V558.037L37.2617 558.156L37.0248 558.037V557.327L36.7879 557.208L36.551 557.327L36.4326 557.563L36.551 557.919H36.4326L36.0773 557.682V557.327L36.1957 556.971L35.9589 556.853L35.722 556.971L35.2482 557.682L35.1298 557.919L35.3667 558.156H35.6035V558.274L35.3667 558.511L35.1298 558.274H34.8929L34.7745 557.8L34.4192 557.327H34.1823L34.0638 557.445V557.682H33.9454L33.827 557.445L33.4716 557.327H33.1163V557.09L33.4716 556.971L33.5901 556.734L33.4716 556.616L33.3532 556.734L33.1163 556.616V556.379L32.9979 556.261L32.6426 556.379L32.1688 556.616V556.498L32.0504 556.142H31.9319L31.8135 555.905L31.6951 555.432L31.4582 555.313L31.3398 555.55L30.9844 555.668L30.7476 555.905L30.3923 555.787L30.1554 555.905L30.0369 555.787L30.2738 555.432L30.0369 555.195L29.3263 555.076H29.2079L28.8526 554.603H28.4972L28.7341 554.366V554.01L29.2079 553.537L29.5632 553.655L29.9185 553.418L30.5107 552.826L30.7476 553.063L31.1029 552.826L31.2213 552.707L31.6951 552.471H31.9319L31.6951 552.707L31.4582 553.181L31.8135 553.418L32.1688 553.181L32.2873 552.944H32.6426L32.761 553.063L32.4057 553.3V553.655H32.5241L32.8795 553.537L32.761 553.3L32.9979 553.181L33.1163 553.3L33.3532 553.655L33.5901 553.892H33.7085L33.827 553.773H33.9454L34.0638 554.01L34.1823 554.129H34.4192V554.366L34.5376 554.484L34.656 554.721L34.5376 555.076V555.195H34.8929V554.958H35.0113L35.4851 554.839L36.1957 554.484L36.4326 554.01L36.551 554.366H36.7879V553.892L36.9064 553.537L37.1432 553.418H37.3801L37.617 553.3L37.9723 552.826V552.707L38.2092 552.471L38.4461 552.352L38.5645 552.115V551.997H38.4461L38.5645 551.76H38.8014L39.0382 551.878V552.471L39.1567 552.707L39.2751 552.589L39.8673 552.707H39.9858L40.1042 553.063H40.4595L40.6964 553.181L41.0517 553.418L41.1701 553.3L41.2886 552.826H41.407L41.6439 552.471V551.76L41.7623 551.642H42.1176L42.3545 551.405L42.473 551.168H42.7098L42.9467 551.286L43.0652 551.168L43.302 551.049H43.4205V551.286L43.5389 551.405L43.7758 551.523L43.8942 551.168H44.1311L44.2495 551.286L44.1311 551.523V551.997L44.2495 552.471L44.368 552.707L44.4864 552.826L45.197 553.063L45.4339 552.826L45.6708 552.944L45.7892 553.3L46.0261 553.537L46.6183 553.773V553.655L46.3814 553.181L46.8552 552.707H47.2105L47.4474 552.826V553.063L47.8027 553.181L48.158 552.826L47.9211 552.589V552.352L47.8027 552.115V551.997L48.2764 551.76H48.3949L48.0396 551.405L47.9211 551.168H47.8027L48.158 550.812H48.2764L48.3949 550.457V550.339H48.158V550.102L48.2764 549.747L48.5133 549.51L48.7502 549.628L49.1055 549.273L49.4608 549.036L49.6977 549.273L49.9346 549.391L50.7636 548.917L50.8821 548.681H51.119V548.562L51.2374 548.325L51.4743 548.207L51.5927 547.97L51.4743 547.733L51.5927 547.496H51.8296L51.948 547.733L52.1849 547.615L52.5402 547.259V546.312H52.6587L52.8955 546.43L53.1324 546.312V546.193L53.2508 545.957L53.3693 546.075H53.6062L53.843 545.72L53.9615 545.601H54.0799L54.3168 545.483L55.1459 545.601H55.5012L55.6196 545.483V545.246H55.2643L55.1459 545.009L55.0274 544.891L55.1459 544.654H55.2643L55.3827 544.772L55.6196 544.654L55.738 544.772V544.891L55.8565 545.009L56.0934 544.891L56.2118 544.417L56.0934 544.298L56.3302 543.943L56.2118 543.825L56.4487 543.588L56.804 543.351V543.114L57.0409 542.996V541.93H57.3962L57.5146 541.693L57.7515 541.811L57.8699 541.693V541.456L58.2253 541.101L58.699 540.745L58.8174 540.864L59.4096 541.101L59.6465 541.219L59.765 541.101V540.745L59.8834 540.39V539.916L60.0018 539.679L60.4756 539.324L60.594 539.206V539.324L61.1862 539.679L61.4231 539.442V539.324L61.66 539.087L61.8968 538.969V539.087L62.2522 538.85L62.3706 538.613L62.6075 538.258L63.1997 537.903L63.6734 537.784H64.2656V537.666L64.6209 537.784V537.429L64.7394 537.192H65.2131L65.6869 537.429H65.8053L66.2791 537.311H66.3975L66.5159 537.074V536.6L66.7528 536.718L66.8713 536.6V536.837H67.1081L67.345 536.6V536.481H67.4634L67.5819 536.363L67.8188 536.6H67.9372V536.363L68.0556 536.481L68.2925 536.126L68.4109 535.652H68.5294V535.771L68.7663 535.652V535.415H68.8847L69.0031 535.06L69.1216 535.179L69.4769 535.06L69.7138 534.942L70.0691 535.06L70.1875 535.179V535.415L70.0691 535.534L70.1875 535.652L70.306 535.297H70.4244L71.2535 535.652V535.889L71.4903 535.771L71.3719 535.652L71.7272 535.534L71.8457 535.415H72.201V535.179H72.4379L72.5563 535.06L72.6747 535.297L72.9116 535.179L73.03 535.06H73.5038L73.6222 534.942L73.8591 534.823L74.2144 534.942V534.705L74.4513 534.942H74.8066L75.0435 535.06L75.1619 534.942V534.823L75.3988 534.586L75.8726 534.823L76.1094 535.179H76.3463L76.8201 534.586L77.1754 534.468L77.4123 534.231L77.6491 534.113V534.231L77.886 534.468L78.1229 534.35L78.4782 534.113H78.7151L78.8335 534.231L78.952 534.586H79.0704L79.3073 534.705H79.6626V534.35L79.8995 534.231L80.2548 533.876L80.3732 533.639V533.402H80.4917L80.6101 533.284L80.9654 533.165L81.0839 533.402H80.9654V533.52L81.9129 533.757L82.0314 533.639L81.9129 533.52L82.1498 533.165L82.5051 533.047L82.9789 533.402L83.3342 532.928H83.8079L84.0448 533.165L84.4001 533.047V532.573L84.8739 532.336H85.1108L85.3476 532.455H85.4661L85.9398 532.218L86.1767 532.336H86.6505L86.8873 532.218H87.0058L87.4795 532.573L87.3611 532.81H87.4795L87.8348 532.928L88.427 533.047H88.5455L88.6639 532.81L88.5455 532.573V532.455L88.6639 532.336L88.7823 532.455H89.0192L89.2561 532.691H89.3745V532.455L89.6114 532.336L89.9667 532.455L90.4405 532.099L91.1511 532.455L91.6249 532.336L91.9802 532.099L92.3355 532.218L92.5724 532.573L93.0461 532.691L93.283 532.573L93.4014 532.691L93.6383 532.455L93.8752 532.573L93.9936 532.455L94.4674 532.573L94.7043 532.455L94.5858 532.218L94.7043 531.981L94.9411 531.862V531.744L95.178 531.625H95.5333L95.7702 531.507L96.1255 531.389L96.3624 531.152L96.4808 530.796V530.678L96.7177 530.56L96.9546 530.796H97.073L97.3099 531.033H97.5468L97.7837 531.152L97.9021 531.27L98.139 531.033L98.2574 530.56H98.968L99.2049 530.915L99.0865 531.152L99.2049 531.27H99.5602L100.152 531.862L100.508 531.744H100.626L100.863 531.625L101.1 531.389H101.218V531.27L101.455 531.033L101.811 531.389L102.166 531.507L102.758 531.744H103.113L103.35 531.507L103.587 531.389H103.942L104.061 531.625L104.179 531.744L103.942 531.981L104.179 532.099H104.416L104.535 531.862H104.653L104.89 531.625L105.127 531.507H105.364L105.601 531.625H106.311L106.43 531.744L106.667 531.625L106.785 531.744L106.667 531.981L106.785 532.218L107.14 532.336L107.259 532.218L107.732 531.981H108.088L108.325 531.744H108.68L108.798 531.862L108.917 531.744L109.154 532.099L109.391 532.218L109.272 532.573V532.928H109.864L110.338 532.691V532.573L110.693 532.455L110.93 532.099L111.049 531.981L111.167 531.744L111.404 531.625L111.286 531.389L111.404 531.152H111.641L111.878 530.796L111.996 530.678L111.878 530.441H111.996L111.878 530.323L111.996 530.086V529.967L111.759 529.494H111.996L112.115 529.257L111.996 529.02V528.901L112.233 528.665L112.47 528.783L112.825 528.665L112.707 528.428V528.309L112.825 528.191V527.717L113.062 527.48L112.944 527.125L112.825 526.888L112.944 526.651L113.181 526.77L113.773 526.533V525.94L114.01 525.585L114.247 525.467L114.365 524.993L114.72 524.874L114.839 524.638H116.26L116.615 524.756H116.852L116.971 524.519L117.208 524.638H117.444L117.918 524.401L118.155 524.519L118.51 524.756H118.866L118.984 524.638H119.221V524.874L119.458 524.756H120.168L120.287 524.874L120.405 525.111H120.998L121.116 525.23L122.064 525.348H123.366V522.506L123.485 521.203L123.603 520.255V518.597L124.195 518.124L124.669 517.887L124.906 517.531L125.261 517.176L125.972 516.11L126.209 515.399H127.512L128.696 515.518H132.249L133.078 515.281L133.907 515.163L133.789 514.689L133.67 514.333L133.434 513.978L133.197 513.386L132.96 513.149H132.605L131.657 511.846L129.999 509.122L129.525 507.464H129.88L129.999 507.109L130.117 507.227H130.354V506.99L130.591 506.635L130.828 506.753L131.42 506.161L132.131 505.569L133.197 504.858V504.74L133.078 504.503L133.789 504.148L133.907 504.029L134.144 503.911V503.674H134.263L134.736 503.437L134.973 503.556H135.447L135.684 503.437V502.608L136.158 502.253L136.276 502.016L136.631 501.661L136.987 501.187L137.697 500.832L141.724 498.107L142.198 497.752L142.553 497.397L142.79 497.041L142.435 496.331L142.198 495.62L142.08 494.791L141.961 494.081L142.08 493.37L142.198 492.304L142.435 491.475L142.553 491.356L142.79 491.238H143.501L144.922 491.12H145.87L146.58 491.001L146.817 491.12L147.291 492.186L147.528 492.304H148.001L148.238 493.962V494.317L148.594 494.554H148.831L149.304 495.028L149.541 494.91L151.318 494.199L152.028 493.962L150.962 490.883L150.607 489.935L149.897 488.396L147.646 484.132L146.936 482.829L146.699 481.645V480.46L147.765 477.736L148.12 476.078L148.357 475.604L148.594 475.012L148.831 474.893L148.712 474.538V474.064L148.594 473.709V473.235L148.712 473.117L148.949 472.643L149.067 472.169L149.186 471.814L149.778 471.34L150.015 471.104L150.489 470.748L150.607 470.511L150.962 470.393L151.081 470.156H151.199L151.318 470.038L151.91 469.801V469.682L152.265 469.445L152.739 468.972L152.976 468.853L153.213 468.616L153.568 468.379V468.261L153.923 468.024L154.989 466.958L155.463 466.603L155.582 466.484L155.818 466.129L155.582 465.418L155.226 464.826L154.752 464.471L154.279 464.234L153.923 463.879L153.568 463.76L153.331 463.642L152.976 463.405H152.739L152.502 463.287H152.147L152.028 463.05L151.673 462.931L151.436 462.813L151.318 462.694V460.681L151.081 459.733L150.37 457.602L150.489 457.483V457.009L150.252 456.772L150.133 456.536L149.778 456.417L149.541 456.299L149.304 455.943L149.186 455.825L148.712 455.233L148.238 454.877L147.883 454.641L147.409 454.522L146.817 454.404H146.58L145.751 454.167L145.041 454.285L144.922 454.167L144.685 453.693L144.567 453.575H144.448L144.33 453.456L144.211 452.864L143.619 452.153L143.382 452.035V451.916L143.146 451.68L142.79 451.561L142.435 451.206L142.08 450.969L141.961 450.732V450.614L141.724 450.377V450.14L141.843 449.666V449.074L141.724 448.837L141.961 448.6L142.198 448.482L142.316 448.245L142.198 448.126V447.771L142.316 447.653L142.553 447.534H142.79L142.909 447.416L143.027 447.061V446.705L143.264 446.231L143.027 445.639L143.146 445.402L142.79 445.047L142.909 444.81L142.672 444.692L142.553 444.336L142.672 443.981L142.909 443.863L143.027 443.626V443.389L142.672 442.915L142.553 442.56H142.08L141.843 442.441V442.323L142.08 441.849L142.316 441.731L142.435 441.968L142.672 442.205V442.323L142.909 442.441L143.146 442.323H143.264V442.56L143.619 442.915L143.856 442.678H143.975L144.33 442.441L144.567 442.797L144.685 442.678L144.804 442.797L145.041 443.152H144.922L145.041 443.271H145.159L145.277 443.389L145.396 443.152H145.514L145.988 443.389L146.225 442.915L146.462 442.797L146.58 443.034L146.936 443.152V443.271L147.172 443.507L147.291 443.389L147.646 443.626V443.744H147.765L148.001 443.507H148.238L148.712 443.271L148.949 443.389L149.186 443.271L149.304 443.152H149.66L150.489 443.034V443.271L151.199 442.915L151.436 443.034L151.673 442.915L151.792 442.797L153.45 441.968L154.16 441.731L154.516 441.375L154.989 441.02L155.818 440.428L156.529 440.073L157.595 439.836L158.069 439.717L158.306 439.836L160.556 442.205L160.793 442.56L160.911 442.797L160.674 443.626L160.793 443.744L162.214 443.981L162.569 444.1L162.806 444.336L163.754 445.047L164.346 444.573L164.464 444.455L164.938 444.218L165.649 443.981L165.886 443.863L166.123 444.1L166.478 444.218L166.715 444.336H167.07L167.307 444.1H167.425L167.662 444.573H167.781L168.136 444.336L168.373 443.981L168.61 443.863L169.439 443.389L169.557 443.271V442.915L169.676 442.797H169.913L170.149 442.915H170.386L170.623 442.56H170.86V442.678L171.097 442.56L170.979 442.323L171.097 441.968L171.215 441.849L171.571 441.968L171.808 441.849H172.044V441.731L171.808 441.494V441.375L171.926 441.257L171.808 441.139L171.926 440.902L172.755 438.178L172.992 437.467L173.939 435.454V431.664L174.295 431.427L174.532 431.308L174.769 430.716L174.887 430.598L173.229 426.097L172.992 425.386L172.874 424.794V424.32L172.992 423.018L173.347 421.596L173.584 420.293L174.058 418.398V418.043L174.176 417.569L173.821 414.49V412.477L173.703 412.121L173.466 411.884L172.874 410.818L172.755 410.7L171.452 410.108L168.136 408.805L168.018 408.686L167.899 408.45L167.781 407.857L167.662 407.384V406.673L167.307 406.199L166.833 405.133L166.715 404.778L166.833 404.423L166.952 403.949L167.07 403.238L166.833 402.528L162.925 398.027L162.333 397.198L162.096 396.724L161.859 396.132L161.503 395.895L161.267 395.658L160.793 395.421L159.964 395.066V394.237L159.845 394L159.608 393.882L158.779 393.645L158.424 393.526L158.187 393.171L158.069 392.816V392.46L158.187 391.868L158.661 389.973L158.898 389.499L159.727 388.907L160.319 388.197H160.674L161.03 388.078L161.385 387.723L161.622 387.368L162.096 387.012L162.333 386.775L162.451 386.065L162.925 385.828L163.28 385.473L163.754 384.644L164.109 384.525L164.583 384.407L164.82 384.288L165.057 383.814L165.175 383.696L165.53 383.814L167.07 384.051L169.084 384.644L169.676 384.762L170.149 384.999L170.505 385.117H171.452L171.926 384.999L172.874 384.051L173.11 383.696V383.341L172.992 382.985L172.518 382.275L172.163 382.038L172.044 381.801L171.571 381.09L171.215 380.617L170.742 380.024L170.149 379.551L168.847 378.248L168.728 378.011L168.847 377.774L169.202 377.419L170.031 377.182L171.215 376.827L172.992 376.234L173.229 375.761L173.939 374.576L174.532 373.984L175.124 373.629L175.953 373.392L176.664 373.273H177.256L179.388 372.918L179.98 372.8L180.217 372.563L180.454 372.208L180.809 371.734L181.756 371.26L182.704 370.905L183.296 370.668L183.77 370.312L184.007 369.957L184.599 368.417L184.954 367.944L185.546 367.588L185.902 367.47L186.139 367.233L186.494 366.759L186.968 365.93L187.323 365.457L187.56 364.983L187.678 364.391L187.915 363.917L188.271 362.851L187.915 361.666V359.653L188.152 358.942L188.626 358.232L189.1 357.758L189.692 357.403L190.166 357.166L190.876 356.929L191.35 356.811L191.942 356.337L192.771 356.218H193.127L193.719 356.455H193.956L194.429 356.1L195.258 355.508L195.969 354.679L196.917 354.323L197.39 354.086L197.627 353.613L198.575 352.547L198.93 352.428H200.114L200.707 352.547L201.772 352.784L202.365 352.902L202.483 352.191V351.836L202.365 351.244V350.77L202.72 350.415L203.312 349.467L203.549 349.112L204.023 348.875L204.26 348.638L205.444 348.046L204.733 345.914L203.431 348.046L203.075 348.165H202.838L202.602 348.046V347.454L202.838 347.335L203.549 346.862L203.786 346.625L204.023 346.27L204.141 345.914V345.796L204.023 345.44V344.611L204.497 344.138L204.733 344.019L204.97 344.256L205.326 344.848L205.681 344.967L206.392 345.322L206.747 345.44L206.628 346.151L207.102 346.743L207.458 347.335L207.694 347.691L207.931 348.283L207.813 350.652L212.077 351.125L212.314 351.244L213.261 351.836L212.55 353.02H211.366L210.063 353.139H208.997L208.642 354.086L208.405 354.797L208.287 355.271H207.813L207.339 355.389L206.628 355.626L205.681 355.981L204.97 356.337L205.089 356.692L205.207 357.403L205.326 357.876V360.008H205.799L206.036 360.127L206.392 360.245L206.747 360.719L208.168 359.771L209.945 359.653L210.537 359.535L210.774 359.416H211.129L218.117 360.601L218.354 360.719L218.946 361.074L220.13 362.259H222.618L222.855 362.14L223.21 361.785L223.447 361.666L224.039 361.43L225.223 360.719L225.697 361.074L226.408 361.666L227.592 362.851L228.54 363.917L229.013 364.272L231.974 366.641L232.093 366.759L231.974 366.996L231.856 367.707V367.825L231.619 368.299L231.974 368.536L232.093 368.654L232.448 369.128L232.566 369.483L233.277 369.839L233.869 370.431L234.461 370.786L235.646 371.26L236.001 371.378L236.83 371.615L237.304 371.971L238.251 372.208L239.317 372.563L240.028 372.918L240.502 373.037L240.857 373.51L241.094 373.866L241.923 374.339L242.278 374.576L242.871 375.168L243.107 375.287L243.818 375.879L246.897 378.958L247.371 379.551L247.727 380.024L247.845 380.498L248.437 380.38H248.674L249.029 380.617L250.569 381.801L250.924 382.275L251.161 382.393H251.753L252.346 382.512L252.701 382.63L253.412 382.749H253.53L254.004 382.867H254.478L255.07 382.749H255.188L255.425 382.985V383.222L255.307 383.459V383.696L255.78 384.525L255.899 384.88L255.78 385.236L255.425 385.591L255.662 385.709L255.543 386.065L255.307 386.183L255.188 386.302V386.539L255.662 386.775H255.78L256.136 386.539L256.254 386.657V386.894H256.491V386.775L257.083 386.302V386.065H257.202L257.438 386.42L257.557 386.539H257.794L258.031 386.065H258.149L258.386 386.302L258.86 386.657H258.978L259.452 386.302L259.57 386.42L259.452 386.657H260.399L260.755 386.539V386.42L260.636 386.183H261.584L261.821 386.302L262.058 386.657L262.176 386.775H262.768L263.124 386.894L263.716 387.249L264.071 387.368L264.189 387.604H264.308L264.545 387.368H265.137L265.374 387.486L265.729 387.723L265.966 387.96H266.085L266.321 387.604L266.44 387.486L266.677 387.723H267.032L267.15 387.841H267.743L268.098 387.723L268.335 387.841L268.809 387.723L269.164 387.368L269.638 386.657L269.993 386.183L270.822 385.709L271.059 385.473L271.177 385.117L271.059 384.762L270.94 384.525L270.585 383.459V381.801L269.993 380.498L269.638 379.077L269.519 378.248L269.401 377.893L269.282 376.827L269.045 376.471L268.927 376.353L268.453 375.998L268.098 375.524V375.287L268.216 374.813L268.453 374.576L269.045 373.866L269.164 373.629L269.282 373.037V372.8L275.441 372.681H275.678L276.033 372.563L277.099 372.444L281.481 371.378L294.154 371.26L294.273 368.417V368.299L294.154 367.47L294.036 366.996L293.918 366.641V365.693L293.799 363.088V362.851L293.444 362.732L291.904 362.259L291.667 362.022V361.666L290.483 346.98V346.625L290.127 344.611L289.18 339.874L288.706 337.86V337.624L288.825 337.387L291.549 334.781L292.141 334.07V333.952L292.259 331.346L292.615 321.753L292.496 321.279L292.378 321.161L292.022 321.042L291.549 320.568L291.43 320.213H291.312L291.075 320.332L290.72 319.976L290.127 319.621L289.772 319.739H289.654L289.535 319.502L289.654 319.029L289.891 318.555L290.72 317.726H290.838L292.97 318.081L296.642 318.673L297.115 318.91L297.589 319.502L299.247 321.99H299.721L300.432 322.345H300.905L301.616 321.99L302.09 322.108H304.695L304.814 321.634H305.169L305.406 321.753H305.524L305.998 321.634H306.354L306.472 321.753L306.827 321.871L307.893 321.516H308.249L308.367 321.397L308.959 321.279V321.042L309.314 320.924H309.67L310.38 321.279H310.499L310.736 321.634L311.21 322.108H311.328L311.802 322.7V322.937L312.394 323.529V323.648L313.104 323.885L313.341 323.648L313.697 323.885V324.003L313.934 324.122V324.358L314.052 324.477L314.289 324.595L314.644 324.477L314.763 324.595V324.832H315L315.236 325.069H315.355L315.473 325.424H315.592V326.017L315.947 326.846L316.065 327.319L315.947 327.675L315.71 328.03L315.592 328.267L315.829 328.741L316.302 329.214L316.539 329.688L316.895 329.925L317.368 330.043L317.724 330.28L317.96 330.399H318.553L318.908 330.28H319.145L319.382 330.162L319.619 329.807L319.974 329.451V329.214L320.211 328.978L320.448 328.504L320.685 328.267L320.803 328.03L320.685 327.793L320.448 327.675L320.566 327.201L320.803 327.083V326.846L321.04 326.727V326.49L321.277 326.017L321.514 325.78L321.987 325.187L322.698 324.951L323.172 324.832L323.29 324.951V325.069L324.238 325.543L324.356 325.424L324.711 325.543L324.83 325.424L325.185 325.543H325.422L325.659 325.424L325.896 325.543H326.014L326.725 325.661L326.606 325.898L326.843 326.135V326.49L327.199 326.727L327.554 327.083H327.791L327.909 327.201L328.028 327.438L328.146 327.556V327.675H328.265L328.383 328.03V328.385L328.62 328.622V328.978L328.975 328.859L329.567 328.741L338.213 325.306L337.621 323.885L337.266 323.056L336.674 321.397L336.318 320.687L335.963 319.266L336.082 319.029H336.2V318.792L335.963 318.555L334.423 316.305L334.305 315.949V304.224L334.068 304.105V303.869L334.187 303.75L334.423 303.869L334.542 303.75L334.66 303.513L334.897 303.276L335.016 302.921V302.803L334.779 302.566L335.016 302.092L335.489 301.737L335.963 301.618V301.5L335.845 301.381L335.963 301.145H336.2L336.318 301.026L336.2 300.671V300.434L336.318 300.197L336.437 299.842L336.674 299.605L337.029 299.131L336.911 299.013L336.792 298.776L336.911 298.657L337.384 298.539H337.503L337.621 298.065V297.118L337.858 296.999L338.332 296.407L338.569 296.289L338.332 295.933L338.45 295.696L338.687 294.749L340.582 289.064L342.833 282.55L342.951 282.431L342.833 282.194L341.885 281.01L340.582 280.892L342.596 274.851L346.623 272.009L362.375 264.666L370.547 256.967L371.258 256.138L373.153 254.48L376.706 251.874L387.247 243.939L390.089 244.768L393.287 245.597L395.893 246.426L398.972 247.255L408.803 250.334L416.027 253.888L423.489 257.441L432.49 263.126H432.964L441.61 259.099L444.216 257.915L445.4 257.559L446.111 245.952L447.177 229.726L447.532 221.672L456.533 219.896L472.404 220.843L484.603 218.356L512.91 199.761L528.544 189.576L556.14 182.588H559.101L574.379 168.73L598.778 146.938L601.265 144.688H634.072L637.152 144.806L642.126 154.755L659.773 145.28L679.908 152.268L689.265 155.584L697.437 158.545H701.701L705.728 158.071L708.807 157.597L712.123 157.005L714.018 156.294L716.505 155.465L717.69 155.229L718.282 155.347L718.4 156.413L718.519 157.36L718.756 158.782L718.993 162.216L719.822 166.243L718.756 168.257L718.874 169.56L718.637 170.152L718.282 170.744L717.453 171.573L716.861 171.928L716.268 172.165L715.321 172.994L714.255 174.534L714.137 174.889L714.018 175.837L713.9 177.376L714.255 177.969L716.032 180.456L716.742 181.759L718.519 185.667L718.993 187.444L718.756 188.865L718.164 190.997L717.453 193.247L716.032 197.511L715.439 199.643L714.61 201.893L714.018 204.025L711.886 210.421L711.294 212.671L710.82 214.448L710.583 215.75L711.057 217.882L711.886 219.304L712.834 221.199L713.426 222.62L714.374 224.752L715.913 229.016L721.125 240.504L731.31 263.718L736.522 275.325L736.995 276.272L737.469 276.746L738.061 276.983L738.417 277.102L738.89 277.338L739.482 277.694L740.904 278.76L741.377 280.181L741.259 281.01V281.839L741.377 282.668L741.614 283.26L741.733 283.734L742.325 284.089L744.102 284.918L745.049 285.629L745.286 286.34L745.404 286.932H747.062L747.536 287.287L747.773 287.879L747.655 288.708L747.418 289.301L747.062 289.774L746.707 290.367L746.589 291.077V291.906L746.826 292.617L747.181 292.972L748.365 293.683L748.958 293.92L749.905 294.63L750.379 295.104L750.734 295.578L750.971 296.052L751.208 296.644L751.563 297.236L751.682 297.947L751.919 298.539L752.984 300.079L753.34 300.552L754.169 301.381L754.761 301.855L756.301 302.803L756.774 303.276L757.248 303.632L757.959 303.869L758.906 304.579L759.617 305.645L760.091 306.83L760.446 307.422L760.801 307.777L761.157 308.369L761.63 308.725L762.104 309.198L762.815 309.317H763.525L764.118 309.08L764.947 309.198L765.302 309.672L765.539 310.383L765.42 311.093L764.947 312.278L764.591 312.751L763.881 313.936L763.525 314.41L763.052 315.594L762.933 316.423V317.252L763.052 317.963L763.17 318.437L763.525 319.029L765.302 320.805L765.776 321.161L766.368 321.397V321.516L772.882 321.397L775.014 321.279L779.396 321.161L781.528 321.042H783.66L784.371 320.924L784.844 321.279L785.437 321.516L785.91 321.99L786.147 323.411L785.792 324.003L785.081 324.122L784.489 324.477V325.306L784.607 326.135V326.49L786.858 327.201L791.122 328.622L791.714 328.978L795.977 328.03L800.241 329.214L800.597 329.451L806.992 334.07L809.006 335.61L809.361 335.847L810.309 335.965L811.019 335.847L811.611 336.084L811.967 336.676L812.204 337.268L812.559 337.742L812.796 338.334L813.506 339.4L814.099 340.466L814.454 341.177L814.572 341.769L814.335 342.479L814.099 343.072L813.862 343.782V344.73L813.98 346.27L814.217 346.862L814.928 347.099L815.401 347.454L815.638 348.165L815.757 348.875L816.112 349.349L817.296 349.941L818.007 350.178L818.718 350.296L819.31 350.533L820.021 350.77L820.731 350.889L821.086 351.481L822.271 351.955L822.863 352.31L823.337 352.665L823.929 353.02L825.469 354.086L826.416 354.797L826.89 355.271L827.364 355.626L830.562 355.981L831.746 356.455L832.575 357.403L833.167 357.758L833.878 357.876H834.588L835.181 358.113L836.365 358.706L837.076 358.824H837.905L838.615 358.587L839.207 358.35L839.918 358.232L840.51 358.113L841.339 357.995L842.168 358.113L842.642 358.469L843.116 358.942L843.471 359.416L844.656 360.837L845.129 361.193L845.485 361.666L846.432 362.614L847.024 362.969H846.788V363.206H846.906V363.443L846.432 363.562L846.077 363.443L845.958 363.562L845.722 363.917L845.366 364.035V364.154L845.129 364.272L844.774 364.154L844.419 364.272L844.3 364.627L843.945 364.746L843.708 364.864L843.116 364.746L842.997 364.983L842.761 364.864H842.405L842.168 364.983H841.695L841.576 364.627L841.813 364.272L841.695 364.035H841.576L841.221 364.272H841.103V363.917L840.629 363.443L840.51 362.969L840.037 362.614V360.956L839.918 360.837H839.563L839.444 360.601L839.207 360.364V360.008L838.852 359.89V360.127L838.497 359.771H838.142L837.905 360.127L837.668 360.364L837.312 360.245L837.194 360.364V360.719L837.431 360.837V361.666L837.549 362.377L837.431 364.035H836.957V364.272L837.194 364.627V365.457L836.957 365.812L836.72 365.93L836.483 366.404L836.128 366.522L835.891 366.878L834.944 367.233L834.707 366.878H834.47L834.352 367.115H833.641L833.522 366.996L833.286 366.878V366.759L833.049 366.996L832.812 366.759H832.457L832.338 366.996L832.22 366.878V366.641H831.746L831.154 366.404H830.917L830.68 366.286L830.917 365.812L830.562 365.575H830.325L830.206 365.93V366.049L830.088 366.167L829.259 365.457L828.903 365.22H828.548L828.074 365.457L828.193 365.693L828.074 365.812H827.837L827.601 365.575L827.245 365.812H827.008L826.535 365.693L826.298 365.93L825.942 365.812L825.469 365.457L824.166 364.864L822.982 364.272L822.271 364.154L821.797 363.798L821.205 363.443L820.494 363.325L819.31 362.732L818.836 362.377L817.652 361.785L816.941 361.666L816.112 361.548H815.401L814.809 361.311L814.335 360.837L813.625 360.719H812.796L811.374 360.482H811.256V394.592L810.782 396.961V397.79L809.598 399.685L809.716 400.633H809.598L809.479 400.87L809.598 400.988L809.479 401.106L809.361 401.58L809.124 402.291L809.006 402.528V403.001L809.124 403.12L809.006 403.357L808.887 403.475L809.124 403.712L808.887 404.186L809.124 404.66L809.361 404.896L809.243 405.37L809.124 405.607V405.844L809.006 406.199L809.124 406.318L809.006 406.436V406.555L831.746 406.673L852.591 428.703L881.49 456.299L918.443 457.009L918.917 456.654L920.101 454.522L921.404 452.39L923.891 448.126L925.194 445.995L925.786 445.047L928.51 446.113L930.405 443.981L932.537 441.968L933.248 441.257L933.84 441.494L934.55 441.612L935.143 441.968L935.853 442.086L936.682 442.205L937.274 442.441L937.985 442.56L938.577 442.915L939.288 443.034L939.88 442.797L940.472 442.441L941.064 442.797L941.775 442.915H942.723L943.315 443.152L944.144 443.271L944.854 443.034L945.328 442.797L945.802 442.323L946.276 441.968L946.986 442.205L947.579 443.389L948.645 443.981L951.013 445.165L951.961 445.876L952.435 446.35L952.79 446.824L953.027 447.416L953.5 448.719L953.619 449.429L953.145 450.851L953.5 451.206L955.632 452.272L957.764 453.219L959.186 453.811L960.251 456.062L961.436 458.194L961.554 458.549L961.91 464.945L962.028 467.195L962.146 468.143L965.936 472.643L966.884 473.591L966.766 474.064L966.292 475.367V476.196L966.41 476.907V477.618L966.647 478.21L966.884 478.92L967.002 479.631L966.884 480.46L966.529 480.934L965.818 481.052L965.107 480.934L964.515 480.579L962.265 480.342L961.791 480.697L961.436 481.171L960.725 481.408L959.778 480.697L958.949 480.579L957.883 481.171L956.698 481.645L955.988 481.881L955.277 481.645L954.803 481.171L954.33 480.815L953.737 481.052L953.264 481.408L952.79 481.881L952.671 482.592L952.198 482.947L951.487 482.71H950.776L950.184 482.947L949.592 483.303L949.237 483.776L949 484.369L948.526 484.724L947.697 484.605L947.342 484.132L946.75 483.776L945.328 484.013L944.144 484.487L943.67 484.961L943.315 485.435L943.196 485.908L943.67 486.856V487.211V487.093L943.433 487.33H943.315L943.196 487.448V487.566L942.604 488.159L942.723 488.514L942.604 488.751V488.869L942.959 489.225H942.723L942.604 489.343L952.079 501.779L959.778 511.965L967.239 522.269L970.437 526.651L983.229 544.062L984.176 545.009H984.65L984.531 545.364V545.483H984.176L984.058 545.364H983.821L983.465 545.72L983.229 546.075V546.312L983.347 546.667L983.584 547.141L983.821 547.378L984.058 547.852L983.939 548.088L984.058 548.562H983.939L983.821 548.917L982.992 549.747L982.636 550.22L982.163 550.339L981.097 550.694V551.168L980.978 551.405L981.097 552.115L980.978 552.234V552.352L980.86 552.589V552.944L980.623 553.3V553.655L980.741 553.892L981.097 554.129H981.333L981.689 554.247V554.603L981.57 554.839H981.333L981.097 554.958L980.623 555.076L980.268 555.432L979.912 555.55L979.675 555.668L979.557 556.024L979.794 556.142L979.912 556.261L979.675 556.734H980.031L980.149 556.971V557.208L980.031 557.563V558.156L980.268 558.274L980.504 558.511L980.623 558.866L980.386 559.222L980.149 559.34H979.557L979.083 559.222L978.846 559.103L978.491 559.222L977.307 559.814H977.07L976.951 559.932L976.596 559.814H976.241L976.004 560.051V560.288L976.478 560.761L976.596 561.117L976.478 561.235L976.122 561.353L975.885 561.59L975.767 561.946V562.064L975.53 562.419H975.056L974.938 562.775H974.819L974.346 562.893L973.99 563.13L973.753 563.367V563.722L974.109 563.959V564.078L973.99 564.314V564.433L973.753 564.67L973.398 565.38L973.161 565.499L973.043 565.736L972.569 565.499H972.214L972.095 565.617V565.736L971.858 566.091L971.74 566.683L971.977 566.92V567.275L972.214 567.394L972.095 567.631H971.74L971.503 567.512L971.266 567.631L971.029 567.986V568.341L971.266 568.697L971.622 569.17V569.526L971.858 570.118V570.355H971.622V570.592L971.74 570.71L971.977 570.829H972.214L972.332 570.947V571.184L972.095 571.302L971.977 571.421V572.25L972.095 572.368L972.451 572.605L972.924 572.724L973.043 572.96L972.451 573.316L971.977 573.553L971.622 573.671L970.2 574.737L969.134 575.211L968.187 575.566L967.358 575.921L966.766 576.277L965.936 577.106L965.581 577.343L964.397 578.645L963.094 579.948L962.62 580.54L960.37 582.436L959.896 582.554H959.304L958.475 582.672L958.12 582.791L957.527 583.265L957.054 583.62L953.974 586.699L953.264 587.647L951.724 588.831L951.369 589.305L950.539 590.016L949.829 590.845L949.711 591.082L948.408 592.384L947.46 593.45L946.986 593.924L946.394 594.398L945.802 594.99L944.854 596.056L944.499 596.411L944.262 596.767L943.552 597.359L942.012 599.135L938.696 602.452L936.919 604.347L936.801 604.465L935.853 604.939L932.418 605.294L929.576 605.176L929.221 605.294L928.984 605.176L926.615 604.702L923.891 603.991L921.404 602.925L920.456 603.044L919.035 602.096L918.324 602.215L916.429 602.925L915.956 603.044L915.719 602.215L915.245 602.333L914.416 603.044L913.587 603.518L912.758 603.754L910.981 603.281H910.389L909.797 603.873L909.56 604.465L908.612 604.702L908.02 605.057H907.31L906.836 605.413L905.651 605.057H905.059L904.704 605.649L904.23 605.768L903.756 605.294L902.69 605.768L902.335 605.649L901.98 605.057L901.506 604.82L900.559 604.939L899.966 604.11L899.611 604.228L898.782 605.886L898.308 606.597L897.834 606.834L897.005 606.597L896.295 606.005H895.821L894.637 607.189L894.281 607.071L894.163 607.544L893.689 608.018L892.979 608.137L892.742 608.018H892.386L891.913 607.781L891.557 607.663H891.202V607.544L891.32 607.308L891.083 607.189L890.965 606.952H890.847L890.61 607.071L890.491 607.544L890.136 607.9H889.544L889.425 608.137L889.307 608.492H889.07L888.952 608.374L888.715 608.61H888.478L888.123 608.492L887.886 608.137H887.649L887.293 608.374L886.938 608.255L886.701 608.374L886.109 608.255L885.872 608.137L885.398 607.781L885.162 607.426H885.043L884.925 606.952L884.806 606.715H884.688L884.451 606.834L884.333 606.715L884.569 606.005L884.451 605.649V605.294L884.333 605.057L884.451 604.939L884.688 605.057L884.806 604.939V604.82L884.451 604.465L884.214 604.347L884.096 604.228L884.214 604.11V603.873L883.977 603.754L883.859 604.11L883.74 603.873L883.859 603.754V603.636H884.096V603.399L883.977 603.281H883.622L883.503 603.399V603.518L883.622 603.636L883.385 603.991V604.347L883.03 604.228V603.991L883.148 603.873V603.754L882.911 603.518L883.148 603.399L883.267 603.162L882.911 603.044L882.793 602.807L882.911 602.688L883.148 602.57L883.267 602.688L883.385 602.333H883.503V602.215H883.385L883.622 601.978L883.267 601.504L883.148 601.267L883.03 601.149L882.674 601.03L882.319 601.386V601.859H882.201L881.845 601.622L881.608 601.03H881.49L881.372 600.793L881.49 600.557H881.727L881.845 600.912H881.964V600.438H882.201V600.32L882.082 600.083L881.964 599.728L881.727 599.609L881.608 599.728L881.49 599.609L881.608 599.372L881.372 599.135L881.135 599.254H881.016L880.661 599.135L880.542 598.662L880.424 598.543H880.187L879.95 598.425L880.069 598.306V598.069H879.358L879.477 598.543L879.595 598.662L879.95 598.78L879.832 599.017L879.595 599.135L879.24 598.78L879.121 599.017L879.24 599.372H879.358V599.609H879.24L878.884 599.728L879.358 600.201V600.32H879.121L878.529 600.557V600.32L878.174 600.438L878.292 600.557L878.411 600.793V600.912L878.292 601.149L878.055 600.912H877.937L877.818 601.149H877.582L877.226 600.793L877.108 601.149L877.226 601.267L877.108 601.386L876.752 601.03V600.793L876.634 600.675L876.397 600.793L876.279 600.557H876.16L875.687 600.438V600.32L875.331 600.083L875.094 600.438L874.857 600.32L874.739 600.083V600.32L874.621 600.438L874.384 600.32L874.265 599.964L874.384 599.728L874.147 599.609V600.557L874.028 600.675L873.91 600.557H873.792L873.436 600.32L873.318 600.201L873.436 599.964L873.318 599.846L873.555 599.491H873.792V599.372H873.436L873.555 599.254L873.436 598.78H873.555L873.792 599.017H873.91L873.792 598.78L874.147 598.543V598.188L874.265 598.306V598.188L874.147 597.951L873.91 598.188L873.673 598.306H873.555L873.673 598.543H873.555V598.306H873.318V598.425L873.199 598.306L873.081 598.662L872.844 598.543L872.726 598.898L872.844 599.372L872.726 600.083L872.489 600.793L872.133 600.912L871.896 600.793L871.541 601.149L871.186 600.912L871.067 600.793L871.304 600.675V600.557L871.423 600.32L871.067 599.846L870.831 599.728V599.609L870.949 599.491L870.712 599.017H870.238L870.001 599.135L869.409 599.372V599.491L869.172 599.846H869.054L868.936 599.491L868.699 599.135L868.58 598.898H868.462L868.343 599.135L868.462 599.372L868.225 599.609L868.106 599.491V599.254L867.988 598.898L867.751 598.543V598.188L867.514 597.832L867.277 597.951V598.069H867.159V597.832L867.277 597.714H867.04L866.922 597.832L866.448 598.069V598.662H865.975V598.78L865.856 599.135H865.738L865.619 598.898H865.264L865.146 599.491L865.264 599.728L865.382 599.846V599.964L865.146 600.32L864.909 600.201L864.672 600.438H864.316L864.198 600.793L864.08 601.03L863.961 600.912H863.724L863.606 600.675L863.843 600.557V600.438L863.606 600.557L863.487 600.675H863.25L862.895 600.438L862.658 600.557L862.421 600.32V600.438L862.54 600.793V601.149L863.014 601.03V601.386L862.777 601.504L862.421 601.149H862.185L862.066 601.03L862.303 600.793V600.675L861.948 600.793L861.829 600.912L861.592 601.03H861.355L861 601.267L860.645 601.149L860.526 601.386V601.741L860.763 601.859L860.645 601.978L860.29 601.741L860.053 601.978L860.29 602.096H860.526V602.215L860.171 602.333H860.053L859.934 602.096L859.697 602.333V602.688L860.053 603.044V603.162H859.697L859.224 603.399V603.518H859.46L859.697 603.636V603.754L859.579 603.873L859.224 604.11V604.228L859.46 604.347L859.342 604.583L859.697 604.939V605.176L859.816 605.531L860.171 606.36H860.645L860.763 606.597V606.952L860.408 607.189L860.053 607.308L859.816 607.189H859.579L859.342 607.308L859.224 607.544L858.987 607.663V607.781L859.342 608.018L859.46 607.9V608.137H859.224V608.374L859.342 608.729V608.847H859.105L858.987 609.203H858.868L858.631 609.321V609.203L858.394 608.847L857.921 608.729V609.084H857.565L856.973 608.847L856.855 608.61L856.5 608.374H856.263L856.026 608.492L855.907 608.729L856.263 609.203V609.558L856.144 609.795H856.026L855.789 610.032L855.67 610.387H855.552L855.434 610.15L855.197 610.269V610.505L855.434 610.624V610.861L855.197 610.979L854.96 611.334L855.197 611.69L854.486 611.927L854.368 611.69V611.808L854.012 611.927V612.282L853.657 612.4L853.539 612.282H853.302V612.164L853.42 612.045V611.808H853.065L852.709 611.927L852.591 612.045L852.473 611.927L852.117 612.045L852.236 612.282H851.999L852.117 612.519L852.236 612.637L852.117 612.874V613.229L852.354 613.466V613.585L852.117 613.703L852.236 613.94L852.354 614.414L852.591 614.888L852.828 615.006H852.946L853.183 615.243V615.48L852.828 615.717L852.946 615.954L853.183 616.072L853.539 615.954H853.775L853.894 616.072L853.539 616.783L853.775 617.02V617.375L853.894 617.493H854.249L854.604 617.375L854.841 617.612V617.73L854.604 617.967H854.249V618.322L854.368 618.441L854.604 618.322H854.841L854.723 618.678L854.841 618.796L855.078 618.915L855.197 619.033V619.507H854.604L854.249 619.27L854.012 619.033H853.894L853.539 619.27L853.42 619.507L853.183 619.625L853.42 619.862H853.894L854.012 620.099L853.775 620.336L853.42 620.454H853.065L852.946 620.573L852.828 620.928L853.065 621.046V621.165H852.473V620.691H852.117L851.999 621.046L851.88 620.928L851.525 620.81L851.288 620.573V620.336L851.051 619.862L851.17 619.744L851.407 619.625L851.288 619.388H851.17L850.933 619.507L850.815 619.625L850.578 619.744L850.222 619.862L849.867 620.099V620.454L850.104 620.573L849.985 620.691L849.63 620.81L849.393 620.928L849.275 620.81L849.156 620.336L848.683 620.454L848.446 620.573H848.209L848.09 620.336L847.854 619.507V618.678L847.617 618.441L847.143 617.493L846.906 617.256L846.077 617.02H845.722L845.603 617.138H845.485L845.248 616.901L845.011 617.02L844.893 617.138V617.256L844.3 617.73V617.849L844.537 617.967L844.893 617.849L844.774 617.967L844.537 618.085H844.182L844.063 618.204L844.3 618.678H844.419L844.537 618.915L844.419 619.033L844.063 618.915V619.033L844.419 619.625V619.744L844.3 619.862L844.063 619.744L843.945 619.98L844.3 620.217L844.537 620.573V620.928L844.774 621.046L845.129 620.928L845.248 621.046L845.485 620.928L845.722 621.046H845.958V621.52H845.722V621.639L845.84 621.757H846.195L846.314 622.112L845.958 622.705L846.077 622.941L846.314 622.823L846.551 622.941L846.432 623.06L846.551 623.415L846.788 623.77V624.007H846.551L846.314 624.244L846.432 624.363H846.551L846.906 624.481V624.6L846.551 624.836L845.958 625.192H845.722L845.603 624.955L845.366 625.31L844.774 625.665V625.902L844.419 626.021V626.376L844.3 626.495L844.063 626.376L843.945 626.139L843.827 626.021L843.353 626.258L843.234 626.376L842.761 626.139L842.642 625.902L842.405 625.665L842.168 625.547L841.932 625.784H841.813V625.073L841.932 624.955V624.836H841.458L841.103 624.6L840.629 624.718L840.51 624.955H840.392L840.037 624.718V624.481L840.155 624.363V624.244H839.918L839.681 624.363V624.481H839.563L839.444 624.244H839.326L839.207 624.6H838.852L838.497 624.244H838.023L837.668 624.481L837.194 624.363L837.076 624.481H836.72L836.602 624.6L836.128 624.836H835.773L835.536 624.718L835.299 624.244L835.417 624.126L835.181 623.889L834.944 624.007L834.825 624.244L834.588 624.363L834.47 624.244L834.233 624.126L834.115 624.363V624.718H833.878L833.641 624.6L833.404 624.363V624.126L833.522 624.007L833.759 623.889V623.534L833.641 623.178L833.759 622.941L833.641 622.823L833.404 622.705L833.167 622.823V622.941L832.93 623.06V622.705L833.049 622.586V622.349L832.812 622.231L832.693 622.468H832.457L832.22 622.586L831.983 622.468L831.746 622.231H831.391L831.154 622.468L831.035 622.705L830.917 622.586L830.798 622.823L830.917 622.941H830.562V622.705H830.443L830.088 622.941L829.851 623.178L829.732 623.534L829.496 623.652L829.259 623.889L829.377 624.363V624.481L829.14 624.6L829.022 624.718L829.259 625.192L829.022 625.31L828.903 625.192L828.548 625.073L828.43 625.192L828.311 625.665V626.021L828.548 626.139L829.14 626.021V626.258L828.785 626.376H828.43L828.311 626.613L828.074 626.731L828.43 626.968V627.087L829.14 627.324H829.259L829.732 627.797L830.088 627.916L830.325 627.797L830.562 627.916L830.68 628.153L830.562 628.271L830.68 628.508L831.035 628.39L831.272 628.271L831.391 628.39L831.272 628.626L831.509 628.863L831.746 629.337L831.864 629.692L831.627 629.929L831.391 630.285H831.154L831.035 630.166V629.929H830.917L831.035 630.403L831.272 630.521L831.391 630.64L831.154 630.758V631.114H830.68L830.562 631.232H830.798L831.154 631.469V631.706L831.035 632.061L830.917 632.18L831.154 632.416V632.535L831.035 632.772V633.127H830.798L830.68 633.601L830.798 633.838L831.035 633.601L831.272 633.838V634.193L831.509 634.311V634.548L831.035 634.667L830.917 634.785L831.035 635.022L831.391 635.259L831.154 635.377V635.496L831.272 635.733L831.391 635.851V636.088H831.509L831.864 635.733H831.983L832.101 635.97L832.338 636.088L832.22 636.207V636.325H832.457V636.562H831.746L831.864 636.917V637.036L831.746 637.154L831.509 637.036L831.391 637.154V637.391H831.154L830.798 637.154V637.036H830.562L830.325 636.917V636.68L830.443 636.562L830.325 636.443H830.088L829.851 636.207L829.614 636.088L829.496 635.97L829.732 635.733L829.496 635.614H829.259L829.14 635.851H828.903L828.785 635.733L828.667 635.496H827.364L826.653 635.614L826.416 635.733L826.179 635.97L825.942 636.088L825.587 636.799L825.232 637.036L824.995 637.272L824.876 637.865L824.758 638.102L824.521 638.22L824.284 638.102L824.166 638.22L824.521 638.457V638.575L824.166 638.812H823.692L823.455 639.049L823.1 639.167L822.863 639.049L822.745 638.812H822.626L822.389 638.931V639.049L822.034 639.167H821.916L821.56 638.931L821.205 638.812H820.85L820.494 638.931H820.139L819.665 639.049V639.167L819.31 639.404L819.073 639.286L818.955 639.523L819.191 639.76V639.997L818.836 640.233V640.47L818.955 640.589L819.073 640.826V640.944L818.836 641.181L818.481 641.062L818.244 641.299L818.955 641.655L819.191 641.536L819.31 641.773L819.191 641.892L819.547 642.247H819.665L820.021 642.01L820.613 641.892V641.536L820.257 641.299H820.021L819.902 641.062L820.021 640.826L820.257 640.707L820.85 641.299H821.323L821.56 641.418L821.797 641.773L822.152 642.128V642.484L822.389 642.602L822.508 642.484H822.626L822.863 642.602V642.958L822.982 643.313H823.1L823.218 643.55V643.668L822.982 643.787H822.863L822.745 644.023V644.26L822.863 644.497H823.218L823.81 644.734L823.929 644.852V644.971H823.81L823.337 645.089L823.218 645.208L823.1 645.563V645.8L822.982 645.918V646.037L823.1 645.918H823.455L823.574 646.511L823.929 646.984L824.284 647.103L824.521 647.34V647.577L824.403 647.813H824.284L824.047 648.287L824.166 648.761L824.521 648.998V649.472L824.403 649.827L824.166 649.945L824.284 650.182L824.403 650.301L824.758 650.774L825.232 650.893H825.35L825.706 651.367H825.942L826.061 651.13V650.774L826.179 650.656L826.416 650.774L826.535 651.011L826.179 651.367L825.942 651.722V651.84L826.061 651.959L826.298 652.077H826.416L826.535 651.722H826.653L826.771 652.314L826.653 652.788L826.535 653.025L826.298 653.143L826.061 653.025L825.942 653.262L826.061 653.499H826.179L826.298 653.735H825.706L825.587 653.854H825.469L825.113 653.617V653.38L824.876 653.143L824.64 652.669L824.284 652.196L824.166 651.84L824.047 651.722L823.455 651.603L822.863 651.011L822.271 650.774H821.323L821.086 650.538V650.301L820.85 650.064L820.257 649.945L820.021 650.064V650.301L819.902 650.419H819.073L818.718 650.538L818.362 650.774L817.77 650.893H817.533L816.823 651.248H816.586L816.112 651.13H815.52L815.283 650.774L814.928 650.182L814.691 649.827V649.708L814.454 649.353V648.998L814.335 648.643L814.099 648.406V648.287L814.217 648.05L814.099 647.577L813.862 647.34L813.743 647.103L813.862 646.866L813.625 646.747L813.27 646.866L812.914 646.629H812.204L811.493 646.866H811.256L811.019 646.984H810.664L810.545 646.747L810.782 646.392V646.037L810.664 645.918L810.427 646.037V646.392L810.309 646.511L809.835 646.629H809.479L809.361 646.747V647.34L809.124 647.695V647.813L809.243 648.05L809.124 648.169L809.361 648.287V649.116L809.479 649.472L809.243 649.827L809.124 650.301L808.769 651.011H808.295L808.058 651.13V651.485L807.821 651.722L807.585 651.84L807.229 652.077L806.992 652.196L806.755 652.433V652.669L806.282 653.143H805.808L805.571 653.262L805.453 653.499L802.61 655.512L801.426 658.236L800.004 658.118L799.768 657.999L798.82 658.118L794.438 658.354L793.609 658.118L789.7 658.236V658.118H788.042L782.594 657.999L780.344 658.236L777.501 657.999H770.158L763.762 660.842L762.696 661.552L761.986 661.434L757.485 663.329L754.879 664.632L754.05 664.869L750.379 666.29L751.089 664.158L751.8 661.079V660.131L751.563 659.894H750.26L749.787 659.42L751.208 657.289L751.445 656.578H751.089L741.733 654.683L741.377 654.564L739.601 654.091L736.758 653.617L733.561 652.906L727.046 651.485L724.559 651.248L721.954 650.538L718.756 649.827L710.11 648.169L705.728 647.34L703.833 646.866L701.819 646.392H701.108L699.924 646.037L697.081 645.445L695.423 645.208L695.305 645.089H694.594L694.357 644.852L694.239 644.616L694.002 644.497V644.379L693.528 644.023H693.055V643.905L692.699 643.787L692.581 643.905L692.462 643.787L692.107 643.55L691.752 643.668L691.278 643.55L691.16 643.431L690.923 643.668L690.686 643.787L690.449 643.668L689.857 643.905L689.501 643.787L685.475 642.839L682.75 642.247L677.895 641.299L673.157 640.352L671.262 639.997L670.196 639.404L665.459 638.22L657.523 636.207L656.22 635.851L655.747 636.088L655.51 636.325L655.154 637.036L655.036 637.391L655.154 637.865L655.036 637.983V638.457L654.917 638.694L654.681 638.812L654.444 639.167L654.562 639.523L654.799 639.76L655.391 640.115L655.628 640.233H655.983L656.457 640.352L656.576 640.47L656.694 640.944L656.812 641.299H656.694V642.01L656.457 642.365L655.747 642.484H655.036L654.325 642.721L653.615 642.839H652.904L652.549 642.958L651.957 643.313H650.535L650.18 643.55L650.062 643.787L649.588 644.023H649.114L648.759 644.379L648.64 644.616L648.877 645.208L648.759 645.563L648.285 646.747L648.167 646.984L647.93 647.103H647.456L646.982 646.984L646.627 647.103L646.508 647.221L646.39 647.695L646.627 648.05L646.508 648.643L646.271 648.879L645.916 648.998L645.679 649.116V648.879L645.916 648.287L645.798 647.932L645.206 647.577L644.85 647.221L644.376 646.274V646.037L644.613 645.8V645.326L644.14 644.971L644.021 644.616V643.076L644.258 642.602V642.365H643.903V642.247L643.784 642.484L643.429 642.365L643.311 642.247L643.192 642.01L642.955 641.892H642.718V642.01L642.481 642.128L642.245 642.01L641.889 642.128L641.652 642.01H641.534L641.297 641.892L641.179 642.01L641.06 641.892H640.35L640.231 642.365L640.113 642.484H639.876L639.639 642.602H639.402L638.928 642.839L638.573 643.076V643.194H638.336L638.455 643.313L638.218 643.431H637.507L637.152 644.734L637.033 644.971L637.152 645.326L637.27 645.918L637.152 646.037V646.392L637.033 646.747L637.152 646.984L636.915 647.577V647.932L636.086 649.59L636.678 651.722L636.441 651.959L636.204 652.077V652.196L636.796 653.025L636.323 653.972H635.967L635.375 653.854L635.138 653.972L634.901 653.854L634.665 654.091H634.072L633.954 653.972L633.717 654.209L633.48 654.091L633.362 654.209V653.972L633.125 653.854H632.77L632.651 653.617L632.177 653.38L631.822 653.262L631.585 653.38V653.499L631.23 653.735V653.972L631.111 654.091V654.209L630.993 654.446L631.111 654.801H630.993L630.638 655.038L630.401 655.157V654.92H629.927L629.69 655.157H629.216V655.275L628.743 655.512L628.624 655.394L628.506 655.512L628.387 655.749L628.506 655.986L628.624 656.104L628.506 656.459L628.624 656.696L628.387 656.933L628.624 657.052L628.387 657.525H628.269V657.881H628.15L627.914 658.118L627.795 658.354L627.44 658.591L627.321 659.184H627.203L626.966 658.828H626.848L626.611 658.71L626.492 658.828H626.374L626.018 658.71H625.9L625.782 658.354L625.545 658.118V657.762L625.308 657.644L624.953 657.881L624.716 658.236V658.354L624.597 658.591L624.124 658.828L624.005 658.947L623.65 659.184L623.531 659.42L623.294 659.657V660.605L623.176 660.723H623.058V660.486L622.939 660.723L622.821 660.486L622.702 660.368L622.584 660.486L622.465 660.249L622.347 660.131V660.013L622.584 659.776L622.465 659.657V659.302L622.229 659.184V658.947L622.11 658.828L621.399 659.065L621.044 658.71L620.807 658.591H620.57L620.452 658.71H620.333L620.215 658.828V658.947L619.978 659.302V659.539L619.86 659.657V660.013L619.504 660.368V660.605L619.386 660.723H619.268L619.031 660.96L618.912 661.197L618.794 661.552L618.912 661.671V661.789L618.794 662.026L618.675 662.381L618.32 662.263L618.202 662.5L618.083 663.092V663.803L617.965 664.039L618.083 664.276L617.965 664.513L618.083 664.75L617.846 665.224L618.202 665.342L617.846 665.461L617.728 665.698H617.491L617.373 665.935V666.29H617.254V666.882L617.373 667L617.254 667.237L616.78 667.474L616.543 667.356L616.425 667.593H616.188L615.951 667.711L615.714 668.066L615.596 668.185H615.478L615.122 668.303L614.767 668.659H614.648L614.53 668.54L614.293 668.659L614.175 668.896L614.056 668.54L614.175 668.185V668.066L613.938 667.711L613.701 667.474V666.882L613.583 666.645L613.701 666.527L613.464 666.171L613.583 665.935L613.464 665.579L613.346 665.342L612.872 664.987H612.161L611.688 664.632L611.451 664.513V664.395L610.977 664.276L610.503 664.039L610.622 663.803L610.858 663.684L610.977 663.566L610.858 663.21L610.74 663.092L610.148 662.618L610.029 662.381L609.911 662.263H609.556L609.319 662.737L609.2 662.855L609.082 663.092L608.727 663.21L608.49 663.092L608.134 662.974H607.897L607.779 662.855L607.661 662.5L607.897 662.144L608.016 661.908L608.253 661.552L608.371 661.315L608.608 660.96L608.845 660.723L609.319 660.842L609.437 660.96L609.674 660.605L609.792 660.486L610.029 659.894L609.911 659.302H609.792L609.2 659.065L608.253 659.184L607.661 658.947H607.542L607.424 659.302L607.305 659.539L606.95 659.894H606.595L606.239 659.657H606.003L605.884 659.42L606.003 659.184L605.884 658.947V658.71L606.003 658.591L605.884 658.354L606.121 657.999L602.212 658.118L598.186 657.999L597.712 658.118L594.396 657.999H591.079V656.933H588.71L588.474 657.999L586.579 657.881L585.276 657.999L584.328 659.657L583.499 661.315L583.381 661.908L580.538 662.381L580.775 662.144H581.012L581.13 662.026V661.671L581.249 661.434L581.13 660.96L581.249 660.605L581.13 660.249V660.131H577.696V657.407H573.077L572.011 657.644L570.353 657.881L567.51 657.999V656.696H566.562L565.615 656.815H564.075L560.167 657.052H559.219L557.324 657.17H553.416L553.534 659.539H553.061L552.824 659.42L548.915 659.184H547.375L545.717 659.065L539.085 658.947L530.557 658.828L528.662 658.947H527.952L526.886 659.065H526.175L524.398 659.302L520.135 659.42H519.779L518.832 658.591L517.766 657.525L517.055 656.933L515.516 655.038H492.183V659.539L482.945 659.657V661.079L475.72 661.197V659.657H464.232L440.899 659.539L429.056 659.42L423.607 658.947L417.686 658.473H411.764L407.855 658.828L404.776 658.947H383.812L379.43 658.591L374.811 658.236L374.1 658.118H373.034L367.823 657.762L367.468 658.118L363.322 657.407L360.835 657.17L357.874 657.407H354.795L353.255 657.289H352.308V656.815H343.188L343.069 657.881L342.951 658.354V658.71L342.833 659.42L342.596 660.249L342.477 660.723L342.359 661.315V661.908L342.596 662.5L342.714 662.737L343.306 663.21L343.78 663.447L344.609 664.276L344.964 665.105L345.083 665.461V665.935L345.201 666.29V667L345.083 667.474L344.728 667.948L344.491 668.185L344.254 668.659L344.017 669.014L343.78 669.132L343.662 669.488L343.425 669.843L343.188 670.435L343.069 670.672L342.359 671.146L340.819 671.264L340.464 671.146L340.108 671.264L339.635 671.501L339.516 671.738L339.161 672.212V673.515L339.398 674.107L339.516 674.581V675.173L339.398 675.646L339.161 676.357L338.924 676.712L338.569 677.068L337.858 678.134L337.621 678.726L337.503 679.081L337.621 679.555L337.503 680.029V681.213L337.384 682.161L337.266 682.516L337.147 682.634L336.911 683.108L336.2 684.648L336.082 685.003L335.963 685.24L336.082 685.595L335.726 685.951V686.78L335.608 686.898V687.135L335.252 687.372L335.134 687.846L334.542 688.438L334.305 688.912L332.884 690.333L332.647 690.688L331.226 691.636L330.989 691.872L330.633 692.109L330.397 692.346V692.702L330.278 693.057V693.412L330.16 693.649V693.886L330.397 694.123H330.752L331.226 694.478L331.818 694.597H332.173L333.002 694.833L333.594 695.07L333.831 695.307L334.305 696.255V697.202L334.187 697.321L333.95 697.676L333.713 697.794V698.505L333.594 698.742L333.002 699.689L332.528 700.163L332.173 700.282L331.936 700.518L331.344 700.874L331.226 701.111L330.87 701.584L330.633 701.94L330.397 702.177L330.041 703.006V703.953L330.16 704.427V705.138L330.041 705.374V705.73L330.16 706.085L330.515 706.204L330.752 706.322L330.989 707.033L331.107 707.269L331.462 707.506L331.818 707.625L332.173 708.217L332.292 708.691V709.046L332.41 709.283L332.647 709.638L332.765 709.757L333.121 710.467L333.357 711.06L333.476 711.652L333.713 712.125L334.305 712.836L334.66 713.31L335.016 714.139L335.134 714.376L335.252 714.968V715.56L335.016 716.152V716.745L335.134 717.218L335.726 718.284L336.318 718.876V719.113L336.437 719.35L337.029 719.587L337.384 719.942L337.621 720.298L338.213 721.127L338.332 721.601L338.569 722.193V722.903L338.45 723.377L338.332 723.732L338.45 724.088L338.806 724.68L339.042 725.391L339.279 725.746L339.635 725.983L339.99 726.101L340.582 726.338L341.056 726.575L341.648 726.812L342.003 726.93L342.122 727.167H342.359L342.596 727.286L342.951 727.759L343.662 727.878L344.491 728.233H345.201L345.912 728.47L346.859 728.707H347.452L347.807 728.825L348.399 729.062L348.518 729.181H350.057L350.413 729.299L350.531 729.536V729.773L350.294 730.247V730.602L350.176 730.957L349.939 731.194L349.465 731.549L349.11 731.668L348.754 731.905L348.281 732.023L347.925 732.26L347.57 732.615L347.333 732.734H347.096L346.623 732.615L346.386 732.497H345.793L345.201 732.615L344.846 732.734L344.135 733.207L343.425 733.918L343.188 734.51L342.951 734.866V735.221L342.714 735.695L342.477 735.932L342.122 736.642L342.003 737.471L342.122 737.945V739.485L341.767 740.195V740.669L341.411 741.024L341.174 741.735V742.801L341.293 743.038L341.767 743.393L341.885 743.63L342.122 744.222V744.341L342.24 744.459L342.359 744.696L342.951 745.051L343.069 745.288L343.425 745.407L343.543 745.525L344.135 745.762L344.254 745.88L344.728 746.117L344.964 746.354L346.623 747.302L347.689 747.894L348.044 748.012L348.518 748.131L349.702 748.368L350.413 748.604L351.479 749.197L351.952 749.552L352.308 750.026L352.544 750.736L352.663 751.565L352.544 752.276L352.426 753.105L352.071 753.934L350.886 755.119L350.294 755.592L349.939 755.829L348.991 756.185L348.518 756.658L348.162 757.132L347.689 757.487L347.57 758.435V758.909L347.807 759.501V759.975L348.044 760.33L347.925 760.804L348.044 761.041L348.281 761.396L348.399 761.633L348.518 762.225V762.699L348.636 763.409L348.873 764.594V764.949L348.518 765.66L348.162 766.252L348.044 766.489L348.162 766.844V767.791L348.281 768.147V768.976L348.399 769.331L348.636 769.568V769.923L348.754 770.16V770.752L348.636 771.463V771.818L348.399 772.292L348.518 772.766V773.477L348.754 774.424L348.873 774.779H348.754L349.11 775.49V775.727L349.228 775.845V776.082L349.347 776.556H349.465L349.584 776.911L349.465 777.148L349.347 777.503L349.465 778.332L349.584 778.925L349.939 779.398L350.176 779.635V780.346L350.413 780.938L350.886 781.649L351.597 782.478L351.834 782.952L352.426 783.544L353.137 784.018L353.492 784.373V784.61L353.729 785.794L353.966 786.268L354.084 786.623L354.321 786.978V787.571L354.203 787.926L354.084 788.4V788.637L353.847 788.992L353.492 789.11L353.255 789.347L353.018 789.821L352.781 790.058L352.663 790.532L352.308 791.124L352.071 792.071L351.834 792.664L351.715 793.019L351.834 793.137V794.203L352.071 794.559V795.032L351.952 795.269V796.572L352.426 797.52L352.781 798.349L353.847 800.244L354.084 800.48L354.676 800.954L355.861 802.257L356.098 802.731L356.335 803.086V803.678L356.216 803.915L355.979 804.626L355.742 804.981L355.505 805.099L355.15 805.218L354.676 805.336L354.439 805.573L353.966 805.692L353.729 805.929H353.492L353.374 806.047V806.284H353.018L352.9 806.521L352.308 806.995L352.426 807.113L352.308 807.587L352.071 808.06L351.834 808.297L351.597 808.653L351.36 808.89L351.242 809.956L350.886 810.548L350.531 810.785L350.294 811.258L350.176 811.851L349.939 812.324L349.702 812.68L349.11 813.035L348.991 813.153L348.636 813.39L348.518 813.627V813.982L348.636 814.693L348.991 815.404L349.347 815.996V816.47L349.11 817.536L348.991 818.246L348.873 819.312V819.786L348.991 820.26L349.228 820.378L349.347 820.733H349.702L349.82 820.852L350.176 821.089L350.768 821.207L351.479 821.444H352.071L352.544 821.799L352.663 822.155L352.544 822.392V822.747L352.663 823.102V823.221L352.781 823.931L352.9 824.76V825.234L353.018 825.471L353.729 826.182L353.966 826.655V827.129L353.729 827.603L353.255 827.958L353.018 828.195L352.9 828.787L352.663 829.024L352.426 829.143L351.834 829.735V829.972L351.952 830.445L351.834 830.682L351.36 831.038L351.123 831.274L350.886 831.63L350.768 831.748V832.577L350.886 832.814V833.88L351.005 834.235V834.354L350.886 834.709L351.123 835.657L351.597 836.13L351.715 836.486L351.834 836.959L352.189 837.315L352.426 837.67L352.663 837.789L352.781 838.025L353.492 838.262L353.729 838.499L353.966 838.618L354.321 839.091L355.032 839.684L355.269 840.039L355.505 840.276L355.624 840.513L355.979 840.631H356.216L356.927 840.75L357.519 840.986L357.993 841.342L358.703 842.408L358.94 842.526L359.532 842.881L360.361 843.71L360.48 843.947L360.598 844.303L360.835 844.776V844.895L361.072 845.25L356.453 850.461H356.216L355.979 850.698L356.098 850.935L355.624 851.409L355.505 851.646L355.269 851.883H355.032L354.795 852.12L354.203 852.475V852.712L353.966 853.067L353.61 853.304L353.255 853.422L353.137 853.541L352.426 855.199L352.071 855.081L351.834 855.199L351.242 855.317L351.005 855.081L350.886 854.844L350.531 854.607L350.057 854.37L349.347 854.251L349.11 854.015L347.925 852.593L347.689 852.475H347.452L347.215 852.356L347.333 852.12L347.096 851.883L346.741 851.764L346.386 851.29L346.03 851.054L345.438 850.461L344.728 850.106L344.372 850.225L331.818 835.775L331.699 835.538V835.775L331.581 835.42L331.344 835.183H331.226L330.752 834.828L330.989 834.354L330.87 834.117V833.998L330.752 833.643L330.278 833.169L330.16 832.932L330.041 832.577L329.923 832.34L329.804 831.985L329.923 831.867L329.804 831.63V830.919L329.686 830.445V830.09L329.567 829.616L329.331 829.143L326.725 825.589L322.224 814.101L321.632 814.338L318.434 815.048L317.25 815.522L316.895 815.877L316.658 816.233H315.947L314.881 815.285L314.17 814.456L313.104 812.68L311.802 811.377L311.565 810.429L311.21 808.179V807.824L311.565 805.692L311.328 805.573L310.144 804.389L307.419 802.494L306.709 801.665L305.88 801.428L305.169 800.836L303.985 800.599L303.393 801.191L303.156 801.546L301.971 802.257L301.142 802.849L300.905 802.731L300.787 802.494L300.55 802.375L299.958 801.902L300.076 801.665L299.958 800.836V800.362L299.839 799.888L299.721 798.941L299.484 798.349V797.638L299.366 797.164L299.247 796.572V795.743L299.484 795.151L299.603 794.44V794.085L299.366 793.729V792.9L299.484 791.953L299.603 791.834L299.484 791.361L299.603 791.242V790.768L299.721 790.65L299.839 790.295L299.603 790.058L299.484 790.295L299.247 790.176H299.01V790.295L298.655 790.413L298.3 790.887L298.181 791.005L298.063 791.242V791.834L297.944 791.953L297.471 792.19L297.589 792.308L297.471 792.427H297.352L297.234 792.545L297.352 792.9V793.019L297.471 793.256H297.234V793.493H296.878L296.642 793.729L296.523 794.322L296.405 794.44L296.286 794.322H296.168V794.44L296.049 794.559L295.813 794.677H295.694L295.576 794.795H295.102L294.865 794.914L294.747 795.032V794.914H294.036L293.918 795.032H294.036V795.506L293.562 795.98H293.681L293.562 796.454L293.444 796.69H293.207L292.97 797.046L292.733 797.283L292.615 797.52L292.378 797.638L292.141 797.875L292.259 798.112L292.022 798.349H291.667V798.585L291.43 798.704L290.838 798.822L290.72 798.941V799.059L290.601 799.178V799.414L290.127 800.125V800.007L289.891 800.362V800.954L289.772 801.073V801.191L289.535 801.31V801.073H289.18L288.943 800.954V800.717L288.825 800.599L288.588 800.244H288.469V800.007H288.351L287.877 799.651L285.39 798.704L283.969 798.23V797.52L284.206 796.572L284.916 793.256L284.561 793.137L284.442 793.256L284.324 793.137H284.087L283.969 793.256L283.732 793.374L282.666 793.848H281.837L281.245 793.966L280.652 794.44L279.586 794.085L278.876 793.966L278.639 793.848L278.284 793.493L277.928 793.256L277.81 793.137L277.336 792.427L276.744 791.834L276.389 791.598L275.915 791.479L274.612 791.124H274.02L273.901 791.005L273.072 790.887H272.243L271.414 791.124L271.059 791.361L270.585 791.834L270.23 792.308L269.993 792.19L269.756 791.953L269.045 791.361L268.69 791.005L268.216 790.768L267.98 790.887L267.743 790.768L267.387 790.887L267.15 790.768H267.032L266.677 790.532H266.44L265.255 790.295L265.019 790.058L262.887 790.532H260.755L259.097 790.65H258.741L258.386 790.532L258.031 790.295H257.794L257.202 790.058L256.965 789.939L256.609 789.821L256.373 789.939V789.821L255.899 790.058V789.939L254.596 789.703L254.004 789.584H252.938L252.583 789.821L249.74 789.939L249.503 790.295L249.385 790.176L249.148 790.058V789.939L248.793 789.703V789.466L248.319 788.874L247.608 787.926L247.134 787.334L244.766 787.571L244.173 787.926L244.055 788.518V788.874L243.7 789.466L242.397 790.413L241.805 790.768L241.094 791.005L240.502 791.124H240.265L239.791 791.005L239.199 790.768L238.962 790.65L237.896 790.413L237.304 790.176H236.83L235.409 790.058L234.58 790.176L233.514 790.413L232.566 790.65L231.619 790.768L230.079 790.887L229.25 791.124L228.421 791.242L228.184 791.361L227.947 791.242H227.71L227.474 791.479H227.355L227 791.834L226.526 792.427L226.645 792.545L226.408 792.664V792.782L226.289 792.9L226.052 793.493L225.815 793.611L225.579 793.966L224.631 794.914V795.032L224.513 795.269L224.394 795.032H224.276L224.157 794.677H223.92L223.684 794.322H222.381L221.907 794.203H221.196L220.723 794.677L219.775 794.203L219.42 794.322L219.183 794.085H213.972L213.261 793.848L213.143 794.085L213.024 794.203L212.669 794.44L212.432 794.677V794.795L211.958 795.269L211.84 795.743L211.721 795.98L211.603 796.098L211.366 796.454L211.248 796.69L210.892 796.572H210.418L209.708 796.809L209.471 797.164H209.234L209.116 797.283L208.879 797.756H208.405L208.287 797.638L207.576 797.401H207.221L207.102 797.52V797.638L206.747 797.756H206.273L206.036 797.52L206.155 797.283L205.799 797.164H205.563L205.444 797.401H205.207L205.089 797.638L204.852 797.756L204.497 797.638L204.378 797.756V797.993L204.141 798.112V798.23L204.378 798.349V798.822L204.26 798.941L204.378 799.059L203.904 799.533L204.023 799.651L203.904 799.888L204.023 800.125L203.904 800.244L204.023 800.599L203.904 800.717L203.431 800.836L203.668 801.191V801.31L204.023 801.665L204.615 801.783V801.902L204.26 802.257H204.141L203.904 802.731L203.668 802.968H203.431L203.194 803.086L202.483 803.205V803.323H202.246L202.009 803.205H201.891L201.654 803.323V803.205L201.417 803.323L201.062 803.086V802.968L200.825 802.849V802.731L200.47 802.612L200.351 802.731L199.877 802.375L199.285 802.494L199.048 802.257H198.338V802.139L197.864 802.375H197.627L197.509 802.612H197.035L196.798 802.731H196.68L196.561 802.968L196.443 802.849L196.324 803.086V803.441L196.206 803.56V803.915L196.087 804.152V804.389L195.732 804.626V804.507L195.614 804.744L195.495 804.863L195.377 805.336L195.258 805.455H195.14V805.81L195.021 805.929L194.785 805.81L194.666 805.929H194.429V806.284H194.311L194.192 806.639L193.482 805.929L192.771 806.047H192.653L192.179 805.929L191.587 805.81H191.35L190.639 805.455L190.402 805.218L189.929 804.981V804.863L189.455 804.744L188.981 804.389H188.271L187.915 804.152L187.441 803.915L187.323 803.678L186.968 803.323H186.849L186.612 802.849L186.494 802.494L186.257 802.139L186.139 801.902L185.902 801.546L185.546 801.191L185.073 801.073H184.954L184.244 801.783L183.651 802.731L183.415 803.56L183.059 803.915L182.941 804.152L182.704 804.271L182.349 804.626L181.875 804.981L181.401 805.218H180.927L180.454 805.81L179.625 806.995L179.032 808.06L178.914 808.297L178.085 808.771L177.966 809.245L177.73 809.6L177.493 810.074L177.374 810.192L176.427 810.429L174.65 810.666L173.703 810.785L170.149 811.377V811.495L169.913 811.732L169.794 811.969L169.557 812.087L169.439 812.324H169.202V812.68H169.084L168.847 812.324L168.61 812.443H168.491L168.373 812.324L168.254 812.087L168.373 811.969L168.136 811.732V811.851L167.899 811.969L168.018 812.206L167.899 812.561V812.798L167.662 813.272H167.425L167.307 813.509V813.627L167.07 813.864L166.952 813.746L166.596 814.338L166.833 814.456L166.952 814.811L167.425 815.048L167.899 814.93L168.018 814.811L168.254 814.93L168.373 814.811H168.61L168.728 814.693L168.965 814.811L168.847 815.285L168.491 815.522L168.254 815.404H168.018L167.781 815.522L167.662 815.641L167.425 815.759V815.996H167.662V816.233L167.781 816.588L167.899 816.707V816.943L167.781 817.062L168.018 817.299V817.536L167.781 817.772L167.899 817.891L167.781 818.246H167.662L167.544 818.128L167.189 818.246L166.952 818.483V818.838L167.07 819.075L167.189 819.194L167.307 819.549H167.425V819.904L167.189 820.141H167.07V820.26H166.833V820.023L166.596 819.904L166.478 819.786L166.241 819.667L166.123 819.904V820.852L166.596 820.97L166.715 820.852L166.833 821.089L166.952 821.207V822.155L166.596 822.273L166.478 822.155L166.123 822.628H165.886V822.747L165.767 822.865L165.53 822.747H165.412V823.221L165.53 823.457V823.694L165.649 823.931L165.886 824.05L166.004 823.931L166.123 824.168L165.649 824.405L165.412 824.76V824.879L165.293 825.116L165.53 825.353L165.293 825.471L165.412 825.708H165.53V826.063L165.767 826.182V826.774L165.53 827.247V827.484H165.057V827.721L164.82 828.077V828.195L164.938 828.55V828.906L164.701 829.261L164.583 829.498L164.464 829.616H164.109L163.754 829.853L163.872 830.208H163.635L163.517 830.445L163.635 830.682V830.801H163.28V830.919L163.398 831.038L163.28 831.274L163.043 831.156L162.688 831.274L162.569 831.511L162.333 831.63L162.688 831.985V832.104L162.451 831.985L162.214 832.222L161.977 832.104L161.74 831.748H161.622L161.267 831.63L160.793 831.393L160.438 831.038L160.201 830.564L159.727 829.972L159.49 829.498L159.135 829.024L158.779 828.669H158.661L158.306 828.787H157.713L157.477 828.906L157.358 829.024L157.003 828.906H156.529L156.174 829.024L155.937 829.261L155.463 829.379L155.226 829.616L154.989 830.327L155.226 831.274L155.345 831.511V832.104L155.226 832.459L154.752 832.814H154.16L153.687 832.577L153.213 832.459L152.739 832.222L152.384 831.748L152.147 831.63H151.792L151.555 831.393L151.199 830.564L150.962 829.972L150.844 829.853L150.726 829.379L150.489 829.143V826.182L150.133 825.708V825.471L149.897 825.234L149.778 824.997L149.186 824.879L148.594 824.523L148.12 824.05L148.001 823.813H147.765L147.054 824.05L146.817 824.168L146.58 824.523L146.225 824.642H145.87L145.514 824.879L145.041 825.234H143.856L143.501 825.353L143.264 825.471L142.435 825.589H142.316L141.843 825.353L141.487 825.234H141.251L140.658 825.353L139.948 825.826H139.474L139 826.063L138.763 825.945L138.29 825.471L138.171 825.234L137.934 825.116L137.816 824.997V824.523L137.697 824.287H137.46L137.224 823.931L137.105 823.694L137.224 823.457L137.105 823.221L136.987 822.865L136.75 822.51V822.273L136.868 822.036V821.207L136.75 820.97L136.868 820.497V819.904L136.75 819.431L136.868 818.957V818.72L137.224 818.602L137.342 818.365L138.053 817.654L138.526 817.062L138.763 816.707L138.882 816.588L139 816.114L138.882 815.285L138.763 814.93L138.882 814.575L138.763 814.338L138.526 814.101L138.29 813.746L137.816 813.153L137.46 813.035H136.631L136.513 812.917H136.039L135.447 812.798L135.092 812.917L134.855 813.035H134.618L134.263 813.153H133.789L133.434 813.509L133.315 813.746L132.96 813.982L132.723 814.219V814.338L132.96 814.811L133.434 815.522V815.877L133.789 816.233L134.026 816.588V817.062L133.789 817.772L133.67 818.009L133.434 818.128L133.078 818.838L132.368 819.549L132.012 820.023L131.775 820.26L131.065 820.497H129.762L129.288 820.141L128.933 819.786L128.696 819.075L128.459 818.72L128.341 818.246L128.104 818.009L127.749 817.891L127.393 817.654L127.156 817.062H126.446L126.209 816.825L125.972 816.351H125.735L125.498 816.233L125.38 816.47V817.062L125.143 817.417L124.906 818.365L124.669 818.602L124.551 819.075H124.195L123.722 818.957L123.603 818.838L123.248 818.72L122.656 818.602L122.419 818.483V818.246L122.182 818.009L121.708 817.772H121.471L121.234 818.009H121.116L120.879 818.128L120.761 818.602L120.879 818.838L120.761 819.194V819.667L120.405 820.378V820.497L120.168 820.97H119.932L119.695 820.733L119.339 820.97H119.103L118.392 821.207L118.037 821.444L117.918 821.681L117.444 821.799L117.208 821.918L116.615 822.036L116.378 822.155L116.023 822.036L115.905 821.918V821.326L115.786 821.207H115.194L114.839 821.089L114.483 820.733L114.128 820.497L114.01 820.141L113.654 819.786L113.773 819.549L113.654 819.312H113.418L113.181 819.075L113.299 818.72V818.365L113.062 818.009L112.944 817.772L112.825 817.417L112.588 817.299L112.352 816.943V816.351L112.233 816.114L112.352 815.996L112.233 815.759L111.996 815.522L111.167 815.167L110.575 814.575L110.693 813.982L110.812 813.746V813.627L110.22 813.153L109.627 812.917L109.509 812.798L109.272 812.68H108.917L108.443 812.798L108.088 812.68L107.969 812.561L107.259 812.443L106.903 812.68L106.43 813.272L106.548 813.509L106.903 813.746L107.022 813.864V814.101L106.785 814.575L106.43 814.693L105.837 814.811H105.601L105.127 814.456L104.89 813.982V813.627L105.245 812.917L105.127 812.68L104.772 812.561H104.061L103.706 812.324L103.469 812.443L103.35 812.324L103.469 812.206V811.969L103.35 811.614L103.587 811.021L103.35 810.785L103.113 810.311H102.995L102.403 810.548L102.166 810.666L101.929 810.548L101.337 809.956L100.745 809.245L100.626 809.008V808.653L100.863 808.416L101.218 808.534L101.811 808.771H102.166L102.403 808.534L102.758 808.653V808.89H102.995L103.232 808.771L103.942 809.126L104.298 809.363L104.653 809.245V808.416L104.416 808.297L104.061 808.179L103.706 807.705V807.231L103.587 806.995V806.639L103.824 806.402V805.336L103.706 804.389L103.824 804.152L104.179 804.034L104.298 803.915V803.56L104.772 803.205V803.086L104.416 802.968L104.298 802.612L103.706 802.375L103.469 802.139L102.995 802.02L102.877 801.902L102.758 801.428L102.403 801.31H101.929L101.455 801.665L101.1 801.783L100.389 801.546L99.9155 801.191L99.6787 801.073V800.599L99.4418 800.48L99.3234 800.362L99.5602 800.125V799.888L99.6787 799.296V799.178L99.5602 798.822L99.2049 798.585L98.4943 798.349L97.7837 797.993L97.6652 798.112L97.4283 797.993L97.3099 798.112L96.9546 798.23H96.8362L96.5993 798.467H96.3624L95.8886 798.349L95.6518 798.112L95.2964 797.993L94.7043 797.638H94.1121L93.8752 797.756L93.5199 798.23L93.4014 798.112V797.52L93.0461 797.401H92.8092V797.164L92.4539 796.927L92.0986 796.809L91.7433 797.164L91.5064 797.046L91.2695 797.164L91.1511 797.401L90.7958 797.52L90.6774 797.401L90.5589 797.164V796.335L90.0852 795.98L89.8483 795.861L89.1377 795.624H88.7823L88.6639 795.861H88.427L87.9533 796.098L87.4795 796.217L86.8873 796.572L86.6505 796.927L86.532 797.164L86.6505 797.401L87.0058 797.875V798.467H86.6505L86.1767 797.993L85.7029 797.638L85.3476 797.164L84.8739 796.927L84.1632 796.69H83.6895L83.4526 796.572L82.6236 795.743L82.1498 795.506V795.269L82.0314 794.914L81.7945 794.677V794.085L82.0314 793.848L81.9129 793.256V792.782H82.0314L82.5051 792.427L83.3342 792.19L83.4526 792.071L83.3342 791.716L83.2157 791.479L83.3342 791.124V790.768L83.2157 790.413L82.8604 790.176V789.821L82.6236 789.466L82.5051 788.992V788.755L82.8604 788.637L83.0973 788.755L83.4526 788.874H83.6895L83.8079 788.992L84.1632 788.874H84.637L84.7554 788.637L85.4661 787.926L85.3476 787.808L85.2292 787.571L84.8739 787.215L84.637 787.097L84.2817 787.215L83.9264 786.978L83.4526 786.623L82.9789 786.386V785.913L83.0973 785.439V785.202L82.9789 785.083H82.5051L82.3867 784.965L81.676 784.847L80.847 784.61L80.7285 784.728L80.1363 784.136L79.8995 783.781L79.781 783.544L79.8995 783.425V783.307L79.6626 783.188V783.07L79.781 782.952V782.596L79.8995 782.122L80.2548 781.767L80.3732 781.412V781.293L79.8995 780.938V780.82L80.0179 780.464L80.2548 780.346H80.3732L81.0839 781.057L81.4392 781.293H81.7945L82.0314 781.412H82.6236L82.9789 780.938V780.583L82.742 779.991L82.6236 779.872V779.635L82.8604 779.28L82.742 778.925L82.3867 778.806L82.0314 778.451V778.214L81.7945 777.859V777.622L81.9129 777.267L81.7945 776.911L81.4392 776.201L81.3207 776.082H80.9654L80.6101 775.964L80.4917 775.845L80.1363 775.727L79.6626 775.608V775.49L79.781 774.779L79.3073 774.306H79.0704L78.8335 774.069H78.3598L77.886 774.187L77.6491 774.306H77.4123L77.2938 774.069H77.0569L76.8201 773.713L76.2279 773.121V773.003L76.4648 772.766V772.292H76.7016L76.8201 772.174V771.937L76.9385 771.818H77.0569L77.4123 771.581L77.5307 771.345L77.6491 771.226L77.7676 770.989L77.6491 770.871L77.7676 770.634L78.0045 770.279V770.042L78.1229 769.568L78.2413 769.331V768.857L77.6491 769.094L77.5307 769.331L77.1754 769.45H76.4648L75.8726 769.568L75.7541 769.805L75.6357 769.923L75.5173 769.805L75.1619 769.923L75.0435 770.279H74.8066L74.6882 770.397V770.634L74.3329 770.989V771.108L73.9776 771.818L73.7407 771.937L73.5038 771.818L73.1485 771.581L73.03 771.7H72.9116L72.7932 771.345H72.5563L72.4379 771.463H72.0825L71.7272 771.818H71.3719L71.2535 771.226L71.3719 770.989H71.4903L71.6088 770.752L72.0825 770.279L72.3194 770.16L72.6747 769.805L73.1485 769.568L73.2669 769.45V769.094L73.5038 768.739L73.3854 768.621L72.9116 768.739V768.976L72.4379 769.213L72.0825 769.094L71.8457 768.976H71.135L70.6613 768.739H70.306L69.8322 768.976L69.5953 768.857L69.4769 768.739L69.24 768.265L69.1216 768.147L69.24 767.791V767.555L69.5953 766.844L69.7138 766.726H69.8322L70.0691 766.962H70.5428L71.0166 766.607L71.3719 766.489L71.4903 766.607L71.7272 766.962L71.8457 767.436L72.201 767.555L72.4379 767.436L72.5563 767.555L72.9116 767.436L73.3854 767.199H73.5038L73.6222 766.962L73.5038 766.726L73.3854 766.133L73.2669 765.778L73.1485 765.541H70.8982L70.5428 765.304L70.1875 765.186L70.0691 765.067L69.5953 764.831V764.12L69.8322 763.883L69.9506 763.646L69.8322 763.172L69.7138 763.054V762.699L69.9506 762.343L70.0691 762.106L70.306 761.751V761.396L70.1875 760.804L70.6613 760.211L70.7797 759.975V759.738L70.6613 759.619L70.306 759.501H69.7138L69.4769 759.619L68.7663 759.856H68.6478L68.1741 760.211L67.8188 760.33H67.7003L67.345 760.448H67.2266L66.5159 760.685H66.0422L65.5684 760.567L65.3316 760.211V759.975L65.5684 759.856L65.8053 759.619L66.2791 759.501H67.2266L67.8188 758.553L68.2925 758.08V757.961L68.4109 757.606L68.2925 756.895L68.4109 756.54L68.5294 755.948L68.2925 755.474L68.1741 755.119L68.0556 754.882V754.408L67.9372 754.29L67.7003 754.171H67.5819L67.345 754.29L67.1081 754.763V755.119L66.9897 755.237L66.7528 755.355L66.0422 755.829L64.7394 756.421L64.384 756.658L63.7919 756.895H63.4365L63.1997 756.777V756.421L63.3181 755.829L63.4365 755.592L63.6734 755.355L63.7919 754.645L64.0287 754.171L64.9762 753.224L65.2131 752.75V752.394L64.9762 752.158L64.2656 752.276L64.1472 752.158L63.6734 751.921L63.555 751.565L63.4365 751.329L63.3181 750.855L63.4365 750.618L63.555 750.144L63.9103 749.789L64.5025 749.552L64.8578 749.434L65.0947 749.315L65.9237 748.486L66.1606 748.368V748.012L65.9237 747.775L65.3316 747.42H64.8578L64.6209 747.302H64.0287L63.555 747.183L63.4365 746.946V746.591L63.7919 746.236V746.117L64.1472 745.762L64.384 745.051V744.578L64.6209 744.222V744.104L64.5025 743.867L64.2656 743.985L64.1472 744.104L63.555 744.341L63.3181 744.696H62.9628L62.8443 744.341L62.7259 744.222L62.6075 743.748L62.2522 743.512L62.1337 743.748V744.222L62.0153 744.459L61.7784 744.696L61.5415 744.459L61.4231 744.578L61.3047 744.814L60.3571 745.525L60.2387 745.88L59.8834 746.236L59.4096 746.354L59.0543 746.591L58.4621 746.473L57.9884 746.354L57.7515 746.473L57.3962 746.354L57.1593 746.236L57.0409 745.999V745.643H56.5671L55.8565 746.236L55.738 746.117L55.5012 746.354H55.0274L54.7905 745.999L54.6721 745.643L55.0274 745.17V744.814L55.1459 744.696L55.2643 744.933V745.17L55.5012 745.525H55.8565V745.051H55.738L55.3827 744.696L54.7905 744.341L54.4352 744.222L53.7246 743.867V743.63L53.843 743.393L54.1984 742.919V742.683L54.4352 742.446L53.9615 742.209H53.6062L53.3693 742.683L53.2508 743.038H53.014L52.6587 743.393V743.63L52.3033 743.985H52.0665L51.7112 743.867V743.63H51.5927L51.2374 743.393V743.275L51.119 743.156L50.6452 743.038H49.6977L49.4608 743.156H48.8686L48.5133 743.038V743.156L48.2764 743.275H48.158L47.9211 743.393L47.8027 743.275L47.4474 743.63L47.0921 743.748V743.867L46.7367 744.222L46.3814 743.985L46.263 743.867L46.3814 743.63L46.263 743.275L45.7892 743.156H45.5524L45.3155 743.038L44.9602 743.275L45.197 743.748L45.0786 743.867L44.7233 743.748L44.6049 743.867L44.1311 743.63L43.7758 743.512L43.6573 743.275L43.4205 743.038V742.801H43.302L43.4205 742.683L43.302 742.446L43.1836 742.327H43.0652L43.1836 742.564H42.8283V742.327H42.7098L42.473 742.446V742.564L42.3545 742.801L42.1176 742.919L41.8808 742.801L41.5255 742.919L41.6439 743.156H42.3545L42.473 743.393V743.985L42.2361 744.341L41.9992 744.459L41.8808 744.341L41.407 744.104L40.9333 744.578V744.696L40.6964 744.814L40.4595 744.696H40.1042L39.9858 744.933L39.6304 744.814V745.051L39.3936 745.288L39.1567 745.407L39.0382 745.643L38.6829 745.999H38.2092L37.7354 745.525H37.617L37.3801 745.288L37.0248 745.051L36.3142 744.933L35.722 744.578V744.222L35.6035 744.104L35.0113 744.459V744.814L34.8929 745.051V745.17L34.7745 745.407L34.8929 745.643V745.762L34.7745 745.88V746.117L34.656 746.354L34.3007 746.709V746.946L34.1823 747.065L34.0638 746.946L33.7085 747.065L33.4716 746.946L33.1163 746.828L32.8795 746.473V746.236L32.6426 745.999V745.88L32.5241 745.643V745.525L32.4057 745.407H31.8135L31.5766 745.525L31.4582 746.117H31.1029L30.866 745.762L30.6291 745.88L30.3923 745.525L30.0369 745.288L29.8001 745.17L29.4447 745.407L29.3263 745.525V745.407L28.8526 745.288H28.6157V744.933L28.3788 744.578L28.2604 744.341L27.905 744.104H27.1944V743.748L27.4313 743.038L27.3129 742.919L27.1944 742.564L26.6022 741.972H26.3653L26.01 742.09V742.209L25.6547 742.564L25.2994 742.683L25.181 742.564L24.9441 742.209L24.5888 742.09V741.854L24.7072 741.024L24.8257 740.669L24.5888 740.551L24.7072 740.432L24.4703 740.077L24.115 739.722H23.8781L23.6413 739.603L23.5228 739.722L23.0491 739.958H22.9306L22.6938 739.84L22.5753 739.603L22.3384 739.485V739.366L22.22 739.248H21.9831L21.7463 739.129L21.6278 738.893L21.3909 738.537L21.2725 738.419L21.3909 738.182H21.5094L21.7463 738.537L21.9831 738.419V737.945L21.7463 737.708V737.116L21.8647 736.997L21.5094 736.761L21.3909 736.287V735.932L21.1541 735.576V735.339H21.0356L20.5619 735.576L20.4434 735.458L20.325 735.576L19.9697 735.695L19.4959 735.458L19.0222 735.102V734.984H19.1406L19.2591 734.629L19.3775 734.51L19.2591 734.392H18.9037V733.681L18.6669 733.207H18.5484V732.971L18.43 732.852L18.3115 732.615L18.43 732.26H18.3115L18.43 731.905L18.3115 731.668L18.0747 731.549H17.6009L17.4825 731.431H17.364L17.2456 731.194L17.0087 731.076L16.8903 730.839L16.7718 730.483L17.0087 730.247V729.299L16.7718 729.536L16.2981 729.654L15.9428 729.536L15.8243 729.417L16.0612 729.062L16.1797 728.825H16.0612V728.707L15.8243 728.588V728.707H15.469L15.3506 728.588Z" fill="white"/>
<circle id="105" cx="500" cy="490" fill="#5CE50D"/>
<circle id="108" cx="395" cy="350" fill="#E52A0D"/>
<circle id="106" cx="167" cy="646" fill="#E52A0D"/>
<circle id="1592" cx="736" cy="530" fill="#E52A0D"/>
</svg>
