<svg width="1000" height="1000" viewBox="0 0 1000 1000" fill="none" xmlns="http://www.w3.org/2000/svg">
<path d="M67.3828 173.828C67.3828 179.395 67.1875 179.883 61.4258 187.402C56.9336 193.262 53.5156 196.484 47.9492 200.195C40.918 204.688 39.9414 205.078 34.375 205.078H28.418L23.9258 219.434C21.3867 227.441 17.8711 238.672 16.0156 244.629L12.5977 255.371L17.1875 267.871L21.6797 280.371L27.2461 283.887C30.2734 285.84 33.0078 287.793 33.3008 288.281C33.5938 288.77 34.4727 296.68 35.1562 305.664L36.4258 322.168L41.1133 327.93C45.4102 333.301 46.1914 333.887 50.6836 334.473C55.3711 335.059 55.8594 335.449 65.7227 346.484C74.5117 356.445 75.9766 358.496 76.5625 362.305C77.0508 365.82 78.9062 368.945 86.0352 378.125C93.9453 388.379 95.0195 389.453 96.9727 388.77C99.9023 387.598 109.375 391.406 110.449 394.043C111.816 397.559 111.328 402.734 109.473 405.957C107.91 408.496 106.152 409.473 99.2188 411.719L90.8203 414.453L88.6719 420.117L86.4258 425.781L80.957 426.855C73.6328 428.32 66.6992 434.18 64.5508 440.723C63.6719 443.164 61.0352 447.656 58.5938 450.586L54.1992 455.957L45.8984 456.25C33.5938 456.543 31.9336 456.543 29.7852 455.762C28.0273 455.176 27.2461 456.055 23.9258 462.891C20.2148 470.508 20.1172 470.801 21.1914 476.074C22.2656 480.762 21.9727 483.789 18.5547 504.004L14.7461 526.66L21.582 533.105L28.3203 539.551L27.7344 549.512L27.0508 559.57L19.9219 563.965C12.9883 568.262 12.6953 568.652 11.1328 574.121L9.57031 579.883L6.54297 579.004C0.683594 577.344 0 577.637 0 582.617C0 586.914 0.390625 587.598 8.20312 596.094C15.1367 603.516 17.0898 606.543 20.5078 614.258C22.7539 619.336 25.0977 624.023 25.6836 624.707C26.3672 625.293 38.0859 630.273 51.7578 635.742C65.4297 641.211 76.9531 645.996 77.3438 646.289C77.7344 646.68 78.3203 652.93 78.6133 660.156C79.2969 673.34 79.2969 673.34 83.9844 683.203C87.1094 689.844 89.5508 693.75 91.6016 695.117C93.9453 696.777 95.2148 699.219 97.6562 706.348L100.684 715.332L92.6758 722.656L84.7656 729.98L85.4492 740.43C86.1328 750 85.9375 751.367 83.9844 756.152C81.8359 761.328 81.8359 761.621 83.3984 766.211C85.4492 772.266 85.3516 773.34 82.5195 783.105C81.1523 787.695 80.0781 791.895 80.0781 792.578C80.0781 793.262 85.5469 794.727 94.5312 796.387C102.441 797.754 109.668 799.219 110.547 799.414C111.816 799.805 112.988 798.438 115.43 793.457C118.164 787.988 119.141 786.914 122.07 786.133C127.344 784.668 128.223 784.961 131.152 789.062C132.715 791.211 134.57 792.969 135.352 792.969C136.133 792.969 142.578 791.211 149.707 788.965L162.598 785.059L187.207 785.254C207.715 785.449 212.207 785.254 213.574 783.984C214.551 783.203 219.141 780.957 223.828 778.906C228.516 776.855 233.008 774.316 233.984 773.34C234.863 772.363 235.938 771.484 236.328 771.484C236.621 771.484 237.891 774.316 239.16 777.734L241.309 783.984L246.875 785.059C251.953 786.035 252.832 785.938 258.984 783.496C264.844 781.25 265.527 780.664 265.039 778.906C264.648 777.734 263.77 775 263.086 772.754L261.816 768.555L265.918 765.82L270.02 762.988L274.219 764.746C278.32 766.504 278.418 766.504 285.352 763.965L292.285 761.328L300.293 770.117L304.785 769.238C308.691 768.359 309.961 768.555 314.844 770.801L320.508 773.438L326.27 769.434C331.348 766.016 332.617 765.527 336.719 765.82L341.309 766.113L343.457 777.832C344.629 784.277 345.898 790.527 346.191 791.699C346.582 793.457 347.754 793.945 354.297 795.02C362.109 796.289 363.672 797.266 368.848 803.906C371.875 807.91 375.977 806.836 380.176 800.879C383.105 796.875 384.277 796.094 389.648 794.629L395.801 792.871L400.781 797.754C404.883 801.758 407.812 803.418 417.09 807.129L428.516 811.621L431.641 817.676C433.398 820.996 437.012 825.781 439.746 828.418L444.531 833.008H460.547C479.59 833.008 485.352 831.738 498.34 824.707L506.836 820.117L515.43 820.703C521.582 821.191 528.125 820.801 539.062 819.336C558.984 816.797 557.617 816.602 557.617 821.289C557.617 823.438 557.715 825.195 557.91 825.195C558.008 825.195 566.699 822.852 577.148 819.922L596.191 814.746L597.852 808.105C598.828 804.395 600.684 799.707 602.148 797.559L604.688 793.652L601.66 786.719C598.73 779.98 598.633 779.395 598.828 767.578C599.219 752.344 598.73 750.781 593.75 748.535C590.234 746.973 589.844 746.387 589.844 743.262C589.844 741.309 590.234 739.258 590.625 738.672C591.016 738.086 596.582 735.84 603.125 733.691L614.941 729.785L625.293 733.887L635.645 738.086L637.109 735.84C637.891 734.57 639.062 731.543 639.746 729.102C640.332 726.562 641.211 724.316 641.699 724.023C642.188 723.73 647.266 722.363 653.027 720.898L663.379 718.262L666.699 710.547C669.336 704.297 669.922 701.758 669.922 695.801V688.77L675.879 684.766L681.934 680.859L688.672 683.203L695.508 685.547L706.055 677.93L715.137 680.273C720.02 681.543 724.805 682.617 725.586 682.617C726.367 682.617 733.398 677.051 741.113 670.41C748.828 663.672 755.859 658.203 756.738 658.203C757.617 658.203 765.234 657.52 773.73 656.738C792.188 655.078 792.969 655.273 795.801 662.695C796.875 665.527 800.391 671.777 803.516 676.465C809.277 684.961 809.375 685.059 816.016 687.402C819.727 688.672 826.172 691.602 830.273 693.945C834.375 696.289 838.086 698.242 838.379 698.242C838.672 698.242 838.867 696.973 838.867 695.508C838.867 692.773 839.453 692.48 850.391 688.281L861.816 683.887L868.652 686.23L875.391 688.477L879.395 684.668L883.301 680.859L888.281 682.715C893.066 684.57 893.359 684.57 898.535 682.812C901.66 681.641 903.906 680.273 904.102 679.297C904.297 678.418 902.637 675.684 900.488 673.047C892.09 663.477 888.672 657.91 888.672 654.297C888.672 651.367 887.793 649.902 882.812 645.02C879.59 641.797 876.953 638.77 876.953 638.086C876.953 637.5 874.121 635.156 870.703 632.812C867.188 630.469 864.16 627.734 863.965 626.855C863.672 625.879 861.816 624.707 859.473 624.023C855.566 622.949 855.469 622.949 857.031 620.605C857.812 619.336 859.18 618.066 859.961 617.773C860.742 617.48 861.328 616.602 861.328 615.723C861.328 614.941 862.695 612.988 864.355 611.523L867.383 608.789L865.625 605.273L863.965 601.66L860.645 603.027C856.836 604.59 857.129 604.98 855.469 596.191C853.711 586.914 853.711 586.914 850.195 586.914C845.41 586.914 841.113 585.156 839.355 582.422C838.184 580.664 837.012 580.078 834.18 580.078C832.227 580.078 829.883 579.59 829.102 579.102C828.125 578.516 827.051 578.809 825.391 580.273L823.242 582.422L819.043 580.469C815.039 578.516 814.746 578.516 809.375 580.176C803.906 581.738 803.711 581.738 803.711 580.078C803.711 577.734 806.152 575.391 809.18 574.609C810.449 574.316 811.523 573.633 811.523 573.145C811.523 572.754 808.301 570.801 804.492 568.945L797.363 565.43H801.855C804.395 565.43 807.91 566.016 809.668 566.797C817.383 569.922 817.09 570.02 820.215 563.086C821.777 559.57 823.438 556.641 823.828 556.641C824.219 556.641 826.172 557.129 828.223 557.812C831.738 558.789 832.227 558.691 834.473 556.641C835.742 555.469 836.914 553.516 837.109 552.344C837.305 550.977 838.281 550.195 839.844 549.902C842.969 549.512 843.75 548.242 843.75 543.75C843.75 537.598 845.215 535.156 848.828 535.156C854.395 535.156 856.152 534.18 858.008 530.078L859.766 526.074L867.676 526.758C871.973 527.051 878.125 527.637 881.25 527.93L887.012 528.613L886.426 516.992C886.133 510.547 885.156 503.125 884.277 500.293C882.91 495.605 882.91 494.922 884.375 491.211C885.742 487.793 885.938 484.961 885.352 472.363C884.766 458.984 884.863 456.934 886.621 451.172C887.793 447.656 888.672 444.141 888.672 443.359C888.672 442.578 889.355 440.527 890.234 438.965C894.238 431.445 897.461 425.098 898.34 422.559C899.414 419.922 899.219 419.727 894.238 417.48C890.332 415.625 887.5 415.039 882.129 415.039C878.223 415.039 872.754 414.551 869.922 413.867L864.746 412.695L874.023 411.816C880.078 411.328 884.473 411.328 886.816 412.012C893.262 413.965 900.391 413.379 904.297 410.645C907.129 408.691 908.301 406.738 910.84 399.707C912.598 394.922 914.453 389.258 915.039 387.012C915.82 383.691 916.895 382.422 920.996 379.785C923.73 378.125 926.562 375.586 927.441 374.316C928.711 372.461 929.785 372.07 934.082 372.07C936.914 372.07 942.09 371.191 945.508 370.117C953.223 367.676 954.785 367.676 958.691 370.117C960.449 371.094 964.062 372.266 966.797 372.656C969.531 373.047 973.633 374.512 976.074 376.074L980.371 378.809L981.543 374.707C982.324 372.07 984.57 368.652 987.891 365.234C990.625 362.305 994.531 356.641 996.484 352.832C999.707 346.289 1000 345.02 1000 337.207C1000 332.422 999.512 327.051 998.926 325.195C998.34 323.34 997.559 316.602 997.168 310.352C996.875 304.102 996.289 298.73 995.996 298.438C995.801 298.145 977.441 294.922 955.371 291.211L915.137 284.473L905.762 277.344C895.41 269.434 895.508 269.531 890.234 255.176C885.742 243.164 885.84 243.164 868.066 243.164H855.566L843.457 228.516H804.102L798.633 221.875C788.77 209.961 775.781 205.078 753.223 205.078C744.922 205.078 743.652 205.371 733.984 209.375C717.285 216.406 687.402 224.512 678.223 224.609C676.074 224.609 671.289 225.391 667.578 226.367C661.426 227.93 660.156 228.027 654.102 226.66L647.461 225.293L638.477 228.809C633.496 230.762 625.684 233.301 621.094 234.473C616.504 235.645 612.305 237.109 611.621 237.695C611.035 238.281 609.668 240.918 608.594 243.555L606.738 248.438L596.582 250.684C587.695 252.637 586.035 253.418 582.812 256.543C579.297 259.961 579.102 260.547 579.102 266.016C579.102 273.34 576.27 277.441 568.945 280.664C564.355 282.715 563.379 283.691 558.984 291.113C554.297 299.023 553.906 299.414 548.828 301.074C541.992 303.32 525.879 305.664 517.09 305.664C510.84 305.664 509.668 306.055 503.418 309.668L496.582 313.77L490.137 312.695C485.938 311.914 480.859 310.059 475.391 307.129C463.184 300.684 458.105 299.219 444.922 298.34C435.449 297.754 432.129 297.168 426.465 294.824C418.652 291.602 414.941 291.406 405.664 293.555C395.898 295.801 387.988 294.727 382.324 290.332C379.883 288.477 374.414 284.863 370.117 282.129C362.5 277.441 362.207 277.344 354.688 277.344H346.973L343.75 282.129C341.016 286.035 339.16 287.5 333.105 290.332C326.855 293.262 324.023 293.945 315.137 294.824L304.688 295.703L297.07 291.504C288.184 286.523 271.875 280.664 262.109 278.906C256.445 277.93 253.418 276.562 246.191 272.07C240.039 268.164 235.352 265.918 231.055 264.941C224.805 263.574 224.707 263.574 220.898 266.113L216.992 268.652L203.613 261.23L190.234 253.711L177.93 253.32C171.094 253.027 155.664 253.223 143.555 253.613C121.582 254.395 121.582 254.395 112.012 251.758C104.59 249.707 101.172 248.242 97.168 245.117L91.8945 241.113L94.8242 234.668C96.9727 229.785 97.6562 226.855 97.6562 222.07C97.6562 216.113 97.7539 215.82 100.391 215.332C101.855 215.039 106.836 213.574 111.523 212.207C118.262 210.156 120.801 208.789 123.633 205.957L127.148 202.344L123.828 192.383H116.504C109.57 192.383 108.984 192.188 105.176 188.965C102.441 186.621 98.1445 184.57 91.5039 182.422C83.3008 179.688 80.8594 178.32 75.3906 173.633C71.7773 170.508 68.5547 168.066 68.1641 167.969C67.6758 167.969 67.3828 170.605 67.3828 173.828Z" fill="white"/>
<circle id="101" cx="145" cy="500" fill="#5CE50D"/>
<circle id="104" cx="799" cy="566" fill="#E52A0D"/>
<circle id="102" cx="375" cy="626" fill="#E52A0D"/>
<circle id="103" cx="878" cy="419" fill="#E52A0D"/>
</svg>
