<svg width="1000" height="1000" viewBox="0 0 1000 1000" fill="none" xmlns="http://www.w3.org/2000/svg">
<path d="M734.934 788.045L733.459 789.346L733.112 790.993L734.326 792.034L733.806 794.636L730.077 796.978L729.557 801.313L730.511 802.961V804.609L729.557 805.562V807.904L730.251 808.858L730.424 812.848L729.73 812.674L728.43 814.669L726.781 815.189L726.001 818.484L724.526 819.266L723.312 821.086L723.14 824.729L721.578 825.683L718.283 825.856L715.161 827.07L714.641 829.325L715.334 830.539L713.687 830.886L712.386 832.707L712.732 836.957L715.941 837.13L717.589 835.136L719.584 835.656L719.931 837.65L719.757 841.206L721.578 844.241L727.129 844.502L727.822 846.67L730.077 847.537L730.598 850.832L729.816 851.96L725.221 853.781V856.209L718.283 858.725L721.231 857.076L722.099 856.122V854.128L720.885 852.653L718.977 851.613H714.987L710.738 853L709.264 855.429L706.662 858.117L706.142 859.418L703.193 861.239L701.893 862.54L699.897 863.061L697.122 858.117L694.867 860.806L694.174 863.754L691.398 864.882H690.098L687.149 866.096L686.021 868.004V870.345L685.328 873.294L686.021 874.334L685.502 876.589L687.149 876.936L688.276 878.236L688.623 880.231L689.838 882.573L691.745 882.92L691.398 887.517L693.046 888.47V890.812L699.117 891.158L699.204 894.454L699.638 895.755L702.933 898.01L703.106 899.657L702.152 902.346L702.326 904.947L704.233 905.121L705.708 906.248L706.401 908.937L705.101 912.579L703.627 913.187L702.933 910.237L699.984 909.457H697.383L695.301 910.932L694.954 912.579L695.734 915.181L694.434 915.094L692.786 916.048L690.965 918.562L689.838 922.118L690.531 924.46L691.485 924.807L694.261 927.409L694.174 928.71L691.832 929.577L689.577 931.225L687.93 934.347L686.282 936.168L685.328 936.341V939.29L687.236 939.811L690.531 939.637L692.179 937.469L696.082 937.035L697.122 934.347L699.724 934L701.893 936.948L701.719 939.29L704.146 938.596L704.494 941.892L703.366 945.187L696.429 947.702L694.521 948.829L691.572 951.344L689.925 953.339L688.797 956.461L690.792 960.45L688.623 961.404L687.67 965.394L686.803 965.74L686.369 968.688L684.027 969.383L682.032 971.29L681.599 976.233L682.38 978.229L686.021 979.529L691.919 983.345L694.607 985.34L698.163 986.813V987.421L702.152 989.068L703.887 990.977L698.51 987.941L689.23 984.212L684.981 984.732L683.333 983.345L681.426 982.651L677.176 980.31L674.748 979.876L670.759 976.32L669.545 975.974L665.035 970.771V968.429L664.254 966.607L664.948 958.629L668.33 953.599L669.979 951.951L671.192 949.696L671.019 948.569L673.968 943.192L675.354 935.127L675.095 930.357L673.881 926.281L672.753 924.46L672.406 921.599L673.881 918.477L675.095 914.834L675.702 907.376L675.269 902.259L673.534 898.877L669.631 894.714H668.07L668.243 893.674L666.683 893.934L666.336 892.025H665.382L664.428 894.107L660.525 895.581L660.352 896.188V895.581L664.428 894.021L665.729 891.072L662.434 886.735L661.306 886.562L661.913 883.787L665.815 877.109L666.683 872.946L667.116 866.876L664.602 860.198L667.29 856.556L669.545 852.566L670.325 848.404L669.371 845.455L664.688 841.727L663.994 840.165L665.642 840.252L666.423 842.507L669.024 844.675L672.06 843.201L677.35 835.656L677.696 833.314L680.472 830.539L683.767 828.458L684.634 826.811L686.889 824.122L689.057 820.826L690.531 819.872L691.312 816.49L692.96 815.536L693.566 813.194L695.215 812.588L696.862 810.939L698.163 806.95L699.204 805.303L701.806 804.262V802.961L704.061 802.614L704.146 803.309L708.396 804.089L709.697 803.135L711.691 803.309L712.819 805.562L712.646 806.604L714.641 807.037L717.242 806.257L718.022 805.216V802.614L715.941 801.313L718.89 799.666L719.844 796.978L721.145 796.37L720.798 794.029L722.186 794.376L722.445 792.988L725.221 792.034L725.308 793.682L723.833 795.33L725.134 796.457L727.389 796.023L726.781 793.335L729.036 792.728L729.383 793.682L731.638 792.642L731.204 791.688L731.378 788.738L733.286 788.392L734.326 786.744L734.934 788.045Z" fill="white"/>
<path d="M721.665 880.232L723.92 879.713L726.521 880.84L726.868 882.141L728.169 882.834L727.562 884.136L728.343 886.477L725.567 889.599L724.96 889.772L725.914 892.027L729.816 893.241H734.413L736.061 892.2L737.708 892.374L740.657 894.889L743.346 895.149L745.947 894.195L748.549 894.021L749.59 896.971L751.671 897.664L752.191 899.312L755.14 900.612L756.094 902.607V904.602L752.191 909.372L751.237 909.545L750.196 912.146L753.839 912.494L751.671 916.743L750.196 917.61L747.941 917.437V916.483L744.3 917.09L743.692 915.963L739.096 914.314H737.795L731.551 915.616L726.261 918.131L724.613 920.819H722.358L721.231 918.824L721.491 915.182L720.19 913.881L717.936 908.244L718.369 905.902L720.537 903.995V902.261L717.068 900.006V898.965L715.074 898.011L714.641 896.363L714.9 892.374L714.293 891.073L713.773 887.431L712.299 886.13L711.778 883.875L718.022 883.788L718.369 880.84L719.67 880.493L720.017 879.192L721.665 880.232Z" fill="white"/>
<path d="M751.15 850.14L755.4 851.44L755.747 853.089L756.701 853.436L757.395 851.788L758.522 852.395L758.695 854.043L760.17 857.338L758.349 859.333L757.395 861.327L756.527 866.617L754.793 868.785L751.845 869.393L750.804 870.867L745.947 871.734L742.999 874.509L743.086 877.805L741.958 879.192L739.877 871.214L739.01 869.565L735.367 867.658V866.01H734.413L734.066 863.148L735.714 863.322L736.668 857.425L738.315 855.863L739.616 856.037L740.917 854.216L743.605 854.736L744.213 852.395L745.514 853.262L746.901 852.741L747.161 846.15L750.11 845.804L751.15 850.14Z" fill="white"/>
<path d="M717.502 756.564L719.496 756.391L720.797 757.345L722.098 759.687L724.353 757.692L724.699 760.987L723.572 763.676L724.266 766.277L721.751 768.792H719.496L714.899 770.787L711.951 771.047L710.91 772.608H708.309L709.609 770.613H707.528L707.182 769.312L705.707 768.272L703.886 763.676L704.667 762.375L708.656 759.166L713.859 759.34L714.206 756.391L715.854 755.523L717.502 756.564Z" fill="white"/>
<path d="M385.267 108.572L386.307 111.867L388.908 114.036L388.562 115.597L387.174 116.291L389.169 119.412L390.209 122.968L390.296 124.963L396.367 124.442L397.668 125.57L398.882 124.876L402.524 124.355L402.784 125.917L406.6 133.896L390.643 133.722L390.99 135.543L393.592 140.486L397.754 140.746L398.448 141.267L401.657 140.746L402.958 139.792L403.131 141.18H404.692L405.646 141.267L408.161 141.18L408.682 139.792L409.462 140.92L412.497 142.395L412.41 140.486L414.231 137.277L416.053 136.15L418.915 132.682L422.73 130.946L422.904 130.166L427.587 128.692L426.979 126.264L425.766 125.57L424.465 122.621L426.46 123.315L427.327 125.396L429.321 124.616L428.194 127.131L429.148 127.391L431.229 126.264L431.143 124.789L433.397 124.876L431.923 127.305L433.571 130.253L437.387 131.9L438.167 131.207L437.646 127.998L438.601 126.523L440.509 125.917L439.121 127.391L438.947 129.473L441.81 129.732L443.197 129.039L441.81 125.743L444.324 127.911L444.237 130.513L442.764 132.508L439.988 132.768L440.075 133.809L446.492 133.635L446.146 132.682V122.361L446.492 121.841L451.002 127.391L448.747 128.865L450.048 129.56L450.135 130.687L448.661 131.813L448.921 133.896L450.396 134.242L451.696 132.595L450.742 130.687L451.436 128.952L452.563 129.819L453.951 132.508L456.986 133.722L456.466 135.022L457.854 143.175L459.848 143.262L460.281 144.042L466.353 141.961L468 141.094L466.872 139.532L467.306 136.757L468.521 137.711L471.729 136.844L471.902 135.977L474.417 134.676L476.846 135.283L483.87 130.687L483.263 129.732L484.824 128.085L485.258 125.137L486.212 123.142L484.824 122.621L483.61 124.616L483.003 123.488L481.355 123.142L479.36 124.355L473.724 119.76L474.504 118.719L473.897 116.811L471.729 115.684L471.815 114.47L474.765 112.041L475.111 113.169L477.192 113.862L479.273 113.516L481.876 111.694L483.35 112.995L485.171 117.765L486.905 119.326L485.691 121.841L487.166 121.928L488.813 123.662L492.542 123.055L493.41 122.188L494.19 119.326L494.971 119.412L493.844 124.096L495.317 124.442L495.23 123.055L497.139 120.887L498.267 120.714L500.348 122.795L500.521 124.703L502.342 127.738L505.984 125.31L506.158 125.917L507.372 127.044L505.117 128.432L506.071 130.687L504.597 130.86L503.557 129.212L500.348 130.6L501.475 130.946L502.949 134.85L500.174 136.323L501.389 136.844L505.291 134.155L505.378 135.803L503.296 136.844L500.694 139.099V140.312L502.256 142.047L502.516 148.812L504.25 151.326L505.725 151.413L506.852 149.939L507.459 152.021L509.02 152.107L507.546 153.147L508.065 155.056L510.147 153.755L510.928 154.362L513.009 152.714L514.917 153.581L515.524 152.193L520.207 153.668L520.12 155.749L517.346 156.01V156.703H520.294L520.381 161.474L520.033 165.463L520.728 164.682L520.641 159.565L525.584 160.605L526.538 160.172L528.966 163.555L530.787 164.248L531.741 163.468L532.868 164.509L528.706 168.758L527.839 173.181L529.486 175.262L519.687 185.062L519.34 185.582L527.665 190.959L527.492 191.306L519.166 185.843L518.56 189.312L518.386 186.536L516.825 185.409L515.177 187.924L511.448 186.276L507.893 188.184L509.627 190.005L511.361 190.438L510.841 191.306L508.586 191.046L508.847 189.484L507.806 188.357L503.729 190.872L497.312 194.168L491.589 192.434L490.722 193.647L489.768 193.301L490.461 190.179L488.119 188.444L485.778 188.097L483.87 185.756L481.269 186.276L477.192 185.756H473.811L472.076 184.715L468.693 184.889L470.428 185.756L470.688 187.057L466.092 187.316L465.832 183.501L464.965 183.414L464.704 187.316H461.582L461.409 190.785L458.2 190.959L458.026 193.127L462.536 191.913L464.271 198.938L460.976 200.151L461.669 202.319L464.444 201.973L464.965 204.141L463.057 205.095L462.449 206.569L462.883 211.165L464.444 211.513L465.658 215.675L466.872 216.976L470.342 218.017L469.994 219.404L472.943 221.226L473.55 223.047L474.765 222.439L478.667 227.383L476.759 229.117L477.539 230.071L478.58 229.117L479.014 230.418L484.737 233.453L486.559 235.795L488.38 236.229L488.553 237.616L491.068 237.529L491.849 239.004L495.664 242.646L496.358 245.508L495.925 246.288L497.139 250.104L499.74 249.497L500.868 252.358L501.648 251.665L501.562 249.497H505.378V254.613L509.106 254.267L508.934 253.14L512.229 252.966L516.044 253.399L515.61 254.093L517.432 256.608L520.12 258.169L520.987 262.766L520.294 264.934L519.427 265.28L519.86 267.448L520.728 268.143L521.769 271.698L523.589 275.341L524.022 275.688L524.63 279.069L524.543 281.411L526.798 284.187L528.445 287.655L531.741 291.037L532.349 292.599L530.874 291.471L533.476 295.807L535.21 293.899L535.817 294.593L537.552 301.617L536.424 298.148L534.43 297.368L533.822 299.276L534.863 299.449L536.598 301.704L533.042 302.745L535.73 303.438L532.955 305.693L536.857 308.902L537.118 310.116L530.354 305L526.277 308.382L523.069 313.585L522.896 316.881L536.251 316.707L536.424 334.226L536.164 346.713L532.955 346.974L531.395 346.02L528.445 345.846L528.966 346.627L529.66 351.483L531.741 352.264L530.094 354.172L527.318 354.085L524.717 357.9L524.37 359.722L524.022 366.573L525.844 375.332L526.625 376.893L525.671 377.76L526.972 378.888L526.191 382.964L527.059 385.738L531.741 387.906L532.262 389.728L534.43 391.115L536.164 390.769L539.373 392.243L539.807 393.631L538.593 396.926L535.904 399.527L532.695 403.257L533.303 404.645L536.598 401.956L538.766 402.129L538.853 404.645L535.557 406.379L537.118 410.628L536.944 412.189L531.481 412.275L530.874 418.173L531.481 425.545L535.644 426.151L536.164 427.192L535.123 433.35L528.186 431.702L527.839 433.003L530.267 433.696L529.66 435.344L529.227 438.899L526.104 438.119L525.758 441.067L526.364 443.409V446.271L525.324 449.48L524.196 451.215L523.069 458.239L523.85 459.193L522.375 461.882L522.288 463.963L523.155 465.523L521.508 469.513L521.682 474.717H520.381L518.906 478.445V480.007L522.288 480.526L522.202 481.134L519.687 480.354L520.381 482.001L517.346 481.308L517.779 483.215L518.299 492.147L518.039 493.709L519.773 494.749L519.687 496.744H517.346V498.392L519.86 498.479L519.773 501.254L520.381 504.636L518.646 504.81L519.08 507.845L526.451 508.104L527.231 508.365L518.646 508.451L518.213 512.268L516.564 512.527L517.432 515.216L516.478 516.344L516.651 518.512L515.697 523.194L517.952 525.449L518.993 527.791L516.651 531.086L516.911 535.596L516.218 535.942L515.351 539.672L513.529 542.794L513.356 545.569L512.488 547.91L512.229 551.38L510.841 552.073L510.668 554.415L509.453 555.021L509.627 557.189L509.02 558.751L511.621 559.098L514.05 557.71L521.508 557.104L515.438 557.971L515.177 560.052L513.616 561.266L514.657 561.699L514.743 563.781L513.963 565.775L512.229 565.429L512.315 573.58L512.142 577.656L511.188 580.519L510.928 585.635L509.627 587.456L509.193 590.231L509.887 592.399L509.193 593.613L509.887 599.944L508.152 601.332V603.76L508.847 606.448L511.102 609.831L510.581 612.866L514.137 612.692L515.438 614.167L516.911 613.906L516.738 615.728L518.039 616.682L519.08 616.161L519.687 617.636L518.299 618.937L516.738 619.11L514.83 617.81L514.483 615.988L515.091 614.601L512.315 614.514L510.234 617.289L509.714 619.457L511.361 620.758L511.795 622.146L512.402 620.324L515.438 619.544L517.085 620.932L516.651 623.793L515.177 622.579L513.616 622.492L512.836 623.62L511.708 622.405L509.887 622.232L508.499 621.018L507.372 618.156L507.979 615.294L510.32 613.039L510.061 612.52L507.806 614.427L506.765 617.462L507.112 619.717L509.367 622.579L507.979 627.002L509.714 629.604L511.535 630.384L510.841 632.639L508.673 631.338L507.719 634.373L506.679 634.807L504.51 633.939L502.256 632.292L500.694 632.726L500.087 634.894L497.485 634.373L500.521 636.281L496.966 638.103L498.267 640.53L501.128 639.057L505.204 638.275L507.979 638.449L510.668 639.229L510.147 641.397L509.54 640.184L504.684 640.878L500.694 642.872L500.174 645.734L498.526 646.341L497.312 645.387L496.271 645.994L496.445 647.642L495.491 651.805L495.751 655.62L497.226 659.957L499.134 662.645L500.607 662.472L499.22 664.293L495.145 660.91L493.67 658.742L492.195 654.146L489.94 654.319L490.114 658.742L491.241 662.559L488.553 662.298L487.946 662.992L490.114 663.165L492.542 665.247L492.022 666.287L489.854 667.067L491.502 670.104L490.981 671.577L487.946 672.185L485.258 671.057L484.13 669.322L483.957 666.2L485.171 664.293L488.206 662.298L486.212 662.731L483.87 664.899L483.263 666.808L483.523 669.322L484.737 671.404L486.732 672.618L491.068 673.226L492.456 670.971L491.849 669.322L492.282 667.067L493.323 666.721L494.19 668.976L494.104 673.832L492.542 675.566L491.068 673.485L490.288 673.659L492.369 676.347L492.195 677.908L482.396 673.139L481.355 673.398L476.238 678.255L470.168 684.673L465.398 691.61L463.577 695.687L463.23 699.415L465.658 706.787L466.786 711.73L466.353 711.644L464.965 706.18L464.357 705.399L463.49 701.584L459.848 696.554L458.547 693.432L456.812 691.87L456.553 690.223L456.986 686.407L452.303 680.423L451.002 675.653L449.354 671.751L447.707 664.119L446.406 655.187L446.666 651.892L446.059 647.382L445.712 640.53L443.718 634.894L441.202 628.996L438.947 624.834L432.184 614.86L431.056 612.433L425.853 604.367L424.639 603.066L417.961 591.792L413.277 580.865L410.937 573.58L409.896 572.627L407.987 568.897L406.687 567.337L405.126 569.505L403.998 569.938L404.865 572.366L407.467 575.055L409.462 579.824L410.416 583.38L411.37 584.247L411.196 585.981L409.202 579.911L407.12 575.229L404.432 573.58L402.697 571.586L400.963 568.724L399.142 568.204L397.32 564.734L395.586 563.521L394.806 562.046L389.169 555.629L387.001 552.507L383.445 549.645L379.803 544.528L376.681 542.36L374.772 539.498L372.691 538.111L371.824 539.672L374.513 540.973V541.84L372.258 541.753L370.35 540.192L371.391 538.631L370.263 536.724L368.355 535.509L366.014 535.423L362.458 532.647L359.77 531.78L357.081 529.265L355.434 528.484L352.745 525.275L351.185 524.495L349.363 522.24L348.843 520.072L348.062 519.726L347.542 517.211L346.327 514.782L343.466 515.043L342.858 510.1L339.997 505.763L339.736 503.075L338.783 501.688L338.869 498.912L338.349 497.004L336.962 494.663L336.614 490.153L337.048 489.112L337.222 483.996L336.528 480.787L334.707 478.186L333.319 477.145L335.141 475.584L334.794 471.854L333.406 470.9L334.273 468.386L334.62 469.427L336.008 468.559L337.396 466.131L337.481 462.749L344.42 454.51L346.154 451.821L348.148 447.832L350.664 444.797L354.046 439.94L355.954 434.65L356.214 430.314L355 427.279L355.174 424.243L354.479 423.983L355.347 420.948L354.653 420.602L358.556 413.49L360.55 410.802L360.811 407.853L361.851 405.512L363.586 402.996L367.055 397.013L368.876 393.544L370.003 390.161L369.743 388.86L370.263 384.785L368.182 382.27L366.534 381.489L367.314 379.928L366.968 378.107L367.575 376.459L366.188 375.158L367.575 375.071L368.095 370.648L367.142 367.526L365.32 365.619L364.279 363.711L364.626 358.074L364.02 357.987L364.366 357.207L364.02 355.646L366.101 346.279L365.84 343.418L364.887 343.592L363.672 337L364.105 333.792L363.152 331.71V329.629L362.458 327.114L362.545 323.559L361.417 317.835L360.203 318.182L358.556 312.111L355.954 313.238L356.041 311.851L358.035 311.244L356.647 309.162L356.821 310.637L355.174 311.678L354.393 309.856L353.266 309.249L354.393 308.382L352.571 306.647L353.353 305.867L352.312 304.393L350.49 305.78L348.148 303.266L350.577 300.49L348.322 301.011L346.675 300.057L343.726 293.552L345.287 292.599L343.899 288.695L343.119 289.043L343.032 286.875L340.864 282.799L337.742 276.294L334.273 276.901L333.579 274.387L337.568 273.086L338.436 275.774L339.13 275.427L338.176 272.652L333.319 274.213L333.666 272.392L335.834 271.785L337.048 270.05L335.141 271.352L334.967 269.27L333.059 267.796L328.116 270.05L326.901 272.132L327.162 269.183L325.861 266.842L333.319 262.592L333.666 261.552L332.799 257.302L331.238 254.007L329.59 252.966L330.891 252.186L329.069 245.247V242.906L327.855 240.651L327.683 238.31L325.167 238.137L325.08 235.188H326.295L326.034 231.893L324.213 231.459L324.387 230.418L326.381 230.852L329.59 226.429L329.937 223.653L319.704 224.607L310.771 226.082L310.858 225.475L321.438 223.827L328.983 223.133L326.295 222.873L311.898 223.047V222.699L326.642 222.526L327.942 221.485L329.33 216.976L331.498 215.415L329.59 214.027L330.457 211.513L332.799 213.16L333.84 211.772L333.059 204.835L334.359 205.008L333.232 200.412L333.926 199.892L332.799 196.856L333.059 191.393L335.054 191.739L335.661 188.964L335.054 185.843L332.973 183.327L329.069 185.235L326.121 180.812L328.202 179.858L327.596 179.251L325.167 180.205L325.428 178.211L323.866 172.054L323.26 168.671L322.565 167.891L318.316 169.104L318.489 168.584L323.173 167.37L323.693 165.376L325.861 162.08L330.197 160.259L331.064 162.774L334.1 160.866L332.365 157.311L333.146 156.79L334.62 159.132L336.788 157.484L337.829 155.923L339.736 155.489L341.385 154.102L341.818 152.714L340.69 149.419L346.675 146.903L346.761 147.251L352.485 144.562L353.092 143.435L355 142.308L355.607 143.435L353.266 144.389L353.005 145.083L356.301 143.781L356.734 144.129L359.943 143.435L363.846 143.348L371.304 141.961L383.966 141.18L385.18 140.312L389.689 139.792L392.725 140.746L392.551 138.665L389.689 133.462L389.949 128.605L389.516 121.841L388.822 119.76L386.567 116.464L371.824 123.401V110.394L384.485 105.797L385.353 105.624L385.267 108.572Z" fill="white"/>
<path d="M528.966 204.053L529.833 204.14L530.094 207.088L531.741 207.521L530.787 211.251L527.059 215.847L530.614 212.898L534.863 212.812V216.021L539.633 215.934L538.506 216.367L536.338 220.53L532.349 221.051L530.181 220.356L531.395 222.872L533.822 224.433L535.21 228.248L537.639 228.335V242.124L535.644 242.991L536.511 244.726L534.689 246.287L533.649 244.292L531.741 245.246L531.308 246.374L531.915 251.23L535.297 258.168L552.814 249.409L552.729 247.675L553.942 247.935L569.553 240.13L569.379 239.782L574.756 237.008L569.726 239.869L569.899 240.303L561.141 244.726L561.313 244.986L575.623 237.875L575.97 238.222L572.154 240.13L571.98 240.736L574.062 244.466L575.623 244.639L575.536 243.599L577.965 243.338L581.693 240.043H583.948L585.423 242.037L584.382 243.858L581.087 244.553L574.93 245.246L571.2 246.634L569.466 246.721L566.17 245.767L562.528 246.46L554.896 250.363L554.636 251.316L555.851 254.266L556.804 253.832L560.1 260.249L549.606 265.713L547.091 260.856L540.674 264.499L537.985 266.927L536.424 270.136L537.205 273.171L539.894 273.084L538.853 275.339L541.628 274.905L541.28 275.513L538.506 275.946L539.546 281.757L538.766 283.664L539.112 285.139L542.062 288.607L543.362 289.041L545.184 291.296L545.79 293.811L544.316 296.76L544.229 298.233L542.321 297.453L541.454 299.969L539.979 299.708L540.413 301.703L542.062 301.096H545.964L545.79 304.131L542.148 303.438L541.888 302.223L540.413 301.963L539.46 299.795L538.245 300.402L538.332 301.963L535.99 294.158L536.685 291.816L533.216 285.398L531.567 282.797L530.007 278.808L527.492 275.079L525.584 271.523L524.109 267.36L521.769 262.157L521.161 262.244V261.637L522.462 260.77L520.554 257.821L523.503 254.179L522.636 251.316L521.508 253.138L511.361 247.327L512.662 245.246L511.188 244.379L509.02 246.113L507.632 245.42L508.413 244.292L505.725 240.823L506.331 238.222L506.158 233.799L503.816 231.11L503.557 228.422L502.429 228.855L500.001 225.907L502.256 222.872L499.827 220.703L502.342 218.796L503.557 216.541L504.163 216.888L515.177 204.66L518.299 203.966L528.966 204.053Z" fill="white"/>
<path d="M272.7 192.261L274.608 192.348L281.979 195.297L283.714 194.516L283.28 195.816L285.274 196.164L284.234 197.291L285.274 199.112L283.454 197.725L280.679 198.679L280.332 200.326L278.511 201.28L279.117 215.156L278.598 221.227L281.806 221.834L285.882 221.227L293.08 221.834L293.773 222.961L293.687 225.649L294.814 227.904L299.411 227.211L299.324 227.991L294.988 228.425L295.422 230.246L296.636 231.807L295.595 233.715L295.248 237.357L292.473 241.173L292.906 243.341L291.952 244.902L292.733 246.289L292.126 249.845L291.952 255.916L292.733 258.864L292.039 260.426L292.126 262.594L292.819 264.067L292.3 266.062L292.906 269.185L295.074 270.485L298.717 271.266L299.845 270.832L298.891 273.087L299.584 274.562L298.891 277.163L297.763 278.377L296.462 281.325L298.457 286.529L299.584 287.483L299.15 290.258L295.335 289.564L292.56 287.223L290.305 285.748L287.616 284.881L278.511 284.708L273.394 285.575L271.399 286.702L269.925 288.351L264.201 286.963L261.079 287.223L257.697 286.615L253.36 285.142V282.8L255.529 280.545V275.949L254.314 273.261L250.065 271.699L250.325 269.705L251.453 267.71L251.8 265.021L250.933 261.032L249.285 260.859L246.856 257.737L247.117 253.4L245.989 253.141L246.336 251.753L247.29 252.794L247.117 247.851L247.29 243.861L249.545 243.168L250.239 240.826L249.198 240.479L252.493 238.484L252.146 237.53L249.892 239.005L250.499 236.837L251.8 236.663L254.142 233.541L255.789 232.848L256.482 234.148H258.131L257.783 233.194L259.519 233.454L261.339 232.24L261.426 231.286L263.421 229.205L265.068 229.639L264.809 227.297L265.589 226.083L266.63 226.863L268.104 224.522L264.288 222.788L251.106 215.85L246.076 213.942L239.919 212.555V210.993L243.821 211.947L250.412 214.115L258.131 218.365L259.432 219.492L266.369 223.222L267.844 220.446L267.323 220.013L269.665 217.237L276.082 222.701L277.383 222.614L277.296 220.533L274.088 216.978L268.537 211.773L266.456 211.34L262.207 209.433L261.513 209.779L251.887 206.744L239.832 205.01L241.133 204.489L249.024 205.443L253.708 206.57L258.478 208.218L261.339 208.565L266.716 210.906L269.404 211.514L269.751 212.468L273.827 216.457L277.21 220.013L278.337 219.839L278.771 215.156L278.163 201.367L277.383 197.551L274.694 196.857L273.48 195.903L272.006 196.684L268.711 195.036L268.19 192.001L271.659 191.134L272.7 192.261Z" fill="white"/>
<path d="M544.402 9.62305L547.871 9.96973L553.942 13.0049L554.463 14.0459L553.855 18.3818L551.254 23.3252L555.33 26.0137L555.85 25.5801L553.855 24.1055L553.335 22.6309L554.896 21.2432L557.585 23.498L560.88 22.8047L561.834 24.626L563.048 22.5439L560.013 20.8965L557.498 21.5908L554.029 19.6826L554.896 16.7344L557.758 17.9482L562.527 18.5547L565.477 20.376L568.425 25.0596L570.506 26.7939L571.46 28.5283L571.2 30.0029L569.639 32.6045L567.817 32.6914L568.685 29.6553L567.384 27.835L563.309 26.4473L562.788 27.9209L566.69 29.0488L567.558 30.3496L566.777 32.3438L565.649 32.6914L566.69 29.916L564.522 29.6553L562.614 31.5635L563.915 34.5986L562.441 36.7666L562.268 38.8486L563.568 35.8994L565.823 33.6445L567.211 33.5586L567.991 34.7725L567.645 37.1143L565.997 37.8076L565.477 39.9756L564.522 40.4092L563.742 43.0977L561.487 44.4854L560.793 41.623L562.181 39.3682L560.533 40.2363L558.191 37.7207L556.631 39.3682L558.019 40.7559L559.146 43.9648L561.054 47.0869L558.972 49.2549L559.753 51.4229L557.411 51.5967L556.717 54.6318L554.982 55.6729L553.335 60.7891L553.075 63.1309L553.942 63.7373L552.208 66.0791L551.341 66.166L548.999 69.8086L549.52 70.502L548.045 72.8438L549.866 73.8848L549.606 75.0117L550.993 76.1396L560.62 81.5156L561.574 80.042L561.834 77.874L564.436 77.0928L565.997 78.6543L569.466 79.4346L570.333 78.7412L570.939 76.4863L568.512 75.0986L570.68 70.8486L569.639 70.3291L571.287 69.4619L571.113 67.4668L569.899 66.8594L567.558 68.5947L565.91 68.0742L567.384 66.6865L569.379 65.8193L568.338 62.8701L568.512 60.2686L570.593 57.2334L571.46 57.1465L572.327 59.1416L571.026 61.917L571.373 63.5645L574.148 64.085L576.49 65.3857L578.832 65.125L581.26 66.5127L583.602 65.8193L584.469 68.1611L582.127 68.9414L582.561 69.9814H584.989V72.3232L582.474 72.584L582.647 73.7109L586.55 75.1855L586.983 77.0068L585.162 80.6484L581.693 81.2559L578.918 80.042L578.225 80.5625L576.229 85.2451L583.602 85.0713L583.428 89.7549H577.357L577.011 86.8926L575.796 86.7197L572.501 90.5352L574.495 95.9121L580.219 94.958L584.035 91.6621L584.989 89.4941L585.336 85.2451L586.724 84.9854L590.539 86.459L593.661 89.3213L596.437 93.0498L596.87 95.2178L596.263 96.6924L594.528 98.2539L589.672 99.4678L586.029 99.6406L582.214 101.115L579.266 101.202L579.525 99.9883L582.301 98.5137L581.26 98.0801L579.266 99.207L579.959 95.8252L574.669 96.7793L575.71 97.9932V99.9014L574.756 100.161L572.501 116.552L573.108 117.072L577.098 117.246L577.617 109.354L578.398 106.752L586.896 107.533L585.423 118.113L572.414 117.593L571.287 126.872L572.848 128.26V133.463H575.276V129.994L576.057 129.214L580.826 129.301L587.244 133.983L594.615 141.095L594.702 143.176L591.58 146.818L579.352 146.645V150.461L578.051 151.067L577.965 152.889L579.612 153.583H599.992L601.206 153.756H610.052L613.694 154.884L615.342 153.322L619.244 153.062L619.678 149.94H624.448L626.27 153.496L625.922 153.93L616.729 153.843L618.897 157.485L616.296 158.612L641.012 207.091V208.479L634.508 215.59L636.936 212.468L635.462 210.56L625.922 191.827L629.044 190.267L627.917 188.099L629.391 187.231L622.974 174.656L616.729 177.778L610.746 165.377L615.688 163.035L615.169 161.734H599.731L599.818 174.223L604.762 183.936L599.298 186.537L602.768 193.302L602.073 193.735L606.149 201.888L605.195 202.408L601.032 194.343L594.182 197.898L586.724 182.896L585.336 182.809L583.515 183.936L582.734 182.114L580.219 183.242L586.463 196.25L585.162 197.204L586.724 199.633L588.545 199.979L583.948 202.234L584.989 204.229L579.612 206.744L578.312 206.311V203.969L576.75 202.061L576.577 200.5L573.455 193.909L574.409 189.312L572.501 184.282L570.593 185.236L569.553 184.282L570.68 183.589L569.639 182.635L567.904 175.697L566.95 173.269L565.649 172.488L564.176 168.846L561.747 166.071L563.048 165.984L560.88 163.296L560.967 161.908L563.568 161.648L565.216 164.076H566.69L566.777 158.612L566.257 157.832L564.262 158.093L563.395 155.057L545.53 155.144L543.796 155.404L539.373 157.745L536.164 161.215L535.036 160.087L537.291 158.093L537.465 151.935L539.112 152.282H549.866V153.843L551.08 153.322L552.208 154.017H556.457L554.549 153.583L554.289 152.282L551.167 152.108L551.08 146.992L554.376 146.559V144.91L551.167 144.824L550.993 143.956L552.901 143.35L552.814 141.615L556.37 141.528L556.457 143.437L560.88 143.35L558.538 142.916L558.625 139.967L557.845 137.365H553.509L553.596 135.024L554.81 134.851L553.942 133.29L558.104 132.77L558.019 130.515L556.283 130.168L556.37 128.78L554.549 128.606L553.682 129.647L553.769 132.683L551.427 132.856L550.646 131.382L549.692 126.612L546.57 127.652L542.062 130.341L543.275 133.116L544.229 131.988L548.739 129.474L549.086 130.254L547.524 132.162L544.923 133.81L545.01 136.932L543.969 139.36L542.408 139.014L541.367 136.672L541.107 133.203L542.234 131.902L541.714 131.035L538.853 131.121L533.996 129.474L534.43 127.565L533.302 126.785L535.73 124.184L532.608 119.414L530.961 118.547L531.567 116.465L530.7 114.904L531.047 111.522L533.042 110.481L541.367 107.533L541.541 107.013L538.766 105.365L535.817 105.885L530.874 104.671L529.14 104.845L529.746 105.972L528.532 108.573L528.445 110.828L530.874 112.39L528.706 114.991L528.012 116.639L526.538 122.709L526.19 125.397L527.578 126.005L527.752 127.739L525.237 126.785L525.584 127.999L524.196 130.688L522.462 132.596L521.074 132.683L518.126 134.07L514.656 130.688L512.575 129.387L509.54 124.617L507.893 124.878L506.852 123.229L506.765 120.454L505.551 118.547L505.725 111.262L503.816 110.308H500.607L499.047 111.349L496.879 114.037L495.925 116.899L495.491 115.251L492.716 113.69L488.727 108.573L488.033 105.538L490.287 105.365L492.456 104.411L494.276 102.416L494.624 100.942L494.19 95.7383L493.67 93.7441L491.154 88.541L488.119 84.6377L485.345 82.21L481.789 80.3887L475.545 78.8271L476.672 75.792L480.055 75.1855L480.922 71.1963L480.141 70.415H477.192L475.197 68.7676L474.938 67.207L475.805 64.7783L479.534 66.2529L482.223 65.7324L481.182 66.6865L483.696 67.8135L486.298 68.334L488.986 67.3799L490.981 68.0742L491.068 71.3691L492.282 74.3184L496.445 79.3477L499.133 80.3018L503.47 79.0879L502.255 76.7461L504.25 75.6191L505.117 78.4805L504.076 79.001L514.483 84.2041L517.432 82.4697L517.692 80.5625L519.166 79.4346L522.809 80.3887L521.334 78.1338L522.635 77.3535L522.288 75.5322L524.543 75.2715L527.839 73.7109L527.231 71.8896L526.018 73.0176L524.456 73.2773V70.502H526.364V69.4619L524.022 69.375L523.068 68.6807L524.804 65.8193L525.584 66.3398L525.671 69.1143L527.231 69.2881V70.415H528.619L528.706 71.4561L527.318 71.7158L528.272 73.7979L531.654 73.1035L528.966 68.7676L527.405 67.7266V64.4316H530.007V67.6406L529.053 68.5947L531.48 72.4102L533.042 73.1035L539.546 73.0176L541.194 74.4912L542.581 73.7979L543.362 75.0117L545.184 74.2314L546.744 71.1963L545.01 69.8086L546.918 66.9463L548.479 67.8135L550.3 64.8652L531.395 52.8975L519.34 44.832L528.879 30.4365L531.221 27.2275L533.216 27.0537L537.725 27.835L540.24 28.7021L541.975 30.0889L543.622 33.8184L543.448 37.5479L544.143 38.2412H548.912L551.688 37.2871L554.115 37.5479L556.283 38.9346L557.758 37.2871L554.029 34.7725L554.463 32.6045L553.509 30.9561V34.4258L552.728 35.0322L549.259 35.2061L548.479 33.3848L549.953 31.5635L548.045 32.084L545.01 31.6504L543.709 28.6152L542.147 27.1406L539.373 25.9268L532.262 24.7129L536.598 18.0352L538.158 17.168L540.674 17.9482L543.188 21.2432L545.184 21.9375H548.219L550.907 23.0645L551.341 21.6768L550.04 21.0703L546.918 17.7744L546.311 18.6416L543.275 19.4229L540.5 16.4736L538.072 16.04L540.674 11.791L541.975 10.1426L543.969 9.01562L544.402 9.62305Z" fill="white"/>
<path d="M358.902 134.154L357.168 137.103L354.046 140.225L351.444 141.266L349.016 143L344.159 145.428L340.604 147.683L339.736 149.07L334.446 154.36L331.672 156.269L330.544 154.794L328.896 157.31L326.642 158.35L322.739 162.252L320.051 163.727L318.229 165.808L315.107 165.288L315.281 158.177L316.408 152.8L317.275 150.024L320.051 150.718L322.306 148.55L322.045 147.856L335.228 141.786L338.089 148.116L339.043 147.856L336.268 141.353L343.292 138.23L351.531 136.062L352.312 135.281L358.815 133.287L358.902 134.154Z" fill="white"/>
<path d="M367.661 103.458L368.182 105.366L366.794 106.407L364.279 109.876L362.718 111.003L360.116 114.212L361.851 117.16L362.284 115.426L364.887 113.432L366.447 115.426L365.754 118.461L365.146 118.027L363.499 121.323L357.688 125.053L355.434 125.92L355.78 124.271L354.479 124.358L352.052 129.995L348.496 131.729L347.802 130.516L345.026 130.689L339.91 131.903L335.141 134.071L333.492 133.898L332.973 128.001L331.411 127.654L331.932 134.071L335.054 141.27L322.132 147.253L319.356 140.923L318.143 140.315L319.53 138.234L320.311 135.979L323.606 130.776L324.994 130.256L330.891 126.873L332.973 127.654L335.054 126.96L335.747 125.312L334.013 124.445L337.829 123.317L339.477 122.19L339.91 122.884L342.078 122.624L341.904 121.583L345.721 122.711L346.848 121.583L350.664 120.716L352.312 120.977L353.005 119.068L353.959 119.328L352.832 117.421L349.797 117.681L348.062 117.074L347.889 115.6L346.675 114.732L347.281 112.737L349.103 109.529L352.398 107.794L353.092 108.228L354.913 106.233L356.994 106.407L358.295 108.401L359.249 107.188L360.897 106.841L361.244 105.8L366.447 102.765L367.661 103.458Z" fill="white"/>
<circle id="53" cx="500" cy="150" fill="#5CE50D"/>
<circle id="56" cx="396" cy="315" fill="#E52A0D"/>
<circle cx="425" cy="569" fill="#E52A0D"/>
<circle cx="513" cy="379" fill="#E52A0D"/>
</svg>
