<svg width="1000" height="1000" viewBox="0 0 1000 1000" fill="none" xmlns="http://www.w3.org/2000/svg">
<path d="M711.035 8.01074C709.375 12.5029 707.617 16.8975 707.227 17.7764C706.836 18.6553 703.418 22.2686 699.512 25.7842C691.309 33.1084 689.453 33.5967 670.801 33.0107C660.156 32.7178 659.375 32.5225 652.246 28.9092L644.824 25.1982L640.332 27.1514C636.426 28.9092 635.449 29.8857 633.301 34.6709C631.25 39.3584 630.273 40.4326 626.953 41.7021C623.145 43.167 623.047 43.46 623.047 47.7568C623.047 55.7646 622.559 56.4482 615.234 58.5967C611.523 59.6709 606.152 61.0381 603.32 61.624C598.34 62.6006 597.656 62.5029 592.676 60.0615C589.746 58.5967 585.254 55.2764 582.52 52.835C579.883 50.2959 574.902 46.292 571.484 43.9482C566.797 40.6279 564.16 37.7959 560.547 32.0342C555.176 23.6357 553.613 22.5615 534.57 14.6514C529.297 12.5029 524.609 10.3545 524.219 9.96387C523.828 9.57324 521.289 9.47559 518.652 9.57324L513.672 9.96387V15.9209C513.672 20.999 513.281 22.2686 511.133 24.5146L508.496 27.249L512.5 35.3545C517.871 46.1943 520.996 61.624 520.117 72.7568C519.629 80.2764 519.434 80.667 516.016 83.499C513.965 85.0615 510.84 86.8193 508.984 87.4053C506.055 88.2842 505.371 89.1631 503.223 94.7295C501.953 98.2451 500.293 104.007 499.609 107.522C498.926 111.136 497.656 115.042 496.777 116.214C495.312 118.265 495.41 118.753 497.168 122.171C498.828 125.589 499.023 128.03 499.023 151.565V177.249L495.996 184.769C493.164 191.8 492.578 192.483 487.5 195.511C482.324 198.636 481.934 199.124 480.176 205.081C479.102 208.597 477.93 211.722 477.441 212.015C476.953 212.308 473.73 213.089 470.312 213.772C466.602 214.554 463.281 215.823 462.305 216.897C461.328 217.972 459.375 218.753 457.324 218.753C454.785 218.753 454.102 219.143 454.102 220.706C454.102 222.366 453.418 222.659 450.293 222.659C446.973 222.659 446.387 222.268 445.312 219.729C444.629 218.069 443.164 216.311 442.188 215.726C439.062 214.065 430.762 215.628 427.93 218.46C426.66 219.729 423.926 221.487 421.777 222.366C418.262 223.733 417.969 224.124 417.969 227.444C417.969 232.425 416.504 233.987 410.156 235.745C402.441 237.893 399.414 237.893 395.02 235.647C392.871 234.573 387.891 232.718 383.984 231.546L376.953 229.397L369.043 231.936C363.281 233.694 359.082 234.378 353.125 234.378C340.625 234.378 334.082 235.94 330.078 239.749C322.852 246.585 316.992 247.659 310.254 243.46C308.008 242.093 302.93 239.456 299.023 237.601C290.234 233.597 285.156 233.499 271.582 236.722C266.211 237.991 259.473 239.358 256.445 239.749L251.074 240.433L250 245.218C249.023 249.319 248.438 250.003 246.484 250.003C242.969 250.003 240.234 243.851 240.234 235.94C240.234 231.253 239.551 228.03 237.793 224.026C234.961 217.679 234.668 210.94 236.816 205.765C238.867 200.686 238.672 199.905 234.766 197.757L231.25 195.901L234.473 193.362L237.598 190.726L233.496 189.065C227.93 186.917 225.391 181.351 225.684 172.073L225.977 165.53L222.363 165.237C219.141 164.944 218.359 164.261 215.43 159.769C213.672 156.937 210.352 153.226 208.105 151.468L204.004 148.147L195.996 150.296C185.645 153.03 181.543 152.933 176.953 150.003C173.438 147.659 158.691 142.581 155.566 142.581C154.785 142.581 152.539 141.214 150.684 139.651C146.582 136.038 140.43 135.55 138.477 138.675C136.523 141.8 130.762 141.312 128.125 137.796C126.855 136.038 124.902 134.866 122.852 134.476C119.727 133.987 117.578 135.062 99.0234 146.097C97.8516 146.78 96.4844 149.124 95.8984 151.37C94.8242 155.765 94.2383 155.081 102.246 158.206L104.785 159.28L100.977 161.819C98.9258 163.187 96.7773 164.651 96.3867 165.042C95.9961 165.433 96.2891 169.827 97.168 174.905C97.9492 179.983 98.6328 185.452 98.6328 187.21C98.6328 190.53 92.3828 201.956 90.0391 202.835C89.0625 203.226 88.8672 204.495 89.3555 208.108C89.9414 212.21 89.7461 212.991 88.1836 213.577C87.207 213.87 84.082 216.018 81.3477 218.167L76.1719 222.171V227.835C76.1719 237.698 82.4219 243.069 93.9453 243.167C99.3164 243.167 99.6094 243.265 100.098 245.804C100.391 247.366 101.27 249.612 102.051 250.979C102.832 252.347 104.395 255.276 105.469 257.425C107.422 261.526 108.984 262.698 112.207 262.698C115.137 262.698 117.188 269.925 116.211 276.37C115.723 279.3 115.332 283.304 115.332 285.257L115.234 288.772L123.73 290.726C131.836 292.483 132.227 292.776 133.008 295.706C133.789 298.636 134.18 298.831 137.988 298.831C140.43 298.831 143.652 299.71 145.996 301.077C149.512 303.128 149.902 303.714 149.902 307.132C149.902 309.28 149.512 313.382 149.219 316.311L148.535 321.585L152.637 320.999C156.738 320.413 156.738 320.511 161.035 326.175C167.188 334.28 169.922 336.136 174.707 335.354C178.516 334.768 178.613 334.768 180.176 338.675C181.25 341.214 182.91 343.167 185.059 344.339C187.891 345.901 188.477 346.78 188.965 350.589C189.355 353.03 190.234 356.546 191.016 358.499C191.992 360.843 192.285 363.186 191.895 365.628C191.309 368.362 191.602 369.632 192.773 370.999C194.336 372.757 194.141 373.343 190.039 381.253C187.598 385.94 184.082 391.702 182.129 394.241C179.492 397.757 178.711 399.612 178.711 402.835C178.711 405.081 178.027 408.987 177.051 411.624L175.488 416.409L178.809 419.143L182.129 421.976L179.492 426.761L176.855 431.448L179.297 440.53L181.641 449.515L179.688 451.663C178.613 452.737 177.246 455.081 176.66 456.839C175.684 459.671 175.195 459.964 171.777 459.964C167.383 459.964 167.578 458.792 169.043 474.515C170.508 490.726 170.41 490.237 174.219 490.237C175.977 490.237 182.031 491.409 187.598 492.776L197.656 495.315L201.367 491.311L205.176 487.308H214.16H223.242L227.344 492.874C231.641 498.733 232.031 500.003 230.469 502.933C229.785 504.104 229.883 506.448 230.566 509.964C232.227 518.362 231.738 533.011 229.59 536.526C228.027 539.163 227.832 541.604 228.027 556.643C228.223 572.561 228.418 574.222 230.957 581.058L233.691 588.382L231.055 596.194C229.297 601.761 228.516 606.253 228.516 611.038C228.516 616.409 227.832 619.729 225.586 625.589C224.023 629.69 222.07 633.792 221.191 634.768C220.41 635.647 218.555 639.651 217.188 643.655C215.039 650.003 214.844 651.858 215.43 658.89C216.016 666.214 216.406 667.386 219.727 671.878C221.777 674.612 223.73 678.421 224.121 680.374C224.414 682.327 227.148 688.675 230.078 694.534C234.277 702.933 235.352 705.96 235.352 709.671C235.254 714.163 235.547 714.554 240.723 719.241C245.996 723.929 246.191 724.417 247.168 730.96C248.145 737.015 248.73 738.186 251.855 741.214C256.152 745.218 256.836 747.854 257.715 762.698L258.301 772.952L264.453 774.417C267.871 775.198 270.605 776.272 270.605 776.858C270.605 777.347 270.117 779.69 269.531 781.839C268.457 785.55 268.652 786.429 271.777 793.069C273.535 797.073 276.855 802.444 279.004 804.983C282.129 808.792 283.203 811.038 284.18 816.507C285.449 822.952 285.742 823.538 289.941 826.663C292.383 828.421 296.289 831.839 298.633 834.28C304.297 840.042 306.055 847.171 305.273 860.55L304.688 869.925L311.816 873.733L318.848 877.64L318.945 882.425C319.043 890.726 320.312 896.194 324.707 906.644C327.441 913.284 329.395 919.729 330.176 925.003C330.859 929.397 332.715 937.21 334.375 942.386L337.402 951.663L352.246 958.987L366.992 966.311L369.043 973.733C370.215 978.03 371.094 984.085 371.094 988.089C371.094 996.292 370.898 996.194 383.691 996.097C390.918 995.999 394.434 996.39 398.828 997.952C405.273 1000.2 413.281 1000.69 414.746 998.733C415.332 998.147 416.016 995.804 416.406 993.655C417.48 987.308 417.969 986.331 420.02 986.331C420.996 986.331 424.609 985.257 428.027 983.89L434.277 981.351L437.891 972.366C439.844 967.386 442.676 961.917 444.141 960.159L446.875 956.936L449.512 959.378C450.977 960.745 452.148 962.698 452.148 963.675C452.148 966.409 453.809 967.386 460.156 968.46C465.625 969.436 465.82 969.339 468.75 966.311C470.703 964.261 471.68 962.308 471.68 960.257C471.68 955.862 476.27 952.542 483.887 951.663C490.137 950.882 497.363 947.757 500.391 944.436C501.367 943.362 503.613 941.995 505.371 941.409C507.129 940.823 509.766 938.577 511.719 936.038C514.746 931.936 515.234 931.741 520.41 931.448L525.781 931.155L526.855 926.761C527.832 922.757 528.223 922.366 531.152 922.073C534.375 921.78 542.578 917.386 546.582 913.772C547.949 912.601 549.805 908.401 551.367 903.421C557.91 881.936 572.852 860.94 584.863 856.448C589.648 854.69 590.82 853.714 594.141 848.538C597.07 843.948 599.023 842.093 602.246 840.726C605.176 839.456 606.445 838.382 606.445 837.015C606.445 835.94 608.008 833.792 609.863 832.327C612.695 830.081 613.281 829.007 613.281 825.784C613.281 823.245 614.355 820.315 616.699 816.409C619.434 811.917 620.801 810.647 623.926 809.769C626.66 808.89 627.93 807.913 628.32 806.155C628.711 804.788 630.469 802.737 632.324 801.468C635.352 799.612 635.742 798.831 635.742 795.12C635.742 792.874 635.352 791.019 634.961 791.019C633.594 791.019 629.883 787.112 629.883 785.55C629.883 784.769 630.957 783.694 632.324 783.206C634.375 782.425 634.668 781.839 634.18 779.397C633.691 776.956 634.375 775.198 637.988 769.827C640.527 766.116 644.531 758.401 647.07 752.444C649.609 746.39 652.539 741.116 653.711 740.335C654.785 739.554 659.57 735.159 664.355 730.569C672.852 722.366 672.852 722.268 672.852 717.386C672.852 713.479 673.535 711.429 675.781 708.011C677.344 705.569 679.199 701.077 679.785 698.05L680.859 692.483L688.379 689.944C692.676 688.577 698.047 687.503 701.074 687.503C705.664 687.503 706.934 687.991 710.547 690.921C714.746 694.339 714.844 694.436 717.383 692.679L720.02 691.018L719.336 680.862C718.75 670.511 718.164 668.46 714.258 663.772C711.035 659.866 711.035 654.007 714.258 652.542C716.016 651.761 716.699 650.491 717.188 646.976C717.578 644.534 718.945 640.237 720.312 637.405C721.582 634.573 722.656 631.351 722.656 630.081C722.656 628.518 723.926 627.151 726.953 625.296C731.152 622.757 732.422 620.804 732.422 616.702C732.422 615.53 734.18 612.893 736.426 610.843L740.43 606.936L740.039 598.538L739.746 590.042L745.117 584.378C748.145 581.155 751.27 577.64 752.051 576.468C753.418 574.417 753.711 574.417 759.277 575.784C767.285 577.64 767.188 577.64 768.555 572.854C769.336 570.022 771.191 567.19 774.219 564.163C778.32 560.257 779.785 559.573 787.793 557.62C796.777 555.472 796.777 555.472 799.902 550.686L802.93 545.901H808.594H814.16L821.191 537.991C831.738 526.077 835.449 520.608 837.793 513.772C838.867 510.257 839.844 506.936 839.844 506.253C839.844 505.179 829.492 500.003 827.344 500.003C825.879 500.003 824.219 496.78 824.219 493.948C824.219 492.386 825.293 491.116 827.93 489.554C831.25 487.698 831.836 486.819 832.91 481.741C833.594 478.616 835.059 474.71 836.035 473.05C837.793 470.218 838.379 469.925 846.777 468.753C854.785 467.679 856.055 467.19 859.375 464.163C862.598 461.331 863.281 460.061 863.867 455.472C864.355 450.882 864.941 449.905 867.285 448.733C868.75 447.952 870.41 447.268 870.801 447.268C871.289 447.268 872.852 449.71 874.316 452.64C876.855 457.913 877.051 458.011 881.055 458.011C884.375 458.011 886.035 457.327 889.551 454.3C893.262 451.272 895.312 450.393 901.367 449.417C905.566 448.733 909.375 447.464 910.352 446.487C911.914 444.925 911.914 444.436 910.449 438.772C908.398 430.276 909.18 426.272 913.477 424.808C917.383 423.538 917.969 421.585 917.969 409.573C917.969 402.054 917.676 400.979 914.844 396.292C912.012 391.702 911.621 390.237 911.523 383.792C911.426 371.097 911.328 370.999 907.422 367.288C902.246 362.405 897.461 355.081 897.461 352.249C897.461 350.491 899.414 347.854 903.809 343.46C907.324 339.944 910.156 336.429 910.156 335.55C910.156 334.671 911.816 332.132 913.867 329.788C918.848 324.417 923.926 315.823 921.68 316.702C920.801 316.995 916.211 317.581 911.426 317.972C905.371 318.362 901.562 319.241 898.438 320.901C889.16 325.589 865.918 323.831 857.617 317.679C854.98 315.628 853.809 315.433 850 316.018C846.191 316.604 845.312 317.093 843.945 320.022C842.578 322.952 842.09 323.245 839.355 322.659C836.719 322.171 831.152 317.093 831.055 315.14C831.055 314.651 829.395 310.55 827.441 305.96C824.121 298.147 823.633 297.464 819.336 295.511C810.742 291.507 804.883 287.112 801.66 282.132C798.73 277.444 798.438 277.347 795.02 277.933C793.066 278.323 790.137 279.886 788.379 281.546C785.742 283.987 785.156 285.354 785.156 288.577V292.581L779.59 294.339C775.781 295.511 772.363 297.561 769.336 300.393C762.988 306.253 760.254 306.253 756.348 300.101C750.879 291.409 744.238 284.183 741.797 284.183C740.039 284.183 739.16 283.401 738.379 281.058C737.695 279.3 735.449 275.979 733.203 273.733C729.98 270.511 728.32 269.534 725.879 269.534C724.121 269.534 722.656 269.436 722.656 269.241C722.656 269.046 721.582 266.311 720.312 262.991L718.066 257.132L722.266 253.811C725.781 251.077 726.465 249.905 726.562 247.073C726.562 244.241 727.441 242.679 731.348 238.87C737.988 232.327 738.867 229.007 736.523 219.241L734.668 211.429L738.086 207.229C739.941 204.886 742.383 202.542 743.359 202.054C744.824 201.272 745.02 200.394 744.629 197.854L743.945 194.632L750.488 194.046C757.715 193.558 761.23 191.604 763.672 186.917C765.723 183.011 766.406 182.62 771.68 182.62C776.074 182.62 776.367 182.425 777.148 179.397C777.832 177.054 777.539 175.101 776.172 171.39C775.098 168.655 774.121 166.409 774.023 166.312C773.926 166.116 771.191 166.507 767.969 166.995C764.355 167.581 761.816 168.558 761.23 169.534C759.375 172.757 756.836 174.808 754.883 174.808C753.809 174.808 751.074 175.979 748.926 177.444C745.312 179.886 744.824 179.886 744.043 178.421C743.359 177.249 741.797 176.761 738.379 176.761H733.691L731.543 171.292C728.711 163.772 728.906 161.819 733.203 155.96C735.352 153.128 737.988 148.05 739.16 144.534C740.332 141.019 743.262 135.55 745.605 132.425C750.488 125.979 750.488 126.077 748.633 117.483L747.363 111.331L751.66 108.694C757.91 104.69 766.699 89.2607 767.773 80.1787C768.457 74.5146 768.945 73.4404 771.875 70.8037C777.344 66.1162 779.297 61.917 779.297 55.1787C779.297 48.5381 778.223 46.8779 771.777 42.2881C769.531 40.6279 763.77 35.6475 758.984 31.1553C750.391 23.0498 750.293 22.8545 749.512 17.1904C748.633 9.57324 747.656 7.13184 745.117 6.35059C743.652 5.8623 742.285 6.35059 740.82 7.71777C737.109 11.2334 732.324 10.4521 723.145 4.88574C718.652 2.15137 714.844 0.00292969 714.648 0.00292969C714.355 0.00292969 712.793 3.61621 711.035 8.01074Z" fill="white"/>
<circle id="110" cx="529" cy="529" fill="#5CE50D"/>
<circle id="109" cx="233" cy="481" fill="#5CE50D"/>
<circle id="112" cx="440" cy="288" fill="#E52A0D"/>
<circle id="1593" cx="440" cy="895" fill="#E52A0D"/>
<circle id="111" cx="668" cy="228" fill="#E52A0D"/>
</svg>
