<svg width="1000" height="1000" viewBox="0 0 1000 1000" fill="none" xmlns="http://www.w3.org/2000/svg">
<path d="M574.542 18.6305C572.186 19.1016 569.266 20.5149 567.758 21.9281C565.591 24.001 564.837 24.2836 563.707 23.3414C562.576 22.3992 561.728 22.9645 558.713 27.0159C555.792 30.8789 554.756 31.7268 553.06 31.2558C551.835 30.9731 550.139 31.2558 549.197 31.8211C547.784 32.669 546.653 32.669 544.298 31.8211C541.471 30.8789 540.906 30.9731 539.021 32.7632C537.043 34.5534 536.383 34.7418 532.897 33.7997C529.6 32.9517 528.375 33.0459 526.019 34.2707C524.418 35.1187 520.178 36.532 516.503 37.3799C508.777 39.2643 509.06 37.1915 513.677 57.0716C516.692 70.1679 517.634 72.2407 520.837 72.2407C521.78 72.2407 522.722 73.654 523.381 75.9152C524.889 80.9088 524.889 81.2856 521.968 85.0544C519.801 87.6925 518.67 88.2578 515.75 88.2578H512.169L512.735 93.3456C513.3 97.868 513.206 98.5276 511.51 99.4698C510.285 100.129 509.531 101.825 509.06 104.84C508.589 108.515 507.835 109.834 503.972 113.32C499.544 117.183 499.356 117.654 498.79 123.59C498.413 126.981 497.942 130.185 497.66 130.75C497.283 131.221 494.833 132.729 492.195 134.048C486.259 137.157 478.345 143.47 463.741 156.943C452.529 167.307 452.435 167.401 447.724 167.401C445.18 167.401 441.411 166.93 439.527 166.459C436.983 165.705 433.497 165.799 426.431 166.93C421.154 167.684 414.088 168.343 410.79 168.343C406.268 168.343 403.63 168.909 400.144 170.699C397.6 172.018 393.925 173.054 391.947 173.054C388.743 173.054 388.084 172.583 385.634 168.72C382.337 163.444 380.452 162.69 370.653 162.69C363.87 162.69 362.456 162.973 359.347 165.046C356.521 167.024 355.861 168.061 355.861 170.51C355.861 172.866 355.202 173.902 353.129 175.127C348.889 177.482 346.91 181.063 348.23 183.984C349.831 187.564 349.549 188.223 346.816 187.187C345.403 186.622 342.859 186.527 341.069 186.81C337.866 187.375 337.771 187.564 338.242 191.05C338.619 194.159 338.431 194.63 336.546 195.101C335.322 195.384 332.589 195.007 330.422 194.253C326.182 192.746 317.232 192.275 317.232 193.594C317.232 193.971 317.609 194.724 318.08 195.195C318.551 195.761 319.21 199.058 319.587 202.733L320.341 209.328L318.362 207.538C316.384 205.842 316.29 205.842 312.992 208.763C311.108 210.365 309.317 211.684 308.941 211.684C308.564 211.684 307.716 212.061 307.056 212.532C306.02 213.097 306.491 214.699 309.129 219.975C311.013 223.649 312.521 226.853 312.521 227.041C312.521 228.266 302.439 225.534 297.54 223.084L291.793 220.163L290.851 222.519C289.626 225.722 289.626 229.208 290.945 231.658C292.358 234.296 291.699 234.579 287.741 232.883L284.35 231.469L282.465 236.746C281.335 239.572 280.487 243.435 280.487 245.414C280.487 247.298 279.921 252.669 279.168 257.191L277.943 265.576L270.688 272.831L263.433 280.18L264.093 292.994C264.658 304.394 264.564 306.09 263.15 307.692C261.831 309.105 261.549 311.649 261.36 320.788L261.172 332.095L306.868 362.15L352.564 392.112L353.223 422.261L353.977 452.411L351.527 457.028L349.172 461.739L351.245 466.732C352.658 470.124 353.694 471.632 354.731 471.538C355.955 471.349 356.615 473.422 358.311 482.844C359.536 489.251 361.043 495.186 361.703 496.034C374.14 511.109 377.343 514.501 380.735 516.197C382.902 517.233 386.199 519.589 388.178 521.473C391.287 524.488 391.664 525.336 391.664 529.67C391.664 532.214 392.324 539.469 393.077 545.687C394.02 553.319 394.491 566.792 394.491 587.049V617.105L397.411 622.098L400.238 627.186L397.883 630.295C396.281 632.368 395.433 634.724 395.433 636.796C395.433 638.681 394.773 640.659 394.02 641.319C392.135 642.826 392.229 643.769 394.396 646.784C395.998 649.139 396.187 653.379 397.411 702.09C398.165 731.109 398.73 766.535 398.73 780.762C398.825 794.989 399.202 819.109 399.578 834.184L400.426 861.79L392.606 861.13C386.011 860.659 384.88 860.753 385.257 861.884C385.54 862.638 386.576 865.652 387.519 868.667C388.649 872.248 390.251 875.074 392.135 876.77C394.962 879.22 395.056 879.408 394.868 887.7C394.585 896.273 393.172 901.927 389.874 907.391C388.272 909.935 388.178 910.5 389.403 912.102C390.157 913.138 390.722 915.117 390.722 916.436C390.722 919.357 394.208 922.937 399.767 925.669C405.42 928.496 406.927 931.323 406.174 937.635L405.514 942.817H409.566C413.146 942.817 414.088 943.288 417.197 946.68C420.966 950.732 421.343 952.239 422.379 964.111L422.945 971.742L420.212 972.779C418.611 973.25 413.052 974.475 407.775 975.417C399.013 976.924 398.259 977.207 398.259 979.185C398.259 982.295 399.673 982.672 404.666 981.07C410.319 979.185 428.692 976.736 437.36 976.736C441.506 976.736 454.319 974.757 471.75 971.46C494.55 967.126 501.711 966.089 511.321 965.807C517.822 965.712 525.831 965.147 529.223 964.582C532.615 964.016 537.514 963.545 540.152 963.545C542.79 963.545 550.139 962.509 556.546 961.19C562.953 959.871 568.229 958.834 568.323 958.834C568.418 958.834 568.794 955.537 569.077 951.485C569.36 947.528 570.679 940.273 572.092 935.374C574.636 926.989 574.636 926.423 573.223 923.974C570.867 920.111 572.092 915.965 576.52 912.385C579.912 909.652 580.195 909.181 579.912 905.13C579.63 901.455 579.347 900.89 577.462 900.607C575.861 900.325 574.73 899.1 573.411 896.273C571.809 892.599 571.809 891.939 573.034 887.7C573.788 885.25 574.448 881.199 574.448 878.843C574.448 875.357 573.882 874.038 571.527 871.588L568.7 868.667L570.302 864.805C571.433 861.695 572.94 860.282 576.897 857.927C579.724 856.325 581.985 854.912 581.985 854.723C581.985 854.441 580.76 853.687 579.347 852.933C577.745 852.085 576.049 850.106 575.201 847.939C573.882 844.453 573.882 844.076 575.861 841.25L577.934 838.235L576.143 828.531C574.071 817.224 573.976 816.376 574.259 803.186L574.448 793.104L577.651 793.67L580.854 794.141L581.514 788.299C582.173 782.929 581.985 782.364 580.101 781.044C570.019 773.978 568.794 770.492 568.794 749.104V733.087L565.403 729.79C563.518 728.094 561.257 725.456 560.221 724.137L558.43 721.593L561.728 717.353C563.518 714.997 565.026 712.077 565.026 710.852C564.931 704.162 568.229 683.717 569.925 680.231C572.186 675.52 571.715 671.469 568.323 664.873C567.099 662.518 565.497 658.278 564.743 655.357C563.518 650.552 563.518 649.799 565.12 646.878C566.062 645.088 566.816 642.544 566.91 641.225C566.91 639.906 567.664 638.115 568.606 637.173C571.338 634.818 572.846 628.976 572.186 624.265C571.809 622.004 571.244 613.148 570.867 604.574C570.396 595.529 569.642 587.803 568.983 586.201C567.852 583.563 567.946 583.28 570.113 581.49C571.715 580.171 572.563 578.57 572.563 576.874C572.563 575.46 573.223 571.88 574.071 568.959C575.578 563.777 575.578 563.683 573.694 562.364C572.092 561.328 571.904 560.668 572.563 559.349C573.788 557.088 576.332 544.934 576.332 541.448C576.332 539.94 576.615 538.527 577.086 538.338C577.462 538.056 580.383 538.338 583.681 538.904C589.146 539.752 589.711 539.657 591.689 537.773C594.893 534.852 603.844 534.946 605.916 537.867L607.33 539.846L624.101 532.685L627.681 521.756C629.565 515.726 632.203 508.848 633.428 506.493L635.595 502.064L633.617 490.381C631.355 477.096 631.826 473.705 636.726 471.255C639.929 469.559 647.561 457.499 648.409 452.694C649.257 447.983 651.801 445.722 654.533 447.229C656.417 448.266 657.077 447.889 661.034 444.026L665.368 439.598L659.15 428.291L660.563 423.863L662.07 419.341L672.906 415.76L683.741 412.274L687.038 414.253C690.901 416.608 691.843 416.231 695.141 410.578C696.272 408.694 698.627 405.867 700.323 404.36C703.244 401.722 703.527 400.874 704.469 392.865C705.694 381.653 706.542 379.675 709.933 378.921C712.289 378.45 712.854 377.79 713.325 374.87C714.55 367.05 714.079 365.165 709.933 361.02C707.672 358.853 704.469 354.33 702.679 351.032L699.475 344.908L702.961 337.559C704.846 333.508 706.353 328.703 706.353 326.913C706.353 323.992 706.73 323.521 710.687 321.919C713.043 320.883 715.586 320.035 716.434 320.035C717.188 320.035 720.674 321.731 724.255 323.803C727.835 325.876 730.944 327.572 731.132 327.572C731.98 327.572 733.959 321.542 734.713 316.737C735.09 314.099 736.032 309.765 736.88 307.127C737.634 304.394 738.576 297.045 738.953 290.827L739.612 279.521H731.792L727.929 271.23C724.255 263.315 724.16 262.938 725.574 260.394C728.589 255.024 726.704 239.384 722.653 235.05C720.203 232.506 720.203 232.412 721.428 225.628C722.087 221.859 722.653 218.373 722.747 217.902C722.841 217.431 721.051 216.489 718.884 215.735C715.398 214.51 713.325 212.249 699.664 194.536C691.278 183.701 683.364 172.866 682.045 170.51L679.784 166.365L681.856 158.45C682.987 154.116 683.646 150.159 683.364 149.594C682.987 149.029 684.306 148.181 686.379 147.521C689.771 146.579 690.148 146.108 691.184 141.68C691.749 139.041 693.351 134.425 694.764 131.41L697.214 125.851L694.764 123.307C693.351 121.799 692.22 119.444 692.032 117.465C691.843 114.827 691.278 114.074 689.582 113.885C687.886 113.603 687.415 113.037 687.698 111.341C687.886 109.74 686.756 108.232 682.61 104.84C679.689 102.485 676.392 100.506 675.355 100.506C674.225 100.506 671.681 98.9987 669.608 97.1143C666.028 93.9109 665.462 93.7225 661.034 94.0993C658.302 94.382 654.816 94.1935 653.026 93.6282C650.293 92.7803 649.634 91.8381 646.148 83.4527C644.075 78.3648 642.096 73.1828 641.719 71.7696C640.871 68.2836 631.544 60.9345 628.058 60.9345C625.796 60.9345 625.043 60.3692 624.289 58.2022C623.629 56.412 621.745 54.7161 618.636 53.0202C614.585 50.759 613.548 49.5341 610.25 43.0331C606.576 35.684 606.482 35.5898 602.148 34.9303C598.567 34.4591 597.437 33.7054 595.27 30.6905C591.407 25.5085 582.456 17.5941 580.477 17.6883C579.441 17.7825 576.803 18.1594 574.542 18.6305Z" fill="white"/>
<circle id="78" cx="543" cy="923" fill="#5CE50D"/>
<circle id="77" cx="496" cy="968" fill="#5CE50D"/>
<circle id="1594" cx="614" cy="193" fill="#E52A0D"/>
<circle id="79" cx="554" cy="490" fill="#E52A0D"/>
<circle id="1180" cx="381" cy="327" fill="#E52A0D"/>
</svg>
