<svg width="1000" height="1000" viewBox="0 0 1000 1000" fill="none" xmlns="http://www.w3.org/2000/svg">
<path d="M734.863 103.714C721.484 108.987 695.312 119.339 676.757 126.663C658.203 133.987 637.109 142.874 629.882 146.487C620.898 150.98 614.355 153.616 609.277 154.593C596.777 157.23 584.667 165.237 567.382 182.132C553.613 195.706 552.148 196.78 510.253 225.394C466.796 255.081 464.355 256.937 427.734 289.359L423.339 293.265L427.538 292.581C431.054 292.093 431.64 292.191 431.64 293.655C431.64 296.39 430.371 297.562 426.757 298.245C423.925 298.734 422.851 299.612 420.898 303.323C418.261 308.109 415.917 309.573 410.546 309.573C408.593 309.573 406.152 310.062 405.078 310.648C404.003 311.234 392.675 320.609 379.882 331.448C360.449 347.855 352.636 353.714 331.835 367.386L306.933 383.695L284.374 392.484C271.972 397.366 251.464 405.472 238.867 410.55C220.312 418.07 212.109 420.804 196.093 424.808C181.64 428.421 170.214 432.132 153.808 438.48L131.347 447.073L114.257 448.831C101.562 450.003 84.8627 450.589 48.9252 450.882C22.4604 451.175 1.17131 451.663 1.56193 452.152C2.05021 452.542 7.32365 454.691 13.183 456.937C23.8276 460.843 24.2182 460.941 36.6205 460.941C48.8276 460.941 49.8041 461.136 62.1088 465.14L74.9018 469.241L84.9604 480.667C93.5541 490.628 95.2143 492.093 97.2651 491.605C99.0229 491.116 104.98 494.144 122.753 504.398C136.23 512.113 147.167 519.046 148.73 520.804C150.195 522.562 154.687 530.472 158.788 538.577C162.89 546.585 170.312 560.648 175.292 569.827L184.374 586.429L185.058 599.613C185.449 609.476 185.253 614.456 184.179 619.534C182.812 625.98 182.91 626.37 184.765 629.007C185.839 630.472 189.746 634.378 193.456 637.601L200.097 643.655L197.167 651.566C194.433 658.987 194.238 660.745 193.749 676.663C193.163 691.898 193.359 694.632 195.117 700.687L196.972 707.523L205.761 707.327C211.132 707.23 221.679 705.765 232.91 703.616C242.968 701.663 251.464 700.394 251.855 700.687C252.148 701.077 254.003 704.202 255.859 707.816C258.886 713.577 259.765 714.359 263.574 715.628L267.968 717.093L270.8 713.773C272.363 711.917 275.39 706.644 277.441 702.054L281.347 693.753L293.847 689.652L298.144 702.542L302.343 715.335L301.66 725.394L300.878 735.452L307.324 751.273C310.839 759.964 316.992 772.659 320.996 779.495C327.929 791.312 328.515 791.995 331.835 792.484C338.671 793.558 348.828 799.32 356.738 806.644C367.48 816.605 369.531 820.023 372.949 833.499L375.878 845.023L384.96 854.202C395.996 865.238 401.855 868.948 414.55 872.952C420.41 874.808 425.585 877.054 427.441 878.714L430.468 881.351L423.632 891.019C416.503 900.98 416.21 902.152 420.117 904.691C422.265 905.96 457.324 895.609 469.238 890.14C474.023 887.894 481.249 884.866 485.156 883.206C491.503 880.765 493.261 879.398 499.413 872.562C503.32 868.265 509.667 859.671 513.476 853.519C519.628 843.558 521.581 841.312 530.566 833.792C539.648 826.077 540.82 824.71 542.675 819.632C544.433 814.456 545.117 813.773 550.195 811.038C555.468 808.304 556.152 807.523 562.597 796.39L569.335 784.671L563.964 781.937C561.035 780.472 558.593 779.007 558.593 778.616C558.593 778.323 560.937 775.394 563.769 772.073C566.601 768.753 572.656 760.843 577.148 754.398C581.64 747.952 588.867 738.87 593.261 734.085C600.781 725.882 601.171 725.101 604.687 714.652C608.496 703.323 608.496 703.323 605.761 693.948C605.371 692.484 604.101 693.265 598.242 698.929C592.773 704.3 589.843 706.351 584.57 708.402C578.222 710.941 577.831 710.941 575.976 709.378C574.999 708.402 574.414 707.034 574.609 706.351C574.902 705.667 581.64 696.78 589.453 686.624C598.828 674.71 607.128 662.601 613.281 652.249C621.484 638.284 623.144 634.671 626.269 623.929C629.687 612.308 629.882 610.745 629.882 598.148C629.882 584.671 629.882 584.671 626.855 579.886C624.706 576.663 623.242 575.296 622.167 575.589C621.289 575.882 616.406 576.566 611.425 577.152L602.148 578.323L593.652 574.222L585.156 570.023L576.562 539.945L577.831 525.101C578.417 516.898 579.492 502.054 579.98 491.995L580.956 473.636L576.562 456.839C574.121 447.659 569.628 433.304 566.406 425.003L560.644 409.866L563.574 396.195C565.136 388.675 566.308 382.425 566.21 382.327C566.015 382.132 563.085 380.472 559.57 378.519C554.394 375.784 552.734 374.222 551.171 370.902L549.121 366.702L551.269 360.843L553.515 354.984L549.218 350.003L545.019 345.023L548.144 342.093C550.39 339.945 556.054 337.308 568.164 332.913L585.156 326.663L594.531 307.913L604.003 289.066L618.652 284.183C630.566 280.179 634.57 279.3 640.136 279.3C643.945 279.3 651.367 278.616 656.738 277.835C662.109 277.054 673.144 276.37 681.152 276.37H695.8L701.757 272.562L707.714 268.655L708.3 261.136C708.691 257.034 708.984 248.245 708.984 241.702V229.788L718.847 223.636C724.218 220.12 728.808 217.093 729.003 216.8C729.199 216.507 729.589 212.112 730.078 207.034L730.761 197.757L724.999 202.933C721.874 205.765 712.597 213.284 704.589 219.632C692.773 228.909 689.355 232.23 687.206 236.136L684.472 241.116L680.273 237.991C677.929 236.136 673.339 233.987 669.628 233.011L663.085 231.253L666.015 227.152C672.07 218.948 670.703 219.632 679.101 221.195C683.3 221.976 686.816 222.659 687.109 222.659C687.304 222.659 690.039 218.753 693.261 213.968L699.121 205.277L715.136 195.902L731.054 186.527L734.863 178.421C738.085 171.78 740.136 169.046 746.972 162.503L755.273 154.593L752.636 148.734C749.902 142.581 749.316 136.722 750.976 132.425C751.757 130.277 752.539 129.886 756.054 129.886C758.398 129.886 764.16 129.398 768.945 128.812C777.636 127.737 778.32 127.933 779.492 131.058C779.687 131.448 787.89 133.402 797.656 135.355L815.624 138.968L824.511 130.081L816.796 125.589C809.374 121.195 808.886 121.097 801.171 121.097C794.335 121.097 792.187 120.609 786.621 118.167C783.007 116.507 778.808 115.237 777.343 115.237C769.726 115.237 771.581 113.773 786.718 107.816L802.245 101.663H786.816L771.386 101.566L766.308 98.3429C763.476 96.5851 760.839 94.8273 760.253 94.632C759.765 94.339 748.339 98.4406 734.863 103.714Z" fill="white"/>
<path d="M804.003 208.109C800.097 210.257 796.874 212.601 796.874 213.187C796.972 213.87 797.558 216.8 798.242 219.73C799.316 224.32 799.902 225.296 802.831 226.663C806.542 228.519 807.421 230.57 807.519 238.089C807.617 244.144 805.566 248.734 802.636 249.222C800.488 249.515 799.511 250.784 798.437 254.105C798.046 255.374 796.874 255.863 794.531 255.863C791.601 255.863 790.917 255.472 790.429 253.421C789.941 251.273 789.257 250.98 785.449 250.98C781.347 250.98 780.566 251.468 772.851 258.499L764.648 265.921V272.562C764.648 276.175 765.331 282.718 766.21 287.113C766.992 291.507 767.578 295.218 767.382 295.413C767.187 295.511 765.722 295.413 764.062 295.218C761.035 294.73 760.937 294.632 759.765 286.82C759.081 282.425 758.3 278.421 758.105 278.03C757.812 277.542 755.761 279.788 753.417 282.913C750.488 286.82 747.363 293.363 743.359 304.007C737.988 317.874 737.499 320.023 737.89 325.003C738.867 336.82 738.867 336.722 744.726 339.554C747.558 341.019 749.999 342.484 749.999 342.874C749.999 343.265 748.535 347.464 746.679 352.249L743.261 360.941L746.777 373.148C749.414 382.425 750.097 386.331 749.609 390.14C749.316 393.558 749.804 397.269 751.269 402.249L753.32 409.573L751.171 419.827L749.121 430.081L754.492 440.14C757.421 445.609 760.644 450.687 761.621 451.37C762.597 452.054 766.308 455.374 769.824 458.695L776.367 464.749L777.246 477.738C777.734 484.866 779.101 496.878 780.273 504.398C782.128 516.702 782.714 518.851 786.621 525.98L790.82 533.89L789.843 551.859C788.867 569.534 788.867 570.023 791.308 579.3L793.749 588.87L790.917 598.636C787.695 609.476 787.597 608.695 793.652 615.531L796.777 619.144H805.956C813.476 619.144 816.503 618.656 823.632 616.214C828.417 614.652 832.812 613.577 833.398 613.968C833.984 614.359 836.718 616.312 839.453 618.363C844.238 621.976 845.214 622.269 861.718 625.003C871.289 626.663 880.859 627.933 883.203 627.933C885.449 627.933 891.21 626.663 895.996 625.003C900.781 623.441 904.687 622.171 904.785 622.366C905.859 624.027 907.226 634.769 907.226 641.116V649.124L910.253 649.808C916.21 650.98 918.261 650.394 922.949 646.488C927.636 642.581 929.199 642.093 935.742 643.167C939.257 643.753 939.355 643.948 940.82 650.198C941.601 653.714 942.675 656.839 943.164 657.132C943.652 657.425 949.316 661.136 955.761 665.335C966.601 672.269 967.871 672.855 972.656 672.855C977.246 672.855 978.417 672.366 984.277 667.972C987.792 665.335 992.871 660.745 995.507 657.718L1000.19 652.249L997.265 643.753C991.406 627.054 987.792 620.804 980.175 613.968C976.269 610.55 970.507 605.765 967.285 603.323C958.691 596.781 941.406 577.738 937.304 570.316C933.886 564.066 933.886 563.87 934.667 556.156C935.253 550.491 935.058 546.78 934.081 542.484C933.3 539.261 932.617 532.523 932.617 527.542C932.617 521.585 932.128 517.484 931.249 515.726C930.468 514.261 928.417 507.62 926.757 501.077L923.828 489.163L928.71 480.863C931.445 476.273 935.644 468.558 938.085 463.675L942.48 454.886L944.042 437.21L945.507 419.632L936.914 411.136C932.128 406.448 927.246 402.054 925.976 401.175L923.73 399.71L925.878 391.116L928.027 382.62L925.097 376.566C922.949 372.269 921.191 370.023 918.652 368.655C916.796 367.679 914.55 365.53 913.769 363.87C912.499 361.038 912.597 360.452 915.624 353.616C917.48 349.71 918.945 345.902 918.945 345.316C918.945 344.632 917.187 342.386 914.941 340.335C912.402 337.796 908.886 332.23 905.175 324.905L899.316 313.382L901.464 301.761L903.613 290.238L897.363 284.573C890.136 278.03 878.124 265.726 874.218 260.843C872.753 259.085 868.749 252.249 865.234 245.804L858.886 233.89L849.121 230.472L839.355 226.956L838.769 205.57H832.226C828.613 205.57 822.363 205.179 818.359 204.886C811.035 204.105 811.035 204.105 804.003 208.109Z" fill="white"/>
<circle id="767" cx="646" cy="234" fill="#5CE50D"/>
<circle id="912" cx="443" cy="324" fill="#E52A0D"/>
<circle id="1194" cx="204" cy="439" fill="#E52A0D"/>
<circle cx="795" cy="264" fill="#E52A0D"/>
</svg>
