<svg width="1000" height="1000" viewBox="0 0 1000 1000" fill="none" xmlns="http://www.w3.org/2000/svg">
<path d="M375.879 1.66211C375.098 2.54102 371.289 4.68945 367.383 6.54492C360.547 9.66992 360.156 9.66992 357.227 8.20508C355.566 7.32617 351.562 6.25195 348.34 5.86133C343.262 5.08008 341.699 5.27539 337.012 7.22852C332.031 9.18164 331.152 9.2793 327.832 8.20508C323.34 6.64258 316.602 8.20508 307.52 12.7949L301.562 15.7246L299.316 13.6738L296.973 11.5254L288.672 16.0176C284.082 18.459 276.66 22.4629 272.168 24.9043C267.09 27.6387 262.012 31.3496 258.301 35.1582C249.902 43.6543 246.387 45.3145 238.086 44.5332C231.445 43.8496 231.445 43.8496 231.445 46.291C231.445 47.8535 230.664 49.2207 229.297 49.9043C222.461 53.4199 211.914 61.3301 210.84 63.6738C210.254 65.2363 208.984 66.4082 208.105 66.4082C207.227 66.4082 205.273 68.166 203.809 70.3145L201.074 74.2207L197.266 72.2676C192.969 70.1191 185.352 69.7285 179.395 71.3887C175.977 72.2676 175.391 73.0488 170.41 83.1074C165.039 93.752 164.941 93.8496 159.375 96.291C156.348 97.6582 151.465 99.6113 148.535 100.686C145.703 101.662 141.895 103.42 140.137 104.494C138.184 105.666 135.254 106.447 132.617 106.447C129.004 106.447 128.027 106.057 127.246 104.201C126.465 102.541 126.562 101.271 127.637 99.2207L129.102 96.4863L123.828 96.9746C120.996 97.2676 116.992 97.8535 115.039 98.1465C112.793 98.6348 109.766 98.2441 106.738 97.2676C97.8516 94.3379 79.9805 91.6035 72.4609 92.0918C68.5547 92.2871 65.1367 92.6777 64.9414 92.9707C64.6484 93.2637 77.7344 116.896 94.043 145.607C110.352 174.318 125.293 200.686 127.344 204.299C131.25 211.33 131.25 212.502 126.758 217.482C125.195 219.143 125 219.924 125.879 221.486C127.637 224.807 127.148 226.076 123.535 227.834C120.508 229.299 120.117 229.885 120.117 233.4C120.117 235.549 119.727 237.307 119.336 237.307C118.848 237.307 117.773 237.893 116.797 238.576C115.234 239.748 115.234 240.529 116.309 248.537C117.188 255.275 117.188 259.865 116.211 269.436C115.039 281.35 114.941 281.74 111.035 287.014C108.887 289.943 106.152 294.045 104.883 296.193L102.637 300.1L106.055 304.201C109.18 308.01 109.375 308.791 109.375 315.236C109.375 322.072 109.473 322.268 114.258 328.615C116.992 332.131 119.141 335.451 119.141 336.037C119.141 336.525 116.992 336.916 114.258 336.916C109.57 336.916 109.375 337.014 109.375 339.65C109.375 341.311 108.398 343.361 107.031 344.729C105.664 345.9 104.297 348.342 103.906 350.002C102.441 357.326 99.4141 362.307 95.1172 364.846C91.2109 367.092 90.8203 367.775 90.2344 372.17C89.5508 377.541 89.2578 377.736 83.0078 379.982C79.7852 381.057 78.125 382.424 76.7578 384.963C74.8047 388.381 74.8047 388.381 77.0508 393.85C78.9062 398.342 79.7852 399.416 81.543 399.416C83.2031 399.416 84.668 400.686 86.8164 404.006C88.3789 406.643 91.6016 410.744 93.8477 413.283C97.7539 417.873 97.8516 417.971 95.4102 417.971C92.2852 417.971 86.9141 424.904 86.9141 429.006C86.9141 431.35 86.6211 431.74 84.9609 431.35C83.3984 430.959 82.8125 431.545 82.1289 434.182C80.2734 440.822 85.0586 448.439 92.2852 450.295C94.4336 450.783 96.9727 451.564 97.9492 451.857C98.9258 452.053 100.586 454.396 101.66 456.838C105.273 465.236 107.617 467.385 114.941 469.143C118.555 469.924 122.656 470.803 124.023 470.998C126.074 471.193 125.586 471.682 120.605 474.123C117.383 475.783 114.648 477.053 114.453 477.15C114.258 477.248 114.941 480.178 115.918 483.498L117.773 489.748H126.953C135.156 489.748 136.133 489.943 136.719 491.701C137.988 495.021 136.133 497.072 131.934 497.072C128.223 497.072 128.125 497.17 127.539 501.369L126.855 505.666L118.848 506.545C112.402 507.131 110.84 507.619 110.547 509.084C110.254 510.451 110.938 510.744 114.16 510.744C118.848 510.744 119.434 511.525 118.066 515.529C116.797 519.045 116.797 519.045 111.328 517.092C109.082 516.311 107.031 515.627 106.836 515.627C106.738 515.627 106.445 516.994 106.25 518.752C105.957 521.389 104.98 522.365 99.2188 525.979C94.2383 528.908 91.8945 531.057 90.5273 533.791C86.5234 541.994 75.7812 556.643 73.9258 556.643C72.9492 556.643 69.5312 558.205 66.4062 560.158C61.7188 563.088 60.4492 564.455 59.2773 567.873L57.8125 571.975L63.4766 574.709C69.043 577.346 69.1406 577.443 69.7266 582.424C70.0195 585.158 70.3125 589.455 70.3125 591.896C70.3125 596.096 70.6055 596.584 74.3164 599.221C79.7852 603.029 82.2266 608.01 81.8359 614.943L81.543 620.51L89.0625 624.904C93.1641 627.346 96.875 629.689 97.168 630.08C97.5586 630.373 97.2656 632.424 96.6797 634.475C95.6055 637.99 95.7031 638.771 98.0469 643.361C101.367 649.807 103.027 660.646 101.66 666.799C100.781 670.998 100.879 671.584 103.027 673.83C104.688 675.588 105.176 676.955 104.785 678.908C104.492 680.666 104.98 682.424 106.348 684.182C108.008 686.33 108.398 688.088 108.398 694.436V702.15L112.5 704.689C119.434 709.084 127.734 716.799 128.809 719.826C129.59 722.072 130.371 722.658 132.52 722.658C134.375 722.756 136.914 724.221 140.332 727.346L145.508 731.936L139.746 740.822C135.059 747.854 133.105 750.002 129.98 751.467C124.219 754.006 124.707 756.35 131.738 761.623L137.5 765.92L135.84 771.877C133.887 778.518 131.836 780.178 124.219 781.057C119.238 781.643 118.066 783.4 120.898 786.428C121.973 787.6 123.145 790.725 123.535 793.459C123.926 796.096 124.902 799.025 125.684 799.904C126.855 801.369 126.66 801.76 123.633 803.713C119.727 806.057 119.629 806.447 121.484 810.842C122.559 813.381 124.707 814.943 132.227 818.85L141.602 823.732L138.184 826.662C135.059 829.299 134.668 830.275 133.789 836.916C132.91 844.045 132.91 844.338 135.352 846.389C136.816 847.756 139.062 848.635 140.918 848.635C143.848 848.635 144.922 849.611 152.637 859.572L161.035 870.607L161.133 884.67V898.732L164.648 903.029L168.262 907.424L167.578 916.604C167.188 921.682 167.188 925.783 167.676 925.783C168.066 925.881 170.117 927.346 172.168 929.104L175.977 932.229L174.512 935.744C173.145 939.064 173.145 939.357 175.391 941.506C177.637 943.752 177.637 943.947 176.27 949.123C175 954.006 175 954.592 176.66 956.936C179.199 960.549 179.883 965.627 179.688 978.713C179.492 989.553 179.59 990.041 181.641 990.725C182.715 991.115 184.082 992.385 184.57 993.654C185.938 997.268 195.508 997.365 210.449 993.85C229.297 989.455 229.004 989.65 230.957 985.939C231.934 984.182 234.375 981.643 236.523 980.373C239.941 978.225 240.234 977.639 240.234 973.83C240.234 970.217 240.43 969.631 241.992 970.119C243.164 970.51 244.531 970.021 245.605 968.752C246.582 967.678 249.707 966.018 252.637 965.139C256.836 963.771 257.812 963.088 257.812 961.33C257.812 960.158 258.691 956.74 259.863 953.811L261.914 948.439L276.27 943.361C284.082 940.627 291.113 937.6 291.797 936.721C292.383 935.842 292.969 933.303 292.969 930.959C292.969 928.615 293.848 925.002 294.922 922.854C295.996 920.705 296.875 917.873 296.875 916.506C296.875 915.041 297.266 914.064 297.656 914.26C298.145 914.357 300.977 915.822 304.004 917.482C309.082 920.119 309.57 920.705 309.57 923.732V927.053L314.746 926.467L319.824 925.979L324.707 933.205C329.004 939.455 330.078 940.529 333.496 941.213C336.621 941.896 337.695 941.799 338.867 940.529C340.137 939.162 342.773 939.064 360.352 939.455C379.297 939.943 380.566 940.041 383.203 942.092C385.059 943.557 387.305 944.338 389.844 944.338C391.895 944.338 394.922 945.021 396.387 945.803C397.949 946.584 400.977 947.463 403.027 947.853C405.273 948.146 408.496 949.807 410.547 951.564L414.258 954.592L412.598 958.205L410.84 961.721L416.406 968.85C421.582 975.49 421.875 976.271 421.875 981.447C421.875 986.037 422.266 987.307 424.316 989.26C425.977 990.822 426.758 992.58 426.758 994.728C426.758 996.975 427.344 998.342 428.711 999.025C431.055 1000.29 430.664 1001.08 436.133 983.596C439.16 973.537 440.234 971.291 442.09 970.607C443.457 970.119 445.02 968.166 445.898 966.115C446.777 964.064 450.098 956.838 453.32 950.002L459.277 937.502H465.82C470.898 937.502 472.949 937.893 474.902 939.455C477.051 941.213 477.539 941.213 478.223 939.943C479.004 938.674 482.227 938.771 506.348 940.529C543.066 943.068 540.039 942.385 540.039 948.244C540.039 952.639 540.332 953.225 544.629 956.936C547.852 959.67 549.512 960.451 549.902 959.67C550.293 958.986 557.91 938.771 566.797 914.748L583.008 870.9V852.248L583.105 833.498L596.289 818.068L609.57 802.639L617.676 783.889L625.684 765.139L668.066 760.646C708.887 756.252 711.23 755.861 731.445 750.783L752.441 745.51L785.156 749.611L817.871 753.615L847.754 771.975C873.047 787.502 877.93 790.92 879.297 793.752C880.859 796.877 880.859 797.072 879.102 797.561C877.441 797.951 877.441 798.342 879.492 808.205C880.664 813.869 881.934 818.752 882.227 819.045C882.52 819.338 885.645 817.971 889.16 816.018C892.871 813.967 896.973 812.502 898.828 812.502C901.758 812.502 902.148 812.111 902.734 809.377C903.32 806.447 902.832 805.666 894.531 797.365L885.645 788.479L900.977 762.404C911.816 743.752 916.699 736.33 917.969 736.33C921.191 736.33 922.07 726.662 919.043 724.514C917.285 723.244 917.578 722.17 926.074 699.904C934.473 677.834 935.059 676.662 937.695 676.076C941.699 675.295 941.895 674.318 938.477 669.436C936.816 666.994 934.375 662.209 933.008 658.596C931.738 655.08 929.785 650.49 928.711 648.439C926.367 643.85 926.367 643.752 928.223 643.361C929.395 643.166 929.004 641.506 926.27 635.354C923.242 628.42 923.047 627.346 924.316 625.979C925.098 625.1 925.781 624.123 925.781 623.732C925.781 623.439 923.34 621.096 920.312 618.557L914.844 613.869L912.207 616.994L909.668 620.217L907.227 617.678C905.859 616.213 901.562 612.795 897.656 609.963C888.77 603.811 881.543 594.338 879.395 586.232C878.613 583.107 877.93 579.787 877.93 578.811C877.93 577.834 876.953 574.807 875.781 572.072C873.73 567.385 873.73 567.092 875.488 564.26C876.465 562.6 877.832 557.912 878.516 553.811C879.785 546.389 880.371 545.51 885.645 541.994C887.305 540.822 887.891 539.26 888.379 534.963C888.77 530.568 889.355 529.396 890.918 528.908C892.578 528.518 892.676 527.932 892.09 524.709C891.699 522.658 891.211 520.705 891.016 520.314C890.039 518.752 887.207 519.631 884.277 522.365L881.348 525.197L818.066 518.654C783.301 514.943 754.492 511.721 754.199 511.33C753.516 510.744 752.246 478.615 752.051 460.842L751.953 453.322L739.746 438.088C733.008 429.787 727.539 422.658 727.539 422.365C727.539 422.072 733.301 422.17 740.234 422.561L752.93 423.146V412.502C752.93 406.643 753.223 400.295 753.516 398.342C754.004 395.412 753.613 394.338 751.074 391.408C748.242 388.088 748.047 387.502 748.633 382.619C749.121 377.932 749.023 377.248 746.68 375.1C745.312 373.732 744.141 371.975 744.141 371.193C744.141 370.314 742.773 366.604 741.211 362.795C737.598 354.396 737.5 350.588 740.82 344.045L743.457 338.967L741.699 331.252C740.039 324.025 739.648 323.342 736.621 321.877C734.766 320.998 732.52 320.314 731.543 320.314C730.566 320.314 729.004 319.436 727.93 318.264C726.953 317.092 724.316 315.334 722.168 314.26C720.02 313.088 717.188 311.428 715.918 310.451C714.648 309.377 712.793 308.596 711.914 308.596C710.938 308.596 709.473 307.521 708.594 306.154C707.715 304.787 705.957 303.518 704.59 303.127C702.832 302.736 702.148 301.76 701.953 299.514C701.758 296.975 701.172 296.291 699.023 296.096C697.266 295.9 695.996 296.486 695.02 297.854C693.652 299.904 693.262 299.904 688.086 298.732C683.789 297.756 681.152 297.756 676.367 298.635C667.969 300.197 663.574 300.1 659.961 298.244C657.324 296.877 656.055 296.779 652.051 297.756C645.898 299.123 639.355 299.123 637.891 297.658C637.207 296.975 636.719 295.119 636.719 293.459C636.719 291.018 636.133 290.236 633.789 289.357C631.934 288.674 630.469 287.209 629.785 285.451C629.199 283.498 627.441 281.936 624.414 280.471C621.387 278.908 619.629 277.346 618.652 275.002C616.895 270.803 608.008 266.604 600.781 266.604C596.777 266.604 595.703 266.213 595.215 264.748C594.629 262.697 593.652 262.307 587.5 261.232C585.059 260.842 583.594 259.963 583.301 258.791C582.812 257.131 576.758 254.885 572.461 254.885C569.922 254.885 565.723 250.1 564.941 246.291C564.355 243.459 563.965 243.166 560.449 243.166C557.52 243.166 556.348 242.678 555.078 240.725C554.199 239.357 551.855 237.404 549.902 236.232C547.266 234.768 545.898 233.107 544.824 230.178C543.262 225.588 541.699 225.295 535.059 228.127C531.641 229.592 531.348 229.592 525.488 226.662C522.266 225.002 519.531 222.951 519.531 222.17C519.531 220.021 515.82 217.971 505.859 214.748C495.996 211.525 496.875 211.623 476.562 213.771C467.578 214.748 467.188 214.748 465.527 212.697C464.062 210.939 463.574 210.744 462.793 212.014C462.305 212.697 461.914 213.771 461.914 214.26C461.914 214.748 460.84 213.967 459.473 212.502C458.203 211.135 456.543 209.963 455.859 209.963C455.176 209.963 451.758 208.596 448.34 207.033C442.285 204.104 442.188 204.006 442.676 200.783C443.359 196.291 440.137 193.166 433.789 192.385L429.199 191.896L428.906 187.697C428.613 183.791 427.539 182.521 426.27 184.572C425.293 186.135 423.828 185.646 423.828 183.791C423.828 182.326 423.242 182.131 420.215 182.424C416.504 182.912 416.504 182.912 418.359 180.861C420.117 178.811 420.117 178.713 417.48 177.736C415.918 177.15 412.695 176.369 410.254 176.076C405.176 175.393 404.199 174.514 404.883 170.9C405.176 169.533 404.688 167.092 403.906 165.529C403.027 163.869 402.344 161.721 402.344 160.646C402.246 155.861 401.27 154.299 398.047 154.299C396.387 154.299 394.336 154.787 393.555 155.275C392.578 155.861 391.602 155.666 390.43 154.592C388.281 152.736 388.281 151.174 390.039 147.658C392.871 141.994 392.871 141.115 389.258 139.162C384.863 136.818 382.52 129.787 382.91 120.412C383.105 116.506 382.715 112.893 382.031 111.623C380.469 108.693 380.469 108.693 383.789 106.936C386.621 105.471 386.719 105.178 386.719 98.8301C386.621 94.6309 386.133 91.6035 385.254 90.4316C384.277 89.1621 383.789 86.1348 383.789 81.4473C383.789 74.8066 383.594 74.2207 381.055 72.3652C378.418 70.5098 378.223 70.1191 379.004 65.7246C379.395 63.1855 379.785 59.2793 379.785 57.1309C379.883 54.4941 381.055 50.8809 383.301 46.877C387.109 39.748 387.695 33.8887 385.254 28.0293C383.398 23.5371 383.398 17.6777 385.254 15.2363C386.035 14.1621 386.719 12.7949 386.719 12.1113C386.719 10.7441 378.906 0.00195312 377.93 0.00195312C377.539 0.00195312 376.562 0.685547 375.879 1.66211Z" fill="white"/>
<circle id="87" cx="196" cy="502" fill="#5CE50D"/>
<circle id="858" cx="361" cy="679" fill="#5CE50D"/>
<circle id="88" cx="281" cy="552" fill="#E52A0D"/>
<circle id="85" cx="510" cy="579" fill="#E52A0D"/>
<circle id="1595" cx="409" cy="888" fill="#E52A0D"/>
</svg>
