<svg width="1000" height="1000" viewBox="0 0 1000 1000" fill="none" xmlns="http://www.w3.org/2000/svg">
<path d="M317.703 29.6773C313.993 30.9468 306.766 33.9742 301.883 36.4156C295.047 39.9312 291.727 41.0054 288.407 41.0054C285.575 41.0054 282.547 41.7867 280.203 43.1539C277.078 44.9117 276.297 46.0836 275.614 49.5015L274.735 53.7984L269.168 50.2828C263.993 46.9625 262.918 46.6695 255.496 46.5718C251.004 46.4742 246.61 46.7672 245.731 47.1578C244.461 47.8414 243.778 47.2554 242.508 45.0093L240.946 41.982H223.172L239.579 53.7008L239.188 61.5133C238.895 68.8375 239.09 69.7164 241.532 73.232C243.778 76.357 244.071 77.6265 243.485 80.8492C242.801 85.1461 242.411 84.9508 254.227 86.4156C256.961 86.8062 259.696 87.1968 260.379 87.3922C262.235 88.0758 253.543 95.4976 249.246 97.0601C246.414 98.0367 245.34 99.0133 244.95 100.966C244.657 102.334 243.192 105.068 241.629 107.021L238.895 110.537L236.454 108.193L234.012 105.947L231.082 109.56C229.52 111.611 225.614 114.638 222.489 116.298C218.582 118.349 215.75 120.888 213.114 124.502C209.11 129.97 207.84 130.361 207.84 126.357C207.84 123.33 207.45 123.427 199.539 126.943C192.118 130.263 193.387 130.654 184.012 122.353C178.934 117.763 177.664 117.177 173.954 117.177H169.754V111.709C169.754 106.728 169.364 105.752 165.262 100.478C160.282 93.9351 160.672 93.9351 151.883 100.38L147.098 103.798L143.582 101.943C141.629 100.966 139.676 99.9898 139.286 99.7945C138.797 99.5992 138.504 100.283 138.504 101.357C138.504 104.091 130.985 104.873 114.383 103.994L101.395 103.31L99.4418 107.802C98.4652 110.244 97.2933 114.541 96.9027 117.177L96.2191 122.06L100.516 122.158C102.86 122.158 106.766 122.939 109.207 123.818C112.918 125.283 113.7 126.064 114.383 129.189C114.871 131.24 115.067 133.193 114.774 133.486C114.481 133.779 112.723 133.095 110.965 132.021L107.743 130.068L100.711 133.291L93.5824 136.611V155.361L99.3441 160.634C104.422 165.42 105.399 166.982 108.231 174.892L111.453 183.779L109.305 189.834C107.547 194.619 106.961 199.502 106.082 214.345L105.106 232.9L100.418 245.107C97.2933 253.31 95.2426 257.216 94.3637 257.021C93.6801 256.826 90.7504 256.435 87.8207 256.142C83.7191 255.654 82.2543 255.849 81.473 257.021C79.9105 259.17 70.6332 263.662 67.8012 263.662C60.4769 263.662 42.9965 269.326 38.8949 273.037C37.5277 274.209 33.3285 277.236 29.4223 279.677C21.9027 284.462 20.9262 286.513 21.4144 294.912C21.6098 297.255 20.8285 299.599 18.973 302.431L16.2387 306.533L19.559 317.861L17.2152 319.228C16.0433 320.009 12.9183 322.841 10.3793 325.38C6.766 328.896 5.69178 330.752 5.69178 333.095C5.69178 335.244 6.18006 336.22 7.64491 336.611C10.2816 337.294 10.0863 338.173 6.86366 339.638C0.320688 342.47 -2.80431 349.111 1.98084 349.794C3.641 349.99 4.32459 350.966 4.71522 353.505C5.39881 357.705 18.2894 377.236 23.0746 381.435L26.5902 384.462L23.9535 388.955C22.4887 391.396 21.3168 393.642 21.3168 393.935C21.3168 394.228 24.3441 394.521 28.0551 394.521C31.766 394.521 37.0394 395.009 39.7738 395.693C44.266 396.669 44.7543 397.06 44.7543 399.404C44.7543 400.869 45.4379 402.724 46.3168 403.408C47.1957 404.091 48.2699 405.654 48.6605 406.826C49.5394 409.072 53.641 410.146 61.8441 410.146C66.434 410.048 67.3129 409.658 76.9808 402.334C82.5472 398.037 87.723 394.521 88.309 394.521C88.8949 394.521 89.9691 395.205 90.6527 395.986C91.6293 397.158 91.434 398.427 89.6762 402.724C87.6254 407.607 87.5277 408.486 88.6019 415.419C89.1879 419.521 89.6762 424.892 89.6762 427.236C89.6762 431.044 90.0668 431.728 92.6058 433.095C96.5121 435.146 98.4652 434.951 102.567 432.119C105.985 429.775 106.864 429.677 119.657 429.677C127.078 429.677 134.5 430.068 136.063 430.459C140.75 431.826 146.805 429.775 149.735 425.869C151.102 423.818 153.934 421.767 156.375 420.888C158.621 420.009 163.309 417.275 166.727 414.736C170.145 412.197 173.954 410.146 175.223 410.146C176.59 410.146 178.153 409.169 179.227 407.607C181.473 404.091 187.332 400.576 195.438 397.841C200.809 395.986 204.422 395.498 211.844 395.498C222.879 395.498 223.27 395.888 220.926 404.58C219.071 411.416 219.168 417.959 221.121 420.791C222.293 422.451 222.586 424.209 222.098 427.431C221.805 429.873 221.903 433.486 222.489 435.439C222.977 437.392 223.661 440.127 223.954 441.591C224.344 443.642 225.418 444.521 229.227 445.791C232.45 446.865 234.891 448.525 236.649 450.771C238.309 452.919 239.969 454.091 241.532 454.091C243.485 454.091 243.973 454.775 244.559 457.509C245.145 460.537 245.438 460.927 249.539 461.513C251.981 461.904 256.961 461.904 260.672 461.611C265.848 461.22 267.508 461.416 268.485 462.49C270.731 465.224 275.125 466.884 277.078 465.908C278.446 465.127 279.422 465.517 281.571 467.763C283.133 469.423 285.086 470.693 285.965 470.693C286.844 470.693 288.993 471.767 290.848 473.134C293.289 474.892 295.34 475.576 298.856 475.576C303.055 475.576 303.543 475.869 304.129 478.017C304.422 479.384 306.082 481.533 307.84 482.802C310.477 484.755 312.43 485.146 322.098 485.732C336.356 486.513 337.918 486.806 342.118 490.615C344.95 493.056 345.633 494.619 346.317 499.013C346.903 502.919 348.27 506.142 351.2 510.439C353.934 514.541 355.301 517.568 355.301 519.716C355.301 522.939 355.301 522.939 350.907 522.646C346.903 522.255 346.512 522.451 345.926 524.892C345.438 526.845 345.926 528.212 348.172 531.044C350.321 533.681 351.2 536.123 351.59 540.029C351.981 542.959 352.957 547.255 353.836 549.502L355.496 553.701L370.828 553.798C379.227 553.896 388.7 553.798 392.02 553.701C399.051 553.505 400.125 554.677 397.782 560.244C396.903 562.197 396.317 566.689 396.317 570.693V577.627L403.446 582.216C407.254 584.755 411.649 587.294 413.211 587.978C416.922 589.638 418.094 594.716 417.996 608.095V619.13L414.09 623.72C410.379 628.212 406.082 639.15 406.082 644.228C406.082 647.646 410.086 661.611 412.039 664.638C414.383 668.447 414.481 674.892 412.235 683.095C410.868 688.369 410.77 689.736 411.844 691.689C412.821 693.447 412.821 694.619 412.039 696.084C410.184 699.502 410.77 699.99 417.703 701.162C423.465 702.236 425.028 702.236 429.032 700.771C433.426 699.306 433.914 699.306 435.477 700.771C437.137 702.236 437.43 702.236 439.871 700.283C442.508 698.134 444.168 698.33 444.168 700.771C444.168 701.748 445.536 702.138 449.637 702.138C454.325 702.138 455.692 702.627 458.914 705.166C461.063 706.826 463.211 709.169 463.895 710.244C465.946 714.052 468.582 725.966 469.168 734.169C469.852 741.787 470.047 742.373 472.684 743.74C475.125 745.009 476.2 745.009 483.231 743.349L491.141 741.494L492.899 743.74C497.782 749.99 497.586 759.755 492.118 774.111C489.188 781.923 489.188 782.216 491.043 783.193C492.02 783.681 494.168 784.169 495.731 784.169C497.293 784.169 500.614 785.048 502.957 786.123C509.305 788.955 510.575 792.763 510.477 809.072C510.477 821.669 510.477 821.767 507.84 823.818C506.375 824.892 502.567 826.845 499.344 828.115C495.828 829.482 491.043 832.607 487.235 835.83C483.914 838.857 478.641 843.349 475.516 845.791C463.993 855.263 453.25 866.591 451.981 870.595C451.297 872.744 448.563 877.041 446.024 880.166C443.387 883.291 440.555 887.197 439.578 888.759C438.602 890.322 437.039 891.884 435.868 892.177C434.793 892.568 432.352 894.033 430.399 895.595C427.469 897.841 426.981 898.818 427.371 901.259C427.664 903.603 428.348 904.287 430.789 904.873C433.328 905.361 434.11 905.068 436.063 902.724C438.895 899.111 443.68 899.306 446.61 903.115C447.684 904.58 451.297 908.486 454.618 911.904C458.036 915.224 460.77 918.837 460.77 919.814C460.77 920.791 461.551 922.255 462.625 923.232C464.188 924.697 464.481 924.697 465.653 923.33C466.336 922.451 467.801 921.279 468.875 920.693C470.633 919.814 471.61 920.498 476.883 926.162C481.864 931.533 483.426 932.607 486.063 932.607C488.7 932.607 490.36 933.779 496.512 940.224C500.516 944.326 504.032 948.037 504.422 948.427C504.911 948.818 509.305 953.115 514.383 957.998C522.391 965.712 530.887 971.669 533.914 971.669C534.403 971.669 535.868 970.009 537.039 967.959C538.211 966.005 543.289 960.146 548.172 955.068C553.153 949.99 558.621 943.544 560.379 940.908C562.235 938.173 566.727 932.314 570.536 927.724C581.668 914.443 582.938 912.49 584.5 906.63C586.356 899.404 592.313 891.103 602.469 881.337C611.063 873.134 622.879 859.072 622.879 857.119C622.879 856.435 624.442 852.724 626.297 848.818C629.52 842.08 629.618 841.494 628.25 838.857C627.469 837.294 626.786 834.365 626.786 832.412C626.786 830.361 626.102 826.552 625.223 823.818C623.661 818.837 623.758 818.74 627.274 807.119C632.547 789.736 635.282 785.244 644.266 778.896C648.368 775.966 655.008 770.4 659.012 766.396C668.387 757.216 674.051 753.603 684.012 750.283L692.02 747.744L698.075 750.283C701.395 751.748 704.52 752.919 705.008 752.919C705.496 752.919 706.766 751.552 707.743 749.892C709.207 747.548 709.403 746.181 708.719 744.326C708.231 742.959 707.938 741.689 708.231 741.494C708.426 741.201 711.746 740.029 715.555 738.857C722.391 736.709 722.489 736.611 720.536 734.853C717.899 732.412 718.875 731.435 724.149 731.435C727.274 731.435 729.032 731.923 729.911 733.095C731.082 734.755 731.571 734.462 736.063 729.97L741.043 725.185V732.216L756.961 732.802C765.653 733.193 775.614 733.584 779.129 733.681L785.477 733.877L786.453 727.919C787.723 720.302 789.969 717.666 797.684 714.931C806.18 711.904 810.379 707.314 810.379 701.064C810.379 697.353 810.868 696.181 813.7 693.447C815.848 691.396 817.215 688.955 817.606 686.513C818.094 683.388 819.266 681.923 825.907 676.65C832.84 670.986 833.817 669.912 835.282 664.834C836.649 660.439 837.625 658.974 840.262 657.607C842.997 656.142 844.168 654.287 847.391 646.474C850.125 640.029 851.395 635.244 851.688 630.849C852.469 619.521 855.106 612.392 860.282 607.314L864.872 602.822L866.434 589.736C867.313 581.826 869.168 572.548 871.024 566.396C873.856 557.119 874.247 554.482 874.832 538.076C875.418 522.744 876.004 517.959 878.641 506.337C880.399 498.818 882.84 490.224 884.012 487.294L886.161 481.923L891.629 481.435L897.196 480.947L903.348 472.646C909.793 464.15 917.606 451.552 922 442.763C923.465 439.931 926.688 435.927 929.813 433.291C932.84 430.752 936.844 426.552 938.7 423.916C941.727 419.912 943.094 418.935 947.196 417.861C951.493 416.689 952.86 415.615 959.598 407.998C979.52 385.146 982.352 381.337 988.309 369.619C999.735 347.158 1001.39 340.029 997.391 330.166C996.024 326.65 994.95 321.962 994.95 319.716C994.95 312.197 992.801 300.38 990.848 296.962C989.872 295.107 988.7 290.81 988.407 287.294C987.821 281.142 987.625 280.752 982.059 275.185L976.395 269.521H965.946C942.411 269.423 924.051 260.439 911.258 242.47C907.547 237.197 905.692 235.634 899.832 232.802C895.34 230.459 890.555 226.943 886.063 222.548C879.715 216.396 878.543 215.615 869.168 212.392C859.207 208.974 858.524 208.877 837.918 207.998C825.223 207.509 814.383 206.533 810.868 205.654C807.645 204.873 802.664 204.189 799.832 204.091C795.926 204.091 792.996 203.212 787.723 200.576C783.914 198.623 777.86 196.474 774.246 195.693C770.536 195.009 767.02 194.13 766.239 193.837C765.457 193.545 763.993 194.521 762.723 196.279C760.868 198.72 759.891 199.209 756.278 199.209C752.371 199.209 751.688 199.599 748.368 203.701L744.657 208.193L743.387 205.947C742.215 203.798 742.508 203.31 746.024 199.697C748.075 197.451 749.832 195.009 749.832 194.228C749.832 193.447 747.879 191.298 745.536 189.541C741.922 186.806 741.043 185.537 740.36 181.728C739.676 177.92 738.993 176.943 736.161 175.576C733.914 174.404 731.473 174.013 729.129 174.306C726.004 174.697 724.539 174.209 719.168 170.498C715.75 168.154 711.258 165.712 709.11 165.029C707.059 164.345 700.125 161.416 693.68 158.388L681.961 152.92L655.985 152.138L653.055 154.873C651.395 156.435 648.075 160.732 645.536 164.443C640.653 171.572 635.965 174.795 630.692 174.795H627.762L635.086 164.638C644.168 152.236 645.145 149.306 642.118 144.814C639.578 141.005 636.356 139.736 627.762 138.955C620.34 138.369 611.453 133.779 610.965 130.459C610.672 128.701 609.891 128.408 605.106 128.115C599.93 127.822 599.539 127.627 598.075 124.599C595.926 120.009 596.121 118.154 598.758 118.154C602.86 118.154 603.446 117.08 602.371 111.22C601.688 107.509 601.688 104.189 602.371 100.576C603.348 95.3023 603.348 95.107 600.711 93.0562C599.149 91.7867 596.61 90.8101 594.95 90.8101C592.118 90.8101 591.825 90.5172 591.336 87.0992C590.946 85.0484 590.067 82.607 589.286 81.5328C588.016 79.775 587.821 79.775 585.282 81.4351C583.817 82.4117 582.45 82.9976 582.254 82.7047C581.961 82.5093 581.375 79.5797 580.789 76.2593C580.203 72.6461 578.641 68.3492 576.981 65.5172C574.735 61.9039 574.051 59.6578 574.051 55.5562C573.953 41.5914 568.387 30.2633 561.649 30.2633C559.012 30.2633 557.254 31.2398 553.348 34.8531C547.196 40.7125 536.649 60.9273 535.477 69.1304C534.891 73.4273 534.11 74.8922 530.887 77.9195L527.078 81.5328L516.239 80.6539C508.524 79.9703 503.934 80.0679 499.93 80.8492C496.805 81.5328 491.825 82.0211 488.7 82.0211C483.719 82.0211 482.45 81.6304 478.25 78.6031L473.563 75.0875L467.02 76.2593C463.407 76.8453 457.84 77.1383 454.618 76.7476C449.93 76.2593 448.368 76.4547 446.903 77.8218C444.754 79.775 444.657 84.0718 446.707 88.0758C448.953 92.3726 447.489 92.9586 434.793 92.4703C426.004 92.275 423.368 91.7867 420.536 90.1265L417.02 88.0758L411.356 92.7633C406.668 96.5718 402.86 98.4273 391.922 102.431C375.614 108.388 372.489 108.584 365.653 104.189C362.918 102.334 359.305 100.087 357.547 99.1109C354.129 97.1578 353.348 95.3023 353.348 88.857C353.348 86.4156 352.664 82.0211 351.883 79.0914C351.102 76.1617 350.516 71.4742 350.614 68.7398C350.711 64.9312 350.223 62.9781 348.661 60.732L346.512 57.8023L351.395 53.7008C356.082 49.6968 356.278 49.5015 356.278 44.4234C356.278 39.5406 356.082 39.0523 352.469 36.2203C349.539 33.8765 347.684 33.1929 344.559 33.1929C341.336 33.1929 339.676 32.5093 337.039 30.2633C332.938 26.65 327.762 26.4547 317.703 29.6773Z" fill="white"/>
<circle id="99" cx="646" cy="500" fill="#5CE50D"/>
<circle id="1597" cx="626" cy="182" fill="#E52A0D"/>
<circle id="1596" cx="889" cy="470" fill="#E52A0D"/>
<circle id="98" cx="736" cy="730" fill="#E52A0D"/>
</svg>
