<svg width="1000" height="1000" viewBox="0 0 1000 1000" fill="none" xmlns="http://www.w3.org/2000/svg">
<path d="M308.301 246.992C307.227 248.848 305.664 250.41 304.785 250.41C303.32 250.41 303.125 251.094 303.516 254.707C304.004 258.516 303.809 259.102 300.977 261.055C298.633 262.812 297.656 263.008 295.996 262.129C293.848 260.957 292.09 261.543 292.09 263.496C292.09 264.18 291.504 265.449 290.82 266.426C289.551 268.086 289.355 268.086 286.426 266.621C282.031 264.375 277.734 264.668 274.414 267.402C271.875 269.551 270.898 269.746 263.672 269.355C255.664 269.062 251.074 270.43 251.074 273.262C251.074 273.945 249.707 276.973 248.145 279.902C246.191 283.516 244.434 285.566 242.773 285.957C241.504 286.25 239.16 288.398 237.695 290.742C235.352 294.062 234.277 294.844 231.934 294.746C230.371 294.746 228.418 294.355 227.441 293.965C226.27 293.379 225.684 293.867 225.195 296.113C224.902 297.676 223.242 300.215 221.68 301.777C220.02 303.34 217.871 306.172 216.895 308.125C215.82 310.078 214.355 311.934 213.477 312.227C211.914 312.91 211.426 315.449 212.891 316.035C213.281 316.133 213.965 317.207 214.355 318.281C214.746 319.746 214.16 320.625 212.012 321.895C209.57 323.262 209.18 324.043 209.668 326.094C210.645 330 209.277 335.176 207.129 335.859C205.957 336.25 205.176 337.324 205.176 338.594C205.176 341.328 204.395 342.402 200.781 344.16C198.535 345.332 197.949 346.309 198.145 348.262C198.34 350.117 197.949 350.898 196.484 351.289C194.336 351.777 192.48 355.488 192.48 359.297C192.48 361.055 191.797 361.836 190.137 362.324C188.77 362.617 187.305 364.082 186.621 365.645C185.84 367.598 184.473 368.672 182.422 369.16C180.664 369.453 178.516 370.527 177.441 371.406C176.367 372.383 173.73 373.066 170.215 373.164C165.039 373.262 164.551 373.457 162.5 376.777C161.23 378.633 159.473 380.684 158.398 381.172C157.422 381.758 156.055 383.516 155.371 385.176C154.59 386.934 152.441 389.18 149.902 390.645C147.559 392.012 145.605 393.77 145.605 394.551C145.605 395.332 144.922 395.918 144.141 395.918C141.504 395.918 140.332 400.801 142.09 404.512C142.969 406.27 143.652 408.516 143.652 409.395C143.652 411.738 140.723 414.863 137.109 416.328C134.082 417.598 129.59 425.117 128.418 430.879C128.027 432.93 126.562 434.688 123.926 436.445C121.875 437.812 118.555 441.426 116.602 444.551C114.648 447.578 112.988 450.312 112.793 450.41C112.695 450.605 110.449 450.312 108.008 449.824C104.102 448.945 102.637 449.141 97.4609 451.191C90.625 453.828 87.5976 456.367 84.9609 461.543C83.4961 464.375 82.4218 465.254 80.664 465.254C78.9062 465.254 77.6367 466.23 76.2695 468.379C75.1953 470.234 74.8046 471.797 75.2929 472.09C75.7812 472.383 74.3164 474.629 71.875 476.973C67.1875 481.562 66.0156 486.25 68.9453 488.691C70.9961 490.352 70.8007 491.133 67.3828 495.039C65.332 497.383 64.4531 499.141 64.8437 500.508C65.1367 501.582 64.5507 503.926 63.5742 505.586C62.1093 508.027 61.914 509.492 62.5 512.324C63.1836 515.449 63.0859 516.133 61.4257 517.207C59.4726 518.477 59.5703 518.672 63.3789 523.066C67.3828 527.754 69.0429 532.148 68.0664 535.371C67.3828 537.422 69.6289 539.863 73.1445 540.84C74.9023 541.426 75.2929 542.305 75.2929 545.332C75.2929 548.359 74.9023 549.238 73.1445 549.727C71.875 550.117 69.6289 551.582 68.164 552.949L65.4296 555.586L63.1836 552.656C61.914 550.996 60.0586 548.652 58.9843 547.383L57.0312 545.039L52.539 548.164C50 549.922 47.9492 551.875 47.9492 552.656C47.9492 553.438 47.4609 556.27 46.875 559.004C45.9961 563.301 45.3125 564.18 42.0898 565.84C39.9414 566.914 36.6211 567.793 34.5703 567.793C32.5195 567.793 29.1015 568.281 26.9531 568.867C22.3632 570.137 16.4062 574.336 17.2851 575.703C17.5781 576.289 17.0898 580.879 16.1132 585.957L14.3554 595.137H11.0351C9.17965 595.137 6.44528 596.016 4.88278 597.188C2.63668 598.75 2.05075 599.922 2.05075 602.949C2.05075 605 1.56246 607.051 0.878871 607.441C-0.781285 608.516 7.71481 611.641 12.4023 611.641C15.4297 611.738 17.2851 612.52 20.2148 615.059C22.6562 617.109 26.1718 618.965 29.3945 619.746L34.5703 621.016L36.4257 627.754C37.9882 633.613 38.0859 635.664 37.207 644.16C35.8398 658.223 35.9375 673.262 37.5 673.262C38.0859 673.262 41.2109 670.137 44.3359 666.426L50.0976 659.59L58.8867 666.816L58.3007 672.773L57.7148 678.633L62.9882 681.465L68.164 684.297L73.5351 681.172C79.8828 677.559 80.7617 677.461 81.6406 680.098C82.0312 681.367 83.4961 682.344 85.1562 682.734C87.9882 683.223 88.0859 683.418 87.4023 687.52L86.8164 691.816L90.332 690.352C93.457 689.082 94.2382 688.984 97.2656 690.254C100.293 691.523 100.684 692.109 100.684 695.43C100.684 697.48 101.367 700.02 102.148 700.996C102.93 702.07 103.613 704.219 103.613 705.684C103.613 707.246 104.199 709.688 104.98 711.25C106.445 713.984 113.77 721.113 115.137 721.113C115.625 721.113 118.066 720.43 120.605 719.551C124.316 718.281 126.074 718.184 128.613 718.965C131.055 719.648 133.203 719.648 136.914 718.672C139.746 717.891 143.945 717.598 147.07 717.891C151.367 718.379 152.539 718.184 153.027 716.914C153.32 716.035 157.031 713.301 161.23 710.859C167.48 707.148 169.238 706.562 170.703 707.441C172.07 708.32 173.73 708.125 177.832 706.66C187.109 703.438 188.574 703.438 188.574 706.855C188.574 709.688 190.234 710.371 198.34 710.762C205.371 711.152 208.105 713.008 208.105 717.793C208.105 722.48 211.23 724.336 216.406 722.969C218.555 722.383 220.703 721.504 221.191 721.016C221.777 720.527 225.977 720.137 230.664 720.137C238.574 720.137 239.258 720.332 240.723 722.578C242.48 725.215 248.926 728.926 251.855 728.926C252.832 728.926 254.199 729.512 254.785 730.098C255.469 730.781 258.203 731.367 260.937 731.465C266.602 731.562 268.066 732.637 267.187 735.957C266.602 738.203 262.598 741.426 260.352 741.426C259.082 741.523 257.422 747.773 258.203 749.727C258.594 750.898 259.668 751.094 262.109 750.703C264.062 750.41 265.723 750.605 266.113 751.289C267.187 752.949 270.312 750.898 272.07 747.48C273.34 744.941 273.926 744.648 275.586 745.527C276.66 746.113 278.32 746.309 279.395 746.016C280.371 745.723 281.445 745.918 281.836 746.504C282.129 746.992 283.301 747.48 284.375 747.48C285.449 747.48 286.621 748.457 287.109 749.629C287.891 751.582 288.086 751.68 288.672 750.215C289.355 748.457 295.605 746.211 297.168 747.188C297.754 747.48 297.949 748.555 297.656 749.531C297.363 750.801 298.242 752.461 300.098 754.414L303.125 757.344L308.691 755.293L314.355 753.145L321.875 755.293C329.492 757.441 331.348 757.344 329.297 755C327.734 753.047 329.395 745.918 331.25 746.406C340.332 748.945 343.75 749.434 353.711 749.434C361.23 749.434 366.211 748.945 368.359 748.066C370.508 747.188 374.023 746.895 379.395 747.188C387.695 747.676 389.844 747.09 424.512 734.297L428.418 732.832L427.441 727.07C426.269 720.039 428.027 715.254 434.082 708.711C437.5 704.805 438.281 704.512 442.676 704.512C445.312 704.512 450.293 705.293 453.711 706.172L459.961 707.832L466.797 703.242C472.07 699.727 473.73 698.066 473.73 696.406C473.73 691.914 475.586 690.938 485.449 690.352L494.727 689.668L513.672 703.926C526.269 713.398 533.984 718.574 536.621 719.258C556.445 724.434 558.008 724.922 560.644 728.047C563.086 731.074 563.281 731.074 566.797 730C570.215 728.828 570.703 728.926 574.512 731.758C579.102 735.176 581.543 735.469 586.719 733.32C591.699 731.172 652.539 726.582 653.613 728.242C654.102 729.023 655.664 728.926 659.57 727.559C664.648 725.801 664.941 725.801 674.023 727.852L683.203 729.902L697.266 715.449L702.051 717.207C705.957 718.672 709.473 718.965 723.34 718.965C741.504 718.965 746.484 719.844 752.051 724.141C757.227 728.145 767.285 728.926 774.316 725.801C778.613 723.848 780.176 722.383 784.082 716.426L788.769 709.395L796.191 715.059C801.074 718.867 805.469 721.309 809.473 722.48C815.332 724.336 815.43 724.336 830.176 721.699C841.504 719.746 845.703 718.574 848.535 716.719C852.832 713.789 853.125 713.789 861.816 716.328C872.559 719.551 878.32 718.086 898.047 707.246L913.672 698.652L918.457 690.449C923.242 682.344 923.34 682.246 928.223 681.27L933.203 680.293L943.164 686.055C948.73 689.277 955.273 693.965 957.91 696.602C962.305 700.996 962.988 701.289 969.336 701.973C978.418 702.949 982.227 702.754 984.766 701.094C985.938 700.41 988.77 699.336 991.113 698.652C994.824 697.676 995.215 697.285 995.215 694.648C995.215 692.793 996.191 690.449 997.656 688.691C1000 685.957 1000.1 685.176 1000.1 673.75C1000.1 662.617 999.902 661.543 998.145 660.566C996.777 659.785 996.191 658.516 996.191 655.879C996.191 651.973 994.141 648.75 990.625 646.992C988.867 646.113 988.574 645.332 988.965 642.988C989.746 639.375 985.938 635.566 980.566 634.688C976.855 634.102 976.758 633.906 975.684 628.535C975 625.508 973.926 621.504 973.145 619.746C971.387 615.645 971.387 612.812 973.242 612.129C975.488 611.25 976.074 605.488 974.316 600.41L972.754 595.918L976.172 592.5C978.027 590.645 979.59 588.398 979.59 587.617C979.59 586.836 980.469 584.98 981.445 583.516C984.668 579.121 984.863 576.387 982.324 572.676C980.762 570.43 979.102 569.16 977.344 568.965C975 568.672 974.707 568.281 975.293 566.523C975.684 565.352 976.465 564.082 977.051 563.691C979.297 562.227 984.766 561.641 986.523 562.812C989.16 564.375 998.047 564.18 998.73 562.52C1000 559.199 993.164 552.168 988.574 552.168C987.012 552.168 980.566 543.184 980.566 541.035C980.566 539.961 979.395 537.812 977.93 536.348L975.195 533.516L977.344 527.852L979.395 522.09L977.051 519.355C975.781 517.793 974.805 515.156 974.707 513.594C974.707 511.543 973.828 509.98 971.68 508.223C969.434 506.367 968.555 504.707 968.164 501.387C967.871 498.945 967.188 496.211 966.699 495.234C965.43 492.695 962.109 493.184 959.18 496.406C957.031 498.652 955.469 499.336 950.391 499.922C944.824 500.508 944.141 500.41 942.285 498.457C940.527 496.602 939.551 496.406 935.84 496.895C933.105 497.285 930.957 497.09 930.078 496.406C929.102 495.527 928.125 495.527 926.367 496.309C924.316 497.285 923.828 497.09 922.852 495.43C922.266 494.355 921.289 493.672 920.508 493.867C919.824 494.16 918.75 493.867 918.066 493.281C917.188 492.402 916.406 492.793 914.648 494.941C912.988 496.992 911.719 497.676 909.668 497.48C904.004 497.09 899.121 497.48 898.145 498.457C896.68 499.922 893.652 499.629 893.066 498.066C892.383 496.211 889.746 495.234 888.379 496.309C883.789 499.922 875.098 499.238 877.051 495.43C878.418 492.891 878.223 491.621 876.367 490.938C875.391 490.547 873.926 489.375 872.949 488.301C871.484 486.348 871.289 486.348 869.531 488.008C868.457 488.887 867.188 489.668 866.699 489.668C866.113 489.668 864.258 490.742 862.402 492.109C858.691 494.844 856.543 494.062 856.543 489.961C856.543 488.398 855.566 487.031 853.223 485.664C850.977 484.395 849.414 482.344 848.242 479.414C847.168 476.484 845.996 475.02 844.922 475.02C842.773 475.02 838.965 471.016 838.965 468.77C838.965 467.793 837.891 465.742 836.523 464.082C833.594 460.664 833.496 459.688 836.035 456.465C838.574 453.242 838.477 452.656 835.449 449.531C833.203 447.09 832.91 446.309 833.496 442.402C833.984 439.18 834.961 437.324 837.109 435.469C838.77 434.102 840.43 433.027 840.82 433.027C841.211 433.027 842.285 431.465 843.164 429.609C844.141 427.656 845.508 426.191 846.484 426.191C850.781 426.094 853.613 419.648 853.613 409.688C853.613 407.734 854.297 405.195 855.078 403.926C856.445 402.07 856.445 401.582 855.078 398.945C854.297 397.285 853.613 394.941 853.613 393.672C853.613 389.375 850.977 384.688 847.363 382.734C844.922 381.367 843.652 381.172 842.676 381.953C841.992 382.539 839.551 383.32 837.305 383.711L833.301 384.297L831.25 378.828C828.613 371.895 828.711 371.309 831.738 372.09C833.691 372.578 834.277 372.285 834.766 370.625C835.352 368.379 837.012 367.988 838.77 369.746C839.551 370.527 840.234 370.527 841.309 369.648C842.09 368.965 843.262 368.672 843.848 369.062C844.336 369.355 845.801 369.355 846.875 369.062C849.609 368.184 848.73 364.766 844.141 358.516C840.43 353.535 839.258 353.145 832.52 355.391C830.859 355.879 830.078 355.391 828.418 352.559C827.246 350.605 825.781 349.043 825.098 349.043C824.414 349.043 821.191 347.676 817.969 346.113C814.746 344.551 811.621 343.184 811.035 343.184C808.789 343.184 807.52 340.547 808.789 338.496C810.449 335.859 809.082 331.66 806.25 330.293C804.883 329.707 803.809 328.633 803.809 327.949C803.809 327.363 803.223 326.582 802.441 326.289C801.66 325.996 800.879 324.824 800.684 323.652C800.488 322.09 798.828 320.918 794.727 319.258C791.602 317.988 788.379 317.207 787.598 317.5C786.816 317.793 785.449 317.402 784.473 316.523C783.594 315.742 780.566 314.277 777.734 313.398C775 312.52 771.777 310.664 770.508 309.395C769.336 308.125 767.773 307.051 767.187 307.051C766.504 307.051 763.867 306.172 761.328 305C757.617 303.34 755.664 303.145 751.074 303.633C745.898 304.219 745.312 304.121 743.555 301.777C741.894 299.727 741.309 299.531 740.43 300.605C739.746 301.387 738.184 302.266 736.914 302.559C734.766 303.145 734.473 303.73 734.473 307.539C734.473 310.957 733.887 312.52 731.641 315.156C729.687 317.305 728.613 319.648 728.418 322.188C728.027 327.07 724.707 328.73 720.215 326.289C713.477 322.578 712.988 322.578 710.254 324.727C708.008 326.387 706.836 326.68 702.246 326.094C699.316 325.801 694.824 325.02 692.285 324.434C688.184 323.457 687.402 323.555 685.742 325.02C683.398 327.168 680.762 326.484 680.762 323.75C680.762 322.48 679.883 321.699 677.832 321.211C676.172 320.82 674.414 319.746 673.926 318.77C673.144 317.305 672.266 317.012 669.238 317.5C663.867 318.379 661.23 319.551 661.23 321.113C661.23 322.871 657.617 323.848 656.934 322.188C656.641 321.406 655.469 320.723 654.199 320.527C652.637 320.332 651.855 319.453 651.66 317.793C651.172 314.668 648.73 311.934 646.484 311.934C645.508 311.934 644.434 311.445 644.141 310.957C643.164 309.395 641.602 310.957 642.187 312.91C642.578 314.18 641.992 314.766 639.648 315.254C637.988 315.547 635.644 315.84 634.473 315.742C632.617 315.742 632.617 315.645 634.082 314.57C635.547 313.594 634.961 313.008 629.687 310.273C623.633 307.051 621.191 306.367 621.191 307.93C621.191 310.078 603.027 311.055 596.777 309.199C581.152 304.512 581.641 304.609 577.344 306.562C573.926 308.027 572.754 308.125 569.434 307.148C566.699 306.367 564.941 306.27 563.672 307.051C562.598 307.539 554.785 308.125 546.289 308.32C531.836 308.516 530.469 308.32 525.195 306.074C521.387 304.512 519.141 304.023 518.262 304.609C513.281 308.32 511.621 309.199 508.398 309.688C505.273 310.176 504.59 309.883 502.246 307.246C499.023 303.535 489.648 301.191 487.793 303.73C487.207 304.512 485.254 305.098 483.398 305.098C480.273 305.098 479.98 304.805 477.734 299.141C476.465 295.918 474.902 292.988 474.121 292.695C473.34 292.402 472.754 291.621 472.754 291.035C472.754 289.082 467.578 284.785 464.453 284.004C460.742 283.223 458.105 280.879 458.105 278.633C458.105 275.02 456.934 273.848 453.32 273.848C450.684 273.848 449.023 274.531 447.363 276.289C444.727 279.121 442.773 279.316 435.644 277.168C429.883 275.41 424.902 272.188 425.488 270.527C426.269 268.086 421.191 264.766 412.598 262.129C406.641 260.371 404.785 260.957 405.176 264.863C405.371 266.621 404.98 268.77 404.297 269.551C403.32 270.723 403.516 271.504 405.176 273.848C406.348 275.41 407.324 277.363 407.324 278.047C407.324 280.098 403.32 280.879 400.977 279.219C399.902 278.438 398.145 277.168 397.07 276.387C395.996 275.605 393.066 274.629 390.527 274.336C386.328 273.652 385.84 273.848 385.84 275.508C385.84 280.684 378.613 279.707 377.246 274.336C376.66 272.383 375.391 270.918 373.145 269.844C371.387 268.965 369.434 267.598 368.848 266.816C365.625 262.52 358.594 262.324 356.738 266.523C355.176 269.844 353.613 269.551 353.613 266.035C353.613 263.301 353.32 263.105 350.195 263.105C348.242 263.105 345.703 263.789 344.434 264.57C342.285 266.035 341.992 265.938 338.867 262.227C337.012 260.176 334.277 256.66 332.812 254.414C329.98 250.215 328.418 249.629 325.488 251.484C324.023 252.461 323.242 252.168 321.094 250.02C319.727 248.652 317.578 247.48 316.406 247.48C315.137 247.48 313.281 246.602 312.109 245.527L310.059 243.672L308.301 246.992Z" fill="white"/>
<circle id="81" cx="255" cy="493" fill="#5CE50D"/>
<circle id="1598" cx="808" cy="542" fill="#E52A0D"/>
<circle id="82" cx="167" cy="699" fill="#E52A0D"/>
<circle id="84" cx="519" cy="699" fill="#E52A0D"/>
</svg>
