<svg width="1000" height="1000" viewBox="0 0 1000 1000" fill="none" xmlns="http://www.w3.org/2000/svg">
<path d="M569.081 16.5152C566.718 16.8932 558.308 18.0272 550.37 18.8777C539.691 20.1062 534.399 21.1456 530.052 22.9412C524.571 25.2091 522.964 25.3982 504.82 25.7761L485.447 26.1541L467.586 37.6831L449.819 49.1175L445.945 58.5674C443.866 63.7649 441.787 68.4898 441.314 69.1513C440.842 69.7183 437.44 71.9863 433.66 74.1598C429.879 76.4278 424.209 80.6803 421.091 83.7987C415.799 88.9962 415.043 89.3742 412.302 88.8072C407.293 87.6732 406.537 86.2558 406.537 77.0893V68.7733L398.977 55.1654C394.819 47.7 391.417 40.518 391.417 39.195C391.417 33.8086 390.189 29.7451 388.677 29.7451C387.826 29.7451 343.788 38.7226 290.772 49.6845L194.38 69.5293L169.054 68.4898C155.068 67.9229 143.444 67.6394 143.16 67.8284C142.971 68.1118 138.813 155.807 134.088 262.781L125.394 457.166L76.1583 456.504L26.8282 455.748L26.2612 461.796C25.9777 465.009 23.8041 531.915 21.3471 610.255L17 752.76L18.9845 757.579C20.0241 760.225 20.9691 764.289 20.9691 766.557V770.715L27.1117 773.455C30.5138 774.967 36.7509 779.031 41.0035 782.527L48.8472 788.764L52.7218 799.82C54.8008 805.868 58.1084 814.09 59.9039 818.248C63.0225 825.052 63.684 825.902 68.2201 828.359C71.0552 829.871 73.4177 831.289 73.6067 831.478C73.8902 831.667 73.5122 833.557 72.9452 835.636C72.0002 839.321 72.1892 839.794 75.7803 845.464C79.1824 850.756 79.5604 852.079 79.5604 857.371V863.324L85.2305 868.711C88.3491 871.734 90.9006 874.664 90.9006 875.231C90.9006 875.798 91.7511 878.349 92.8851 880.901C95.0587 885.72 95.0587 884.114 92.2236 908.306C91.7511 912.369 84.002 924.087 74.0792 935.805L69.8266 940.908L71.0552 951.87C71.7167 958.012 73.1342 966.99 74.2682 971.904C76.0638 980.031 76.5363 980.976 79.0878 982.204C81.7339 983.527 81.9229 983.433 84.8525 980.125C87.6875 976.723 87.971 976.629 94.3027 976.629C99.6893 976.723 101.768 977.196 106.021 979.464C111.975 982.677 115.188 982.96 123.409 980.787C128.134 979.464 131.253 979.369 140.987 980.031C156.58 981.165 167.825 980.976 173.779 979.558C178.315 978.424 178.788 978.046 180.489 973.983C181.528 971.526 182.662 968.596 182.946 967.462C183.324 966.328 184.363 965.194 185.214 964.911C186.064 964.627 190.884 963.304 195.798 961.981C200.712 960.658 205.437 959.335 206.288 959.052C207.044 958.863 210.257 955.272 213.281 951.208C218.289 944.31 219.801 942.987 230.197 936.561C236.528 932.687 244.088 928.434 247.018 927.111C249.853 925.788 254.389 923.426 257.035 921.819C265.54 916.622 278.298 896.871 279.527 887.043C279.905 884.303 281.7 879.861 284.252 875.42C287.559 869.656 288.599 866.726 289.449 860.678C290.489 853.307 290.678 853.024 294.742 849.905C297.766 847.543 300.034 844.519 303.058 838.565C306.932 830.816 307.405 830.344 310.807 829.871C312.791 829.493 315.91 829.21 317.706 829.21C319.596 829.21 326.778 827.32 333.771 824.957C340.859 822.595 349.269 820.421 352.766 820.138L359.003 819.476L360.326 827.887L361.649 836.203L373.651 839.605C388.96 843.952 393.591 846.787 398.032 854.441C399.828 857.654 401.623 860.489 401.812 860.773C402.096 860.962 405.025 860.584 408.428 859.922C411.83 859.166 417.5 858.599 421.185 858.505H427.8L434.51 865.214C441.031 871.64 441.409 871.924 447.268 872.68C450.575 873.152 457.569 874.758 462.861 876.365C475.996 880.334 486.392 881.279 494.424 879.011C500.095 877.404 502.079 877.404 519.94 878.349L539.313 879.483L553.11 874.569L567.002 869.75L575.224 850.567C579.665 839.983 587.603 823.634 592.801 814.09L602.157 796.702V781.96H607.921C611.134 781.96 620.112 780.921 628.05 779.598L642.32 777.141L649.219 770.337C653.093 766.557 659.708 758.619 663.961 752.665C673.884 738.679 682.294 731.875 692.312 729.418C695.997 728.568 699.494 727.339 700.061 726.772C700.628 726.205 701.762 722.992 702.612 719.591C703.463 716.189 707.526 703.431 711.496 691.241L718.867 669.033L728.317 659.489C737.295 650.417 737.956 649.944 742.681 649.283C747.312 648.716 747.69 648.432 751.092 643.141L754.683 637.66L762.243 636.998C766.496 636.62 771.504 635.959 773.489 635.486C775.379 634.919 778.592 634.069 780.671 633.596L784.357 632.651L784.735 626.887C785.113 621.878 785.585 620.839 788.515 617.815L791.822 614.507L796.075 616.397L800.328 618.193L808.266 612.334C814.597 607.703 816.865 605.341 819.511 600.616C822.158 595.891 825.276 592.772 835.671 584.078C842.759 578.125 851.642 569.715 855.517 565.368C859.297 561.115 863.077 557.43 863.833 557.241C864.683 557.146 869.787 557.619 875.173 558.28L885.096 559.603L907.776 547.98L930.551 536.356L940.38 519.724L947.656 516.889C951.72 515.283 956.917 512.448 959.28 510.558C963.533 507.061 963.627 506.967 969.864 507.534C973.739 507.912 977.424 507.723 979.598 506.967L983 505.833L980.448 502.714C978.275 500.068 976.668 499.312 970.62 497.895L963.438 496.289L959.847 489.107C957.862 485.138 955.311 478.145 954.082 473.514C951.909 465.009 951.058 463.781 944.727 459.245C941.325 456.882 912.407 450.267 905.13 450.267C901.445 450.267 895.208 449.417 891.333 448.377C885.474 446.771 865.628 443.652 861.47 443.652C860.809 443.652 858.824 441.668 857.029 439.116C854.383 435.525 853.627 433.446 853.06 428.343L852.398 421.918L840.396 408.121C824.331 389.504 825.56 391.583 826.883 385.157C827.544 382.228 828.017 377.03 828.017 373.628C828.017 370.321 828.867 364.84 829.907 361.438C832.08 354.445 832.553 335.923 830.757 328.93L829.718 324.867L817.338 323.827C810.439 323.166 801.367 322.693 797.209 322.693H789.46L788.798 307.857L788.042 293.02L782.939 283.003C780.199 277.522 777.364 272.325 776.702 271.475C775.757 270.341 770.559 269.112 757.046 266.844C733.515 262.97 730.302 261.458 727.183 253.142L724.915 247.377L718.3 245.109C712.535 243.219 711.118 242.274 708.755 238.778C706.865 236.037 705.353 234.809 703.841 234.809C702.612 234.809 700.25 234.525 698.643 234.242C695.903 233.675 695.714 233.391 695.714 229.517C695.714 225.453 695.619 225.359 692.69 225.359C690.327 225.359 688.437 224.319 684.752 220.823L679.837 216.381L676.057 200.127C672.372 184.535 672.088 183.685 667.552 177.731L662.827 171.494L663.961 166.958C665.001 163.084 664.906 161.666 663.3 156.374C661.693 150.893 660.654 149.476 654.605 143.617C646.384 135.679 645.25 132.466 648.557 126.04C650.92 121.22 651.581 121.977 638.351 114.511L629.657 109.597L623.892 93.8157C620.774 85.2163 617.75 75.7663 617.183 72.8368C616.143 67.8284 615.765 67.3559 610.189 63.5759C606.787 61.2134 602.818 57.4334 600.834 54.5985C597.432 49.7789 597.432 49.6845 597.432 39.6676V29.5561L593.085 23.9807C589.871 20.0117 587.698 18.1217 585.241 17.4602C580.232 15.9482 573.901 15.5702 569.081 16.5152Z" fill="white"/>
<circle id="93" cx="586" cy="779" fill="#5CE50D"/>
<circle id="96" cx="368" cy="254" fill="#E52A0D"/>
<circle id="909" cx="214" cy="426" fill="#E52A0D"/>
<circle id="94" cx="798" cy="415" fill="#E52A0D"/>
</svg>
