<svg width="1000" height="1000" viewBox="0 0 1000 1000" fill="none" xmlns="http://www.w3.org/2000/svg">
<path d="M520.643 76.2578C517.03 79.3828 515.467 80.0664 512.147 80.1641C507.557 80.1641 507.655 80.0664 506.19 88.8555C505.409 93.543 505.799 93.25 497.01 95.2031C494.959 95.6914 493.983 96.9609 492.127 101.648C490.467 106.043 489.002 108.191 486.268 109.949C483.241 112 482.557 113.172 481.581 117.859C480.897 120.887 480.604 127.039 480.799 131.531L481.092 139.734H472.889C467.127 139.734 462.635 139.148 458.045 137.586L451.502 135.535L448.475 137.684L445.35 139.93L440.077 136.414C433.241 131.922 426.6 131.629 418.202 135.34C412.928 137.781 412.635 138.074 409.901 145.008L406.971 152.137L401.6 153.895C398.573 154.871 393.202 155.848 389.588 156.141C383.338 156.531 382.85 156.727 380.995 159.949C379.53 162.391 379.042 165.027 379.042 169.812V176.355L374.647 179.09C372.206 180.652 370.252 182.312 370.252 182.801C370.252 183.387 371.131 185.535 372.303 187.684L374.256 191.688L369.862 196.375C367.225 199.207 365.37 202.137 365.37 203.406C365.37 204.676 364.002 207.605 362.44 210.047C360.877 212.488 359.51 214.93 359.51 215.516C359.51 216.004 361.073 217.957 362.928 219.812L366.346 223.133L373.182 221.961C377.87 221.18 381.385 221.082 384.608 221.766C387.245 222.254 390.565 222.84 392.127 222.938C394.374 223.133 395.252 223.914 396.131 226.746C397.303 230.066 397.303 230.262 393.788 233.191C391.834 234.852 387.928 237.586 385.292 239.246C380.799 241.98 380.213 242.762 379.042 247.547C378.358 250.477 377.479 253.406 377.088 253.992C376.6 254.773 373.768 254.285 366.737 252.137C353.553 248.035 350.135 248.133 345.643 252.723C342.518 255.945 341.834 257.605 340.272 264.93L338.612 273.426L328.749 277.332C323.377 279.48 317.03 281.727 314.588 282.312C312.147 282.996 306.385 285.438 301.698 287.879L293.104 292.273V299.793C293.104 306.922 292.909 307.508 290.174 310.145C288.514 311.707 286.659 315.027 285.877 317.762C284.51 322.254 284.608 323.621 286.463 333.582L288.514 344.617L285.389 349.793C283.631 352.723 280.995 356.238 279.725 357.703C277.577 359.949 277.284 360.926 277.87 364.246L278.456 368.152L271.131 373.719C265.174 378.211 263.905 379.578 264.295 381.336C264.588 382.41 265.174 385.34 265.565 387.781C266.249 391.98 266.444 392.176 269.862 392.469C272.499 392.664 274.549 392.078 277.186 390.32L280.799 387.781L284.999 394.422C287.342 398.035 289.393 401.844 289.784 402.918C290.077 404.09 289.588 408.191 288.807 412.195C287.928 416.199 287.245 419.812 287.245 420.203C287.245 420.594 285.78 421.18 283.924 421.473C279.725 422.352 262.342 418.934 262.44 417.273C262.538 416.59 262.635 414.637 262.733 412.781C262.831 410.145 263.319 409.266 265.37 408.582L267.909 407.703L264.393 403.504C262.44 401.16 259.999 398.23 259.022 396.863L257.167 394.52L250.624 398.133C244.276 401.648 244.081 401.648 238.709 400.574C235.682 399.988 232.85 399.5 232.459 399.5C232.069 399.5 231.483 401.355 231.092 403.602C230.116 409.852 224.549 417.664 219.471 420.203L215.174 422.254L212.245 419.812C210.682 418.445 207.362 416.785 204.92 416.102C200.624 414.93 200.135 415.027 195.252 417.859L190.077 420.691V427.43C190.174 431.141 190.467 436.414 190.956 439.051L191.737 444.031L187.831 446.766L183.827 449.5L178.358 446.57L172.889 443.543L166.346 446.668C162.733 448.328 155.995 452.723 151.307 456.336C144.081 462 142.323 462.977 139.002 462.977H134.999L134.413 458.289C134.12 455.75 133.729 453.016 133.631 452.234C133.534 451.453 131.581 449.5 129.237 447.938L125.135 445.008L116.639 453.309L108.241 451.551C100.721 450.086 99.354 449.988 95.1548 451.258C87.7329 453.504 70.8384 452.625 62.8305 449.695L56.4829 447.254L57.0688 458.777C57.4595 465.125 58.436 473.133 59.2173 476.648C59.9985 480.164 61.3657 490.223 62.147 498.914C63.5141 513.465 64.1977 516.688 69.5688 534.559C72.8891 545.398 77.186 557.801 79.2368 562.098C81.1899 566.395 83.5337 573.719 84.5102 578.309L86.2681 586.609L83.9243 591.395L81.4829 596.18L83.729 601.551C87.0493 609.852 87.2446 612 86.1704 637.977L85.2915 662.195L81.7759 666.883C78.7485 671.082 77.3813 672.059 70.2524 674.695C64.686 676.844 59.6079 677.918 53.7485 678.406L45.4477 678.992L36.268 686.512C27.772 693.348 26.0141 695.496 15.0766 711.512C8.53367 721.18 2.47899 730.066 1.60008 731.238C0.135237 733.191 0.232893 733.582 3.06492 738.172C5.50633 742.176 6.58055 743.055 9.70555 743.641C11.6587 743.934 17.0298 746.375 21.6196 748.914C28.4555 752.723 30.5063 754.48 33.2407 758.68C34.9985 761.414 37.2446 763.758 38.1235 763.758C39.0024 763.758 41.3462 765.418 43.2993 767.371C46.3266 770.496 47.1079 772.254 47.9868 777.723C49.1587 784.266 49.1587 784.461 46.1313 790.027C44.3735 793.348 43.104 797.254 43.104 799.207C43.104 801.16 42.6157 804.871 41.9321 807.605C40.9555 811.902 41.0532 813.074 42.4204 816.102L44.0805 819.52L38.9048 821.863L33.6313 824.109L32.3618 832.312C31.5805 836.707 30.9946 842.566 30.9946 845.301C30.9946 851.062 32.8501 866.199 33.729 866.98C34.022 867.371 36.0727 867.078 38.3188 866.395C42.1274 865.223 42.3227 865.027 41.7368 862.098C41.4438 860.34 40.9555 857.117 40.5649 854.969L39.979 850.867L44.9595 849.793C55.5063 847.547 67.7134 849.5 68.9829 853.699C69.5688 855.457 74.7446 857.508 78.5532 857.508C79.5298 857.508 82.9477 855.75 86.0727 853.602C89.2954 851.453 95.7407 847.547 100.428 845.008C108.827 840.516 109.022 840.223 110.78 835.242C111.659 832.312 112.928 826.844 113.514 822.938L114.588 815.906L122.01 813.074C131.19 809.559 143.495 808.484 158.143 809.852C172.987 811.219 191.639 808.875 198.377 804.676C201.6 802.723 205.018 801.551 208.631 801.16C213.514 800.672 214.881 800.965 221.62 804.09L229.139 807.703L247.499 808.289C260.877 808.777 266.737 808.68 269.471 807.801C272.792 806.727 273.866 806.824 281.288 809.656C288.905 812.391 290.077 812.586 297.889 812L306.288 811.414L317.616 821.375H340.956L345.252 830.164H366.346L381.19 836.121C393.299 840.906 396.717 841.883 399.549 841.395C401.405 841.102 406.971 840.613 411.756 840.32C419.471 839.93 420.838 840.125 422.791 841.785C425.038 843.738 425.038 843.836 423.475 849.5C421.424 857.801 421.522 858.191 425.721 858.875C435.291 860.535 434.608 859.852 434.022 866.395L433.436 872.156H439.491C444.081 872.156 446.62 871.57 449.647 869.812C455.116 866.785 459.608 866.004 461.073 867.762C461.756 868.543 463.514 869.227 464.979 869.227C476.893 869.227 480.213 871.863 477.284 878.992C476.405 881.141 475.721 884.461 475.721 886.219C475.721 889.344 476.014 889.539 480.311 890.613C484.413 891.688 484.999 891.59 486.756 889.832C488.612 888.074 488.612 887.391 487.635 881.141C486.659 875.281 486.756 873.719 488.221 869.324L489.881 864.246L495.741 868.348C498.963 870.594 502.772 873.816 504.237 875.477L506.776 878.504L515.272 874.305C521.327 871.375 524.159 869.324 525.331 867.176C528.065 862.293 528.749 861.707 532.655 861.121C536.17 860.535 536.268 860.633 536.268 863.758C536.268 866.004 537.147 867.762 539.588 870.105C541.639 872.059 543.299 874.988 543.983 877.625C544.569 879.969 545.35 881.922 545.643 881.922C547.01 881.922 553.553 878.016 555.213 876.16C557.069 874.109 560.877 873.621 565.174 874.891C568.006 875.867 579.823 889.93 581.19 894.129C582.264 897.547 585.78 900.086 591.737 901.844C593.788 902.527 593.885 902.332 593.885 897.449C593.885 894.715 594.862 889.734 596.034 886.609C597.889 881.434 598.573 880.555 602.772 878.406C605.702 876.941 609.12 876.062 611.854 876.062C616.053 876.062 616.444 875.867 618.202 872.254C621.131 866.492 625.428 863.367 630.311 863.367C636.561 863.367 638.807 864.246 638.807 866.688C638.807 867.762 639.979 871.766 641.346 875.574C642.713 879.285 644.471 885.242 645.155 888.758C645.838 892.273 647.694 897.938 649.159 901.258L651.795 907.508L656.288 906.922C662.928 906.043 671.131 901.844 673.475 898.23C674.745 896.277 676.405 895.008 678.065 894.812C679.823 894.617 680.897 893.738 681.581 891.785C682.362 889.637 683.436 888.953 687.049 888.074C691.346 887.098 691.932 887.195 694.471 889.441C696.034 890.711 697.596 892.566 697.889 893.543C698.182 894.617 700.526 895.887 704.139 897.059C709.901 898.816 709.901 898.816 713.221 896.57C714.979 895.301 718.202 892.371 720.35 889.93L724.354 885.535L733.534 885.145C738.612 884.852 744.276 885.047 746.131 885.535C749.061 886.316 749.745 887.098 751.112 891.199C752.479 895.594 753.163 896.375 757.655 898.523C762.733 900.965 762.733 900.965 762.635 905.359C762.538 907.801 763.026 911.609 763.612 913.855C764.686 917.371 765.37 918.055 769.178 919.324C771.522 920.203 775.428 922.156 777.87 923.816C783.241 927.527 785.096 927.625 786.366 924.109C786.952 922.645 788.807 919.91 790.565 918.055C795.448 912.977 795.838 908.875 792.127 900.281C790.174 895.594 789.198 891.492 789.198 888.367C789.198 882.02 787.44 877.43 784.608 876.16C782.655 875.281 782.362 874.5 782.362 869.227C782.362 864.344 783.045 862 785.877 856.238C787.831 852.43 790.272 848.035 791.249 846.57C792.323 845.203 793.104 843.25 793.104 842.371C793.104 839.832 800.526 821.668 802.967 818.348C804.042 816.785 806.288 814.832 807.85 814.051C809.803 812.977 810.682 811.805 810.682 810.145C810.682 808.387 811.366 807.605 813.026 807.117C814.295 806.824 817.03 804.871 819.081 802.723C821.131 800.672 823.475 798.914 824.354 798.914C826.014 798.914 829.237 795.984 829.237 794.617C829.237 794.129 828.163 792.957 826.795 791.883C824.842 790.418 824.354 789.148 824.354 785.926C824.354 779.285 824.647 779.09 837.245 779.48C848.084 779.871 848.475 779.969 852.381 783.094C857.948 787.488 859.51 787.293 859.51 782.02C859.51 777.918 859.706 777.625 863.417 775.965C866.834 774.402 869.081 774.305 882.264 774.793C895.057 775.379 898.084 775.184 904.237 773.621C908.241 772.547 911.561 771.57 911.659 771.375C911.659 771.18 912.538 770.105 913.514 769.031C915.272 766.98 915.174 766.785 910.584 760.242C907.655 756.043 905.799 752.234 905.409 749.695C904.92 746.18 904.53 745.691 900.819 744.52C898.28 743.641 895.838 741.883 894.471 740.125C892.518 737.293 892.42 736.707 893.495 731.531C894.374 727.625 894.374 725.086 893.69 723.23C893.202 721.863 892.713 718.934 892.713 716.785C892.713 714.637 891.834 711.219 890.76 709.07C888.612 704.871 889.1 701.941 892.713 698.328C895.448 695.594 895.252 695.105 890.76 692.078C888.612 690.711 886.854 688.758 886.854 687.781C886.854 686.902 885.487 683.289 883.924 679.969L880.995 673.719L883.436 670.789C885.682 668.152 885.877 667.078 885.877 659.266C885.877 649.012 885.487 648.328 874.354 640.906C868.397 636.902 866.151 634.656 861.366 627.43C856.483 620.008 855.604 618.055 855.604 614.344C855.604 609.266 855.897 608.68 860.389 605.555C863.612 603.309 863.612 603.211 863.124 597.84C862.635 592.957 862.831 591.883 865.37 587.879L868.202 583.289L874.061 584.559C879.334 585.633 880.213 585.633 882.948 583.973C886.366 581.824 891.834 581.629 899.842 583.191C904.92 584.266 905.409 584.559 905.409 586.902C905.409 592.078 906.385 593.348 911.561 595.203C914.881 596.375 920.155 597.156 926.698 597.449C935.877 597.84 937.538 597.645 944.276 595.203C955.897 591.102 957.948 590.027 959.999 586.414C961.463 583.973 963.026 582.898 966.151 582.02C972.303 580.457 975.428 575.965 976.307 567.371L976.991 560.633L980.506 560.145C982.459 559.852 986.268 558.484 989.002 557.02C992.713 555.164 994.862 554.676 997.108 555.066L1000.14 555.652V548.523C1000.14 544.52 999.647 539.051 998.963 536.414C997.987 532.02 997.499 531.336 993.885 529.773C991.639 528.797 988.319 526.258 986.463 524.207C984.51 522.156 979.432 518.738 974.842 516.395C967.03 512.488 966.542 512.098 965.37 508.094L964.198 503.895L967.909 501.258C969.959 499.793 972.401 498.133 973.377 497.547C975.135 496.57 975.038 496.18 971.815 492.469C968.788 488.953 968.006 488.465 965.077 488.855C962.342 489.148 960.975 488.562 957.264 485.535C952.674 481.629 943.788 476.844 937.538 474.793C934.413 473.816 933.338 474.012 927.088 476.648C921.424 479.09 918.788 479.578 912.733 479.578C905.604 479.578 896.62 478.016 896.62 476.844C896.62 476.453 898.866 469.812 901.6 462.098L906.678 448.035L901.112 436.902L895.545 425.867H890.37C885.682 425.867 884.706 425.477 879.139 420.984C875.721 418.25 871.131 415.125 868.885 414.051C866.737 412.879 861.268 409.949 856.874 407.508C849.061 403.113 848.963 402.918 848.28 398.523C847.499 393.152 842.03 366.102 841.737 365.809C841.542 365.711 838.514 364.832 834.999 363.855C829.92 362.586 828.26 361.609 827.381 359.754C825.624 355.848 826.112 353.309 829.725 349.598C833.045 346.277 836.854 336.609 835.292 335.633C834.901 335.438 830.311 334.266 825.135 333.094C815.565 330.945 815.565 330.945 814.588 327.332C814.1 325.379 813.612 323.328 813.612 322.645C813.612 322.059 809.217 318.25 803.846 314.344C794.276 307.312 794.081 307.117 794.081 303.211C794.081 300.281 794.667 298.719 796.522 296.961C798.67 295.008 798.963 293.836 798.963 288.172C798.963 282.117 799.159 281.629 801.893 280.066C804.432 278.504 804.627 278.016 803.846 275.867C802.186 271.57 802.479 271.277 808.338 271.961L813.905 272.547L813.221 268.934C812.831 266.883 812.342 262.781 812.049 259.852C811.756 256.922 811.073 251.941 810.487 248.914C809.51 243.738 809.022 242.957 804.432 239.441C800.721 236.707 799.061 234.656 798.182 231.824C797.499 229.676 796.131 227.137 795.057 226.16C793.495 224.793 793.104 223.133 793.104 218.348V212.293L797.987 210.047C800.721 208.777 802.87 207.117 802.87 206.336C802.87 205.555 802.186 202.625 801.307 199.695C800.233 195.887 800.135 194.031 800.819 192.566C801.405 191.492 801.893 185.73 801.893 179.676V168.738L784.315 169.91L782.459 166.297C780.897 163.367 779.53 162.293 774.647 160.438L768.592 158.094L769.178 152.625L769.764 147.059L763.905 143.738C758.534 140.711 757.948 140.027 757.948 137.195V134.168L751.112 133.484C745.155 132.898 743.69 132.312 739.393 128.895C736.756 126.844 734.12 125.086 733.534 125.086C732.948 125.086 730.799 126.16 728.651 127.527C723.963 130.457 723.963 130.457 718.495 127.918C714.198 125.77 714.198 125.77 705.799 127.527C697.401 129.285 697.401 129.285 691.932 135.535C687.147 140.906 686.073 141.688 683.045 141.688C679.823 141.688 678.651 142.566 671.034 150.672L662.635 159.559L656.874 153.016C649.647 144.91 648.182 140.613 649.647 132.41C650.233 129.188 651.6 124.598 652.674 122.254L654.53 117.957L652.284 115.613C651.112 114.344 646.327 110.73 641.737 107.605C632.557 101.258 627.284 99.6953 615.565 99.6953H609.315L591.932 113.562L587.147 110.047C582.85 106.824 582.362 106.141 581.874 101.551C581.19 95.9844 576.795 89.9297 572.303 88.1719C569.276 87 553.065 89.9297 548.768 92.3711C545.252 94.4219 543.495 94.2266 538.612 91.3945C535.096 89.3438 533.729 87.4883 530.311 80.6523C528.065 76.0625 525.917 72.3516 525.624 72.3516C525.331 72.3516 523.084 74.1094 520.643 76.2578Z" fill="white"/>
<circle id="65" cx="500" cy="500" fill="#5CE50D"/>
<circle id="67" cx="741" cy="273" fill="#E52A0D"/>
<circle id="1599" cx="79" cy="762" fill="#E52A0D"/>
<circle id="66" cx="822" cy="732" fill="#E52A0D"/>
</svg>
