<svg width="1000" height="1000" viewBox="0 0 1000 1000" fill="none" xmlns="http://www.w3.org/2000/svg">
<path d="M525.793 14.4762C523.407 15.717 520.925 17.4349 520.257 18.1984C518.539 20.2981 516.344 20.1072 516.344 17.9121C516.344 15.717 514.531 14.9534 509.473 14.9534C506.419 14.9534 504.223 15.9078 498.211 20.2026L490.862 25.3564L488.667 36.6183C486.567 47.0212 486.185 48.071 482.654 51.8886C479.123 55.8016 478.932 56.0879 480.459 57.7104C483.322 60.9554 482.177 63.2459 471.392 75.4622C462.612 85.4834 460.989 87.7739 461.944 88.9192C462.707 89.8736 462.898 91.5915 462.421 93.8821C462.039 95.8863 461.657 99.9902 461.562 102.949C461.466 108.103 461.276 108.675 456.694 113.256C453.545 116.501 451.254 118.028 449.918 117.837C448.868 117.742 446.864 118.315 445.433 119.269C444.096 120.128 442.474 120.892 441.901 120.892C441.329 120.892 439.42 121.941 437.797 123.182C436.079 124.518 433.598 125.854 432.071 126.141C430.639 126.522 429.017 127.572 428.54 128.431C427.872 129.767 428.349 130.435 430.639 131.772C433.121 133.299 433.407 133.967 432.93 136.353C432.644 137.88 430.449 141.411 428.063 144.179C424.913 147.901 423.768 150.096 423.768 152.291C423.768 153.914 423.195 155.536 422.432 155.822C421.668 156.109 421.382 157.254 421.668 158.59C421.859 159.831 421.668 162.121 421.095 163.744C420.427 165.557 420.427 166.798 421.095 167.466C421.764 168.134 421.668 169.089 421 170.329C420.427 171.379 419.95 173.192 419.95 174.242C419.95 175.578 417.66 177.392 411.361 181.114C403.535 185.6 402.771 186.268 402.771 188.94C402.771 190.753 401.626 193.235 399.431 195.907C397.236 198.484 396.09 200.965 396.09 202.779C396.09 205.165 394.945 206.692 389.982 210.987C386.642 213.945 383.301 216.331 382.442 216.331C381.679 216.331 378.338 218.526 375.189 221.199C370.608 225.016 369.558 226.352 370.322 227.307C370.99 228.07 371.085 229.979 370.799 231.983C370.322 234.465 369.463 235.515 367.554 236.183C364.213 237.328 361.159 236.087 356.769 231.888C354.479 229.693 352.761 228.643 351.711 229.12C349.611 229.884 343.598 225.016 343.598 222.439C343.598 219.576 337.967 212.323 336.059 212.895C331.382 214.232 328.424 214.422 327.851 213.563C327.565 212.991 326.038 212.514 324.51 212.514C319.834 212.514 318.784 211.655 318.784 207.742C318.784 204.21 318.689 204.115 312.103 201.156C304.373 197.72 303.705 197.625 299.314 199.725C296.833 200.965 295.497 201.061 293.302 200.297C290.629 199.438 289.961 199.725 284.33 204.115C278.127 208.887 277.84 208.982 271.828 207.169C270.396 206.787 270.11 207.264 270.11 210.128C270.11 212.8 269.633 213.754 268.201 214.136C267.151 214.422 266.292 215.472 266.292 216.427C266.292 217.381 265.433 218.622 264.383 219.194C262.475 220.244 262.475 221.199 262.475 395.567C262.475 561.823 262.379 572.035 260.566 592.364C259.516 604.198 256.271 649.723 253.408 693.53C250.545 737.337 246.632 792.978 244.818 817.124C241.86 856.064 233.843 978.417 233.843 984.621C233.843 985.957 234.225 987.579 234.606 988.247C235.656 989.775 238.328 988.82 238.806 986.72C239.092 985.862 240.428 984.43 241.86 983.666C244.055 982.521 244.627 982.521 245.296 983.571C246.345 985.384 249.113 984.144 249.113 981.853C249.113 980.708 249.972 979.944 251.499 979.658C252.835 979.372 253.885 979.467 253.885 979.849C253.885 980.135 254.744 981.376 255.794 982.521C258.18 985.003 263.525 985.384 265.338 983.189C266.197 982.139 266.865 981.949 267.628 982.712C269.442 984.525 273.737 983.762 275.645 981.28C277.745 978.608 281.658 978.131 283.471 980.326C284.998 982.139 291.107 982.139 293.588 980.326C294.733 979.467 297.692 978.99 301.891 978.894H308.286V982.235C308.286 985.384 308.477 985.575 311.435 985.575C313.153 985.575 315.062 985.098 315.73 984.43C316.494 983.666 317.734 983.571 320.407 984.334C334.341 988.343 338.922 989.011 343.598 987.77C348.275 986.53 349.802 983.285 347.416 979.372C344.839 975.268 341.594 964.865 341.022 959.138C340.449 954.271 340.449 954.176 345.316 949.594C350.088 945.013 351.138 944.25 357.914 941.291C359.728 940.432 363.45 938.142 366.027 936.137C370.131 932.988 370.799 932.034 371.085 928.789C371.467 923.635 377.67 917.049 382.633 916.668C385.592 916.381 386.069 916 386.833 913.041C387.31 911.228 388.264 909.033 389.028 908.174C389.791 907.41 390.364 905.501 390.364 904.165C390.364 902.161 390.841 901.588 392.464 901.588C395.231 901.588 408.593 894.717 408.116 893.476C407.925 892.903 407.448 891.853 407.066 890.994C406.684 889.945 407.066 889.277 408.402 888.895C409.643 888.608 410.406 887.654 410.406 886.413C410.406 885.364 411.265 884.027 412.41 883.359L414.415 882.309L412.315 880.114C410.883 878.587 410.311 877.156 410.693 875.724C410.979 874.579 410.597 872.67 409.738 871.429C407.638 868.184 408.784 864.367 411.742 864.367C413.46 864.367 414.128 863.794 414.415 862.172C414.701 860.358 415.369 860.072 420.236 859.786C424.913 859.499 425.677 859.213 425.677 857.686C425.677 856.159 426.345 855.777 428.826 855.777C430.449 855.777 433.121 854.918 434.648 853.964C436.843 852.532 437.893 852.341 439.324 853.009C441.806 854.441 442.283 853.582 442.379 847.856C442.474 845.088 442.76 842.32 443.237 841.652C444.669 839.266 448.2 840.507 452.877 845.279C455.454 847.951 458.317 850.051 459.176 850.051C460.035 850.051 460.989 850.719 461.371 851.482C462.135 853.582 464.33 853.2 466.143 850.719C467.67 848.619 467.67 848.619 467.097 851.864C466.334 855.873 468.529 855.586 469.865 851.387C471.201 847.378 472.347 846.233 475.305 846.233C476.737 846.233 479.314 845.947 480.936 845.661L483.99 844.992L483.322 839.457C482.749 834.494 482.94 833.826 484.372 833.826C487.044 833.826 491.244 830.199 491.816 827.336C492.198 825.618 494.489 822.85 498.115 819.606C501.837 816.456 503.937 813.879 503.937 812.543C503.937 811.398 504.605 809.584 505.369 808.63C506.132 807.58 506.8 804.717 506.8 802.236C506.8 797.177 507.564 796.032 513.577 792.882C516.821 791.165 518.253 789.542 519.876 786.011C521.593 782.193 522.357 781.334 524.361 781.334C527.034 781.334 528.37 778.376 527.511 774.081C527.224 772.172 527.892 771.027 530.947 768.45C533.046 766.637 535.146 765.109 535.623 765.109C536.005 765.109 537.246 763.392 538.295 761.292C539.441 759.001 540.872 757.474 541.922 757.474C544.308 757.474 547.362 754.038 549.748 748.694L551.752 744.208L549.844 736.764C547.935 729.415 547.935 729.32 549.748 727.411C551.18 725.884 551.657 723.975 551.657 719.68V714.049L557.192 710.041C567.023 702.883 567.691 701.833 568.168 692.575C568.359 688.09 569.218 682.745 569.981 680.645C571.413 677.114 571.413 676.732 569.695 674.346C568.741 672.915 567.691 669.479 567.309 666.616C566.736 661.462 566.736 661.271 569.6 659.553C571.699 658.312 572.654 656.976 572.845 654.972C573.035 652.872 573.704 651.918 575.04 651.727C576.09 651.632 577.712 650.2 578.571 648.673C579.812 646.478 581.148 645.714 584.106 645.237L588.019 644.569L586.015 642.565C584.965 641.42 584.106 639.32 584.106 637.984C584.106 636.552 582.77 633.88 580.957 631.685C578.953 629.299 577.139 625.577 576.09 621.568L574.276 615.174L576.853 612.501C578.571 610.688 579.334 608.875 579.334 606.584C579.334 602.099 582.198 599.617 588.878 598.09C597.659 596.086 599.09 594.941 599.854 589.596C600.427 585.587 600.045 584.156 597.563 579.193C595.464 575.089 594.605 571.94 594.605 568.79C594.605 565.831 593.937 563.159 592.696 561.346C591.455 559.437 590.787 556.86 590.787 553.615C590.787 550.084 590.31 548.271 588.974 547.125C587.924 546.171 586.874 545.885 586.588 546.362C585.633 547.984 578.953 545.598 577.044 543.021C576.09 541.685 575.04 538.631 574.753 536.15C574.467 533.477 573.513 530.9 572.176 529.373C570.363 527.369 569.981 525.556 569.504 517.348C569.218 511.049 569.409 507.136 570.077 505.895C570.745 504.845 571.413 496.351 571.795 484.517L572.367 464.952L577.33 449.109C580.003 440.328 582.198 432.407 582.198 431.261C582.198 430.212 583.057 426.585 584.202 423.245C585.252 420 586.492 413.987 586.874 410.074C587.733 401.58 591.742 391.749 594.987 390.222C596.8 389.459 597.563 389.65 599.09 391.081C600.713 392.799 601.381 392.895 605.962 391.845C609.875 390.986 611.116 390.318 611.879 388.409C613.502 384.21 612.834 381.06 609.78 378.674C607.107 376.574 606.821 376.574 605.199 378.006C602.717 380.297 596.132 378.006 595.75 374.666C595.559 372.852 593.937 371.516 588.592 368.748C577.807 363.117 575.517 360.732 574.849 354.432C574.562 351.569 574.658 345.557 575.04 341.166L575.708 333.054L579.334 330.954C582.484 329.141 583.152 328.282 583.629 324.655C584.202 321.219 584.775 320.265 587.065 319.406C588.878 318.643 589.833 317.497 589.833 316.257C589.833 315.207 590.883 312.916 592.219 311.294C596.609 305.472 599.377 294.974 599.377 283.712C599.377 280.467 600.045 273.404 600.808 267.869C601.572 262.333 602.24 254.603 602.24 250.689C602.335 244.772 602.717 242.863 604.626 239.714C605.962 237.614 607.012 234.846 607.012 233.606C607.012 232.365 608.921 228.834 611.307 225.684C613.693 222.535 615.602 219.194 615.602 218.335C615.602 217.476 617.797 215.09 620.374 213.086C623.046 211.082 625.146 209.269 625.146 209.078C625.146 208.791 624.573 207.646 623.809 206.501C622.95 205.069 622.664 203.065 623.141 200.393C623.618 197.148 624.477 195.812 628.104 193.044C632.494 189.704 632.59 189.608 633.258 182.736C633.64 178.919 634.308 175.006 634.785 174.147C635.262 173.192 636.121 170.234 636.598 167.466C637.171 164.794 638.412 161.644 639.366 160.594C640.702 159.163 641.37 156.491 641.752 150.955C642.134 146.756 642.611 141.316 642.897 138.93C643.375 135.017 643.184 134.444 641.466 133.967C639.748 133.585 639.557 133.108 640.32 131.104C640.798 129.767 640.989 127.859 640.702 126.713C640.32 125.186 640.607 124.709 642.038 124.709C644.997 124.709 646.142 121.082 644.424 117.169C643.184 113.924 643.279 105.526 644.902 96.3635C645.283 93.7866 645.092 93.3094 643.088 93.0231C640.511 92.6413 640.511 92.9277 642.42 77.4664C643.661 68.1133 643.565 66.4909 642.229 62.2916C640.702 57.8058 640.607 57.7104 639.461 59.7146C638.603 61.3371 637.744 61.7189 636.121 61.3371C633.449 60.6691 628.009 62.4824 628.009 64.0094C628.009 64.6775 625.814 65.7273 623.237 66.3954C620.564 67.0635 617.892 68.3996 617.224 69.3541C616.461 70.4039 614.17 71.3583 611.307 71.74C608.253 72.2173 605.294 73.458 603.004 75.2714C600.808 76.9892 599.281 77.6573 598.9 76.9892C597.754 75.1759 599.281 71.5492 601.286 70.9766C602.431 70.6902 603.194 69.7358 603.194 68.4951V66.4909L599.377 68.3996C594.605 70.8811 593.65 70.7857 593.65 68.1133C593.65 64.9639 591.932 63.4368 589.642 64.6775C588.688 65.1547 587.447 65.3456 586.97 65.0593C586.492 64.7729 584.393 65.3456 582.293 66.4909C580.193 67.5407 577.044 68.3996 575.326 68.3996C571.604 68.3996 559.197 74.8896 554.711 79.1844C552.898 80.9023 550.893 83.3837 550.13 84.8153C549.366 86.3423 548.126 87.4876 547.362 87.4876C544.785 87.4876 547.744 81.7612 551.275 80.0433C553.852 78.8981 554.52 77.9436 554.52 75.844C554.52 72.3127 556.715 69.0677 561.392 65.6319C564.923 62.9596 565.114 62.7687 563.301 61.8143C561.678 60.9554 559.769 61.528 553.089 64.5821C548.507 66.6818 543.64 68.3996 542.208 68.3996C538.391 68.3996 535.432 64.7729 535.432 60.1919C535.432 55.8016 537.055 54.37 550.703 46.4485C558.815 41.772 564.064 36.9046 564.064 34.0414C564.064 33.2779 565.782 31.6554 567.882 30.4147C571.413 28.4104 571.604 28.1241 570.554 25.6427C569.981 24.2111 567.882 21.4433 566.068 19.4391C562.633 15.8124 562.537 15.717 556.811 16.1941C553.566 16.3851 550.225 16.1941 549.366 15.717C548.126 15.0489 547.171 15.2397 545.644 16.5759C543.067 18.8664 539.632 18.3893 538.105 15.6215C535.909 11.3267 532.378 11.0404 525.793 14.4762Z" fill="white"/>
<path d="M728.602 130.535C728.316 131.107 727.075 131.298 725.93 131.012C724.212 130.63 723.258 131.393 720.585 135.879C718.39 139.506 717.436 142.178 717.531 144.182C717.722 146.378 717.149 147.809 715.431 149.432C714.095 150.768 712.95 152.581 712.95 153.535C712.95 154.49 712.282 155.253 711.518 155.253C710.564 155.253 710.087 156.208 710.087 158.021C710.087 159.739 709.323 161.266 707.987 162.22L705.792 163.652L709.037 164.893L712.282 166.038L710.278 167.756C709.132 168.615 707.415 169.188 706.365 168.901C705.124 168.615 703.979 169.378 702.547 171.383C700.829 173.769 700.638 174.532 701.688 176.155C702.643 177.777 702.356 178.827 699.207 183.599C694.816 190.375 689.567 201.446 688.136 206.886C687.468 209.081 685.941 211.754 684.7 212.708C683.077 214.044 682.409 215.476 682.409 217.671C682.409 219.58 681.646 221.489 680.501 222.538C678.783 224.161 678.687 224.447 680.023 225.211C681.264 225.879 681.359 226.356 680.405 227.406C679.546 228.456 679.737 228.742 681.455 228.742C682.696 228.742 683.745 227.978 684.032 226.929C684.223 225.974 685.463 224.638 686.704 223.97C687.945 223.302 689.854 220.63 690.903 217.957C692.526 214.235 693.194 213.376 694.053 214.235C696.725 216.907 684.509 233.896 680.596 232.846C678.115 232.178 676.11 234.946 677.637 236.854C679.164 238.763 678.305 239.622 674.488 239.908C667.521 240.386 664.276 240.863 663.703 241.435C662.653 242.485 665.421 245.062 666.948 244.49C667.712 244.203 669.811 244.394 671.529 244.967C675.538 246.303 680.691 243.821 684.795 238.572C690.522 231.223 699.588 218.339 699.588 217.385C699.588 216.907 702.165 211.563 705.315 205.55C708.464 199.633 711.041 193.811 711.041 192.761C711.041 191.807 712.377 189.993 713.904 188.848C716.386 187.035 716.768 186.08 716.768 182.358C716.768 179.4 717.436 177.205 718.676 175.582C719.726 174.246 720.585 171.764 720.585 170.047C720.585 167.565 721.54 166.038 725.643 162.22C728.411 159.644 731.656 156.971 732.801 156.303C735.856 154.681 735.569 150.481 732.133 147.236C729.843 145.041 729.461 144.182 730.32 142.846C731.179 141.51 730.893 140.46 729.27 137.692L727.075 134.257H729.461C732.515 134.257 735.378 138.265 734.042 140.747C733.374 142.083 733.565 142.751 734.997 143.61C735.951 144.278 737.001 144.755 737.192 144.755C738.051 144.755 738.337 139.983 737.478 139.124C737.001 138.647 736.333 136.834 735.951 135.116C735.474 132.825 734.519 131.68 732.324 130.725C730.225 129.866 729.079 129.866 728.602 130.535Z" fill="white"/>
<path d="M744.445 369.797C744.445 371.324 743.586 373.329 742.536 374.283C741.486 375.237 740.627 376.669 740.627 377.432C740.627 378.291 739.959 379.628 739.1 380.582C738.337 381.441 738.051 382.491 738.528 382.777C739.768 383.541 743.491 380.582 743.491 378.769C743.586 377.146 745.59 373.806 746.64 373.806C746.926 373.806 747.69 375.428 748.263 377.337C748.931 379.341 750.076 381.727 750.935 382.586C752.271 384.209 752.176 384.304 749.885 384.304C748.453 384.304 745.972 385.449 744.254 387.072C741.582 389.458 741.391 390.03 742.441 391.367C744.35 393.562 743.109 395.566 739.291 396.234C737.478 396.616 735.092 397.952 733.851 399.193C732.324 400.815 730.702 401.483 728.029 401.483C723.735 401.483 723.353 399.956 726.789 396.711C729.461 394.23 729.843 392.894 727.934 392.894C726.216 392.894 718.676 400.72 718.676 402.533C718.676 403.392 717.626 405.014 716.29 406.255C714.954 407.496 713.904 409.405 713.904 410.455C713.904 411.6 711.709 415.704 709.132 419.617C705.41 425.152 704.36 427.634 704.36 430.497C704.36 433.933 704.456 434.124 705.601 432.597C707.414 430.115 711.041 431.356 711.041 434.505C711.041 436.414 710.564 436.796 708.369 436.796C704.36 436.796 702.642 440.423 704.837 443.858C706.555 446.435 706.555 446.435 703.31 449.776C700.447 452.734 700.161 453.689 699.875 459.224C699.779 462.66 698.92 466.764 698.061 468.482C694.816 474.685 698.825 489.574 704.742 493.487C706.269 494.442 707.223 495.969 707.223 497.209C707.223 500.072 709.514 503.127 710.85 502.268C712.568 501.218 712.186 498.927 709.991 495.778C708.369 493.583 708.178 492.724 709.132 492.151C711.137 490.91 709.323 487.379 706.651 487.379C703.979 487.379 701.688 483.18 703.31 481.271C703.979 480.507 703.692 479.744 702.356 478.98C699.875 477.453 699.875 473.063 702.356 473.063C703.406 473.063 704.933 474.017 705.887 475.163C707.414 477.262 707.414 477.167 706.842 472.204C706.555 469.341 705.792 466.669 705.219 466.287C704.36 465.81 704.551 465.046 705.601 463.424C707.033 461.419 707.033 461.133 705.601 459.511C704.169 457.888 704.169 457.793 705.983 457.793C708.751 457.793 709.323 456.743 707.605 454.834C706.174 453.307 706.365 452.83 709.132 448.821C714 441.568 715.145 438.037 715.336 428.206C715.622 417.517 716.767 413.89 719.822 413.89C724.307 413.89 726.311 412.745 726.311 410.455C726.311 409.214 727.17 407.782 728.125 407.21C730.606 405.969 731.179 405.969 730.988 407.401C730.797 408.069 731.083 410.073 731.465 411.695C732.133 414.463 732.515 414.845 735.474 414.845C738.719 414.845 738.719 414.845 737.287 417.135C735.855 419.33 735.855 419.426 738.623 419.903C742.154 420.667 743.968 423.625 742.536 426.298C741.773 427.729 741.964 428.302 743.491 429.161C745.972 430.497 745.972 433.169 743.491 434.696C742.441 435.269 741.868 436.414 742.154 437.178C742.441 437.941 742.059 439.564 741.295 440.614C740.055 442.427 740.055 443.095 741.2 446.054C742.536 449.012 742.441 449.585 741.105 451.112C740.055 452.257 739.864 453.402 740.436 454.929L741.2 457.125L743.3 454.452C745.686 451.398 748.835 451.78 747.785 454.929C747.308 456.457 747.594 456.838 749.503 456.838C754.943 456.838 755.23 445.863 749.98 437.559C747.69 433.933 747.308 432.501 747.881 429.733C748.263 427.634 748.072 425.725 747.404 424.961C746.831 424.293 746.545 422.957 746.926 422.098C747.213 421.239 747.022 420.571 746.449 420.571C745.877 420.571 745.399 418.949 745.399 417.04C745.399 414.845 744.731 412.745 743.491 411.504L741.582 409.405L743.968 408.164C745.781 407.21 746.354 406.16 746.354 403.583C746.354 400.052 751.794 390.03 753.703 390.03C754.275 390.03 755.516 389.076 756.279 387.931C757.043 386.881 759.715 384.781 762.197 383.254C766.11 381.059 766.396 380.582 764.678 380.105C763.628 379.723 761.91 379.914 760.956 380.582C759.524 381.441 758.475 381.345 756.089 380.105C752.653 378.291 752.557 377.91 754.466 375.333C756.566 372.565 756.184 371.802 753.512 372.851C751.508 373.615 750.935 373.424 750.458 372.088C749.885 370.37 746.449 367.22 745.208 367.125C744.731 367.125 744.445 368.366 744.445 369.797Z" fill="white"/>
<path d="M732.993 460.467C732.993 461.708 732.134 462.567 730.607 462.949C727.839 463.617 727.171 467.339 729.843 467.339C731.084 467.339 731.179 467.625 730.32 468.484C728.507 470.298 728.984 473.829 731.179 475.07L733.184 476.119L730.988 478.41C729.843 479.651 728.316 480.701 727.553 480.701C726.885 480.701 726.312 481.559 726.312 482.514C726.312 485.663 725.262 487.381 723.258 487.381C721.731 487.381 721.444 486.904 721.826 485.377C722.208 483.85 721.922 483.468 720.299 483.755C718.677 483.945 718.104 484.804 717.913 487.19C717.627 489.958 717.913 490.435 720.681 491.39C723.64 492.44 723.64 492.44 723.162 497.498C722.685 502.079 722.876 502.652 724.403 502.652C726.98 502.652 730.225 497.021 728.984 494.73C728.316 493.394 728.412 492.63 729.652 491.772C731.084 490.722 731.084 490.34 730.034 488.527C728.412 485.854 730.225 482.228 734.043 480.701C737.097 479.364 741.582 474.02 741.582 471.538C741.582 469.916 740.342 470.011 734.233 471.729C732.993 472.111 732.038 471.92 732.038 471.347C732.038 470.775 733.279 470.107 734.806 469.725C737.669 469.152 739.673 466.003 739.673 462.09C739.673 460.754 739.101 459.704 738.528 459.704C737.86 459.704 736.333 459.417 735.188 459.131C733.47 458.654 732.993 458.94 732.993 460.467Z" fill="white"/>
<path d="M743.3 464.094C742.345 464.953 743.681 468.293 744.922 468.293C747.499 468.293 749.217 467.053 749.217 465.335C749.217 463.999 748.549 463.521 746.545 463.521C745.018 463.521 743.586 463.808 743.3 464.094Z" fill="white"/>
<path d="M707.987 504.37C706.651 504.656 706.269 505.706 706.269 508.951C706.269 513.628 707.605 514.296 712.473 512.005C715.431 510.669 715.909 506.47 712.95 506.47C711.996 506.47 710.755 505.897 710.373 505.229C709.991 504.561 708.846 504.179 707.987 504.37Z" fill="white"/>
<circle id="74" cx="401" cy="458" fill="#5CE50D"/>
<circle id="73" cx="576" cy="380" fill="#E52A0D"/>
<circle id="75" cx="480" cy="174" fill="#E52A0D"/>
<circle id="1179" cx="576" cy="587" fill="#E52A0D"/>
</svg>
