<svg width="1000" height="1000" viewBox="0 0 1000 1000" fill="none" xmlns="http://www.w3.org/2000/svg">
<path d="M692.772 2.04994L688.279 3.02651L686.522 10.7414C684.764 18.2609 684.666 18.4562 681.834 18.4562C680.272 18.4562 677.635 19.4328 675.975 20.6046C674.315 21.8742 669.627 23.5343 665.526 24.3156L658.201 25.8781L648.631 22.1671C643.358 20.1164 638.475 18.4562 637.791 18.4562C637.01 18.4562 635.936 19.7257 635.35 21.1906C634.471 23.2414 632.811 24.5109 628.611 25.9757C625.584 27.1476 614.744 31.1515 604.49 34.9601C594.334 38.7687 585.35 41.8937 584.568 41.8937C583.787 41.8937 582.225 41.0148 581.151 40.0382C579.979 38.964 574.803 37.0109 569.627 35.7414L560.057 33.2999L555.174 37.3039C552.147 39.7453 549.998 42.382 549.51 44.2374C548.826 46.6789 548.143 47.3624 545.604 47.5578C542.772 47.8507 542.479 48.1437 542.479 51.3664C542.479 53.2218 541.795 57.1281 540.916 60.0578C539.549 64.7453 539.061 65.3312 536.229 65.8195C532.615 66.5031 525.486 65.4288 508.494 61.3273L496.483 58.4953L492.674 60.4484L488.963 62.4015L483.494 59.9601C479.979 58.3976 476.17 57.5187 473.045 57.5187C469.432 57.5187 466.502 56.6398 461.131 54.0031L454.1 50.3898L447.752 51.9523C441.795 53.3195 441.307 53.3195 437.889 51.5617C435.838 50.5851 433.983 48.9249 433.787 48.046C433.494 47.0695 433.006 45.214 432.713 43.8468C431.834 40.3312 428.123 36.4249 424.705 35.6437C419.529 34.2765 405.369 25.0968 400.389 19.8234L395.506 14.6476L390.135 15.5265C387.205 16.1124 377.928 19.0421 369.627 22.2648L354.49 28.0265L352.733 33.1046C351.756 36.0343 349.608 39.4523 347.752 41.2101C345.213 43.6515 344.334 45.4093 343.846 49.3156C343.162 54.1984 342.967 54.3937 338.279 56.6398C335.643 57.8117 333.006 59.3742 332.518 59.9601C331.932 60.7414 331.834 67.382 332.322 78.1242C333.201 94.6281 333.299 95.214 336.131 100.097L339.158 105.077L337.303 114.257C334.764 126.562 331.639 134.277 324.217 145.898C316.99 157.323 308.104 176.952 308.104 181.64C308.104 183.495 309.08 189.159 310.154 194.433L312.303 203.808L308.592 208.788C305.662 212.89 304.783 215.038 304.197 220.312C303.709 223.925 302.928 227.05 302.44 227.245C299.901 228.027 297.947 230.468 296.287 234.765C294.529 239.355 294.529 239.452 296.483 242.284C298.143 244.53 298.338 245.898 297.85 250.194C297.264 254.784 297.459 255.468 299.608 257.519C301.951 259.765 301.951 259.765 300.486 266.015C299.217 271.288 298.533 272.46 296.385 273.241C294.139 273.925 293.26 275.78 289.744 285.741L285.643 297.265L287.791 303.319L290.037 309.374L286.912 315.722C284.08 321.484 283.494 322.069 280.076 322.655C274.705 323.534 273.826 324.316 273.24 329.003L272.654 333.202L262.693 337.89C248.436 344.628 242.967 350.683 233.397 370.507L226.268 385.155L217.967 391.796L209.666 398.339L208.885 407.909C208.494 413.085 208.494 427.441 208.885 439.648L209.471 462.011L204.881 468.456C202.342 472.069 198.729 479.198 196.776 484.277L193.26 493.554L187.986 494.335C185.057 494.726 180.369 496.093 177.537 497.362C173.338 499.316 172.264 500.292 171.58 503.027C170.799 506.054 170.506 506.249 166.209 506.542C161.912 506.835 161.326 507.226 158.983 510.937C157.615 513.183 152.83 518.944 148.436 523.827C144.041 528.612 138.67 535.351 136.424 538.671L132.42 544.628L125.779 543.163C117.186 541.308 113.377 537.597 112.303 530.468C111.815 526.464 112.01 524.706 113.768 521.386L115.818 517.382L113.279 512.987C111.912 510.644 110.447 508.691 110.057 508.691C109.666 508.691 105.272 511.327 100.193 514.452C91.0138 520.214 90.9161 520.214 87.0099 519.042C79.9786 516.894 78.4161 517.968 76.3654 526.366L74.6076 533.691L67.2833 535.839L60.0568 537.987L53.2208 534.569C49.5099 532.714 45.799 531.151 45.1154 531.151C44.3341 531.151 39.6466 533.3 34.5685 536.034C28.3185 539.257 23.5333 542.675 19.6271 546.581L13.963 552.441L14.0607 571.581L14.256 590.722H9.56849C7.02943 590.722 3.90443 591.015 2.6349 591.308C0.486458 591.894 0.388802 592.284 0.97474 596.972C1.36536 599.706 1.85365 602.245 2.04896 602.538C2.83021 603.905 12.3029 601.659 14.4513 599.706C15.8185 598.437 17.9669 597.558 19.8224 597.558C21.7755 597.558 23.2404 596.972 23.5333 596.093C23.924 595.312 25.2911 594.628 26.756 594.628C28.1232 594.628 31.4435 593.944 34.0802 593.163C38.1818 591.894 51.3654 591.698 123.533 591.698H208.201L210.35 594.042L212.596 596.484L215.33 594.433C217.479 592.87 218.846 592.577 221.385 593.066C224.217 593.651 224.998 594.53 228.318 601.366C231.834 608.593 231.932 609.276 231.346 615.722C230.467 624.901 234.568 640.526 238.67 644.042C241.99 646.776 244.041 653.124 243.162 658.007C242.576 661.327 242.967 662.206 246.873 666.991C249.217 669.921 251.658 673.73 252.244 675.487C253.514 679.101 258.885 687.011 263.67 692.284C265.721 694.433 267.576 698.144 268.846 702.538C271.483 711.425 273.045 712.401 281.151 710.741C285.447 709.96 289.061 709.862 293.748 710.546C297.361 711.034 300.486 711.23 300.779 711.034C301.072 710.741 301.268 708.788 301.268 706.737C301.268 703.515 301.561 703.026 303.514 703.026C304.686 703.026 307.225 703.515 309.08 704.101C311.131 704.687 316.111 704.784 321.58 704.491C329.393 703.905 330.565 703.612 330.174 702.245C329.979 701.269 329.49 699.12 329.1 697.46L328.416 694.237H338.963L341.209 698.73L343.358 703.319L354.783 702.636C361.033 702.245 368.553 701.757 371.483 701.366L376.658 700.78L376.17 693.359C375.975 689.257 375.389 685.155 374.998 684.276C374.51 683.007 375.193 682.421 378.416 681.444L382.42 680.175L381.834 670.898C381.443 664.355 381.639 660.058 382.615 656.64L383.885 651.757L400.486 652.05C409.568 652.245 418.162 652.636 419.627 652.831C421.873 653.319 422.361 652.929 422.947 650.878C423.533 648.437 423.826 648.339 430.858 648.339H438.182L437.596 652.929C437.303 655.566 436.912 659.765 436.815 662.499L436.619 667.382L459.959 667.089C472.85 666.991 486.717 666.601 490.916 666.308L498.338 665.722L499.608 671.191C500.584 675.878 500.584 677.831 499.022 684.862L497.361 693.066L499.901 700.78C501.268 704.98 503.318 712.987 504.393 718.554C506.151 728.026 506.151 729.394 504.881 738.573C504.197 744.042 503.221 752.343 502.928 757.226C502.537 762.011 501.658 768.749 500.877 772.069L499.51 778.026L503.026 787.109C506.834 797.362 507.713 798.437 514.158 802.636L518.651 805.566L521.776 819.433C523.729 828.124 524.901 836.034 524.901 840.331V847.167L521.483 848.827C517.967 850.487 517.967 850.487 518.651 855.663C518.943 858.398 520.213 863.769 521.287 867.48L523.436 874.12L528.318 873.534C533.006 873.046 534.471 872.069 537.108 867.577C538.084 865.917 538.377 866.015 542.283 867.968L546.385 870.116L549.608 867.675C552.537 865.429 553.416 865.331 560.057 865.819C567.381 866.308 567.381 866.308 571.385 862.792L575.486 859.276L591.404 860.155C606.932 861.034 607.518 860.937 612.498 858.691L617.674 856.444L619.139 859.374C620.408 861.816 621.19 862.206 624.803 862.206C630.565 862.304 635.057 866.405 635.936 872.558C636.522 876.659 636.326 877.245 632.811 880.761L629.197 884.472L632.908 885.058C641.99 886.425 643.748 886.132 648.143 883.007C650.877 881.151 657.029 878.612 665.428 876.073C677.928 872.265 678.611 872.167 680.858 873.73C683.104 875.292 683.201 875.683 682.615 884.765L682.029 894.14L684.861 896.581C686.424 897.851 688.279 899.901 688.865 901.073C689.842 902.831 690.33 903.026 692.967 902.05C695.408 901.171 697.361 901.562 706.151 904.687C715.037 907.909 716.404 908.593 716.893 910.937C717.967 916.015 718.162 916.112 721.483 915.526C731.932 913.671 737.401 913.866 747.85 916.308L758.397 918.847L762.693 916.405C767.674 913.476 767.967 912.89 768.748 903.612L769.334 896.581L772.85 897.069C778.416 897.851 778.514 897.948 779.295 903.71C779.881 908.691 780.174 909.276 783.299 910.741C785.936 912.011 786.912 913.28 787.693 916.308C788.279 918.554 790.428 923.241 792.576 926.855L796.483 933.495H803.026C808.494 933.495 809.764 933.788 810.838 935.448C811.424 936.523 814.256 938.476 817.088 939.941C822.264 942.577 825.682 942.675 837.01 940.722C839.842 940.234 840.037 940.331 841.111 945.214C841.795 947.948 842.283 952.05 842.283 954.198C842.283 958.202 846.287 966.698 848.143 966.698C848.631 966.698 850.096 966.308 851.463 965.722C853.709 964.941 854.197 965.234 856.736 968.944C858.299 971.191 859.959 974.12 860.35 975.487C860.74 976.855 862.986 982.03 865.428 987.011C869.725 995.898 869.92 996.093 872.654 995.507C874.901 995.019 875.877 995.312 877.244 996.972L878.904 999.023L888.475 993.066C897.166 987.694 898.338 987.206 901.951 987.792C904.881 988.28 905.76 988.866 905.369 989.843C903.709 994.042 903.807 995.702 905.565 997.265C907.127 998.73 907.908 998.827 909.959 997.851C911.326 997.265 912.693 995.8 912.986 994.628C913.279 993.554 913.572 979.003 913.572 962.401V932.226L909.471 932.909C907.127 933.3 903.221 934.179 900.682 935.058C896.19 936.523 896.19 936.523 897.068 939.648C898.631 945.019 898.436 945.214 891.893 943.163C888.475 942.187 883.787 941.308 881.346 941.308C877.049 941.308 876.756 941.112 866.697 930.761C861.033 924.901 853.807 918.261 850.486 916.112L844.627 912.011L842.381 902.734L840.135 893.554L843.065 885.937C844.627 881.737 847.166 872.948 848.631 866.405C850.975 856.249 851.658 854.394 853.611 853.515C856.541 852.245 856.541 851.073 854.002 834.862C852.049 822.362 852.049 822.167 853.904 812.499L855.858 802.636L849.022 788.378C845.311 780.566 842.283 773.827 842.283 773.437C842.283 772.948 846.19 770.019 850.877 766.894C857.811 762.401 860.74 759.667 865.526 753.319L871.58 745.409L870.701 738.573C870.213 734.862 869.92 731.737 870.018 731.737C870.018 731.64 891.697 728.612 917.967 724.901C944.334 721.288 965.916 718.261 966.111 718.066C966.307 717.968 962.401 705.956 957.518 691.405C949.022 666.503 948.143 664.55 942.674 656.933C937.986 650.585 935.057 647.655 928.807 643.456L920.994 638.085L914.354 622.753L907.811 607.421L909.666 600.976C911.326 595.214 911.326 594.14 910.154 590.624C909.373 588.476 908.006 580.956 907.225 574.023C905.858 563.085 905.076 560.155 901.268 551.659C897.459 542.87 896.971 541.112 896.971 534.374C896.971 529.296 897.654 525.194 899.022 521.386L901.072 515.819L896.58 499.316C892.186 483.105 892.088 482.519 891.502 462.89L890.818 442.968L883.592 435.058C879.002 430.077 874.901 424.316 872.459 419.433C870.311 415.234 868.651 411.718 868.846 411.62C869.041 411.425 870.701 410.448 872.752 409.277C874.705 408.007 878.709 404.101 881.736 400.39L887.205 393.749V379.589L893.748 371.581C897.361 367.284 902.928 360.741 905.955 357.226L911.619 350.78L910.057 346.972C908.983 344.433 908.69 341.796 909.08 338.769C909.373 336.327 910.154 328.612 910.643 321.679C911.131 314.648 912.498 301.464 913.768 292.187L915.916 275.487L919.334 274.023C922.654 272.753 923.045 272.069 926.072 262.89C928.904 254.394 929.295 252.148 929.002 245.214L928.709 237.206H936.815L939.354 230.566C941.893 224.023 941.99 223.827 947.068 222.069C953.514 219.823 956.053 218.066 966.209 208.984C986.326 190.917 992.479 184.472 996.678 176.952C1001.95 167.187 1001.46 164.843 993.162 160.351C988.182 157.616 986.326 157.226 980.369 157.128H973.436L972.947 152.148C972.557 147.948 973.045 145.702 975.779 138.866L979.1 130.566L976.365 127.148C974.901 125.292 973.24 123.241 972.752 122.558C972.264 121.874 973.729 117.577 976.463 111.425C978.904 105.956 980.955 101.073 980.955 100.683C980.955 100.292 978.904 97.6554 976.463 94.8234C974.022 91.9913 970.408 86.8156 968.455 83.2023L964.842 76.6593L960.35 76.8546C956.346 77.1476 955.662 76.8546 954.1 74.4132C953.123 72.9484 949.608 68.8468 946.287 65.3312C942.674 61.6203 938.279 55.4679 935.643 50.4874C933.104 45.7999 930.272 41.796 929.393 41.5031C928.514 41.3078 924.022 40.9171 919.432 40.7218L911.229 40.4289L908.397 46.2882C906.834 49.5109 905.467 52.2453 905.369 52.3429C905.272 52.5382 899.803 51.5617 893.26 50.3898C883.201 48.4367 881.151 47.7531 879.49 45.6046C876.756 42.1867 872.947 42.9679 870.799 47.3624L869.236 50.6828L861.424 50.1945C857.029 49.9015 849.803 48.632 845.311 47.5578L837.108 45.4093L835.057 40.6242C833.201 36.2296 832.225 35.4484 822.752 29.7843C817.088 26.3664 805.369 19.921 796.678 15.5265L780.955 7.32338L774.901 12.5968L768.943 17.7726L765.037 15.6242C761.619 13.671 760.252 13.4757 754.49 14.0617C748.533 14.6476 746.678 14.3546 736.619 11.2296C728.123 8.59291 723.729 7.71401 718.358 7.71401C712.01 7.71401 710.838 7.42104 705.955 4.29604C700.291 0.682757 699.803 0.585101 692.772 2.04994Z" fill="white"/>
<circle id="173" cx="164" cy="523" fill="#5CE50D"/>
<circle id="938" cx="712" cy="247" fill="#E52A0D"/>
<circle id="175" cx="572" cy="583" fill="#E52A0D"/>
<circle id="174" cx="819" cy="900" fill="#E52A0D"/>
</svg>
