<svg width="1000" height="1000" viewBox="0 0 1000 1000" fill="none" xmlns="http://www.w3.org/2000/svg">
<path d="M607.284 159.811C606.502 160.104 604.256 161.276 602.401 162.546C600.545 163.815 597.225 165.085 595.077 165.475C593.026 165.866 589.998 166.745 588.534 167.526C587.069 168.307 583.163 168.893 579.94 168.893C575.545 168.893 573.202 169.382 571.248 170.749C569.784 171.823 566.952 172.8 564.803 172.995C561.385 173.288 560.604 173.874 556.209 180.221L551.424 187.155L553.963 195.846C557.284 207.37 556.6 210.495 549.276 217.428C545.37 221.237 543.221 222.604 541.17 222.604C537.948 222.604 533.163 227.096 528.67 234.421C526.131 238.62 525.448 239.01 521.248 239.596C516.463 240.28 514.413 242.038 509.237 250.241C508.358 251.803 506.014 253.952 504.159 255.026C502.303 256.1 500.838 257.468 500.838 258.151C500.838 258.737 499.959 260.983 498.983 263.034C497.909 265.085 496.737 268.112 496.444 269.675C495.956 271.725 494.881 272.995 492.928 273.678C491.463 274.264 489.706 276.022 489.022 277.487C488.241 279.343 485.409 281.686 480.233 284.714C476.034 287.253 472.323 290.085 472.03 291.061C471.639 292.038 469.491 293.698 467.147 294.772C463.534 296.335 462.655 297.311 461.19 301.413L459.53 306.1H430.038L423.202 310.495C417.147 314.401 415.78 314.889 410.506 314.987C407.284 315.085 401.229 316.061 396.932 317.135C389.706 319.089 388.827 319.089 382.479 317.819C367.538 314.596 353.475 317.038 347.518 323.776C345.956 325.632 344.588 327.78 344.588 328.561C344.588 329.831 348.885 333.542 356.405 338.913C358.456 340.28 358.456 340.671 357.381 345.358C356.405 349.46 354.94 351.608 349.178 357.565C334.823 372.409 325.448 383.151 323.592 387.057L321.639 391.061L298.69 392.135C278.573 393.112 275.155 393.503 271.053 395.358C266.561 397.409 266.17 397.507 259.334 396.042L252.303 394.577L243.026 399.753C237.948 402.585 230.428 406.1 226.424 407.663C222.225 409.225 215.78 412.839 211.288 416.159C207.088 419.284 202.889 421.823 202.01 421.823C201.229 421.823 196.639 423.093 191.854 424.655L183.065 427.487L174.569 420.26C167.147 414.01 165.975 412.546 165.389 409.128C164.413 403.464 161.776 403.854 158.553 410.007C155.526 416.159 149.959 419.382 134.139 424.264C127.694 426.218 120.76 428.854 118.807 430.221C115.291 432.468 114.608 432.565 96.5415 432.565H77.9868L74.4712 438.132C72.5181 441.257 69.0024 445.456 66.7563 447.409C63.5337 450.241 62.5571 451.901 62.0688 454.928C61.8735 456.979 59.1392 463.425 56.0142 469.089C51.0337 478.366 50.0571 479.636 46.3462 481.296C41.1704 483.542 37.9478 487.839 37.9478 492.526C37.9478 496.432 34.8228 505.417 31.4048 511.276C30.1353 513.522 28.7681 517.331 28.3774 519.577C27.6938 523.874 27.6938 523.874 17.3423 529.245C11.6782 532.175 5.33057 535.983 3.37744 537.741L-0.333496 540.768L3.67041 546.139C6.79541 550.241 8.55322 551.608 11.0923 552.096C17.9282 553.464 21.4438 566.745 18.3188 579.928C17.5376 583.542 17.6353 584.616 19.2954 587.155L21.1509 590.085L18.8071 593.796C15.1938 599.655 15.9751 604.44 21.2485 607.858C24.1782 609.714 24.2759 610.104 24.2759 616.452C24.2759 621.237 23.6899 624.167 22.2251 626.999C20.5649 630.319 20.4673 631.491 21.2485 633.932C21.8345 635.593 22.3228 641.354 22.3228 646.823L22.4204 656.686L27.4985 660.69C30.3306 662.936 35.0181 665.964 37.9478 667.428C40.8774 668.893 46.0532 672.507 49.2759 675.339L55.2329 680.612L55.9165 689.206C56.8931 701.608 60.1157 713.425 63.8267 718.698C83.6509 746.725 91.0727 756.491 97.3227 762.839C104.256 769.968 105.038 770.358 110.018 771.042C114.706 771.628 115.389 772.018 116.854 774.948C118.026 777.389 119.198 778.366 121.541 778.854C124.081 779.343 125.35 780.417 127.303 783.737C129.842 788.034 129.842 788.132 128.28 792.917C126.815 797.214 126.815 797.897 128.182 800.632C129.256 802.682 129.745 806.393 129.745 813.034C129.745 820.358 130.135 822.995 131.307 824.264C132.088 825.143 133.456 828.464 134.237 831.686C136.483 840.475 136.483 840.573 137.85 838.718C138.534 837.839 140.194 836.862 141.561 836.569C143.709 835.983 145.37 833.053 154.061 813.327C164.12 790.768 164.12 790.671 163.729 784.225C163.338 778.561 163.631 777.096 166.073 772.214C168.416 767.428 168.807 765.378 168.807 758.932V751.218L175.838 749.167C181.209 747.604 184.237 746.042 188.045 742.624C192.928 738.425 193.221 738.229 199.374 738.229C204.354 738.229 207.186 737.546 212.264 735.3C215.877 733.639 219.979 732.37 221.346 732.37C222.713 732.37 226.327 731.686 229.354 730.807C234.334 729.44 235.995 729.44 246.834 730.71C256.307 731.882 259.237 732.663 260.995 734.225C262.655 735.788 264.413 736.276 268.514 736.276C271.444 736.276 277.01 737.253 281.014 738.425C287.557 740.378 288.729 740.475 295.663 739.304C299.764 738.62 304.745 737.35 306.698 736.374L310.311 734.616L315.291 737.546C318.709 739.499 320.663 740.085 321.346 739.401C322.323 738.425 322.03 733.054 320.272 723.581C319.784 720.651 319.295 712.057 319.295 704.44C319.198 696.921 318.709 688.132 318.124 685.007C317.049 679.343 317.147 679.245 319.784 677.292C321.249 676.12 324.862 673.874 327.791 672.311C332.577 669.675 333.26 668.796 335.506 663.034C336.874 659.518 339.51 654.831 341.366 652.585C346.444 646.335 350.448 637.936 350.448 633.737V630.124L355.428 629.44C358.163 629.05 362.85 627.682 365.877 626.315C374.862 622.311 385.799 618.307 390.291 617.233C392.538 616.745 395.565 615.671 396.932 614.694C400.448 612.448 412.557 614.206 415.194 617.428C418.905 622.116 420.858 623.678 429.256 628.854C433.944 631.784 439.803 635.788 442.245 637.839C444.686 639.792 448.202 642.136 450.155 642.917C454.452 644.772 461.971 653.171 464.51 659.128C466.17 662.936 467.245 663.913 472.42 666.354C477.791 668.991 478.768 669.186 481.6 668.112C486.483 666.354 500.252 666.55 501.815 668.405C502.499 669.186 504.159 669.87 505.526 669.87C507.186 669.87 509.432 671.237 511.776 673.483C515.194 676.803 515.78 676.999 521.053 676.803C525.448 676.608 527.987 677.194 532.186 679.05C535.702 680.71 540.291 681.784 545.077 682.175C552.401 682.858 552.596 682.76 554.745 680.124C556.6 677.78 557.284 677.487 560.995 678.073C563.338 678.366 572.616 680.807 581.502 683.542C599.862 689.108 607.088 690.28 612.752 688.425C617.049 687.057 620.956 683.932 620.956 681.784C620.956 680.905 622.225 678.073 623.788 675.339C625.838 671.628 626.327 669.772 625.741 668.112C624.569 664.889 625.545 663.425 629.549 662.448C632.772 661.667 633.553 660.886 636.19 655.319C639.315 648.776 640.682 647.507 648.983 643.014L654.061 640.378L656.893 642.428C658.553 643.503 660.897 644.479 662.166 644.479C665.389 644.479 675.057 647.897 679.256 650.436C682.967 652.682 688.241 652.585 691.17 650.046C692.049 649.264 694.686 647.995 697.127 647.116C699.569 646.335 704.549 644.479 708.163 643.112C711.776 641.745 716.756 640.573 719.198 640.573C721.639 640.573 725.252 639.694 727.206 638.718C729.256 637.643 733.456 636.081 736.678 635.202C739.901 634.225 744.295 632.272 746.541 630.71C749.081 628.952 751.327 628.171 752.596 628.561C755.038 629.147 761.385 624.655 762.655 621.335C763.241 619.675 764.217 619.089 766.463 619.089C770.76 619.089 781.698 623.483 785.799 626.901C789.803 630.221 796.053 630.905 799.959 628.464C803.377 626.315 812.166 624.655 816.756 625.241C820.565 625.827 821.248 625.632 823.397 623.093C825.155 620.944 826.327 620.358 828.28 620.749C832.381 621.53 833.553 619.772 834.139 611.667C834.53 606.882 835.213 603.659 836.288 602.585C837.069 601.608 837.557 600.143 837.264 599.362C836.581 597.604 839.998 596.042 847.03 595.163C849.764 594.772 852.498 593.991 853.182 593.405C854.256 592.624 854.745 592.721 855.428 593.991C856.014 594.968 857.577 595.651 859.237 595.651C860.897 595.651 863.143 596.628 864.706 598.093C866.17 599.46 868.123 600.534 869.1 600.534C870.077 600.534 871.053 600.925 871.346 601.413C872.225 602.78 878.67 603.464 881.307 602.389C883.163 601.706 884.334 601.901 885.897 602.975C888.338 604.733 891.756 604.831 894.588 603.366C895.956 602.585 896.834 602.585 897.616 603.366C898.202 603.952 900.057 604.44 901.815 604.44C903.475 604.44 906.014 605.319 907.381 606.393C908.748 607.468 910.702 608.346 911.776 608.346C912.85 608.346 914.217 608.932 914.803 609.714C915.487 610.495 916.756 610.886 917.831 610.593C918.905 610.3 920.858 610.983 922.323 612.155C924.471 613.815 925.741 614.108 930.916 613.62C934.139 613.327 937.557 612.839 938.338 612.546C940.78 611.569 945.565 612.35 946.639 613.718C947.225 614.401 949.276 615.28 951.131 615.671C954.256 616.257 954.647 616.061 956.698 612.35C961.19 604.44 969.491 601.999 979.452 605.71C990.487 609.909 995.858 613.034 996.541 615.671C997.42 619.089 999.862 618.796 999.862 615.28C999.862 611.276 996.541 606.1 992.147 603.171C989.022 601.12 988.241 599.85 986.776 594.284C985.799 590.768 984.432 587.35 983.651 586.764C982.479 585.788 982.479 585.3 983.748 583.346C985.799 580.124 985.702 574.46 983.456 573.776C982.088 573.288 981.795 572.409 982.088 569.87C982.284 567.819 981.795 565.573 980.819 564.011C978.67 560.788 967.635 554.636 963.924 554.636C962.362 554.636 960.311 553.757 959.432 552.78C958.456 551.706 956.502 550.729 955.038 550.534C953.28 550.339 952.401 549.557 952.206 547.995C951.717 544.968 944.979 541.55 940.975 542.331C938.338 542.819 937.459 542.331 933.26 538.034L928.573 533.151L925.252 536.081C921.639 539.303 920.76 539.596 920.76 537.839C920.76 535.69 925.155 530.221 927.889 529.147C930.038 528.268 930.526 527.487 930.331 525.436C930.135 523.386 928.475 522.018 921.737 518.307C917.147 515.768 912.264 512.35 910.702 510.69L908.065 507.761L915.291 494.479L910.604 488.425C905.819 482.37 905.331 482.077 896.248 480.026C894.295 479.636 892.538 477.585 889.413 472.409C886.971 468.405 883.944 464.792 882.284 463.913C880.721 463.034 875.643 459.811 871.053 456.686C862.752 451.12 862.655 451.12 855.331 451.12L848.006 451.022L845.077 447.214C843.319 444.968 840.487 442.819 838.045 441.843C834.432 440.475 833.846 439.792 833.846 437.35C833.846 434.909 833.26 434.128 830.038 432.76C827.987 431.882 824.862 429.44 823.006 427.292L819.784 423.581L823.885 419.968C827.791 416.647 827.987 416.159 827.987 411.081C827.987 406.1 827.694 405.319 824.276 401.999C821.541 399.264 819.784 398.385 817.342 398.385C814.51 398.385 812.362 396.725 801.62 386.667L789.217 374.948H782.381C778.573 374.948 775.155 375.436 774.471 376.12C773.885 376.706 769.295 377.292 763.827 377.487C755.721 377.78 753.573 377.487 749.764 375.827L745.272 373.776L744.686 364.401L744.002 355.026L747.518 351.413C750.643 348.19 750.936 347.409 750.643 343.112L750.35 338.327L734.237 336.569C719.491 335.007 712.557 334.909 708.846 336.276C707.87 336.667 706.893 335.69 705.916 333.639C704.745 331.198 703.768 330.417 701.327 330.221C696.737 329.733 695.467 326.999 697.616 322.116C699.862 317.135 698.592 315.378 693.319 316.061C689.998 316.55 689.51 316.257 689.022 314.303C687.948 310.3 688.241 309.811 694.686 305.612C700.448 301.901 701.034 301.218 701.034 298.19C701.034 296.042 701.62 294.577 702.498 294.284C703.768 293.796 703.963 290.28 703.963 270.846V248.093L693.612 232.175C687.85 223.483 678.67 210.397 673.202 203.073C665.096 192.331 662.362 189.401 658.26 187.155C652.694 184.128 651.717 182.858 644.784 170.651L639.998 162.057H632.186C627.889 162.057 621.932 161.374 619.002 160.593C613.534 159.128 609.92 158.835 607.284 159.811Z" fill="white"/>
<circle id="125" cx="314" cy="673" fill="#5CE50D"/>
<circle id="1214" cx="264" cy="470" fill="#E52A0D"/>
<circle id="128" cx="134" cy="623" fill="#E52A0D"/>
<circle id="1600" cx="648" cy="643" fill="#E52A0D"/>
</svg>
