<svg width="1000" height="1000" viewBox="0 0 1000 1000" fill="none" xmlns="http://www.w3.org/2000/svg">
<path d="M790.896 6.5L784.744 12.75L775.174 9.625L771.951 12.75C769.119 15.4844 767.752 15.9727 758.572 17.3398C752.908 18.1211 746.658 19.4883 744.607 20.4648C741.092 22.0273 740.799 21.9297 732.986 18.9023C728.592 17.2422 724.783 16.168 724.49 16.6562C724.197 17.0469 722.928 19.0977 721.658 21.0508C719.021 25.1523 719.119 25.0547 713.357 23.4922C709.353 22.5156 708.475 22.6133 701.248 25.543L693.435 28.668L690.701 38.6289C689.236 44.0977 685.623 53.2773 682.693 59.1367L677.518 69.5859L680.447 75.4453C682.01 78.668 683.377 81.5 683.377 81.793C683.377 82.0859 682.107 82.2812 680.447 82.2812C677.615 82.2812 677.518 82.4766 677.518 86.3828C677.518 88.7266 678.201 93.707 679.178 97.6133L680.74 104.645L665.799 139.117C657.596 158.062 650.564 174.273 650.076 175.152C649.295 176.617 648.611 176.617 643.143 175.445C632.693 173.199 633.572 171.93 633.572 189.703V205.328L638.357 217.926L643.045 230.523L631.131 239.312L630.545 223.883H621.072C612.771 223.785 611.307 223.59 609.06 221.637C607.596 220.465 602.615 216.266 598.025 212.262L589.627 205.133L577.029 201.91L564.529 198.785L558.279 203.473C552.908 207.574 551.346 208.258 547.439 208.258C543.045 208.258 542.85 208.16 542.557 205.133C542.361 202.691 541.287 201.324 537.674 198.785L533.084 195.465L527.127 198.492C523.807 200.152 520.486 201.324 519.705 201.031C518.924 200.738 515.896 198.688 512.967 196.441L507.596 192.438L503.201 193.902L498.807 195.465V189.605C498.807 186.48 498.416 183.844 498.025 183.844C497.635 183.844 495.486 185.602 493.435 187.75C491.385 189.898 489.334 191.656 488.943 191.656C488.65 191.656 487.771 189.703 487.088 187.262L485.818 182.867H472.83L467.068 177.008C463.846 173.785 460.916 171.148 460.525 171.148C460.135 171.148 457.107 175.055 453.885 179.938C450.662 184.723 447.83 188.727 447.635 188.727C447.439 188.727 445.975 186.773 444.412 184.332L441.678 179.938H378.494C319.217 179.938 315.311 180.035 314.822 181.598C314.529 182.574 313.846 186.09 313.162 189.508C311.893 196.051 312.771 195.074 299.686 204.938C299.49 205.133 300.076 208.16 300.955 211.676L302.518 218.023L299.1 223.199C295.779 228.082 295.682 228.668 295.682 236.969V245.66L300.564 252.203C305.252 258.551 305.447 259.039 305.447 265.289C305.447 271.637 305.252 272.125 300.955 277.789C295.877 284.332 295.877 284.527 303.982 286.285C308.768 287.359 309.939 287.262 319.412 284.527C325.174 282.77 331.912 281.5 334.939 281.5C339.236 281.5 340.994 280.914 344.998 278.18C348.904 275.641 351.541 274.762 358.182 273.785C372.83 271.734 371.853 272.223 371.853 266.852V262.164L384.549 259.039L394.217 265.387L403.787 271.832L410.135 268.707L416.58 265.582L422.537 270.172C425.76 272.711 428.494 275.055 428.494 275.445C428.494 275.836 427.811 280.328 427.029 285.406C426.248 290.484 425.564 295.172 425.564 295.855C425.564 296.441 427.908 297.516 430.74 298.102C433.475 298.785 436.502 299.664 437.381 300.152C438.26 300.543 441.58 305.035 444.9 310.016L450.955 319.195V334.039L444.607 339.02C438.357 344 438.26 344.098 438.26 348.785C438.26 353.473 438.26 353.473 430.74 359.43C422.439 366.07 422.146 366.07 411.014 364.117L403.885 362.848L404.471 366.07C404.764 367.926 405.35 370.855 405.643 372.613C406.228 375.738 405.936 376.129 400.174 380.426C395.682 383.746 392.361 387.359 387.869 394.195C384.451 399.371 381.619 403.766 381.619 404.059C381.619 404.352 383.67 409.43 386.209 415.387L390.701 426.031L387.674 429.938C377.42 442.828 378.299 441.07 379.666 445.953C380.35 448.395 381.424 450.738 382.01 451.227C382.596 451.715 389.627 453.961 397.537 456.305C406.228 458.844 412.381 461.188 412.771 462.066C413.26 462.945 414.139 466.559 414.822 470.172L415.994 476.812H431.912L444.412 487.652C451.248 493.609 456.619 498.785 456.424 499.176C456.228 499.469 454.275 502.984 451.932 506.891C447.928 513.727 447.83 514.117 449.002 517.73C450.076 521.246 449.978 521.734 445.682 530.426L441.092 539.41L447.537 553.668C451.053 561.578 453.494 568.219 453.103 568.512C452.615 568.805 450.662 570.074 448.709 571.344C446.756 572.613 445.096 573.98 445.096 574.371C445.096 574.762 447.732 577.008 450.955 579.352C454.178 581.695 456.814 583.746 456.814 583.844C456.814 583.941 454.861 585.309 452.42 586.871C447.537 589.898 447.439 590.289 449.393 597.613L450.76 602.594L441.189 611.969L450.369 621.344H444.119V643.609L434.939 646.734C424.588 650.152 425.467 648.883 423.611 663.043C422.439 671.832 422.342 672.027 417.654 676.617L412.869 681.305L424.978 693.609H420.975C416.287 693.609 415.896 694 412.478 702.887L409.842 709.723L394.51 708.16C386.111 707.281 379.08 706.5 378.982 706.402C378.885 706.402 380.057 703.18 381.717 699.371C383.279 695.465 384.549 691.949 384.549 691.461C384.549 690.68 371.463 671.734 369.217 669.195C369.021 669 361.014 676.617 351.443 686.188L334.061 703.473L313.26 700.543C301.834 698.883 289.139 697.516 285.135 697.516H277.713L287.088 687.945L279.275 681.793L271.365 675.543V670.758C271.268 668.023 269.803 661.48 268.143 656.207L264.92 646.441L255.252 641.754C246.463 637.359 244.9 636.969 238.65 636.969C234.842 636.969 228.494 637.652 224.588 638.629L217.557 640.289V656.402L221.951 659.43C224.393 661.09 226.346 662.945 226.346 663.434C226.346 664.02 224.295 671.148 221.853 679.254L217.361 694.098L170.193 700.348L163.846 694.195L149.686 698.883L135.525 703.473L128.299 697.613C124.295 694.293 120.779 691.656 120.486 691.656C120.193 691.656 119.9 696.539 119.9 702.594V713.434L124.393 721.148C126.932 725.445 128.592 729.254 128.103 729.645C127.615 730.035 124.002 732.965 120.096 736.09C113.064 741.656 113.064 741.656 113.064 746.441C113.064 749.078 113.26 751.227 113.553 751.227C113.846 751.227 116.775 749.859 119.998 748.199C123.318 746.539 126.053 745.367 126.248 745.562C126.346 745.758 129.861 751.812 133.865 759.039L141.189 772.223L136.893 772.516C131.619 772.906 131.717 772.418 135.037 787.066C135.33 788.141 138.553 791.363 142.264 794.098C148.123 798.492 149.49 799.078 153.787 799.078C158.182 799.078 158.963 799.469 162.771 803.375L166.971 807.672L162.283 810.895C158.279 813.531 146.658 826.422 145.389 829.645C145.193 830.133 147.83 833.258 151.15 836.676L157.205 842.828L154.08 847.418C151.443 851.324 150.564 851.812 148.416 851.422C146.951 851.129 142.166 850.348 137.674 849.762L129.568 848.688L124.783 839.117C120.779 831.012 119.412 829.254 115.31 826.617C112.771 824.957 110.33 823.883 110.037 824.273C109.744 824.664 108.182 828.18 106.717 831.988C105.154 835.895 103.787 839.117 103.494 839.117C103.299 839.117 100.467 838.434 97.2441 837.652L91.4824 836.09L84.9394 840.973C78.3964 845.758 78.3964 845.855 72.3417 859.625C68.9238 867.34 66.4824 873.883 66.6777 874.371C66.9707 874.762 72.0488 878.57 77.8105 882.672C87.5761 889.508 88.5527 890.484 89.7246 894.488C90.8964 898.98 97.7324 909.234 101.736 912.848C103.006 913.922 112.381 921.93 122.732 930.719C132.986 939.508 141.385 946.93 141.385 947.32C141.385 947.711 140.701 950.348 139.92 953.277C139.139 956.207 138.748 958.941 138.943 959.332C139.236 959.723 141.385 961.285 143.728 962.75L147.928 965.387L146.463 970.172L144.9 974.957L170.291 1000.35L178.299 993.902C182.693 990.387 186.307 987.359 186.307 987.262C186.307 987.164 186.99 983.355 187.771 978.766C188.553 974.176 189.236 970.27 189.236 970.074C189.236 969.781 190.506 970.855 192.166 972.418C194.998 975.152 195.096 975.152 200.76 973.883C207.986 972.418 208.182 972.32 209.451 967.535C210.037 965.387 211.502 960.504 212.576 956.695L214.627 949.859L227.518 947.027C234.646 945.562 241.385 943.805 242.459 943.121C243.533 942.438 246.853 938.824 249.783 935.016L255.154 928.082L261.6 927.984H268.045L269.217 932.086C270.096 935.211 272.635 938.434 278.787 944.781L287.186 953.18L291.092 951.812C293.24 951.031 295.291 950.445 295.779 950.445C296.17 950.445 299.978 955.23 304.178 961.188L311.795 971.93H324.588L331.033 985.016L334.061 979.938C335.818 977.203 337.967 973.59 338.846 971.93L340.603 968.902L344.9 971.832C347.342 973.492 349.49 974.859 349.686 974.859C349.978 974.859 351.736 972.711 353.592 970.074C356.033 966.656 358.182 964.996 360.818 964.117C362.869 963.434 364.822 962.652 365.213 962.262C365.603 961.969 365.213 955.328 364.334 947.711L362.771 933.648L367.264 929.156C369.803 926.715 371.951 924.859 372.146 925.055C372.342 925.348 374.588 928.277 377.127 931.695L381.717 937.75H394.119L400.369 927.984H409.842C418.924 927.984 419.51 927.887 421.756 925.445C423.904 923.004 428.299 919.977 437.478 914.41L441.092 912.262L439.529 916.754L437.967 921.344L444.217 927.594L450.369 933.844L437.869 946.539L441.092 953.18L444.314 959.918L442.752 971.93C441.873 978.57 441.385 984.137 441.482 984.332C441.678 984.527 445.193 983.258 449.393 981.5L456.912 978.473L463.162 984.625L469.412 990.875L475.564 987.945C478.885 986.383 484.06 983.551 486.99 981.598C491.971 978.473 492.85 977.203 497.244 968.414C501.834 959.039 502.322 958.453 512.967 949.469C521.951 941.852 524.49 939.117 527.225 933.844C530.447 927.887 530.838 927.496 537.381 924.762C541.775 922.906 546.756 921.637 551.443 921.246L558.768 920.66L563.357 912.945C566.775 907.281 568.338 903.375 569.217 898.492C569.9 894.781 570.877 891.168 571.463 890.484C573.416 888.043 588.064 883.355 597.439 882.184C606.424 881.012 615.408 878.766 617.459 877.105C618.045 876.715 619.803 872.32 621.365 867.34C623.904 859.43 624.588 858.258 627.42 856.891C631.033 855.133 631.033 855.133 632.693 844.488C634.06 835.504 638.357 826.031 645.096 817.242C649.393 811.676 649.49 811.383 648.123 808.453C647.146 806.109 646.756 799.078 646.463 778.863L646.17 752.301L649.685 740.289C651.541 733.746 653.103 726.52 653.103 724.371C653.103 722.125 651.541 715.777 649.685 710.211C646.463 700.738 646.268 699.176 646.268 687.945V675.836L652.713 667.73C656.228 663.238 665.408 654.059 673.318 647.125C686.697 635.309 688.162 633.648 697.049 620.367L706.424 606.207L707.986 596.734L709.646 587.164L719.217 576.031C724.49 569.879 733.67 560.602 739.725 555.523L750.564 546.148H759.939C768.728 546.148 769.803 545.953 775.955 542.828C781.131 540.191 783.67 538.141 787.869 532.867C790.799 529.156 798.514 520.66 805.057 513.922C812.771 506.012 818.631 498.98 821.658 494L826.346 486.285L824.685 472.516C823.709 464.898 823.025 455.133 823.025 450.641C823.025 443.023 823.221 442.145 827.713 433.062C831.033 426.52 833.475 419.586 835.623 410.895L838.748 398.199L845.193 391.656C851.346 385.406 851.639 384.918 852.908 377.984C855.057 366.07 855.057 366.266 848.416 363.043L842.557 360.211V350.934C842.557 345.758 843.24 339.215 843.924 336.383C845.096 332.086 845.096 330.523 843.924 326.129C843.24 323.395 842.557 316.852 842.557 311.773V302.594L848.611 296.441L854.666 290.387L851.541 268.316L856.326 263.434L861.014 258.551L862.576 246.051C864.041 234.527 864.139 232.867 862.674 224.078L861.014 214.605L864.041 205.914C866.873 197.516 866.971 196.441 866.971 181.012V164.801L873.709 157.965C879.178 152.398 880.936 149.762 883.182 143.805C884.744 139.801 887.576 134.039 889.529 131.109C894.314 123.688 899.197 110.699 899.197 105.426V101.129L906.814 98.1992L914.334 95.2695L914.92 78.8633L922.635 71.0508L930.447 63.2383L931.912 49.1758C932.693 41.4609 933.377 34.332 933.377 33.3555C933.377 31.9883 931.521 30.6211 927.225 28.4727C921.561 25.6406 920.584 24.7617 916.385 17.7305C913.846 13.4336 911.502 10.0156 911.111 10.0156C910.721 10.0156 908.475 11.3828 906.033 12.9453C902.029 15.582 900.857 15.875 893.729 15.875H885.818L884.451 21.9297C882.986 28.1797 882.205 29.1562 876.053 31.0117C873.904 31.5977 873.807 31.4023 873.807 25.1523C873.807 19.4883 873.611 18.707 872.146 19.1953C871.17 19.4883 866.775 20.1719 862.283 20.8555L854.275 22.125L847.928 15.9727L842.557 17.3398C839.627 18.1211 836.893 18.8047 836.502 18.8047C836.014 18.8047 835.721 16.8516 835.721 14.4102C835.721 10.3086 835.525 10.0156 833.084 10.0156C830.252 10.0156 814.92 11.6758 810.135 12.457C807.791 12.8477 806.912 12.0664 802.908 6.59766C800.369 3.08203 798.025 0.25 797.635 0.25C797.342 0.25 794.314 3.08203 790.896 6.5Z" fill="white"/>
<circle id="145" cx="540" cy="908" fill="#5CE50D"/>
<circle id="1601" cx="633" cy="246" fill="#E52A0D"/>
<circle id="147" cx="239" cy="878" fill="#E52A0D"/>
<circle id="146" cx="144" cy="938" fill="#E52A0D"/>
</svg>
