<svg width="1000" height="1000" viewBox="0 0 1000 1000" fill="none" xmlns="http://www.w3.org/2000/svg">
<path d="M574.98 194.75C575.549 198.07 575.549 198.07 572.704 197.5C570.617 197.026 569.004 197.5 567.012 198.923C565.4 199.967 563.218 200.915 562.175 200.915C559.708 200.915 550.697 209.073 550.697 211.255C550.697 212.108 548.8 214.954 546.618 217.515C542.919 221.689 542.35 222.922 541.875 228.139C541.306 233.64 541.401 234.115 543.773 235.917C545.101 237.055 547.662 237.909 549.369 237.909C551.93 237.909 552.594 238.288 552.594 239.711C552.594 241.703 555.06 243.126 555.914 241.703C556.199 241.229 558.57 240.565 561.131 240.185C564.925 239.711 565.874 239.237 565.874 237.814C565.874 236.676 566.538 236.012 567.676 236.012C568.625 236.012 569.953 235.348 570.617 234.589C571.376 233.64 573.557 233.166 577.257 233.166C583.327 233.166 585.794 234.874 585.794 239.142C585.794 241.988 584.371 243.316 583.517 241.134C583.232 240.375 582.474 239.996 581.905 240.28C581.241 240.755 581.146 242.652 581.525 245.687C582.379 251.948 580.861 255.837 577.636 255.173C575.739 254.793 575.359 254.224 575.359 251.568C575.359 249.292 574.885 248.153 573.747 247.774C572.798 247.489 570.427 246.541 568.435 245.687C564.831 244.264 564.831 244.264 562.269 247.015C560.847 248.533 557.906 250.62 555.724 251.568C551.076 253.655 550.223 256.501 553.922 257.449C558.38 258.493 557.432 260.295 551.266 262.477C545.954 264.374 545.101 264.374 542.255 263.235C539.883 262.192 538.366 262.097 536.564 262.856C530.303 265.133 517.118 259.251 516.359 253.845C516.17 252.137 515.221 251.568 512.281 250.999C505.735 249.861 502.89 249.102 500.898 247.774C497.862 245.592 495.87 246.256 493.309 250.24C491.602 252.991 489.989 254.224 487.239 254.983C485.247 255.457 483.065 256.595 482.401 257.354C481.737 258.113 479.84 258.967 478.133 259.346C475.477 259.821 474.813 260.485 474.243 262.951C473.39 267.219 473.2 267.314 469.785 265.891C467.034 264.753 466.56 264.753 464.758 266.46C463.525 267.694 461.533 268.263 459.067 268.168C445.407 267.978 443.7 268.073 441.329 269.686C439.716 270.634 437.914 271.108 436.491 270.729C434.689 270.255 434.214 269.401 433.835 265.891C433.076 259.346 432.222 258.777 422.547 258.777H414.105L411.544 263.899L409.078 268.927L403.291 269.496C400.066 269.78 395.418 270.824 392.952 271.962C390.391 273.1 386.502 273.954 384.225 273.954C380.716 273.954 379.767 273.48 378.06 271.108C375.594 267.599 376.068 264.469 379.198 263.046C380.621 262.382 381.285 261.433 381.095 260.2C380.811 258.018 380.811 257.354 381.095 254.129C381.569 250.43 379.767 250.904 373.981 256.026L368.479 260.959L362.409 260.295C356.338 259.726 356.338 259.726 354.82 262.571C353.967 264.184 351.216 267.788 348.655 270.729C343.438 276.42 342.963 278.033 345.904 281.163C348.18 283.534 347.611 285.147 343.248 289.321L340.592 291.882L335.944 288.941L331.296 285.906L329.589 288.088C327.217 291.028 327.312 291.977 330.063 291.977C331.296 291.977 332.814 292.546 333.383 293.21C334.237 294.253 333.288 295.676 328.925 299.66C322.285 306.015 318.585 307.723 314.507 306.3C310.902 305.067 295.725 306.679 293.638 308.576C292.405 309.715 291.836 309.62 289.844 308.102C288.516 307.059 285.955 306.205 284.058 306.205C278.651 306.205 277.133 304.403 277.892 299.47C279.789 288.182 279.979 289.131 276.659 289.131C274.952 289.131 272.391 288.182 270.873 287.139C268.027 284.957 266.604 285.052 258.731 287.329C255.412 288.372 253.989 288.372 250.194 287.234C247.728 286.57 243.27 285.716 240.329 285.526C233.405 285.052 232.741 286.285 235.587 294.253C236.725 297.383 237.579 299.944 237.389 300.039C237.294 300.039 234.828 301.272 231.982 302.695C229.137 304.118 226.196 305.256 225.532 305.256C224.868 305.256 224.394 306.49 224.394 308.102C224.394 309.904 223.73 311.232 222.497 311.896C221.453 312.465 218.987 315.311 216.9 318.346C214.908 321.382 212.537 324.417 211.683 325.081C210.829 325.745 210.165 327.547 210.165 329.065V331.816L213.865 329.919C217.09 328.306 218.323 328.211 222.781 328.97C227.05 329.824 228.852 329.634 233.784 328.117C241.278 325.84 245.262 326.694 248.108 331.247C250.669 335.515 249.53 338.646 244.408 341.207C242.416 342.25 239.665 344.432 238.432 346.044C236.725 348.226 235.018 349.08 231.128 349.839C228.283 350.408 225.817 350.977 225.627 351.167C225.342 351.356 225.911 352.874 226.67 354.486C229.895 360.652 228.947 363.023 219.936 372.035C202.956 388.729 203.146 388.445 205.423 389.678C207.32 390.721 207.13 391.006 201.534 395.369C198.214 397.93 193.566 400.681 191.194 401.63C185.598 403.717 183.796 405.424 183.037 409.218C182.562 411.684 181.993 412.348 180.001 412.633C178.199 412.823 176.871 414.056 175.353 416.712C174.215 418.704 172.413 420.791 171.369 421.17C169.093 422.024 168.714 424.964 170.8 426.672C172.887 428.379 171.654 429.517 167.575 429.517C163.971 429.517 163.876 429.612 160.935 436.157C158.09 442.702 157.9 442.797 154.39 442.797C152.398 442.797 150.406 443.176 149.932 443.651C148.225 445.263 133.902 450.575 130.866 450.765C128.59 450.86 126.787 452.093 122.614 456.646C115.784 464.045 115.12 466.606 119.009 471.918C121.475 475.332 121.95 476.85 121.95 481.498C121.95 486.051 121.57 487.474 119.294 490.225C115.5 494.873 114.646 502.271 117.302 506.825L119.294 510.145L116.827 514.413C114.456 518.397 114.077 518.681 110.188 518.681C106.299 518.681 106.014 518.871 103.548 523.519C102.03 526.175 100.228 528.546 99.2792 528.831C95.0107 530.254 81.1618 539.36 79.5492 541.921C78.5058 543.439 71.2019 550.268 63.4238 557.098C55.5508 563.833 48.3417 570.852 47.3932 572.654L45.5909 575.879L48.816 578.441C50.9028 580.243 52.2308 582.424 52.8 585.08C53.6537 588.875 53.5588 589.254 50.144 593.048C48.152 595.135 44.7372 599.783 42.4607 603.293C38.4768 609.363 38.3819 609.743 39.4253 613.537C40.0893 616.003 40.1842 617.9 39.615 618.564C39.1408 619.228 38.4768 620.841 38.1922 622.169C37.4334 625.109 40.4687 628.335 46.8241 631.465C50.2389 633.172 51.472 634.595 53.6537 639.338L56.4045 645.124L52.136 650.626C49.8594 653.566 47.9623 656.791 47.9623 657.645C47.9623 658.499 47.3932 660.111 46.8241 661.249C46.1601 662.388 45.5909 666.087 45.5909 669.407V675.478L40.8482 676.806C38.2871 677.565 35.1568 679.082 34.1134 680.031C32.6906 681.359 31.3626 681.738 29.75 681.359C26.2404 680.41 18.4622 684.963 16.2806 689.137C14.5731 692.457 14.5731 692.647 16.2806 693.88C17.2291 694.544 18.5571 695.113 19.2211 695.113C20.9285 695.113 20.8336 695.967 18.0828 702.132C16.7548 705.073 15.7114 707.729 15.7114 707.918C15.7114 708.203 17.988 708.393 20.8336 708.393C23.6793 708.393 27.0941 708.772 28.4221 709.341C30.5089 710.1 31.078 709.816 32.7854 707.444C34.4928 705.073 35.062 704.788 37.1488 705.547C45.8755 708.867 59.1553 703.935 65.7952 695.018C69.3048 690.18 70.6328 689.327 77.4624 686.576C85.5251 683.256 86.8531 681.833 86.8531 676.237C86.8531 672.632 85.0509 671.114 82.6795 672.822C80.4029 674.529 76.419 672.822 76.419 670.071C76.3242 666.941 73.0042 660.301 70.8225 659.068C69.6843 658.499 68.8306 657.171 68.8306 656.032C68.8306 652.238 76.0396 642.563 82.3001 638.01C85.62 635.638 89.3194 632.508 90.5525 631.18C91.8805 629.852 93.7776 628.714 94.821 628.714C98.0461 628.714 110.757 624.825 115.689 622.359C118.345 621.031 122.614 618.28 125.27 616.288L130.202 612.589H149.078C169.472 612.589 167.196 612.209 191.479 619.323L197.834 621.22V628.05C197.834 637.061 195.463 641.045 189.961 641.045C185.977 641.045 185.598 643.606 189.202 646.452C190.815 647.685 192.143 649.487 192.143 650.436C192.143 651.859 194.514 654.135 204.759 662.957C206.466 664.38 204.284 672.632 201.249 676.047C197.075 680.79 195.937 683.825 195.937 690.75C195.937 696.156 195.652 696.915 192.807 699.666C190.246 702.132 189.677 703.365 190.056 705.547C190.625 709.531 195.273 712.187 201.439 712.187C204.19 712.187 208.079 712.851 210.165 713.705L213.96 715.222V721.008C213.96 725.562 213.58 727.174 211.968 728.881C209.501 731.537 210.165 735.616 213.296 736.849C215.003 737.513 215.857 737.134 218.228 734.573L221.074 731.443L224.489 734.857C226.291 736.755 229.042 740.264 230.37 742.73C231.792 745.102 233.974 747.948 235.207 748.896C239.76 752.501 241.278 757.623 239.096 762.65C238.527 763.978 239.191 764.547 242.796 765.496C247.444 766.729 247.633 767.013 246.305 771.567C245.547 774.317 245.831 775.076 250.1 780.104C252.661 783.234 254.748 786.459 254.748 787.313C254.748 788.166 255.791 789.874 257.024 791.107C258.257 792.34 259.49 794.142 259.68 795.186C260.249 798.505 263.759 798.031 266.604 794.237C269.545 790.443 272.011 790.443 274.952 794.332C277.418 797.462 282.256 797.557 282.256 794.427C282.256 791.202 286.05 788.071 289.749 788.071C293.069 788.071 297.717 784.182 298.855 780.388C299.33 778.87 299.994 778.586 301.511 778.965C302.65 779.345 305.78 780.009 308.341 780.388C310.997 780.862 314.696 782.001 316.593 782.854C319.818 784.467 320.008 784.467 322 782.475C323.044 781.432 325.036 780.483 326.269 780.483C327.881 780.483 329.494 779.345 331.106 777.258C332.624 775.171 334.616 773.843 336.134 773.653C338.126 773.464 338.79 772.8 338.979 770.713C339.169 769.005 339.833 768.152 340.971 768.152C341.92 768.152 343.248 767.488 343.912 766.729C344.576 765.97 346.283 765.306 347.611 765.306C351.026 765.306 353.303 763.504 354.156 760.089C355.2 756.295 357.856 755.915 360.512 759.235C362.314 761.417 363.452 761.891 366.772 761.986C369.049 761.986 372.558 761.607 374.455 761.227C377.586 760.563 378.25 760.753 381.285 763.883C383.087 765.685 385.459 767.203 386.597 767.203C388.209 767.203 388.494 767.772 388.494 770.997C388.494 774.222 388.873 774.886 390.865 775.361C392.478 775.74 393.996 775.266 395.703 773.938C399.307 771.092 401.679 771.472 405.663 775.361C408.508 778.112 409.457 778.586 410.88 777.732C411.923 777.258 415.148 776.499 418.089 776.214C424.065 775.55 423.685 776.025 425.108 765.78C425.582 762.271 426.531 760.374 428.523 758.476C431.084 756.105 432.033 755.82 440.475 755.631L449.676 755.346L452.711 750.129C454.324 747.284 456.6 743.394 457.739 741.592C459.541 738.746 459.73 737.893 458.782 735.332C457.454 731.727 458.782 727.079 462.292 723.285C464.189 721.293 465.612 720.724 468.552 720.724C473.769 720.724 476.899 718.922 477.943 715.507C478.417 713.894 480.124 711.807 481.737 710.764C483.919 709.436 484.867 708.013 485.057 706.021C485.152 704.409 485.721 701.373 486.385 699.097C487.239 695.682 487.144 694.828 485.816 693.311C484.962 692.362 483.634 689.516 482.875 686.955C482.022 683.825 480.219 680.979 477.658 678.513C471.398 672.537 471.398 672.253 475.951 665.708C479.745 660.396 480.219 660.016 482.875 660.491C491.887 662.388 492.551 662.293 496.534 658.973C499.285 656.602 500.518 654.799 500.898 652.238C501.372 649.393 502.036 648.539 504.502 647.685C508.107 646.452 520.343 635.069 520.343 632.982C520.343 632.224 519.3 630.611 517.972 629.473C513.324 625.489 514.557 623.971 526.888 617.806C535.805 613.442 539.219 612.209 542.729 612.209C547.093 612.114 547.377 612.304 549.464 615.908C553.163 622.548 552.31 641.52 547.757 653.661L545.006 661.06L547.377 667.415C551.551 678.608 552.31 679.557 559.708 682.877L566.443 685.912L574.79 700.52C582.758 714.558 583.138 715.033 586.173 715.033C587.975 715.033 590.536 715.981 592.528 717.499C594.331 718.827 597.366 720.724 599.263 721.767L602.868 723.57L607.326 721.293L611.879 719.017L615.199 721.767C618.898 724.898 620.511 725.182 623.451 723.095C625.348 721.767 625.728 721.957 630.186 726.984C635.119 732.676 635.783 736.185 632.178 737.134C630.755 737.513 630.471 738.177 630.85 740.359C631.324 742.636 630.85 743.394 627.53 745.766C624.115 748.042 621.839 751.362 621.839 753.829C621.839 754.208 623.451 755.062 625.538 755.631C627.815 756.39 630.85 758.571 633.601 761.512C636.257 764.357 639.197 766.539 640.905 766.919C643.371 767.393 643.656 767.772 643.656 771.282C643.656 774.412 644.32 775.835 646.975 778.586C649.631 781.337 650.39 783.044 651.434 788.735C652.477 795.375 652.477 795.66 650.485 797.842C648.493 799.928 647.734 803.248 648.967 804.481C649.252 804.766 651.149 804.387 653.141 803.723C656.556 802.49 656.84 802.584 658.832 804.671C660.445 806.473 661.394 806.758 663.101 806.094C664.808 805.43 665.377 805.715 666.326 807.612C666.895 808.94 668.128 809.888 669.267 809.888C673.25 809.888 674.863 808.086 676.95 801.067C678.088 797.367 679.985 793.194 681.218 791.866C682.451 790.538 683.685 788.071 684.064 786.554C684.538 783.898 684.159 783.234 680.46 780.198C678.183 778.396 675.337 776.594 674.009 776.214C672.112 775.74 671.258 774.412 669.551 769.195C666.895 761.227 666.895 760.374 669.361 758.097C671.164 756.484 671.258 755.631 670.689 749.465C670.12 743.394 670.31 742.161 672.112 739.316C673.25 737.324 675.337 735.616 677.234 734.952C683.495 732.865 685.582 728.407 683.874 720.06C683.305 717.214 683.59 716.93 688.712 713.989C691.652 712.377 694.593 710.005 695.067 708.772C695.636 707.539 696.87 706.306 697.818 706.021C698.767 705.737 699.81 704.598 700.095 703.555C700.474 702.512 701.517 701.753 702.845 701.753C704.648 701.753 705.501 700.709 707.114 697.105C708.157 694.544 709.106 691.983 709.106 691.414C709.106 690.844 710.149 689.706 711.382 688.852C712.71 688.094 714.038 686.102 714.323 684.584C714.797 682.687 715.556 681.833 716.789 681.833C718.212 681.833 718.591 681.169 718.591 678.513C718.591 676.331 720.489 671.399 723.903 664.569C728.931 654.515 729.12 653.756 728.551 648.729C728.267 645.788 727.792 640.002 727.508 635.828C727.034 628.619 726.844 628.05 723.429 624.445C718.212 618.944 718.022 617.9 722.386 615.908C726.18 614.201 727.128 612.114 727.128 605.38C727.128 603.577 727.887 601.396 728.836 600.447C733.199 596.084 745.151 595.325 745.151 599.404C745.151 601.111 746.669 604.526 748.661 607.561C749.135 608.13 750.653 608.984 752.076 609.269C754.447 609.933 754.826 609.648 756.534 605.569C758.526 601.301 761.466 598.36 763.932 598.36C765.071 598.36 765.166 599.593 764.691 604.716C762.889 623.781 762.889 623.497 764.976 627.576C766.114 629.757 766.968 632.982 766.968 634.785C766.968 638.2 768.58 640.476 771.521 641.425C772.375 641.709 774.367 644.365 775.884 647.211C779.584 654.42 786.224 660.775 790.587 661.439C792.484 661.724 795.804 662.862 797.986 663.811C801.875 665.613 802.064 665.613 807.376 663.811C810.317 662.767 814.111 661.913 815.724 661.913C819.423 661.913 821.984 658.214 821.984 652.712C821.984 650.72 822.364 648.634 822.743 648.065C823.976 646.167 827.106 646.073 830.142 647.875C833.082 649.582 833.272 649.582 837.351 647.78C839.722 646.831 842.473 644.839 843.516 643.511C844.939 641.709 846.362 641.045 848.828 641.045C850.63 641.045 853.95 640.381 856.227 639.622C858.503 638.769 861.254 638.294 862.298 638.579C863.341 638.864 865.238 638.484 866.471 637.82C868.558 636.682 869.032 636.872 873.206 641.14L877.759 645.788L879.087 663.336L885.253 667.415L891.513 671.589L891.039 677.565C890.47 683.541 890.565 683.635 893.221 684.774C895.592 685.722 896.256 685.627 897.869 684.205C899.481 682.782 900.43 682.687 904.319 683.446C909.346 684.394 913.045 683.635 913.045 681.549C913.045 680.79 914.089 678.608 915.417 676.616C917.599 673.486 917.693 672.917 916.555 671.494C915.796 670.64 912.761 665.803 909.82 660.775L904.319 651.669L905.836 646.073C906.595 643.037 907.544 639.622 907.923 638.579C908.208 637.441 909.915 635.733 911.717 634.785C914.373 633.362 914.943 632.508 914.943 629.947C914.943 627.86 914.373 626.532 913.045 625.868C911.907 625.299 911.148 623.876 911.148 622.548C911.148 619.798 910.579 619.703 904.034 621.41C901.473 622.074 898.343 622.453 897.11 622.264C894.264 621.79 890.944 615.339 891.703 611.735C891.987 610.312 891.798 608.035 891.324 606.613C890.565 604.81 890.754 603.008 891.703 600.162C892.462 597.981 893.126 594.187 893.126 591.72C893.126 588.211 893.6 586.883 895.497 585.08C896.825 583.752 897.869 581.76 897.869 580.338C897.869 578.915 898.912 576.923 900.24 575.595C901.568 574.362 902.896 571.99 903.18 570.188C903.75 567.342 904.129 567.058 906.975 567.058C908.777 567.058 912.381 566.014 914.943 564.686C917.504 563.358 921.013 562.315 922.626 562.315C924.428 562.315 926.989 561.367 928.792 559.944C932.586 557.098 932.965 557.762 932.965 567.153V573.793L937.044 575.5C940.079 576.828 941.882 578.441 943.779 581.76C945.771 584.986 946.814 586.029 947.952 585.555C948.901 585.27 954.118 584.796 959.62 584.606C967.398 584.322 970.054 584.511 971.477 585.555C973.753 587.262 977.927 587.357 979.255 585.744C979.729 585.175 980.677 582.709 981.341 580.338C981.911 577.966 983.144 575.026 983.903 573.793C984.851 572.275 985.231 570.093 984.946 566.868C984.472 562.884 983.903 561.841 980.393 558.805C976.788 555.675 975.935 555.391 971.477 555.58L966.639 555.77L965.311 550.743C962.94 541.826 963.319 538.886 967.682 535.281C970.623 532.72 971.192 531.866 970.243 530.918C969.579 530.254 969.01 528.546 969.01 527.124C969.01 524.847 969.959 523.709 976.409 519.061C976.599 518.966 975.84 517.164 974.796 514.982C972.141 509.86 972.33 508.153 975.65 504.927C977.737 502.935 978.496 501.323 978.496 499.046C978.496 497.244 979.35 494.209 980.393 492.122C981.626 489.656 982.29 486.525 982.29 482.731C982.29 479.127 982.954 475.427 984.187 472.582C985.42 469.831 986.084 466.511 985.895 464.329C985.61 460.345 985.61 460.345 975.46 455.603C972.994 454.464 971.856 453.231 971.856 451.903C971.761 449.911 965.975 442.797 964.267 442.797C963.793 442.797 961.422 443.746 959.145 444.884C956.015 446.402 954.497 447.824 953.454 450.291C952.695 452.188 950.988 454.749 949.66 455.982C947.857 457.689 947.193 459.302 947.193 461.768C947.193 464.519 946.719 465.467 944.822 466.511C942.735 467.649 941.976 467.554 938.846 466.132L935.337 464.424L932.775 467.554C930.499 470.305 930.119 471.538 930.119 476.66V482.636H926.989C925.092 482.636 922.152 483.869 919.211 485.861C915.701 488.138 912.856 489.181 908.777 489.656C903.275 490.32 902.991 490.225 900.335 487.474C898.722 485.861 896.541 484.533 895.497 484.533C893.979 484.533 892.367 483.016 889.901 479.316C887.34 475.427 885.917 474.099 884.209 474.099C882.881 474.099 880.605 473.056 879.087 471.728C876.905 469.831 875.198 469.357 871.404 469.357C867.23 469.357 865.618 468.787 860.97 465.657C855.563 461.958 855.468 461.768 854.804 456.646C854.425 452.852 854.614 450.385 855.753 447.635C857.081 444.125 857.081 443.651 855.753 441.659C854.899 440.52 854.235 438.339 854.235 436.916C854.235 433.786 854.235 433.786 849.587 436.062L845.983 437.959L840.007 434.26C835.833 431.699 832.418 430.371 828.719 429.897C825.873 429.517 820.182 428 816.103 426.577C807.945 423.541 799.788 423.067 791.441 425.059C787.741 425.913 786.698 425.818 784.611 424.49C781.576 422.498 779.299 422.498 775.031 424.49C771.9 426.008 771.616 426.008 770.098 424.49C768.58 422.972 768.77 422.593 773.892 417.376C780.627 410.641 780.817 408.08 775.979 397.551C773.703 392.524 772.659 389.014 772.659 385.884C772.659 380.192 776.264 369.663 781.006 361.506C783.188 357.901 785.56 353.064 786.508 350.787C787.457 348.511 789.543 345.38 791.251 343.957C792.958 342.44 794.855 339.594 795.519 337.697C796.089 335.8 797.701 332.195 799.029 329.634C801.4 325.271 801.495 325.176 806.048 325.176C810.032 325.176 810.601 324.892 810.601 323.279C810.601 322.141 809.937 320.338 809.273 319.2C808.515 318.062 807.566 314.268 807.187 310.853C806.617 305.446 806.807 304.498 808.23 303.928C809.843 303.359 809.843 303.264 808.23 301.462C807.281 300.419 805.859 299.565 805.1 299.565C804.436 299.565 802.539 298.711 801.021 297.573C799.503 296.53 797.891 295.866 797.416 296.15C795.614 297.289 787.267 285.432 784.99 278.412C783.473 273.764 782.809 273.1 773.323 266.366C767.727 262.477 760.897 257.449 758.146 255.268C755.301 252.991 748.756 249.292 743.349 247.015C738.037 244.644 732.63 241.893 731.207 240.849C727.603 237.909 721.911 236.676 715.746 237.435C710.813 238.004 709.865 237.814 705.122 235.158C701.517 233.071 698.672 232.218 695.731 232.218C693.455 232.218 688.333 231.364 684.443 230.226C678.088 228.423 676.665 228.328 671.164 229.372C667.749 230.036 662.247 232.028 658.832 233.735C654.469 236.012 651.529 236.96 648.398 236.96C644.414 236.96 643.656 236.581 641.094 233.356C639.577 231.459 637.774 228.898 637.205 227.759C636.162 225.957 636.352 225.673 638.154 225.388C642.043 224.819 640.81 223.017 634.455 219.886C630.945 218.084 627.245 216.092 626.392 215.333C624.874 214.1 624.305 214.195 620.89 216.566C618.803 217.989 617.096 219.317 617.096 219.412C617.096 219.507 618.803 220.74 620.89 222.163C624.969 224.819 625.538 226.526 623.167 228.518C622.028 229.467 621.27 229.467 619.847 228.613C618.898 227.949 617.286 227.475 616.337 227.475C614.061 227.475 611.689 224.914 610.836 221.309C610.456 219.697 609.602 217.61 608.938 216.566C606.946 213.816 607.326 210.685 609.508 210.116C610.551 209.832 611.405 208.978 611.405 208.219C611.405 206.417 608.18 205.279 604.101 205.563C601.54 205.753 601.065 205.468 600.496 202.812C599.073 196.267 591.106 190.955 591.58 196.836C591.864 201.295 591.58 202.812 590.157 202.812C589.398 202.812 588.355 201.01 587.691 198.164C586.742 193.991 586.268 193.516 583.043 192.473C581.051 191.904 578.3 191.43 576.877 191.43C574.506 191.43 574.316 191.619 574.98 194.75Z" fill="white"/>
<circle id="773" cx="306" cy="430" fill="#5CE50D"/>
<circle id="656" cx="581" cy="327" fill="#E52A0D"/>
<circle id="657" cx="53" cy="696" fill="#E52A0D"/>
<circle id="659" cx="158" cy="604" fill="#E52A0D"/>
</svg>
