<svg width="1000" height="1000" viewBox="0 0 1000 1000" fill="none" xmlns="http://www.w3.org/2000/svg">
<path d="M382.927 2.40632C377.947 4.94539 377.752 5.04304 374.334 3.38289C369.353 1.03914 366.326 2.60164 365.544 7.97273C365.252 10.1212 364.666 13.2462 364.47 14.711C363.982 16.9571 364.275 17.543 365.935 18.0313C368.474 18.7149 368.474 18.7149 365.349 22.9141C362.81 26.1368 362.517 26.3321 358.22 25.7462C355.779 25.4532 350.017 23.3048 345.33 21.0587C338.201 17.7384 336.736 16.6641 336.248 14.3204C335.759 11.9766 331.365 7.77742 330.388 8.75398C330.193 8.94929 328.923 11.6837 327.556 14.8087C325.505 19.3009 324.822 22.8165 324.431 30.4337L323.845 40.297L328.337 43.2266C330.779 44.7891 332.83 46.3516 332.83 46.6446C332.83 46.9376 330.193 50.0626 327.068 53.6759L321.306 60.2188L313.884 53.7735L306.072 55.7266C300.115 57.0938 296.306 57.3868 290.642 56.9962L283.123 56.4102L275.31 66.9571L280.974 80.8243L275.212 84.7305C271.99 86.879 268.865 88.9298 268.084 89.1251C267.4 89.418 265.544 87.8555 263.884 85.4141C262.127 82.9727 258.318 79.6524 254.607 77.4063C248.455 73.6954 248.259 73.5977 239.861 73.8907L231.267 74.1837V71.547C231.267 69.2032 230.974 69.0079 229.119 69.5938C227.849 69.8868 224.822 70.4727 222.283 70.7657C217.302 71.3516 216.814 70.8634 218.669 66.8595C219.451 65.1993 219.451 63.4415 218.669 60.6095C217.693 56.9962 217.107 56.4102 212.712 54.8477L207.83 53.0899V48.1095C207.83 43.9102 207.341 42.6407 205.193 40.4923L202.459 37.9532L194.451 40.7852C185.271 44.0079 181.951 43.6173 177.752 38.6368L175.408 35.9024L167.693 41.8595C159.099 48.4024 158.416 50.1602 161.931 56.0196L163.982 59.2423L160.662 59.8282C157.83 60.4141 156.658 61.7813 150.701 71.0587C144.353 81.0196 143.67 81.7032 140.154 82.1915C138.005 82.5821 134.978 83.8516 133.22 85.1212C130.974 86.7813 129.607 87.172 127.752 86.586C126.384 86.1954 124.822 85.9024 124.138 85.8048C123.552 85.7071 120.72 89.418 117.888 94.0079C113.298 101.527 112.127 102.797 106.56 105.922C100.505 109.242 100.115 109.731 96.4039 117.738C94.3531 122.231 92.5953 126.43 92.5953 126.82C92.5953 127.309 93.4742 127.699 94.4508 127.699C95.525 127.699 97.0875 127.992 97.9664 128.285C99.3336 128.871 99.3336 129.066 97.7711 130.824C96.1109 132.777 96.1109 132.875 99.7242 135.902C103.435 139.027 103.435 139.223 102.459 142.934C101.97 144.984 100.798 151.625 100.017 157.484C99.1383 163.441 97.8687 169.984 96.9898 171.938C96.2086 173.891 95.232 178.09 94.939 181.215C94.4508 186.684 94.5484 186.977 100.31 196.645L106.17 206.508L113.298 207.875C119.06 209.047 121.209 209.145 124.334 208.168C126.482 207.484 130.095 206.898 132.244 206.898C135.466 206.801 136.443 206.41 136.834 204.848C137.127 203.676 138.201 202.895 139.373 202.895C142.205 202.895 142.009 207.191 138.982 212.172C137.322 214.711 136.541 217.543 136.541 220.375C136.541 223.5 135.662 226.137 133.123 230.336C130.095 235.121 129.705 236.488 130.486 239.125C130.877 240.883 132.341 243.129 133.709 244.105C135.955 245.766 136.345 245.863 139.763 244.398C144.744 242.348 145.427 242.445 144.353 245.375C143.572 247.426 143.962 248.109 147.087 250.648C149.138 252.211 152.849 254.457 155.388 255.727C157.927 256.996 159.978 258.266 159.978 258.559C159.978 258.949 158.513 259.828 156.755 260.707C153.826 262.172 153.337 262.074 149.822 260.316L146.111 258.363L142.498 261.781C140.252 264.027 137.224 265.688 134.392 266.469C129.412 267.641 129.216 268.031 130.584 272.914C131.365 275.453 131.17 276.527 129.607 278.48C128.533 279.75 126.873 285.023 125.798 290.297L123.845 299.867L126.97 303.48C129.9 306.898 130.486 307.191 133.611 306.605C135.466 306.215 138.787 306.117 140.935 306.312C143.084 306.605 146.697 306.801 148.943 306.801C153.044 306.801 153.044 306.898 155.486 312.758C156.853 315.98 159.587 323.891 161.541 330.336C163.884 337.855 166.13 343.324 167.986 345.668L170.818 349.281L164.959 358.656L175.115 369.203L171.209 368.52C169.06 368.227 164.763 367.934 161.736 367.934H156.169L154.607 362.27C153.728 359.242 152.849 356.02 152.556 355.141C152.166 353.871 146.502 351.332 143.962 351.332C143.67 351.332 143.377 353.383 143.377 355.824C143.377 360.219 143.279 360.316 140.837 359.73C139.373 359.34 137.029 358.852 135.564 358.461C133.416 358.07 132.341 356.898 130.779 353.09L128.728 348.207L124.627 348.988C119.451 349.965 119.841 349.965 100.798 349.086L84.9781 348.305L82.732 352.992C80.6812 357.094 80.3883 358.949 80.5836 367.348C80.6812 372.719 80.3883 378.969 79.9 381.215C78.5328 386.977 80.1929 390.785 85.3687 394.398C89.0797 396.938 90.2515 397.23 93.8648 396.742C97.6734 396.156 98.064 396.352 99.6265 398.988C102.166 403.285 106.56 403.676 109.49 399.965C111.345 397.523 112.029 397.23 114.08 398.012C116.228 398.793 116.423 399.379 116.521 405.336C116.521 411.781 116.521 411.781 121.599 416.957C125.701 421.156 126.482 422.426 125.701 423.891C124.724 425.551 124.529 425.453 121.892 423.598C119.841 422.133 117.595 421.645 113.201 421.645C109.88 421.645 107.244 421.84 107.244 422.035C107.244 422.328 107.634 423.598 108.22 424.965C109.002 427.113 108.318 429.066 103.337 438.539C100.115 444.691 97.4781 450.16 97.4781 450.746C97.4781 451.332 99.0406 452.699 100.994 453.871C103.826 455.727 104.314 456.508 103.923 458.656C103.63 460.023 103.24 463.148 102.849 465.688C102.459 469.203 101.677 470.473 99.5289 471.742C97.2828 473.012 96.4039 474.867 94.5484 481.215C92.9859 486.781 91.1304 490.59 88.4937 494.008C86.3453 496.645 84.1968 498.793 83.7086 498.793C83.2203 498.793 80.2906 496.84 77.2633 494.496L71.5992 490.199L65.3492 491.176C59.7828 492.055 58.9039 491.957 56.4625 490.199L53.8258 488.246L48.8453 492.055C42.7906 496.742 42.3023 499.281 46.9898 502.309C49.6265 504.066 50.4078 505.434 51.9703 511.586C53.0445 515.59 54.0211 521.742 54.2164 525.258C54.607 530.922 54.9976 532.094 57.5367 534.535C59.8804 536.781 60.3687 538.051 60.3687 542.055C60.3687 548.793 63.0054 552.211 68.6695 553.09C71.1109 553.383 73.064 553.969 73.064 554.359C73.064 554.652 71.8922 558.07 70.525 561.977L67.9859 569.008L70.6226 576.918C73.4547 585.414 73.1617 586.586 68.8648 586.684C66.5211 586.684 66.1304 588.344 67.0093 593.52C67.5953 597.035 67.4 598.5 65.9351 601.137C64.3726 603.871 64.1773 605.043 65.0562 609.828L66.0328 615.395L59.9781 622.035C56.4625 625.844 53.6304 630.141 52.9469 632.289C52.1656 635.219 51.2867 636.098 49.0406 636.586C47.3804 636.879 42.9859 639.027 39.0797 641.273C32.9273 644.984 32.0484 645.863 32.0484 648.305C32.0484 650.062 31.1695 651.82 29.9 652.992C23.9429 657.973 22.3804 659.633 21.8922 661.488C21.3062 663.441 21.5992 663.539 25.9937 663.051L30.7789 662.66L39.1773 675.551L41.814 673.891C43.3765 673.012 44.939 671.059 45.4273 669.496L46.2086 666.664L50.2125 670.082C55.3883 674.477 56.3648 677.895 53.4351 681.02C51.189 683.461 51.482 686.293 54.0211 686.293C54.9 686.293 57.3414 685.414 59.4898 684.242L63.4937 682.289L67.7906 685.805C70.1343 687.758 74.7242 690.199 77.9468 691.371C81.2672 692.445 84.5875 694.301 85.6617 695.668C88.2008 698.891 95.3297 698.793 105.877 695.375C113.494 692.934 114.08 692.836 115.837 694.398C117.009 695.473 119.255 696.059 122.087 696.059C125.798 696.059 127.263 696.742 132.244 700.648C135.466 703.285 139.08 706.02 140.349 706.801L142.595 708.363L140.545 715.199C138.396 722.328 137.81 731.215 139.373 731.215C139.959 731.215 141.912 730.336 143.767 729.164L147.283 727.113L148.162 729.555C148.65 730.922 149.627 734.828 150.212 738.246C151.091 743.227 152.068 745.082 154.9 748.109C158.318 751.723 164.568 755.629 166.814 755.629C167.302 755.629 167.791 754.945 167.791 754.066C167.791 752.797 168.474 752.992 171.306 755.141C173.162 756.605 175.896 758.07 177.361 758.461C179.119 758.949 180.095 759.926 180.291 761.586C180.486 762.855 181.56 764.906 182.634 766.078L184.685 768.227L187.127 766.273L189.666 764.32L193.377 767.934L197.087 771.645L198.552 768.031C199.919 764.809 200.31 764.418 202.752 765.004C206.56 765.883 207.244 766.859 205.779 769.398C204.9 770.961 204.607 774.77 204.802 780.434C204.998 789.027 205.095 789.125 209.783 796.156L214.568 803.188L211.638 806.02L208.806 808.852L211.638 812.367L214.568 815.883L209.685 819.496C207.048 821.547 204.9 823.598 204.9 824.184C204.9 824.672 205.584 826.332 206.365 827.895C207.83 830.629 207.732 830.824 205.877 830.824C203.533 830.824 203.435 831.898 205.584 837.465C207.146 841.762 207.634 841.957 211.834 840.199C213.103 839.613 213.591 840.297 214.08 843.52C214.763 847.816 213.396 851.527 209.88 854.652C207.83 856.508 207.83 856.508 207.83 854.457C207.83 851.918 208.22 851.918 202.654 853.871L198.064 855.434L198.162 864.32C198.162 875.258 196.502 880.922 193.084 881.41C191.814 881.605 189.373 882.777 187.712 884.145C184.685 886.293 184.685 886.586 185.564 890.785C186.248 894.008 186.15 895.863 185.076 898.5C183.709 901.625 183.806 902.113 185.955 905.824L188.298 909.73L178.533 913.051V921.645C178.533 929.848 178.63 930.238 180.877 930.824C182.146 931.117 183.416 932.387 183.806 933.559C184.783 937.367 184.392 950.16 183.025 957.094C181.951 962.562 181.951 963.93 183.025 965.395C184.685 967.445 184.783 976.332 183.22 981.312C182.244 984.73 182.341 985.414 184.197 987.367C186.15 989.418 186.248 989.711 184.783 991.859C183.318 993.91 183.318 994.203 185.955 997.035C188.591 999.77 189.08 999.965 194.744 999.477C202.068 998.891 207.341 996.645 216.228 990.199C221.306 986.488 224.627 984.828 228.63 984.047C233.025 983.168 234.197 982.484 234.197 981.117C234.197 979.848 236.052 978.383 239.861 976.43C244.451 974.086 247.185 973.5 255.779 972.914C261.541 972.523 266.521 971.938 267.009 971.547C267.498 971.254 270.232 968.227 273.064 965.004C277.263 960.023 278.923 958.852 282.048 958.363C285.466 957.875 285.955 957.387 286.443 954.555L287.127 951.332L301.873 949.574C310.955 948.5 318.084 947.133 320.134 946.059C321.99 945.082 325.408 944.008 327.654 943.617C330.681 943.129 332.634 942.055 334.49 939.711C337.029 936.684 337.81 936.391 346.502 935.414C359.099 933.852 359.88 933.656 360.369 931.605C360.759 930.434 363.396 928.871 368.572 927.016C372.771 925.551 393.181 917.543 413.884 909.34C450.798 894.691 451.775 894.301 466.619 891.859C511.541 884.242 517.791 883.559 572.576 880.141C616.521 877.309 628.435 876.332 638.005 874.281C644.451 873.012 661.736 870.766 676.58 869.398C691.326 868.129 713.689 865.785 726.189 864.418L748.943 861.781L763.298 865.297C779.216 869.301 782.537 869.789 841.423 877.113C881.658 882.094 883.025 882.191 890.154 880.824L897.478 879.457L900.603 882.484C904.705 886.488 908.416 886.488 913.201 882.484L916.814 879.457L925.896 880.531C930.779 881.117 936.052 881.801 937.517 882.094C939.666 882.387 940.544 881.898 942.107 879.359C943.962 876.332 943.962 876.137 942.302 868.91C941.326 864.906 939.568 859.633 938.494 857.191C937.322 854.75 936.345 851.137 936.345 849.086C936.345 845.668 936.443 845.473 939.568 845.473C944.353 845.473 945.427 842.641 942.986 835.707C942.009 832.777 940.349 824.184 939.275 816.664C938.103 808.656 936.833 802.797 936.15 802.309C935.466 801.918 932.439 799.867 929.509 797.816L924.236 793.91L918.572 797.719C913.103 801.43 912.81 801.527 910.466 799.965C908.318 798.598 908.025 797.719 908.025 792.641V786.879H897.966L899.333 762.562L895.525 755.922C892.595 750.941 891.033 746.352 889.08 737.758C886.345 725.648 881.169 706.41 880.193 704.848C879.9 704.262 878.533 703.871 877.263 703.871C875.31 703.871 874.724 703.188 873.845 700.062C871.599 691.762 867.986 676.234 864.47 660.316L860.857 643.617L865.935 636.195L871.111 628.773L868.083 621.449C866.423 617.445 865.056 613.539 865.056 612.855C865.251 609.34 877.068 591.859 885.759 582.289C893.083 574.281 895.427 571.059 895.818 568.324C896.892 561.879 898.064 559.34 902.751 553.48C907.048 547.914 907.244 547.523 905.779 545.863C903.435 543.324 903.63 541.078 907.537 523.207C910.173 510.902 910.955 505.238 910.955 497.426V487.27L918.474 471.352C922.576 462.562 926.58 454.945 927.361 454.457C931.267 452.113 932.146 450.16 932.83 442.152L933.611 434.145L936.345 436.781L939.08 439.32L944.548 431.605C950.115 423.598 951.58 422.621 957.927 422.621C960.955 422.621 961.638 422.133 963.005 419.203L964.666 415.688L960.857 410.121L957.048 404.457L959.294 401.723C961.345 399.184 961.736 399.086 965.154 400.062C968.572 400.941 969.353 400.844 973.357 398.305L977.849 395.57L977.556 386.391C977.361 379.848 975.408 368.227 971.013 346.449C961.638 300.355 963.201 305.434 959.001 305.434H955.486L960.955 299.77L958.904 295.863C957.732 293.617 956.853 290.297 956.853 288.344C956.853 286.098 955.974 283.656 954.412 281.605C952.751 279.359 951.97 277.113 951.97 274.379C951.97 270.668 951.677 270.18 947.869 267.934C945.525 266.664 941.619 265.297 939.08 264.906L934.587 264.223L934.099 258.168C933.904 254.945 933.513 251.332 933.318 250.258C933.025 248.695 933.513 248.207 936.052 248.012C938.591 247.719 940.056 246.449 944.548 240.492C947.576 236.488 950.017 232.875 950.017 232.484C950.017 231.996 948.259 229.555 946.111 226.918C943.962 224.379 942.205 222.035 942.205 221.84C942.205 221.547 943.572 218.813 945.134 215.59C948.357 209.242 948.552 207.094 946.794 198.598L945.623 192.934L940.349 199.086C937.419 202.504 934.685 205.727 934.197 206.313C933.708 206.801 929.607 203.481 924.041 198.012C915.544 189.516 913.884 187.27 904.9 171.352C899.529 161.879 894.744 153.774 894.255 153.578C893.767 153.285 892.107 153.676 890.349 154.555C888.689 155.434 887.126 155.922 886.833 155.629C886.541 155.434 884.294 151.039 881.853 146.059L877.263 136.977L872.673 136.684L868.181 136.391L867.498 131.508C867.107 128.871 866.521 126.723 866.13 126.723C865.74 126.723 863.494 128.676 861.15 131.117C857.732 134.535 856.169 135.512 853.63 135.512C850.896 135.512 850.408 135.121 850.408 133.266C850.408 131.215 849.626 130.922 840.447 129.359C834.88 128.481 824.724 127.211 817.693 126.723C805.095 125.649 804.998 125.649 801.58 122.328L798.162 119.008L795.72 120.863C793.962 122.231 791.716 122.816 787.517 122.816C782.341 122.816 781.462 123.109 777.263 126.625L772.673 130.531L765.642 129.457L758.611 128.481L751.189 132.68C747.185 135.024 742.009 138.539 739.861 140.59L735.857 144.301L728.24 143.031L720.623 141.664L717.205 145.18C714.958 147.426 711.443 149.477 707.634 150.746L701.482 152.797L697.478 162.953L693.376 173.109L689.373 173.402C686.052 173.695 685.271 174.086 684.783 176.137C684.49 177.406 684.001 178.481 683.708 178.481C681.951 178.481 679.314 175.941 678.142 173.207C676.482 169.301 672.771 168.031 667.205 169.594C665.154 170.18 663.494 170.473 663.396 170.375C663.396 170.277 662.615 168.52 661.638 166.371C659.978 162.758 659.978 162.563 661.931 159.242C663.005 157.387 663.689 155.434 663.396 154.945C663.005 154.457 661.052 154.066 658.904 154.066C655.388 154.066 655.095 154.262 655.583 156.215C656.267 159.438 652.068 162.465 649.333 160.707C647.771 159.828 646.111 159.926 640.349 161.684L633.123 163.832L631.462 161.684C630.486 160.414 629.216 158.168 628.63 156.703C627.458 153.871 626.384 153.774 621.501 155.629C620.134 156.117 619.939 155.238 619.939 149.379C619.939 144.691 619.548 142.25 618.572 141.469C615.544 138.93 598.162 130.629 595.916 130.629C593.669 130.629 593.572 130.336 593.572 125.063C593.572 120.668 593.083 119.008 591.423 117.152L589.177 114.809L591.423 113.344C592.595 112.465 593.572 111.488 593.572 111.098C593.572 110.609 591.619 109.047 589.08 107.484C584.587 104.75 584.294 103.774 586.248 99.1837C586.931 97.5235 586.736 97.5235 583.416 98.8907C579.998 100.356 579.9 100.356 579.9 98.1095C579.9 96.8399 579.021 94.9845 577.849 93.9102C574.919 91.2735 573.064 87.2696 573.064 83.754C573.064 80.922 572.966 80.8243 568.376 80.8243C564.861 80.8243 563.103 80.336 561.833 78.8712C560.173 77.1134 560.271 76.8204 562.322 73.5001C564.177 70.4727 564.373 69.6915 563.298 67.1524C561.931 63.8321 561.15 63.5391 559.392 65.6876C557.83 67.543 556.169 67.543 552.458 65.5899C549.724 64.2227 548.552 64.3204 537.126 66.1759L524.724 68.3243L521.209 66.2735C519.255 65.1016 515.056 60.4141 511.443 55.5313C503.826 44.8868 499.138 41.9571 492.107 43.6173C488.689 44.3985 487.322 44.2032 485.466 43.0313C483.318 41.6641 482.732 41.6641 477.068 44.2032C473.259 45.961 469.548 46.8399 467.009 46.7423C463.103 46.547 462.615 46.9376 454.607 55.4337C447.673 62.8555 446.209 65.004 445.916 67.9337L445.623 71.547H435.369L432.048 77.4063L428.826 83.2657H419.646C406.853 83.2657 403.63 82.4845 402.166 78.8712C401.482 77.211 399.919 75.6485 398.748 75.3555C397.576 75.0626 395.916 73.3048 395.037 71.547L393.474 68.2266L396.794 67.1524C400.798 65.8829 406.072 59.1446 406.072 55.4337C406.072 53.9688 405.388 50.7462 404.509 48.2071C403.24 44.4962 403.142 43.0313 404.021 41.0782C405.291 38.2462 404.9 37.3673 401.287 35.4141C399.431 34.5352 397.185 34.2423 394.841 34.6329C391.521 35.1212 391.13 35.0235 391.716 33.5587C392.107 32.5821 392.4 30.9219 392.4 29.9454C392.4 28.6759 393.377 27.6016 395.232 27.0157C397.478 26.2344 398.259 25.2579 398.748 22.4259C399.138 20.4727 400.017 18.129 400.798 17.2501C402.166 15.7852 401.97 15.3946 399.236 13.4415C396.306 11.3907 396.209 10.9024 396.794 6.99617C397.38 2.99226 397.185 2.60164 394.841 1.72273C389.763 -0.230394 387.908 -0.132738 382.927 2.40632Z" fill="white"/>
<circle id="774" cx="565" cy="649" fill="#5CE50D"/>
<circle id="156" cx="470" cy="215" fill="#E52A0D"/>
<circle id="155" cx="343" cy="615" fill="#E52A0D"/>
<circle id="1602" cx="253" cy="960" fill="#E52A0D"/>
<circle id="153" cx="745" cy="859" fill="#5CE50D"/>
</svg>
