<svg width="1000" height="1000" viewBox="0 0 1000 1000" fill="none" xmlns="http://www.w3.org/2000/svg">
<path d="M526.013 15.1395C525.064 15.8983 523.167 16.5623 521.934 16.5623C519.848 16.5623 519.753 16.8469 520.417 20.0718C521.555 25.6681 521.175 27.0908 518.045 30.2209C515.484 32.7819 514.536 33.1613 510.362 32.9716C506.189 32.8768 505.715 33.0665 506.284 34.3944C506.663 35.3429 507.232 40.6546 507.517 46.4406C507.896 52.1316 508.465 57.3485 508.845 58.0124C509.983 59.7197 512.354 74.4218 512.354 79.7334C512.354 82.3893 511.88 86.9422 511.311 89.9774C510.647 93.6766 510.647 95.7633 511.311 96.617C511.88 97.1861 512.07 98.6089 511.785 99.7471C511.501 100.79 511.88 102.972 512.734 104.585C514.441 107.904 514.726 114.354 513.303 115.777C512.734 116.346 511.69 122.701 510.931 130.005C508.56 152.295 508.465 152.674 505.715 152.579C502.585 152.39 501.921 153.623 501.921 160.073C501.921 165.29 502.015 165.574 503.912 165.005C505.809 164.341 505.904 164.626 505.335 166.997C504.956 168.514 504.102 175.249 503.438 182.078C502.3 192.891 502.3 194.693 503.533 196.685C505.715 200.1 504.861 210.154 502.015 213.854C499.549 217.268 498.411 222.39 499.739 224.667C501.351 227.512 497.557 253.312 495.186 255.968C494.712 256.537 494.332 259.572 494.332 262.892C494.332 267.35 493.953 269.057 492.91 269.437C491.297 270.1 490.064 274.369 489.116 282.147C488.736 284.992 487.693 288.786 486.649 290.494C485.701 292.201 484.847 294.667 484.847 295.805C484.847 297.038 483.994 299.125 482.95 300.453C480.579 303.488 480.579 306.618 482.95 309.654C484.563 311.645 484.847 313.543 484.847 322.174C484.847 331.185 484.658 332.608 482.95 334.315C481.812 335.453 480.579 336.022 480.105 335.738C479.536 335.358 479.156 335.453 479.156 335.928C479.061 336.307 478.682 338.583 478.303 340.86C477.733 343.516 477.923 348.448 478.872 355.087C479.63 360.589 480.579 369.79 480.958 375.575C481.433 381.267 482.286 387.432 483.045 389.044C484.468 392.649 483.425 398.34 479.915 404.979C477.828 409.058 477.354 416.362 479.061 418.069C480.674 419.681 480.294 422.527 478.113 424.329C474.793 426.985 472.327 434.573 471.947 443.299C471.663 448.611 471.094 451.836 470.145 452.879C469.386 453.733 468.723 455.82 468.723 457.432C468.723 459.329 468.153 460.562 467.11 460.942C464.265 461.89 457.625 477.541 456.392 486.078C455.633 491.294 454.779 494.33 451.554 502.202C450.606 504.574 449.468 507.988 448.993 509.79C448.045 513.679 445.01 514.723 442.164 512.162C440.552 510.739 440.457 510.739 439.793 513.49C439.508 515.102 439.603 517.094 440.077 517.948C440.552 518.896 440.741 521.173 440.552 523.07C440.172 525.441 440.646 527.717 442.069 530.563C443.777 533.883 444.061 535.495 443.492 539.953C443.018 544.791 443.302 546.403 446.432 554.371C449.563 562.528 449.847 563.951 449.373 569.831C448.804 577.325 446.907 580.929 443.682 580.929C441.5 580.929 441.405 581.214 440.741 590.13C440.267 596.01 439.508 599.994 438.655 600.943C436.852 603.029 437.137 607.867 439.888 622.379C440.077 623.517 441.121 624.75 442.164 625.035C443.682 625.509 443.871 625.984 443.113 627.406C442.449 628.639 442.544 629.303 443.302 629.493C445.199 630.157 443.207 632.054 439.888 632.623C437.042 633.192 436.758 633.572 435.714 638.694C435.05 641.634 434.576 647.23 434.576 650.93C434.576 654.913 434.007 659.276 433.153 661.268C430.877 666.77 431.256 667.813 435.999 669.52C441.69 671.417 445.01 670.374 444.346 666.865C443.966 664.873 444.156 664.398 445.863 664.398C447.95 664.398 448.424 662.976 446.907 660.604C446.338 659.751 446.432 658.992 447.191 658.518C448.045 658.043 447.76 656.715 446.148 653.775C443.397 648.463 443.397 645.238 446.243 644.005C448.709 642.867 449.563 638.599 447.76 635.374C446.148 632.244 447.286 630.252 450.796 630.252C453.167 630.252 453.926 629.683 454.779 627.406C455.538 625.509 456.487 624.561 457.815 624.561C460.376 624.561 464.549 627.406 463.126 628.26C462.557 628.639 461.893 630.252 461.514 631.864C461.134 634.046 461.324 634.9 462.557 635.374C463.506 635.658 464.739 635.564 465.403 634.994C466.256 634.236 466.731 635.279 467.11 639.452C467.679 644.859 467.3 647.135 466.351 644.1C466.067 643.246 465.687 641.919 465.403 641.16C465.213 640.401 463.885 639.737 462.652 639.737C460.47 639.737 460.281 639.927 461.134 642.203C461.798 643.721 461.798 645.238 461.134 646.377C459.901 648.653 459.901 653.111 461.134 656.431C461.893 658.328 461.798 659.466 460.66 661.173C459.901 662.407 459.237 664.019 459.237 664.683C459.237 665.442 458.573 666.58 457.815 667.244C456.202 668.572 455.918 674.358 457.34 675.306C459.048 676.35 457.72 681.756 455.538 682.8C453.926 683.464 453.546 684.222 453.926 685.835C454.305 687.068 454.115 688.301 453.546 688.586C452.124 689.439 452.408 690.957 454.021 690.957C454.779 690.957 455.443 691.621 455.443 692.38C455.443 693.138 455.918 693.802 456.392 693.802C456.961 693.802 458.668 694.751 460.186 695.794C461.704 696.932 463.506 697.596 464.17 697.312C465.213 696.932 465.213 697.691 464.075 701.296C462.842 704.805 461.704 706.323 458.479 708.315C456.202 709.737 453.736 710.876 452.882 710.876C451.839 710.876 451.554 711.445 452.029 712.962C452.408 714.195 452.787 715.618 452.882 716.187C453.072 716.851 453.641 717.99 454.305 718.748C455.254 719.887 454.969 720.456 452.882 721.878C451.365 722.922 449.373 723.87 448.329 724.155C445.768 724.914 445.484 728.044 447.855 730.51C449.942 732.786 450.321 735.063 448.709 736.011C448.14 736.391 447.476 735.727 447.191 734.683C446.812 733.166 446.148 732.786 444.915 733.166C442.828 733.83 442.544 731.553 443.966 727.664C444.725 725.767 444.535 724.914 443.207 723.775C441.69 722.448 441.31 722.353 440.362 723.586C439.698 724.345 439.319 726.621 439.508 728.613C439.793 731.933 439.603 732.217 437.232 732.502C435.714 732.692 434.386 733.545 434.102 734.683C433.533 736.296 433.343 736.296 432.11 735.063C430.213 733.166 425.66 733.261 424.047 735.253C423.289 736.106 422.72 737.813 422.72 739.047C422.625 741.038 422.909 741.228 425.281 740.754C428.79 739.9 428.98 742.841 425.47 743.694C423.289 744.263 421.107 746.16 416.839 751.093C416.175 751.852 415.131 752.61 414.467 752.8C413.803 753.085 413.234 754.792 413.234 757.258C413.234 761.337 414.752 763.234 417.503 762.759C419.115 762.475 420.064 758.301 418.546 758.301C416.08 758.301 417.787 755.361 421.107 753.843C423.004 752.99 424.806 752.136 425.091 751.946C425.375 751.757 425.565 752.99 425.565 754.697C425.565 757.353 425.944 757.827 428.79 758.681C431.256 759.345 432.205 759.345 432.489 758.491C433.058 756.594 436.188 757.258 437.706 759.629C438.56 760.862 439.508 763.044 439.888 764.467C440.267 765.89 441.121 767.218 441.785 767.502C444.061 768.356 443.207 769.968 440.931 769.304C439.224 768.925 438.37 769.304 437.422 771.106C436.758 772.434 435.809 773.478 435.335 773.478C434.861 773.478 434.766 774.331 435.05 775.375C435.43 776.608 435.24 777.272 434.291 777.272C433.627 777.272 432.394 778.315 431.73 779.548C430.782 781.35 429.644 782.014 426.608 782.204C423.763 782.394 422.625 782.963 422.435 784.196C422.15 785.524 422.53 785.903 424.237 785.619C425.375 785.429 426.514 785.903 426.703 786.472C426.988 787.136 426.514 787.705 425.66 787.705C424.806 787.705 424.142 788.464 424.142 789.508C424.142 792.163 422.245 793.017 421.581 790.646C421.012 788.369 418.641 787.99 417.882 790.077C417.598 790.836 417.787 792.922 418.451 794.724C419.305 797.38 419.305 798.803 418.356 801.459C417.313 804.304 417.313 805.063 418.356 805.632C419.305 806.296 419.21 806.581 418.072 806.96C417.218 807.34 416.554 808.288 416.554 809.142C416.554 810.66 417.598 810.66 421.581 809.047C422.814 808.478 423.099 808.762 422.625 809.901C422.34 810.754 421.202 811.418 420.253 811.418C417.787 811.418 416.934 813.979 418.736 815.971C419.779 817.015 419.969 818.058 419.4 819.006C418.167 820.998 419.4 822.137 421.107 820.619C423.573 818.437 426.419 818.248 426.798 820.24C426.988 821.188 426.608 822.611 426.039 823.37C424.996 824.508 424.711 824.508 423.668 823.085C422.625 821.662 422.435 821.662 421.771 823.749C421.297 825.267 421.486 826.12 422.625 826.784C425.091 828.207 424.522 831.337 421.771 831.337C420.443 831.337 419.4 831.906 419.4 832.475C419.4 834.562 421.012 836.364 422.15 835.7C422.72 835.321 423.478 835.7 423.763 836.459C424.522 838.451 429.454 838.451 430.213 836.459C430.497 835.605 430.782 833.424 430.782 831.527C430.782 829.63 431.351 827.353 432.015 826.5C432.963 825.267 433.058 826.405 432.869 832.286C432.584 838.356 432.774 839.684 434.007 840.158C436.852 841.297 438.18 839.779 438.844 834.657C439.224 831.622 440.077 828.966 441.121 828.017C442.354 826.974 443.113 824.508 443.587 820.429C444.156 814.738 445.958 811.893 447.381 814.264C447.76 814.833 447.476 815.212 446.812 815.212C446.148 815.212 445.863 816.445 446.148 818.532C446.432 820.809 446.148 821.852 445.294 821.852C443.113 821.852 443.966 826.31 446.432 827.922C447.665 828.776 449.278 830.389 449.847 831.527L450.985 833.519L448.329 831.527C444.915 828.871 441.216 828.776 441.216 831.337C441.216 832.38 441.69 833.234 442.354 833.234C443.207 833.234 443.207 833.519 442.354 834.372C440.552 836.175 440.931 836.839 444.061 837.503C445.674 837.882 446.907 838.736 446.907 839.589C446.907 840.822 446.622 840.822 444.441 839.4C443.113 838.546 441.785 838.072 441.5 838.261C440.457 839.4 442.544 843.004 445.294 844.711C447.855 846.229 447.95 846.513 446.338 846.513C445.294 846.513 443.492 845.47 442.354 844.142C439.888 841.297 436.473 840.917 436.473 843.478C436.473 845.47 439.983 849.644 441.216 848.885C441.595 848.6 442.259 849.074 442.544 849.928C443.018 851.161 443.397 851.256 444.535 850.307C445.674 849.359 446.053 849.454 446.622 850.782C447.002 851.825 446.622 852.868 445.674 853.627C443.871 854.86 443.492 856.947 445.01 856.947C445.579 856.947 445.958 857.516 445.958 858.275C445.958 860.077 448.899 861.026 450.037 859.603C450.606 858.749 450.701 858.844 450.321 860.077C450.037 861.026 449.752 861.974 449.752 862.259C449.752 862.448 448.519 862.354 447.002 862.069C444.82 861.595 443.966 861.879 443.207 863.492C442.069 865.579 442.828 870.511 444.156 869.657C444.63 869.373 444.725 870.416 444.441 871.934C444.061 873.925 444.251 874.874 445.294 875.253C447.002 875.917 450.321 872.598 448.899 871.649C447.002 870.511 447.855 869.562 450.226 870.037C451.649 870.226 452.598 871.08 452.598 872.123C452.598 873.072 453.262 874.305 454.021 874.969C456.392 876.961 455.633 877.814 452.882 876.297C450.606 875.159 450.226 875.159 449.942 876.392C449.752 877.056 450.132 878.573 450.606 879.617C451.175 880.66 451.649 882.367 451.649 883.316C451.649 884.739 452.124 885.118 453.451 884.739C454.969 884.359 455.538 885.023 456.297 888.058C457.72 893.085 462.083 895.077 462.083 890.619C462.083 889.386 462.842 887.964 463.695 887.394C465.213 886.636 465.118 886.256 462.747 884.454C461.324 883.316 460.186 881.893 460.186 881.324C460.186 880.565 460.47 880.47 460.945 881.229C461.704 882.367 468.059 885.403 469.576 885.403C470.145 885.403 470.62 884.833 470.62 884.075C470.62 882.462 465.118 877.625 463.98 878.289C463.601 878.573 463.031 878.099 462.652 877.34C461.988 875.538 462.462 875.538 465.687 877.245C470.525 879.806 471.853 882.083 471.189 886.92C470.904 889.386 471.094 892.042 471.663 893.18C472.896 895.362 471.947 901.812 470.43 901.338C469.956 901.148 469.292 898.682 469.102 895.931C468.912 893.18 468.438 890.524 468.153 890.05C467.015 888.153 465.877 889.386 465.877 892.516C465.877 894.319 465.403 895.836 464.834 895.836C464.265 895.836 463.98 895.172 464.359 894.413C465.023 892.611 462.652 892.516 460.85 894.413C459.617 895.647 459.332 895.647 458.289 894.413C456.676 892.516 454.21 894.413 454.969 896.88C455.254 897.733 454.969 898.871 454.305 899.346C453.641 899.725 452.124 901.432 450.985 903.14C449.278 905.511 449.088 906.27 450.132 907.124C451.554 908.357 453.546 906.744 453.546 904.278C453.546 902.571 455.159 900.958 456.012 901.812C456.297 902.096 456.107 903.14 455.633 904.088C455.064 905.132 454.969 906.46 455.443 907.218C456.107 908.357 456.582 908.262 458.099 906.934C459.048 906.08 460.091 905.511 460.376 905.796C460.66 906.08 461.134 905.321 461.514 904.088C461.988 901.907 462.273 901.812 466.067 902.76C468.343 903.235 470.809 903.993 471.663 904.373C472.422 904.752 473.845 904.657 474.793 904.183C475.742 903.614 478.682 903.519 481.717 903.899C485.891 904.373 486.649 904.752 485.796 905.796C485.132 906.649 483.614 906.934 481.433 906.554C478.777 906.08 477.733 906.46 475.836 908.546C473.56 911.012 470.62 911.107 470.62 908.641C470.62 907.124 467.869 904.752 465.118 903.899C463.316 903.424 462.747 903.804 461.609 906.649C460.85 908.451 459.806 910.159 459.332 910.443C458.858 910.823 458.858 912.34 459.522 914.332C460.376 917.273 460.85 917.652 463.695 917.652C465.403 917.652 466.825 918.031 466.825 918.601C466.825 919.075 467.489 919.549 468.248 919.549C469.007 919.549 469.671 919.834 469.671 920.308C469.671 920.687 467.964 920.877 465.877 920.687C463.79 920.498 462.083 920.498 462.083 920.782C462.083 920.972 464.739 922.964 467.869 925.145C473.655 929.129 476.121 929.698 473.181 926.378C470.904 923.817 471.189 921.541 474.034 920.498C476.216 919.644 476.311 919.359 475.267 917.937C474.034 916.514 474.224 916.514 477.354 917.083C480.105 917.557 481.053 917.273 482.571 915.66C484.752 913.194 491.202 909.779 492.341 910.538C493.763 911.392 489.874 918.126 487.313 919.359C485.891 920.023 484.847 921.351 484.563 923.059L484.183 925.714L483.994 923.059C483.804 919.549 480.105 919.265 480.105 922.774C480.105 924.102 479.725 925.335 479.251 925.62C478.777 925.999 478.587 925.335 478.872 924.197C479.346 922.584 479.061 922.3 477.639 922.584C476.69 922.774 475.742 923.723 475.552 924.671C474.793 928.181 477.639 931.121 485.037 934.725C491.771 937.95 492.435 938.045 494.807 936.812C497.368 935.484 497.368 935.294 496.799 929.603C496.419 925.335 496.609 923.248 497.557 921.826C498.316 920.782 499.075 917.273 499.265 914.048C499.36 910.823 499.929 908.072 500.498 908.072C500.972 907.977 502.679 907.787 504.197 907.598C505.62 907.503 507.612 906.744 508.465 906.08C512.828 902.571 518.045 901.243 518.045 903.709C518.045 904.373 516.812 906.365 515.2 908.167C512.449 911.392 512.354 911.392 510.931 909.685C509.793 908.167 509.319 908.072 508.086 909.115C506.284 910.633 506.284 911.961 508.086 911.961C509.698 911.961 509.888 912.815 508.655 914.712C508.181 915.47 507.137 915.755 506.284 915.47C505.051 914.996 504.766 915.66 504.766 919.549C504.766 923.248 505.146 924.481 506.853 925.62C508.655 926.948 509.129 926.948 510.457 925.714C511.406 924.861 513.872 924.292 516.433 924.292C520.227 924.292 520.891 924.576 520.891 926.094C520.891 928.086 517.476 930.836 512.544 932.828C509.604 933.967 509.414 934.251 509.698 938.425C509.983 942.788 509.983 942.788 517.097 946.866C520.986 949.048 524.306 951.229 524.495 951.609C524.59 951.988 524.116 953.221 523.262 954.17C521.934 956.067 521.934 956.067 521.839 953.98C521.839 952.842 520.986 951.419 519.942 950.85C518.899 950.281 518.045 950.091 518.045 950.471C518.045 950.755 517.002 950.376 515.674 949.522C513.587 948.194 513.303 948.099 513.303 949.427C513.303 951.135 512.259 951.324 510.742 949.807C509.414 948.479 498.885 948.099 497.273 949.332C496.609 949.807 493.194 950.471 489.78 950.66C482.855 950.945 481.527 951.609 480.579 955.308C479.82 958.533 481.527 959.576 484.752 957.869C487.598 956.352 491.107 956.162 491.866 957.395C492.151 957.869 493.574 958.533 494.996 958.912C498.696 959.766 502.585 962.991 500.782 963.655C500.024 963.94 498.221 963.75 496.799 963.181C495.376 962.707 492.815 962.232 491.202 962.327C488.262 962.327 488.262 962.422 490.444 963.276C491.677 963.75 494.143 965.362 495.85 966.88C499.834 970.39 504.387 971.528 506.473 969.441C507.801 968.113 507.801 967.923 505.999 967.259C502.774 966.026 505.62 963.086 510.647 962.517C513.398 962.232 514.346 962.422 513.492 962.991C511.785 964.129 510.362 975.701 511.785 976.65C512.354 977.029 513.967 977.409 515.295 977.409C516.623 977.409 518.52 978.262 519.468 979.306C521.65 981.677 523.072 980.159 522.219 976.27C521.934 974.942 522.219 973.52 522.788 973.14C524.306 972.192 526.582 974.468 526.582 977.029C526.582 979.021 527.056 979.306 529.807 979.306C533.222 979.306 536.067 981.297 536.067 983.669C536.067 984.428 536.921 984.997 537.964 984.997C540.905 984.997 540.241 981.961 536.541 978.073C534.36 975.796 533.601 974.563 534.549 974.563C537.3 974.563 537.11 972.666 534.265 972.097C530.566 971.338 530.566 970.39 534.265 968.777C536.921 967.734 537.395 967.828 538.533 969.346C539.292 970.295 539.861 971.907 539.861 972.951C539.861 973.994 540.335 974.563 541.094 974.278C545.647 972.571 546.406 972.666 547.449 974.563C548.018 975.606 549.441 976.46 550.769 976.46C552.571 976.46 553.14 975.891 553.615 973.235C554.373 969.251 552.002 965.078 548.967 965.078C547.924 965.078 543.655 964.604 539.482 963.94L532.083 962.801L532.747 934.725C533.316 910.538 533.222 906.554 532.083 905.511C530.945 904.562 530.091 904.657 528.005 905.701C524.685 907.408 523.167 906.839 521.365 903.14C518.425 897.259 520.701 894.603 526.677 897.069C532.368 899.441 536.067 900.389 536.541 899.63C537.11 898.777 525.539 893.939 522.788 893.939C521.65 893.939 518.709 892.896 516.148 891.568C511.785 889.386 510.552 889.197 496.704 889.197C485.322 889.197 482.002 888.912 482.002 887.964C482.002 885.972 479.725 881.608 478.587 881.608C478.113 881.608 476.88 881.039 475.931 880.375C474.414 879.237 474.319 878.668 475.457 875.159C476.311 872.123 476.311 870.89 475.457 869.847C474.603 868.898 474.603 867.95 475.457 866.148C476.975 862.828 475.742 855.335 473.56 854.102C472.611 853.627 471.568 853.438 471.284 853.722C470.999 854.007 469.671 854.386 468.343 854.481C466.92 854.671 465.023 855.524 463.98 856.473C462.937 857.421 461.988 857.99 461.798 857.801C460.66 856.188 459.237 851.635 459.237 849.549C459.237 848.126 458.479 845.944 457.625 844.616C455.918 842.15 455.823 841.771 454.969 832.286C454.305 824.128 455.064 820.904 457.435 821.188C458.858 821.283 459.712 820.524 460.66 817.773C462.178 813.315 463.79 811.418 465.403 811.987C467.774 812.936 469.956 808.099 469.292 803.451C468.723 799.752 468.912 799.088 471.094 797.38C474.034 795.009 474.319 790.456 471.568 787.895C469.671 786.188 469.671 785.903 470.999 781.919C471.853 779.643 472.517 776.987 472.517 776.039C472.517 774.995 473.37 774.047 474.319 773.762C475.362 773.478 476.69 772.055 477.259 770.537C477.923 769.02 478.966 767.787 479.536 767.787C480.389 767.787 480.579 766.079 480.294 762.19C479.915 757.163 480.105 756.499 481.812 756.025C482.95 755.646 484.088 754.507 484.373 753.559C485.037 751.377 483.14 744.169 481.433 742.272C480.389 741.133 480.674 740.659 482.571 739.141C484.752 737.339 485.701 733.64 483.994 733.64C482.666 733.64 481.812 730.32 482.571 727.57C482.855 726.242 483.709 725.103 484.468 725.103C485.227 725.103 485.796 724.534 485.796 723.775C485.796 723.017 486.46 722.258 487.219 721.878C488.072 721.594 488.641 720.171 488.641 718.084C488.641 713.816 484.278 709.927 479.536 709.927C476.975 709.927 476.311 709.548 476.311 708.03C476.311 706.323 476.975 706.133 483.899 706.133C489.21 706.133 491.677 705.754 491.866 704.9C494.143 697.596 492.815 695.699 485.132 695.699H479.82L480.389 691.81C480.674 689.724 481.622 687.163 482.476 686.214C483.899 684.602 483.899 684.222 482.666 682.42C481.907 681.282 481.433 679.67 481.717 678.721C482.002 677.772 481.527 675.686 480.674 674.073C478.777 670.374 478.777 668.192 480.674 668.192C481.622 668.192 482.002 667.529 481.812 666.106C481.622 664.398 480.769 663.829 478.492 663.64C476.121 663.45 475.267 662.786 474.793 661.079C474.129 658.423 474.888 640.306 475.742 638.978C476.026 638.409 477.164 638.219 478.208 638.504C481.053 639.263 481.527 636.607 479.536 630.442C478.587 627.501 478.018 623.138 478.208 620.767C478.303 618.395 478.587 614.886 478.587 612.989C478.682 610.997 479.061 609.195 479.441 608.815C479.725 608.436 479.346 606.918 478.492 605.306C477.354 603.029 477.259 601.986 478.113 600.658C478.682 599.71 479.156 598.192 479.156 597.149C479.156 596.2 479.82 594.872 480.579 594.208C482.381 592.691 482.381 590.794 480.579 590.035C478.682 589.371 478.682 585.672 480.579 585.672C481.717 585.672 482.002 584.344 482.002 579.222C482.002 574.953 482.286 573.341 482.95 574.289C483.614 575.333 483.994 575.143 484.752 573.056C485.322 571.539 485.796 569.831 485.796 569.167C485.796 568.503 486.08 567.65 486.46 567.27C486.839 566.891 487.029 564.804 486.839 562.433C486.555 556.837 487.788 554.845 492.91 552.853C497.652 551.051 499.36 547.921 496.893 545.455C496.135 544.696 495.186 541.566 494.807 538.625C494.427 535.59 493.668 532.08 493.194 530.753C492.246 528.476 491.392 519.94 491.487 514.533C491.487 513.205 491.487 509.506 491.392 506.186C491.392 502.297 491.771 500.305 492.435 500.305C493.194 500.305 493.479 499.262 493.194 497.46C492.815 495.278 493.194 494.519 494.712 493.95C495.85 493.571 497.463 493.381 498.411 493.571C499.644 493.76 500.024 493.097 500.024 491.01C500.024 488.069 502.11 485.603 504.671 485.603C505.715 485.603 506.379 484.37 506.853 481.335C507.517 476.782 506.094 465.4 504.671 463.787C503.438 462.459 503.628 461.701 505.525 461.226C507.327 460.752 509.793 452.974 508.94 450.508C508.655 449.749 508.845 449.085 509.414 449.085C509.983 449.085 510.457 448.611 510.457 448.042C510.457 447.473 511.311 445.955 512.354 444.627C513.398 443.299 514.251 441.402 514.251 440.454C514.251 439.221 514.82 438.747 516.433 438.936C518.425 439.126 518.52 438.936 518.33 431.064C518.14 426.606 518.52 421.389 519.184 419.397C520.037 416.646 519.942 415.413 518.994 413.516C518.33 412.283 517.381 411.429 516.907 411.714C515.674 412.473 513.303 410.196 513.303 408.204C513.303 407.161 513.682 406.402 514.156 406.402C516.053 406.402 516.148 403.177 514.251 401.47C513.113 400.332 512.354 398.435 512.354 396.443C512.354 394.641 511.501 391.7 510.457 389.803C508.37 386.199 507.896 381.741 509.604 381.741C511.69 381.741 509.983 377.567 507.707 376.998C505.809 376.619 505.051 375.481 504.102 371.781C502.585 365.901 503.343 359.83 505.715 359.261C507.232 358.882 508.94 355.846 508.655 353.949C508.465 352.621 510.742 344.274 511.501 343.326C511.975 342.852 512.354 341.808 512.354 340.955C512.354 339.911 513.113 339.437 514.536 339.437C517.381 339.532 520.701 333.366 518.52 332.133C517.381 331.564 517.192 330.331 517.666 326.822C518.045 324.071 517.856 321.984 517.287 321.605C516.717 321.32 516.528 320.182 516.812 319.234C517.097 318.285 516.812 317.147 516.243 316.862C514.441 315.724 515.105 311.93 517.476 309.369C519.658 306.998 522.788 297.228 522.788 292.486C522.788 291.158 524.495 288.312 527.056 285.466C529.428 282.811 532.083 279.87 532.937 278.827C535.024 276.55 537.016 272.851 537.016 271.334C537.016 270.764 538.059 268.109 539.292 265.548C540.62 262.892 541.853 260.046 542.138 259.098C542.517 257.865 543.466 257.39 545.268 257.58C546.785 257.77 548.398 257.675 548.872 257.39C549.441 257.011 550.959 256.537 552.476 256.157C555.796 255.399 555.701 253.596 552.192 247.146C548.967 241.266 548.588 236.713 551.054 234.436C552.571 233.108 552.666 232.065 552.097 227.797C551.718 225.141 550.674 221.252 549.821 219.165C548.113 215.087 548.872 211.482 552.287 207.688C553.994 205.791 553.994 205.601 552.002 201.618C550.01 197.634 550.01 197.444 551.718 194.314C552.666 192.512 553.994 191.089 554.753 191.089C555.417 191.089 556.271 190.52 556.555 189.761C556.84 189.002 561.392 186.631 566.704 184.544C572.016 182.363 576.948 180.276 577.612 179.802C578.276 179.422 580.647 173.257 582.924 166.143L587.002 153.243L584.347 150.682L581.691 148.216L575.241 149.639C568.886 151.062 568.791 151.062 567.178 149.07C566.135 147.742 565.756 146.224 566.135 145.086C566.514 144.043 566.704 142.335 566.704 141.292C566.135 133.514 565.092 128.867 563.574 126.78C562.531 125.452 561.677 123.27 561.677 121.942C561.677 120.52 561.013 118.433 560.159 117.295C559.306 116.062 558.831 114.165 559.116 113.121C559.78 110.75 556.271 103.541 552.666 99.6522C550.39 97.1861 550.295 96.8067 551.718 95.2891C553.14 93.7714 553.046 93.4869 550.485 91.4002C546.785 88.1753 546.311 87.1319 547.639 84.8554C548.588 83.3378 548.588 82.579 547.639 81.0614C546.596 79.354 546.691 79.1643 548.872 79.1643C550.959 79.1643 551.243 78.7849 551.243 75.6548C551.243 73.7578 550.579 71.4813 549.726 70.5329C548.303 68.9204 548.398 68.541 551.054 65.316L553.899 61.9013L550.2 58.2021C548.208 56.2102 546.121 54.503 545.647 54.503C544.224 54.503 542.043 50.4243 541.379 46.4406C540.146 39.3267 538.723 33.1613 537.869 31.454C537.3 30.4106 537.3 29.0827 537.964 27.9445C538.913 26.2371 538.628 26.0474 536.067 26.0474C533.696 26.0474 533.222 25.6681 533.222 23.771C533.222 22.5379 532.558 20.9255 531.609 20.2615C530.755 19.5027 529.617 17.7954 528.953 16.3726C528.005 13.9065 527.72 13.8116 526.013 15.1395ZM452.882 851.92C451.08 852.584 451.365 853.912 453.546 854.576C454.59 854.955 455.254 855.524 454.969 855.999C454.685 856.473 453.831 856.662 453.072 856.283C452.313 855.999 451.649 856.283 451.649 856.852C451.649 857.421 451.27 857.896 450.701 857.896C449.183 857.896 449.563 853.912 451.365 852.015C452.218 851.066 453.167 850.592 453.451 850.877C453.736 851.256 453.451 851.73 452.882 851.92ZM483.899 927.611C483.899 928.37 483.235 929.034 482.381 929.034C481.053 929.034 481.053 928.75 482.002 927.611C482.666 926.853 483.33 926.189 483.519 926.189C483.709 926.189 483.899 926.853 483.899 927.611Z" fill="white"/>
<path d="M423.763 844.711C423.099 848.6 423.952 850.307 426.513 850.307C427.746 850.213 433.627 844.901 433.627 843.763C433.627 843.288 432.489 842.719 431.066 842.435C429.548 842.15 427.557 841.676 426.418 841.297C424.616 840.727 424.332 841.107 423.763 844.711Z" fill="white"/>
<path d="M435.429 852.013C436.852 854.574 436.757 855.997 435.239 855.997C434.575 855.997 433.152 856.566 432.204 857.325C430.591 858.463 430.591 858.747 432.014 860.739C433.816 863.3 433.342 866.43 430.686 870.225C429.833 871.552 428.789 874.398 428.505 876.58C428.03 880.089 428.125 880.469 429.738 879.994C430.781 879.71 432.488 878.477 433.721 877.244C434.86 876.01 436.662 874.967 437.61 874.967C438.559 874.967 439.318 874.303 439.318 873.544C439.318 872.406 438.559 872.216 435.524 872.691C431.445 873.355 430.686 872.406 433.437 870.035C435.713 868.043 438.179 867.284 438.843 868.328C440.076 870.414 441.215 869.086 441.215 865.577C441.215 863.49 441.689 861.498 442.163 861.214C443.396 860.455 442.448 854.1 440.835 852.487C440.266 851.918 438.559 851.065 437.041 850.685C434.575 850.116 434.48 850.211 435.429 852.013Z" fill="white"/>
<path d="M424.143 854.101C424.143 854.955 423.669 856.093 423.1 856.662C422.341 857.421 422.626 857.896 424.238 858.37C425.851 858.939 426.799 858.559 428.032 856.852C430.403 853.817 430.309 853.438 426.989 852.963C424.807 852.679 424.143 852.868 424.143 854.101Z" fill="white"/>
<path d="M432.205 882.934C430.498 884.167 430.498 884.357 432.49 888.625C433.628 890.996 434.577 893.842 434.577 894.79C434.577 897.351 438.466 900.102 439.509 898.3C440.742 896.118 439.604 889.574 437.232 885.495C434.766 881.132 434.671 881.132 432.205 882.934Z" fill="white"/>
<path d="M440.362 910.919C438.465 912.152 439.888 915.377 442.923 916.61C444.346 917.179 447.951 918.507 450.986 919.645C456.867 921.732 456.677 921.448 454.875 927.139C454.306 928.941 457.91 933.778 459.712 933.778C460.945 933.778 462.273 936.434 461.989 938.141C461.894 938.616 461.894 939.754 461.989 940.608C462.083 942.789 464.55 941.841 465.214 939.375C465.878 937.003 468.723 937.003 468.723 939.375C468.723 940.418 468.344 941.556 467.775 941.841C465.498 943.263 467.205 944.022 472.612 943.927C476.785 943.833 478.588 944.117 479.157 945.161C481.623 949.239 481.623 949.239 484.374 947.437C486.46 946.109 487.314 946.014 488.737 946.868C489.685 947.532 491.582 948.006 492.91 948.006C497.843 948.006 494.143 941.366 488.357 939.944C486.935 939.564 485.512 938.9 485.227 938.426C484.279 936.814 481.338 937.572 480.105 939.944C478.493 942.884 477.26 942.125 477.26 938.141C477.26 934.727 473.75 930.648 469.672 929.51C468.344 929.131 465.214 926.664 462.653 924.103C460.092 921.448 455.064 917.938 451.27 916.041C447.571 914.239 444.157 912.057 443.777 911.393C442.923 909.876 442.165 909.781 440.362 910.919Z" fill="white"/>
<path d="M502.11 931.121C501.446 931.785 500.972 933.113 500.972 934.061C500.972 935.105 500.403 936.433 499.644 937.002C498.126 938.14 497.367 944.021 498.506 945.918C498.885 946.582 501.067 947.056 503.628 947.056L508.086 946.961L504.766 944.116C501.92 941.65 501.731 941.27 503.628 941.649C505.714 942.124 505.714 941.934 505.145 937.286C504.387 930.931 503.628 929.603 502.11 931.121Z" fill="white"/>
<circle id="133" cx="500" cy="436" fill="#5CE50D"/>
<circle id="923" cx="503" cy="95" fill="#E52A0D"/>
<circle id="1218" cx="456" cy="630" fill="#E52A0D"/>
<circle id="1603" cx="503" cy="180" fill="#E52A0D"/>
</svg>
