<svg width="1000" height="1000" viewBox="0 0 1000 1000" fill="none" xmlns="http://www.w3.org/2000/svg">
<path d="M687.502 4.21777C685.256 8.22168 685.061 8.31934 680.08 8.31934C676.76 8.31934 674.611 7.83105 673.83 6.85449C672.658 5.4873 669.924 4.80371 669.924 5.97559C669.924 8.22168 672.658 10.4678 677.248 11.835C680.275 12.6162 682.424 13.7881 682.131 14.2764C681.154 15.6436 675.979 15.3506 673.342 13.5928C671.193 12.2256 670.705 12.2256 667.482 13.6904C663.186 15.8389 662.307 17.1084 664.357 18.5732C665.334 19.2568 666.018 20.5264 666.018 21.4053C666.018 23.749 662.697 29.999 660.256 32.1475C658.303 33.9053 658.303 34.0029 660.158 37.6162C662.307 41.7178 665.822 43.5732 675.588 45.4287C681.35 46.6006 681.936 46.9912 690.139 55.3896L698.732 64.0811L698.342 72.0889C698.146 77.3623 697.365 81.3662 696.193 83.71C695.119 85.7607 694.338 89.374 694.338 92.0107C694.338 94.9404 693.654 97.8701 692.385 99.8232C690.529 102.851 690.529 103.046 692.287 104.218C695.021 106.171 696.291 111.835 695.119 117.011C694.338 121.015 693.947 121.503 690.725 122.089C686.232 122.87 677.736 129.315 674.416 134.296C672.463 137.323 671.193 138.202 669.143 138.202C667.58 138.202 664.846 139.276 663.088 140.644C661.232 142.011 658.107 143.671 656.154 144.257C652.932 145.136 652.15 145.038 649.611 143.183C646.584 141.132 643.85 140.644 642.092 141.913C641.506 142.304 639.943 144.354 638.576 146.503C637.111 148.651 634.182 152.558 631.936 155.292C629.787 157.929 627.932 160.956 627.932 161.835C627.932 163.007 627.15 163.593 625.588 163.593C622.658 163.593 617.189 171.601 617.189 175.995C617.189 177.948 616.213 179.804 614.26 181.659C612.209 183.612 611.33 185.37 611.33 187.616C611.33 189.96 610.842 190.937 609.377 191.425C606.057 192.499 603.713 199.14 602.053 211.64C601.662 214.472 600.49 217.401 599.025 219.159C597.268 221.21 596.682 223.163 596.682 226.386C596.682 228.827 596.193 231.171 595.705 231.464C595.119 231.855 594.924 233.515 595.314 235.468C595.803 238.398 595.51 239.374 593.166 241.815C591.701 243.378 589.846 244.648 589.162 244.648C588.381 244.648 585.354 246.894 582.424 249.628C578.127 253.73 577.15 255.292 577.15 257.831C577.15 259.589 576.467 261.542 575.686 262.226C573.439 264.081 573.83 270.038 576.369 272.675C578.42 274.823 578.42 275.019 576.857 278.339C575.979 280.292 575.197 283.905 575.197 286.444C575.197 290.351 574.709 291.62 572.561 293.769C570.998 295.136 567.971 296.698 565.725 297.187C563.283 297.773 558.498 300.507 553.518 304.218C549.025 307.538 544.729 310.565 543.947 311.054C542.678 311.737 542.873 312.226 544.729 314.179C547.268 316.913 547.463 320.233 545.412 325.409C542.385 333.124 538.674 349.921 538.381 357.636L537.99 365.546L534.084 366.23C530.959 366.815 530.275 367.304 530.275 369.062C530.275 371.698 527.443 374.53 524.904 374.53C523.83 374.53 521.877 375.702 520.412 377.069C517.971 379.413 517.678 379.511 514.943 378.144C512.502 376.874 511.818 376.874 509.475 378.046C507.131 379.315 506.838 379.999 506.838 384.296C506.838 388.788 506.643 389.179 504.592 389.179C503.322 389.179 501.076 390.448 499.514 392.108C497.951 393.671 495.9 395.038 495.021 395.038C494.045 395.038 491.994 396.698 490.334 398.651C487.502 402.167 487.307 402.753 487.307 410.858C487.307 418.671 487.111 419.452 484.865 421.21C482.521 423.065 482.521 423.261 483.791 426.972L485.158 430.78L478.811 442.499C470.217 458.124 467.482 465.546 468.068 471.405C468.459 475.702 468.264 476.093 465.627 477.167C463.479 478.046 462.893 478.925 462.893 481.366C462.795 485.956 455.08 499.921 452.443 500.312C450.002 500.702 449.807 501.288 451.076 504.706C451.564 505.976 452.15 509.589 452.248 512.812L452.541 518.476L449.123 519.257C447.268 519.745 443.361 521.21 440.432 522.577C435.939 524.628 434.475 525.995 431.447 531.073C428.908 535.273 428.127 537.421 428.713 538.593C429.299 539.667 428.713 541.523 426.662 544.745C424.807 547.773 423.83 550.605 423.83 553.144C423.83 556.757 423.635 557.05 420.217 557.831C417.287 558.515 416.506 559.198 415.822 561.835C415.236 563.886 414.357 564.96 413.283 564.96C412.307 564.96 410.646 565.644 409.572 566.425C407.131 568.28 406.447 568.28 405.764 566.034C405.275 564.276 404.494 564.179 396.682 564.667C388.283 565.253 388.088 565.155 386.428 562.714C385.256 560.956 382.814 548.065 382.814 543.769C382.814 543.573 379.787 543.476 375.979 543.476H369.143L363.576 535.175C359.182 528.437 356.936 526.093 352.443 523.358C349.318 521.503 345.803 518.769 344.631 517.304C343.459 515.839 342.385 515.058 342.092 515.644C341.896 516.132 339.846 519.648 337.6 523.456L333.498 530.292L318.752 530.585L304.104 530.878L302.639 526.386L301.271 521.991L288.771 532.245C279.787 539.569 275.49 542.499 273.635 542.499C272.17 542.499 269.436 542.792 267.385 543.085C263.869 543.671 263.869 543.671 263.186 549.726C262.795 552.948 261.428 558.222 260.061 561.249C257.619 566.718 257.424 566.913 253.713 566.913C250.49 566.913 249.611 567.401 248.244 569.745C246.682 572.577 243.752 573.749 238.771 573.749C236.428 573.749 235.354 575.898 235.354 580.78C235.354 583.124 234.963 583.515 232.521 583.515C229.982 583.515 229.201 584.296 225.588 590.839C221.779 597.675 221.291 598.163 217.678 598.749C214.357 599.335 212.502 600.898 203.518 610.468C197.463 617.011 192.385 621.601 191.311 621.601C190.334 621.601 189.064 622.382 188.576 623.456C187.99 624.433 186.232 625.8 184.572 626.483C182.619 627.265 181.74 628.241 182.033 629.315C183.498 634.589 183.498 636.933 182.229 638.69C180.275 641.425 181.35 645.917 184.865 649.628L187.893 652.851L185.842 654.999C184.768 656.269 182.619 659.491 181.252 662.323C179.006 666.815 178.713 668.573 178.713 677.558C178.713 687.616 178.713 687.616 175.686 690.546C174.025 692.108 171.193 696.405 169.533 700.214C167.482 704.608 165.432 707.538 163.869 708.417C161.721 709.491 161.428 710.175 161.818 713.3C162.209 716.425 161.818 717.401 158.986 720.233L155.666 723.651L155.764 734.784C155.861 744.452 156.154 746.015 157.717 747.187C159.963 748.847 163.283 748.944 164.846 747.382C165.529 746.698 166.018 744.062 166.018 741.523C166.018 736.835 167.287 735.273 168.361 738.593C169.24 741.23 173.537 744.94 174.709 744.159C175.295 743.866 175.783 742.792 175.783 741.913C175.881 740.448 175.979 740.448 177.248 742.011C178.518 743.769 178.615 743.769 179.494 742.011C180.275 740.644 179.982 739.081 178.615 735.858C176.955 732.148 176.857 731.464 178.127 730.194C179.396 728.925 179.592 729.218 180.178 732.343C180.568 734.296 181.643 736.835 182.619 738.105C183.791 739.569 184.865 744.159 185.939 752.265C187.111 761.835 187.893 764.862 189.846 767.401C193.361 772.089 195.021 775.898 195.705 780.976C196.291 784.589 196.779 785.663 198.146 785.663C199.025 785.663 201.662 787.226 203.811 789.081C206.057 790.937 208.596 792.499 209.475 792.499C210.354 792.499 212.795 793.769 214.748 795.331C217.971 797.87 218.459 798.065 220.217 796.796C222.854 794.843 223.439 795.038 225.686 798.847C227.15 801.19 228.42 802.265 229.982 802.265C233.889 802.265 237.307 800.507 237.307 798.456C237.307 797.187 238.088 796.405 239.455 796.21C242.971 795.722 242.678 792.597 238.479 784.394C238.283 784.003 238.967 783.71 239.943 783.71C240.92 783.71 242.971 785.468 244.436 787.616C247.951 792.597 250.295 793.964 251.955 792.011C254.689 788.69 255.275 790.644 253.225 796.112C252.932 796.894 254.494 797.48 257.717 797.968C262.404 798.554 262.6 798.749 261.33 800.214C260.061 801.581 260.061 802.069 261.135 803.339C262.209 804.413 262.209 805.292 261.232 807.44L260.061 810.273L257.033 807.636L254.006 805.097L253.42 807.831C252.248 813.105 252.15 813.202 250.002 811.835C248.537 810.956 247.854 810.858 246.975 811.737C246.096 812.616 246.682 813.886 249.416 817.011C252.541 820.624 252.932 821.796 252.932 826.386C252.932 830.878 253.225 831.562 254.787 831.562C256.057 831.562 257.033 832.636 257.814 834.98C258.4 836.835 259.377 838.398 259.963 838.398C261.135 838.398 266.701 844.257 273.928 853.046C278.029 858.124 279.201 860.37 279.787 864.276C280.178 866.913 281.057 870.331 281.838 871.796C283.889 875.8 283.498 879.706 280.764 882.343C278.42 884.491 278.322 885.175 278.322 895.429C278.322 905.585 278.127 906.855 274.807 915.058C271.584 923.163 271.389 924.335 271.975 930.878C272.268 934.98 272.17 938.788 271.584 939.765C269.143 944.355 274.709 953.827 280.568 954.999C282.229 955.292 284.377 956.366 285.354 957.148C286.721 958.515 287.502 958.612 289.846 957.636C291.994 956.757 293.361 956.757 296.486 957.929C299.904 959.101 300.588 959.101 302.248 957.831C303.908 956.562 311.525 956.366 357.424 956.659L410.646 957.05L410.939 952.46L411.232 947.87L416.311 947.089C419.24 946.503 422.268 946.601 423.439 947.089C424.709 947.577 427.834 947.48 431.74 946.796C438.576 945.526 441.604 945.429 448.244 946.308C450.686 946.698 454.396 946.503 456.545 946.015C459.084 945.429 461.33 945.526 462.795 946.112C464.357 946.894 465.529 946.796 466.799 946.015C469.436 944.355 484.572 945.331 485.939 947.284C487.209 949.042 489.553 949.14 492.189 947.577C493.654 946.601 494.436 946.698 496.096 948.261C497.951 949.921 498.342 949.921 501.271 948.554C504.006 947.187 504.787 947.187 506.35 948.358C508.693 950.019 511.135 950.019 516.115 948.261C519.631 946.991 520.119 946.991 521.193 948.358C521.877 949.335 523.049 949.726 524.025 949.335C524.904 948.944 528.127 949.433 531.057 950.214C536.232 951.776 536.428 951.776 538.479 949.823C541.115 947.382 541.799 947.284 544.045 949.335C545.51 950.605 546.096 950.702 548.537 949.53C550.197 948.749 554.201 948.261 558.596 948.456C562.6 948.456 567.092 948.163 568.557 947.577C570.607 946.796 572.072 946.894 574.611 948.163C576.467 949.042 578.811 949.726 579.787 949.726C581.057 949.726 582.033 950.898 582.814 953.046L584.084 956.464L633.791 956.757L683.4 957.05L686.037 959.491C688.186 961.542 688.771 961.64 689.455 960.468C689.943 959.687 690.432 958.71 690.432 958.319C690.432 957.148 693.557 955.878 697.756 955.194C701.271 954.608 702.053 954.901 705.764 958.026C708.693 960.468 710.744 961.444 713.186 961.444C715.041 961.444 718.166 962.128 720.021 962.909C721.975 963.69 724.709 964.374 726.076 964.374C728.029 964.374 728.518 964.862 728.518 966.62C728.518 967.89 729.592 969.94 730.861 971.112L733.205 973.261L735.158 970.819C736.818 968.671 737.209 968.476 738.283 969.745C739.162 970.819 739.943 970.917 741.311 970.136C742.678 969.452 743.752 969.55 745.217 970.526C746.877 971.796 747.854 971.796 752.053 970.526L756.936 969.062L760.549 972.968C765.236 977.948 767.678 978.632 773.146 976.581C776.369 975.312 779.006 975.019 783.498 975.507C786.818 975.8 792.58 976.386 796.193 976.679C801.76 977.265 803.127 977.753 804.396 979.608C805.373 981.073 806.838 981.952 808.498 981.952C810.256 981.952 812.404 983.222 814.943 985.858C817.775 988.69 819.533 989.765 821.779 989.765C827.443 989.765 829.006 990.741 830.08 994.745C831.447 999.628 834.572 1001.48 836.525 998.749C837.307 997.577 838.869 996.601 840.139 996.405C842.092 996.112 842.287 995.624 841.896 991.23C841.506 985.468 840.822 984.101 836.232 978.925C833.4 975.8 832.912 974.628 833.4 972.382C833.791 970.917 834.279 968.573 834.475 967.206C834.572 965.839 835.256 963.69 835.842 962.616C836.428 961.542 836.916 958.612 836.916 956.073C836.916 952.069 837.111 951.679 838.674 952.558C839.65 953.144 841.408 953.241 842.58 952.948L844.631 952.46L842.678 947.675C841.701 944.94 840.822 941.425 840.822 939.667C840.822 937.909 839.748 934.687 838.381 932.343C836.721 929.315 836.135 927.362 836.623 925.214C836.916 923.358 836.525 920.917 835.451 918.476C833.791 914.667 833.791 914.472 835.451 911.151C837.209 908.026 837.209 907.733 835.646 905.976C833.791 903.925 833.4 897.87 835.061 894.843C836.623 891.913 830.178 882.343 826.564 882.343C824.025 882.343 820.607 879.413 817.092 874.14C816.018 872.577 814.65 871.698 813.869 871.991C813.088 872.284 811.916 872.284 811.135 871.991C810.354 871.698 803.615 864.765 796.193 856.659C788.771 848.456 779.104 837.909 774.611 833.222C761.135 818.964 747.072 798.163 747.072 792.597C747.072 791.034 749.807 788.3 752.541 787.226C752.639 787.128 753.029 786.151 753.322 784.98C753.908 783.222 753.518 782.636 751.662 782.245C748.342 781.366 746.096 776.874 746.096 771.015C746.096 766.132 745.9 765.839 739.357 759.296C735.646 755.487 732.033 752.46 731.252 752.46C730.568 752.46 726.369 749.628 722.072 746.21L714.162 739.96L712.111 728.925C708.986 712.226 708.889 711.444 708.303 705.292C707.912 701.093 708.205 699.042 709.475 697.187C710.939 694.843 710.939 694.648 708.693 691.913C707.326 690.351 706.057 687.616 705.666 685.663C705.08 682.831 704.494 682.148 701.857 681.659C697.561 680.683 694.338 677.558 694.338 674.14C694.338 671.894 694.924 671.112 697.268 670.331C699.904 669.355 700.197 668.769 700.197 665.448C700.197 663.3 700.881 660.273 701.662 658.808C702.834 656.366 702.834 655.78 701.662 654.218C699.709 651.679 699.904 646.21 702.053 642.206C703.713 639.179 703.713 638.495 702.443 635.468C701.369 632.929 701.271 631.073 702.053 627.655C703.225 622.089 702.248 620.624 697.561 620.624C693.166 620.624 690.822 619.257 688.967 615.741C686.525 611.054 687.111 607.733 691.018 603.925C692.971 602.167 695.119 599.433 695.9 597.968C697.072 595.722 697.951 595.233 700.783 595.233C704.787 595.233 711.232 592.206 714.455 588.69C716.213 586.737 716.799 585.077 716.799 581.562C716.799 578.046 717.287 576.581 719.143 574.726C720.51 573.554 721.877 571.112 722.17 569.452C722.561 567.792 723.928 564.569 725.197 562.421C726.467 560.175 728.42 555.878 729.494 552.851C731.35 547.968 731.838 547.382 734.377 547.382C738.576 547.382 742.775 543.28 743.557 538.593C744.338 533.612 752.248 517.597 754.299 516.815C755.471 516.327 755.568 515.546 754.787 513.007C753.42 508.417 754.592 502.655 757.131 501.386C761.33 499.237 777.346 482.538 777.346 480.292C777.346 479.12 778.225 477.558 779.299 476.776C780.471 475.995 782.619 473.651 784.182 471.601C786.623 468.378 787.014 466.913 787.111 461.933C787.111 456.269 786.916 455.78 783.107 452.167C778.615 447.773 769.533 430.78 769.533 426.679C769.533 424.14 758.498 402.851 750.393 389.569C748.049 385.663 745.803 381.073 745.51 379.315C744.338 373.456 743.557 372.675 738.088 372.382C733.01 372.089 733.01 372.089 731.936 368.183C731.447 366.034 729.982 363.202 728.811 362.03C727.541 360.858 726.564 359.589 726.564 359.101C726.564 358.71 723.342 358.515 719.436 358.71L712.307 359.101L705.861 352.265C702.346 348.456 699.123 344.55 698.83 343.476C698.439 342.401 694.338 338.593 689.65 335.077C677.346 325.8 676.76 325.214 676.76 322.187C676.76 320.038 674.025 316.718 662.893 305.487C651.564 294.062 648.537 291.523 646.291 291.523C640.139 291.523 641.506 286.151 650.1 276.386C654.689 271.21 657.521 266.913 659.279 262.421L661.916 255.878L670.51 255.585C682.033 255.194 699.221 256.952 706.74 259.394C712.014 261.151 713.381 261.249 716.506 260.175C718.947 259.394 723.244 259.198 729.787 259.589C738.967 260.175 739.748 260.077 743.752 257.733C747.756 255.39 748.049 255.292 750.979 256.855C753.225 258.026 755.373 258.319 758.693 257.831C761.721 257.44 764.357 257.733 766.701 258.71C769.631 259.98 771.779 259.98 779.885 259.101C792.873 257.733 794.533 256.269 789.064 250.995C787.404 249.433 783.107 246.601 779.592 244.648C774.611 242.011 772.854 240.546 772.072 238.202C770.51 233.905 764.748 227.265 760.646 225.116C757.814 223.651 756.936 222.48 756.35 219.648C756.057 217.597 754.006 213.983 751.955 211.542C749.416 208.515 748.049 205.683 747.561 202.655C747.17 200.214 745.51 194.745 743.85 190.448C741.018 182.929 740.92 182.05 740.822 166.522C740.725 155.78 740.236 149.726 739.455 148.261C738.771 147.089 738.283 142.597 738.283 137.812C738.283 130.194 738.576 129.022 741.213 124.726C744.631 119.062 744.826 117.304 742.189 113.007C740.627 110.468 740.236 108.124 740.236 101.679C740.236 94.8428 739.943 93.2803 738.283 91.8154C736.525 90.2529 736.33 89.2764 736.916 82.5381C737.502 76.0928 737.307 74.6279 735.451 71.0146C734.084 68.2803 732.229 66.4248 730.08 65.5459C725.588 63.6904 724.611 61.4443 724.611 53.4365C724.611 46.0146 723.732 42.4014 720.119 35.5654C718.85 33.0264 717.775 29.8037 717.775 28.3389C717.775 24.2373 712.111 17.2061 708.791 17.1084C706.643 17.1084 706.154 16.6201 705.861 14.374C705.666 12.2256 705.08 11.6396 702.443 11.4443C700.393 11.249 699.123 10.4678 698.732 9.19824C698.342 8.02637 697.268 7.34277 695.803 7.34277C694.045 7.34277 692.873 6.36621 691.604 3.72949L689.748 0.213867L687.502 4.21777Z" fill="white"/>
<circle id="118" cx="408" cy="832" fill="#5CE50D"/>
<circle id="120" cx="683" cy="202" fill="#E52A0D"/>
<circle id="117" cx="250" cy="785" fill="#E52A0D"/>
<circle id="1605" cx="608" cy="500" fill="#E52A0D"/>
</svg>
