<svg width="1000" height="1000" viewBox="0 0 1000 1000" fill="none" xmlns="http://www.w3.org/2000/svg">
<path d="M794.953 82.1575C792.316 83.427 788.508 84.7942 786.652 85.1849C784.797 85.5755 780.305 87.6263 776.691 89.677C773.176 91.8255 769.074 93.4856 767.805 93.4856C765.949 93.4856 764.191 95.0481 760.48 100.029C757.844 103.74 755.402 107.45 755.109 108.329C754.426 110.283 756.574 111.259 759.797 110.478C764.094 109.404 765.852 111.454 766.926 118.583C767.609 123.466 767.609 125.517 766.828 126.2C762.141 130.302 759.309 134.794 759.309 138.408C759.309 140.458 758.918 142.509 758.332 142.802C757.844 143.095 757.355 144.853 757.355 146.708C757.355 148.564 756.965 150.322 756.379 150.615C755.891 150.908 755.402 152.372 755.402 153.837C755.402 155.302 754.328 158.622 753.059 161.357C750.715 166.142 750.715 166.24 752.57 166.533C757.648 167.411 755.5 173.564 749.641 175.322C747.395 176.005 745.637 176.982 745.637 177.372C745.637 177.861 743.586 180.693 741.047 183.72C737.824 187.626 736.066 189.091 734.992 188.603C734.113 188.31 730.793 187.626 727.57 187.236C724.348 186.747 720.832 186.064 719.66 185.771C717.805 185.185 717.414 186.161 714.289 196.22C712.434 202.275 711.066 208.036 711.262 209.111C711.359 210.087 710.578 212.431 709.406 214.189C708.137 216.337 707.648 218.193 708.039 219.56C708.527 220.927 708.039 222.294 706.574 223.857C703.547 227.079 704.621 231.279 709.016 233.72C712.336 235.478 712.434 235.478 714.582 233.427C715.852 232.353 718.781 230.986 721.125 230.4C724.738 229.521 725.812 229.618 728.449 231.279C730.109 232.255 732.648 233.134 734.113 233.134C736.262 233.134 736.945 232.45 738.02 228.935C739.289 225.126 739.777 224.736 743.977 223.954C747.98 223.173 749.152 223.368 753.742 225.615C756.574 227.079 759.602 228.251 760.578 228.251C761.457 228.251 762.238 228.935 762.238 229.716C762.238 230.497 764.289 232.255 766.73 233.72C774.543 238.31 779.328 247.49 775.52 250.615C774.836 251.2 769.27 251.884 763.117 252.177C753.059 252.665 751.887 252.861 749.543 255.107C747.883 256.669 745.832 257.548 743.781 257.548C741.145 257.548 740.461 258.036 739.68 260.478C738.703 263.017 738.117 263.408 735.09 263.408C733.039 263.408 730.5 264.189 729.426 265.165C726.496 267.411 723.176 274.443 723.176 278.056C723.176 280.009 722.59 281.279 721.516 281.669C720.539 281.962 718.488 283.427 716.828 284.892C713.508 287.919 705.891 290.751 701.008 290.751C698.273 290.751 697.785 291.142 697.785 293.095C697.785 295.439 689.777 303.837 685.188 306.279C681.965 308.036 670.246 306.767 667.121 304.325C665.559 303.154 663.215 302.47 660.188 302.47H655.695L651.691 310.771L647.785 319.072L651.691 323.661C653.84 326.298 656.477 329.13 657.551 330.107C658.625 331.083 659.309 332.646 659.016 333.525C658.527 335.283 652.375 340.263 647.395 342.802C645.734 343.681 643.195 346.22 641.633 348.564C635.676 357.646 632.258 361.064 629.23 361.064C627.668 361.064 624.738 362.138 622.785 363.505C620.344 365.165 617.902 365.947 615.07 365.947C612.824 365.947 610.676 366.435 610.383 367.021C609.992 367.607 607.16 367.9 603.742 367.802C600.422 367.607 596.027 368.095 594.074 368.779C591.633 369.56 589.875 369.658 588.703 369.072C587.434 368.29 586.359 368.583 584.602 369.95C583.332 370.927 580.988 371.806 579.426 371.806C574.934 371.806 562.531 377.665 552.375 384.501L543.195 390.556L539.973 388.993C537.531 387.822 536.652 386.845 536.652 384.99C536.652 382.548 536.652 382.548 533.137 384.013C527.863 386.161 524.055 385.868 514.484 382.158C509.797 380.4 504.133 378.544 501.984 378.251C497.395 377.47 495.93 376.396 492.805 372.001C490.949 369.365 490.07 368.876 486.457 368.876C484.211 368.876 477.57 367.997 471.711 366.923C464.582 365.654 460.773 365.263 460.09 365.947C458.527 367.509 449.152 367.118 434.016 364.872C423.469 363.31 419.562 363.115 417.805 363.896C416.047 364.677 414.777 364.677 412.629 363.505C411.066 362.724 407.551 362.04 404.816 362.04C400.324 362.04 399.934 361.845 399.934 359.794C399.934 358.525 398.469 356.181 396.613 354.325C393.977 351.786 392.805 349.15 390.656 341.728C388.996 336.161 387.141 331.669 386.066 330.888C385.09 330.204 384.309 328.349 384.309 326.786C384.309 324.247 384.016 323.954 381.184 323.954C378.742 323.954 376.398 322.685 372.102 319.072C368.879 316.337 365.363 313.896 364.289 313.603C363.215 313.31 360.383 311.161 357.941 308.818C353.742 304.814 353.254 304.618 345.734 304.033C340.852 303.642 333.332 301.982 325.52 299.54L313.117 295.634L312.043 291.923C310.676 286.845 310.676 286.65 313.996 282.939C316.438 280.009 316.828 278.642 316.926 274.052C316.926 270.243 317.414 268.095 318.488 267.216C320.637 265.458 319.562 258.134 316.535 254.13C315.266 252.47 313.898 248.954 313.508 246.22C312.531 240.165 307.648 232.841 305.012 233.72C303.742 234.111 302.961 233.525 302.082 231.669C301.203 229.716 300.52 229.228 298.957 229.716C297.785 230.107 295.246 230.595 293.293 230.888C290.266 231.279 289.582 231.083 289.582 229.716C289.582 228.74 288.801 225.908 287.922 223.368C286.555 219.462 285.578 218.29 282.16 216.728C278.84 215.068 278.156 214.286 278.547 212.724C278.84 211.552 278.352 209.501 277.375 208.134C276.008 205.986 275.91 205.204 276.887 203.349C278.645 200.029 277.57 199.247 271.809 199.54C268.977 199.638 265.168 199.833 263.508 199.833C260.578 199.931 260.285 200.224 260.285 203.154C260.285 208.232 256.379 211.259 248.762 212.138C242.902 212.822 242.609 212.919 240.266 216.923C238.117 220.536 237.824 222.294 237.824 229.911C237.824 239.775 237.434 240.458 230.207 243.193C224.738 245.341 223.664 245.243 220.832 242.411C218.977 240.556 217.316 239.97 214.094 239.97C211.164 239.97 208.625 239.189 205.402 237.138C196.418 231.474 197.785 230.888 190.559 243.388C187.043 249.54 184.113 255.302 184.113 256.181C184.113 257.06 182.551 259.892 180.695 262.333L177.375 266.923L179.426 269.072C181.281 270.829 181.379 271.415 180.207 274.052C179.035 276.884 177.277 278.154 177.277 276.103C177.277 275.615 175.52 274.736 173.371 274.15C171.32 273.564 169.172 272.49 168.684 271.611C168 270.341 166.047 270.243 153.645 271.025C145.832 271.611 138.508 272.49 137.434 273.075C134.602 274.54 135.773 277.079 139.191 277.079C140.656 277.079 142.414 277.763 143.195 278.642C144.172 279.911 144.074 280.693 142.609 283.232C141.047 285.771 140.754 288.115 140.949 296.122C141.047 301.493 141.34 308.427 141.73 311.454L142.316 317.118H139.289C136.75 317.118 136.262 317.509 136.262 319.56C136.262 321.318 135.773 322.001 134.504 322.001C131.77 322.001 129.426 325.126 128.84 329.423C127.863 336.259 126.496 338.603 123.664 338.603C122.199 338.603 120.637 338.993 120.051 339.579C119.562 340.068 113.703 341.63 106.965 342.997C95.6367 345.341 94.5625 345.732 91.8281 348.954L88.8984 352.275L81.2812 351.298C77.082 350.712 71.9062 349.638 69.8555 348.857L65.9492 347.49L60.8711 353.251L55.793 359.111H42.6094L41.9258 355.693C41.2422 351.689 40.0703 350.712 38.1172 352.275C37.2383 352.958 35.2852 353.154 33.0391 352.763C30.207 352.372 27.9609 352.763 23.6641 354.716C20.5391 356.083 17.0234 357.158 15.8516 357.158C12.4336 357.255 8.91797 360.478 8.82031 363.7C8.82031 365.849 8.13672 366.728 5.59766 367.9C1.98438 369.56 0.910156 372.197 2.47266 376.103C3.25391 378.349 3.15625 379.13 1.88672 380.009C0.910156 380.79 0.519531 382.255 0.714844 384.501C1.00781 387.724 1.30078 387.919 5.20703 388.505C8.33203 388.896 10.3828 389.97 13.0195 392.607C16.5352 396.122 16.5352 396.22 15.3633 400.615C14.6797 403.056 14.1914 408.525 14.1914 412.822V420.634L11.5547 420.829C9.99219 420.829 7.64844 420.829 6.08594 420.732C4.32812 420.536 3.25391 421.122 2.76562 422.197C1.88672 424.54 8.42969 430.4 12.043 430.4C15.3633 430.4 17.1211 431.962 17.1211 434.99C17.1211 436.552 17.5117 437.04 18.6836 436.552C19.4648 436.259 21.125 436.943 22.5898 438.212C25.4219 440.947 25.8125 447.294 23.2734 450.126C22.0039 451.591 21.9062 452.372 22.7852 454.423C23.4688 455.693 23.957 457.743 23.957 458.818C23.957 460.478 24.4453 460.575 27.668 460.087C31.1836 459.501 31.3789 459.697 32.5508 462.919C34.2109 467.509 46.3203 475.322 51.6914 475.322C54.8164 475.322 55.207 475.615 55.0117 477.47C54.9141 478.74 55.1094 483.329 55.5977 487.822C56.3789 495.732 56.4766 496.025 59.9922 498.173C61.9453 499.443 64.2891 501.884 65.2656 503.544C67.0234 506.474 67.0234 506.572 65.2656 506.572C61.8477 506.572 59.3086 511.65 62.2383 512.626C63.0195 512.919 62.9219 513.7 61.75 515.361C58.5273 519.95 60.7734 528.447 65.4609 529.618C66.9258 530.009 67.6094 530.693 67.2188 531.572C66.9258 532.353 67.2188 534.99 67.8047 537.333C69.1719 542.9 67.9023 545.243 63.1172 545.927C61.1641 546.22 58.625 546.806 57.5508 547.099C55.793 547.685 55.4023 547.294 54.8164 544.267C54.2305 541.044 53.8398 540.751 50.8125 540.751C47.3945 540.751 47.3945 540.751 47.3945 545.243C47.3945 548.173 48.1758 551.005 49.4453 553.154C51.3984 556.181 51.3984 556.669 50.0312 558.036C48.8594 559.208 48.7617 560.185 49.543 562.236C50.2266 564.384 50.0312 565.751 48.8594 568.095C47.2969 571.22 47.2969 571.22 49.543 570.536C50.8125 570.146 52.1797 569.462 52.668 568.974C53.9375 567.802 56.0859 571.025 56.1836 574.052C56.1836 577.372 59.6992 581.767 62.1406 581.767C65.168 581.767 72.0039 587.724 71.5156 589.775C71.125 590.947 72.0039 592.216 74.0547 593.681C80.0117 597.685 85.4805 603.642 85.4805 605.888C85.4805 609.111 88.2148 609.892 89.9727 607.255C91.2422 605.497 96.125 602.275 97.6875 602.275C97.9805 602.275 98.1758 602.861 98.1758 603.642C98.1758 605.204 104.133 610.38 110.773 614.482C113.117 615.947 116.145 618.388 117.414 619.951C118.781 621.513 120.344 622.783 120.93 622.783C122.688 622.783 127.473 631.279 127.473 634.306C127.473 635.966 128.254 637.431 129.523 638.31C131.477 639.482 131.867 639.286 133.82 636.943C135.578 634.599 136.164 634.404 138.02 635.38C140.461 636.65 140.559 637.529 139.289 642.118C138.312 645.243 138.508 645.439 144.855 650.419C148.371 653.251 151.594 655.4 151.887 655.4C152.18 655.302 153.352 654.911 154.621 654.521C156.574 653.935 156.77 654.228 156.77 657.743C156.77 661.943 157.746 662.822 162.531 662.822C164.68 662.822 165.949 663.798 168.098 666.923C169.562 669.267 171.027 671.318 171.223 671.611C171.32 671.806 172.395 671.513 173.469 670.829C175.227 669.755 175.52 669.755 176.008 671.513C176.594 673.954 180.402 675.029 181.477 673.076C182.844 670.536 185.676 671.513 191.633 676.201L197.297 680.888L205.598 680.79C210.871 680.79 215.754 680.107 219.074 679.033C221.906 678.056 224.836 677.568 225.617 677.861C227.277 678.447 227.668 685.771 226.203 688.115C225.129 689.872 226.887 694.072 228.742 694.072C230.109 694.072 237.824 686.747 237.824 685.38C237.824 684.306 246.223 678.935 249.348 677.958C253.156 676.884 258.332 678.251 258.332 680.4C258.332 681.376 259.113 682.451 260.09 682.743C264.484 683.915 272.785 685.283 275.031 685.087C279.328 684.697 283.723 687.236 284.406 690.263C284.992 693.388 285.676 693.583 295.93 693.193C302.082 692.9 304.719 691.435 306.281 687.431C306.77 686.259 307.844 685.283 308.723 685.283C311.164 685.283 316.926 680.595 318 677.763C318.781 675.81 319.367 675.419 321.32 675.908C324.738 676.786 329.523 674.54 337.531 668.193C345.148 662.333 347.199 661.747 348.664 664.97C349.445 666.728 350.91 667.411 356.281 668.29C362.629 669.267 362.922 669.267 364.582 667.216C365.461 665.947 368.293 664.384 370.832 663.505C375.129 662.138 375.422 662.138 377.082 663.896C378.645 665.654 378.645 665.947 376.984 669.169C374.738 673.271 375.52 674.345 379.719 672.783C382.551 671.708 383.039 671.806 384.602 673.661C386.262 675.81 386.262 675.908 383.332 678.935C381.77 680.595 380.402 682.743 380.402 683.622C380.402 685.478 380.891 685.576 383.82 684.404C385.188 683.818 386.555 684.208 388.508 685.868C390.07 687.138 392.512 688.212 393.977 688.212C395.441 688.212 397.102 688.701 397.785 689.384C398.664 690.263 399.348 689.872 400.91 688.017C403.156 685.087 405.598 685.283 410.383 688.896C412.629 690.458 413.703 692.314 414.094 694.853C414.484 696.806 415.461 700.615 416.242 703.251C417.512 707.353 417.902 707.743 419.172 706.572C419.953 705.79 421.516 705.302 422.688 705.497C424.543 705.888 424.836 706.669 425.031 710.966C425.715 725.615 425.227 731.669 423.176 735.673C421.125 739.579 421.125 739.872 422.688 742.314C424.934 745.634 424.836 745.829 421.516 745.829C419.074 745.829 418.488 746.318 418 748.759C417.512 751.005 416.828 751.689 415.168 751.689C413.508 751.689 412.727 752.47 412.043 754.814C411.457 756.767 410.383 758.134 409.211 758.329C405.793 759.013 403.645 761.65 404.23 764.482C404.621 766.533 404.23 767.314 402.277 768.193C399.934 769.267 399.738 769.658 400.324 774.443C401.301 781.962 401.301 785.087 400.422 787.529C399.543 790.361 401.105 790.458 404.621 787.919C407.941 785.576 414.191 784.599 419.758 785.38C423.469 785.966 424.055 786.357 423.664 787.919C423.371 788.993 423.762 791.142 424.445 792.9C425.129 794.56 425.617 797.197 425.52 798.661C425.422 800.126 425.715 801.591 426.301 801.982C426.789 802.275 427.277 803.544 427.277 804.814C427.277 808.134 429.133 809.306 434.309 809.306C438.508 809.306 438.996 809.501 438.996 811.454C438.996 812.724 438.117 814.775 437.043 816.142C435.969 817.509 435.09 819.853 435.09 821.318C435.09 822.88 434.016 825.517 432.551 827.372C431.184 829.13 430.5 830.79 430.891 831.083C432.746 832.158 442.512 834.697 444.953 834.697C447.492 834.697 447.59 834.892 447.102 838.115C446.613 841.044 446.906 841.63 449.152 842.607C450.812 843.388 451.691 844.56 451.691 846.025C451.691 848.076 451.887 848.173 454.035 847.294C455.598 846.513 457.258 846.513 459.211 847.099C461.555 847.978 462.434 847.685 465.168 845.341C469.172 841.826 472.199 841.63 472.199 844.853C472.199 846.122 472.883 847.685 473.664 848.368C474.445 849.052 475.129 850.615 475.129 851.884C475.129 854.033 475.52 854.228 479.328 854.033C481.574 853.935 484.504 854.13 485.773 854.618L488.02 855.4L487.727 847.099C487.434 840.947 486.945 838.31 485.578 836.943C483.625 834.697 483.43 829.033 485.285 826.591C486.359 825.224 486.75 825.126 487.727 826.201C489.582 828.544 495.246 827.568 498.566 824.443C500.129 822.88 501.496 821.025 501.496 820.341C501.496 817.9 505.5 819.365 510.676 823.661L513.508 826.005L517.219 822.392C520.832 818.876 521.125 818.779 522.297 820.439C523.566 822.197 523.762 822.197 525.227 820.048L526.789 817.802L530.207 820.341C534.309 823.466 535.676 823.661 535.676 821.025C535.676 818.388 538.117 817.509 540.949 819.072C542.805 820.048 543.781 819.951 546.027 818.681C550.715 816.142 552.277 814.579 552.277 812.431C552.277 811.064 553.938 809.501 557.355 807.353L562.434 804.228L564.875 807.255C566.34 809.013 568.293 810.283 569.562 810.283C570.832 810.283 571.906 811.064 572.297 812.236C572.98 814.384 574.348 814.677 578.059 813.212C579.719 812.626 580.695 812.626 581.184 813.31C581.477 813.896 583.137 814.189 584.895 814.091C591.438 813.701 592.316 813.993 592.316 816.923C592.316 818.486 591.438 820.536 590.363 821.513C587.922 823.759 587.922 825.126 590.266 827.275C591.34 828.251 592.316 830.204 592.512 831.572C592.707 833.329 593.488 834.306 594.758 834.501C595.832 834.697 597.59 835.868 598.664 837.04C601.887 840.849 608.723 843.29 613.117 842.216C615.949 841.533 617.219 841.63 618.488 842.802C620.246 844.267 627.473 844.072 627.473 842.509C627.473 842.021 628.449 841.533 629.621 841.337C630.988 841.142 631.965 840.165 632.355 838.798L632.844 836.454L635.188 838.993C636.848 840.751 638.605 841.533 640.754 841.533C642.512 841.533 644.074 842.021 644.27 842.607C644.953 844.56 653.84 842.802 653.84 840.751C653.84 839.482 654.133 839.579 655.402 841.337C656.184 842.509 657.941 843.486 659.309 843.486C662.043 843.486 662.141 844.169 660.188 846.806C658.625 848.857 658.137 858.134 659.602 858.134C660.09 858.134 660.773 859.697 661.066 861.65C661.457 863.505 662.434 865.361 663.215 865.654C663.898 865.947 664.582 867.021 664.582 867.997C664.582 869.56 665.363 869.853 669.953 869.853C674.836 869.853 675.422 869.658 676.789 866.923C678.254 864.189 678.156 863.993 675.812 862.431C674.348 861.454 673.371 859.892 673.371 858.622C673.371 857.158 672.59 856.083 671.418 855.693C670.344 855.4 669.465 854.423 669.465 853.74C669.465 852.861 670.051 852.568 670.93 852.861C674.152 854.13 677.18 852.372 678.352 848.466C679.523 844.365 682.648 842.509 693.586 839.091C696.418 838.212 700.324 836.357 702.375 834.99C704.719 833.329 707.551 832.353 709.992 832.255C713.605 832.158 716.34 831.376 721.711 828.837C722.785 828.349 724.543 827.861 725.52 827.665C726.594 827.47 727.863 826.103 728.449 824.345C729.133 822.587 730.012 821.513 730.793 821.806C731.477 822.001 732.844 821.611 733.723 820.829C734.602 820.048 736.164 819.072 737.141 818.779C738.508 818.29 738.703 817.411 738.215 813.993C737.922 811.65 736.945 808.134 736.164 806.083C734.992 803.447 734.895 802.079 735.578 801.396C736.359 800.615 737.043 801.005 737.922 802.568C740.461 807.451 744.172 811.259 746.418 811.259C747.59 811.259 750.227 810.576 752.18 809.794C754.133 808.915 756.477 808.525 757.453 808.818C758.82 809.306 759.211 808.72 759.504 806.669C759.797 803.74 763.215 802.079 763.215 804.911C763.215 808.134 766.047 807.451 769.66 803.447C773.371 799.345 773.469 799.345 774.738 801.396C776.496 804.033 779.426 804.033 780.109 801.396C780.5 800.029 781.281 799.54 782.453 799.736C783.43 800.029 786.457 799.052 789.094 797.685C791.828 796.318 795.344 794.951 796.906 794.658C799.25 794.267 799.934 793.583 800.129 791.435C800.324 789.97 801.301 788.31 802.375 787.822C803.449 787.236 804.719 784.892 805.305 782.451C805.988 779.618 806.965 778.056 807.941 778.056C808.723 778.056 811.066 776.298 813.117 774.15C815.168 772.001 817.219 770.243 817.805 770.243C818.977 770.243 823.762 764.775 826.594 760.185C827.961 757.939 828.547 755.888 828.156 754.618C827.766 753.251 827.961 752.665 828.938 752.665C829.719 752.665 831.086 751.786 832.062 750.712C833.039 749.638 834.895 748.759 836.164 748.759C838.312 748.759 838.41 748.466 837.824 745.341C837.238 742.021 837.336 741.923 840.266 741.923C843 741.923 843.293 741.63 843.293 738.993C843.293 737.04 843.781 736.064 844.758 736.064C846.418 736.064 848.078 733.232 847.883 730.693C847.688 729.033 848.176 728.74 851.398 729.033C854.426 729.228 855.012 729.033 855.012 727.47C855.012 726.396 854.328 725.322 853.547 724.931C852.766 724.638 852.082 723.759 852.082 723.076C852.082 722.294 852.766 721.122 853.547 720.439C855.305 718.974 855.5 715.263 853.84 712.724C852.961 711.259 853.156 710.38 855.012 707.646C856.477 705.595 856.965 704.326 856.184 704.033C855.598 703.837 853.938 702.861 852.57 701.786C848.371 698.466 851.105 697.197 857.355 699.54C858.527 700.029 858.918 699.54 858.918 697.783C858.918 696.415 859.797 694.56 860.871 693.583C861.945 692.607 862.824 690.849 862.824 689.677C862.824 688.505 863.605 686.747 864.68 685.868C865.656 684.99 866.828 682.353 867.121 680.107C867.707 676.591 873.273 659.208 874.25 658.036C874.445 657.743 875.129 658.134 875.715 658.72C877.375 660.38 878.254 660.185 878.938 657.939C879.23 656.865 880.598 655.693 881.867 655.4L884.113 654.814L882.16 651.493C880.695 648.954 880.402 647.49 880.988 645.927C882.355 642.704 881.574 638.603 879.328 637.919C875.617 636.747 877.18 634.501 881.77 634.501H886.066L884.797 629.814C884.113 627.275 883.234 624.54 882.941 623.661C882.551 622.783 882.941 621.611 883.82 620.829C885.773 619.267 884.211 617.9 880.305 617.9C878.84 617.9 876.594 616.63 874.543 614.482C872.688 612.626 870.539 611.064 869.66 611.064C868.781 611.064 865.754 612.822 862.824 614.97C858.137 618.486 857.453 618.681 855.988 617.411C854.523 616.044 854.035 616.044 851.496 617.411C848.371 618.974 847.492 618.095 849.152 615.068C849.934 613.505 851.203 613.017 854.133 613.017C858.918 613.017 861.848 611.552 861.848 609.208C861.848 608.232 863.41 606.572 865.656 605.4C867.707 604.228 869.758 602.568 870.051 601.689C870.344 600.908 872.199 599.54 874.055 598.759C879.133 596.708 878.742 593.583 872.688 589.189C870.051 587.236 867.219 585.673 866.34 585.673C865.461 585.673 863.898 584.794 862.824 583.72C861.457 582.353 859.602 581.767 856.77 581.767C853.254 581.767 852.375 581.376 851.398 579.228C850.324 576.884 850.324 576.689 852.375 577.372C853.547 577.665 855.891 578.349 857.551 578.74C859.309 579.228 862.141 580.693 863.898 582.06C865.754 583.427 868.879 584.794 870.93 585.185C874.152 585.771 874.543 585.673 874.543 583.818C874.543 582.353 873.566 581.572 870.637 580.79C865.363 579.325 864.777 577.861 869.562 577.861C874.152 577.861 874.348 577.177 871.516 573.564C870.148 571.904 868.586 571.025 866.633 571.025C864.484 571.025 863.801 570.536 863.801 569.169C863.801 566.728 861.555 564.97 856.086 563.115C851.887 561.65 851.594 561.357 851.301 557.841C851.008 555.107 849.836 552.665 847.004 549.345C844.855 546.708 840.852 540.361 838.02 535.087L832.941 525.615L826.496 524.15C822.883 523.368 819.172 521.904 818.195 520.927C817.121 520.048 815.363 519.267 814.289 519.267C812.043 519.267 810.773 515.458 812.141 513.212C812.629 512.529 813.02 510.966 813.02 509.892C813.02 508.72 813.605 507.255 814.387 506.669C815.168 505.986 816.145 504.13 816.438 502.568C816.926 500.419 817.609 499.736 819.367 499.736C821.125 499.736 821.809 499.052 822.297 496.806C822.59 495.243 823.762 492.802 824.836 491.435C826.496 489.384 826.594 488.993 825.324 488.993C824.445 488.993 823.762 488.212 823.762 487.138C823.762 484.501 825.422 483.72 826.496 485.673C827.277 487.138 827.57 487.138 830.5 485.575C833.039 484.306 833.625 483.427 833.43 481.376C833.137 479.325 834.211 477.665 838.215 473.564C841.047 470.829 843.781 468.486 844.27 468.486C844.855 468.486 847.004 466.825 849.25 464.872L853.156 461.259L856.086 463.017C857.746 463.993 859.211 464.579 859.406 464.384C859.602 464.189 860.676 460.868 861.75 456.962L863.703 449.931H860.285C858.332 449.931 855.988 449.443 854.914 448.857C853.352 448.075 852.473 448.173 851.301 449.247C848.664 451.493 846.516 451.884 840.363 451.2C835.773 450.712 834.504 450.322 834.504 448.954C834.504 448.075 833.332 446.806 831.965 446.122C829.719 445.146 828.84 445.341 824.641 448.075C821.711 449.931 819.855 451.786 819.855 452.861C819.855 453.935 818.586 455.497 816.926 456.474C815.363 457.353 813.996 458.622 813.996 459.306C813.996 459.892 813.117 461.552 811.945 463.017C810.285 465.068 809.113 465.556 805.305 465.556C802.766 465.556 800.227 465.068 799.543 464.384C798.859 463.7 798.371 460.771 798.371 457.646C798.371 453.544 797.785 451.298 796.125 448.857C793.879 445.439 790.168 444.072 788.312 445.927C786.75 447.49 779.426 447.197 775.715 445.439C773.957 444.658 771.516 442.509 770.441 440.849L768.391 437.724L770.344 431.181C772.395 424.247 774.836 422.294 777.863 425.029C779.914 426.884 781.184 426.884 782.746 425.029C783.332 424.345 785.773 423.368 788.02 423.075C791.828 422.49 792.219 422.099 793.781 417.704C794.66 415.165 795.441 411.943 795.441 410.575C795.441 409.306 796.125 407.646 796.906 406.962C797.688 406.279 798.371 405.107 798.371 404.423C798.371 403.642 798.957 403.056 799.641 403.056C800.227 402.958 803.742 400.81 807.453 398.075C811.848 394.853 813.996 392.607 813.996 391.24C813.996 390.165 815.168 387.822 816.535 385.966C817.902 384.208 819.465 381.181 819.953 379.325C820.637 376.591 821.516 375.712 823.859 375.224C825.617 374.833 827.375 375.029 828.156 375.712C829.328 376.689 829.914 376.689 831.086 375.712C832.258 374.736 832.941 374.736 833.723 375.517C834.406 376.2 836.066 376.689 837.531 376.689C839.484 376.689 840.461 377.372 841.34 379.618C842.414 382.255 842.219 383.232 839.875 388.7C838.41 392.021 836.164 395.732 834.895 396.904C833.625 398.075 832.551 400.126 832.551 401.493C832.551 402.861 832.16 404.228 831.574 404.521C831.086 404.814 830.598 405.4 830.598 405.79C830.598 406.669 835.48 408.915 837.531 408.915C838.996 408.915 838.996 409.306 837.727 413.31C836.555 416.825 835.578 417.9 832.941 418.876C830.793 419.658 829.621 420.732 829.621 421.806C829.621 423.857 829.523 423.857 835.09 422.49C837.922 421.708 839.387 420.829 839.387 419.755C839.387 418.876 840.656 417.411 842.219 416.533C843.879 415.654 846.027 413.212 847.102 411.064C849.25 406.865 858.723 398.173 861.066 398.173C861.945 398.173 862.824 397.294 863.117 396.22C863.41 395.048 864.484 394.267 865.559 394.267C866.73 394.267 867.902 393.779 868.195 393.29C868.488 392.704 869.855 392.314 871.223 392.314C876.301 392.314 882.355 386.943 882.355 382.548C882.355 380.888 893.293 367.9 894.758 367.9C895.441 367.9 897.004 366.142 898.176 363.993C899.445 361.943 901.398 359.892 902.57 359.599C905.5 358.915 908.332 353.74 909.602 347.001C911.164 338.408 914.387 335.575 918 339.579C920.051 341.923 925.031 342.118 933.137 340.165C939.875 338.603 940.754 336.161 936.066 331.767C934.309 330.204 933.137 328.349 933.332 327.665C933.918 325.81 939.973 323.075 943.586 322.978C947.102 322.978 949.738 320.048 949.738 316.142C949.738 312.822 950.715 311.552 953.645 311.161C956.77 310.673 958.527 306.181 956.77 303.349C955.207 300.908 956.281 296.611 958.43 296.611C959.309 296.708 960.871 298.075 961.945 299.833C963.508 302.177 964.68 302.958 966.828 302.958C969.465 302.958 969.855 302.568 970.246 299.54C970.637 297.099 971.418 295.829 973.469 294.853C976.008 293.681 976.105 293.193 976.105 286.747C976.105 282.548 975.617 279.13 974.738 277.763C973.957 276.591 973.078 273.564 972.688 271.122C972.297 268.486 970.148 263.31 967.707 259.013C965.363 254.814 963.41 251.005 963.41 250.322C963.41 249.736 964.875 248.564 966.535 247.685C970.148 245.927 970.93 244.755 971.711 239.579C972.199 236.552 972.492 236.161 973.469 237.236C974.348 238.31 976.496 238.505 983.137 238.115C993 237.431 994.172 236.747 992.609 232.353C991.73 229.716 991.828 228.74 993.586 225.712C994.953 223.466 995.441 221.415 995.051 219.853C994.758 218.583 994.953 216.923 995.539 216.142C996.809 214.677 997.102 206.962 996.418 190.654C995.93 179.228 995.93 178.837 998.273 176.298C1001.11 173.368 1000.81 169.072 997.492 166.142C996.32 165.068 995.637 163.212 995.637 160.771C995.637 157.353 995.441 157.06 992.512 156.767C989.973 156.572 988.117 157.353 984.211 160.38C981.379 162.529 979.035 165.068 979.035 165.947C979.035 167.216 978.254 167.704 976.301 167.704C972.688 167.704 966.145 174.15 966.926 176.982C967.316 178.642 966.34 179.325 960.285 181.474C947.883 185.966 944.562 186.845 944.074 185.478C943.879 184.892 942.121 183.427 940.168 182.353C936.848 180.497 936.555 180.009 936.848 176.591C937.141 173.368 936.848 172.587 934.211 170.732C931.965 169.072 931.184 167.802 931.184 165.556C931.184 162.724 931.086 162.626 927.766 163.212C924.836 163.798 923.664 163.408 920.539 160.966C915.559 156.962 912.238 155.888 907.746 156.572C904.816 157.06 903.059 156.669 900.422 155.107C897.199 153.251 896.711 153.154 894.074 154.521C892.512 155.302 889.289 155.986 886.945 155.986C880.891 155.986 878.352 153.74 877.766 147.783C877.375 144.267 876.691 142.9 875.422 142.607C874.348 142.314 873.566 141.24 873.566 140.165C873.566 137.138 871.125 133.329 866.34 128.935C863.898 126.689 861.848 123.954 861.848 122.88C861.848 121.806 860.773 119.658 859.406 118.095C858.039 116.435 856.965 114.775 856.965 114.286C856.965 113.798 855.695 112.138 854.035 110.575C852.473 109.013 851.105 106.767 851.105 105.595C851.105 104.325 850.52 102.958 849.738 102.568C849.055 102.177 847.688 100.126 846.711 98.1731C845.832 96.1224 844.27 94.2669 843.195 93.9739C842.219 93.5833 841.34 92.9974 841.34 92.5091C841.34 90.8489 834.992 85.6731 832.844 85.6731C831.672 85.6731 829.621 85.2825 828.254 84.7942C826.691 84.1106 824.836 84.2083 822.883 84.9895C820.246 85.9661 819.172 85.7708 814.387 83.3294C806.672 79.6185 801.105 79.2278 794.953 82.1575Z" fill="white"/>
<path d="M679.621 873.271C679.23 874.247 677.57 874.736 674.445 874.736C672.004 874.736 669.074 875.419 668 876.201C666.633 877.275 664.875 877.47 661.555 877.079C657.941 876.591 656.965 876.786 656.477 878.056C656.086 879.033 654.719 879.618 652.57 879.618C649.641 879.618 649.152 880.009 648.664 882.451C648.273 884.208 646.223 886.845 643.098 889.482L638.215 893.583V899.736C638.215 903.154 638.703 906.181 639.191 906.474C639.777 906.767 640.168 908.525 640.168 910.38C640.168 913.505 640.363 913.701 645.441 915.165C648.371 916.044 652.082 916.728 653.645 916.728C655.305 916.728 656.965 917.118 657.258 917.704C657.551 918.193 659.113 918.681 660.773 918.681C663.117 918.681 663.605 918.29 663.605 916.337C663.605 914.384 664.191 913.896 667.414 913.31C669.562 913.017 672.199 911.65 673.469 910.283C674.641 909.013 676.203 907.939 676.887 907.939C678.645 907.939 680.207 904.716 680.207 901.103C680.207 895.243 682.258 889.677 685.676 886.357C688.41 883.72 688.996 882.451 688.996 878.935C688.996 875.517 688.703 874.736 687.238 874.736C686.262 874.736 684.602 874.052 683.527 873.271C681.184 871.513 680.305 871.415 679.621 873.271Z" fill="white"/>
<circle id="138" cx="748" cy="404" fill="#5CE50D"/>
<circle id="137" cx="850" cy="585" fill="#E52A0D"/>
<circle id="1220" cx="748" cy="798" fill="#E52A0D"/>
<circle id="139" cx="626" cy="687" fill="#E52A0D"/>
</svg>
