<svg width="1000" height="1000" viewBox="0 0 1000 1000" fill="none" xmlns="http://www.w3.org/2000/svg">
<path d="M573.24 2.7313C572.264 5.46568 571.482 6.24693 568.748 6.73521C566.697 7.12583 565.623 7.80943 565.916 8.59068C566.404 10.0555 555.467 14.1571 550.975 14.1571C547.068 14.1571 546.482 15.036 546.287 22.3602C546.189 26.2665 545.408 29.9774 543.943 33.0047C541.502 38.2782 538.572 40.1336 525.779 44.4305C515.916 47.8485 496.971 59.1766 490.623 65.6219C482.42 73.9227 482.322 73.9227 464.451 74.5086L448.533 74.9969L443.162 71.8719C437.889 68.9422 432.908 68.0633 428.025 69.4305C425.975 69.9188 422.752 77.0477 422.752 80.8563C422.752 81.9305 422.068 84.1766 421.189 86.0321C419.92 88.7665 418.65 89.6454 414.646 90.8172C409.666 92.2821 409.568 92.2821 397.654 88.2782L385.643 84.2743L380.857 88.0829C378.221 90.1336 375.291 92.9657 374.314 94.3329C373.436 95.7001 370.018 98.3368 366.893 99.9969C362.986 102.145 360.74 104.098 359.959 106.052C359.178 108.102 357.127 109.763 353.416 111.618C348.338 114.157 348.045 114.548 347.459 118.649C347.166 121.188 345.604 125.095 343.846 127.829C342.186 130.466 340.33 134.079 339.744 135.837C339.158 137.595 337.596 139.743 336.229 140.622C334.275 141.891 333.982 142.477 334.959 143.649C335.936 144.821 336.717 144.431 340.135 141.403C344.041 137.888 344.139 137.79 344.432 140.036C344.627 141.208 344.139 142.77 343.357 143.356C342.088 144.431 341.209 147.946 339.158 161.618C338.768 163.864 337.498 165.915 335.545 167.673L332.518 170.212L337.107 170.895C342.186 171.677 342.381 172.263 341.111 180.27C340.33 184.763 337.889 186.032 329.393 186.032C324.314 186.032 321.971 186.618 317.283 188.962C312.01 191.598 311.229 192.477 307.127 199.899C301.463 210.348 296.385 216.306 293.26 216.306C291.6 216.306 290.916 216.891 290.916 218.259C290.916 219.431 288.865 221.481 285.057 224.118C281.834 226.266 278.807 228.903 278.221 229.977C277.439 231.345 275.682 232.028 271.287 232.516C266.404 233.102 264.842 233.688 262.498 236.227L259.666 239.255L263.67 241.208C268.65 243.747 271.385 247.946 271.385 252.927C271.385 255.075 272.068 259.274 272.85 262.204C274.412 268.161 274.705 273.727 273.436 275.681C272.947 276.559 271.678 276.755 269.822 276.364C268.26 276.071 266.014 275.583 264.842 275.29C262.107 274.802 261.814 271.97 264.451 271.97C265.818 271.97 266.404 271.091 266.697 268.747C266.99 267.087 267.576 264.841 267.967 263.766C268.65 262.204 268.455 262.106 265.721 262.692C262.889 263.278 262.596 262.985 260.643 259.372C259.568 257.126 258.006 255.368 257.225 255.368C256.443 255.368 254.686 253.22 253.416 250.681C251.561 246.97 250.193 245.602 247.068 244.431C244.822 243.552 242.771 241.989 242.479 241.013C240.232 233.981 238.182 233.298 233.494 238.083C229.686 241.989 229.588 243.942 232.811 247.751C234.178 249.313 235.545 251.852 235.936 253.22C236.229 254.684 238.182 258.298 240.135 261.227C242.088 264.157 244.627 269.138 245.799 272.263L247.947 277.927L245.213 278.903C243.748 279.391 241.99 280.075 241.404 280.27C240.721 280.466 239.451 283.298 238.572 286.52C236.814 292.673 233.982 296.188 227.244 300.192L223.631 302.341L222.459 300.095C220.604 296.384 216.502 292.477 214.451 292.477C212.791 292.477 212.693 292.966 213.279 297.556C213.963 302.243 213.768 302.829 211.521 304.587C209.959 305.954 208.396 308.981 207.127 313.181L205.174 319.723L207.811 322.067C209.178 323.337 211.814 325.29 213.572 326.266C216.6 328.024 216.795 328.513 216.6 332.516C216.111 341.598 216.502 342.966 219.432 343.552C222.068 344.138 225.486 349.118 225.486 352.536C225.486 353.415 226.463 354.001 227.928 354.001C229.393 354.001 230.369 353.415 230.369 352.536C230.369 351.364 230.76 351.267 232.811 352.243C234.178 352.829 235.252 353.806 235.252 354.294C235.252 354.88 236.229 356.345 237.498 357.712C239.549 359.86 239.549 360.056 237.986 361.227C237.01 361.911 236.229 363.181 236.229 364.059C236.229 364.938 235.447 366.013 234.568 366.599C232.908 367.477 232.908 367.673 234.666 368.942C236.424 370.212 236.424 370.602 235.252 373.532L233.885 376.755L232.225 374.606C231.346 373.532 230.369 372.556 230.076 372.556C229.881 372.556 229.881 374.606 230.076 377.145C230.467 380.466 231.932 383.884 234.861 388.571C237.791 393.259 239.158 396.481 239.158 398.825C239.256 400.778 239.842 403.415 240.623 404.782C241.795 407.028 241.697 407.419 239.354 409.86C237.498 411.911 235.936 412.595 233.104 412.595C229.881 412.595 229.1 413.083 226.951 416.501C223.631 421.872 223.729 424.313 227.342 424.313C232.029 424.313 232.713 426.169 233.396 441.794C233.689 450.192 234.568 457.517 235.35 459.665C236.424 462.399 236.619 466.11 236.131 475.095C235.447 487.888 235.057 488.864 228.709 492.77C225.975 494.528 225.486 495.309 225.486 498.63C225.486 501.657 226.463 503.806 230.467 509.274C233.201 513.083 235.74 516.11 236.131 516.11C236.521 516.11 237.889 513.864 239.158 511.13C241.404 506.54 241.6 506.345 242.479 508.298C243.26 509.958 243.064 510.641 241.795 511.325C239.646 512.595 238.572 518.649 240.232 520.602C241.502 522.165 244.041 522.067 250.877 520.407C252.83 519.919 252.439 520.407 249.217 522.946C245.799 525.388 245.018 526.657 245.018 529.099C245.018 532.614 237.791 542.477 229.49 550.29C225.682 553.903 224.705 555.661 223.631 560.251C222.557 565.231 222.166 565.915 220.115 565.915C217.186 565.915 215.721 568.454 215.721 573.727C215.721 575.974 214.744 579.977 213.572 582.712C211.814 586.813 210.74 587.888 207.127 589.45C204.783 590.427 201.854 591.306 200.584 591.306C199.119 591.306 198.045 591.989 197.654 593.259C197.264 594.626 196.189 595.212 194.236 595.212C192.088 595.212 191.307 594.626 190.525 592.282L189.451 589.352L186.229 591.208C184.471 592.185 180.076 594.04 176.463 595.212C170.799 596.97 169.236 598.044 165.135 602.829C162.498 605.856 159.373 610.935 158.104 614.06C156.053 618.942 155.955 620.114 156.932 622.849C157.615 624.704 158.104 627.341 158.104 628.806C158.104 630.173 158.787 631.638 159.568 631.931C160.35 632.321 161.033 633.102 161.033 633.786C161.033 634.47 161.717 635.251 162.498 635.642C164.256 636.227 164.354 638.181 162.889 641.501C162.01 643.356 161.326 643.747 160.154 643.161C159.275 642.673 156.053 641.989 153.025 641.696C147.752 641.013 147.166 641.11 142.967 644.138C138.768 647.165 134.666 652.341 134.666 654.489C134.666 655.075 137.303 656.442 140.525 657.614C143.748 658.786 146.385 660.349 146.385 661.032C146.385 662.985 159.275 675.29 161.229 675.29C162.205 675.29 163.377 676.169 163.963 677.243C164.646 678.513 166.014 679.196 167.869 679.196C170.018 679.196 171.482 680.27 174.314 683.591C176.854 686.716 178.611 687.985 180.369 687.985C181.834 687.985 184.764 689.548 187.596 691.989C190.525 694.431 193.65 696.188 195.994 696.481C197.947 696.872 201.658 698.044 204.295 699.216C207.811 700.876 209.764 701.267 212.693 700.681C216.99 699.899 219.627 701.267 219.627 704.392C219.627 706.931 225.486 712.009 229.295 712.888C232.225 713.474 232.322 713.767 232.322 718.649C232.322 723.727 232.322 723.727 236.717 725.876C239.256 727.145 243.064 728.024 245.506 728.024C249.217 728.024 249.998 728.415 251.463 730.856C252.537 732.712 254.197 733.884 256.15 734.274C263.67 735.544 290.428 736.813 292.674 736.032C293.26 735.837 293.846 733.981 293.846 732.028C293.846 725.974 300.389 721.677 303.611 725.583C304.295 726.364 306.346 727.048 308.104 727.048C309.959 727.048 311.424 727.438 311.424 728.024C311.424 728.513 312.4 729.001 313.67 729.001C315.232 729.001 316.795 730.563 319.627 734.86C321.678 738.083 325.193 742.087 327.439 743.747C331.053 746.481 331.932 746.677 336.619 746.188C341.6 745.602 341.99 745.7 346.189 749.313C351.365 753.903 357.518 755.954 361.521 754.489C365.135 753.122 369.725 753.122 370.604 754.489C370.896 755.075 373.826 757.224 376.951 759.274C381.932 762.497 383.201 762.888 387.01 762.497L391.404 762.009L391.697 766.208C391.99 770.114 392.283 770.505 395.311 771.286C403.318 773.337 414.939 785.739 414.939 792.185C414.939 794.235 415.818 795.7 417.967 797.263C419.92 798.727 420.603 799.802 419.92 800.192C419.139 800.778 419.236 801.852 420.311 804.489C421.971 808.395 427.537 812.009 432.029 812.009C434.764 812.009 437.693 813.669 444.139 818.747C447.068 821.091 449.217 822.165 450.975 821.97C454.295 821.579 462.791 826.267 462.791 828.513C462.791 829.392 464.158 832.224 465.721 834.86C468.064 838.571 468.455 839.841 467.674 841.403C467.088 842.38 466.893 844.821 467.283 846.677C468.162 851.56 475.193 856.442 480.076 855.661C484.471 854.88 488.084 856.638 488.768 859.763C489.061 861.13 490.135 865.231 491.111 868.845L492.869 875.29L490.525 877.536C486.228 881.54 488.475 888.181 494.041 888.181C495.408 888.181 497.85 889.548 499.607 891.306C502.83 894.333 503.123 894.528 509.959 894.235C515.623 893.942 517.283 893.552 518.748 891.892L520.408 889.841L526.365 892.575C530.467 894.431 533.299 895.017 535.35 894.724C543.748 893.259 547.459 892.38 549.412 891.306C550.584 890.622 553.318 890.134 555.369 890.134C558.787 890.134 559.764 889.548 563.084 885.837C567.674 880.661 574.119 876.462 574.119 878.708C574.119 880.368 576.17 881.345 579.393 881.345C580.662 881.345 583.494 882.614 585.643 884.274C587.889 885.837 590.135 887.204 590.721 887.204C591.209 887.204 592.088 888.083 592.674 889.157C593.748 891.208 597.557 891.696 604.588 890.524C607.322 890.036 608.299 889.352 608.494 887.79C608.689 886.227 609.568 885.642 611.912 885.446C613.572 885.251 615.525 884.47 616.111 883.688C616.795 882.907 618.943 882.321 620.994 882.321C624.705 882.321 629.197 885.153 637.889 892.77C639.939 894.626 642.576 895.993 644.041 895.993C645.408 895.993 647.752 896.677 649.217 897.458C650.779 898.239 653.807 899.118 655.955 899.509C659.178 899.997 660.154 900.778 661.912 903.903C663.768 907.126 664.549 907.712 667.283 907.712C669.334 907.712 671.189 908.493 672.654 910.056L674.803 912.302L654.197 943.454L633.689 974.606L638.279 976.755C643.162 979.001 647.85 979.685 648.728 978.122C649.021 977.634 651.365 976.95 653.807 976.56C658.299 975.974 658.494 975.974 663.182 980.661C665.916 983.298 668.357 986.911 669.041 988.962C670.408 993.747 676.658 999.802 679.685 999.313C681.834 999.02 682.322 996.872 696.287 920.407C704.295 877.145 710.74 840.134 710.74 838.181C710.838 835.349 711.424 834.177 713.279 832.907C715.33 831.54 715.721 830.563 715.721 826.462C715.721 823.044 715.135 820.798 713.768 819.138C712.693 817.77 711.814 815.524 711.814 814.157C711.814 812.888 710.35 809.763 708.494 807.224C703.807 800.778 701.853 796.677 702.244 793.649C702.342 792.185 702.146 788.571 701.756 785.544C700.975 780.368 700.779 779.977 697.947 779.392C696.287 779.099 692.576 777.048 689.842 774.899C687.01 772.751 684.373 770.993 683.885 770.993C683.396 770.895 680.955 769.04 678.514 766.696L673.924 762.595L674.9 741.599C675.389 730.075 675.975 720.212 676.17 719.528C676.365 718.845 679.783 717.38 683.689 716.208C687.596 715.036 692.576 712.79 694.822 711.325C700.486 707.517 708.103 707.126 712.596 710.446C715.135 712.302 717.283 712.888 722.752 713.181C729.197 713.571 729.685 713.474 729.002 711.813C728.611 710.837 727.928 707.126 727.439 703.61C727.049 700.095 725.975 695.602 725.096 693.552C723.24 689.352 719.236 687.204 716.502 688.864C715.33 689.548 713.279 689.645 709.764 688.962C707.029 688.376 702.635 687.985 700.193 687.985C697.654 687.985 695.115 687.497 694.627 687.009C693.846 686.227 692.771 686.325 690.818 687.009C689.353 687.595 687.986 687.888 687.889 687.79C687.791 687.595 687.889 678.806 688.182 668.259L688.67 649.02L693.162 648.435C695.603 648.142 699.803 647.458 702.439 647.067C705.174 646.579 708.494 646.579 710.252 647.067C713.768 648.142 741.795 648.239 768.846 647.263L788.084 646.677L784.959 643.454C781.932 640.329 781.834 640.036 783.201 637.595C783.885 636.13 785.057 634.763 785.74 634.567C788.182 633.591 791.6 635.251 792.674 637.79C794.236 641.11 799.9 647.946 801.17 647.946C805.271 647.946 809.471 645.602 811.912 641.989C815.232 636.813 821.482 630.173 826.268 626.267L830.076 623.337L834.373 624.997C838.279 626.462 838.768 626.95 838.768 629.587C838.768 631.735 840.232 634.372 843.943 639.06C846.873 642.575 850.193 648.142 851.365 651.364C853.416 656.735 853.514 658.2 852.928 669.333C852.244 680.759 852.342 681.345 854.002 680.856C855.076 680.563 857.908 680.075 860.545 679.685C865.623 679.001 865.818 678.61 863.768 672.849C862.986 670.7 861.228 663.864 859.861 657.614C858.396 651.462 855.857 643.552 854.197 640.036C852.635 636.618 851.268 632.419 851.268 630.759C851.365 628.513 850.486 626.852 848.045 624.509C844.236 620.798 843.455 616.013 846.189 613.767C847.459 612.595 846.482 611.227 838.182 602.927C832.908 597.653 827.635 593.161 826.365 592.77C824.9 592.477 823.435 590.915 822.654 588.962C821.482 586.325 820.506 585.544 816.893 584.567C814.451 583.981 811.131 583.493 809.568 583.493C807.908 583.493 806.541 583.102 806.541 582.712C806.541 581.247 829.685 559.079 831.248 559.079C833.299 559.079 838.67 553.415 839.451 550.388C839.939 548.532 839.451 547.458 837.205 545.602C835.643 544.235 832.81 540.036 830.955 536.227C828.123 530.563 827.049 529.196 824.803 528.806C822.557 528.415 821.678 527.341 819.92 522.946C818.65 520.016 815.428 513.278 812.596 508.005C807.81 498.727 807.615 498.239 808.982 495.602C811.326 491.013 810.838 487.302 807.518 484.567C804.588 482.126 804.588 482.028 806.15 478.415C808.592 472.653 809.178 450.876 807.127 443.063C805.271 435.544 805.662 434.567 813.084 427.536L818.455 422.556L817.771 416.989C816.893 409.567 818.26 406.54 825.291 399.899L830.955 394.528L828.025 389.841C825.584 386.032 825.291 385.056 826.56 384.665C827.342 384.274 828.025 383.102 828.025 381.833C828.025 379.977 826.853 379.099 820.799 376.559C812.693 373.142 807.615 372.751 800.291 374.997C797.654 375.778 793.943 376.462 791.99 376.462C790.037 376.462 786.521 377.438 784.178 378.513C780.467 380.173 778.611 380.368 771.873 379.782C765.135 379.294 763.475 379.392 761.228 380.856C758.689 382.517 758.201 382.517 749.119 380.563C733.201 377.145 733.982 377.145 729.588 380.856C725.291 384.567 720.799 385.349 718.553 382.712C717.674 381.638 716.404 381.345 714.256 381.735C711.326 382.321 710.74 381.833 694.822 362.302C685.838 351.267 678.123 342.282 677.635 342.282C677.146 342.282 675.193 340.915 673.338 339.255C670.115 336.423 669.529 336.325 664.549 336.911C658.103 337.79 646.873 334.567 645.896 331.638C645.506 330.27 643.943 329.684 639.353 329.196C630.76 328.317 625.096 328.513 624.412 329.587C623.24 331.442 616.111 334.567 610.643 335.544C606.15 336.325 604.881 336.325 603.611 335.153C602.635 334.372 599.119 333.493 595.603 333.2C572.654 331.149 574.803 331.052 570.506 333.786L566.502 336.325L560.74 333.884C555.564 331.638 554.588 330.759 551.853 325.681C550.096 322.653 548.728 318.942 548.728 317.477C548.728 314.157 543.846 311.032 538.377 311.032C535.154 311.032 534.08 310.544 532.322 308.102C530.369 305.563 530.174 304.098 530.174 293.063C530.174 283.298 530.564 280.075 532.029 276.559C533.103 274.118 534.373 271.872 534.959 271.579C536.228 270.798 536.228 263.864 535.154 257.028C534.471 252.927 533.396 251.364 526.072 243.845L517.869 235.348L514.646 223.337C510.057 205.563 510.545 206.54 504.783 206.54C499.9 206.54 499.9 206.54 499.9 203.317C499.9 201.657 499.607 199.216 499.314 198.044C498.728 195.895 498.631 195.895 490.916 199.802C484.666 202.927 482.322 203.61 478.709 203.415L474.314 203.122L478.709 197.263C481.053 194.04 483.787 189.841 484.568 187.888C485.35 185.934 487.4 183.395 489.061 182.223C493.162 179.294 499.9 165.915 499.9 160.837C499.9 158.786 500.779 154.587 501.756 151.657C502.83 148.63 503.904 141.696 504.295 135.739C505.076 125.29 505.076 125.095 510.35 115.817C513.279 110.739 516.404 104.684 517.478 102.438C518.455 100.192 520.213 97.8485 521.287 97.2626C522.459 96.579 523.338 95.3094 523.338 94.3329C523.338 89.8407 535.35 81.0516 540.623 81.7352C543.26 82.0282 543.748 81.3446 551.463 66.1102C558.885 51.4618 559.764 50.2899 562.205 50.2899C563.67 50.2899 571.482 48.4344 579.49 46.1883C593.162 42.2821 594.432 41.7938 598.24 37.8876C600.389 35.5438 603.123 33.6883 604.197 33.6883C605.271 33.6883 607.225 32.8094 608.689 31.6376C612.01 29.0008 612.01 24.704 608.787 20.4071C607.42 18.6493 606.346 16.1102 606.346 14.8407C606.346 12.8876 605.369 11.911 601.268 9.86021C598.436 8.49302 595.213 7.32114 594.041 7.32114C592.771 7.32114 591.209 6.53989 590.525 5.56333C588.768 3.02427 587.4 2.43833 582.127 1.55943C579.588 1.07114 576.853 0.387551 575.975 0.0945818C574.705 -0.491356 574.021 0.192238 573.24 2.7313Z" fill="white"/>
<circle id="141" cx="440" cy="500" fill="#5CE50D"/>
<circle id="144" cx="380" cy="99" fill="#E52A0D"/>
<circle id="143" cx="282" cy="560" fill="#E52A0D"/>
<circle id="1223" cx="499" cy="347" fill="#E52A0D"/>
</svg>
