<svg width="1000" height="1000" viewBox="0 0 1000 1000" fill="none" xmlns="http://www.w3.org/2000/svg">
<path d="M100 31.336C95.9964 31.8243 92.1878 32.4103 91.6019 32.6056C91.0159 32.8009 86.9144 39.5392 82.4222 47.4493C73.6331 63.2696 73.9261 61.6095 79.8831 65.9063C81.1526 66.8829 81.7386 68.5431 81.8362 71.4728C81.9339 75.086 81.6409 75.672 79.7855 75.9649C77.344 76.3556 76.8558 75.2813 78.6136 73.5235C80.3714 71.7657 78.7112 68.6407 74.9026 66.297C71.2894 64.0509 71.2894 64.0509 68.7503 68.4454C68.262 69.422 65.9183 70.3985 63.3792 70.6915C59.473 71.2774 59.0823 71.5704 59.9612 73.2306C61.2308 75.5743 61.2308 76.1603 59.8636 76.1603C58.7894 76.1603 56.1526 78.9923 56.055 80.1642C56.055 80.4571 58.4964 81.5313 61.5237 82.6056C64.9417 83.7774 67.6761 85.4376 68.848 87.0001C71.094 90.2228 71.094 91.004 69.1409 94.9103C67.969 97.254 67.8714 98.4259 68.6526 100.184L69.7269 102.527H60.5472C52.1487 102.527 46.094 103.602 43.9456 105.555C43.4573 105.945 44.0433 107.606 45.2151 109.266C48.4378 113.66 46.2894 113.27 38.6722 107.801C38.4769 107.703 38.8675 106.727 39.5511 105.652C41.6995 102.234 39.4534 100.965 30.2737 100.281C25.7815 99.9884 20.8011 100.086 19.3362 100.477L16.5042 101.258L20.2151 102.43C22.1683 103.113 23.8284 104.285 23.8284 105.067C23.8284 106.336 13.3792 112.293 11.1331 112.293C9.86358 112.293 0.195607 118.25 0.683889 118.836C0.879201 119.031 3.22295 118.738 5.76201 118.152C9.47295 117.274 10.5472 117.371 11.5237 118.543C12.1097 119.227 14.9417 120.496 17.8714 121.18C22.0706 122.254 23.5354 123.133 25.0003 125.574C26.8558 128.699 29.8831 129.774 37.012 129.871C38.9651 129.871 40.5276 130.75 41.7972 132.41C43.555 134.949 43.555 134.949 40.5276 138.074C38.8675 139.832 37.5003 141.492 37.5003 141.883C37.5003 142.957 54.0042 142.664 60.1565 141.59C65.0394 140.613 66.1136 140.809 69.4339 142.567C71.4847 143.641 73.8284 144.52 74.805 144.52C75.6839 144.52 78.4183 146.766 80.762 149.5L85.1565 154.481L83.4964 159.559C82.0315 163.953 81.9339 165.418 83.0081 171.375C85.0589 182.801 85.1565 182.606 79.5901 182.606C75.2933 182.606 74.805 182.801 74.219 185.145C73.7308 187 74.0237 188.367 75.3909 189.832C78.3206 193.055 78.4183 194.617 75.9769 197.547C73.2425 200.77 72.8519 203.602 75.1956 202.723C76.0745 202.43 77.0511 202.137 77.4417 202.137C77.8323 202.137 78.7112 200.672 79.2972 198.816C80.3714 195.984 81.1526 195.399 84.3753 194.813C87.7933 194.227 90.0394 194.91 94.0433 197.938C94.3362 198.133 93.4573 199.012 92.2855 199.891C91.0159 200.672 89.4534 202.918 88.6722 204.676C87.598 207.215 86.719 207.996 84.7659 207.996C81.5433 207.996 78.5159 209.656 78.5159 211.414C78.5159 212.391 77.5394 212.879 75.5862 212.879C72.4612 212.879 72.0706 213.465 73.6331 215.809C75.0003 217.957 71.973 220.691 68.0667 220.691C66.2112 220.691 62.9886 221.57 60.7425 222.742C57.5198 224.402 56.2503 224.598 54.3948 223.719C50.6839 222.059 48.6331 222.449 47.4612 225.086C46.7776 226.453 45.2151 228.113 43.8479 228.699C42.4808 229.285 41.5042 230.359 41.7972 231.043C41.9925 231.629 42.7737 233.973 43.4573 236.219C44.1409 238.563 45.4104 240.418 46.4847 240.809C48.9261 241.492 52.2464 248.914 51.0745 250.965C48.8284 254.969 48.5354 255.164 46.2894 253.895C44.2386 252.82 44.1409 252.82 44.7269 255.164C45.2151 257.215 44.9222 257.703 43.1644 257.996C41.8948 258.191 39.2581 257.703 37.2073 256.922C33.887 255.652 33.3011 255.652 32.0315 257.02C30.6644 258.387 30.6644 258.777 32.2269 261.219C33.887 263.758 33.887 263.953 31.7386 268.348C30.469 270.887 27.7347 274.402 25.6839 276.16L21.8753 279.383L24.3167 284.168C26.5628 288.66 26.6604 288.953 25.0979 292.859C23.5354 296.766 23.6331 296.863 25.8792 298.719C28.1253 300.477 28.1253 300.77 26.8558 303.895C23.8284 311.316 25.0003 318.641 29.7854 322.059C32.0315 323.621 32.1292 325.477 30.1761 327.137C29.3948 327.82 28.7112 329.383 28.7112 330.652C28.7112 332.703 29.1995 332.996 32.6175 332.996C36.3284 332.996 36.5237 333.094 36.5237 336.121C36.5237 339.344 38.1839 342.566 43.7503 350.477C45.8987 353.602 46.4847 355.555 46.5823 359.559C46.5823 365.809 47.9495 367.566 54.1995 369.617C59.18 371.277 62.8909 375.574 62.8909 379.774C62.8909 384.461 65.5276 388.367 70.8011 391.395C74.9026 393.738 76.9534 395.887 80.1761 401.063C84.18 407.703 84.18 407.703 82.3245 409.754C80.8597 411.219 80.5667 412.586 81.055 414.441C81.6409 416.785 82.0315 416.981 87.4026 416.981C90.6253 416.981 94.7269 417.664 96.5823 418.348C100.684 420.106 116.016 422.84 121.778 422.84C124.024 422.938 126.953 423.524 128.321 424.305C129.688 425.086 132.129 425.672 133.789 425.77C135.352 425.77 137.207 426.258 137.891 426.941C138.77 427.82 139.356 427.82 140.235 426.941C142.285 424.891 147.266 425.574 149.805 428.211C151.563 430.066 153.125 430.652 156.055 430.652C158.301 430.652 160.645 430.262 161.426 429.774C162.305 429.188 164.16 429.871 167.285 432.117C175.196 437.684 184.571 442.371 187.793 442.371C190.137 442.371 191.602 443.25 194.043 445.984C199.414 452.039 199.805 452.82 198.633 455.066C197.657 456.824 197.95 457.215 201.27 458.582C208.008 461.414 212.891 467.274 216.797 477.234C220.215 485.926 220.703 486.609 227.442 492.274L234.473 498.133L235.157 504.871C235.84 511.609 235.938 511.805 239.649 513.66C241.7 514.734 243.555 516.102 243.75 516.688C244.043 517.566 245.41 517.371 248.731 516.102C253.028 514.539 253.321 514.149 253.321 510.926C253.321 509.07 254.297 505.945 255.469 503.992C256.739 502.039 257.52 499.695 257.422 498.719C256.641 494.129 262.012 485.438 265.723 485.34C266.407 485.34 267.383 484.559 267.871 483.484C268.457 482.508 271.192 480.75 274.024 479.481C281.348 476.356 291.407 469.324 289.258 468.934C288.282 468.738 285.742 469.617 283.496 470.887C279.785 472.938 279.492 472.938 278.614 471.375C278.028 470.496 276.758 469.715 275.782 469.715C274.707 469.715 273.828 469.227 273.828 468.641C273.828 466.59 277.832 460.926 279.297 460.926C281.446 460.926 284.864 462.879 286.328 465.027C288.282 467.762 292.188 467.371 292.969 464.344C293.262 462.977 293.36 461.024 293.067 459.949C292.676 458.484 293.164 458.094 295.606 457.801C298.047 457.606 298.731 456.922 299.414 454.481C299.805 452.82 300.879 450.867 301.66 450.184C302.832 449.207 302.93 448.621 302.051 447.645C301.172 446.57 301.563 446.277 304.395 446.277C306.934 446.277 308.008 445.789 308.496 444.422C308.887 443.152 309.668 442.762 311.328 443.055C313.282 443.445 313.77 443.055 314.063 441.297C314.258 439.441 314.844 439.051 316.797 439.246C323.535 439.93 325.586 440.613 325.586 441.981C325.586 443.152 326.075 443.152 328.711 441.785C331.739 440.223 331.836 440.027 329.981 439.051C328.907 438.465 325.977 435.926 323.535 433.387C319.434 429.188 318.653 428.797 315.918 429.285C313.867 429.676 312.305 430.848 311.426 432.606C310.45 434.559 309.082 435.438 306.446 435.828C301.758 436.609 299.903 435.242 301.367 432.117C301.953 430.848 303.321 429.578 304.395 429.285C306.348 428.797 306.348 428.699 304.59 426.063C303.614 424.598 301.953 422.742 300.977 422.059C298.438 420.301 298.535 415.027 301.075 415.027C303.614 415.027 304.297 413.758 303.516 410.633C303.028 408.777 301.465 407.41 297.852 405.652C295.117 404.383 291.797 402.625 290.43 401.844C289.063 401.063 285.547 400.379 282.617 400.379C277.246 400.379 277.246 400.379 274.024 395.399C272.266 392.762 271.094 390.125 271.387 389.637C271.68 389.246 270.703 388.367 269.239 387.781C266.797 386.805 266.895 386.707 270.703 387.195C273.047 387.488 277.539 387.977 280.762 388.367L286.719 388.953L286.328 386.121L286.035 383.289L259.473 382.703L258.399 385.242C257.813 386.609 256.543 387.684 255.664 387.684C252.344 387.684 257.227 391.492 261.035 391.883C262.989 392.078 260.547 392.274 255.664 392.371C247.071 392.566 246.778 392.469 245.703 390.125C245.117 388.758 243.848 387.684 242.969 387.684C241.016 387.684 225.879 376.649 224.219 374.109C223.145 372.156 223.828 371.277 225.391 372.742C226.953 374.305 232.715 375.672 233.692 374.695C235.84 372.547 234.766 371.082 231.25 371.082C228.223 371.082 227.637 370.691 226.66 368.152C226.075 366.492 225 365.223 224.317 365.223C223.633 365.223 222.754 364.051 222.461 362.684C221.973 360.828 220.508 359.559 217.481 358.191C214.453 356.824 212.696 355.359 211.817 353.211C210.254 349.598 211.231 349.012 216.602 349.988C218.946 350.477 220.117 351.551 221.973 355.066C225.098 360.828 228.028 362.293 237.012 362.293C245.801 362.293 250.391 360.926 250.391 358.191C250.391 357.215 249.903 356.629 249.414 356.922C248.828 357.215 247.559 357.215 246.387 356.922C244.532 356.238 244.434 356.141 246.094 354.383C246.973 353.309 247.559 352.332 247.364 352.137C245.801 350.867 242.285 349.598 239.844 349.598C238.184 349.598 236.231 348.719 234.864 347.254C233.106 345.399 230.957 344.617 224.805 343.738C220.508 343.152 215.528 342.762 213.77 342.859C209.18 343.348 207.422 341.395 207.422 336.024C207.422 333.582 207.813 331.043 208.203 330.359C209.18 328.797 216.114 330.164 220.606 332.801C222.559 333.973 225.489 334.949 227.051 334.949C228.711 334.949 231.348 335.633 232.91 336.512C235.157 337.684 236.231 337.781 237.207 336.902C241.016 333.777 251.856 333.68 250.879 336.805C250.586 337.781 251.465 338.953 253.321 340.027C255.176 341.102 256.25 342.469 256.25 343.836C256.25 345.203 256.739 345.691 257.617 345.399C258.399 345.106 260.547 344.52 262.305 344.227C265.235 343.641 266.114 344.129 272.364 349.891C277.442 354.578 280.567 356.531 284.082 357.606C288.672 358.875 288.965 359.168 289.258 362.488C289.649 366.59 289.746 366.688 311.817 381.727L324.903 390.613H333.008C337.5 390.613 341.407 390.125 341.7 389.637C341.992 389.051 344.629 388.66 347.461 388.66H352.735L353.418 392.274C354.2 396.473 356.055 400.477 358.106 402.234C359.278 403.113 359.375 404.188 358.789 406.336C358.008 408.973 358.399 409.949 362.207 414.832C365.43 418.934 366.602 421.277 366.602 423.719C366.602 426.356 367.871 428.309 373.828 434.949C378.614 440.125 382.325 445.496 384.571 450.086C387.793 456.824 387.891 457.41 386.621 460.047C385.84 461.512 383.008 464.539 380.469 466.688L375.684 470.691L376.563 476.844C378.223 489.832 379.102 491.59 384.864 495.203L390.137 498.328L388.965 507.508L400.489 517.566C406.836 523.133 412.696 528.211 413.477 528.895C414.746 529.969 416.7 529.774 424.61 527.723L434.18 525.281L453.028 532.703C465.723 537.586 473.242 540.027 475.977 540.027C479.59 540.027 503.321 543.25 508.985 544.422C510.45 544.813 511.133 545.692 511.133 547.156C511.133 548.426 512.5 551.551 514.16 553.992C516.7 557.801 517.871 558.68 520.996 559.168C526.563 560.047 526.465 561.219 520.801 562C516.016 562.684 515.918 562.781 516.211 565.809C516.504 568.738 516.7 568.836 520.899 568.836C523.34 568.836 527.539 568.543 530.371 568.152C535.352 567.469 535.45 567.567 535.742 570.106C536.035 572.547 536.426 572.742 541.211 573.035C545.215 573.231 548.047 574.305 554.688 578.211C561.621 582.215 563.867 582.996 567.871 582.996C571.68 582.996 574.707 583.973 582.715 587.977C588.184 590.711 594.629 594.617 597.071 596.668C599.512 598.621 604.785 602.137 608.887 604.383C616.016 608.484 616.407 608.875 617.969 613.856L619.629 619.129L629.395 624.109C638.672 628.699 640.039 629.774 655.664 645.594C671.778 661.707 672.266 662.293 672.852 667.078C673.438 671.082 674.024 672.156 676.27 673.328C677.735 674.109 679.297 675.281 679.59 675.867C680.762 677.625 683.008 695.399 683.008 702.43V709.168L686.231 708.973C687.891 708.875 689.942 708.777 690.625 708.875C692.481 709.07 691.992 714.734 689.746 717.859C687.403 721.277 687.793 724.891 691.407 731.043L693.653 735.145L688.672 735.731C685.059 736.219 682.617 737.293 679.492 739.93C675.489 743.348 675.293 743.641 676.856 745.301C678.321 746.961 678.321 747.645 677.149 752.234C676.367 755.067 675.782 760.633 675.684 764.637C675.586 773.719 675.196 774.5 670.996 773.328C666.016 771.863 654.59 772.059 653.614 773.621C651.953 776.258 652.637 779.871 655.078 781.043C656.543 781.727 657.52 783.094 657.813 785.047C658.203 787.684 657.715 788.367 654.492 790.516C650.879 792.957 650.782 793.055 650.782 799.109V805.164L659.864 811.219C666.114 815.418 670.313 819.129 673.731 823.524C676.367 826.942 681.543 832.117 685.157 835.047C689.453 838.563 691.797 841.102 691.992 842.664C692.188 844.324 694.043 846.277 697.852 848.817C703.125 852.43 703.711 852.625 707.129 851.649C713.477 849.793 718.946 850.281 720.215 852.625C721.192 854.578 721.778 854.676 729.102 854.09C736.817 853.406 736.914 853.504 751.172 858.875C759.082 861.902 768.457 866.102 772.071 868.152C776.66 870.887 779.102 871.863 780.469 871.277C781.446 870.887 785.84 867.274 790.235 863.27C801.953 852.332 802.051 848.035 790.723 837.977L785.059 832.899L787.305 826.551C789.453 820.399 789.453 820.008 787.891 818.25C786.817 817.078 784.961 816.395 782.617 816.395C779.981 816.395 778.418 815.711 776.367 813.563C774.219 811.317 772.461 810.633 768.164 810.047C761.035 809.168 754.2 805.457 748.828 799.5C745.41 795.692 744.532 793.934 744.532 791.102C744.532 788.172 743.653 786.512 739.746 782.117C735.45 777.234 735.059 776.551 736.328 774.891C738.184 772.352 738.086 772.059 734.571 770.203L731.348 768.543L738.184 769.129C743.164 769.52 749.121 771.18 760.645 775.574C775.098 781.043 778.321 782.899 780.567 787C781.25 788.172 781.739 788.27 782.91 787.293C783.985 786.317 785.45 786.317 789.258 787.293C793.457 788.172 794.727 789.051 796.778 792.176C799.414 796.18 799.024 796.18 810.156 794.422C812.598 794.031 813.184 794.52 815.821 799.793C817.383 802.918 819.141 807.606 819.727 810.242C821.778 819.617 825.781 828.504 829.883 832.996C837.891 841.688 837.5 840.516 835.352 848.035C834.278 851.746 831.934 857.02 830.078 859.754C828.223 862.488 826.27 866.395 825.586 868.348C824.512 871.863 824.61 872.156 829.199 878.309C833.496 884.168 834.473 884.949 841.114 887.391C846.289 889.344 849.903 891.59 854.297 895.594C857.52 898.524 863.379 902.82 867.09 905.067C876.856 910.926 881.739 917.469 889.551 935.438C893.067 943.543 895.899 950.867 895.899 951.844C895.899 952.82 895.215 955.945 894.434 958.875C893.164 963.953 893.164 964.344 895.117 967.078L897.168 970.008L900 964.246C903.614 956.531 903.516 952.625 899.219 944.227C896.68 939.051 895.899 936.609 896.387 934.461C897.266 930.457 895.41 925.672 891.504 921.863C888.281 918.738 888.086 918.152 888.672 914.344C888.965 912 888.965 908.192 888.672 905.75C888.086 901.844 887.696 901.356 885.449 901.356C884.082 901.356 881.446 900.281 879.688 898.914C875.879 895.984 874.903 895.887 873.145 898.426C871.875 900.281 871.68 900.184 869.434 896.766C867.871 894.227 865.137 892.176 861.035 890.125C856.055 887.684 854.981 886.805 854.981 884.754C854.883 882.703 856.25 881.531 864.16 876.942C871.485 872.84 874.414 870.496 877.637 866.199C879.883 863.27 883.399 858.973 885.449 856.727C888.867 853.016 889.453 852.723 891.602 853.699C893.36 854.481 895.703 854.481 900.684 853.602L907.52 852.332L911.426 845.887C917.188 836.219 918.555 831.727 917.774 824.5C917.285 819.227 917.481 818.055 919.239 815.516C920.899 813.27 921.192 812.098 920.41 810.731C919.824 809.754 918.75 807.02 917.969 804.774C916.797 801.16 916.797 800.574 917.969 800.086C920.117 799.305 918.848 794.52 914.746 787.684C912.793 784.559 910.742 780.164 910.059 778.016C909.082 774.793 908.301 773.817 905.957 773.231C903.418 772.547 902.93 771.863 902.344 768.543C901.758 765.027 901.172 764.344 897.364 762.488C892.578 760.145 892.285 759.656 894.434 757.801C895.215 757.117 895.899 755.555 895.899 754.383C895.899 752.625 896.778 751.844 899.414 750.965C902.344 749.988 903.321 748.817 905.176 744.813C907.129 740.223 907.227 739.637 905.762 737.195C904.297 734.559 904.297 734.363 906.934 731.629C908.789 729.676 911.719 728.211 916.211 727.039C919.824 726.063 923.633 724.5 924.805 723.524C926.074 722.352 928.223 721.668 930.762 721.668C933.399 721.668 934.961 721.18 935.352 720.203C935.645 719.422 936.719 718.738 937.696 718.738C939.844 718.738 942.774 715.809 942.774 713.758C942.774 712.977 945.02 710.926 947.656 709.168C951.856 706.434 952.539 705.555 952.539 702.82C952.539 700.281 951.953 699.305 949.61 697.938C947.461 696.668 946.68 695.399 946.68 693.445C946.68 691.688 945.508 689.637 942.871 687.098C939.746 683.973 938.281 683.387 933.594 682.899C928.516 682.41 927.735 682.02 925.879 678.992C924.61 677.039 921.68 674.598 918.848 673.133C910.938 669.129 905.957 665.32 903.711 661.609C901.465 657.899 898.633 657.313 892.383 659.07L889.356 659.949L888.77 643.152C888.379 633.973 888.086 607.313 888.086 583.875V541.297L901.758 538.563C917.09 535.535 916.699 536.121 909.668 528.113C906.055 524.109 905.762 523.328 906.641 520.984C907.52 518.738 907.324 518.25 905.664 517.859C904.59 517.566 903.711 516.785 903.711 516.199C903.711 514.051 906.836 505.848 907.617 505.848C908.008 505.848 908.789 504.578 909.375 503.113C910.254 500.574 910.645 500.379 914.063 500.77C916.602 501.063 918.946 502.234 921.289 504.383C924.805 507.703 927.637 508.582 937.207 509.461C942.676 509.949 943.067 510.145 945.996 514.246C948.535 517.859 949.414 518.543 951.563 518.152C953.516 517.664 954.395 518.25 956.055 520.887C957.91 523.719 958.008 524.402 956.836 525.574C955.567 526.746 955.664 527.332 957.422 529.578C959.18 531.824 960.254 532.215 964.453 532.215C967.774 532.215 970.117 532.801 971.289 533.875C972.754 535.145 973.535 535.34 974.903 534.461C975.977 533.777 977.149 533.777 978.125 534.266C979.395 534.949 980.567 534.168 983.203 530.945C986.133 527.332 986.524 526.356 986.035 522.84L985.547 518.934L989.551 519.324C991.699 519.52 993.946 520.301 994.629 521.082C995.215 521.863 996.582 522.449 997.656 522.449C999.414 522.449 999.61 521.961 999.024 519.422C998.731 517.762 998.438 515.809 998.438 515.125C998.438 514.441 996.387 513.074 993.848 512.195C990.137 510.828 988.281 509.266 984.571 504.383C980.371 498.719 980.078 497.938 980.86 495.008C981.348 493.25 981.739 491.785 981.543 491.688C981.446 491.59 979.395 490.223 976.953 488.758C974.512 487.293 970.117 483.68 967.09 480.75L961.621 475.379L954.199 478.309C947.364 480.945 945.996 481.141 938.379 480.652L929.981 480.164L927.344 475.77C925.977 473.328 923.828 468.641 922.754 465.418C921.582 462.098 920.215 459.559 919.727 459.559C919.239 459.656 916.992 459.949 914.746 460.34L910.547 460.926L885.547 427.625C871.875 409.363 860.84 394.129 861.035 393.836C861.328 393.641 865.723 393.152 870.899 392.859C879.785 392.274 880.274 392.176 880.274 390.125C880.274 388.66 879.004 387.098 876.563 385.535C873.34 383.387 871.485 382.996 861.719 382.508C855.567 382.215 849.512 381.727 848.34 381.336C846.778 380.848 846.094 381.141 845.606 382.703C845.117 384.266 844.141 384.754 841.699 384.754C838.672 384.754 837.696 383.875 829.883 373.719C825.098 367.762 810.45 349.109 797.266 332.508C783.985 315.809 770.899 299.012 768.067 295.106C764.453 290.125 762.305 288.074 760.84 288.074C759.278 288.074 757.325 286.121 753.809 281.043C744.922 268.152 725.489 234.949 721.875 226.551C717.774 216.981 699.707 161.707 696.68 149.402C693.946 138.66 689.16 127.137 683.496 117.859C679.883 111.805 678.125 109.949 673.731 107.508C669.043 104.871 663.477 103.504 663.477 104.969C663.477 105.262 664.551 107.215 665.918 109.363C667.285 111.512 668.36 114.149 668.36 115.418C668.36 116.59 669.043 118.25 669.825 119.129C670.996 120.496 671.192 121.668 670.508 124.695C670.02 126.942 670.02 131.238 670.508 134.754C671.094 139.734 670.996 141.883 669.727 145.203L668.067 149.402H662.11C658.496 149.402 654.102 150.184 650.977 151.356C648.145 152.43 643.555 153.309 640.723 153.309C636.035 153.309 635.157 153.699 632.227 156.727C629.981 159.07 628.028 160.145 626.075 160.145C624.121 160.145 621.778 161.414 618.36 164.539C613.77 168.641 613.086 168.934 607.91 168.934C604.883 168.934 600.293 169.715 597.754 170.594L592.969 172.352L591.016 169.617C589.942 168.152 586.035 165.223 582.325 162.977C578.028 160.535 574.121 157.215 571.582 153.992C567.188 148.524 564.942 147.645 563.379 151.063C562.793 152.625 561.621 153.309 559.864 153.309C558.496 153.309 556.543 154.188 555.567 155.262C553.907 157.117 553.809 157.117 548.828 155.262C546.094 154.188 542.188 153.309 540.235 153.309C537.5 153.309 536.524 152.82 536.035 151.258C535.352 149.305 534.766 149.207 525.977 149.598C520.703 149.793 515.723 150.379 514.844 150.77C513.575 151.356 513.086 151.16 513.086 150.184C513.086 149.402 511.133 146.863 508.692 144.52L504.2 140.125L507.325 137.586C510.352 135.145 510.45 134.949 509.766 129.481C509.082 124.109 508.985 123.914 504.297 121.57C501.075 119.91 497.852 119.129 494.629 119.129C490.137 119.129 489.551 118.836 488.184 116.102C487.207 114.344 485.157 112.488 483.008 111.609C481.055 110.828 477.735 108.582 475.782 106.629C472.364 103.406 472.071 102.723 472.071 97.6446C472.071 93.0548 471.68 91.7853 469.629 89.8321L467.285 87.586L459.864 93.1524C452.442 98.7188 452.344 98.8165 447.364 98.1329C442.871 97.4493 441.504 96.6681 434.473 90.1251C429.2 85.2423 423.926 81.5313 418.36 78.6017C413.77 76.3556 409.18 73.5235 408.203 72.3517C406.055 70.0079 403.809 69.9103 398.828 71.7657C395.508 72.9376 395.117 72.8399 385.352 67.6642L375.293 62.3907L340.137 82.5079C319.629 94.3243 304.297 102.527 303.321 102.332C302.344 102.039 282.52 94.6173 259.18 85.8282C218.946 70.6915 215.528 69.2267 195.02 57.9962L173.438 46.2774L165.723 47.0587L158.106 47.9376L141.992 41.8829C131.153 37.879 124.903 34.9493 122.95 33.0938C120.215 30.5548 119.336 30.2618 113.672 30.3595C110.157 30.4571 104.004 30.8478 100 31.336Z" fill="white"/>
<circle id="149" cx="530" cy="415" fill="#5CE50D"/>
<circle id="930" cx="358" cy="385" fill="#E52A0D"/>
<circle cx="687" cy="678" fill="#E52A0D"/>
<circle id="151" cx="884" cy="445" fill="#E52A0D"/>
</svg>
