<svg width="1000" height="1000" viewBox="0 0 1000 1000" fill="none" xmlns="http://www.w3.org/2000/svg">
<path d="M328.377 346.805C321.443 350.027 314.705 352.664 313.436 352.664C311.678 352.664 311.189 353.152 311.189 355.203C311.189 359.109 308.846 357.547 307.869 352.957C307.088 349.539 306.404 348.758 303.279 347.781C300.74 346.902 297.811 346.805 293.904 347.293C286.287 348.367 267.537 347.879 263.631 346.609C261.287 345.73 259.529 345.73 256.697 346.609C254.549 347.293 249.275 347.781 244.783 347.781H236.775L224.861 354.812C213.826 361.355 212.557 361.941 205.916 362.527C201.326 362.918 198.396 363.602 197.811 364.48C197.127 365.555 196.736 365.652 196.15 364.578C194.881 362.723 180.037 364.09 180.721 365.945C181.014 366.727 180.428 367.703 179.354 368.289C176.814 369.656 176.619 369.559 177.107 367.02L177.596 364.676L169.979 366.336C164.412 367.508 162.068 368.484 160.994 370.047C159.236 372.684 157.869 372.781 157.869 370.242C157.869 367.996 157.869 367.996 152.596 369.461C150.252 370.145 146.736 372.391 143.904 375.027C140.779 377.957 138.533 379.422 137.264 379.227C136.092 379.031 134.139 379.812 132.967 380.984C131.307 382.547 129.939 383.035 128.182 382.547C126.326 382.059 125.447 382.449 124.666 383.914C123.982 385.184 122.615 385.867 120.76 385.867C118.904 385.867 117.83 386.355 117.83 387.234C117.83 388.895 115.779 389.773 111.971 389.773C110.506 389.773 108.748 390.359 108.162 391.141C107.479 391.922 104.744 392.801 102.107 393.191C99.373 393.582 96.9316 394.461 96.6387 395.242C96.1504 396.609 87.2637 401.102 81.8926 402.664C79.9395 403.152 78.377 404.422 77.791 405.789C76.8145 408.523 71.834 412.234 69.2949 412.234C68.3184 412.234 66.7559 413.504 65.7793 415.066C64.9004 416.531 62.8496 418.387 61.1895 419.07C58.748 420.047 58.2598 420.828 58.2598 423.562C58.2598 426.102 57.5762 427.371 55.2324 429.031C51.4238 431.863 48.4941 437.43 48.4941 441.824C48.4941 443.68 47.8105 445.73 47.0293 446.414C45.1738 447.977 45.1738 449.344 47.0293 449.344C47.8105 449.344 48.6895 450.711 49.0801 452.664C49.4707 455.105 50.6426 456.766 53.4746 458.523C55.5254 459.988 57.2832 461.844 57.2832 462.82C57.2832 463.797 57.8691 465.164 58.5527 465.848C59.5293 466.922 59.1387 467.02 56.3066 466.434C54.4512 466.141 51.6191 465.848 49.959 465.848C48.3965 465.945 45.0762 465.945 42.7324 465.945C39.8027 465.945 37.752 466.531 36.3848 467.801C35.2129 468.875 32.0879 470.633 29.2559 471.707C26.4238 472.781 20.6621 475.418 16.3652 477.664C8.65039 481.473 8.55273 481.473 4.45117 480.105C2.20508 479.324 0.251953 478.641 0.0566406 478.641C-0.138672 478.641 -0.333984 480.105 -0.333984 481.961C-0.333984 485.086 -0.0410156 485.379 4.25586 486.844C11.5801 489.383 13.5332 488.895 20.8574 483.328C27.2051 478.348 27.791 478.152 34.5293 477.859C41.4629 477.469 41.5605 477.469 42.2441 480.105C42.7324 481.961 42.3418 483.426 40.9746 485.281C38.4355 488.797 37.2637 493.289 38.9238 493.289C41.6582 493.191 48.2012 489.383 51.4238 485.965C55.916 481.277 58.4551 480.008 68.6113 477.566C75.252 476.004 77.5957 475.809 80.0371 476.688C83.748 477.957 85.5059 476.492 87.9473 469.656C89.3145 466.043 89.4121 464.676 88.5332 463.016C86.9707 460.086 87.9473 457.156 91.3652 453.836C94.2949 451.004 94.6855 451.004 105.721 451.492C108.357 451.688 111.287 450.906 114.51 449.246C121.639 445.438 124.08 445.145 126.131 447.391C129.158 450.809 142.244 449.539 142.244 445.926C142.244 444.266 143.318 443.973 144.783 445.438C145.955 446.609 151.033 440.066 151.033 437.332C151.033 435.379 155.33 432.352 157.186 433.035C157.869 433.328 159.725 432.938 161.385 432.254C163.533 431.375 165.096 429.227 168.025 423.27L171.834 415.457L179.061 413.113C183.455 411.746 187.068 409.988 188.045 408.621C189.021 407.449 191.561 405.789 193.709 404.91C196.834 403.641 198.006 402.469 199.178 399.441L200.643 395.633H207.283C211.775 395.633 214.412 396.121 215.486 397.098C216.658 398.172 217.83 398.27 220.369 397.586C222.127 397.098 229.744 396.414 237.264 396.121C248.689 395.633 251.131 395.73 252.498 397C253.768 398.172 254.939 398.367 257.381 397.586C259.139 397.098 264.9 396.414 270.076 396.023C281.795 395.242 286.189 396.707 299.275 405.887C299.373 405.984 298.787 407.645 298.006 409.598C296.834 412.43 295.271 413.797 290.877 416.043C285.701 418.582 284.236 418.875 271.15 419.363C263.338 419.656 256.209 420.145 255.33 420.535C254.158 421.023 253.572 422.293 253.572 424.148C253.572 426.59 254.158 427.273 258.064 429.031C260.604 430.105 264.607 432.254 266.951 433.719C269.393 435.281 273.006 436.746 275.154 437.137C278.377 437.723 278.963 438.211 278.963 440.164C278.963 442.02 279.744 442.996 282.381 444.07C286.189 445.633 295.564 445.926 295.564 444.461C295.564 443.387 311.58 443.777 317.049 444.949C318.904 445.438 321.053 446.609 321.736 447.586C324.861 451.98 333.65 453.934 333.65 450.32C333.65 447.879 335.799 447.781 337.947 450.223C339.217 451.59 339.314 452.566 338.631 454.617C337.459 457.645 338.533 457.938 340.975 455.203C342.342 453.641 342.537 452.371 342.049 448.27C341.658 445.438 340.779 441.531 340.096 439.48C338.924 436.16 339.021 435.77 340.584 435.379C342.635 434.793 346.346 439.969 346.346 443.289C346.346 449.93 352.01 453.934 363.338 455.301C369.295 456.082 371.15 455.887 376.521 454.129C381.99 452.273 384.139 452.078 392.83 452.566C404.646 453.348 408.357 452.469 407.381 449.051C406.99 447.879 405.232 445.633 403.377 444.168C399.568 440.945 399.861 439.578 404.354 439.578C409.725 439.578 413.631 440.652 414.119 442.41C415.779 448.465 415.779 450.32 414.217 450.32C411.58 450.32 413.143 456.18 416.268 458.523C417.732 459.598 421.053 462.332 423.787 464.578C426.619 467.02 432.381 470.34 437.459 472.488C444.881 475.613 446.639 476.883 449.08 480.398C451.619 484.109 452.107 484.402 453.182 483.035C454.158 481.668 455.232 481.57 458.943 482.059C462.947 482.645 463.533 483.035 463.533 485.086C463.533 487.039 464.021 487.43 466.463 487.43C468.025 487.43 469.686 486.746 470.174 485.867C470.955 484.402 471.346 484.402 474.08 485.867C475.74 486.746 478.182 487.43 479.451 487.43C482.967 487.43 491.072 490.359 493.514 492.508C494.979 493.875 496.053 494.168 497.225 493.582C498.787 492.605 512.264 494.949 517.537 497.098C521.834 498.758 526.229 498.367 531.404 495.828C534.041 494.461 538.533 493.094 541.561 492.801C550.545 491.824 559.529 490.164 562.166 488.992C564.412 487.918 569.002 487.918 569.002 488.992C569.002 489.285 568.514 490.359 568.025 491.336C567.146 492.996 567.537 493.289 570.76 494.168C572.811 494.754 575.35 496.219 576.424 497.391C580.33 501.785 584.627 509.598 584.627 512.43C584.627 514.578 585.506 515.848 588.338 517.703C591.072 519.461 591.561 520.145 590.291 520.438C588.143 520.828 588.143 521.219 589.9 526.297C590.682 528.445 591.561 532.742 591.951 535.867C592.928 544.168 593.123 544.656 596.639 546.121C598.396 546.805 601.912 548.953 604.451 551.004C606.99 553.055 610.408 554.91 611.873 555.301C614.021 555.789 614.9 556.766 615.779 559.695C616.658 562.625 617.244 563.309 618.709 562.918C619.881 562.625 622.127 564.09 625.74 567.703C631.307 573.367 633.846 574.344 642.244 574.344C645.369 574.344 647.615 573.758 649.275 572.391C651.521 570.633 652.107 570.633 656.795 571.902C662.752 573.465 692.146 573.074 696.541 571.316C699.861 570.145 704.744 571.121 706.99 573.465C707.967 574.539 709.627 575.32 710.604 575.32C713.24 575.32 714.51 580.105 712.166 581.375C709.529 582.84 710.311 583.816 716.561 586.062C719.979 587.332 723.104 589.285 723.982 590.652C726.033 593.68 725.057 599.246 721.932 602.566C720.662 603.934 719.295 606.082 718.904 607.254C718.416 608.914 717.537 609.5 715.486 609.5C713.631 609.5 712.264 610.281 711.189 612.039C710.213 613.406 707.479 615.359 705.037 616.434C702.596 617.41 698.201 620.535 695.174 623.27C692.049 626.004 688.24 628.836 686.482 629.617C684.334 630.496 683.064 631.961 682.283 634.5C681.6 636.453 679.646 639.676 677.986 641.629C674.861 645.145 668.221 655.398 668.807 655.789C669.002 655.984 670.955 656.766 673.104 657.645C676.717 659.012 677.303 659.012 679.256 657.645C680.428 656.863 683.26 656.082 685.506 655.887C687.752 655.789 692.928 655.105 696.932 654.422C702.889 653.543 704.646 652.859 706.404 650.711C708.455 648.172 709.822 647.781 719.393 647.488C720.174 647.391 723.396 647.879 726.619 648.465C731.209 649.246 732.967 649.148 735.701 648.074C737.654 647.293 740.291 646.609 741.756 646.609C743.123 646.609 745.564 645.535 747.225 644.266C749.471 642.508 750.545 642.117 751.912 642.898C753.084 643.484 754.744 643.484 756.795 642.703C758.553 642.02 764.314 641.141 769.686 640.75C783.553 639.578 794.393 638.016 799.08 636.453C802.01 635.477 806.99 635.281 818.123 635.574C831.795 635.965 833.455 635.867 836.873 634.109C840.584 632.156 840.682 632.156 842.537 634.012C843.904 635.379 845.76 635.867 849.764 635.867C852.791 635.867 857.479 636.746 860.701 638.016C864.705 639.48 868.318 640.066 873.201 639.969C885.506 639.773 895.467 638.602 899.764 636.746C903.67 635.086 903.963 634.695 903.963 631.277C903.963 626.59 906.307 622.977 909.139 623.367C912.166 623.758 912.264 626.883 909.432 632.254C906.99 636.844 906.99 636.844 909.041 636.844C910.213 636.844 913.924 636.355 917.342 635.77C922.713 634.793 923.787 634.305 925.057 631.863C925.838 630.301 927.01 629.031 927.596 629.031C928.182 629.031 931.209 626.883 934.334 624.148C937.459 621.512 940.486 619.461 941.268 619.754C943.416 620.633 961.775 617.605 967.928 615.359C972.322 613.699 975.838 613.211 981.6 613.309C985.896 613.406 989.9 613.113 990.486 612.723C991.072 612.234 992.342 610.477 993.221 608.816C994.1 607.059 995.955 604.91 997.225 604.031C1001.03 601.492 1000.54 597.098 995.955 592.605C992.049 588.797 989.217 588.113 985.701 590.359C981.99 592.703 976.717 593.191 975.154 591.336C974.373 590.359 971.443 588.602 968.611 587.332C965.291 585.867 961.482 583.035 958.162 579.422C955.33 576.395 950.74 572.488 948.104 570.926C945.076 569.168 942.537 566.727 941.561 564.676C940.096 561.648 939.803 561.453 936.58 562.039C934.041 562.527 932.381 562.234 930.037 560.77C925.057 557.742 915.389 556.18 909.92 557.645C906.6 558.426 904.549 558.523 902.596 557.742C901.131 557.254 897.127 556.766 893.611 556.766C888.729 556.766 887.361 557.059 887.361 558.23C887.361 559.012 886.482 559.695 885.408 559.695C883.943 559.695 883.455 559.012 883.455 557.254C883.455 554.91 883.162 554.812 878.084 554.812C873.396 554.812 872.713 555.008 872.713 556.766C872.713 558.035 871.834 558.914 870.076 559.305C868.514 559.598 866.854 559.988 866.17 560.184C865.584 560.379 864.803 559.891 864.51 559.012C864.021 557.84 863.631 557.742 862.557 558.621C861.385 559.598 861.092 559.207 860.506 556.766C860.115 555.203 859.432 553.836 858.846 553.836C856.893 553.836 851.229 557.938 851.229 559.305C851.229 560.965 851.131 560.965 847.908 559.695C845.662 558.914 845.369 558.23 845.369 553.738V548.758L853.963 549.051C860.994 549.344 862.459 549.148 862.459 547.977C862.459 547.195 860.994 545.73 859.139 544.852C856.209 543.387 855.428 543.387 852.693 544.461C848.885 546.121 846.346 544.949 846.346 541.629C846.346 538.992 848.982 538.309 850.936 540.262C852.889 542.215 856.404 540.848 857.283 537.723C857.771 536.062 858.65 533.816 859.236 532.645C860.018 530.984 859.822 529.91 858.162 527.566C856.99 525.906 855.428 524.539 854.744 524.539C854.061 524.539 852.107 523.465 850.252 522.098C846.639 519.461 841.561 518.875 836.873 520.73C835.408 521.316 832.479 521.805 830.525 521.707C828.475 521.707 826.619 522.195 826.131 522.977C825.154 524.539 818.318 525.516 815.584 524.539C814.51 524.148 812.947 524.148 812.068 524.637C810.799 525.223 810.115 524.637 808.943 521.609C807.869 518.68 806.893 517.703 805.33 517.703C804.061 517.703 799.471 515.457 794.979 512.723L786.873 507.742L780.428 508.426L774.08 509.109V513.406C774.08 516.531 773.689 517.703 772.615 517.703C771.834 517.703 771.15 516.824 771.15 515.75C771.15 511.844 768.318 507.938 765.682 507.938C763.826 507.938 763.24 508.328 763.729 509.402C764.51 511.648 758.26 511.355 756.209 509.109C754.061 506.766 754.158 506.18 756.795 505.789C757.967 505.594 758.943 504.812 758.943 504.031C758.943 503.055 757.088 502.176 753.084 501.297C749.861 500.613 745.955 499.344 744.295 498.562C739.021 496.023 735.115 495.242 734.334 496.609C733.162 498.562 729.451 500.223 727.791 499.539C726.619 499.051 726.717 498.66 728.279 497.098C729.256 496.121 730.135 494.656 730.135 493.875C730.135 492.117 722.811 482.938 720.76 482.156C718.611 481.375 718.416 481.375 718.416 482.84C718.416 483.621 717.537 484.988 716.463 485.965C715.389 486.941 714.51 488.699 714.51 489.871C714.51 492.312 712.85 493.289 708.553 493.289C706.307 493.289 705.721 492.898 705.721 491.238C705.721 490.066 706.404 488.602 707.283 488.016C709.334 486.453 708.064 483.523 705.232 483.523C700.35 483.523 697.127 482.254 696.053 480.008C695.564 478.738 693.514 477.078 691.658 476.297C687.752 474.637 685.994 472 687.264 469.656C687.947 468.387 687.557 467.898 685.408 467.117C683.846 466.629 681.795 466.531 680.525 467.02C679.158 467.508 677.498 467.508 676.424 466.922C675.447 466.336 672.615 465.945 670.271 465.945C663.924 465.945 660.213 464.285 658.846 460.965C658.162 459.402 657.186 458.133 656.697 458.133C654.842 458.133 651.033 453.25 651.033 450.809C651.033 448.855 650.545 448.367 648.592 448.367C646.639 448.367 646.15 448.855 646.053 451.004C646.053 452.566 645.662 454.52 645.271 455.594C644.686 457.156 644.197 456.863 641.756 453.641C640.193 451.492 636.092 446.902 632.576 443.191C627.986 438.406 625.643 436.648 623.787 436.648C622.42 436.648 619.979 435.77 618.318 434.695C616.756 433.621 612.947 432.254 610.018 431.668C606.014 430.789 603.67 429.52 600.74 426.785C597.42 423.66 595.955 422.977 591.072 422.391C587.85 422 583.943 420.828 582.283 419.852C575.643 415.652 567.732 411.258 566.951 411.258C566.561 411.258 566.072 412.918 565.877 414.871L565.584 418.582L562.166 415.066C560.311 413.113 557.479 411.258 555.916 410.867C554.451 410.477 544.979 410.965 534.92 411.844L516.756 413.504L507.674 407.547C502.693 404.324 497.811 401.395 496.834 401.004C495.857 400.711 493.221 397.879 491.072 394.754C488.826 391.629 486.385 388.602 485.604 387.82C484.725 387.137 484.041 385.77 484.041 384.793C484.041 383.816 482.967 381.766 481.697 380.301C479.842 378.25 479.061 377.859 478.182 378.738C477.303 379.52 475.838 379.227 472.42 377.469C468.709 375.516 467.244 375.223 465.291 376.004C463.143 376.785 462.654 376.59 461.678 374.344C460.604 372 460.701 371.609 464.217 368.68L467.928 365.555L463.729 366.336C461.482 366.727 458.748 367.801 457.771 368.68C456.111 370.145 455.721 370.145 451.717 367.801C449.373 366.531 446.639 365.359 445.76 365.359C444.783 365.359 444.002 364.676 444.002 363.797C444.002 362.723 443.416 362.527 442.049 362.918C441.072 363.211 439.021 362.918 437.557 362.137C435.115 360.867 434.627 360.965 431.502 363.016C426.521 366.434 422.518 366.824 417.928 364.48C415.779 363.406 413.143 362.723 412.166 363.016C409.432 363.699 399.471 359.012 397.518 356.082C396.639 354.812 394.393 352.762 392.537 351.59C389.217 349.539 389.119 349.539 378.865 351.102C373.201 351.98 367.732 353.152 366.756 353.641C364.9 354.715 358.064 355.008 358.064 354.031C358.064 353.738 358.455 352.664 359.041 351.688C359.92 350.125 359.627 349.93 355.818 350.418C349.959 351.102 349.373 351.395 348.299 354.031C347.713 355.594 346.248 356.766 344.197 357.352C341.17 358.23 340.682 357.938 336.58 353.738L332.088 349.246L336.092 347.195C340.682 344.656 344.49 340.945 342.342 340.945C341.561 340.945 335.311 343.582 328.377 346.805Z" fill="white"/>
<path d="M586.58 393.68C584.041 395.731 580.33 396.023 572.811 395.047C568.709 394.559 568.221 394.656 567.732 396.707C566.951 399.734 567.635 400.516 571.248 400.516C573.006 400.516 576.131 401.395 578.279 402.371C580.721 403.445 583.553 403.934 585.408 403.641C587.166 403.445 590.584 403.738 592.928 404.422C596.541 405.398 597.518 405.398 599.373 404.031C600.643 403.152 602.498 402.469 603.475 402.469C605.623 402.469 604.744 400.613 599.861 395.34C597.029 392.41 595.76 391.727 592.732 391.824C590.584 391.824 587.947 392.606 586.58 393.68Z" fill="white"/>
<path d="M608.064 405.301C606.209 405.691 603.768 406.473 602.693 407.156C600.935 408.133 601.228 408.23 604.842 408.328C608.064 408.328 608.846 408.621 608.455 409.793C607.576 412.039 610.994 412.918 612.557 410.77C613.826 409.012 613.924 409.012 613.924 411.16C613.924 412.527 615.486 415.066 617.732 417.215C621.248 420.828 621.541 420.926 622.029 418.875C622.615 416.922 622.81 416.922 624.861 418.289C626.131 419.168 627.205 421.023 627.4 422.586C627.596 424.148 628.377 425.809 629.158 426.199C630.037 426.688 630.33 427.762 630.037 428.738C629.353 430.887 631.111 432.449 634.432 432.938C636.287 433.133 636.971 433.914 637.166 435.867C637.752 440.457 647.127 447.195 647.127 442.996C647.127 440.945 648.982 441.141 649.764 443.191C650.838 446.414 653.279 448.367 655.916 448.367C658.064 448.367 658.748 448.953 659.334 451.004C659.92 453.445 661.385 455.105 662.85 455.203C663.143 455.203 663.24 453.836 662.947 452.273C662.654 449.93 663.143 448.758 665.096 446.902C667.146 445.047 667.732 443.68 667.439 441.238C667.146 438.211 666.951 438.113 662.752 438.016C660.31 438.016 657.088 437.234 655.428 436.355C653.865 435.477 651.912 434.695 651.326 434.695C650.643 434.695 650.057 433.621 650.057 432.449C650.057 430.105 647.322 426.883 645.369 426.883C644.783 426.883 644.002 426.004 643.709 424.93C643.416 423.855 642.439 422.977 641.56 422.977C638.728 422.977 634.432 419.656 634.432 417.41C634.432 415.652 633.846 415.262 630.818 414.969C627.986 414.773 627.01 414.188 626.814 412.723C626.033 407.449 625.545 406.473 622.615 405.496C619.197 404.324 613.435 404.227 608.064 405.301Z" fill="white"/>
<path d="M671.639 452.176C669.783 453.348 671.443 458.035 674.666 460.379C676.619 461.844 678.084 462.137 680.721 461.648L684.236 460.965L680.135 456.18C675.936 451.297 674.275 450.516 671.639 452.176Z" fill="white"/>
<path d="M688.338 462.82C688.533 463.211 689.412 465.555 690.389 467.996C691.463 470.535 693.221 473.074 694.49 473.758C695.76 474.441 697.322 476.297 697.811 477.762C698.689 480.398 699.178 480.594 704.061 480.594C708.064 480.594 709.725 481.082 711.092 482.547C713.631 485.379 715.682 483.328 715.291 478.25C714.998 474.344 714.9 474.246 711.092 473.66C706.111 472.977 701.131 470.34 700.35 467.996C700.057 467.02 697.615 465.262 694.783 464.09C689.607 461.941 687.752 461.551 688.338 462.82Z" fill="white"/>
<path d="M179.646 471.121C179.939 472 179.549 473.172 178.67 473.953C173.592 478.055 169.588 489.09 172.518 490.848C174.568 492.117 183.26 503.25 183.26 504.52C183.26 506.473 178.182 508.914 174.08 508.914C171.541 508.914 170.174 508.328 169.1 506.668C167.732 504.52 162.947 501.59 162.166 502.273C162.068 502.469 163.729 505.496 165.877 509.109C170.662 516.629 173.982 518.68 181.99 518.68C184.92 518.68 189.119 519.168 191.072 519.754C194.588 520.828 195.174 520.633 207.088 514.188C218.709 507.84 219.393 507.254 219.393 504.422C219.393 502.762 218.416 500.223 217.342 498.758C215.584 496.512 215.389 495.731 216.365 493.68C217.83 490.359 216.561 488.211 211.58 485.965C207.674 484.207 205.916 481.18 206.99 478.25C207.771 476.297 199.764 473.074 191.072 471.902C187.068 471.316 182.674 470.535 181.404 470.145C179.451 469.656 179.158 469.852 179.646 471.121Z" fill="white"/>
<path d="M513.338 541.141C513.338 542.508 517.83 547 519.197 547C519.783 547 520.174 546.219 519.979 545.34C519.588 543.387 513.338 539.383 513.338 541.141Z" fill="white"/>
<path d="M528.768 550.223C527.205 551.492 527.498 551.981 531.99 556.668C536.58 561.453 538.729 562.234 538.729 559.207C538.729 558.523 536.873 555.887 534.627 553.445C530.916 549.539 530.232 549.148 528.768 550.223Z" fill="white"/>
<path d="M542.244 561.258C543.514 564.578 544.783 565.555 548.201 565.555C551.131 565.555 551.424 565.359 550.545 563.699C549.959 562.723 548.494 561.648 547.322 561.453C546.053 561.16 544.295 560.574 543.318 560.184C541.951 559.598 541.756 559.793 542.244 561.258Z" fill="white"/>
<path d="M553.377 568.484C553.377 570.34 555.232 571.414 558.357 571.414C561.971 571.414 559.92 568.289 555.623 567.215C553.865 566.824 553.377 567.117 553.377 568.484Z" fill="white"/>
<path d="M566.268 575.906C567.146 576.785 568.318 577.176 568.904 576.785C570.467 575.809 569.197 574.344 566.756 574.344C564.803 574.344 564.803 574.441 566.268 575.906Z" fill="white"/>
<path d="M600.936 589.578C603.084 592.996 608.943 595.535 610.115 593.68C611.482 591.629 611.189 591.336 606.014 589.09C599.471 586.453 598.885 586.453 600.936 589.578Z" fill="white"/>
<circle id="161" cx="203" cy="362" fill="#5CE50D"/>
<circle id="163" cx="645" cy="509" fill="#E52A0D"/>
<circle id="164" cx="788" cy="553" fill="#E52A0D"/>
<circle id="162" cx="827" cy="626" fill="#E52A0D"/>
</svg>
