<svg width="1000" height="1000" viewBox="0 0 1000 1000" fill="none" xmlns="http://www.w3.org/2000/svg">
<path d="M84.4316 45.7344C75.0566 48.6641 69.5879 50.9102 66.2676 53.3516C62.9473 55.6953 60.7012 56.6719 59.334 56.2812C56.4043 55.5 47.3223 63.8984 46.0527 68.4883C45.0762 72.0039 44.8809 72.1016 38.2402 73.2734C34.4316 73.8594 26.9121 76.0078 21.3457 77.8633C13.1426 80.6953 10.2129 82.2578 5.42773 86.3594L-0.333984 91.3398V106.574L5.23242 109.895L10.8965 113.215L14.3145 122.98L17.6348 132.844L15.0957 135.871C12.8496 138.605 12.6543 139.289 13.4355 143.586C14.7051 150.227 14.8027 150.422 19.0996 152.668C23.7871 155.012 25.6426 155.109 32.5762 153.059C36.0918 152.082 39.1191 151.789 41.4629 152.18C43.5137 152.668 49.1777 152.863 54.2559 152.766L63.4355 152.473L81.4043 134.113C97.8105 117.219 99.666 115.656 102.107 116.145C105.428 116.828 112.264 113.605 123.201 106.086C131.893 100.129 133.65 98.3711 139.9 89.1914C143.514 83.918 144.197 82.0625 144.197 78.2539C144.197 73.957 144.1 73.6641 141.072 72.9805C139.314 72.6875 135.311 70.3438 132.283 68C126.814 63.7031 126.717 63.5078 126.424 58.2344L126.131 52.8633L121.248 50.9102C118.611 49.8359 112.166 47.2969 107.088 45.3438L97.8105 41.6328L84.4316 45.7344Z" fill="white"/>
<path d="M155.428 152.18L150.643 155.598L144.197 149.348L138.924 154.523C135.994 157.356 133.26 161.066 132.771 162.824C132.283 164.484 131.404 165.754 130.916 165.754C130.428 165.656 126.326 165.266 121.736 164.973L113.436 164.289L111.678 168.586C110.213 172.102 109.139 173.273 105.232 175.129C100.838 177.18 100.447 177.668 100.057 181.281C99.666 184.895 99.959 185.285 102.889 186.457C105.33 187.531 106.209 188.605 106.697 191.242C107.479 195.539 108.064 195.832 111.775 194.563C114.607 193.586 115.193 193.879 120.564 198.371C125.154 202.082 127.596 203.352 132.283 204.426C138.045 205.598 138.631 205.598 143.904 203.156C151.814 199.738 155.33 198.859 163.631 198.176C168.221 197.785 172.908 196.613 176.521 195.051C181.795 192.609 182.088 192.316 182.967 187.824C183.65 184.309 183.553 182.551 182.576 180.5C181.795 179.035 181.404 176.789 181.795 175.227C182.283 172.688 182.088 172.395 179.256 171.809C177.596 171.516 174.275 171.223 171.932 171.223H167.732L166.17 165.852C164.803 161.066 164.803 160.188 166.072 157.648C167.439 155.109 167.439 154.719 165.389 152.961C160.408 148.566 160.506 148.664 155.428 152.18Z" fill="white"/>
<path d="M901.424 176.203C899.861 177.18 897.029 178.059 895.076 178.059C892.146 178.059 890.486 179.035 884.92 184.113L878.377 190.168L878.768 197.98C879.061 204.426 879.549 206.574 881.6 209.797C883.846 213.313 884.041 213.996 882.869 216.633C882.088 218.195 881.6 221.516 881.697 223.859C881.893 227.57 881.502 228.449 878.768 230.793C877.01 232.16 875.643 233.723 875.643 234.016C875.643 234.406 877.986 234.699 880.818 234.797C883.553 234.797 888.045 235.383 890.779 235.969C895.076 237.043 895.76 237.531 896.932 240.754C898.299 244.27 898.201 244.465 895.271 248.176L892.244 252.082L901.424 260.48L901.717 268.293C902.01 272.688 902.303 276.691 902.498 277.375C902.791 278.156 905.135 277.766 910.506 276.105C914.607 274.738 918.221 273.469 918.416 273.273C918.611 273.078 917.83 270.832 916.854 268.195C915.779 265.656 914.607 262.141 914.314 260.383C913.924 257.746 914.119 257.258 915.975 256.965C917.635 256.77 918.221 255.891 918.416 253.547C918.611 251.594 919.686 249.641 921.15 248.469C922.42 247.492 923.494 245.93 923.494 245.051C923.494 244.27 921.736 239.191 919.588 233.82C917.537 228.449 915.096 221.32 914.314 217.902L912.85 211.75L915.389 209.699L917.928 207.746L915.389 198.957C913.24 191.438 912.947 189.582 913.826 186.359C914.9 182.648 914.803 182.453 911.189 179.23C905.33 174.25 904.646 174.055 901.424 176.203Z" fill="white"/>
<path d="M209.822 200.617C207.771 205.305 207.771 205.695 209.432 207.746C210.311 209.016 213.631 211.066 216.854 212.336C220.857 213.898 223.104 215.461 224.178 217.414C227.596 223.469 227.01 223.273 237.85 222.492C247.42 221.809 247.811 221.711 249.178 218.977C249.959 217.512 250.643 216.047 250.643 215.754C250.643 214.68 243.904 213.215 238.826 213.215C233.846 213.215 233.162 212.922 232.576 210.969C232.186 209.797 230.623 207.453 229.158 205.891C227.596 204.23 226.229 202.082 226.033 201.105C225.838 199.738 224.08 198.762 219.393 197.395C215.877 196.418 212.752 195.637 212.459 195.637C212.068 195.637 210.896 197.883 209.822 200.617Z" fill="white"/>
<path d="M372.811 242.609C370.955 244.172 369.197 244.465 364.803 244.367C359.334 244.172 358.943 244.367 354.744 248.176C352.303 250.422 349.471 252.277 348.396 252.277C345.271 252.277 343.904 258.918 345.564 265.754L346.834 271.027L357.479 277.668L368.025 284.309L373.787 294.953C377.693 302.277 379.646 307.063 380.135 310.676C380.721 315.363 381.111 316.047 384.041 317.512C387.068 318.879 387.459 318.879 389.217 317.316C390.779 315.852 390.975 315.07 390.096 312.141C389.314 309.211 389.51 308.43 391.072 306.574C392.146 305.5 395.564 299.543 398.592 293.488L404.061 282.551H407.771C410.311 282.551 412.557 281.672 415.291 279.621C418.807 276.984 419.686 276.789 427.4 276.691H435.701L446.932 283.137C460.408 290.852 463.729 291.535 482.576 290.754C499.666 289.973 501.814 288.606 498.201 281.574C497.029 279.231 496.053 278.645 493.514 278.645C490.975 278.645 489.314 277.57 485.115 273.371C481.404 269.563 478.279 267.512 474.178 266.047C468.904 264.094 467.83 263.996 457.576 265.07C447.127 266.047 446.541 266.047 443.904 264.094C436.678 258.723 434.041 257.551 426.229 255.793L417.732 254.035L414.412 256.086C411.58 257.844 410.506 257.941 408.357 257.16C406.111 256.281 405.232 256.477 403.475 258.137C402.303 259.211 400.936 260.09 400.447 260.09C398.982 260.09 393.514 254.133 389.998 248.762C387.166 244.367 386.482 243.977 382.674 243.684C380.135 243.488 378.279 242.805 377.889 241.926C377.205 240.07 375.643 240.266 372.811 242.609Z" fill="white"/>
<path d="M248.689 249.25C248.689 253.742 248.787 254.035 251.717 254.621C257.576 255.793 257.771 255.402 253.865 249.836C251.814 246.906 249.861 244.465 249.471 244.465C248.982 244.465 248.689 246.613 248.689 249.25Z" fill="white"/>
<path d="M281.404 263.996C279.939 265.559 279.744 266.535 280.525 268.684C281.893 272.688 285.115 272.59 287.654 268.586C288.728 266.73 289.705 264.973 289.705 264.68C289.705 264.289 284.334 262.043 283.357 262.043C283.26 262.043 282.381 262.922 281.404 263.996Z" fill="white"/>
<path d="M948.885 415.266L946.736 419.953L939.314 421.027C925.643 423.176 922.42 422.785 913.826 417.805C909.627 415.363 905.721 413.41 905.232 413.41C904.646 413.41 903.768 415.168 903.182 417.219C902.498 420.344 902.596 421.32 903.768 422.59C905.135 423.859 905.037 424.25 903.67 426.496C901.521 429.719 901.521 430.402 904.549 437.531C906.795 442.805 907.088 444.367 906.502 449.836L905.818 456.184L899.275 460.578C894.49 463.801 891.854 466.34 889.412 470.344L886.189 475.813L888.24 485.383C889.412 490.559 890.486 494.953 890.584 495.051C893.416 497.395 902.107 501.594 907.381 503.156C912.557 504.621 915.193 506.086 917.635 508.723L921.053 512.238L931.795 511.652C940.291 511.164 943.514 511.359 946.834 512.531C949.178 513.313 951.229 513.898 951.326 513.801C951.521 513.605 952.889 511.066 954.549 508.137C957.479 503.059 958.26 502.375 971.541 495.051C994.197 482.453 995.76 481.379 995.76 477.668C995.76 475.91 996.639 473.664 997.811 472.395C999.861 470.246 999.861 470.148 998.299 458.234L996.736 446.223L990.975 440.266C986.385 435.578 985.115 433.625 984.725 430.5C984.432 428.352 983.748 425.422 983.162 423.859C982.186 421.516 981.697 421.223 977.205 421.223C973.201 421.223 970.369 420.246 961.678 415.949L951.131 410.578L948.885 415.266Z" fill="white"/>
<path d="M592.244 756.867C588.338 760.871 587.654 762.141 587.459 765.949C587.068 772.102 590.193 780.891 594.002 784.602C596.932 787.434 597.029 787.824 596.15 791.145C595.565 793.098 594.1 796.027 592.83 797.688C591.17 799.836 590.486 802.082 590.486 805.109C590.389 807.453 589.607 810.871 588.631 812.629C587.264 815.363 587.068 816.73 587.85 821.125C589.217 828.547 587.557 839.68 584.334 844.66C582.967 846.809 581.6 850.715 581.307 853.547L580.623 858.723L584.822 860.773C588.045 862.336 589.51 863.801 591.072 867.414C593.025 871.711 593.318 872.004 596.443 871.711C599.373 871.418 600.154 871.906 603.377 876.105L606.99 880.891L603.963 883.918L600.936 886.848L608.065 895.148L615.193 903.352L630.428 909.699C643.904 915.363 647.225 916.34 659.627 918.293C673.104 920.441 688.338 920.637 693.123 918.781C694.295 918.391 694.979 916.438 695.467 912.629C695.955 908.137 696.834 906.184 699.959 902.473C703.279 898.469 703.67 897.59 702.791 895.344C701.326 891.535 701.424 891.34 706.502 889.484C709.041 888.508 711.385 887.434 711.873 887.141C712.654 886.359 710.799 879.328 707.479 870.148C705.623 864.973 705.232 864.582 702.4 864.582C699.666 864.582 698.787 863.703 693.904 856.477C689.803 850.52 688.24 847.199 687.752 843.586C686.678 835.871 686.385 835.48 681.209 833.82C677.498 832.551 675.74 831.281 673.397 827.863C670.565 823.664 670.272 823.566 665.389 823.566H660.213L652.107 809.309L644.002 795.148L640.291 795.344C637.166 795.637 635.408 794.855 629.744 791.047C626.033 788.41 621.346 784.211 619.393 781.574L615.682 776.691L616.756 770.637L617.83 764.68L613.436 759.992C610.994 757.355 608.846 755.109 608.553 755.012C608.357 754.816 607.088 756.184 605.721 757.941L603.377 761.164L600.252 756.77C598.592 754.328 597.127 752.277 597.029 752.277C596.834 752.277 594.686 754.328 592.244 756.867Z" fill="white"/>
<path d="M801.033 759.309C798.885 762.629 796.541 767.609 795.76 770.539C794.393 775.324 794.002 775.812 790.584 776.691C787.264 777.57 786.971 777.961 786.58 781.672C786.385 784.406 786.58 785.871 787.459 786.066C788.143 786.262 789.412 786.652 790.193 786.945C791.268 787.238 791.658 788.801 791.658 792.219C791.658 796.125 791.268 797.395 789.314 798.859C786.385 801.105 783.748 814.484 784.529 822.883C785.018 828.352 785.213 828.645 789.119 830.598C791.268 831.672 794.686 834.016 796.541 835.773C799.764 838.801 800.545 839.094 808.26 839.68L816.561 840.266L840.096 819.465L838.729 807.551C838.045 801.105 836.385 792.609 835.213 788.801C833.162 782.551 833.064 781.672 834.334 779.133C835.701 776.496 835.604 776.008 832.576 770.246C830.721 766.828 828.768 763.996 828.182 763.996C827.596 763.996 825.447 764.68 823.592 765.461C821.639 766.242 819.686 766.926 819.197 766.926C818.807 766.926 817.244 764.484 815.779 761.555C814.314 758.625 812.85 756.184 812.361 756.184C811.971 756.184 810.896 757.355 810.018 758.82L808.455 761.457L807.186 757.355C806.502 755.109 805.721 753.254 805.428 753.352C805.135 753.352 803.084 756.086 801.033 759.309Z" fill="white"/>
<path d="M359.432 864.973C356.209 866.145 352.205 868 350.643 869.172C349.08 870.246 344.393 872.395 340.096 873.859C333.162 876.398 331.99 877.18 327.693 882.551C321.932 889.777 317.537 900.52 314.803 914.191L312.752 924.25L322.713 934.211C332.283 943.781 333.162 944.367 344.295 949.25C352.693 953.059 357.088 954.426 360.213 954.426C366.365 954.426 377.4 949.152 385.701 942.414C389.314 939.387 393.123 936.652 394.197 936.359C396.053 935.773 396.15 934.895 396.15 922.395C396.15 905.793 394.881 895.148 391.561 884.797C389.314 877.473 388.533 876.301 383.162 871.418C377.889 866.535 370.76 862.824 366.854 862.727C366.072 862.727 362.752 863.703 359.432 864.973Z" fill="white"/>
<path d="M242.342 922.199C240.389 923.469 237.752 924.152 234.334 924.152C228.963 924.152 229.061 924.055 227.693 930.695C227.303 932.844 226.424 933.918 224.959 934.113C223.201 934.406 222.615 935.48 221.443 941.535C220.76 945.441 220.369 948.859 220.662 949.25C221.053 949.543 223.006 949.348 225.252 948.762L229.158 947.785L232.869 953.059C234.822 955.988 236.873 958.332 237.361 958.332C237.752 958.332 239.412 957.258 240.975 955.988C242.635 954.621 245.76 953.254 248.299 952.863L252.889 952.18L252.205 944.855C251.912 940.852 251.619 934.309 251.619 930.402C251.619 923.469 251.521 923.176 248.689 921.711C245.271 919.953 245.857 919.855 242.342 922.199Z" fill="white"/>
<circle id="775" cx="682" cy="920" fill="#5CE50D"/>
<circle id="776" cx="129" cy="167" fill="#E52A0D"/>
<circle id="1209" cx="322" cy="920" fill="#E52A0D"/>
<circle id="920" cx="905" cy="435" fill="#E52A0D"/>
</svg>
