<svg width="1000" height="1000" viewBox="0 0 1000 1000" fill="none" xmlns="http://www.w3.org/2000/svg">
<path d="M993.808 197.336C992.44 197.727 989.999 198.118 988.437 198.215C986.483 198.313 983.065 200.071 978.476 203.586C972.03 208.469 971.151 208.86 967.44 208.372C963.925 207.883 963.339 208.079 962.851 209.836C962.265 212.375 954.94 217.258 952.108 217.063C950.937 216.965 948.69 217.356 947.226 217.942C945.761 218.528 941.269 219.407 937.46 219.797C930.917 220.481 929.94 220.872 925.058 225.071C921.151 228.391 918.515 229.856 914.608 230.637C911.679 231.223 905.722 233.567 901.327 235.715C893.808 239.524 893.124 240.11 891.757 244.211C890.39 248.118 889.218 249.29 881.21 254.758C875.741 258.469 871.249 260.813 869.589 260.813C866.562 260.813 854.745 266.77 851.132 270.188C848.886 272.336 847.909 272.532 838.925 272.532C832.284 272.532 828.378 272.043 826.425 271.067C822.714 269.114 822.421 269.211 821.054 272.239C820.37 273.801 816.659 279.172 812.851 284.348C803.964 296.262 797.714 300.95 785.897 304.661C778.378 307.004 776.229 308.274 771.347 312.668C767.538 316.282 763.144 319.016 757.968 321.165C753.769 323.02 747.03 326.633 743.026 329.368C738.339 332.493 734.335 334.446 731.698 334.836C729.55 335.129 725.741 336.399 723.397 337.668C721.054 338.84 718.319 339.915 717.44 339.915C716.464 339.915 714.608 340.793 713.339 341.868C711.972 342.844 703.476 345.872 694.394 348.411L677.89 353.098H642.733L635.897 357.297C632.187 359.543 628.476 361.399 627.792 361.399C627.108 361.399 623.983 363.84 620.858 366.672C616.757 370.579 612.46 373.411 604.647 377.024L593.905 382.102L584.823 381.418C576.034 380.833 575.448 380.93 571.835 383.372C565.976 387.18 556.894 389.719 548.593 389.719C542.733 389.719 539.608 390.403 533.065 392.844C525.448 395.676 524.472 395.872 520.565 394.797C514.511 393.137 507.968 393.333 506.503 395.09C505.624 396.165 503.28 396.555 498.007 396.555C492.245 396.555 489.901 396.067 485.8 394.016C481.698 391.965 480.429 391.672 478.476 392.551C475.155 394.114 463.534 393.821 460.604 392.161C459.237 391.379 455.526 390.793 452.108 390.696C448.788 390.696 444.882 390.208 443.515 389.719C438.339 387.766 427.987 386.692 423.007 387.668C418.808 388.45 416.952 388.254 410.116 386.106C402.304 383.762 402.011 383.665 396.64 385.325C390.585 387.083 388.729 386.887 377.597 383.372C365.878 379.758 363.925 379.661 359.53 382.981C356.405 385.325 354.843 385.813 349.96 385.813C342.636 385.813 334.237 383.274 329.647 379.758C326.425 377.317 325.253 377.024 318.515 377.024C311.776 377.024 310.604 376.731 306.601 373.997C304.257 372.336 299.667 369.993 296.64 368.723C293.515 367.551 288.632 365.012 285.604 363.059L280.233 359.641L279.55 367.063C279.257 371.067 278.964 377.122 278.964 380.344C278.964 386.008 279.159 386.497 281.894 388.059C284.726 389.817 284.823 390.11 284.921 397.336C285.019 401.438 285.312 411.008 285.702 418.528C286.19 430.051 286.093 433.079 284.628 438.059C283.651 441.282 282.382 446.848 281.796 450.461C280.038 461.79 276.62 471.165 272.03 477.415C268.71 482.004 265.683 484.543 257.479 489.622C251.425 493.333 245.663 496.262 243.319 496.653C239.804 497.141 239.12 496.946 236.483 494.211C234.921 492.649 232.675 491.282 231.503 491.282C230.331 491.282 228.085 490.208 226.522 488.938C225.058 487.668 221.347 486.106 218.417 485.325C215.487 484.641 210.019 482.395 206.21 480.442C202.499 478.489 197.616 476.34 195.468 475.657C193.319 474.973 190.683 473.801 189.608 473.118C188.534 472.336 185.409 471.75 182.479 471.75C179.647 471.75 176.425 471.262 175.351 470.676C174.276 470.188 170.761 469.211 167.44 468.723C162.362 467.942 161.288 468.04 159.726 469.407C158.456 470.579 156.894 470.872 154.062 470.481C150.546 470.09 150.058 470.188 149.276 472.727C148.397 474.973 147.616 475.461 143.222 475.95C140.39 476.34 136.972 477.317 135.507 478.293C133.651 479.465 131.405 479.856 126.913 479.661L120.858 479.465L118.71 483.665C117.538 486.008 114.218 490.403 111.386 493.43C107.772 497.141 106.112 499.778 106.112 501.536C106.112 504.465 100.741 515.403 94.8818 524.583C91.1709 530.344 89.8037 531.516 82.2842 535.618C77.3037 538.352 73.2998 541.184 72.7139 542.454C71.3467 545.481 59.2373 549.387 53.7686 548.606C51.7178 548.215 47.4209 547.727 44.3936 547.336C39.1201 546.75 38.6318 546.458 33.3584 540.5C30.3311 536.985 26.4248 533.469 24.7646 532.59C18.9053 529.563 15.292 526.047 15.292 523.411C15.292 521.555 14.3154 520.09 11.5811 518.235C9.43262 516.77 7.18652 515.891 6.40527 516.184C5.62402 516.477 3.86621 518.43 2.30371 520.481C-0.235352 524.094 -0.333008 524.875 -0.333008 535.129C-0.333008 547.825 0.838867 550.95 10.2139 563.45L15.585 570.774L16.0732 580.833C16.4639 590.598 16.4639 590.891 14.4131 590.891C12.7529 590.891 12.3623 591.477 12.3623 594.211C12.3623 596.946 12.9482 597.922 15.292 599.387C17.1475 600.461 18.0264 601.633 17.7334 602.61C17.4404 603.391 18.124 605.344 19.1982 607.004C21.9326 611.106 21.7373 616.086 18.71 619.211L16.2686 621.75L19.6865 626.536C21.4443 629.27 24.0811 633.567 25.4482 636.301C28.1826 641.575 37.7529 649.485 41.4639 649.485C42.7334 649.485 44.2959 651.047 46.1514 654.075C48.3975 658.079 48.8857 660.032 49.2764 668.528C49.667 677.805 49.8623 678.586 53.085 683.079C56.3076 687.571 56.4053 688.059 55.8193 693.43C55.2334 698.801 55.3311 699.192 57.4795 699.778C59.7256 700.559 62.2646 702.317 68.5146 707.395C70.2725 708.86 73.7881 710.813 76.3271 711.594C78.7686 712.473 83.0654 715.208 85.8975 717.747C93.6123 724.778 96.542 726.536 99.374 725.95C100.937 725.657 103.769 726.438 106.894 728C109.628 729.368 113.339 730.54 115.097 730.54C116.854 730.54 121.737 731.711 125.839 733.079C132.382 735.227 134.042 736.301 138.046 740.793C142.245 745.481 143.319 746.067 148.495 747.043C151.62 747.629 157.479 749.875 161.483 752.024C165.487 754.172 169.979 755.93 171.542 755.93C173.007 755.93 176.718 757.004 179.745 758.372C186.776 761.497 191.659 761.594 192.538 758.762C193.222 756.809 193.612 756.711 201.229 757.297C208.847 757.883 209.335 757.883 211.483 755.54C212.753 754.172 215.194 752.805 216.854 752.415C218.515 752.122 221.151 750.95 222.616 749.875C224.96 748.215 225.937 748.02 229.062 748.899C232.089 749.583 233.554 749.485 236.483 748.02C239.804 746.36 240.39 746.36 241.757 747.629C243.124 748.801 244.198 748.801 249.862 747.532C257.284 745.872 259.237 746.458 267.05 752.708C271.835 756.614 281.894 771.067 285.507 779.172C287.948 784.739 288.046 788.059 286.288 796.653L285.604 799.875L293.71 799.387C298.202 799.192 304.159 798.704 306.894 798.411C311.093 797.825 313.046 798.215 318.124 800.364C325.839 803.684 330.722 804.563 330.722 802.708C330.722 801.926 331.015 800.461 331.308 799.387C331.601 798.02 330.429 795.676 327.011 791.477C319.784 782.493 319.394 781.028 320.858 768.723C322.03 759.446 322.519 757.883 325.351 754.27C330.233 747.825 343.905 737.864 350.253 736.106C353.769 735.032 356.796 733.372 358.847 731.223C360.995 728.977 364.022 727.317 367.929 726.145C373.397 724.485 374.96 724.485 392.538 725.754C411.19 727.024 423.007 727.219 429.159 726.145C431.21 725.754 434.042 723.801 437.265 720.676C442.05 715.891 442.147 715.891 444.979 717.356C450.253 720.09 461.386 718.333 462.851 714.426C463.339 713.352 464.901 712.961 468.417 712.961C472.714 712.961 474.276 712.375 478.866 709.055C481.894 706.907 485.507 705.149 486.874 705.149C491.269 705.051 497.323 701.731 499.569 698.02C502.206 693.625 510.116 690.5 525.937 687.375L537.069 685.227L543.319 677.708C548.593 671.262 550.448 669.797 554.94 668.137C561.386 665.696 570.175 665.403 571.933 667.551C572.616 668.333 574.179 669.016 575.351 669.016C577.304 669.016 577.987 667.942 580.233 661.301C582.87 653.293 587.948 646.555 592.245 645.188C594.491 644.407 594.882 641.575 596.347 617.844C597.616 596.555 598.69 594.211 610.507 587.18C619.003 582.2 619.296 582.102 626.815 582.102C631.112 582.102 637.655 581.614 641.366 580.93C651.034 579.368 660.409 581.125 667.636 585.911C670.565 587.864 674.179 590.012 675.644 590.696C677.206 591.282 680.331 593.625 682.675 595.774C685.019 597.922 687.851 599.68 688.925 599.68C692.245 599.68 703.964 594.895 706.405 592.649C707.968 591.184 708.651 589.426 708.651 586.887V583.274L715.292 582.102C718.905 581.516 724.081 580.735 726.718 580.442C729.452 580.149 732.089 579.27 732.675 578.489C733.651 577.317 734.628 577.317 739.706 578.586C742.929 579.465 747.616 580.149 750.058 580.149C752.987 580.149 756.405 581.028 759.53 582.688C763.144 584.446 765.292 584.934 767.343 584.543C769.784 583.958 770.858 584.446 774.179 587.473C777.304 590.305 778.378 590.793 779.452 589.915C780.526 589.036 781.308 589.133 783.065 590.305C784.237 591.184 785.604 591.868 785.995 591.868C787.558 591.868 786.679 587.18 784.823 585.52C783.358 584.25 782.87 582.493 782.87 579.075C782.87 575.95 782.089 572.825 780.429 569.797C779.062 567.258 777.987 564.622 777.987 564.036C777.987 563.352 776.132 561.301 773.788 559.348C771.444 557.395 768.124 553.098 765.878 549.094C763.827 545.383 760.995 541.672 759.726 540.989C754.843 538.352 737.753 519.407 735.214 513.743C732.675 508.176 728.573 503 726.718 503C724.569 503 716.659 493.625 714.999 489.036C713.827 486.008 712.362 483.958 711.093 483.469C708.651 482.493 707.675 480.637 707.675 476.536C707.675 474.973 706.991 471.946 706.112 469.797C704.647 466.282 704.647 464.524 705.624 456.028C706.21 450.657 706.698 443.918 706.698 440.891C706.698 433.469 708.749 429.075 715.194 423.411C720.175 418.918 720.565 418.235 719.491 416.282C717.929 413.352 719.003 411.692 726.913 404.368C732.772 398.997 733.847 398.411 736.679 398.801C738.827 399.192 740.487 398.801 742.147 397.532C744.296 395.872 744.687 395.774 746.64 397.141C750.937 400.168 754.55 400.559 757.675 398.411C759.237 397.239 761.19 396.653 761.972 396.946C764.315 397.825 771.249 395.676 774.667 393.137C777.304 391.086 777.987 389.622 779.55 382.2C781.21 373.997 781.601 373.411 787.851 366.282C791.366 362.278 799.374 354.075 805.526 348.215C816.073 338.157 817.245 337.278 825.448 334.153C830.233 332.297 837.362 328.684 841.366 325.95C850.155 320.09 862.069 314.524 865.976 314.524C869.979 314.524 872.714 312.473 880.624 303.586C890.585 292.258 899.862 284.543 906.21 282.395C913.046 280.051 916.073 278 917.44 274.973C918.026 273.606 919.394 272.532 920.37 272.532C921.64 272.532 922.616 271.067 923.983 267.356C927.694 256.809 935.312 246.165 939.218 246.165C940.292 246.165 942.245 245.09 943.515 243.821C944.784 242.551 948.007 240.989 950.741 240.305C953.476 239.719 958.065 237.473 960.995 235.422C965.097 232.59 967.44 231.614 971.542 231.223C980.526 230.442 985.702 228 989.999 222.239C993.026 218.235 994.003 215.891 994.394 211.887C994.784 208.762 995.956 205.051 997.421 202.903C1000.94 197.336 999.667 195.481 993.808 197.336Z" fill="white"/>
<circle id="165" cx="500" cy="470" fill="#5CE50D"/>
<circle id="168" cx="94" cy="709" fill="#E52A0D"/>
<circle id="166" cx="331" cy="749" fill="#E52A0D"/>
<circle id="167" cx="593" cy="605" fill="#E52A0D"/>
</svg>
