<svg width="1000" height="1000" viewBox="0 0 1000 1000" fill="none" xmlns="http://www.w3.org/2000/svg">
<path d="M327.522 221.982C327.327 222.471 326.546 224.424 325.96 226.377C325.179 228.623 323.616 230.674 321.858 231.748C320.296 232.724 319.026 233.701 319.026 233.994C319.026 234.385 320.296 235.849 321.858 237.314C324.007 239.365 325.179 239.853 327.229 239.267C330.062 238.584 330.257 239.072 328.694 241.904C327.815 243.662 328.304 244.15 334.554 246.982C338.362 248.74 341.487 250.596 341.487 251.181C341.487 254.697 332.308 259.385 325.276 259.385C319.612 259.385 316.39 260.459 315.022 262.9C314.339 264.267 309.847 267.392 304.476 270.322C295.882 275.01 294.515 275.4 287.874 275.693C281.819 275.888 280.257 276.279 278.108 278.232C276.058 280.088 274.788 280.478 271.956 280.185L268.245 279.697V284.678C268.245 289.072 267.952 289.756 265.608 290.928C264.046 291.709 259.163 292.685 254.573 293.076C250.081 293.467 245.003 294.443 243.44 295.224C241.487 296.299 239.241 296.494 236.214 296.103C232.503 295.615 231.331 295.908 228.597 297.959C226.155 299.814 224.202 300.4 220.394 300.4H215.413L213.46 304.99C212.386 307.627 211.214 310.849 210.921 312.217C210.628 313.681 208.772 316.513 206.624 318.564C202.425 322.666 203.499 322.861 194.905 315.83L190.315 312.119L189.827 314.853C189.437 316.611 187.874 318.564 185.726 320.029C183.089 321.787 182.405 322.861 182.796 324.326C183.968 328.232 183.772 329.013 181.038 329.795C178.597 330.478 178.108 330.185 176.741 327.158C175.862 325.303 174.886 323.838 174.593 323.838C173.714 323.838 171.663 327.256 166.976 336.728L162.776 345.224L159.261 344.638C157.405 344.346 153.401 344.638 150.472 345.322C146.37 346.299 144.905 346.396 144.026 345.517C141.487 342.978 140.511 344.346 139.729 350.791C139.144 356.357 138.558 357.92 135.726 361.045C132.21 364.951 126.644 367.49 124.495 366.221C123.812 365.83 120.003 363.096 116.097 360.166L108.87 354.892L103.89 358.408C101.058 360.361 96.9561 363.291 94.71 364.951C90.9014 367.881 90.6084 367.978 88.46 366.416C85.2373 364.17 82.4053 364.463 72.1514 367.978C63.167 371.006 63.0693 371.103 57.6982 378.135C54.5732 382.236 51.3506 385.459 49.9834 385.752C48.2256 386.24 47.4443 387.217 46.9561 389.756C46.5654 392.099 45.7842 393.174 44.6123 393.174C42.2686 393.174 38.7529 401.963 38.7529 407.92C38.7529 413.877 36.1162 418.76 33.3818 417.978C30.1592 417.002 28.792 414.56 29.3779 410.556C29.9639 407.138 29.7686 406.748 26.8389 405.283C22.542 403.135 22.6396 403.33 24.4951 400.498C26.2529 397.763 25.8623 397.373 20.6865 396.885C18.1475 396.592 17.6592 396.006 16.292 391.221C15.1201 387.314 14.2412 385.849 13.0693 385.947C5.06152 386.338 5.35449 386.24 5.84277 388.486C6.13574 389.756 6.72168 391.904 7.01465 393.271C7.50293 395.322 7.1123 396.006 4.18262 397.568C2.22949 398.642 0.666992 399.717 0.666992 400.01C0.764648 401.181 4.37793 404.697 8.08887 407.041C10.8232 408.799 13.2646 411.631 15.6084 415.83C18.6357 421.201 18.9287 422.178 17.6592 423.545C16.8779 424.326 16.292 426.865 16.292 429.111C16.292 432.92 16.585 433.213 21.1748 435.752C24.8857 437.803 26.0576 438.974 26.0576 440.635C26.0576 442.588 26.7412 443.076 29.9639 443.564C32.4053 443.955 34.3584 445.029 35.335 446.494C36.1162 447.666 39.6318 450.303 43.1475 452.256C48.3232 455.185 49.4951 456.26 49.4951 458.31C49.4951 459.873 49.8857 460.556 50.7646 460.263C51.3506 459.971 52.6201 459.482 53.499 459.092C54.7686 458.603 55.4521 459.287 56.3311 461.924C56.917 463.779 57.3076 466.318 57.1123 467.49C56.917 469.15 57.7959 469.931 62.1904 471.689C67.5615 473.838 67.5615 473.838 67.2686 477.744C66.9756 481.357 62.9717 488.877 59.1631 493.271C58.1865 494.346 57.1123 497.471 56.7217 500.303C56.1357 504.99 55.8428 505.478 52.8154 506.455C50.96 507.041 48.6162 508.896 47.4443 510.459L45.3936 513.388L47.835 516.025C49.1045 517.49 50.667 519.931 51.1553 521.494C51.9365 524.033 52.8154 524.619 58.1865 525.791C62.9717 526.865 64.1436 527.451 63.7529 528.721C63.5576 529.599 63.0693 532.431 62.6787 535.068C62.0928 539.365 62.1904 539.756 64.5342 540.635C67.8545 541.904 70.6865 546.689 72.0537 553.428C73.0303 558.31 73.5186 559.092 76.4482 560.459C79.1826 561.826 79.7686 562.607 79.7686 565.244C79.7686 566.904 80.7451 571.299 81.917 574.912C83.5771 580.088 84.5537 581.65 86.2139 582.041C87.4834 582.431 90.6084 583.994 93.1475 585.556C97.6396 588.388 98.1279 588.974 100.081 595.615L102.132 602.744H107.796C110.921 602.646 114.241 603.037 115.12 603.525C116.487 604.111 116.878 603.916 116.878 602.256C116.878 601.084 117.464 600.205 118.245 600.205C121.565 600.205 128.304 603.525 132.112 607.041C134.456 609.189 136.995 610.947 137.874 610.947C138.851 610.947 139.339 611.924 139.339 613.779C139.339 615.635 140.706 618.369 143.05 621.396C145.101 623.935 147.737 627.646 148.909 629.599C149.983 631.455 153.011 634.482 155.452 636.24C159.065 638.877 159.847 639.951 159.847 642.588C159.847 645.029 160.726 646.396 164.144 649.326C167.659 652.256 169.319 652.939 172.737 652.939C176.546 653.037 177.62 653.623 184.554 660.068L192.073 667.197L193.538 674.912C195.101 683.31 195.198 683.408 204.671 690.244L208.968 693.369L207.796 686.142H213.46C217.854 686.142 219.515 686.533 220.882 688.096C221.858 689.17 223.421 690.049 224.3 690.049C226.644 690.049 227.62 691.416 230.647 699.033C233.479 706.064 233.479 706.064 239.241 704.795C242.854 703.916 243.05 704.013 244.319 707.138C245.101 708.896 246.761 711.631 248.03 713.096C252.132 717.978 254.573 723.545 253.401 725.596C252.034 728.037 253.89 729.111 259.358 729.111C263.362 729.111 264.241 729.599 270.198 735.361C273.812 738.877 277.913 742.002 279.28 742.295C281.624 742.881 288.753 751.279 288.753 753.33C288.753 753.818 287.581 754.697 286.214 755.381L283.772 756.455L286.702 760.263C290.706 765.244 291.194 765.635 298.519 768.174C303.304 769.931 307.112 770.517 313.851 770.517L322.835 770.615L330.745 778.33L333.479 775.693C334.944 774.228 336.897 773.056 337.776 773.056C338.948 773.056 339.241 772.471 338.851 771.006C338.362 769.053 338.558 768.955 341.487 769.346C344.417 769.834 344.71 769.541 346.468 765.537C347.444 763.096 348.323 760.068 348.323 758.799C348.323 755.478 351.351 755.771 353.499 759.287C354.866 761.631 356.233 762.412 360.53 763.291C365.12 764.267 366.097 764.17 368.44 762.705C370.882 761.045 371.077 761.045 372.347 762.803C373.128 763.779 373.714 765.049 373.714 765.537C373.714 766.025 374.788 766.123 376.058 765.83C378.011 765.342 378.987 765.928 380.94 768.369L383.382 771.494L385.726 769.346C387.776 767.392 388.167 765.928 388.655 758.603C389.437 746.787 390.511 743.662 394.612 741.416C398.812 739.17 403.011 733.31 403.011 729.795C403.011 726.572 403.499 726.572 413.265 729.697C421.175 732.334 426.058 732.822 427.522 731.357C428.011 730.869 427.425 728.623 426.253 726.279C424.3 722.275 424.3 721.885 425.765 717.099C426.644 714.267 427.132 711.045 426.839 709.971C426.546 708.799 427.229 706.064 428.401 703.818L430.452 699.717L428.499 694.346C425.667 686.826 425.765 682.822 428.89 681.455C430.55 680.674 431.331 679.502 431.331 677.842C431.331 675.986 431.819 675.4 433.577 675.4C437.776 675.4 440.12 676.572 440.706 678.916C441.292 681.064 441.78 681.26 446.858 681.26H452.425L454.573 685.752C456.429 689.56 457.112 690.146 458.968 689.658C460.14 689.365 462.972 689.072 465.315 689.072C469.124 689.072 469.612 688.779 471.077 685.654C472.64 682.431 472.933 682.236 477.62 682.236C481.722 682.236 483.577 682.822 487.679 685.654C490.901 687.803 494.612 689.365 497.347 689.756C501.253 690.244 502.132 690.83 503.011 693.076C503.792 695.322 505.354 696.299 511.409 698.545C515.413 700.01 520.979 702.842 523.812 704.99C527.718 707.92 530.257 708.994 535.433 709.775C540.022 710.556 542.171 710.556 542.366 709.873C542.562 709.385 543.245 708.115 543.929 707.236C545.003 705.771 546.175 706.26 556.233 711.924C562.679 715.635 569.808 720.615 573.323 723.935C576.546 727.06 581.331 731.26 583.772 733.31L588.265 736.924H602.229C612.581 736.924 617.562 737.314 621.37 738.584C626.351 740.146 626.644 740.146 628.597 738.388C630.159 737.021 630.843 736.826 631.722 737.705C633.772 739.756 634.944 738.974 640.706 732.041C645.882 725.888 646.761 725.205 649.983 725.205C651.937 725.205 654.378 724.521 655.452 723.74C657.112 722.373 657.601 722.568 660.823 725.693C664.144 728.916 664.437 729.013 667.952 727.939C671.37 726.865 671.761 726.963 674.495 729.599C676.351 731.455 677.425 733.506 677.62 735.849C677.913 739.267 678.011 739.365 681.429 739.072C683.577 738.877 687.386 739.756 691.194 741.221C697.347 743.76 697.64 743.76 704.769 742.392C708.772 741.611 712.19 741.123 712.386 741.221C712.483 741.416 713.362 745.615 714.241 750.693C715.12 755.771 716.097 760.166 716.487 760.654C716.78 761.045 718.05 758.115 719.319 754.306C720.589 750.4 722.542 746.103 723.714 744.736C724.983 743.369 726.448 740.342 727.132 737.9C727.913 735.068 729.964 731.943 732.601 729.111C734.944 726.67 738.558 722.373 740.706 719.443C744.319 714.365 744.808 713.974 751.253 712.51L757.991 710.849L767.464 715.732L776.937 720.713L786.019 717.197L795.101 713.779L799.104 716.025C804.28 719.053 806.233 718.955 811.995 715.537C815.022 713.779 818.929 712.51 822.64 712.021L828.499 711.338L832.698 702.646L836.995 693.955L840.999 694.053C847.737 694.248 853.108 691.123 859.065 683.408C862.19 679.404 865.413 676.279 866.878 675.888C868.147 675.498 872.054 673.642 875.374 671.592C882.601 667.295 886.409 662.021 889.925 651.572C891.194 647.763 893.147 643.76 894.319 642.588C895.882 640.928 896.565 638.486 897.054 632.724C897.542 627.842 898.616 623.349 900.179 620.224L902.522 615.439L913.753 611.924C919.905 609.873 927.229 607.236 929.866 605.967C934.261 603.818 934.944 603.037 936.702 597.959C938.069 594.346 940.315 590.83 943.245 587.803C945.784 585.166 948.812 580.771 950.081 577.842C952.132 573.154 952.815 572.471 957.698 570.517L962.972 568.369L969.808 570.224L976.546 572.08L987.581 567.978C998.616 563.877 998.714 563.877 999.69 559.971C1000.67 556.65 1000.37 555.185 997.835 548.154C996.175 543.76 994.417 538.193 993.733 535.752C992.464 530.674 989.534 526.963 986.604 526.963C982.796 526.963 980.257 525.791 979.671 523.935C979.183 522.568 978.108 522.08 975.667 522.08C970.198 522.08 966.487 519.638 966.487 516.123C966.487 514.463 964.729 509.092 962.581 504.306C960.433 499.424 958.675 495.029 958.675 494.638C958.675 494.15 959.749 492.002 961.116 489.853C962.483 487.705 963.558 485.752 963.558 485.459C963.558 485.166 962.288 484.971 960.628 484.971C959.065 484.971 957.698 484.678 957.698 484.189C957.796 483.799 958.187 481.65 958.577 479.404C959.261 475.693 959.163 475.107 957.015 473.74C954.769 472.275 954.671 472.275 953.694 475.205C952.718 477.842 952.229 478.135 948.616 478.135C945.491 478.135 943.929 477.451 941.487 475.107C939.241 472.861 936.604 471.689 932.112 470.713C923.812 468.955 923.812 468.955 922.64 472.373L921.565 475.4L918.636 473.252C916.976 472.08 915.022 469.931 914.241 468.369C913.362 466.709 911.507 465.146 909.554 464.56C907.015 463.681 905.843 462.412 904.28 458.799L902.327 454.209L901.058 456.846C899.495 460.068 899.007 460.166 893.538 457.822C890.218 456.553 889.241 455.576 888.753 453.232C888.46 451.572 886.312 448.154 883.968 445.517L879.769 440.732L877.62 444.931C876.448 447.178 875.667 449.131 875.862 449.326C876.058 449.424 877.132 450.107 878.401 450.693C879.573 451.279 880.55 452.549 880.55 453.428C880.55 454.599 879.866 454.795 877.522 454.306C874.983 453.818 873.616 454.404 869.026 458.017C864.729 461.338 862.386 462.412 858.577 462.9C853.792 463.486 853.597 463.388 847.933 458.31C843.733 454.502 841.097 450.888 837.679 444.346L833.187 435.654H829.28C825.179 435.654 822.64 433.603 815.706 424.228L813.069 420.713L818.05 419.638C820.784 419.053 824.593 418.564 826.448 418.564C829.085 418.564 830.062 418.076 830.94 416.221C831.526 414.853 833.284 413.291 834.749 412.607C837.093 411.728 837.581 410.947 837.581 408.115C837.581 406.26 836.702 403.428 835.628 401.963C833.87 399.424 833.772 398.935 835.042 395.322L836.409 391.513L827.034 384.482L826.448 387.412C826.155 389.072 824.983 391.709 823.812 393.271C821.858 396.006 821.565 396.103 813.851 396.103C808.675 396.103 803.597 396.787 799.495 398.056C790.608 400.791 788.851 400.596 787.679 397.08C786.409 393.467 784.944 393.369 781.819 396.689C779.476 399.131 779.476 399.131 777.913 397.178C776.741 395.713 776.448 393.955 776.741 390.732L777.327 386.338H773.616C770.979 386.338 767.952 385.166 763.265 382.236C757.503 378.721 756.526 377.646 756.526 375.4C756.526 372.763 756.429 372.666 750.765 372.666C745.394 372.666 744.808 372.471 742.854 369.736C741.097 367.295 740.12 366.806 736.8 366.806C734.456 366.806 732.015 366.123 731.038 365.244C729.378 363.779 713.753 358.994 710.433 358.994C709.456 358.994 707.894 360.556 706.722 362.803L704.769 366.709L708.089 369.443C711.409 372.178 713.46 376.279 715.511 384.092C716.487 387.9 716.78 388.291 721.858 389.756C726.839 391.123 727.229 391.513 727.229 394.248C727.229 395.908 727.718 399.228 728.304 401.67C729.28 405.283 729.183 406.26 728.108 406.943C725.667 408.408 723.812 407.92 722.249 405.185L720.589 402.646L719.515 404.697C718.636 406.357 717.464 406.846 714.534 406.846C711.214 406.846 710.433 407.236 709.065 409.971C706.917 414.267 707.015 414.267 704.964 411.728L703.206 409.58L700.179 412.119C698.421 413.584 695.491 417.588 693.538 421.006C691.194 425.303 689.437 427.353 688.167 427.353C686.995 427.353 686.019 428.525 685.237 430.869L684.065 434.482L679.183 433.896C676.546 433.506 672.835 432.334 670.979 431.162C666.39 428.428 662.288 419.931 661.409 411.924C660.823 405.674 660.823 405.674 651.937 396.006C644.222 387.705 642.366 386.24 639.144 385.752C634.065 384.873 631.331 381.162 632.21 376.084L632.796 372.471L625.667 372.763L618.538 373.154L617.171 368.955C615.901 365.244 615.413 364.853 612.581 364.853C610.14 364.853 609.163 364.267 608.284 362.412C606.722 359.092 606.722 358.994 609.456 358.994C611.214 358.994 611.995 358.408 612.19 356.846C612.386 355.478 614.339 353.623 618.147 351.474C622.542 348.838 623.714 347.666 623.714 345.713C623.714 343.369 623.812 343.369 626.351 344.736C628.792 345.908 629.28 345.908 632.601 343.662C636.8 340.928 639.339 336.142 637.483 334.287C635.433 332.236 636.409 330.967 640.315 330.283C642.464 329.99 644.222 329.502 644.222 329.209C644.222 329.013 641.097 324.424 637.288 318.955C631.038 310.068 630.159 309.189 627.327 309.189C624.3 309.189 619.515 308.213 615.218 306.846C613.362 306.26 612.972 306.748 611.507 311.142C610.237 314.951 609.358 316.123 607.308 316.709C605.354 317.197 604.378 316.806 602.815 314.756C601.644 313.388 598.909 311.826 596.565 311.142C591.194 309.775 587.874 311.826 586.995 317.197C586.409 320.81 586.312 320.908 581.917 320.908H577.522L578.108 316.709C578.499 313.974 578.206 311.24 577.034 308.408L575.374 304.111L570.491 304.795C567.854 305.088 564.046 305.576 562.093 305.967C558.772 306.455 558.479 306.26 556.038 302.06C554.573 299.619 553.401 296.592 553.401 295.224C553.401 293.955 552.327 291.904 550.862 290.635C548.812 288.584 548.226 288.486 547.542 289.658C547.054 290.439 546.565 291.416 546.565 291.806C546.565 293.271 538.851 292.588 534.651 290.83C532.308 289.756 528.694 288.681 526.546 288.291C518.929 286.924 503.987 281.553 500.569 278.818C498.616 277.256 496.468 275.986 495.979 275.986C495.394 275.986 493.538 277.939 491.878 280.381C489.339 283.994 488.558 284.58 487.093 283.799C485.726 283.115 485.14 281.162 484.651 275.986C483.87 268.662 482.991 267.197 477.327 264.365C474.202 262.705 473.616 261.826 472.054 256.162C470.784 251.181 470.589 249.228 471.468 247.373C472.737 244.638 471.272 240.83 468.929 240.83C468.147 240.83 467.464 240.244 467.464 239.56C467.366 236.435 465.901 235.654 462.19 237.021C458.675 238.291 458.479 238.291 456.136 235.166L453.597 232.041L451.644 234.58L449.593 237.119L447.737 234.189C446.175 231.748 445.198 231.26 440.218 230.674C433.577 229.892 429.769 231.162 428.987 234.482C428.694 235.752 428.108 237.412 427.815 238.193C427.425 239.267 428.011 239.756 429.573 240.049C431.429 240.244 431.917 241.025 432.112 243.857C432.405 246.885 431.917 247.763 429.476 249.619C426.741 251.572 426.546 251.865 427.913 253.818C428.694 254.99 429.573 257.822 429.964 260.068C430.55 263.779 430.354 264.17 428.304 264.463C427.034 264.658 422.64 264.365 418.733 263.974C414.729 263.486 409.554 263.388 407.405 263.779C403.499 264.267 403.304 264.56 401.741 269.541L400.081 274.814L394.905 273.349C388.265 271.494 375.667 266.123 375.667 265.049C375.667 264.658 376.546 262.021 377.62 259.189L379.573 254.013L377.229 251.67L374.788 249.326L371.272 252.06C368.343 254.209 367.464 254.502 366.78 253.428C365.511 251.474 365.706 250.303 367.952 244.15C370.003 238.681 370.003 238.486 368.245 235.166C367.073 233.017 365.12 231.357 362.776 230.381C359.651 229.111 359.065 228.428 359.065 226.084C359.065 222.666 358.675 222.568 354.476 225.791C352.718 227.158 349.69 228.916 347.737 229.697C344.222 231.162 344.124 231.162 341.097 228.232C339.241 226.474 336.897 225.205 335.53 225.205C334.163 225.205 332.21 224.326 331.233 223.252C329.378 221.201 328.206 220.81 327.522 221.982Z" fill="white"/>
<circle id="169" cx="326" cy="440" fill="#5CE50D"/>
<circle id="937" cx="356" cy="674" fill="#E52A0D"/>
<circle id="171" cx="850" cy="494" fill="#E52A0D"/>
<circle id="170" cx="701" cy="658" fill="#E52A0D"/>
</svg>
