<svg width="1000" height="1000" viewBox="0 0 1000 1000" fill="none" xmlns="http://www.w3.org/2000/svg">
<path d="M746.362 17.918L702.417 35.9844L696.069 42.1367C690.698 47.3125 689.038 48.2891 685.034 48.875C681.03 49.4609 680.054 50.1445 677.808 53.4648C674.683 58.25 671.753 58.543 669.702 54.0508C668.433 51.3164 667.749 50.9258 663.843 50.6328L659.448 50.3398L657.495 55.9062C655.64 61.2773 655.347 61.5703 650.952 62.8398C646.558 64.1094 646.362 64.3047 645.776 68.4062C645.386 70.75 645.288 73.4844 645.483 74.4609C645.776 75.5352 645.288 77.5859 644.409 79.2461C643.628 80.8086 643.042 83.4453 643.237 84.9102C643.433 87.4492 643.335 87.6445 641.479 86.668C638.843 85.2031 638.647 85.2031 636.987 88.5234C635.913 90.5742 634.741 91.4531 632.983 91.4531C628.882 91.4531 622.925 95.0664 622.144 97.9961C621.851 99.4609 619.312 103.074 616.577 105.906C611.792 110.984 611.597 111.375 611.304 117.625C610.913 125.047 613.159 130.125 617.163 130.711C619.019 130.906 619.8 132.371 621.948 139.305C626.147 153.172 626.147 152.879 623.315 154.148C621.753 154.832 620.581 156.395 620.19 157.957C619.702 160.398 619.116 160.691 613.647 161.668C610.229 162.254 604.175 162.742 600.073 162.742H592.554V165.965C592.554 168.602 592.065 169.383 589.722 170.262C588.062 170.848 585.913 172.898 584.644 175.34L582.3 179.344H575.757C569.8 179.344 569.019 179.637 565.308 182.664C563.062 184.52 560.425 186.375 559.351 186.668C557.886 187.156 557.593 187.84 558.081 190.574C558.374 192.43 558.276 193.992 557.886 193.992C557.495 193.992 553.882 191.746 549.878 188.914C543.921 184.812 538.062 178.758 520.19 158.348L497.925 132.957L466.187 117.527C438.062 103.855 434.253 102.195 432.593 103.367C431.616 104.051 423.608 110.984 414.917 118.797L399.097 132.859L381.616 157.469L364.136 181.98L358.667 202.879C355.542 214.402 352.808 224.266 352.417 224.852C352.124 225.438 340.405 236.766 326.44 249.949L301.147 273.973L290.503 291.355C265.796 331.785 266.87 329.734 263.94 341.355C261.499 350.73 260.913 352.195 259.155 352.195C257.593 352.195 254.468 356.297 245.679 369.969C239.233 379.93 230.444 392.234 225.659 397.703C219.214 405.027 209.741 418.992 188.257 452.488L159.448 497.508L143.14 503.66L126.929 509.812L126.245 517.723C125.171 531.492 126.44 530.027 111.304 535.398C98.5107 539.988 93.6279 542.82 91.5771 546.531C91.0889 547.508 88.1592 556.004 85.2295 565.379C81.0303 578.758 79.8584 583.836 79.8584 588.816C79.8584 594.285 79.5654 595.359 77.71 596.531C75.4639 597.996 75.4639 597.996 76.3428 614.695L77.2217 631.297L72.1436 639.5C67.9443 646.336 66.8701 649.168 65.4053 656.98C64.4287 661.961 62.4756 668.309 61.1084 671.043L58.667 675.926L74.8779 746.238L74.9756 774.754V803.172L80.0537 806.883L75.8545 810.594L71.7529 814.402L74.0967 816.16C75.3662 817.137 77.6123 818.016 79.0771 818.016C81.2256 818.016 82.2021 818.797 83.7646 821.922C85.5225 825.438 86.1084 825.828 89.4287 825.828C92.5537 825.828 93.4326 826.316 94.9951 828.953C95.9717 830.711 99.0967 834.617 102.026 837.742C104.858 840.867 107.202 844.188 107.202 845.066C107.202 846.043 107.495 847.801 107.788 848.875C108.276 850.633 107.788 851.023 104.858 851.609C102.905 852 101.343 852.586 101.245 852.977C101.245 853.367 101.05 856.883 100.854 860.789C100.464 867.82 100.464 868.016 95.3857 873.484C92.5537 876.512 88.2568 880.32 85.8154 881.98C83.374 883.543 79.7607 887.254 77.71 890.184L73.999 895.457V917.625C73.999 945.457 73.7061 947.703 69.4092 952.684C66.3818 956.297 66.0889 957.078 66.3818 962.156L66.6748 967.625L73.0225 969.578C76.4404 970.652 79.8584 972.312 80.542 973.289C81.5186 974.656 83.667 975.047 92.9443 975.438C103.589 975.828 104.468 976.023 109.253 979.051C113.354 981.59 117.065 982.762 127.124 984.617C134.155 985.984 141.577 987.547 143.628 988.035C147.437 989.012 147.534 989.305 145.581 994.285C144.995 995.945 153.687 999.656 157.983 999.656C161.401 999.656 161.89 999.363 162.964 996.238C164.429 992.43 164.917 992.234 168.14 994.285C169.995 995.555 173.706 995.652 193.726 994.969L217.065 994.285L217.358 990.867C217.944 982.762 218.433 981.492 222.339 979.344C224.487 978.074 227.808 977.195 230.054 977.195C233.765 977.195 234.058 977 235.327 972.996C236.597 968.992 236.694 968.895 241.089 968.602C244.116 968.406 246.265 967.625 247.339 966.355C248.315 965.379 250.366 964.5 251.831 964.5C253.979 964.5 254.761 965.086 255.249 967.039C255.835 969.48 256.03 969.48 260.913 968.797C266.382 967.918 267.749 967.918 276.831 968.211C282.69 968.406 282.886 968.504 283.472 971.336C283.862 972.996 284.741 974.266 285.522 974.266C286.304 974.266 295.874 972.703 306.714 970.75C324.097 967.625 326.636 966.844 328.394 964.793C330.054 962.742 331.812 962.254 340.308 961.082C348.315 960.105 351.44 959.129 357.202 956.102L364.331 952.391L366.577 955.223C368.53 957.762 369.019 957.859 372.046 957.078C374.683 956.297 377.71 956.688 387.964 959.324C394.995 961.082 401.44 962.547 402.417 962.547C403.296 962.547 412.573 956.199 423.022 948.387C445.581 931.395 451.343 928.66 478.589 921.434C505.347 914.402 503.687 915.086 503.687 911.375C503.687 908.445 504.175 907.957 509.546 905.418C514.526 903.074 515.894 902.781 519.019 903.562C522.046 904.246 523.022 905.223 524.585 908.543C526.44 912.645 526.636 912.742 531.128 912.742C537.866 912.742 544.409 916.062 545.776 920.262C546.362 922.02 546.948 923.484 547.144 923.484C547.339 923.484 551.831 921.922 557.104 919.969C564.331 917.332 567.749 916.648 570.874 916.941L574.976 917.43V914.109C574.976 910.984 575.171 910.789 578.491 910.789C583.667 910.789 585.718 912.254 585.718 916.062C585.718 918.211 586.499 919.969 588.257 921.629C589.624 922.898 592.261 927 594.116 930.613C597.046 936.375 597.534 938.133 597.339 943.797C597.241 949.559 597.632 951.023 600.562 956.199L603.784 961.961L614.819 964.207C624.976 966.258 626.44 966.258 632.104 965.086C635.522 964.402 638.647 964.012 638.94 964.305C639.233 964.598 639.429 965.867 639.429 967.039C639.429 968.406 640.405 969.969 641.87 970.945C643.921 972.312 644.8 972.312 647.241 971.336C649.683 970.359 650.464 970.457 653.003 972.215C656.616 974.852 657.104 974.754 659.937 971.824C661.694 969.969 663.257 969.383 666.479 969.383C669.897 969.383 671.362 968.797 674.487 965.867C677.905 962.84 679.077 962.352 685.229 961.863L692.065 961.277L695.483 956.199C697.339 953.367 704.077 942.527 710.522 932.078C716.968 921.629 728.979 902.293 737.183 889.207C745.386 876.121 758.179 855.223 765.698 842.918C773.218 830.516 785.034 811.473 792.065 800.438C799.097 789.402 815.698 762.547 829.077 740.574L853.198 700.828L849.39 695.262C846.753 691.551 845.483 688.719 845.483 686.57C845.483 681.688 844.604 680.418 839.722 677.879C837.183 676.609 833.569 673.875 831.616 671.727C828.198 667.918 828.003 667.82 824.194 668.895C820.679 669.773 819.995 669.676 817.358 667.527C815.015 665.574 814.526 664.598 814.917 662.156C815.503 658.348 812.476 652.195 808.472 649.266C806.128 647.508 805.444 646.336 805.444 643.699C805.444 641.16 804.175 638.621 800.562 633.641C796.362 627.781 795.776 626.512 796.265 623.777C796.655 622.02 797.729 620.066 798.706 619.48C800.366 618.504 800.366 618.309 798.511 616.062C797.534 614.695 796.655 612.645 796.655 611.375C796.655 608.543 795.093 608.25 794.214 610.984C793.823 612.059 792.261 613.621 790.698 614.5C788.159 615.77 787.866 616.355 788.354 619.188C788.94 621.922 788.647 622.703 786.401 624.559C784.937 625.633 782.983 626.609 782.104 626.609C781.226 626.609 778.296 627.879 775.464 629.441C772.729 631.004 769.312 632.469 767.944 632.859C765.698 633.445 765.405 633.152 765.405 631.102C765.405 629.637 764.038 627.488 761.597 625.34C758.179 622.215 757.3 621.922 753.979 622.41C751.929 622.703 749.292 623.875 748.12 624.852C746.265 626.609 745.679 626.707 742.358 625.633C740.308 624.949 734.839 624.07 730.054 623.777C722.241 623.191 721.558 623.289 721.069 625.047C720.679 626.609 719.995 626.805 716.382 626.219C714.038 625.828 706.03 624.852 698.511 624.07C690.991 623.289 684.155 622.41 683.276 622.215C681.421 621.629 668.335 624.07 660.132 626.512C654.761 628.172 653.491 628.27 648.608 627.098C644.897 626.219 642.163 624.852 639.819 622.605L636.499 619.383V626.219L630.933 626.414C618.823 626.609 610.62 627.488 608.374 628.66C607.104 629.441 605.151 631.688 604.175 633.738C601.44 639.012 597.241 640.77 590.21 639.598C586.206 638.914 584.253 638.914 583.081 639.793C582.104 640.477 576.929 642.43 571.558 644.188C566.187 645.945 559.644 648.484 557.104 649.754C552.71 651.902 552.222 652 550.659 650.633C548.12 648.387 547.241 648.68 545.483 652.293C544.312 654.637 542.944 655.809 540.21 656.688C533.569 658.738 533.472 658.934 536.401 664.598C538.55 668.895 539.233 669.578 540.894 669.09C542.456 668.602 543.823 669.285 546.265 671.629C548.999 674.266 549.585 675.535 549.585 678.855C549.585 681.102 550.073 683.348 550.757 684.031C551.636 684.91 551.538 685.203 550.269 685.203C549.292 685.203 548.608 685.984 548.608 687.156C548.608 689.695 547.046 689.695 534.351 686.668C528.687 685.301 523.608 684.227 523.12 684.227C522.632 684.227 521.753 686.18 521.167 688.621C520.19 692.332 519.604 693.113 516.87 693.895C515.015 694.383 511.597 694.383 508.179 693.797C503.394 692.918 502.417 692.43 501.636 690.184C500.562 687.059 492.944 682.273 489.136 682.273C486.011 682.273 482.69 679.148 481.714 675.34C481.226 673.387 479.956 672.312 476.831 671.141C467.847 667.625 459.546 656.98 463.354 653.855C464.233 653.074 464.526 651.805 464.136 650.34C463.647 648.289 463.843 648.094 465.894 648.582C467.358 648.973 468.628 648.68 469.409 647.801C470.288 646.629 470.093 645.945 468.042 644.383C466.187 642.918 465.503 641.551 465.698 639.598C466.187 633.543 465.991 633.25 462.573 635.008C459.155 636.766 457.788 635.887 457.788 631.688C457.788 630.223 458.374 629.539 459.741 629.539C461.206 629.539 461.89 628.758 462.28 626.707C463.159 622.508 466.87 622.02 474.585 624.852C479.077 626.414 482.104 628.465 485.815 632.176C492.261 638.621 494.604 639.207 500.854 636.375C505.542 634.129 505.64 634.129 509.546 635.887C511.89 636.961 514.233 638.914 515.015 640.477C516.382 643.016 516.87 643.211 522.437 643.211H528.491L524.683 639.207L520.776 635.203L524.683 635.887C526.831 636.18 529.468 637.352 530.64 638.426C532.104 639.793 533.472 640.184 535.62 639.695C537.671 639.305 539.429 639.598 540.894 640.672C544.214 643.016 544.8 642.625 544.116 638.523C543.628 635.105 543.823 634.422 546.851 631.883C551.05 628.27 552.905 623.777 552.124 618.992C551.831 616.941 552.124 611.961 552.808 607.957C554.956 595.652 562.573 585.984 575.269 579.637C582.3 576.023 582.788 575.633 582.788 572.605C582.788 564.793 583.96 559.422 585.815 558.934C586.792 558.641 587.866 557.176 588.257 555.711C588.647 554.148 591.577 549.266 594.8 544.773L600.757 536.766H607.495C613.257 536.766 615.112 536.277 619.507 533.738C622.339 532.176 625.562 529.539 626.636 528.074C628.101 526.023 629.761 525.145 632.983 524.754C638.55 523.973 644.116 521.238 644.897 518.992C645.581 516.844 646.558 516.844 653.784 518.699C656.812 519.48 663.257 520.164 667.944 520.164H676.538V523.094C676.538 525.34 677.026 526.023 678.394 526.023C679.468 526.023 680.933 526.316 681.812 526.609C682.983 527.098 683.374 526.609 683.374 524.559C683.374 521.922 683.472 521.824 685.229 523.484C687.085 525.145 687.28 525.145 691.577 521.531C694.507 519.09 696.069 517.039 696.069 515.574C696.069 514.402 697.339 511.961 698.804 510.301C701.44 507.371 702.124 507.176 710.327 506.492C715.112 506.102 719.995 506.199 721.265 506.59C724.78 507.957 733.569 507.664 735.718 506.102C736.987 505.125 739.038 504.832 742.065 505.223C746.069 505.711 746.753 505.516 747.339 503.66C747.729 502.391 748.804 501.609 750.171 501.609C752.026 501.609 752.71 500.828 753.687 497.215C754.565 493.992 755.737 492.332 758.179 490.965C760.132 489.793 762.378 487.156 763.647 484.617C765.308 481.199 766.382 480.125 768.726 479.734C770.874 479.344 772.241 478.27 773.022 476.414C775.366 471.336 777.417 467.918 778.784 467.137C779.468 466.746 780.054 465.77 780.054 464.988C780.054 464.207 780.933 461.766 782.104 459.617C783.862 456.297 784.937 455.516 788.55 454.539C792.358 453.66 792.847 453.172 792.358 451.316C791.675 448.777 796.265 442.137 798.706 442.039C800.464 442.039 810.327 430.809 810.327 428.953C810.327 426.902 814.819 425.145 818.14 425.828C820.288 426.219 822.437 425.73 825.073 424.461C828.296 422.801 829.565 422.605 832.593 423.484C837.378 424.754 838.647 424.754 838.647 423.094C838.647 421.043 850.952 419.676 856.812 421.238C861.011 422.312 861.694 422.312 862.866 420.848C863.745 419.578 864.331 419.48 865.21 420.359C865.894 421.043 868.237 421.531 870.581 421.531C875.366 421.531 877.026 419.676 878.198 413.328L878.784 409.617L883.374 410.203C885.913 410.594 889.917 411.277 892.358 411.863C895.972 412.645 898.511 412.449 905.444 410.887C910.132 409.91 914.136 408.836 914.331 408.641C914.429 408.543 918.53 400.438 923.413 390.77C936.792 363.914 941.87 344.969 940.112 329.148C938.843 317.82 938.354 316.062 936.304 316.062C934.937 316.062 934.644 315.574 935.034 313.816C935.327 312.645 936.206 310.887 936.987 310.008C938.257 308.543 938.062 307.664 935.522 302.195C933.374 297.801 932.886 295.848 933.667 295.359C934.448 294.969 934.937 291.16 935.132 285.301C935.522 276.512 935.327 275.828 932.983 272.605C931.421 270.555 930.444 268.113 930.444 266.062C930.444 262.449 923.999 252.293 919.409 248.68C917.065 246.824 916.87 246.043 916.479 236.18C915.991 225.438 914.624 215.574 911.011 198.191C909.839 192.82 908.96 187.352 908.96 186.082C908.96 184.91 907.3 181.883 905.151 179.344C896.558 169.09 892.065 156.199 892.456 142.527L892.749 133.445L889.038 130.809L885.229 128.27L886.108 131.102C887.183 134.91 887.085 141.062 886.011 142.137C885.425 142.625 883.96 143.309 882.593 143.699C880.542 144.188 879.858 143.699 878.198 140.574C877.124 138.621 873.706 133.836 870.679 130.027C867.651 126.121 860.229 115.379 854.175 106.004C836.792 78.8555 831.128 70.9453 822.437 62.1562C810.718 50.2422 795.874 24.7539 794.214 13.8164C793.14 6.78516 791.479 -0.34375 790.894 -0.34375C790.601 -0.246094 770.581 7.85938 746.362 17.918Z" fill="white"/>
<circle id="181" cx="789" cy="643" fill="#5CE50D"/>
<circle id="1608" cx="910" cy="238" fill="#E52A0D"/>
<circle id="184" cx="601" cy="530" fill="#E52A0D"/>
<circle cx="512" cy="703" fill="#E52A0D"/>
</svg>
