<svg width="1000" height="1000" viewBox="0 0 1000 1000" fill="none" xmlns="http://www.w3.org/2000/svg">
<path d="M309.261 0.326904C297.64 0.619873 294.515 1.0105 293.831 2.08472C292.952 3.74487 284.749 4.03784 277.523 2.573C273.714 1.8894 272.737 2.08472 270.101 4.03784C266.292 6.96753 261.312 20.1511 256.624 39.8777L253.206 54.1355L255.452 61.948C257.601 69.4675 257.698 69.8582 255.941 71.616C253.792 73.8621 254.476 78.7449 257.21 79.5261C258.284 79.7214 260.335 82.4558 261.898 85.5808L264.73 91.1472L262.679 96.9089C261.507 100.034 258.87 105.112 256.819 108.139L253.206 113.706L241.683 114.389C227.523 115.268 226.839 115.854 226.839 126.108C226.839 132.26 227.034 133.139 229.183 134.702C231.233 136.167 232.112 136.264 236.214 135.288C238.753 134.604 242.464 133.335 244.515 132.358C254.964 127.085 262.679 129.624 271.175 140.854L276.546 147.983V156.772C276.546 165.366 276.448 165.561 272.249 172.397C269.124 177.475 267.855 180.6 267.464 184.507C266.78 191.05 264.144 196.421 257.601 204.526L252.62 210.678L246.077 210.288L239.437 209.897L236.409 214.585C234.749 217.221 232.601 219.37 231.722 219.37C230.648 219.37 228.89 221.811 226.644 226.401C223.226 233.432 223.226 233.628 224.3 239.194C224.983 242.319 225.667 244.956 225.862 245.053C226.058 245.249 228.597 247.007 231.429 249.057L236.507 252.768V259.897C236.507 266.733 236.702 267.221 239.339 269.077C241.683 270.737 242.269 272.104 242.855 276.596C243.343 281.089 244.222 282.846 247.249 286.167C250.765 289.975 250.96 290.659 252.034 299.936C253.011 308.432 252.913 310.385 251.644 314.096C250.765 316.538 249.398 320.835 248.714 323.667L247.347 328.843L251.253 337.241C253.499 342.221 255.062 346.909 254.866 348.667C254.769 351.01 256.526 354.135 263.069 363.413C270.101 373.178 271.566 375.913 272.151 380.014C272.542 382.651 274.788 390.561 277.23 397.593C281.526 409.8 281.917 410.581 288.265 417.124C293.245 422.202 295.589 425.62 297.444 430.21C298.812 433.725 299.983 436.948 299.983 437.534C299.886 438.12 298.616 440.171 297.054 442.026C293.733 445.835 293.538 447.007 295.589 452.866C297.542 458.335 300.276 461.167 311.702 469.37C324.202 478.354 325.081 479.331 325.569 486.46C325.96 492.026 326.448 493.1 335.823 506.675L345.589 521.03L346.273 532.26C346.761 539.975 346.663 544.663 345.784 547.3C344.319 552.28 345.003 554.819 349.3 560.483C351.155 562.925 352.718 565.757 352.718 566.831C352.718 569.956 356.233 573.471 365.218 579.428C375.179 586.069 378.792 589.78 379.671 594.175C380.062 596.128 381.429 598.276 383.089 599.448C387.288 602.573 392.757 611.557 394.808 618.491C396.761 625.522 399.886 629.917 408.87 638.12C414.046 642.807 415.901 645.444 419.124 652.573C422.64 659.995 423.03 661.85 422.542 665.659C421.956 669.761 424.007 686.85 425.862 693.491C426.546 695.932 425.96 697.983 422.933 704.624C418.538 714.096 418.343 716.44 421.077 729.721C422.444 736.46 423.616 739.878 424.983 740.854C425.96 741.636 428.597 745.053 430.745 748.471L434.749 754.526L433.284 764.585C430.843 782.065 430.843 782.749 433.87 788.706C437.386 795.737 440.901 798.96 447.835 801.401C454.964 803.843 461.507 809.604 465.901 817.514L469.124 823.374L468.148 839.682C467.171 854.038 466.78 856.577 464.534 860.874C462.581 864.78 462.093 867.221 462.093 872.69C462.093 878.647 462.776 881.382 466.78 892.026C470.101 900.718 471.761 906.577 472.249 911.557C472.737 917.221 473.519 919.663 475.667 922.886C479.183 927.866 488.265 935.093 495.687 938.803L501.351 941.538L500.667 947.397C500.276 951.206 498.421 956.772 495.394 963.511C492.855 969.175 489.925 975.815 488.851 978.354C487.19 982.553 486.702 983.042 483.968 983.042C482.015 983.042 480.159 982.163 478.694 980.6C476.155 977.964 471.858 977.28 471.858 979.526C471.858 984.702 476.644 988.901 482.698 988.901C484.847 988.901 486.898 989.878 489.534 992.319C493.05 995.542 493.831 995.737 499.788 995.737C504.573 995.737 507.21 996.323 509.944 997.788C513.362 999.741 513.753 999.741 516.585 998.276C518.245 997.397 521.273 996.714 523.323 996.714C525.374 996.714 528.108 996.03 529.378 995.151C531.038 993.882 532.894 993.686 537.093 994.077C541.878 994.565 542.855 994.37 545.394 992.221C547.737 990.268 549.3 989.78 552.327 989.975C554.573 990.171 558.089 989.78 560.237 989.096C562.386 988.511 565.706 987.729 567.757 987.436C572.249 986.753 572.737 985.19 571.37 977.866C570.198 972.104 570.198 971.909 572.542 970.444C573.812 969.565 577.132 966.733 579.964 964.194C584.163 960.288 586.214 959.116 591.976 957.651C595.882 956.675 601.351 954.624 604.28 953.061L609.554 950.327V944.956C609.554 941.147 610.14 938.901 611.507 937.143C612.581 935.776 613.46 933.139 613.46 931.284C613.46 926.694 617.659 916.636 620.491 914.487C621.761 913.511 624.788 912.046 627.23 911.264C631.233 909.897 632.015 909.897 634.554 911.264C637.776 912.925 643.733 913.12 648.519 911.753C652.718 910.581 658.87 913.413 659.749 916.928C660.042 918.296 661.312 919.956 662.581 920.835C664.632 922.104 665.218 922.007 671.077 918.491C676.644 915.073 678.011 914.682 683.675 914.682C687.19 914.682 691.976 915.171 694.222 915.659C697.835 916.538 699.398 916.245 706.429 913.706C710.823 912.046 715.315 910.776 716.292 910.776C717.366 910.776 720.687 908.139 723.909 904.624C728.499 899.546 730.355 898.179 733.773 897.495L737.972 896.616L738.753 888.315C739.144 883.725 739.73 877.182 740.023 873.667C740.315 870.151 740.999 866.928 741.487 866.44C741.976 865.854 742.366 861.362 742.366 856.284C742.366 848.081 742.659 846.714 745.101 842.612C747.444 838.608 747.737 837.046 747.737 829.721V821.421L757.405 816.343C762.776 813.511 767.464 810.874 767.952 810.386C768.44 809.897 767.855 808.432 766.683 806.87C764.632 804.331 764.632 803.745 765.706 797.886L766.878 791.538L763.851 789.096C760.53 786.264 760.14 784.311 762.581 781.675C764.046 780.014 764.046 779.819 762.581 778.159C760.335 775.718 760.53 773.374 762.874 772.593C764.534 772.104 764.827 771.128 764.827 766.147C764.827 762.046 765.511 759.116 766.976 756.186C768.636 753.061 769.222 749.643 769.71 741.343C770.296 731.87 770.687 730.014 773.128 725.815C777.132 719.077 776.644 713.803 771.175 701.401C768.733 696.128 766.487 690.268 766.194 688.315C765.804 686.46 763.753 681.089 761.702 676.499C758.48 669.565 757.894 667.417 758.284 663.803C758.577 660.971 758.089 657.651 756.917 654.136C755.94 651.206 755.062 647.397 755.062 645.737C755.062 644.077 754.378 635.874 753.401 627.475L751.839 612.241L753.89 609.311C755.745 606.675 756.722 606.284 762.483 605.796C766.097 605.405 769.222 604.917 769.515 604.624C769.808 604.331 769.319 603.354 768.44 602.475C767.659 601.499 766.683 599.057 766.292 597.007C765.706 593.979 765.218 593.393 763.167 593.393C761.898 593.393 758.87 592.319 756.624 590.952L752.523 588.51L752.327 580.991C752.23 576.792 752.523 572.885 752.913 572.202C753.694 571.03 759.651 569.175 765.804 568.296C769.026 567.807 776.546 561.948 776.546 559.995C776.546 559.507 775.374 557.358 774.007 555.21C772.054 552.085 771.663 550.425 772.054 547.983C772.542 545.346 772.347 544.76 770.003 543.491C768.44 542.807 766.976 542.026 766.683 541.928C766.39 541.733 765.706 542.612 765.12 543.882L764.046 546.225L756.038 544.663C751.546 543.784 747.737 542.514 747.249 541.635C745.784 539.389 746.077 536.753 747.737 536.753C748.519 536.753 749.788 535.581 750.569 534.018C751.351 532.553 753.694 530.405 755.94 529.135C761.214 526.206 761.995 522.3 758.968 514.487C756.819 508.725 753.987 494.858 754.769 493.491C754.964 493.1 755.843 492.807 756.624 492.807C758.87 492.807 760.14 488.218 758.773 485.678C758.089 484.507 757.015 481.968 756.526 480.112C755.355 476.401 756.233 476.694 744.417 476.303L740.12 476.206L740.804 470.053C741.292 465.659 742.171 463.315 743.831 461.557C745.101 460.19 747.054 455.796 748.128 451.792C749.983 445.444 750.862 443.882 755.159 439.878C759.651 435.874 760.042 435.19 758.968 433.237C758.382 432.065 757.991 430.991 758.187 430.893C758.382 430.796 759.651 430.21 761.019 429.624C763.265 428.647 763.655 427.768 764.339 422.3C765.12 415.659 765.12 415.464 764.241 408.53L763.655 403.94L768.343 401.889C770.98 400.718 773.323 399.643 773.421 399.448C774.495 398.667 772.151 394.956 770.101 394.175C767.952 393.296 767.757 392.807 767.757 385.874C767.757 379.038 767.659 378.55 765.511 377.964C762.288 377.182 760.628 370.053 762.19 364.194C763.167 360.483 763.069 359.8 760.53 356.186C758.284 352.964 757.894 351.499 758.284 348.764C759.163 343.589 758.089 338.51 756.136 338.51C755.159 338.51 753.011 337.046 751.253 335.19C748.323 332.163 748.03 331.382 748.323 326.987L748.714 322.202L742.366 317.807C736.507 313.706 736.019 313.12 736.312 310.093C736.409 308.237 737.288 305.405 738.167 303.647C739.632 300.815 739.73 299.839 738.558 294.37C737.093 287.827 737.093 286.948 738.069 282.163C738.558 279.624 738.265 278.843 736.116 277.475C733.675 275.815 733.382 275.815 731.722 277.378C730.257 278.647 729.378 278.843 728.011 278.061C726.937 277.573 723.812 276.792 720.98 276.401C716.78 275.815 715.023 276.108 711.214 277.964C706.819 280.014 706.331 280.014 703.597 278.55C700.276 276.889 699.398 274.155 699.398 265.561C699.398 261.753 699.983 259.507 701.448 257.553C703.89 254.331 705.452 243.589 704.573 236.46C703.89 230.698 701.351 227.475 696.858 226.596C695.101 226.303 692.952 225.229 692.073 224.253C690.608 222.69 690.023 222.593 686.898 223.667C684.456 224.546 681.917 224.643 678.499 224.057C669.124 222.495 669.124 222.495 669.124 219.37C669.124 216.928 668.343 215.854 664.73 213.608C659.651 210.385 648.616 195.737 648.616 192.124C648.616 190.854 647.347 187.534 645.784 184.8C643.831 181.186 642.855 177.964 642.464 172.983C642.073 167.807 641.585 165.952 640.218 165.171C639.241 164.682 637.581 163.12 636.409 161.85C635.335 160.581 632.796 157.651 630.745 155.503L626.937 151.596L627.62 143.979C628.206 137.925 628.694 136.069 630.159 135.288C632.991 133.823 632.405 130.21 628.401 125.229L624.69 120.737H615.999C608.382 120.737 606.917 120.444 605.062 118.686C602.23 116.05 598.226 116.831 596.663 120.249C596.077 121.616 595.101 122.69 594.515 122.69C591.194 122.69 578.597 119.468 577.23 118.198C576.448 117.417 574.495 116.831 573.03 116.831C571.468 116.831 569.026 115.757 567.366 114.389C565.804 113.022 563.655 111.948 562.581 111.948C560.335 111.948 560.14 109.409 562.093 104.624L563.46 101.303L560.433 100.62C558.773 100.327 556.624 99.5457 555.648 98.9597C554.378 98.0808 553.108 98.2761 550.374 99.5457C546.858 101.206 546.761 101.206 544.71 99.2527C541.878 96.7136 541.39 96.7136 537.679 100.327C534.749 103.159 533.773 103.452 525.374 104.233C520.394 104.721 514.632 105.21 512.679 105.503C509.358 105.893 508.773 105.6 506.917 102.573C505.257 99.8386 504.28 99.2527 501.644 99.2527C499.886 99.2527 497.933 98.6667 497.347 97.9832C496.761 97.2019 495.101 96.8113 493.343 97.1042C490.608 97.4949 490.413 97.3972 490.413 94.0769C490.413 88.9988 487.581 88.8035 482.894 93.5886C480.062 96.5183 478.499 97.3972 476.253 97.2019C468.441 96.7136 467.171 97.1042 465.999 100.815L464.827 104.331L462.483 102.085L460.14 99.9363L457.796 102.085L455.452 104.331L454.769 101.303C453.987 97.7878 453.304 97.5925 450.862 100.229C448.714 102.573 445.198 102.768 443.441 100.62C442.269 99.155 441.976 99.3503 440.023 101.792C438.265 103.94 437.581 104.233 436.409 103.354C435.628 102.671 433.773 102.378 431.917 102.768C428.987 103.354 428.89 103.354 428.89 99.9363C428.89 97.0066 428.304 95.9324 425.765 94.1746C423.03 92.3191 422.64 91.4402 422.835 88.8035C423.128 86.1667 422.737 85.3855 420.589 84.4089C419.124 83.7253 417.171 81.5769 416.097 79.5261C414.73 76.7917 413.362 75.6199 411.214 75.1316C408.968 74.741 407.796 73.5691 405.843 69.8582C404.573 67.2214 403.499 63.8035 403.499 62.1433C403.499 58.1394 401.937 55.3074 399.788 55.3074C395.101 55.3074 387.874 43.0027 387.874 35.1902C387.874 30.991 380.843 23.1785 373.128 18.9792C368.831 16.6355 367.366 15.2683 367.366 13.7058C367.366 12.4363 365.706 10.1902 363.265 8.04175C360.921 6.08862 357.796 3.35425 356.331 1.8894C353.792 -0.356689 353.499 -0.454346 351.839 1.0105C349.788 2.86597 340.218 3.06128 333.187 1.49878C326.741 0.0339355 325.374 -0.0637207 309.261 0.326904Z" fill="white"/>
<circle id="185" cx="450" cy="771" fill="#5CE50D"/>
<circle id="186" cx="272" cy="147" fill="#E52A0D"/>
<circle cx="747" cy="470" fill="#E52A0D"/>
<circle id="187" cx="616" cy="909" fill="#E52A0D"/>
</svg>
