<svg width="1000" height="1000" viewBox="0 0 1000 1000" fill="none" xmlns="http://www.w3.org/2000/svg">
<path d="M816.193 18.2072C818.099 20.4942 818.099 20.7801 816.669 22.4954C815.335 23.9249 813.62 24.2108 806.378 24.1154C793.036 24.0201 788.748 23.0672 785.508 19.446C782.935 16.5872 782.459 16.3965 778.361 16.9683C774.835 17.4448 773.215 18.3024 770.547 21.066C768.736 23.0672 765.496 25.4496 763.4 26.4025C750.058 32.5967 728.426 38.5049 719.564 38.5049H715.276V34.7885C715.276 30.7861 715.18 30.6908 708.796 29.452C707.08 29.0707 693.739 27.8319 679.064 26.6884L652.477 24.5919L647.521 28.3084L642.661 32.1202L628.557 31.4531L614.454 30.7861L605.02 36.9802C594.633 43.9368 590.249 44.985 585.675 41.3638C582.625 38.9814 580.91 38.9814 573.286 41.4591C569.856 42.5073 562.613 43.7462 557.086 44.3179C519.159 47.7485 485.52 61.3757 472.465 78.5287C469.606 82.15 466.747 85.1994 466.175 85.1994C463.602 85.1994 458.361 82.9124 456.074 80.8159C452.739 77.7664 448.355 78.8146 447.211 83.0076C446.163 86.6288 442.066 88.0582 434.347 87.3912C428.915 86.9147 428.82 86.9147 420.815 92.5371C414.144 97.1113 412.619 98.7313 411.762 101.59C411.19 103.591 410.332 105.593 409.761 106.164C409.284 106.641 404.329 108.642 398.897 110.453C390.892 113.121 387.557 113.788 381.458 113.788H374.025L380.029 120.935C390.702 133.609 389.939 132.275 387.938 135.992C386.318 139.136 386.318 139.422 387.938 144.187L389.749 149.047L386.985 151.906L384.222 154.765L386.127 163.246L388.033 171.727L385.937 175.92C384.317 178.97 383.745 181.638 383.65 186.307C383.65 191.263 383.269 192.978 381.744 194.312C379.933 195.932 379.933 196.027 383.364 200.22L386.795 204.413L383.84 211.179L380.886 217.85L385.079 223.377C389.749 229.476 389.844 229.952 388.319 234.336C387.366 236.909 387.557 238.052 389.749 243.008C392.036 248.058 393.179 249.297 400.803 254.634C405.568 257.969 409.379 261.018 409.379 261.399C409.379 261.781 406.902 263.305 403.757 264.735C398.706 267.212 398.135 267.784 397.277 271.501C396.419 275.312 396.515 275.884 398.611 277.981L400.898 280.268L398.23 281.983C395.657 283.698 395.276 283.698 377.456 280.744C362.59 278.171 356.777 277.695 345.341 277.695C334.668 277.695 331.238 277.981 331.238 278.838C331.333 279.505 331.905 282.841 332.667 286.271C333.334 289.702 333.811 292.561 333.62 292.751C333.429 292.942 326.378 294.467 317.896 296.087L302.459 299.136L299.409 307.903L296.36 316.575L300.362 321.245L304.365 325.819L302.554 330.393C301.601 332.871 300.743 335.92 300.743 337.159C300.743 339.637 297.98 340.589 291.023 340.589C288.831 340.589 283.209 342.305 277.11 344.782C267.867 348.594 265.77 349.071 254.049 350.024L241.279 351.167L234.99 355.837C231.178 358.6 225.079 361.936 219.838 363.841C215.073 365.747 206.02 370.226 199.731 373.943C188.391 380.613 188.295 380.709 188.295 384.234C188.295 387.284 187.342 388.809 181.053 395.575C177.051 399.958 173.525 403.484 173.239 403.484C172.858 403.484 171.619 402.055 170.38 400.244C168.379 397.29 167.807 397.004 161.518 396.432C151.607 395.575 120.255 397.48 114.251 399.386L109.201 400.911L100.91 397.385L92.5241 393.859L89.6653 397.385C88.1406 399.386 86.1394 401.864 85.2817 402.912C83.9476 404.532 82.6135 404.723 75.0852 404.723C66.6039 404.628 66.318 404.723 66.318 406.819C66.318 408.439 64.7933 409.964 60.3145 412.728C57.0744 414.824 48.9744 421.685 42.399 428.07C31.2496 438.838 29.9154 439.791 25.8177 440.363C23.3401 440.649 21.2436 441.411 21.053 441.983C20.6718 443.127 12 509.928 12 511.739C12 513.264 61.458 557.576 68.7004 562.722C75.1805 567.201 86.997 576.444 113.965 597.79C124.162 605.986 146.461 622.853 163.519 635.336C180.577 647.82 243.852 695.467 304.269 741.114C402.613 815.634 414.049 824.497 414.335 827.07C414.621 829.547 417.479 831.93 441.303 848.606C471.416 869.762 468.748 866.426 467.223 880.053L466.556 886.343L477.42 890.822L488.379 895.396L489.618 900.161C490.666 904.354 491.714 905.783 497.337 910.548C500.862 913.693 504.102 916.17 504.484 916.17C504.865 916.17 507.247 915.408 509.82 914.55L514.49 912.835L517.92 917.123C525.163 926.176 525.067 926.081 538.504 928.559C550.035 930.56 551.273 931.036 555.943 934.657C561.47 938.946 561.565 939.327 560.136 952.573C559.564 957.433 558.706 959.911 556.419 963.055C554.895 965.342 552.989 968.773 552.322 970.869L551.178 974.491L555.276 978.207C557.563 980.113 560.326 982.305 561.375 982.877C562.899 983.639 575.478 981.066 624.555 969.631C677.158 957.433 686.211 955.146 688.403 953.145C689.832 951.81 708.224 934.848 729.189 915.408L767.402 880.053L877.372 810.298C937.884 771.989 987.533 740.447 987.628 740.351C987.819 740.161 985.055 731.584 981.434 721.292L974.954 702.615L970.952 703.186C967.045 703.758 966.664 703.567 954.847 694.705L942.745 685.557H933.501C928.355 685.557 922.256 685.271 919.874 684.985L915.395 684.318L910.154 674.407L904.912 664.497V654.205V644.008L891.095 620.375C883.471 607.32 877.277 596.456 877.277 596.266C877.277 595.98 878.992 593.597 881.184 590.929C884.424 586.831 886.235 585.497 892.334 583.115C899.004 580.447 899.862 579.779 902.339 575.491C905.58 569.678 905.389 565.962 901.101 548.618L898.242 536.992L902.244 529.654C904.627 525.176 907.104 518.695 908.343 513.359L910.535 504.401L908.534 495.539L906.437 486.581L909.582 474.955C913.013 461.9 913.108 464.663 909.01 435.884L906.628 418.255L900.052 405.39C896.526 398.243 893.286 390.715 893.001 388.713C892.429 385.092 892.524 384.806 896.241 382.519C898.432 381.185 900.148 379.851 900.148 379.374C900.148 378.231 886.902 288.94 886.235 286.081C885.853 284.175 881.946 280.649 869.653 271.501C854.787 260.447 853.453 259.112 852.977 255.968C852.596 253.966 852.119 251.108 851.929 249.583C851.643 247.963 849.832 243.198 847.926 238.815C844.496 231 844.4 230.905 837.634 227.189L830.868 223.472L826.485 211.751C819.814 194.217 818.575 188.213 820.1 181.733C821.815 174.967 824.102 172.108 828.962 170.869C832.298 170.012 833.346 169.154 835.538 165.247C837.444 161.816 839.826 159.529 844.591 156.385C848.117 154.098 852.786 150.381 854.787 148.285L858.599 144.378L857.456 139.613C856.503 135.324 856.598 134.276 858.313 130.274C859.362 127.701 862.03 123.413 864.126 120.649L867.938 115.503L864.793 112.263C861.649 109.023 861.649 108.928 863.173 105.878C866.604 99.1124 866.794 97.016 864.698 90.7265C862.887 85.39 862.792 84.0558 863.745 77.0994C864.317 72.3346 866.127 66.0452 868.224 60.9945C870.13 56.3251 871.559 52.5133 871.369 52.3227C871.178 52.2274 868.986 50.9886 866.413 49.7498L861.744 47.3674L867.557 43.365C872.417 40.1249 873.465 38.8861 873.465 36.7897C873.465 34.5026 874.228 33.7402 878.706 31.5484C883.662 29.1661 883.852 28.8802 882.804 26.5931C881.851 24.4966 881.184 24.2108 876.419 24.2108C873.465 24.1154 869.177 23.7343 866.794 23.2578C862.887 22.4954 862.03 22.7813 856.598 25.7355C853.358 27.546 849.546 28.9755 847.926 28.9755C845.639 28.9755 844.972 28.499 844.305 25.8307C843.447 23.0672 842.971 22.686 839.064 22.3048C836.777 22.0189 833.537 20.8754 831.917 19.7319C830.297 18.5883 826.199 17.1589 822.864 16.6824C814.096 15.253 813.906 15.253 816.193 18.2072Z" fill="white"/>
<circle id="9" cx="631" cy="33" fill="#5CE50D"/>
<circle id="12" cx="826" cy="30" fill="#E52A0D"/>
<circle id="10" cx="436" cy="106" fill="#E52A0D"/>
<circle id="1611" cx="660" cy="827" fill="#E52A0D"/>
</svg>
