<svg width="1000" height="1000" viewBox="0 0 1000 1000" fill="none" xmlns="http://www.w3.org/2000/svg">
<path d="M598.417 214.511C596.848 216.819 596.848 217.465 597.863 219.864C598.509 221.341 599.063 223.556 599.155 224.755C599.155 225.863 599.986 228.447 601.001 230.477C604.139 236.661 600.54 242.752 594.818 240.537C591.311 239.245 589.004 237.03 589.004 234.907C589.004 233.8 587.988 232.784 586.235 232.231C584.758 231.677 583.466 230.846 583.466 230.385C583.466 229.923 582.636 229.554 581.528 229.554C577.744 229.554 576.083 227.893 576.083 223.925C576.083 220.418 575.899 220.233 573.591 220.51C571.192 220.787 571.007 221.064 570.731 225.678C570.454 230.846 573.038 237.768 577.744 244.136C580.79 248.289 579.959 251.057 575.16 252.996C573.13 253.826 569.992 254.472 568.331 254.472C565.839 254.472 565.101 254.934 564.639 256.687C563.993 259.456 560.025 260.932 553.288 260.932C549.32 260.932 547.566 260.379 543.782 257.887C541.198 256.226 539.168 254.195 539.168 253.272C539.168 250.965 538.06 251.334 535.015 254.472C532.523 257.148 528.093 258.256 528.093 256.318C528.093 255.118 521.633 248.012 520.618 248.012C518.772 248.012 519.972 252.257 522.556 254.934L525.325 257.795L523.202 261.025C520.526 265.085 518.403 265.362 515.173 262.317C512.589 259.917 508.621 258.348 502.068 257.518C499.023 257.148 498.561 257.333 497.269 259.825C496.531 261.301 495.239 262.778 494.408 263.147C492.47 263.886 486.564 260.932 486.564 259.179C486.564 258.348 486.01 256.595 485.272 255.21C484.533 253.826 483.703 251.519 483.334 249.95C482.872 247.827 482.041 246.997 479.365 246.074C477.519 245.52 474.382 243.951 472.444 242.659C469.675 240.813 468.567 240.537 467.368 241.275C464.784 242.844 465.06 246.074 468.567 255.026C472.444 264.808 472.444 269.054 468.66 271.545C466.906 272.745 465.706 272.838 462.015 272.007C457.216 270.899 456.108 269.977 456.108 266.746C456.108 265.639 455.278 264.255 454.263 263.701C452.602 262.87 452.417 262.963 452.417 265.178C452.417 267.485 452.232 267.577 448.725 267.116C444.111 266.562 443.742 268.315 447.803 271.822C449.371 273.207 450.571 274.776 450.571 275.422C450.571 277.637 448.541 277.637 446.141 275.422C443.373 272.838 437.005 269.884 435.713 270.715C435.251 270.992 434.882 271.822 434.882 272.561C434.882 273.484 433.682 273.853 430.545 273.853C426.761 273.853 425.93 273.484 422.792 270.069C419.378 266.377 418.916 266.193 412.733 265.731C406.827 265.362 405.996 265.454 403.966 267.393C402.397 268.869 401.658 270.53 401.658 272.561C401.658 274.96 400.643 276.621 397.136 280.128C391.784 285.666 385.877 288.065 383.478 285.573C382.186 284.281 381.724 284.281 379.325 285.481C376.095 287.142 376.002 288.434 379.325 289.173C382.832 290.095 384.031 292.126 384.124 297.109C384.124 303.016 382.555 302.923 373.326 296.648C365.666 291.387 361.513 289.542 357.268 289.542C354.684 289.542 354.591 289.726 354.591 294.064C354.591 298.586 354.591 298.586 359.483 301.355C365.112 304.492 365.943 305.415 367.143 309.845C367.881 312.614 367.604 313.814 365.481 318.151C364.097 320.92 362.99 322.489 362.99 321.658C362.897 320.827 361.79 319.259 360.406 318.151C358.283 316.49 357.175 316.305 352.838 316.767C349.977 317.136 346.562 318.151 345.178 319.074C342.132 321.289 335.211 320.92 327.828 318.151C321.183 315.659 316.753 315.659 316.107 318.151C315.553 320.181 312.692 320.643 311.493 318.797C311.031 318.151 310.57 319.628 310.293 322.673C309.924 326.734 309.37 328.026 307.34 329.503L304.756 331.441L301.987 329.41L299.218 327.38L294.143 331.533C287.405 336.978 284.268 337.162 280.115 332.271L277.254 328.764L276.608 332.456C276.239 334.486 275.223 337.347 274.393 338.731C272.916 341.315 273.009 341.592 276.423 347.683C278.269 351.19 279.838 354.974 279.838 355.989C279.838 357.097 280.484 359.127 281.222 360.604C283.16 364.387 282.237 367.987 279.192 367.987C277.992 367.987 275.962 369.094 274.577 370.386C272.916 372.047 271.44 372.601 269.317 372.417C266.548 372.14 266.456 372.232 266.641 375.831C266.733 377.862 267.01 380.815 267.379 382.476C267.933 384.968 267.748 385.429 265.995 385.706C264.149 385.983 264.149 386.26 267.656 391.613C271.255 397.15 271.44 397.242 276.239 397.704C279.192 397.98 281.499 398.811 282.145 399.734C282.791 400.565 283.991 401.211 284.821 401.211C286.021 401.211 286.298 400.288 286.298 396.596C286.298 394.012 286.667 391.982 287.036 391.982C287.498 391.982 288.974 393.181 290.451 394.75C293.866 398.257 294.604 398.257 294.604 394.566V391.52L296.819 393.827C299.495 396.596 300.418 399.365 299.218 401.211C298.48 402.41 298.019 402.41 295.435 400.934C291.651 398.811 289.713 398.903 290.451 401.118C291.558 404.717 285.098 406.563 281.776 403.61C279.469 401.487 278.638 401.764 277.069 405.087C275.131 409.24 272.824 410.439 271.255 408.224C269.317 405.548 266.548 407.025 265.441 411.362C264.333 415.331 265.072 416.9 268.025 416.9C269.317 416.9 269.686 417.638 269.686 419.945C269.686 422.345 270.886 424.283 275.223 429.174C279.653 434.157 280.761 436.095 280.761 438.495C280.761 442.556 278.454 443.479 275.593 440.802L273.47 438.864L271.993 444.032C271.163 446.986 270.701 449.939 270.978 450.677C271.809 452.8 277.346 454.738 282.514 454.738C286.575 454.738 287.036 454.461 287.59 452.431C288.144 450.308 288.605 450.123 293.127 450.123C295.804 450.123 298.296 450.4 298.665 450.769C299.034 451.138 301.987 451.323 305.217 451.231C308.632 451.046 311.216 451.323 311.585 451.877C311.954 452.431 311.77 454.461 311.216 456.491C310.293 459.906 310.016 460.09 305.863 460.644C294.327 462.029 287.405 462.305 285.652 461.382C284.268 460.644 283.345 460.644 282.145 461.567C280.576 462.675 280.761 462.951 283.899 465.443C285.744 466.92 287.221 468.396 287.221 468.766C287.221 469.227 285.375 469.504 283.068 469.504C279.376 469.504 278.823 469.781 277.531 472.365C276.239 474.857 276.146 475.687 277.438 479.932C278.177 482.609 279.192 487.592 279.746 491.099C280.668 497.19 280.576 497.559 278.454 500.144C274.208 505.219 276.054 509.188 282.791 509.188C285.191 509.188 286.759 510.203 290.636 513.987C293.589 516.94 296.911 519.247 299.034 519.801L302.448 520.816L302.725 532.721C302.91 543.15 303.187 544.903 304.848 546.657C305.863 547.672 307.801 551.64 309.278 555.424C311.585 561.608 312.231 562.438 315.923 564.284C320.722 566.683 324.136 566.96 324.136 565.022C324.136 564.284 324.413 563.638 324.875 563.638C326.536 563.73 327.735 565.299 328.658 568.898C329.489 571.944 330.32 572.959 332.073 573.42C333.642 573.79 334.749 573.605 335.303 572.774C336.318 571.021 343.332 571.667 346.931 573.882C349.054 575.266 349.885 575.359 350.162 574.528C350.9 572.313 353.392 575.451 356.068 581.911C358.837 588.74 362.99 593.632 366.681 594.554C368.711 595.108 369.265 594.647 370.65 591.417C372.311 587.817 372.403 587.725 378.494 587.171C381.816 586.895 385.323 586.525 386.339 586.433C389.107 586.156 393.168 574.528 392.706 568.16C392.43 565.391 392.706 562.069 393.26 560.592L394.275 558.101H404.612C413.379 558.101 416.055 558.47 421.5 560.408C425.1 561.608 428.607 562.715 429.345 562.715C430.083 562.715 431.56 564.099 432.667 565.761C434.236 568.16 434.513 569.544 434.052 573.328C433.313 579.05 428.514 586.433 424.361 588.094C419.747 590.032 418.178 592.432 417.624 598.523C417.255 602.584 417.532 605.168 418.824 608.49C420.762 613.566 420.947 620.672 419.378 633.316C418.178 643.006 415.779 650.573 411.718 657.126C410.149 659.618 408.119 664.878 407.103 668.754C406.181 672.63 404.704 677.337 403.966 679.275C403.227 681.121 402.581 684.351 402.581 686.381C402.581 689.704 402.858 690.165 406.088 691.549C413.194 694.503 414.117 694.41 416.794 689.888C418.086 687.581 419.193 684.905 419.193 683.797C419.193 681.305 429.253 672.261 433.498 670.969C436.174 670.139 437.282 670.231 439.404 671.431C441.804 672.815 442.173 672.723 445.126 670.877C447.618 669.4 449.187 669.123 452.325 669.493C455.555 669.954 456.478 669.769 457.216 668.477C458.416 666.262 461.738 665.155 470.598 663.771C475.028 663.032 479.181 661.833 480.749 660.725C483.795 658.51 489.517 656.849 493.947 656.849C498.1 656.757 499.299 655.742 503.545 648.82C509.359 639.13 513.512 637.192 523.017 640.053C527.909 641.529 528.647 642.083 529.016 644.482C529.293 645.959 530.862 649.927 532.523 653.342C534.83 657.864 536.122 659.618 537.968 660.079C539.26 660.356 540.46 660.448 540.645 660.264C540.921 660.079 541.475 657.311 542.029 654.265C543.044 648.635 543.044 648.543 540.091 644.852C536.584 640.514 537.23 638.761 541.937 639.776C544.059 640.237 545.628 641.714 548.028 645.313C549.966 648.174 552.642 650.85 554.672 651.866C559.933 654.542 562.24 656.941 562.24 659.618C562.24 663.309 568.608 666.078 577.006 666.078H583.374L584.02 670.231C584.389 672.723 585.128 674.384 585.774 674.384C586.42 674.384 589.28 676.23 592.049 678.537C597.956 683.336 601.463 683.982 602.755 680.475C604.047 677.245 606.723 676.599 608.384 679.183C609.122 680.383 612.999 684.72 616.967 688.781C625.457 697.64 628.78 699.117 638.193 697.917C646.315 696.902 650.652 696.902 651.76 698.01C652.313 698.563 651.667 700.871 649.914 704.747C646.591 711.761 646.499 714.16 649.36 719.051C651.114 722.097 652.682 723.297 657.02 725.05C672.248 731.233 671.14 730.495 671.14 734.74C671.14 737.786 671.694 739.17 673.54 740.924C676.77 743.969 682.676 755.044 684.061 760.766L685.26 765.472L693.659 768.702C698.273 770.456 705.195 772.486 708.978 773.225L715.9 774.517L716.361 779.131C716.638 781.623 717.377 784.668 718.023 785.868L719.222 787.898L722.822 786.053C725.775 784.576 727.436 784.299 731.497 784.761L736.48 785.314L737.126 781.623C737.68 778.393 738.141 777.747 741.372 776.455C743.402 775.624 746.724 774.978 748.755 774.978C751.985 774.978 753.277 774.332 757.614 770.364C760.752 767.503 763.521 765.749 764.905 765.749C766.382 765.749 767.951 764.642 769.796 762.058C771.273 759.935 773.58 757.443 774.872 756.428L777.179 754.582L781.609 756.797C784.009 757.997 787.7 759.566 789.731 760.212C795.453 762.058 798.313 764.273 801.174 768.702C803.482 772.394 804.589 773.132 811.603 775.716C819.724 778.762 824.154 779.223 835.229 778.116C840.489 777.562 840.858 777.378 839.935 775.716C839.105 774.147 839.474 773.317 842.427 770.271C844.365 768.333 846.672 766.488 847.503 766.211C849.257 765.565 851.471 756.613 850.087 755.136C849.626 754.675 849.257 752.367 849.257 749.968C849.257 746.553 849.903 744.892 852.394 741.57C855.901 737.048 858.024 736.217 866.33 736.217C871.129 736.217 871.221 736.217 871.775 733.079C872.513 729.48 871.775 725.604 869.929 722.835C869.191 721.82 868.637 718.959 868.637 716.375C868.729 712.314 869.191 711.299 872.421 707.7C875.651 704.101 876.758 703.455 882.296 702.439C886.449 701.609 891.709 701.332 898.446 701.793C908.044 702.347 908.506 702.255 910.721 700.132C915.889 695.333 916.904 690.442 913.951 684.628C912.197 681.213 911.92 681.121 906.291 680.475C901.584 680.013 900.015 679.367 897.892 677.337C894.386 673.83 893.186 668.385 895.124 665.063C896.508 662.756 896.508 662.386 894.57 659.71C892.447 656.664 889.033 655.926 887.279 657.957C886.818 658.603 885.803 660.91 885.157 663.032C884.603 665.247 883.68 667.001 883.311 667.001C882.111 667.001 879.712 654.357 879.712 647.713C879.712 644.113 879.25 639.314 878.604 637.007C877.681 633.592 877.035 632.67 874.451 631.839C872.144 631.101 871.406 630.362 871.406 628.609C871.406 626.117 865.407 609.505 863.377 606.367C862.454 604.983 862.177 603.137 862.638 600.646C863.284 596.677 862.362 594.185 857.101 586.249C854.24 582.003 853.963 580.896 853.686 573.144C853.41 566.776 853.594 564.469 854.517 564.192C856.64 563.361 854.702 561.054 848.518 557.178C842.889 553.578 841.966 553.302 837.259 553.671C829.599 554.225 829.045 553.302 829.045 537.151C829.045 526.353 828.676 523.4 827.107 519.432C826.092 516.663 825.262 512.51 825.262 509.557C825.262 505.496 824.708 503.651 822.585 500.605C820.186 496.913 818.986 492.668 817.417 480.763C816.863 476.702 808.834 459.629 806.619 457.783C805.973 457.23 803.02 456.03 800.159 455.107C796.745 454.092 793.145 451.969 790.1 449.293L785.301 445.14L785.947 436.095C786.685 424.652 788.531 420.683 797.483 411.639C803.482 405.548 804.497 404.902 809.573 403.887C812.618 403.333 816.956 401.672 819.078 400.288C821.57 398.719 825.077 397.519 828.584 397.058C831.537 396.688 837.167 395.581 840.951 394.566C846.765 393.089 850.456 392.812 863.561 392.997C872.236 393.089 881.188 392.905 883.588 392.535C887.464 391.889 888.294 392.074 892.171 394.75L896.416 397.704L899.554 395.212C902.415 393.089 902.784 392.351 902.784 388.567C902.784 386.075 903.522 383.214 904.537 381.461C905.552 379.892 907.86 373.616 909.705 367.525C912.935 357.281 913.581 356.082 918.38 350.913C924.102 344.73 926.779 338.362 926.779 330.702C926.779 326.918 927.24 325.811 929.824 323.319C932.408 320.643 934.346 319.905 945.882 317.228L958.987 314.183L964.432 307.999C970.339 301.447 972 297.571 972 290.188C972 285.942 971.723 285.573 965.355 279.113C957.695 271.361 950.405 266.1 948.466 266.839C947.728 267.116 946.528 268.777 945.79 270.53C944.867 272.745 943.206 274.406 940.437 275.791C938.222 276.898 934.716 279.39 932.685 281.236C929.178 284.466 928.255 284.835 921.611 285.389C915.427 286.035 913.305 285.758 907.398 284.004C897.339 280.959 893.924 280.405 885.987 280.313C878.789 280.313 871.221 278.652 857.286 274.13L850.087 271.822L828.215 273.853C811.972 275.329 803.666 275.698 795.729 275.237C784.193 274.591 780.594 273.299 775.98 268.408C774.411 266.839 772.565 265.547 771.734 265.547C770.996 265.547 768.135 264.07 765.367 262.317C762.69 260.563 759.922 259.087 759.183 259.087C758.445 259.087 757.614 257.887 757.337 256.318C756.968 254.472 756.138 253.549 755.122 253.549C754.2 253.549 751.062 252.257 748.109 250.688C743.402 248.289 733.896 245.336 730.482 245.243C729.651 245.243 729.466 246.166 729.836 248.012C730.574 251.242 729.005 253.549 726.144 253.549C725.129 253.549 723.375 254.195 722.452 254.934C720.791 256.226 720.33 256.133 717.838 253.734C712.578 248.843 705.841 245.243 701.964 245.243C697.811 245.243 691.997 242.752 687.106 239.06C684.061 236.661 682.953 236.476 673.263 235.922C662.927 235.461 662.834 235.368 659.604 232.323C657.851 230.569 656.189 228.539 655.913 227.616C655.636 226.786 654.067 225.863 652.406 225.494C650.098 225.032 649.176 225.309 647.976 226.878C646.591 228.816 646.499 228.816 643.731 225.217C642.162 223.279 640.5 221.987 640.131 222.448C639.762 222.817 639.854 225.309 640.408 227.985C641.608 233.707 640.224 236.937 636.44 236.937C633.856 236.937 632.471 234.63 634.133 232.969C636.163 230.939 635.24 228.816 632.195 228.17C630.533 227.801 628.226 226.97 627.119 226.232L624.996 224.94V232.692C624.996 238.875 624.719 240.537 623.519 240.998C621.12 241.921 618.813 241.644 615.859 239.891C613.091 238.414 612.999 238.045 612.999 232.231C612.999 228.17 612.537 225.771 611.707 225.032C611.061 224.478 610.23 222.356 609.861 220.326C609.399 217.465 608.846 216.634 607.461 216.634C606.446 216.634 605.616 216.08 605.616 215.434C605.616 214.419 602.016 212.02 600.54 212.02C600.355 212.02 599.432 213.127 598.417 214.511Z" fill="white"/>
<path d="M423.254 233.899C422.977 235.837 421.869 238.329 420.854 239.436C419.009 241.374 419.009 241.374 421.223 242.574C422.331 243.128 424.823 244.881 426.576 246.358C431.006 249.957 433.129 249.865 432.39 245.896C430.729 237.498 427.314 230.669 424.546 230.484C424.177 230.484 423.623 232.053 423.254 233.899Z" fill="white"/>
<path d="M343.332 301.448C344.255 308.093 351.823 310.123 351.823 303.847C351.823 300.248 349.977 298.771 345.547 298.771C343.148 298.771 342.963 299.048 343.332 301.448Z" fill="white"/>
<path d="M332.442 303.75C334.011 305.965 336.411 308.272 337.61 308.826C340.656 310.118 340.748 310.118 340.748 308.18C340.748 306.611 337.518 303.566 332.904 300.889C329.581 298.859 329.489 299.597 332.442 303.75Z" fill="white"/>
<path d="M140.39 374.54C140.667 382.754 140.667 382.938 138.729 381.923C137.16 381 136.606 381.277 135.314 383.215C133.93 385.338 133.376 385.522 130.054 385.061C127.47 384.6 126.639 384.692 127.008 385.43C127.931 386.907 123.871 397.52 122.394 397.52C121.656 397.52 121.102 398.535 121.102 399.827C121.102 401.673 120.641 402.134 118.795 402.134C117.226 402.134 116.118 402.965 115.196 404.718C114.457 406.103 112.796 407.764 111.504 408.41C109.474 409.333 109.105 409.241 108.551 407.487C107.997 405.734 107.443 405.641 101.721 406.01C98.3068 406.287 94.6152 407.118 93.5078 407.856C90.1854 410.256 67.5748 408.318 67.5748 405.734C67.5748 404.072 66.0059 404.995 63.9755 407.764L61.8529 410.625L64.437 413.301C66.0982 415.055 67.9439 415.978 69.6051 415.978C71.2663 415.978 72.1892 416.439 72.1892 417.362C72.1892 418.1 74.1272 420.038 76.5267 421.515C80.772 424.191 81.3257 424.284 90.1854 424.099C97.2916 423.914 99.8757 423.453 101.629 422.253C102.829 421.33 105.413 420.592 107.259 420.592C110.304 420.592 111.319 421.238 115.934 426.222L121.102 431.759V441.357C121.102 450.678 121.194 450.955 123.686 452.801C126.086 454.646 126.086 454.739 124.424 456.123C123.409 456.861 122.763 457.6 123.04 457.784C123.225 457.969 124.978 459.169 126.824 460.461L130.331 462.768L126.916 464.337L123.594 465.906L127.562 469.966C132.269 474.765 135.684 475.596 144.451 474.119C151.096 472.919 152.572 471.627 155.249 465.075C155.895 463.414 157.648 460.368 159.032 458.43C160.509 456.4 161.709 453.539 161.709 452.062C161.709 448.094 163.924 446.617 167.246 448.555C168.63 449.386 170.753 450.124 171.768 450.124C173.983 450.124 174.075 450.678 172.322 453.816C170.107 457.692 170.753 457.784 175.46 454.37C177.952 452.524 180.997 451.047 182.289 451.047C184.596 451.047 184.689 450.955 184.596 444.587C184.596 440.988 184.504 438.127 184.412 438.127C184.319 438.127 182.843 438.496 181.089 439.05L177.859 439.88L180.166 438.035C181.92 436.466 183.212 436.281 186.258 436.742C188.565 437.019 190.41 436.927 190.78 436.373C191.057 435.82 192.533 435.635 193.917 435.912C196.04 436.373 196.686 436.096 197.148 434.712C197.609 433.328 198.532 433.051 202.039 433.143C205.915 433.328 206.469 433.605 207.207 435.82C207.945 437.85 208.499 438.219 210.898 437.942C212.467 437.758 213.852 437.204 214.036 436.742C214.221 436.189 212.652 433.605 210.622 430.836C206.192 425.022 205.638 420.407 209.053 418.654C212.006 417.085 212.006 417.085 209.699 414.593C207.115 411.825 206.007 411.64 206.007 414.132C206.007 417.177 201.116 416.624 198.255 413.117C195.948 410.44 195.117 405.826 195.671 399.089C195.763 397.981 195.117 397.52 193.271 397.52C187.919 397.52 183.95 396.32 183.397 394.751C182.658 392.444 178.967 391.152 170.845 390.229C166.969 389.768 162.632 388.845 161.155 388.199C158.663 386.999 158.479 386.445 157.833 380.077C157.556 376.386 156.818 372.879 156.264 372.325C155.71 371.772 153.034 371.218 150.265 370.941C146.481 370.664 144.728 370.018 143.159 368.357C142.051 367.157 140.852 366.142 140.575 366.142C140.298 366.142 140.206 369.926 140.39 374.54Z" fill="white"/>
<path d="M227.51 381.188L221.696 383.126V387.556C221.696 390.878 222.158 392.447 223.727 394.016C224.926 395.216 226.495 397.339 227.233 398.908C227.972 400.384 229.356 401.768 230.279 401.953C232.586 402.414 236.462 399.646 236.462 397.615C236.462 396.047 238.123 394.755 240.154 394.755C240.615 394.755 241.446 397.062 242 399.83C243.015 404.906 243.107 404.906 246.429 404.906C249.475 404.814 249.66 404.722 248.275 403.614C245.783 401.768 246.245 399.83 249.66 398.261C252.336 396.969 252.797 397.062 255.381 398.538C256.95 399.554 258.611 400.292 259.165 400.292C261.38 400.292 261.38 397.154 259.257 393.924C258.058 392.078 256.766 389.679 256.397 388.479C255.381 385.433 252.705 384.418 247.168 385.064C242.646 385.618 242.092 385.526 238.031 382.388C235.632 380.542 233.601 379.066 233.417 379.158C233.324 379.158 230.648 380.081 227.51 381.188Z" fill="white"/>
<path d="M223.911 480.299C222.711 482.976 222.711 484.083 223.542 485.652C224.372 487.221 224.372 488.236 223.542 489.805C222.619 491.466 221.973 491.743 218.835 491.189C214.405 490.451 213.575 491.835 215.236 497.742C216.62 502.633 219.573 504.571 225.48 504.571H229.264L228.895 508.263C228.71 510.293 228.895 511.954 229.356 511.954C229.725 511.954 232.125 513.8 234.524 516.107L239.046 520.352L239.6 517.122C240.061 514.631 240.8 513.708 243.107 512.969C247.906 511.308 251.598 511.677 253.997 514.261C256.212 516.569 256.212 516.661 254.551 519.522L252.797 522.383L255.012 521.829C256.212 521.46 257.965 521.183 258.981 521.183C260.365 521.183 260.549 520.722 260.18 518.507C259.811 516.753 260.088 515.461 260.919 514.723C262.672 513.246 262.672 507.894 261.011 506.509C258.981 504.848 255.843 497.557 255.843 494.696C255.843 493.22 256.304 491.466 256.766 490.728C258.15 488.513 253.443 484.452 247.075 482.422C244.03 481.407 239.231 479.746 236.462 478.823C233.694 477.808 230.002 476.977 228.341 476.885C225.665 476.885 225.111 477.346 223.911 480.299Z" fill="white"/>
<path d="M132.361 494.154L127.654 500.43L119.995 502.552C115.749 503.66 110.581 504.583 108.366 504.583C106.244 504.583 102.737 505.136 100.706 505.69C96.9225 506.89 96.9225 506.89 97.5685 510.581C99.0451 519.81 99.1374 523.133 98.0299 525.809C97.0148 528.301 96.461 528.67 93.9692 528.393C91.2006 528.116 91.1083 527.932 90.1854 522.394C89.1702 515.842 85.8479 511.227 84.0944 513.811C83.633 514.55 83.3561 516.119 83.5407 517.318C84.0021 519.718 81.7872 521.748 76.1576 524.332C71.2663 526.455 70.3434 528.854 70.3434 538.268C70.3434 544.174 70.0666 546.112 69.1437 546.112C66.9288 546.112 63.791 541.867 62.4989 537.253C61.8529 534.761 60.5609 530.793 59.638 528.301C57.7922 523.502 56.0388 522.579 46.4408 521.471C41.4572 520.918 41.4572 520.918 42.1032 523.133C42.4724 524.332 42.8415 525.994 42.9338 526.732C43.2107 528.67 38.7808 529.039 35.3662 527.193L32.5052 525.717V528.485C32.5052 530.793 33.059 531.346 37.1197 533.1C39.6114 534.207 41.7341 535.684 41.7341 536.422C41.7341 537.16 42.9338 539.098 44.4104 540.76C45.887 542.513 47.3637 545.374 47.7328 547.22C48.2865 549.896 48.9326 550.819 51.1475 551.557C53.7315 552.48 53.8238 552.757 53.2701 556.264C52.8087 559.217 52.9932 560.509 54.2853 561.894C55.7619 563.555 55.7619 563.739 54.193 565.493C52.5318 567.339 52.5318 567.339 49.394 564.939C46.4408 562.724 46.3485 562.724 46.3485 564.57C46.3485 565.677 46.9945 567.8 47.8251 569.277C49.1171 571.861 49.1171 572.23 47.7328 573.799C46.1639 575.46 46.0716 575.46 43.0261 573.522C41.3649 572.415 39.4269 570.384 38.8731 568.908C38.3194 567.523 37.4888 566.416 37.0274 566.416C35.4585 566.416 35.2739 570.107 36.6582 572.876L38.1348 575.829L35.0893 575.46C31.3055 575.091 30.6595 577.029 32.9667 582.105C34.1664 584.781 36.1045 586.535 40.8112 589.396C44.2259 591.426 48.1943 593.364 49.4863 593.733C51.5166 594.195 51.8858 594.01 51.8858 592.349C51.8858 590.503 52.0704 590.411 54.3776 591.703C56.9616 592.995 57.6999 594.564 62.0375 606.284C63.6064 610.622 64.437 611.637 66.0982 611.637C69.3283 611.637 76.8959 614.498 77.4496 615.882C77.7265 616.621 79.2031 617.174 80.9566 617.174C83.4484 617.174 84.0944 617.544 84.3713 619.482C84.6481 620.774 84.5558 622.066 84.1867 622.25C82.7101 623.173 77.8188 634.894 78.0034 636.832C78.2802 639.877 74.5887 640.062 72.6507 637.201C70.3434 633.602 68.1285 634.986 66.2828 641.262C65.2676 644.584 63.5141 647.722 61.9452 649.198C60.5609 650.583 59.638 652.059 59.9149 652.428C60.7455 653.905 59.2688 657.781 57.8845 657.781C57.0539 657.781 56.5002 658.612 56.5002 659.996C56.5002 661.196 55.5773 662.765 54.4699 663.503C52.901 664.518 52.5318 665.626 52.6241 668.764C52.8087 673.655 53.2701 674.393 56.0388 674.393C57.4231 674.393 58.346 675.039 58.7151 676.423C58.992 677.623 60.0072 679.561 61.0223 680.761C62.5912 682.791 62.8681 682.884 64.8061 681.499C65.9136 680.761 68.8668 677.439 71.2663 674.116C74.7733 669.594 76.7113 667.841 79.9414 666.641L84.0944 665.072L83.9098 659.719C83.8175 655.474 84.3713 653.351 86.3093 649.475C87.8782 646.522 88.8011 643.2 88.8011 640.8C88.8011 638.678 89.4471 636.001 90.2777 634.894C91.2929 633.509 91.9389 629.356 92.4926 622.435C93.5078 607.853 93.877 607.207 102.183 603.054C106.244 601.024 111.227 599.455 114.18 599.086C117.964 598.624 119.349 598.071 119.718 596.779C120.641 594.102 124.424 594.471 125.163 597.332C125.993 600.747 128.762 600.286 130.608 596.41C132.177 592.995 134.945 591.98 134.945 594.748C135.038 598.624 136.33 598.809 141.775 595.487C147.496 592.072 149.619 592.072 149.435 595.671C149.25 597.702 149.711 598.071 152.019 598.255C153.587 598.348 156.172 598.994 157.74 599.732C160.417 600.839 160.971 600.747 162.355 599.363C163.739 597.978 163.739 597.702 162.447 596.225C159.771 593.179 156.91 586.535 157.833 585.612C159.217 584.227 163.555 584.597 169.553 586.535C172.599 587.55 175.368 588.196 175.737 587.919C176.198 587.734 176.752 585.889 177.029 583.951C177.398 581.92 178.228 579.798 178.874 579.244C179.613 578.69 180.167 576.844 180.167 575.183C180.167 573.522 180.72 571.769 181.366 571.215C182.289 570.476 182.935 571.215 184.135 574.814C185.519 578.506 186.165 579.336 187.919 579.336C190.411 579.336 190.872 578.598 191.703 572.322C192.072 569.738 193.271 566.877 194.379 565.677L196.317 563.463L193.271 560.971C190.226 558.571 190.226 558.479 191.979 556.91C194.656 554.511 198.993 554.88 200.285 557.648C200.931 558.94 202.408 560.417 203.7 561.063C206.561 562.355 209.145 560.417 210.714 555.526C211.36 553.68 212.56 550.911 213.483 549.342C214.498 547.866 215.236 545.651 215.236 544.451C215.236 542.605 215.605 542.421 217.359 542.975C218.466 543.344 219.666 543.99 219.943 544.451C220.312 545.097 221.235 545.005 222.435 544.359C224.373 543.344 225.203 540.76 225.572 533.653L225.849 529.962L227.695 533.007C229.172 535.499 230.002 536.053 232.125 535.684C233.878 535.499 234.617 535.776 234.617 536.699C234.617 539.006 238.124 543.897 240.615 545.005C243.199 546.205 243.384 545.743 241.538 542.421C240.8 541.129 240.246 539.56 240.154 538.914C240.154 537.437 242.923 537.53 245.045 539.191C247.076 540.667 251.228 539.283 251.228 537.253C251.228 534.576 242.553 525.994 238.308 524.425C236.001 523.686 231.848 521.564 229.079 519.902C224.649 517.318 223.911 516.396 222.804 512.612C221.604 508.366 221.512 508.274 218.005 508.274C214.959 508.274 213.206 507.351 207.761 503.198C204.161 500.43 200.562 498.122 199.639 498.122C198.809 498.122 196.963 497.476 195.486 496.738C194.102 496 191.795 495.354 190.411 495.354C189.026 495.354 187.088 494.708 185.888 493.969C184.412 492.862 182.658 492.677 179.059 493.047C170.938 493.97 170.476 494.246 169.276 497.384C168.63 499.045 167.431 501.445 166.508 502.552L164.847 504.767L161.986 502.368C158.848 499.691 155.433 499.23 154.695 501.353C154.326 502.091 153.034 502.737 151.557 502.737C149.527 502.737 147.958 501.445 143.713 496C140.759 492.401 138.083 488.986 137.714 488.617C137.345 488.155 134.945 490.647 132.361 494.154Z" fill="white"/>
<path d="M36.1967 552.749C34.9047 553.303 32.4129 553.949 30.6594 554.318C27.1525 554.964 26.2296 556.718 28.0753 559.302C29.1828 560.686 29.9211 560.778 34.8124 559.856C37.8579 559.302 40.6265 558.564 41.088 558.194C42.1032 557.179 40.8111 551.642 39.5191 551.734C38.9654 551.734 37.4887 552.196 36.1967 552.749Z" fill="white"/>
<path d="M127.562 613.286C127.562 614.209 126.916 615.87 126.086 617.07C124.701 619.1 124.701 619.285 126.455 621.039L128.3 622.977L131.623 620.946C133.469 619.746 134.945 618.731 134.945 618.547C134.945 618.362 134.115 616.701 133.007 614.947C130.977 611.441 127.562 610.425 127.562 613.286Z" fill="white"/>
<path d="M347.577 617.994C345.455 619.286 344.532 620.763 343.794 624.085C342.502 629.715 343.148 631.93 346.009 631.93C347.762 631.93 348.593 631.099 350.161 627.592C351.177 625.285 352.284 621.778 352.469 619.748C353.022 615.687 352.007 615.318 347.577 617.994Z" fill="white"/>
<path d="M234.893 707.792C234.34 708.438 234.155 710.56 234.34 712.406C234.709 714.99 235.263 715.913 236.462 715.913C237.385 715.913 238.77 716.19 239.6 716.467C240.8 716.928 241.077 716.282 241.077 713.329C241.077 711.299 240.8 708.991 240.523 708.161C239.877 706.407 236.185 706.223 234.893 707.792Z" fill="white"/>
<circle id="213" cx="452" cy="278" fill="#5CE50D"/>
<circle id="216" cx="422" cy="569" fill="#E52A0D"/>
<circle id="215" cx="962" cy="291" fill="#E52A0D"/>
<circle id="214" cx="751" cy="582" fill="#E52A0D"/>
</svg>
