<svg width="1000" height="1000" viewBox="0 0 1000 1000" fill="none" xmlns="http://www.w3.org/2000/svg">
<path d="M132.224 20.7335C128.547 23.5618 127.51 23.9388 122.325 23.9388C118.271 23.9388 113.18 25.0701 105.072 27.6156L93.5708 31.2923L86.0288 29.0297C79.0524 26.8614 78.3925 26.39 76.0356 22.4305L73.5845 18.2823L69.4363 21.2049C67.1737 22.8076 65.0997 25.0701 64.8169 26.2957C63.9684 29.6896 55.955 37.0431 52.3725 37.703C50.5813 37.9858 48.8844 38.6458 48.6015 39.2114C48.3187 39.6828 48.0359 46.5649 48.0359 54.5783L47.9416 69.0967L52.8439 80.4097C55.4836 86.7261 57.652 93.0425 57.652 94.8338C57.5577 96.5307 56.6149 102.659 55.3893 108.315C53.1267 119.628 50.3928 124.625 41.4366 134.712C38.137 138.389 36.5343 141.406 34.1774 148.571L31.1606 157.715L36.44 171.102C39.3626 178.456 41.5309 184.961 41.2481 185.526C41.0595 186.092 40.0225 188.826 38.8912 191.56L36.9114 196.462L41.6252 201.648C46.716 207.304 46.6218 206.738 43.9821 215.6C42.8508 219.371 43.0393 220.22 47.4702 233.23L52.184 246.9L37.0057 594.775C28.6152 786.153 21.8274 943.499 21.8274 944.536C21.8274 946.421 23.053 946.516 98.4731 949.532C234.889 955 358.767 958.017 476.234 958.771L581.35 959.337L585.121 952.643C592.475 939.351 593.983 937.465 597 937.465C601.242 937.465 602.939 940.859 602.185 948.118C601.808 951.324 601.242 954.906 600.96 956.037L600.488 958.206H658.75C694.481 958.206 723.329 957.734 733.228 957.074L749.349 955.943L752.648 958.771C754.534 960.28 760.85 965.842 766.79 971.121L777.631 980.737L795.921 981.869L814.304 983L821.281 979.323L828.257 975.647L834.102 956.32L839.947 936.994L864.742 930.677C878.317 927.189 889.819 923.984 890.196 923.607C890.761 922.947 908.014 871.378 908.014 870.247C908.014 869.964 913.67 871.472 920.552 873.452L932.997 877.035L950.249 859.877C966.37 843.756 967.407 842.53 967.407 839.23C967.407 836.874 966.37 834.045 964.296 830.746C962.505 828.012 960.808 823.958 960.525 821.695C960.242 819.527 958.734 815.662 957.037 813.116L954.114 808.497L955.623 797.655C956.943 787.756 956.943 786.248 955.623 781.157C952.983 770.692 954.303 761.171 958.545 761.171C959.299 761.171 961.939 762.208 964.39 763.527C968.161 765.507 969.67 765.79 973.818 765.224L978.814 764.659L975.798 761.548C973.535 759.191 971.838 758.342 969.576 758.342C966.182 758.342 963.636 756.363 961.279 751.837C960.525 750.235 959.394 748.915 958.922 748.915C957.225 748.915 951.098 742.787 946.101 735.999C943.367 732.228 939.879 728.551 938.465 727.797C936.956 727.043 932.337 722.895 928 718.464C920.552 711.016 920.175 710.451 921.307 708.188C922.249 706.02 922.061 705.265 920.364 702.814C919.233 701.306 917.253 697.535 915.839 694.518C914.519 691.501 911.973 687.353 910.276 685.185C908.202 682.639 906.977 679.905 906.6 676.7C906.223 674.155 905.091 670.949 904.149 669.535C903.112 668.215 902.075 665.67 901.697 663.879C900.755 658.976 891.421 640.875 886.425 634.559C883.974 631.354 881.24 626.64 880.297 624.189C879.354 621.738 877.186 617.59 875.489 615.044C873.792 612.593 872.095 608.916 871.812 606.842C870.775 601.751 867.476 596.378 860.971 589.684C856.163 584.876 855.22 583.368 855.22 580.634C855.22 577.994 854.466 576.863 851.072 574.129C848.149 571.677 846.452 569.226 844.944 565.267C843.812 562.344 841.456 557.536 839.664 554.614C837.873 551.691 835.328 546.223 833.914 542.358C830.425 532.553 823.826 520.769 817.415 512.756C813.55 507.948 811.665 504.648 810.91 501.443C810.345 498.991 810.062 496.729 810.345 496.54C810.533 496.352 812.136 496.823 813.739 497.672L816.755 499.274L814.304 495.975C811.382 492.109 811.099 489.658 813.739 489.658C816.661 489.658 816.19 485.321 812.796 481.456C811.288 479.759 809.968 477.685 809.968 476.931C809.968 476.177 808.554 473.914 806.762 472.029C804.877 469.86 803.368 466.938 802.991 464.675C802.143 460.056 796.486 450.345 792.904 447.423C791.49 446.292 789.793 443.746 789.133 441.766C786.965 434.979 783.665 429.511 779.423 425.834C775.18 422.063 771.786 415.746 772.446 412.635C772.635 411.41 773.483 411.033 775.557 411.221L778.385 411.504L776.311 409.807C775.086 408.864 773.86 406.696 773.577 404.999C773.106 402.925 772.069 401.417 770.278 400.474C767.073 398.871 766.884 398.117 769.335 395.949C770.655 394.723 771.598 394.629 773.577 395.383C774.992 395.854 776.5 396.326 776.971 396.326C777.82 396.326 775.934 389.632 773.389 383.787C771.786 380.205 771.032 379.639 766.224 378.131C760.19 376.151 751.8 368.986 744.824 359.747C742.561 356.824 738.884 352.393 736.716 349.942C734.453 347.491 732.662 345.04 732.662 344.569C732.662 343.249 720.406 327.411 717.484 324.959C714.844 322.697 713.43 318.549 712.393 309.593C711.733 304.69 711.45 304.219 706.642 300.636C703.625 298.468 700.891 295.546 700.043 293.66C699.289 291.869 697.875 289.889 696.932 289.135C694.104 287.155 692.689 281.781 694.009 278.388C695.895 273.862 694.669 258.778 691.652 250.105C689.673 244.354 688.447 242.28 685.43 239.923C676.191 232.476 671.572 212.772 677.04 203.816C678.171 201.93 678.548 199.951 678.265 197.499C677.794 194.388 678.171 193.634 680.811 191.466C684.299 188.543 687.41 188.072 687.41 190.617C687.41 191.56 688.73 193.54 690.238 195.048C691.841 196.557 693.066 198.348 693.066 199.102C693.066 199.951 694.198 202.402 695.518 204.759C697.592 208.247 697.969 210.038 697.969 215.506C697.875 220.597 698.346 222.765 699.666 224.651C700.609 225.971 702.117 230.496 702.965 234.644C704.38 241.526 704.851 242.563 708.905 246.711C712.204 250.105 713.618 252.368 714.278 255.573C715.127 259.532 715.598 260.098 718.332 260.947C720.501 261.512 722.763 263.492 725.591 267.169C727.854 270.186 731.908 274.334 734.548 276.596C739.167 280.462 739.261 280.65 739.261 285.647C739.261 288.475 740.11 292.812 741.053 295.451C742.467 299.222 742.75 301.673 742.372 307.518C741.712 316.475 743.409 320.529 750.48 326.656C753.214 329.202 756.231 333.067 758.022 336.555C760.756 342.212 761.039 342.495 767.167 344.569L773.483 346.831L776.594 353.431C778.291 357.013 781.497 362.104 783.571 364.744C785.739 367.289 788.567 371.437 789.887 373.982C791.584 377.376 792.998 378.885 795.638 379.922C810.533 385.955 810.628 385.955 811.759 389.726C812.607 392.649 813.55 393.592 817.321 395.194C819.772 396.231 823.92 397.268 826.466 397.646C831.84 398.305 830.237 399.625 842.587 383.599L849.092 375.114V367.1C849.092 361.067 848.715 358.427 847.489 356.542C844.944 352.676 846.264 345.794 851.26 336.084C853.523 331.653 855.974 325.337 856.634 322.225C857.388 319.02 858.802 314.683 859.934 312.515C861.348 309.687 861.819 307.047 861.725 303.182C861.63 300.259 862.008 296.583 862.667 295.168C863.233 293.66 863.705 290.738 863.705 288.569C863.705 286.401 864.364 283.384 865.213 281.781C866.533 279.236 866.438 275.088 865.024 269.903C864.742 269.054 865.684 267.074 867.004 265.472C868.418 263.775 869.738 260.57 870.304 257.553C870.775 254.819 873.886 247.088 877.374 240.206L883.502 227.856L881.711 222.765C880.768 219.937 879.543 214.186 878.883 209.944C878.223 205.419 876.243 198.536 874.169 193.351C872.189 188.543 867.664 175.533 864.082 164.503C857.294 143.385 857.859 144.422 851.732 142.254C850.977 141.971 850.977 140.934 851.637 138.012C852.58 134.524 852.391 133.958 850.506 131.884C848.715 129.998 848.432 128.961 848.998 126.039C849.469 122.833 848.149 119.062 837.307 93.7025C830.52 77.8643 823.826 63.5344 822.318 61.7432L819.678 58.5378L815.53 60.1405C813.362 61.0833 810.062 63.063 808.365 64.5715C803.934 68.4367 795.732 72.3963 786.87 74.8474C780.648 76.6387 777.914 76.9215 770.844 76.4501C766.224 76.1673 761.039 75.4131 759.342 74.8474C755.759 73.5276 751.234 74.7532 745.672 78.3356C743.786 79.6555 740.487 80.881 738.413 81.1639C734.83 81.6353 734.548 81.541 734.548 79.4669C734.548 76.1673 732.002 72.9619 729.268 72.9619C728.043 72.9619 725.403 74.376 723.329 76.2616C720.218 79.0898 718.992 79.5612 715.127 79.5612C711.356 79.5612 710.13 80.0326 707.585 82.4837L704.568 85.4062L697.969 84.275C691.464 83.0494 691.37 83.0494 686.844 77.2043C682.885 72.1135 672.42 63.5344 670.158 63.5344C669.781 63.5344 667.989 64.4772 666.292 65.6085C663.841 67.2112 662.71 68.9081 661.484 73.1505C659.787 78.4299 659.787 78.5242 655.168 79.5612C651.303 80.504 650.266 80.504 648.286 79.1841C646.4 77.8643 645.929 76.8272 645.929 73.4333V69.1909H635.747H625.565L621.135 64.6657C617.364 60.8004 616.704 59.6691 616.704 56.3695C616.704 52.6927 616.892 52.5042 622.831 49.2989C629.336 45.905 630.845 42.9824 627.168 40.9084C623.586 39.0229 620.098 39.8713 613.498 44.3023C605.768 49.4874 607.276 49.676 587.855 40.437C576.542 35.0634 574.845 34.4977 565.512 33.4606C553.634 32.1408 551.277 32.5179 539.398 37.1374C527.425 41.8511 515.452 43.6423 510.173 41.4741C508.099 40.6255 506.119 39.9656 505.836 39.9656C505.553 39.9656 503.196 44.3965 500.651 49.7703C496.786 57.7836 495.466 59.7634 493.109 60.8004C490.375 61.8375 490.281 62.026 491.789 63.1573C493.392 64.2886 493.297 64.4772 490.941 65.4199C487.075 66.834 486.604 66.6455 481.796 62.5917C479.345 60.5176 477.082 58.8207 476.799 58.8207C476.516 58.8207 470.483 63.3459 463.318 69.0024C443.709 84.275 435.507 89.8372 421.648 97.3792C410.147 103.601 408.45 104.261 402.322 104.733C393.837 105.298 389.972 103.79 376.962 94.3624C371.682 90.4971 364.518 85.8776 361.029 83.9921C354.807 80.504 354.619 80.504 339.346 79.5612C325.299 78.7127 312.666 77.4871 304.936 76.2616C301.259 75.6016 298.996 72.302 298.148 66.457C297.582 62.2146 297.488 62.1203 294.283 62.4031C292.491 62.5917 288.155 64.1943 284.667 65.9856C279.858 68.4367 277.125 69.1909 273.354 69.1909C268.451 69.1909 268.263 69.0967 261.569 62.4031C256.478 57.3123 254.687 54.9554 254.687 53.0699C254.687 50.3359 253.273 49.3931 249.125 49.3931C247.711 49.3931 242.808 47.979 238.283 46.1878C229.704 42.7939 218.862 39.9656 214.526 39.9656C213.112 39.9656 210.661 39.1171 209.058 38.1744C206.795 36.7603 203.59 36.1946 194.822 35.7233C178.418 34.8748 165.031 31.0095 156.169 24.5988C151.833 21.4877 147.779 19.4136 144.385 18.5652C137.314 16.9625 136.937 16.9625 132.224 20.7335Z" fill="white"/>
<circle id="197" cx="593" cy="194" fill="#5CE50D"/>
<circle id="198" cx="450" cy="87" fill="#E52A0D"/>
<circle id="944" cx="681" cy="530" fill="#E52A0D"/>
<circle id="1612" cx="790" cy="459" fill="#E52A0D"/>
</svg>
