<svg width="1000" height="1000" viewBox="0 0 1000 1000" fill="none" xmlns="http://www.w3.org/2000/svg">
<path d="M268.603 97.1028C265.219 97.7609 260.049 99.547 257.041 101.051C252.058 103.495 251.212 104.435 247.358 111.298C243.692 117.784 242.282 119.382 237.958 122.014C232.506 125.304 231.565 126.714 230.531 133.765C230.061 136.585 229.215 138.465 228.087 139.029C225.643 140.439 221.319 140.157 219.063 138.559C217.277 137.337 216.619 137.337 212.765 138.747L208.44 140.345V146.267V152.19H205.15H201.86V147.019C201.86 144.199 201.578 141.849 201.202 141.849C200.732 141.849 198.194 142.789 195.468 143.917C190.579 146.079 190.485 146.173 190.767 149.839C191.049 153.506 190.955 153.6 184.939 156.984L178.829 160.462L177.043 156.984C176.103 155.104 175.163 153.412 174.975 153.224C174.693 152.942 165.104 155.856 164.352 156.514C164.164 156.702 163.694 160.274 163.224 164.504C162.848 168.64 162.284 172.307 162.096 172.589C161.814 172.777 156.644 173.905 150.627 175.033L139.629 177.101L134.083 183.399L128.63 189.792L129.1 200.414L129.664 210.943L124.964 217.711C122.332 221.471 119.982 225.795 119.606 227.299C119.23 228.897 118.76 230.214 118.478 230.214C118.196 230.214 115.752 228.897 113.214 227.299L108.419 224.385L97.1387 227.675L85.8582 230.966L82.944 228.709C80.8759 227.111 78.1498 226.265 74.1076 225.889L68.1853 225.231L68.8433 231.718C69.4073 237.546 69.2193 238.486 67.2452 241.4L64.9891 244.596L69.2193 257.193C73.3555 269.131 73.4496 269.884 71.8515 271.106C70.7234 271.952 69.9714 274.114 69.5954 277.592C69.0313 282.856 69.0313 282.856 63.8611 285.77L58.7848 288.778L59.5369 293.573C60.0069 296.205 60.1949 302.315 60.1009 307.015C59.8189 315.57 59.8189 315.758 62.827 319.424C64.5191 321.586 66.9632 323.466 68.4673 323.748C69.9714 324.124 71.3814 324.688 71.5695 325.064C71.7575 325.346 71.1934 328.448 70.2534 331.739C68.8433 337.003 68.7493 338.225 69.8774 340.293C70.5354 341.703 71.5695 344.617 72.0395 346.873C72.9795 350.916 72.8855 351.104 69.3133 354.77L65.5532 358.53L61.0409 387.107C56.6227 414.557 56.3407 415.779 53.8966 417.753C51.9225 419.351 50.7004 422.077 48.0683 431.478C41.676 454.415 39.3258 465.131 35.4716 489.667L31.5235 514.578L27.5753 517.868C25.5072 519.654 22.499 522.192 21.0889 523.508L18.3628 525.952L21.747 540.899C23.6271 549.172 27.6693 570.699 30.7714 588.842C34.4376 610.087 37.2577 623.999 38.8558 628.041C40.6419 632.648 41.2059 635.75 41.0179 640.262C40.8299 646.466 42.24 650.697 46.0942 654.833C48.8203 657.841 50.6064 657.559 60.2889 652.859L68.8433 648.629L80.1239 648.441C93.2845 648.252 97.2327 649.193 103.907 654.175L108.607 657.747L113.59 654.739C117.632 652.295 118.76 651.167 118.948 648.911C119.888 639.51 124.024 631.802 129.758 628.512C133.613 626.443 147.149 626.255 151.097 628.323C154.012 629.828 159.84 639.228 161.062 644.304C161.908 647.97 164.822 651.073 168.018 651.825C170.18 652.295 171.026 653.329 172.342 656.995C173.377 660.003 174.787 661.883 176.291 662.635C177.607 663.199 178.641 663.481 178.735 663.387C178.829 663.199 187.571 639.604 198.006 610.933C208.534 582.261 217.653 558.478 218.217 558.102C221.601 555.846 223.575 557.444 232.976 569.947C236.172 574.177 240.026 578.313 241.718 579.159C247.452 582.167 254.691 583.859 259.485 583.295C261.929 582.919 265.407 582.919 267.099 583.295C270.107 583.765 270.389 584.235 271.987 589.876C273.68 595.798 274.244 596.362 287.686 609.523L301.505 623.153H307.145C311.939 623.153 314.384 622.401 325.006 617.607C336.005 612.531 337.791 612.061 341.739 612.437C345.499 612.907 347.285 612.437 354.148 609.241C360.446 606.326 363.36 604.258 368.06 599.37C371.632 595.61 373.889 592.414 373.983 591.004C373.983 589.876 374.453 587.431 375.111 585.645C376.051 582.919 376.991 582.261 381.879 580.757C388.741 578.501 391.279 578.407 395.698 579.817C399.364 581.039 403.218 586.209 404.534 591.756C404.91 593.26 406.226 595.704 407.448 597.114C409.892 600.122 410.268 604.54 408.2 606.232C407.26 606.984 406.79 609.053 406.79 611.967C406.79 615.633 407.166 616.573 408.67 617.043C411.302 617.889 412.148 617.137 412.807 613.377C413.559 609.711 418.071 606.232 422.113 606.232C425.215 606.232 425.967 604.916 425.685 600.31C425.497 597.02 425.685 596.738 427.659 597.02C429.257 597.208 429.915 598.054 430.103 599.84C430.479 603.036 432.078 603.506 441.572 603.694C450.784 603.882 452.289 602.848 448.716 598.712C447.4 597.114 446.272 595.422 446.272 595.14C446.272 592.132 448.716 587.055 451.16 585.081C454.733 582.073 458.117 582.355 462.441 586.021C463.945 587.337 466.107 588.371 467.235 588.371C468.363 588.371 470.619 589.218 472.312 590.158C473.91 591.192 477.012 592.508 479.08 593.072C481.618 593.73 483.686 595.14 485.378 597.302C487.164 599.652 488.574 600.592 490.454 600.592C491.865 600.592 493.557 601.25 494.309 602.096C496.471 604.728 503.991 607.924 506.717 607.454C508.127 607.172 509.255 606.608 509.255 606.138C509.255 605.762 511.135 604.07 513.486 602.472C517.058 600.028 517.716 599.088 517.716 596.456C517.716 592.79 520.63 589.312 523.826 589.312C525.048 589.312 526.646 589.03 527.492 588.747C528.526 588.371 530.218 590.816 534.261 598.9C537.175 604.728 539.619 609.617 539.713 609.711C539.807 609.899 541.217 609.429 542.815 608.865C545.541 607.83 548.549 608.865 587.279 624.563L628.829 641.39L661.449 681.154C693.693 720.542 694.069 720.918 699.803 723.456C705.443 725.9 705.725 726.182 710.801 735.019C718.134 747.709 728.85 757.956 748.967 771.493L764.478 781.927L787.039 806.744C804.43 825.827 810.822 832.22 814.959 834.664C818.813 836.92 823.043 840.962 829.717 848.765C838.554 858.917 839.588 859.857 845.792 862.395C851.526 864.839 854.253 866.907 865.157 877.248L877.754 889.375L882.266 885.614L886.778 881.76L894.675 886.084C898.999 888.435 906.331 893.417 911.031 897.177L919.398 903.945L927.012 900.655C931.242 898.869 935.191 896.989 935.755 896.519C937.917 894.827 938.199 889.563 936.413 886.46L934.721 883.64L939.891 878.188C942.711 875.18 945.813 871.42 946.847 869.822C948.257 867.377 949.291 866.719 952.582 866.343C954.744 866.155 957.564 865.121 958.88 864.181C960.102 863.147 965.554 860.515 970.912 858.259C976.271 855.909 980.877 854.029 980.971 853.841C981.159 853.747 980.407 852.337 979.279 850.833C977.775 848.859 976.835 845.286 975.801 837.108C974.485 827.425 974.015 825.921 972.323 825.263C971.194 824.887 968.28 822.819 965.836 820.751C961.606 817.367 961.042 817.085 958.504 818.119C956.906 818.683 956.154 819.247 956.718 819.435C957.188 819.623 957.658 820.939 957.658 822.349C957.658 823.759 958.128 825.357 958.786 826.015C960.196 827.425 957.282 829.87 954.274 829.964C953.146 829.964 951.736 830.622 951.077 831.374C949.197 833.63 946.001 833.066 943.087 829.964C941.583 828.366 939.797 827.143 939.139 827.143C938.481 827.143 937.917 826.767 937.917 826.203C937.917 824.605 934.063 823.101 932.935 824.229C931.524 825.639 929.268 825.545 927.2 824.041C925.978 823.101 925.038 819.905 923.816 812.103C921.56 798.472 920.996 797.438 915.45 796.592C909.621 795.746 908.399 794.9 905.109 790.106C903.511 787.849 900.127 784.465 897.495 782.585C894.393 780.423 892.795 778.543 892.795 777.227C892.795 776.005 892.043 775.065 890.82 774.783C889.316 774.407 889.034 773.749 889.41 772.057C890.444 768.109 886.684 769.237 884.24 773.561C882.642 776.287 881.702 777.227 880.574 776.757C879.822 776.381 876.344 775.911 872.772 775.629C864.499 775.065 862.807 773.091 862.243 762.656C861.961 756.922 861.397 754.948 859.611 752.504C858.295 750.906 856.791 747.239 856.133 744.325C855.193 740.189 854.347 738.779 851.903 737.181C849.27 735.395 848.8 734.549 848.33 729.755C847.954 726.276 847.108 723.644 845.886 722.422C844.852 721.294 841.844 718.004 839.024 714.996C833.196 708.51 830.187 706.723 827.273 707.851C824.077 709.074 824.641 710.296 828.777 710.954C834.418 711.8 837.426 715.466 833.478 716.5C831.503 717.064 831.597 717.252 834.888 721.012C836.768 723.268 838.272 725.43 838.272 725.9C838.272 727.404 831.315 720.73 829.717 717.722C827.273 713.21 824.453 711.142 820.975 711.236C818.155 711.33 817.497 710.766 813.455 704.467C808.284 696.383 798.32 686.512 794.466 685.666C787.791 684.162 780.459 680.684 776.229 676.924C772.563 673.728 770.494 672.694 766.358 672.036C758.462 670.72 758.932 671.19 748.591 655.961C746.241 652.483 741.447 647.218 737.969 644.304C733.645 640.638 730.73 637.254 728.85 633.588C726.594 629.17 710.143 608.865 697.829 595.422C695.949 593.354 693.035 589.312 691.436 586.491C689.65 583.671 686.454 580.099 684.104 578.407C681.754 576.715 677.9 573.613 675.55 571.545C672.542 568.913 670.379 567.69 668.405 567.69C666.901 567.69 664.833 567.032 663.799 566.28C662.765 565.434 659.851 564.964 656.561 564.87C651.766 564.87 651.014 564.588 650.074 562.52C648.1 558.102 642.366 556.88 624.317 556.974L608.242 557.162L606.644 554.154C605.422 551.898 605.14 549.36 605.328 544.189L605.61 537.327L601.568 534.131C597.15 530.747 593.014 530.089 591.039 532.439C590.381 533.191 589.535 533.849 589.065 533.849C587.749 533.849 587.091 530.089 588.125 528.772C590.287 526.234 588.313 524.448 583.425 524.448C579.007 524.448 578.725 524.26 578.161 521.628C577.503 518.056 575.153 517.962 572.803 521.534C571.768 522.944 570.17 524.73 569.136 525.294C567.632 526.328 566.974 526.14 565.094 524.354C563.872 523.226 562.838 521.44 562.838 520.5C562.838 518.526 562.744 518.526 559.642 519.842C558.138 520.5 557.198 521.816 557.01 523.414C556.634 526.516 554.19 526.986 552.968 524.26C551.651 521.346 550.335 521.534 549.395 524.918C548.925 526.422 548.173 528.396 547.797 529.149C546.763 531.311 542.157 533.191 538.115 533.097C533.133 532.909 522.04 527.362 521.664 524.918C520.724 518.714 518.468 515.048 513.956 512.604C509.349 510.066 507.375 507.339 507.375 503.297C507.375 501.981 506.623 500.571 505.495 500.007C504.461 499.443 503.615 498.503 503.615 497.939C503.615 497.281 502.675 495.871 501.547 494.649C499.949 492.957 499.761 492.205 500.607 491.359C502.205 489.761 502.017 487.128 500.325 486.094C499.009 485.436 499.197 484.872 501.265 481.77C507.093 473.122 501.829 465.695 482.652 455.543C477.388 452.723 476.448 452.441 473.44 453.381C471.559 453.945 468.645 456.013 466.953 457.987C464.133 461.277 463.757 462.311 463.381 468.892C463.193 472.84 463.475 478.574 464.133 481.582C465.073 486 465.543 486.846 466.765 486.376C470.901 484.684 471.089 485.06 472.5 496.247C473.816 506.587 473.534 512.134 471.747 514.954C470.995 516.082 470.243 516.082 466.765 514.672C464.603 513.826 461.501 512.134 459.997 510.912C457.459 508.844 457.271 507.997 456.519 499.349C455.861 491.735 455.109 488.727 452.477 482.992C450.69 479.138 448.434 474.908 447.4 473.686C446.46 472.37 444.674 468.139 443.452 464.191C440.914 455.449 435.838 448.868 430.385 447.27C427.283 446.33 425.967 446.518 421.455 448.21L416.191 450.185L414.781 447.364C413.935 445.766 413.371 442.1 413.371 438.716C413.371 435.426 412.807 430.068 412.055 426.683C411.302 423.299 410.456 418.223 410.08 415.403C409.14 408.352 407.542 405.626 402.842 402.994C399.458 401.114 398.706 400.08 396.92 394.722C395.698 391.338 393.254 385.227 391.279 381.091C389.399 376.955 385.169 365.956 381.879 356.65C375.957 340.011 372.761 325.816 365.992 287.086C363.172 271.2 356.592 250.049 348.319 230.59C339.765 210.661 337.039 203.046 335.347 194.022C334.595 190.074 333.373 187.535 331.492 185.561C329.706 183.681 328.484 181.049 327.826 177.759C327.356 174.939 324.818 169.11 322.092 164.128C319.366 159.334 315.418 152.19 313.256 148.147C311.093 144.105 307.145 138.371 304.513 135.363C301.881 132.355 297.933 126.808 295.677 122.954C291.352 115.716 276.312 95.6928 275.278 95.8808C274.996 95.9748 271.987 96.5388 268.603 97.1028Z" fill="white"/>
<path d="M487.728 352.419C486.882 355.051 486.976 355.803 488.198 357.213C489.796 358.999 489.42 359.281 483.404 360.127C480.772 360.503 480.396 364.734 482.84 366.896C484.344 368.306 484.908 368.306 486.694 367.272C488.48 366.144 488.95 366.332 490.736 368.588C492.71 371.032 494.497 371.69 498.351 371.408C499.761 371.22 499.949 370.75 499.385 368.588C499.103 367.178 498.163 365.768 497.505 365.298C494.779 363.794 493.181 361.537 494.027 360.691C495.155 359.563 501.171 360.221 505.213 361.913C507.939 363.041 508.503 362.947 509.913 361.631C512.263 359.187 510.007 357.119 505.025 357.119C501.735 357.119 500.889 356.743 500.513 355.145C500.043 353.453 499.573 353.265 495.719 353.829C493.275 354.205 491.394 354.111 491.394 353.641C491.394 353.171 490.83 352.043 490.172 351.009C488.95 349.411 488.762 349.505 487.728 352.419Z" fill="white"/>
<path d="M403.688 354.014C403.312 354.296 403.03 355.988 403.03 357.774C403.03 360.5 403.312 360.876 405.38 360.876C408.671 360.876 409.141 362.662 407.354 368.584C406.602 371.31 406.132 373.661 406.32 373.849C406.508 374.131 407.825 373.567 409.141 372.72C412.055 370.746 412.337 365.294 409.705 360.124C407.731 356.176 404.628 353.073 403.688 354.014Z" fill="white"/>
<path d="M482.276 386.914C480.02 387.102 478.234 387.666 478.234 388.136C478.234 389.358 482.558 390.392 483.874 389.546C485.096 388.794 490.454 393.494 490.454 395.374C490.454 396.032 489.42 396.596 488.104 396.596C486.036 396.596 485.754 396.972 485.754 399.792C485.754 402.142 486.224 403.176 487.446 403.458C488.762 403.741 488.668 404.023 486.694 404.869C484.626 405.715 483.968 405.433 481.524 402.894L478.704 399.98L478.14 405.057C477.858 407.877 477.764 410.509 477.952 410.885C478.516 412.013 481.618 411.825 484.344 410.509C486.694 409.475 487.164 409.757 492.522 415.115C496.941 419.533 498.069 421.225 497.599 422.729C496.753 425.268 492.616 426.302 490.454 424.328C489.608 423.575 488.198 423.105 487.446 423.387C486.506 423.764 485.754 422.823 484.814 420.191C484.156 418.029 482.558 415.679 481.336 414.927C477.482 412.389 475.696 415.491 479.174 418.687C480.208 419.627 481.054 421.319 481.054 422.447C481.054 423.67 481.712 424.798 482.464 425.174C483.216 425.456 483.874 426.396 483.874 427.336C483.874 430.626 485.472 431.754 489.42 431.566C491.582 431.378 494.12 431.942 495.437 432.788C497.223 433.916 498.257 434.01 500.889 433.164C502.675 432.506 504.461 431.66 505.025 431.284C506.623 429.78 508.879 430.438 511.605 433.258C513.109 434.762 514.707 436.078 515.177 436.078C515.648 436.078 515.742 434.762 515.366 433.258L514.707 430.438H520.724C525.048 430.438 527.398 430.908 529.466 432.318C533.132 434.762 536.235 434.762 536.987 432.318C537.645 430.344 540.277 429.874 542.909 431.284C543.849 431.754 545.635 431.942 547.045 431.66C549.207 431.284 549.489 430.908 548.737 429.498C548.173 428.558 547.797 426.302 547.797 424.422C547.797 420.097 546.105 419.157 543.661 422.165C541.593 424.704 537.457 427.242 537.457 426.02C537.457 425.644 538.585 424.422 539.995 423.293L542.533 421.319L539.901 419.627C537.739 418.123 537.175 418.123 536.423 419.251C535.765 420.285 535.577 420.097 535.577 418.593C535.577 415.397 532.568 413.611 526.364 412.953C520.818 412.295 520.536 412.389 519.502 414.739C517.904 418.311 519.69 420.473 522.98 418.969C524.672 418.123 525.612 418.217 526.364 418.969C527.21 419.815 527.022 420.097 525.612 420.097C524.672 420.097 523.356 421.037 522.886 422.165C521.852 424.61 517.904 425.362 512.921 424.14C509.913 423.293 509.725 422.917 507.845 415.303C505.495 406.185 504.461 403.835 501.453 401.766C499.855 400.638 499.385 399.416 499.385 396.314C499.385 392.46 499.291 392.366 494.966 390.862C492.522 390.11 489.702 388.7 488.762 387.854C487.822 387.008 486.882 386.35 486.6 386.444C486.412 386.538 484.438 386.726 482.276 386.914Z" fill="white"/>
<path d="M603.824 434.112C602.038 435.898 601.568 437.026 602.32 437.496C602.884 437.872 603.448 437.966 603.636 437.872C607.678 431.762 607.772 429.976 603.824 434.112Z" fill="white"/>
<path d="M527.21 483.927C525.612 484.961 527.022 487.781 529.09 487.781C530.218 487.781 530.876 487.123 530.876 485.995C530.876 484.021 528.902 482.893 527.21 483.927Z" fill="white"/>
<path d="M529.278 492.668C525.33 494.548 527.022 502.82 531.346 502.82C533.415 502.82 533.603 502.444 533.415 498.966C533.321 496.24 533.791 494.736 534.919 493.89C538.021 491.634 533.415 490.694 529.278 492.668Z" fill="white"/>
<path d="M537.457 514.015C537.457 515.049 537.081 516.177 536.517 516.459C535.107 517.305 535.389 522.193 536.987 523.509C538.867 525.107 541.217 524.355 543.473 521.347C545.353 518.809 545.353 518.715 543.661 515.519C541.593 511.759 537.457 510.819 537.457 514.015Z" fill="white"/>
<circle id="209" cx="358" cy="482" fill="#5CE50D"/>
<circle id="210" cx="258" cy="422" fill="#E52A0D"/>
<circle id="211" cx="58" cy="524" fill="#E52A0D"/>
<circle id="1259" cx="915" cy="807" fill="#E52A0D"/>
</svg>
