<svg width="1000" height="1000" viewBox="0 0 1000 1000" fill="none" xmlns="http://www.w3.org/2000/svg">
<path d="M306.78 104.64C305.803 106.984 301.409 117.726 296.917 128.468C289.983 145.265 288.518 147.999 287.346 146.828C286.663 146.046 285.295 145.46 284.319 145.46C283.245 145.46 281.877 143.996 280.803 141.457C278.557 136.671 274.553 134.328 269.963 135.109C266.252 135.89 261.76 140.675 261.76 143.996C261.76 147.218 258.635 147.999 254.241 145.949C252.288 144.972 247.991 143.996 244.67 143.703C235.881 143.019 232.17 145.265 224.651 155.714L218.694 164.015L220.354 166.749C221.917 169.581 221.819 170.07 211.956 201.124C201.213 235.011 201.409 234.132 203.752 247.706C204.534 251.906 202.288 252.785 198.186 249.855C195.256 247.804 194.768 247.804 188.616 248.878C173.284 251.71 172.893 251.906 172.307 254.835C172.014 256.3 167.62 262.648 162.542 268.996C153.167 280.714 152.581 281.984 149.358 295.363C148.284 299.66 147.014 301.32 139.397 308.742C131.389 316.456 130.706 317.433 131.389 319.972C131.78 321.437 132.268 326.515 132.561 331.105L133.049 339.503L129.045 342.628C124.065 346.535 123.87 349.757 127.874 357.277L130.608 362.55L127.288 368.214C124.553 372.902 124.163 374.562 124.651 377.589C125.53 383.546 123.088 388.039 118.206 389.503C115.959 390.187 114.006 390.578 113.909 390.382C106.682 380.226 104.241 377.882 101.116 377.882C97.8931 377.882 97.6001 378.273 89.7876 391.164C82.7564 402.98 81.9751 404.738 82.9517 406.789C83.5376 408.058 83.7329 410.402 83.4399 411.867C83.0493 413.722 83.5376 416.066 84.9048 418.703C87.5415 423.878 86.7603 427.785 82.4634 431.105C79.1431 433.644 79.1431 433.742 79.1431 441.359C79.1431 448.878 79.0454 449.269 74.4556 456.691L69.6704 464.308L70.8423 498.488C71.5259 517.238 71.8189 532.96 71.6235 533.351C71.4282 533.839 70.2564 534.132 68.9868 534.132C67.229 534.132 66.5454 535.109 65.0806 539.503C63.1274 545.167 61.7603 546.144 53.3618 547.804C50.3345 548.39 48.9673 548.195 47.0142 546.828C45.647 545.851 42.4243 544.875 39.9829 544.484C36.3696 544.093 34.9048 544.386 32.2681 546.242C29.5337 548.097 28.4595 548.292 25.5298 547.511C23.186 546.925 20.647 546.925 17.9126 547.707L13.9087 548.781L13.2251 556.105C12.5415 563.332 12.4439 563.527 8.04933 567.433C1.31105 573.292 -0.251454 576.417 0.236827 583.156C0.822765 590.675 2.67823 592.726 9.2212 592.726C12.7368 592.726 16.0571 593.605 20.354 595.656C25.0415 597.902 26.9946 598.292 28.3618 597.609C31.0962 596.144 31.8775 596.339 35.4907 599.562C38.5181 602.199 39.0064 602.296 40.1782 600.929C41.8384 598.878 46.5259 599.855 49.8462 602.882C51.2134 604.152 53.4595 605.812 54.9243 606.496C58.9282 608.644 67.522 620.558 69.3774 626.808C70.8423 631.691 71.4282 632.57 76.0181 635.207C78.7524 636.769 81.2915 639.015 81.6821 640.089C83.7329 647.316 86.5649 649.855 94.2798 651.71C98.5767 652.785 101.604 656.007 101.604 659.621C101.604 663.917 104.045 667.042 107.268 666.75C110.295 666.554 114.202 668.41 116.057 671.046C116.741 672.023 118.694 673.488 120.354 674.367C122.502 675.441 123.186 676.417 122.795 677.785C122.502 678.859 123.284 682.765 124.553 686.378C125.725 689.992 127.092 694.972 127.483 697.316C127.874 699.757 129.631 703.566 131.487 706.105C134.124 709.621 134.807 711.574 134.807 714.894C134.807 717.824 136.174 722.609 139.397 730.128C143.889 740.578 144.28 741.164 148.674 743.605C154.436 746.73 154.631 747.121 153.459 751.515C152.678 754.25 152.874 755.714 154.045 758.253L155.608 761.476L161.663 758.546L167.62 755.519L171.624 758.058C175.139 760.304 176.018 760.5 178.948 759.523C181.975 758.644 182.854 758.839 186.272 761.085C189.69 763.332 190.276 764.308 190.862 768.214C191.35 772.218 191.155 773.097 189.104 775.246C186.858 777.687 186.76 778.078 187.249 789.503C187.737 800.636 187.932 801.417 190.667 804.835C192.62 807.375 193.303 809.132 192.913 810.5C192.229 812.746 195.647 818.312 197.795 818.312C198.577 818.312 199.846 819.582 200.725 821.144C202.385 824.367 202.385 824.367 238.323 826.027L256.389 826.906L267.62 832.277C273.772 835.304 281.682 839.796 285.198 842.433C288.713 845.07 295.745 850.05 300.823 853.468C305.901 856.789 317.424 864.992 326.311 871.632L342.424 883.742L353.069 885.304C361.077 886.476 364.592 886.574 367.62 885.792C371.135 884.914 372.307 885.109 375.725 886.769C378.557 888.136 380.217 888.429 381.975 887.746C383.733 887.16 385.393 887.453 388.713 889.113C392.424 890.968 395.354 891.359 408.245 891.945C422.307 892.628 423.577 892.824 425.823 894.972C427.581 896.632 429.729 897.316 433.635 897.609C436.565 897.902 439.788 898.39 440.667 898.781C442.034 899.367 442.913 898.585 445.061 895.07C446.526 892.628 448.479 890.578 449.26 890.578C450.139 890.578 453.264 886.085 456.682 880.031L462.639 869.582L485.881 857.57C507.268 846.437 509.905 845.363 518.889 843.605L528.557 841.75L530.706 844.484C535.784 850.929 539.592 854.542 545.256 857.96L551.311 861.671L598.381 862.453L600.725 855.91C603.362 848.292 606.292 845.656 612.151 845.656C614.202 845.656 626.213 844.777 638.811 843.703C659.319 841.945 661.956 841.554 665.081 839.406C667.424 837.843 668.889 835.89 669.768 833.058C671.819 826.027 679.827 819.289 699.846 807.375C715.374 798.195 719.28 796.339 728.069 793.8L738.323 790.968H772.795L807.17 790.871L815.374 781.886C825.823 770.46 1000.24 566.261 999.846 565.968C999.651 565.871 986.37 566.066 970.256 566.554L940.959 567.335L732.854 503.566L722.209 491.652C713.518 482.082 710.198 479.152 705.12 476.417C699.456 473.488 697.502 471.535 687.249 458.937C680.999 451.125 673.772 441.945 671.233 438.429C668.792 434.914 664.299 429.054 661.37 425.343C658.44 421.632 654.631 415.48 653.069 411.671C651.506 407.863 647.991 401.613 645.452 397.707C642.815 393.8 640.667 390.187 640.667 389.601C640.667 389.015 644.377 383.058 648.967 376.417C653.557 369.777 657.268 364.21 657.268 363.917C657.268 363.624 654.827 363.039 651.897 362.746C647.795 362.16 646.233 361.476 645.061 359.718C643.987 358.058 642.62 357.374 640.374 357.374C638.713 357.374 636.663 356.984 635.881 356.496C634.026 355.324 629.045 357.082 625.92 360.011C623.577 362.16 622.405 362.355 612.444 362.746C605.12 362.941 600.725 363.527 599.358 364.503C595.745 366.847 590.862 367.042 584.612 364.894L578.85 362.941L579.534 348.39C579.924 339.308 579.827 332.472 579.143 330.128C578.362 327.199 578.459 325.441 579.631 322.218C580.413 319.972 581.096 316.554 581.096 314.796C581.096 312.941 581.487 311.476 581.975 311.476C584.417 311.476 593.401 300.734 601.213 288.527C605.999 281.007 611.37 273.585 613.127 272.023C615.081 270.265 616.252 268.41 616.252 266.847C616.252 265.48 617.229 262.843 618.303 260.988L620.452 257.57L616.155 253.175C613.811 250.831 610.198 247.902 608.049 246.828C605.999 245.753 596.038 236.574 585.979 226.515C573.772 214.21 564.983 206.3 559.514 202.589C548.674 195.265 546.331 192.921 543.01 186.476C541.057 182.57 539.299 180.617 536.858 179.445C534.612 178.371 528.362 171.632 517.913 158.937L502.385 140.089L484.319 133.058C474.456 129.152 465.374 126.124 464.104 126.32C462.249 126.613 461.37 125.734 459.026 121.046C456.389 115.871 455.901 115.382 453.752 115.968C452.385 116.359 450.335 118.214 449.065 120.07C445.94 124.66 441.155 125.246 436.76 121.535C432.952 118.312 422.893 114.21 418.987 114.21C416.252 114.21 416.057 114.406 416.057 118.117C416.057 122.902 414.104 124.074 410.002 121.73C407.854 120.46 407.268 120.46 407.268 121.437C407.268 122.218 406.194 123.097 404.827 123.39C403.46 123.781 401.799 125.148 401.213 126.515C400.627 127.785 399.651 128.761 399.065 128.566C397.893 128.175 397.893 126.906 398.87 122.999C399.26 121.339 398.87 119.484 397.6 117.433C394.866 113.039 391.838 111.378 387.542 111.964C384.514 112.355 383.733 112.941 383.147 115.285C381.975 119.386 371.917 126.906 367.327 126.906C365.178 126.906 361.663 128.175 358.049 130.226C352.971 133.156 351.995 133.351 349.065 132.472C347.112 131.886 344.67 129.933 343.108 127.98C341.741 126.027 339.299 123.097 337.835 121.535C336.37 119.874 335.002 117.531 334.807 116.164C334.612 114.21 333.928 113.624 331.585 113.527C326.116 113.039 318.401 111.183 318.401 110.304C318.401 109.035 312.639 102.589 310.393 101.417C308.831 100.539 308.342 101.027 306.78 104.64Z" fill="white"/>
<circle id="221" cx="394" cy="540" fill="#5CE50D"/>
<circle id="948" cx="304" cy="332" fill="#E52A0D"/>
<circle id="222" cx="364" cy="675" fill="#E52A0D"/>
<circle id="947" cx="653" cy="510" fill="#E52A0D"/>
</svg>
