<svg width="1000" height="1000" viewBox="0 0 1000 1000" fill="none" xmlns="http://www.w3.org/2000/svg">
<path d="M611.61 24.2787C610.305 25.0242 607.976 25.5832 606.392 25.6764C604.808 25.6764 602.945 26.3286 602.199 27.1672C601.547 27.9126 599.777 29.217 598.193 30.0557C596.609 30.801 593.813 33.1304 591.95 35.0872C587.757 39.5596 583.844 39.9323 578.626 36.3916C573.501 32.9441 570.426 33.3168 566.606 37.7892C564.836 39.9323 562.04 44.2183 560.27 47.3863C558.593 50.5543 555.704 54.6541 553.748 56.5175C551.139 59.1265 550.207 60.8968 549.834 63.9716C549.182 69.3758 546.201 80.7432 542.101 93.1356L538.747 103.292L539.399 115.125L540.051 126.958L537.069 132.269C534.274 137.115 533.715 137.58 531.479 137.115C529.336 136.742 528.124 137.394 524.677 140.748C521.136 144.103 520.018 146.059 518.341 151.65C515.732 160.595 514.334 162.645 511.167 162.645C508.464 162.645 504.737 159.477 502.781 155.563C502.128 154.259 500.172 153.327 496.817 152.488C488.898 150.718 484.146 148.202 482.003 144.475C480.884 142.705 479.3 140.748 478.369 140.282C476.971 139.537 476.412 140.096 474.735 144.01C473.71 146.525 472.778 148.948 472.778 149.507C472.778 150.066 471.846 150.532 470.728 150.532C467.467 150.532 460.479 153.327 456.845 156.216C453.025 159.104 452.279 158.918 452.279 155.004C452.279 152.488 452.186 152.395 447.062 152.395C441.564 152.395 438.583 151.277 436.626 148.482C435.694 147.177 434.203 146.805 430.29 146.805H425.259V142.332C425.259 139.817 424.606 135.717 423.768 133.201C423.022 130.685 421.811 126.492 421.066 123.977C419.854 119.411 411.748 98.9125 409.512 94.9059C407.742 91.5516 401.965 89.0358 398.144 89.8745C393.952 90.8062 389.852 93.0424 387.616 95.465C386.125 97.049 385.938 98.2603 386.404 103.199C387.336 112.423 385.379 113.355 379.23 106.832C376.621 104.13 376.434 104.13 373.919 105.435C371.683 106.553 369.353 109.255 369.353 110.839C369.353 111.025 371.03 112.237 372.987 113.355C376.9 115.591 377.739 117.175 377.739 123.231C377.739 127.052 377.832 127.238 380.534 127.238C384.261 127.238 388.641 130.499 389.852 134.319C390.411 135.996 391.715 137.674 392.647 137.953C393.952 138.326 394.511 139.537 394.697 142.425C394.976 145.78 395.536 146.712 399.169 149.414C401.592 151.277 403.642 153.7 404.108 155.284C404.667 157.52 405.226 157.893 406.996 157.427C409.698 156.775 411.096 158.452 411.469 163.111C411.748 166.372 412.121 166.838 414.543 167.397C416.127 167.676 421.718 170.099 427.122 172.708C435.228 176.621 437.185 178.019 438.676 180.814C439.701 182.584 441.564 184.634 442.869 185.286C446.782 187.15 449.577 192.181 448.925 196.095C448.552 197.958 448.273 199.822 448.18 200.381C448.18 200.847 449.577 201.685 451.348 202.337C454.143 203.269 454.702 204.015 455.447 207.276C456.007 209.885 457.125 211.748 458.988 213.053C461.131 214.637 461.597 215.662 461.597 218.83C461.597 221.252 460.945 223.302 459.827 224.513C457.218 227.309 455.447 243.987 457.031 250.416C458.056 254.795 457.963 255.168 455.727 257.497C454.516 258.895 453.211 261.131 453.025 262.529C452.559 264.858 452.839 265.138 454.888 265.138C458.615 265.138 463.461 268.865 463.367 271.66C463.274 272.965 463.74 275.201 464.299 276.692C465.697 280.139 464.113 282.655 459.734 284.146C456.659 285.077 456.472 285.45 456.566 288.898C456.659 292.252 461.131 306.508 468.119 325.888C469.61 329.988 470.356 333.342 469.89 333.808C469.424 334.274 468.492 336.697 467.747 339.306C465.324 347.878 461.783 354.773 457.777 358.873C454.236 362.506 453.863 363.252 454.888 364.836C456.379 367.352 456.286 369.495 454.516 371.451C453.398 372.663 453.304 373.501 454.05 374.992C454.609 376.017 455.075 378.253 455.075 380.023C455.075 382.539 456.193 384.403 461.131 389.807L467.188 396.609V403.597C467.188 409.281 467.56 411.237 469.144 413.38C471.008 415.989 471.008 416.548 469.983 428.009C469.424 434.531 468.585 441.426 468.213 443.476C467.747 445.433 467.56 449.253 467.84 452.048C468.306 456.614 468.492 456.987 469.61 455.309C471.474 452.701 473.71 441.24 473.803 433.972C473.896 430.525 474.176 426.798 474.455 425.68C475.108 423.723 475.294 423.816 480.232 427.916C488.432 434.718 492.997 437.513 495.793 437.513C497.749 437.513 500.079 439.097 505.203 444.221L512.005 450.93L511.539 463.975C511.26 472.64 510.607 478.417 509.676 480.84C507.533 486.43 507.812 488.014 511.912 492.021C515.918 495.934 516.478 498.077 514.241 499.941C513.123 500.872 512.285 500.872 510.421 500.034C507.346 498.636 507.253 498.636 507.253 501.152C507.253 502.736 508.092 503.574 510.421 504.413C516.664 506.649 515.639 512.985 509.117 512.985C506.042 512.985 505.39 512.706 505.39 511.122C505.39 508.42 500.265 507.861 493.184 509.817C486.382 511.588 482.655 514.662 475.48 524.259C471.381 529.757 470.915 530.968 470.915 535.161C470.915 540.845 470.076 541.776 459.64 547.833C452.373 552.119 452.279 552.212 452.279 555.939C452.279 560.505 448.18 566.654 442.869 570.195C440.912 571.499 438.21 574.388 436.906 576.717C435.601 578.954 433.738 581.003 432.806 581.283C431.688 581.562 430.663 583.519 429.451 587.712C428.054 593.023 427.402 594.048 424.42 595.725C422.556 596.75 420.134 598.893 418.923 600.477C417.804 602.061 416.5 603.366 416.127 603.366C415.755 603.366 414.543 601.688 413.332 599.639C411.003 595.446 410.723 595.352 405.971 597.309C404.201 598.055 401.685 598.707 400.474 598.707C398.517 598.707 398.238 599.173 398.238 601.968C398.238 605.229 398.238 605.229 402.431 605.229C405.971 605.229 406.81 605.602 407.648 607.465C408.394 609.049 408.394 610.167 407.648 611.658C406.717 613.429 405.785 613.615 399.542 613.615C392.647 613.615 392.554 613.708 391.622 616.317C391.063 617.808 389.106 620.23 387.15 621.814C384.354 624.051 383.702 625.169 383.982 626.939C384.261 628.523 383.609 630.2 381.466 632.623C378.484 635.977 378.484 636.07 379.509 641.474C380.721 647.717 380.255 649.581 376.9 652.469C373.732 655.171 367.49 655.358 365.253 652.842C364.415 651.91 362.085 650.885 360.222 650.606C355.843 649.86 345.593 652.096 343.264 654.146C341.587 655.637 341.587 656.01 342.798 658.432C343.543 659.83 344.196 662.066 344.196 663.371C344.196 666.166 332.269 687.317 328.449 691.417C326.679 693.28 325.654 695.609 325.281 698.312C325.002 700.827 323.883 703.25 322.393 704.834C320.156 707.163 320.063 707.443 321.554 708.934C323.418 710.797 323.324 717.226 321.274 726.078L319.97 731.855L322.765 735.861C324.256 738.098 326.12 742.197 326.772 744.993C327.983 749.651 327.89 750.676 326.12 757.664C323.79 766.423 324.349 771.268 328.542 778.536C332.735 785.71 333.201 791.115 330.406 802.575C328.356 811.24 328.076 814.222 328.263 825.683L328.542 838.82L325.654 843.945C324.07 846.74 322.765 849.908 322.765 851.026C322.765 852.704 322.206 853.076 319.597 853.076C316.802 853.076 316.336 853.449 315.777 855.872C315.404 857.362 314.752 858.853 314.286 859.133C312.889 860.065 313.261 870.128 314.845 872.271C315.591 873.389 316.616 876.743 317.082 879.725L317.92 885.222L313.82 889.415C311.584 891.744 309.721 894.167 309.721 894.633C309.721 895.192 310.652 896.869 311.677 898.173C313.448 900.41 313.541 900.875 312.33 902.087C310.373 904.137 311.305 908.05 314.1 909.075C316.988 910.193 318.107 909.448 318.107 906.652C318.107 903.95 319.597 902.832 320.343 904.882C321.181 907.025 326.679 906 330.685 902.925C333.481 900.875 337.673 899.757 337.673 901.062C337.673 901.341 336.835 903.205 335.81 905.255C333.481 909.82 333.481 910.007 336.089 909.075C338.885 907.957 342.891 909.727 346.711 913.734C350.532 917.833 351.836 921.281 350.718 924.449C348.761 929.667 349.507 932.555 354.259 937.214C356.681 939.637 359.383 941.593 360.315 941.593C361.247 941.593 361.899 942.339 361.899 943.457C361.899 944.668 361.247 945.32 360.036 945.32C358.638 945.32 358.172 945.973 358.172 947.743C358.172 951.749 360.222 957.433 361.992 958.458C362.924 958.924 363.483 959.856 363.204 960.508C363.017 961.16 364.601 962.651 367.117 963.955L371.403 966.285L372.987 963.955C376.434 958.831 382.584 951.843 383.702 951.843C385.473 951.843 388.92 955.942 388.92 958.085C388.92 959.203 387.895 960.881 386.591 961.906C385.286 962.93 384.261 964.421 384.261 965.26C384.261 967.123 387.802 967.31 388.547 965.446C389.2 963.769 392.461 964.608 393.579 966.844C394.417 968.241 394.045 968.614 391.343 969.08C388.734 969.639 387.988 970.385 386.777 973.366L385.379 977H390.224C394.604 977 395.442 976.627 399.635 972.807C402.244 970.478 404.946 968.428 405.692 968.148C408.301 967.403 430.383 963.21 437.837 962.092C441.937 961.533 446.782 960.415 448.646 959.763L452.093 958.458L452.652 961.626C453.304 964.794 453.491 964.887 457.404 964.887C460.665 964.887 461.597 964.514 461.597 963.396C461.597 962.558 462.342 959.856 463.181 957.433C464.672 953.24 465.045 952.868 469.424 951.656C473.058 950.724 474.176 949.979 474.642 948.209L475.201 945.973L476.692 948.302C479.114 951.936 483.307 952.495 487.22 949.793C489.27 948.488 490.482 946.904 490.482 945.6C490.482 943.27 491.786 942.898 504.458 942.059C512.098 941.5 514.055 941.686 518.155 943.364C523.745 945.507 524.677 945.041 525.143 939.264C525.329 936.189 525.795 935.444 527.565 935.257C528.87 935.071 530.268 935.63 530.92 936.469C531.945 937.959 532.317 937.773 534.554 935.164C537.442 931.717 541.076 931.344 544.151 934.232C545.828 935.816 546.853 936.096 548.903 935.444C551.325 934.791 551.325 934.698 549.462 934.419C546.946 933.953 546.946 933.86 548.716 930.412C550.021 927.803 550.114 927.803 554.493 928.921C558.872 930.039 559.152 930.039 568.563 925.567C579.744 920.349 586.452 919.604 592.975 922.958C596.329 924.635 597.261 924.728 603.224 923.797C606.858 923.144 609.933 922.865 610.119 923.051C610.958 923.89 607.324 936.655 605.274 940.289C602.106 945.693 597.54 946.997 578.533 948.022L567.445 948.581L570.054 950.352C573.408 952.495 585.055 954.079 592.975 953.333C598.938 952.774 599.031 952.774 605.647 946.159C611.33 940.568 612.635 938.518 614.312 933.58C615.43 930.226 616.269 925.753 616.269 923.517C616.269 917.461 619.064 911.963 624.934 906.466C627.729 903.764 631.643 898.826 633.506 895.378C635.37 892.024 639.376 886.713 642.265 883.638C647.11 878.42 648.135 877.861 652.234 877.395L656.8 876.836L657.359 872.55C658.664 863.698 664.347 855.872 671.242 853.542C675.715 852.051 680.56 847.765 680.56 845.156C680.56 843.666 687.921 833.416 693.232 827.733C695.468 825.31 697.332 822.515 697.332 821.49C697.332 820.465 698.543 818.229 700.034 816.551C701.524 814.874 702.922 812.172 703.295 810.588C703.667 809.097 705.811 805.65 708.047 803.041C710.656 800.153 712.24 797.357 712.24 795.96C712.24 794.469 713.171 793.071 714.849 791.86C720.625 788.133 729.011 777.697 732.831 769.498C735.906 763.162 738.422 759.621 744.385 753.285C751.28 746.018 756.778 739.029 761.995 730.923C763.952 727.662 770.94 707.536 770.94 704.834C770.94 703.809 771.965 699.989 773.27 696.355C774.574 692.721 775.599 689.18 775.599 688.621C775.599 687.969 772.431 684.149 768.611 680.142C762.927 674.179 761.623 672.222 761.623 669.8C761.623 667.191 760.691 666.166 753.703 660.669C749.324 657.314 743.826 652.842 741.59 650.885C738.981 648.649 736.093 647.065 733.856 646.692C725.284 645.295 722.489 644.177 722.489 642.033C722.489 640.729 719.601 637.002 714.383 631.691C709.817 627.032 705.251 621.628 704.133 619.485L702.083 615.758L706.183 612.683C708.792 610.726 710.749 608.397 711.401 606.254C712.053 604.391 714.383 599.359 716.619 594.98C720.998 586.408 721.371 584.451 719.228 579.419C718.389 577.463 718.017 574.854 718.296 573.456C718.855 570.94 716.992 569.077 707.674 563.02C701.711 559.2 698.916 554.635 698.17 547.647C697.704 543.081 697.891 540.751 698.822 538.888C700.5 535.534 700.686 518.762 699.009 518.11C698.356 517.83 694.629 517.364 690.809 516.899L683.821 516.246L682.237 509.724C679.349 497.611 680.374 492.3 686.244 489.971C688.293 489.225 689.877 488.294 689.877 487.921C689.784 485.126 686.43 478.51 684.101 476.46L681.119 473.851L683.169 470.218C684.66 467.702 685.219 465 685.219 461.18C685.219 455.496 686.057 451.21 688.107 446.271C689.225 443.476 689.132 443.197 686.616 440.96L683.914 438.631L690.716 435.183L697.611 431.736L697.052 424.189C696.307 413.939 690.53 397.54 685.219 390.832C683.169 388.223 681.492 385.521 681.492 384.775C681.492 384.123 679.815 379.651 677.858 374.899C675.622 369.495 673.851 363.438 673.199 358.779C672.36 352.909 671.522 350.487 669.192 347.132C667.515 344.803 663.975 339.678 661.366 335.672C656.707 328.591 656.521 328.125 655.868 319.646C655.216 311.073 655.216 310.98 658.198 306.508C661.645 301.197 671.336 283.773 675.156 276.133C676.833 272.778 678.976 269.983 680.933 268.679C684.66 266.256 686.15 261.877 686.15 253.77C686.15 248.832 686.15 248.739 678.79 241.099C672.174 234.297 671.056 232.433 667.236 223.488L663.043 213.425L654.378 209.046C649.532 206.624 644.315 204.201 642.637 203.642C638.724 202.337 637.513 200.567 637.233 196.374C637.047 194.511 636.301 189.945 635.463 186.404C634.624 182.771 633.506 177.273 632.947 174.105C632.015 168.515 632.015 168.142 634.717 164.322C636.208 162.086 638.538 157.147 639.935 153.327C641.426 149.507 643.383 144.475 644.315 142.239C645.34 140.003 645.899 137.953 645.619 137.58C645.246 137.301 642.731 137.021 640.028 137.021C637.326 137.021 634.811 136.742 634.438 136.462C633.32 135.344 638.538 129.008 643.756 125.095C649.532 120.902 649.812 119.225 645.992 114.286C643.103 110.653 644.315 102.36 648.601 96.3035C650.371 93.881 652.421 91.5516 653.073 91.0857C653.725 90.713 655.496 87.8246 657.08 84.7498C660.341 78.3206 660.341 78.3206 655.868 67.6055C652.7 60.0582 652.328 59.5923 648.135 58.1947C646.271 57.6356 643.849 56.4244 642.824 55.4926C641.799 54.6541 638.91 53.1632 636.395 52.2314C633.04 50.927 629.593 48.1317 622.605 41.2368C612.728 31.3601 612.914 31.826 614.964 24.4651C615.523 22.6016 614.685 22.5084 611.61 24.2787Z" fill="white"/>
<path d="M483.586 490.909C482.096 492.027 482.002 492.586 482.934 495.568C483.586 497.431 485.263 499.761 486.661 500.786C489.177 502.649 489.27 502.649 492.065 500.879C495.606 498.736 496.631 496.034 495.14 492.4C494.115 489.977 493.556 489.698 489.643 489.698C487.22 489.698 484.518 490.257 483.586 490.909Z" fill="white"/>
<path d="M327.051 650.14C327.424 651.91 329.008 654.519 330.778 656.289C333.946 659.271 335.809 659.551 335.809 656.942C335.809 656.289 336.741 655.544 337.952 655.358C339.63 655.171 340.095 654.426 340.282 651.537C340.561 648.276 339.443 646.972 338.139 649.022C337.207 650.419 333.294 650.14 332.641 648.556C332.362 647.717 330.964 647.158 329.38 647.158C326.678 647.158 326.585 647.345 327.051 650.14Z" fill="white"/>
<path d="M242.261 909.266C241.889 911.223 242.168 912.621 243.193 913.739C244.498 915.136 244.498 915.695 243.566 916.907C242.914 917.652 241.423 918.304 240.211 918.304C238.907 918.304 235.18 918.863 231.919 919.422C226.328 920.54 225.769 920.82 224.837 923.615C223.533 927.808 225.303 930.79 228.099 929.019C230.894 927.249 234.248 928.74 234.248 931.722C234.248 934.61 237.416 936.939 241.236 936.939C243.566 936.939 244.498 937.685 246.547 941.132C248.225 943.834 250.274 945.791 252.511 946.723C256.797 948.493 256.61 948.493 256.61 945.884C256.61 944.673 257.915 942.25 259.406 940.666C262.574 937.219 262.76 934.796 259.778 934.33C258.474 934.144 257.542 934.796 256.797 936.474C255.492 939.362 254.747 939.362 251.579 936.474C248.69 933.771 248.038 928.833 250.833 929.951C256.331 932.094 257.449 931.722 259.312 927.622C260.337 925.386 260.896 922.963 260.524 922.124C259.499 919.236 252.417 912.248 247.665 909.266L242.82 906.378L242.261 909.266Z" fill="white"/>
<circle id="229" cx="482" cy="947" fill="#5CE50D"/>
<circle id="1276" cx="512" cy="520" fill="#E52A0D"/>
<circle id="1614" cx="553" cy="375" fill="#E52A0D"/>
<circle id="1275" cx="357" cy="918" fill="#E52A0D"/>
</svg>
