<svg width="1000" height="1000" viewBox="0 0 1000 1000" fill="none" xmlns="http://www.w3.org/2000/svg">
<path d="M655.865 148.219C653.033 149.879 650.298 151.148 649.81 151.148C649.224 151.148 645.122 152.906 640.63 155.055C635.845 157.301 631.744 158.668 630.572 158.375C629.4 158.082 628.033 158.473 627.349 159.352C626.568 160.23 625.494 160.914 624.908 160.914C622.759 160.914 619.439 165.309 619.439 168.141C619.439 169.605 619.048 170.582 618.462 170.191C617.974 169.898 617.486 168.727 617.486 167.652C617.486 166.676 617.095 165.797 616.509 165.797C616.021 165.797 615.533 166.578 615.533 167.652C615.533 168.824 614.654 169.605 612.896 169.996C609.283 170.68 608.794 169.996 611.138 167.945C612.212 167.066 613.97 165.309 614.947 164.039L616.802 161.891H613.677C611.333 161.891 610.357 162.379 609.966 163.746C609.673 164.82 608.111 166.188 606.353 166.773C603.423 167.945 594.048 168.824 594.048 168.043C594.048 167.164 598.443 163.941 599.712 163.844C601.665 163.844 600.982 160.914 599.029 160.914C597.954 160.914 596.783 160.426 596.49 159.938C595.611 158.57 592.095 158.766 592.29 160.133C592.486 161.012 591.314 161.402 588.872 161.402C586.138 161.402 584.576 161.988 583.306 163.551C580.767 166.676 580.083 166.383 580.767 162.379C581.451 159.059 581.353 158.961 579.4 160.133C578.228 160.816 576.861 163.258 576.275 165.504C575.201 169.996 573.638 170.973 572.857 167.75C572.271 165.504 572.076 165.406 569.439 166.871C567.974 167.652 567.779 168.141 568.658 168.727C570.318 169.801 568.951 171.754 566.997 170.973C566.119 170.582 565.142 171.07 564.556 172.047C563.677 173.609 563.482 173.609 562.212 171.949C561.529 170.973 560.845 169.41 560.845 168.434C560.845 167.457 560.064 166.773 558.892 166.773C556.548 166.773 556.451 167.457 558.501 171.461C560.161 174.879 559.38 177.906 557.525 175.367C556.939 174.586 555.669 173.707 554.79 173.316C553.814 173.023 553.033 171.852 553.033 170.777C553.033 169.703 552.642 168.629 552.154 168.238C550.884 167.457 550.396 176.637 551.568 178.688C552.837 180.934 551.47 182.008 549.517 180.348C548.54 179.566 548.15 178.102 548.443 176.246C548.833 173.023 547.466 172.047 543.658 173.023C541.119 173.707 541.119 173.707 542.974 175.074C544.048 175.855 545.22 177.418 545.513 178.59C546.001 180.348 545.806 180.543 543.462 179.957C541.997 179.566 540.533 178.785 540.044 178.199C539.556 177.32 538.97 177.418 538.091 178.59C536.919 180.055 536.724 180.055 534.576 178.395C531.841 176.148 530.181 176.93 530.865 180.055C531.158 181.812 530.572 183.082 528.423 184.84C526.861 186.207 525.884 187.672 526.177 188.258C527.251 190.016 523.54 190.602 522.271 188.844C521.197 187.379 521.001 187.672 520.318 190.797C519.927 192.945 520.122 194.801 520.708 195.387C521.294 195.973 521.783 197.34 521.685 198.414C521.685 200.367 521.587 200.367 520.122 198.219C519.341 197.047 518.267 196.07 517.876 196.07C517.486 196.07 516.802 197.047 516.509 198.219L515.826 200.465L514.751 198.219C513.384 195.484 512.896 195.484 510.064 198.512L507.818 200.855L511.431 204.859C513.384 207.008 514.947 208.961 514.947 209.254C514.947 209.547 513.384 209.742 511.529 209.742C509.576 209.742 508.208 209.254 508.404 208.668C508.501 208.082 507.818 207.105 506.841 206.52C505.474 205.543 504.79 205.641 503.911 206.812C501.665 209.645 497.661 211.012 493.169 210.426C490.728 210.035 488.482 210.23 487.896 210.816C487.115 211.598 486.626 211.5 486.236 210.816C485.845 210.23 484.673 209.742 483.599 209.742C482.525 209.742 480.376 209.156 478.911 208.375C476.372 207.008 475.786 207.105 469.439 210.426C462.115 214.332 455.865 215.895 447.759 215.992C443.169 216.09 442.095 216.48 439.361 219.312C436.431 222.242 435.943 222.438 433.599 221.363C431.158 220.289 426.958 220.777 421.978 222.926C420.708 223.414 420.22 223.121 420.22 222.047C420.22 219.605 416.509 220.191 413.775 223.121C412.505 224.488 411.138 225.367 410.747 225.074C409.771 224 407.525 226.441 407.525 228.492C407.525 229.469 408.208 230.543 408.99 230.934C410.161 231.324 409.771 232.008 407.329 233.863C403.716 236.402 402.056 241.48 403.911 243.824C404.888 244.996 404.79 245.094 403.13 244.508C402.056 244.02 400.396 243.434 399.517 243.238C398.54 242.945 397.759 242.359 397.759 241.871C397.759 240.699 392.779 240.797 391.021 241.871C390.142 242.457 389.849 243.922 390.142 246.266C390.435 248.609 390.142 249.781 389.263 249.781C388.579 249.781 387.505 251.637 386.919 253.883C386.236 256.227 385.259 258.473 384.771 259.059C384.185 259.645 384.087 259.254 384.478 257.984C385.552 254.371 384.185 252.711 380.083 252.711C377.056 252.711 375.689 253.395 372.857 256.129C371.001 258.082 369.439 260.23 369.439 261.012C369.439 261.793 366.997 263.551 364.068 264.918C356.548 268.531 349.322 268.141 347.076 264.039C345.22 260.719 343.951 260.523 342.583 263.355C340.826 267.066 336.333 265.016 337.798 261.109C338.482 259.449 335.65 256.617 333.404 256.617C330.865 256.617 325.201 258.668 323.638 260.133C322.466 261.207 322.466 261.598 323.833 262.867C324.712 263.746 325.689 265.309 325.982 266.383C326.763 268.922 329.107 268.922 329.888 266.383C330.279 265.309 331.353 264.43 332.525 264.43C333.99 264.43 334.283 264.723 333.599 265.602C333.111 266.285 331.939 268.922 330.962 271.461C329.693 274.879 328.716 276.148 327.349 276.148C326.079 276.148 325.494 276.832 325.494 278.492C325.494 279.762 324.81 281.129 323.931 281.422C321.49 282.301 321.294 282.105 322.661 280.445C323.736 279.078 323.638 278.688 322.076 277.516C320.415 276.246 319.927 276.441 317.486 278.785C316.021 280.152 314.556 282.203 314.165 283.18C313.872 284.156 313.286 284.742 312.798 284.449C311.333 283.57 310.943 288.355 312.31 290.504C313.091 291.676 313.97 294.41 314.361 296.559C314.849 299.879 315.435 300.562 317.779 301.051C320.904 301.734 327.056 300.074 329.497 297.926C332.427 295.484 342.486 296.559 344.048 299.586C344.732 300.855 344.536 302.223 343.365 304.273C341.802 307.008 341.802 307.398 343.462 311.207C344.439 313.355 346.099 315.895 347.076 316.676C347.954 317.555 350.786 323.414 353.228 329.664C355.767 335.914 358.99 342.652 360.552 344.41L363.384 347.828L371.001 346.656C375.201 345.973 379.595 344.801 380.865 344.02C383.111 342.555 383.99 339.625 382.232 339.625C380.767 339.625 378.13 336.598 378.716 335.621C379.107 335.133 380.181 334.742 381.255 334.742C383.501 334.742 385.064 331.324 384.38 327.711C383.99 325.465 384.283 325.074 386.919 324.488C388.579 324.098 389.947 323.316 389.947 322.535C389.947 321.852 391.021 320.973 392.388 320.68C393.755 320.289 395.318 319.02 395.708 317.848C397.173 314.137 399.126 313.062 402.74 313.941C405.376 314.625 406.744 315.895 408.208 318.922C408.208 319.117 409.283 318.629 410.454 317.945C412.701 316.578 412.603 316.578 416.9 322.535C417.876 323.902 419.244 324.293 421.685 324.195C424.029 324 425.689 324.586 427.056 325.953C429.497 328.395 431.451 328.395 436.138 325.953C438.091 324.879 440.826 324 442.095 324C444.634 324 445.904 322.047 445.025 319.605C444.634 318.629 443.072 318.141 440.728 318.141C438.579 318.141 436.626 317.652 436.333 317.164C435.161 315.309 433.99 316.188 433.306 319.605C433.013 321.461 432.329 323.023 431.841 323.023C430.376 323.023 430.474 322.73 438.189 306.422C439.849 302.906 445.415 299.488 449.029 299.781C451.665 300.074 452.251 299.586 454.888 294.508C456.939 290.602 458.697 288.551 460.552 287.965C462.017 287.379 464.068 285.426 465.24 283.57C467.876 278.98 472.271 276.441 478.814 275.66C483.404 275.074 485.259 275.367 490.63 277.613C494.244 278.98 498.345 281.422 499.81 283.082C501.568 284.84 503.619 285.914 505.279 285.914C508.306 285.914 509.966 287.672 508.111 288.844C507.427 289.234 507.134 290.016 507.427 290.504C507.72 290.992 505.669 292.555 502.837 294.02C500.005 295.484 496.197 298.219 494.439 300.074L491.216 303.395L493.56 304.371C495.22 304.957 496.392 304.859 497.466 303.883C498.247 303.102 500.005 302.516 501.372 302.516C502.642 302.516 507.622 301.734 512.408 300.855C521.001 299.195 521.099 299.195 524.81 301.344C529.107 303.785 532.232 303.98 534.869 302.027C536.04 301.148 538.97 300.562 542.095 300.562C544.927 300.562 548.15 300.172 549.126 299.586C551.568 298.316 554.009 299.293 554.009 301.637C554.009 302.613 554.302 303.492 554.693 303.492C555.669 303.492 567.974 296.559 570.122 294.703C573.247 292.066 578.911 289.137 582.329 288.355C584.283 287.965 585.65 286.891 585.943 285.816C586.626 283.473 590.24 282.496 592.974 283.863C594.244 284.547 596.88 284.742 599.81 284.352C604.107 283.766 605.083 284.059 609.087 286.891C612.115 288.941 614.556 289.82 616.314 289.625C618.365 289.43 619.048 289.82 619.244 291.48C619.634 293.824 623.833 297.047 625.396 296.168C625.884 295.777 627.056 296.07 627.935 296.754C629.302 297.926 629.4 297.633 628.716 293.922C628.13 290.113 628.228 289.82 630.181 289.82C631.548 289.82 632.525 290.602 632.818 291.773C633.501 294.312 635.161 293.824 636.724 290.699C637.896 288.551 637.701 288.16 635.259 286.207C633.794 285.035 631.255 282.887 629.497 281.52C627.74 280.055 626.568 278.395 626.861 277.613C627.154 276.93 626.958 275.367 626.275 274.293C625.396 272.633 624.322 272.242 620.415 272.242C614.947 272.242 613.775 270.387 617.974 268.531C619.341 267.945 620.415 266.578 620.415 265.602C620.415 264.527 621.294 262.965 622.369 261.988C623.443 261.012 624.322 259.645 624.322 259.059C624.322 258.375 625.396 257.105 626.763 256.227C628.228 255.25 629.204 253.688 629.204 252.32C629.204 251.051 629.888 249.488 630.669 248.805C631.451 248.121 632.134 246.168 632.134 244.312C632.134 242.066 632.818 240.602 634.283 239.625C636.822 237.867 639.165 230.055 638.384 226.148C637.896 223.805 637.505 223.512 635.259 224C633.794 224.391 630.865 226.539 628.716 228.785C625.786 231.812 623.15 233.473 618.462 235.035C610.747 237.574 608.208 239.137 600.494 246.559C597.271 249.684 593.365 253.004 591.997 253.883C590.63 254.762 588.091 258.375 586.431 261.891C584.771 265.406 582.915 268.336 582.329 268.336C581.841 268.336 581.353 268.922 581.353 269.508C581.353 270.191 579.302 271.559 576.861 272.633C573.736 273.902 571.294 275.953 568.462 279.664C565.533 283.57 563.579 285.133 560.845 285.914C558.208 286.598 556.451 287.965 554.986 290.309C552.544 294.215 552.349 294.312 550.103 292.262C548.638 290.992 547.369 290.895 542.193 291.676C538.872 292.262 535.845 292.555 535.65 292.262C535.357 292.066 535.845 290.797 536.626 289.625C538.091 287.281 537.896 280.445 536.333 279.469C534.966 278.688 535.259 277.125 536.822 277.125C537.505 277.125 540.142 274 542.583 270.289C545.513 265.602 548.443 262.477 551.47 260.523C555.669 257.887 557.232 255.641 554.986 255.641C554.497 255.641 555.181 254.469 556.451 253.102C558.111 251.246 558.697 249.879 558.306 248.023C557.72 245.289 560.747 240.992 563.091 240.992C563.775 240.992 565.044 240.113 566.021 239.039C566.9 237.965 568.56 237.086 569.634 237.086C570.611 237.086 571.978 236.207 572.564 235.133C573.54 233.375 583.013 228.297 585.357 228.297C587.994 228.297 595.513 221.461 597.661 217.066C598.931 214.332 600.884 210.816 601.861 209.254C602.935 207.594 604.204 205.348 604.79 204.078C605.279 202.906 606.744 201.441 608.111 200.855C609.576 200.172 610.845 198.316 611.626 195.777C612.212 193.531 613.872 190.406 615.142 188.746C616.411 187.086 617.779 183.961 618.267 181.812C618.755 179.176 619.634 177.906 620.904 177.711C621.978 177.516 625.396 174.684 628.521 171.559C634.576 165.406 636.822 163.844 639.654 163.844C640.728 163.844 642.779 162.477 644.439 160.816C646.001 159.059 650.396 156.227 654.107 154.469C657.915 152.613 661.626 150.758 662.408 150.27C663.189 149.781 664.654 149.098 665.63 148.805C666.509 148.512 667.29 147.633 667.29 146.754C667.29 144.312 661.431 144.996 655.865 148.219Z" fill="white"/>
<path d="M447.272 163.648C445.319 165.797 445.124 168.727 446.979 168.727C447.663 168.727 449.42 167.848 450.885 166.676C452.936 165.016 453.229 164.332 452.35 163.258C450.788 161.402 449.127 161.5 447.272 163.648Z" fill="white"/>
<path d="M663.58 222.246C655.768 226.25 650.396 231.719 649.322 236.797C648.541 240.41 649.811 240.996 652.936 238.555C654.986 236.992 657.525 237.578 657.525 239.629C657.525 241.289 659.478 241.387 664.557 239.824C669.635 238.359 670.709 236.211 668.756 231.523C667.193 227.812 667.193 227.715 671.295 225.371C672.174 224.883 673.15 223.125 673.346 221.465C673.932 217.559 672.564 217.656 663.58 222.246Z" fill="white"/>
<path d="M334.869 246.366C333.795 247.147 332.135 247.831 331.158 247.831C330.182 247.831 329.4 248.514 329.4 249.295C329.4 251.737 336.822 251.151 342.779 248.221C345.611 246.756 347.955 245.487 347.955 245.292C347.955 244.12 336.432 245.194 334.869 246.366Z" fill="white"/>
<path d="M638.384 261.017C637.994 261.993 637.017 262.286 635.65 261.896C632.818 261.212 630.767 263.653 631.646 266.486C632.232 268.341 632.037 268.536 630.377 268.048C628.13 267.56 625.689 269.611 626.763 271.271C627.545 272.54 631.744 272.54 634.38 271.173C638.58 269.025 641.9 265.118 641.9 262.286C641.9 259.357 639.361 258.38 638.384 261.017Z" fill="white"/>
<path d="M106.938 271.954C107.524 276.251 108.013 275.665 90.5322 292.267C82.7197 299.591 81.5479 300.372 81.0596 298.712C80.4736 296.173 78.4229 295.978 78.4229 298.419C78.4229 299.396 77.8369 300.763 77.251 301.349C75.2002 303.4 78.3252 304.669 84.1846 303.986C90.1416 303.4 92.0947 302.228 92.0947 299.396C92.0947 298.419 96.6846 292.95 102.837 286.798C108.794 280.841 113.579 275.372 113.579 274.786C113.579 273.615 110.454 270.294 107.817 268.829C106.743 268.146 106.548 268.829 106.938 271.954Z" fill="white"/>
<path d="M676.275 280.446C673.443 282.106 669.732 285.134 667.975 286.989C666.217 288.844 663.189 291.579 661.236 293.141C659.283 294.606 656.451 297.927 654.986 300.368C653.521 302.907 650.885 306.618 649.127 308.571C647.369 310.524 645.416 314.04 644.83 316.188C644.049 319.216 641.607 322.536 635.455 328.884C630.963 333.571 627.252 338.063 627.252 338.844C627.252 339.626 628.131 341.481 629.303 342.946C630.67 344.704 631.158 346.266 630.768 347.927C630.279 349.684 630.67 350.563 632.232 351.344C633.893 352.321 634.869 352.028 637.896 349.977C639.85 348.61 642.096 347.438 642.779 347.438C645.025 347.438 650.201 344.313 653.717 340.7C661.92 332.594 666.217 328.884 667.682 328.884C668.463 328.884 670.611 327.126 672.271 324.977C674.811 321.852 676.08 321.071 678.717 321.071C681.744 321.071 681.939 320.876 681.939 317.751C681.939 313.747 685.162 307.79 687.701 307.106C689.068 306.813 689.361 306.032 689.068 304.274C688.678 302.126 689.068 301.735 691.803 301.149L695.025 300.563L690.924 296.364C687.506 292.848 686.822 291.579 686.822 288.356C686.822 284.352 684.186 277.907 682.428 277.516C681.939 277.419 679.107 278.688 676.275 280.446Z" fill="white"/>
<path d="M724.225 292.462C724.518 298.126 724.811 299.102 726.471 299.395C727.447 299.493 728.912 299.2 729.693 298.712C730.768 298.028 730.67 297.442 729.303 295.294C728.326 293.927 727.838 291.681 728.033 290.411C728.424 288.36 726.471 285.919 724.42 285.919C724.127 285.919 724.029 288.848 724.225 292.462Z" fill="white"/>
<path d="M702.057 291.972C700.299 292.948 700.299 293.143 701.861 294.218C703.326 295.292 703.229 295.585 700.982 297.05C699.615 297.929 698.541 299.296 698.541 300.077C698.541 301.933 702.643 304.765 703.521 303.397C703.912 302.811 705.572 302.616 707.818 303.104C711.432 303.788 711.529 303.69 710.943 301.249C710.455 299.491 710.748 298.612 711.822 298.222C714.166 297.343 717.096 297.538 717.096 298.612C717.096 299.101 717.584 299.589 718.072 299.589C718.658 299.589 719.049 298.71 719.049 297.733C719.049 296.659 719.537 295.487 720.025 295.194C721.295 294.413 721.295 290.8 720.025 290.8C719.439 290.8 717.486 291.483 715.631 292.167C712.701 293.436 711.92 293.436 709.576 292.265C706.354 290.507 704.596 290.507 702.057 291.972Z" fill="white"/>
<path d="M266.9 296.07C266.9 296.753 267.486 297.925 268.268 298.609C269.049 299.195 269.537 300.269 269.244 300.855C268.756 302.417 276.764 306.714 277.936 305.542C278.424 305.054 278.521 302.808 278.131 300.659C277.545 297.242 277.154 296.656 275.592 297.144C274.518 297.534 272.369 297.046 270.611 296.265C266.9 294.409 266.9 294.409 266.9 296.07Z" fill="white"/>
<path d="M75.3959 307.99C74.7123 308.869 73.5404 311.017 73.0522 312.677C72.2709 315.021 71.5873 315.607 69.9272 315.412C68.1693 315.119 67.6811 315.705 67.1928 318.537C66.2162 323.42 68.7553 326.447 70.1225 322.052C70.4154 320.978 71.392 320.099 72.1732 320.099C73.9311 320.099 77.4467 316.584 77.4467 314.826C77.4467 314.045 77.935 313.068 78.4232 312.775C79.7904 311.994 79.6928 310.041 78.1303 307.99C76.9584 306.33 76.7631 306.33 75.3959 307.99Z" fill="white"/>
<path d="M54.0097 330.256C52.4472 332.209 53.1308 336.115 55.2792 336.506C56.4511 336.701 56.9394 336.213 56.9394 334.748C56.9394 333.478 57.7206 332.404 58.8925 332.111C59.9667 331.818 60.8456 330.939 60.8456 330.256C60.8456 328.4 55.5722 328.498 54.0097 330.256Z" fill="white"/>
<path d="M52.8386 339.626C50.5925 340.993 46.8816 347.145 47.6628 348.415C48.8347 350.27 51.0808 349.391 52.6433 346.169C53.6199 344.509 54.9871 342.555 55.7683 341.97C56.5496 341.384 56.9402 340.407 56.5496 339.821C55.6707 338.454 54.9871 338.356 52.8386 339.626Z" fill="white"/>
<path d="M31.2564 361.011C29.401 363.16 26.9596 366.773 25.8854 369.215C24.8111 371.558 23.4439 373.902 22.858 374.195C22.2721 374.586 21.7838 375.758 21.7838 376.734C21.7838 377.711 20.7096 379.761 19.44 381.324C17.3893 383.765 15.4361 390.504 16.8033 390.308C17.7799 390.308 25.69 378.687 25.69 377.32C25.69 376.636 26.3736 375.367 27.2525 374.683C28.6197 373.609 29.0104 373.707 30.1822 375.172C31.3541 376.832 31.4518 376.832 32.1354 374.293C32.526 372.535 34.3814 370.679 37.6041 368.726C42.6822 365.601 47.1744 358.863 45.026 357.593C44.0494 356.91 43.3658 357.593 39.7525 362.574C37.7994 365.211 34.8697 363.355 35.2604 359.742C35.4557 358.375 35.358 357.203 35.1627 357.203C34.8697 357.203 33.1119 358.961 31.2564 361.011Z" fill="white"/>
<path d="M874.322 379.078C874.322 379.762 875.006 380.934 875.787 381.617C876.568 382.301 877.252 383.863 877.252 385.133C877.252 387.086 877.74 387.477 880.084 387.477C881.646 387.477 884.283 387.77 885.943 388.062C890.338 388.941 890.045 392.457 885.162 397.73C882.33 400.855 881.158 403.102 880.67 406.422C879.693 412.477 880.67 415.797 883.209 415.797C885.064 415.797 885.26 415.406 884.674 411.5C883.893 406.617 884.869 405.25 890.924 402.125C901.959 396.461 899.42 385.426 886.725 383.961C881.939 383.375 880.67 382.789 878.912 380.543C876.764 377.516 874.322 376.832 874.322 379.078Z" fill="white"/>
<path d="M511.235 401.445C507.525 402.617 506.45 405.547 508.013 410.137C508.794 412.285 508.989 417.07 508.501 424.98L507.817 436.602L511.626 434.453C517.681 431.035 519.439 429.18 522.271 423.613C524.712 418.73 524.907 417.656 524.419 410.332C524.224 405.938 523.638 401.836 523.345 401.25C522.466 399.883 515.532 399.98 511.235 401.445Z" fill="white"/>
<path d="M0.982422 402.516C0.591797 403.492 0.298828 406.812 0.298828 410.035C0.298828 415.113 0.494141 415.797 2.25195 415.797C3.22852 415.797 4.49805 415.113 4.98633 414.137C5.86523 412.672 5.96289 412.77 6.54883 414.527C6.93945 415.602 6.74414 417.652 6.1582 419.117C4.69336 423.121 4.88867 423.609 8.59961 423.609C12.5059 423.609 12.8965 422.34 10.6504 415.992C9.47852 412.574 9.47852 411.793 10.6504 410.035C11.5293 408.766 11.8223 407.105 11.4316 405.348C10.3574 400.953 9.9668 400.855 7.03711 403.688C5.47461 405.152 4.20508 405.934 4.20508 405.445C4.20508 404.859 3.61914 403.688 2.93555 402.711C1.66602 400.953 1.56836 400.953 0.982422 402.516Z" fill="white"/>
<path d="M242.487 417.852C242.487 419.023 240.534 421.953 237.995 424.492C233.893 428.594 233.405 428.789 232.233 427.227C231.257 425.762 230.866 425.762 229.89 426.934C229.011 427.91 226.276 428.301 218.757 428.105C213.288 428.008 208.21 427.617 207.624 427.227C206.745 426.641 206.354 427.129 206.354 428.594C206.354 431.914 201.569 438.164 197.858 439.727C196.101 440.508 194.636 441.582 194.636 442.07C194.636 443.535 188.19 443.437 184.089 441.973C181.061 440.801 180.573 440.898 179.108 442.852C177.546 444.707 177.253 444.805 174.909 443.34C172.565 441.973 172.175 441.973 169.636 444.023C167.78 445.488 166.608 445.781 165.925 445.098C165.436 444.609 163.386 444.121 161.53 444.121L158.015 444.023L160.456 441.875C162.409 440.215 162.995 438.652 163.19 434.551C163.483 429.57 163.386 429.375 161.433 430.449C160.261 431.035 158.894 432.695 158.308 433.965C157.331 436.113 156.647 436.406 154.108 435.918C149.811 435.039 146.979 438.066 148.542 441.777C150.397 445.684 150.007 447.051 147.077 447.051C145.515 447.051 143.659 446.66 142.878 446.172C140.436 444.512 139.851 446.172 141.999 448.809C143.952 451.348 143.952 451.445 142.194 451.738C139.948 452.227 136.042 455.742 136.042 457.402C136.042 459.746 133.894 460.039 131.257 458.086C129.89 457.012 126.569 455.84 123.933 455.449C119.636 454.766 118.952 454.961 117.39 456.914C115.827 459.062 115.632 459.062 113.288 457.5C111.042 456.035 110.749 456.035 109.186 457.793C108.21 458.867 106.745 459.941 105.769 460.234C104.89 460.527 103.62 461.895 103.034 463.164C101.667 466.191 98.7373 466.289 97.4677 463.457C96.8818 462.285 96.0029 461.211 95.3193 461.016C93.8544 460.527 92.0966 466.777 92.0966 472.637C92.0966 475.273 91.6083 477.52 90.9248 478.008C90.2412 478.398 89.1669 479.668 88.581 480.645C88.0927 481.719 85.6513 483.086 83.2099 483.867C78.6201 485.234 74.3232 488.457 73.249 491.387C72.663 492.852 71.8818 493.047 68.6591 492.559C64.5576 491.875 63.9716 492.559 65.7294 495.977C66.5107 497.441 66.413 497.832 65.2412 497.832C63.3857 497.832 63.288 500.176 65.0458 501.641C65.8271 502.227 67.7802 503.008 69.538 503.301C71.6865 503.789 72.7607 504.668 73.1513 506.23C73.5419 507.695 74.4208 508.574 75.6904 508.574C77.4482 508.574 77.6435 509.062 77.0576 511.602C76.7646 513.262 76.4716 515.801 76.4716 517.266C76.4716 519.414 75.3974 520.488 70.9052 523.223C63.581 527.715 61.7255 529.863 62.0185 533.477C62.3115 536.113 61.9208 536.504 58.7958 537.285C56.5498 537.871 54.7919 539.141 53.7177 541.094C52.1552 543.633 51.6669 543.926 48.5419 543.437C42.3896 542.461 39.8505 543.535 37.7021 547.93C35.6513 552.422 35.749 555.645 37.9951 554.766C38.7763 554.473 39.3623 554.863 39.3623 555.84C39.3623 556.719 38.6787 557.402 37.7998 557.402C37.0185 557.402 36.6279 557.891 36.9208 558.379C37.3115 558.965 36.4326 560.723 35.0654 562.383C32.1357 565.898 31.9404 567.363 34.1865 569.609C35.3583 570.879 35.456 571.465 34.5771 571.953C33.6982 572.539 34.4794 574.102 37.3115 577.324C39.5576 579.863 41.3154 582.793 41.3154 583.867C41.3154 585.234 42.1943 585.918 44.3427 586.406C49.3232 587.383 50.9833 594.512 46.1982 594.512C43.7568 594.512 43.4638 598.223 46.0029 599.102C46.8818 599.395 49.0302 600.859 50.5927 602.324C53.6201 605.059 61.5302 607.207 68.7568 607.207C71.3935 607.207 72.5654 607.695 73.0537 608.867C74.0302 612.09 78.3271 615.996 81.0615 616.484C82.5263 616.68 89.5576 617.559 96.4912 618.437C103.522 619.316 111.433 620.586 114.069 621.367C116.804 622.148 123.151 623.711 128.229 624.883C133.308 626.055 139.069 627.52 140.925 628.203C151.862 632.012 157.429 633.574 160.261 633.574C162.409 633.574 163.386 634.062 163.386 635.039C163.386 635.82 163.874 636.504 164.362 636.504C164.948 636.504 165.925 637.676 166.511 639.043L167.683 641.484L169.44 639.238L171.198 636.992L173.054 639.238C174.323 640.703 175.983 641.387 178.425 641.387C181.257 641.387 182.136 640.898 183.405 638.457C185.261 634.844 187.507 634.648 188.386 637.969C189.069 640.801 189.948 640.996 191.706 638.945C193.269 637.09 195.612 636.992 195.612 638.848C195.612 640.41 197.956 641.582 199.03 640.605C199.421 640.215 202.839 639.922 206.647 639.824C210.554 639.824 214.655 639.238 215.827 638.652C219.343 636.699 226.179 637.187 227.546 639.434C228.62 640.996 229.206 641.191 231.647 640.312C235.847 638.848 243.464 631.816 245.124 628.008C246.296 625.078 246.784 624.785 250.788 624.785C255.866 624.785 259.577 621.953 258.796 618.828C258.405 617.461 258.893 616.777 260.749 616.387C262.018 615.996 263.679 616.289 264.265 616.875C265.729 618.34 267.878 618.242 267.878 616.68C267.878 615.02 275.007 607.207 276.472 607.207C277.058 607.207 278.132 608.086 278.913 609.16C281.354 612.676 288.093 609.355 287.214 605.059C286.823 603.105 293.561 603.789 294.733 605.84C295.319 606.719 296.979 608.965 298.542 610.82L301.374 614.141L303.62 611.992C304.89 610.723 305.964 609.062 305.964 608.184C305.964 606.133 313.093 601.055 315.339 601.543C316.218 601.641 317.878 603.008 318.952 604.473C320.612 606.719 320.71 607.402 319.636 608.672C318.952 609.453 318.659 610.43 318.952 610.723C319.538 611.309 331.843 608.477 334.382 607.207C335.847 606.328 338.093 602.422 340.143 596.758C341.413 593.242 343.171 593.34 344.831 597.051C345.515 598.32 346.296 599.395 346.686 599.395C347.175 599.395 348.933 597.539 350.788 595.391C353.229 592.461 353.815 591.191 352.936 590.312C351.081 588.457 351.667 586.797 354.792 584.844C357.526 583.184 357.624 582.988 355.964 581.523C354.401 580.059 354.108 580.254 351.081 583.77C349.421 585.82 347.956 588.457 347.956 589.531C347.956 592.168 344.05 592.461 344.05 589.824C344.05 588.945 343.366 587.285 342.585 586.309C341.804 585.234 341.413 583.477 341.706 582.109C342.194 580.449 341.608 579.277 339.265 577.227C335.847 574.199 335.456 572.539 337.8 571.66C339.265 571.074 339.265 570.879 337.604 569.023C336.628 567.949 333.991 566.289 331.647 565.215C327.058 563.262 326.96 563.066 328.327 560.527C328.913 559.648 329.499 557.695 329.89 556.133C330.476 553.203 332.429 552.715 334.284 554.863C334.87 555.645 336.042 556.035 336.823 555.742C337.897 555.352 337.995 554.863 337.311 554.18C335.358 552.227 336.237 549.883 339.753 547.148C342.194 545.293 342.976 544.219 342.194 543.437C341.511 542.754 340.436 542.754 338.679 543.535C335.847 544.805 335.554 544.121 337.8 541.68C339.948 539.336 338.776 537.871 334.675 537.871C330.964 537.871 330.768 537.48 332.819 532.695C334.089 529.668 334.089 529.18 332.722 528.691C331.843 528.398 330.183 528.398 328.815 528.691C327.058 529.18 326.472 528.887 326.472 527.715C326.472 526.738 325.593 526.152 324.03 526.152C321.784 526.152 321.686 525.957 322.761 523.711C323.347 522.344 324.909 520.586 326.179 519.805C327.546 518.828 328.425 517.363 328.425 515.703C328.425 514.336 329.694 510.43 331.257 507.109C333.796 501.836 333.991 500.762 333.015 497.637C332.136 495 330.866 493.633 327.058 491.68C324.323 490.312 321.101 488.848 319.929 488.555C317.194 487.773 312.8 482.695 312.8 480.156C312.8 477.715 306.159 474.395 301.276 474.395C298.835 474.395 296.393 473.516 294.245 471.953C292.39 470.586 289.851 469.512 288.581 469.512C286.53 469.512 286.433 469.316 287.409 468.047C288.386 466.875 288.386 466.582 287.018 466.582C286.14 466.582 285.456 465.898 285.456 465.02C285.456 464.141 284.577 463.262 283.503 462.969C281.55 462.48 280.768 460.723 282.526 460.723C283.112 460.723 283.503 460.039 283.503 459.258C283.503 457.5 280.964 457.305 279.89 458.965C279.401 459.746 278.913 458.574 278.62 455.84C278.132 451.836 277.643 451.152 273.347 448.223C267.292 444.219 264.362 444.414 261.237 449.004C258.308 453.398 257.331 453.691 256.159 450.469C254.401 445.781 254.987 441.582 257.624 439.824C260.749 437.773 260.749 434.844 257.429 428.105C255.183 423.516 254.499 422.734 252.741 423.223C250.983 423.613 250.593 423.32 250.69 421.465C250.788 420 250.104 419.121 248.835 418.926C247.761 418.73 246.491 417.949 246.101 417.168C244.929 415.02 242.487 415.508 242.487 417.852Z" fill="white"/>
<path d="M888.287 419.413C887.604 419.608 887.018 420.682 887.018 421.659C887.018 423.026 887.994 423.71 890.338 424.198C895.221 425.077 896.393 423.905 893.756 421.073C891.607 418.729 890.533 418.436 888.287 419.413Z" fill="white"/>
<path d="M839.85 443.928C838.287 445.588 838.385 445.881 841.119 448.518C843.951 451.252 844.049 451.252 846.002 449.495C847.076 448.518 847.955 446.467 847.955 444.905C847.955 442.463 847.662 442.17 844.733 442.17C842.78 442.17 840.729 442.952 839.85 443.928Z" fill="white"/>
<path d="M417.682 444.899C416.217 445.778 414.361 449.489 414.361 451.247C414.361 453.493 417.389 454.079 419.439 452.223C422.564 449.391 420.904 442.653 417.682 444.899Z" fill="white"/>
<path d="M940.924 463.359C941.119 464.336 941.9 465.117 942.682 465.117C943.463 465.117 944.244 464.336 944.439 463.359C944.635 462.187 944.147 461.699 942.682 461.699C941.217 461.699 940.729 462.187 940.924 463.359Z" fill="white"/>
<path d="M353.522 477.027C353.326 477.515 353.424 478.882 353.717 480.152C354.303 482.202 354.498 482.3 355.67 480.835C356.354 480.054 356.744 478.589 356.354 477.808C355.768 476.245 354.205 475.855 353.522 477.027Z" fill="white"/>
<path d="M424.517 482.694C424.029 484.549 424.907 486.697 427.642 491.19C431.646 497.537 434.673 499.979 433.404 495.779C432.036 491.483 426.568 480.252 425.884 480.252C425.493 480.252 424.907 481.326 424.517 482.694Z" fill="white"/>
<path d="M374.81 490.698C368.853 493.628 365.044 504.37 368.95 507.593C369.732 508.276 370.415 509.546 370.415 510.425C370.415 512.866 372.661 517.261 374.224 517.847C375.005 518.14 376.86 517.554 378.325 516.48C379.79 515.405 381.743 514.722 382.817 515.015C384.185 515.405 385.454 514.722 387.017 512.769C388.872 510.425 389.067 509.058 388.775 503.589C388.482 498.12 387.993 496.655 385.161 493.14C381.743 488.745 379.79 488.257 374.81 490.698Z" fill="white"/>
<path d="M915.827 494.215C913.19 496.266 914.557 500.758 917.78 500.758C919.929 500.758 920.221 500.367 920.221 496.852C920.221 492.652 919.05 491.969 915.827 494.215Z" fill="white"/>
<path d="M362.213 511.213C361.139 512.287 361.627 515.119 363.092 516.388C363.873 517.072 364.557 518.537 364.557 519.709C364.557 522.443 369.635 527.424 371.979 526.935C375.397 526.349 374.518 523.517 369.537 518.83C366.803 516.291 364.557 513.556 364.557 512.873C364.557 511.408 363.092 510.334 362.213 511.213Z" fill="white"/>
<path d="M803.815 512.086C800.593 513.746 799.421 517.555 800.983 520.875C801.862 522.828 802.741 523.219 806.257 523.219C810.261 523.219 810.847 522.926 813.19 519.312C816.218 514.723 816.218 514.234 813.972 512.184C811.726 510.133 807.331 510.133 803.815 512.086Z" fill="white"/>
<path d="M458.307 523.32C456.94 525.761 457.917 530.644 459.87 531.425C460.651 531.718 461.237 531.327 461.237 530.644C461.237 529.765 461.921 529.472 463.092 529.765C466.12 530.546 466.803 526.542 464.069 523.613C461.335 520.78 459.674 520.683 458.307 523.32Z" fill="white"/>
<path d="M514.85 524.879C514.655 527.906 515.046 529.469 517.487 534.645C519.538 539.137 520.221 539.82 522.76 539.82C526.081 539.82 527.155 537.477 525.69 533.375C525.104 531.812 524.811 529.176 525.202 527.516C525.69 524.684 525.495 524.391 522.663 523.805C517.292 522.73 514.948 523.121 514.85 524.879Z" fill="white"/>
<path d="M484.576 563.747C479.889 566.286 476.861 573.806 478.229 579.372C478.717 581.325 479.498 581.813 481.744 581.813C484.381 581.813 484.674 581.52 484.674 578.884C484.674 575.954 484.674 575.954 487.115 577.516C490.338 579.567 494.342 586.403 496.979 593.923C498.541 598.708 499.42 599.977 501.275 600.173C506.744 601.052 508.404 593.532 505.67 581.13C502.838 568.63 502.643 568.337 496.295 565.212C489.947 561.989 488.287 561.696 484.576 563.747Z" fill="white"/>
<path d="M861.236 566.194L858.502 567.951L860.455 569.905C861.529 570.979 862.896 572.834 863.58 573.909C864.947 576.545 868.072 576.545 869.439 574.006C870.611 571.858 869.146 565.217 867.486 565.217C866.998 565.217 866.119 565.022 865.338 564.826C864.654 564.534 862.799 565.217 861.236 566.194Z" fill="white"/>
<path d="M911.627 620.49C908.893 622.345 908.893 622.931 911.92 626.154C913.287 627.619 914.361 629.181 914.361 629.67C914.361 630.06 915.631 630.939 917.193 631.427C919.537 632.306 920.514 632.013 923.541 629.865C930.963 624.689 928.521 618.927 918.853 618.927C915.924 618.927 912.896 619.513 911.627 620.49Z" fill="white"/>
<path d="M937.896 649.588C937.213 650.369 937.115 651.248 937.506 651.444C938.775 652.225 944.732 650.76 944.928 649.686C945.221 648.123 939.264 647.928 937.896 649.588Z" fill="white"/>
<path d="M228.228 661.109C227.056 661.695 225.396 663.843 224.517 666.089C223.052 669.703 223.052 670.191 224.615 671.851C226.08 673.511 226.08 673.609 224.029 673.609C222.662 673.609 221.978 674.097 222.173 674.781C222.759 676.636 230.474 676.929 233.013 675.269C234.185 674.488 236.334 673.609 237.896 673.218C239.361 672.925 240.533 672.046 240.533 671.265C240.533 669.117 238.482 663.843 237.603 663.843C236.529 663.843 235.552 666.773 236.236 667.847C236.529 668.335 236.041 668.726 235.259 668.726C234.185 668.726 233.99 667.945 234.38 665.503C234.771 662.769 234.478 662.085 232.525 661.206C231.06 660.523 229.595 660.523 228.228 661.109Z" fill="white"/>
<path d="M989.264 676.936C985.26 678.01 984.967 679.768 988.678 680.256C990.143 680.451 991.803 679.768 992.877 678.596C995.025 676.252 993.951 675.666 989.264 676.936Z" fill="white"/>
<path d="M113.287 692.945C110.748 695.777 111.334 698.512 115.534 703.395C118.073 706.324 119.44 708.863 119.44 710.621C119.44 713.355 121.979 716.578 124.127 716.578C125.69 716.578 125.592 715.113 123.932 711.891C123.248 710.426 122.369 706.129 121.979 702.418C121.1 692.262 120.612 691.188 117.487 691.188C116.022 691.188 114.166 691.969 113.287 692.945Z" fill="white"/>
<path d="M624.322 704.371C623.639 705.152 622.369 705.836 621.49 705.836C619.439 705.836 617.486 707.691 617.486 709.547C617.486 711.695 625.396 729.273 626.373 729.273C628.033 729.273 635.064 718.238 635.064 715.602C635.064 715.016 633.697 714.82 631.158 715.211C629.01 715.602 627.252 715.504 627.252 715.211C627.252 714.82 628.521 713.16 630.182 711.402C633.209 708.18 633.502 707.105 632.525 704.469C631.744 702.418 625.982 702.418 624.322 704.371Z" fill="white"/>
<path d="M978.424 726.051C977.252 727.223 977.838 729.273 979.303 729.273C980.084 729.273 980.768 728.688 980.768 727.906C980.768 726.246 979.401 725.172 978.424 726.051Z" fill="white"/>
<path d="M946.295 769.02C945.904 769.312 945.611 770.191 945.611 770.973C945.611 771.852 947.369 772.242 951.959 772.242C958.307 772.242 959.283 771.656 957.135 769.508C955.865 768.238 947.369 767.848 946.295 769.02Z" fill="white"/>
<path d="M891.022 773.517C888.092 774.982 887.311 776.935 889.361 777.716C891.022 778.4 895.709 775.275 895.807 773.42C895.807 771.955 894.049 771.955 891.022 773.517Z" fill="white"/>
<path d="M306.647 780.835C303.034 784.643 303.034 789.136 306.745 790.405C309.089 791.186 309.772 790.893 312.995 787.866C315.046 786.011 316.706 783.569 316.706 782.397C316.706 777.514 310.749 776.538 306.647 780.835Z" fill="white"/>
<path d="M679.401 791.285C678.034 792.164 676.96 794.605 676.178 798.609C674.811 805.445 675.397 808.375 678.131 808.375C679.499 808.375 680.378 807.008 681.647 802.516C684.089 794.312 687.702 794.801 687.799 803.395C687.799 805.445 690.046 808.277 691.803 808.375C693.171 808.375 694.635 803.004 694.635 798.121C694.635 793.141 694.44 792.75 692.292 792.75C691.022 792.75 688.678 792.066 687.214 791.285C683.698 789.43 681.94 789.43 679.401 791.285Z" fill="white"/>
<path d="M880.67 792.457C875.982 793.336 874.322 794.996 874.322 798.414C874.322 801.93 876.373 804.371 879.4 804.469C880.963 804.469 885.064 798.609 885.064 796.266C885.064 794.117 882.721 792.066 880.67 792.457Z" fill="white"/>
<path d="M271.392 794.312C270.122 795.191 268.95 795.289 267.193 794.605C263.384 793.141 262.993 793.531 262.993 798.121C262.993 801.344 262.603 802.516 261.529 802.516C260.747 802.516 260.064 801.832 260.064 800.953C260.064 799.781 259.38 799.488 257.427 799.879C240.435 803.004 239.849 803.297 238.97 810.914C237.993 819.703 237.896 819.996 233.892 820.68C231.939 821.07 229.204 822.145 227.935 823.121C226.275 824.488 224.029 824.977 220.025 824.977C212.115 824.977 206.06 827.32 202.837 831.617C199.322 836.305 198.54 836.793 195.904 836.207C192.583 835.426 192.486 837.086 195.611 840.113C198.052 842.457 199.615 842.945 209.282 844.117C220.122 845.484 220.122 845.484 224.712 843.043C227.251 841.676 230.181 839.625 231.255 838.453L233.208 836.207L233.501 841.285C233.697 845.484 234.087 846.461 235.552 846.461C238.286 846.461 243.95 838.16 242.486 836.207C242.095 835.621 241.021 832.887 239.947 830.055C238.189 824.977 238.189 824.781 239.849 823.512C240.825 822.828 243.462 821.949 245.708 821.559C249.224 821.07 250.298 820.191 253.228 816.09C255.083 813.453 257.329 811.305 258.013 811.305C258.794 811.305 260.65 810.133 262.212 808.668C264.165 806.812 265.24 806.422 266.118 807.203C266.802 807.789 268.95 808.375 270.806 808.57C273.736 808.766 274.224 809.254 274.029 811.012C273.833 812.77 274.224 813.258 276.177 813.258C278.814 813.258 279.302 815.016 277.544 818.336C276.275 820.68 277.056 821.754 279.009 820.191C280.083 819.312 281.353 819.215 284.185 819.996C287.212 820.875 288.091 820.777 288.97 819.605C289.751 818.531 291.021 818.336 293.169 818.727C295.806 819.312 296.197 819.117 296.197 817.262C296.197 814.918 296.587 814.82 299.126 816.188C300.591 816.969 301.177 816.773 301.958 815.309C302.544 814.234 304.4 813.16 306.06 812.77C307.915 812.379 309.38 811.207 309.966 809.645C311.724 805.055 311.04 803.492 306.743 801.539C301.763 799.293 299.126 799.098 299.126 800.953C299.126 801.637 298.443 802.809 297.661 803.492C296.392 804.469 295.806 804.469 294.243 803.004C293.169 802.027 292.29 800.465 292.29 799.586C292.29 798.414 291.411 798.023 288.775 798.023C286.431 798.023 284.771 797.34 283.697 795.973C281.646 793.434 273.931 792.359 271.392 794.312Z" fill="white"/>
<path d="M956.452 831.714C953.718 835.425 953.913 837.867 956.843 840.406C958.21 841.577 959.284 842.945 959.284 843.531C959.284 844.995 962.8 844.702 964.167 843.042C965.143 841.87 964.85 841.382 962.8 840.503C960.846 839.527 960.261 838.648 960.261 836.109C960.261 834.351 960.749 832.593 961.237 832.3C961.823 832.007 962.214 831.031 962.214 830.249C962.214 827.808 958.503 828.785 956.452 831.714Z" fill="white"/>
<path d="M589.85 835.425C587.214 835.816 587.214 836.011 587.8 840.503C588.288 844.019 587.995 845.874 586.823 847.632C585.26 850.073 585.26 850.073 589.46 851.734C594.635 853.687 596.393 853.687 598.346 851.831C599.323 850.855 599.616 849.292 599.225 847.046C598.932 845.191 599.128 843.531 599.811 843.14C601.862 841.773 600.885 838.745 597.565 836.792C595.807 835.62 593.952 834.839 593.464 834.839C592.975 834.937 591.413 835.23 589.85 835.425Z" fill="white"/>
<path d="M996.002 838.844C994.537 842.555 994.83 843.531 997.467 843.531C999.029 843.531 999.322 842.848 999.322 839.625C999.322 834.938 997.857 834.547 996.002 838.844Z" fill="white"/>
<path d="M225.885 847.929C224.03 850.078 225.202 851.933 227.155 849.98C228.913 848.125 229.303 846.465 227.936 846.465C227.448 846.465 226.569 847.148 225.885 847.929Z" fill="white"/>
<path d="M994.439 852.714C994.439 854.374 996.197 855.155 998.541 854.471C999.42 854.276 999.908 853.495 999.615 852.714C998.932 850.956 994.439 850.956 994.439 852.714Z" fill="white"/>
<circle cx="297" cy="606" fill="#5CE50D"/>
<circle cx="500" cy="286" fill="#E52A0D"/>
<circle cx="91" cy="501" fill="#E52A0D"/>
<circle cx="299" cy="792" fill="#E52A0D"/>
</svg>
