<svg width="1000" height="1000" viewBox="0 0 1000 1000" fill="none" xmlns="http://www.w3.org/2000/svg">
<path d="M970.735 806.295C972.352 806.295 972.543 807.532 973.113 821.704L973.779 837.208L977.108 842.154C980.342 846.815 980.533 847.766 981.389 858.324C981.959 864.507 983.386 873.543 984.718 878.394C985.954 883.34 987.001 888.095 987.001 889.047C987.001 889.998 985.003 894.564 982.53 899.224L978.06 907.595L977.394 919.96C977.013 926.713 976.253 934.323 975.587 936.701C974.541 940.696 974.255 940.981 971.782 940.6C969.309 940.22 969.119 940.506 968.453 944.12C967.787 948.4 968.263 949.922 970.641 949.922C971.972 949.922 971.877 950.208 970.165 951.635C968.073 953.347 966.075 958.959 966.075 963.524C966.075 965.521 965.694 966.188 964.553 965.902C963.697 965.712 962.651 964.95 962.271 964.189C961.89 963.428 961.224 962.002 960.748 961.051C960.272 960.004 955.421 957.531 948.573 954.868C942.391 952.49 937.159 949.922 936.874 949.161C936.494 948.305 938.015 946.308 940.773 944.025C943.151 941.933 945.149 939.649 945.149 938.983C945.148 936.986 935.638 932.612 932.499 933.087C931.072 933.277 930.026 933.182 930.121 932.896C936.304 920.246 937.54 916.916 936.779 915.68C935.828 914.158 931.547 913.967 926.221 915.204C923.177 915.965 923.082 915.87 924.128 913.968C924.699 912.922 925.175 911.21 925.175 910.259C925.175 909.307 926.03 907.975 927.172 907.309C928.694 906.358 928.979 905.502 928.504 903.505C928.123 902.078 927.172 900.176 926.411 899.224C924.509 897.132 919.753 894.754 917.47 894.754C916.329 894.754 915.948 894.279 916.233 893.423C916.519 892.662 916.329 890.569 915.854 888.667C914.902 885.338 914.997 885.147 919.087 882.294C921.37 880.772 923.272 879.25 923.272 878.965C923.272 878.774 921.941 877.348 920.419 875.921C918.802 874.494 917.28 871.926 916.899 870.119C916.329 866.98 916.424 866.885 918.992 867.551C921.56 868.216 921.56 868.121 920.989 864.602C920.038 858.895 920.229 857.564 922.036 855.566C923.178 854.33 924.414 853.948 925.841 854.329C927.743 854.804 928.314 854.329 929.455 851.666C930.596 848.908 931.453 848.337 935.828 847.386C943.247 845.674 947.052 843.106 947.052 839.682C947.052 837.304 947.528 836.827 951.522 835.781C955.422 834.64 956.278 834.736 958.656 836.067C962.651 838.35 964.838 838.064 966.455 835.02C968.738 830.55 969.214 826.745 967.502 825.318C965.885 823.987 965.599 821.228 966.931 818.85C967.406 817.899 967.977 814.855 968.263 812.002C968.548 809.148 968.833 806.675 968.833 806.485C968.928 806.39 969.689 806.295 970.735 806.295Z" fill="white"/>
<path fill-rule="evenodd" clip-rule="evenodd" d="M486.874 34.0419C487.73 33.947 488.301 36.2302 489.442 44.6952C490.964 55.443 492.866 58.4872 502.473 65.4305C510.272 71.0425 510.843 71.2321 511.984 69.6151C512.745 68.6639 513.316 66.6669 513.316 65.2401C513.316 62.8622 513.697 62.672 517.502 62.3866L521.687 62.0057L525.491 69.1395C527.584 73.0392 529.772 77.8904 530.438 79.7928C532.15 85.3096 535.289 87.2118 542.518 87.2118C550.507 87.2118 552.79 89.305 553.741 97.2948C554.692 105.57 555.834 108.709 558.592 109.945C561.636 111.277 561.351 111.467 564.68 108.138C567.057 105.76 568.389 105.284 572.099 105.284C577.996 105.284 582.562 106.616 585.32 109.184C587.318 111.087 587.508 112.133 587.317 118.791C587.222 125.259 587.508 126.686 589.315 129.159C590.552 130.776 591.312 132.203 591.122 132.298C591.026 132.393 589.695 133.25 588.269 134.105C582.752 137.53 586.081 142.95 595.402 145.709C603.773 148.182 606.531 147.707 614.616 142.285C622.511 136.958 624.984 133.819 625.936 128.112C626.316 125.639 627.077 124.403 628.408 124.022C630.691 123.452 630.691 123.357 628.408 130.776C625.935 138.766 626.03 139.812 629.359 143.712C631.642 146.185 632.118 147.517 631.643 149.419C630.691 153.414 633.64 155.506 655.231 165.589C660.177 167.872 660.748 168.538 661.224 171.677C662.175 177.383 662.46 177.764 665.219 177.384C667.501 177.098 667.977 177.574 668.833 180.427C670.83 187.18 671.972 187.37 684.433 183.756L692.422 181.378L700.316 186.229L708.116 191.08L714.68 188.322C720.101 185.944 722.099 185.564 727.14 185.944C733.227 186.325 733.227 186.325 735.7 190.7C742.358 202.019 749.397 211.721 752.821 214.004C757.197 217.143 761.572 217.427 762.238 214.669C762.905 212.006 769.752 211.911 770.608 214.574C771.56 217.808 773.653 218.855 776.411 217.618C778.218 216.857 779.74 216.857 782.498 217.618C785.732 218.569 786.493 218.474 790.298 216.191C795.434 213.243 796.195 213.148 799.715 215.716C801.712 217.142 805.422 217.998 813.696 218.949C826.918 220.471 830.913 222.088 846.036 231.505L848.319 232.932L846.227 235.119C844.61 236.831 844.229 238.164 844.609 240.161C845.085 242.539 844.8 243.014 841.946 244.06C838.712 245.202 837.191 246.819 831.389 254.808C826.823 260.991 825.301 264.701 824.635 270.123C824.349 272.881 823.494 276.019 822.828 277.161C821.972 278.493 821.496 282.012 821.496 286.197C821.496 291.999 821.116 293.712 819.214 296.565C813.412 305.126 811.224 315.874 813.887 323.483C815.409 328.144 815.409 328.525 812.841 340.985L810.178 353.826L812.936 360.579C816.17 368.759 815.789 370.091 808.94 376.654C801.902 383.407 796.766 384.453 796.766 379.222C796.765 376.844 794.768 373.515 793.342 373.515C793.056 373.515 791.344 374.276 789.347 375.322C787.444 376.273 784.02 377.414 781.832 377.795C778.218 378.365 777.742 378.842 775.936 383.026C772.797 390.255 773.557 394.44 778.123 394.44C779.93 394.44 779.93 394.441 778.027 396.533C776.981 397.769 775.745 399.767 775.364 401.099C774.413 404.237 768.135 412.703 761.857 419.361C759.099 422.31 756.816 425.449 756.816 426.21C756.816 427.066 755.675 427.922 754.248 428.303C749.397 429.349 746.258 430.871 745.402 432.583C744.832 433.534 744.451 437.719 744.451 441.904C744.451 449.133 744.261 449.704 741.407 453.033C738.459 456.457 734.558 460.167 725.998 467.871C722.384 471.105 722.289 471.296 723.431 474.149C724.477 476.622 724.382 477.764 722.955 481.473C721.338 485.753 721.338 485.944 723.335 490.795C724.476 493.552 725.427 496.215 725.428 496.691C725.428 497.167 722.86 500.211 719.626 503.445C715.346 507.725 713.918 509.913 713.823 512.006C713.633 518.093 716.106 520.851 718.77 517.617C719.531 516.761 721.623 516.19 724.191 516.19C728.947 516.19 734.179 513.813 739.315 509.343C743.786 505.348 744.737 502.969 742.549 500.496C740.456 498.118 738.65 492.791 739.315 490.984C740.174 488.891 756.913 483.85 763.095 483.85H768.421L767.755 487.56C767.374 490.033 767.565 492.126 768.421 493.553C769.182 494.979 769.657 499.355 769.657 505.918C769.657 515.334 769.848 516.191 771.94 518.474C773.272 519.9 775.84 521.422 777.647 521.897C780.12 522.563 781.832 523.895 783.734 526.844C787.729 533.026 787.254 534.549 780.501 538.163C774.223 541.492 772.416 543.585 771.465 548.341C770.989 550.813 771.37 551.764 773.652 553.952C775.174 555.379 777.742 557.281 779.359 558.232C781.547 559.374 782.689 560.801 783.354 563.654C783.925 565.842 784.876 569.266 785.352 571.358C786.208 574.497 787.254 575.639 792.105 578.682C802.187 584.96 801.712 584.295 800.951 591.808L800.285 598.467L787.35 603.509C780.216 606.267 773.177 608.454 771.75 608.454C768.611 608.454 763.475 613.02 763.475 615.874C763.475 618.347 769.943 627.954 775.649 634.041C779.169 637.846 780.881 638.891 783.164 638.891C786.969 638.892 792.01 642.411 793.532 646.121C794.769 648.974 794.578 649.45 789.156 657.82L783.64 666.571L784.115 675.798C784.686 687.116 786.588 691.492 793.246 697.389C798.953 702.335 811.699 708.993 817.216 709.754C819.403 710.134 824.064 709.659 827.964 708.898C835.478 707.281 840.33 706.996 842.042 708.138C843.468 708.996 841.946 721.928 840.425 722.5C839.854 722.69 837.952 724.022 836.335 725.448C833.482 728.111 833.386 728.302 833.481 736.387C833.672 744.376 833.576 744.662 831.579 743.996C824.065 741.618 821.496 742.855 821.496 748.942C821.496 751.796 821.211 752.081 818.738 752.081C815.124 752.081 811.604 755.03 808.561 760.641C806.563 764.256 805.422 765.397 803.044 765.873C795.054 767.49 794.102 768.156 792.485 773.007C790.678 778.428 787.824 781.092 782.783 782.043C777.362 782.994 775.84 784.136 773.843 788.891C772.796 791.365 771.274 793.838 770.418 794.504C768.991 795.455 768.992 795.835 770.038 797.167C770.704 798.023 772.131 798.688 773.177 798.688C774.794 798.688 774.984 799.165 774.413 801.828C774.033 803.445 773.367 805.062 772.892 805.442C772.416 805.728 767.755 806.964 762.619 808.2C754.82 810.102 753.013 810.864 752.632 812.48C752.156 814.288 751.395 814.478 745.212 814.478C738.744 814.383 738.269 814.479 737.983 816.571C737.603 818.949 736.366 819.138 733.037 817.236C729.898 815.429 725.047 815.43 723.525 817.332C720.672 820.756 719.055 820.755 716.867 817.236C715.821 815.524 713.919 813.717 712.777 813.337C711.636 812.956 708.877 811.054 706.689 809.057C702.314 805.062 700.317 804.491 698.985 806.869C698.129 808.391 697.939 808.391 695.847 806.869C694.61 806.013 691.852 805.347 689.664 805.347H685.764V800.972C685.764 797.643 685.288 796.121 683.386 794.219C680.437 791.365 678.439 791.27 669.403 793.553C662.555 795.36 662.461 795.359 661.129 793.457C659.797 791.65 659.892 791.555 665.028 790.984C668.072 790.604 671.496 789.558 672.923 788.512C677.298 785.278 676.537 778.714 671.781 778.714C670.734 778.713 667.121 777.383 663.792 775.671C658.751 773.198 657.61 772.912 656.849 774.054C655.517 776.146 655.897 781.472 657.514 783.945C658.94 786.228 658.941 786.323 657.134 786.323C656.087 786.323 654.756 785.657 654.09 784.896C651.236 781.473 645.53 784.992 645.529 790.128V792.981H639.156C630.311 792.981 628.693 792.411 628.027 789.177C627.266 785.182 623.652 783.755 612.238 782.994C598.922 782.043 596.639 781.092 595.498 775.766C594.642 771.771 594.451 771.58 591.027 771.295C588.459 771.105 586.176 771.675 583.228 773.482C577.711 776.621 558.688 792.03 553.456 797.452C550.507 800.591 548.89 801.542 547.749 800.972C543.659 799.259 540.805 799.45 536.811 801.828C532.15 804.586 524.73 812.195 522.353 816.666C521.116 819.139 520.545 819.519 519.499 818.663C516.836 816.381 514.934 820.851 517.026 824.275C517.597 825.226 517.311 826.844 516.17 829.031C514.743 831.98 514.649 832.931 515.6 835.308C516.646 837.686 516.55 839.209 515.028 844.345C513.792 848.72 513.316 853.667 513.316 861.561V872.5L516.646 875.733C518.453 877.541 519.975 879.539 519.975 880.3C519.975 881.061 520.831 882.868 521.972 884.39C523.018 885.911 523.684 887.147 523.304 887.147C523.018 887.147 519.879 885.625 516.265 883.818C512.746 882.011 509.227 880.49 508.466 880.489C507.705 880.489 502.568 882.772 497.052 885.626C491.63 888.479 484.971 891.428 482.403 892.189C477.648 893.616 477.552 893.616 468.23 889.811L458.814 886.007L452.061 888.955C441.122 893.711 439.886 893.235 432.942 881.06C431.326 878.112 429.328 876.019 427.616 875.353C425.714 874.688 424.858 873.736 424.857 872.215C424.857 866.603 423.716 865.747 414.585 864.415C407.832 863.464 405.549 863.464 403.837 864.415C401.935 865.366 401.458 865.27 399.937 863.368C398.986 862.227 398.225 860.039 398.225 858.517C398.225 854.047 394.8 852.525 386.335 853.286C379.582 853.857 379.296 853.857 376.157 851.193C373.779 849.006 371.021 847.959 364.934 846.723C360.463 845.866 355.231 844.25 353.329 843.299C348.003 840.54 346.006 840.921 344.389 844.916C343.628 846.818 343.057 850.147 343.247 852.335L343.532 856.234L337.54 856.52C333.355 856.711 330.977 856.329 329.55 855.283C326.506 853.286 325.27 853.477 323.748 856.33L322.416 858.898L321.274 855.759L320.229 852.62L310.907 853.191C305.866 853.572 300.349 854.237 298.637 854.713C295.783 855.569 295.498 855.378 291.123 849.957L286.652 844.345H257.451L255.073 840.54C253.742 838.447 251.744 834.833 250.603 832.455L248.51 828.175H243.278C238.237 828.175 227.774 825.417 220.165 822.088C215.504 820.09 212.746 816.38 212.746 812.005C212.746 806.013 207.61 806.013 205.137 812.005C204.186 814.287 203.33 814.858 201.237 814.858C199.716 814.858 198.479 814.478 198.479 814.003C198.479 813.622 199.715 810.388 201.332 806.964C202.854 803.444 204.186 799.164 204.186 797.452C204.186 794.694 203.614 793.838 199.524 791.269C193.723 787.465 189.918 787.18 189.918 790.603V792.887L187.54 790.603C186.018 788.987 184.21 788.225 181.928 788.225C179.17 788.225 178.503 787.845 177.647 785.277C176.316 781.473 176.316 781.567 178.028 781.567C186.208 781.567 200.096 764.256 201.808 751.986C202.188 749.703 205.041 736.482 208.085 722.595C211.224 708.708 214.648 691.682 215.694 684.643C217.787 670.661 220.451 662.195 223.209 660.768C224.35 660.103 225.872 660.103 227.489 660.768C233.481 663.051 237.476 661.245 237.477 656.299C237.477 654.206 228.25 644.599 226.348 644.599C223.209 644.599 221.307 646.787 219.785 651.828C218.929 654.776 218.168 656.963 217.978 656.774C217.787 656.584 218.072 654.11 218.548 651.257C219.023 648.403 219.785 641.745 220.355 636.514C220.831 631.282 222.544 621.865 224.065 615.588C227.109 602.938 228.631 594.567 229.867 583.344C230.723 575.925 232.625 571.359 234.908 571.358C236.05 571.453 237.286 573.071 246.798 586.958C251.363 593.616 252.124 595.233 252.79 601.225C254.027 611.498 256.786 619.678 260.21 623.768C262.017 625.956 263.538 629.095 263.919 631.473C264.299 633.755 265.061 635.562 265.536 635.562C266.012 635.562 267.058 633.756 267.914 631.568C269.055 628.525 269.721 627.763 270.768 628.429C272.385 629.38 273.621 628.809 273.621 627.002C273.62 626.335 271.337 622.816 268.484 619.298C262.587 611.974 261.541 608.93 260.305 595.804C259.829 589.811 258.783 585.056 257.451 582.392C254.598 576.4 238.333 558.993 233.196 556.33C230.343 554.903 228.726 553.382 228.346 551.765C227.49 548.245 228.25 548.055 232.911 550.813C238.618 554.142 240.425 552.906 237.191 547.96C233.387 542.063 233.102 540.16 235.955 539.399C238.618 538.733 239.189 536.26 237.477 531.98C236.716 529.793 236.811 529.507 238.428 529.507C239.854 529.507 240.33 528.841 240.33 527.129C240.329 524.655 233.576 510.293 231.104 507.535C229.962 506.108 230.248 505.728 234.053 503.445C239.284 500.402 240.235 497.833 237.667 494.409C235.86 491.936 234.147 491.65 230.343 492.887C228.726 493.362 228.06 492.792 226.729 490.129C225.112 486.609 222.258 485.468 222.258 488.226C222.258 490.129 218.358 489.368 214.458 486.609C213.031 485.563 210.178 484.422 208.275 484.137C203.044 483.376 197.623 480.427 192.962 475.861C189.823 472.913 188.396 470.534 186.97 465.778C185.923 462.354 183.545 457.408 181.548 454.84C179.55 452.176 176.316 447.991 174.414 445.518C172.512 442.951 170.895 440.002 170.895 438.956C170.895 436.103 180.12 424.023 182.879 423.356C184.115 423.071 185.162 422.31 185.162 421.739C185.161 419.931 175.935 411.752 172.416 410.516C169.658 409.564 169.087 408.898 169.562 407.472C169.848 406.425 170.134 404.238 170.134 402.431C170.134 398.15 171.846 396.914 177.077 397.484C180.121 397.865 183.355 399.387 188.396 402.716C193.342 406.045 197.432 407.947 202.093 409.183C209.226 410.896 211.795 410.42 213.697 406.901C214.553 405.284 214.173 404.998 209.607 404.428C200.571 403.286 194.959 401.289 191.154 397.675C185.733 392.539 184.211 391.682 178.409 391.016C172.322 390.351 170.134 391.207 166.044 395.867L163.285 398.911L157.103 397.39L151.015 395.867L150.35 391.682C149.969 389.4 150.063 386.926 150.539 386.355C154.724 380.743 155.01 379.982 153.964 378.27C153.108 376.939 153.203 376.464 154.249 375.988C156.627 375.132 155.866 372.659 152.632 371.042C150.634 369.996 147.115 369.425 142.265 369.425L135.035 369.33L137.509 367.237C139.601 365.43 139.791 364.764 139.03 362.481C138.079 359.818 137.793 359.723 131.516 359.628C125.429 359.628 124.953 359.438 123.621 356.965C122.575 354.872 122.004 354.586 120.958 355.442C120.197 356.013 119.531 357.44 119.341 358.582C119.055 360.959 115.251 362.006 113.539 360.294C112.968 359.723 111.541 359.247 110.305 359.247C107.451 359.247 107.452 356.774 110.21 355.348C114.585 353.065 114.871 350.591 111.352 347.357C107.737 343.933 105.454 344.219 105.073 348.023C104.883 350.687 104.312 351.258 102.22 351.448C99.4616 351.733 99.2709 351.448 99.1758 346.977C99.0807 345.265 98.1297 344.314 95.0859 342.982L90.9961 341.27V347.738L88.4277 345.266C85.5742 342.602 76.8232 338.322 70.165 336.324C66.8363 335.373 65.5043 334.232 63.2217 330.522C60.0828 325.481 59.3219 325.1 57.0391 327.764C55.6123 329.476 55.2318 329.571 52.7588 328.239C50.0956 326.812 49.2397 324.719 51.0469 323.578C51.6175 323.293 51.998 322.152 51.998 321.105C51.998 319.869 51.3323 319.298 49.8105 319.298C46.862 319.298 45.3399 321.01 45.3398 324.244C45.3398 325.766 44.674 327.193 43.9131 327.478C42.7717 327.954 42.5811 328.905 43.0566 331.283L43.6279 334.516H38.8721C36.2088 334.516 33.3547 334.232 32.5938 333.946C31.1674 333.376 31.1677 333.185 32.6895 332.139C34.211 330.997 34.2111 330.522 31.7383 324.625C30.3115 321.106 28.1236 316.634 26.792 314.542C24.5094 311.023 24.1286 310.737 19.8486 310.737C14.3318 310.737 11.6687 309.406 15.2832 308.455C16.7105 308.075 22.3221 307.408 27.9336 306.838C40.8694 305.601 41.9152 305.125 41.1543 299.989C40.3933 295.519 38.396 293.521 32.3086 291.143C28.5041 289.717 28.1236 289.717 25.8408 291.143C23.4629 292.665 23.4629 292.665 23.4629 289.811C23.4629 287.529 23.8434 286.958 25.46 286.958C29.3596 286.958 38.6809 289.907 42.1055 292.189C46.1004 294.853 47.5279 295.139 49.0498 293.236C49.8107 292.285 49.9054 291.239 49.1445 289.241C47.908 286.102 46.6713 285.056 43.7227 285.056C42.2009 285.055 41.8207 284.58 42.2012 283.153C42.5814 281.727 42.0104 280.966 39.6328 279.92C36.5892 278.683 36.494 278.588 38.4912 277.542C39.6326 276.971 40.584 275.639 40.584 274.783C40.5839 273.166 39.9174 273.261 29.9307 275.259C24.0334 276.4 17.7557 277.446 16.1387 277.446C13.0952 277.446 13 277.351 13 273.262C13 270.979 13.285 267.174 13.5703 264.701C14.141 260.992 14.5219 260.325 16.3291 260.325C19.0875 260.325 24.3189 258.518 27.2676 256.52C28.5993 255.664 31.453 254.619 33.6406 254.238C35.8283 253.953 38.2065 253.382 39.0625 253.097C40.1085 252.716 40.584 253.002 40.584 254.048C40.584 255.379 41.2498 255.57 44.1982 254.999C47.242 254.428 55.6127 251.67 60.749 249.482C61.9855 248.912 62.4609 249.387 62.9365 252.051C63.4121 254.238 64.3632 255.665 65.8848 256.426C69.6895 258.138 70.9266 257.662 73.1143 254.048C74.9214 251.004 75.492 250.719 77.9648 251.194C79.5817 251.48 81.3894 252.621 82.1504 253.667C85.1941 258.042 92.898 254.618 94.8955 247.96C95.9417 244.631 96.3226 244.251 98.2246 244.726C99.8416 245.107 101.934 244.346 105.358 242.158C109.829 239.305 110.4 239.21 111.446 240.637C112.873 242.634 114.585 242.729 116.772 240.731C118.389 239.305 118.485 239.4 117.914 242.728C117.343 246.152 117.439 246.248 120.102 245.963C125.048 245.487 125.809 246.438 136.652 266.223C140.267 272.786 142.264 275.544 143.501 275.544C144.452 275.544 145.213 275.164 145.213 274.688C145.213 274.213 147.591 272.405 150.35 270.788C153.203 269.171 156.532 266.698 157.769 265.271C159.195 263.655 160.717 262.799 162.049 262.989C163.19 263.179 164.902 262.894 165.854 262.323C167.375 261.562 167.661 261.753 167.565 263.94C167.565 265.652 168.041 266.508 168.992 266.508C169.753 266.508 171.18 267.459 172.131 268.6C174.414 271.454 176.126 271.359 179.074 268.41C180.406 267.078 181.833 266.032 182.309 266.032C182.689 266.032 184.02 267.555 185.257 269.457C187.064 272.406 187.159 273.261 186.208 276.4C185.637 278.398 185.162 280.3 185.162 280.681C185.162 281.917 188.777 281.156 190.108 279.539C192.676 276.686 192.961 273.927 191.154 268.791L189.442 263.94L192.771 261.182L196.101 258.328L196.386 261.752C196.766 266.032 198.954 267.364 207.515 268.886C211.224 269.456 215.124 270.598 216.266 271.359C218.168 272.596 218.453 272.5 219.404 270.788C220.26 269.076 222.258 268.315 230.152 266.603C234.147 265.652 233.292 263.083 227.68 259.374C220.166 254.238 219.69 252.716 222.163 239.875C224.636 226.369 224.73 224.181 222.353 224.181C220.926 224.18 220.545 223.229 219.975 219.045C219.689 216.191 219.88 212.672 220.45 210.96C222.067 206.394 220.926 204.016 213.316 195.932L206.373 188.512L204.946 176.146C204.09 169.298 203.139 162.736 202.759 161.499C201.998 159.311 202.093 159.311 204.28 160.738C207.419 162.831 218.262 166.159 221.877 166.159C223.494 166.159 227.299 165.303 230.438 164.257C237.476 161.784 241.947 162.355 242.803 165.779C243.278 167.681 242.803 168.918 240.425 171.296C238.808 172.913 237.477 175.006 237.477 175.957C237.477 176.814 238.998 180.332 240.9 183.661C244.229 189.749 244.229 189.939 242.803 192.888C241.947 194.599 241.281 196.882 241.281 198.023C241.281 199.926 241.852 200.212 246.322 200.687C251.554 201.163 252.695 200.497 252.695 196.883C252.695 193.934 256.88 192.888 260.59 194.98C262.587 196.122 265.631 196.597 271.719 196.597C282.657 196.597 288.46 197.834 298.257 202.399C302.632 204.397 307.578 206.108 309.29 206.108C311.002 206.108 316.424 204.111 322.036 201.258C328.98 197.834 334.211 195.931 340.869 194.599C345.91 193.553 350.286 192.507 350.571 192.316C351.807 191.08 348.287 189.748 339.633 188.226L330.216 186.515L330.311 182.14C330.311 176.718 335.353 166.065 339.157 163.401C340.584 162.355 344.008 160.643 346.671 159.597C349.334 158.55 354.281 155.792 357.705 153.414C364.078 149.039 369.975 147.327 375.111 148.373C376.443 148.658 379.392 148.183 381.484 147.422C383.672 146.661 387.191 145.995 389.474 146.09C391.756 146.185 394.515 145.709 395.656 145.139C399.271 143.236 411.922 132.202 417.914 125.925L423.621 119.838L427.996 122.025C430.374 123.262 432.561 124.688 432.942 125.259C433.228 125.734 434.559 126.21 435.891 126.21C440.837 126.21 437.032 117.84 429.613 112.323C425.428 109.184 425.142 108.328 427.33 104.048C428.471 102.05 428.567 101.004 427.806 100.719C427.235 100.528 426.76 99.1967 426.76 97.7704C426.76 94.1561 429.613 86.1668 431.04 85.5956C431.991 85.3102 431.801 83.978 429.994 80.2684C427.331 74.5614 427.14 71.6127 429.138 66.952C429.899 65.0496 430.564 61.2449 430.564 58.3915V53.3505L435.796 49.9266C443.405 44.8854 451.776 41.9366 470.038 37.8466C478.979 35.754 486.494 34.137 486.874 34.0419ZM445.878 881.155C443.976 876.115 439.125 878.492 439.125 884.484C439.125 887.908 439.315 888.099 441.979 888.099C445.593 888.099 447.305 885.055 445.878 881.155Z" fill="white"/>
<circle id="233" cx="461" cy="283" fill="#5CE50D"/>
<circle id="235" cx="648" cy="547" fill="#E52A0D"/>
<circle id="234" cx="646" cy="776" fill="#E52A0D"/>
<circle id="1278" cx="275" cy="648" fill="#E52A0D"/>
</svg>
