<svg width="1000" height="1000" viewBox="0 0 1000 1000" fill="none" xmlns="http://www.w3.org/2000/svg">
<path fill-rule="evenodd" clip-rule="evenodd" d="M167.038 945.474L164.777 943.57L159.422 942.142L149.426 942.261L148.95 940.833L145.856 940.357L143 941.547L144.309 938.453L148.117 937.263L150.259 933.217L153.591 934.05L155.971 931.67L159.541 931.075L170.727 927.505L177.51 923.221L180.961 920.484L181.556 918.818L184.174 917.866L186.435 915.724L185.84 914.653L187.863 912.987L190.719 914.772L192.147 913.939L193.932 908.941L188.696 906.442L187.863 903.824L195.241 907.513L200.834 908.465L207.26 905.966L215.471 901.563L220.469 897.993L222.373 895.256L224.634 889.425L222.016 885.736L224.634 876.573L227.49 868.243L229.751 866.696L232.25 868.362L231.298 871.813L235.106 872.765L237.962 870.504L238.676 868.124L237.248 866.101L234.749 865.149L231.893 865.625L230.108 860.746L231.179 860.27L232.845 856.7L229.632 856.224L229.394 858.009L225.11 863.245L221.897 863.84L222.73 859.913L221.302 858.485L222.016 853.606L223.206 851.226L223.682 846.704L222.849 841.825L219.874 839.207L218.803 837.065L220.469 833.733L226.657 824.213L227.252 820.286L226.3 816.954L223.325 812.075L217.732 810.647L214.4 804.935L211.901 803.626L210.711 804.34L208.212 800.532L209.759 801.246L212.377 799.818L212.853 797.557L210.592 795.415L210.949 793.749L214.995 791.25L215.828 789.584L218.803 790.06L221.897 786.49L220.35 784.824L220.945 780.897L224.277 781.73L226.657 778.636L226.895 774.828L224.991 771.02L226.062 769.116L227.014 764.713L230.346 761.619L231.774 757.692L234.63 757.335L237.248 759.596L236.891 753.17L234.749 752.456L232.964 749.481L233.44 746.625L231.774 744.84L231.298 742.341L228.68 741.27L225.467 738.533L226.419 735.677L229.275 733.892L228.68 731.512L230.822 726.99L232.845 725.205L232.012 722.23L232.607 720.683L236.653 716.399V713.899L239.39 711.877L241.532 709.139L241.77 704.498L240.937 702.237L244.388 696.763L249.862 694.383L253.194 690.932L256.645 684.744L256.764 681.65L258.311 676.771L260.215 673.796L261.881 667.608L260.929 662.967L261.524 659.992L263.547 656.898L267.95 655.113L269.735 652.733L272.234 646.069L272.71 643.689L274.852 639.762L274.376 637.977L274.257 630.004L276.042 628.338L281.635 624.887L283.777 622.269L284.372 619.651L286.395 617.033L288.656 616.081L292.821 613.106L300.437 611.202L302.341 609.179L308.648 606.442L309.243 604.419L313.646 599.421L316.859 592.995L318.525 591.329L319.715 586.331L324.118 583.594L329.711 581.928L332.924 574.193L334.352 571.575L337.684 570.861L343.872 567.529L346.847 568.005L351.726 563.959L351.845 562.412L356.248 558.247L363.388 555.153L363.507 553.13L367.553 552.297L369.576 549.441L375.645 546.704V543.372L377.906 543.61L381.476 541.111L384.689 542.658L388.259 543.134L391.829 541.825L393.257 545.038L400.516 550.393L402.182 552.654L406.466 556.105L411.226 558.485L413.487 558.604L414.915 556.224L416.581 555.986L419.556 557.295L425.506 558.128L426.815 556.581L431.218 555.867L433.955 553.725L438.596 552.654L441.452 550.155H445.736L453.471 549.56L456.446 550.393L464.657 554.558L469.06 555.51L470.964 559.199L472.987 559.08L475.248 561.103L473.344 565.744L470.845 566.22L467.275 575.264L466.204 580.976L466.561 586.45L467.394 591.091L472.273 595.97L473.106 597.993L474.415 611.321L475.724 613.463L479.77 615.962L477.628 618.818L476.557 621.793L475.843 629.647L476.2 632.384L478.223 638.215L477.747 642.023L478.699 646.069L479.532 655.827L476.438 656.065L474.534 658.921L473.344 666.418L473.463 669.988L470.488 678.437L470.369 683.435L468.465 686.886L467.156 701.285L467.989 706.283L466.918 713.186L467.513 720.921L468.584 725.086L470.607 728.537L472.035 729.132L477.747 728.18L478.699 729.013L477.271 735.32L475.605 735.796L473.582 733.654L470.25 731.869L470.131 730.679L466.799 730.917L461.92 733.535L457.517 731.036L451.567 731.75L448.592 733.535L445.974 736.748L442.404 743.65L442.166 747.815L438.477 753.527L438.358 758.406L437.644 763.761L440.5 765.784L443.356 768.878L446.212 770.187L443.594 771.377L442.047 773.876V777.208L440.143 779.945L440.381 784.467L443.118 786.728L444.427 791.012L446.926 791.845L445.379 795.058L445.736 796.724L447.997 798.747L446.45 799.223L446.688 803.15L448.711 805.649L449.901 808.743L455.256 812.908L454.78 814.098L451.686 813.622L450.377 815.407L450.496 817.549L448.83 816.359L446.688 816.597L444.665 813.86L442.166 814.098L439.548 815.764L437.882 819.453L438.834 822.904L437.763 825.284L439.429 828.378L437.168 831.948L438.001 834.209L440.381 836.589L439.667 838.017L441.095 839.683L437.049 838.493L435.74 841.349L437.644 842.42L435.145 843.967L431.456 839.564L428.957 840.278L427.767 844.8L431.575 848.608L431.932 851.345L427.886 849.322L426.577 852.297L423.245 851.583L420.984 852.773L420.865 854.796L425.744 857.89L425.625 859.318L428.957 860.27L428.362 861.698L425.625 861.579L422.531 860.032L420.627 862.293L420.746 865.863L425.149 869.79L423.007 868.838L420.984 869.314L417.771 872.051L416.581 876.454L414.439 874.312L408.489 876.573L410.631 880.262L405.276 877.287L401.944 874.669L400.754 875.859L401.944 878.834L400.754 880.024H395.875L396.232 881.928L402.896 883.237L404.8 882.642L405.99 886.807L405.276 888.83L402.539 890.258L401.944 888.592L394.685 893.233L392.186 890.853L389.687 892.519L391.829 896.922L394.328 900.73L391.71 900.492L390.52 899.183L389.449 900.968L384.332 900.254L383.618 903.467L381.238 901.087L380.405 898.826L376.954 898.469L375.407 899.778L377.549 901.92L379.215 907.037L378.025 907.513L377.073 910.369L373.86 908.822L371.837 909.655L371.718 911.202L369.695 912.154L366.125 908.227L366.006 905.966L362.912 904.657L360.532 905.847L359.461 910.369L361.127 910.607L362.793 913.463L361.484 915.129L360.413 913.344L358.628 913.701L355.534 918.104L356.129 922.626L354.582 920.008L354.701 916.795L353.511 911.321L351.964 907.275L348.156 907.156L346.847 912.392L347.442 913.939L344.348 912.63L340.778 914.296L341.254 919.532L342.444 920.246L342.087 922.507L344.229 927.386L340.302 924.054L339.112 920.484L335.423 918.58L332.805 919.413L330.425 918.461L328.164 916.319L325.903 917.747L326.26 919.056L323.285 921.555L318.882 921.079L317.692 919.294L313.646 917.985L311.266 919.175L307.101 918.223L302.817 916.557L301.27 921.079L304.007 925.482L309.481 926.553L310.076 925.244L314.241 925.482L316.502 928.576L319.358 930.004L316.978 934.169L314.122 934.407L311.147 929.647L307.22 929.885L303.888 929.29L300.318 925.839L297.581 924.411L300.08 923.459L298.771 921.317L299.009 918.342L297.938 915.129L296.034 918.461L294.368 919.532L291.988 918.461L291.155 920.484L287.942 920.841L287.347 921.912H293.297L294.963 925.006L295.201 927.386L297.224 931.075L302.936 938.572L305.554 938.81L303.531 942.023L303.769 944.403L306.268 948.092L304.364 947.021L301.746 947.854L301.627 951.305L299.366 953.804L300.318 956.779L297.819 956.422L298.057 952.971L297.462 948.806L294.606 943.451L295.32 940.714L292.702 938.691L290.203 933.098L290.084 930.956L288.299 928.814L286.99 924.768L283.42 923.816L278.779 926.434L277.946 922.745L270.687 918.58L272.115 921.317V924.411L274.733 929.647L275.804 930.242L280.207 928.1L282.825 929.528L285.681 939.405L283.301 939.286L282.468 940.952L283.658 943.213L282.825 946.783L280.564 943.213L274.971 938.453L272.71 939.524L271.758 942.737L269.378 940.952L266.76 936.311L268.069 932.979L265.451 930.123L263.309 930.48L262.595 932.503L260.691 932.384L259.382 928.814L255.574 926.791L250.933 922.15L248.91 918.58L246.887 918.818L247.363 926.315L250.1 929.052L251.171 932.503L249.981 934.407L246.768 936.668V938.691L243.317 939.524L240.104 943.927L239.033 947.378L237.129 948.092L235.344 951.186L233.44 945.593L235.939 939.167L235.701 937.144L232.964 936.549L231.417 938.215L229.751 935.835L227.847 935.24L225.824 936.906L227.014 940.714L226.062 942.261L227.252 944.403L224.634 948.925L226.3 953.804L225.943 960.706L224.991 964.157L223.206 964.276L222.849 960.23L220.469 961.182L217.851 959.516L217.256 961.182L218.803 962.61L217.732 964.514L215.709 964.276L214.519 967.013L210.949 967.37L212.734 963.8L212.139 960.825L214.519 956.898L213.924 953.685L216.066 950.71L216.185 947.14L217.613 944.76L215.114 942.38L212.853 941.904L209.164 942.856L207.617 934.169L205.118 935.002L203.928 940.357L204.88 946.188L203.928 949.282L204.642 951.186L203.214 951.9L203.333 954.518L201.667 956.541L200.358 955.351L201.786 954.161L202.738 950.71L200.12 949.877V945.593L198.692 943.451L195.717 944.76L195.836 948.806L194.051 947.497L192.028 948.568L191.314 952.376L189.886 948.211L186.435 946.902L187.506 942.38L183.46 941.785L182.746 943.57L179.533 940.476H172.512L172.155 944.284L170.965 946.783L166.562 946.902L167.038 945.474Z" fill="white"/>
<path fill-rule="evenodd" clip-rule="evenodd" d="M829.154 50.4757L832.129 50.8327L835.937 45.2397L837.722 44.2878L843.434 39.1707L846.766 38.2188L852.121 39.5277L854.858 44.6447L855.096 47.5008L857 50.7137L855.929 62.2567L854.025 63.3278L849.622 64.0418L847.361 65.7078L846.766 64.5177L843.315 63.3278L839.983 64.1607L838.436 62.3758L835.699 56.5448L832.962 55.9497L830.225 53.9268L829.154 50.4757Z" fill="white"/>
<path fill-rule="evenodd" clip-rule="evenodd" d="M652.439 194.703L653.391 194.465L655.89 189.943L654.224 188.872L656.723 185.897L657.437 183.16L655.533 179.233L656.485 174.473L660.174 172.212L664.101 168.285L667.076 164.477L671.36 164.12L674.097 165.786L677.191 164.477L679.214 162.216L680.523 158.408L680.761 154.957L678.619 149.245L675.406 146.508L674.93 142.462H669.099L667.195 143.89L661.84 144.961L664.458 147.103L665.648 145.675L668.147 145.913L669.099 143.414L674.811 143.533L671.955 145.794L674.454 147.103L673.74 148.174L668.266 147.341L666.124 148.769L663.625 148.055L659.936 145.08L655.176 139.13L656.961 132.585L653.867 128.063L657.199 125.683L656.128 122.827L657.794 121.28L659.103 122.351L658.984 125.207L657.675 126.635L659.103 129.015L661.602 131.038L668.266 131.633L671.003 133.18L675.406 131.395L678.857 132.466H682.308L688.139 128.777L689.686 124.374L688.734 121.875L689.924 120.685L693.851 119.733L697.541 121.518L708.727 120.209L716.462 117.234L721.817 113.426L725.149 109.023L727.767 107.238L729.314 104.501V99.86L727.886 99.0271L729.076 96.0521L728.243 94.6241L729.314 91.4111L729.195 88.4361L736.097 82.3671L738.12 77.369L738.358 73.204L735.383 68.325L738.001 62.732L735.978 55.235L739.905 53.093L740.738 51.189L739.548 49.761L743.951 45.477L745.736 44.406L749.544 43.811L752.519 41.431L752.995 38.813L756.684 32.625L756.922 37.147L761.682 40.717L763.943 41.431L767.037 41.074L767.751 39.884L771.44 43.216L772.035 45.477L769.536 48.333L768.822 57.496L769.893 58.329L769.536 60.947L770.131 66.183L771.559 70.11L775.129 74.275H776.795L778.699 76.774L784.292 79.8681L786.91 83.6761L786.315 85.1041L782.745 86.1751L780.008 90.3401L778.223 96.4091L777.866 99.6221L779.175 100.931V104.382L782.269 107.238L780.484 108.19L778.342 107.357L772.273 108.904L770.25 112.117L768.346 113.307L766.799 117.472L765.252 125.921L766.085 127.111L765.847 132.466L766.918 133.299L766.085 136.155L765.728 141.391L766.799 145.794L769.655 147.103L770.131 151.03L769.893 156.028L767.156 157.337L761.92 156.742L759.421 158.289L757.993 157.694L755.613 159.836L754.899 161.74L752.876 159.598L751.448 160.193L748.83 156.861L745.022 157.575L741.214 159.479L739.905 161.026L735.026 160.55L733.479 159.479L732.408 156.98L729.433 156.385L726.339 157.337L723.602 159.955L719.913 161.859L717.057 162.097L712.178 165.31L706.347 173.283L702.658 176.734V178.162L697.898 178.638L696.589 177.448L694.208 178.281L693.256 176.496L687.901 175.068L687.187 173.64L683.26 172.807L680.761 174.473L675.882 173.045L672.312 173.402L670.289 175.901L665.767 178.4L664.458 180.185L660.65 182.089L657.437 189.824L659.46 193.989L657.556 193.156L654.105 194.822L652.439 194.703Z" fill="white"/>
<path fill-rule="evenodd" clip-rule="evenodd" d="M509.282 441.747L507.021 438.891L503.213 437.225L501.547 434.607L492.741 431.87L490.48 429.966L493.812 426.158L499.405 418.185L505.474 412.116L507.14 406.165L503.213 400.096L503.808 398.788L508.33 397.479L509.52 402.239L515.351 404.5L518.803 404.143L521.421 400.216L522.492 401.763L522.135 406.523L519.041 408.903L516.541 408.07L514.637 409.379L513.685 414.377L516.541 416.519L517.255 419.613L519.636 421.993L519.398 423.54L512.733 432.465L512.376 435.915L510.234 441.628L509.282 441.747Z" fill="white"/>
<circle id="789" cx="233" cy="849" fill="#5CE50D"/>
<circle cx="720" cy="144" fill="#E52A0D"/>
<circle cx="403" cy="569" fill="#E52A0D"/>
<circle id="790" cx="433" cy="754" fill="#E52A0D"/>
</svg>
