<svg width="1000" height="1000" viewBox="0 0 1000 1000" fill="none" xmlns="http://www.w3.org/2000/svg">
<path d="M44.5253 253.036C43.4888 253.224 40.4736 254.261 37.8353 255.297C32.4643 257.37 30.3914 260.291 26.9992 269.997C26.0569 272.918 24.5493 276.404 23.7013 277.629C22.0994 280.173 17.4823 292.988 18.0477 293.553C18.2361 293.742 20.686 294.119 23.4186 294.496C27.3761 294.967 29.2606 295.721 31.9932 298.171C36.2334 301.94 39.7198 303.824 44.3369 304.672C47.0695 305.238 48.2002 306.18 50.0847 309.289C52.8173 314.001 55.2672 322.952 54.7018 326.156C54.3249 327.852 54.8903 328.983 56.6806 330.396C58.094 331.432 60.0727 334.259 61.1092 336.709L63.088 341.138L65.1609 339.159C68.082 336.427 70.9088 336.709 75.149 340.007C77.1277 341.515 80.8968 343.399 83.6293 344.059C87.1157 345.001 90.131 346.697 93.7116 349.901C98.4229 354.047 99.0825 354.33 102.286 353.67C107.469 352.633 116.514 353.105 121.697 354.706C124.241 355.46 127.633 356.026 129.047 356.026C133.287 356.026 137.81 360.077 139.223 365.071C139.883 367.427 141.202 369.877 142.238 370.442C143.181 371.102 143.934 371.95 143.934 372.421C143.934 372.986 145.065 374.494 146.384 376.002L148.928 378.546L151.284 376.755C154.393 374.306 158.257 374.4 160.612 376.944C164.193 380.807 169.375 393.528 169.375 398.333C169.375 402.291 169.847 403.327 174.181 408.133C178.421 412.844 179.175 413.41 180.871 412.467C184.263 410.583 190.859 411.996 194.251 415.294C196.607 417.556 198.115 418.215 200.941 418.215C207.16 418.309 213.002 420.1 215.923 422.738C217.431 424.151 220.258 428.768 222.142 433.009C226.383 442.149 229.68 460.052 229.68 474.186C229.68 483.985 231.659 490.77 236.371 497.837C237.69 499.91 239.197 503.49 239.574 505.846C239.951 508.201 240.893 510.84 241.741 511.782C242.684 512.913 243.155 514.797 242.966 517.153C242.872 519.414 243.343 521.77 244.38 523.183C245.605 525.162 245.887 527.612 245.793 535.339L245.605 544.95L250.41 552.488C260.021 567.47 260.869 570.297 262.283 593.665C262.942 603.653 262.848 603.653 260.021 608.741C258.42 611.568 256.818 615.62 256.441 617.881C255.593 623.064 246.17 635.973 241.93 637.763C240.14 638.517 238.067 640.684 236.371 643.793C234.769 646.432 231.659 651.332 229.304 654.629C226.854 658.022 224.969 661.037 224.969 661.414C224.969 661.791 227.325 662.356 230.246 662.733C234.109 663.204 236.276 664.052 238.726 666.219C241.647 668.763 242.684 669.14 247.018 668.952C250.881 668.858 252.295 669.14 253.614 670.648C254.556 671.684 256.912 672.721 258.796 673.098C261.341 673.475 262.754 674.417 263.885 676.302C266.052 679.976 270.009 680.73 271.14 677.715C271.611 676.49 273.119 675.265 274.438 674.888C275.851 674.511 277.83 672.815 279.055 670.836C280.28 668.952 283.013 666.125 285.274 664.617L289.232 661.885L292.247 663.581C293.849 664.523 296.864 666.219 298.843 667.256L302.518 669.235L306.098 667.162C309.113 665.371 310.056 665.277 312.034 666.219C314.107 667.067 314.767 666.973 316.275 665.654C318.065 664.052 318.348 664.052 323.247 666.879C327.016 669.046 329.561 669.8 332.953 669.8C335.968 669.8 338.041 670.365 339.36 671.59C341.716 673.663 346.804 675.453 350.385 675.453C352.175 675.453 354.436 676.678 356.886 678.94L360.75 682.332L364.047 680.824C365.838 679.882 368.099 677.903 368.947 676.207C369.795 674.605 372.339 671.213 374.601 668.669C376.768 666.125 378.558 663.11 378.558 661.885C378.558 656.043 379.595 654.064 383.835 652.085C389.3 649.353 404.376 649.07 405.319 651.52C405.79 652.745 406.732 652.933 410.03 652.462L414.27 651.803L413.705 657.268C413.328 660.943 412.574 663.11 411.349 664.146C409.653 665.466 409.747 665.748 413.799 669.046L418.039 672.627L421.055 669.517L424.164 666.502L425.577 670.083C426.802 673.004 427.462 673.569 429.252 673.098C430.854 672.721 431.514 673.098 432.173 674.7C432.644 675.925 434.152 677.903 435.471 679.128C436.79 680.448 437.921 682.144 437.921 682.897C438.015 685.347 447.061 694.299 449.511 694.299C452.243 694.299 455.07 696.937 456.766 700.8C457.614 702.873 458.557 703.721 460.159 703.721C461.289 703.721 462.608 704.193 462.985 704.758C463.268 705.323 464.493 705.512 465.718 705.229C467.225 704.852 468.074 705.135 468.45 706.171C469.393 708.715 469.11 710.317 467.602 710.317C464.964 710.317 460.818 713.05 460.253 715.029C459.782 716.725 460.253 716.913 463.645 716.913C465.812 716.913 468.168 717.29 468.827 717.667C469.393 718.138 470.995 721.342 472.125 725.017C474.764 732.555 475.612 733.026 482.208 730.199C486.825 728.22 492.761 727.749 499.263 728.786C502.184 729.257 502.937 730.011 505.105 734.439C506.518 737.266 507.649 740.658 507.649 741.883C507.649 744.804 507.649 744.804 515.752 741.977C520.84 740.187 522.631 739.904 524.138 740.752C525.834 741.695 531.865 742.543 546.282 743.862L551.464 744.333L557.777 738.68L563.996 732.932H573.984C581.711 732.932 585.009 732.461 589.155 730.953C592.924 729.54 595.562 729.163 597.918 729.54C608.094 731.33 608.094 731.33 609.696 728.88C610.544 727.561 611.486 725.394 611.863 723.98C612.24 722.567 613.465 721.153 614.878 720.588C616.857 719.834 617.705 720.117 620.155 722.378C625.903 727.843 629.201 728.409 636.268 725.299L640.791 723.321L645.314 725.394C650.496 727.843 657.469 727.655 661.615 724.828C663.97 723.321 664.159 723.415 666.892 726.242C669.247 728.786 669.907 729.068 671.509 728.22C672.639 727.655 674.147 725.959 674.901 724.451C676.126 722.001 676.88 721.624 680.177 721.624C682.25 721.624 685.171 722.284 686.679 723.038C688.94 724.263 691.673 724.357 701.284 723.886C714.947 723.132 715.23 722.849 709.67 715.123L706.372 710.412L708.728 708.904C710.895 707.491 711.272 707.491 716.737 710.223C719.847 711.825 723.427 713.144 724.558 713.144C725.972 713.144 732.19 708.339 743.215 698.445C774.592 670.46 776.477 669.423 785.052 676.019L789.386 679.317L804.933 678.186L807.477 682.049C809.739 685.253 810.587 685.818 813.508 685.818C819.162 685.818 824.532 687.797 828.207 691.284C831.599 694.487 831.788 694.581 837.347 693.922C840.551 693.545 843.095 693.545 843.095 693.922C843.095 694.299 841.587 696.183 839.797 698.162C838.007 700.235 836.499 702.214 836.499 702.685C836.499 703.91 847.241 713.144 853.931 717.573C857.041 719.646 863.165 722.473 867.5 723.98C877.394 727.278 885.12 726.901 894.449 722.661C898.877 720.682 901.421 720.023 903.683 720.4C905.379 720.682 908.488 720.4 910.467 719.834L914.142 718.798L923.659 728.126C933.364 737.643 936.285 739.81 938.452 739.151C944.012 737.36 944.671 737.549 945.802 740.847C947.215 745.181 949.854 747.254 954 747.443C957.392 747.537 957.486 747.348 959.465 742.354C961.255 737.549 961.726 737.172 964.647 736.889C970.772 736.418 972.185 735.758 973.41 732.649C974.164 731.047 975.86 729.068 977.179 728.315C979.252 727.184 979.724 726.242 979.724 723.603C979.724 721.719 980.289 719.363 980.948 718.327C982.268 716.442 982.362 706.36 981.137 698.445C980.572 694.958 980.1 694.487 975.86 692.603C972.28 691.095 970.866 689.964 969.83 687.326C968.416 684.122 968.134 683.934 963.799 683.934C960.878 683.934 958.805 683.463 958.051 682.52C957.392 681.767 956.167 681.107 955.319 681.107C954.377 681.107 951.55 679.223 949.006 676.867C946.462 674.511 943.635 672.627 942.693 672.627C941.844 672.627 940.62 671.59 940.148 670.365C939.677 669.046 938.264 667.915 936.662 667.444C935.249 667.162 933.364 666.314 932.61 665.654C931.857 664.9 929.972 664.146 928.559 663.769C926.486 663.298 926.014 662.733 926.486 661.414C926.862 660.189 926.203 658.775 924.601 657.174C923.282 655.854 922.245 653.687 922.245 652.368C922.245 650.389 922.717 650.012 924.978 650.012C928.464 650.012 929.218 647.939 926.862 644.924C925.261 642.851 924.601 642.663 922.999 643.511C921.02 644.641 919.419 643.416 919.419 640.778C919.419 639.271 918.947 639.365 915.555 641.155C914.048 641.909 911.975 642.286 911.032 642.003C908.111 641.155 905.285 633.052 905.285 625.985C905.285 618.729 906.981 614.018 910.467 611.756C912.54 610.437 913.482 610.343 916.498 611.285C923.093 613.17 922.434 613.641 933.176 601.486C937.133 596.869 938.547 594.419 939.96 589.142L941.75 582.64L939.206 579.437C936.662 576.516 936.002 576.233 928.653 575.479C921.303 574.82 920.644 574.537 918.476 571.71C912.257 563.607 913.482 564.078 902.835 565.303C897.652 565.962 892.564 566.151 891.716 565.868C890.868 565.491 889.549 563.795 888.795 562.005C887.287 558.33 885.214 557.199 883.612 559.084C882.576 560.309 882.199 560.309 880.503 559.084C877.865 557.293 875.132 557.293 872.494 559.178C870.515 560.497 870.421 560.497 870.421 558.707C870.421 557.67 869.573 556.351 868.536 555.786C867.406 555.22 866.652 553.807 866.652 552.394C866.652 548.059 863.448 544.761 858.454 544.008C850.256 542.877 847.147 541.463 841.305 536.469C837.159 532.795 834.615 531.287 831.599 530.816C828.678 530.25 826.7 529.214 824.532 526.764C821.8 523.843 821.517 522.901 821.988 519.98C822.365 518.189 823.779 514.515 825.286 511.876C829.432 504.527 833.296 494.633 834.992 487C835.84 483.231 837.253 478.614 838.007 476.824C839.326 473.526 839.326 473.432 836.405 470.417C832.259 466.082 820.481 461.654 808.137 459.675C802.107 458.733 801.447 458.921 792.307 462.03C787.125 463.821 782.131 465.328 781.094 465.328C779.963 465.328 778.927 464.103 778.079 461.748C776.571 457.413 771.86 451.477 769.41 450.629C768.373 450.346 766.772 448.273 765.829 446.012C764.793 443.656 762.626 440.924 760.458 439.322C758.48 437.908 755.37 435.082 753.486 433.103C749.528 429.051 747.549 428.768 742.273 431.407C735.488 434.893 732.85 434.139 724.841 426.601C716.926 418.969 715.512 418.78 708.445 423.398C704.959 425.753 704.771 426.13 704.394 431.501C704.111 435.835 703.451 437.626 701.567 439.699C699.211 442.054 699.117 442.431 700.436 444.881C701.661 447.143 701.661 447.52 700.342 447.991C697.892 448.933 696.102 447.614 696.102 444.881C696.102 442.054 689.035 429.145 686.114 426.507C683.947 424.717 671.697 421.984 665.195 421.984C660.107 421.984 653.04 424.151 645.502 428.015C641.262 430.088 639.377 430.465 632.122 430.465H623.642L622.511 434.422C621.003 440.17 616.857 447.237 614.596 447.896C613.559 448.179 608.188 448.839 602.535 449.31C591.322 450.252 587.93 451.666 583.595 457.319C580.297 461.654 577.753 461.559 572.1 456.848C567.671 453.173 567.483 453.173 559.096 452.89L550.522 452.608L548.731 449.027L547.035 445.447L551.087 439.605C553.349 436.401 555.893 433.197 556.835 432.538C557.777 431.878 559.191 430.088 559.944 428.674L561.264 426.036L555.422 422.455C551.652 420.194 547.601 418.686 543.926 418.121C539.215 417.367 537.895 416.707 535.917 414.163C529.886 406.343 521.312 400.783 512.36 398.899C510.57 398.522 508.402 397.674 507.649 397.014C506.047 395.695 497.661 393.716 493.515 393.716C492.007 393.716 488.803 392.68 486.353 391.361C483.527 389.853 480.417 389.005 477.779 389.005C472.125 389.005 467.697 386.461 458.934 378.546C454.882 374.777 449.605 369.877 447.155 367.615L442.632 363.47L444.046 359.606C445.742 354.612 444.988 353.576 438.109 352.257C431.796 350.937 429.252 349.524 424.541 344.436C421.431 341.138 420.678 340.761 418.887 341.609C417.285 342.269 415.778 342.08 412.763 340.761C409.653 339.442 408.334 339.253 406.826 340.007C405.507 340.761 404.376 340.761 403.057 340.007C400.23 338.499 397.969 339.63 396.367 343.117C394.294 347.828 390.431 347.734 382.045 342.645C378.276 340.478 373.564 337.086 371.491 335.202C366.403 330.584 362.917 329.642 351.704 329.642C345.014 329.642 341.622 329.265 340.397 328.323C339.077 327.381 337.947 327.287 336.251 327.946C334.931 328.417 333.047 328.7 332.01 328.606C326.168 328.229 324.001 328.888 318.065 333.411L311.846 338.123L300.633 335.202C284.709 330.961 284.143 330.961 279.997 333.788C275.286 336.992 271.8 336.898 266.523 333.411C262.848 331.15 261.058 330.584 255.122 330.396C251.258 330.208 246.547 330.49 244.757 330.867C241.553 331.527 241.365 331.432 236.465 325.025C232.13 319.371 230.717 318.241 225.817 316.45C221.483 314.754 220.258 313.906 220.258 312.399C220.258 311.268 219.127 309.195 217.714 307.782C215.358 305.332 214.604 305.143 208.103 305.143C201.695 305.143 200.188 304.766 194.346 301.657C188.127 298.453 187.09 298.265 176.442 297.699L165.041 297.134L159.953 293.365C157.126 291.386 152.509 287.617 149.682 285.073C144.311 280.267 137.15 276.31 129.329 273.672C125.749 272.541 123.77 271.128 121.32 267.924L118.022 263.589L112.274 263.966C107.846 264.155 105.49 264.814 102.475 266.887C98.7998 269.337 97.8576 269.526 92.204 269.149C85.4196 268.678 81.9333 267.17 74.5836 261.799C71.4741 259.443 67.9877 257.842 64.4071 257.088C61.2977 256.428 57.5286 255.109 55.9267 254.167C53.1942 252.471 48.8598 252.094 44.5253 253.036Z" fill="white"/>
<circle id="253" cx="690" cy="629" fill="#5CE50D"/>
<circle id="254" cx="275" cy="629" fill="#E52A0D"/>
<circle id="255" cx="424" cy="530" fill="#E52A0D"/>
<circle id="1616" cx="155" cy="369" fill="#E52A0D"/>
</svg>
