<svg width="1000" height="1000" viewBox="0 0 1000 1000" fill="none" xmlns="http://www.w3.org/2000/svg">
<path d="M609.069 17.6419C609.069 18.8709 607.273 20.7617 603.964 23.0306C599.048 26.4341 598.764 26.5286 596.684 25.016C595.455 24.1652 593.092 23.5034 591.39 23.5034C588.932 23.5034 587.987 24.0706 586.852 26.3395C585.718 28.514 585.623 29.6485 586.379 31.0666C587.23 32.6738 586.852 33.1465 583.732 34.7537C581.747 35.7936 579.572 37.3062 578.911 38.0626C578.06 39.1025 576.074 39.5752 572.671 39.5752C567.282 39.5752 566.242 40.3315 562.461 47.2329L560.759 50.2582L557.545 47.1384C555.748 45.3422 554.236 43.3568 554.236 42.695C554.236 40.3315 550.36 39.5752 538.637 39.5752C528.994 39.5752 526.63 39.8588 526.252 40.9933C525.401 43.0732 523.037 42.695 520.39 40.3315C518.027 37.968 507.911 36.4554 497.512 36.6445C450.147 37.7789 449.391 37.7789 446.271 36.0772C444.002 34.9428 440.126 34.3755 431.712 34.0919C420.651 33.7137 420.178 33.8082 419.516 35.699L418.949 37.6844L327.056 37.4008C240.363 37.2117 235.163 37.3062 234.879 38.8189C234.69 39.7643 235.541 41.8442 236.675 43.4514C238.661 46.2875 238.661 46.4766 237.148 49.5964C236.297 51.3927 234.596 53.3781 233.272 53.9453C231.948 54.5125 230.625 56.0252 230.436 57.2542C230.152 58.4832 229.774 60.5631 229.396 61.9812C229.112 63.4938 227.221 68.0317 225.047 72.097C221.644 78.7148 221.36 79.7548 222.684 80.7001C224.007 81.6456 224.007 82.2128 222.116 86.3726L219.942 90.9105L223.534 101.121C227.694 113.316 228.167 114.262 232.516 119.083C235.636 122.487 236.108 122.676 239.701 122.109C243.104 121.636 243.482 121.731 242.915 123.149C242.537 124.094 242.253 125.229 242.253 125.701C242.253 126.268 241.024 127.025 239.606 127.592C236.865 128.537 233.745 133.454 233.745 136.952C233.745 138.937 242.442 146.406 244.711 146.406C246.697 146.406 243.01 153.212 239.89 155.292C237.904 156.616 237.715 157.183 238.472 158.696C239.89 161.343 240.646 171.081 239.606 173.822C238.944 175.618 239.323 177.604 241.402 182.709C243.955 188.76 244.05 189.61 243.199 195.188C242.253 200.766 242.348 201.617 244.617 205.966C245.94 208.518 246.98 211.071 246.98 211.544C246.98 212.111 245.09 215.325 242.821 218.729L238.661 224.968L240.552 229.412C241.592 231.87 243.293 234.895 244.144 236.219C245.751 238.393 245.751 238.582 243.577 242.08C240.741 246.523 241.308 249.738 245.468 252.48C247.075 253.519 250.006 256.45 251.991 259.003C254.827 262.69 255.583 264.392 255.583 267.606C255.583 269.875 255.678 273.846 255.773 276.587C255.962 281.031 255.583 281.882 252.747 284.812C249.722 287.932 249.627 288.216 250.762 291.052C251.424 292.754 253.031 294.455 254.26 294.928C257.474 296.157 256.907 298.71 252.653 302.869C250.573 304.855 248.209 308.353 247.358 310.622C246.508 312.891 245.279 314.687 244.617 314.687C244.05 314.687 243.104 316.956 242.537 319.603C241.97 322.345 241.308 325.275 240.93 326.032C239.701 328.868 242.537 330.759 250.762 332.555C258.703 334.257 258.798 334.257 258.609 336.998C258.231 341.158 260.972 348.721 262.863 348.721C264.092 348.721 264.47 349.667 264.659 353.165C264.754 355.717 264.943 359.404 265.037 361.484C265.132 363.564 264.943 366.117 264.565 367.251C263.998 368.669 264.376 369.426 266.077 370.182C268.157 371.127 268.63 373.302 275.248 413.765C279.029 437.211 281.96 456.97 281.677 457.726C281.109 459.239 272.317 461.413 268.441 461.035C266.456 460.846 265.416 461.319 264.281 463.304C262.769 465.668 262.769 466.046 264.187 467.558C265.605 469.166 269.292 479.092 268.63 479.565C268.441 479.659 264.848 480.699 260.689 481.928C253.882 483.819 252.558 484.576 247.453 489.681C244.05 492.99 240.93 495.259 239.701 495.259C237.904 495.259 237.621 495.92 237.054 501.404C236.486 506.32 235.919 507.927 234.123 509.345C232.61 510.48 231.854 512.087 231.854 513.978C231.854 515.49 231.192 517.286 230.436 517.948C229.679 518.61 229.018 519.744 229.018 520.501C229.018 521.163 228.356 522.013 227.505 522.392C226.654 522.675 223.534 528.253 220.415 534.776C215.215 545.743 214.837 547.067 214.837 553.306C214.837 557.844 213.513 565.975 210.677 578.454L206.517 596.795L210.866 602.467L205.288 610.503C200.656 617.215 199.71 619.106 199.71 622.51V626.48L195.078 627.142C192.431 627.52 189.973 628.277 189.5 628.844C188.933 629.506 184.678 637.163 179.857 646.05C169.646 664.958 168.323 669.496 170.686 677.059C173.05 684.528 172.861 687.175 170.025 687.175C165.487 687.175 162.84 692.942 166.149 695.684C167.188 696.535 167.567 698.804 167.567 703.814C167.567 708.258 168.607 714.97 170.497 722.817C172.105 729.435 173.712 738.321 174.09 742.481C174.657 749.477 174.846 750.044 177.021 750.517C179.006 750.99 180.046 752.786 183.733 762.145C186.853 770.087 188.271 775.286 188.744 780.203C189.216 785.591 190.445 789.468 193.943 797.503L198.576 807.997L197.725 817.735C196.401 834.847 196.118 833.712 201.696 833.712H206.517L206.139 837.683C205.855 839.952 206.139 843.166 206.517 844.868C207.368 847.988 207.557 848.082 210.866 847.421C212.757 847.042 215.498 846.192 217.011 845.435C219.469 844.112 220.225 844.206 225.992 846.097C235.73 849.311 235.068 848.555 235.73 857.915C236.108 863.398 237.148 868.787 238.85 873.325C240.268 877.295 241.308 882.4 241.308 885.048C241.308 889.396 241.119 889.68 239.133 889.207C237.999 889.018 236.297 888.451 235.446 888.073C233.934 887.506 233.745 887.978 233.745 891.476C233.745 893.934 233.083 896.203 232.138 897.243C230.719 898.85 230.719 899.134 232.61 901.119C233.934 902.537 234.69 904.523 234.69 906.603C234.69 908.399 235.825 912.181 237.148 915.017C240.363 922.013 239.795 923.998 234.123 924.849C231.759 925.133 226.843 925.133 223.345 924.849C219.091 924.376 216.822 924.565 216.349 925.322C215.215 927.118 204.815 926.551 200.561 924.471C197.63 922.958 195.361 922.58 190.445 922.769C184.395 923.053 184.111 923.147 183.828 925.511C183.544 927.874 183.828 928.063 198.954 932.318C211.055 935.816 217.484 937.045 229.018 938.179C242.159 939.597 245.373 940.259 260.878 945.364C270.332 948.389 281.204 951.415 284.985 951.982C299.261 954.251 311.551 959.545 316.278 965.596C317.696 967.392 320.154 969.566 321.667 970.323C323.18 971.174 324.692 972.781 325.07 974.01C325.449 975.712 326.678 976.562 329.797 977.413C332.823 978.264 334.43 979.399 335.47 981.289C337.172 984.598 340.008 984.882 345.302 982.14C347.382 981.1 350.313 980.249 351.92 980.249C354.283 980.249 355.796 979.21 359.578 975.144C362.603 971.741 365.817 969.472 369.126 968.054C371.868 966.919 375.744 965.218 377.635 964.178C379.526 963.138 381.889 962.287 382.929 962.287C385.198 962.287 387.845 959.356 387.845 956.804C387.845 953.967 392.572 951.037 398.906 949.808C401.932 949.24 404.862 948.673 405.43 948.578C405.997 948.389 406.753 946.499 407.131 944.419C407.699 940.921 407.982 940.543 410.44 940.543C411.953 940.543 414.6 939.975 416.302 939.219C418.098 938.463 422.636 937.423 426.512 936.856C430.388 936.194 434.642 934.965 436.061 933.925C437.573 932.885 440.22 932.034 442.206 932.034C444.096 932.034 448.54 931.183 451.943 930.238C455.441 929.198 461.965 927.78 466.597 926.929C475.011 925.322 485.221 921.067 491.083 916.624C492.879 915.206 495.904 913.41 497.89 912.653C501.199 911.235 501.577 911.235 502.711 912.748C503.751 914.26 504.697 914.355 512.922 913.315C517.932 912.653 524.267 912.181 527.197 912.181C532.775 912.181 533.626 911.708 543.458 902.632C550.549 896.014 561.799 891.098 574.373 889.018C578.533 888.356 584.016 883.913 584.867 880.51C585.245 879.092 588.176 876.161 592.524 872.946C598.008 868.881 600.371 867.747 603.018 867.747C604.909 867.747 610.771 866.329 616.159 864.532C621.454 862.736 629.584 860.089 634.217 858.671C638.849 857.347 644.238 855.173 646.223 853.849C648.114 852.62 651.045 851.391 652.652 851.013C654.448 850.729 657.095 848.65 659.932 845.53C662.862 842.126 665.509 840.236 667.873 839.574C669.858 839.006 672.6 837.777 674.018 836.832C675.436 835.792 682.338 832.767 689.144 830.12L701.718 825.109L709.943 826.244C718.074 827.284 751.352 827.851 752.203 827C752.486 826.811 752.203 824.92 751.635 822.84C750.217 817.546 749.556 806.863 750.69 807.619C751.163 807.903 751.825 809.983 752.108 812.157C752.297 814.426 753.904 819.059 755.606 822.557L758.631 828.985H766.951C771.867 828.985 776.878 828.418 779.241 827.567C781.416 826.811 785.67 826.149 788.601 826.149C792.95 826.149 794.651 825.676 797.298 823.691C799.095 822.367 801.08 820.949 801.742 820.571C802.404 820.193 804.389 814.426 806.091 807.619C807.887 800.907 809.683 794.478 810.156 793.344C811.007 790.886 819.515 784.173 827.835 779.163C836.533 773.963 836.249 774.436 833.98 770.37C832.184 767.251 831.333 766.683 827.551 766.116C817.341 764.698 817.057 764.603 815.166 761.011C814.221 759.12 811.858 756.189 810.061 754.393C807.981 752.502 806.28 749.572 805.429 746.83L804.2 742.481L789.262 741.914L784.441 737.376C781.888 734.918 778.579 732.176 777.161 731.231C774.136 729.245 764.966 718.279 762.791 713.835C761.184 710.716 761.184 710.621 763.548 707.501C767.235 702.774 766.856 701.356 761.94 701.356C758.537 701.356 757.308 700.789 754.85 698.236C752.108 695.4 751.825 694.644 751.73 688.593C751.541 678.383 751.163 677.437 745.396 675.925C740.952 674.696 740.48 674.318 740.48 671.954C740.48 670.063 739.534 668.551 737.171 666.66C733.389 663.635 733.2 662.5 735.753 657.489C737.833 653.235 737.076 650.777 733.295 649.359C731.404 648.603 730.931 647.846 731.215 645.861C731.404 643.687 732.16 643.119 735.658 642.079C737.927 641.418 740.669 640.189 741.614 639.243C744.545 636.596 746.341 631.396 745.679 627.615C743.978 617.783 743.978 615.23 746.058 613.056C747.381 611.637 748.327 609.179 748.61 605.776C748.894 602.94 750.028 599.442 751.068 597.929C752.865 595.471 752.865 594.809 751.825 587.908L750.69 580.439L737.36 580.817L733.956 575.145C731.404 570.702 730.553 568.244 730.269 563.611C729.608 554.157 730.553 551.321 734.713 549.146C738.873 547.067 739.534 545.838 739.534 540.543C739.534 537.14 741.992 533.075 744.072 533.075C744.45 533.075 744.829 531.278 744.829 529.009C744.829 526.835 744.923 523.715 745.018 522.203C745.018 520.595 745.112 518.043 745.112 516.53C745.018 514.923 745.301 511.709 745.679 509.251C746.152 506.414 745.963 503.105 745.207 500.269C743.505 494.03 742.465 486.939 741.52 476.351C740.763 468.315 740.858 467.086 742.465 464.911C743.978 462.642 744.072 462.264 742.843 461.224C742.087 460.562 741.425 459.333 741.425 458.388C741.425 456.024 748.327 450.919 754.566 448.839C761.373 446.57 762.224 444.207 758.821 438.156C757.591 436.076 756.552 433.524 756.552 432.673C756.552 431.728 755.039 429.553 753.243 427.757C750.785 425.299 749.934 423.597 749.934 421.328C749.934 415.939 746.909 412.347 740.952 410.645C737.076 409.511 735.375 408.471 734.618 406.769C734.051 405.54 732.727 404.5 731.782 404.5C730.837 404.5 729.324 403.649 728.473 402.609C727.528 401.569 726.11 400.718 725.164 400.718C724.219 400.718 722.328 398.922 720.91 396.653C717.979 392.021 709.281 373.396 709.281 371.6C709.281 369.993 713.536 370.182 714.954 371.884C716.75 374.058 717.79 373.585 717.79 370.371C717.79 367.44 717.885 367.346 721.572 367.913C725.07 368.386 725.353 368.197 725.353 366.117C725.353 364.793 726.204 362.146 727.244 360.066C728.284 357.986 729.135 355.434 729.135 354.299C729.135 353.165 727.055 348.91 724.408 344.751C721.855 340.685 719.586 336.148 719.492 334.729C719.397 333.311 720.248 330.381 721.477 328.112C723.179 324.803 723.368 323.479 722.612 320.832C721.855 318.185 722.044 317.334 723.652 315.916C727.433 312.513 729.135 307.786 728.095 303.531C727.339 300.033 727.528 299.182 730.08 295.117C732.633 291.052 732.917 290.012 732.917 282.449V274.224L729.986 273.184C727.811 272.427 727.244 271.766 727.622 270.442C728.095 269.024 727.339 268.457 723.179 267.133C718.263 265.526 708.903 265.053 704.933 266.093C703.893 266.377 702.569 267.701 702.096 269.119C701.34 271.104 699.922 272.049 695.668 273.373C689.05 275.547 685.646 274.98 685.646 271.766C685.646 270.442 685.363 268.835 685.079 267.984C684.607 266.755 685.174 266.471 688.199 266.471C690.941 266.471 692.548 265.81 694.155 264.108L696.33 261.745H692.17C688.199 261.745 687.726 261.461 686.308 258.341C685.363 256.545 684.89 254.559 685.268 254.087C685.552 253.614 688.861 253.141 692.548 253.141C696.33 253.141 700.489 253.141 701.907 253.141C705.027 253.141 706.823 251.156 705.973 248.414C705.405 246.618 704.838 246.523 700.962 247.091C695.762 247.847 696.14 247.847 693.493 247.658C692.17 247.563 691.319 246.996 691.319 245.956C691.319 245.105 690.563 243.593 689.712 242.647C688.294 241.04 688.294 240.757 689.617 239.339C690.846 238.109 691.697 238.015 694.25 238.96C695.857 239.528 698.504 240 699.922 240C702.475 240 702.664 239.811 702.664 235.935C702.664 233.666 702.002 231.019 701.246 229.979C699.166 227.237 699.449 220.525 701.813 217.311C703.609 214.947 703.798 213.813 703.231 208.329C702.664 202.562 702.758 201.806 705.027 199.253C707.958 195.755 707.958 194.905 705.311 192.068C702.475 189.043 703.798 184.883 707.674 184.411C710.132 184.127 710.321 183.843 709.754 181.102C709.376 179.4 707.863 176.753 706.351 175.24C704.649 173.349 703.798 171.742 704.176 170.513C704.365 169.473 705.216 164.179 705.973 158.696C706.823 153.212 707.674 147.351 708.052 145.555L708.62 142.34L704.933 142.908C701.34 143.38 701.151 143.286 698.031 138.653C695.573 134.872 695.006 133.17 695.384 130.712C695.857 128.159 695.479 127.403 693.493 126.079C691.319 124.661 690.941 124.661 689.617 125.89C688.388 127.214 687.821 127.214 685.552 126.079C683.378 124.85 682.81 124.85 681.865 126.079C680.919 127.308 680.069 126.268 677.138 120.218C675.153 116.153 673.262 112.087 672.978 111.237C672.694 110.102 671.087 109.346 668.44 108.968C665.226 108.495 663.43 107.36 659.932 103.768C655.015 98.7573 652.652 97.2447 649.721 97.2447C648.587 97.2447 646.034 96.1102 644.049 94.6921C641.213 92.6122 640.267 91.0995 639.416 87.507C637.904 80.7001 637.998 80.2274 643.293 71.6243C648.02 63.872 648.398 62.7375 650.288 49.5964C650.761 46.0039 651.612 44.3022 653.786 42.5059C656.528 40.2369 656.528 39.9534 656.055 33.6191C655.583 26.5286 655.488 26.3395 648.965 23.8815C645.183 22.3689 644.711 22.3689 641.307 23.8815C637.809 25.4887 637.526 25.4887 633.933 23.5979C631.853 22.558 629.868 20.8563 629.679 19.9108C629.301 18.4927 627.977 18.02 622.683 17.4528C619.09 17.0746 614.552 16.6019 612.661 16.2238C609.542 15.7511 609.069 15.9401 609.069 17.6419Z" fill="white"/>
<circle id="261" cx="637" cy="854" fill="#5CE50D"/>
<circle id="264" cx="530" cy="274" fill="#E52A0D"/>
<circle id="262" cx="453" cy="715" fill="#E52A0D"/>
<circle id="1292" cx="438" cy="931" fill="#E52A0D"/>
</svg>
