<svg width="1000" height="1000" viewBox="0 0 1000 1000" fill="none" xmlns="http://www.w3.org/2000/svg">
<path fill-rule="evenodd" clip-rule="evenodd" d="M582.016 391.066C587.946 390.972 595.101 392.949 602.726 396.714C609.88 400.291 609.88 400.291 617.129 399.538L624.377 398.692L641.039 405.658L657.607 412.717L663.538 424.202C669.092 435.028 669.374 436.064 669.374 442.088V448.395L680.2 455.455C686.223 459.314 691.399 462.514 691.778 462.516C692.155 462.516 699.027 459.691 707.028 456.302L721.432 450.089L740.823 456.115L760.121 462.139L764.922 476.73L769.629 491.227L796.929 513.067L809.354 514.197C821.31 515.232 821.969 515.232 832.136 512.784C841.926 510.525 843.244 509.959 852.846 503.464C862.353 496.969 863.671 496.31 874.214 493.769C882.027 491.792 888.805 490.756 896.713 490.474C904.244 490.097 911.304 489.062 917.893 487.461C928.813 484.731 932.202 484.826 942.086 488.027L947.829 489.909L964.962 512.031L982 534.153L973.998 545.167C959.031 565.594 957.807 567.006 954.324 567.006C952.724 567.006 944.346 567.666 935.779 568.325L920.247 569.548L911.492 573.973L902.832 578.303L880.898 576.796L876.756 585.269C874.497 589.975 872.332 594.022 871.955 594.4C871.578 594.776 867.248 594.682 862.259 594.306C854.163 593.553 852.28 593.741 845.126 595.718L837.03 597.883L830.347 593.742L823.569 589.599H787.515L766.805 569.077L752.873 564.559C740.541 560.511 738.282 559.381 734.046 555.616L729.245 551.38L717.007 553.545L704.675 555.71L677.376 539.142L675.022 532.741C673.705 529.258 672.01 526.057 671.257 525.586C670.503 525.209 664.102 523.138 657.137 521.068C647.158 518.149 642.263 517.208 634.355 516.738L624.377 516.173L604.703 502.335L585.122 488.403L573.826 465.434H568.366C562.906 465.34 562.718 465.434 549.445 474.471L535.983 483.696L531.935 501.112C529.677 510.711 527.512 518.993 527.041 519.656C526.57 520.22 521.204 523.798 515.18 527.564L504.165 534.436L488.821 537.448L473.383 540.46L456.815 533.024C447.778 528.882 439.588 525.587 438.835 525.681C437.987 525.681 430.739 528.976 422.738 533.024L408.241 540.366L392.896 535.283L377.458 530.105L371.151 532.647C366.068 534.718 362.867 535.283 354.207 535.753C344.418 536.13 343.57 536.318 343.193 538.2C343.005 539.33 341.969 551.192 340.934 564.559C339.898 577.921 338.863 589.025 338.769 589.128C337.827 589.693 238.702 587.151 152.567 584.421C60.4082 581.503 50.3356 581.315 48.2646 582.633L46.0996 584.045L48.0761 587.245L50.1474 590.54L48.0761 593.365C46.57 595.53 45.3464 596.189 42.9931 596.189C40.5456 596.189 39.6982 596.753 38.7568 598.636C37.8155 600.801 37.9096 601.46 39.5097 603.155C41.0159 604.755 41.1102 605.414 40.1689 606.732C38.3803 609.085 34.8033 609.65 30.8496 607.955C28.9677 607.203 27.3675 606.356 27.3662 606.167C27.3662 605.979 28.0256 604.379 28.6845 602.59C30.0024 599.578 29.9082 598.73 28.2138 592.8C27.0842 589.223 25.2017 585.175 23.8838 583.857L21.5302 581.315L22.9423 570.207C24.7309 556.087 24.2595 549.592 20.9648 546.109C18.7055 543.661 18.6115 543.19 19.2705 536.035C19.647 530.858 19.5532 527.752 18.706 525.963C17.7647 523.892 17.7647 523.327 18.706 522.95C20.9652 522.197 22.3775 520.032 22.9423 516.455C23.5072 513.349 24.166 512.502 28.9668 509.678C39.6041 503.371 43.8403 499.699 45.1582 495.745C46.0995 492.921 48.6411 489.909 54.7597 484.261C59.3724 480.119 63.7973 476.636 64.6445 476.636C66.6215 476.636 71.6103 479.366 71.6103 480.402C71.6112 480.966 73.6819 481.343 76.1289 481.343C79.8002 481.343 81.1186 481.813 82.9072 483.696C85.0723 485.955 85.072 485.956 83.4716 492.075C81.4008 500.358 81.4948 500.546 85.4482 503.182C88.5547 505.253 89.4024 506.759 91.7558 513.631C94.4858 521.539 94.485 521.727 92.8847 525.304C92.0375 527.281 90.0608 530.294 88.5546 532.082C83.8482 537.448 85.4486 539.801 91.5673 536.788C96.3681 534.341 97.4974 534.53 99.5683 538.013C101.357 540.931 102.299 541.401 115.195 544.884C123.856 547.237 129.033 549.026 129.033 549.78C129.033 550.438 128.374 551.003 127.527 551.003C126.209 551.003 126.115 551.663 126.774 554.957C127.622 559.758 127.621 564.465 126.68 568.418L126.021 571.242L127.998 568.136C129.222 566.347 129.975 563.524 129.975 561.17C129.975 555.993 132.046 553.828 136.94 553.827C141.459 553.827 140.518 552.227 135.717 551.756C133.928 551.568 132.328 550.909 132.046 550.25C131.763 549.215 133.835 549.026 143.154 549.309C154.45 549.591 154.639 549.591 156.521 552.133C159.252 555.992 165.746 555.615 165.746 551.568C165.747 548.932 170.925 546.296 174.596 546.955C176.102 547.238 177.702 546.956 178.737 546.109C180.714 544.32 187.398 542.154 197.376 540.083L205.001 538.484L209.896 522.292L215.732 518.997C219.027 517.209 224.299 513.161 227.687 510.149C232.959 505.254 233.901 504.689 235.501 505.63C236.442 506.289 239.079 506.759 241.338 506.759C243.597 506.759 249.151 508.077 253.764 509.583L262.142 512.408L265.813 509.96C269.39 507.607 269.767 507.513 275.038 508.548C278.05 509.207 281.91 509.49 283.604 509.207C285.299 508.925 293.489 508.265 301.773 507.7C314.198 506.853 317.493 506.383 320.788 504.689L324.648 502.617L332.085 504.406C336.133 505.441 340.087 506.194 340.84 506.006C341.593 505.912 343.758 505.724 345.546 505.63C347.334 505.536 354.113 504.877 360.608 504.218C367.104 503.559 373.034 502.994 373.787 502.994C374.54 502.994 376.706 501.111 378.494 498.758C381.318 495.181 382.259 494.616 385.178 494.522C388.19 494.522 389.131 495.181 393.085 499.7C397.415 504.877 397.51 504.876 402.781 504.876C409.841 504.876 412.383 502.617 412.383 496.31C412.383 492.357 412.76 491.603 415.207 489.815C417.749 488.026 419.161 487.744 425.468 488.027C431.116 488.309 433.376 488.874 434.882 490.192C436.858 491.98 436.858 491.98 436.858 490.192C436.858 485.579 424.903 482.096 416.337 484.166C411.065 485.39 409.747 486.521 406.547 492.545C403.064 499.135 401.275 499.134 394.968 492.827C390.261 488.121 389.413 487.555 386.213 487.743C379.906 488.214 375.388 489.909 371.34 493.392C369.175 495.369 364.844 497.91 361.737 499.134C356.278 501.299 355.713 501.299 339.051 500.546C326.437 499.887 320.788 499.981 317.588 500.828C314.293 501.676 309.398 501.771 298.949 501.112C290.76 500.641 282.476 500.641 279.181 501.112C275.792 501.582 268.92 501.582 262.236 501.017C251.975 500.17 250.281 499.793 244.256 496.687L237.572 493.203L229.194 497.722C224.582 500.17 220.157 502.9 219.404 503.747C218.651 504.689 216.109 506.194 213.756 507.23C211.402 508.265 205.284 512.596 200.2 516.832C193.328 522.574 190.127 524.645 188.15 524.645C185.138 524.645 185.139 524.739 186.833 521.445C187.586 520.033 187.868 517.962 187.586 516.832C187.115 514.95 186.927 515.138 185.703 518.056C184.95 519.844 183.82 521.633 183.067 522.104C182.409 522.48 182.032 523.421 182.314 524.08C182.597 524.833 182.126 526.905 181.373 528.787C180.149 531.611 179.49 532.176 177.043 532.176C175.443 532.176 172.901 531.517 171.395 530.764C168.947 529.446 167.723 529.54 158.686 531.235C153.227 532.364 147.766 532.93 146.637 532.553C145.507 532.271 142.213 530.199 139.389 528.034C135.341 524.928 132.61 523.704 126.68 522.386C122.538 521.445 118.397 520.504 117.455 520.221C116.043 519.844 116.419 519.091 119.902 514.95L123.95 510.054L123.197 489.909L119.338 488.403C117.173 487.555 112.748 485.108 109.453 483.037C102.864 478.801 102.864 479.648 109.171 472.682C111.43 470.14 111.43 469.858 110.488 462.421C109.547 455.361 109.171 454.514 105.594 450.843C103.429 448.678 101.734 446.512 101.734 445.948C101.734 445.006 107.571 442.747 109.83 442.747C110.301 442.749 111.525 445.478 112.466 448.866C113.407 452.254 114.537 455.173 114.913 455.455C116.325 456.302 119.431 452.913 119.996 449.807L120.655 446.512H127.998C135.812 446.512 216.204 449.336 273.532 451.69C386.684 456.302 426.033 458.091 442.036 459.408L448.625 459.879L457.003 437.758C461.615 425.616 465.569 415.262 465.946 414.695C466.605 413.659 501.62 398.505 503.412 398.503C504.071 398.503 509.719 401.044 516.026 404.151C525.628 409.046 527.794 409.799 530.618 409.235C532.408 408.952 543.986 404.715 556.223 399.821C569.495 394.643 579.944 391.066 582.016 391.066ZM145.978 553.075C144.754 552.698 144.755 552.792 145.79 554.11C146.825 555.333 146.825 556.181 145.884 559.005C144.754 561.923 144.849 562.488 146.261 563.994C147.861 565.5 147.954 565.311 147.672 559.57C147.484 555.145 147.013 553.357 145.978 553.075Z" fill="white"/>
<circle id="250" cx="89" cy="487" fill="#5CE50D"/>
<circle id="251" cx="82" cy="563" fill="#E52A0D"/>
<circle cx="430" cy="487" fill="#E52A0D"/>
<circle id="1617" cx="952" cy="512" fill="#E52A0D"/>
</svg>
