<svg width="1000" height="1000" viewBox="0 0 1000 1000" fill="none" xmlns="http://www.w3.org/2000/svg">
<path fill-rule="evenodd" clip-rule="evenodd" d="M55.0349 951.783V951.007L55.5524 950.23L55.8111 949.454H56.3286L56.8461 948.678L56.5873 947.384L55.8111 946.867L55.5524 946.091L55.8111 945.573L55.5524 945.056L55.2937 944.279L55.5524 943.762L55.2937 943.503L55.5524 942.986L55.2937 942.727V942.21H55.0349L54.5175 941.951V941.433L54.7762 941.175V940.398L55.0349 940.14L54.5175 939.622L54.2587 939.881L54 939.622V939.105H54.2587V938.329L54.5175 937.811H55.0349L55.2937 937.552L56.0699 936.776L57.3635 936.517L57.881 936L59.1747 936.517L59.6921 936.776L59.9509 937.294H60.2096L60.7271 936.776H60.9858L60.4683 937.294L61.2445 937.811L61.762 937.294L60.9858 936.259L61.2445 936.517L61.762 937.035V937.552L61.5033 937.811V938.587L62.2795 939.622L63.0557 940.398L63.3144 940.657L63.5731 942.21L64.6081 943.762H64.3493V944.538V944.797V945.056L64.6081 945.573H65.1255L65.3843 945.832L65.1255 946.349L65.3843 946.867V947.643L65.1255 947.902L64.3493 948.16V948.419L63.8319 949.195V949.713H64.0906L64.3493 950.23L64.0906 950.489H63.5731V951.265V951.783L64.0906 952.3V953.335L63.5731 953.076L62.7969 953.335V953.853H62.0207L61.762 954.37L62.0207 954.629V955.146H61.2445H60.2096L59.6921 955.405V954.37L59.4334 954.629L59.1747 954.37H58.6572H57.881V955.146H57.6223L57.3635 954.888L57.6223 954.37L57.1048 954.111L57.6223 953.594L57.3635 953.335H56.8461L56.3286 952.818H55.5524L55.0349 952.559V951.783Z" fill="white"/>
<path fill-rule="evenodd" clip-rule="evenodd" d="M123.285 113.32L123.544 112.026L123.285 111.25L123.802 110.733L123.544 110.215L123.802 109.18L123.544 107.628V107.369L124.061 107.111L124.32 106.593L124.061 106.334L124.32 106.076H125.096L125.613 105.299H126.131L126.907 105.041L127.425 103.747L127.683 103.488L127.425 102.971L128.201 102.453L128.46 101.677H128.977L129.236 101.418H129.494L129.753 101.16V100.125L131.047 99.6073L131.306 99.3485L132.082 99.0898L132.858 97.7961V97.5374L133.117 97.0199V96.5025H133.893L134.669 95.7263L134.928 95.2088L134.669 94.9501L135.445 94.6913L135.704 93.3977L136.739 92.8802L137.256 91.5865H137.774L138.033 90.5516L137.774 90.0341L138.033 89.7754L138.55 89.2579L138.809 88.7405L139.326 87.9643L139.844 87.7055L140.103 86.9293L140.62 86.6706V85.8944L141.137 86.1531L141.655 85.6357L142.172 84.8595L142.431 84.0833H142.69L143.207 83.5658V83.0483L143.466 83.5658L143.725 83.3071V82.0134L143.466 81.4959V81.2372L144.242 81.7547L144.76 81.2372L145.018 80.2023V78.9086L145.536 78.1324V77.8737L145.795 77.6149L146.053 76.8387L146.312 76.3213V76.0625L146.83 75.0276L147.088 74.7689H148.123L148.899 74.5101L149.676 73.4752L151.228 72.9577L152.004 72.699L153.039 72.1815L153.557 71.6641H153.815L154.85 71.9228L155.368 72.4403L156.144 72.9577L156.661 73.4752L157.438 73.2165L158.214 73.4752L158.473 73.7339V74.5101H158.214L157.696 75.0276L157.438 75.5451H157.955V75.8038L157.438 75.5451V76.0625L156.661 76.3213L157.179 78.1324L157.696 78.9086L157.955 79.4261H158.214L158.473 79.6848L159.766 80.7197L160.284 80.2023L160.025 79.6848L161.06 79.9435H161.836V78.9086H162.095L162.354 79.1673V78.6499H162.871L162.612 78.9086V79.9435L163.13 80.2023L163.389 79.9435L163.647 79.4261L163.906 79.1673H164.424L165.717 79.4261L167.011 80.461L167.787 80.7197L168.563 80.9785L169.598 80.7197L170.116 80.461H170.633L171.409 80.9785H171.668L171.927 80.461V80.2023L171.151 79.4261L171.927 78.9086L172.186 79.4261L172.703 79.1673L173.22 80.461L174.255 80.2023L174.514 79.4261V79.1673L173.738 78.3911L174.255 78.1324L174.773 78.6499L175.032 79.1673L176.067 79.6848L176.325 80.2023H176.584V79.6848L176.843 79.9435L177.36 79.6848H177.878L178.136 80.2023V79.9435V79.4261L178.395 79.1673L178.654 79.6848V79.4261L179.171 79.6848V80.2023L179.948 80.7197L180.465 80.9785L180.206 81.7547L180.724 81.4959V82.0134L181.241 81.7547L181.5 82.2721L182.017 81.4959H182.535L182.794 80.9785L183.311 81.2372H183.829L184.087 80.7197L183.829 80.461H185.381V80.7197L186.157 80.9785L186.416 80.7197H186.933H187.451V81.2372L187.968 80.9785L188.486 81.7547H188.744L189.262 80.9785H189.521L189.779 81.2372L190.038 81.4959L190.556 80.9785L190.814 81.2372H191.332L191.591 81.4959L191.849 81.2372H192.367L192.625 80.9785L192.367 80.461L192.625 80.2023L192.884 80.7197L193.919 79.9435L194.437 80.461V80.2023H195.73V79.9435H196.248H197.024L197.8 80.2023H198.576V79.9435L199.87 79.6848V79.1673L200.129 78.9086L200.646 79.1673L200.905 78.6499H201.164L201.681 78.3911H202.199V78.6499L202.457 78.3911H202.975V77.8737L203.751 77.6149H204.01L204.527 78.1324L204.786 77.6149L205.562 77.8737L205.821 78.1324H206.597H207.373L207.891 78.6499L208.149 78.3911L208.926 78.9086V79.6848L209.443 79.9435L209.702 80.9785L211.513 81.4959H211.772V81.7547L212.289 82.2721L212.548 83.0483L212.289 83.8245L212.548 83.5658L212.807 83.8245L213.324 83.5658V84.0833L213.842 84.6007L213.324 85.1182L213.583 85.6357L213.324 86.4119L213.842 86.6706L213.583 87.1881L213.842 87.4468L214.1 88.4817L214.618 88.7405L215.135 88.223L215.911 88.7405L215.653 88.9992L215.394 89.7754L215.911 91.0691V91.5865L216.17 91.8453L216.429 91.5865L217.205 91.3278L217.723 91.5865L217.464 91.8453L218.24 92.8802L218.499 93.1389V93.9151L218.758 94.4326L218.499 96.5025H218.758L218.499 97.5374V98.3136L218.758 98.5723V98.8311L219.275 99.0898V99.6073L218.758 99.866L219.016 100.125L218.758 100.383L219.275 100.642L219.016 100.901V101.418L219.275 101.936L219.016 102.453H219.275V102.712L219.534 103.23V103.747L219.275 104.523L219.792 105.558V106.076H219.275L219.534 106.593L219.275 106.852L219.792 107.111V107.369V108.663L219.275 108.922L218.758 110.733L219.275 112.026L219.016 112.285H218.758V112.544L218.24 113.061V113.838L218.758 114.614L218.499 114.873V115.131L217.981 115.39V116.425H217.464L217.205 116.942V118.236L216.429 119.271L215.394 120.047L214.359 120.565L213.842 121.858L213.065 122.376L212.289 123.152L211.513 124.187H210.996V124.446H210.219L209.961 124.704L209.702 125.481V126.257L209.184 127.033L208.667 127.292V127.809L208.149 128.844L207.891 129.879L207.632 130.914L207.373 131.173V131.431H206.597L206.338 131.69V132.208H206.08L205.562 132.466V132.984L204.527 133.76L204.01 134.536L202.975 135.83L201.94 136.865L201.422 137.124L201.681 137.9L200.646 138.676L199.87 139.193V139.711H199.611L199.094 140.228V140.746L198.318 142.04L198.576 143.074L198.059 143.592H197.024L196.248 144.886V145.403L195.989 145.921V146.179L195.472 147.214V147.732L194.954 148.249V149.025L194.437 150.06V150.578L193.66 151.613L193.143 152.648V153.424L192.625 153.941V154.459L192.108 154.717L191.849 155.235L191.591 156.011L191.332 156.27L191.591 157.822L191.073 158.598H190.556L190.297 159.116L190.038 159.633L189.779 160.151L189.521 160.41V161.186L189.779 161.703L188.486 162.479L187.968 162.738L187.192 163.773V164.549L186.933 164.808L186.675 165.584H186.416L185.64 166.36L184.863 167.395V168.172L184.605 168.689L184.346 169.207L183.57 168.948L183.311 169.207L183.052 168.948L182.794 169.207L183.052 169.465L182.794 169.983H182.276L182.017 170.241V170.5L182.535 170.759V171.535H182.017V172.311V172.57V172.829H181.759V173.088L181.241 173.346L181.5 173.864H182.017V174.122L181.759 174.381L182.017 174.899L181.759 175.157H181.5L181.241 175.934L180.982 176.192V176.71L181.5 176.969L181.759 177.745V178.78L181.5 179.297L180.724 180.073L179.948 180.591L179.171 181.108L178.913 181.626L178.136 182.402L177.878 183.437L177.101 184.472L176.067 185.248H175.032V185.765L174.255 186.283L173.738 186.542H172.962H172.186L171.151 186.8L170.374 187.059L169.857 187.577L168.822 188.612V189.388L168.305 190.423L168.822 191.458L169.339 191.975L169.598 193.01V193.527H170.116L170.374 194.045L170.633 194.304L170.374 194.562L170.633 195.08V195.339L170.892 196.115L171.151 196.632V197.15L170.374 197.926L170.633 198.443L170.892 198.702V199.478L171.151 199.737L170.633 199.996L170.374 200.772L170.633 201.289L171.151 201.031V201.548L170.892 201.807V202.324V203.359L170.633 204.136L170.374 204.912H170.116L169.857 205.429V206.205V207.24L169.339 207.499L169.081 208.017L168.822 208.275L168.563 209.31L168.822 209.569V210.604L168.305 210.863L168.046 211.38H167.27L166.235 213.45L165.458 213.709L164.682 213.967V214.744L163.906 215.52V216.555L163.13 217.072L162.354 217.848L161.577 218.366L161.319 219.142L160.801 219.401L159.508 220.694L158.99 221.212L158.214 221.471L157.955 222.247L157.179 223.282L155.627 223.799V224.317L154.333 225.352L153.298 226.387V227.68L153.039 228.974H152.263L152.004 229.491V230.268L151.746 230.526L150.452 231.561L150.193 232.337L149.417 232.855V234.666L149.676 235.442L148.641 235.701L148.382 236.477L147.865 236.995H147.347V238.288L146.053 239.323L144.501 241.134L143.725 241.911L143.207 242.687L142.69 242.946L141.396 242.428L140.361 241.652L140.103 241.911L139.585 240.358L137.256 239.323L135.445 238.547L133.634 237.253L131.047 236.218L129.236 235.701H128.977L126.907 235.184H126.39V235.442L125.872 236.218L124.061 235.701L123.285 235.184L123.026 235.442V234.925L121.474 234.149L121.215 233.631H120.698L119.921 233.114L117.851 232.337V231.82L117.334 232.079V231.561L116.817 231.82L116.299 232.079H115.782L114.747 232.337L113.97 232.079L113.453 232.337L112.936 232.079L112.677 232.337L112.159 231.82L111.383 231.561L110.607 231.82L110.348 232.079L110.089 232.855L109.572 233.114L109.055 233.631L108.02 233.89V233.631L107.761 233.89L107.502 233.372L107.243 233.631L106.985 233.114L104.915 232.855H104.656L102.327 231.561L100.775 231.044L98.964 230.009L97.1528 229.491L95.083 228.715L93.0131 228.456H91.202L90.6845 228.974L89.9083 229.233L89.1321 228.974L88.3559 228.456L87.5797 228.198H86.5448L85.5098 227.939L82.6637 226.645L82.405 226.387L80.8526 225.352L79.8177 225.093L79.5589 224.834L78.7827 224.576L78.2653 225.093L78.0065 224.834L76.9716 225.093L75.9367 224.058H75.4192L75.1605 223.799L74.1255 223.023L73.8668 222.764L73.3493 221.988L72.8319 221.729L72.5731 220.436L72.8319 219.66V218.625L72.0557 218.366L71.5382 216.296L72.0557 215.261L71.7969 214.744L71.0207 215.002V214.485L71.5382 214.226V213.191L70.5033 212.932L70.2445 212.415V211.121L69.4683 210.086L68.9509 209.051L68.4334 208.793L67.9159 208.275V207.499L67.6572 206.723V205.429L67.3985 205.17L66.881 204.912L66.6223 203.618L66.3635 202.842V200.255L66.1048 199.478V198.443L65.3286 197.926L65.5873 196.891L66.1048 196.632L66.6223 195.856L66.881 195.339L67.3985 194.821L67.1397 194.562V192.751L66.881 192.234L66.6223 191.975L66.881 191.716V190.94V190.164L67.1397 189.905L67.3985 189.646V189.388H67.6572L67.9159 188.094L68.1747 188.353L68.6921 187.059L69.2096 186.542V185.248L68.9509 184.213H69.4683L69.9858 183.178V182.661L70.2445 181.884L70.5033 181.367L70.762 180.591V180.073L71.2795 179.297V178.78V178.003L71.7969 177.745V176.71L72.8319 175.157V174.381L73.3493 174.122L73.8668 173.605V173.346L74.1255 172.829L74.9017 172.57V171.794L75.4192 171.276L75.6779 171.018V170.5L76.4541 169.207L76.9716 169.465V168.43H77.2303L77.4891 167.913L78.524 166.878H79.5589V166.36L80.5939 166.619V166.102H81.3701L81.8876 165.843L81.6288 165.067L81.8876 164.808L83.1812 165.067L83.44 164.549H83.6987L84.2162 164.291L84.7336 164.549H84.9924L85.5098 164.808V165.584L85.7686 165.843V165.326L87.0622 165.584L86.8035 165.843H88.3559L88.8734 166.102L89.9083 165.584L90.4258 165.067L90.9432 165.584H91.7194L91.9782 166.102H93.5306L94.8242 166.36L95.6004 166.102H96.6354L97.4116 166.619H98.7052L98.964 166.36L99.7402 166.619L100.516 166.102L101.551 165.843L102.069 166.102L102.586 165.584V166.102L103.104 166.36L103.88 166.102V166.36L104.397 166.619H104.656L105.174 166.878L106.208 168.172L106.726 168.43H107.502L108.02 168.172L108.278 168.43L109.055 167.654L109.831 167.395H110.089V167.137H110.348L111.124 166.619H111.642L112.418 166.102V165.843L112.936 165.326L113.712 163.773L114.488 162.221L115.005 161.186L115.264 159.633L115.782 157.564V157.046L116.04 155.494L115.523 155.235L115.005 154.459L114.488 154.2L114.747 153.941H114.229V153.424L113.712 153.165L113.97 153.683L113.453 153.424H113.194L112.677 152.906L112.159 152.648V152.389L112.418 151.871L111.901 151.095L111.383 150.578L112.418 150.06L112.677 149.543L112.936 148.767L113.194 148.508L113.453 148.249L113.97 147.214L113.712 146.438L114.229 146.179L114.747 145.921L115.005 145.662V144.886L115.264 145.144L115.523 144.886V144.368H116.299L117.075 143.851L117.593 143.592L118.369 142.298V142.04L118.628 141.781L119.404 141.522L119.663 140.746L120.698 140.487L120.956 140.228L121.474 138.935H121.732L122.25 138.417L122.767 137.382L123.026 135.312L122.25 133.243V130.914V130.397L123.026 129.62L123.285 128.068L123.026 126.516V124.963L123.285 124.446L123.026 123.669V122.117V120.565L123.544 120.047L123.285 118.236L122.767 117.977L123.026 117.201L123.285 116.684V116.166L123.544 115.649L122.767 115.39L123.285 114.096V113.32Z" fill="white"/>
<path fill-rule="evenodd" clip-rule="evenodd" d="M387.192 897.274V897.016H387.709V897.792V898.309L387.968 899.344L388.227 899.862L387.968 900.379L388.227 901.155L388.486 901.414V902.19L389.262 902.966L388.744 903.225H388.227H387.968L387.451 902.708H386.933H386.416L386.157 903.225V903.484L385.381 902.966V902.708L385.898 901.932V901.414L385.64 900.897L385.122 901.155L385.381 900.897L385.898 900.638V899.862L386.157 899.603V899.085H386.416V898.309L386.674 897.274V897.533L387.192 897.274Z" fill="white"/>
<path fill-rule="evenodd" clip-rule="evenodd" d="M335.705 928.332L335.187 927.814H333.376H333.117L332.859 928.073H332.6L331.565 926.779L331.048 926.262L330.53 925.745L329.754 925.486H328.46L327.943 925.745L327.684 926.262H327.425V925.227L327.684 924.71V923.675L327.943 923.416L327.684 922.381L328.201 921.864V921.087V919.276L328.46 916.948L328.719 915.913L328.978 914.878L330.013 914.36H330.53L330.789 914.619L331.306 914.36L331.824 914.619L332.082 914.36L333.117 914.102L334.152 914.619H334.929L335.963 915.395L336.998 916.689L337.516 916.948L337.775 917.983L336.998 919.017L336.74 919.794V920.57L336.998 921.087L336.74 921.864L336.998 922.898L337.257 923.157L337.516 923.675L337.775 923.933L338.033 925.227L338.551 925.486L339.586 926.262L340.103 926.521L340.621 927.038L341.656 927.556H341.397L340.621 927.038L338.81 926.779H337.516L336.74 927.038L335.963 927.814L335.705 928.332Z" fill="white"/>
<path fill-rule="evenodd" clip-rule="evenodd" d="M480.853 497.023L482.923 498.835L485.51 504.268L484.475 512.03L483.699 513.324L484.475 515.911L485.769 517.463L486.545 519.533L486.804 522.121L487.839 525.484L488.615 527.554L490.168 528.33L493.272 529.106L493.531 529.365L493.79 530.141L495.342 530.659L499.741 531.694L499.999 531.952L500.258 532.47L499.999 533.246L499.741 534.281L500.517 534.799H500.776L501.293 534.54L502.328 534.799L503.104 535.057L503.622 535.575L504.139 536.61L504.398 537.386V538.68L505.692 538.938L505.433 539.714L504.915 540.232L505.433 541.526L506.727 542.043L507.244 541.784L508.02 539.973H509.055H510.09L510.608 539.197L511.125 539.456L511.384 539.714L511.642 540.232L511.901 540.491L512.16 541.267L512.936 541.784L513.971 542.819L514.489 541.784L515.523 541.526H516.041V542.302L517.076 542.819L517.335 543.078L518.111 543.595L518.37 544.113H518.887L520.698 543.337L521.992 543.854L522.251 544.113L523.285 544.889L524.32 545.407L524.579 545.665L525.097 545.924L526.132 546.7L527.943 547.218L528.46 547.735H529.236L530.013 546.959H530.53L532.082 547.735L533.894 548.511L539.068 549.546L540.879 550.581L542.69 551.357L543.725 552.134L544.76 551.357H546.313V550.581L548.124 549.546L550.711 551.099L555.11 551.875H562.872L565.2 550.84L567.27 551.616L568.046 553.686L569.34 553.945L571.669 552.134L573.738 550.84L575.808 550.064L576.067 548.77L577.878 549.805L578.913 548.77L579.689 548.253L580.724 549.029L581.242 550.323L581.501 551.875L583.312 552.392L585.123 552.134H586.158L589.004 548.77H651.617H726.909H828.073L828.591 549.546L879.044 549.288H934.672L934.413 550.064V550.84L933.378 552.91V554.721L931.308 628.201L930.791 649.935L931.049 678.396L931.825 756.274L932.86 894.697H918.889H915.008L817.983 894.438H814.878L745.537 894.697H742.174H670.764H616.43L613.583 894.438L573.997 894.697H531.048L530.789 895.473H531.306H531.565H532.082L531.824 896.249L532.082 896.766L531.824 897.543L531.048 898.578L530.789 899.613L531.048 899.871L530.789 900.13L530.013 900.906L528.978 901.165L529.495 902.459V902.976L529.754 903.235L529.495 903.494L530.013 904.011L529.236 904.27L529.495 904.787L529.754 905.046L530.013 905.822V906.34V906.857L530.53 907.116L531.048 907.375L531.306 907.892L530.789 908.409L530.53 908.668L530.789 909.444L531.048 910.997L530.53 911.514L529.236 912.29V912.808H530.013L530.789 913.325L531.565 913.584L531.306 914.36L531.048 914.619L530.013 915.137L528.978 915.395L527.943 915.913H527.425L525.614 915.395H525.097L524.32 915.654L523.285 916.172H521.992L520.957 916.43L520.181 916.948L519.922 917.983L519.663 918.241L519.146 918.5L518.628 918.241L517.852 917.724L516.817 917.206H515.782L514.23 916.172L512.936 915.137L511.642 913.067L511.125 912.549L510.09 912.032L508.279 911.773L504.657 910.479L502.328 909.186L501.552 907.892L500.776 906.34L500.517 902.2L499.482 900.647L497.671 898.836L495.342 897.284L492.237 896.508L490.685 895.99L489.909 895.473L488.874 894.697L487.063 893.92L484.475 893.662L482.664 894.179L479.818 894.438L475.42 894.955L473.609 895.473L473.091 895.214L472.574 891.851L472.056 890.298L470.245 886.158L468.693 883.83L467.399 883.312L466.105 882.536L464.294 881.76L463.259 880.466L462.483 879.173L461.707 878.396L459.378 876.844L457.826 876.327L456.015 876.068L454.204 875.55L448.77 875.033L446.959 874.774L443.337 875.292L441.526 875.55H439.715L438.162 876.068L436.869 876.585L435.316 877.103L434.281 877.62L433.764 877.879L432.47 874.774H431.953L431.435 875.033L430.918 875.809L430.141 876.068V876.327L429.107 876.585L428.589 876.844L428.33 876.327L428.589 876.844L428.33 878.138L427.813 878.914L427.295 879.173L427.037 878.914V879.173L426.778 879.431H426.002L425.226 879.949L423.673 880.208L422.379 880.725L421.603 880.466L421.345 880.725L420.31 882.019L420.051 882.536H419.533H418.757H417.981L416.687 883.054H416.17L415.652 883.312L415.394 883.83L415.135 884.089H414.617V883.83L415.135 883.054V882.536L414.617 882.277L414.1 882.536H414.876V883.054L414.617 883.571L414.359 884.089L414.617 884.606L414.359 884.865H413.841L413.583 885.123H413.065L412.289 885.9L412.03 886.417L411.513 886.676H411.254L410.478 885.641V885.382L409.702 884.347L409.184 882.795L408.925 879.949L408.408 877.62L407.632 875.809L407.114 873.739V873.48L405.821 870.893L405.044 869.341L404.009 867.271L402.457 864.942L401.681 863.39L401.163 862.872L400.905 861.837L400.646 861.579L400.128 861.837L399.611 861.32L399.093 860.285L398.317 859.509L396.506 857.956L395.471 857.18L394.695 856.663H393.919L393.66 856.922L392.884 857.18L391.849 856.404L390.814 855.887H390.297L389.262 855.369L388.227 854.852L387.45 854.593L387.192 855.11L385.898 855.628V856.145L385.381 855.887L383.828 855.11H383.311L381.5 854.852H379.688L378.912 855.628H377.877L377.101 857.439H376.842L376.325 857.698H375.807L375.549 857.956H374.514L373.22 858.474L372.185 858.733L371.926 858.991L371.668 859.768L371.15 860.285L369.857 860.544H368.822L368.045 860.803L367.528 861.061V861.579L367.011 861.837H365.717L364.423 861.579H364.164L363.906 861.837H363.647H362.095L361.06 862.355V862.614V863.131L360.542 863.649L359.766 863.907V864.425H359.507L359.249 864.942L359.507 865.201L358.99 865.718L358.472 865.46L357.955 864.684L356.92 863.649L356.661 863.39L355.368 862.872L355.109 863.131L354.333 863.39L353.815 863.131L353.039 863.39H352.004L351.745 863.131L351.487 862.355L350.71 860.285L350.452 859.25L350.193 858.474L349.417 856.922L348.64 855.628L347.864 855.11L347.347 854.593H346.829L346.312 854.076L345.794 853.817L345.277 854.334H344.501L343.983 854.076L343.466 853.041V852.264L344.242 852.523L344.501 851.747L344.242 851.229L341.913 850.971V850.712L342.948 850.971L342.69 850.453L343.466 850.971H344.242L344.501 850.453V849.677L344.242 848.901L343.725 848.383L342.948 847.09L341.913 846.313L341.396 845.537L340.62 845.02L340.102 844.761L339.326 844.502L338.809 843.985V843.467H339.067L339.585 842.95L339.844 842.174L340.361 842.432L340.62 842.174L341.137 842.432H341.913L342.172 841.915H342.431L342.948 841.398H343.466L344.242 840.621H344.501L344.759 840.88H345.277L345.536 841.915H346.053V841.398L346.312 841.139H346.829L347.347 840.621L347.606 839.328L347.864 837.775L348.899 835.705V834.67L349.675 833.636L349.934 833.377L350.71 833.118L350.969 832.601L351.745 832.083L352.263 830.789V830.272V829.496L351.745 828.72V828.202L352.004 827.943L352.263 827.167L352.521 826.65L352.78 826.391L353.039 825.615V824.839L353.298 823.286V822.51V821.993L354.074 821.475L354.591 820.699L355.109 820.181V819.923V818.888L355.626 818.112V817.335L355.368 816.3L355.109 815.524V814.489H355.626L356.144 814.231L356.661 813.454L357.437 812.937L358.214 812.161L358.99 811.902L360.025 811.643L360.542 811.902L361.836 812.161H362.612L362.871 812.419L363.13 812.161L363.647 811.902L364.423 811.384L364.941 810.35L365.458 809.315L365.976 808.021V807.503L366.234 806.21L367.269 805.434L368.563 803.881V802.846L368.822 802.588L371.15 801.811L371.926 801.294L372.703 800.518L373.22 800L373.996 798.707L374.514 797.154V795.602L374.255 794.049V793.014V792.238L374.514 791.462L375.031 791.203L374.773 790.427L375.031 789.392L374.773 787.322L375.031 787.064L374.773 786.029V785.252L374.514 783.441L373.996 780.854L373.738 779.56L374.255 779.043L374.514 778.008L375.031 777.749H375.29L376.325 776.973L377.101 776.197L377.619 775.162L377.877 774.903L378.912 773.092L379.171 772.316L379.688 771.798L380.465 771.54L381.5 771.281L382.276 770.505L382.793 769.728L383.828 768.435L384.604 767.917H384.863L385.381 767.4L386.674 767.141L387.45 766.882L387.968 766.624L388.744 766.106L390.038 765.33L391.331 764.554L392.108 763.519L392.884 762.743L393.66 761.966L394.178 761.449L394.695 761.19L395.73 760.673L396.765 759.897L397.541 759.12L398.059 758.085L398.317 757.05L398.576 756.016V754.981L398.835 753.946L399.87 752.135L400.128 751.876H400.646H401.163H402.198L403.233 751.358L403.751 751.876V751.358L404.268 750.841L404.786 749.806L405.562 748.771V748.254L406.079 747.995L406.597 745.925L407.373 744.631L407.632 744.373V743.596L408.149 742.303L408.408 741.526L408.925 739.974L409.184 739.715L409.702 737.904L410.478 736.093L411.254 735.058L412.03 732.988L412.548 731.953L413.065 731.695L413.583 730.918L414.1 728.59V726.002L414.617 725.485L415.394 725.226L415.652 724.709H416.17L416.429 723.933L416.946 723.415L417.981 722.38L418.498 722.639L419.016 722.38L419.792 721.345L420.568 720.828H421.086L422.897 718.758L422.638 717.723L422.121 717.206L421.603 716.429L421.345 715.912L421.086 715.394H420.568L420.31 715.136L419.792 714.877L419.533 714.359L419.016 713.842L418.757 713.066L418.498 712.031L417.722 711.255L417.205 711.513H416.946L416.687 710.478L416.946 709.961V709.185L416.687 708.15L416.946 707.632L417.464 707.115V705.821L417.981 704.528V703.493L417.722 701.682V700.905L417.981 699.612V698.577L418.498 697.283L419.533 696.507H420.051L420.827 695.989L421.862 694.437L422.379 693.143L422.638 692.885H422.897L423.673 692.367L424.191 691.332L425.226 691.073H425.743L426.26 690.815L427.037 690.556L427.295 690.297L427.813 689.262L428.848 687.71H429.365L429.883 687.192H430.4H431.176L431.694 686.934L432.211 686.416L433.246 684.605L433.505 683.829L434.281 683.053L434.54 682.277L435.316 681.759L435.834 681.242L436.61 679.689L437.645 677.878L437.903 677.619L438.938 676.326V675.808L439.456 675.032L439.973 674.773L440.491 674.256L440.75 674.515L441.526 674.256L442.043 674.515L442.561 674.256L443.596 673.997L444.372 672.962L444.631 672.703L445.407 672.445L446.959 671.668L448.512 670.116L449.805 668.822L452.393 665.718L453.686 663.906L454.462 662.872L455.497 661.319L456.015 660.025L456.532 658.732L457.05 657.697L457.308 656.921L457.567 656.144V654.333V653.298H457.308H453.945L453.686 653.04V650.711V653.04H453.945H454.721V651.487H454.98V653.04H455.497L455.756 652.781V651.487H456.015V652.781L456.274 653.04H456.791V650.711H457.308V650.194L456.532 650.452L456.015 649.935L456.532 650.194H457.05V649.417H456.791L456.274 649.159L457.567 649.417V648.641V648.124L457.826 647.865L458.602 648.124L459.12 648.641L459.896 648.9L460.672 649.417L461.189 649.676L461.966 650.194L460.931 650.711L460.672 651.487L461.448 650.711L461.966 650.452L461.707 649.676L461.189 649.159L460.413 648.9L459.378 648.124H459.12L458.085 647.865L457.826 647.606H457.567L457.308 646.83V646.313L457.567 645.795L458.085 645.278L458.861 644.243L459.896 643.467L461.448 643.208V642.949L461.707 642.173L461.966 641.138L462.483 640.62L462.742 639.844L463.001 639.586L464.036 639.327L464.553 638.809L465.329 638.292L465.588 637.774L466.105 638.292H466.623L467.14 637.774L467.658 636.739L468.175 636.481H468.434H468.693H468.951L469.469 636.222L470.504 635.187L470.763 634.67L471.798 632.341L472.056 630.53L471.798 630.271L472.056 630.012L472.574 629.236L472.315 628.201V627.684L472.832 627.425L473.35 627.943L474.126 627.684L474.902 626.39L476.196 626.131L477.49 624.32L477.748 624.062V623.027V621.215V618.887L477.49 617.334L477.748 617.076V616.3H477.231V614.488L476.713 612.677L475.937 610.09L475.161 606.985L474.902 604.915L474.644 603.622L474.126 602.069L473.609 600.258L472.315 596.636L471.539 594.825V594.307L471.28 593.79L471.021 592.755L469.469 588.615L469.21 587.321L468.951 586.286L468.434 584.475L467.917 582.923L467.658 581.629L466.882 579.559L466.105 578.266L466.364 578.007L466.105 577.748L465.07 575.678L464.553 574.126L463.777 572.574V572.315L464.294 572.056L464.553 571.539V570.762L464.294 570.245L464.553 569.469V568.434L465.07 567.658L465.329 567.14L466.364 566.881H467.14L468.175 566.364L468.951 565.588L469.728 564.553L469.986 563.777L470.763 562.742L471.28 560.931L471.539 559.378L471.798 558.861L472.315 557.567L472.574 556.532L473.091 551.616V550.064L472.574 548.511L472.315 546.7V545.148V543.854L472.574 542.819V542.043V540.749V538.421V536.61L472.832 535.833V535.057L472.574 534.281V533.505L472.315 531.952L471.798 530.141L471.28 527.554L470.763 525.225V524.19L471.021 523.932L471.28 522.897V521.862V520.827L470.763 519.275L470.504 517.722L470.245 517.205L469.986 516.17L469.469 514.1L468.175 510.995L467.658 509.184V508.149L467.14 506.855V506.079L467.399 504.785V504.268L467.917 503.492H468.693H468.951L469.469 502.974H469.986L470.245 503.233L471.021 502.974H471.28L472.056 502.716L472.315 501.939L472.832 501.422H473.35L474.126 500.646L475.42 500.904L475.679 501.163H476.713L477.49 500.646L478.266 500.128L478.525 499.87L479.301 499.611L479.818 499.093L480.077 497.282H480.336L480.594 497.541L480.853 497.023Z" fill="white"/>
<path d="M84 838L204.5 958.5" stroke="#CCCCCC" stroke-width="2"/>
<circle id="206" cx="180" cy="79" fill="#E52A0D"/>
<circle id="205" cx="482" cy="629" fill="#E52A0D"/>
<circle id="207" cx="925" cy="559" fill="#E52A0D"/>
<circle id="1619" cx="823" cy="738" fill="#5CE50D"/>
</svg>
