<svg width="1000" height="1000" viewBox="0 0 1000 1000" fill="none" xmlns="http://www.w3.org/2000/svg">
<path d="M738.851 2.41963C734.261 5.05635 734.164 5.05635 734.164 10.1345C734.164 15.1149 734.261 15.3103 737.972 17.1657C741.781 19.2165 742.953 20.779 742.953 24.2946C742.953 25.3688 743.636 27.7126 744.515 29.5681C745.785 32.3024 745.882 33.3767 744.906 35.7204C744.027 38.0642 744.027 39.0407 745.296 41.5798C746.761 44.3142 746.761 44.9001 745.394 47.5368C744.613 49.0993 743.929 51.0524 743.929 51.8337C743.929 53.7868 736.214 58.279 732.796 58.279C731.331 58.279 728.792 58.9626 727.035 59.9392C725.277 60.8181 721.761 62.0876 719.027 62.7712C714.437 64.0407 713.949 63.9431 711.312 62.0876C708.675 60.1345 708.382 60.0368 705.16 61.5993C703.402 62.4782 700.96 63.1618 699.789 63.1618C698.617 63.1618 696.859 63.8454 695.98 64.7243C694.515 66.0915 693.734 66.1892 691.39 65.2126C689.339 64.3337 687.874 64.3337 685.824 65.1149C683.578 65.9939 682.796 65.7985 681.234 64.4314C679.378 62.7712 679.183 62.7712 677.035 65.5056C674.886 68.2399 674.593 68.3376 672.445 66.8728C670.296 65.4079 669.71 65.6032 661.507 69.7048C653.695 73.611 652.425 74.0017 648.226 73.4157C644.71 72.9274 643.246 72.2439 642.269 70.3884C640.706 67.2634 630.941 59.2556 628.792 59.2556C627.914 59.2556 625.277 57.8884 622.835 56.3259C620.199 54.5681 617.171 53.3962 615.218 53.3962C613.46 53.3962 610.628 52.7126 609.066 51.8337C606.917 50.7595 604.867 50.5642 602.132 50.9548C599.007 51.5407 598.031 52.2243 597.249 54.5681C596.371 57.0095 595.882 57.4001 593.636 56.8142C592.269 56.4235 590.999 56.1306 590.999 56.0329C590.902 55.9353 589.925 53.8845 588.656 51.5407C586.703 47.6345 586.312 47.3415 583.578 47.9274C581.917 48.2204 580.062 48.1228 579.476 47.6345C578.89 47.1462 577.328 46.5603 575.96 46.3649C573.812 46.072 573.128 44.9001 570.492 37.2829C567.562 28.4938 567.562 28.4938 564.046 28.2009C561.312 28.0056 560.14 28.3962 559.066 30.0563C557.796 31.8142 556.917 32.1071 553.304 31.5212C550.667 31.1306 547.347 31.4235 544.515 32.4001L539.828 33.7673V30.8376C539.828 28.6892 539.242 27.7126 537.386 26.8337C535.238 25.8571 534.652 25.9548 533.382 27.8103C532.601 28.9821 531.331 29.9587 530.648 29.9587C529.867 29.9587 528.792 30.5446 528.206 31.3259C527.132 32.5954 526.449 32.4978 522.835 30.9353L518.636 29.1774L515.999 31.5212C513.949 33.4743 513.46 34.8415 513.46 38.2595C513.46 42.7517 512.777 43.5329 510.824 41.5798C509.945 40.7009 508.968 40.8962 507.015 42.361C504.378 44.3142 504.281 44.3142 501.156 42.4587L497.933 40.6032L496.371 42.947C495.199 44.7048 493.734 45.486 490.023 45.8767C487.386 46.1696 483.968 47.3415 482.503 48.4157C480.941 49.3923 477.621 50.5642 474.886 50.9548C472.249 51.3454 469.32 52.2243 468.441 53.0056C467.171 54.1774 466.195 54.0798 461.41 52.4196C453.402 49.5876 447.835 49.8806 441.585 53.3962L436.41 56.3259L433.871 53.7868C431.82 51.736 430.746 51.3454 428.304 51.8337C426.644 52.1267 424.691 52.4196 424.007 52.4196C423.226 52.4196 422.152 54.3728 421.566 56.9118L420.394 61.404L406.624 60.8181C384.847 59.8415 374.496 60.1345 372.738 61.7946C371.664 62.7712 370.98 65.7985 370.492 72.2439C369.808 81.1306 368.441 85.6228 366.39 86.3064C365.804 86.5017 363.949 85.5251 362.289 84.1579L359.261 81.6189L357.699 85.2321C355.355 90.8962 354.671 91.1892 338.851 90.7985C324.984 90.5056 324.593 90.5056 321.956 87.9665C319.71 85.8181 318.343 85.3298 313.949 85.4274C309.359 85.4274 308.285 85.8181 305.648 88.5524L302.621 91.5798L298.812 89.0407L294.906 86.5017L290.706 89.3337C288.363 90.8962 284.554 93.2399 282.308 94.5095C279.476 96.072 278.109 97.6345 277.718 99.4899C277.425 101.052 276.546 102.224 275.667 102.224C274.886 102.224 274.007 103.201 273.714 104.47C273.324 105.74 271.859 107.498 270.296 108.377C268.538 109.451 267.367 111.111 266.976 113.357C266.097 118.142 264.339 119.217 258.187 118.533C253.109 118.045 252.816 118.142 249.203 121.951C243.538 127.713 241.585 128.201 237.191 124.783C234.163 122.342 232.894 121.951 228.304 122.146C224.105 122.244 222.152 122.83 219.515 124.881C217.562 126.345 214.242 127.908 211.996 128.396C208.48 129.177 207.503 129.08 204.671 127.127L201.546 124.978L199.788 127.224C198.714 128.494 196.468 129.666 194.124 130.056C191.878 130.447 189.632 131.521 188.851 132.693C187.581 134.549 187.581 134.939 189.339 136.306C190.316 137.185 191.39 139.138 191.683 140.799C192.171 143.142 191.683 144.314 189.242 146.853C185.14 151.15 182.992 151.345 185.531 147.146C186.507 145.584 186.507 144.9 185.14 143.631C183.578 142.068 183.578 141.775 185.335 139.334C187.191 136.697 187.191 136.697 184.847 134.451L182.503 132.205L179.085 135.037C173.617 139.627 173.617 142.263 178.988 150.271L183.578 157.107L182.894 164.627C182.308 170.877 181.722 172.537 179.476 174.978C178.011 176.541 175.374 180.056 173.617 182.693L170.394 187.478L165.218 186.892C160.433 186.404 159.945 186.502 159.945 188.259C159.945 189.236 159.554 190.115 159.066 190.115C157.21 190.115 154.671 195.584 154.964 199.197C155.16 202.42 154.476 203.787 150.667 208.474C146.175 213.845 146.078 214.138 146.761 219.021C147.249 223.123 146.956 224.881 145.296 228.201C144.124 230.447 143.441 232.888 143.734 233.572C143.929 234.256 143.734 236.599 143.148 238.748C142.171 242.459 141.976 242.654 136.507 243.826C133.48 244.509 130.062 244.705 128.89 244.412C127.816 244.021 125.863 244.314 124.496 244.9C122.64 245.681 121.175 245.779 118.929 244.998L115.902 243.924L112.874 250.174L109.749 256.521H105.453C101.742 256.521 101.253 256.716 101.839 258.181C102.328 259.158 102.816 261.502 103.109 263.357C103.304 265.31 105.16 269.021 107.308 271.853C111.117 276.931 112.191 281.424 110.14 283.474C109.554 284.06 106.917 284.353 104.281 284.06L99.3979 283.572V286.697C99.3979 288.455 99.8862 290.701 100.472 291.775C101.253 293.338 100.96 294.314 98.6166 297.049C97.0541 298.806 95.4916 300.857 95.1987 301.638C94.808 302.713 94.5151 302.713 93.4408 301.638C92.3666 300.662 91.976 300.857 91.0971 303.299L90.1205 306.131L81.3315 303.299C76.5463 301.834 71.8588 300.564 71.0776 300.564C69.2221 300.467 81.8198 308.865 84.3588 309.451C85.8237 309.744 86.2143 310.525 86.1166 313.65C86.019 315.896 85.3354 317.849 84.3588 318.533C83.4799 319.217 82.7963 320.779 82.7963 322.146C82.7963 324.783 86.8979 326.834 92.3666 326.834C94.5151 326.834 95.4916 327.322 95.4916 328.299C95.4916 329.177 94.6127 329.763 93.3432 329.763C91.2924 329.763 91.2924 329.861 93.8315 332.498C96.6635 335.427 96.4682 336.599 93.0502 336.599C91.0971 336.599 90.9018 336.99 91.4877 339.431C91.7807 340.994 93.2455 343.24 94.7104 344.412C96.2729 345.584 97.4448 347.439 97.4448 348.513C97.4448 349.685 98.519 352.517 99.8862 354.763C102.523 359.158 102.425 359.158 113.265 360.525C117.855 361.111 118.929 362.185 118.929 366.189C118.929 368.533 136.117 387.381 138.167 387.381C138.851 387.381 140.706 389.236 142.367 391.482C144.71 394.705 145.296 396.463 145.296 400.564C145.296 404.08 145.882 406.424 147.054 407.888C149.105 410.427 151.156 409.842 151.156 406.814C151.156 404.959 151.253 404.959 154.183 406.424C155.843 407.302 157.406 407.791 157.699 407.498C158.773 406.521 157.015 403.884 154.085 402.224C150.57 400.271 150.472 399.099 153.402 395.584C155.648 392.947 155.746 392.947 157.601 394.9C158.578 395.974 160.824 397.146 162.386 397.537C164.046 397.927 165.999 398.904 166.878 399.685C168.246 400.955 168.636 400.955 169.71 399.588C171.273 397.732 173.324 397.732 174.3 399.588C174.788 400.271 176.937 401.248 179.183 401.638C183.187 402.224 183.382 402.127 185.433 398.709C187.093 395.779 187.777 395.388 188.949 396.267C191.488 398.416 192.562 401.443 192.562 407.107C192.66 411.502 193.148 413.064 194.906 415.017C196.468 416.677 196.956 417.947 196.371 418.924C195.785 420.095 195.101 419.802 193.148 417.068C190.023 412.869 187.484 412.771 186.703 416.677C186.019 419.802 184.652 420.486 183.773 418.142C183.382 417.361 182.601 416.677 181.82 416.677C180.843 416.677 180.55 415.994 181.038 414.138C181.624 411.795 181.429 411.697 179.574 412.283C178.109 412.674 177.035 412.478 176.253 411.502C174.886 409.646 168.929 408.963 167.953 410.427C167.562 411.013 166.585 411.697 165.609 412.088C164.437 412.478 163.851 411.892 163.363 410.037L162.679 407.4L160.433 410.037C157.894 412.967 154.378 413.65 153.499 411.306C152.718 409.256 151.449 409.451 150.179 411.795C149.3 413.455 149.496 414.529 151.058 417.068C153.597 421.072 153.597 421.17 151.156 421.853C150.081 422.146 148.714 423.709 148.128 425.369C146.956 428.787 145.296 428.494 145.296 424.881C145.296 421.365 143.538 421.951 138.851 427.029C135.042 431.033 130.648 439.92 130.648 443.435C130.648 444.217 130.062 445.291 129.281 445.877C128.206 446.756 127.913 449.295 127.913 455.349C128.011 463.455 128.695 465.213 130.55 461.795C133.187 457.302 133.285 457.302 136.41 460.72C139.144 463.845 139.339 463.845 139.437 461.795C139.437 460.623 140.023 459.646 140.804 459.646C141.488 459.646 142.66 458.963 143.343 458.181C145.003 456.131 147.933 457.107 152.23 461.306C155.453 464.431 155.843 464.529 156.331 462.674C156.624 461.404 155.941 460.037 154.476 458.572C151.742 456.033 151.546 453.982 153.597 451.248C154.378 450.271 155.062 449.099 155.062 448.709C155.062 447.537 151.253 449.099 149.593 450.955C147.933 452.713 147.933 452.713 146.663 450.369C145.589 448.318 145.589 447.244 146.663 444.217C147.347 442.166 147.64 439.529 147.249 438.064C146.663 436.209 146.956 435.232 148.324 434.451C149.886 433.474 150.179 433.572 150.179 435.037C150.179 436.013 150.472 437.088 150.765 437.381C151.839 438.552 157.503 436.209 159.652 433.767C160.824 432.4 161.996 431.326 162.191 431.326C163.265 431.326 165.804 439.529 165.804 442.849C165.902 448.025 168.734 451.248 172.64 450.369C175.277 449.783 175.57 449.978 175.57 452.029C175.667 453.299 176.253 455.349 177.035 456.717C177.816 458.084 178.499 461.599 178.597 464.529C178.597 467.459 178.988 470.974 179.378 472.244L180.062 474.588L183.773 471.267L187.581 467.947L186.898 473.513C186.312 478.006 186.605 480.252 188.265 484.939C190.023 489.627 190.218 491.092 189.242 492.849C188.363 494.509 188.363 495.974 189.242 499.197C190.804 504.763 193.343 505.447 197.249 501.541C198.812 499.978 200.765 498.709 201.449 498.709C203.695 498.709 208.773 495.388 209.359 493.533C209.652 492.556 210.824 491.873 212.288 491.873C214.339 491.873 214.632 491.384 214.632 488.357C214.632 485.623 214.925 484.939 216.39 485.232C217.367 485.427 218.148 486.599 218.343 488.357C218.636 490.408 219.417 491.384 221.566 492.166C223.812 493.045 224.398 493.826 224.398 496.267C224.398 500.857 229.085 504.959 233.089 504.08C234.749 503.689 237.484 502.322 239.144 500.955C242.367 498.22 246.566 497.732 255.843 499.099C261.312 499.881 261.41 499.881 262.093 497.342C262.777 494.509 268.148 491.287 269.613 492.752C270.98 494.119 276.058 492.947 279.378 490.603C281.624 489.138 282.601 488.943 284.749 489.724C286.214 490.31 288.753 490.994 290.316 491.384C294.417 492.263 302.914 496.365 304.476 498.22C306.234 500.271 307.406 500.076 310.531 497.049C313.167 494.509 313.363 494.509 315.999 495.974C318.246 497.342 324.691 498.318 328.695 497.83C329.476 497.732 329.867 496.463 329.769 494.021C329.574 492.068 330.16 489.334 330.941 487.967C331.722 486.599 332.406 485.427 332.406 485.232C332.503 485.037 334.359 486.111 336.507 487.674C341.292 491.092 344.515 495.877 344.515 499.49C344.515 502.713 347.152 505.545 350.081 505.545C351.742 505.545 352.23 504.666 352.816 500.857C353.499 495.974 354.476 494.314 357.406 492.752C358.968 491.873 359.456 492.361 361.117 495.974C363.265 500.857 366.292 503.982 370.199 505.447C373.128 506.619 373.617 508.572 371.273 510.525C369.906 511.599 370.003 511.892 372.054 512.967C373.324 513.748 376.351 514.236 378.792 514.334C382.796 514.334 383.48 514.627 383.968 516.775C384.652 519.51 388.46 520.291 388.46 517.752C388.46 516.58 389.73 516.287 393.831 516.287C398.91 516.287 399.203 516.385 399.203 518.728C399.203 522.049 403.304 523.025 407.21 520.681C409.652 519.217 410.335 519.217 411.019 520.291C411.507 521.072 411.898 522.244 411.898 522.927C411.898 523.709 412.679 523.904 414.339 523.513C417.269 522.83 421.664 525.857 419.515 527.127C418.636 527.713 418.636 528.201 419.515 529.275C420.394 530.349 420.101 531.131 417.953 533.084C412.289 538.357 410.433 539.041 403.304 538.26C399.691 537.869 395.687 536.99 394.32 536.306C392.367 535.33 391.39 535.33 389.828 536.111C386.8 537.967 381.624 541.97 381.624 542.654C381.624 542.947 384.261 544.705 387.386 546.56C392.562 549.49 393.05 549.978 392.171 551.834C389.339 558.279 382.015 557.498 374.007 549.881C365.316 541.482 355.355 534.256 347.445 530.349C340.804 527.127 339.73 526.931 335.726 527.713C331.917 528.396 330.941 528.299 328.402 526.345C326.742 525.174 322.738 523.806 319.222 523.22C315.414 522.635 312.191 521.463 310.824 520.193C309.652 519.119 308.187 518.24 307.601 518.24C307.015 518.24 305.843 516.97 305.062 515.408C303.206 511.99 299.984 509.842 294.417 508.377C290.511 507.4 289.925 506.912 289.437 504.08C288.851 501.345 288.265 500.759 285.14 500.174C283.187 499.783 279.574 499.49 277.132 499.392C274.691 499.295 272.152 498.806 271.468 498.318C270.589 497.83 269.417 498.22 267.953 499.588C266.781 500.759 265.121 501.638 264.339 501.638C262.581 501.638 258.187 507.791 255.941 513.455C253.402 519.802 251.742 521.56 246.566 523.513C240.804 525.662 235.531 524.978 229.476 521.072C225.374 518.435 224.886 518.338 222.738 519.705C220.687 521.072 220.394 521.072 219.32 519.217C217.171 515.896 216.585 516.97 216.585 524.002C216.585 527.81 216.195 531.131 215.609 531.424C215.121 531.717 214.632 532.791 214.632 533.67C214.632 534.549 213.949 536.599 213.07 538.26C212.191 539.822 211.117 542.459 210.824 544.119C210.433 545.779 209.163 547.537 207.796 548.22C206.429 548.904 204.671 550.174 203.89 551.15C201.351 554.275 195.687 558.084 193.148 558.474C191.097 558.67 190.511 559.549 189.535 563.65C187.777 571.56 187.679 571.463 194.417 573.318C197.738 574.295 201.937 576.248 203.792 577.615C205.648 579.08 207.601 580.545 207.992 580.838C209.945 582.107 211.507 591.385 210.628 595.486C209.359 600.857 210.921 602.81 213.558 599.392L215.316 597.049L219.613 600.076C221.956 601.736 226.546 604.666 229.867 606.619C234.749 609.646 236.312 611.209 238.363 615.506C239.828 618.435 243.148 624.295 245.785 628.592C248.519 632.888 251.449 639.138 252.328 642.361C253.988 648.318 253.988 648.416 251.742 652.615C250.57 654.959 247.64 658.377 245.394 660.232C240.218 664.529 239.046 668.533 240.023 679.275C240.413 683.67 240.902 687.478 241.097 687.674C241.292 687.967 242.953 689.822 244.71 691.775C256.234 705.056 256.038 704.763 254.378 706.033C252.425 707.498 252.035 710.72 253.011 716.482C253.597 719.998 254.476 721.365 257.113 723.22C260.433 725.467 260.628 725.467 264.437 723.904C267.367 722.732 268.343 722.635 268.343 723.611C268.343 724.295 269.222 726.443 270.296 728.494C271.371 730.447 272.249 732.791 272.249 733.572C272.249 735.818 273.519 735.33 276.742 731.814C280.648 727.713 282.406 723.513 281.038 721.853C280.355 721.072 280.062 716.092 280.257 708.767L280.55 696.853L285.238 693.826C290.511 690.506 297.933 689.138 301.449 690.994C303.792 692.263 304.085 695.779 302.523 702.322C301.742 705.74 301.839 706.424 303.695 707.986C304.769 708.865 306.527 709.451 307.406 709.158C308.675 708.767 310.531 710.525 314.632 715.799C317.66 719.705 320.101 723.904 320.101 725.076C320.101 728.787 326.156 739.92 328.206 739.92C329.867 739.92 329.867 740.115 328.499 742.068C326.644 744.705 326.449 749.783 328.109 754.373C329.183 757.107 329.085 758.084 327.621 760.623C325.472 764.334 325.472 768.631 327.621 770.291C328.499 771.072 329.281 771.463 329.281 771.267C329.378 771.072 330.941 771.853 332.894 773.025C335.531 774.588 336.703 776.052 337.093 778.396C337.679 781.326 340.609 785.427 340.609 783.279C340.609 782.791 341.097 779.568 341.683 776.052C342.464 770.779 342.367 769.217 341.097 766.287C340.023 763.943 339.632 760.818 339.828 757.01C340.121 751.345 340.218 751.15 342.757 751.345L345.394 751.541L343.929 747.537L342.562 743.631L345.003 744.217C346.761 744.705 347.445 744.412 347.445 743.435C347.445 742.654 346.956 741.677 346.468 741.385C344.71 740.31 345.492 736.404 347.933 734.06C349.3 732.791 350.374 730.74 350.374 729.47C350.374 728.006 351.546 726.443 354.183 724.685C357.699 722.342 358.382 722.244 361.605 723.318C363.558 724.002 366.39 724.295 367.855 724.002C370.199 723.513 370.882 723.904 372.64 727.127C374.007 729.47 374.789 732.595 374.789 735.33C374.789 737.771 375.277 740.994 375.863 742.556L376.937 745.291L379.476 740.603L380.062 742.654C380.453 743.826 381.429 744.802 382.21 744.802C383.089 744.802 383.578 745.877 383.578 748.123C383.578 750.955 384.066 751.638 386.507 752.517C388.656 753.201 389.437 754.08 389.437 755.838C389.437 757.107 390.218 758.963 391.292 759.842C393.05 761.404 393.05 761.599 391.292 765.115C388.558 770.388 388.851 771.853 392.367 771.365C394.71 771.072 395.296 770.486 395.296 768.631C395.296 765.31 398.812 763.65 401.253 765.896C402.23 766.775 403.109 768.24 403.109 769.021C403.109 771.951 405.355 776.736 407.308 777.908C408.773 778.885 410.238 778.885 413.949 778.006C419.417 776.638 419.906 775.174 416.292 771.56C412.874 768.142 411.996 766.189 412.581 763.26C412.972 761.209 412.484 760.232 410.433 758.865C400.081 751.541 398.226 747.732 402.23 741.287L404.281 737.967H401.742C399.789 737.967 399.203 737.478 399.203 735.916C399.203 733.084 402.035 731.033 404.281 732.205C405.55 732.888 406.039 732.791 406.039 731.814C406.039 731.033 406.624 729.861 407.406 729.275C408.871 728.006 409.066 728.689 404.085 718.435C403.206 716.58 401.839 712.576 401.156 709.646C400.472 706.717 399.3 702.908 398.617 701.248C397.835 699.49 397.542 696.658 397.933 694.705C398.324 692.068 397.933 690.506 396.371 688.26C395.199 686.599 394.417 684.842 394.808 684.256C395.101 683.767 394.417 681.619 393.343 679.373C391.683 676.052 390.902 675.467 388.265 675.467H385.238L385.921 670.193C386.312 666.189 386.214 664.627 385.238 664.041C384.456 663.65 383.578 661.795 383.285 660.037C382.894 658.279 381.527 655.349 380.16 653.592C378.792 651.834 377.718 649.685 377.718 648.904C377.718 648.025 377.035 646.853 376.253 646.17C375.472 645.486 374.789 643.728 374.789 642.263C374.789 640.506 374.007 639.041 372.542 638.064C370.492 636.795 370.101 635.525 369.613 628.885C369.32 624.588 368.441 619.119 367.757 616.58C366.488 611.599 367.171 609.939 371.468 608.67C373.128 608.181 373.714 608.67 374.593 611.795C375.863 615.799 381.624 622.342 381.624 619.607C381.624 617.263 383.968 616.873 389.925 618.142C395.101 619.217 395.296 619.314 395.296 622.342C395.296 626.248 396.273 626.931 399.593 625.662C401.546 624.978 402.132 625.076 402.132 626.052C402.132 627.615 404.183 628.592 407.503 628.592C408.773 628.592 410.531 629.568 411.312 630.74C413.363 633.67 413.265 634.744 410.921 633.963C409.359 633.474 408.968 633.767 408.968 635.818C408.968 637.674 408.48 638.357 407.015 638.357C403.499 638.357 404.769 642.263 409.945 647.244C412.679 649.881 415.218 652.029 415.706 652.029C417.367 652.029 418.831 649.197 418.246 646.951C417.367 643.338 421.175 641.873 424.789 644.412C426.644 645.681 428.695 646.17 431.136 645.974C436.019 645.584 435.921 643.826 430.941 643.435C428.792 643.24 426.253 642.459 425.374 641.58C423.812 640.213 423.812 639.92 425.374 637.771C426.644 635.916 427.621 635.623 429.769 636.013C431.234 636.306 432.992 636.111 433.675 635.623C434.359 635.135 438.753 634.451 443.539 634.158C451.546 633.67 453.792 632.888 453.89 630.349C453.89 630.056 452.621 628.494 451.058 627.029C448.031 624.197 448.031 621.756 450.96 621.756C453.89 621.756 454.085 620.193 451.742 615.799C449.789 611.892 449.593 611.795 448.714 613.748C448.128 614.92 446.956 616.092 445.98 616.385C444.906 616.775 444.124 617.849 444.124 618.924C444.124 620.291 443.636 620.779 442.464 620.584C441.39 620.388 440.804 619.51 440.999 618.435C441.195 617.361 440.804 616.287 440.218 615.896C439.437 615.408 439.73 613.748 441.195 610.135C443.636 603.787 443.636 602.615 441.195 601.931C439.437 601.443 432.406 602.81 432.406 603.592C432.406 603.787 433.089 605.545 433.871 607.4C434.652 609.353 435.335 611.599 435.335 612.478C435.335 616.189 428.011 615.31 426.546 611.502C425.96 609.939 424.886 609.06 423.421 609.06C418.05 608.963 415.023 603.299 414.828 593.435C414.828 591.092 414.242 589.627 412.874 588.748C410.628 587.381 410.238 584.646 412.289 584.646C413.07 584.646 414.437 583.963 415.316 582.986C417.562 580.838 416.585 576.248 413.07 572.635C410.531 569.998 410.14 569.9 404.476 570.486L398.421 571.072L398.031 568.045C397.738 566.385 397.933 564.822 398.421 564.529C398.812 564.236 399.203 562.869 399.203 561.502C399.203 558.767 398.519 558.865 407.894 560.818C410.14 561.306 411.41 560.818 414.437 558.084C421.566 551.736 424.105 550.857 433.871 551.052C441.488 551.15 442.66 551.345 442.562 552.81C442.367 554.177 443.05 554.373 446.664 553.787C450.472 553.201 450.96 553.396 450.96 555.154C450.96 556.619 449.984 557.302 446.664 558.181C441.585 559.451 440.706 560.427 442.367 563.064C444.222 565.994 446.761 566.189 449.886 563.552C451.449 562.283 453.402 561.209 454.281 561.209C455.16 561.209 455.843 560.72 455.843 560.037C455.843 559.451 456.527 558.181 457.406 557.205C458.773 555.642 458.773 555.447 456.917 554.861C455.746 554.568 454.867 553.689 454.867 553.006C454.867 552.322 453.792 550.467 452.425 548.904C450.57 546.756 449.789 546.365 448.812 547.342C447.054 549.099 443.734 548.904 444.515 546.951C444.808 546.072 445.101 545.193 445.101 544.998C445.101 544.802 446.273 544.607 447.835 544.607C449.3 544.607 452.425 543.728 454.769 542.654C460.628 540.017 461.703 540.115 461.703 543.631C461.703 545.584 461.214 546.56 460.238 546.56C459.456 546.56 458.773 547.146 458.773 547.732C458.773 548.416 458.48 549.978 458.187 551.15C457.699 553.006 457.992 553.396 459.945 553.396C461.312 553.396 463.363 554.47 464.632 555.838C466.195 557.498 467.269 557.986 467.953 557.302C468.441 556.814 469.613 556.326 470.394 556.326C472.152 556.326 477.132 564.627 478.988 570.584C480.648 576.052 482.601 577.615 484.945 575.467C487.289 573.416 487.484 573.513 491.488 576.15C494.417 578.006 494.906 578.885 494.906 582.01C494.906 584.646 495.589 586.404 497.347 588.162C498.714 589.529 499.789 591.58 499.789 592.849C499.789 595.779 501.253 596.951 506.234 597.732C509.749 598.318 510.433 598.123 511.8 595.974C512.777 594.607 513.46 591.677 513.46 589.529C513.46 587.283 514.144 584.256 514.925 582.595C516.292 580.056 516.292 579.373 515.023 576.541C514.242 574.881 513.363 571.756 512.972 569.607C512.581 567.068 511.8 565.701 510.433 565.408C508.187 564.822 507.992 563.357 510.042 562.576C512.093 561.697 511.898 559.451 509.554 558.767C507.015 557.986 506.722 551.443 509.164 551.443C510.433 551.443 510.628 550.857 510.042 548.709C509.749 547.244 508.968 545.877 508.48 545.779C507.992 545.584 507.601 543.924 507.601 542.166C507.601 540.31 507.113 537.771 506.527 536.502C505.062 533.279 506.82 530.154 511.117 528.396C514.144 527.127 514.437 526.638 514.437 522.732C514.437 519.412 513.949 517.947 512.191 516.58C511.019 515.603 508.675 513.064 507.113 510.818C504.183 506.717 500.179 504.763 490.706 502.713C488.656 502.224 486.019 500.955 484.749 499.783C483.187 498.318 481.331 497.732 477.718 497.732C472.152 497.732 471.664 497.439 468.636 492.849C467.367 490.994 465.316 488.552 464.144 487.478C462.874 486.404 461.605 484.549 461.214 483.279C460.14 479.47 464.046 480.642 467.074 485.037C468.734 487.381 470.589 488.943 471.761 488.943C472.835 488.943 476.058 489.724 478.89 490.603C482.992 491.873 484.652 491.97 486.605 491.092C488.265 490.31 489.828 490.31 491.585 490.896C495.589 492.459 502.816 492.068 504.867 490.213C506.527 488.748 506.722 488.748 507.992 490.408C508.675 491.384 509.749 491.873 510.335 491.482C511.898 490.603 511.898 497.927 510.433 499.392C509.652 500.174 510.531 500.662 513.46 501.15C515.706 501.541 517.66 502.322 517.855 502.908C518.05 503.592 518.441 505.252 518.734 506.814C519.32 509.158 519.613 509.353 521.273 508.474C523.714 507.205 523.91 508.963 521.761 511.795C519.515 514.724 520.003 516.287 523.031 516.287C528.109 516.287 531.039 521.658 528.011 525.467C526.058 527.908 526.058 527.908 528.011 531.814C529.867 535.33 530.453 535.72 534.164 536.013C537.484 536.209 538.558 536.795 539.535 538.748C540.609 540.994 540.414 541.287 536.41 543.924C533.187 546.072 532.015 547.439 532.015 549.197C532.015 551.248 532.406 551.541 535.238 551.248C537.874 551.052 538.46 550.467 538.656 548.22C539.046 544.705 542.757 544.412 542.757 547.83C542.757 549.392 543.636 550.564 545.199 551.248C549.398 553.201 550.863 552.81 550.179 549.978C548.812 544.51 555.941 546.56 558.382 552.322C559.261 554.47 560.238 555.349 561.8 555.349C564.339 555.349 567.171 553.006 567.171 551.052C567.171 550.369 567.953 548.709 569.027 547.439C570.394 545.584 570.882 543.045 571.175 535.818L571.566 526.541L564.73 526.443C560.335 526.443 556.527 525.76 553.988 524.685C550.96 523.318 549.496 523.123 547.445 523.904C545.492 524.588 544.515 524.588 543.734 523.611C542.953 522.732 542.953 522.146 543.734 521.658C545.394 520.584 544.808 519.217 542.66 519.217C540.414 519.217 536.8 517.459 535.726 515.896C535.335 515.31 534.945 512.674 534.945 510.134C534.945 506.814 534.359 504.568 532.992 502.908C531.722 501.248 531.039 498.904 531.039 496.17C531.039 493.045 530.648 491.873 529.574 491.873C528.792 491.873 528.109 490.994 528.109 489.92C528.109 488.845 528.597 487.967 529.281 487.967C530.16 487.967 530.16 487.674 529.281 486.795C527.425 484.939 527.914 477.127 530.062 473.611L532.015 470.388L528.304 468.045C521.761 463.943 519.906 458.572 523.519 453.982C524.691 452.517 524.789 452.615 518.831 449.783C513.656 447.342 504.671 446.56 504.671 448.513C504.671 450.467 499.886 451.052 497.542 449.392C496.371 448.611 494.613 447.927 493.539 447.927C489.73 447.927 480.257 443.631 480.257 441.873C480.257 440.896 478.988 438.748 477.425 436.99C474.789 434.06 474.398 433.865 472.152 435.134C469.417 436.599 462.484 436.013 461.898 434.256C461.41 432.986 453.109 427.42 451.546 427.42C449.886 427.42 446.468 423.611 445.199 420.291C444.613 418.728 444.124 415.506 444.124 412.967C444.124 409.158 443.734 408.181 441.976 407.4C440.706 406.814 439.046 404.861 438.167 403.006C437.191 401.15 435.14 398.513 433.382 397.342C430.355 394.998 430.16 394.998 425.96 396.658C423.617 397.537 421.468 398.611 421.175 399.099C420.882 399.588 418.441 399.685 415.804 399.392C412.484 399.002 410.921 399.197 410.921 399.978C410.921 400.564 410.14 401.052 409.066 401.052C407.796 401.052 406.917 402.224 406.039 405.349C405.062 408.865 404.574 409.549 402.914 409.06C401.546 408.767 400.863 409.158 400.472 410.623C400.179 411.892 398.617 413.162 396.371 413.845C391.781 415.31 383.968 419.314 380.453 421.853C376.839 424.588 376.742 426.931 380.453 426.052C381.917 425.662 384.847 425.174 386.996 424.881C395.101 423.806 395.589 423.611 395.003 421.072C394.613 418.924 394.906 418.631 397.249 418.631C399.007 418.631 400.472 419.412 401.546 421.072C403.499 424.002 407.015 425.076 409.847 423.611C412.874 421.951 418.734 425.369 423.128 431.326C425.179 434.06 427.816 436.502 429.183 436.795C430.453 437.185 433.578 439.529 436.019 442.166C438.46 444.802 441.195 446.951 442.074 446.951C444.417 446.951 446.078 448.904 446.078 451.541C446.078 452.81 446.761 454.08 447.64 454.47C448.519 454.763 449.984 456.912 451.058 459.256C452.523 462.869 453.304 463.552 455.55 463.552C460.433 463.552 462.484 464.627 464.144 468.045C467.66 475.564 463.851 481.131 458.773 475.759C456.039 472.83 454.867 472.634 454.867 475.271C454.867 478.201 453.109 477.908 442.464 473.025C440.414 472.146 438.753 472.244 435.14 473.806C434.164 474.197 433.382 474.099 433.382 473.513C433.382 472.927 434.749 472.244 436.41 471.853C440.414 470.974 439.925 468.045 435.531 467.654C433.675 467.459 432.406 466.775 432.406 465.994C432.406 465.31 431.722 464.529 430.843 464.334C429.476 464.041 429.574 463.65 431.331 461.404C432.992 459.353 433.187 458.279 432.503 456.424C431.527 453.884 428.402 452.224 425.374 452.713C424.496 452.81 423.226 452.029 422.64 450.955C421.956 449.588 420.589 448.904 418.636 448.904C416.097 448.904 415.804 449.197 416.292 450.857C416.781 452.322 416.488 452.81 415.023 452.81C413.949 452.81 412.581 453.494 411.898 454.275C411.214 455.056 410.335 455.74 410.042 455.74C408.871 455.74 405.062 448.22 405.062 445.974C405.062 444.802 404.281 442.556 403.402 440.994C401.937 438.455 401.156 438.162 397.054 438.162C394.417 438.162 390.706 437.478 388.753 436.697C386.8 435.818 384.456 435.427 383.675 435.72C382.894 436.013 381.234 435.232 379.964 434.06C378.304 432.498 376.644 431.912 374.398 432.107C371.566 432.4 370.785 431.912 368.148 428.299C366.488 426.052 364.925 423.709 364.73 423.22C364.535 422.537 362.972 423.025 360.921 424.295C357.406 426.443 354.574 426.931 350.57 425.857C348.714 425.271 348.421 424.783 348.91 422.83C349.398 420.779 349.203 420.486 347.445 421.072C343.831 422.244 345.492 419.9 350.179 417.361C353.89 415.31 355.16 415.115 356.722 415.994C357.796 416.58 360.433 417.361 362.581 417.752C364.73 418.142 368.148 418.728 370.101 419.119C375.374 420.193 378.304 419.119 379.476 415.799C380.453 413.162 380.648 413.064 384.456 413.748C387.972 414.334 388.851 414.041 393.05 411.111C396.175 408.865 398.226 406.521 399.398 403.689C401.546 398.318 401.644 395.779 399.593 396.56C398.714 396.853 396.956 397.439 395.492 397.83L392.953 398.416L395.199 395.388C397.347 392.361 397.347 392.263 395.687 388.748C394.613 386.502 392.855 384.744 391.195 384.06C388.949 383.279 388.46 382.498 388.46 379.861C388.46 377.224 387.972 376.541 385.824 376.052C383.968 375.564 382.894 375.857 382.015 377.029C380.941 378.494 380.648 378.006 379.183 373.123C377.328 366.677 377.914 361.502 380.648 360.037C381.624 359.549 384.164 359.06 386.312 359.06C390.902 359.06 391.683 358.474 390.316 355.935C389.535 354.568 389.632 353.201 390.414 351.248C391.585 348.416 391.585 348.416 394.808 349.978C396.664 350.857 398.324 352.517 398.617 353.884C399.203 355.838 399.789 356.131 404.378 356.131C410.335 356.228 414.144 358.767 415.218 363.455C415.609 365.017 416.976 367.752 418.343 369.509C421.664 373.806 421.273 378.592 417.66 378.592C416.683 378.592 414.925 379.861 413.656 381.521C412.484 383.084 410.921 384.451 410.14 384.451C408.968 384.451 408.968 384.158 409.945 382.888C411.019 381.619 410.824 381.033 408.675 378.787C405.355 375.564 403.988 376.638 403.304 383.279C402.914 387.967 402.914 388.064 406.136 389.236C408.968 390.213 409.749 390.115 412.093 388.357C413.558 387.283 416.097 386.404 417.66 386.404C419.71 386.404 420.785 385.818 421.175 384.451C421.468 383.377 422.347 382.498 422.933 382.498C423.519 382.498 426.351 381.326 429.183 379.763C434.261 377.127 434.359 377.029 434.359 372.634C434.359 368.924 433.773 367.361 430.941 363.845C429.085 361.502 427.523 358.474 427.523 357.107C427.523 355.642 425.96 353.201 423.617 350.759C421.468 348.611 419.71 346.365 419.71 345.779C419.71 345.095 417.855 342.263 415.511 339.334C413.167 336.502 409.847 332.107 408.187 329.568C406.039 326.345 403.988 324.685 401.449 323.806C396.273 322.146 390.706 318.435 389.339 315.896C388.753 314.627 387.386 312.674 386.312 311.599C384.847 309.939 384.261 307.107 383.48 299.392C382.992 293.826 382.406 288.259 382.113 287.185C381.82 286.013 378.402 282.009 374.496 278.396C367.953 272.244 367.269 271.267 366.683 266.97C365.804 260.916 365.902 261.013 360.042 257.791C354.671 254.861 352.914 251.931 351.839 244.119C351.546 241.58 350.57 237.576 349.789 235.33C348.421 231.521 348.421 231.033 350.277 227.322C351.449 225.174 352.328 222.049 352.328 220.388C352.328 216.873 356.722 207.791 359.261 205.935C362.093 203.982 361.703 199.099 358.675 197.732C357.308 197.146 355.941 195.486 355.55 194.119C355.257 192.752 354.085 190.115 353.011 188.259L350.96 184.939L355.062 185.525C358.48 186.111 359.261 185.916 360.14 184.353C360.824 183.084 360.824 182.205 360.14 181.814C358.871 181.033 358.871 175.467 360.042 175.467C360.628 175.467 361.214 175.857 361.507 176.345C361.8 176.834 363.656 177.42 365.511 177.615C368.636 178.006 368.929 177.81 368.929 175.369C368.929 172.634 370.394 171.56 374.105 171.56C375.277 171.56 378.109 170.681 380.355 169.705C383.773 168.142 384.456 167.263 384.749 164.529C385.042 161.697 385.433 161.306 388.167 161.013C390.804 160.72 391.39 161.111 391.976 163.162C392.269 164.431 392.269 166.482 391.878 167.556C391.488 168.924 391.976 170.486 393.246 172.146C395.101 174.49 395.101 174.978 393.831 177.42C392.269 180.447 386.898 181.814 381.039 180.74C378.109 180.252 377.718 180.349 377.718 182.205C377.718 183.279 378.109 184.256 378.597 184.256C380.257 184.256 383.871 190.31 384.456 193.924C384.945 196.951 385.433 197.439 387.972 197.732C392.953 198.22 396.175 199.978 398.324 203.494C400.96 207.791 409.359 213.943 414.339 215.31C416.488 215.896 421.468 217.556 425.374 219.021L432.406 221.658V228.201C432.406 231.814 431.722 236.404 430.941 238.357C429.476 241.775 429.476 241.873 432.21 243.24C435.726 244.998 437.777 247.439 439.046 251.541C440.023 254.373 439.925 255.154 438.167 257.302L436.214 259.841L438.46 260.72C439.73 261.209 442.367 261.306 444.417 261.111C447.152 260.72 449.789 261.306 454.378 263.455C460.042 265.994 461.703 266.287 470.589 266.287C478.011 266.287 480.355 265.994 480.062 265.017C479.769 264.431 478.109 263.65 476.253 263.357C473.714 262.966 472.835 262.381 472.64 260.72C472.445 259.158 470.98 258.084 467.171 256.619C457.21 252.908 449.886 247.244 445.882 240.213C444.222 237.381 441.488 233.865 439.73 232.498C434.749 228.689 434.261 223.709 438.265 217.459L441.39 212.674L445.394 214.236C447.64 215.115 451.058 217.263 452.914 219.021C456.234 222.049 456.527 222.146 463.265 221.658L470.199 221.17L472.445 225.662C473.617 228.201 476.742 232.4 479.378 234.939C482.015 237.576 484.164 240.408 484.164 241.384C484.164 244.412 489.339 252.615 492.464 254.568C494.222 255.642 496.371 258.279 497.347 260.427C498.519 263.064 499.593 264.236 500.57 263.845C501.253 263.552 503.011 263.357 504.378 263.357C506.527 263.357 506.722 263.064 506.136 260.33C505.648 258.084 505.941 256.814 507.406 255.252C510.433 251.736 510.824 249.685 508.382 248.806C507.113 248.318 506.722 247.83 507.406 247.342C508.089 246.951 508.089 245.974 507.113 244.119C506.234 242.361 506.039 240.994 506.722 239.822C508.089 237.088 507.796 236.306 504.964 235.525C503.402 235.232 497.933 232.498 492.66 229.47C485.628 225.467 482.406 223.025 480.746 220.291C479.378 218.338 477.914 216.384 477.425 216.092C476.937 215.701 475.96 213.943 475.374 212.088C474.398 209.06 474.496 208.181 476.351 205.349C478.206 202.224 478.597 202.029 481.234 203.006C483.578 203.787 484.749 203.592 487.289 202.029C490.023 200.369 491.292 200.174 495.687 200.857C499.886 201.541 501.937 202.615 506.722 206.814C512.093 211.502 512.972 211.892 518.734 212.283C525.765 212.869 527.914 214.724 530.062 221.951C530.843 224.588 532.601 226.736 535.531 228.982C537.874 230.74 540.121 233.279 540.414 234.646C540.804 236.111 541.585 236.892 542.269 236.599C542.953 236.404 545.394 235.623 547.542 234.939C550.374 234.06 551.449 233.279 551.058 232.302C550.765 231.619 550.57 230.642 550.57 230.252C550.57 229.763 548.226 227.029 545.394 224.002C542.464 221.072 538.851 216.092 537.289 213.064C535.14 208.963 533.773 207.4 531.82 207.009C530.453 206.717 529.085 205.74 528.792 204.763C528.597 203.787 525.179 201.541 521.078 199.588C514.632 196.463 513.558 195.584 512.191 192.068C511.117 189.236 510.14 188.162 508.675 188.162C506.82 188.162 506.624 188.748 506.624 193.533C506.624 198.611 506.527 198.904 504.183 198.904C500.277 198.904 495.003 195.779 492.855 192.263C491.781 190.408 490.316 186.404 489.632 183.279L488.265 177.615L493.05 177.029C496.761 176.541 497.835 175.955 497.835 174.588C497.835 173.416 496.566 172.439 493.734 171.56C487.874 169.9 486.019 168.338 482.601 162.478C480.16 158.279 479.085 157.302 476.546 157.107C472.64 156.717 472.542 155.252 476.351 148.709C479.085 143.826 479.476 143.631 486.605 141.482L494.027 139.334L498.421 142.263C503.597 145.877 512.484 149.099 517.171 149.099C519.906 149.099 521.566 148.22 525.179 144.802C527.718 142.361 532.992 138.845 536.8 136.99L543.734 133.474V129.08C543.734 125.369 544.124 124.49 546.468 123.025C547.933 122.146 549.984 120.681 551.058 119.802C552.816 118.338 564.535 113.943 566.781 113.943C567.269 113.943 568.539 115.408 569.515 117.068C573.617 124.099 577.035 127.615 579.769 127.615C581.234 127.615 583.285 128.299 584.359 129.08C585.335 129.861 587.484 130.545 588.949 130.545C590.511 130.545 592.562 131.033 593.539 131.521C595.101 132.4 595.98 131.912 598.617 128.982C607.699 118.826 607.699 118.826 612.484 118.826C615.609 118.826 616.976 118.435 616.976 117.459C616.976 116.775 617.855 115.017 618.929 113.65C620.003 112.283 620.882 110.525 620.882 109.646C620.882 108.377 621.956 108.084 626.253 108.084C631.136 108.084 631.82 108.377 632.796 110.525C634.945 115.213 639.828 117.263 648.617 117.068C655.062 117.068 656.917 117.361 658.48 118.826C659.554 119.9 664.339 122.439 668.929 124.588C676.351 128.006 678.304 128.494 684.066 128.494C687.679 128.494 696.859 128.787 704.378 129.275C716.195 130.056 718.734 130.545 723.031 132.693C728.011 135.33 730.257 138.357 730.257 142.752C730.257 145.681 730.453 145.681 736.605 143.338C740.121 141.97 741.585 140.896 741.781 139.431C741.976 138.064 743.636 136.599 746.273 135.232C750.081 133.377 750.472 132.888 750.374 129.666C750.277 126.834 750.667 126.15 752.035 126.15C753.011 126.15 754.476 125.369 755.16 124.295C755.941 123.318 756.917 122.83 757.503 123.22C758.089 123.513 758.578 123.22 758.578 122.342C758.578 121.56 760.042 119.998 761.8 118.924C764.925 117.068 765.023 116.677 764.925 111.599C764.828 108.67 764.144 104.959 763.46 103.299C762.484 100.759 762.484 99.8806 763.851 97.8298C765.999 94.6071 765.804 93.7282 762.874 93.0446C760.726 92.4587 760.531 92.1657 761.703 90.7985C762.484 89.822 763.07 86.3064 763.07 81.6189C763.167 77.5173 763.558 73.611 763.949 73.0251C764.242 72.4392 765.902 71.9509 767.66 71.9509C770.101 71.9509 771.956 70.779 776.156 66.6774C782.601 60.4274 786.214 58.9626 790.706 60.8181C793.734 62.0876 793.831 61.9899 794.906 59.4509C796.468 55.6423 796.273 48.904 794.32 42.654C793.441 39.7243 792.562 33.6696 792.464 29.2751L792.269 21.1696H789.242C786.996 21.1696 785.921 20.5837 785.14 18.8259C784.066 16.2868 774.398 8.66963 770.003 6.7165C768.539 6.03291 764.925 5.54463 761.996 5.54463C757.699 5.54463 756.429 5.154 755.16 3.39619C754.183 1.93135 752.621 1.1501 750.472 1.1501C748.812 1.1501 746.468 0.759472 745.394 0.466503C744.124 0.0758784 741.781 0.759472 738.851 2.41963Z" fill="white"/>
<path d="M575.277 139.138C573.812 140.701 571.761 142.166 570.785 142.556C569.808 142.947 567.953 145.681 566.585 148.611C564.632 152.81 564.242 154.861 564.73 157.791C565.316 161.306 565.609 161.599 569.222 162.185C571.273 162.478 573.031 163.162 573.031 163.552C573.031 163.943 574.3 165.799 575.863 167.654L578.695 171.072L580.843 169.119C582.015 168.045 585.042 166.482 587.484 165.603L592.074 164.041L592.757 157.888C593.245 153.787 593.05 151.248 592.367 150.369C591.585 149.392 591.781 148.611 593.05 147.146C594.613 145.388 594.613 145.193 593.245 145.193C592.367 145.193 590.902 144.119 590.023 142.752C588.949 141.092 587.484 140.31 585.726 140.31C584.261 140.31 582.308 139.431 581.331 138.357C579.085 135.818 578.597 135.916 575.277 139.138Z" fill="white"/>
<path d="M662.386 250.662C662.093 251.15 660.726 251.638 659.359 251.638C657.601 251.638 657.015 252.127 657.015 253.787C656.917 256.131 653.988 260.427 652.328 260.427C651.839 260.427 650.863 261.111 650.081 261.99C649.007 263.357 648.617 263.259 647.054 261.209C646.175 259.939 645.296 258.474 645.296 257.888C645.296 257.205 644.124 256.033 642.757 255.056C640.609 253.689 639.828 253.592 637.386 254.666C634.945 255.642 634.261 255.545 633.285 254.275C632.21 252.908 631.624 252.908 627.035 254.373L621.859 256.033V260.623C621.859 263.943 622.249 265.31 623.226 265.31C624.203 265.31 624.398 266.775 624.007 272.146C623.519 279.373 624.007 280.056 627.718 278.006C628.792 277.42 630.648 277.224 631.917 277.517C633.773 278.006 634.066 278.591 633.773 281.326C633.382 285.037 634.456 285.818 639.144 285.134C642.269 284.646 642.269 284.646 640.902 281.814C640.121 280.349 639.437 277.029 639.437 274.588C639.437 270.877 639.828 269.998 641.683 269.314C644.613 268.142 645.296 268.728 645.296 272.732C645.296 274.783 644.906 275.955 644.32 275.564C642.66 274.49 643.246 276.052 645.785 279.373C647.152 281.131 648.226 282.986 648.226 283.572C648.226 284.549 652.425 286.795 654.378 286.795C655.062 286.795 656.136 285.916 656.82 284.744C657.894 282.986 657.894 282.4 656.624 281.033C655.843 280.154 654.867 277.615 654.476 275.466C653.89 271.756 654.085 271.267 656.917 269.314C658.578 268.142 659.945 266.482 659.945 265.701C659.945 263.162 662.874 258.474 664.437 258.474C665.609 258.474 665.902 257.888 665.414 256.228C665.121 255.056 664.828 253.103 664.828 251.834C664.828 249.588 663.46 248.904 662.386 250.662Z" fill="white"/>
<path d="M48.4213 283.474C47.4447 284.549 44.3197 285.232 38.9487 285.525C31.6244 286.013 30.8432 286.306 28.9877 288.845C27.1322 291.384 27.1322 291.775 28.5971 294.607C29.3783 296.17 30.5502 297.537 31.0385 297.537C31.5268 297.537 31.7221 298.123 31.4291 298.904C30.6479 300.955 32.7963 304.373 34.8471 304.373C36.1166 304.373 36.8979 305.349 37.2885 307.693C37.6791 309.842 38.6557 311.306 39.8276 311.697C40.9018 312.088 41.7807 312.869 41.7807 313.455C41.7807 314.138 43.3432 315.701 45.1987 316.97C48.0307 318.924 48.7143 320.095 49.6908 324.881C51.1557 332.205 53.7924 336.502 57.6987 337.869C59.4565 338.552 65.0229 341.092 70.101 343.631C75.4721 346.365 79.6713 347.927 80.1596 347.439C80.6479 346.951 79.8666 344.119 78.2065 340.603C75.6674 335.427 75.0815 334.744 74.0072 336.111C72.4447 337.967 68.1479 338.064 68.1479 336.209C68.1479 335.525 66.1947 334.158 63.7533 333.279C58.8705 331.326 58.7729 331.131 57.7963 320.681C57.308 314.138 57.4057 313.162 58.7729 313.162C61.5072 313.162 60.433 311.502 56.6244 310.037C53.6947 308.865 52.7182 307.791 51.644 304.666C50.0815 299.978 50.4721 299.099 55.4526 296.56C60.726 293.826 63.2651 285.818 58.7729 285.818C58.0893 285.818 56.9174 284.939 56.2338 283.865C54.769 281.521 50.6674 281.326 48.4213 283.474Z" fill="white"/>
<path d="M615.218 321.17C613.949 322.439 613.656 328.494 614.632 331.228C615.218 332.595 615.804 332.302 618.539 329.666C622.249 326.15 622.738 323.318 620.199 321.365C618.05 319.705 616.683 319.705 615.218 321.17Z" fill="white"/>
<path d="M761.507 344.412C760.726 344.998 758.48 345.291 756.624 345.193C754.769 345.095 751.546 345.584 749.593 346.267C746.273 347.342 745.882 347.83 745.882 350.759C745.882 353.494 745.394 354.177 742.757 355.056C740.999 355.74 736.996 356.424 733.968 356.814C730.355 357.205 727.816 357.986 726.742 359.158C724.789 361.404 722.64 361.502 720.003 359.646C718.246 358.474 717.757 358.572 715.316 360.623C713.753 361.99 712.679 363.845 712.679 365.408C712.679 366.775 711.996 369.217 711.117 370.877C709.749 373.611 709.749 374.002 711.703 377.127C712.874 378.982 714.535 380.545 715.316 380.545C716.195 380.545 718.929 381.814 721.371 383.377C726.937 386.892 734.066 387.674 736.996 385.037C737.972 384.06 740.511 380.545 742.562 377.029L746.175 370.779H750.96C757.21 370.779 759.554 372.049 759.554 375.564C759.554 378.006 758.968 378.591 754.281 380.447C751.449 381.619 748.031 383.377 746.761 384.256C745.492 385.134 742.855 386.404 740.999 386.892C737.484 387.966 735.628 391.287 738.46 391.287C739.339 391.287 741.195 393.338 742.66 395.877L745.199 400.564L751.156 400.759C755.55 400.857 758.48 401.541 762.484 403.689C766.781 405.935 769.124 406.424 774.398 406.424C780.257 406.424 781.331 406.131 783.578 403.787L786.214 401.248L782.796 396.463C777.914 389.822 777.035 387.771 777.718 385.037C778.206 382.888 778.597 382.791 780.55 383.67C782.406 384.549 782.992 385.72 783.578 390.017C784.359 396.365 786.214 398.709 791.097 399.49C794.417 400.076 794.71 399.978 794.71 397.83C794.71 396.56 793.441 393.533 791.781 390.994C787.386 383.963 784.847 378.591 785.433 377.615C785.726 377.127 784.945 376.443 783.578 376.052C781.917 375.662 780.746 374.197 779.574 371.267C778.402 368.045 776.937 366.384 773.617 364.431C768.929 361.697 768.539 360.525 770.785 356.033C772.249 353.201 772.249 353.103 769.417 351.443C767.171 350.174 766.585 349.295 766.976 347.634C767.367 346.17 766.976 345.193 765.609 344.509C763.167 343.24 763.363 343.24 761.507 344.412Z" fill="white"/>
<path d="M498.812 361.892C498.812 362.283 497.249 364.627 495.394 366.97C493.539 369.314 491.976 372.146 491.976 373.123C491.976 374.197 491.292 375.76 490.511 376.638C489.632 377.615 489.242 378.982 489.632 379.861C490.121 381.228 490.804 381.033 494.515 378.396C496.859 376.736 498.812 374.588 498.812 373.806C498.812 372.928 499.886 370.486 501.253 368.338C504.378 363.162 504.378 361.013 501.253 361.013C499.886 361.013 498.812 361.404 498.812 361.892Z" fill="white"/>
<path d="M79.8666 366.873C79.8666 369.216 82.5033 373.025 85.1401 374.392C87.7768 375.759 88.1674 375.759 89.3393 374.099C90.4135 372.634 90.3158 372.048 88.851 370.486C85.8237 367.166 79.8666 364.724 79.8666 366.873Z" fill="white"/>
<path d="M460.726 370.974C460.726 371.658 462.289 374.881 464.242 378.006C466.195 381.228 467.464 384.549 467.269 385.623C466.878 386.99 467.367 387.381 469.124 387.381C470.492 387.381 472.64 388.064 473.91 388.943C477.132 390.994 478.792 390.213 481.234 385.427C482.992 381.912 483.089 381.424 481.722 380.838C480.843 380.545 479.671 380.74 478.988 381.424C477.425 382.986 476.839 382.791 475.57 380.056C474.984 378.689 473.91 377.615 473.226 377.615C472.64 377.615 470.003 375.857 467.464 373.709C462.679 369.705 460.726 368.924 460.726 370.974Z" fill="white"/>
<path d="M446.078 373.22C445.589 374.588 444.515 375.662 443.734 375.662C442.367 375.662 439.632 379.373 440.414 380.056C440.609 380.154 442.074 380.642 443.831 380.935C446.273 381.521 446.956 381.326 447.445 379.763C447.835 378.787 449.203 377.42 450.667 376.736L453.206 375.564L450.96 373.22C448.128 370.193 447.249 370.193 446.078 373.22Z" fill="white"/>
<path d="M557.992 407.107C557.699 408.377 557.21 410.623 556.917 412.283C555.257 420.486 555.257 420.584 556.624 420.584C558.48 420.584 562.581 426.15 561.312 426.931C560.726 427.224 560.335 428.494 560.335 429.666C560.433 431.619 560.726 431.424 563.265 428.396C565.609 425.564 566.39 425.174 567.757 426.052C570.296 427.615 570.492 429.08 568.246 429.861C566.292 430.447 566.292 430.642 567.855 433.572C569.32 436.599 569.417 436.599 570.199 434.451C571.078 432.205 574.007 432.4 574.007 434.744C574.007 435.623 574.984 435.623 578.304 434.549C582.113 433.279 582.601 432.791 581.917 431.033C581.527 429.861 578.695 427.029 575.57 424.685C570.687 420.877 570.101 420.095 570.101 416.873C570.101 414.041 569.32 412.478 565.999 409.158C561.41 404.47 558.675 403.787 557.992 407.107Z" fill="white"/>
<path d="M677.23 459.549C675.57 460.134 675.57 460.33 676.937 461.502C677.816 462.185 678.499 464.041 678.499 465.506C678.499 468.142 679.964 469.412 682.894 469.412C683.578 469.412 684.359 467.752 684.652 465.799C685.628 460.232 682.308 457.498 677.23 459.549Z" fill="white"/>
<path d="M719.027 461.306C712.386 461.892 707.406 465.603 708.285 469.314C709.066 472.537 713.07 476.736 716.781 478.299C720.785 479.959 726.839 492.361 725.96 497.146C725.179 501.248 723.324 503.299 719.71 504.275C716.683 504.959 712.777 507.595 712.679 508.865C712.679 510.427 723.226 522.634 726.156 524.392L729.085 526.052L729.769 522.927C730.648 518.728 731.917 517.263 734.749 517.263C737.386 517.263 738.558 515.701 738.167 512.576C738.07 511.209 739.046 509.06 740.902 506.912C744.222 503.201 745.882 498.513 744.124 497.927C743.343 497.732 742.953 494.802 742.953 489.92C742.953 485.623 742.464 481.033 741.781 479.666C740.804 477.42 740.804 476.931 742.269 476.15C743.343 475.466 743.929 473.904 743.929 471.365C743.929 466.97 742.855 465.896 740.023 467.459C738.265 468.338 737.777 468.045 736.117 465.213C734.066 461.795 730.745 460.427 725.96 460.818C724.886 460.916 721.761 461.111 719.027 461.306Z" fill="white"/>
<path d="M672.152 467.459C671.468 468.631 672.347 470.388 673.714 470.388C674.203 470.388 674.593 469.509 674.593 468.435C674.593 466.384 673.128 465.799 672.152 467.459Z" fill="white"/>
<path d="M747.835 469.314C747.835 471.658 749.789 473.318 752.523 473.318C753.792 473.318 755.648 473.806 756.722 474.295C758.089 475.076 758.578 474.978 758.578 474.002C758.578 471.951 755.16 469.314 751.351 468.435C748.421 467.752 747.835 467.947 747.835 469.314Z" fill="white"/>
<path d="M138.753 476.15C139.046 477.615 138.851 478.201 137.777 478.201C136.605 478.201 136.41 478.982 136.996 481.814C137.679 485.72 139.828 490.408 141.292 491.287C141.781 491.677 142.757 490.31 143.343 488.455C144.417 485.232 143.831 481.131 141.488 476.345C140.316 473.904 138.07 473.709 138.753 476.15Z" fill="white"/>
<path d="M126.449 481.716C126.253 483.084 126.253 487.088 126.546 490.506C126.937 496.463 126.839 497.049 124.3 499.685C122.738 501.345 120.98 502.615 120.394 502.615C118.636 502.615 116.195 499.588 115.413 496.365C114.828 494.021 114.632 493.826 113.851 495.193C113.363 496.072 112.386 496.756 111.703 496.756C110.921 496.756 110.14 498.416 109.749 500.857C109.359 503.103 108.48 506.326 107.796 507.888C107.113 509.549 105.941 513.259 105.257 516.189C104.085 521.267 104.085 521.56 106.331 523.22C109.261 525.466 113.656 525.662 114.437 523.513C115.511 520.779 115.023 509.841 113.851 508.67C112.972 507.791 113.07 507.498 114.632 507.498C116.39 507.498 117.464 509.451 121.468 520.681C122.152 522.439 122.054 522.537 120.394 521.17C118.734 519.9 118.636 519.9 119.124 521.17C119.32 521.951 120.199 524.685 120.882 527.127C121.859 530.252 123.031 532.009 125.081 533.279C127.913 534.841 128.109 534.841 130.16 532.888C133.187 530.056 135.628 530.447 140.902 534.451C144.515 537.283 146.566 538.064 150.277 538.259C154.671 538.455 155.062 538.357 155.941 535.525C157.503 531.228 157.308 530.252 154.085 526.736C149.398 521.658 144.32 514.529 142.757 510.916C141.488 507.888 141.097 507.595 139.437 508.474C138.363 509.06 137.093 509.256 136.605 508.963C135.238 508.181 134.261 502.42 135.335 501.736C136.507 501.052 133.675 486.892 131.624 483.084C129.281 478.591 127.23 478.103 126.449 481.716Z" fill="white"/>
<path d="M144.32 493.435C142.953 494.412 141.781 495.193 141.585 495.291C140.706 495.877 144.613 502.615 146.078 503.006C149.691 504.177 153.011 500.955 150.081 499.197C149.593 498.806 149.203 497.146 149.398 495.486C149.788 491.775 147.933 491.091 144.32 493.435Z" fill="white"/>
<path d="M588.656 549.099C583.285 552.615 581.722 554.373 582.21 556.131C584.945 566.775 585.042 566.873 587.093 566.091C590.023 565.017 594.515 568.435 594.515 571.56C594.515 573.22 596.175 575.759 599.691 579.177C602.523 582.009 605.648 586.209 606.624 588.357C608.675 592.849 610.042 593.435 612.288 590.701C615.999 586.306 617.074 577.81 613.558 580.74C612.288 581.716 612.093 581.619 612.093 579.666C612.093 578.396 612.581 576.638 613.07 575.857C613.753 574.783 613.265 573.806 611.312 572.244C609.163 570.584 608.87 569.9 609.945 568.924C610.531 568.24 611.117 566.482 611.117 565.017C611.117 562.771 610.628 562.283 607.503 561.795C598.421 560.232 598.519 560.33 597.445 556.228C596.859 554.08 595.687 552.029 594.906 551.736C594.222 551.443 593.538 550.466 593.538 549.49C593.538 546.756 592.367 546.658 588.656 549.099Z" fill="white"/>
<path d="M139.339 559.939C137.679 560.33 135.531 567.263 135.531 572.341C135.531 574.783 136.117 575.759 137.972 576.638C139.339 577.224 141.097 579.47 141.976 581.424C145.394 589.138 145.687 589.627 148.519 590.213C150.57 590.603 151.839 591.873 153.597 595.388C155.648 599.392 156.234 599.978 158.382 599.588C161.214 599.002 162.386 596.658 160.824 594.802C159.554 593.24 160.921 590.31 163.949 588.162C166.39 586.502 170.003 587.674 173.128 591.287L175.081 593.631L176.937 591.58C178.695 589.627 178.695 589.529 175.277 586.404C173.421 584.646 171.078 582.693 170.101 582.107C169.124 581.521 167.855 579.568 167.269 577.81C166.292 574.881 165.413 574.295 159.066 572.146C152.816 570.095 151.644 569.216 148.031 564.529C144.32 559.549 143.05 558.865 139.339 559.939Z" fill="white"/>
<path d="M804.476 576.834C804.476 577.322 803.792 577.81 802.913 577.81C802.035 577.81 800.081 578.884 798.421 580.252C796.859 581.619 795.003 582.693 794.32 582.693C793.636 582.693 792.171 583.767 790.902 584.939C789.046 587.088 788.949 587.381 790.316 588.552C791.39 589.431 791.683 590.701 791.292 592.556C790.413 596.365 792.074 596.756 795.199 593.435C798.714 589.724 803.597 588.748 806.917 590.896C808.285 591.775 809.359 593.142 809.359 593.924C809.359 595.974 816.292 601.248 818.929 601.248C820.394 601.248 822.738 599.783 825.081 597.341C827.23 595.193 829.671 593.435 830.745 593.435C831.722 593.435 833.089 592.752 833.773 591.97C834.456 591.189 836.117 590.603 837.581 590.701C840.413 590.896 844.515 589.041 844.515 587.576C844.515 586.99 843.831 586.599 843.05 586.599C841.097 586.599 841.195 583.767 843.245 581.521C844.906 579.666 844.808 579.666 842.367 580.252C840.804 580.642 838.656 580.349 836.898 579.373C832.308 577.029 830.55 577.322 831.234 580.252C831.624 581.619 831.624 582.693 831.429 582.693C830.257 582.693 821.078 577.42 821.078 576.736C821.078 576.248 817.367 575.857 812.777 575.857C807.894 575.857 804.476 576.248 804.476 576.834Z" fill="white"/>
<path d="M445.882 581.814C442.367 583.181 442.367 586.013 445.687 588.259L448.226 589.92L443.929 593.435H446.371C447.738 593.435 449.007 593.923 449.203 594.509C449.788 596.267 454.867 593.338 454.867 591.189C454.867 590.115 455.746 587.869 456.82 586.013C457.992 584.255 458.48 582.595 457.894 582.302C456.038 581.13 448.421 580.838 445.882 581.814Z" fill="white"/>
<path d="M433.773 591.873C433.48 592.752 433.48 594.216 433.87 595.095C434.456 596.756 434.554 596.756 435.921 594.9C436.703 593.924 437.191 592.556 436.995 592.068C436.41 590.408 434.359 590.31 433.773 591.873Z" fill="white"/>
<path d="M758.089 594.412C757.015 594.802 754.867 596.56 753.304 598.123C750.667 600.955 750.179 601.052 742.757 601.052C734.749 601.052 731.234 602.517 731.234 605.935C731.234 606.716 729.476 609.06 727.23 611.209C724.593 613.845 723.421 615.701 723.617 617.166C723.91 619.119 724.398 619.314 728.792 619.021C732.21 618.826 735.14 617.849 738.558 615.701C741.39 614.041 745.296 612.478 747.835 612.185C753.109 611.599 754.281 610.72 761.703 600.955L767.464 593.435L763.753 593.533C761.703 593.533 759.163 593.923 758.089 594.412Z" fill="white"/>
<path d="M541.781 595.877C541.781 596.658 541.195 597.341 540.511 597.341C539.73 597.341 538.656 598.416 538.07 599.783C536.8 602.517 536.41 616.091 537.581 617.263C537.972 617.556 540.999 614.92 544.32 611.404C551.351 603.787 552.621 600.076 549.398 596.658C546.956 594.119 541.781 593.533 541.781 595.877Z" fill="white"/>
<path d="M614.046 596.267C614.144 598.513 615.902 600.466 620.98 603.982C623.519 605.642 626.644 608.377 628.011 610.037C629.378 611.599 630.941 612.966 631.527 612.966C632.015 612.966 633.382 614.236 634.456 615.799C636.214 618.24 636.898 618.533 639.632 617.947C642.269 617.459 642.953 616.775 643.148 614.529C643.343 612.966 644.124 610.72 644.906 609.549C646.078 607.791 646.078 606.814 645.199 604.861C644.222 602.81 642.953 602.127 638.558 601.248C635.531 600.662 632.113 599.783 630.843 599.295C629.574 598.709 627.523 598.611 626.253 598.904C624.398 599.392 623.91 599.002 623.617 597.244C623.324 595.388 622.738 595.095 618.734 594.9C615.023 594.802 614.046 595.095 614.046 596.267Z" fill="white"/>
<path d="M603.792 623.318C605.355 627.127 604.867 630.935 602.523 633.67C601.742 634.646 601.546 635.427 602.132 635.427C602.718 635.427 603.402 636.697 603.792 638.357C604.574 641.97 605.16 641.97 608.48 638.552C610.628 636.404 611.117 634.842 611.117 631.131C611.117 625.467 609.945 623.22 606.234 621.267C602.23 619.217 602.132 619.314 603.792 623.318Z" fill="white"/>
<path d="M652.035 622.342C651.058 623.513 651.058 624.295 651.937 625.76C652.621 626.736 653.109 629.177 653.109 631.033V634.451L659.652 632.01C663.167 630.642 666.683 629.08 667.464 628.494C669.32 626.834 669.027 624.685 666.781 624.685C665.804 624.685 663.753 624.099 662.289 623.513C660.14 622.537 659.554 622.537 659.164 623.513C658.578 625.467 656.039 624.881 656.039 622.732C656.039 620.388 653.89 620.193 652.035 622.342Z" fill="white"/>
<path d="M551.937 625.466C549.886 626.736 547.445 632.595 548.421 633.767C549.007 634.549 548.91 637.674 548.128 642.459C547.152 648.513 547.152 650.076 548.128 650.076C549.984 650.076 555.453 643.435 555.453 641.287C555.453 640.213 556.722 638.162 558.382 636.795C561.019 634.353 561.117 634.06 559.554 632.888C558.675 632.205 557.113 631.521 556.234 631.521C554.867 631.521 554.476 630.74 554.476 628.103C554.476 624.685 553.89 624.099 551.937 625.466Z" fill="white"/>
<path d="M785.921 646.267C785.921 651.345 786.312 653.299 787.874 655.056L789.73 657.4L789.828 655.056C789.828 653.689 789.339 651.15 788.656 649.392C787.679 646.56 787.679 645.877 788.851 645.193C789.632 644.705 791.097 644.509 792.074 644.802C794.124 645.486 794.222 644.314 792.269 641.482C791.292 640.115 789.828 639.431 788.363 639.529C786.019 639.724 785.921 640.017 785.921 646.267Z" fill="white"/>
<path d="M453.402 640.896C449.691 641.677 440.414 646.658 439.242 648.513C437.289 651.541 439.535 652.713 443.636 650.759C445.589 649.881 448.226 649.099 449.593 649.099C451.253 649.099 452.328 648.416 452.621 647.244C452.914 646.17 454.769 644.607 456.917 643.826C458.968 642.947 460.726 641.873 460.726 641.287C460.726 640.31 457.21 640.115 453.402 640.896Z" fill="white"/>
<path d="M408.871 657.009C411.898 660.232 415.023 660.525 415.609 657.595C415.999 655.74 412.484 653.982 408.48 653.982H406.136L408.871 657.009Z" fill="white"/>
<path d="M557.406 665.017C554.671 667.166 552.523 670.974 552.523 673.709C552.523 676.736 553.597 677.224 555.453 674.978C557.21 672.83 558.871 673.22 560.14 675.955C560.726 677.322 561.605 678.396 562.093 678.396C563.07 678.396 565.218 671.756 565.218 668.631C565.218 664.724 560.531 662.478 557.406 665.017Z" fill="white"/>
<path d="M815.609 665.115C815.316 665.994 814.242 666.677 813.265 666.677C810.14 666.677 810.14 668.435 813.265 670.193C814.828 671.17 816.195 672.439 816.195 673.025C816.195 674.881 820.98 678.396 823.519 678.396C826.449 678.396 826.644 677.029 824.007 674.783C822.933 673.806 821.761 671.756 821.468 670.095C821.175 668.533 819.808 666.385 818.538 665.408C816.488 663.845 816.097 663.845 815.609 665.115Z" fill="white"/>
<path d="M671.468 667.166C669.515 668.533 667.66 670.486 667.269 671.56C666.976 672.634 665.902 673.513 664.925 673.513C663.949 673.513 662.581 674.099 661.898 674.881C661.312 675.662 659.847 676.443 658.675 676.638C657.308 676.834 656.429 677.713 656.234 679.08C656.038 680.349 655.453 681.326 654.867 681.326C654.281 681.326 654.476 682.107 655.257 682.986C656.136 683.963 657.015 686.697 657.308 689.041C657.699 691.97 658.773 694.216 660.726 696.365C662.386 698.025 663.851 700.662 664.046 702.224C664.437 706.228 666.195 706.424 669.32 702.908C670.785 701.248 672.933 699.881 674.203 699.881C676.058 699.881 676.742 698.709 679.378 690.799C681.038 685.916 682.406 680.545 682.406 678.982C682.406 675.564 677.62 664.724 676.156 664.724C675.57 664.724 673.421 665.799 671.468 667.166Z" fill="white"/>
<path d="M637.484 674.197C632.015 677.42 631.234 678.592 633.187 680.056C634.554 681.033 634.456 681.424 632.21 682.791C630.062 684.256 629.671 685.232 629.671 689.236C629.671 693.728 629.867 694.119 633.382 695.877L637.191 697.83L642.269 692.654C646.663 688.162 647.249 687.283 646.468 685.135C645.785 683.474 645.98 681.814 647.054 679.568C648.421 676.834 648.421 676.248 647.249 675.467C646.468 674.978 644.613 674.881 643.05 675.174C640.413 675.76 640.218 675.662 641.292 673.611C642.66 671.072 642.855 671.072 637.484 674.197Z" fill="white"/>
<path d="M826.449 684.451C826.839 685.72 827.23 686.697 827.328 686.697C832.699 688.845 832.992 689.041 831.136 691.482C829.769 693.338 829.085 693.631 828.011 692.752C826.839 691.775 826.644 691.873 827.23 693.24C827.523 694.119 828.109 696.56 828.5 698.611C829.476 704.275 830.55 705.74 833.773 705.74C836.019 705.74 836.703 705.252 836.703 703.884C836.703 702.517 837.484 701.834 839.437 701.638C842.464 701.345 843.343 698.22 841.585 693.631C840.804 691.384 840.316 691.091 839.144 692.068C837.972 693.045 837.386 692.654 835.628 689.724C834.457 687.674 831.82 685.232 829.671 684.158L825.765 682.205L826.449 684.451Z" fill="white"/>
<path d="M578.304 690.213C578.597 691.482 579.378 694.705 579.867 697.244C580.355 699.881 581.429 703.201 582.015 704.568C583.48 707.4 585.726 708.572 585.726 706.424C585.726 705.545 586.8 704.08 588.167 703.006C589.535 701.931 590.609 700.76 590.609 700.467C590.609 698.904 584.456 690.31 582.992 689.822C582.113 689.627 580.453 689.041 579.476 688.552C577.816 687.967 577.718 688.162 578.304 690.213Z" fill="white"/>
<path d="M622.445 690.213C619.417 692.556 619.222 695.388 621.761 699.197L623.519 702.029L624.105 699.685C625.081 695.584 625.96 688.162 625.472 688.162C625.277 688.162 623.91 689.041 622.445 690.213Z" fill="white"/>
<path d="M615.414 698.025C614.535 699.49 615.511 700.076 617.953 699.685C620.003 699.392 620.003 699.392 618.05 698.22C616.683 697.341 615.902 697.341 615.414 698.025Z" fill="white"/>
<path d="M726.351 704.763C726.351 705.252 725.57 705.74 724.691 705.74C723.714 705.838 721.761 707.498 720.296 709.549C718.734 711.795 716.292 713.845 714.242 714.627C712.093 715.408 710.628 716.677 710.238 718.142C709.847 719.802 709.066 720.388 707.113 720.388C705.648 720.388 703.499 721.365 702.23 722.537C700.96 723.709 699.984 724.099 699.984 723.513C699.984 722.83 699.593 722.342 699.007 722.342C696.956 722.342 698.128 725.955 700.472 727.029C703.89 728.592 706.331 728.494 707.796 726.736C708.48 725.955 709.749 725.271 710.726 725.271C711.703 725.271 714.925 722.439 718.05 718.924C724.398 711.697 727.621 709.646 732.796 709.646H736.41L732.113 706.717C727.523 703.592 726.351 703.201 726.351 704.763Z" fill="white"/>
<path d="M859.261 709.256C855.55 710.037 852.523 711.209 852.035 712.185C851.546 713.064 849.691 714.334 847.933 715.115C846.078 715.896 842.757 718.826 840.414 721.658C837.191 725.662 835.238 727.224 832.113 728.006C828.109 729.08 827.914 729.275 827.914 732.986C827.914 736.013 828.5 737.283 830.453 738.845C834.164 741.775 834.75 741.482 834.75 736.892C834.75 731.521 837.484 729.275 843.929 729.177C847.933 729.177 849.984 728.396 855.648 724.881C859.457 722.537 865.218 719.509 868.441 718.24C872.835 716.482 874.398 715.31 874.593 713.748C874.886 712.185 874.398 711.599 873.031 711.599C872.054 711.599 870.394 710.72 869.417 709.646C867.367 707.4 867.562 707.4 859.261 709.256Z" fill="white"/>
<path d="M566.097 718.435C564.73 720.291 563.558 723.123 563.46 724.685C563.167 729.861 558.773 732.302 555.843 729.08C553.988 726.931 551.546 726.638 551.546 728.396C551.546 731.424 552.816 733.67 554.671 734.549C558.089 736.111 557.992 737.966 554.574 737.966C552.523 737.966 551.253 737.381 550.863 736.306C550.179 734.549 545.687 730.252 544.515 730.154C543.636 730.154 541.488 743.533 542.171 744.705C542.562 745.291 543.929 745.291 545.98 744.705C547.64 744.216 551.839 743.826 555.16 743.826C558.48 743.826 562.289 743.435 563.656 742.849C565.902 741.97 566.195 741.384 566.195 736.795C566.195 730.447 566.976 727.224 568.539 727.224C569.222 727.224 570.296 725.564 571.078 723.513C571.859 721.56 572.64 719.607 572.835 719.119C573.031 718.728 572.347 718.435 571.273 718.435C570.101 718.435 569.124 717.654 568.929 716.775C568.636 715.408 568.05 715.799 566.097 718.435Z" fill="white"/>
<path d="M576.449 725.076C573.128 725.759 572.542 727.029 574.495 729.177C577.23 732.205 579.867 731.716 579.867 728.299C579.867 724.978 579.281 724.49 576.449 725.076Z" fill="white"/>
<path d="M646.566 726.443C644.124 729.568 644.124 736.013 646.664 736.013C647.249 736.013 649.3 738.26 651.156 740.896C653.89 744.705 655.062 745.681 657.015 745.486C659.164 745.291 659.554 744.705 660.042 740.408C660.726 734.842 660.238 733.377 656.917 731.717C655.648 731.131 653.988 729.373 653.304 727.908C651.937 725.076 648.226 724.295 646.566 726.443Z" fill="white"/>
<path d="M633.089 736.013C629.964 737.283 622.835 744.314 622.835 746.072C622.835 748.123 623.91 748.123 628.499 746.17C633.285 744.216 637.484 740.115 637.484 737.283C637.484 734.939 636.41 734.646 633.089 736.013Z" fill="white"/>
<path d="M599.691 743.631C598.128 744.607 599.203 748.709 600.96 748.709C601.644 748.709 603.011 749.49 603.988 750.564C604.964 751.541 606.722 752.713 607.992 753.006C609.847 753.591 610.14 753.396 610.14 750.857C610.14 748.709 609.261 747.537 606.136 745.486C601.839 742.654 601.449 742.556 599.691 743.631Z" fill="white"/>
<path d="M927.914 744.607C927.328 744.998 925.472 747.341 923.714 749.978C921.078 753.787 920.882 754.666 922.054 755.154C922.933 755.447 923.617 756.326 923.617 757.107C923.617 757.888 924.496 758.474 925.57 758.474C926.937 758.474 927.523 759.158 927.523 760.818C927.523 762.088 928.207 763.65 928.988 764.334C930.746 765.799 931.039 765.115 931.917 756.716C932.503 751.15 932.406 750.662 930.55 750.662C927.914 750.662 926.839 748.709 928.89 747.537C929.769 747.049 930.453 745.974 930.453 745.291C930.453 743.728 929.574 743.435 927.914 744.607Z" fill="white"/>
<path d="M767.367 747.634C767.367 748.123 768.05 749.002 768.831 749.685C770.589 751.15 770.785 753.494 769.124 753.689C768.441 753.787 764.828 753.787 761.117 753.591C754.867 753.396 754.476 753.494 755.16 755.154C755.55 756.228 756.429 758.377 757.015 759.939C759.261 766.091 761.117 767.947 764.339 767.459C767.464 767.068 768.148 765.506 766.292 763.65C765.706 763.064 765.414 761.404 765.804 760.134C766.292 758.084 767.074 757.693 772.249 757.107C775.96 756.716 778.109 755.935 778.109 755.252C778.109 753.396 770.98 746.756 769.027 746.756C768.148 746.756 767.367 747.146 767.367 747.634Z" fill="white"/>
<path d="M851.839 752.517C851.546 753.494 851.742 755.545 852.328 756.912C853.109 759.06 853.792 759.549 855.843 759.256C859.359 758.865 860.531 756.716 859.261 753.299C858.48 751.248 857.601 750.662 855.355 750.662C853.402 750.662 852.23 751.248 851.839 752.517Z" fill="white"/>
<path d="M658.675 771.267C657.308 772.049 657.113 772.634 658.089 773.709C658.675 774.49 659.945 775.076 660.921 775.076C662.093 775.076 662.777 776.15 663.265 778.689C664.437 786.111 664.242 786.795 660.433 786.795C655.941 786.795 656.136 788.064 661.019 790.506C664.73 792.361 665.121 792.361 668.05 790.896C669.808 789.92 671.273 789.138 671.468 789.041C671.664 789.041 671.468 786.795 671.078 784.256C670.589 780.545 669.515 778.591 665.999 774.881C661.214 769.802 661.214 769.802 658.675 771.267Z" fill="white"/>
<path d="M874.3 771.365C873.91 772.342 872.835 773.123 871.859 773.123C869.808 773.123 868.539 776.834 870.003 778.592C870.687 779.373 871.761 779.568 873.128 779.08C874.886 778.396 875.472 778.787 876.937 782.107C878.597 785.818 878.597 785.818 881.82 784.549C883.773 783.767 885.14 782.4 885.335 781.228C885.628 779.568 885.238 779.373 882.503 779.763C879.671 780.154 879.574 780.056 880.55 778.201C882.113 775.271 881.917 774.295 879.476 773.513C878.206 773.123 876.742 772.146 876.058 771.267C874.984 769.802 874.886 769.9 874.3 771.365Z" fill="white"/>
<path d="M653.304 775.564C653.402 777.127 654.183 778.494 654.867 778.787C656.624 779.373 656.331 775.564 654.476 774.002C653.109 772.927 653.011 773.123 653.304 775.564Z" fill="white"/>
<path d="M968.539 776.052C967.171 777.029 964.535 778.201 962.679 778.494C960.824 778.884 955.746 781.033 951.449 783.377C947.152 785.72 942.562 787.869 941.195 788.259C937.679 789.334 933.48 792.654 931.331 796.267C930.16 798.025 928.695 799.49 928.011 799.49C925.863 799.49 922.64 804.373 922.054 808.474C921.468 812.088 917.757 816.091 915.023 816.091C911.605 816.091 914.73 824.392 918.539 825.369C920.296 825.759 920.687 826.541 920.687 830.056C920.687 832.4 919.906 837.966 918.831 842.556C917.074 850.759 917.074 850.955 918.929 854.47L920.785 858.084L924.398 856.619C928.597 854.861 933.578 849.685 936.898 843.435C940.023 837.478 941.878 835.33 946.956 832.205C950.179 830.252 951.449 829.861 951.937 830.74C952.425 831.424 953.402 831.716 954.183 831.424C955.941 830.74 956.917 825.955 955.648 823.904C954.867 822.732 955.257 821.365 957.21 818.533C958.675 816.384 960.335 814.431 960.824 814.041C961.312 813.748 962.874 810.33 964.144 806.521C965.414 802.713 967.269 798.318 968.246 796.951C969.222 795.486 969.808 793.24 969.71 792.068C969.515 790.896 970.101 788.552 970.882 786.892C972.542 783.865 973.031 775.564 971.664 774.685C971.273 774.49 969.808 775.076 968.539 776.052Z" fill="white"/>
<path d="M698.91 784.939C697.054 787.478 696.956 788.162 698.128 789.334C699.886 791.091 707.796 792.068 709.749 790.799C710.921 790.017 710.921 789.529 709.359 787.869C708.382 786.795 706.039 784.939 704.281 783.963L701.058 782.009L698.91 784.939Z" fill="white"/>
<path d="M388.265 786.013C387.386 786.697 386.214 789.041 385.628 791.091C384.847 794.216 384.847 795.291 386.019 796.56C387.582 798.318 387.972 804.861 386.605 805.74C385.824 806.228 387.582 816.677 388.558 817.459C388.753 817.654 391.39 818.728 394.515 819.998C401.742 822.927 403.109 822.341 403.109 816.189C403.109 810.134 403.792 808.279 406.136 808.279C407.113 808.279 407.992 807.888 407.992 807.4C407.992 806.912 408.285 805.838 408.578 804.959C408.968 803.982 408.285 803.103 406.624 802.322C405.257 801.638 403.89 800.369 403.597 799.295C403.207 798.318 402.23 797.537 401.351 797.537C398.421 797.439 395.199 793.826 394.613 790.017C393.832 784.939 391.488 783.572 388.265 786.013Z" fill="white"/>
<path d="M895.589 806.521C892.464 807.986 892.757 810.232 895.98 810.232C899.593 810.232 905.16 808.084 904.769 806.814C904.281 805.447 898.226 805.252 895.589 806.521Z" fill="white"/>
<path d="M861.605 854.959C859.75 856.228 857.015 862.869 857.601 864.431C857.894 865.408 857.406 867.068 856.332 868.435C855.355 869.705 854.183 873.22 853.792 876.248C853.402 879.373 852.718 882.498 852.328 883.377C851.937 884.256 851.058 886.795 850.472 889.041C849.691 891.873 848.226 894.021 845.98 895.779C842.367 898.513 842.464 899.881 846.468 904.47C848.812 907.107 849.789 916.677 848.031 919.216C846.468 921.365 847.542 924.49 849.886 924.49C850.667 924.49 851.351 925.174 851.351 925.955C851.351 927.713 851.839 927.713 854.281 926.443C855.453 925.759 855.843 924.783 855.55 923.416C854.867 921.072 858.382 917.752 861.41 917.654C863.753 917.654 863.558 914.236 861.019 912.478C859.359 911.209 859.164 910.72 860.238 909.06C861.117 907.595 861.117 906.814 860.238 905.838C859.652 905.056 857.992 902.81 856.625 900.662C854.476 897.341 854.281 896.56 855.257 893.631C855.843 891.775 856.82 890.115 857.308 889.822C857.796 889.431 858.187 888.162 858.187 886.795C858.187 885.427 858.871 883.377 859.652 882.107C860.433 880.935 861.019 878.884 861.019 877.517C860.921 876.248 861.41 872.049 862.093 868.338C863.167 862.478 863.46 855.252 862.777 854.47C862.582 854.373 862.093 854.568 861.605 854.959Z" fill="white"/>
<path d="M476.156 888.65C474.984 890.896 474.691 893.142 475.081 896.658C475.374 899.295 475.667 903.982 475.765 906.912L475.863 912.283L472.249 912.576C466.097 913.064 465.023 911.892 464.339 903.884C463.46 893.631 462.093 893.533 460.824 903.689C460.238 908.377 459.456 913.552 459.164 915.213C458.871 916.775 458.675 919.412 458.675 921.072C458.675 922.634 457.992 926.15 457.113 928.689C456.331 931.326 455.843 935.037 456.039 936.99C456.331 939.529 456.039 940.896 454.964 941.677C453.597 942.752 453.597 943.142 454.867 945.584C455.648 947.049 457.015 948.416 457.894 948.611C458.773 948.904 459.945 950.076 460.531 951.345C461.507 953.494 461.898 953.494 472.64 953.201C478.792 953.103 484.945 952.42 486.507 951.834C487.972 951.345 489.73 951.15 490.316 951.541C492.757 953.103 500.277 954.47 503.695 954.08C507.015 953.591 507.503 953.884 509.164 956.521L510.921 959.549L519.124 959.06C526.351 958.67 527.621 958.865 530.16 960.72C532.796 962.576 533.871 962.674 539.632 962.088C543.246 961.697 546.956 961.013 547.933 960.427C549.3 959.744 550.081 959.841 550.863 960.916C553.109 963.552 556.917 965.506 559.945 965.506C562.386 965.506 563.753 966.287 565.902 968.924C568.539 972.049 569.32 972.439 576.449 973.318C580.746 973.904 584.945 974.49 585.824 974.783C587.679 975.369 589.828 979.959 589.828 983.279C589.73 988.259 588.363 995.779 587.581 995.779C587.093 995.779 586.703 996.658 586.703 997.732C586.703 1000.27 589.046 1000.27 593.831 997.732C596.956 996.072 598.324 995.877 602.816 996.56C605.746 997.049 608.578 997.049 609.261 996.658C609.945 996.267 611.214 996.463 612.191 997.049C613.46 997.83 614.535 997.83 616.195 996.951C617.464 996.365 621.761 995.388 625.765 994.802C634.359 993.728 640.023 992.361 646.761 989.822C653.988 987.088 659.749 986.599 668.831 987.869C675.081 988.845 677.718 988.845 679.964 987.966C681.624 987.283 687.777 986.795 694.613 986.892C704.964 986.892 707.113 986.599 712.484 984.451C720.003 981.424 725.57 981.033 728.109 983.377C729.085 984.256 731.527 985.037 733.48 985.037C735.433 985.037 737.093 985.427 737.093 986.013C737.093 987.478 740.609 987.185 746.175 985.33C750.081 983.963 751.644 982.693 753.89 979.275C755.355 976.834 756.624 973.904 756.624 972.732C756.624 971.56 757.308 970.095 758.089 969.412C758.968 968.631 759.359 967.361 758.968 965.994C758.578 964.334 758.968 963.455 760.433 962.576C762.874 961.306 762.288 959.939 758.968 958.67C755.648 957.4 755.745 951.736 759.066 947.341C761.703 943.826 762.386 939.822 760.14 940.701C759.456 940.994 758.382 942.263 757.796 943.533C757.21 944.9 755.55 946.17 754.183 946.56C752.816 946.853 751.742 947.83 751.742 948.709C751.742 950.857 744.222 957.693 741.878 957.693C740.706 957.693 739.632 956.912 739.437 955.935C738.753 953.689 730.16 953.689 727.523 956.033C726.546 956.912 725.277 957.693 724.691 957.693C724.105 957.693 723.128 958.377 722.445 959.158C721.761 959.939 720.492 960.623 719.515 960.623C716.585 960.623 709.164 965.408 707.894 968.045C706.917 970.193 706.331 970.486 703.89 969.998C702.23 969.705 699.789 968.728 698.421 967.849C696.078 966.287 695.98 965.799 696.468 960.427C696.761 957.302 697.347 952.127 697.64 949.002C697.933 945.779 698.812 942.654 699.593 941.97C702.425 939.627 701.058 938.455 694.515 937.869C687.484 937.185 681.136 938.259 674.984 941.287C672.738 942.263 669.613 943.24 667.953 943.24C664.437 943.338 659.945 940.701 659.945 938.65C659.945 937.478 657.992 937.185 649.007 937.088C642.953 936.99 636.898 936.697 635.531 936.306C634.261 935.916 631.039 936.111 628.499 936.599C624.398 937.478 623.617 937.381 622.445 935.72C621.566 934.549 621.273 932.595 621.566 930.642C622.054 927.908 621.859 927.42 620.101 927.42C619.027 927.42 617.953 926.834 617.757 926.248C617.464 925.369 616.585 925.466 614.73 926.736C612.386 928.201 611.8 928.299 609.359 927.029C607.406 926.052 605.257 925.857 600.667 926.541C596.859 927.029 593.636 927.029 592.074 926.443C590.609 925.857 587.191 925.466 584.261 925.466C580.257 925.466 578.402 925.955 576.253 927.713C572.152 931.131 567.66 932.4 558.187 932.791C553.499 932.986 548.812 933.572 547.933 934.06C546.956 934.549 543.929 934.744 541.195 934.451L536.117 934.06L535.14 926.248C534.652 922.049 533.968 918.24 533.675 918.045C533.382 917.752 531.917 918.142 530.355 918.924C527.914 920.193 527.035 920.193 521.761 918.24C517.953 916.873 515.804 915.603 515.609 914.431C515.316 912.771 515.706 912.674 520.492 913.162C525.277 913.748 525.765 913.65 527.425 911.306C529.085 909.06 529.085 908.377 527.914 904.666C526.937 901.638 525.765 900.174 523.324 898.904C520.296 897.439 519.808 897.439 517.757 898.806C516.195 899.783 515.414 901.248 515.414 903.006C515.414 904.568 514.73 905.935 513.949 906.326C513.167 906.619 512.484 907.498 512.484 908.279C512.484 909.06 511.703 909.939 510.726 910.232C507.406 911.306 500.57 911.111 499.886 909.939C499.496 909.353 498.421 909.06 497.445 909.451C496.566 909.841 493.148 909.549 489.925 908.865C485.335 907.888 484.066 907.205 483.773 905.545C481.82 895.193 481.429 892.459 481.527 890.408C481.624 889.041 480.941 887.576 479.769 886.795C477.914 885.623 477.621 885.72 476.156 888.65Z" fill="white"/>
<path d="M832.113 924.49C826.156 926.248 821.078 930.642 821.078 933.963C821.078 935.232 821.566 936.209 822.054 936.209C825.081 936.209 838.656 927.029 838.656 924.978C838.656 922.83 837.484 922.732 832.113 924.49Z" fill="white"/>
<circle id="265" cx="484" cy="556" fill="#5CE50D"/>
<circle id="268" cx="627" cy="940" fill="#E52A0D"/>
<circle id="267" cx="276" cy="509" fill="#E52A0D"/>
<circle id="266" cx="381" cy="170" fill="#E52A0D"/>
</svg>
