<svg width="1000" height="1000" viewBox="0 0 1000 1000" fill="none" xmlns="http://www.w3.org/2000/svg">
<path d="M328.102 145.368L307.292 144.792C261.164 143.546 227.792 143.162 226.257 143.737C225.011 144.217 224.531 145.464 224.531 148.053C224.531 151.985 224.627 152.081 230.956 153.327C232.97 153.711 235.847 155.821 239.3 159.369C244.382 164.547 244.574 164.739 246.396 163.109C247.835 161.766 249.177 161.574 252.246 162.054C257.52 162.917 259.918 164.931 261.836 170.205C263.082 173.466 264.521 175.096 268.357 177.685C272.672 180.371 273.535 181.521 274.782 185.645C277.179 194.084 279.673 196.673 288.496 200.03L296.263 203.003L296.935 207.126C297.318 209.715 298.277 211.921 299.62 212.976C303.456 216.045 307.292 221.895 308.442 226.498C309.593 230.909 309.689 231.005 314.292 231.964C316.977 232.443 320.334 233.882 321.772 235.033C325.704 238.197 327.143 237.91 327.143 233.882C327.143 230.813 327.43 230.525 329.924 230.525C333.76 230.525 335.582 232.923 333.472 235.224C331.938 236.855 332.129 237.238 337.5 242.8C342.295 247.595 343.925 248.746 348.24 249.609C351.021 250.185 354.378 251.527 355.624 252.582C357.446 254.021 359.556 254.5 363.584 254.5H369.05L370.201 258.432C371.16 261.692 372.023 262.555 375.763 264.186C382.955 267.255 385.353 269.556 394.08 281.256L402.327 292.38L402.423 298.805C402.423 304.943 402.519 305.23 404.82 305.518C406.738 305.71 407.122 306.285 406.93 308.203C406.738 309.546 406.355 313.094 406.067 316.163L405.587 321.629L409.04 323.067C412.876 324.698 413.068 325.273 411.054 327.958C409.04 330.643 409.232 330.931 414.218 331.602C416.712 331.986 421.123 332.753 424 333.233C426.877 333.712 431.672 334.479 434.549 334.863C441.453 335.822 442.221 336.397 442.221 340.809V344.453L448.838 345.124C453.441 345.604 456.03 346.371 457.085 347.521C457.948 348.48 459.291 349.056 459.962 348.768C460.921 348.48 461.496 349.439 461.976 352.029C462.263 354.043 463.031 356.248 463.606 356.92C464.757 358.358 464.757 358.262 460.441 360.468L457.181 362.194L459.962 364.496L462.839 366.797L451.715 376.579L454.4 377.825C456.318 378.688 456.605 379.072 455.263 379.072C453.92 379.168 453.633 379.647 454.016 381.278C454.496 383.004 453.92 383.963 451.331 385.689C447.303 388.278 447.112 389.429 450.468 390.292L452.865 390.868L450.852 393.073C449.701 394.32 448.55 397.005 448.262 399.019C447.783 402.471 448.07 402.951 451.235 405.061L454.592 407.458L449.797 412.445L452.482 414.459C455.071 416.377 455.071 416.472 453.057 416.568C450.564 416.568 447.495 420.692 448.358 422.802C448.646 423.569 449.797 424.24 450.852 424.24C452.482 424.24 452.77 424.624 452.29 426.35C451.906 427.597 451.331 428.843 450.947 429.227C450.66 429.611 383.914 429.515 302.784 429.035C163.828 428.172 155.101 428.268 153.95 429.802C150.977 433.734 130.359 469.121 101.11 520.139C83.7523 550.443 63.1342 585.35 55.4623 597.721C46.2561 612.297 41.3652 621.024 41.3652 622.654C41.3652 624.572 45.7766 631.189 57.1885 646.341C65.8193 657.849 73.0117 668.014 73.0117 668.781C73.0117 669.548 71.765 672.329 70.2307 674.823C68.025 678.563 66.2988 680.097 61.408 682.495L55.2705 685.563L55.5582 698.893L55.9418 712.127L53.0648 715.196C45.1053 723.443 43.5709 729.005 47.1191 735.91C48.174 738.02 49.0371 740.705 49.0371 741.952C49.0371 743.198 49.9002 747.802 51.051 752.117C53.4484 761.707 52.9689 767.173 49.5166 770.434C47.0232 772.831 45.2012 777.722 45.2012 782.229C45.2012 784.147 44.1463 785.969 41.3652 788.367C39.2555 790.285 37.5293 792.586 37.5293 793.545C37.5293 794.984 36.9539 795.175 34.6523 794.696C33.118 794.408 31.7754 794.504 31.7754 794.888C31.7754 796.997 39.1596 805.149 43.0914 807.45C49.4207 811.095 75.1215 830.466 82.6016 837.275C89.3145 843.316 124.509 871.894 130.359 876.018C135.633 879.758 143.497 884.457 152.128 888.964C156.347 891.266 163.348 896.061 167.568 899.705C176.39 907.185 194.227 917.35 208.516 923.008C213.695 925.118 220.983 928.282 224.723 930.2C228.463 932.118 240.738 936.434 251.958 939.79C267.877 944.585 275.933 946.407 288.879 948.325C308.059 951.106 315.731 951.202 338.171 949.284C351.98 948.037 376.051 947.462 406.546 947.75C421.986 947.846 449.701 956.189 474.826 968.272C482.978 972.204 493.43 976.999 497.938 978.821C505.322 981.89 532.078 991 533.612 991C534.859 991 534.283 987.835 532.749 986.109C531.694 984.958 531.214 982.273 531.119 976.999C530.927 967.505 532.461 964.532 540.996 958.011C544.448 955.422 547.325 953.12 547.421 952.737C547.517 952.449 548.093 950.435 548.572 948.229C549.531 944.585 550.106 944.01 559.6 938.927C569.478 933.557 573.122 930.392 577.246 923.679C578.972 920.898 580.027 920.227 583.383 919.747C585.877 919.364 587.986 918.405 588.945 917.158C589.808 916.007 592.206 914.761 594.22 914.281C597.672 913.514 598.631 913.802 605.536 917.734C614.646 922.816 615.797 922.433 615.797 914.377C615.893 909.87 616.564 907.664 620.4 900.376C624.715 892.225 625.291 891.553 633.538 885.799C642.073 879.758 642.169 879.662 647.443 880.237C651.471 880.621 653.869 880.333 657.992 878.703C660.869 877.552 663.65 876.305 664.034 875.922C664.801 875.251 662.116 858.277 660.869 855.879C660.486 855.112 658.28 853.769 655.978 852.81C650.896 850.892 650.128 848.591 653.677 845.81C656.074 843.892 656.17 843.7 654.732 840.919C653.101 837.946 653.485 833.439 655.307 831.137C656.937 829.123 662.595 829.603 663.267 831.713C663.554 832.768 664.513 834.11 665.28 834.781C666.527 835.74 667.582 835.165 671.802 830.945L676.884 825.863L681.967 827.397C687.529 829.028 687.625 829.028 693.954 823.849L696.831 821.452L701.434 823.753C703.927 825.096 706.421 825.863 706.9 825.575C707.476 825.192 707.859 823.37 707.859 821.452C707.859 815.698 708.722 813.971 712.271 812.725C714.38 811.958 716.49 810.136 717.929 807.834C719.175 805.82 722.34 801.984 724.833 799.395C727.327 796.71 730.587 793.257 731.93 791.627C734.423 788.75 734.615 788.654 743.15 788.654C750.534 788.654 752.069 788.367 752.74 786.928C753.315 786.065 753.891 780.119 754.082 773.79C754.37 767.077 755.137 761.131 755.809 759.597C757.055 757.104 756.959 756.72 753.123 752.884C749.959 749.624 749.096 748.089 749.096 745.404C749.096 742.815 747.753 740.226 742.862 733.609C737.492 726.416 736.629 724.594 736.629 721.142C736.629 717.498 737.012 716.826 740.465 714.237C744.876 711.073 749.863 701.962 750.726 695.729C751.205 692.468 750.918 691.317 749.192 689.495C747.37 687.481 747.082 686.522 747.657 682.591C748.041 680.001 749.383 676.357 750.63 674.343C752.644 671.275 754.274 670.316 767.508 665.137C775.564 661.972 784.77 658.52 787.935 657.369C792.634 655.643 796.565 652.67 809.032 641.738C824.951 627.833 838.569 618.147 855.255 608.941C863.598 604.338 866.188 602.228 873.284 594.556C880.668 586.5 882.011 585.446 885.751 584.966C889.299 584.391 890.258 583.719 892.176 580.651C893.423 578.637 904.355 568.088 916.438 557.156C931.207 543.922 939.07 536.154 940.317 533.756C941.564 531.071 943.578 529.249 947.701 526.948C950.77 525.221 953.551 523.495 953.839 522.92C954.222 522.44 956.524 522.057 959.209 522.057H963.908V518.317C963.908 515.536 964.484 514.193 966.114 513.138L968.224 511.604L965.826 509.686C964.484 508.535 960.168 506.042 956.236 503.932C952.209 501.822 947.797 498.849 946.359 497.219C944.057 494.63 923.631 483.697 921.042 483.697C920.466 483.697 917.11 481.492 913.466 478.806C909.821 476.121 905.986 473.436 904.931 472.957C903.876 472.381 899.656 468.737 895.533 464.901C887.285 457.133 880.764 454.161 876.161 455.887C873.38 456.942 873.38 456.942 874.819 460.106C875.49 461.545 878.846 464.23 882.97 466.531C887.573 469.217 890.354 471.422 891.025 473.148C891.793 474.971 893.231 476.121 895.82 476.888C899.752 478.039 904.068 482.834 902.917 484.752C902.245 485.807 895.341 485.423 890.162 483.985C888.052 483.41 887.957 483.601 888.532 486.191C890.45 494.917 890.45 494.822 886.422 500.671C884.217 503.74 881.915 508.247 881.34 510.741C880.285 514.481 879.518 515.44 876.545 516.782C874.531 517.741 872.517 518.125 871.942 517.837C870.407 516.878 870.695 513.809 872.421 512.467C873.284 511.7 873.764 510.069 873.572 508.247C873.284 505.754 872.421 504.891 867.914 502.397C865.037 500.863 859.091 497.603 854.776 495.301C849.597 492.424 846.72 490.218 845.953 488.588C844.994 486.287 842.788 484.464 836.459 480.916C834.733 479.957 831.281 479.574 825.143 479.574C816.32 479.765 816.225 479.67 812.293 476.409C808.457 473.244 808.169 473.148 799.442 473.148C793.305 473.148 788.606 472.573 784.386 471.23C778.249 469.312 766.166 469.025 762.234 470.751C760.412 471.518 752.356 470.559 749.959 469.217C748.808 468.641 747.753 469.121 746.219 470.751C744.588 472.477 742.958 473.148 740.177 473.148H736.437L737.012 464.23C737.3 459.435 738.067 445.434 738.547 433.351C739.602 410.335 741.711 371.784 745.739 303.888C750.726 219.977 752.069 167.616 751.301 85.1434L750.726 10.2467L743.534 9.57544C739.602 9.28772 644.47 9 532.173 9H328.102V145.368Z" fill="white"/>
<circle id="277" cx="403" cy="805" fill="#5CE50D"/>
<circle id="280" cx="485" cy="611" fill="#E52A0D"/>
<circle id="1620" cx="192" cy="745" fill="#E52A0D"/>
<circle id="1621" cx="330" cy="944" fill="#E52A0D"/>
</svg>
