<svg width="1000" height="1000" viewBox="0 0 1000 1000" fill="none" xmlns="http://www.w3.org/2000/svg">
<path d="M340.125 0.877742C339.051 1.56134 340.809 4.00274 348.133 11.8152C353.406 17.284 358.777 23.7293 360.145 26.1707C362.488 30.077 362.586 31.0535 361.902 35.4481C361.024 40.3309 361.024 40.3309 355.652 42.0887C352.723 43.0652 349.11 44.1395 347.645 44.4324C343.836 45.2137 340.613 49.1199 338.66 55.3699C336.512 62.1082 333.68 65.0379 328.504 65.9168C326.258 66.3074 322.449 68.1629 319.422 70.409C316.59 72.4598 313.27 74.2176 312 74.2176C310.242 74.2176 308.875 75.4871 306.531 79.1981C304.578 82.4207 300.477 86.5223 294.813 90.9168L286.024 97.6551H270.203L265.613 103.417C262.098 107.714 260.926 109.96 260.926 112.401C260.926 116.6 250.867 132.811 248.328 132.811C246.18 132.811 243.348 135.741 243.348 137.889C243.348 138.768 244.324 141.893 245.399 144.921C247.156 149.413 247.938 150.389 249.793 150.389C251.551 150.389 252.137 151.073 252.723 153.71C253.113 156.249 253.992 157.323 256.043 158.104C258.387 158.886 258.973 159.764 259.461 163.475C260.047 167.479 259.852 168.261 257.117 171.581C255.457 173.632 254.09 176.171 254.09 177.245C254.09 178.417 257.02 182.225 261.414 186.522L268.641 193.749L270.106 190.331C272.742 184.081 274.012 183.495 284.754 184.276C293.934 184.862 294.422 184.96 299.11 188.768C301.942 190.917 303.797 193.163 303.504 193.944C303.211 194.628 302.527 196.874 302.039 198.925C301.453 200.975 299.5 204.198 297.645 205.956C295.106 208.397 294.031 210.448 293.543 213.671L292.86 217.968L288.953 217.479C285.731 216.991 284.461 217.382 282.117 219.335C280.555 220.604 278.504 221.679 277.527 221.679C276.551 221.679 273.914 223.241 271.668 225.096C269.422 226.952 266.981 228.514 266.199 228.514C261.902 228.514 255.75 231.932 250.867 237.011L245.594 242.577L240.613 240.429C237.488 239.061 233.68 238.28 230.262 238.28C227.332 238.28 223.719 237.792 222.254 237.304C218.934 236.034 217.371 237.792 219.422 240.819C220.594 242.675 220.496 242.968 216.395 244.921C213.953 246.093 210.731 247.069 209.168 247.069C207.606 247.069 206.043 247.557 205.652 248.143C205.36 248.729 204.09 248.925 202.918 248.632C201.844 248.339 198.524 248.339 195.692 248.729C189.149 249.413 183.777 253.905 183.777 258.495C183.777 260.643 183.192 261.718 181.336 262.499C179.285 263.475 178.895 264.257 178.895 267.87C178.895 271.386 179.481 272.655 182.313 275.389C184.168 277.245 185.731 279.198 185.731 279.686C185.731 280.272 186.61 281.835 187.586 283.104C188.856 284.764 189.246 286.132 188.66 287.499C187.293 291.21 186.512 303.514 187.586 304.198C188.172 304.491 188.66 305.663 188.66 306.737C188.66 307.714 189.344 308.593 190.125 308.593C192.274 308.593 193.934 312.304 192.567 313.964C191.785 314.94 191.785 315.819 192.469 317.284C193.934 319.921 194.031 319.823 189.637 321.19C186.512 322.167 185.438 323.046 183.875 326.561C182.215 330.468 181.727 330.858 177.527 331.444C173.328 332.128 172.645 332.616 169.715 337.206C167.957 340.038 165.516 344.139 164.442 346.288C163.074 348.925 161.414 350.682 159.559 351.366C157.117 352.147 156.727 352.733 157.117 354.882C157.899 358.886 245.594 455.077 248.524 455.077C249.11 455.077 252.039 454.589 255.067 453.905C259.754 452.929 261.219 453.026 264.637 454.393C267.371 455.468 270.106 455.761 273.524 455.37C276.16 455.077 280.457 455.37 283.094 455.956C287.684 457.128 287.781 457.128 289.93 454.393C291.688 452.245 292.371 451.952 293.348 452.929C295.008 454.589 301.551 454.393 304.676 452.44C306.141 451.561 308.68 449.511 310.34 448.046C312.977 445.604 314.051 445.214 318.152 445.507C322.254 445.8 322.938 446.093 323.231 447.948C323.621 450.585 323.524 450.487 326.942 449.218C329.188 448.339 329.969 448.534 331.922 450.292C333.094 451.561 334.168 453.417 334.168 454.589C334.168 457.323 340.516 463.378 345.594 465.331C351.063 467.479 352.625 471.093 350.379 476.561C349.5 478.71 348.817 482.421 348.817 484.764C348.817 487.108 348.231 490.526 347.449 492.284C346.668 494.139 345.789 501.171 345.399 508.3C344.813 519.237 344.422 521.483 342.469 524.511C341.199 526.464 339.539 529.589 338.758 531.444C337.684 533.983 336.512 535.057 333.485 535.936C328.699 537.401 327.82 538.475 327.039 543.261C326.453 546.874 326.649 547.069 329.969 548.436C333.192 549.804 333.582 549.804 335.633 547.85C337.781 545.8 337.977 545.8 340.516 547.46C342.078 548.534 346.375 549.511 351.16 549.999C366.785 551.659 368.445 551.952 369.031 553.319C369.324 554.1 370.887 554.686 372.938 554.686C375.477 554.686 378.699 556.151 385.047 560.253L393.641 565.721L391.199 568.651C389.246 570.995 385.926 577.245 385.926 578.71C385.926 578.905 386.61 579.1 387.391 579.1C388.563 579.1 388.66 579.491 387.879 580.956C384.754 586.815 388.27 594.823 394.715 596.483C398.035 597.264 398.133 597.46 398.426 602.44C398.719 606.737 399.305 608.202 401.551 610.546C403.113 612.108 404.969 615.136 405.555 617.284C406.531 620.507 407.313 621.288 410.242 622.069C416.492 623.827 416.883 624.608 412.586 626.854C408.289 629.003 406.434 632.518 406.434 638.378C406.434 641.112 405.848 641.991 403.406 643.358C396.375 647.167 394.715 649.315 394.715 654.1C394.715 658.202 394.324 658.983 391.395 661.327C389.539 662.889 387.391 664.061 386.61 664.061C385.926 664.061 384.266 665.136 382.996 666.503C381.238 668.358 379.676 668.944 376.551 668.944C371.863 668.944 371.277 669.823 371.277 676.268C371.277 679.393 371.961 681.249 373.719 683.397C375.867 685.936 376.063 686.62 375.086 689.354C374.5 691.112 374.207 693.651 374.5 695.214C375.379 699.413 373.426 705.956 370.203 710.057C368.543 712.108 366.981 715.429 366.688 717.479C366.395 719.53 365.32 722.557 364.246 724.315C363.074 726.268 362.488 729.003 362.586 731.639C362.684 734.764 361.805 737.792 359.168 743.163C356.824 747.948 355.652 751.757 355.652 754.393C355.652 756.542 354.481 766.307 353.016 776.073L350.379 793.847L353.016 797.557C354.481 799.706 355.652 802.538 355.652 803.905C355.652 805.272 356.336 806.64 357.02 806.932C360.438 808.3 365.418 824.315 365.418 833.983V839.354L372.547 844.921C376.942 848.534 380.555 850.585 382.117 850.585C386.61 850.585 388.074 853.515 389.149 864.354C389.93 872.948 389.832 874.804 388.465 877.636C387.098 880.468 387 881.932 387.879 886.718C388.758 891.698 388.66 892.772 387 895.604C385.926 897.46 384.852 901.366 384.461 904.393L383.777 909.862L391.688 910.35C396.082 910.643 399.891 911.132 400.184 911.425C400.574 911.815 399.695 914.354 398.328 917.186L395.692 922.362L399.11 925.682C402.235 928.807 402.625 929.003 404.871 927.733C408.973 925.585 414.539 928.71 419.324 935.839C421.473 939.061 424.11 941.893 425.086 942.089C426.16 942.382 426.942 943.163 426.942 943.944C426.942 945.897 432.801 952.147 434.656 952.147C435.535 952.147 436.805 952.636 437.488 953.319C438.172 954.003 440.125 954.979 441.785 955.468C444.129 956.249 445.106 957.225 445.301 958.983C445.496 960.35 447.352 963.182 449.305 965.331C451.356 967.479 453.992 970.604 455.164 972.362C456.922 974.901 458.875 975.975 467.762 978.807C473.524 980.761 481.238 982.518 484.949 982.811C494.617 983.593 500.086 986.522 502.82 992.382C505.36 997.753 508.973 999.999 514.832 999.999C520.399 999.999 525.281 997.655 527.332 994.042C531.336 986.62 530.555 986.913 544.129 988.573C558.094 990.233 559.949 989.843 561.609 984.374C563.172 979.003 562.879 975.682 560.34 970.409C558.777 967.284 558.387 965.526 559.168 965.331C559.754 965.136 562.879 964.452 566.102 963.866C574.109 962.304 576.356 960.741 576.356 956.737C576.356 954.589 577.137 952.831 578.602 951.464C579.774 950.39 581.238 948.729 581.824 947.753C582.801 945.995 582.996 945.995 586.317 947.557C588.27 948.436 590.516 949.218 591.297 949.218C592.078 949.218 594.227 949.804 596.082 950.585C598.231 951.561 599.891 951.659 600.867 951.073C601.551 950.585 603.309 950.194 604.676 950.194C606.727 950.194 607.41 950.878 608.094 953.319L609.07 956.542H625.379L627.332 951.659C628.406 948.925 629.578 944.823 629.969 942.382C630.652 937.597 631.043 937.499 638.367 938.964C640.711 939.452 641.785 939.061 643.641 937.108C645.399 935.253 647.059 934.569 649.695 934.569C652.137 934.569 654.285 933.788 656.141 932.225C661.512 927.831 662.977 927.44 669.52 928.71C672.742 929.393 676.746 930.565 678.309 931.347C681.336 932.909 685.535 932.518 691.59 930.077C694.715 928.807 695.399 928.026 696.082 924.511C696.766 921.19 697.645 920.116 700.379 918.749C704.871 916.503 705.945 914.843 706.727 908.983C707.41 904.003 709.852 900.39 712.586 900.39C713.367 900.39 714.93 899.12 716.102 897.557C719.52 892.87 722.645 892.089 728.699 894.432L733.973 896.483L738.953 893.065C743.934 889.647 752.625 886.913 755.457 887.987C756.336 888.378 757.703 890.429 758.582 892.577C760.731 897.85 763.953 899.413 772.742 899.413C778.016 899.413 780.262 899.804 781.629 901.073C783.289 902.538 786.609 903.417 797.449 904.979C800.77 905.468 801.649 905.175 803.309 903.026C804.969 900.975 806.727 900.39 813.172 899.608C819.813 898.729 821.766 898.729 826.16 900.194L831.434 901.757L836.902 898.925C840.027 897.265 842.664 895.897 842.859 895.8C843.738 895.214 840.613 892.577 839.149 892.577C837 892.577 830.262 888.964 827.234 886.132C825.086 884.081 823.817 883.788 817.371 883.788C810.731 883.788 809.852 883.593 809.266 881.835C808.875 880.761 805.652 876.659 801.942 872.655C795.203 865.331 794.813 864.55 793.738 858.202C793.25 855.468 792.078 853.905 788.758 851.366C784.754 848.339 784.461 847.85 784.363 843.554C784.363 839.452 784.07 838.866 781.043 837.108C778.602 835.643 777.625 834.276 777.234 831.932C776.453 826.366 773.914 820.995 771.277 818.847C769.91 817.772 768.738 816.015 768.738 815.038C768.738 814.061 767.371 812.011 765.711 810.448C763.27 808.202 762.781 807.03 763.074 804.686C763.465 802.147 763.074 801.464 760.242 799.804C758.289 798.632 757.02 797.167 757.02 795.897C757.02 794.823 756.141 793.456 755.067 792.772C753.895 791.991 753.113 790.429 753.113 788.866C753.113 787.108 752.332 785.643 750.77 784.569C749.402 783.788 748.231 782.128 748.035 780.956C747.84 779.491 746.961 778.71 745.301 778.515C741.883 778.026 739.93 775.975 738.465 771.483C737.293 767.968 737.391 767.382 738.953 765.624C740.711 763.671 740.711 763.573 738.465 761.229C736.512 759.179 736.317 758.202 736.805 753.319C737.391 747.557 736.317 745.018 728.602 733.788C726.16 730.175 725.867 729.003 725.77 720.604C725.672 715.526 725.867 710.643 726.258 709.667C726.746 708.593 726.356 707.225 725.574 706.249C724.695 705.37 723.817 703.319 723.426 701.757C722.84 699.315 722.449 699.12 720.106 699.706C716.688 700.585 713.27 700.585 709.754 699.706C707.215 699.022 706.922 699.12 707.41 700.975C707.899 702.831 707.313 703.319 702.723 704.784C698.231 706.151 696.961 706.249 693.348 705.077C691.004 704.393 685.828 703.514 681.824 703.221L674.5 702.636L674.695 697.753C675.281 684.862 675.086 683.593 672.352 680.175C670.887 678.319 668.445 676.366 666.981 675.878C665.32 675.292 664.246 674.218 664.246 673.143C664.246 670.311 659.168 665.526 654.09 663.573C649.305 661.718 646.668 658.397 646.668 654.003C646.668 649.315 642.469 639.159 638.856 635.155C636.805 632.909 634.852 630.272 634.559 629.198C634.266 628.124 630.652 625.194 626.746 622.557C620.399 618.456 619.324 617.382 618.543 613.866C616.688 606.444 615.223 594.53 615.906 592.089C616.199 590.819 618.543 587.792 621.18 585.35C623.719 583.007 627.039 578.807 628.602 576.073C630.945 571.679 631.238 570.409 630.75 564.647C630.359 558.788 630.652 557.616 633.094 553.417C634.656 550.878 635.926 548.534 635.926 548.339C635.926 548.046 638.367 542.479 641.297 536.034C644.227 529.589 646.668 523.925 646.668 523.534C646.668 523.143 645.106 520.995 643.25 518.846C641.395 516.6 639.832 514.159 639.832 513.475C639.832 512.694 638.27 510.253 636.414 508.104C631.922 502.831 632.02 500.487 637 496.288C639.149 494.432 642.078 491.112 643.445 488.964L645.887 485.057L651.453 485.643L657.02 486.132L658.973 482.518C661.219 478.221 666.492 475.389 670.594 476.171C673.426 476.757 675.672 476.757 684.266 476.561C686.414 476.561 689.539 476.561 691.102 476.561C692.762 476.659 697.742 476.171 702.332 475.682C706.922 475.096 713.465 474.315 716.981 474.022L723.426 473.436L719.813 469.823L716.199 466.307L718.348 459.667C720.399 453.026 722.742 450.682 725.086 453.026C725.672 453.612 727.82 454.1 729.774 454.1C733.484 454.1 734.559 452.929 734.559 449.022C734.559 446.971 728.211 437.499 726.746 437.499C724.891 437.499 723.817 440.233 724.793 442.772C725.477 444.725 725.379 445.311 724.402 445.311C722.156 445.311 720.984 443.065 720.692 437.987C720.399 433.788 720.106 433.104 718.152 432.811C716.395 432.518 716.102 432.03 716.59 429.882C716.981 428.417 718.641 425.682 720.399 423.827C722.645 421.386 723.719 419.139 724.109 415.819C724.5 413.28 726.063 409.081 727.82 406.151C734.266 395.702 735.535 391.307 735.535 378.124C735.535 366.796 735.633 365.917 737.977 362.889C740.223 359.96 740.516 358.593 740.613 350.487C740.711 342.577 740.32 339.94 737.586 331.542C732.996 317.675 730.945 314.55 721.766 307.909C717.469 304.784 712.488 301.561 710.828 300.682C695.594 292.968 691.395 291.21 689.637 291.698C688.563 291.991 687.684 293.065 687.684 294.042C687.684 296.581 687.195 296.386 683.289 292.186C681.434 290.233 678.797 285.643 677.43 282.128C674.988 275.878 674.695 275.487 666.199 270.018C661.024 266.6 656.434 262.792 654.774 260.546C651.453 255.663 645.008 249.999 639.637 247.069C637.098 245.8 633.973 242.772 631.824 239.745C629.774 236.815 626.063 232.811 623.524 230.761L619.031 227.05H597.352L589.637 222.362C582.801 218.261 581.336 217.772 576.16 217.772C565.027 217.772 553.309 225.878 549.988 235.936C549.402 237.792 548.524 239.257 548.035 239.257C547.547 239.257 545.496 242.186 543.445 245.8C540.027 251.854 539.735 253.124 539.637 260.253C539.442 272.85 538.465 277.831 535.633 280.468C533.289 282.518 533.192 282.518 533.875 280.761C534.363 279.686 535.047 269.237 535.438 257.421C536.121 240.819 536.707 234.471 538.27 229.003C539.344 225.194 540.223 220.702 540.223 219.042C540.223 217.382 540.906 215.429 541.785 214.745C543.738 213.182 552.332 200.487 553.309 197.753C553.699 196.679 553.699 186.522 553.309 175.292L552.625 154.784L549.207 151.854C539.149 143.261 534.754 138.573 531.141 132.323C526.063 123.632 518.738 116.112 516.004 116.893C514.539 117.284 513.367 116.307 510.828 112.596C504.578 103.514 497.645 96.2879 490.711 91.7957C486.805 89.3543 481.922 85.0574 479.774 82.4207C477.625 79.6863 474.012 76.1707 471.668 74.7059C469.324 73.1434 465.516 69.8231 463.074 67.284C459.949 63.9637 456.043 61.327 449.402 58.202C444.324 55.7606 436.805 51.366 432.801 48.3387C428.895 45.3113 419.227 39.6473 411.414 35.741C403.504 31.8348 391.59 25.6824 384.852 22.1668C371.375 14.9402 368.348 14.2566 368.348 17.9676C368.348 19.3348 369.031 21.0926 369.91 21.8738C371.18 23.241 371.18 23.4363 369.91 23.4363C367.274 23.4363 361.219 19.1395 356.141 13.7684C341.688 -1.66132 342.762 -0.782415 340.125 0.877742Z" fill="white"/>
<circle id="289" cx="616" cy="232" fill="#5CE50D"/>
<circle cx="586" cy="445" fill="#E52A0D"/>
<circle id="1318" cx="546" cy="164" fill="#E52A0D"/>
<circle cx="470" cy="828" fill="#E52A0D"/>
</svg>
