<svg width="1000" height="1000" viewBox="0 0 1000 1000" fill="none" xmlns="http://www.w3.org/2000/svg">
<path d="M562.531 208.719C562.531 209.598 561.848 209.891 560.676 209.598C558.82 209.109 558.234 209.695 552.766 218.094C548.762 224.246 549.152 224.832 554.23 220.145C556.574 217.996 559.211 216.141 559.992 216.141C560.773 216.141 562.043 215.262 562.824 214.187C563.508 213.211 565.168 211.844 566.535 211.355L568.879 210.379L566.73 209.695C565.461 209.402 564.484 208.719 564.484 208.23C564.484 207.742 564.094 207.352 563.508 207.352C563.02 207.352 562.531 207.938 562.531 208.719Z" fill="white"/>
<path d="M516.438 219.754C517.121 220.047 518 219.949 518.293 219.656C518.684 219.363 518.098 219.07 517.023 219.168C515.949 219.168 515.656 219.461 516.438 219.754Z" fill="white"/>
<path d="M487.336 222.977C482.453 223.465 477.57 225.125 465.949 230.496C448.859 238.309 444.367 241.336 444.367 245.145C444.367 247.684 444.465 247.586 448.078 243.68C450.324 241.238 452.766 239.578 454.035 239.578C455.207 239.578 461.945 236.746 469.074 233.23C476.203 229.715 482.844 226.883 483.918 226.883C484.992 226.883 488.117 225.809 490.754 224.539C493.488 223.172 495.246 222.195 494.66 222.195C494.172 222.293 490.852 222.586 487.336 222.977Z" fill="white"/>
<path d="M397.492 272.684C396.711 273.172 394.074 273.758 391.633 274.148C387.141 274.832 382.844 276.981 382.844 278.543C382.844 280.008 387.824 280.691 391.047 279.617C392.707 279.129 395.344 277.273 396.906 275.711C399.738 272.586 400.031 271.414 397.492 272.684Z" fill="white"/>
<path d="M541.535 290.359C542.609 290.848 545.051 291.141 546.906 291.141C550.031 291.141 550.129 291.043 547.883 290.359C546.516 289.969 544.172 289.578 542.512 289.578C540.07 289.48 539.875 289.676 541.535 290.359Z" fill="white"/>
<path d="M554.426 294.07C556.184 297.098 556.184 297.098 558.039 295.242C560.285 292.996 559.992 292.508 555.793 291.727L552.668 291.043L554.426 294.07Z" fill="white"/>
<path d="M569.27 297.684C568.488 299.246 566.73 301.297 565.266 302.371C563.02 304.031 562.238 304.129 559.797 303.152C557.16 302.078 556.184 302.273 549.738 305.594C542.707 309.207 542.219 309.305 528.84 309.891C511.359 310.672 508.234 311.746 500.129 319.168C493.391 325.32 481.867 331.18 478.742 329.91C477.961 329.617 476.691 329.91 476.008 330.496C475.031 331.277 472.883 330.691 466.926 327.957C460.09 324.734 458.82 324.441 455.988 325.418C454.133 325.906 450.227 326.687 447.297 326.98C444.367 327.273 438.801 328.055 434.895 328.641C429.719 329.422 426.398 329.422 421.711 328.543C415.852 327.371 415.266 327.469 410.285 329.812C407.355 331.082 401.984 332.742 398.469 333.426C392.609 334.402 390.754 334.305 382.746 332.547C377.668 331.473 368.781 329.812 362.824 328.934C351.105 327.176 339.68 324.734 328.059 321.512L320.734 319.461L316.926 322C314.875 323.367 312.824 324.539 312.336 324.539C311.848 324.539 309.992 325.613 308.234 326.98C303.742 330.398 300.715 330.008 291.145 324.832C282.551 320.144 282.258 320.437 288.898 327.566L292.219 331.082L289.387 331.668C287.922 331.961 286.164 331.766 285.48 331.18C284.699 330.594 283.625 330.594 282.355 331.277C278.059 333.621 277.082 332.742 277.57 327.273C277.961 323.367 278.645 321.707 280.695 319.949L283.332 317.703L280.988 314.871C278.84 312.234 278.449 312.137 277.082 313.504C275.715 314.969 274.934 314.676 269.172 310.965L262.727 306.766L259.699 309.305C256.281 312.137 256.086 312.234 252.375 310.867C248.859 309.5 240.168 311.453 235.578 314.578C233.43 316.043 231.086 316.727 229.23 316.531C225.715 316.141 224.641 318.094 227.473 319.656C230.793 321.414 230.012 324.441 225.91 326.102C223.859 326.883 221.418 327.957 220.539 328.445C219.562 329.031 217.219 329.422 215.363 329.422C212.629 329.422 211.945 329.812 211.945 331.277C211.945 332.449 210.188 334.305 207.258 336.258C204.426 338.016 201.789 340.75 200.91 342.703C198.176 348.465 194.758 348.367 187.238 342.508C182.355 338.699 181.574 338.699 179.328 343.289C178.742 344.461 177.277 345.633 176.105 345.828C174.934 346.023 173.469 346.805 172.883 347.586C172.199 348.367 170.637 348.953 169.27 348.953C167.902 348.953 166.73 349.637 166.438 350.613C164.777 356.082 161.848 359.695 153.84 366.043C149.055 369.949 141.438 376.492 137.043 380.496C132.648 384.598 127.082 388.894 124.836 390.066C122.492 391.238 116.926 395.73 112.336 400.223C105.695 406.668 102.082 409.305 94.2695 413.211C86.8477 416.922 82.2578 420.145 75.2266 426.59C65.6562 435.281 60.3828 438.504 48.0781 443.191C37.2383 447.195 32.1602 451.102 30.6953 456.375C29.6211 460.086 29.6211 460.965 30.793 462.234C31.5742 463.113 32.2578 464.676 32.2578 465.555C32.2578 468.484 27.375 476.59 24.8359 477.762C21.6133 479.227 21.6133 484.207 24.9336 488.699C30.0117 495.73 31.1836 497.879 31.7695 501.492C32.2578 504.227 33.1367 505.594 34.7969 506.375C37.5312 507.645 37.6289 508.426 35.7734 513.699C34.9922 516.043 34.6016 519.363 34.8945 522.098C35.2852 525.418 34.9922 527.371 33.7227 529.227C32.1602 531.57 31.7695 531.668 26.4961 531.082L20.832 530.398L13.2148 538.797C9.11328 543.387 5.10938 547.195 4.52344 547.195C3.83984 547.195 2.57031 548.758 1.69141 550.613L0.128906 553.934L3.54688 556.57C6.18359 558.621 8.52734 559.305 14.2891 559.891C21.2227 560.574 21.9062 560.867 25.8125 564.676C28.0586 566.824 30.5 568.68 31.2812 568.68C32.0625 568.68 33.7227 567.215 34.9922 565.359C36.2617 563.504 38.5078 561.453 40.168 560.867C43.6836 559.402 45.4414 560.574 47.9805 566.336C48.8594 568.582 50.2266 570.73 50.8125 571.121C51.3984 571.512 52.7656 573.66 53.8398 575.906C56.1836 580.887 62.8242 589.383 65.168 590.359C66.1445 590.652 68.293 591.043 69.9531 591.043C73.3711 591.141 79.5234 596.414 82.2578 601.688C84.4062 605.691 90.6562 608.621 96.8086 608.719C101.301 608.719 101.301 608.719 101.984 612.625C102.375 614.871 103.84 617.898 105.598 619.949C108.527 623.27 108.918 623.367 113.312 622.781C118.098 622.195 122.395 623.562 124.934 626.688C125.715 627.664 127.766 628.25 130.109 628.25C134.113 628.25 139.68 630.594 139.68 632.254C139.68 632.84 139.191 634.207 138.605 635.281C137.727 636.844 137.824 638.699 138.605 642.508C140.363 650.125 141.633 650.711 148.469 647C155.109 643.289 156.867 643.191 159.797 645.926L162.043 647.977L170.148 643.387C180.402 637.527 181.477 636.551 182.258 632.449C182.551 630.691 183.625 628.836 184.504 628.348C185.383 627.957 191.145 627.762 197.395 628.055L208.82 628.445L213.508 636.941C216.047 641.531 218.293 645.535 218.391 645.73C218.586 645.926 219.953 645.34 221.418 644.363C224.934 642.02 235.09 641.434 241.242 643.289C245.344 644.461 246.223 644.461 247.98 643.289C250.617 641.336 252.961 642.703 256.77 648.074C258.332 650.418 261.262 653.543 263.117 655.008C265.07 656.473 266.633 658.23 266.633 659.012C266.633 659.793 264.875 664.48 262.727 669.363C259.699 676.395 258.82 679.617 258.82 683.914C258.82 688.211 258.332 690.066 256.379 692.703C254.523 695.242 253.938 697.195 253.938 701.199C253.938 706.18 254.035 706.375 256.672 706.375C260.578 706.375 263.508 708.816 264.289 712.723C265.07 717.117 264.094 718.289 256.281 721.902C250.227 724.734 248.859 726.883 252.961 726.883C253.938 726.883 256.184 728.152 257.941 729.812C261.066 732.547 261.164 732.645 262.434 730.789C263.215 729.715 264.777 728.836 266.047 728.836C270.051 728.836 275.129 722.781 273.469 720.047C271.906 717.605 272.395 716.238 275.52 714.676C279.328 712.723 279.914 713.309 278.645 717.605C277.668 720.535 277.863 721.121 279.621 722.293C281.379 723.465 281.574 724.051 280.695 726.98C280.109 728.836 279.133 730.203 278.449 730.008C276.496 729.617 274.445 731.766 274.445 734.305C274.445 739.09 282.746 741.434 285.383 737.332C286.262 736.16 289.191 734.305 292.121 733.328C300.812 730.301 308.234 726.199 310.383 723.27C312.043 721.023 312.531 720.828 313.898 721.902C315.949 723.66 315.852 724.637 313.605 725.418C312.531 725.711 311.555 727.273 311.164 728.934C310.773 730.789 309.895 732.156 308.625 732.449C307.648 732.742 306.477 733.816 306.184 734.793C305.793 735.867 303.84 738.016 301.691 739.773C299.641 741.434 297.883 743.191 297.883 743.68C297.883 744.266 299.445 746.512 301.203 748.758C305.207 753.543 309.504 762.43 309.699 765.945C309.797 770.047 310.871 771.316 314.387 771.512C318.391 771.707 320.832 773.953 320.832 777.371C320.832 779.324 322.004 780.887 325.715 783.719C329.523 786.551 330.598 788.016 330.598 790.066C330.598 792.41 330.988 792.801 333.039 792.605C334.406 792.41 339.484 791.922 344.27 791.336C355.988 790.066 363.312 790.066 368.684 791.531C372.492 792.605 373.176 792.508 374.25 791.043C374.934 790.164 377.277 788.797 379.426 788.113C381.867 787.234 384.699 785.086 387.238 782.156L391.145 777.469L391.242 767.117C391.34 761.258 391.926 754.812 392.707 752.371C394.367 747.098 399.445 741.922 404.328 740.457C407.551 739.48 408.43 739.676 413.508 742.508C418.488 745.34 419.27 745.535 421.906 744.461C426.691 742.508 427.277 741.141 425.812 735.184C425.129 732.254 424.25 729.812 423.859 729.812C423.566 729.812 422.492 729.227 421.516 728.543C419.855 727.371 419.855 727.078 421.516 723.758C423.078 720.34 423.078 719.656 421.516 710.086C420.539 704.227 418.977 698.953 417.902 697.391C416.242 694.949 416.242 694.461 417.512 690.652C419.465 685.281 419.465 685.379 416.047 683.23L413.117 681.375L415.07 677.762C416.34 675.418 417.023 672.293 417.023 668.777C417.023 664.285 417.316 663.309 419.27 662.234C420.441 661.551 428.254 660.477 436.555 659.891L451.691 658.621L456.281 661.16C460.383 663.406 461.164 663.504 463.898 662.43C466.535 661.355 467.316 661.453 470.246 663.016C473.078 664.48 474.152 664.578 476.594 663.699C478.84 662.82 479.719 662.918 480.598 663.992C481.184 664.773 482.453 665.359 483.43 665.359C486.457 665.359 490.559 659.012 490.461 654.422C490.461 652.664 491.242 651.102 492.805 649.832C497.199 646.414 509.797 631.863 509.797 630.203C509.797 629.324 511.164 628.152 513.117 627.469C516.242 626.297 516.438 626.004 515.949 622.488L515.461 618.777L523.859 615.652C532.844 612.43 538.801 611.746 539.68 613.895C539.875 614.578 539.484 616.922 538.703 619.168C537.336 622.977 537.434 623.367 539.582 626.395C540.754 628.25 543.879 631.473 546.516 633.621C555.109 640.652 554.523 640.359 557.062 639.09C558.234 638.406 560.578 638.016 562.141 638.211C564.289 638.406 565.07 639.09 565.266 640.945C565.461 642.312 566.047 644.852 566.535 646.609C567.609 649.93 568.195 650.125 576.496 651.102C580.207 651.59 581.086 651.395 581.086 650.125C581.086 649.246 580.207 647.879 579.035 646.902C577.082 645.34 576.984 644.852 578.059 638.016C578.742 634.012 579.328 630.789 579.426 630.691C579.523 630.691 582.16 629.812 585.285 628.738C588.41 627.762 591.828 625.906 592.805 624.637C593.781 623.367 594.953 622.391 595.441 622.488C598.566 623.074 601.203 621.902 605.109 618.289C609.113 614.578 609.602 614.383 610.676 616.043C612.531 618.484 615.461 617.508 617.316 613.895C618.195 612.137 619.172 610.965 619.562 611.355C619.855 611.648 621.906 610.574 624.055 608.816C627.277 606.277 628.352 605.887 629.426 606.766C631.867 608.816 636.457 605.008 635.871 601.59C635.773 601.102 636.652 599.539 637.727 598.074C638.996 596.219 639.582 593.973 639.387 591.531C639.191 588.016 639.387 587.723 641.73 587.723C643.293 587.723 645.344 586.648 646.711 585.184C649.055 582.742 649.641 582.547 657.355 582.84C661.848 582.938 666.73 583.328 668.293 583.719C670.637 584.402 671.125 584.207 672.395 581.082C673.664 577.957 673.664 577.273 672.102 574.637C671.223 572.977 669.855 571.609 669.27 571.609C668.586 571.609 668 570.73 668 569.754C668 568.68 667.023 567.117 665.852 566.336L663.801 564.871L668.488 555.789C671.125 550.809 674.25 544.656 675.52 542.215C677.57 538.406 677.766 537.039 676.984 534.207C675.324 528.25 679.719 526.492 683.918 531.473C686.262 534.305 686.262 534.305 689.191 532.645C692.219 530.789 696.027 525.711 694.367 525.711C693.879 525.711 693.391 525.027 693.391 524.246C693.391 523.465 693.879 522.781 694.367 522.781C695.93 522.781 695.441 520.633 693.391 518.387C690.949 515.75 691.73 512.625 694.562 513.309C696.223 513.797 696.418 513.504 695.93 511.551C695.441 509.598 696.32 508.523 701.691 504.324C705.109 501.59 708.625 499.344 709.406 499.344C710.285 499.344 712.043 497.293 713.508 494.852C715.754 491.043 716.535 490.457 718.684 490.848C720.051 491.141 722.785 490.75 724.641 489.969C729.426 487.918 732.062 488.895 737.336 494.656C741.145 498.758 741.828 500.027 740.949 501.395C740.168 502.664 740.852 504.227 744.758 509.109C747.297 512.43 749.641 514.676 749.836 514.09C750.324 512.527 756.672 512.82 761.555 514.48C763.898 515.359 768.488 516.238 771.711 516.629C776.691 517.117 777.473 517.508 777.082 518.973C776.301 521.805 784.113 523.953 787.922 521.902C788.801 521.316 790.656 520.73 792.023 520.437C793.586 520.047 796.027 517.703 798.664 514.09C801.984 509.5 803.156 508.426 804.816 508.816C806.281 509.207 806.672 509.891 806.281 511.355C805.891 513.113 806.184 513.211 809.699 512.625C813.02 512.039 813.508 512.234 813.508 513.992C813.508 515.359 814.191 515.945 815.852 515.945C819.66 515.945 820.539 513.895 818.879 509.012L817.316 504.812L820.441 501.785C823.273 499.051 823.469 498.953 824.543 500.711C829.133 507.937 830.988 508.523 838.996 505.105C843.781 503.055 844.66 501.98 842.805 500.809C840.852 499.637 841.926 497.684 845.246 496.121L848.664 494.461V497.488C848.664 499.832 849.055 500.418 850.129 499.93C850.91 499.637 852.277 499.051 853.059 498.758C853.938 498.367 854.523 498.758 854.523 499.637C854.523 500.809 855.402 501.004 858.332 500.613C860.48 500.32 862.336 500.516 862.727 501.102C863.215 501.883 863.996 501.883 865.656 501.199C867.316 500.418 868.488 500.418 869.953 501.199C871.613 502.078 872.004 501.883 872.59 499.539C873.664 495.242 877.668 493.973 880.988 497C882.648 498.465 883.137 498.465 887.141 496.805C890.461 495.437 891.438 494.559 891.047 493.289C890.656 491.922 891.242 491.629 894.465 491.727C897.297 491.727 899.25 491.043 901.398 489.187C903.156 487.82 905.012 486.648 905.695 486.648C906.379 486.648 907.355 485.672 907.941 484.402C909.211 481.668 917.121 479.227 919.953 480.789C921.516 481.57 921.906 481.473 921.906 480.301C921.906 479.52 923.664 477.664 925.812 476.297C930.5 473.172 934.992 467.508 934.211 465.555C933.82 464.676 934.504 463.797 936.066 463.211C937.434 462.723 938.508 461.648 938.508 460.77C938.508 459.988 939.68 459.012 941.145 458.719C943.195 458.133 944.172 458.523 945.832 460.672L947.98 463.406L952.082 461.355C955.109 459.793 956.086 458.719 956.086 456.863C956.086 453.836 956.379 453.836 960.676 457.059C963.117 458.914 964.387 459.402 964.68 458.523C965.461 456.082 977.375 458.719 976.789 461.258C976.594 461.941 977.277 462.137 978.449 461.746C980.5 461.16 992.902 460.867 997.102 461.453C998.664 461.648 999.543 461.258 999.836 460.184C1000.03 459.012 999.445 458.719 997.297 459.109C992.609 459.793 974.641 450.613 974.641 447.488C974.641 446.219 961.945 423.27 960.969 422.684C960.578 422.391 959.895 423.758 959.602 425.613C959.113 427.957 958.527 428.836 957.551 428.348C955.793 427.762 955.598 422.098 957.258 420.437C959.016 418.68 957.746 418.094 944.855 413.797C933.332 409.891 924.445 405.984 913.508 399.832C908.332 397 906.184 396.316 905.402 397.098C903.742 398.758 904.133 400.711 906.281 400.711C907.258 400.711 909.699 402.078 911.555 403.738C913.508 405.398 915.461 406.473 916.047 406.082C916.633 405.691 917.805 405.984 918.586 406.668C919.465 407.352 921.711 407.84 923.664 407.742C926.008 407.645 928.645 408.328 931.086 409.891L934.992 412.234L931.867 412.918C930.207 413.211 926.496 413.406 923.762 413.309C919.367 413.016 918.586 413.309 917.902 415.066C917.512 416.238 915.168 418.289 912.727 419.754C908.039 422.488 907.551 423.074 909.211 424.734C909.992 425.516 909.113 426.59 906.379 428.445C902.668 431.082 902.473 431.082 900.031 429.52C897.102 427.566 896.027 424.441 896.809 419.656C897.59 414.676 895.734 414.48 886.848 418.68C875.715 423.855 873.273 424.148 868.781 420.242C866.828 418.484 864.973 416.043 864.68 414.773C864.191 412.918 863.312 412.527 860.09 412.234C856.965 412.039 855.988 411.551 856.086 410.281C856.184 409.207 854.914 408.328 851.887 407.645C845.637 405.984 839.875 400.418 839.191 395.145C838.703 391.434 838.898 390.945 841.242 389.871C844.172 388.504 844.367 387.332 842.219 384.207C840.852 382.352 840.852 381.766 841.926 381.18C842.902 380.496 843 379.812 841.926 377.664C841.047 375.711 840.461 375.32 839.973 376.199C839.484 376.98 838.312 377.273 837.043 376.785C835.285 376.297 834.992 376.59 834.992 378.641C834.992 380.496 834.504 381.18 833.137 381.18C831.965 381.18 831.086 382.059 830.695 383.621C829.914 386.746 828.156 385.867 828.156 382.352C828.059 380.887 826.789 378.25 825.227 376.297C821.418 371.902 821.32 369.949 825.031 370.926C826.496 371.316 829.328 371.609 831.379 371.512C833.527 371.512 835.969 371.902 837.043 372.391C838.41 373.172 839.289 372.977 841.047 371.219L843.195 369.07L840.461 368.387C838.898 367.996 836.848 366.824 835.773 365.945C833.918 364.187 833.918 364.187 835.871 363.406C838.508 362.43 838.605 357.937 835.969 353.152C834.895 351.102 834.016 348.074 834.016 346.414C834.016 343.777 832.844 342.312 826.496 336.551C810.969 322.879 812.141 323.562 805.402 323.562C799.348 323.562 784.895 322.098 780.891 321.121C779.816 320.926 779.426 320.926 780.109 321.219C781.965 322.098 781.477 323.758 778.352 327.176C776.398 329.324 774.25 330.594 771.711 330.984C768.391 331.473 767.805 331.277 766.242 328.934L764.484 326.199L762.043 329.324C759.211 332.84 758.527 333.035 755.891 330.398C753.742 328.25 753.156 320.926 754.914 317.703C756.086 315.457 755.793 315.262 748.273 313.699L742.219 312.43L738.996 315.945C733.43 322.098 726.984 322.195 724.25 316.238C722.688 312.918 722.688 312.723 724.641 310.184L726.691 307.547L724.445 306.375C723.176 305.789 717.023 303.25 710.773 300.711C694.074 294.168 687.824 294.754 679.719 303.543C674.055 309.695 664.68 312.527 647.004 313.406C640.07 313.797 632.844 314.676 630.988 315.359C624.055 318.191 618 316.531 597.883 306.277C590.168 302.371 583.43 299.441 582.941 299.734C582.453 300.027 581.281 299.344 580.305 298.269C579.328 297.098 576.887 296.023 574.641 295.633C570.832 295.047 570.441 295.242 569.27 297.684Z" fill="white"/>
<path d="M837.922 349.148C837.922 352.957 838.703 353.641 840.461 351.883C841.828 350.516 846.125 353.934 847.688 357.645C849.152 361.258 848.371 364.871 845.539 367.508C844.367 368.582 843.879 369.461 844.465 369.461C846.809 369.461 848.664 372.391 847.688 374.344C846.906 375.809 847.102 376.297 848.762 376.785C851.008 377.566 852.57 376.102 852.57 373.074C852.57 370.926 852.57 370.926 859.309 374.246C863.02 376.199 865.363 376.785 865.949 376.199C866.828 375.32 874.25 382.254 875.129 384.891C875.422 385.672 876.398 385.77 878.156 385.281C880.598 384.598 880.305 384.305 870.441 375.809C864.777 370.926 855.109 362.137 849.055 356.277L837.922 345.535V349.148Z" fill="white"/>
<path d="M898.371 395.145C899.836 397 902.863 397.391 903.84 395.828C904.133 395.242 903.84 394.852 903.156 394.852C902.473 394.852 900.813 394.559 899.445 394.168C897.297 393.582 897.102 393.68 898.371 395.145Z" fill="white"/>
<path d="M858.43 397.781C856.379 399.832 856.184 400.711 856.965 402.859C857.356 403.738 858.625 404.129 860.773 403.836C862.629 403.641 865.07 404.031 866.34 404.715C867.609 405.398 871.027 405.984 873.859 406.082C879.328 406.277 881.184 407.156 879.035 408.523C877.961 409.109 878.84 410.086 882.356 412.332C887.629 415.652 888.898 415.945 890.559 414.09C891.34 413.016 888.898 410.965 879.035 404.227C872.102 399.441 865.949 395.926 865.363 396.219C864.777 396.609 864.289 397.781 864.289 398.855C864.289 399.832 863.703 400.711 862.922 400.711C860.773 400.711 859.992 398.855 861.359 397.293C863.215 395.047 860.773 395.437 858.43 397.781Z" fill="white"/>
<path d="M274.152 743.191C273.762 743.484 273.469 745.047 273.469 746.512C273.469 749.148 273.664 749.246 276.691 748.66C280.793 747.879 280.793 747.879 279.523 744.949C278.449 742.703 275.617 741.727 274.152 743.191Z" fill="white"/>
<circle id="297" cx="348" cy="629" fill="#5CE50D"/>
<circle id="298" cx="205" cy="393" fill="#E52A0D"/>
<circle id="300" cx="444" cy="336" fill="#E52A0D"/>
<circle cx="766" cy="416" fill="#E52A0D"/>
</svg>
