<svg width="1000" height="1000" viewBox="0 0 1000 1000" fill="none" xmlns="http://www.w3.org/2000/svg">
<path d="M485.849 71.1914C484.189 74.9023 482.041 77.4414 477.646 80.7617C472.373 84.8633 471.591 85.9375 470.127 91.0156C469.248 94.043 468.369 97.168 468.173 97.7539C467.88 98.6328 465.439 99.0234 460.556 99.0234C453.916 99.0234 453.232 98.8281 450.693 96.1914L447.959 93.3594L443.662 95.6055C441.318 96.875 437.607 98.1445 435.459 98.5352C432.334 99.0234 431.162 99.8047 430.283 101.758C429.697 103.223 427.255 106.543 424.912 109.277L420.615 114.16L403.916 118.555L387.216 123.047L386.142 127.832C385.068 133.203 382.919 134.57 379.794 131.738C378.232 130.371 376.767 130.176 371.298 130.664C367.685 131.055 363.193 131.348 361.435 131.25C358.603 131.25 358.017 131.738 356.455 135.254C354.99 138.477 354.794 139.941 355.576 142.188C356.259 144.141 356.259 145.312 355.478 146.289C354.697 147.266 354.599 147.852 355.38 148.34C355.869 148.633 356.357 150.391 356.357 152.051C356.357 156.738 358.212 158.691 367.002 162.891C371.298 165.039 375.107 167.578 375.4 168.457C375.693 169.434 375.107 171.875 374.033 173.926C372.47 177.148 372.177 179.004 372.666 185.84L373.252 193.848L370.029 197.168C366.806 200.488 366.123 203.027 367.392 207.617C367.978 209.766 367.587 210.547 365.048 212.402L361.923 214.551L355.771 211.328C350.4 208.398 349.521 208.203 347.959 209.375C347.08 210.156 345.517 210.742 344.443 210.547C343.466 210.352 342.685 210.84 342.685 211.523C342.685 212.207 341.806 213.379 340.83 213.965C339.365 214.844 338.584 214.844 337.216 213.77C334.677 211.914 331.943 214.453 331.943 218.75V221.875L324.912 223.047C319.931 223.926 314.658 225.879 307.334 229.492C301.669 232.324 296.689 235.156 296.298 235.742C295.517 237.012 298.349 241.602 299.912 241.602C300.498 241.602 301.865 242.285 302.841 243.164C304.502 244.727 304.794 244.629 308.603 242.188C313.095 239.16 315.341 239.941 315.341 244.238C315.341 246.289 315.634 246.484 316.709 245.605C318.466 244.141 321.591 248.633 320.615 251.562C320.127 253.223 319.443 253.516 316.22 253.027C314.169 252.734 312.412 252.93 312.412 253.418C312.412 253.906 310.947 254.297 309.091 254.297C306.259 254.297 305.771 254.688 305.283 257.129C304.892 258.887 303.916 260.059 302.548 260.449L300.498 261.035L302.451 263.477C303.525 264.844 305.185 269.141 306.064 272.852C307.724 279.785 307.724 279.785 313.095 282.52L318.564 285.254L309.384 292.676L304.404 291.113L299.521 289.551L294.834 293.945C291.806 296.777 289.658 298.047 288.584 297.656C287.802 297.363 285.752 297.559 284.189 298.047C281.65 298.926 281.064 298.73 278.134 295.703C276.377 293.945 273.447 291.895 271.689 291.309C269.931 290.723 268.466 289.648 268.466 288.867C268.466 287.109 263.388 284.57 260.947 285.156C259.873 285.449 258.505 285.059 257.822 284.18C257.041 283.301 255.185 282.617 253.525 282.617C251.865 282.617 249.13 281.543 247.373 280.176C242.197 276.172 239.853 277.246 238.388 284.082C237.705 287.5 237.216 288.086 233.798 289.062C224.13 291.797 224.716 291.895 222.47 287.207C220.81 283.789 219.052 282.129 214.169 279.297C210.752 277.344 206.65 275.781 204.99 275.781C201.962 275.781 201.377 274.512 202.939 271.973C204.209 270.02 201.377 266.016 197.666 264.551C195.127 263.477 194.443 262.305 192.88 256.738C191.416 251.66 190.537 250 188.681 249.316C184.091 247.559 182.822 248.242 180.673 253.32C179.013 257.129 177.451 258.887 173.935 261.133C169.541 263.77 169.248 264.258 169.638 267.383C169.834 269.238 169.541 272.266 168.857 274.219C167.392 278.613 164.755 279.492 137.216 284.57C113.877 288.77 109.384 288.867 99.2281 285.449C96.1031 284.277 92.8804 283.691 92.0992 283.984C91.3179 284.277 89.9507 286.035 89.0718 287.988C87.5093 291.211 87.1187 291.406 82.9195 291.406C79.7945 291.406 77.4507 292.09 74.9117 293.848C72.9585 295.215 70.8101 296.289 70.3218 296.289C69.7359 296.289 67.3921 295.02 65.146 293.457C61.6304 291.016 59.482 290.43 52.3531 289.648C44.15 288.867 43.4664 288.965 37.8023 291.504L31.7476 294.141L26.3765 291.797C23.3492 290.43 17.2945 287.402 12.9 284.961C8.40777 282.617 4.69684 280.664 4.50152 280.664C4.30621 280.664 3.23199 281.934 2.06012 283.594C-0.0883206 286.426 -0.0883206 286.523 1.76715 288.379C2.84137 289.453 4.1109 292.773 4.79449 295.996C5.38043 299.121 6.25934 302.539 6.64996 303.613C9.09137 309.668 9.87262 313.281 8.7984 313.672C6.94293 314.258 7.62652 318.359 10.0679 320.605C11.7281 322.168 13.1929 322.754 14.7554 322.363C18.4664 321.387 19.9312 323.047 16.8062 324.512L14.0718 325.781L16.2203 327.246L18.3687 328.613L16.3179 330.664C14.5601 332.422 14.5601 332.715 15.9273 334.277C17.6851 336.23 17.9781 339.844 16.5132 340.723C15.3414 341.406 15.1461 347.363 16.2203 348.438C16.7086 348.828 17.4898 351.465 17.9781 354.199L18.9546 359.277L26.7671 359.18C34.0914 359.082 34.189 359.082 28.7203 359.668C25.4976 359.961 21.982 360.84 20.9078 361.523C18.9546 362.695 19.0523 362.793 21.4937 364.941C23.6421 366.699 24.0328 367.676 23.6421 370.215C23.2515 372.754 23.4468 373.438 24.814 373.438C27.4507 373.438 31.7476 376.953 33.1148 380.273C33.7984 381.836 34.8726 383.203 35.5562 383.203C36.2398 383.203 37.9 384.961 39.3648 387.109C40.8296 389.355 42.6851 391.016 43.7593 391.016C45.4195 391.016 47.6656 393.75 51.6695 400.684C52.4507 402.051 53.0367 404.98 53.0367 407.129C53.0367 411.23 54.8921 413.672 57.3336 412.695C58.3101 412.402 58.6031 412.695 58.3101 413.574C58.0171 414.355 56.7476 414.844 55.1851 414.746C52.1578 414.551 51.8648 415.918 54.5015 417.383C55.5757 417.871 56.7476 419.336 57.0406 420.41C57.5289 421.875 58.0171 422.168 58.5054 421.289C58.9937 420.508 59.3843 420.605 59.8726 421.777C60.1656 422.656 60.2632 423.73 59.9703 424.219C59.2867 425.293 61.3375 426.66 65.439 428.027C68.564 429.004 69.0523 429.688 69.6382 433.008C70.5171 438.379 72.6656 438.086 72.9585 432.52C73.0562 429.004 72.6656 427.93 71.0054 426.66C69.15 425.391 69.0523 425.195 70.5171 425.195C71.4937 425.195 73.4468 426.074 74.9117 427.051C78.3296 429.492 84.5796 430.566 86.4351 429.004C87.607 428.027 87.607 427.637 85.8492 426.465C84.775 425.684 83.896 424.512 83.9937 423.926C84.0914 423.242 83.896 421.973 83.4078 420.996C82.9195 419.824 83.2125 418.848 84.2867 418.066C85.0679 417.383 85.9468 416.016 86.1421 414.941C86.5328 412.109 90.732 403.711 91.7085 403.711C92.1968 403.711 93.9546 400.879 95.6148 397.363C97.7632 392.871 99.0328 391.211 100.009 391.699C102.06 392.383 101.865 393.652 99.7164 394.238C97.6656 394.727 96.1031 398.828 97.8609 398.828C98.5445 398.73 100.302 397.754 101.865 396.484C104.404 394.434 104.892 394.336 107.236 395.508C111.044 397.559 112.216 397.168 113.681 393.652C114.658 391.211 114.755 389.355 113.974 385.645C112.412 377.734 112.9 373.828 115.634 371.094C117.002 369.727 118.369 367.285 118.662 365.723C119.052 363.965 119.736 362.988 120.517 363.281C122.373 364.063 125.595 356.543 127.255 347.754C129.99 333.789 132.724 324.902 135.263 322.559C136.533 321.387 137.607 319.824 137.607 319.238C137.607 318.652 138.584 317.188 139.755 316.113L142.002 314.16L153.72 317.969C161.435 320.508 166.123 322.559 167.49 324.121C169.345 326.074 176.572 330.469 178.134 330.469C179.111 330.469 178.623 326.953 177.451 325.781C175.888 324.219 177.646 324.316 179.697 325.879C180.576 326.563 181.455 328.613 181.748 330.469C182.041 332.324 182.431 334.57 182.627 335.352C182.822 336.328 182.334 336.816 181.064 336.914C176.669 337.109 176.572 337.207 177.646 339.16C179.111 342.09 178.818 342.676 176.669 340.723C174.814 339.063 174.814 339.16 175.205 342.578C175.498 344.531 175.888 347.559 176.084 349.414C176.377 351.563 175.888 353.613 174.619 355.469C173.642 357.031 172.763 359.277 172.763 360.449C172.763 362.305 172.47 362.402 169.931 361.426C166.22 360.059 163.584 361.133 164.267 363.77C164.658 365.332 164.169 366.016 162.021 366.699C156.845 368.555 157.431 371.875 164.169 378.32C170.224 384.082 178.916 386.621 183.017 383.887C184.677 382.715 185.459 382.715 188.193 383.887C191.416 385.254 192.294 387.695 190.146 389.844C189.365 390.625 189.658 391.406 191.416 392.871C192.685 393.945 194.443 394.824 195.224 394.922C196.005 394.922 198.935 396.094 201.572 397.559C204.306 399.023 208.212 400.391 210.361 400.684C213.779 401.172 214.267 401.66 214.56 404.004C214.755 405.566 215.634 407.031 216.513 407.324C217.392 407.715 219.248 408.789 220.517 409.766C223.935 412.402 226.279 412.109 225.693 409.082C225.302 406.641 220.908 402.734 218.759 402.734C218.173 402.734 217.685 402.344 217.685 401.855C217.685 401.367 216.806 400.781 215.732 400.488C214.365 400.195 213.779 399.121 213.779 397.461C213.779 394.824 214.267 394.629 218.857 394.922C222.08 395.117 222.861 393.848 221.982 389.648C221.591 387.305 220.712 386.035 219.248 385.547C216.22 384.668 211.826 380.176 211.826 378.027C211.826 374.512 209.97 372.363 207.431 373.047C204.013 373.926 201.279 372.656 199.619 369.531C197.763 365.918 197.763 362.305 199.619 360.742C201.279 359.375 199.912 355.859 197.763 355.859C196.982 355.859 195.908 355.176 195.127 354.297C194.248 353.223 192.978 352.93 191.123 353.32C189.658 353.613 188.388 353.418 188.388 352.93C188.388 352.344 189.072 351.953 189.853 351.953C191.904 351.953 191.709 350.977 188.388 345.801C185.263 340.723 184.189 335.059 186.923 337.305C187.705 337.988 188.388 339.063 188.388 339.746C188.388 340.723 195.224 346.777 203.037 352.539C204.599 353.711 207.138 355.664 208.603 356.934C210.166 358.203 214.853 360.352 219.052 361.719C223.447 363.086 226.865 364.746 227.158 365.625C227.451 366.406 228.72 369.238 229.892 371.973C234.091 380.859 236.24 386.23 236.24 387.793C236.24 388.672 237.021 389.941 237.9 390.625C240.341 392.285 240.244 404.297 237.9 407.617C237.021 408.984 236.24 411.133 236.24 412.5C236.24 413.867 235.752 415.527 235.166 416.113C233.212 418.066 232.919 429.98 234.677 436.719C235.459 440.039 235.947 443.945 235.654 445.41C234.97 448.73 236.044 451.172 241.123 458.887C243.173 462.109 246.201 467.188 247.861 470.215C249.423 473.242 252.353 476.953 254.209 478.516C264.462 486.816 270.81 492.676 272.861 495.605C275.4 499.414 283.701 506.641 287.314 508.301C288.681 508.887 292.099 512.207 295.029 515.723C300.498 522.363 310.459 528.809 317.294 530.176C319.248 530.566 322.568 532.52 325.107 534.961C330.576 540.039 333.115 541.406 336.728 541.406C340.244 541.406 342.197 543.75 341.904 547.363C341.611 549.805 342.197 550.586 346.298 553.027C354.306 558.008 355.673 559.082 354.599 560.156C354.013 560.742 352.646 560.547 350.693 559.57C346.884 557.617 344.052 557.617 343.369 559.375C342.88 560.645 342.197 560.645 338.779 559.277C336.533 558.398 334.384 556.934 333.896 555.957C333.115 554.59 333.701 554.102 337.412 553.223C340.83 552.344 341.709 551.758 341.318 550.586C341.025 549.707 340.732 548.242 340.732 547.168C340.732 545.898 340.048 545.313 338.681 545.313C337.607 545.313 334.482 544.336 331.845 543.262C328.134 541.602 326.669 541.406 325.791 542.285C323.935 544.141 321.298 543.555 315.927 539.941C313.095 538.086 310.166 536.523 309.482 536.523C308.798 536.523 308.408 536.23 308.798 535.938C309.58 535.059 304.111 530.664 302.255 530.664C301.377 530.664 300.693 530.176 300.693 529.688C300.693 529.102 300.107 528.711 299.326 528.711C296.396 528.711 296.689 530.859 300.107 534.082C303.818 537.598 304.599 539.453 302.158 539.453C300.302 539.453 300.302 539.844 302.158 543.359C304.794 548.438 300.009 546.387 291.709 538.77C289.169 536.426 286.63 534.57 286.044 534.57C284.97 534.57 285.654 538.574 287.119 541.602C288.779 544.727 288.193 545.605 284.97 544.922C281.748 544.336 275.498 539.453 275.986 537.891C276.084 537.402 275.107 536.133 273.642 535.156C270.712 533.008 258.701 528.613 257.529 529.297C256.259 530.078 256.65 533.008 258.31 535.449C259.775 537.5 260.361 537.695 266.025 537.012C271.982 536.426 272.177 536.426 272.763 538.867C273.056 540.137 273.154 541.797 272.861 542.578C272.373 543.848 275.107 547.168 278.623 549.609C280.283 550.781 280.38 550.977 278.818 554.004L277.158 557.129L283.115 562.891C286.435 566.016 288.681 568.652 288.095 568.848C286.533 569.434 292.392 576.172 295.615 577.734C297.08 578.418 298.837 580.469 299.619 582.129C300.4 583.887 301.865 585.645 302.939 585.938C304.404 586.426 304.599 586.719 303.525 587.402C302.548 587.988 303.134 588.574 305.771 589.746C307.822 590.527 309.873 591.211 310.361 591.211C310.947 591.211 313.779 594.141 316.611 597.754C324.423 607.52 334.189 616.504 337.705 617.188C339.462 617.578 341.416 618.945 342.49 620.605C344.736 624.219 353.72 630.859 358.212 632.324C360.166 632.91 362.412 633.984 363.193 634.668C363.974 635.352 365.537 636.133 366.611 636.426C367.685 636.621 366.904 636.816 364.853 636.816C359.775 636.816 359.58 637.5 363.877 640.137C365.927 641.406 368.662 643.555 370.029 645.02C371.982 646.973 374.13 647.852 379.599 648.828C384.677 649.707 387.509 650.781 390.244 652.93C393.173 655.176 394.541 655.664 396.884 655.273C398.74 654.883 399.326 654.98 398.447 655.566C396.591 656.738 397.959 658.496 401.962 660.156C403.72 660.938 405.576 662.305 405.869 663.281C406.162 664.16 407.822 666.211 409.482 667.871L412.509 670.801L409.482 671.094C406.455 671.387 406.455 671.484 407.236 675C407.724 676.953 408.115 680.566 408.115 682.812C408.115 686.23 408.505 687.207 410.068 687.598C412.509 688.281 412.705 690.82 410.361 690.82C409.091 690.918 410.068 692.188 413.291 695.215C416.22 697.949 417.49 699.609 416.513 699.609C414.365 699.609 414.56 701.465 416.709 702.148C417.587 702.441 419.15 703.125 420.127 703.613C421.103 704.102 422.275 704.297 422.861 703.906C423.447 703.613 424.912 704.297 426.084 705.371C428.72 707.91 441.318 709.473 441.318 707.324C441.318 706.543 442.587 706.348 445.712 706.738C449.423 707.324 450.205 707.129 451.084 705.371C452.06 703.711 451.669 703.223 447.763 701.465C445.224 700.391 443.271 699.414 443.271 699.219C443.271 699.023 445.029 699.316 447.275 699.902C450.107 700.586 452.646 700.586 456.064 699.805C459.775 698.926 461.337 698.926 462.802 699.902C465.83 701.758 465.146 702.441 460.166 702.734L455.478 703.027L458.212 704.883C460.556 706.445 461.63 706.641 464.658 705.859C466.611 705.273 469.248 705.176 470.615 705.566C474.521 706.641 487.216 706.543 487.216 705.469C487.216 704.883 486.63 704.492 486.044 704.492C485.361 704.492 482.627 703.418 479.892 702.051C477.255 700.781 473.74 699.609 472.08 699.609C469.052 699.609 464.755 697.656 467.587 697.656C468.369 697.656 471.787 696.484 475.205 695.117C481.259 692.773 481.748 692.676 490.927 693.75C500.888 694.922 505.283 696.68 498.252 696.68C495.908 696.68 493.759 697.266 493.076 698.145C492.392 698.926 491.123 699.609 490.244 699.609C488.974 699.707 488.974 699.805 490.537 700.781C491.513 701.367 496.298 701.855 500.986 701.953C509.091 702.148 509.873 702.344 514.267 705.469C527.353 714.746 528.232 715.234 533.31 715.234C537.314 715.234 538.584 715.625 539.951 717.48C542.294 720.41 550.595 722.852 562.314 723.926L571.494 724.805L581.65 735.352C587.216 741.211 592.197 746.777 592.783 747.754C593.369 748.73 595.127 750 596.591 750.586C598.154 751.074 599.716 752.344 600.009 753.418C600.791 755.762 611.826 766.992 613.486 766.992C614.169 766.992 615.537 768.359 616.416 769.922C617.587 771.875 618.955 772.852 620.517 772.852C624.521 772.852 632.919 776.562 637.9 780.371C640.537 782.422 646.396 787.5 650.986 791.699C656.552 796.875 659.775 799.121 660.849 798.828C662.021 798.438 662.9 799.023 663.486 800.488C664.072 801.66 665.341 802.832 666.416 803.027C668.857 803.418 669.834 804.883 669.834 808.105C669.834 811.621 676.474 819.727 679.306 819.727C680.478 819.727 681.943 820.605 682.529 821.68C683.115 822.754 684.482 824.023 685.556 824.707C687.314 825.586 687.412 825.586 686.533 823.828C685.556 821.973 686.24 821.68 698.154 818.75C706.552 816.699 710.849 815.137 710.849 814.258C710.849 809.57 708.212 802.637 704.111 796.387L699.326 789.258L682.919 780.273L666.416 771.387L664.365 765.527L662.314 759.766L648.837 755.273L638.486 729.102L640.537 721.094C641.709 716.699 642.49 712.988 642.294 712.793C642.099 712.695 639.462 711.133 636.435 709.473C632.334 707.129 629.892 706.445 626.669 706.543C621.884 706.738 620.127 705.859 608.115 696.68C602.255 692.188 597.08 686.914 590.146 678.32C578.623 664.062 565.048 652.734 554.794 648.828L548.349 646.387L545.517 639.551C543.173 633.691 542.002 632.227 537.9 629.492C535.068 627.637 531.845 624.316 530.087 621.484C528.427 618.848 525.302 615.332 523.056 613.672C520.81 612.109 517.392 608.203 515.439 605.176C512.216 599.902 511.435 599.316 505.185 597.07C498.935 594.727 498.349 594.336 497.08 590.527C495.712 586.719 495.322 586.426 491.025 585.84C487.216 585.352 485.752 584.375 481.65 580.176C478.916 577.344 476.181 573.438 475.498 571.387C474.814 569.238 471.396 564.355 467.587 560.156C462.998 554.98 460.849 551.855 460.849 550.098C460.849 548.73 459.775 544.336 458.408 540.332C456.064 533.594 455.966 532.715 457.138 526.855L458.31 520.605L455.478 518.359C453.916 517.09 451.377 515.82 449.912 515.43C446.689 514.746 446.591 514.551 449.033 511.523C450.888 509.18 450.791 509.18 445.81 496.094L440.732 482.91L432.041 476.27C424.228 470.313 422.666 468.555 416.611 458.691L409.775 447.754L394.638 448.926L389.267 444.629C384.775 441.113 383.505 439.355 381.845 434.57L379.892 428.906L384.384 424.805L388.974 420.605L385.166 413.965C379.111 403.125 378.33 394.629 383.408 393.359C385.556 392.773 385.752 392.383 385.166 388.672C384.775 386.523 383.408 382.324 382.138 379.395L379.794 374.121L382.138 371.582C385.849 367.676 386.337 365.234 385.068 357.227L383.994 349.902L386.826 347.559C388.388 346.191 390.244 345.117 390.927 345.117C391.611 345.117 392.978 344.336 393.857 343.262C395.322 341.699 396.005 341.602 399.521 342.48C402.841 343.262 403.623 343.262 404.404 341.895C405.869 339.258 409.58 339.844 410.654 342.871L411.533 345.41L414.755 342.676C417.88 340.039 418.173 340.039 420.615 341.406C422.08 342.188 424.423 343.164 425.986 343.555C428.818 344.238 429.209 345.215 427.646 348.145C426.865 349.609 426.962 350 428.037 350C428.916 350 430.966 351.27 432.627 352.734C435.166 354.98 435.849 356.543 436.533 361.133C437.509 368.262 440.146 371.484 445.127 371.484C448.252 371.484 449.423 372.266 454.99 378.32C461.044 384.961 461.63 385.254 467.49 386.23C470.81 386.816 475.498 387.012 477.939 386.719C482.138 386.035 482.236 385.938 482.919 381.641C483.31 379.102 484.97 375.098 486.728 372.461C488.877 369.238 489.56 367.383 489.072 366.309C488.388 365.137 489.56 364.063 494.248 361.523C500.107 358.301 500.302 358.008 502.548 351.465C505.38 342.969 508.115 339.941 512.119 340.527C513.681 340.82 516.709 340.527 518.759 339.941C522.08 339.063 523.252 339.258 530.185 342.188C536.24 344.629 538.877 345.215 541.709 344.824C544.052 344.434 547.959 345.02 553.134 346.484C562.314 349.219 564.072 348.73 564.56 343.359C564.853 340.234 565.244 339.746 567.49 339.453C569.248 339.258 570.224 338.379 570.615 336.719C571.005 335.449 571.982 334.375 572.861 334.375C573.74 334.375 575.498 333.398 576.767 332.324C578.525 330.566 579.209 330.371 580.38 331.348C581.455 332.227 581.65 333.203 580.869 334.961C579.306 339.16 579.794 340.234 582.919 340.234C585.263 340.234 585.849 339.844 585.849 337.988C585.849 335.938 585.947 335.938 587.607 338.477C589.267 341.016 589.462 341.113 591.123 339.453C592.783 337.891 592.88 337.891 592.294 339.941C591.709 341.797 592.002 342.09 594.345 341.895C596.494 341.699 597.177 342.188 597.373 343.75C597.568 345.313 600.302 346.973 608.603 350.879C618.564 355.469 620.127 355.859 626.572 355.859H633.701L635.459 352.344C636.63 350.098 637.607 349.121 637.998 349.902C638.388 350.488 639.56 350.977 640.634 350.977C641.611 350.977 642.49 351.66 642.49 352.441C642.49 353.223 643.173 353.906 643.955 353.906C644.736 353.906 645.419 354.297 645.419 354.883C645.419 358.105 660.947 360.352 663.877 357.52C664.853 356.543 665.439 356.738 666.904 358.496C667.88 359.766 669.345 360.742 670.224 360.742C671.103 360.742 671.787 361.523 671.787 362.598C671.787 365.039 679.306 366.016 680.576 363.77C681.259 362.402 681.65 362.402 683.212 363.965C684.482 365.039 685.361 365.332 686.142 364.551C686.826 363.867 687.9 363.965 689.56 364.648C691.611 365.625 692.783 365.43 696.982 363.281C699.716 361.914 702.353 360.742 702.841 360.742C703.33 360.742 709.97 364.648 717.587 369.531C725.205 374.316 731.845 378.32 732.431 378.32C732.919 378.32 736.63 376.465 740.634 374.219C747.08 370.605 747.959 369.824 747.959 367.383C747.959 365.137 748.349 364.648 750.302 364.648C751.962 364.648 752.939 363.77 753.818 361.621C755.576 357.422 758.603 356.445 761.533 359.18C763.193 360.645 763.974 360.84 764.267 359.961C764.853 358.301 768.955 358.496 770.419 360.254C771.103 361.035 771.396 362.402 771.005 363.184C770.615 364.16 771.689 365.82 773.935 367.773C777.158 370.605 777.841 370.801 784.384 370.605C792.197 370.41 794.345 368.945 793.369 364.648C792.88 362.305 793.271 362.012 797.763 360.352C800.498 359.375 802.841 358.691 803.037 358.887C803.232 359.082 803.818 360.156 804.306 361.133C805.673 363.672 813.095 365.527 821.787 365.625H828.818L832.334 369.922C835.263 373.535 836.63 374.414 840.244 375C842.685 375.293 844.931 375.977 845.224 376.465C846.201 378.027 847.568 377.441 848.74 374.902C849.521 373.047 849.521 372.168 848.544 370.996C846.982 369.141 848.544 369.043 851.084 370.996C853.427 372.754 854.404 372.852 854.404 371.191C854.404 370.41 855.771 370.02 858.31 370.02C862.412 370.02 862.9 370.41 861.044 372.266C860.166 373.145 860.752 373.73 863.486 374.902C868.076 376.855 868.076 376.855 868.076 373.535C868.076 369.531 870.419 367.871 871.787 370.898C872.373 372.168 872.568 374.121 872.373 375.098C871.982 376.465 873.056 378.027 876.377 380.762C880.185 383.887 880.869 384.863 880.283 386.914C879.697 389.258 879.697 389.258 885.166 388.574L890.537 387.988V392.48C890.537 394.922 890.927 397.754 891.416 398.73C892.197 400.098 891.904 400.293 889.169 400C886.044 399.609 886.044 399.609 886.435 403.711C886.826 407.324 887.216 407.91 891.513 410.059C894.052 411.328 896.787 413.477 897.763 414.844C899.326 417.383 899.619 417.383 911.044 417.383H922.666L923.349 412.402C924.13 406.25 926.474 404.98 933.994 406.445C938.681 407.422 938.974 407.324 942.392 404.199C944.345 402.441 947.373 400.684 949.13 400.293C952.06 399.609 952.255 399.414 951.572 396.094C950.595 391.113 950.595 391.016 945.127 391.016C939.755 391.016 939.951 391.797 942.49 381.934C942.978 379.883 943.076 377.344 942.783 376.367C942.49 375.293 942.685 373.633 943.271 372.461C944.15 370.898 943.857 369.824 941.806 366.895C937.607 360.547 938.486 358.398 944.638 360.254L948.837 361.523L952.841 356.445C956.552 351.66 956.748 351.172 955.185 349.707C954.013 348.438 953.916 347.754 954.697 346.973C955.576 346.094 957.822 346.289 963.779 347.852C971.591 349.805 971.591 349.805 972.666 347.852C973.544 346.191 974.326 345.996 977.255 346.582C979.306 346.973 981.943 348.242 983.31 349.609C984.677 350.879 987.216 352.246 988.974 352.539C992.978 353.32 998.935 352.246 999.521 350.488C999.814 349.805 999.13 347.07 997.959 344.434L995.908 339.551L983.505 337.695L971.103 335.742L970.517 332.91C970.224 330.957 969.541 330.078 968.564 330.371C962.119 331.934 956.162 331.348 950.205 328.711C944.541 326.27 943.759 325.488 942.587 321.973C941.318 318.164 941.025 317.969 935.166 316.797C926.962 315.137 921.787 311.816 921.787 308.105C921.787 305.664 922.275 305.176 926.669 304.004L931.552 302.637L928.623 298.047C926.669 294.922 925.693 292.09 925.693 289.551C925.693 285.938 925.888 285.742 929.404 285.156C931.357 284.863 934.677 284.57 936.63 284.57C939.267 284.57 940.634 283.984 941.806 282.422C943.173 280.371 943.173 280.078 941.123 278.516C939.853 277.539 937.216 276.27 935.263 275.781C933.31 275.195 931.357 274.316 930.966 273.73C930.38 272.656 920.615 273.242 917.294 274.512C916.416 274.805 915.927 274.316 915.927 273.047C915.927 269.531 914.853 267.969 912.412 267.969C909.287 267.969 909.384 265.527 912.509 263.477C914.755 262.012 914.853 261.816 913.193 259.473C911.63 256.934 911.63 256.934 914.267 257.422C916.513 257.812 916.904 257.617 916.904 255.762C916.904 254.59 917.783 252.832 918.857 251.855C921.787 249.219 921.201 246.973 916.904 243.359L912.9 240.234L916.611 237.988C922.959 234.18 924.716 230.371 919.834 231.055C918.173 231.348 916.611 231.152 916.318 230.664C916.025 230.273 914.267 229.883 912.314 229.883C908.505 229.883 901.865 226.367 902.841 224.805C903.232 224.219 905.185 224.121 907.529 224.414C911.63 225.098 911.728 225 912.705 221.582C913.584 218.75 913.486 217.773 912.119 216.113C910.556 214.16 910.459 214.16 906.845 215.82C902.06 218.164 900.791 216.895 902.158 211.621C903.037 208.398 903.72 207.52 906.162 207.031C909.384 206.445 909.775 204.98 907.627 202.148C905.673 199.609 905.771 198.926 908.115 198.145C910.263 197.461 910.849 193.75 908.896 193.75C908.212 193.848 906.552 194.434 905.185 195.215C903.818 195.996 901.474 196.582 899.814 196.68C897.861 196.68 896.298 197.559 894.834 199.316L892.685 201.953L882.627 198.828C874.13 196.094 872.373 195.801 871.494 196.973C861.24 210.938 854.404 218.652 850.4 220.703C847.666 222.07 845.029 222.754 843.759 222.363C842.002 221.973 840.537 222.852 836.826 226.465C831.748 231.445 829.697 231.836 822.47 228.809C819.736 227.734 819.15 227.734 817.587 229.102C815.341 231.152 808.603 230.176 799.716 226.562C792.197 223.438 779.111 222.363 777.158 224.609C775.302 226.855 768.857 226.27 764.56 223.535C761.142 221.387 759.58 221.094 751.474 221.094C743.759 221.094 741.611 221.484 738.681 223.145C736.728 224.316 735.068 225.098 734.873 224.902C734.775 224.707 733.603 223.047 732.334 221.289C730.38 218.359 729.697 218.066 727.158 218.555C724.912 219.043 721.201 217.969 712.607 214.648L701.181 210.254L699.423 204.785C696.884 196.68 692.197 193.652 678.232 190.82C672.275 189.648 666.416 188.477 665.244 188.184C663.486 187.793 662.802 188.281 662.021 190.332C660.947 193.066 660.459 193.066 653.33 190.039L649.814 188.574L653.232 187.402C656.455 186.328 656.552 186.23 654.404 185.547C652.841 184.961 652.353 184.277 652.744 183.008C653.525 180.469 647.568 179.102 645.908 181.445C644.248 183.594 643.955 183.496 641.611 179.59C640.244 177.246 638.877 176.172 637.412 176.172C635.263 176.172 635.263 176.074 638.095 173.828L641.025 171.484L637.412 170.801C634.384 170.215 633.701 169.727 633.701 167.773C633.701 166.016 633.212 165.43 631.552 165.43C629.502 165.43 629.502 165.43 631.357 163.379C633.115 161.328 633.115 161.328 630.478 159.375C629.013 158.301 627.841 156.836 627.841 156.152C627.841 155.469 626.279 154.297 624.423 153.711C621.298 152.734 621.005 152.246 621.005 149.023V145.41L602.841 137.598C584.873 129.883 584.677 129.688 578.916 123.242C574.326 118.066 573.154 116.113 573.154 113.477C573.154 109.082 568.271 101.758 563.584 99.0234C560.459 97.168 559.384 96.9727 555.771 97.8516C552.353 98.6328 551.377 98.5352 550.986 97.4609C550.693 96.6797 549.13 96.0938 547.275 96.0938C544.345 96.0938 543.857 95.6055 542.002 91.2109C540.537 87.8906 539.169 86.1328 537.607 85.7422C535.947 85.3516 535.459 84.668 535.752 83.0078C536.142 81.1523 535.459 80.4688 531.357 78.7109C525.498 76.1719 525.009 76.1719 521.591 77.9297C519.248 79.1992 518.369 79.1016 513.388 77.0508C510.361 75.7812 506.65 73.4375 505.087 71.7773C502.841 69.2383 501.084 68.457 495.322 67.3828L488.193 66.0156L485.849 71.1914Z" fill="white"/>
<path d="M136.533 355.078C135.361 357.422 133.798 359.668 133.115 360.254C131.552 361.426 132.431 366.504 134.287 367.285C135.068 367.578 135.654 368.555 135.654 369.531C135.654 371.484 137.802 373.535 142.294 375.781C145.322 377.344 145.517 377.734 145.322 382.227C145.127 386.523 145.419 387.402 148.837 391.211C150.888 393.555 153.427 395.703 154.404 396.094C155.38 396.484 156.162 397.266 156.162 397.852C156.162 398.438 155.478 398.438 154.209 397.656C152.744 396.68 152.06 396.68 151.084 397.656C150.107 398.633 150.205 399.512 151.572 401.953C153.134 404.688 153.134 405.176 151.865 406.445C149.716 408.594 144.931 406.348 141.513 401.563C138.584 397.461 138.095 397.656 136.044 403.32C135.166 405.859 135.263 406.543 136.63 407.422C137.607 408.008 138.584 409.668 138.877 411.23C140.341 418.652 140.732 420.117 141.709 423.535C142.392 425.781 143.271 427.051 144.052 426.758C146.005 425.977 147.08 428.125 147.666 433.984C148.056 437.012 148.935 439.844 149.814 440.43C150.791 441.211 151.279 443.164 151.279 446.582C151.279 451.465 151.181 451.66 149.13 451.074C147.861 450.684 146.494 450 146.005 449.512C143.857 447.559 142.49 448.73 142.49 452.441C142.49 458.398 143.564 462.109 145.908 464.453C149.521 468.164 150.498 470.703 148.837 472.07C146.689 473.828 146.982 478.613 149.228 479.883C152.06 481.348 154.209 481.055 154.209 479.102C154.306 476.855 159.091 482.617 159.091 484.961C159.091 485.84 160.263 487.5 161.826 488.574C164.951 491.016 165.732 491.699 168.759 494.922C171.396 497.852 176.669 498.535 176.669 495.898C176.669 494.238 169.345 486.719 167.783 486.719C165.927 486.719 158.798 478.516 156.748 474.121C155.576 471.68 154.209 468.945 153.72 468.164C153.232 467.383 152.744 463.867 152.646 460.449L152.451 454.199L156.064 458.008C158.115 460.059 160.068 462.695 160.459 463.867C161.044 465.723 167.978 471.094 169.931 471.094C170.419 471.094 170.81 470.41 170.81 469.629C170.81 468.848 172.373 467.578 174.228 466.797C179.209 464.648 178.427 462.5 173.056 463.184C172.275 463.281 171.787 462.109 171.787 460.059C171.787 458.008 171.201 456.445 170.419 456.152C169.638 455.859 167.88 453.613 166.416 451.172C164.072 447.266 163.877 446.289 164.853 443.555C166.318 439.258 166.22 438.672 163.388 434.473C161.728 431.934 161.435 430.957 162.412 431.348C164.169 432.031 164.365 431.445 163.974 425.195C163.877 422.754 163.095 419.727 162.314 418.457C161.337 416.895 161.044 415.039 161.435 412.598C161.826 410.645 162.314 407.52 162.607 405.664C163.584 399.121 163.974 397.852 165.439 397.852C167.002 397.852 167.392 394.336 166.123 392.188C165.634 391.504 163.877 391.113 162.021 391.211C158.505 391.504 158.798 391.992 149.814 373.633C146.591 367.09 146.396 366.211 146.982 360.352C147.568 354.59 147.47 354.102 145.322 352.539C141.318 349.805 138.877 350.488 136.533 355.078Z" fill="white"/>
<path d="M211.24 412.207C210.947 413.477 210.166 414.453 209.677 414.453C209.091 414.453 209.189 415.137 209.873 415.918C210.556 416.699 212.412 417.383 213.974 417.383C217.002 417.383 216.904 416.504 213.388 412.012C211.826 410.059 211.826 410.059 211.24 412.207Z" fill="white"/>
<path d="M207.041 420.117C206.357 421.484 205.283 421.875 202.841 421.484L199.619 421.094L203.33 424.707C207.236 428.613 207.724 429.297 205.478 428.516C204.502 428.125 204.013 428.516 204.013 429.492C204.013 430.664 203.427 430.957 201.572 430.469C200.205 430.176 198.447 430.176 197.47 430.469C196.103 431.055 196.396 431.641 199.228 434.57C202.158 437.598 203.037 437.988 206.943 437.793C212.314 437.5 214.365 438.574 220.322 444.531C225.595 449.805 230.869 452.344 231.748 450.098C232.627 447.656 225.693 438.379 218.662 432.617C211.63 426.855 210.752 425.391 213.291 423.242C214.658 422.07 214.658 421.777 213.193 420.215C211.045 417.871 208.31 417.871 207.041 420.117Z" fill="white"/>
<path d="M222.666 419.434L220.224 420.41L222.47 421.875C224.13 423.047 224.912 423.145 225.986 422.266C226.767 421.68 227.06 420.508 226.767 419.727C226.181 418.164 225.888 418.164 222.666 419.434Z" fill="white"/>
<path d="M137.802 432.227C136.435 433.594 136.24 436.914 137.509 436.914C138.388 436.914 139.951 432.129 139.267 431.445C139.072 431.25 138.388 431.641 137.802 432.227Z" fill="white"/>
<path d="M208.896 451.855C208.896 452.539 210.459 454.98 212.314 457.129C214.17 459.375 215.732 461.621 215.732 462.207C215.732 463.672 227.353 476.367 229.013 476.758C229.795 476.953 230.38 477.734 230.38 478.516C230.38 480.371 232.92 484.473 236.63 488.477C239.072 491.113 239.365 491.992 238.486 493.457C237.607 494.922 237.9 495.605 240.634 497.754C242.49 499.219 244.638 500.391 245.517 500.391C249.619 500.391 258.701 509.766 258.701 514.062C258.701 516.113 264.462 517.676 265.634 515.82C266.123 515.039 267.002 515.137 268.857 516.406C271.884 518.359 271.884 518.457 269.345 520.996C267.685 522.656 267.587 523.242 268.662 524.512C269.345 525.391 269.931 526.562 269.931 527.246C269.931 529.199 279.795 537.5 282.041 537.5C284.873 537.5 283.701 535.059 279.306 532.129C275.205 529.297 275.498 529.199 281.162 531.152C285.947 532.812 288.877 533.008 290.927 531.641C292.197 530.762 292.002 530.371 289.951 528.809C288.584 527.734 287.9 526.562 288.291 526.172C288.681 525.781 289.755 526.172 290.732 527.051C293.076 529.199 295.81 529.199 295.81 527.148C295.81 525 289.462 519.141 286.533 518.359C285.166 518.066 283.896 516.895 283.603 515.918C283.212 514.844 281.552 513.379 279.892 512.5C278.134 511.621 275.4 509.473 273.642 507.812C265.146 499.512 259.873 496.289 261.142 500.391C261.435 501.465 261.435 502.344 260.947 502.344C259.677 502.246 254.404 497.266 251.474 493.262C249.912 491.309 248.252 489.648 247.568 489.648C246.103 489.551 239.365 483.789 240.83 483.789C241.416 483.789 242.295 484.375 242.978 485.059C243.564 485.84 246.396 487.598 249.423 489.062C252.353 490.625 254.795 492.188 254.795 492.578C254.795 493.066 257.431 494.238 260.752 495.41L266.709 497.363L265.048 494.727C262.021 489.941 259.58 487.891 256.357 487.305C253.134 486.719 250.693 484.082 247.666 478.223C245.615 474.316 241.123 471.094 236.63 470.41C233.115 469.824 233.017 469.922 233.505 472.461L233.994 475.098L231.65 472.852C223.252 465.039 220.615 462.207 220.615 461.328C220.615 459.961 211.435 450.586 210.068 450.586C209.384 450.586 208.896 451.172 208.896 451.855Z" fill="white"/>
<path d="M128.525 456.25C127.158 457.813 125.888 460.547 125.595 462.891C125.205 466.504 125.4 466.992 128.232 468.945C129.99 470.117 131.65 471.094 132.041 471.094C133.408 471.094 132.627 468.359 130.771 466.699C128.33 464.551 128.232 460.547 130.576 459.668C133.701 458.496 134.775 455.078 132.334 454.199C131.65 453.906 129.892 454.883 128.525 456.25Z" fill="white"/>
<path d="M132.724 489.453C132.724 491.113 135.556 492.773 137.314 492.188C138.193 491.797 138.584 491.211 137.998 490.723C136.533 489.355 132.724 488.477 132.724 489.453Z" fill="white"/>
<path d="M214.267 514.063C214.755 516.797 214.56 518.555 213.681 519.629C212.509 520.898 212.802 521.484 215.244 523.438C219.052 526.465 223.544 526.563 223.544 523.73C223.544 522.656 222.861 521.094 222.08 520.313C221.201 519.336 220.908 517.871 221.298 516.016C221.982 512.305 220.224 510.156 216.513 510.156C213.681 510.156 213.584 510.254 214.267 514.063Z" fill="white"/>
<path d="M196.884 513.477C196.591 514.258 197.275 516.016 198.447 517.383C199.619 518.652 201.377 520.898 202.353 522.266C203.33 523.633 204.697 524.805 205.478 524.805C207.431 524.805 207.334 521.973 205.478 521.289C204.697 520.898 204.013 519.531 204.013 517.969C204.013 516.406 203.72 514.551 203.427 513.672C202.646 511.719 197.568 511.621 196.884 513.477Z" fill="white"/>
<path d="M183.505 524.219C183.505 525.781 187.998 529.492 192.978 532.031C197.763 534.375 198.642 533.887 195.419 530.664C193.759 529.004 192.099 527.734 191.709 527.734C191.318 527.734 189.56 526.66 187.802 525.293C184.091 522.461 183.505 522.363 183.505 524.219Z" fill="white"/>
<path d="M201.084 537.305C201.084 538.672 203.33 540.43 205.185 540.43C207.529 540.43 207.431 538.77 205.087 537.5C202.841 536.328 201.084 536.23 201.084 537.305Z" fill="white"/>
<path d="M211.142 537.988C209.384 539.844 209.58 540.82 211.826 542.871C212.9 543.848 213.779 544.141 213.779 543.555C213.779 542.871 215.146 542.383 216.709 542.383C218.759 542.383 219.638 542.871 219.638 544.043C219.638 546.777 224.716 556.055 226.181 556.055C227.451 556.055 227.451 555.664 225.986 553.516C224.228 550.684 224.521 549.316 226.474 551.66C227.158 552.441 228.232 553.125 228.916 553.125C229.599 553.125 230.673 553.809 231.455 554.688C232.724 556.25 236.728 555.859 238.681 554.004C239.853 552.734 236.435 549.902 234.58 550.586C232.529 551.367 225.498 547.07 222.275 542.969C220.615 540.918 217.88 538.574 216.025 537.891C212.216 536.23 212.607 536.23 211.142 537.988Z" fill="white"/>
<path d="M244.052 557.617C244.052 560.449 256.064 571.68 259.189 571.68C259.482 571.68 259.677 571.094 259.677 570.41C259.677 568.945 250.4 558.984 249.033 558.984C248.545 558.984 247.666 558.301 246.982 557.52C245.42 555.664 244.052 555.664 244.052 557.617Z" fill="white"/>
<path d="M229.404 562.012C229.404 562.695 230.283 564.258 231.455 565.43L233.408 567.481L230.673 567.578C229.209 567.578 226.962 566.992 225.791 566.211C224.521 565.43 223.545 565.137 223.545 565.625C223.545 567.09 231.552 571.777 233.017 571.191C235.459 570.313 252.353 586.816 258.896 596.582C265.439 606.152 276.67 618.359 283.603 623.34C287.705 626.27 287.998 626.367 287.998 624.512C287.998 623.145 287.412 622.461 286.24 622.461C285.263 622.461 283.408 621.387 282.138 620.02L279.892 617.578H282.041C283.212 617.578 285.654 618.652 287.412 620.02C289.17 621.387 290.83 622.461 291.123 622.461C291.416 622.461 291.611 621.191 291.709 619.531C291.709 617.578 291.22 616.504 290.048 616.113C289.072 615.82 285.752 613.379 282.724 610.742C279.599 608.008 276.767 605.859 276.279 605.859C275.888 605.859 274.619 604.395 273.545 602.539C272.275 600.391 270.322 598.828 268.076 598.047C264.462 596.875 259.677 590.527 258.31 585.059C258.017 583.594 257.236 582.422 256.748 582.422C256.162 582.422 255.771 581.738 255.771 580.957C255.771 580.078 255.185 579.492 254.599 579.688C252.548 580.078 245.712 576.367 245.322 574.512C245.029 573.535 243.564 572.266 242.002 571.68C240.439 570.996 239.17 569.922 239.17 569.238C239.17 568.652 237.509 566.797 235.556 565.234C230.38 561.133 229.404 560.645 229.404 562.012ZM279.209 614.648C280.087 616.211 279.99 616.406 278.72 616.016C277.939 615.625 277.255 614.844 277.255 614.063C277.255 612.109 277.939 612.402 279.209 614.648Z" fill="white"/>
<path d="M236.24 562.988C236.24 563.477 236.923 563.867 237.705 563.867C238.388 563.867 239.462 564.453 239.853 565.234C240.732 566.699 245.029 568.359 245.029 567.09C245.029 565.332 243.369 564.063 239.951 563.086C237.705 562.5 236.24 562.402 236.24 562.988Z" fill="white"/>
<path d="M256.748 563.281C256.748 565.234 261.142 568.164 262.998 567.48C263.877 567.09 264.853 567.969 265.634 569.824C266.22 571.484 267.88 573.535 269.248 574.414C270.517 575.293 274.814 579.199 278.72 583.203C284.482 589.16 286.337 590.43 288.095 589.941C290.341 589.355 291.806 590.527 298.837 599.121C305.283 606.934 315.341 616.602 317.099 616.602C317.978 616.602 319.834 617.48 321.201 618.555C322.568 619.629 325.107 620.508 326.865 620.508C331.357 620.508 330.673 618.066 325.107 614.16C322.666 612.5 320.127 609.766 319.345 608.008C318.564 606.348 317.002 604.59 315.927 604.297C314.755 604.004 312.314 602.539 310.459 601.074C308.603 599.609 305.087 597.168 302.744 595.703C297.177 592.188 287.412 582.617 286.24 579.492C285.556 577.832 283.994 576.66 281.357 575.879C279.111 575.195 276.181 573.535 274.619 572.07C267.197 565.234 263.681 563.086 262.607 564.746C262.119 565.625 261.63 565.723 261.24 564.941C260.849 564.355 259.677 563.379 258.603 562.891C257.138 562.109 256.748 562.207 256.748 563.281Z" fill="white"/>
<path d="M266.025 583.105C267.099 587.695 280.185 599.219 280.185 595.605C280.185 593.262 279.013 591.211 277.744 591.211C277.06 591.211 274.423 588.77 271.884 585.84C266.806 579.883 264.951 579.004 266.025 583.105Z" fill="white"/>
<path d="M296.787 621.387C296.787 621.875 297.763 622.656 299.033 622.949C300.205 623.34 302.939 625.293 305.087 627.344C312.802 634.57 317.294 636.426 312.607 630.469C311.044 628.516 309.482 625.684 309.189 624.316C308.603 622.168 308.115 621.875 305.576 622.266C303.818 622.559 302.646 622.266 302.646 621.582C302.646 620.996 301.377 620.508 299.716 620.508C298.154 620.508 296.787 620.898 296.787 621.387Z" fill="white"/>
<path d="M293.369 627.734C295.419 631.445 295.615 632.227 294.248 632.227C293.466 632.227 292.88 632.812 293.076 633.398C293.369 634.18 295.322 634.668 297.666 634.766C301.181 634.863 302.353 635.449 305.087 638.379C306.943 640.43 308.896 641.992 309.482 641.992C309.97 641.992 314.365 644.141 319.052 646.875C323.74 649.512 328.134 651.758 328.818 651.758C331.65 651.758 329.502 650 323.154 646.875C318.369 644.531 315.634 642.48 313.974 639.941C312.314 637.598 309.189 635.059 304.599 632.52C298.642 629.395 297.666 628.516 298.056 626.66C298.349 625.098 297.959 624.414 296.884 624.414C296.005 624.414 294.345 624.121 293.076 623.828L290.83 623.145L293.369 627.734Z" fill="white"/>
<path d="M348.544 631.738C348.544 633.301 353.623 639.941 355.283 640.527C356.259 640.82 357.627 642.383 358.31 643.945C359.287 646.289 360.166 646.875 362.314 646.875C363.877 646.875 365.146 646.582 365.146 646.289C365.146 644.531 360.947 639.258 359.287 638.77C358.212 638.477 356.845 636.914 356.259 635.254C355.38 632.91 354.697 632.324 353.427 632.715C352.451 633.008 351.377 632.812 350.986 632.227C350.4 631.25 348.544 630.859 348.544 631.738Z" fill="white"/>
<path d="M385.654 653.418C385.654 654.59 386.337 655.664 387.119 655.957C389.365 656.836 389.658 655.078 387.607 653.223C385.752 651.562 385.654 651.562 385.654 653.418Z" fill="white"/>
<path d="M381.162 655.273C381.455 656.152 381.748 657.227 381.748 657.715C381.748 658.203 382.431 658.594 383.212 658.594C384.97 658.594 384.97 658.105 383.701 655.566C382.431 653.32 380.283 653.027 381.162 655.273Z" fill="white"/>
<path d="M369.443 659.961C370.81 661.816 371.982 664.062 371.982 664.844C371.982 665.723 372.861 666.406 373.935 666.406C376.962 666.406 376.377 662.891 372.763 659.57C368.271 655.566 366.22 655.762 369.443 659.961Z" fill="white"/>
<path d="M377.548 659.961C377.255 660.742 378.33 661.816 380.38 662.793C384.873 665.039 384.677 662.109 380.087 659.766C378.525 658.887 377.939 658.887 377.548 659.961Z" fill="white"/>
<path d="M393.173 659.961C391.513 661.23 391.709 661.523 395.127 664.355C397.959 666.699 398.935 667.09 399.13 666.016C399.326 665.137 398.935 663.965 398.349 663.281C397.763 662.598 396.787 661.23 396.103 660.352C395.127 658.887 394.638 658.887 393.173 659.961Z" fill="white"/>
<path d="M365.146 662.988C367.49 665.43 370.029 666.211 370.029 664.453C370.029 663.574 365.048 660.547 363.584 660.547C363.193 660.547 363.877 661.621 365.146 662.988Z" fill="white"/>
<path d="M354.99 666.895C355.38 667.676 356.357 668.359 357.236 668.359C358.212 668.359 360.166 669.629 361.728 671.289C364.365 674.023 370.908 676.074 373.935 675C375.498 674.512 365.244 667.676 362.021 666.992C360.459 666.699 358.212 666.211 356.845 665.918C354.99 665.527 354.599 665.723 354.99 666.895Z" fill="white"/>
<path d="M434.287 712.109C432.724 712.305 431.552 712.793 431.552 713.281C431.552 714.16 437.314 715.137 437.9 714.258C438.681 712.988 436.826 711.816 434.287 712.109Z" fill="white"/>
<path d="M442.88 713.867C439.755 717.09 439.658 718.164 442.685 718.164C444.736 718.164 450.986 716.406 451.962 715.625C452.841 714.844 448.74 711.328 447.177 711.328C446.201 711.328 444.345 712.5 442.88 713.867Z" fill="white"/>
<path d="M458.212 720.801C455.576 721.289 455.673 721.289 457.041 724.219C458.017 726.562 465.927 730.176 470.322 730.371C471.396 730.371 473.74 731.836 475.302 733.594C477.158 735.547 479.209 736.719 480.771 736.719C482.236 736.719 484.189 737.305 485.263 737.891C488.486 739.941 489.755 737.5 487.021 734.473C478.037 724.414 478.232 724.609 476.669 726.563C475.302 728.32 475.302 728.32 475.791 726.172C476.181 724.512 475.888 724.023 474.228 724.023C473.154 724.023 471.494 723.34 470.615 722.559C468.857 720.996 461.826 720.02 458.212 720.801Z" fill="white"/>
<path d="M495.029 726.27C495.029 727.051 495.712 728.906 496.494 730.469C497.763 732.91 497.763 733.398 496.494 734.766C495.712 735.645 495.322 736.621 495.615 737.012C495.908 737.305 495.908 738.086 495.517 738.672C495.029 739.453 494.443 739.453 493.466 738.574C492.685 737.988 491.708 737.695 491.416 738.086C489.951 739.453 492.88 742.09 497.373 743.555C499.912 744.434 503.427 746.484 505.185 748.145C507.919 750.879 509.58 751.465 518.173 752.93C526.572 754.297 530.087 754.395 543.466 753.516C562.314 752.148 566.318 751.562 567.001 749.805C567.294 749.023 567.978 748.438 568.466 748.438C570.029 748.438 572.08 745.312 572.177 742.969C572.177 741.406 571.005 740.234 568.076 738.672C565.732 737.402 562.998 736.328 561.923 736.23C560.849 736.133 559.677 735.938 559.287 735.84C558.798 735.84 558.505 735.156 558.505 734.375C558.505 732.422 549.228 731.152 547.275 732.812C546.494 733.496 545.81 733.594 545.81 733.105C545.81 731.055 525.4 727.441 508.701 726.465C505.185 726.367 500.693 725.879 498.74 725.488C495.81 724.902 495.029 725.098 495.029 726.27Z" fill="white"/>
<path d="M512.802 759.473C510.166 760.84 510.556 762.598 513.486 762.5C514.56 762.5 515.537 762.793 515.537 763.281C515.537 763.77 516.708 765.234 518.076 766.504L520.712 768.945H518.173C516.806 768.945 515.537 768.555 515.341 768.164C515.244 767.773 513.681 766.406 512.021 765.332C509.287 763.379 508.408 763.281 503.72 764.16C500.791 764.648 495.224 765.332 491.318 765.723C484.482 766.211 484.287 766.309 485.849 768.066C486.728 769.141 488.095 769.922 488.876 769.922C489.658 769.922 491.904 770.801 494.052 771.875C496.201 772.949 498.935 773.828 500.302 773.828C501.572 773.828 504.794 774.902 507.431 776.172C514.658 779.688 531.943 782.715 541.416 782.031C546.298 781.641 553.623 782.031 560.947 783.008C574.716 784.863 608.115 785.156 616.416 783.496C624.912 781.738 622.08 780.078 609.384 779.297C603.525 778.906 597.08 778.125 595.029 777.539C589.755 776.172 576.572 775 557.529 774.219L541.416 773.633L538.193 770.117C536.435 768.066 534.58 765.43 533.994 764.16C533.212 762.109 532.626 761.914 529.208 762.5C526.572 762.891 525.302 762.695 525.302 762.012C525.302 761.426 524.716 761.133 524.13 761.426C523.447 761.719 522.08 762.207 521.201 762.598C520.029 763.086 519.541 762.598 519.248 760.938C518.955 758.398 516.318 757.812 512.802 759.473Z" fill="white"/>
<path d="M480.087 771.289C479.794 772.07 480.869 773.242 482.919 774.219C487.119 776.172 490.146 776.27 490.146 774.316C490.146 773.535 489.267 772.852 488.193 772.852C487.021 772.852 484.873 772.168 483.31 771.387C481.064 770.215 480.478 770.215 480.087 771.289Z" fill="white"/>
<path d="M436.923 791.406C430.673 794.238 428.33 799.512 433.896 798.535C435.849 798.145 436.435 798.438 436.435 799.805C436.435 800.684 435.752 802.246 434.873 803.223C432.138 806.25 434.091 807.324 441.416 806.641C445.029 806.348 449.228 805.566 450.595 805.078C451.962 804.492 454.306 804.102 455.771 804.004C457.627 804.004 459.287 802.832 461.63 800C466.806 793.457 465.634 791.113 458.115 793.359C455.478 794.043 454.892 793.945 455.283 792.969C455.673 792.09 454.794 791.406 452.841 791.016C448.544 790.137 439.169 790.43 436.923 791.406Z" fill="white"/>
<path d="M592.099 800.684C593.271 803.516 593.369 804.102 592.294 804.102C591.123 804.102 589.267 806.934 589.951 807.52C590.146 807.617 593.759 808.887 598.056 810.352C604.599 812.5 607.627 812.891 616.611 812.891C627.353 812.891 627.353 812.891 632.138 816.309C634.775 818.164 638.486 820.215 640.439 820.801C642.392 821.484 645.322 823.047 646.982 824.316C649.326 826.074 651.279 826.562 655.478 826.562C660.166 826.562 661.142 826.855 662.9 829.199C664.072 830.664 664.755 832.52 664.462 833.496C663.974 834.961 666.709 836.133 684.189 841.797C695.322 845.508 705.673 849.219 707.138 850.195C708.505 851.172 710.752 851.953 712.021 851.953C713.681 851.953 714.853 852.734 715.537 854.395C716.806 857.227 718.662 857.617 718.662 855.078C718.662 854.102 717.099 851.855 715.244 850C713.388 848.242 712.021 846.582 712.216 846.289C712.802 845.703 717.002 848.047 718.955 850.098C721.201 852.539 723.252 852.441 724.033 850C724.423 848.926 725.107 848.34 725.693 848.633C726.279 849.023 728.037 849.316 729.502 849.219C731.259 849.219 732.334 849.609 732.334 850.488C732.334 852.637 736.337 854.98 737.9 853.711C738.877 852.93 739.169 853.418 739.169 855.957C739.169 859.082 739.755 859.668 748.74 865.234C761.533 873.34 764.267 874.707 764.853 873.145C765.048 872.461 765.634 872.852 766.416 874.219C767.294 875.781 768.466 876.367 771.201 876.465C773.349 876.562 774.033 876.758 772.861 877.051C767.49 878.418 766.416 879.199 767.392 881.055C768.076 882.422 769.931 883.105 773.935 883.496C777.548 883.887 780.673 884.961 783.115 886.621C786.142 888.672 787.216 888.965 788.779 888.184C790.244 887.402 791.123 887.598 792.783 889.453C795.029 891.895 795.517 894.531 793.662 895.215C790.732 896.191 802.158 905.566 814.853 912.598C819.15 914.941 824.228 918.262 826.181 920.02C828.134 921.777 830.673 923.242 831.748 923.242C832.919 923.242 835.752 925.488 838.584 928.613C841.318 931.543 843.759 933.984 844.052 933.984C844.345 933.984 844.638 933.008 844.638 931.738C844.638 930.469 845.127 929.004 845.712 928.418C846.494 927.637 844.248 925.488 837.9 920.703C832.334 916.406 829.306 913.379 829.502 912.5C829.697 911.719 830.185 909.082 830.478 906.641C831.064 902.441 830.869 901.953 826.084 896.387C823.349 893.164 820.127 890.234 818.955 889.844C814.755 888.672 810.361 889.062 806.455 891.016C802.548 893.066 800.693 892.969 800.693 890.625C800.693 889.844 797.47 886.719 793.662 883.594C789.755 880.469 781.455 873.73 775.302 868.555C761.24 856.738 751.669 850.391 745.81 848.926C741.904 847.949 741.123 847.461 741.123 845.508C741.123 843.945 740.244 842.773 738.291 841.797C736.044 840.625 735.459 839.453 734.873 835.645C733.798 827.734 726.767 822.656 723.447 827.539C722.177 829.395 721.884 829.395 716.709 828.027C709.58 826.074 707.724 826.172 703.525 828.711L699.912 830.762L694.541 828.125C687.412 824.609 686.826 825.586 693.662 829.59C696.689 831.348 699.326 833.398 699.521 834.082C700.4 836.133 698.056 835.547 696.201 833.105C695.224 831.934 691.611 829.883 688.095 828.613C684.58 827.441 681.455 825.781 681.162 825C680.869 824.219 679.697 823.633 678.623 823.633C676.865 823.633 676.767 823.926 677.744 825.684C678.72 827.637 678.623 827.734 676.572 827.051C675.302 826.66 672.568 826.172 670.615 825.879C667.49 825.488 666.904 825 666.904 823.047C666.904 820.41 663.779 816.797 661.533 816.797C660.752 816.797 654.99 814.355 648.74 811.426C642.49 808.496 636.24 806.055 634.97 806.055C633.701 806.055 631.357 805.371 629.697 804.59C627.353 803.32 624.716 803.223 615.146 803.711L603.427 804.395L598.935 800.781C596.396 798.828 593.466 797.266 592.49 797.266C590.83 797.266 590.83 797.461 592.099 800.684Z" fill="white"/>
<path d="M528.916 809.668C526.377 810.352 527.451 812.402 530.38 812.5C531.65 812.5 533.408 813.086 534.287 813.867C535.556 815.137 535.361 815.625 532.431 818.555C530.576 820.313 529.209 822.266 529.502 822.949C529.697 823.633 531.943 824.121 535.166 824.219C538.095 824.316 541.806 824.902 543.369 825.488C545.029 826.172 550.107 827.148 554.892 827.637C559.58 828.125 564.169 829.004 565.146 829.59C567.197 830.859 574.912 828.809 580.869 825.488C584.482 823.34 584.58 823.438 602.06 826.758C611.923 828.711 613.291 828.809 618.076 827.441C624.13 825.879 625.302 824.121 621.005 823.145C619.15 822.754 617.49 821.484 616.611 819.727C615.146 816.797 610.849 814.844 605.966 814.844C604.306 814.844 601.767 814.258 600.302 813.477C597.08 811.816 583.115 812.305 574.423 814.551C566.416 816.602 551.474 815.137 545.517 811.719C544.345 811.035 542.294 810.352 540.927 810.254C539.56 810.059 536.728 809.766 534.58 809.57C532.431 809.277 529.892 809.375 528.916 809.668ZM539.658 816.406C539.365 816.699 538.486 816.797 537.802 816.504C537.021 816.211 537.314 815.918 538.388 815.918C539.462 815.82 540.048 816.113 539.658 816.406Z" fill="white"/>
<path d="M649.716 849.512C648.74 850.293 647.08 850.977 646.201 850.977C644.15 850.977 643.955 851.953 645.712 854.102C646.884 855.762 654.99 858.398 655.869 857.422C656.162 857.129 657.627 857.52 659.189 858.301C660.654 859.082 663.291 859.766 664.951 859.766C666.611 859.766 669.15 860.645 670.615 861.621C672.373 862.891 677.451 864.258 685.654 865.527C693.759 866.797 699.619 868.262 702.841 869.922C706.943 871.973 708.212 872.266 711.142 871.387C716.123 870.02 716.318 868.945 712.119 867.578C710.068 866.895 707.041 865.625 705.283 864.551C703.525 863.574 699.521 862.5 696.201 862.109C692.88 861.719 690.341 861.035 690.341 860.352C690.341 859.766 688.291 858.691 685.752 858.105C683.115 857.422 676.865 855.762 671.884 854.395C666.806 853.027 660.849 851.953 658.798 851.953C655.673 851.953 655.185 851.758 656.064 850.586C656.943 849.512 656.845 849.121 655.576 848.633C653.232 847.754 651.865 847.949 649.716 849.512Z" fill="white"/>
<path d="M556.455 855.469C555.478 856.738 557.724 859.18 558.798 858.105C559.189 857.812 559.482 858.203 559.482 858.984C559.482 859.863 558.994 860.742 558.31 860.938C557.627 861.23 558.017 862.207 559.384 863.574C560.947 865.137 562.216 865.625 563.681 865.137C568.076 863.77 571.201 863.477 571.201 864.453C571.201 866.504 575.107 864.355 577.06 861.23C580.673 855.371 580.283 855.078 568.173 854.688C561.044 854.492 557.041 854.785 556.455 855.469Z" fill="white"/>
<circle id="157" cx="435" cy="213" fill="#5CE50D"/>
<circle id="158" cx="500" cy="698" fill="#E52A0D"/>
<circle id="159" cx="172" cy="321" fill="#E52A0D"/>
<circle id="931" cx="745" cy="855" fill="#E52A0D"/>
</svg>
