<svg width="1000" height="1000" viewBox="0 0 1000 1000" fill="none" xmlns="http://www.w3.org/2000/svg">
<path fill-rule="evenodd" clip-rule="evenodd" d="M577.818 174.809C579.088 172.758 581.431 172.27 582.994 173.735C583.482 174.321 585.435 174.223 587.974 173.539C591.588 172.661 593.053 172.758 598.814 174.614C602.427 175.786 607.408 177.153 609.752 177.641C612.193 178.129 616.588 179.497 619.517 180.668C622.447 181.84 626.353 183.11 628.111 183.305C629.869 183.598 631.529 184.184 631.822 184.672C632.115 185.161 633.287 185.551 634.556 185.551C635.826 185.551 637.584 186.43 638.56 187.504C639.537 188.578 640.806 189.36 641.392 189.164C641.881 188.969 643.345 189.946 644.517 191.313C646.763 193.95 649.889 194.243 658.775 192.875C662.681 192.289 663.365 192.387 664.341 194.145C664.927 195.219 666.978 197.075 668.834 198.247C670.787 199.418 672.154 200.59 671.861 200.883C671.667 201.177 674.596 204.204 678.404 207.622C684.458 213.188 685.533 213.774 686.802 212.504C688.072 211.235 688.365 211.332 689.537 213.579C690.22 214.946 690.806 216.606 690.806 217.289C690.807 218.071 692.174 219.536 693.736 220.707C696.861 222.954 697.545 222.27 695.201 219.145C692.857 216.02 693.541 215.141 696.177 218.071C699.205 221.196 700.181 221.391 701.744 218.754C703.209 216.411 704.478 216.215 704.478 218.266C704.478 221 712.29 223.051 713.756 220.707C714.146 220.122 715.611 221 717.271 222.661C722.154 227.446 728.404 227.934 730.552 223.637L731.822 221.196V223.93C731.822 226.078 732.994 227.446 738.267 231.157C743.052 234.672 745.103 236.918 746.763 240.434C747.935 242.973 749.302 245.121 749.693 245.122C750.181 245.122 750.181 245.61 749.791 246.196C749.4 246.977 748.912 246.879 748.326 246C747.74 244.926 747.252 244.926 746.373 245.805C745.494 246.684 745.592 248.149 746.47 252.055C747.935 258.012 751.353 262.016 754.576 261.528C756.431 261.235 756.724 260.649 756.724 256.352C756.724 253.618 757.115 250.884 757.603 250.2C758.091 249.321 757.701 248.735 756.236 248.344C754.185 247.758 754.088 247.66 755.65 246.489C757.213 245.414 757.213 245.121 755.748 242.192L754.185 239.164L756.627 240.727C758.677 242.094 759.557 242.192 762.486 241.118C765.22 240.141 766.685 240.141 769.908 241.118C774.498 242.485 775.767 241.996 775.767 238.872C775.767 237.016 776.158 236.723 778.111 237.016C780.162 237.407 780.455 237.211 779.966 235.454C779.381 233.012 781.92 231.645 784.068 233.403C785.24 234.379 786.51 234.379 789.83 233.5C797.935 231.45 798.424 231.743 797.642 237.504C797.349 240.336 796.568 243.168 795.884 243.657C794.713 244.731 792.369 248.637 792.369 249.516C792.369 249.809 792.857 250.004 793.345 250.004C793.931 250.004 794.322 249.223 794.322 248.344C794.322 247.075 794.615 246.977 795.494 247.856C796.959 249.321 802.623 249.321 804.966 247.856C806.431 246.977 807.701 246.977 810.338 247.758C814.146 248.93 815.806 247.954 813.853 245.61C812.877 244.438 813.072 244.145 814.927 244.145C817.955 244.145 819.029 245.024 820.494 248.344C822.056 251.86 829.283 255.278 833.384 254.399C835.435 253.911 836.314 254.106 836.314 254.985C836.314 255.766 836.9 255.668 838.072 254.594C840.025 252.836 845.103 252.348 845.103 253.911C845.103 254.399 844.713 254.887 844.224 254.887C843.736 254.887 842.955 255.766 842.662 256.84C842.271 258.207 841.197 258.793 839.244 258.793C836.998 258.793 836.607 259.086 836.998 260.747C837.291 261.821 837.877 262.992 838.365 263.286C839.634 264.067 843.15 261.821 843.15 260.258C843.15 259.575 844.224 257.719 845.494 256.157C846.666 254.692 847.935 252.934 848.131 252.25C849.009 249.516 851.06 252.934 851.451 257.817L851.939 262.993L848.619 262.407C846.178 262.016 844.81 262.309 843.736 263.579C842.369 265.043 842.467 265.336 845.103 266.411C847.447 267.485 848.326 267.485 850.181 266.411C852.33 265.141 857.506 264.555 864.927 264.555L868.541 264.653V259.379C868.541 253.52 869.322 252.543 874.693 251.567C877.916 250.981 878.697 251.274 881.334 253.813C883.97 256.45 884.263 256.547 885.24 255.082C886.216 253.618 887.193 253.422 892.369 254.106C895.591 254.497 900.963 255.473 904.185 256.254C907.408 257.133 911.412 257.817 913.072 257.817C914.732 257.817 916.685 258.403 917.271 259.184C918.541 260.747 917.564 266.704 916.002 266.508C913.658 266.215 912.388 266.704 910.533 268.559C908.873 270.219 908.287 270.317 905.552 269.145C902.33 267.778 898.814 268.071 898.814 269.633C898.814 270.219 899.791 270.903 900.963 271.391C902.33 271.879 902.623 272.368 901.939 272.856C901.256 273.247 900.767 274.028 900.767 274.516C900.767 275.102 901.256 275.199 901.841 274.907C902.427 274.516 903.892 275.2 905.162 276.372C907.505 278.52 907.603 278.52 910.142 276.86C911.607 275.883 914.83 275.004 917.369 274.809C921.47 274.516 922.154 274.809 924.009 277.348C925.181 278.911 926.158 280.864 926.158 281.743C926.158 284.77 928.599 282.524 928.697 279.497C928.697 277.739 929.478 275.786 930.455 275.102C931.431 274.418 931.92 273.247 931.529 272.27C930.845 270.707 924.498 267.582 921.763 267.582C920.689 267.582 920.299 266.41 920.299 263.188C920.299 258.891 920.396 258.793 923.326 258.793C924.888 258.793 929.478 259.282 933.287 259.77C947.252 261.821 946.666 261.625 946.666 264.262C946.666 268.168 950.279 274.223 952.72 274.614C955.943 275.004 957.506 282.329 954.966 285.161C953.502 286.821 953.404 287.602 954.478 292.192C955.162 295.024 956.236 298.149 956.822 299.028C957.603 300.297 957.506 301.079 956.627 301.957C954.771 303.813 955.26 306.352 957.603 308.11C959.459 309.379 959.654 309.868 958.677 311.43C957.701 312.992 957.994 313.676 960.435 316.02C961.998 317.485 963.267 319.633 963.267 320.707C963.267 321.879 964.146 323.344 965.22 324.028C966.295 324.711 967.174 326.176 967.174 327.348C967.174 328.52 968.345 330.668 969.81 332.231C972.252 334.77 972.349 335.161 971.177 338.872C970.201 342.289 970.201 343.559 971.666 347.465C972.642 350.004 974.107 352.934 975.084 354.008C976.841 355.961 976.841 356.254 973.912 362.309C971.763 366.801 971.177 369.047 971.861 370.122C972.447 371.098 972.252 372.27 971.275 373.832C970.006 375.785 970.006 376.372 971.666 379.399C973.814 383.403 973.131 384.282 968.248 383.891C965.318 383.696 963.951 384.184 962.291 385.942C961.119 387.211 959.263 388.188 958.091 388.188C956.92 388.188 955.552 389.165 954.869 390.532C953.404 393.461 951.744 394.536 948.521 394.536C945.201 394.536 939.83 396.391 939.83 397.563C939.83 398.149 941.197 399.028 942.759 399.516C944.517 400.2 945.689 401.274 945.689 402.348C945.689 403.325 946.861 404.79 948.228 405.766C950.279 407.036 950.572 407.817 950.084 410.161C949.693 411.918 949.986 413.774 950.963 415.239C953.013 418.364 959.849 422.172 962.095 421.489C963.56 421 964.537 421.977 966.49 425.688C969.908 431.84 971.373 433.012 975.084 432.231C976.939 431.84 978.795 432.231 980.259 433.11C981.529 433.989 983.287 434.379 984.166 433.989C985.045 433.696 986.314 433.793 986.998 434.379C987.584 434.868 989.244 435.551 990.611 435.844C991.978 436.235 994.615 437.993 996.47 439.946L999.888 443.461L997.056 445.707C994.81 447.368 994.322 448.442 994.81 450.2C995.201 451.664 994.713 453.618 993.541 455.571C991.685 458.598 991.197 464.457 992.662 466.411C993.638 467.582 988.658 477.446 986.119 479.594C984.849 480.571 984.263 480.571 982.603 479.594C980.943 478.52 980.357 478.715 978.502 480.375C975.963 482.817 974.986 482.914 974.986 480.961C974.986 479.301 970.494 478.911 968.15 480.473C966.978 481.254 966.881 481.743 967.955 483.403C969.517 486.039 969.42 487.309 967.466 489.457C966.099 491.02 966.002 491.704 966.978 493.266C967.955 494.829 967.955 495.122 966.588 495.122C965.708 495.122 963.365 496.489 961.412 498.051C959.459 499.711 957.31 501.469 956.627 502.055C955.943 502.543 954.966 502.739 954.381 502.348C953.794 502.055 951.939 503.032 950.279 504.594C948.521 506.157 945.982 508.207 944.517 509.086C942.955 510.063 941.783 511.43 941.783 512.114C941.783 512.797 941.099 513.969 940.318 514.653C939.439 515.434 939.049 516.704 939.439 518.168C940.123 520.903 938.267 521.391 936.412 518.95C935.338 517.387 935.045 517.387 932.115 519.145C929.478 520.707 928.697 520.805 927.037 519.731C924.302 517.973 918.638 520.61 917.759 523.93C917.271 525.883 916.783 526.176 914.439 525.688C912.096 525.297 911.412 525.59 910.142 528.129C909.263 529.789 908.58 532.231 908.58 533.5C908.58 534.868 907.896 536.43 907.115 537.114C904.967 538.871 905.26 541.996 907.603 541.997C908.677 541.997 909.556 541.313 909.556 540.532C909.556 539.751 910.045 539.067 910.533 539.067C911.119 539.067 911.802 539.75 912.095 540.532C913.072 542.875 915.416 542.192 916.685 539.262C917.466 537.504 918.443 536.723 919.615 536.918C920.591 537.114 921.568 536.528 921.959 535.454C922.349 534.477 923.033 533.403 923.619 533.012C925.572 531.645 928.892 532.231 929.283 533.793C929.576 535.649 936.607 538.09 941.49 538.09C944.322 538.09 944.615 538.383 944.615 541.215C944.615 542.973 944.908 546.977 945.299 550.2L945.884 555.864L951.646 558.5C956.529 560.649 957.31 561.332 956.92 563.09C956.334 565.825 960.044 569.437 961.314 567.387C962.779 565.043 963.267 566.801 962.291 570.414C961.119 574.321 961.9 578.911 964.049 581.352C965.318 582.719 965.318 583.403 964.244 585.356C963.56 586.723 963.267 588.774 963.658 590.141C963.951 591.606 963.56 593.852 962.584 595.805C961.51 597.856 960.924 601.469 960.826 605.473C960.826 610.16 960.338 612.211 959.166 613.481C958.189 614.458 957.408 616.313 957.408 617.582C957.408 619.438 956.529 620.219 952.818 621.586C946.764 623.93 943.736 625.883 943.736 627.543C943.736 628.325 942.271 629.497 940.416 630.278C935.924 632.133 932.994 637.895 932.994 644.829C932.994 647.66 933.482 650.492 934.068 651.079C935.826 652.836 934.166 654.301 931.041 653.618C928.892 653.227 928.013 653.52 927.525 654.692C926.939 656.352 924.205 656.938 924.205 655.375C924.205 654.301 918.834 652.348 915.806 652.348C914.537 652.348 913.072 653.227 912.486 654.301C911.119 656.84 908.775 656.84 908.384 654.204C907.994 651.567 904.674 649.321 903.99 651.176C903.697 651.957 902.916 651.664 901.744 650.2C899.986 648.051 899.986 648.051 896.666 649.809C893.932 651.274 892.955 651.469 891.099 650.395C889.83 649.809 888.658 649.516 888.365 649.809C887.974 650.102 887.193 649.516 886.412 648.442C884.459 645.708 880.845 646 877.037 649.321C875.279 650.883 872.349 652.543 870.494 653.032C866.1 654.204 864.439 656.84 867.076 658.793C868.638 659.965 868.736 660.356 867.662 661.039C865.514 662.406 864.341 661.528 860.826 656.157C856.92 650.102 853.795 648.442 850.181 650.493C848.716 651.274 846.666 653.618 845.689 655.668C843.834 659.379 843.834 659.477 845.689 662.993C846.666 664.848 848.814 667.875 850.377 669.633C852.916 672.661 853.013 673.051 851.646 675.102C850.279 677.25 849.595 680.278 849.888 683.403C849.986 684.086 851.646 685.356 853.599 686.235C855.65 687.016 858.58 688.774 860.045 690.043C863.267 692.68 865.123 692.973 866.295 690.922C866.783 690.239 868.931 689.262 871.08 688.872C874.693 688.383 875.279 688.579 877.134 690.922C878.599 692.778 879.283 695.024 879.283 697.758C879.283 701.371 879.771 702.446 882.701 704.985C886.314 708.11 887.974 708.598 889.634 707.133C890.611 706.157 904.674 704.789 904.674 705.571C904.673 705.961 903.404 706.645 901.841 707.133C899.498 707.914 898.814 708.891 898.326 711.918C897.642 716.215 898.912 719.34 901.744 720.219C902.818 720.512 903.697 721.391 903.697 722.075C903.698 723.54 914.146 728.52 917.076 728.52C919.42 728.52 925.572 734.77 924.888 736.528C924.107 738.871 926.158 741.118 930.064 742.192C932.115 742.778 935.631 744.926 937.877 747.075C940.318 749.418 942.857 750.981 944.224 750.981C945.494 750.981 946.861 751.469 947.252 752.055C948.521 754.203 958.579 757.914 961.412 757.329C963.56 756.84 964.341 757.133 965.22 758.793C966.099 760.453 966.978 760.844 969.127 760.454C970.591 760.063 972.056 760.161 972.349 760.454C972.642 760.747 971.666 763.286 970.006 766.02C968.443 768.852 967.174 772.075 967.174 773.149C967.173 774.223 966.49 775.688 965.709 776.372C964.927 777.055 964.244 778.911 964.244 780.473C964.244 782.426 963.658 783.5 962.584 783.891C960.24 784.478 954.185 794.829 954.771 797.075C955.064 798.149 954.576 799.223 953.502 799.809C952.525 800.297 951.451 802.153 951.06 803.715C950.67 805.375 949.302 807.817 947.935 809.184C941.588 815.532 940.416 825.395 945.787 828.52C947.349 829.399 948.619 830.766 948.619 831.45C948.619 832.133 949.791 833.696 951.158 835.063C954.966 838.579 956.822 842.582 955.455 844.243C953.795 846.293 954.576 851.176 956.627 850.786C957.994 850.59 958.189 851.274 957.701 856.157C957.506 859.282 957.213 862.993 957.115 864.457C957.017 865.922 955.943 867.973 954.771 869.145C953.502 870.219 952.525 871.782 952.525 872.563C952.525 873.344 952.232 874.028 951.939 874.028C951.644 874.026 947.25 870.609 942.174 866.508C934.361 860.161 932.994 858.598 932.994 856.157C932.994 853.813 931.138 851.567 922.838 843.364C917.271 837.993 910.142 831.743 907.017 829.594C903.99 827.446 899.693 823.832 897.545 821.586C893.15 816.899 893.345 816.899 882.31 815.043C877.427 814.164 872.935 812.797 871.373 811.528C868.345 809.379 866.002 808.989 865.416 810.747C864.439 813.48 856.236 808.5 853.306 803.227C851.841 800.493 840.025 799.516 832.017 801.469C828.697 802.25 821.47 803.032 815.806 803.129C809.849 803.325 802.72 804.204 798.814 805.18C792.271 806.938 791.685 806.938 783.189 805.278C775.181 803.715 773.716 803.618 768.248 804.887C762.584 806.254 762.095 806.254 759.068 804.301C756.334 802.543 754.283 802.348 744.615 802.25C738.365 802.25 728.502 802.836 722.545 803.618C716.685 804.301 709.654 805.082 706.92 805.375C704.283 805.668 701.549 806.254 700.865 806.84C700.181 807.426 699.107 807.328 697.935 806.547C696.47 805.668 695.396 805.864 692.271 807.524C690.123 808.598 687.974 809.575 687.486 809.575C686.997 809.574 684.947 808.012 682.896 806.157C678.697 802.446 675.377 801.86 672.935 804.399C671.666 805.961 671.568 806.84 672.642 810.942C673.326 813.481 674.595 816.02 675.474 816.606C678.013 817.973 677.525 821.977 674.595 823.93C672.154 825.492 671.763 825.493 667.466 823.832C665.025 822.856 661.9 822.075 660.533 822.075C659.165 822.075 654.673 821.098 650.474 819.731C643.443 817.583 642.564 817.485 639.439 818.852C637.584 819.633 634.752 820.024 633.287 819.731C631.724 819.438 629.478 819.731 628.209 820.414C626.939 821 624.498 821.586 622.74 821.489C620.982 821.391 619.322 821.782 619.029 822.27C618.052 823.735 612.193 823.442 607.701 821.586C603.697 820.024 603.599 820.024 601.841 822.172C600.084 824.321 600.084 824.516 602.427 827.543C603.795 829.301 604.576 830.961 604.283 831.352C603.989 831.645 601.939 831.254 599.791 830.473C594.42 828.618 593.443 828.715 592.759 831.547C592.271 833.598 591.588 833.989 588.756 833.989C586.998 833.989 584.361 834.379 582.994 834.965C581.138 835.649 579.38 835.453 576.158 834.282C572.447 832.817 571.373 832.817 569.322 833.891C567.467 834.965 566.197 834.965 564.146 834.184C562.681 833.598 559.654 832.914 557.506 832.524C555.357 832.133 552.72 831.352 551.646 830.668C548.033 828.422 540.123 826.176 535.533 826.176C529.576 826.176 520.103 823.637 516.685 821.196C514.244 819.438 513.463 819.34 511.119 820.317C509.459 821 506.04 821.293 502.623 820.903C482.408 819.047 473.033 817.192 462.779 812.7C458.092 810.649 454.576 810.063 444.713 809.477C437.974 808.989 430.455 808.696 428.013 808.696C423.912 808.696 423.423 808.403 422.252 805.766C420.298 800.883 416.392 800.786 404.088 804.887C399.205 806.45 397.642 806.645 395.884 805.668C394.224 804.79 393.443 804.79 392.076 806.059C391.099 806.938 389.537 807.622 388.56 807.622C385.924 807.621 387.389 802.153 391.002 798.832C394.224 795.805 394.81 792.973 392.369 792.973C389.732 792.973 383.776 788.872 385.24 788.09C387.291 786.723 385.435 784.184 382.31 784.184C380.162 784.184 379.38 784.672 378.892 786.528C378.599 787.895 377.134 789.555 375.572 790.239C374.01 791.118 373.033 792.192 373.228 793.266C373.619 795.317 373.326 795.317 369.029 793.559C367.174 792.778 365.611 791.606 365.611 790.922C365.611 790.239 364.732 790.043 363.463 790.336C362.291 790.727 360.728 790.434 359.947 789.75C358.873 788.872 358.287 788.969 357.408 790.141C356.822 791.02 355.845 791.508 355.162 791.313C354.478 791.118 353.013 791.411 351.744 792.094C350.474 792.778 348.423 793.266 347.056 793.071C345.591 792.973 343.345 793.754 341.881 794.926C338.951 797.27 338.463 798.832 340.709 798.832C341.49 798.832 342.173 799.223 342.173 799.711C342.173 800.981 339.537 801.762 334.947 801.762C330.846 801.762 330.65 801.664 328.99 797.368C327.037 792.094 325.377 791.02 320.298 791.899C314.537 792.778 313.951 794.829 317.759 800.102C320.396 803.911 320.787 804.887 319.713 806.157C317.564 808.695 314.83 807.914 313.267 804.204C311.705 800.297 309.459 799.516 310.338 803.129C310.728 804.594 310.338 805.864 309.556 806.547C307.603 808.11 301.548 808.989 300.767 807.817C299.888 806.254 302.134 800.883 304.283 799.711C305.455 799.125 306.041 797.856 305.845 796.586C305.552 794.34 304.088 794.145 297.545 795.512C294.615 796.098 294.42 796.391 294.127 800.59C293.834 805.18 291.685 807.622 286.802 809.086C283.385 810.063 284.068 807.621 288.463 802.836C292.662 798.344 293.15 796.782 291.002 795.024C289.83 794.047 289.244 794.34 287.974 796.879C286.216 800.297 281.529 803.032 280.845 800.981C280.65 800.297 278.795 799.809 276.646 799.809C273.228 799.809 272.642 800.2 271.47 802.934C270.689 804.692 270.298 806.547 270.591 807.231C270.884 807.914 269.713 808.696 267.759 809.086C266.002 809.477 264.341 810.063 264.048 810.454C262.485 812.407 250.767 819.633 247.838 820.512C238.267 823.149 224.205 834.282 221.568 841.313C220.103 845.121 220.103 845.708 221.47 848.539C222.349 850.2 224.4 852.25 225.963 853.032C227.525 853.813 229.771 856.254 230.845 858.403C231.92 860.454 234.752 863.579 237.193 865.239C241.588 868.266 243.15 872.075 240.025 872.075C238.951 872.075 238.756 872.661 239.146 873.93C240.025 876.762 235.24 877.739 220.103 877.739C205.455 877.739 199.01 876.176 199.888 872.954C200.181 872.075 199.107 869.34 197.545 866.997C195.884 864.458 194.713 861.528 194.713 859.575C194.713 857.036 193.736 855.375 190.806 852.348C188.267 849.711 186.9 847.465 186.9 845.805C186.9 842.387 183.384 836.918 181.236 836.918C178.794 836.918 173.424 831.157 173.033 828.129C172.838 826.176 172.154 825.59 169.517 825.395C166.978 825.102 166.002 824.516 165.318 822.368C164.732 820.805 163.267 819.145 161.9 818.461C160.631 817.875 159.263 816.703 158.97 815.922C158.58 815.141 157.798 814.457 157.115 814.457C156.333 814.457 154.478 813.383 152.916 812.016C151.256 810.649 149.498 809.575 148.912 809.575C148.326 809.574 147.838 808.989 147.838 808.305C147.838 806.45 142.271 800.786 140.513 800.786C139.537 800.785 137.681 799.516 136.314 798.051C133.58 795.219 116.783 787.114 113.56 787.114C112.583 787.113 109.361 784.672 106.334 781.743C101.353 776.665 100.67 776.372 96.2751 776.372C92.4666 776.372 91.0992 775.883 89.2438 773.93C87.2907 771.879 86.0211 771.489 81.236 771.489C76.3534 771.489 74.3999 772.075 67.4665 775.883C62.9743 778.325 58.1891 780.278 56.9196 780.278C55.6497 780.278 50.8646 779.399 46.2751 778.227C39.6346 776.567 37.2907 775.493 34.8493 772.954C33.1891 771.098 30.7477 769.536 29.4782 769.34C28.0135 769.145 27.2321 768.364 27.1344 767.094C27.0368 766.02 26.9391 764.653 26.8415 764.067C26.7438 762.7 22.9352 760.942 17.1735 759.672C11.1191 758.305 8.87285 756.254 9.75162 752.739C10.0446 751.079 9.84928 749.321 9.16568 748.539C8.28683 747.465 8.28685 746.293 9.16568 743.754C10.0446 741.02 9.94693 739.848 8.6774 737.407C7.50553 734.965 3.50162 731.645 2.62271 732.231C1.5486 733.012 0.571916 732.035 0.181307 729.985C-0.404624 727.446 2.81809 719.731 6.91959 713.676C9.26334 710.258 9.36099 706.059 7.1149 706.059C5.45509 706.059 6.23627 703.91 9.26334 700.102C11.4117 697.368 12.193 695.512 11.9001 693.461C11.7048 691.411 12.3885 689.75 13.9508 688.09C15.318 686.723 16.0016 685.551 15.5133 685.551C15.1231 685.551 15.416 684.77 16.2946 683.793C18.15 681.743 22.8373 671.88 22.8376 669.926C22.8376 669.145 21.6657 667.68 20.2985 666.508C18.3455 664.946 17.9548 663.969 18.443 662.114C19.0289 659.672 24.5953 655.278 27.1344 655.278C27.9156 655.278 29.3805 654.203 30.4547 652.836C32.2125 650.688 32.6033 650.59 35.4352 651.664C38.1695 652.641 39.0487 652.543 42.2711 650.688C48.521 647.075 53.9898 645.512 56.7243 646.586C59.7515 647.758 59.654 647.758 60.2399 645.512C60.9235 642.778 64.2438 643.071 66.1969 646C68.443 649.321 69.8103 649.028 73.5211 644.536C75.6695 641.801 77.3298 640.629 78.7946 640.825C79.9664 640.922 83.5798 640.434 86.8024 639.75C91.5875 638.676 94.2244 638.676 100.963 639.653C105.552 640.336 110.728 641.508 112.584 642.192C114.341 642.973 116.88 643.559 118.052 643.559C119.224 643.559 120.787 644.145 121.373 644.926C122.056 645.707 123.619 646.586 124.888 646.879C126.353 647.27 127.33 648.247 127.33 649.321C127.33 650.981 137.193 659.086 142.662 662.016C147.545 664.555 158.482 666.313 169.42 666.411C180.162 666.508 181.041 666.606 184.556 669.145C187.974 671.586 188.365 671.684 189.927 670.317C191.978 668.461 193.736 669.243 193.736 672.075C193.736 673.442 194.224 673.832 195.201 673.442C196.08 673.149 196.666 673.442 196.666 674.321C196.666 675.102 197.545 675.785 198.619 675.786C199.791 675.786 200.572 676.469 200.572 677.543C200.572 679.106 201.256 679.203 208.482 678.325C214.048 677.641 216.88 677.641 218.15 678.422C219.029 679.106 220.201 679.203 220.689 678.715C221.861 677.543 237.095 684.965 239.341 687.7C241.295 690.239 245.103 691.02 247.056 689.36C247.74 688.774 248.716 688.579 249.302 688.872C250.377 689.555 265.024 684.575 265.025 683.5C265.025 683.11 264.048 682.622 262.877 682.426C260.924 682.133 261.314 681.645 265.416 678.911C270.787 675.493 272.74 675.2 280.943 676.86C285.923 677.934 286.998 677.836 291.588 675.883C300.377 672.172 319.713 670.805 319.713 673.832C319.712 675.395 312.681 682.719 310.435 683.598C309.263 683.989 304.966 683.793 300.67 683.012C295.592 682.133 292.564 682.036 291.978 682.622C290.416 684.184 286.802 683.793 283.384 681.645C279.966 679.594 275.767 679.008 275.767 680.668C275.767 681.157 276.451 681.645 277.33 681.645C279.966 681.645 277.72 683.5 273.521 684.77C271.275 685.453 268.15 686.039 266.588 686.039C265.025 686.04 263.56 686.625 263.267 687.407C262.974 688.285 263.267 688.481 263.951 688.09C264.634 687.7 265.709 687.797 266.392 688.383C267.369 689.164 268.443 689.164 270.396 688.481C272.447 687.7 273.326 687.7 273.814 688.579C274.4 689.36 274.693 689.36 275.181 688.579C275.572 687.993 276.353 687.797 277.037 688.188C277.623 688.579 279.478 688.969 281.041 689.164C285.435 689.653 286.119 690.922 283.677 693.95C280.943 697.367 281.041 700.59 284.068 702.934C286.216 704.692 286.9 704.789 290.611 703.618C293.443 702.836 295.982 702.739 298.619 703.325C304.185 704.594 317.662 701.762 325.474 697.661C332.31 694.047 336.607 693.559 346.275 695.317C349.986 696 352.525 696 354.381 695.317C356.236 694.633 358.189 694.633 360.826 695.317C362.877 695.903 367.369 696.782 370.787 697.27C378.599 698.442 386.314 700.004 392.466 701.664C395.201 702.446 398.716 703.325 400.279 703.618C401.939 704.008 405.357 705.668 408.091 707.329C411.705 709.672 414.537 710.649 419.322 711.137C422.837 711.43 428.502 712.016 432.017 712.407C436.9 712.895 439.439 712.7 442.759 711.43C449.791 708.793 452.037 708.696 459.556 710.454C468.638 712.7 471.861 714.36 473.033 717.289C473.521 718.656 474.4 719.731 474.888 719.731C475.474 719.731 477.33 721.098 478.99 722.758C481.236 725.004 482.603 725.59 484.166 725.102C485.24 724.809 487.681 724.125 489.537 723.637C491.392 723.149 493.15 722.27 493.541 721.684C494.615 719.926 501.06 718.559 512.584 717.778C522.838 716.997 523.912 717.094 537.974 720.414C546.079 722.367 552.817 724.125 553.111 724.321C553.306 724.516 552.916 725.102 552.232 725.493C550.768 726.372 551.646 730.473 553.502 731.645C555.943 733.305 559.947 732.328 563.853 729.008C567.564 725.883 568.541 725.59 574.009 725.59C578.795 725.59 581.236 726.176 584.947 728.129C588.853 730.18 590.514 730.571 594.224 730.082C596.763 729.692 599.986 729.887 601.549 730.473C603.013 731.059 606.236 731.45 608.677 731.45C611.119 731.352 614.634 731.254 616.392 731.157C618.15 731.157 619.517 730.571 619.517 729.887C619.517 729.204 620.494 728.325 621.763 728.032C627.623 726.176 633.873 715.825 637.486 701.762C640.025 692.29 646.275 685.649 655.259 683.012C664.537 680.375 670.299 681.059 673.912 685.454L675.963 687.993L693.443 688.286C703.013 688.383 711.997 688.579 713.463 688.676C714.83 688.676 717.174 687.895 718.638 686.723C721.666 684.282 723.912 684.868 730.259 689.457C735.045 693.071 738.56 693.168 742.466 689.946C744.908 687.797 745.299 686.821 745.201 683.305C745.006 679.887 745.299 679.204 746.959 678.911C748.521 678.715 748.912 677.934 748.814 675.004C748.716 673.051 747.935 670.024 747.056 668.461C744.224 663.09 744.127 660.063 746.959 654.985C748.423 652.446 751.06 649.223 752.916 647.856C758.775 643.364 756.92 638.481 748.619 636.137C741.978 634.184 736.998 631.84 733.189 628.618C730.845 626.665 728.99 626.176 721.959 625.786C717.369 625.493 712.681 624.711 711.607 624.125C710.435 623.539 708.58 620.414 707.213 616.997C705.259 611.821 704.283 610.551 701.06 608.793C698.521 607.524 695.201 606.84 691.685 606.743C684.361 606.743 679.674 604.985 676.646 601.274C675.279 599.516 673.424 597.27 672.349 596.196C671.373 595.121 669.42 591.704 668.052 588.579C665.123 582.133 656.92 572.27 654.478 572.27C653.404 572.27 652.525 571.293 652.134 569.536C650.963 563.969 649.498 561.625 643.15 555.375C636.119 548.442 625.767 541.997 621.763 541.997C617.76 541.996 612.877 538.481 612.095 534.868C609.849 524.223 602.134 515.922 591.002 512.114C582.017 509.184 579.478 506.547 579.478 500.493C579.478 495.122 582.603 492.289 591.588 489.262C597.349 487.407 598.521 487.309 603.502 488.383C611.509 490.141 617.759 487.602 621.08 481.254C623.912 475.688 621.861 471.977 614.439 469.829C609.947 468.461 604.185 465.043 601.841 462.309C600.963 461.235 598.619 457.329 596.763 453.52C594.908 449.809 592.564 446.098 591.685 445.317C590.806 444.633 589.634 443.168 589.146 442.094C588.267 440.532 588.365 440.336 590.025 440.825C591.197 441.215 593.248 440.532 595.494 438.969C597.447 437.602 599.986 436.528 600.963 436.528C603.209 436.528 603.502 435.551 601.744 433.793C599.791 431.84 597.447 432.426 596.177 435.258C595.396 437.016 594.713 437.504 593.931 436.723C593.248 436.04 593.346 435.063 594.517 433.5C595.396 432.231 596.08 429.594 596.08 427.641C596.08 425.59 596.763 423.54 597.545 422.856C598.424 422.075 598.814 420.805 598.424 419.731C597.935 418.071 598.326 417.973 602.134 418.559C604.478 418.95 606.92 419.633 607.603 420.219C608.287 420.707 609.166 420.903 609.459 420.512C609.849 420.122 609.556 419.438 608.775 418.95C607.701 418.266 607.701 417.68 608.482 415.825C609.166 414.555 609.654 414.067 609.654 414.75C609.752 415.434 610.631 416.411 611.705 416.997C613.267 417.778 613.853 417.582 615.123 415.727C616.49 413.676 616.49 413.09 615.025 410.356C614.244 408.598 613.072 407.231 612.584 407.231C611.998 407.231 611.998 406.547 612.584 405.375C614.049 402.641 611.705 401.079 607.408 401.957C603.209 402.641 600.963 401.274 600.963 397.856C600.963 396.196 600.377 395.512 599.009 395.512C596.275 395.512 596.373 389.848 599.107 386.332C601.549 383.207 602.232 383.208 605.845 385.844C609.556 388.676 612.681 387.699 615.904 382.914C618.931 378.422 618.541 376.664 614.537 375.004C611.803 373.833 610.826 371.782 612.584 370.707C613.072 370.317 613.756 370.707 613.951 371.293C614.244 371.977 614.439 370.903 614.341 368.95C614.244 366.997 614.635 365.434 615.123 365.532C615.709 365.629 616.002 366.704 615.806 367.973C615.611 369.535 616.099 370.414 617.369 370.805C618.638 371.098 619.127 371.879 618.834 372.954C618.638 373.93 619.127 375.2 619.908 375.883C621.177 376.957 621.959 376.762 624.888 374.614C626.744 373.149 628.306 371.587 628.306 371.098C628.306 370.61 626.939 368.657 625.377 366.801C622.74 363.872 622.447 362.797 622.642 358.305C622.935 353.911 622.642 353.032 621.177 352.739C620.201 352.544 618.541 353.129 617.466 354.106C616.392 355.082 615.611 355.278 615.611 354.692C615.611 352.836 611.9 353.325 610.826 355.375C608.091 360.356 598.521 357.133 595.103 350.102C592.369 344.438 580.552 332.036 577.916 332.036C576.841 332.035 574.498 330.571 572.74 328.715C570.787 326.665 567.564 324.809 564.049 323.735C561.021 322.758 557.799 321.684 557.017 321.196C556.236 320.707 553.404 319.047 550.67 317.387C548.033 315.825 542.955 313.579 539.439 312.407C530.064 309.282 525.767 306.938 525.767 304.789C525.767 303.52 525.181 303.032 524.107 303.325C523.131 303.52 521.47 303.032 520.396 302.25C518.834 300.981 518.639 300.395 519.713 298.832C520.298 297.758 520.884 296.684 520.884 296.391C520.884 295.317 518.541 296 516.881 297.465C514.634 299.516 511.412 298.344 502.623 292.387C493.443 286.137 480.064 283.989 475.963 288.09C474.888 289.164 474.009 290.532 474.009 291.118C474.009 294.438 455.65 287.797 449.205 282.036C444.322 277.836 440.806 277.641 440.806 281.547C440.806 282.719 439.927 285.161 438.853 286.821C437.095 289.75 436.412 290.043 432.408 290.043C429.967 290.043 427.232 289.653 426.256 289.164C425.181 288.481 422.251 288.579 418.248 289.262C407.31 291.02 389.634 291.801 388.56 290.629C388.072 289.946 385.826 288.969 383.677 288.286C379.283 287.016 368.15 278.52 362.974 272.563L359.556 268.559L359.947 256.059L360.24 243.657L365.025 236.528C370.103 229.106 370.201 229.008 372.349 230.375C373.326 230.961 374.791 230.766 376.451 229.887C378.013 229.106 379.869 228.52 380.845 228.52C383.189 228.52 388.267 223.93 390.806 219.536C393.248 215.043 393.345 214.848 391.881 214.848C391.294 214.848 389.634 216.118 388.17 217.68C385.631 220.414 385.142 220.512 381.334 219.633C379.088 219.145 376.255 218.95 374.986 219.34C371.666 220.121 371.08 218.266 373.619 214.848C375.572 212.114 376.158 211.918 379.381 212.407C381.431 212.797 384.556 212.602 386.412 212.114C389.048 211.332 390.611 211.528 393.638 212.895L397.447 214.555L403.697 210.844C407.017 208.891 413.365 206.254 417.759 205.082C422.154 203.911 427.33 202.055 429.283 201.079C434.361 198.54 448.521 188.872 452.037 185.551C458.091 179.887 458.482 179.887 487.681 183.207C497.642 184.379 501.548 185.258 503.697 186.723C506.041 188.383 506.822 188.481 508.97 187.504L511.607 186.332L509.166 184.965C506.822 183.501 506.92 183.5 511.412 183.989C513.951 184.282 518.248 183.989 520.982 183.403L525.963 182.231L528.599 185.454C531.236 188.676 532.603 188.676 532.603 185.454C532.603 182.231 551.255 177.739 557.701 179.399C561.119 180.278 561.803 180.082 564.341 177.934C566.783 175.883 567.857 175.59 571.861 176.079C575.865 176.567 576.744 176.371 577.818 174.809ZM404.283 794.438C400.963 793.754 400.572 793.852 400.963 795.512C401.158 796.977 402.135 797.368 405.455 797.465C409.263 797.465 410.631 796.684 408.775 795.512C408.384 795.317 406.431 794.828 404.283 794.438ZM236.705 775.395C236.217 775.395 235.728 775.786 235.728 776.372C235.728 776.86 236.217 777.348 236.705 777.348C237.291 777.348 237.681 776.86 237.681 776.372C237.681 775.786 237.291 775.395 236.705 775.395ZM220.103 771.489C219.615 771.489 219.127 771.879 219.127 772.465C219.127 772.953 219.615 773.442 220.103 773.442C220.689 773.442 221.08 772.953 221.08 772.465C221.08 771.879 220.689 771.489 220.103 771.489ZM498.326 733.403C497.838 733.403 497.74 734.086 498.033 734.868C498.423 735.649 497.935 736.528 497.056 736.918C496.178 737.211 495.494 738.09 495.494 738.774C495.494 739.458 494.615 741.118 493.443 742.582C491.685 744.828 491.588 745.219 492.955 745.707C495.103 746.489 500.572 745.414 502.916 743.754C504.771 742.387 504.771 742.289 502.525 739.555C501.353 738.09 500.084 736.039 499.693 735.063C499.4 734.184 498.814 733.403 498.326 733.403ZM519.517 737.309C518.834 737.309 517.662 737.993 516.978 738.774C515.904 740.043 516.197 740.239 518.345 740.239C519.908 740.239 520.884 739.75 520.884 738.774C520.884 737.993 520.299 737.309 519.517 737.309ZM815.806 647.465C814.537 647.466 810.826 651.567 811.216 652.641C811.607 653.911 821.372 655.863 822.349 654.887C822.74 654.594 821.47 652.739 819.713 650.883C817.857 649.028 816.099 647.465 815.806 647.465ZM900.963 564.946C899.107 564.262 899.107 564.165 899.205 566.606C899.302 568.461 898.716 568.852 896.373 568.95C887.975 569.145 888.072 569.145 888.267 572.27C888.463 575.004 888.56 575.004 890.318 573.539C892.173 571.782 893.248 571.489 898.521 571.098C901.06 570.805 901.646 570.317 901.939 568.168C902.232 566.508 901.841 565.336 900.963 564.946ZM883.873 562.309C886.119 559.77 885.142 560.161 881.334 563.383L878.013 566.118L880.845 566.704C884.166 567.289 884.947 566.801 883.384 565.239C882.506 564.36 882.603 563.676 883.873 562.309ZM876.939 557.329C875.181 556.646 873.912 563.578 875.67 564.653C877.134 565.532 878.306 563.676 878.306 560.454C878.306 558.989 877.72 557.622 876.939 557.329ZM869.615 552.348C867.076 549.614 866.588 549.321 866.588 550.59C866.587 550.981 863.853 552.348 860.533 553.618C857.115 554.985 854.088 556.254 853.599 556.645C853.209 556.938 854.186 558.501 855.845 560.063C857.408 561.625 858.775 562.309 858.775 561.625C858.775 559.965 863.755 555.766 865.806 555.668C866.685 555.668 867.759 555.18 868.052 554.594C868.443 554.008 869.42 553.813 870.299 554.204C871.373 554.594 871.08 553.911 869.615 552.348ZM902.818 555.668C901.841 555.669 899.303 558.5 899.888 558.989C900.084 559.086 901.06 558.403 902.037 557.426C902.916 556.45 903.306 555.668 902.818 555.668ZM898.424 554.985C898.131 554.594 897.838 554.887 897.838 555.571C897.837 556.157 896.861 557.133 895.689 557.622L893.443 558.5H895.689C896.861 558.598 898.13 557.914 898.521 557.133C898.814 556.254 898.814 555.278 898.424 554.985ZM877.916 554.008C877.623 553.618 877.33 554.204 877.427 555.278C877.427 556.352 877.72 556.645 878.013 555.864C878.306 555.18 878.209 554.301 877.916 554.008ZM605.748 516.606C605.26 516.606 605.064 516.997 605.357 517.582C605.65 518.071 606.138 518.559 606.431 518.559C606.627 518.559 606.822 518.071 606.822 517.582C606.822 516.997 606.334 516.606 605.748 516.606ZM623.814 399.028C621.568 398.149 621.47 398.247 622.349 400.59C622.74 401.762 623.619 402.934 624.205 403.129C625.963 403.715 625.572 399.711 623.814 399.028ZM618.15 399.418C617.857 399.419 617.369 399.809 617.076 400.395C616.783 400.883 616.978 401.371 617.466 401.372C618.052 401.372 618.541 400.883 618.541 400.395C618.541 399.809 618.345 399.418 618.15 399.418ZM603.892 396C603.404 395.708 602.916 396.098 602.916 396.879C602.916 397.758 603.404 398.442 603.892 398.442C604.478 398.442 604.869 398.051 604.869 397.563C604.869 396.977 604.478 396.293 603.892 396ZM651.744 393.266C650.767 392.387 650.572 392.387 651.06 393.657C651.353 394.536 651.06 395.805 650.474 396.391C649.693 397.172 649.693 397.465 650.572 397.465C651.255 397.465 652.037 396.782 652.427 395.903C652.72 395.122 652.427 393.852 651.744 393.266ZM622.349 392.582C621.861 392.583 621.666 392.973 621.959 393.559C622.252 394.047 622.74 394.535 623.033 394.536C623.228 394.536 623.423 394.047 623.424 393.559C623.424 392.973 622.935 392.582 622.349 392.582ZM633.287 380.864C631.92 380.864 631.041 383.989 632.213 385.161C632.701 385.649 633.189 386.821 633.189 387.602C633.189 388.774 632.896 388.774 632.017 387.895C630.162 386.04 629.283 386.528 630.357 388.872C631.041 390.434 632.213 391.118 634.166 391.215C637.584 391.313 637.877 389.848 635.631 384.379C634.849 382.426 633.775 380.864 633.287 380.864ZM630.259 381.059C630.259 379.594 628.111 379.497 626.549 381.059C624.986 382.621 625.084 383.5 627.037 384.184C628.697 384.868 630.259 383.305 630.259 381.059ZM945.689 268.266C945.689 267.192 944.42 267.485 942.466 269.047C941.392 269.731 940.025 270.122 939.341 269.926C938.463 269.536 938.267 270.122 938.56 271.782C938.853 273.149 938.56 274.516 937.974 274.809C936.51 275.786 937.779 278.324 939.83 278.325C941.002 278.325 941.49 277.641 941.295 275.883C941.099 274.321 941.881 272.661 943.345 271.293C944.615 270.024 945.689 268.754 945.689 268.266ZM558.58 183.11C556.041 181.254 553.111 181.254 553.111 183.11C553.111 184.184 554.185 184.575 556.822 184.575C560.24 184.477 560.338 184.379 558.58 183.11Z" fill="white"/>
<path d="M268.931 849.125C268.931 847.758 269.224 847.661 270.396 848.637C271.177 849.321 272.545 849.516 273.423 849.223C274.498 848.832 275.963 849.418 277.33 850.688C278.501 851.762 279.966 852.445 280.552 852.153C281.041 851.762 282.603 852.641 283.873 853.911C287.877 857.914 292.369 858.11 298.716 854.594C301.646 852.934 304.673 851.567 305.455 851.567C307.213 851.567 312.877 856.254 312.877 857.719C312.877 858.305 313.56 859.477 314.439 860.454C315.709 861.821 315.709 862.504 314.83 864.36C313.658 866.41 313.365 866.508 303.209 865.825C291.295 865.043 291.392 865.043 285.728 865.239C282.017 865.434 281.138 865.043 278.697 862.211C277.135 860.356 275.865 858.501 275.767 858.012C275.767 857.524 274.205 855.668 272.349 853.911C270.494 852.251 268.931 850.004 268.931 849.125Z" fill="white"/>
<path d="M246.959 652.446C249.693 650.883 255.65 651.665 263.56 654.692C273.423 658.5 274.4 660.454 269.029 666.411C265.806 669.926 257.115 674.125 255.845 672.856C255.259 672.27 254.185 671.879 253.306 671.879C252.427 671.879 249.888 671 247.642 669.926C245.494 668.852 243.248 667.973 242.662 667.973C240.806 667.973 238.658 664.848 238.658 662.211C238.658 659.575 242.564 654.985 246.959 652.446Z" fill="white"/>
<path d="M435.728 533.305C445.787 532.426 449.107 532.915 455.455 536.43C469.81 544.34 474.4 546.196 481.822 546.879C488.853 547.563 497.837 550.2 500.572 552.446C501.256 553.032 505.162 555.082 509.166 556.938C513.17 558.696 517.857 561.528 519.517 563.09C522.935 566.313 544.516 575.687 547.642 575.395C549.986 575.2 562.584 579.789 564.927 581.743C565.709 582.426 566.88 583.012 567.369 583.012C569.322 583.012 575.377 588.969 579.381 594.731C582.408 599.321 583.677 602.055 584.068 605.864C584.361 608.598 585.435 612.309 586.412 614.067C588.756 618.071 588.756 617.875 585.631 618.657C580.162 620.024 578.892 623.247 582.408 626.469C583.97 627.836 584.068 628.52 583.189 629.594C582.213 630.863 581.92 630.766 581.236 629.008C580.845 627.836 579.869 626.957 578.99 626.957C577.232 626.958 577.135 628.129 578.599 629.594C579.185 630.18 579.576 631.157 579.381 631.743C578.697 633.597 573.619 628.032 573.619 625.493C573.619 623.344 573.228 623.051 569.713 623.051C566.783 623.051 566.002 622.758 566.392 621.684C566.783 620.61 566.099 620.414 562.974 620.805C560.045 621.196 557.408 620.61 551.744 618.266C545.689 615.727 543.15 615.239 536.607 615.239C525.181 615.239 514.244 613.481 508.58 610.844C502.916 608.11 493.053 599.907 492.271 597.465C491.978 596.391 490.318 595.512 487.681 595.122C485.435 594.731 480.845 592.582 477.33 590.239C472.838 587.407 469.42 585.942 465.904 585.454C463.072 585.063 458.677 583.891 456.138 582.914C453.599 581.84 449.107 581.059 446.177 581.059C441.295 581.059 440.806 580.864 438.853 577.641C437.681 575.786 435.631 573.93 434.361 573.637C432.994 573.246 430.259 570.707 428.013 567.778C425.963 564.946 422.642 561.332 420.591 559.868C413.658 554.594 412.486 553.032 412.486 549.223C412.486 546.391 413.17 544.926 416.002 542.387C422.252 536.43 427.525 533.989 435.728 533.305Z" fill="white"/>
<path d="M581.041 122.27C582.799 122.172 588.267 123.735 593.248 125.883C598.326 127.934 608.775 131.743 616.588 134.282C624.4 136.918 632.505 140.043 634.654 141.411C639.732 144.536 645.689 150.2 647.447 153.618L648.912 156.45L636.412 155.766C628.697 155.278 623.131 154.594 621.763 153.715C620.689 153.032 616.685 152.153 612.974 151.762C609.361 151.469 603.697 150.102 600.474 148.93C592.369 145.805 578.697 142.875 568.736 142.192C563.365 141.801 556.724 140.336 549.986 138.188C544.224 136.332 537.779 134.77 535.728 134.77C533.189 134.77 531.334 134.086 530.259 132.914C528.599 131.157 528.795 130.961 534.068 129.008C537.095 127.836 542.662 126.469 546.47 125.981C550.279 125.395 553.794 124.711 554.478 124.321C555.064 123.93 560.631 123.344 566.783 122.954C572.935 122.661 579.38 122.368 581.041 122.27Z" fill="white"/>
<circle id="293" cx="747" cy="682" fill="#5CE50D"/>
<circle id="1623" cx="619" cy="349" fill="#E52A0D"/>
<circle id="1622" cx="669" cy="805" fill="#E52A0D"/>
<circle id="965" cx="787" cy="256" fill="#E52A0D"/>
</svg>
