<svg width="1000" height="1000" viewBox="0 0 1000 1000" fill="none" xmlns="http://www.w3.org/2000/svg">
<path d="M781.647 188.978C780.768 189.759 780.085 190.931 780.085 191.419C780.085 192.005 778.229 192.103 775.495 191.81C769.245 190.931 766.413 192.2 765.046 196.302C764.167 199.134 763.483 199.72 760.651 199.915C758.893 200.111 756.94 199.818 756.354 199.232C754.889 197.767 751.667 197.962 749.421 199.622C748.346 200.403 746.491 201.087 745.319 201.087C744.05 201.087 742.194 202.454 740.632 204.505C737.702 208.314 735.651 208.9 734.87 206.068C733.796 201.868 727.35 200.208 718.464 201.673C715.436 202.161 714.655 201.868 712.507 199.329C710.554 196.986 709.186 196.4 704.694 196.009C700.593 195.716 698.444 194.935 696.1 192.982C692.585 189.954 691.315 189.857 685.846 191.907C683.698 192.786 680.378 193.372 678.425 193.275C676.374 193.275 674.421 193.861 673.639 194.739C672.956 195.521 671.686 196.204 670.807 196.204C668.561 196.204 662.409 198.45 660.651 200.013C659.577 200.892 658.6 200.892 657.331 200.208C656.159 199.622 654.889 199.622 654.011 200.208C653.327 200.696 651.569 201.087 650.3 201.087C648.151 201.087 648.054 201.282 648.639 205.482C649.128 208.509 648.932 210.364 648.054 211.341C643.854 216.028 641.999 218.665 640.827 221.693C640.534 222.571 639.264 223.743 637.995 224.329C636.335 225.111 635.944 225.892 636.237 227.845C636.53 229.212 636.237 231.068 635.554 231.751C634.968 232.532 634.479 233.997 634.577 234.974C634.87 237.806 634.675 238.978 633.405 240.345C631.452 242.396 629.694 245.814 629.694 247.474C629.694 248.255 628.913 249.329 627.936 249.818C626.96 250.306 624.714 252.943 622.858 255.677C621.003 258.411 618.952 260.657 618.268 260.657C617.585 260.657 615.632 259.974 613.776 259.095C610.554 257.532 610.554 257.532 606.94 261.146C603.815 264.271 603.034 264.564 599.811 263.978C595.807 263.196 594.245 264.564 595.221 268.177C595.514 269.446 595.319 270.423 594.733 270.423C593.561 270.423 586.335 277.357 586.237 278.528C586.237 280.091 583.21 281.068 580.28 280.579C578.522 280.286 576.862 280.482 576.569 281.068C576.179 281.653 574.421 282.825 572.565 283.704C570.71 284.583 569.147 285.657 569.147 286.146C569.147 287.611 565.339 290.931 563.776 290.931C562.8 290.931 562.311 290.15 562.409 288.685C562.8 284.583 562.311 283.411 559.87 282.337C556.745 280.872 553.522 280.872 553.522 282.142C553.522 282.728 552.936 283.118 552.35 282.923C551.667 282.825 550.007 283.314 548.835 283.997C545.807 285.657 545.026 284.681 546.393 281.165C547.468 278.431 547.272 278.04 543.952 275.306C539.948 271.986 538.093 271.693 536.53 273.939C535.456 275.306 535.065 275.306 531.745 273.743C529.596 272.767 527.839 271.107 527.546 269.837C526.569 266.028 518.073 265.638 516.901 269.349C516.315 271.204 511.53 274.329 509.186 274.329C508.307 274.329 507.624 275.111 507.624 276.185C507.624 277.259 506.745 278.333 505.671 278.724C504.206 279.212 503.815 280.189 503.815 282.923C504.011 288.978 502.643 295.325 500.69 297.864C498.932 300.013 498.737 300.111 497.761 298.45C496.491 296.204 494.44 296.302 491.999 298.743C490.339 300.403 488.776 300.696 481.55 300.696C471.979 300.696 466.608 302.845 466.608 306.556C466.608 308.411 466.413 308.509 463.971 307.239C459.577 304.993 448.249 303.431 441.511 304.212C437.214 304.603 434.87 304.505 433.893 303.626C432.917 302.747 432.429 302.747 432.429 303.528C432.429 304.114 431.843 304.603 431.061 304.603C430.378 304.603 429.108 305.286 428.425 306.165C427.546 307.239 426.179 307.532 423.932 307.239C422.175 306.946 420.514 307.044 420.221 307.532C419.929 308.021 417.78 308.411 415.534 308.314C410.261 308.021 405.085 310.071 405.085 312.513C405.085 313.489 404.694 314.564 404.108 314.857C403.62 315.15 403.132 316.907 403.132 318.763C403.132 321.79 402.839 322.083 399.323 322.669C395.319 323.353 393.561 325.501 395.319 327.552C396.686 329.212 396.784 333.509 395.417 338.392C393.952 343.958 395.221 347.376 399.518 349.915C402.643 351.673 407.038 356.946 407.038 358.997C407.038 359.29 404.987 359.29 402.448 358.997C396.882 358.411 392.389 360.267 390.046 364.271C389.167 365.833 387.702 367.103 386.823 367.103C385.944 367.103 384.284 367.884 383.21 368.958C379.792 371.985 375.202 373.06 369.929 371.888C366.315 371.107 364.167 371.204 360.554 372.278C356.061 373.548 355.573 373.548 353.132 371.693C350.593 369.837 350.3 369.837 348.639 371.302C347.663 372.181 344.538 373.353 341.804 373.939C338.971 374.427 335.944 375.306 334.968 375.696C332.136 377.259 324.909 377.943 323.542 376.868C322.956 376.38 319.538 375.696 316.12 375.403C312.702 375.208 306.55 374.329 302.546 373.548C293.464 371.693 289.362 371.595 286.921 373.157C285.456 374.134 284.284 374.134 281.94 373.255C279.596 372.376 278.327 372.376 276.764 373.157C273.542 374.915 254.401 375.013 247.956 373.353C239.557 371.204 239.167 371.009 238.581 368.958C238.19 367.982 236.53 366.321 234.87 365.443C231.55 363.782 227.35 359.778 227.35 358.216C227.35 357.239 226.276 357.044 222.175 357.337C219.831 357.435 219.245 356.849 217.292 352.552C215.534 348.353 214.557 347.376 211.628 346.595C206.94 345.325 203.327 342.298 202.546 339.173C201.667 335.657 198.932 332.142 191.413 324.818C185.651 319.251 184.968 318.86 181.354 319.153C176.96 319.446 173.639 317.298 173.639 314.173C173.639 313.099 172.956 312.415 171.686 312.415C168.464 312.415 159.186 316.614 155.378 319.935C152.155 322.571 151.862 323.255 152.741 324.818C153.522 326.087 153.62 327.259 152.936 328.333C152.448 329.31 152.35 330.872 152.643 331.946C153.425 334.29 149.421 343.665 147.663 343.665C145.612 343.665 138.483 346.009 138.483 346.693C138.483 346.985 139.557 348.255 140.925 349.525C142.292 350.794 143.366 352.454 143.366 353.235C143.366 354.114 144.147 355.579 145.026 356.556C146.491 358.216 146.491 358.509 145.124 359.876C143.854 361.146 143.854 362.122 145.221 368.958C146.1 373.157 147.37 377.357 148.151 378.235C149.323 379.603 149.03 379.798 145.221 379.798C142.78 379.798 137.702 380.677 133.796 381.751C129.987 382.825 124.811 383.704 122.468 383.704C118.171 383.704 118.171 383.704 117.487 379.798C116.804 375.989 116.804 375.989 114.46 377.454C112.897 378.528 112.116 379.993 112.116 381.849V384.681H98.8348L96.8817 378.626C95.0262 372.767 94.9285 372.571 89.7527 370.911C86.9207 369.935 83.8934 368.568 83.2098 367.982C81.452 366.517 71.1004 367.493 70.0262 369.251C69.5379 369.935 69.1473 371.595 69.1473 372.864C69.1473 375.208 66.7059 377.747 64.4598 377.845C63.7762 377.845 61.7254 378.919 59.9676 380.286C58.2098 381.653 56.452 382.435 56.159 382.044C55.2801 381.165 51.5692 385.169 51.5692 386.927C51.5692 387.708 53.4246 388.88 55.7684 389.564C58.0145 390.345 60.3582 391.321 61.0418 391.81C61.7254 392.298 62.6043 392.396 63.0926 392.103C63.6785 391.81 66.6082 393.275 69.7332 395.423C74.8113 398.841 75.5926 399.134 76.9598 397.864C77.8387 397.083 79.6942 396.4 81.0613 396.4C83.0145 396.4 83.7957 397.083 84.7723 399.525C85.3582 401.282 86.2371 403.431 86.7254 404.31C87.116 405.091 87.116 406.556 86.5301 407.435C85.4559 409.388 86.2371 411.048 88.1902 411.048C89.3621 411.048 90.6317 413.392 91.2176 416.81C91.5106 418.47 88.7762 421.4 85.9442 422.278C84.0887 422.864 83.7957 423.353 84.3817 426.185C85.0652 429.896 82.6238 435.462 80.2801 435.462C79.4988 435.462 78.6199 436.146 78.327 436.927C77.9363 437.708 77.0574 438.392 76.2762 438.392C75.5926 438.392 73.8348 439.564 72.5652 440.931C70.9051 442.689 69.6356 443.275 68.1707 442.786C67.0965 442.396 64.8504 442.786 63.0926 443.665C60.1629 445.13 59.9676 445.13 58.1121 443.275C57.1356 442.103 55.5731 441.321 54.6942 441.517C53.327 441.81 53.1317 442.884 53.327 446.79C53.5223 450.306 53.2293 452.064 52.1551 453.04C50.0067 454.798 50.202 456.068 53.034 458.411C56.159 460.853 57.5262 467.689 55.866 472.571C55.2801 474.427 54.3035 475.989 53.9129 475.989C51.9598 476.087 50.7879 477.65 50.202 481.36C49.8113 483.997 49.1277 485.267 48.0535 485.267C45.4168 485.267 46.6863 490.54 49.4207 490.931C52.2527 491.321 54.1082 495.618 52.4481 497.669C50.4949 500.013 52.741 501.38 56.5496 500.013C60.7488 498.548 61.0418 498.646 61.6277 501.087C62.116 502.65 61.2371 504.017 58.4051 506.653C56.3543 508.607 54.3035 511.341 54.0106 512.708C53.4246 515.052 53.7176 515.443 56.8426 516.517C61.4324 517.982 61.3348 520.13 56.7449 521.009C52.3504 521.79 49.616 523.06 49.616 524.329C49.616 524.915 50.4949 525.306 51.5692 525.306C52.6434 525.306 53.5223 525.892 53.5223 526.673C53.5223 527.454 54.4012 528.431 55.4754 528.724C57.7215 529.407 57.9168 530.482 56.159 531.946C55.3777 532.63 54.4012 532.63 53.5223 532.142C52.741 531.556 50.5926 531.458 48.9324 531.751C46.6863 532.142 45.7098 531.946 45.7098 531.165C45.7098 530.286 44.7332 530.189 42.3895 530.579C40.3387 530.97 38.7762 530.775 38.3856 530.189C37.9949 529.603 37.0184 529.407 36.0418 529.798C33.7957 530.775 28.1316 530.872 28.1316 529.993C28.1316 529.603 27.741 529.212 27.1551 529.212C26.6668 529.212 26.1785 529.798 26.1785 530.579C26.1785 531.263 25.4949 532.435 24.7137 533.118C23.9324 533.802 23.2488 534.974 23.2488 535.755C23.2488 538.392 17.5848 543.079 14.7527 542.689C12.5066 542.396 12.0184 542.884 10.8465 546.497C10.0652 548.841 8.99102 550.696 8.40509 550.696C7.81915 550.696 5.67071 552.454 3.61993 554.505C0.49493 557.825 0.104305 558.509 1.37384 559.583C2.54571 560.56 4.69415 560.56 11.9207 559.583C22.5652 558.118 25.5926 558.607 29.7918 562.415C32.7215 565.052 32.9168 565.638 32.3309 569.739C31.9402 573.157 31.3543 574.134 29.9871 574.134C28.034 574.134 27.3504 577.454 29.0106 578.431C29.4012 578.724 29.5965 580.091 29.3035 581.458C29.1082 582.923 29.4988 584.681 30.3777 585.657C31.2566 586.536 32.3309 588.587 32.9168 590.15C33.6004 591.907 34.4793 592.689 35.4559 592.396C36.3348 592.005 36.9207 592.591 37.116 594.349C37.3113 596.4 38.1902 597.181 40.6316 597.767C44.8309 598.939 44.8309 603.138 40.6316 604.7C37.5066 605.872 38.7762 608.997 44.7332 614.759C47.9559 617.982 51.0809 621.79 51.6668 623.255C52.3504 624.818 53.8152 626.478 55.0848 626.868C56.9402 627.65 57.3309 628.724 57.9168 634.193C58.6004 640.345 58.8934 640.833 61.7254 642.103C63.3856 642.884 65.4363 643.86 66.2176 644.349C66.9988 644.837 68.366 645.521 69.1473 645.911C76.6668 649.036 79.4012 651.771 84.3817 661.732C84.6746 662.415 85.8465 663.001 86.8231 663.001C87.7996 663.001 88.6785 663.587 88.6785 664.271C88.6785 665.931 94.0496 668.177 96.2957 667.493C97.3699 667.103 98.6395 667.493 99.4207 668.372C100.104 669.153 101.374 669.837 102.253 669.837C105.964 669.837 108.6 674.427 109.284 682.142C109.772 687.122 110.554 690.15 111.823 691.517C113.874 693.86 121.589 699.134 122.956 699.134C123.444 699.134 123.835 700.013 123.835 701.087C123.835 702.357 124.518 703.04 125.593 703.04C126.569 703.04 128.815 704.114 130.671 705.482C132.526 706.849 134.382 707.923 134.772 707.923C135.261 707.923 137.897 709.485 140.729 711.341C143.464 713.196 146.296 714.759 146.979 714.759C149.323 714.759 154.206 721.009 153.62 723.255C152.839 726.38 154.011 728.431 156.647 728.431C158.991 728.431 159.479 729.505 159.186 733.509C159.089 734.485 159.577 734.974 160.261 734.681C161.042 734.388 162.116 735.267 162.702 736.732C163.386 738.099 164.557 739.466 165.339 739.759C166.12 740.15 166.804 741.419 166.804 742.689C166.804 744.056 167.487 745.325 168.268 745.716C169.538 746.204 169.538 746.497 167.78 747.669C166.12 748.841 165.925 749.427 166.901 750.501C167.487 751.282 168.854 751.868 169.831 751.868C170.905 751.868 171.686 752.552 171.686 753.528C171.784 756.458 175.3 759.876 177.546 759.193C179.694 758.509 180.28 760.462 178.425 762.318C177.741 763.001 177.546 764.173 177.936 765.052C178.327 766.224 179.206 766.517 181.354 766.028C183.307 765.638 184.284 765.833 184.675 766.81C184.968 767.591 186.725 768.177 188.679 768.275C191.608 768.372 192.194 768.079 192.194 766.517C192.194 764.466 195.417 763.685 196.491 765.443C196.979 766.224 199.128 766.712 209.089 767.982C211.042 768.275 214.264 769.446 216.12 770.618C219.245 772.767 223.444 779.31 223.444 782.239C223.444 785.071 227.253 789.954 229.499 789.954C234.479 789.954 239.167 791.224 240.046 792.884C240.925 794.446 244.343 795.716 249.518 796.107C250.886 796.204 251.862 797.181 252.253 798.548C252.546 799.72 253.229 800.696 253.718 800.696C254.304 800.696 254.694 801.282 254.694 802.064C254.694 804.603 256.94 804.993 258.6 802.845C259.968 801.185 261.628 800.794 268.952 800.403C276.862 800.013 277.936 800.208 280.182 802.161C281.647 803.333 284.87 804.603 287.507 804.993C291.413 805.482 292.487 805.286 294.245 803.626C296.589 801.478 300.593 801.087 302.35 802.845C303.229 803.724 303.815 803.724 304.694 802.845C306.647 800.892 308.991 801.478 313.288 805.091C315.534 806.946 317.682 808.509 317.975 808.509C318.366 808.509 321.393 808.704 324.811 808.9C329.304 809.193 330.866 808.997 330.866 808.021C330.866 806.165 333.6 805.482 335.749 806.849C336.823 807.435 337.702 808.704 337.702 809.583C337.702 811.439 339.655 812.415 343.171 812.415C345.026 812.415 345.71 811.829 346.198 809.485C346.589 807.435 347.272 806.556 348.639 806.556C349.909 806.556 350.983 805.482 351.667 803.724C352.546 801.282 352.936 801.087 354.499 801.966C355.866 802.845 356.647 802.845 358.014 801.966C358.893 801.282 361.139 800.11 362.897 799.329C364.557 798.548 366.022 797.474 366.022 797.083C366.022 796.693 367.292 794.935 368.757 793.372C370.221 791.712 372.077 788.978 372.761 787.22C373.639 785.267 374.714 784.095 375.983 784.095C377.057 784.095 377.546 783.704 377.155 783.021C376.862 782.435 377.35 780.286 378.327 778.138C380.378 773.939 383.405 773.157 386.921 775.794C387.995 776.575 389.655 777.259 390.632 777.259C391.608 777.259 392.389 777.65 392.389 778.235C392.389 779.31 397.565 782.142 399.616 782.142C400.495 782.142 401.179 780.97 401.374 778.919C401.667 776.185 401.96 775.794 404.792 775.696C406.55 775.696 409.284 774.525 411.432 772.962C414.264 770.716 415.632 770.325 418.073 770.911C419.831 771.204 423.346 771.79 425.983 772.083L430.768 772.571L430.182 769.642C429.304 765.345 433.21 762.22 438.386 763.099L441.999 763.685L441.12 759.193C440.339 755.189 440.534 754.31 442.878 750.794C444.929 747.669 446.003 746.985 447.956 747.181C450.104 747.474 450.593 748.157 451.276 751.966C452.057 756.36 452.253 756.556 455.964 757.142C458.112 757.532 460.651 757.337 461.53 756.849C462.507 756.36 465.925 756.263 469.343 756.653C474.714 757.239 475.397 757.142 474.811 755.872C474.518 754.993 474.03 753.821 473.835 753.333C473.639 752.747 476.081 750.696 479.304 748.548C483.991 745.521 485.456 745.032 486.628 746.009C487.409 746.693 488.971 746.888 490.241 746.497C492.975 745.618 500.788 738.294 500.788 736.536C500.788 735.853 502.546 734.388 504.694 733.314C509.089 731.068 510.456 728.919 508.698 727.161C507.136 725.599 507.331 723.548 509.089 723.548C509.87 723.548 512.018 721.888 513.971 719.935C516.608 717.2 517.682 716.614 518.561 717.493C520.319 719.251 525.3 718.958 527.35 717.005C528.425 716.028 530.475 715.443 532.136 715.54C535.163 715.833 541.413 719.251 543.659 721.985C544.343 722.864 545.71 723.548 546.686 723.548C547.663 723.548 548.932 724.232 549.616 725.013C551.276 727.064 554.206 726.868 557.429 724.525C558.893 723.45 560.944 722.474 561.921 722.278C564.557 721.888 569.538 719.056 571.003 717.298C572.37 715.735 577.546 715.247 581.452 716.321C582.624 716.614 584.089 718.275 584.87 719.935C586.53 723.646 590.436 724.818 591.218 721.888C591.511 720.814 592.585 719.446 593.659 718.86C595.319 717.786 596.003 717.982 598.542 720.13C601.667 722.767 604.304 723.157 607.233 721.595C609.675 720.325 612.116 721.302 612.116 723.646C612.116 724.72 612.8 725.501 613.874 725.501C614.753 725.501 616.804 726.185 618.366 726.966C621.491 728.626 621.686 728.528 623.249 725.306C623.835 724.036 625.788 722.571 627.448 722.083C629.108 721.497 631.354 720.325 632.429 719.349C634.089 717.884 634.479 717.786 635.456 719.056C636.139 719.837 637.214 720.325 637.995 720.032C638.679 719.739 640.827 720.228 642.878 721.009C644.929 721.888 647.761 722.571 649.128 722.571C652.35 722.571 656.061 718.958 656.061 715.931C656.061 714.075 656.647 713.782 659.772 713.782C662.702 713.782 664.167 714.466 666.804 717.2C668.659 719.056 670.514 720.618 671.003 720.618C671.393 720.618 673.151 721.888 674.909 723.548L677.936 726.38L679.108 723.548C680.182 721.009 680.671 720.814 683.6 721.204C686.53 721.693 687.018 721.4 689.167 717.591C690.436 715.247 691.511 712.122 691.413 710.657C691.315 708.314 691.706 707.923 693.854 707.923C696.296 707.923 696.296 707.728 695.71 703.431C695.124 698.646 697.077 692.982 699.323 693.47C700.007 693.567 701.374 693.177 702.448 692.591C705.28 691.028 712.702 689.954 712.702 691.126C712.702 691.614 714.362 692.786 716.315 693.567C719.636 694.837 720.124 694.837 721.198 693.372C722.272 692.005 722.565 692.005 723.932 693.958C725.593 696.302 730.475 696.985 733.21 695.228C734.186 694.642 735.261 694.837 736.628 696.107C739.655 698.841 742.78 699.329 743.952 697.083C744.538 696.107 745.612 695.228 746.393 695.228C747.272 695.228 747.956 693.665 748.444 690.833C748.737 688.392 749.518 686.341 750.202 686.243C750.788 686.243 753.034 686.048 755.182 686.048C758.991 685.95 759.089 685.853 758.796 682.728C758.6 680.677 759.186 678.724 760.456 677.064C761.823 675.306 762.214 673.743 761.823 671.4C761.53 669.446 761.921 667.005 762.897 665.15C764.362 662.22 764.85 662.025 769.636 662.025H774.714L777.155 657.044C779.304 652.454 779.304 651.966 777.839 651.087C776.96 650.599 776.179 649.427 776.179 648.353C776.179 647.181 775.397 646.4 774.03 646.204C771.979 645.911 771.784 645.423 771.979 639.954C772.077 635.169 772.663 633.021 775.007 629.31C777.448 625.403 777.741 624.232 776.862 622.767C775.886 621.302 776.081 620.228 777.643 617.396C779.792 613.489 783.991 611.634 787.018 613.196C789.557 614.661 792.78 614.368 792.78 612.806C792.78 612.025 794.245 610.267 796.003 608.9L799.128 606.36L796.979 604.896C794.538 603.235 793.952 599.915 796.003 599.72C796.589 599.622 798.932 599.427 800.983 599.329C804.108 599.134 805.182 598.45 806.55 596.107C808.991 591.907 808.796 589.271 805.964 587.415C803.327 585.657 802.643 581.556 804.889 580.677C806.354 580.091 808.014 573.157 807.624 569.642C807.428 568.079 808.6 567.005 812.702 565.052C816.022 563.392 818.268 561.634 818.757 560.267C819.147 558.997 819.831 557.728 820.417 557.337C821.1 556.946 820.807 555.775 819.733 554.114C817.78 551.087 818.366 546.79 820.71 546.79C821.491 546.79 823.737 545.228 825.69 543.275C828.815 540.052 829.303 539.075 829.596 533.997C829.792 529.114 829.596 528.138 827.936 527.259C825.202 525.794 825.495 524.036 828.913 521.595C830.671 520.228 831.94 518.177 832.428 516.028C833.112 512.025 836.335 509.095 841.706 507.728C845.026 506.849 845.514 506.263 846.003 503.04C846.979 497.083 848.346 494.642 851.862 491.81C854.401 489.759 855.28 488.294 855.28 486.243C855.28 484.583 854.792 483.314 854.206 483.314C852.448 483.314 854.01 477.454 856.843 473.353C858.893 470.423 859.186 469.349 858.307 468.275C857.331 467.2 857.721 465.833 859.87 461.634C861.432 458.802 863.385 454.603 864.264 452.454C865.632 449.036 866.413 448.255 869.44 447.767C871.296 447.376 873.249 447.376 873.737 447.669C876.569 449.329 881.061 436.829 878.718 433.997C878.034 433.216 877.839 432.532 878.229 432.532C878.522 432.532 877.936 431.068 876.862 429.212C875.3 426.673 874.909 424.915 875.3 421.204C875.885 415.247 877.448 413.587 882.917 413.099C883.307 413.001 883.405 411.927 883.014 410.56C882.526 408.607 882.819 408.118 884.772 407.63C885.944 407.239 888.19 405.286 889.655 403.138C891.803 400.208 892.975 399.329 895.319 399.329C898.542 399.329 899.714 397.767 900.69 392.005C901.081 389.857 901.96 387.22 902.643 386.048C903.425 384.876 904.108 382.532 904.303 380.677C904.499 378.138 905.085 377.357 907.038 376.868C909.089 376.38 909.479 375.696 909.772 372.278C909.968 369.544 910.456 368.372 911.237 368.665C911.921 368.86 914.167 367.591 916.218 365.638C919.245 362.903 920.319 362.415 921.784 363.294C922.76 363.782 925.104 364.173 926.764 364.075C928.522 364.075 930.866 364.271 931.94 364.661C933.991 365.247 934.186 364.857 934.382 359.485C934.675 353.235 935.456 351.575 938.288 350.989C940.729 350.501 942.194 350.989 946.296 353.919C951.276 357.532 951.471 357.532 958.014 356.946C965.143 356.263 971.491 353.821 971.491 351.771C971.491 351.087 971.882 350.501 972.37 350.501C972.858 350.501 973.542 348.743 973.932 346.595C974.616 342.786 975.104 342.298 978.62 342.689C980.964 342.884 984.186 339.954 984.186 337.61C984.186 336.634 983.796 335.853 983.405 335.853C982.917 335.853 982.526 334.485 982.526 332.923C982.526 330.579 983.014 329.993 984.675 329.993C985.846 329.993 987.604 329.114 988.581 328.04C989.557 326.966 991.315 326.087 992.487 326.087C994.05 326.087 995.221 324.72 997.37 320.228C1000.4 313.88 1000.01 312.22 995.221 310.364C992.585 309.388 991.022 306.36 992.78 305.775C997.468 304.212 998.151 297.864 994.44 291.907C993.073 289.759 991.608 288.001 991.12 288.001C990.729 288.001 989.948 286.634 989.46 284.876C988.678 282.435 987.8 281.556 985.456 281.068C983.698 280.775 981.94 280.872 981.257 281.556C980.671 282.142 978.718 282.435 976.764 282.239C974.323 282.044 972.468 282.63 970.026 284.486C966.999 286.829 966.413 286.927 961.725 286.048C955.182 284.778 954.889 284.583 954.889 280.579C954.889 277.064 953.62 273.939 951.276 271.595C950.593 270.911 950.007 269.056 950.007 267.591C950.007 265.54 949.225 264.466 946.198 262.708C943.659 261.341 941.901 259.486 941.12 257.337L939.948 254.017L932.721 254.212C927.936 254.407 925.202 254.896 924.616 255.677C924.225 256.458 923.346 256.849 922.663 256.556C921.296 256.165 915.827 246.497 915.827 244.642C915.827 243.861 915.143 242.786 914.46 242.103C913.678 241.517 912.897 239.173 912.702 236.927C912.409 233.021 912.214 232.825 908.307 231.946C905.085 231.165 903.913 230.384 903.034 228.236C902.155 226.087 902.155 225.111 903.034 224.232C904.889 222.376 904.303 219.642 902.057 219.642C900.983 219.642 899.225 219.251 898.249 218.665C896.1 217.493 887.507 220.911 887.507 222.962C887.507 225.696 883.698 227.65 877.741 227.943C874.323 228.138 871.882 227.845 871.882 227.259C871.882 225.599 858.6 228.724 856.159 230.97C855.378 231.751 854.401 232.142 854.108 231.849C853.815 231.556 852.057 231.946 850.202 232.728C848.346 233.509 845.905 233.997 844.733 233.704C843.073 233.216 842.682 233.607 842.389 235.95C842.096 238.392 841.803 238.685 838.678 238.489C830.866 238.001 824.909 235.95 823.542 233.411C822.858 232.044 821.1 229.798 819.733 228.528C818.366 227.161 817.194 225.208 817.194 224.036C817.194 222.962 815.729 219.837 814.069 217.103C812.311 214.466 810.163 210.071 809.284 207.435L807.819 202.552L803.132 202.845C798.053 203.138 794.733 201.282 794.733 198.06C794.733 195.325 793.659 193.275 792.194 193.275C791.511 193.275 789.362 191.907 787.604 190.345C783.698 186.927 783.6 186.927 781.647 188.978Z" fill="white"/>
<circle id="301" cx="447" cy="434" fill="#5CE50D"/>
<circle id="302" cx="829" cy="414" fill="#E52A0D"/>
<circle id="1325" cx="259" cy="424" fill="#E52A0D"/>
<circle id="303" cx="575" cy="688" fill="#E52A0D"/>
</svg>
