<svg width="1000" height="1000" viewBox="0 0 1000 1000" fill="none" xmlns="http://www.w3.org/2000/svg">
<path d="M632.37 0.511719C631.686 0.707031 631.101 1.68359 631.101 2.66016C631.101 3.53906 630.417 5.19922 629.636 6.27344C627.976 8.71484 626.12 19.2617 626.901 22.0938C627.194 23.168 626.706 27.1719 625.827 30.9805C624.948 34.6914 624.265 39.0859 624.265 40.6484C624.265 42.4062 623.288 44.3594 621.433 46.1172C619.87 47.6797 618.308 49.8281 618.015 51.0977C617.526 53.0508 616.843 53.2461 611.667 53.1484C606.101 53.0508 605.71 53.2461 602.585 56.7617C599.46 60.375 599.167 60.4727 592.038 60.668C585.202 60.8633 584.714 60.7656 584.421 58.7148C584.226 57.543 583.249 56.2734 582.175 55.9805C581.198 55.5898 579.733 54.2227 579.05 52.8555C577.683 50.4141 577.585 50.4141 566.647 50.5117C560.593 50.6094 554.831 51.0977 553.854 51.6836C552.878 52.1719 547.507 52.6602 541.843 52.8555C536.179 52.9531 531.394 53.3438 531.101 53.5391C530.905 53.832 529.343 61.5469 527.683 70.6289C525.339 83.2266 524.655 90.0625 524.655 99.1445C524.655 108.617 524.265 111.84 522.8 115.258C519.089 123.754 513.425 126.684 508.151 122.777C505.905 121.117 504.538 120.824 501.901 121.312C496.921 122.289 496.042 125.023 496.823 137.523C497.507 147.289 497.409 148.168 495.065 152.758C492.624 157.543 491.354 165.844 489.499 187.328C489.011 192.406 487.839 199.438 486.765 202.953C482.858 215.648 480.71 224.535 480.71 228.246C480.71 230.297 479.831 234.496 478.757 237.719C477.585 240.844 473.679 255.59 469.968 270.434C462.937 298.363 456.394 320.531 453.952 324.34C453.171 325.512 451.218 331.469 449.558 337.523C447.702 344.262 444.284 352.953 440.769 359.984C437.644 366.234 434.812 372.68 434.421 374.145C434.128 375.609 431.198 382.738 427.976 390.062C424.753 397.289 422.116 403.832 422.116 404.516C422.116 405.199 419.479 409.496 416.159 413.988C412.839 418.48 409.812 423.266 409.226 424.633C408.737 426 405.417 431.371 401.901 436.645C398.483 441.918 395.847 446.801 396.14 447.582C396.335 448.266 399.069 450.707 401.999 452.855C405.026 455.102 408.151 458.227 409.03 459.984L410.593 463.012L404.05 468.969C396.237 475.902 389.304 482.738 386.276 486.156C385.104 487.523 381.296 491.332 377.78 494.75C368.796 503.539 367.038 507.641 367.722 517.895L368.308 526.098L361.472 532.25C357.761 535.668 352.487 540.355 349.753 542.797L344.87 547.191L350.339 563.305C353.269 572.191 359.323 591.234 363.62 605.785C370.749 629.32 372.8 634.789 383.151 657.348C393.112 679.32 395.163 684.496 398.19 696.801C400.632 706.762 401.608 713.109 401.608 718.383C401.608 725.707 401.706 726.098 406.003 732.348L410.397 738.793L408.444 744.555C406.882 748.852 406.589 751.488 407.077 755.004C407.663 759.594 407.858 759.887 415.085 764.477L422.507 769.164L438.034 813.5C449.46 846.02 453.757 859.594 454.245 864.574C455.417 874.633 470.358 922.777 474.46 929.516C477.292 934.203 477.78 935.766 477.78 941.234C477.78 945.824 478.366 948.461 479.733 950.805C482.468 955.199 482.468 964.379 479.733 967.797C477.878 970.238 477.878 970.238 480.515 980.395C483.249 990.941 487.644 999.828 489.987 999.828C490.671 999.828 493.015 997.289 495.065 994.262C497.116 991.234 500.241 988.012 502.194 986.938C505.319 985.375 505.515 984.887 505.222 980.98C505.026 976.781 507.272 969.457 509.616 966.527C512.546 963.207 515.866 950.121 515.866 942.406C515.866 938.207 516.257 934.398 516.745 933.812C517.917 932.738 521.14 923.949 524.753 912.035C527.194 904.027 527.585 901.391 527.585 890.844C527.585 880.59 527.878 878.344 529.538 875.512C530.71 873.656 531.882 868.773 532.565 863.988C533.542 856.273 533.933 855.297 539.89 846.41C548.874 832.934 549.362 829.711 545.065 814.77C542.136 804.516 541.94 803.246 543.112 800.316C543.894 798.559 544.675 794.945 544.87 792.309C545.163 789.574 546.042 786.742 546.823 785.766C547.604 784.887 548.776 782.25 549.46 779.906C550.534 776.293 550.437 774.535 548.874 767.406C545.651 752.562 545.456 751.391 546.628 748.852C549.069 743.773 555.71 719.848 556.296 714.281C556.784 709.789 558.542 705.395 564.206 694.262C572.897 677.074 574.265 673.852 576.022 666.527C577.683 659.789 579.636 655.492 583.054 651.977C585.104 649.73 585.397 648.754 584.909 645.141C584.519 642.602 585.007 638.402 585.886 634.594C587.253 629.027 588.229 627.562 593.112 622.777L598.679 617.309L599.069 609.594C599.362 603.148 599.948 600.707 602.976 594.555C606.784 586.742 609.616 580.102 609.616 578.93C609.616 578.539 608.542 578.441 607.175 578.734C601.218 579.809 598.386 577.074 596.433 568.09C596.042 566.234 594.479 562.133 592.917 558.812C588.034 548.461 589.499 542.309 596.921 541.625C599.362 541.43 600.241 540.941 599.948 539.867C599.753 539.086 599.362 535.668 599.069 532.25C598.679 526.781 598.874 525.805 600.925 523.656C603.073 521.312 603.171 521.215 601.511 518.383C600.144 516.137 600.046 515.062 600.827 513.5C601.901 511.449 601.315 507.348 599.362 504.223C597.116 500.512 596.921 488.988 598.972 481.176C599.948 477.172 600.827 473.852 600.827 473.656C600.827 473.559 599.753 473.461 598.483 473.461C596.921 473.461 593.991 475.316 590.378 478.734C587.253 481.566 583.151 484.691 581.296 485.668C579.44 486.645 576.706 488.793 575.144 490.551C571.335 495.141 560.397 502.758 553.659 505.492C548.483 507.543 546.237 507.836 528.366 508.129C513.913 508.324 507.077 508.91 502.292 510.082C495.944 511.742 495.651 511.742 491.354 509.887C487.644 508.227 486.765 507.25 486.179 504.711C485.007 498.559 485.593 495.727 490.085 487.328C495.065 477.953 498.288 465.648 498.288 455.492C498.288 450.316 498.581 449.438 501.706 446.02C503.562 443.969 505.319 441.039 505.71 439.574C506.003 438.012 506.394 436.352 506.589 435.863C506.687 435.277 511.765 432.348 517.722 429.223C525.925 424.926 528.562 423.07 528.562 421.605C528.562 420.434 529.831 418.969 531.394 417.992C533.054 417.113 534.714 415.453 535.3 414.281C535.886 412.914 537.155 412.133 538.815 412.133C540.183 412.133 542.429 411.156 543.698 409.984C545.651 408.129 547.214 407.738 554.831 407.543C559.714 407.445 564.011 407.055 564.401 406.664C564.792 406.371 563.815 404.809 562.448 403.344C560.983 401.781 559.812 399.438 559.812 398.168C559.812 394.457 557.175 392.699 549.069 391.039C545.065 390.16 539.792 388.305 537.351 386.742C534.909 385.277 530.808 383.422 528.171 382.641C523.093 381.273 523.19 381.176 520.163 386.156C519.382 387.523 517.526 388.012 511.96 388.305C503.854 388.793 502.194 387.719 502.194 382.152C502.194 378.148 503.757 376.488 509.323 374.438L513.913 372.68V367.895C513.913 363.402 513.718 362.914 510.397 360.961L506.784 358.91L507.468 352.953C507.858 349.633 508.542 344.555 509.128 341.625C509.616 338.695 510.3 333.617 510.593 330.395C511.081 325.023 510.983 324.145 508.737 321.605C506.882 319.262 506.491 318.188 507.175 316.43C507.761 314.965 507.663 313.402 506.979 312.23C506.394 311.059 506.198 308.617 506.589 306.566C507.077 303.734 506.882 302.66 505.71 302.27C503.854 301.488 501.218 295.434 501.218 291.723C501.218 289.672 502.194 288.207 504.733 286.254C511.862 280.785 514.011 278.539 514.792 275.512C515.573 272.973 515.28 271.898 513.229 269.066C510.788 265.648 510.788 265.453 512.058 258.91C513.034 253.832 514.011 251.586 516.257 249.535C518.601 247.289 519.187 245.824 519.577 241.234C519.772 238.207 520.358 235.18 520.847 234.594C521.335 234.008 521.921 230.98 522.312 227.855C523.19 220.824 527.39 215.648 533.933 213.402C536.472 212.523 539.597 210.375 541.354 208.324C544.382 204.906 555.905 196.117 557.37 196.117C557.761 196.117 560.495 198.363 563.522 201.098C568.698 205.883 568.991 205.98 572.897 205.199C577.39 204.32 590.769 204.32 594.382 205.297C597.995 206.176 600.827 213.305 600.827 221.508V228.148L613.718 232.25C622.604 235.082 627.097 236.059 628.073 235.473C628.854 234.984 630.319 231.469 631.296 227.758C632.761 222.191 633.054 218.969 632.468 209.008L631.882 196.898L635.104 193.578L638.425 190.16L636.569 187.035C634.909 184.203 633.933 180.98 632.37 173.363C631.882 170.824 632.077 170.629 634.323 171.215C637.448 172.094 641.354 169.555 642.624 165.941C643.308 163.891 644.772 162.719 647.995 161.449C651.315 160.18 652.39 159.301 652.39 157.738C652.39 156.566 652.878 153.441 653.561 150.902C654.44 147.289 654.44 143.969 653.561 136.254C652.878 130.785 652.194 123.461 651.901 120.043C651.608 115.648 650.729 112.719 649.069 110.18C647.116 107.152 646.823 106.078 647.604 103.93C648.19 102.562 649.362 94.3594 650.241 85.7656C651.804 70.6289 651.804 70.043 649.851 63.793C648.386 58.9102 648.19 57.4453 649.265 57.4453C650.046 57.4453 650.729 55.6875 651.12 52.7578C651.413 50.2188 652.097 45.9219 652.585 43.2852C653.757 37.3281 655.026 23.3633 654.733 21.3125C654.05 18.0898 654.245 13.8906 654.929 12.3281C656.003 9.88672 652.585 9.59375 649.362 11.8398C646.628 13.6953 646.628 13.6953 644.382 11.6445C643.21 10.5703 641.55 9.59375 640.671 9.59375C638.62 9.59375 637.351 7.83594 636.276 3.83203C635.397 0.414062 634.519 -0.367188 632.37 0.511719Z" fill="white"/>
<circle cx="551" cy="400" fill="#5CE50D"/>
<circle cx="468" cy="299" fill="#E52A0D"/>
<circle cx="521" cy="126" fill="#E52A0D"/>
<circle cx="470" cy="629" fill="#E52A0D"/>
</svg>
