<svg width="1000" height="1000" viewBox="0 0 1000 1000" fill="none" xmlns="http://www.w3.org/2000/svg">
<path d="M403.276 1.02426C402.006 1.61019 400.834 2.97738 400.444 3.95394C400.151 5.02816 398.686 7.27426 397.221 8.93441C395.756 10.6922 392.631 15.2821 390.287 19.0907C386.479 25.3407 385.502 26.3172 382.475 26.8055C380.62 27.0985 377.299 27.9774 375.151 28.7586C372.905 29.5399 369.975 30.1258 368.51 30.1258C366.069 30.1258 365.873 30.4188 365.873 33.7391C365.776 37.2547 364.311 39.0125 339.604 64.7938L313.334 92.1375L270.854 99.95L265.092 110.302L259.428 120.556L255.131 158.544L266.069 179.052L267.436 207.958L261.772 216.454C256.401 224.559 256.205 225.243 255.815 232.274C255.424 237.841 254.545 241.552 251.909 247.899L248.393 256.2L249.467 282.86L250.639 309.618L246.635 315.38C244.487 318.602 239.213 328.368 234.916 337.059C230.62 345.751 225.932 354.052 224.467 355.516C222.514 357.372 47.0258 450.438 5.91248 471.337L1.81091 473.388L6.20544 490.77C8.54919 500.341 14.4086 523.388 19.1937 541.942C24.0765 560.595 27.9828 576.415 27.9828 577.294C27.9828 578.27 26.5179 578.954 23.5883 579.345C20.2679 579.931 19.1937 580.516 19.1937 581.884C19.1937 583.641 22.9047 602.587 23.3929 602.977C23.4906 603.075 28.4711 602.196 34.4281 601.024L45.2679 598.778L47.9047 604.052C49.2719 606.884 50.4437 609.618 50.4437 610.106C50.4437 610.595 47.3187 613.72 43.5101 616.942C39.3109 620.556 37.1625 623.095 37.9437 623.388C38.6273 623.583 66.4594 629.735 99.7601 636.864L160.405 649.95L210.014 685.692L259.623 721.337L292.827 737.255L326.03 753.27L356.498 781.884C381.987 806.005 395.073 817.333 438.139 852.294C478.276 885.009 593.12 977.977 598.979 982.47C600.444 983.641 641.264 987.938 714.018 994.579L774.565 1000.05L778.471 998.095C780.62 996.923 784.819 994.97 787.748 993.7C794.389 990.77 806.01 978.368 811.674 968.114C813.823 964.306 816.752 960.106 818.315 958.641C819.877 957.177 822.514 952.294 824.467 947.606C826.323 943.016 829.741 936.083 832.182 932.274C834.721 928.173 836.577 923.974 836.577 922.411C836.577 920.849 837.455 918.407 838.432 916.942C839.409 915.575 841.752 910.204 843.51 905.126C846.635 896.141 854.35 880.907 856.498 879.54C857.084 879.149 859.721 878.368 862.455 877.684C865.092 877.099 868.51 875.536 869.877 874.169C872.416 871.825 872.416 871.825 891.85 872.118L911.284 872.411L938.041 882.958L941.166 880.224C944.096 877.88 944.975 877.587 950.346 877.977C954.838 878.27 957.573 879.149 962.065 881.688C972.807 887.938 987.846 890.966 995.268 888.524C998.588 887.45 998.784 887.255 997.319 885.692C996.44 884.813 993.412 883.739 990.678 883.153L985.698 882.177L983.354 875.341C981.987 871.532 980.912 866.356 980.912 863.622C980.912 859.032 980.522 858.446 973.979 851.22C968.022 844.579 966.752 843.602 963.823 843.602C958.647 843.602 956.987 842.235 956.205 837.157C955.229 830.712 954.936 830.126 951.518 829.442C949.76 829.052 946.537 827.88 944.291 826.806L940.092 824.852V811.474C940.092 804.052 939.799 789.989 939.409 780.126L938.823 762.255L905.229 763.231L904.545 757.372C904.252 754.149 903.959 742.626 903.959 731.786V712.059L911.284 690.282C915.385 678.27 918.412 667.724 918.12 666.747C917.827 665.77 916.069 663.72 914.213 662.059C912.358 660.399 910.795 658.446 910.795 657.665C910.795 656.786 909.916 655.712 908.745 655.126C907.67 654.54 905.229 651.513 903.276 648.485C901.323 645.458 898.295 641.161 896.44 639.013C894.682 636.864 892.045 633.641 890.58 631.884C889.018 630.028 886.674 628.173 885.209 627.587C882.963 626.806 882.475 626.024 882.475 623.485C882.475 621.727 882.866 619.97 883.354 619.481C883.94 618.895 881.987 615.673 878.178 610.985C873.686 605.614 871.83 602.489 871.342 599.559C870.659 594.774 865.678 588.72 862.553 588.72C861.381 588.72 859.526 588.134 858.452 587.352C856.791 586.083 856.401 586.181 854.643 587.645C853.569 588.622 850.737 589.696 848.295 589.989C844.194 590.477 843.51 590.184 835.112 584.423C826.616 578.466 818.315 570.556 814.702 565.184C813.823 563.72 811.772 562.352 810.209 561.962C808.549 561.669 804.448 559.032 800.932 556.102C797.514 553.075 792.729 549.755 790.483 548.583C788.237 547.411 783.94 544.677 781.108 542.431C778.276 540.282 774.662 537.548 773.198 536.376C769.682 533.837 758.549 531.786 747.807 531.688C737.651 531.591 736.284 530.321 739.604 524.266L741.655 520.36L738.139 517.431C736.186 515.868 734.135 514.501 733.647 514.501C733.256 514.501 733.354 513.817 734.037 513.036C734.721 512.255 736.186 511.571 737.455 511.571C738.627 511.571 741.264 510.106 743.315 508.251C747.123 505.028 747.123 505.028 745.463 502.489C744.584 501.024 743.803 498.778 743.803 497.509C743.803 496.044 743.022 494.579 741.948 494.091C738.237 492.04 732.084 483.153 732.084 479.833C732.084 475.829 724.662 466.259 722.319 467.235C721.537 467.626 719.389 468.114 717.729 468.407C713.725 468.895 713.334 466.649 716.85 463.329C719.194 461.278 719.194 460.985 717.924 457.274C716.752 453.759 716.264 453.368 712.358 452.88C709.037 452.391 707.573 452.684 705.424 454.247C702.397 456.298 701.225 455.809 700.639 452.001C700.444 450.438 698.588 448.29 695.268 445.751C691.459 442.919 690.092 441.356 690.092 439.501C690.092 438.134 688.627 435.302 686.772 433.056C685.014 430.809 682.573 427.098 681.303 424.657C677.104 416.356 675.639 414.891 671.635 414.891C669.389 414.891 667.338 414.306 666.557 413.329C665.385 411.962 665.58 411.473 667.827 409.618C669.389 408.348 670.561 406.102 671.049 403.661C671.928 398.388 673.784 395.263 677.397 392.626C679.838 390.77 680.327 389.794 679.936 388.036C679.643 386.766 680.034 384.227 680.815 382.274C682.573 378.173 682.67 375.634 681.205 370.751C680.327 367.431 679.838 366.942 676.323 366.454C673.002 365.868 672.123 365.184 670.561 362.059C667.729 356.591 667.924 352.587 671.049 351.806C674.272 351.024 676.42 346.825 676.42 341.259C676.42 335.985 677.495 335.106 681.108 337.548C683.061 339.013 685.405 339.501 690.483 339.501L697.123 339.598L696.733 334.911C696.44 331.786 695.073 328.173 692.729 324.462L689.311 318.798L691.166 315.087C692.143 313.134 693.022 310.888 693.022 310.204C693.022 309.52 694.78 308.153 696.928 307.274C700.639 305.712 700.834 305.516 700.834 301.22C700.834 298.778 701.03 296.727 701.225 296.727C701.42 296.727 703.471 297.411 705.815 298.192C711.381 300.243 711.772 299.657 712.065 288.915C712.065 285.009 712.748 282.567 714.506 279.931C715.873 277.977 717.338 276.317 717.729 276.22C718.12 276.22 720.17 277.294 722.123 278.661L725.639 281.102L728.178 278.661C729.545 277.294 731.791 276.22 733.159 276.22C738.627 276.22 739.409 275.438 739.018 270.751C738.823 268.309 739.213 265.77 739.799 265.184C742.436 262.548 739.604 256.688 735.6 256.688C734.233 256.688 733.94 256.2 734.428 254.442C734.721 253.27 735.307 250.438 735.6 248.192C736.186 244.384 735.991 243.993 733.647 242.821C732.182 242.235 730.034 239.891 728.959 237.743C727.885 235.497 725.737 231.981 724.272 229.833C722.709 227.489 721.44 224.071 721.147 221.337C720.659 217.235 720.854 216.747 722.709 216.454C724.467 216.161 724.76 215.575 724.467 211.766C724.37 209.325 724.467 206.298 724.76 205.126C725.248 202.977 725.639 202.88 730.131 203.466C734.33 204.052 735.014 203.856 735.991 202.098C736.87 200.438 737.944 200.048 742.241 200.048C747.807 200.048 749.077 199.169 752.006 193.505C754.35 188.915 754.057 185.399 751.42 185.399C750.248 185.399 748.393 186.278 747.221 187.352C744.584 189.794 738.725 189.11 737.358 186.083C736.87 185.009 735.307 183.251 733.94 182.177C731.596 180.516 731.205 180.419 727.69 181.981C725.541 182.86 722.709 183.251 721.245 182.958C719.389 182.567 718.51 182.86 718.12 183.934C717.729 184.911 716.459 185.399 714.604 185.204C713.041 185.106 711.088 185.595 710.209 186.278C709.33 187.059 707.67 187.255 705.815 186.864C704.155 186.571 702.69 186.669 702.299 187.255C702.006 187.841 700.737 188.329 699.467 188.329C697.905 188.329 696.733 187.157 695.17 183.837C692.045 177.489 687.748 172.411 681.401 167.626L676.03 163.622L668.217 164.696C661.186 165.673 654.936 165.477 654.936 164.208C654.936 164.013 655.815 162.157 656.889 160.009C659.33 155.321 659.33 154.345 656.889 151.22C655.522 149.462 654.936 147.216 654.936 143.407C654.936 138.231 654.741 137.938 651.909 136.864C649.272 135.79 649.077 135.497 650.053 133.544C650.932 131.981 650.932 130.516 650.248 127.88C649.662 125.927 648.979 122.899 648.686 121.141C647.905 116.747 644.975 113.036 643.12 114.208C641.459 115.282 635.405 115.38 633.842 114.306C632.475 113.524 623.686 100.536 623.686 99.4618C623.686 99.0711 624.955 96.825 626.616 94.4813C630.229 89.2078 630.229 86.8641 627.006 80.8094C624.272 75.8289 620.561 73.4852 612.162 71.2391C608.842 70.2625 608.061 69.6766 608.061 67.7235C608.061 66.4539 609.135 64.1102 610.502 62.5477C614.213 58.1532 614.995 55.1258 613.237 52.5868C612.162 51.0243 611.87 49.2664 612.358 46.0438C613.041 41.161 611.479 39.0125 607.573 38.9149C606.303 38.9149 604.643 37.3524 602.885 34.325C600.541 30.5164 600.248 29.4422 601.127 27.4891C601.713 26.2196 602.202 24.95 602.202 24.7547C602.202 24.4618 598.491 24.2664 593.901 24.2664C586.577 24.2664 584.819 24.6571 579.936 27.0985C576.811 28.661 572.612 31.786 570.659 33.9344C567.436 37.45 566.557 37.9383 562.651 37.9383C558.256 37.9383 558.256 37.9383 558.256 41.2586C558.256 46.0438 557.377 47.7039 554.936 47.7039C551.909 47.6063 550.151 45.9461 546.537 39.5985C543.705 34.618 543.51 33.6414 544.487 31.3953C545.17 30.0282 546.733 28.075 548.002 27.0008C550.932 24.7547 551.127 21.1414 548.881 15.4774C547.612 12.2547 546.245 10.9852 542.338 8.93441C538.139 6.78597 536.479 6.49301 531.401 6.98129C525.639 7.37191 525.151 7.66488 520.659 12.45C515.385 18.0164 510.112 20.3602 506.694 18.5047C505.62 17.9188 501.127 17.4305 496.733 17.4305C491.362 17.4305 487.846 16.9422 485.795 15.868C484.037 14.8914 481.401 14.5008 479.252 14.7938C475.248 15.2821 467.729 11.9618 463.237 7.86019C460.893 5.6141 460.209 5.41879 457.67 6.39535C455.229 7.37191 454.35 7.07894 451.127 4.73519C447.026 1.80551 436.967 -0.928869 436.381 0.828943C436.186 1.31722 434.916 1.80551 433.549 1.80551C432.182 1.80551 428.959 2.58676 426.42 3.46566C421.928 5.02816 421.44 5.02816 416.264 3.46566C413.237 2.4891 410.795 1.31722 410.795 0.731287C410.795 -0.440588 406.01 -0.245275 403.276 1.02426Z" fill="white"/>
<circle id="320" cx="560" cy="470" fill="#5CE50D"/>
<circle id="976" cx="530" cy="147" fill="#E52A0D"/>
<circle id="323" cx="560" cy="279" fill="#E52A0D"/>
<circle id="321" cx="907" cy="827" fill="#E52A0D"/>
</svg>
