<svg width="1000" height="1000" viewBox="0 0 1000 1000" fill="none" xmlns="http://www.w3.org/2000/svg">
<path d="M20.853 71.8594C18.6069 75.4727 16.4585 79.2812 16.1655 80.4531C15.7749 81.7227 12.5522 84.0664 7.76709 86.7031C2.00537 89.8281 -0.0454102 91.3906 -0.0454102 92.8555C-0.0454102 93.9297 1.22412 99.0078 2.78662 104.184L5.71631 113.559L5.81397 142.367C6.00928 169.418 5.91162 171.469 3.9585 176.254L2.00537 181.234L7.47412 185.434C13.3335 189.926 22.8062 201.156 24.3687 205.453C24.9546 206.82 25.6382 216.879 26.0288 227.621L26.6147 247.348L30.521 254.477C33.4507 259.848 35.9897 262.973 40.4819 266.684L46.6343 271.762L47.8062 279.086C48.4897 283.09 50.1499 289.145 51.4194 292.465C53.3726 297.445 54.5444 298.91 57.8647 300.863C65.2866 305.16 73.1968 307.406 83.8413 308.188L93.9976 308.871L83.646 322.348L84.2319 333.773L84.7202 345.297L80.3257 349.496C73.2944 356.43 65.5796 368.051 63.8218 374.691C62.2593 380.258 61.8687 380.746 58.5483 381.625C56.4976 382.211 54.4468 383.188 53.8608 383.871C52.5913 385.434 50.7358 396.664 50.7358 402.523C50.7358 406.234 50.1499 407.992 47.8062 410.922C42.6304 417.465 41.5562 424.008 44.4858 431.234C45.6577 434.359 46.7319 435.238 49.6616 436.215C51.8101 436.801 54.1538 437.094 54.9351 436.703C56.1069 436.313 57.2788 437.68 59.3296 441.879C60.9897 445.004 64.0171 450.57 66.2632 454.379C69.6812 460.141 70.2671 461.996 70.2671 466.586C70.2671 471.469 70.5601 472.348 73.3921 475.082C75.1499 476.742 79.8374 480.16 83.7437 482.504C87.6499 484.945 92.0444 488.461 93.6069 490.414C95.1694 492.367 99.8569 496.469 103.861 499.398C110.013 503.891 112.943 505.258 120.462 507.309C129.056 509.652 129.837 510.043 132.474 513.852C134.037 516 136.576 520.883 138.138 524.691C139.701 528.402 142.044 533.09 143.509 534.945C148.294 541.293 151.908 548.129 153.568 553.793C155.033 559.164 155.033 560.043 153.177 569.418C152.201 574.887 151.029 585.043 150.736 592.074L150.248 604.77L162.552 610.824L164.017 619.516C165.58 628.891 168.802 635.238 175.541 642.856C179.74 647.543 198.978 662.875 200.638 662.875C201.322 662.875 202.591 661.117 203.47 658.969C204.642 655.941 205.716 654.867 207.767 654.477C210.209 653.988 210.697 653.305 211.673 648.227C212.552 644.223 212.552 641.781 211.869 639.828C209.72 634.359 216.849 633.773 223.294 639.047C226.908 642.074 227.787 643.539 229.642 649.887C231.302 655.551 232.376 657.504 234.33 658.481C235.697 659.164 237.845 660.922 239.115 662.289C240.482 663.656 241.947 664.828 242.533 664.828C243.119 664.828 245.365 666.195 247.416 667.758L251.322 670.688L254.251 667.856C259.33 663.168 264.896 659.945 268.119 659.945C271.927 659.945 276.908 665.805 278.666 672.445C280.033 677.621 290.384 692.563 294.681 695.492C298.685 698.129 301.224 702.621 304.154 711.801L306.693 720.004L316.263 728.305C325.736 736.508 325.834 736.703 326.908 742.465C327.591 745.688 330.521 754.281 333.548 761.508C336.576 768.734 340.287 777.914 341.947 781.82C344.584 788.168 345.755 789.633 353.763 796.664L362.748 804.477H371.732C380.814 804.477 380.912 804.477 391.361 809.75C397.123 812.68 404.74 817.172 408.353 819.809C414.017 823.91 415.384 825.668 418.9 832.504L423.001 840.414L428.959 842.074C446.048 846.664 457.279 850.961 460.794 854.086C463.041 856.137 463.919 857.504 463.138 857.797C462.357 858.188 463.626 860.336 466.849 863.949L471.732 869.613L480.716 868.148C493.021 866.293 503.959 867.172 508.744 870.297C514.212 873.91 525.931 877.035 531.205 876.449C538.138 875.668 546.732 871.371 550.541 866.977C553.568 863.363 554.154 863.07 558.841 863.07C568.216 863.07 574.955 859.555 578.373 852.719C579.74 850.082 581.498 849.203 594.388 844.516C602.298 841.684 611.185 838.266 614.115 836.996C622.611 833.285 626.81 833.871 638.724 840.121L648.978 845.395L654.935 855.453C659.037 862.484 661.087 866.977 661.576 870.395C662.65 878.305 667.435 889.047 676.029 903.109L684.134 916.293L697.22 916.781C705.716 917.172 711.478 917.856 713.334 918.734C715.58 919.809 721.048 920.199 736.283 920.297C759.525 920.395 767.24 921.664 774.173 926.547C778.177 929.379 778.666 929.477 779.544 928.012C782.474 922.738 786.673 921.371 791.752 924.008C797.611 926.938 814.701 928.793 832.474 928.305C849.076 927.816 849.466 927.816 852.494 925.277C854.154 923.813 856.009 922.641 856.498 922.641C856.986 922.641 859.037 924.203 861.087 926.059C864.31 928.891 865.775 929.477 871.634 930.063C875.345 930.453 881.302 931.723 884.916 932.992C888.529 934.164 892.24 934.945 893.216 934.75C894.193 934.555 899.173 933.871 904.252 933.383C909.33 932.895 915.091 932.211 916.947 931.82L920.365 931.234L920.56 920.883C920.853 909.066 923.099 892.367 925.345 885.043C926.224 882.309 929.154 875.57 931.888 869.906C937.943 857.406 946.927 847.055 952.884 845.981C956.595 845.297 963.334 841.781 971.634 836.215C974.955 833.969 978.177 832.699 981.888 832.309C986.966 831.625 987.65 831.234 992.728 825.57C1000.64 816.977 1001.52 813.266 998.294 804.086C995.951 797.641 992.728 795.688 984.33 795.688C973.685 795.688 973.88 795.785 973.197 786.117C972.318 773.031 964.603 744.809 961.185 741.781C957.377 738.559 951.127 736.215 940.873 734.359C931.888 732.699 928.177 731.332 918.412 726.449C902.787 718.637 896.439 712.973 889.408 700.277C886.478 695.004 883.158 688.559 882.181 686.02C880.13 680.746 875.638 676.547 864.701 669.516C860.892 667.074 856.693 663.461 855.13 661.215L852.396 657.309L854.252 652.523C862.552 631.43 865.58 625.082 868.9 621.469C878.861 610.531 881.498 606.137 883.548 596.469C886.576 582.699 887.064 575.961 885.794 568.93C884.037 559.652 880.423 553.891 873.978 550.082C868.705 546.859 868.509 546.859 862.064 547.836C856.205 548.813 855.13 548.715 850.052 546.664C842.435 543.539 833.646 536.898 831.986 532.992C830.619 529.77 830.521 527.523 831.009 509.945C831.205 500.863 831.009 499.594 828.275 493.344C821.341 477.426 817.337 466.293 817.337 462.68C817.337 458.09 819.388 447.934 822.22 438.852C824.466 431.625 824.271 423.813 821.732 421.273C821.048 420.59 818.119 419.711 815.287 419.418C812.455 419.027 809.818 418.441 809.525 418.051C809.134 417.563 808.548 411.508 808.158 404.574L807.572 391.879L825.15 382.504V374.496C825.15 366.977 825.443 365.805 830.228 354.77L835.404 343.051L835.111 326.449C835.013 317.27 835.404 304.574 835.99 298.129C836.869 287.289 836.869 286.117 835.013 282.016C832.865 276.938 831.498 270.297 829.837 255.16L828.568 244.418L824.173 243.246C821.732 242.66 815.287 242.074 809.818 242.074L799.759 241.977L790.287 236.898C785.013 234.164 778.568 230.258 775.834 228.305C769.095 223.324 763.822 220.59 752.005 215.609C746.439 213.266 741.849 210.824 741.654 210.238C739.896 203.598 737.162 198.715 732.669 194.027C727.494 188.559 727.396 188.559 719.388 187.387C709.427 186.02 704.154 186.02 698.783 187.387C694.974 188.363 693.607 188.07 684.427 184.945C678.861 183.09 666.361 179.281 656.791 176.547L639.212 171.469L619.584 153.012L606.4 153.5C589.017 154.184 588.138 154.477 586.966 158.773C586.38 160.629 584.72 163.461 583.353 165.023C580.912 167.465 580.033 167.758 574.271 167.66C570.755 167.66 566.263 167.074 564.408 166.391C561.771 165.414 559.623 165.414 553.666 166.391C540.677 168.637 539.701 169.125 531.986 177.621C523.002 187.484 503.47 203.305 496.244 206.527C493.216 207.895 486.576 210.043 481.498 211.313C476.419 212.484 471.83 214.047 471.244 214.633C469.681 216.195 470.56 222.25 473.099 227.328C474.466 229.965 476.029 235.238 476.615 239.047C477.884 246.762 477.494 247.836 472.513 247.836C471.146 247.836 467.63 248.52 464.798 249.398C460.794 250.57 457.572 250.766 451.419 250.277C446.927 249.887 443.314 249.301 443.314 248.91C443.314 248.52 446.341 247.641 450.15 246.957C457.084 245.688 458.06 245.004 455.619 243.051C454.642 242.172 452.689 242.465 447.611 244.32C432.669 249.594 418.021 253.598 411.673 254.281C406.4 254.77 401.908 256.234 391.947 260.629C379.447 266.293 378.861 266.391 370.462 266.391C355.716 266.391 345.56 264.047 334.916 258.383C324.173 252.621 306.595 241.977 301.908 238.461C299.857 236.898 297.513 233.285 295.267 228.402C292.044 221.371 291.459 220.688 287.845 219.613C285.306 218.832 281.107 218.637 275.443 219.027C267.337 219.711 266.654 219.613 261.087 216.781C257.962 215.219 253.08 213.559 250.345 213.168C246.048 212.582 244.681 211.898 240.384 207.504C235.794 202.914 235.013 201.352 231.302 190.219C227.787 179.672 227.103 176.352 226.517 165.805C226.126 159.066 225.443 152.914 225.15 152.133C224.662 151.059 222.904 150.668 217.826 150.668C211.771 150.668 210.892 150.375 209.134 148.227C208.06 146.859 204.544 144.516 201.322 142.953C198.099 141.391 194.974 139.145 194.291 137.973C193.607 136.801 190.97 134.75 188.334 133.578C185.697 132.309 183.548 130.746 183.548 130.16C183.548 128.598 186.966 125.668 193.509 121.469L199.173 117.953L196.146 109.848C193.705 103.109 193.314 100.961 193.802 96.3711L194.388 90.9023L187.455 86.4102C181.302 82.3086 180.13 81.8203 175.052 81.8203C166.459 81.8203 155.228 86.0195 146.439 92.3672C140.384 96.7617 137.845 99.4961 132.279 107.895C121.537 123.812 122.513 122.934 113.431 124.301C101.322 126.059 84.1343 124.594 71.2437 120.785L60.8921 117.758L53.1772 104.965C44.5835 91 26.7124 65.2188 25.5405 65.2188C25.1499 65.3164 23.0015 68.2461 20.853 71.8594Z" fill="white"/>
<circle id="316" cx="346" cy="325" fill="#5CE50D"/>
<circle id="318" cx="406" cy="500" fill="#E52A0D"/>
<circle id="1335" cx="115" cy="185" fill="#E52A0D"/>
<circle id="317" cx="764" cy="274" fill="#E52A0D"/>
</svg>
