<svg width="1000" height="1000" viewBox="0 0 1000 1000" fill="none" xmlns="http://www.w3.org/2000/svg">
<path d="M756.6 165.895C755.135 169.508 751.034 174.391 748.397 175.758C746.737 176.637 745.956 176.344 743.221 173.512C739.706 169.898 737.362 169.996 737.362 173.707C737.362 175.855 737.167 176.051 735.897 174.977C735.116 174.293 734.432 172.926 734.432 172.047C734.432 171.07 734.139 169.605 733.846 168.727C732.87 166.09 729.549 168.727 729.549 172.047C729.549 174 729.061 174.977 728.084 174.977C727.108 174.977 726.62 174 726.62 172.242V169.605L724.667 172.828C722.323 176.637 722.323 176.734 724.276 177.125C726.717 177.613 728.475 185.719 728.573 196.07C728.573 202.809 728.963 205.348 730.038 206.227C730.819 206.91 731.502 208.473 731.502 209.742C731.502 211.109 732.87 214.625 734.627 217.555C737.069 222.047 737.459 223.414 736.581 224.879C735.213 226.93 731.893 239.332 730.917 245.777L730.233 250.367L725.936 244.898L722.42 247.145C720.077 248.609 718.124 249.098 716.463 248.609C714.022 248.023 713.924 248.121 713.924 253.004C713.924 258.082 713.143 259.059 710.995 256.52C709.237 254.371 708.456 254.664 707.088 257.984C705.819 261.109 704.159 261.012 704.159 257.887C704.159 255.152 702.206 254.762 696.249 256.324C691.756 257.496 690.975 257.887 691.268 259.742C691.463 261.305 691.073 261.891 689.706 261.891C688.045 261.891 687.557 260.816 686.678 255.738C685.116 246.656 683.846 242.848 681.502 239.918C679.745 237.672 678.963 237.379 675.936 237.965C673.983 238.355 671.444 239.527 670.174 240.699C668.319 242.457 667.635 242.555 665.975 241.578C664.315 240.504 663.729 240.699 661.678 242.75C659.237 245.191 658.358 249.195 660.213 249.195C660.799 249.195 661.19 250.562 661.19 252.32C661.19 254.664 660.213 256.227 656.698 259.547C653.28 262.574 652.01 264.625 651.424 267.652C651.034 269.898 651.131 271.656 651.522 271.656C653.084 271.656 652.401 275.27 650.545 276.93C649.569 277.809 648.495 279.859 648.202 281.422C647.42 285.035 645.077 286.207 637.459 286.988L631.307 287.477L631.698 291.09L631.991 294.605L629.256 291.48C627.792 289.723 625.35 288.062 623.885 287.672C621.346 287.086 621.151 286.695 621.151 282.496C621.053 280.055 620.565 276.832 619.881 275.367C618.417 272.047 607.577 260.719 606.502 261.402C605.624 261.891 600.643 256.52 600.643 254.957C600.643 253.102 596.639 250.172 594.198 250.172C592.831 250.172 590.487 251.051 589.12 252.223L586.581 254.176L584.725 250.562C583.065 247.34 582.674 247.145 581.893 248.609C581.014 250.27 580.819 250.172 578.67 248.219C576.815 246.559 575.741 246.266 573.299 246.754C571.151 247.242 569.881 247.047 569.393 246.266C568.514 244.801 563.534 252.809 563.534 255.738C563.534 256.812 564.217 259.645 564.999 261.891C565.78 264.137 566.463 267.652 566.463 269.605C566.463 275.66 568.905 282.984 572.713 288.551C575.936 293.238 576.229 294.117 575.155 295.875C574.081 297.535 574.178 298.316 575.643 300.465C576.913 302.32 577.596 302.809 578.182 301.93C579.647 299.586 586.288 311.402 588.045 319.41C588.924 323.609 588.729 325.27 586.874 331.031L584.725 337.672L586.874 347.145C589.413 358.766 589.413 359.547 587.069 359.547C585.116 359.547 584.042 357.789 584.042 354.469C584.042 353.395 582.577 350.367 580.819 347.926C578.377 344.508 577.401 341.969 576.913 337.867C576.62 334.742 575.643 331.227 574.862 330.055C573.788 328.59 573.299 325.758 573.299 321.656C573.299 315.895 573.104 315.406 570.37 313.844C568.124 312.574 567.049 310.816 565.584 305.836C562.752 296.852 561.19 294.801 557.284 295.484C554.745 295.973 553.67 295.582 551.913 293.727C550.741 292.457 548.495 291.188 546.932 290.797L544.1 290.309L544.295 281.227C544.491 271.266 542.635 262.867 540.78 264.723C540.194 265.309 537.752 265.797 535.409 265.797H531.112L533.651 261.5L536.19 257.105L533.749 254.469C532.381 253.004 531.307 251.051 531.307 250.074C531.307 248.512 531.014 248.414 528.67 249.391C527.108 250.074 525.057 251.344 523.885 252.32C521.346 254.566 519.198 254.664 520.077 252.32C520.37 251.441 521.249 248.707 521.834 246.461C522.811 242.652 522.811 242.066 521.053 240.797C517.928 238.453 515.682 239.039 515.682 242.164C515.682 244.996 510.604 253.102 508.944 253.102C508.358 253.102 508.358 251.93 508.846 250.074C510.213 245.582 508.651 243.238 504.842 244.02C500.057 244.898 496.542 249 494.881 255.25L493.417 260.719L496.737 265.406C498.495 267.945 499.764 270.387 499.471 270.777C498.885 271.852 495.565 270.289 492.635 267.555C490.584 265.699 490.584 265.699 489.999 267.848C489.413 269.996 489.413 269.996 486.19 267.262C483.358 264.82 482.479 264.625 477.792 265.113C474.862 265.406 470.467 266.676 468.026 267.945C462.85 270.484 463.143 269.215 464.51 284.645C464.901 289.625 464.608 292.457 463.436 295.875L461.776 300.562L464.706 306.324C466.268 309.547 468.124 314.039 468.807 316.285C469.979 319.996 469.881 320.68 468.417 322.34C467.147 323.707 466.854 325.074 467.342 327.613C467.831 330.055 467.538 331.715 466.463 333.375C465.584 334.547 464.901 336.598 464.901 337.77C464.901 339.039 464.022 340.895 462.85 342.066L460.799 344.117L456.405 339.918L452.01 335.621L452.694 339.234L453.377 342.75L448.006 340.797C442.147 338.648 440.487 336.402 440.487 330.445C440.487 328.492 439.217 323.316 437.752 319.02C435.311 311.891 434.823 311.109 430.721 308.766C428.28 307.398 425.448 306.324 424.471 306.324C423.202 306.324 422.323 305.152 421.444 302.32C420.76 300.074 419.002 296.656 417.538 294.605C415.389 291.969 415.096 290.797 415.975 290.309C417.44 289.43 416.366 287.086 411.288 279.469C409.627 277.027 408.26 274.098 408.26 272.926C408.26 271.754 407.87 270.484 407.284 270.191C406.795 269.898 406.307 268.629 406.307 267.359C406.307 266.188 405.038 263.941 403.377 262.379C401.815 260.816 400.448 258.961 400.448 258.277C400.448 255.836 395.565 255.641 392.44 257.984C390.78 259.156 387.752 260.426 385.702 260.621C383.163 261.012 381.209 261.988 379.94 263.648C378.377 265.602 377.694 265.797 376.522 264.82C374.569 263.16 372.811 264.43 374.081 266.773C374.764 267.945 374.569 269.996 373.592 273.414C372.225 277.906 372.225 278.59 374.081 282.496C375.155 284.84 376.034 288.16 376.034 289.918C376.034 291.578 377.596 297.926 379.452 303.98C381.405 310.035 382.87 316.773 382.772 318.922C382.772 321.168 383.846 326.637 385.213 331.129C388.241 340.895 388.338 343.434 385.799 347.633C384.725 349.391 383.846 352.418 383.846 354.469C383.749 360.133 381.991 366.48 379.452 370.484C377.694 373.219 377.206 374.879 377.596 377.125C378.377 380.738 376.131 384.352 374.959 381.324C374.569 380.348 374.178 378.102 374.178 376.344C374.081 373.707 373.69 373.219 371.639 373.219C367.635 373.219 367.049 376.637 370.37 380.25C371.834 381.91 373.104 383.766 373.104 384.352C373.104 386.207 367.44 394.703 365.682 395.387C363.436 396.168 357.674 390.113 356.405 385.719C355.331 381.52 354.061 380.934 353.182 384.156C352.792 385.914 352.401 386.109 351.424 385.133C350.545 384.254 350.545 381.715 351.424 373.414C352.987 359.352 352.889 357.203 350.838 355.348C349.178 353.883 348.885 353.883 346.151 355.445C344.588 356.324 339.51 361.012 334.92 365.895L326.717 374.684L323.885 387.086L321.053 399.391L324.764 411.988C326.717 418.824 328.573 425.172 328.866 426.051C329.354 427.809 326.131 429.176 323.69 428.199C321.737 427.418 319.002 421.754 316.952 414.234C315.975 410.719 314.706 407.008 314.217 405.934C312.264 402.125 311.776 408.277 313.241 419.605C314.413 429.273 314.413 430.738 312.948 433.863C312.069 435.816 311.678 438.355 311.971 439.43C312.362 440.602 312.167 442.262 311.483 443.238C310.604 444.703 310.897 447.438 312.85 456.129C315.389 467.262 315.389 469.898 313.045 469.898C312.264 469.898 311.483 467.945 311.092 464.723C310.311 458.277 308.26 451.93 304.061 442.652C301.034 436.012 300.838 434.938 301.717 431.324C302.401 428.395 302.401 425.465 301.62 420.973C301.034 417.555 300.448 413.355 300.448 411.793C300.35 410.035 299.471 408.18 298.299 407.203C297.127 406.227 295.663 404.078 294.979 402.32C294.198 400.562 293.612 399 293.417 398.805C293.319 398.609 289.999 400.465 285.897 403.004C279.452 406.91 275.448 408.375 275.448 406.91C275.448 406.617 278.573 402.809 282.381 398.414C291.268 388.062 292.245 386.207 291.854 379.273C291.561 374 291.463 373.707 288.827 373.414C286.581 373.121 285.213 374 281.6 378.004C278.963 380.934 276.62 382.594 275.838 382.301C273.495 381.422 274.276 379.371 278.963 373.609L283.456 368.141L280.624 365.211C277.792 362.184 278.182 362.184 268.124 363.941C263.827 364.723 258.846 361.402 258.846 357.789C258.846 356.324 258.163 354.078 257.284 352.809C255.721 350.66 255.721 350.465 257.284 349.586C260.995 347.535 258.358 341.578 251.717 337.379C248.397 335.23 248.006 334.742 249.471 333.961C252.499 332.301 256.209 333.473 258.358 336.793C259.432 338.551 261.581 341.969 263.143 344.41C266.17 349.391 267.635 350.172 275.057 351.051L280.038 351.637L281.209 347.73C281.893 345.582 283.065 343.629 283.846 343.336C288.631 341.871 288.631 342.066 285.702 339.039C283.553 336.793 282.674 336.402 281.6 337.281C280.624 338.062 279.842 337.867 278.377 336.598C275.741 334.254 275.936 333.473 279.256 332.691C282.87 331.91 290.78 326.051 291.463 323.707C293.514 316.383 293.319 316.09 288.924 315.016C284.334 314.039 283.651 312.086 288.045 312.281C290.292 312.379 291.073 311.793 292.44 309.059C294.491 304.762 294.491 304.566 291.463 300.953C289.803 299 288.534 298.316 287.752 298.805C286.874 299.488 279.256 299.684 277.401 299.098C277.108 299 278.28 297.828 279.842 296.461C282.772 294.117 282.772 294.02 280.233 294.996C278.475 295.68 277.303 295.582 276.522 294.801C275.741 294.02 274.569 294.215 272.03 295.387C270.077 296.266 267.928 297.047 267.049 297.047C265.78 297.047 262.948 292.555 263.827 291.871C264.999 290.895 284.237 285.328 287.069 285.133L290.389 284.84L287.655 281.617C285.311 278.785 284.432 278.395 281.893 278.98C271.444 281.129 268.612 280.445 268.612 275.953C268.612 274.781 268.124 273.414 267.635 273.121C265.682 271.949 267.928 270.484 270.663 271.07C273.983 271.754 274.081 271.363 271.542 267.262C269.686 264.234 269.393 264.137 266.561 265.113C264.217 265.992 263.729 266.676 264.217 268.238C266.073 274.098 265.975 274.586 261.678 278.688C256.795 283.375 255.428 282.203 259.334 276.539C261.483 273.414 261.776 272.438 260.799 270.68L259.627 268.531L258.26 270.582C256.112 273.512 255.428 273.219 253.28 267.945C251.717 264.332 251.522 262.867 252.401 261.012C253.182 259.156 253.084 258.473 251.522 257.398C249.764 256.129 249.764 255.836 251.327 252.613C253.475 248.219 253.377 247.926 250.936 248.707C249.081 249.293 248.885 249.098 249.471 246.852C249.959 244.898 249.667 244.117 248.397 243.727C247.42 243.434 245.858 242.75 244.784 242.164C243.514 241.48 242.733 241.578 242.245 242.359C241.756 243.141 240.584 242.359 238.729 240.016C235.604 236.109 234.042 235.719 231.307 238.16C227.792 241.285 228.28 238.355 231.893 234.645C235.018 231.52 235.409 230.543 234.53 228.98C232.479 225.074 231.014 224.586 227.108 226.441L223.397 228.199L221.444 225.66L219.588 223.023L216.756 226.148L214.022 229.176L214.901 225.953C215.877 222.438 215.389 222.145 212.069 224.391C210.018 225.855 209.725 225.855 208.358 224.488C207.088 223.219 206.991 222.438 207.967 220.094C208.944 217.75 208.944 216.773 207.87 215.113C206.795 213.453 206.795 212.672 207.967 210.914C209.139 209.059 209.042 208.668 207.381 207.301C206.307 206.422 204.745 204.078 203.768 202.027C202.889 200.074 201.522 198.414 200.741 198.414C197.811 198.414 194.295 193.922 192.147 187.281C190.975 183.473 189.315 180.25 188.534 180.055C187.362 179.664 187.264 179.859 188.338 180.934C189.999 182.691 189.803 185.816 187.948 188.551L186.385 190.797L180.135 184.645C174.471 179.078 173.885 178.687 173.885 180.836C173.788 182.301 172.127 185.133 169.491 187.965L165.194 192.555L163.143 188.746C160.311 183.766 150.545 178.687 147.909 180.934C146.346 182.105 146.249 182.105 146.834 180.543C147.323 179.273 146.932 178.883 145.37 178.883C143.709 178.883 143.514 179.176 144.393 180.055C145.565 181.227 144.686 183.766 141.854 186.988C140.487 188.551 140.292 188.551 138.534 186.988C137.167 185.719 136.483 185.621 135.604 186.5C134.725 187.379 134.823 187.965 136.288 188.941C138.338 190.504 137.557 192.555 134.823 192.555C133.553 192.555 132.87 191.773 132.674 189.82C132.479 187.965 131.795 187.086 130.233 186.891C127.499 186.5 127.401 187.086 130.038 191.187C131.405 193.531 132.772 194.508 134.432 194.508C136.483 194.508 136.776 194.898 136.776 198.219C136.776 200.27 137.264 202.418 137.948 203.102C138.827 203.98 138.436 204.273 136.288 204.273C134.627 204.273 132.577 204.957 131.502 205.738C129.94 206.91 129.256 206.91 125.936 205.152C121.444 202.906 120.956 204.078 124.764 207.691C129.256 211.988 134.627 215.211 137.167 215.211C138.436 215.211 141.463 214.527 143.905 213.551C147.225 212.281 148.397 211.305 148.885 209.352C149.178 207.887 151.229 205.25 153.377 203.492C156.795 200.66 157.381 200.465 157.967 201.93C158.358 203.102 157.772 204.371 156.014 205.836C153.377 208.082 152.596 211.5 154.354 212.574C155.917 213.551 160.213 210.426 161.971 207.008C164.706 202.027 166.756 200.367 170.467 200.367C174.471 200.367 174.959 201.93 171.444 203.492C169.979 204.176 168.807 205.738 168.417 207.594C168.124 209.254 167.147 211.793 166.463 213.258C165.194 215.699 165.292 215.895 168.221 216.871C173.397 218.727 175.643 218.141 179.842 214.039C184.139 209.938 185.604 209.742 185.604 213.453C185.604 214.918 184.334 216.676 182.186 218.336C180.331 219.801 178.768 221.363 178.768 221.754C178.768 223.512 181.795 223.707 185.702 222.34C190.389 220.68 194.979 220.484 195.858 221.852C196.639 223.121 182.87 229.957 180.624 229.371C178.475 228.785 178.377 229.078 179.94 231.617C180.917 233.082 180.917 233.766 179.94 234.742C178.866 235.816 178.084 235.426 175.936 232.984C174.178 231.031 171.834 229.664 169.393 229.273C167.342 228.883 164.803 227.906 163.729 227.125C160.897 225.172 154.94 225.465 149.862 227.711C147.518 228.785 144.393 230.152 143.026 230.641C140.877 231.52 140.584 232.008 141.17 234.352C142.831 241.09 149.667 248.023 157.479 250.66C165.096 253.395 177.303 259.742 178.475 261.793C180.233 264.527 185.604 265.406 189.315 263.453C193.612 261.207 194.588 263.355 190.877 266.676C189.315 268.141 187.459 270.973 186.874 273.023C185.799 276.539 185.897 276.93 188.143 278.688C191.463 281.324 192.342 283.375 194.002 291.871C194.784 295.973 196.053 300.074 196.834 300.953C198.69 303.102 198.69 305.25 196.834 304.469C195.76 304.078 195.37 304.664 195.37 306.617C195.37 311.207 190.487 319.605 183.749 326.441C176.815 333.375 172.03 336.402 168.807 335.914C167.147 335.719 167.831 334.84 172.323 331.812C182.87 324.586 187.557 316.48 187.557 305.348C187.557 299.195 187.362 298.414 185.409 297.535C184.237 296.949 182.967 295.484 182.577 294.117C182.186 292.75 181.893 292.262 181.795 293.043C181.698 293.824 180.819 296.168 179.842 298.414C176.034 306.617 173.885 312.574 173.885 315.113C173.885 318.043 171.346 323.414 169.979 323.414C168.319 323.414 168.905 319.215 171.834 308.961C176.229 293.727 176.327 291.969 173.69 286.402C172.518 283.668 170.858 281.52 170.174 281.422C169.393 281.422 168.124 279.664 167.245 277.516C165.975 274.391 165.194 273.609 163.729 274C162.655 274.293 161.19 274 160.506 273.414C159.823 272.828 159.237 272.535 159.237 272.73C159.139 272.926 158.749 278.688 158.358 285.523C157.577 296.266 157.088 298.609 154.842 302.809C150.643 310.328 148.983 307.301 151.913 297.633C152.694 294.996 153.377 290.992 153.377 288.844V284.84L149.667 291.383C147.713 294.898 144.393 299.781 142.44 302.125C139.413 305.641 138.729 306.031 138.143 304.566C137.752 303.395 138.827 301.148 141.659 297.438C145.565 292.262 145.663 291.969 144.1 290.211C142.44 288.355 142.44 287.184 144.198 280.152C145.174 276.148 143.514 277.027 139.413 282.691C137.459 285.426 134.042 289.723 131.893 292.164C126.034 298.902 126.815 294.215 133.065 284.742C137.752 277.711 138.241 276.539 138.241 271.461C138.143 267.457 137.655 265.406 136.385 263.941C135.311 262.77 134.237 261.891 133.944 261.891C133.553 261.891 132.088 264.234 130.721 267.066C128.475 271.754 127.792 272.34 125.155 272.34C122.713 272.34 122.127 271.949 122.127 270.191C122.127 268.922 123.104 267.359 124.276 266.578C125.936 265.406 126.522 264.137 126.522 261.109C126.522 256.52 124.276 253.59 119.198 251.539C117.342 250.758 115.096 248.902 114.217 247.34C113.045 245.289 110.995 244.02 106.405 242.457C98.8853 239.918 96.9321 239.918 93.8071 242.359C92.4399 243.434 90.8774 244.312 90.2915 244.312C89.2173 244.312 85.0181 248.414 85.0181 249.488C85.0181 249.879 86.1899 250.172 87.7524 250.172C91.854 250.172 96.1509 253.004 100.545 258.57C102.792 261.402 104.549 263.941 104.549 264.234C104.549 265.406 99.1782 262.086 94.5884 258.082C89.8032 253.785 88.9243 253.492 86.1899 255.055C85.311 255.543 83.2603 256.52 81.6978 257.008L78.8657 258.082L82.0884 261.402C83.9438 263.258 87.9478 266.676 91.0728 268.922C94.1978 271.168 96.7368 273.512 96.7368 274C96.7368 274.488 97.4204 275.758 98.2993 276.734C101.424 280.055 97.2251 279.762 89.8032 275.953C81.6001 271.852 73.0063 268.727 69.979 268.727C68.8071 268.727 67.0493 269.898 66.0728 271.363C64.4126 273.609 64.3149 274.391 65.3892 278.297C65.9751 280.641 67.6353 284.059 69.1001 285.914C73.0063 291.09 88.8267 303.883 91.2681 303.883C92.4399 303.883 94.8813 305.445 96.7368 307.203C98.9829 309.645 101.424 310.914 104.745 311.598C110.116 312.77 121.151 318.043 121.151 319.508C121.151 321.168 115.682 320.582 113.143 318.531C111.581 317.359 108.358 316.383 104.061 315.992C99.2759 315.504 96.8345 314.723 94.686 312.965C92.5376 311.109 91.2681 310.719 88.729 311.207C85.9946 311.695 84.0415 311.012 76.229 306.422C71.1509 303.395 66.4634 300.953 65.7798 300.953C63.436 300.953 60.604 304.762 60.604 307.984C60.604 311.793 65.6821 322.145 70.1743 327.32C74.4712 332.398 87.4595 337.672 92.147 336.305C93.9048 335.719 97.9087 335.23 101.131 335.133C110.995 334.84 111.776 334.742 114.999 332.398C118.612 329.859 120.858 330.152 123.397 333.668L125.057 336.012L121.639 336.695C118.221 337.281 118.221 337.379 119.686 339.625C121.737 342.848 120.272 343.434 109.432 343.531C98.0063 343.531 90.8774 344.703 90.8774 346.363C90.8774 347.828 95.7603 352.125 99.6665 354.176C101.913 355.348 103.377 355.348 107.87 354.469C110.799 353.785 113.631 353.688 114.022 354.078C114.999 355.055 111.581 357.594 109.237 357.594C108.26 357.594 107.479 358.277 107.479 359.059C107.479 360.035 106.502 360.523 104.549 360.523C101.62 360.523 101.62 360.523 103.182 363.062C104.745 365.309 104.745 365.602 103.28 367.164C101.815 368.629 101.522 368.531 99.2759 366.48C97.2251 364.527 96.9321 364.527 96.3462 365.992C95.8579 367.262 95.4673 367.457 94.5884 366.578C92.8306 364.82 92.2446 365.113 90.8774 368.336C90.1938 369.996 88.9243 371.266 87.9478 371.266C85.604 371.266 84.6274 365.992 86.3853 362.672C88.0454 359.547 86.5806 355.641 83.7485 355.641C82.2837 355.641 81.9907 355.152 82.479 353.297C82.9673 351.148 82.2837 350.562 73.8853 346.461C68.8071 344.02 63.436 340.895 61.9712 339.527C60.0181 337.672 58.9438 337.379 57.5767 338.062C55.2329 339.332 54.7446 339.332 55.3306 337.77C55.8188 336.402 54.2563 334.742 50.8384 332.691C49.9595 332.203 47.4204 330.445 45.1743 328.98C41.9517 326.637 40.8774 326.344 39.2173 327.32C36.5806 328.688 36.4829 332.984 38.9243 340.699C41.854 349.977 44.0024 352.418 55.4282 359.938C62.7524 364.723 66.2681 367.75 66.854 369.508C68.2212 373.316 66.854 374 63.729 371.07C57.8696 365.504 51.7173 362.477 46.2485 362.477H41.1704L43.8071 366.871C45.272 369.215 46.7368 371.266 47.0298 371.266C47.4204 371.266 50.7407 374.293 54.4517 377.906C60.0181 383.473 61.9712 384.742 65.3892 385.328C68.9048 385.914 69.3931 386.207 68.4165 387.379C67.7329 388.16 66.4634 388.844 65.4868 388.844C64.5103 388.844 63.2407 389.527 62.5571 390.309C61.8735 391.09 60.9946 391.773 60.5063 391.773C58.7485 391.773 51.8149 384.645 51.8149 382.887C51.8149 381.422 51.1313 381.031 48.7876 381.031C44.686 381.031 42.4399 379.664 35.9946 373.414C31.9907 369.508 28.7681 367.359 24.4712 365.797C19.1001 363.844 18.6118 363.844 18.6118 365.406C18.6118 366.285 17.7329 367.848 16.6587 368.824C15.0962 370.191 14.7056 371.852 14.7056 376.148C14.7056 382.203 13.9243 383.375 9.43213 384.547C6.89307 385.133 0.154785 391.285 0.0571289 393.043C0.0571289 393.434 1.13135 394.215 2.40088 394.898C4.25635 395.68 5.72119 395.582 8.74854 394.312C11.2876 393.336 16.2681 392.652 22.2251 392.555C32.6743 392.262 36.6782 393.531 40.6821 398.316C42.5376 400.465 43.0259 400.562 44.7837 399.488C46.4438 398.414 47.1274 398.512 49.3735 399.977C51.6196 401.441 51.8149 402.125 51.229 404.762C49.8618 410.914 50.0571 411.598 54.1587 412.574C57.0884 413.258 59.8228 413.062 65.1938 411.793C72.3228 410.133 72.4204 410.133 75.3501 404.859C78.1821 399.977 78.4751 399.684 81.4048 400.27C83.1626 400.562 84.7251 400.953 84.9204 401.148C85.1157 401.344 88.8267 399.684 93.1235 397.535C101.229 393.434 101.229 393.434 110.702 395.68C116.17 397.047 117.538 396.656 119.686 393.434C121.053 391.188 121.053 390.699 119.686 387.086C118.221 383.57 118.221 382.887 119.491 380.348C120.272 378.883 121.834 376.734 123.006 375.758C125.057 373.902 125.057 373.902 125.057 376.734C125.057 380.641 125.936 381.617 130.624 382.984C134.139 384.059 135.116 384.059 137.167 382.691C138.534 381.812 139.803 379.762 140.194 377.906C141.268 372.535 142.733 368.336 143.612 368.336C144.002 368.336 145.174 370.289 146.151 372.633C147.909 376.734 148.104 376.93 149.667 375.465C150.838 374.391 151.424 372.438 151.424 369.605C151.424 367.359 151.717 365.406 152.01 365.406C152.303 365.406 153.475 366.48 154.549 367.848C157.088 371.07 158.26 370.973 158.26 367.359C158.26 364.039 159.627 363.648 162.362 366.09C164.022 367.555 164.315 367.555 166.463 365.504C168.514 363.648 168.807 363.551 169.979 364.918C171.053 366.188 170.76 367.066 168.026 370.387C164.999 374.195 164.901 374.488 166.073 378.785C166.659 381.227 167.928 384.645 168.807 386.305L170.467 389.332L170.76 384.938C170.956 382.594 171.542 380.055 172.03 379.371C172.616 378.688 172.713 375.855 172.323 372.34C172.03 369.02 172.03 366.383 172.323 366.383C173.885 366.383 176.717 375.074 176.62 379.469C176.522 385.035 177.401 386.207 178.768 382.398C179.647 380.348 179.549 377.516 178.768 371.949C177.792 364.918 177.987 362.477 179.549 362.477C182.186 362.477 185.604 375.66 185.604 385.621C185.604 391.969 186.092 392.652 189.706 390.699C191.366 389.82 191.561 389.039 190.975 385.328C190.292 380.543 191.366 379.664 193.417 383.473C194.1 384.84 194.979 385.914 195.37 385.914C195.663 385.914 197.42 383.961 199.081 381.52C202.206 377.125 204.159 376.539 204.159 379.957C204.159 380.934 203.182 382.887 202.108 384.352C199.764 387.281 200.155 388.355 202.987 387.477C206.502 386.305 209.92 382.984 211.776 378.785C213.045 375.953 214.901 374 217.635 372.438C219.881 371.168 221.737 370.484 221.737 370.777C221.737 371.168 220.37 373.121 218.807 375.172C217.147 377.223 214.803 381.324 213.436 384.254C210.897 390.016 207.967 392.75 204.452 392.75C201.034 392.75 194.393 395.777 194.393 397.242C194.393 398.023 195.272 398.609 196.346 398.609C197.42 398.609 199.959 400.172 202.108 402.027C204.159 403.883 206.307 405.445 206.893 405.445C207.479 405.445 208.065 405.934 208.26 406.617C208.846 408.375 210.506 406.91 214.217 401.246C216.561 397.73 217.538 395.387 217.147 393.727C216.659 390.992 218.319 385.914 219.686 385.914C220.174 385.914 221.639 387.574 222.811 389.527C224.081 391.48 225.252 392.555 225.448 391.969C226.131 389.723 228.377 390.797 232.967 395.777C235.799 398.805 237.362 401.246 236.971 402.125C236.678 403.004 236.776 403.297 237.362 403.004C237.948 402.613 240.78 403.395 243.709 404.566L249.081 406.812L252.108 404.566C254.745 402.613 255.526 402.418 257.674 403.492L260.311 404.664L256.893 407.496C255.038 409.059 250.838 411.598 247.616 413.258L241.756 416.09L240.096 414.039C238.729 412.184 238.338 412.086 236.874 413.258C235.995 413.941 235.506 415.406 235.702 416.383C235.995 417.457 235.702 418.141 234.823 418.141C234.042 418.141 233.456 418.824 233.456 419.605C233.456 420.484 232.284 421.559 230.917 422.047C229.452 422.633 227.303 423.902 226.034 424.879C224.764 425.953 222.811 426.539 221.834 426.246C219.588 425.66 216.854 429.176 217.538 431.715C217.831 433.082 217.147 433.766 214.803 434.645C213.143 435.23 210.897 435.719 209.92 435.719C209.042 435.719 206.893 436.891 205.233 438.258C202.987 440.113 201.522 440.602 199.764 440.211C198.397 439.82 197.323 440.016 197.323 440.504C197.323 440.992 196.053 442.75 194.393 444.312C192.831 445.973 191.463 447.926 191.463 448.805C191.463 449.586 190.487 450.367 189.315 450.562C188.143 450.758 186.288 452.32 185.311 454.078L183.358 457.301L188.729 462.867L185.702 464.625C184.139 465.602 182.967 466.676 183.26 467.164C184.139 468.434 188.436 468.043 190.975 466.383C193.221 464.918 193.514 465.016 197.518 468.238C203.084 472.633 205.331 473.805 209.042 473.805C210.702 473.805 214.217 474.879 216.952 476.344C221.834 478.785 221.932 478.785 226.913 477.125C233.163 475.074 242.635 466.09 243.905 461.012C244.686 458.082 245.174 457.691 248.495 457.398C256.307 456.715 258.456 464.137 252.987 473.316C251.424 475.953 250.057 478.98 250.057 479.859C250.057 480.738 248.983 482.789 247.616 484.352L245.272 487.184L247.616 488.258C250.643 489.625 250.741 492.457 247.811 495.777C245.858 498.023 245.37 498.219 242.538 497.242C240.292 496.461 238.924 496.461 237.459 497.145C235.995 497.926 233.944 497.828 229.354 496.754C221.834 494.996 218.124 494.898 217.538 496.461C217.245 497.438 216.659 497.438 214.803 496.656C213.534 496.07 210.018 494.801 206.991 493.922C203.963 493.043 200.936 491.676 200.252 490.895C199.276 489.625 198.69 489.723 195.956 491.09C193.905 492.262 190.877 492.75 186.385 492.652C180.038 492.555 179.745 492.652 176.815 495.875C173.299 499.879 173.299 500.074 175.936 504.566C178.573 508.961 177.596 510.133 174.081 506.715C172.518 505.25 170.858 504.078 170.272 504.078C169.588 504.078 168.221 502.711 167.049 501.051C165.78 499.391 164.315 498.316 163.534 498.609C161.678 499.293 161.776 496.852 163.631 495.289C165.194 494.02 165.682 489.43 164.217 489.43C163.729 489.43 162.85 490.113 162.167 490.895C161.385 491.871 160.116 492.164 158.944 491.773C157.772 491.383 156.698 491.676 156.209 492.457C154.842 494.703 155.233 495.289 157.772 495.289C162.557 495.289 160.116 498.316 153.28 500.66C150.936 501.539 148.104 503.102 146.932 504.176C145.077 505.836 144.784 505.934 143.612 504.566C141.756 502.32 139.022 502.809 137.167 505.543C135.604 507.984 135.604 508.18 137.752 510.426C139.999 512.77 139.999 512.965 138.436 516.285C136.483 520.484 134.432 520.777 135.018 516.871C135.311 515.016 135.018 514.234 134.237 514.527C133.651 514.723 132.87 513.941 132.577 512.867C131.6 509.156 129.94 511.793 129.94 516.871C129.94 522.535 128.67 522.926 125.936 518.238C124.764 516.383 123.495 514.82 123.006 514.82C122.518 514.82 123.202 512.672 124.569 509.938C127.792 503.59 127.694 502.809 123.592 501.539C118.612 499.977 117.538 501.637 119.198 508.375C121.542 518.336 118.514 522.242 110.995 518.531C106.991 516.676 106.698 516.188 107.186 513.648C107.577 511.598 107.381 510.914 106.209 510.914C105.233 510.914 104.94 511.5 105.233 512.77C105.624 514.527 105.233 514.625 99.9595 514.234C94.3931 513.746 94.2954 513.844 92.3423 516.969C91.1704 518.824 89.022 520.582 87.1665 521.266C85.4087 521.754 83.3579 523.219 82.479 524.391C79.8423 528.199 70.9556 526.441 65.2915 520.973C62.7524 518.531 62.3618 518.434 58.6509 519.605C56.3071 520.289 53.1821 522.34 51.0337 524.586C49.0806 526.734 46.6392 528.492 45.7603 528.492C43.7095 528.492 43.7095 528.59 45.0767 534.352C45.6626 536.793 46.9321 539.723 48.0063 540.797C49.0806 541.969 51.229 545.582 52.7915 548.805C54.9399 553.395 56.5024 555.25 59.9204 557.203L64.3149 559.84L69.1001 557.887C71.7368 556.91 74.9595 556.227 76.4243 556.52C79.4517 557.105 80.4282 555.836 81.1118 549.977C81.5024 546.07 81.9907 545.387 85.4087 543.727C89.1196 541.871 89.2173 541.871 93.4165 544.02C95.8579 545.094 98.2993 546.07 98.9829 546.07C99.5688 546.07 101.131 544.312 102.401 542.164C104.452 538.551 104.94 538.258 108.749 538.258C113.143 538.258 130.819 542.75 132.381 544.215C133.749 545.582 136.385 545.289 137.752 543.629C138.729 542.457 139.315 542.457 141.561 543.531C144.979 545.289 157.772 545.191 162.069 543.336C164.315 542.457 165.682 542.359 165.877 542.945C166.073 543.531 166.756 543.824 167.44 543.531C168.026 543.336 169.588 544.41 170.76 546.07C172.03 547.633 173.397 549 173.885 549C174.471 549 176.131 547.633 177.694 545.875C180.038 543.238 180.721 542.945 181.991 543.922C183.065 544.898 183.651 544.801 184.627 543.629C185.604 542.457 186.19 542.359 187.167 543.238C188.241 544.117 188.827 544.117 189.901 543.238C191.952 541.578 193.514 544.117 192.831 547.926C192.245 550.758 192.342 550.953 195.174 550.953C199.667 550.953 201.229 551.93 201.229 554.469C201.229 557.496 197.518 564.918 196.444 564.137C195.956 563.844 195.272 564.332 194.979 565.211C193.905 567.945 194.295 568.629 196.249 567.652C197.811 566.773 198.202 566.969 198.69 569.02C199.081 570.387 198.885 572.34 198.299 573.316C197.616 574.684 197.713 575.367 198.592 575.66C199.276 575.953 198.788 576.93 197.03 578.297L194.295 580.445L196.346 582.691C197.518 583.961 198.397 585.719 198.299 586.695C197.323 595.387 199.178 597.926 203.28 593.824C205.331 591.773 205.331 591.773 206.502 593.727C207.088 594.703 208.358 596.754 209.334 598.121C210.897 600.367 210.995 601.148 209.92 603.98C208.944 606.812 208.944 607.691 210.213 609.449C211.092 610.621 211.483 612.574 211.19 613.648C210.799 615.504 210.995 615.602 213.045 614.918C214.315 614.527 216.561 614.137 217.928 614.039C220.272 613.941 220.76 613.258 222.616 607.496C223.788 603.883 224.471 600.27 224.081 599.391C223.299 597.437 225.35 594.898 227.694 594.898C229.256 594.898 229.354 595.289 228.377 597.926C226.913 602.125 227.987 602.418 231.991 598.902C233.944 597.242 235.897 595.875 236.385 595.875C236.874 595.875 239.217 594.508 241.561 592.848C244.002 591.187 247.616 589.625 250.057 589.332L254.354 588.746L250.741 593.141C247.616 597.047 247.323 597.73 248.592 598.805C250.545 600.465 250.448 601.734 248.397 601.734C247.42 601.734 245.077 602.32 243.221 603.004C233.553 606.617 231.6 608.961 228.573 620.777C227.108 626.344 226.913 628.785 227.694 630.25C228.28 631.227 228.963 632.008 229.354 631.812C229.745 631.617 231.209 630.836 232.674 630.152C234.237 629.371 235.995 629.176 237.069 629.566C238.045 630.055 239.51 630.445 240.292 630.445C241.17 630.543 241.756 631.52 241.756 632.984C241.756 635.523 239.608 636.5 233.944 636.891C231.795 636.988 230.038 638.16 227.401 641.383C225.35 643.824 223.69 646.168 223.69 646.559C223.69 646.949 225.252 648.121 227.108 649.098C230.233 650.855 230.624 650.855 233.749 649.391C237.362 647.633 251.034 636.598 252.303 634.352C252.694 633.57 255.331 631.812 258.065 630.445C262.557 628.199 263.534 628.004 266.659 628.98C268.709 629.566 272.127 630.055 274.276 630.055C276.424 630.055 280.428 630.543 283.163 631.227L288.045 632.301L284.139 636.207C280.428 640.016 280.135 640.016 275.35 639.43C272.616 639.039 269.393 638.16 268.221 637.379C266.366 636.109 265.78 636.207 262.752 638.062C259.432 640.113 259.334 640.113 261.581 641.09C265.682 642.945 263.827 644.312 257.967 643.824C254.061 643.434 250.057 645.777 248.006 649.488C246.932 651.441 244.491 655.445 242.635 658.375C238.827 664.43 238.534 665.699 241.268 664.039C243.807 662.477 246.639 664.137 246.542 667.066C246.542 668.629 247.127 669.117 248.983 669.215C250.35 669.215 252.401 669.605 253.475 669.996C255.331 670.777 255.331 670.777 253.182 671.949C250.35 673.512 250.448 674.977 253.475 674.977C257.674 674.977 256.209 677.613 250.545 680.348C247.616 681.812 245.174 683.18 245.174 683.277C245.174 683.473 245.858 684.352 246.737 685.133C248.104 686.598 248.104 686.695 246.346 686.695C245.272 686.695 243.709 685.621 242.831 684.254C241.463 682.203 240.877 682.008 238.631 682.887C236.776 683.57 235.897 683.473 235.311 682.691C234.92 682.008 233.846 681.812 232.87 682.203C231.307 682.789 231.6 683.375 234.92 686.207C238.143 688.941 238.436 689.527 236.874 689.625C235.311 689.625 235.213 689.82 236.288 690.504C238.534 691.969 235.799 694.605 232.967 693.922C230.233 693.238 229.061 694.801 231.014 696.461C233.163 698.219 232.772 699.977 229.94 702.223C228.28 703.59 225.936 704.273 223.397 704.273C220.077 704.273 218.709 704.957 215.682 707.887L212.069 711.402L208.749 709.742C205.526 707.984 205.428 707.984 200.35 710.523C196.542 712.477 194.881 714.039 193.807 716.676C192.245 720.289 192.342 720.289 184.237 718.336C182.381 717.848 181.209 718.141 180.624 719.019C179.256 721.07 178.084 718.629 177.303 712.184C176.717 707.594 175.936 705.934 172.42 701.93C166.756 695.582 165.096 696.168 165.096 704.469C165.096 708.961 164.608 711.402 163.143 713.551C162.069 715.113 161.19 716.969 161.19 717.555C161.19 719.801 164.022 722.144 167.538 722.73C172.127 723.414 173.006 725.367 169.491 726.93C168.124 727.516 166.268 729.469 165.584 731.031C164.803 732.691 163.631 734.742 163.045 735.621C162.069 736.891 162.264 737.769 164.022 740.211C165.975 743.043 166.073 743.434 164.608 746.168C163.827 747.828 163.143 749.684 163.143 750.465C163.143 752.906 166.073 753.199 168.807 751.148C171.151 749.488 171.932 749.391 175.741 750.367C179.452 751.344 180.233 751.246 181.209 749.879C181.893 748.902 182.967 748.219 183.749 748.219C184.53 748.121 186.19 747.535 187.557 746.754C189.217 745.875 190.389 745.777 191.17 746.461C192.049 747.144 193.124 746.559 194.979 744.41C197.42 741.48 197.713 741.383 199.862 742.848C201.131 743.629 202.792 744.312 203.573 744.312C204.354 744.312 206.307 745.094 207.967 745.973C210.409 747.437 211.385 747.535 214.022 746.559C216.463 745.582 217.44 745.68 219.295 746.852C221.053 748.023 222.42 748.023 226.717 747.144C235.506 745.387 241.659 743.238 243.319 741.383C244.393 740.211 246.932 739.332 250.936 738.844C256.502 738.258 256.893 738.355 256.893 740.211C256.893 746.656 260.604 746.852 268.319 740.699C271.444 738.258 274.471 735.816 275.155 735.328C275.741 734.84 278.475 733.57 281.209 732.594L286.19 730.836L289.12 733.18L291.952 735.621L292.245 732.496C292.733 727.711 296.346 725.562 305.135 724.977C309.432 724.684 312.557 724.879 312.557 725.465C312.557 727.516 309.92 728.687 305.428 728.687C301.229 728.687 300.741 728.883 301.424 730.348C301.815 731.324 302.206 733.57 302.303 735.426C302.499 738.355 303.182 739.137 309.139 742.945C312.85 745.289 317.635 747.73 319.784 748.219C325.643 749.684 327.889 750.855 332.088 754.176C337.167 758.277 339.706 757.594 343.807 750.953C346.834 746.07 346.834 745.777 345.37 743.238C343.514 740.113 343.319 737.379 344.979 735.719C346.639 734.059 347.225 734.254 348.495 736.988C350.448 741.285 349.959 751.93 347.713 755.641L345.663 758.766L351.327 764.234C357.381 769.996 358.456 770.68 358.456 768.141C358.456 765.992 361.776 761.5 364.803 759.547C368.221 757.301 367.831 758.961 363.729 764.332C360.604 768.531 360.409 769.215 361.385 771.656C362.069 773.219 366.463 778.199 371.249 782.887C376.034 787.477 379.94 791.676 379.94 792.164C379.94 793.727 392.538 802.027 399.276 804.957C406.6 808.082 414.706 808.57 427.206 806.812C433.846 805.836 434.139 805.836 436.288 808.277C439.022 811.109 445.467 814.625 448.104 814.625C449.178 814.625 450.545 813.941 451.229 813.16C452.792 811.207 454.159 811.305 454.159 813.355C454.159 814.723 454.549 814.625 456.502 812.769C458.065 811.305 459.334 810.816 460.213 811.305C460.897 811.793 462.264 811.988 463.241 811.891C464.608 811.598 464.901 812.379 464.901 816.969V822.34L476.034 827.809C482.088 830.738 487.362 833.18 487.752 833.18C488.045 833.18 488.338 832.496 488.338 831.715C488.338 829.078 491.17 828.98 494.491 831.422C497.127 833.473 498.104 833.668 500.838 832.887C503.182 832.203 505.624 832.301 510.116 833.473C525.155 837.477 524.081 837.477 537.85 832.594C544.686 830.152 554.256 827.516 559.042 826.832C563.729 826.051 567.831 825.269 568.124 824.977C568.417 824.684 567.44 821.07 566.073 816.871C563.143 807.984 563.045 807.789 564.901 807.789C566.952 807.789 571.053 813.551 572.909 818.922C573.788 821.363 574.667 823.414 574.959 823.414C576.815 823.414 592.245 812.965 595.077 809.742C599.178 805.25 602.889 798.316 604.549 792.164C605.135 789.723 607.381 784.84 609.53 781.324C613.827 774.098 613.827 773.023 609.139 768.043C604.354 762.867 607.088 763.062 612.264 768.141L617.049 772.926L620.37 770.875C622.127 769.801 624.667 767.75 625.936 766.383C627.206 765.113 628.768 764.234 629.549 764.527C630.233 764.82 632.284 764.137 634.042 763.062C635.799 761.988 638.924 760.816 640.975 760.523C643.026 760.133 645.174 758.961 645.858 757.984C647.225 755.641 648.495 755.445 648.495 757.496C648.495 759.449 650.838 759.352 652.401 757.496C653.377 756.324 653.866 756.227 654.452 757.105C654.842 757.887 656.6 757.984 659.725 757.594C664.217 756.91 664.217 756.812 662.557 754.957C661.092 753.297 660.995 752.613 661.971 749.781C662.655 748.023 663.143 744.898 663.143 742.75C663.241 740.699 663.827 737.574 664.51 736.012C665.682 733.473 665.975 733.375 666.561 734.84C667.049 736.012 667.928 736.402 669.1 736.012C670.663 735.523 670.956 735.914 670.956 738.453C670.956 740.113 671.346 741.285 671.834 740.894C673.104 740.211 678.768 731.812 678.768 730.738C678.768 729.859 682.967 725.758 683.846 725.758C684.237 725.758 684.725 727.516 685.116 729.664C685.506 731.812 686.092 733.375 686.581 733.082C686.971 732.789 687.85 733.863 688.338 735.523C689.315 738.062 689.706 738.355 692.245 737.867C695.077 737.281 695.174 737.477 696.346 742.359C697.03 745.094 698.202 747.633 698.885 747.926C699.667 748.219 700.252 749.098 700.252 749.879C700.252 750.758 701.913 749.684 704.159 747.34C706.405 745.094 708.553 743.336 709.042 743.336C709.627 743.336 710.018 742.652 710.018 741.871C710.018 740.894 710.995 740.406 713.338 740.406C717.049 740.406 723.983 735.621 733.553 726.539C738.338 722.047 739.217 720.68 739.706 716.676C740.389 712.184 740.487 712.086 743.807 712.086C746.151 712.086 748.69 711.109 751.62 708.961C755.526 706.227 755.819 705.738 754.452 704.273C753.182 702.906 753.377 702.516 755.819 701.051C757.967 699.781 758.749 699.684 759.139 700.562C759.432 701.344 761.678 699.781 765.096 696.461C768.124 693.531 770.37 690.504 770.077 689.82C769.295 687.867 774.276 683.375 775.838 684.644C776.717 685.426 778.573 684.84 782.87 682.301C785.995 680.348 789.315 678.102 790.096 677.125C790.975 676.246 792.928 674.781 794.491 674C796.151 673.121 798.495 670.875 799.764 668.922C801.717 665.895 802.303 665.504 803.866 666.48C805.331 667.359 806.502 667.164 810.116 665.406C812.557 664.234 815.292 663.258 816.268 663.258C817.147 663.258 818.612 662.77 819.393 662.281C820.565 661.598 820.565 661.109 819.588 660.133C819.002 659.547 818.417 658.277 818.417 657.496C818.417 656.422 818.807 656.422 820.272 657.789C822.03 659.449 822.323 659.449 825.643 657.887C827.596 656.91 828.866 655.738 828.573 655.25C828.182 654.762 828.475 653.199 829.256 651.93C830.233 650.074 830.233 649.293 829.354 648.414C827.792 646.852 827.889 644.02 829.452 643.434C830.428 643.141 830.428 642.555 829.452 640.895C827.889 638.355 827.792 635.914 829.256 635.914C830.917 635.914 835.995 641.48 835.995 643.434C835.995 644.898 836.19 644.996 836.971 643.727C837.85 642.457 838.241 642.555 839.901 644.605C840.975 645.875 841.854 647.633 841.854 648.707C841.854 650.758 844.002 652.418 844.588 650.758C844.784 650.074 846.053 650.855 847.42 652.516C850.057 655.738 852.303 656.227 853.182 653.98C853.573 653.199 854.452 652.516 855.233 652.516C857.381 652.516 861.874 655.348 863.338 657.691C864.315 659.352 864.315 659.84 862.948 660.914C860.995 662.281 862.362 663.551 864.706 662.672C866.17 662.086 872.127 654.371 872.127 653.102C872.127 652.809 871.249 652.516 870.174 652.516C869.1 652.516 867.928 651.832 867.635 651.051C866.952 649.293 872.616 642.457 875.448 641.773C878.28 640.992 878.573 638.16 876.034 635.426C874.276 633.473 874.081 632.887 875.057 631.031C876.229 628.883 876.327 628.883 878.377 632.496C879.452 634.547 880.917 636.402 881.502 636.598C882.088 636.793 884.432 634.156 886.678 630.641C888.924 627.223 891.463 624.098 892.245 623.805C895.467 622.535 899.862 623.316 902.987 625.66C906.795 628.59 907.284 628.687 907.284 626.344C907.284 625.465 907.967 623.805 908.749 622.828C909.823 621.363 909.92 620.582 909.042 619.605C908.26 618.629 908.553 617.164 910.604 613.453C913.143 608.863 913.143 608.473 911.678 606.227C910.799 604.859 910.311 603.297 910.702 602.711C911.678 601.148 908.456 600.367 906.698 601.734C904.549 603.59 903.28 601.734 902.792 596.363C902.206 588.746 904.94 586.5 911.483 588.941C914.315 590.016 918.026 587.965 918.026 585.23C918.026 584.254 916.268 581.812 914.022 579.762C910.995 576.93 910.311 575.855 911.385 575.27C913.924 573.609 920.37 574.391 924.276 576.832C927.401 578.687 928.377 578.883 929.842 578.004C932.577 576.246 932.088 575.074 927.499 572.926C924.276 571.363 922.713 569.703 920.467 565.406C918.807 562.281 916.17 558.473 914.608 556.812C912.264 554.371 911.971 553.492 912.85 552.027C913.729 550.562 913.534 549.879 911.874 548.121C910.311 546.559 910.116 546.07 911.288 546.07C913.631 546.07 923.397 557.301 925.155 561.891C925.448 562.867 927.206 564.527 928.963 565.699C934.432 569.117 946.932 566.871 952.889 561.305L956.307 558.18L951.815 553.883C949.374 551.441 947.323 548.707 947.323 547.633C947.323 546.07 947.811 545.875 950.741 546.363C952.596 546.656 954.354 546.461 954.647 545.973C955.038 545.484 956.6 545.289 958.163 545.582C959.823 545.875 962.948 545.582 965.096 544.996L969.198 543.922L966.17 542.457C962.557 540.797 959.432 537.574 960.311 536.598C960.702 536.305 963.436 536.598 966.366 537.281C971.542 538.551 971.834 538.453 974.178 536.305C975.545 535.035 976.62 532.984 976.62 531.812C976.62 528.883 970.37 525.172 962.264 523.316C955.038 521.656 951.229 519.41 951.229 516.773C951.229 515.699 951.327 514.82 951.522 514.82C951.62 514.82 953.866 515.504 956.502 516.285C959.139 517.066 963.045 517.75 965.194 517.75C967.538 517.75 970.077 518.531 971.834 519.801C974.276 521.461 975.545 521.754 979.159 521.168C984.627 520.387 984.725 518.434 979.354 516.871C976.424 515.992 973.202 513.551 968.417 508.766C962.362 502.711 960.995 501.832 956.209 500.953C953.182 500.367 947.518 499.684 943.514 499.586C938.827 499.391 935.799 498.805 934.823 497.828C932.479 495.484 934.139 494.41 938.924 495.484C942.342 496.168 943.905 496.07 946.249 494.898C947.811 494.02 950.545 493.336 952.206 493.336H955.233L952.987 489.527C951.815 487.379 951.034 485.426 951.327 485.035C951.717 484.742 954.159 485.914 956.893 487.672C959.725 489.43 963.729 491.969 965.975 493.336C968.221 494.703 971.346 497.535 972.909 499.684C976.034 503.883 977.889 504.762 984.042 504.957C989.413 505.055 991.756 503.297 990.975 499.488C990.487 496.852 990.877 496.07 995.174 492.457C1000.45 488.062 1001.23 485.621 998.104 483.473C996.346 482.301 996.249 481.715 997.225 478.59C998.006 476.246 998.006 474.488 997.42 473.316C996.639 471.949 995.956 472.633 993.026 477.809C989.413 484.449 986.776 486.598 987.557 482.203C988.045 479.957 987.752 479.664 985.311 479.664C982.088 479.664 981.795 478.98 984.237 477.125C985.799 475.855 985.799 475.855 984.237 475.758C983.26 475.758 982.479 475.27 982.479 474.781C982.479 474.195 981.6 473.805 980.428 473.805C976.815 473.805 978.67 470.582 982.87 469.703C987.752 468.629 989.315 467.359 989.315 464.332C989.315 461.988 989.217 461.988 980.331 462.086C975.35 462.086 969.295 462.086 966.854 461.988C964.413 461.793 960.409 462.086 957.87 462.574C953.963 463.16 953.182 463.062 953.182 461.891C953.182 459.449 964.706 456.227 973.592 456.227C983.26 456.227 986.581 455.055 989.608 450.562C993.905 444.02 993.709 443.336 988.143 440.797C984.139 439.039 982.87 438.844 981.698 439.82C980.917 440.504 977.303 441.09 973.299 441.09C967.831 441.09 965.194 441.676 960.604 443.824C957.479 445.289 954.647 446.266 954.354 446.07C953.28 444.898 955.331 440.699 957.284 440.016C958.553 439.625 961.19 438.16 963.338 436.793C966.073 435.035 969.002 434.059 973.006 433.766C981.014 433.082 981.209 431.422 973.788 428.102C970.467 426.637 967.928 425.074 968.124 424.488C968.319 424 971.444 423.512 975.057 423.512C980.819 423.414 981.893 423.121 984.237 420.777C986.581 418.434 986.678 417.848 985.604 416.09C984.432 414.332 984.53 413.746 986.288 412.184C988.241 410.328 988.241 410.133 986.776 406.324C985.213 402.516 985.213 402.32 987.264 400.172C990.194 397.047 990.975 391.578 988.827 389.82C987.85 389.039 986.385 388.355 985.506 388.355C984.627 388.355 983.846 387.379 983.651 386.207C983.163 382.594 980.624 382.691 978.475 386.402C977.303 388.258 975.838 389.82 975.155 389.82C972.811 389.82 970.76 386.793 970.76 383.473C970.76 381.129 970.272 380.152 968.807 379.762C966.073 379.078 965.292 376.344 967.245 374.879C969.588 373.121 968.221 370.582 964.706 370.094C962.459 369.703 960.897 370.387 957.284 373.414C951.913 377.809 950.252 378.102 950.155 374.391C950.057 372.828 949.862 372.438 949.569 373.414C949.374 374.391 948.788 375.172 948.299 375.172C947.03 375.172 945.174 372.34 945.858 371.266C946.151 370.777 945.76 370.289 944.881 370.289C942.245 370.289 935.213 366.383 932.967 363.648L930.721 361.012L921.932 369.801C914.022 377.711 913.143 378.297 913.143 375.953C913.143 374.391 914.706 371.461 917.342 368.336C919.588 365.504 922.518 361.695 923.788 359.84L926.131 356.52L923.299 353.395C917.538 347.242 917.635 347.633 920.858 340.016C922.518 336.109 923.885 332.691 923.885 332.203C923.885 331.422 913.827 333.18 913.143 334.156C912.069 335.621 908.26 337.086 905.428 337.086C900.057 337.086 893.221 339.43 886.971 343.336L880.721 347.145L878.768 345.094L876.717 343.141L878.866 339.527C881.502 334.938 881.502 334.547 878.377 336.988C876.913 338.16 875.35 339.039 874.959 339.039C873.299 339.039 874.081 336.402 876.522 334.156C877.987 332.789 879.549 329.469 880.624 325.27C881.893 320.191 882.87 318.336 884.432 317.848C887.948 316.578 896.053 306.324 897.811 300.855C900.35 293.141 899.959 289.039 895.858 280.738C890.682 270.094 886.776 268.922 882.772 276.734C879.354 283.473 877.206 284.059 874.471 278.98C872.909 275.953 872.225 275.562 869.979 276.051C868.514 276.441 866.17 276.051 864.608 275.27C862.948 274.391 861.092 274.195 859.92 274.586C856.502 275.855 855.526 274 857.186 269.703C859.139 264.82 858.358 262.477 854.842 263.16C851.522 263.746 847.713 261.305 847.713 258.473C847.713 255.836 850.252 253.492 854.159 252.711C855.721 252.32 860.018 249.488 863.534 246.266C873.006 237.672 873.495 233.277 865.584 227.223L861.19 223.902L867.342 219.898C870.76 217.75 874.667 215.699 876.034 215.309C877.401 215.016 880.038 213.062 881.893 211.109C884.042 208.766 887.459 206.715 891.17 205.348C894.393 204.273 898.788 202.418 900.936 201.441L904.842 199.488H901.62C899.862 199.391 896.737 200.27 894.588 201.344C889.608 203.883 889.022 203.883 883.456 200.367C879.354 197.73 878.377 197.438 875.643 198.414C871.249 199.879 865.487 204.859 863.827 208.766C861.678 214.039 853.768 222.535 849.471 224.293C847.42 225.074 843.612 225.758 841.073 225.758C838.534 225.758 835.897 226.246 835.213 226.93C833.749 228.395 833.749 232.691 835.116 237.477C836.092 240.602 835.897 241.676 833.651 246.168L831.014 251.246L828.084 249.488C826.424 248.512 824.569 246.461 823.885 244.898C823.104 243.043 821.639 241.773 819.393 240.992C817.245 240.309 815.877 239.137 815.682 237.965C815.487 236.891 814.413 235.035 813.241 233.766C811.483 231.91 811.092 231.812 810.409 232.984C809.823 233.961 808.26 234.449 806.112 234.352C801.717 234.156 798.983 230.836 800.643 227.32C801.522 225.27 801.424 225.172 799.276 225.562C798.006 225.758 796.932 225.562 796.932 224.977C796.932 224.391 795.956 223.805 794.784 223.609C791.268 223.121 791.561 219.703 795.272 217.457C801.034 213.844 803.67 204.469 800.936 197.145C800.155 195.191 799.081 194.508 796.249 194.02C788.045 192.652 787.264 192.359 787.752 191.187C788.045 190.309 786.971 190.016 784.042 190.016L779.842 190.113L778.768 184.84C777.792 180.836 777.792 179.176 778.67 177.809C779.354 176.734 780.135 175.953 780.428 175.953C780.819 175.953 780.624 174.879 780.038 173.512C779.354 172.145 778.28 171.07 777.694 171.07C777.01 171.07 776.424 170.289 776.424 169.312C776.327 167.359 771.932 163.844 770.565 164.723C769.979 165.016 769.588 165.992 769.588 166.773C769.588 168.531 769.393 168.531 765.487 166.285C759.53 162.867 757.967 162.77 756.6 165.895Z" fill="white"/>
<path d="M225.252 396.363C224.667 397.73 224.764 397.828 225.741 396.949C226.424 396.266 226.717 395.484 226.424 395.191C226.131 394.898 225.545 395.387 225.252 396.363Z" fill="white"/>
<path d="M836.678 648.609C836.385 649.781 836.678 650.562 837.459 650.562C838.241 650.562 838.534 649.781 838.241 648.609C837.948 647.535 837.557 646.656 837.459 646.656C837.362 646.656 836.971 647.535 836.678 648.609Z" fill="white"/>
<circle id="305" cx="255" cy="689" fill="#5CE50D"/>
<circle id="1326" cx="651" cy="275" fill="#E52A0D"/>
<circle id="308" cx="171" cy="706" fill="#E52A0D"/>
<circle id="1329" cx="949" cy="441" fill="#E52A0D"/>
</svg>
