<svg width="1000" height="1000" viewBox="0 0 1000 1000" fill="none" xmlns="http://www.w3.org/2000/svg">
<path d="M678.716 843.879C679.887 843.391 685.16 844.465 686.333 845.539C686.528 845.637 685.552 847.493 684.184 849.543C682.817 851.496 681.645 853.84 681.645 854.719C681.645 855.5 679.497 858.723 676.762 861.848C674.126 864.875 669.731 871.516 666.899 876.497C664.165 881.379 660.161 887.727 658.11 890.364C655.962 893.196 653.911 897.395 653.227 900.129C651.665 906.868 649.712 911.164 646.391 915.364C643.266 919.368 642.778 923.372 644.634 931.868C645.61 936.36 646.099 937.044 650.298 939.192C652.836 940.461 655.473 942.121 656.157 943C657.231 944.27 656.938 944.758 653.911 946.125C651.079 947.492 650.688 948.079 651.372 949.543C651.958 950.52 653.227 951.594 654.302 951.887C655.376 952.278 656.059 952.864 655.766 953.254C655.571 953.743 656.548 955.794 658.11 957.942C660.649 961.36 660.747 961.946 659.282 962.825C657.915 963.801 657.915 964.094 659.673 965.461C661.626 966.926 661.626 966.926 659.673 967.024C654.594 967.025 645.415 979.231 645.219 985.872C645.219 987.629 645.512 991.047 645.903 993.489C646.489 997.59 646.391 997.981 644.145 999.055C641.899 1000.03 641.704 999.934 641.411 997.493L641.118 994.856L629.887 994.172C617.778 993.391 613.383 992.512 604.887 989.387C600.005 987.532 599.321 986.946 597.27 982.258C596.001 979.426 593.657 975.618 591.997 973.762C590.337 971.907 588.676 969.172 588.286 967.707C587.504 964.387 583.5 961.262 575.005 957.258C569.439 954.622 568.266 954.426 566.02 955.403C564.165 956.282 562.895 956.282 561.137 955.5C559.38 954.719 557.915 954.719 555.669 955.598C552.642 956.672 552.348 956.575 549.321 953.059C547.466 950.911 545.317 949.446 544.048 949.446C540.532 949.445 536.918 947.004 531.157 940.754C526.958 936.165 525.102 934.797 522.954 934.797C521.489 934.797 518.754 933.918 516.997 932.747C513.676 930.695 502.934 919.465 502.934 918.098C502.934 916.828 497.661 914.387 492.485 913.215C488.579 912.434 487.212 911.457 484.575 907.844C481.548 903.743 481.157 903.547 476.274 903.547C473.442 903.547 469.34 904.036 467.094 904.524C461.431 905.891 458.501 904.524 457.036 900.129C456.157 897.493 454.985 896.125 452.544 895.149C449.907 894.075 449.126 893 448.247 889.68C447.661 887.336 446.977 884.993 446.782 884.309C446.587 883.625 447.075 881.086 447.954 878.645C448.833 876.008 449.223 872.688 448.93 870.735C448.149 866.243 452.446 859.797 458.403 856.282C460.747 854.914 464.262 851.985 466.118 849.836L469.438 845.832L470.512 848.567C471.098 850.129 471.782 852.278 472.173 853.45C472.954 856.379 478.129 860.578 480.766 860.481C481.938 860.481 485.356 859.309 488.286 857.844C492.876 855.598 493.657 854.817 493.364 852.766C493.266 851.399 494.048 849.25 495.024 847.883C496.879 845.637 496.978 845.54 498.833 847.2C501.079 849.25 503.911 849.348 506.45 847.395C507.426 846.614 509.477 845.93 510.942 845.93C513.676 845.93 513.872 846.516 514.946 854.719C515.141 855.891 516.607 856.184 521.782 856.184H528.423L530.18 860.09C532.622 865.461 537.017 868.977 542.387 869.758C546.001 870.344 547.563 870.051 551.86 867.805C557.817 864.583 564.556 863.899 572.759 865.461C579.985 866.829 580.279 866.828 592.876 865.559C604.79 864.387 610.356 862.629 615.239 858.723C617.29 857.063 620.61 855.598 623.052 855.207C625.493 854.914 628.813 854.036 630.571 853.45C633.501 852.473 634.185 852.669 638.969 855.989C641.801 857.942 644.926 859.601 645.805 859.602C646.782 859.602 649.419 857.844 651.762 855.696C655.376 852.375 655.864 851.399 655.473 848.762L654.985 845.637L659.477 848.762C664.555 852.473 665.923 852.278 672.856 847.493C675.2 845.833 677.836 844.173 678.716 843.879Z" fill="white"/>
<path fill-rule="evenodd" clip-rule="evenodd" d="M471.295 4.6215C482.525 -0.944623 484.185 -1.04234 484.967 4.23088C485.357 6.37932 486.724 9.50432 487.994 10.9692C490.045 13.5081 490.142 14.0945 489.166 18.0004C487.896 22.8832 489.068 28.7426 492.193 32.7465C495.22 36.555 504.985 40.852 519.048 44.5629C526.078 46.4183 534.086 48.5667 537.016 49.4457C539.946 50.3246 550.2 52.2778 559.966 53.9379C569.628 55.5971 577.632 57.0615 577.837 57.2582C578.325 57.7465 566.606 65.266 558.012 69.8559L550.298 73.9574L550.005 79.4262C549.809 83.0389 550.103 85.1876 550.981 85.8715C551.665 86.4574 556.45 88.1176 561.528 89.5824C566.603 91.144 570.996 92.5109 571.196 92.7074C571.391 92.8051 569.048 95.6371 566.02 98.8598C562.896 102.082 560.552 105.304 560.844 105.989C561.235 107.258 564.263 109.016 568.657 110.579C571.88 111.75 572.173 114.68 569.341 118.879C568.266 120.442 567.388 122.492 567.387 123.372C567.387 124.153 570.317 127.376 574.028 130.598C582.036 137.532 583.208 139.094 582.817 142.61C582.622 144.661 581.938 145.344 579.887 145.539C577.642 145.832 577.153 145.442 577.153 143.782C577.153 141.145 574.809 138.117 569.341 133.528C564.36 129.329 562.505 129.231 560.356 132.942C559.477 134.504 557.719 136.36 556.45 137.043C554.399 138.117 554.302 138.117 555.473 136.653C558.11 133.528 556.45 131.965 548.344 129.622C541.314 127.571 540.337 127.473 538.872 128.84C537.895 129.621 536.528 130.11 535.747 129.817C534.77 129.427 533.598 130.403 532.329 132.649C529.692 137.141 529.79 137.922 532.817 137.922C535.161 137.922 535.161 138.02 533.696 140.071C532.231 142.317 531.645 142.414 521.001 143.098C518.071 143.293 513.579 144.661 509.673 146.614C506.06 148.274 501.471 149.934 499.42 150.129C496.588 150.52 496.295 150.422 498.052 149.836C499.712 149.348 500.592 148.274 500.787 146.418C501.08 144.075 500.786 143.782 498.345 143.782C496.783 143.782 495.025 144.27 494.342 144.954C493.56 145.735 492.877 145.735 491.802 144.856C490.533 143.782 489.654 143.977 486.92 145.637C480.67 149.543 475.592 158.137 475.592 164.875C475.592 167.317 475.201 168.293 474.42 167.903C469.635 166.145 468.853 166.243 468.267 168.098C467.486 170.735 469.927 175.227 473.834 178.352L477.056 180.891L477.642 178.645C478.131 176.4 479.498 185.969 479.498 192.219C479.498 195.832 480.084 196.125 483.892 194.368C486.04 193.391 486.724 193.489 488.482 195.247C490.24 197.102 490.435 197.884 489.654 203.059C488.775 208.332 488.579 208.723 486.236 208.528C483.697 208.43 481.451 211.165 481.451 214.485C481.451 215.364 480.279 215.754 477.935 215.657C472.857 215.559 470.416 218.977 470.611 225.911C470.709 230.989 470.709 234.504 470.611 242.903C470.611 248.079 476.08 269.27 478.521 273.176C479.498 274.836 483.99 279.231 488.482 283.039C492.974 286.946 504.595 297.59 514.165 306.868C527.836 319.953 534.478 325.52 544.048 331.868L556.45 340.071L556.841 346.614C557.231 352.18 558.208 355.305 563.286 366.047C570.122 380.891 571.88 386.555 572.759 396.711C573.54 405.403 576.86 416.34 582.524 428.45C587.309 438.801 590.239 442.512 597.075 446.907C599.809 448.664 606.255 454.622 611.333 460.188C617.485 466.926 621.977 470.93 624.809 472.102C627.446 473.274 628.911 474.543 628.911 475.715C628.911 478.45 632.915 481.477 639.555 483.723C644.145 485.286 647.466 487.337 651.958 491.438C657.817 496.711 658.404 497.004 664.262 497.493C667.68 497.786 671.879 498.762 673.54 499.543C676.274 501.008 677.349 501.008 686.43 499.543C695.512 498.176 696.782 498.176 701.86 499.543C707.133 501.106 707.818 501.008 716.606 499.055L725.884 496.907L729.106 500.715C734.966 507.649 733.598 510.579 720.219 520.637C715.239 524.446 710.845 528.352 710.454 529.426C709.575 532.356 711.333 534.797 716.997 538.411C719.829 540.168 724.712 543.977 727.739 546.809C730.766 549.641 734.086 551.984 735.161 551.985C736.235 551.985 737.602 552.669 738.384 553.547C740.141 555.696 747.563 559.309 754.887 561.457C758.501 562.532 763.383 564.973 766.02 566.926C768.559 568.977 771.684 570.539 773.052 570.539C776.469 570.539 794.438 577.864 801.762 582.258C805.278 584.407 809.282 587.532 810.649 589.289C814.36 593.977 826.958 603.254 835.649 607.844C839.847 609.992 843.46 612.043 843.755 612.532C844.536 613.703 849.907 616.145 853.325 616.926C855.766 617.414 856.841 618.391 857.622 620.442C858.598 623.274 861.333 624.446 861.333 622.004C861.333 621.419 862.407 622.102 863.579 623.762C864.751 625.325 870.806 631.77 876.958 637.922C887.016 647.883 888.774 650.227 892.876 658.43C899.223 671.223 899.419 673.176 895.61 677.571C891.313 682.453 890.63 684.602 890.63 694.172C890.63 700.422 890.337 702.571 889.262 702.961C886.136 704.132 867.192 690.266 863.677 684.211C861.333 680.305 861.333 679.719 862.505 676.399C863.677 673.079 863.579 672.59 860.356 666.633C858.501 663.118 855.571 658.723 853.813 656.77L850.591 653.254L840.239 653.84C830.962 654.231 829.594 654.133 825.884 652.082C823.637 650.91 818.071 647.981 813.481 645.539C806.646 641.926 805.278 640.754 805.473 639.094C806.254 633.625 799.614 629.329 793.169 630.989C784.575 633.333 777.934 639.485 775.2 647.688C774.614 649.543 773.149 652.375 771.88 654.036C770.708 655.598 768.657 659.407 767.29 662.336C766.02 665.266 764.262 668.293 763.384 669.075C762.212 669.954 761.723 671.907 761.723 675.52C761.723 682.161 759.575 688.997 755.864 694.172C750.786 701.301 751.079 705.305 757.427 713.704C759.575 716.633 760.161 716.829 767.192 717.219C773.93 717.512 774.81 717.805 776.567 720.247C777.641 721.711 781.743 724.739 785.552 726.789C789.75 729.133 793.071 731.672 793.755 733.137C794.341 734.407 796.196 736.164 797.856 737.043C801.177 738.801 801.177 738.411 799.712 745.735C798.833 749.934 798.833 751.887 799.712 753.84C800.591 755.793 800.591 757.454 799.712 761.067C798.54 765.364 798.638 766.048 801.177 770.93L803.813 776.204L801.86 780.696L799.907 785.286L795.024 783.332C788.579 780.989 788.676 780.891 778.813 784.504C769.634 787.825 761.821 793.879 758.305 800.422C756.45 803.742 756.45 804.036 758.11 806.77C760.356 810.579 760.552 830.696 758.305 833.918C757.524 835.09 753.813 837.141 750.102 838.606C742.876 841.34 739.946 843.88 731.157 855.403C728.325 859.114 726.567 862.434 726.567 863.997C726.567 866.633 722.466 873.372 718.852 876.594C717.192 878.157 715.922 878.352 711.137 877.766C707.915 877.375 704.301 877.571 702.934 878.059C700.102 879.133 696.586 877.375 691.997 872.493L689.262 869.465L690.825 862.141C692.094 856.77 692.192 854.329 691.509 852.864C690.63 851.204 691.021 850.617 694.731 848.469C697.075 847.102 700.2 844.563 701.665 842.903C704.594 839.387 712.895 823.274 712.895 821.125C712.895 819.172 708.012 812.141 706.938 812.532C704.693 813.117 706.45 809.602 710.259 805.989C715.337 801.008 717.974 800.227 723.54 802.278C727.837 803.84 727.837 803.84 730.571 801.106C732.036 799.641 733.794 796.614 734.38 794.563C735.552 790.754 735.356 790.266 729.594 778.743L723.637 766.829V757.356C723.637 742.415 720.415 731.184 715.434 728.938C713.872 728.254 711.723 725.324 709.38 720.735C704.009 710.091 702.153 703.84 702.153 696.516C702.153 690.95 701.762 689.387 699.516 685.969C696.294 681.38 692.876 678.45 687.993 676.399C684.087 674.837 683.989 674.837 677.544 680.207C673.052 684.016 672.856 684.016 670.415 682.454C669.048 681.575 667.973 680.403 667.973 679.914C667.973 679.426 667.387 679.231 666.704 679.426C666.02 679.719 664.653 678.449 663.579 676.399C660.942 671.516 652.739 664.68 651.079 666.145C650.102 666.926 649.223 666.535 647.661 664.387C646.391 662.63 644.34 661.36 642.192 660.969L638.677 660.286L641.704 654.719C646.001 646.711 644.927 642.122 634.966 625.911L631.45 620.149L624.028 620.832C620.024 621.223 612.309 622.981 606.938 624.739C601.567 626.496 597.075 627.766 596.88 627.668C596.687 627.471 598.346 625.421 600.591 623.079C606.841 616.731 607.524 613.313 603.032 612.141C601.762 611.848 599.125 609.602 597.173 607.258C592.876 601.888 591.606 601.399 587.993 603.547C585.259 605.012 584.965 605.012 583.208 603.45C580.767 601.204 580.376 601.302 579.594 604.719C578.716 608.821 577.153 608.43 577.153 604.036C577.153 594.953 560.844 556.379 557.719 558.235C557.328 558.528 555.278 558.332 553.13 557.844C550.103 557.161 548.637 557.356 545.61 558.821C543.559 559.895 541.508 560.774 541.118 560.774C540.628 560.773 537.601 558.82 534.38 556.379C528.814 552.18 528.422 551.985 524.223 552.864C521.782 553.254 518.266 554.817 516.411 556.184C512.407 559.309 508.794 559.7 508.794 557.063C508.793 556.086 507.426 553.254 505.864 550.813C503.618 547.493 501.568 545.832 497.759 544.172C495.025 543 491.803 541.243 490.728 540.266C489.654 539.29 487.31 538.313 485.455 538.118C482.427 537.825 481.744 537.239 479.107 532.063C475.103 524.446 465.826 514.094 460.259 510.969C456.353 508.918 455.474 507.844 454.107 503.45C452.154 497.297 451.568 496.614 443.463 488.508C439.947 484.993 435.845 480.696 434.381 478.938C432.721 476.887 430.962 475.813 429.302 475.813C427.252 475.813 426.275 474.836 424.224 470.637C413.971 450.52 401.666 439.485 386.822 437.043C384.185 436.555 383.209 436.848 381.744 438.801L379.888 441.145L377.935 438.801C375.494 435.969 375.494 434.797 377.74 434.797C379.888 434.797 382.33 432.356 383.209 429.329C383.697 427.864 383.111 426.301 381.549 424.446C380.279 422.883 378.717 420.149 378.131 418.391C375.884 411.751 365.338 403.548 359.088 403.547C356.353 403.547 352.838 400.227 354.4 399.153C354.986 398.859 355.474 396.808 355.474 394.758C355.474 392.708 355.963 390.657 356.451 390.364C357.037 390.07 357.427 388.703 357.427 387.434C357.427 385.676 356.353 384.406 353.228 382.551C348.248 379.719 346.49 379.524 343.267 381.672C340.338 383.625 340.338 384.016 342.779 371.516C345.22 359.016 345.22 356.477 342.779 351.985C341.705 350.032 338.775 343.782 336.236 338.118C331.842 328.254 331.646 327.473 330.474 313.215C328.912 294.563 328.423 292.024 325.592 288.215C324.322 286.457 323.248 284.309 323.248 283.528C323.247 281.379 316.315 274.642 314.068 274.641C312.994 274.641 311.138 273.664 309.771 272.395C307.525 270.344 307.427 270.247 306.158 272.102C305.181 273.371 304.4 273.664 303.521 272.981C302.838 272.493 298.051 268.684 292.876 264.68C287.7 260.579 282.036 256.477 280.18 255.598C278.325 254.622 276.665 253.547 276.372 253.254C276.077 252.96 273.93 250.91 271.684 248.762L267.485 244.856L265.532 247.2C264.067 249.055 263.383 249.25 262.309 248.274C261.528 247.688 261.137 246.516 261.43 245.735C261.723 244.856 260.258 242.61 257.719 240.071C248.735 231.087 231.352 230.11 216.509 237.727C213.579 239.192 212.309 240.754 210.259 245.344C208.11 250.52 207.329 251.301 203.52 252.766C198.638 254.622 195.61 257.747 188.579 268.196C183.11 276.301 182.329 276.692 165.239 281.477C149.419 285.969 146.489 285.481 146.489 278.547C146.489 275.715 148.345 273.762 154.204 270.539C156.352 269.368 157.231 268.196 157.231 266.34C157.231 264.973 158.305 261.653 159.673 258.918C164.067 250.422 161.04 248.274 144.634 248.274C134.771 248.274 133.696 248.078 128.032 245.247C120.22 241.34 112.212 233.528 109.966 227.668C108.306 223.274 108.305 223.078 110.356 218.196C112.212 213.997 112.309 212.727 111.43 210.09C110.454 207.259 110.649 206.477 112.798 203.45C114.067 201.497 117.192 197.981 119.634 195.539C123.149 192.122 124.028 190.559 124.028 187.922C124.028 182.942 121.587 179.426 116.02 176.106C107.915 171.419 106.645 170.051 104.399 163.801C101.86 156.575 101.274 152.473 102.446 150.715C102.934 149.934 106.157 149.153 110.454 148.664C114.458 148.274 121.001 146.809 125.005 145.344C129.496 143.684 133.305 142.903 135.063 143.196C137.602 143.684 137.7 143.586 137.7 139.68C137.7 136.946 138.481 134.7 140.141 132.454C141.509 130.696 142.583 128.645 142.583 127.864C142.582 126.301 138.286 122.297 132.524 118.391C129.107 116.048 128.911 115.656 128.911 110.774C128.911 104.719 127.446 101.594 122.661 97.0043C120.024 94.4655 119.145 92.805 119.145 90.4613C119.145 87.5319 119.536 87.2385 126.86 84.309C134.477 81.1841 134.478 81.1842 138.091 82.8442C141.313 84.4066 142.778 84.5043 153.13 83.4301C159.379 82.8442 166.703 81.6723 169.341 80.891L174.223 79.4262L181.352 83.0395L188.481 86.5551L192.583 82.6488C194.926 80.5004 199.712 76.2035 203.423 73.0785C211.04 66.5356 212.016 64.1918 209.087 59.4067L207.036 56.0863L211.626 53.4496C214.262 51.9848 218.071 49.0551 220.219 47.0043C223.051 44.3677 225.298 43.0981 228.423 42.6098L232.719 41.9262L232.134 44.7582C230.083 53.7421 230.181 56.6723 232.426 58.5278C235.063 60.6761 237.309 64.8754 237.309 67.5121C237.309 70.0511 240.435 72.1997 246.782 74.0551C249.613 74.8362 252.152 76.008 252.446 76.4965C252.837 76.9848 252.544 78.8403 251.86 80.6957C250.786 83.723 250.884 84.407 253.325 88.5082C258.989 98.2738 264.458 102.18 267.387 98.5668C267.876 97.9809 268.657 93.4887 269.048 88.7035C269.829 79.0358 268.852 80.6955 280.278 70.0512C286.528 64.1918 289.653 57.8442 291.216 47.6879C292.29 41.048 292.681 40.2662 294.634 40.266C298.149 40.266 300.395 44.2701 301.079 51.6918C301.86 59.309 304.009 63.0199 308.013 63.5082C309.479 63.7032 313.971 62.4338 318.072 60.7738C326.47 57.2584 329.205 57.4536 331.158 61.6528C331.939 63.2153 334.869 66.5356 337.701 69.0746C342.291 73.1761 343.17 73.6645 345.22 72.6879C348.54 71.223 349.126 68.0979 346.881 65.1684C345.025 62.8246 344.927 59.4067 346.783 58.2348C348.345 57.258 347.661 54.4258 344.732 50.7153C341.509 46.3207 341.705 45.1488 346.49 39.9731C350.591 35.6765 353.326 35.3833 357.037 38.8012C359.771 41.3401 362.017 41.6332 368.463 40.6567C373.052 39.8753 373.345 37.3362 369.146 34.4067C365.728 31.9653 365.533 30.4028 368.267 26.6918C369.537 24.9339 370.513 21.8087 370.806 17.9028C371.49 10.0905 373.053 9.60203 382.134 14.3871C387.798 17.219 389.849 17.8051 395.123 17.8051C402.935 17.805 406.158 16.4378 413.482 10.0903C420.22 4.32884 422.76 3.64494 435.064 3.7426C442.095 3.74262 445.123 4.32858 450.592 6.37932C454.205 7.8441 458.502 9.01604 459.967 9.01604C461.432 9.01562 466.51 7.06265 471.295 4.6215ZM482.232 296.321C480.572 294.661 479.791 294.856 478.131 297.297C475.299 301.301 476.08 303.645 480.865 305.207C485.161 306.672 485.26 306.672 486.724 304.426C488.384 301.985 488.677 299.25 487.701 296.711C487.213 295.54 486.822 295.442 485.259 296.418C483.892 297.297 483.209 297.297 482.232 296.321Z" fill="white"/>
<path d="M226.567 534.114C226.567 533.04 228.325 533.235 229.009 534.504C229.399 534.993 230.377 535.383 231.256 535.188C232.33 534.993 233.306 535.872 234.088 537.434C234.869 539.387 236.431 540.461 239.947 541.438C243.56 542.512 244.537 543.196 244.342 544.563C244.146 545.539 244.732 547.395 245.611 548.762L247.271 551.204L249.615 548.957C251.665 547.005 252.154 546.907 252.935 548.079C254.302 550.227 254.107 551.497 251.959 554.231C248.931 558.039 249.713 562.239 252.838 559.407C254.107 558.333 254.986 558.333 257.134 559.211L259.869 560.383L255.377 563.606C252.936 565.363 250.983 567.121 250.982 567.61C250.982 568.879 254.693 569.856 257.232 569.172C258.989 568.782 259.381 569.075 259.283 571.223C259.283 572.981 259.967 574.25 261.431 574.934L263.58 576.008L261.431 578.157C259.478 580.11 259.478 580.598 260.65 584.895C261.334 587.434 262.506 589.973 263.287 590.364C264.263 590.95 264.654 593.001 264.654 597.786C264.654 602.961 265.045 605.012 266.509 606.77C268.365 609.016 268.365 609.114 265.924 613.997C264.556 616.633 260.845 621.321 257.72 624.348C252.154 629.621 251.959 630.11 251.959 634.7C251.959 638.215 252.838 641.243 254.888 645.344C258.306 652.082 258.404 652.766 256.158 656.086C254.791 658.137 254.791 658.918 255.767 660.579C256.744 662.141 256.744 662.825 255.474 664.192C254.595 665.168 253.912 667.219 253.912 668.782C253.912 672.492 251.275 682.843 249.908 684.407C249.322 685.09 249.127 686.164 249.517 686.653C250.103 687.727 248.345 699.151 247.271 700.911C246.978 701.399 246.783 703.547 246.978 705.5C247.174 708.528 246.49 710.286 243.658 714.289C240.826 718.098 240.338 719.465 241.412 720.051C242.095 720.539 242.974 720.93 243.463 720.93C245.024 720.931 244.048 723.86 241.705 726.204C240.338 727.571 239.264 729.328 239.263 730.11C239.263 732.258 236.237 739.482 235.455 739.485C235.064 739.485 234.088 738.411 233.404 737.043C232.428 735.286 231.548 734.7 230.279 735.188C229.009 735.579 226.958 734.407 223.637 731.282C218.364 726.692 214.653 725.227 209.673 726.204C207.036 726.692 206.255 726.399 204.692 723.957C202.934 721.418 198.442 718 196.88 718C195.806 718.001 196.294 720.247 197.759 721.809C198.833 723.079 198.93 724.25 198.051 727.571C197.466 730.012 197.368 733.528 197.856 736.262C198.247 738.899 198.442 741.633 198.344 742.414C198.051 744.368 192.973 749.543 188.188 752.864C184.575 755.403 184.282 755.403 183.11 753.84C182.231 752.571 181.645 752.375 181.157 753.157C180.669 753.938 179.594 753.45 177.739 751.692C175.493 749.544 174.712 749.348 172.563 750.129C171.196 750.715 169.536 752.083 168.852 753.254C167.778 755.305 167.583 755.305 166.509 753.743C165.532 752.473 165.532 751.399 166.313 749.25C167.29 746.809 167.094 746.125 165.63 745.051C164.165 743.977 163.97 743 164.458 740.266C164.946 737.336 164.751 736.75 162.505 735.579C161.04 734.797 159.77 733.039 159.477 731.379C159.184 729.719 158.11 728.254 157.134 728.059C156.157 727.766 154.692 725.813 153.813 723.664L152.251 719.661L155.18 716.633C158.696 713.02 158.794 712.239 156.352 709.016C154.497 706.673 154.497 706.477 156.157 700.325C157.134 696.907 158.794 692.512 159.868 690.657C160.942 688.801 162.114 684.895 162.505 681.965C163.188 675.618 163.482 675.227 166.02 677.473C166.997 678.352 168.559 678.938 169.438 678.645C171.196 677.864 171.391 674.348 169.731 673.762C168.755 673.469 168.755 673.078 169.829 671.809C170.903 670.442 170.903 670.051 169.634 669.563C168.267 669.075 168.266 668.684 169.536 665.559C170.708 662.922 170.805 661.457 170.024 659.114C169.243 656.965 169.243 655.305 170.122 652.864C170.903 650.618 171.001 649.348 170.317 648.664C168.657 647.005 166.118 648.665 165.239 651.985C164.751 653.743 163.676 655.11 162.602 655.305C161.04 655.696 160.942 655.207 161.528 650.813C162.016 647.297 161.821 645.735 160.942 645.442C160.26 645.149 161.529 644.172 163.872 643.196C168.364 641.34 168.755 640.266 166.899 633.821C166.118 630.794 166.216 629.426 167.583 626.594C169.145 623.372 169.145 622.883 167.68 619.758C166.801 617.903 165.532 616.438 165.044 616.438C164.263 616.437 164.165 614.289 164.653 609.602C165.239 603.645 165.044 602.375 163.091 599.153C161.626 596.614 161.137 594.563 161.43 592.317C162.114 588.508 160.649 588.118 156.841 591.145L154.301 593.098V590.266C154.301 586.751 151.665 585.286 151.079 588.411L150.688 590.559L150.493 588.411C150.493 587.043 151.567 585.09 153.325 583.528C156.841 580.403 157.036 576.887 153.618 576.887C150.005 576.887 150.005 575.617 153.813 568.098C157.134 561.75 157.426 560.481 156.45 558.332C155.474 556.282 155.572 555.891 156.841 555.891C157.915 555.891 158.208 556.477 157.817 557.454C157.524 558.332 158.208 559.895 159.575 561.262C162.211 563.899 172.953 569.562 175.298 569.563C176.176 569.563 180.18 567.805 184.184 565.657C189.848 562.727 192.681 561.75 196.196 561.75C200.395 561.75 201.274 561.36 204.79 557.551C212.114 549.739 217.973 545.637 221.88 545.539C228.13 545.442 231.255 540.95 228.032 536.75C227.251 535.774 226.567 534.602 226.567 534.114Z" fill="white"/>
<path d="M335.162 390.852C336.821 390.853 335.845 396.028 333.697 399.153C331.842 401.789 331.158 402.278 330.181 401.301C329.303 400.422 328.814 400.423 328.131 401.594C327.252 402.864 327.056 402.864 326.275 401.594C325.494 400.422 324.908 400.423 322.955 401.496C321.197 402.473 319.732 402.473 316.705 401.692C313.189 400.715 312.799 400.325 313.287 398.176C313.677 396.126 314.264 395.735 316.998 395.735C318.853 395.735 320.318 396.126 320.318 396.711C320.318 398.176 322.857 397.883 324.224 396.223C324.908 395.442 326.959 394.758 328.717 394.758C330.962 394.758 332.428 394.172 333.209 392.805C333.892 391.731 334.771 390.852 335.162 390.852Z" fill="white"/>
<circle id="336" cx="487" cy="487" fill="#5CE50D"/>
<circle id="337" cx="326" cy="145" fill="#E52A0D"/>
<circle id="981" cx="427" cy="265" fill="#E52A0D"/>
<circle id="1625" cx="517" cy="863" fill="#E52A0D"/>
</svg>
