<svg width="1000" height="1000" viewBox="0 0 1000 1000" fill="none" xmlns="http://www.w3.org/2000/svg">
<path d="M230.096 297.359C226.482 298.14 222.381 299.409 221.111 300.288C219.842 301.07 217.889 301.753 216.717 301.753C215.545 301.753 212.322 302.827 209.588 304.097C202.947 307.222 198.26 313.765 198.26 319.82C198.26 322.163 197.869 324.409 197.283 324.702C196.697 324.995 196.6 327.73 196.99 331.245L197.576 337.202L192.498 336.617C189.666 336.226 186.639 335.445 185.76 334.761C184.979 334.077 181.463 333.296 177.947 333.003C172.967 332.613 171.404 332.124 170.525 330.562C169.939 329.488 169.354 328.413 169.158 328.218C168.865 327.73 155.096 330.855 149.92 332.613C147.771 333.296 145.037 333.687 143.865 333.394C142.693 333.101 137.908 333.296 133.221 333.98C125.604 334.956 124.627 334.859 122.869 333.296C121.307 331.831 120.818 331.831 120.135 333.003C119.549 333.784 119.158 334.761 119.158 335.152C119.158 335.64 118.768 335.933 118.182 335.933C117.693 335.933 117.205 334.859 117.205 333.492C117.205 331.831 116.717 331.05 115.447 331.05C114.568 331.05 113.201 330.171 112.518 329.097C110.662 326.07 102.654 326.363 98.748 329.683C96.0137 331.929 95.7207 332.613 96.3066 335.738C96.8926 338.765 96.7949 339.058 95.3301 338.57C94.3535 338.179 92.9863 337.886 92.2051 337.886C91.4238 337.886 90.8379 337.105 90.8379 336.128C90.8379 332.515 87.4199 330.757 79.5098 330.269C71.4043 329.781 67.6934 330.952 67.2051 334.273C67.0098 335.64 65.6426 336.714 62.9082 337.593C59.7832 338.667 58.5137 339.742 57.5371 342.085C56.8535 343.843 55.6816 345.601 54.998 345.992C54.3145 346.382 53.7285 347.652 53.7285 348.628C53.7285 349.995 53.0449 350.581 51.3848 350.581C48.1621 350.581 43.7676 354.292 44.4512 356.441C45.623 360.054 44.2559 360.835 38.0059 360.542C31.5605 360.152 30.291 360.835 30.291 364.937C30.291 366.206 29.4121 368.062 28.3379 369.136C27.2637 370.21 26.1895 372.163 25.7988 373.531C24.9199 377.046 23.6504 377.437 21.1113 375.093C17.9863 372.066 15.252 372.554 12.2246 376.46C9.7832 379.683 9.49023 382.808 11.541 382.808C12.0293 382.808 12.4199 384.859 12.5176 387.398C12.5176 390.034 12.9082 396.187 13.2012 401.167L13.8848 410.347L10.3691 413.667C8.41602 415.523 6.16992 416.988 5.38867 416.988C3.5332 416.988 0.0175781 422.554 0.0175781 425.386C0.0175781 427.632 6.46289 437.984 9.58789 440.816C10.7598 441.792 15.0566 444.038 19.2559 445.699C26.2871 448.531 27.3613 448.726 33.709 448.042C43.9629 446.87 45.8184 447.456 49.627 453.023C51.873 456.343 54.1191 458.296 56.8535 459.468C60.6621 460.933 60.8574 460.933 67.3027 458.003C74.7246 454.585 86.1504 451.167 90.1543 451.167C91.7168 451.167 94.3535 452.242 96.209 453.609C99.2363 455.952 99.8223 456.05 105.291 455.171C108.514 454.683 112.518 453.511 114.178 452.73C118.182 450.581 121.99 450.777 124.627 453.218C126.385 454.878 127.166 455.074 128.826 454.195C133.611 451.558 146.99 456.929 148.064 461.91C148.357 463.277 149.432 466.304 150.506 468.745C152.557 473.433 154.51 484.175 154.51 490.718C154.51 495.015 155.877 496.48 161.346 498.042C163.396 498.628 165.447 499.898 165.936 500.874C166.521 501.851 168.377 503.218 170.135 503.902C175.311 505.952 180.682 511.617 181.854 516.402C182.439 518.843 184.002 521.48 185.564 522.847C187.029 524.019 188.592 526.558 188.982 528.413C189.373 530.269 190.447 532.613 191.424 533.687C192.4 534.761 193.475 536.617 193.865 537.886C194.744 540.816 197.088 541.89 204.119 542.671C209.002 543.16 210.369 542.964 211.932 541.499C213.689 539.937 214.373 539.839 217.205 540.816C218.963 541.499 221.307 541.988 222.479 541.988C223.748 541.988 226.385 543.062 228.533 544.429C230.779 545.796 233.807 547.163 235.369 547.554C237.029 547.847 238.299 548.628 238.299 549.312C238.299 549.995 239.861 551.753 241.814 553.218C244.939 555.562 245.33 556.343 244.842 559.175C244.549 560.933 243.377 563.57 242.303 565.132C240.447 567.671 240.35 568.452 241.229 576.656C241.814 581.441 242.693 585.542 243.182 585.738C243.67 585.933 245.916 587.3 248.26 588.863C250.604 590.523 252.947 591.792 253.533 591.792C255.486 591.792 259.783 596.87 259.783 599.214C259.783 604.292 262.615 608.98 267.107 611.128C269.549 612.3 271.502 613.667 271.502 614.253C271.502 614.742 272.381 615.23 273.357 615.23C274.432 615.23 276.092 616.695 277.264 618.648C278.338 620.503 280.779 622.847 282.732 623.726C284.686 624.605 286.15 626.07 286.15 627.046C286.15 629.683 288.592 629.976 294.354 627.925C298.943 626.363 302.947 626.167 324.822 625.972C338.787 625.972 354.412 625.679 359.783 625.386L369.354 624.898L377.361 629.976C388.006 636.812 391.326 637.105 402.166 632.32C412.322 627.925 421.014 625.972 431.463 625.972H439.666L447.479 631.343C451.873 634.37 456.365 636.714 457.732 636.714C461.053 636.714 476.482 646.187 477.557 648.824C479.217 653.316 490.447 664.546 496.014 667.183C499.041 668.745 502.068 669.917 502.654 669.917C503.338 669.917 505.486 673.335 507.342 677.534C510.857 685.152 510.955 685.249 516.131 686.909C519.842 688.081 522.088 689.449 524.041 692.085C525.896 694.527 529.217 696.773 535.564 699.702C544.061 703.706 544.842 703.902 551.287 703.413C557.342 702.925 558.709 702.437 563.299 699.019C568.279 695.308 568.377 695.113 568.377 690.425C568.377 687.691 567.986 685.542 567.498 685.542C565.643 685.542 560.564 680.464 560.564 678.609C560.564 677.632 561.053 676.753 561.541 676.753C562.811 676.753 562.811 674.117 561.443 673.335C560.955 672.945 559.002 673.335 557.146 674.214C555.389 675.093 551.873 676.07 549.334 676.363C545.623 676.949 544.451 676.656 542.693 674.995C541.424 673.824 538.396 672.749 535.467 672.359C530.584 671.773 530.291 671.48 530.291 668.941C530.291 666.988 531.17 665.523 533.025 664.156C537.225 661.226 537.908 661.324 539.764 664.937C540.74 666.792 542.498 668.648 543.768 669.038C545.721 669.82 545.916 669.527 546.111 666.499C546.209 664.644 546.307 662.3 546.307 661.421C546.404 660.445 545.428 659.566 544.158 659.175C541.326 658.589 541.229 656.831 543.963 656.441C545.428 656.148 545.916 655.367 545.916 653.316C545.916 649.409 549.041 647.359 553.045 648.531C559.979 650.484 563.104 648.921 557.439 646.382C552.752 644.331 552.068 640.23 555.193 633.98C556.561 631.148 557.635 627.437 557.635 625.191C557.635 621.675 558.221 620.601 562.615 616.206C569.451 609.37 571.6 608.101 575.115 608.882C577.361 609.37 578.533 608.98 579.998 607.515C582.146 605.367 584.002 604.878 584.002 606.441C584.002 608.394 587.908 607.32 589.471 604.976C591.326 602.144 592.791 602.632 592.791 606.05C592.791 608.882 593.865 609.077 596.209 606.441C597.771 604.683 598.064 604.683 600.994 606.05C604.9 608.101 610.174 612.984 611.932 616.402C613.689 619.722 613.787 625.093 612.127 624.898C608.904 624.507 608.416 625.093 608.416 629.878C608.416 634.956 609.881 636.226 612.322 633.296C614.178 631.148 621.307 631.441 624.334 633.784C626.873 635.835 631.854 636.421 631.854 634.761C631.854 634.273 632.537 634.077 633.318 634.37C634.1 634.761 634.979 634.273 635.369 633.394C636.248 631.05 640.74 631.343 641.326 633.784C641.619 634.859 642.498 635.738 643.182 635.738C643.963 635.738 644.549 636.324 644.549 637.105C644.549 638.667 646.99 638.179 656.268 634.956C660.857 633.296 661.932 632.515 663.592 628.999C664.666 626.656 666.131 624.995 667.107 624.995C668.182 624.995 669.256 623.726 669.842 621.773C671.111 618.062 676.58 608.882 679.51 605.659L681.561 603.511H679.412C676.092 603.511 674.529 602.046 675.311 599.702C675.799 598.042 676.678 597.652 679.803 597.652C683.514 597.652 683.611 597.554 683.611 594.429C683.611 592.183 684.393 590.425 686.053 588.863C687.42 587.593 688.494 585.542 688.494 584.37C688.494 583.101 689.373 581.636 690.35 581.05C691.424 580.562 693.279 578.706 694.451 576.949L696.697 573.921L693.572 574.507C690.545 575.093 690.447 574.995 691.033 572.456C691.424 570.992 692.791 567.769 694.256 565.23C696.307 561.421 697.283 560.542 699.432 560.542C703.143 560.542 705.096 561.519 705.096 563.374C705.096 565.62 712.615 572.652 716.814 574.312C720.428 575.679 729.705 575.972 737.811 574.8C742.303 574.117 743.084 574.312 747.576 577.339C750.213 579.097 752.557 581.343 752.752 582.32C753.045 583.784 751.971 583.98 740.838 583.98H728.533L725.994 586.812C723.846 589.253 723.064 589.546 721.014 588.765C719.646 588.277 716.521 587.398 713.982 586.909C711.541 586.324 708.514 585.445 707.439 584.859C705.682 583.98 704.705 584.175 702.166 586.031L699.041 588.374L705.291 588.96C708.611 589.253 714.959 590.523 719.158 591.597C729.607 594.527 730.877 594.429 734.002 590.327L736.541 586.909H744.842C749.334 586.909 753.826 586.519 754.803 585.933C755.975 585.347 758.416 585.347 761.834 586.031C764.764 586.617 769.842 587.398 773.26 587.788C778.143 588.472 780.096 589.253 782.537 591.597C784.295 593.159 786.639 594.82 787.713 595.113C788.885 595.503 790.35 597.066 791.033 598.628C792.205 601.558 792.596 601.753 796.404 601.949C797.869 602.046 798.553 603.023 799.041 605.952C799.432 608.101 800.604 612.593 801.775 615.816C803.729 621.187 804.314 621.968 807.439 622.847C809.49 623.433 814.275 624.214 818.182 624.507C822.088 624.8 826.873 625.679 828.826 626.46C832.83 628.12 835.955 628.316 835.955 626.949C835.955 626.46 834.588 625.386 832.83 624.702C831.072 624.019 830.096 623.14 830.682 622.749C831.268 622.456 834.002 623.238 836.834 624.605C840.154 626.07 843.768 626.949 846.99 626.949C851.678 627.046 851.873 627.144 850.213 628.413C848.943 629.39 846.014 629.878 842.107 629.878C837.322 629.878 835.955 630.171 835.955 631.343C835.955 632.515 837.42 632.808 843.67 632.808C851.092 632.808 851.482 632.71 853.826 629.878C855.193 628.316 856.463 626.558 856.658 625.972C857.146 624.507 873.357 621.577 888.885 620.113L901.287 618.941L909.1 621.968C913.396 623.628 918.279 624.995 919.939 624.995C921.893 624.995 922.869 625.484 922.869 626.46C922.869 628.804 927.85 628.316 928.436 625.972C928.729 624.898 929.314 624.019 929.803 624.019C930.291 624.019 930.682 622.066 930.682 619.624C930.682 615.816 930.975 615.23 933.123 614.644C936.443 613.863 938.787 615.816 938.006 618.941C937.713 620.21 937.908 621.773 938.396 622.456C939.666 624.019 946.307 623.238 946.99 621.48C947.283 620.699 948.357 620.113 949.334 620.113C950.408 620.113 951.482 619.527 951.775 618.745C952.654 616.402 957.537 615.132 959.686 616.695C961.248 617.867 961.834 617.671 964.568 615.62C966.814 613.96 968.865 613.277 972.186 613.277C975.994 613.277 976.775 612.886 977.752 610.738C978.436 609.37 980.096 607.613 981.561 606.831C984.686 605.269 990.838 604.976 991.717 606.441C992.693 608.101 996.795 607.515 997.479 605.659C997.771 604.781 998.553 603.218 999.236 602.242C1000.21 600.972 1000.21 600.191 999.334 598.824C998.65 597.945 997.479 595.699 996.697 593.941C995.525 591.402 994.646 590.816 992.303 590.816C990.643 590.816 989.275 590.327 989.275 589.742C989.275 589.058 987.615 588.765 984.881 589.058C982.439 589.253 980.486 589.058 980.486 588.667C980.486 588.277 979.217 586.519 977.557 584.663C975.994 582.808 975.018 580.952 975.506 580.464C975.896 579.976 976.775 577.73 977.459 575.386C978.533 571.48 978.533 571.089 976.385 569.234C975.115 568.159 972.967 566.89 971.6 566.304C968.475 565.132 966.814 561.714 966.814 556.538C966.814 553.218 966.326 552.339 963.885 550.972C961.736 549.8 960.955 548.531 960.955 546.675C960.955 545.21 960.369 543.648 959.588 543.257C958.807 542.867 958.025 540.327 957.732 537.593C956.756 527.046 950.311 514.253 943.279 508.687C939.959 506.05 939.471 505.171 939.471 501.558C939.471 497.847 939.178 497.261 936.053 495.796C932.928 494.331 932.635 493.843 932.635 489.937C932.635 484.566 930.389 481.05 927.752 482.417C925.506 483.589 924.822 483.687 924.822 482.515C924.822 480.66 919.256 475.777 916.326 475.191C914.666 474.8 913.006 473.824 912.713 473.042C912.029 471.382 909.197 471.187 909.197 472.847C909.197 473.726 908.904 473.726 908.025 472.847C907.342 472.163 905.291 471.675 903.338 471.675C901.385 471.675 899.334 471.187 898.846 470.699C898.162 470.015 896.99 469.917 895.232 470.601C893.182 471.382 892.596 471.285 892.596 470.308C892.596 469.624 890.838 468.257 888.787 467.281C885.271 465.718 884.783 465.718 882.732 467.183C877.85 470.601 871.697 468.16 868.377 461.617C867.205 459.175 865.643 456.831 864.959 456.343C863.592 455.171 855.486 455.855 855.486 457.124C855.486 457.613 854.217 458.003 852.654 458.003C850.994 458.003 849.432 458.394 849.139 458.98C848.26 460.445 845.135 460.152 843.768 458.492C842.303 456.734 838.982 456.636 835.76 458.101C831.463 459.956 824.627 456.441 818.475 449.214C815.545 445.699 812.518 442.671 811.834 442.574C811.053 442.378 808.709 442.867 806.561 443.745C799.725 446.48 794.744 445.796 788.201 441.402C785.076 439.253 780.486 435.152 778.045 432.222L773.553 427.046L762.42 425.581C754.217 424.507 750.408 423.531 748.26 421.968C745.232 419.82 740.74 419.234 739.764 420.894C739.471 421.382 737.42 422.261 735.369 422.847C729.9 424.312 726.092 422.163 723.26 416.011C721.99 413.374 719.354 409.175 717.303 406.734C714.568 403.316 713.885 401.949 714.764 401.07C716.229 399.605 716.131 395.21 714.666 393.745C713.982 393.062 712.811 392.574 711.834 392.574C708.807 392.574 700.799 387.495 694.646 381.831C688.982 376.558 684.197 374.019 679.607 374.019C677.459 374.019 674.822 370.894 674.822 368.257C674.822 366.988 675.604 363.863 676.482 361.226C678.924 354.488 677.947 353.804 665.057 353.023L654.803 352.339L650.896 355.757C647.186 358.98 646.99 359.077 643.67 357.71C641.814 356.929 639.08 356.538 637.518 356.831C635.564 357.222 633.318 356.734 630.584 355.269C627.166 353.511 625.896 353.413 622.771 354.195C619.354 355.171 618.963 355.074 617.986 353.023C617.205 351.363 615.35 350.288 610.857 349.117C605.193 347.554 604.51 347.554 602.459 349.019C601.189 349.898 599.041 350.581 597.674 350.581C596.307 350.581 593.768 351.46 591.912 352.632C589.275 354.195 587.713 354.488 583.514 353.999C580.193 353.511 578.143 353.706 577.752 354.39C576.58 356.245 572.967 355.562 570.428 353.12C568.963 351.753 565.154 350.093 561.541 349.214C556.463 347.945 554.607 346.87 552.264 344.038C549.822 341.304 547.869 340.132 542.498 338.667C538.689 337.691 534.393 336.617 532.732 336.324C526.482 335.249 525.408 334.859 525.408 333.589C525.408 332.027 521.307 330.074 517.889 330.074C516.521 330.074 513.787 329.683 511.834 329.195C508.025 328.218 489.568 324.507 485.076 323.921C483.221 323.628 482.049 324.019 481.463 325.191C480.193 327.534 461.15 328.804 457.244 326.753C454.119 325.191 442.791 324.702 441.912 326.167C441.131 327.437 438.787 327.437 437.225 326.167C428.826 319.331 426.971 318.843 422.771 322.847L420.232 325.288L417.303 322.456C414.568 319.722 414.178 319.624 407.537 320.015C402.166 320.406 400.115 320.21 398.357 318.941C396.99 317.964 394.158 317.378 391.131 317.378C388.104 317.378 384.881 316.597 382.537 315.425C379.119 313.57 377.752 313.472 366.033 314.058C355.682 314.644 353.045 315.034 351.678 316.499C350.115 318.159 349.92 318.159 345.525 315.425C340.447 312.3 335.955 310.738 335.955 312.3C335.955 312.788 336.639 313.765 337.42 314.449C341.912 318.159 334.197 318.55 329.412 314.839C326.775 312.788 324.529 312.105 319.549 311.812C313.494 311.324 313.104 311.421 314.959 312.886C316.814 314.351 316.814 314.351 313.689 314.449C309.881 314.449 307.928 313.57 301.189 308.394C296.6 304.976 295.525 304.585 286.736 303.706C281.561 303.218 275.994 302.046 274.529 301.265C266.619 297.163 241.619 295.015 230.096 297.359Z" fill="white"/>
<circle id="803" cx="694" cy="557" fill="#5CE50D"/>
<circle id="983" cx="577" cy="360" fill="#E52A0D"/>
<circle cx="148" cy="450" fill="#E52A0D"/>
<circle id="805" cx="208" cy="326" fill="#E52A0D"/>
</svg>
