<svg width="1000" height="1000" viewBox="0 0 1000 1000" fill="none" xmlns="http://www.w3.org/2000/svg">
<path d="M752.204 53.1298C704.938 82.6219 635.505 125.981 597.907 149.712C560.309 173.345 512.848 202.934 492.438 215.434C472.028 227.934 451.813 241.02 447.614 244.438C438.923 251.372 438.434 251.47 425.446 249.028C421.052 248.247 416.559 247.759 415.485 248.052C414.216 248.345 412.458 247.661 410.7 246.099C408.063 243.95 406.989 243.755 397.419 243.755C385.7 243.657 374.665 241.899 372.126 239.653C369.489 237.407 366.169 236.626 359.04 236.724C353.669 236.821 352.399 236.528 351.716 235.063C349.958 231.45 335.017 218.559 325.446 212.309C320.075 208.891 315.095 204.79 314.313 203.423C313.044 201.079 312.556 200.884 308.942 201.47C306.696 201.763 304.841 202.153 304.645 202.251C304.548 202.349 302.79 201.958 300.739 201.274C298.688 200.493 295.075 200.2 292.145 200.493L287.165 200.981L286.481 196.782C285.798 192.388 281.892 184.868 279.743 183.501C278.962 183.11 277.985 180.083 277.497 176.86L276.618 171.001L272.224 169.731C264.509 167.485 263.044 166.606 264.216 165.434C265.974 163.677 265.583 161.724 263.63 161.724C261.97 161.724 257.087 157.817 256.501 155.962C256.013 154.595 241.071 151.86 235.993 152.153C232.087 152.349 230.329 151.177 230.231 148.247C230.231 147.466 228.669 147.075 225.544 147.075C221.735 147.075 220.368 147.563 218.415 149.614C217.145 150.981 213.727 153.227 210.895 154.497C207.966 155.766 204.352 157.915 202.692 159.282C199.372 162.114 196.931 162.309 191.266 160.259L187.263 158.891L188.727 161.724C190.974 166.02 190.583 168.071 186.774 172.173C182.477 176.763 181.794 178.813 183.649 181.548C184.333 182.72 185.309 186.04 185.602 188.872C186.188 193.559 185.993 194.145 183.942 195.024C182.38 195.806 181.794 196.684 182.087 198.247C182.38 199.809 181.892 200.688 180.329 201.372L178.181 202.349L181.306 205.962C184.431 209.38 184.431 209.477 182.77 212.016C181.306 214.263 181.208 215.141 182.184 217.681C183.161 220.317 183.063 221.001 181.403 222.759C180.231 224.028 179.45 226.177 179.45 228.325C179.45 230.278 179.059 233.013 178.571 234.38C177.888 235.845 177.985 237.993 178.571 240.044C179.059 241.802 179.938 251.47 180.427 261.431C181.403 278.618 181.306 279.79 179.45 283.891C178.376 286.431 177.497 290.337 177.497 293.364C177.497 297.075 176.716 300.102 174.567 304.302C171.247 310.942 170.661 318.169 173.2 321.001C174.567 322.563 174.567 322.954 173.102 325.884C171.54 328.813 171.54 329.204 173.005 331.841C174.274 333.891 174.567 335.747 173.981 339.263C173.688 341.802 172.907 344.438 172.321 345.122C171.052 346.782 173.102 356.743 175.153 359.087C176.227 360.259 176.52 361.528 176.032 362.602C174.86 365.337 174.763 372.563 175.837 378.227C176.618 382.427 177.204 383.306 179.352 383.794C180.72 384.087 182.77 385.063 183.845 385.845C185.798 387.407 185.798 387.602 181.306 409.38C176.52 433.11 176.423 437.114 180.036 448.052C181.208 451.567 181.306 453.52 180.524 456.352C177.79 466.899 176.52 474.419 176.52 480.571C176.52 484.77 175.934 488.384 175.056 489.849C174.274 491.216 173.2 493.462 172.517 494.927C171.638 497.27 171.052 497.563 168.903 496.977C167.438 496.684 165.876 495.903 165.485 495.317C164.704 494.243 165.29 488.481 166.364 485.552C166.657 484.673 166.462 483.989 165.876 483.989C164.509 483.989 160.7 488.188 157.77 492.778C156.599 494.634 154.841 497.173 153.767 498.442L151.716 500.591L147.614 496.684L145.27 501.47L143.024 506.255L147.712 514.458C150.251 518.95 153.669 523.931 155.329 525.688L158.259 528.813L156.599 538.774C155.231 547.27 154.548 549.224 151.716 552.739C146.052 559.673 145.27 562.505 147.028 570.806L148.591 577.934L144.196 582.036C141.755 584.184 138.434 587.212 136.774 588.579C134.138 590.727 133.649 591.899 133.063 597.661C132.673 601.274 132.575 605.669 132.868 607.524C133.356 610.259 133.063 610.942 131.599 611.431C128.669 612.309 123.786 619.145 123.786 622.27C123.688 627.739 121.052 636.919 118.024 642.192C116.364 645.122 114.997 648.345 114.997 649.321C114.997 650.2 112.946 654.009 110.505 657.72C106.501 663.872 105.72 665.825 103.278 677.837C100.153 692.876 97.8095 700.493 95.661 702.934C94.0009 704.888 94.3915 706.352 100.153 717.778L103.474 724.516L99.9579 727.544C96.6376 730.474 96.4423 730.962 95.3681 739.849C93.9032 751.177 93.8056 749.614 96.9306 764.067C98.2978 770.61 99.1767 776.567 98.6884 777.251C98.2978 777.837 95.1728 782.329 91.6571 787.212C86.1884 794.731 84.8212 797.563 82.0868 806.743C78.9618 816.899 78.8642 817.974 79.4501 827.739L80.036 837.993L76.4228 844.341C73.2001 850.005 72.9071 851.274 73.3954 855.376C73.786 858.794 73.3954 861.528 72.0282 865.141C70.4657 869.145 70.0751 872.661 70.0751 882.036V893.852L65.1923 899.126C58.9423 905.864 57.4775 911.528 60.5048 916.411C62.8485 920.22 62.4579 925.493 59.3329 934.575C58.161 938.091 57.6728 941.216 58.0634 943.559C58.5517 946.294 58.2587 947.466 56.9892 948.442C55.5243 949.419 55.329 950.493 55.915 954.595L56.5985 959.477L61.579 960.454C97.5165 967.485 278.962 999.614 282.868 999.614C283.356 999.614 303.474 983.11 327.595 962.993L371.345 926.47L422.126 837.016L498.591 821.294C540.583 812.7 575.056 805.474 575.251 805.181C575.446 804.985 583.063 787.309 592.145 765.923L608.649 726.958L642.536 706.841C661.188 695.708 676.423 686.431 676.52 686.138C676.52 685.845 631.013 631.841 575.349 566.02C489.899 465.044 474.47 446.294 476.032 445.708C477.009 445.317 500.446 438.579 528.083 430.669C555.72 422.856 609.333 407.524 647.224 396.587C685.114 385.649 752.985 366.313 798.102 353.618C843.22 340.923 880.622 330.181 881.208 329.888C881.891 329.497 894.782 317.583 910.016 303.325C925.153 289.067 939.118 276.079 940.974 274.516L944.391 271.489L940.192 257.915C937.849 250.395 935.7 243.95 935.407 243.559C935.114 243.169 925.153 245.513 913.337 248.638C901.52 251.86 891.559 254.497 891.169 254.497C890.778 254.497 890.192 252.544 889.899 250.2C889.509 247.759 887.067 238.579 884.528 229.595C880.72 216.411 880.134 213.286 881.208 212.798C881.989 212.505 886.481 211.04 891.169 209.673C898.298 207.427 899.567 206.645 899.372 205.181C897.419 194.829 840.485 2.54382 838.727 0.395379C838.337 0.00475428 799.47 23.7352 752.204 53.1298Z" fill="white"/>
<circle id="344" cx="263" cy="360" fill="#5CE50D"/>
<circle id="346" cx="244" cy="205" fill="#E52A0D"/>
<circle id="988" cx="72" cy="919" fill="#E52A0D"/>
<circle cx="184" cy="632" fill="#E52A0D"/>
</svg>
