<svg width="1000" height="1000" viewBox="0 0 1000 1000" fill="none" xmlns="http://www.w3.org/2000/svg">
<path d="M117.698 26.7816C110.471 34.3895 102.007 43.8995 98.8685 47.9887C94.0184 54.3604 93.4478 55.5016 94.589 56.7379C98.9636 61.7781 101.721 71.3832 102.292 83.3657C102.577 89.1667 104.194 91.0687 108.569 91.0687C111.802 91.0687 114.179 91.9246 114.179 93.0658C114.179 93.5413 113.514 93.9217 112.753 93.9217C111.992 93.9217 110.946 94.6825 110.471 95.6335C109.139 98.1061 111.231 100.293 116.272 101.53C119.981 102.481 120.741 103.146 121.502 105.619C122.358 108.567 122.453 108.662 127.589 108.377C132.343 108.092 132.914 108.282 135.672 111.23C138.335 113.988 138.715 115.224 139.191 121.31C139.761 127.967 139.666 128.348 136.908 131.391C133.485 135.29 133.104 141.471 136.052 147.082C137.003 149.079 138.81 154.5 139.951 159.065C141.853 166.578 142.329 167.434 145.182 168.765C148.415 170.286 149.271 172.759 151.839 187.119C152.219 189.211 153.931 191.969 156.309 194.442C159.922 198.246 160.588 198.531 165.153 198.531C169.908 198.531 170.193 198.626 171.049 201.574C171.62 203.286 172.285 207.661 172.666 211.274C173.331 219.453 175.233 222.876 179.418 223.732C182.08 224.208 183.031 225.159 185.029 229.058C186.36 231.721 188.262 235.049 189.308 236.381L191.305 238.853L187.121 241.421C184.838 242.847 182.651 244.654 182.366 245.415C182.08 246.176 184.363 253.594 187.501 261.962C192.732 275.562 193.207 277.559 192.827 282.694C192.446 288.02 192.636 288.685 195.68 292.299L198.818 296.198L196.821 298.005C195.014 299.622 194.919 300.668 195.109 312.27L195.394 324.728L192.256 328.722C190.544 330.814 187.882 333.382 186.36 334.238C184.173 335.569 183.602 336.52 183.602 339.088C183.602 343.367 181.32 347.457 177.991 349.168C174.472 350.975 173.236 357.252 175.519 360.866C176.374 362.102 176.945 364.289 176.755 365.716C176.47 368.093 175.994 368.378 170.098 369.234C164.297 370.09 163.156 370.661 157.925 375.226C154.787 377.984 152.219 380.932 152.219 381.787C152.219 382.643 151.649 383.024 150.888 382.739C150.127 382.453 148.035 381.883 146.228 381.597C143.185 381.027 142.9 381.122 141.853 384.07C141.283 385.687 140.807 389.681 140.807 392.724C140.807 398.049 140.427 398.905 136.052 405.182C133.485 408.796 129.49 413.075 127.303 414.502C122.834 417.545 121.978 418.971 121.883 424.012C121.787 428.291 119.41 430.573 114.845 430.573C112.182 430.573 111.041 431.144 109.425 433.331C105.43 439.037 102.672 446.55 102.102 453.492L101.531 460.34L91.6409 471.656C86.3154 477.838 81.8457 483.068 81.8457 483.259C81.8457 483.354 84.4134 483.259 87.5517 483.068C92.9723 482.688 93.2576 482.783 93.2576 484.875C93.2576 486.016 92.3066 488.013 91.1654 489.25C89.1684 491.342 89.1684 491.722 90.4997 494.1C91.5458 496.097 92.7821 496.763 95.4449 496.953C97.6322 497.143 99.344 497.904 99.9146 498.95C100.39 499.901 102.482 501.423 104.67 502.278C108.188 503.61 108.378 503.99 107.427 505.987C106.667 507.699 106.762 509.126 107.903 511.883C108.759 513.785 109.425 516.258 109.425 517.209C109.425 520.252 114.084 519.586 115.226 516.353C115.701 514.927 117.413 512.93 118.934 511.979C120.551 511.123 122.073 509.316 122.358 507.984C122.929 505.987 122.738 504.561 121.597 497.619C121.312 496.002 122.168 495.621 129.871 494.67C137.669 493.719 146.228 490.962 153.456 487.158C156.784 485.446 157.925 486.016 163.916 491.913C174.282 502.088 178.847 510.837 172.856 509.126C166.104 507.128 165.058 507.319 163.631 510.647C161.919 514.451 158.971 515.022 148.701 513.31C139.856 511.788 133.675 512.644 131.678 515.687C130.251 517.875 130.346 518.255 132.724 522.439L135.292 526.814L132.534 530.238C131.012 532.14 129.3 533.756 128.73 533.947C128.159 534.137 127.018 532.615 126.162 530.428C125.021 527.48 124.165 526.624 122.453 526.624C121.217 526.624 119.885 526.909 119.505 527.29C118.079 528.716 110.851 527.385 108.474 525.197C104.289 521.393 102.292 521.393 99.4391 525.102C97.442 527.67 96.9665 529.287 97.2518 531.854C97.6322 534.993 97.442 535.183 94.9694 535.183C91.3556 535.183 85.5546 539.177 86.6958 540.984C88.0272 543.076 87.6468 545.929 85.6497 548.497C81.2751 554.012 85.4595 565.234 93.4478 569.419C96.0155 570.75 98.0126 572.367 98.0126 573.032C98.0126 573.698 96.7763 576.171 95.1596 578.453C93.638 580.735 92.3066 583.683 92.3066 585.015C92.3066 587.107 91.9262 587.487 89.4537 587.487C86.6007 587.487 86.2203 588.153 86.5056 592.718C86.6007 593.764 85.5546 596.141 84.2232 597.948C82.0359 600.992 81.9408 601.277 83.4624 601.943C84.4134 602.228 86.7909 602.608 88.6929 602.608C91.2605 602.703 92.4968 603.274 93.2576 604.605C93.8282 605.651 95.2547 606.507 96.3959 606.507C98.2979 606.507 190.544 657.481 414.694 782.346L473.275 814.87L477.459 844.731L473.18 848.535C469.376 851.959 468.9 852.815 468.33 857.76L467.664 863.276H470.897C472.704 863.276 475.938 864.132 478.22 865.178C481.929 866.889 482.214 867.27 482.214 870.693C482.214 872.976 482.88 875.258 483.926 876.399C486.684 879.538 560.196 934.505 597.95 961.608L633.422 987L636.941 984.527C641.03 981.769 643.503 981.484 645.88 983.671C647.021 984.717 648.448 984.908 650.92 984.527C653.964 983.957 654.344 983.481 654.344 981.009C654.344 979.487 655.295 977.014 656.436 975.398L658.528 972.545L661.762 978.821L662.427 974.066C663.283 968.551 666.326 962.464 668.704 961.703C669.845 961.323 670.701 959.421 671.462 955.712C673.364 945.346 676.597 937.929 684.015 926.612C695.902 908.353 699.516 900.65 701.228 888.952C702.75 879.062 706.363 868.982 711.118 861.374C712.259 859.567 713.591 856.999 714.066 855.668C714.732 854.051 717.68 851.769 723.196 848.725L731.47 844.066L731.279 837.313C731.089 830.847 731.374 829.991 736.034 820.576C740.409 811.922 740.789 810.591 739.648 809.164C736.415 805.455 736.034 803.648 737.08 794.804C737.651 789.954 738.602 784.724 739.363 783.012C742.596 775.118 764.659 765.323 779.019 765.323H786.247L790.146 761.139C792.333 758.857 794.996 756.669 796.232 756.289C802.128 754.482 805.267 748.205 802.604 743.355C801.463 741.263 803.365 737.649 804.601 739.646C804.981 740.312 806.123 740.312 808.31 739.551C811.068 738.6 811.353 738.125 811.068 735.747L810.592 732.99L812.875 735.082C814.491 736.603 814.967 737.84 814.586 739.361C814.206 741.073 814.491 741.548 816.013 741.548C819.817 741.548 821.719 739.742 821.719 736.318C821.719 731.753 820.863 730.136 818.39 730.136C816.393 730.136 816.013 729.376 814.586 723.289C813.73 719.485 811.828 714.16 810.307 711.497C808.785 708.739 807.834 706.267 808.12 705.981C810.497 703.699 815.347 707.788 816.488 713.114C817.534 717.583 818.676 715.491 819.341 707.883C820.292 697.517 823.621 697.993 823.621 708.454C823.621 712.258 825.523 712.543 831.514 709.785C834.462 708.359 838.361 707.313 840.739 707.313C844.543 707.313 844.733 707.218 844.162 704.935C843.687 702.938 843.877 702.558 845.494 702.558C846.54 702.558 847.681 703.128 847.966 703.889C848.917 706.266 855.099 703.414 861.185 697.613C869.364 690.005 882.582 671.27 882.582 667.371C882.582 664.803 877.732 658.146 853.007 626.668L823.431 589.009L824.762 199.958L865.274 160.016L891.902 123.973C906.643 104.097 918.435 87.55 918.15 87.1697C917.959 86.7892 916.723 86.2187 915.392 85.9333C914.06 85.553 910.922 84.0314 908.354 82.5098C903.124 79.2764 897.608 78.8009 891.332 80.9882C888.764 81.9392 880.395 82.6049 864.704 83.0804L841.785 83.7461L833.226 75.8528C828.471 71.4783 824.382 67.1037 824.001 66.1527C823.716 65.0115 822.575 64.4409 820.768 64.4409C816.393 64.4409 815.062 63.4899 815.062 60.5419C815.062 58.2595 814.016 57.0232 809.356 53.5996L803.555 49.4152L782.062 58.8301C770.27 63.9654 760.094 68.6253 759.524 69.1008C758.953 69.5763 755.91 70.6224 752.772 71.4783C749.633 72.3342 738.222 77.3745 727.38 82.7L707.695 92.4001L703.605 101.435C700.182 109.043 697.804 112.466 688.485 123.212C682.398 130.25 676.978 137.287 676.502 138.999C675.266 143.278 671.367 143.659 668.989 139.664C667.277 136.716 664.995 135.861 654.154 134.339C651.586 133.959 649.589 133.293 649.589 132.817C649.589 131.486 647.116 131.771 645.88 133.198C644.073 135.48 634.658 134.054 629.333 130.725C624.768 127.967 624.578 127.872 615.353 128.538C602.705 129.394 594.051 127.492 587.109 122.261C582.449 118.743 581.878 118.552 579.12 119.503C574.651 121.025 571.893 120.74 568.755 118.457C565.997 116.46 565.806 116.46 562.573 117.982C559.72 119.313 556.106 119.599 541.271 119.599C524.628 119.599 523.297 119.503 521.68 117.697C520.729 116.65 519.493 115.795 518.827 115.795C518.162 115.795 517.02 115.034 516.165 114.083C515.309 113.227 492.58 98.1061 465.667 80.6078C425.25 54.3604 416.691 48.3691 416.595 46.5623C416.595 45.0406 416.025 44.47 414.408 44.47C412.887 44.47 411.745 43.6141 411.08 42.0926C410.224 40.3808 409.273 39.7151 407.181 39.7151C405.659 39.7151 401.855 38.2886 398.812 36.4817L393.296 33.2484L352.023 32.2022L310.75 31.061L298.672 22.5972L286.5 14.0383L208.613 13.4677L130.822 12.9922L117.698 26.7816Z" fill="white"/>
<circle id="352" cx="379" cy="649" fill="#5CE50D"/>
<circle id="355" cx="305" cy="518" fill="#E52A0D"/>
<circle id="354" cx="171" cy="470" fill="#E52A0D"/>
<circle id="353" cx="682" cy="916" fill="#E52A0D"/>
</svg>
