<svg width="1000" height="1000" viewBox="0 0 1000 1000" fill="none" xmlns="http://www.w3.org/2000/svg">
<path d="M890.43 276.089C885.059 278.726 884.277 278.921 870.898 278.921C859.863 278.921 855.176 278.531 848.242 276.871C835.352 273.746 829.687 273.355 822.754 275.21C819.434 276.089 813.769 276.773 810.156 276.773C806.641 276.773 802.832 277.164 801.855 277.749C800.879 278.335 789.258 278.921 775.977 279.117C756.152 279.41 751.562 279.8 749.609 281.07C748.34 281.949 745.898 282.632 744.238 282.632C742.578 282.632 738.672 283.414 735.449 284.292C729.883 285.757 729.199 285.757 724.316 284.292C721.484 283.414 717.871 282.632 716.211 282.632C714.551 282.632 712.207 281.851 710.937 280.874C707.129 277.945 705.957 277.847 691.309 279.312C675.098 280.972 672.852 281.656 673.633 284.488C674.121 286.343 673.73 286.539 669.727 286.539C666.309 286.539 664.941 287.027 664.258 288.394C663.379 289.957 661.621 290.347 653.223 290.933C645.508 291.519 642.676 292.105 640.527 293.667C637.988 295.523 636.426 295.718 611.914 295.718L585.937 295.816L584.082 298.257C583.008 299.624 582.129 301.48 582.129 302.457C582.129 303.335 581.055 305.874 579.687 307.925C575.879 313.589 573.437 313.98 548.73 312.906C537.109 312.515 525.879 312.32 523.828 312.613C519.629 313.199 514.746 311.148 507.129 305.777C503.906 303.433 501.66 302.652 497.168 302.359C493.848 302.164 490.82 301.382 490.234 300.601C489.551 299.82 487.207 299.234 484.57 299.234C482.129 299.234 477.051 298.062 473.242 296.695C469.531 295.328 465.234 293.96 463.77 293.667C462.305 293.374 459.375 291.714 457.227 289.859C454.395 287.417 452.441 286.539 449.902 286.539C447.461 286.539 446.387 286.05 446.387 285.171C446.387 282.046 431.152 276.773 422.266 276.773C419.727 276.773 418.75 277.261 418.359 278.726C417.773 280.972 417.187 281.167 406.348 282.632C399.316 283.609 397.559 283.609 394.629 282.339L391.211 280.874L382.422 290.249H375.879C370.996 290.249 368.652 290.64 366.699 292.007C360.742 296.304 358.887 297.281 357.031 297.281C353.32 297.281 349.023 300.894 346.387 306.167C344.336 310.464 343.848 312.71 343.848 318.96C343.848 325.796 343.457 327.359 340.332 333.707C336.816 340.64 336.719 340.835 337.305 349.527C337.988 360.953 340.43 367.105 344.824 368.082C347.754 368.765 347.852 368.863 346.191 370.621C344.824 372.183 343.164 372.476 336.621 372.476H328.613L321.973 366.91L315.332 361.441L300.293 362.613C285.645 363.687 285.059 363.687 282.422 361.734C280.566 360.464 278.027 359.781 275.098 359.781C271.777 359.781 269.043 358.902 264.941 356.558C259.766 353.726 258.691 353.433 250.098 353.335C243.945 353.238 239.355 352.652 236.426 351.48C232.715 350.113 230.566 349.917 222.754 350.601C210.352 351.675 196.191 351.285 189.258 349.527C179.004 346.89 175.488 347.476 163.867 353.433C158.105 356.363 150.977 359.488 148.047 360.269C142.187 361.734 132.031 369.644 129.395 374.722C128.516 376.382 126.172 378.238 123.73 379.312C117.969 381.753 117.187 384.683 121.777 386.929C124.805 388.296 125.098 388.882 124.902 392.105C124.805 395.132 125.684 396.792 131.348 404.117C137.891 412.515 137.891 412.515 141.602 411.929C145.02 411.343 145.508 411.636 148.34 415.054C153.125 420.816 153.809 419.546 138.086 433.707C134.473 437.027 128.711 441.91 125.391 444.644C122.07 447.378 117.773 451.578 115.723 453.921C113.77 456.265 110.449 458.999 108.398 459.878C106.152 460.953 104.492 462.417 104.199 463.785C103.809 465.445 100.293 467.984 91.4062 473.062L79.1992 479.996V483.902C79.1992 486.05 79.8828 488.882 80.7617 490.152C82.1289 492.203 83.1055 492.593 87.4023 492.593C91.5039 492.593 93.6523 493.277 98.1445 496.011C101.27 497.867 104.199 499.429 104.59 499.429C104.98 499.429 108.203 497.867 111.816 496.011C119.629 491.91 125.879 491.421 129.004 494.546C130.664 496.206 130.957 497.769 130.957 505.777C130.957 511.539 131.348 515.054 131.934 515.054C132.52 515.054 134.766 514.175 136.914 513.101L140.82 511.05L143.555 513.101C147.266 515.64 149.316 515.542 153.613 512.613C158.008 509.683 158.398 509.683 165.625 512.124C168.75 513.199 172.266 514.078 173.535 514.078C175 514.078 177.051 515.64 179.492 518.472C181.445 520.914 183.789 522.867 184.668 522.867C187.598 522.867 189.551 517.691 189.551 509.976V502.749L192.969 501.089C196.387 499.429 196.387 499.429 196.387 501.773C196.387 504.019 199.121 507.242 200.977 507.242C201.562 507.242 202.246 505.484 202.637 503.433C203.125 500.21 203.906 499.136 207.617 496.792C212.695 493.667 213.086 491.714 209.473 487.417C206.738 484.195 207.422 482.828 212.109 482.828C213.477 482.828 215.137 482.242 215.82 481.558C216.895 480.581 216.992 481.265 216.504 485.464C215.918 489.859 216.113 490.64 217.773 491.617C219.043 492.3 219.922 492.3 220.312 491.617C221.484 489.664 223.633 490.64 224.219 493.374C224.512 494.937 226.074 497.085 227.539 498.257L230.371 500.308L229.004 506.46C228.32 509.878 227.734 513.394 227.637 514.273C227.637 517.398 230.859 518.081 241.699 517.203L252.051 516.421L252.637 519.742C253.027 521.499 253.027 524.234 252.637 525.796L252.051 528.726H258.691C262.891 528.726 267.578 527.945 271.484 526.675L277.637 524.624L285.547 526.773C295.508 529.605 297.656 530.679 301.66 534.878C304.785 538.101 304.98 538.199 309.766 537.32C313.965 536.539 315.82 536.831 322.559 539.078C330.273 541.617 330.566 541.617 333.691 539.956C335.937 538.785 337.305 538.589 338.574 539.273C339.453 539.761 341.406 539.859 342.773 539.566C346.191 538.589 350.098 539.664 350.488 541.714C350.781 543.179 349.805 543.374 342.676 543.374H334.473L329.004 548.257C325.488 551.382 322.461 555.386 320.312 559.488L316.992 565.933L313.379 565.347C308.398 564.468 307.422 565.347 309.277 568.863C310.059 570.523 310.547 572.085 310.254 572.378C309.961 572.769 306.934 573.257 303.613 573.55C297.754 574.136 297.168 573.941 291.602 570.621C286.035 567.203 275.488 564.566 275.488 566.617C275.488 567.984 279.395 571.695 280.859 571.695C282.52 571.695 282.812 573.746 281.348 575.21C280.859 575.699 280.078 578.531 279.687 581.46C279.004 585.855 278.516 586.929 276.855 587.124C274.219 587.515 268.652 582.925 268.652 580.386C268.652 574.722 257.52 582.925 255.273 590.249C254.687 592.105 252.832 596.695 251.27 600.503L248.437 607.339L243.652 607.437C240.723 607.632 237.402 608.511 235.254 609.683C230.469 612.515 219.824 613.589 217.969 611.343C216.895 610.074 214.844 609.781 208.008 609.781C200.391 609.781 199.219 609.585 198.34 607.828C197.559 606.46 196.289 605.874 193.652 605.874C191.699 605.777 188.965 605.191 187.598 604.41C183.691 602.164 172.266 602.554 166.016 605.093C159.375 607.73 158.301 609.097 158.301 614.761C158.301 618.863 158.691 619.644 162.988 623.648C165.527 625.992 168.359 628.433 169.336 628.921C171.387 630.093 173.34 637.417 172.559 640.738C172.07 642.593 171.484 642.789 168.555 642.3C166.309 641.91 164.355 642.3 162.695 643.374C159.863 645.23 159.668 644.351 161.719 639.371C163.965 633.999 163.574 630.777 160.254 628.042C158.008 626.089 157.324 624.722 157.324 621.988V618.374L147.168 618.765C137.109 619.058 137.012 619.156 133.105 622.671C130.957 624.624 128.32 626.48 127.246 626.773C125.879 627.261 124.707 629.117 123.633 632.339C121.68 638.003 115.82 643.472 114.258 640.933C113.77 640.152 113.379 638.394 113.379 637.027C113.379 633.902 112.402 633.511 104.297 632.632C99.5117 632.144 96.7773 632.535 91.2109 634.195L84.2773 636.246L80.4687 633.902C76.6601 631.46 64.9414 628.433 51.5625 626.285L44.043 625.113L39.0625 628.238C36.3281 629.898 33.3984 631.265 32.5195 631.265C29.5898 631.265 22.7539 634.585 21.4844 636.636C20.8008 637.71 19.9219 640.542 19.6289 642.886C19.2383 646.792 18.8477 647.281 15.5273 648.453C12.0117 649.624 11.9141 649.624 9.27734 645.816C7.8125 643.667 6.15234 642.105 5.56641 642.3C4.98047 642.496 4.19922 645.035 3.90625 647.964C3.61328 650.894 2.63672 654.8 1.66016 656.753L-0.0976562 660.269L3.02734 666.324C5.95703 672.183 6.05469 672.964 5.46875 679.507C4.49219 690.054 3.90625 689.859 33.9844 689.859C48.9258 689.859 60.2539 689.371 63.7695 688.687C68.75 687.613 69.8242 687.71 72.2656 689.175C76.1719 691.519 78.125 691.226 82.1289 688.003L85.4492 685.171L89.3555 687.124C92.3828 688.687 93.6523 688.882 95.5078 688.003C98.8281 686.539 107.617 686.734 109.863 688.394C111.23 689.468 111.523 690.542 111.035 693.179C110.742 695.132 110.156 698.257 109.863 700.21C109.375 703.14 109.668 704.117 112.012 706.558C115.332 709.976 119.727 710.367 123.535 707.339C124.902 706.265 130.273 703.628 135.449 701.578C140.625 699.527 145.801 696.89 146.973 695.816C150.098 692.886 163.574 686.929 167.187 686.929C169.727 686.929 171.387 688.101 176.367 693.374C182.324 699.527 182.715 699.722 188.281 700.308C196.68 701.089 199.316 703.921 199.316 711.929C199.316 719.156 201.074 721.499 204.297 718.57C206.055 717.007 206.738 716.91 210.742 717.984C214.648 719.058 215.332 719.058 216.504 717.496C217.187 716.519 217.871 715.445 217.871 714.956C217.969 712.906 223.242 714.859 231.836 720.132C237.012 723.355 242.383 725.992 243.555 725.992C246.191 725.992 249.512 722.867 250.977 718.96C252.344 715.347 257.129 712.124 265.723 708.902C272.363 706.558 274.805 706.167 292.578 705.484C303.32 704.996 317.773 703.921 324.707 703.042C337.109 701.578 337.402 701.48 346.387 696.206C354.199 691.617 356.152 690.835 360.449 690.835C363.184 690.835 366.406 691.519 367.676 692.3C369.824 693.667 370.02 693.57 373.047 689.859C375.293 687.027 376.953 685.953 378.809 685.953C380.273 685.953 383.301 685.074 385.449 684.097C388.574 682.632 389.746 681.558 390.234 679.214C390.625 677.554 391.992 674.917 393.262 673.355L395.605 670.523L394.043 659.585L392.578 648.648L394.824 646.206C396.094 644.839 399.805 641.91 403.223 639.761C409.668 635.464 411.328 632.925 414.844 621.988C416.895 615.738 418.652 613.687 422.266 613.687C424.023 613.687 426.953 612.32 429.785 610.269C435.254 606.265 441.699 604.996 447.266 606.851C450.586 607.925 451.562 607.828 455.762 605.972C458.398 604.8 461.621 602.749 462.988 601.578C464.355 600.308 467.676 598.16 470.312 596.792C473.047 595.328 476.27 592.691 477.637 590.835C479.297 588.492 481.836 586.734 485.937 585.171C490.43 583.414 491.895 582.339 492.09 580.679C492.578 577.261 496.387 575.992 502.441 577.261C508.496 578.531 516.211 577.847 517.871 575.894C518.848 574.722 518.555 573.941 516.016 571.792C513.281 569.644 508.887 560.953 508.887 558.023C508.887 556.265 513.184 557.046 517.578 559.488L521.875 562.027L533.105 558.902C547.754 554.8 562.207 547.183 565.137 541.91C568.848 535.367 571.387 533.609 575.586 534.292C578.613 534.781 579.394 535.367 579.883 537.515C580.176 539.078 581.641 541.812 583.301 543.765C585.937 546.988 586.621 547.281 591.504 547.281C596.484 547.281 596.777 547.476 596.777 549.624C596.777 550.992 595.898 552.652 594.727 553.433C592.773 554.8 592.773 554.996 594.336 560.367C595.215 563.394 596.191 565.835 596.387 565.835C596.68 565.835 598.633 564.956 600.781 563.785C604.492 561.929 604.883 561.929 606.543 563.394C608.887 565.542 612.988 564.371 615.527 560.855C617.285 558.511 618.359 558.023 621.582 558.023C624.512 558.023 625.977 557.535 626.855 556.07C627.539 554.898 628.613 554.41 629.492 554.703C631.348 555.484 638.769 552.749 643.848 549.527C645.898 548.355 647.754 547.281 648.047 547.281C648.242 547.281 649.219 548.648 650 550.308L651.562 553.238L654.883 550.796C656.641 549.429 659.375 548.257 660.937 548.257C663.086 548.16 665.332 546.402 671.973 539.273L680.273 530.386L679.98 521.988C679.785 515.445 679.297 513.003 677.832 510.953C676.758 509.488 675.879 508.023 675.879 507.632C675.879 507.242 677.832 504.605 680.273 501.773C682.715 499.039 684.668 495.718 684.668 494.546C684.668 490.738 687.793 487.027 692.871 484.585C695.508 483.414 699.023 481.265 700.488 480.093C702.93 478.042 703.613 477.847 706.348 478.824C709.082 479.8 709.668 479.703 712.012 477.456C714.258 475.308 715.332 475.015 722.363 475.015C727.148 475.015 730.664 474.527 731.348 473.843C732.031 473.16 735.059 472.574 738.184 472.476C741.211 472.281 745.605 471.597 747.852 470.718C750.684 469.742 754.004 469.449 759.082 469.839C765.527 470.328 766.894 470.132 773.34 467.3C777.441 465.64 782.129 464.371 784.082 464.371C786.035 464.468 790.625 463.296 794.336 461.929C799.707 459.878 802.637 459.39 809.961 459.39C823.242 459.39 825.195 458.023 832.324 443.863C835.449 437.808 838.867 430.191 840.039 427.066C841.504 423.16 842.676 421.304 843.75 421.304C844.629 421.304 847.461 419.156 850.098 416.519C853.809 412.808 855.762 411.636 858.887 411.148C861.914 410.66 863.574 409.683 865.625 407.144C867.09 405.289 871.68 401.187 875.879 398.062C879.98 394.839 887.695 388.296 892.871 383.511C902.246 374.722 902.344 374.624 908.105 374.234C913.379 373.843 914.355 373.355 919.141 369.253C924.219 364.761 928.809 363.296 930.273 365.64C930.566 366.128 932.617 367.007 934.863 367.691C942.578 369.742 950.293 364.078 955.371 352.847C956.25 350.699 958.105 348.55 959.473 347.964C960.742 347.281 962.402 345.523 963.086 343.96C965.039 339.273 970.117 336.636 979.98 335.367C986.816 334.488 989.355 333.707 991.602 331.851C993.164 330.484 995.703 328.824 997.266 327.945C999.512 326.773 1000.1 325.894 1000.1 323.16C1000.1 321.402 999.805 319.644 999.316 319.351C998.926 319.156 996.68 319.253 994.238 319.742L989.844 320.523L982.324 313.296C976.269 307.535 974.121 306.07 971.777 306.07C970.117 306.07 967.48 305.386 965.918 304.605C961.914 302.554 943.945 303.14 940.43 305.386C939.062 306.265 936.035 307.339 933.594 307.632C930.078 308.121 928.516 307.73 924.707 305.582C922.07 304.117 920.019 302.652 920.019 302.261C920.019 300.21 912.012 292.593 909.277 292.007C907.617 291.714 904.59 290.054 902.441 288.394C899.219 285.855 898.633 284.585 898.047 280.289C897.656 277.554 897.07 274.82 896.68 274.234C896.289 273.648 894.141 274.234 890.43 276.089Z" fill="white"/>
<circle id="364" cx="446" cy="324" fill="#5CE50D"/>
<circle id="367" cx="828" cy="324" fill="#E52A0D"/>
<circle id="365" cx="318" cy="574" fill="#E52A0D"/>
<circle id="366" cx="348" cy="500" fill="#E52A0D"/>
</svg>
