<svg width="1000" height="1000" viewBox="0 0 1000 1000" fill="none" xmlns="http://www.w3.org/2000/svg">
<path d="M976.212 87.2461C975.431 89.1016 974.455 90.6641 974.064 90.6641C973.673 90.6641 971.33 92.5195 968.888 94.8633C964.884 98.5742 964.396 99.5508 963.224 105.801L962.052 112.637L956.193 112.344C950.626 111.953 950.236 111.758 946.818 107.656C943.888 104.238 942.521 103.359 940.08 103.359C935.294 103.359 932.169 104.922 931.486 107.559C931.193 108.926 930.021 110.195 928.947 110.488C927.482 110.879 926.994 111.758 926.994 114.395C926.994 116.348 926.603 118.984 926.017 120.352C925.236 122.5 924.455 122.891 921.427 122.891C917.912 122.891 917.619 123.184 915.275 127.969C913.224 132.363 912.052 133.535 907.462 135.781C900.529 139.199 898.576 139.102 894.767 135.586C891.154 132.168 885.978 131.484 885.978 134.316C885.978 135.293 885.001 138.125 883.83 140.566C882.169 143.887 880.802 145.352 878.654 146.035C876.115 146.816 875.724 147.402 875.724 150.234V153.652H868.205C863.517 153.652 860.294 154.141 859.513 154.824C858.83 155.508 857.56 156.094 856.681 156.094C855.9 156.094 854.142 156.777 852.97 157.656C850.822 159.121 850.529 159.121 848.478 157.168C847.306 155.996 845.841 155.117 845.255 155.117C844.767 155.117 843.498 153.652 842.619 151.895C841.642 150.234 839.396 147.695 837.638 146.328C835.587 144.766 834.123 142.715 833.732 140.762C833.146 137.344 829.044 133.438 826.896 134.219C824.845 135 813.517 130.703 810.587 127.969C809.123 126.602 807.853 124.453 807.658 122.988C807.462 121.133 806.779 120.352 804.923 120.156C799.064 119.473 798.087 118.984 798.087 116.445C798.087 113.906 790.861 104.336 789.005 104.336C788.517 104.336 785.978 105.996 783.537 107.949C781.095 109.902 778.947 111.66 778.751 111.66C778.654 111.758 778.947 113.027 779.533 114.492C780.412 116.836 780.314 117.031 778.654 116.055C777.58 115.566 775.626 115.078 774.259 115.078C772.013 115.078 771.72 115.469 771.72 118.203C771.72 119.961 771.037 123.281 770.158 125.527C768.79 129.043 768.107 129.727 765.861 129.727C764.396 129.727 761.271 130.41 758.927 131.191C754.923 132.656 754.63 132.656 753.165 130.801C752.384 129.727 749.845 128.457 747.697 127.871C745.451 127.285 742.521 125.918 741.056 124.746L738.517 122.793V126.602C738.517 137.051 724.259 154.824 721.525 147.793C720.939 146.133 716.935 145.84 715.372 147.402C714.591 148.184 714.103 148.184 713.712 147.402C713.322 146.816 711.564 146.328 709.708 146.328C707.072 146.328 706.388 146.719 706.095 148.477C705.9 149.844 704.826 150.82 702.872 151.406C700.529 151.992 699.552 151.699 697.404 149.648C695.451 147.793 694.181 147.305 692.619 147.793C691.251 148.184 690.763 148.965 691.056 149.941C691.349 150.723 691.642 152.383 691.642 153.555C691.642 154.922 692.521 156.191 693.888 156.777C695.841 157.754 696.33 158.828 696.915 164.004C697.404 168.789 698.283 171.426 700.919 175.332C704.24 180.313 704.533 180.508 708.732 180.508H713.126V184.316C713.126 192.227 717.033 197.988 726.408 203.555C728.165 204.629 728.165 204.824 726.115 209.121C724.259 212.93 723.38 213.809 719.767 214.785C717.423 215.371 714.396 216.445 712.931 217.227C710.294 218.594 710.197 218.984 710.197 226.016V233.438L703.654 232.754C699.943 232.363 695.939 231.484 694.572 230.801C692.912 230.02 689.396 229.727 683.634 230.117L675.04 230.508L667.521 224.063C663.322 220.547 658.83 217.324 657.462 216.934C656.095 216.641 653.068 214.981 650.626 213.223C641.837 206.875 629.728 201.992 622.794 201.992C619.767 201.992 618.205 201.406 616.447 199.551C614.396 197.402 613.322 197.109 607.267 197.109C592.912 197.012 581.29 194.766 570.255 189.785C564.689 187.344 558.927 184.023 557.658 182.656C555.412 180.117 549.65 168.203 545.548 157.559C543.79 152.969 543.4 152.676 540.275 152.676C536.955 152.676 536.857 152.773 535.685 157.949C535.001 160.977 532.951 165.566 530.802 168.691L526.994 174.16H521.037C515.177 174.16 514.787 173.965 510.587 169.863C507.56 166.934 505.705 164.004 504.435 160C502.677 154.434 502.677 154.141 504.337 150.918L506.095 147.5L500.724 144.473C497.794 142.813 494.181 141.445 492.716 141.445C485.294 141.445 474.259 139.102 471.915 137.051C468.595 134.023 465.665 133.242 464.201 135C461.857 137.734 456.583 138.809 451.798 137.539C448.283 136.563 446.915 136.563 445.06 137.539C443.79 138.223 441.642 138.516 440.177 138.32C437.15 137.734 428.556 142.031 425.138 145.938C422.794 148.672 423.283 148.672 411.076 146.719C408.048 146.231 407.169 146.523 405.705 148.281L403.849 150.527L400.919 148.379C397.404 145.742 389.787 144.473 384.22 145.645C379.337 146.621 354.142 146.133 351.505 144.961C350.138 144.277 349.552 144.57 349.162 146.231C348.478 148.965 343.498 149.063 342.033 146.328C340.568 143.496 336.955 143.887 334.025 147.207C331.193 150.332 323.576 151.895 319.181 150.234C314.494 148.477 307.169 148.965 305.607 151.113C304.435 152.969 304.044 152.969 299.943 151.602C297.599 150.82 294.279 149.551 292.521 148.77C288.517 146.816 285.392 146.914 283.732 148.965C282.462 150.625 282.365 150.625 280.9 148.477C279.728 146.914 278.361 146.328 275.724 146.328C273.771 146.328 271.232 145.742 270.158 144.961C269.083 144.18 266.642 143.398 264.787 143.203C261.271 142.91 260.88 141.934 262.443 136.27L263.126 133.633H257.072C251.798 133.633 250.626 133.926 248.673 136.074C245.939 139.004 243.498 139.199 239.298 136.563C235.978 134.609 231.486 134.121 225.822 135.195C223.283 135.781 222.306 136.66 220.939 140.078C219.962 142.324 218.205 144.668 217.13 145.254C214.591 146.719 214.396 146.621 213.81 144.375C213.029 141.543 208.634 140.762 205.998 143.203C202.384 146.426 199.845 147.305 193.498 147.305C190.177 147.305 183.048 148.184 177.58 149.16C172.111 150.234 164.884 151.602 161.369 152.188C151.994 153.75 143.595 158.145 138.712 164.102C130.998 173.379 129.435 174.648 126.212 174.648C124.455 174.648 121.818 175.723 119.767 177.188C117.033 179.336 116.447 180.41 116.447 183.438C116.447 185.781 115.763 187.637 114.494 188.809C113.419 189.785 112.541 191.641 112.541 192.91C112.541 194.277 111.662 196.426 110.587 197.793C109.123 199.746 108.634 201.797 108.634 206.484C108.634 212.637 108.634 212.734 104.923 214.59C101.603 216.348 91.2514 226.406 81.4858 237.344C77.4819 241.934 77.3843 242.129 77.3843 249.258V256.582L72.9897 259.609C70.5483 261.27 66.0561 263.809 62.9311 265.176C59.9038 266.543 54.0444 269.961 49.9429 272.598L42.521 277.481L43.5952 280.898C44.3765 283.731 45.5483 284.707 50.0405 286.856L55.4116 289.297L51.1147 290.566C48.771 291.25 44.8647 293.398 42.4233 295.449L37.9311 299.16H28.5561C23.478 299.16 16.5444 298.77 13.2241 298.281C7.26708 297.402 5.70458 297.891 0.235832 302.383C-0.0571364 302.578 0.528801 303.164 1.50536 303.652C5.41161 305.898 6.38818 310.098 5.70458 322.598C5.2163 333.145 5.41161 335.781 8.04833 349.453C9.70849 357.754 11.271 367.91 11.6616 371.914C12.2476 379.727 14.689 384.707 22.5991 394.375C24.5522 396.816 26.9936 400.039 27.9702 401.699C28.9468 403.262 30.8999 405.801 32.2671 407.266L34.7085 409.902L32.0718 411.074C29.8257 412.148 29.5327 412.832 29.5327 417.52C29.5327 420.449 30.2163 424.16 31.0952 425.82C32.1694 427.871 32.4624 430.02 32.0718 432.559C31.6811 435.098 32.0718 437.441 33.439 440.469C35.978 446.133 35.978 453.066 33.439 455.41C31.8765 456.875 31.4858 458.438 31.4858 464.199C31.4858 471.816 31.9741 472.402 38.0288 472.5C39.2983 472.5 42.9116 474.941 46.6225 478.262C50.1382 481.484 53.9468 484.414 55.021 484.707C56.0952 485.098 57.9507 487.441 59.2202 489.883C60.5874 492.422 64.7866 498.086 68.7905 502.481C79.1421 514.199 81.0952 516.738 81.7788 519.668C82.6577 523.086 81.6811 527.188 79.9233 527.188C77.6772 527.188 75.4311 530.606 75.4311 534.121C75.4311 535.977 74.5522 539.785 73.478 542.617C72.4038 545.449 71.5249 549.453 71.5249 551.504C71.5249 553.652 71.0366 557.559 70.353 560.293C68.7905 567.227 70.4507 573.77 75.9194 581.777C79.8257 587.539 80.4116 589.199 81.3882 597.012C82.4624 604.922 82.9507 606.289 86.3686 610.391C89.103 613.711 90.0796 615.859 90.0796 618.398C90.0796 624.746 93.0093 630.801 99.9429 639.102L106.681 647.012V659.316C106.681 670.352 106.876 671.523 108.537 672.012C109.806 672.305 110.49 673.672 110.978 676.699C111.759 681.973 114.689 690.664 116.349 692.52C116.935 693.301 118.595 694.277 119.865 694.57C121.427 694.961 122.306 695.938 122.306 697.109C122.306 698.086 123.38 700.625 124.748 702.578C128.068 707.559 127.873 709.414 123.283 712.539C121.134 714.004 119.181 715.957 118.888 716.836C118.595 717.715 118.986 721.719 119.767 725.625C120.646 729.824 121.037 735.195 120.744 738.613C120.158 744.375 120.255 744.473 123.283 746.231C124.943 747.109 126.896 747.891 127.58 747.891C128.947 747.891 131.974 742.129 133.048 737.344C133.83 734.219 132.462 729.141 130.509 727.09C129.24 725.82 129.044 714.492 130.216 713.027C131.583 711.465 135.197 711.367 136.759 712.93C137.443 713.613 137.931 715.273 137.931 716.738C137.931 718.106 138.615 721.231 139.396 723.477C141.251 728.848 141.251 735.098 139.396 737.148C138.517 738.125 136.564 741.836 135.001 745.547L132.169 752.285L134.708 752.773C137.931 753.359 142.716 760.879 144.279 767.813C145.353 772.5 145.255 772.988 142.423 777.481C139.494 782.168 139.494 782.363 141.154 785.195C143.107 788.516 143.4 797.109 141.74 802.578C140.568 806.484 141.642 809.609 146.33 815.859C148.283 818.496 149.357 818.984 154.533 819.473C160.392 820.156 160.587 820.059 165.666 816.25C170.06 812.93 171.525 812.344 175.529 812.344C180.412 812.344 188.712 816.152 188.712 818.398C188.712 819.082 190.373 819.18 193.888 818.789C200.822 817.91 205.509 816.25 205.021 814.883C204.826 814.297 204.044 811.563 203.361 808.926C202.287 804.629 202.287 803.555 203.751 800.918C204.63 799.16 205.314 796.816 205.314 795.645C205.314 794.473 206.193 792.129 207.169 790.469C208.146 788.809 209.318 786.074 209.708 784.316C210.001 782.656 210.978 780.996 211.759 780.703C212.54 780.41 213.126 779.043 213.126 777.676C213.126 775.527 212.833 775.234 210.49 775.82C208.048 776.504 207.951 776.406 209.415 774.453C211.857 770.84 219.376 764.785 222.111 764.199C226.603 763.027 229.435 764.883 232.658 771.328C235.587 777.09 235.685 777.188 239.787 777.188C245.646 777.188 248.771 780.41 247.99 785.684C247.208 790.566 249.455 800.625 251.994 804.336C254.337 807.559 258.048 818.398 258.048 821.914C258.048 823.184 256.486 826.016 254.63 828.262C251.115 832.363 249.748 836.758 250.431 841.641L250.919 844.57H243.986C238.615 844.57 235.978 845.156 232.169 847.012C225.919 850.039 224.748 851.113 222.697 855.508C221.72 857.461 219.376 860.977 217.326 863.223C214.591 866.348 214.005 867.422 215.08 867.813C215.861 868.106 218.498 870.254 221.037 872.598C223.478 874.844 226.017 876.797 226.603 876.797C227.091 876.797 228.458 878.359 229.63 880.313L231.681 883.731L234.611 882.07C236.173 881.094 237.638 880.508 237.931 880.801C238.224 880.996 239.201 884.512 240.275 888.516L242.13 895.84L247.404 896.621C250.333 897.109 253.751 897.695 255.119 897.891C256.388 898.184 261.759 902.676 267.033 907.754C277.677 918.203 277.287 918.106 284.22 911.953C287.248 909.121 287.345 908.926 287.345 900.527C287.345 889.395 286.955 888.125 282.755 886.172C279.533 884.609 279.435 884.414 280.705 882.363C286.466 873.574 287.54 870.742 287.052 866.934L286.564 863.125H290.373C293.888 863.125 294.181 863.32 295.158 866.836C296.427 871.621 299.65 874.648 305.119 876.309C307.56 876.992 312.833 878.945 316.935 880.703C324.748 883.926 325.333 884.023 339.201 882.07C341.837 881.777 344.572 881.973 345.744 882.559C347.306 883.34 348.673 883.145 351.994 881.68C354.24 880.606 357.365 879.727 358.732 879.727C362.052 879.727 366.154 884.121 366.935 888.809C367.326 890.859 368.302 893.203 369.083 893.887C370.939 895.84 375.236 895.742 377.97 893.789C380.119 892.324 380.412 892.422 384.318 896.328C390.373 902.481 398.38 907.559 399.845 906.289C401.505 905.02 405.119 906.387 406.681 909.023C408.341 911.66 409.025 911.465 410.197 908.047C410.88 906.191 412.54 904.629 414.982 903.457C417.814 902.09 418.986 900.82 419.962 897.793C420.646 895.645 422.013 893.203 422.99 892.422C423.966 891.641 425.04 890.176 425.431 889.102C425.919 887.539 426.798 887.344 430.9 887.734C434.318 888.125 436.076 887.832 436.857 886.953C438.322 885.195 442.912 885.293 448.869 887.051C452.091 888.027 457.951 888.516 466.642 888.516H479.63L482.951 885.195C484.708 883.34 487.931 878.848 489.982 875.234C492.912 870.254 495.06 867.91 499.259 865.273C502.189 863.418 508.634 859.121 513.615 855.898L522.599 849.941L522.697 845.352C522.697 841.348 522.404 840.566 519.865 839.102C517.423 837.637 517.033 836.66 516.447 831.68C516.154 828.555 514.982 824.258 513.908 822.109C511.173 816.641 511.466 814.981 515.861 810.977C520.158 807.168 521.525 806.68 522.306 808.926C522.892 810.488 527.091 811.758 534.611 812.832C537.052 813.125 539.689 814.102 540.275 814.785C540.958 815.566 542.423 816.25 543.595 816.25C548.087 816.348 559.611 819.277 564.005 821.621C568.302 823.77 568.986 823.867 571.427 822.695C575.626 820.449 583.341 809.902 583.927 805.508C584.513 801.211 584.806 801.016 587.736 802.969C588.81 803.75 590.763 804.336 592.033 804.336C593.4 804.434 596.72 804.727 599.357 805.02C603.263 805.606 605.997 805.117 613.517 802.773C618.595 801.113 624.747 799.258 627.189 798.672C629.63 798.086 633.83 796.035 636.466 794.277C639.201 792.422 643.205 790.762 645.744 790.371C648.185 789.981 650.822 789.492 651.798 789.297C652.97 788.906 653.849 790.078 655.119 793.496C656.095 796.035 658.244 800.137 659.904 802.578C665.177 810 666.447 813.027 666.154 818.496C665.861 823.477 665.861 823.477 669.669 825.234C671.818 826.113 675.626 826.992 678.165 826.992H682.755L682.169 823.672C681.779 820.938 681.974 820.254 683.732 819.668C685.099 819.277 685.783 818.203 685.783 816.445C685.783 814.004 685.978 814.004 690.958 818.789C693.693 821.523 698.478 825.82 701.505 828.262L706.974 832.852H716.154C722.306 832.949 726.115 833.34 727.775 834.316C731.486 836.465 731.681 836.172 731.681 830.606C731.681 825.234 730.314 822.207 724.552 814.981C722.501 812.344 721.915 810.977 722.697 810.195C723.38 809.512 723.478 807.168 723.185 804.238L722.599 799.356L728.165 799.941C733.146 800.43 733.732 800.332 733.146 798.867C732.755 797.988 732.072 794.473 731.681 791.055C730.997 786.074 730.216 784.121 727.287 780.606C725.333 778.164 723.283 776.211 722.794 776.211C722.208 776.211 720.158 777.285 718.205 778.652C714.884 780.898 714.494 780.996 713.81 779.434C713.419 778.457 711.271 776.699 709.22 775.43C707.072 774.258 703.751 771.914 701.896 770.254C699.162 767.813 698.478 766.543 698.478 763.516C698.478 760.195 698.185 759.805 695.451 759.219C693.79 758.926 690.861 758.633 689.005 758.633C686.857 758.633 684.415 757.656 682.267 756.094C679.435 753.945 678.947 752.871 678.947 749.648C678.947 744.766 675.822 740.078 672.599 740.078C669.669 740.078 669.279 738.809 670.744 733.34C671.33 730.898 671.622 726.406 671.427 723.477C671.037 719.277 671.232 717.715 672.501 716.738C674.455 715.078 674.552 710.488 672.697 707.559C671.818 706.191 671.33 702.676 671.33 698.281C671.33 692.129 671.037 690.762 669.083 688.711C667.912 687.441 666.154 686.367 665.177 686.367C662.736 686.367 659.611 683.242 659.318 680.508C659.122 678.652 660.392 676.602 664.689 672.305L670.353 666.543L674.552 668.594C676.798 669.668 680.607 670.84 683.048 671.231C687.052 671.816 687.443 671.719 688.517 669.277C689.201 667.91 689.689 665.957 689.689 664.883C689.689 663.906 690.568 662.832 691.642 662.441C694.767 661.465 697.501 656.68 697.501 652.285C697.501 649.258 697.99 648.086 699.552 647.207C702.58 645.645 708.146 646.816 711.271 649.844C714.787 653.164 722.501 654.824 724.845 652.676C726.701 650.918 730.314 650.723 731.29 652.285C731.583 652.871 734.708 654.629 738.126 656.191C741.544 657.656 744.376 659.316 744.376 659.902C744.376 661.367 750.724 664.883 753.556 664.883C755.021 664.883 757.56 664.199 759.22 663.32C761.857 661.953 763.029 661.856 767.716 662.93C770.744 663.613 774.064 664.981 775.236 665.957C777.189 667.813 777.287 667.813 779.435 665.469C781.876 662.93 781.779 662.637 777.482 657.07C773.576 651.992 773.38 649.453 776.115 642.52C777.677 638.906 778.361 635.586 777.97 634.219C777.58 632.461 778.068 631.484 779.728 630.117L782.072 628.359L777.97 617.813C775.724 612.051 774.357 607.266 774.943 607.266C775.529 607.266 776.798 606.484 777.872 605.606C779.435 604.141 779.826 604.043 780.607 605.313C783.244 609.805 783.048 609.707 788.419 608.34C792.228 607.363 793.693 607.266 793.986 608.145C794.181 608.828 798.087 609.219 805.9 609.219C815.373 609.219 817.521 608.926 818.009 607.754C818.498 606.387 818.888 606.387 821.427 607.754C827.091 610.586 829.533 609.414 833.537 601.895C835.001 599.16 838.322 594.668 840.861 591.738L845.548 586.465L852.482 588.125C861.662 590.176 866.251 590.078 872.306 587.734C875.041 586.66 878.751 585.781 880.607 585.781C883.244 585.781 884.22 585.195 885.88 582.559C886.955 580.801 890.08 577.188 892.814 574.453C895.451 571.816 897.697 569.082 897.697 568.398C897.697 567.813 898.38 567.227 899.162 567.227C899.943 567.227 900.626 566.348 900.626 565.371C900.626 564.297 902.091 562.637 904.044 561.367C905.9 560.195 908.244 558.242 909.122 557.07C912.15 553.262 915.665 551.602 929.533 547.793C949.259 542.227 950.138 542.129 954.435 546.035C956.29 547.695 958.927 551.016 960.197 553.359L962.54 557.559L965.275 554.336C966.74 552.578 968.009 549.941 968.009 548.574C968.009 546.426 968.79 545.742 972.599 544.277C977.677 542.324 985.001 536.074 987.15 531.973C987.931 530.41 988.517 527.285 988.517 524.941C988.517 522.598 989.396 518.106 990.568 514.883C991.642 511.758 992.716 506.484 993.009 503.262C993.205 500.039 993.595 494.57 993.888 491.055C994.376 485.977 994.181 483.828 992.521 480.41C990.861 476.602 990.763 475.723 991.935 473.477C993.009 471.426 993.009 470.547 991.935 468.594C991.251 467.227 989.884 461.27 988.908 455.41C987.247 445.254 986.955 444.277 981.779 436.465L976.31 428.262L976.505 400.723L982.072 385.195C985.197 376.602 989.396 366.152 991.544 361.953C993.595 357.754 995.841 351.992 996.427 349.258C997.013 346.426 998.087 342.91 998.869 341.543C999.845 339.688 1000.04 335.391 999.65 324.453L999.162 309.902L994.572 300.234C992.13 294.961 989.787 288.223 989.396 285.391C989.005 282.559 987.052 276.797 984.904 272.598C981.583 265.859 980.607 264.59 975.822 261.856C972.892 260.098 969.865 258.34 969.279 257.949C968.302 257.363 968.302 255.606 968.986 250.82C969.767 245.645 969.572 244.277 968.4 242.813C966.935 241.348 967.033 240.957 968.4 238.906C970.451 236.074 970.451 231.68 968.4 230.898C967.228 230.508 966.935 229.238 967.13 225.918C967.521 219.961 965.08 217.52 958.048 216.836C955.216 216.543 951.994 215.664 950.822 214.785C949.064 213.516 948.869 212.539 949.259 205.898C949.65 198.77 949.552 198.281 947.208 196.426C943.986 193.887 944.376 192.129 950.529 182.266C957.072 171.816 960.099 159.805 956.779 157.07C954.533 155.215 955.021 153.164 958.732 147.891C960.587 145.254 962.54 141.738 963.126 140.078C964.005 137.344 964.591 136.953 966.837 137.246C970.451 137.734 971.232 136.953 973.771 130.215C978.068 118.789 979.435 112.637 978.947 106.68C978.654 101.699 978.849 100.625 980.607 99.0625C982.267 97.5 982.658 96.0352 982.658 90.4688C982.658 84.0234 982.56 83.8281 980.119 83.8281C978.263 83.8281 977.384 84.6094 976.212 87.2461Z" fill="white"/>
<circle id="113" cx="500" cy="711" fill="#5CE50D"/>
<circle id="115" cx="135" cy="401" fill="#E52A0D"/>
<circle id="114" cx="287" cy="343" fill="#E52A0D"/>
<circle id="1205" cx="705" cy="543" fill="#E52A0D"/>
</svg>
