<svg width="1000" height="1000" viewBox="0 0 1000 1000" fill="none" xmlns="http://www.w3.org/2000/svg">
<path fill-rule="evenodd" clip-rule="evenodd" d="M33.9 546.203H34L34.1 546.303H34.2H34.3V546.403H34.4V546.503H34.5L34.6 546.603H34.7V546.703L34.8 546.603L34.7 546.503L34.6 546.403V546.303L34.5 546.203L34.4 546.103L34.3 546.003H34.2L34.1 545.903L33.9 545.803H33.8L33.7 545.703L33.6 545.803H33.5L33.6 545.703V545.603H33.5H33.4V545.503H33.3V545.603V545.703H33.2H33.1L33 545.603V545.503V545.403V545.303L33.1 545.203L33.2 545.303L33.4 545.403L33.5 545.503L33.6 545.603L33.7 545.703L34.1 545.903L34.3 546.003H34.4L34.6 546.303L34.8 546.403V546.503L34.9 546.703V546.803H34.8H34.7L34.5 546.603L34.3 546.503L34.2 546.403H34L33.9 546.303H33.8H33.7H33.5L33.3 546.203L33.2 546.103L33.1 546.003V545.903V545.803H33.2L33.3 545.703V545.803H33.2V545.903V546.003L33.3 546.103L33.4 546.203H33.5H33.6H33.8V546.103L33.9 546.303V546.203Z" fill="white"/>
<path fill-rule="evenodd" clip-rule="evenodd" d="M119.099 539.897L118.899 539.997V540.097V540.197V540.397L119.099 540.497L119.199 540.597L119.299 540.697H119.399L119.499 540.797H119.599H119.699H119.799L119.899 540.897H119.999H120.099L120.199 540.797H120.299L120.399 540.697L120.499 540.597L120.599 540.497H120.699L120.599 540.597L120.299 540.897H120.199L120.099 540.997L119.999 541.097H119.799L119.699 540.997L119.299 540.797H119.199L119.099 540.697L118.899 540.497L118.799 540.397L118.699 540.297V540.197V540.097V539.997L118.799 539.897L118.999 539.797H119.099V539.897Z" fill="white"/>
<path fill-rule="evenodd" clip-rule="evenodd" d="M155.501 538.303H155.401H155.101H155.001H154.801H154.701L154.601 538.203H154.501L154.401 538.003L154.301 537.903V537.803V537.703L154.401 537.603L154.501 537.503L154.701 537.403L154.901 537.203H155.001H155.101L155.201 537.303L155.401 537.703L155.701 538.003V538.103V538.203H155.601L155.501 538.303Z" fill="white"/>
<path fill-rule="evenodd" clip-rule="evenodd" d="M161.1 489.303H160.9L160.8 489.403H160.7V489.303H160.6V489.203V488.803V488.303V488.103V488.003V487.903L160.7 487.803L160.8 487.703L160.9 487.803H161V487.903V488.203V488.403V488.503L161.1 488.703V488.903L161.3 489.203L161.2 489.303H161.1Z" fill="white"/>
<path fill-rule="evenodd" clip-rule="evenodd" d="M138.601 475.503L138.701 475.603H138.801L138.901 475.703L139.001 475.803L139.301 476.103L139.501 476.203L139.701 476.303L139.801 476.403L140.001 476.503L140.101 476.603H140.301L140.401 476.703L140.501 476.803V476.903L140.601 477.103V477.203L140.801 477.603V477.803L140.901 478.003V478.103L141.001 478.303L141.101 478.403V478.503L141.201 478.603V478.703L141.301 478.903L141.201 479.003V479.103H141.101H141.001L140.801 479.003L140.701 478.803H140.501L140.401 478.703V478.503L140.201 478.403V478.303L139.901 478.103H139.801L139.601 478.003L139.301 477.903L139.201 477.803H139.001L138.801 477.703H138.701H138.501H138.301L138.001 477.803L137.901 477.703L137.701 477.403L137.601 477.203V477.103H137.801H137.701L137.801 477.303V477.403L137.901 477.503L138.001 477.603V477.703H138.101H138.201H138.401H138.501H138.801H138.901H139.101L139.201 477.803H139.401L139.501 477.903H139.601L139.701 478.003H139.801L139.901 478.103L140.101 478.203L140.301 478.303V478.403H140.401L140.501 478.503L140.601 478.703H140.701V478.803L140.801 478.903H140.901H141.001V479.003H141.101V478.903H141.001L141.101 478.803V478.703V478.603L141.001 478.503L140.901 478.303L140.801 478.203V478.003L140.701 477.903V477.803V477.603V477.503L140.601 477.403L140.501 477.303V477.103V477.003H140.401V476.903L140.301 476.803H140.201H140.101V476.703V476.603H140.001H139.901H139.801V476.503H139.701H139.601V476.403H139.501L139.401 476.303L139.301 476.203L139.201 476.103L139.101 476.003L139.001 475.903L138.801 475.803H138.701V475.703L138.601 475.603L138.501 475.503H138.301H138.201H138.101H138.001L137.901 475.403H137.801L137.601 475.303L137.501 475.403V475.603V475.703V475.803H137.601L137.701 475.903L137.601 476.003H137.501H137.401V476.103V476.203H137.501V476.303V476.403V476.503H137.601L137.501 476.603V476.703L137.601 476.803L137.501 476.903L137.401 476.803V476.603L137.501 476.503V476.403H137.401V476.303L137.301 476.203V476.103L137.401 475.903L137.301 475.403L137.401 475.203H137.501H137.701L137.901 475.303H138.101H138.201L138.401 475.403L138.601 475.503Z" fill="white"/>
<path fill-rule="evenodd" clip-rule="evenodd" d="M122.1 539.3V539.4V539.5L122 539.6V539.8V540L121.9 540.1L121.8 540.2H121.7H121.6H121.5V540.1L121.4 540L121.6 540.1H121.7H121.8L121.9 540V539.9V539.7V539.6L122 539.5H122.1V539.4V539.3H122H121.9L121.8 539.4L121.7 539.3H121.6L121.4 539.2V539.1H121.3V539L121.1 539.1H121L120.9 539L120.8 539.1H120.7V539.2L120.6 539.1L120.7 539H120.9H121.1H121.3H121.4L121.6 539.1L121.9 539.2L122 539.3H122.1Z" fill="white"/>
<path fill-rule="evenodd" clip-rule="evenodd" d="M553 798.997H552.9V798.897L552.7 798.597L552.6 798.397L552.4 798.197V797.997V797.797H552.5L552.6 797.997L552.7 798.097L552.8 798.397L552.9 798.497V798.697L553 798.897V798.997Z" fill="white"/>
<path fill-rule="evenodd" clip-rule="evenodd" d="M400.5 581.503H400.6H400.9L401.2 581.403H401.4H401.5L401.7 581.303H401.8H402L402.1 581.203H402.3L402.4 581.303H402.5H402.7H402.9H403.1L403.3 581.203H403.4L403.6 581.303L403.7 581.403L404 581.703H404.1V581.803L404 581.903L403.9 582.003L403.8 582.103H403.6L403.4 582.203H403.2L403.1 582.303L403 582.403L402.9 582.503L402.7 582.703H402.6L402.5 582.603L402.2 582.503L402.1 582.403L402 582.303L401.9 582.203L401.6 582.003L401.5 581.903L401.4 581.803H401.1L400.7 581.703H400.6L400.5 581.603V581.503Z" fill="white"/>
<path fill-rule="evenodd" clip-rule="evenodd" d="M612.399 741.5H612.299L612.199 741.1V741H612.299L612.399 741.1L612.499 741.2V741.3L612.599 741.6H612.499H612.599V741.7V741.9V742.1V742.2V742.3V742.5L612.699 742.6V742.8L612.599 743V742.9H612.699V742.7L612.599 742.6V742.5L612.499 742.4L612.599 742.3L612.499 742.2V742.1H612.599V742L612.499 741.9V741.8V741.7L612.399 741.6V741.5Z" fill="white"/>
<path fill-rule="evenodd" clip-rule="evenodd" d="M436.3 521V520.9H436.4H436.6H436.8H437H437.1L437.4 520.8H437.6H437.7H437.9H438L438.2 520.7L438.4 520.5H438.5H438.8H439H439.1V520.6V520.7L438.9 521.1L438.7 521.5L438.6 521.7V521.9V522V522.2L438.7 522.4V522.5L438.6 522.6L438.4 522.7H438.3L438 522.9H437.9H437.8L437.7 522.8L437.6 522.7L437.5 522.6L437.4 522.5L437.2 522.4L437.1 522.3L437 522.2L436.9 522L436.7 521.9L436.6 521.8L436.2 521.6L436.1 521.5L436.2 521.4V521.3V521.1V521H436.3Z" fill="white"/>
<path fill-rule="evenodd" clip-rule="evenodd" d="M237.2 199.7L237.3 199.8L237.2 199.9V200H237.1L237 200.1H236.8H236.5H236.3L236.2 200L235.9 199.9L235.7 199.8H235.6L235.4 199.7L235.3 199.6L235.2 199.5H235.1V199.4H235V199.3L235.1 199.2L235.2 199.1H235.3L235.4 199H235.5H235.7H235.9L236 199.1H236.1L236.3 199.2H236.4L236.5 199.3L236.7 199.4H236.9H237H237.1L237.2 199.5V199.6V199.7Z" fill="white"/>
<path fill-rule="evenodd" clip-rule="evenodd" d="M273.801 230.2H273.901V230.3L274.001 230.4H274.101L274.201 230.5V230.6V230.7L274.301 231L274.401 231.1L274.501 231.3V231.4H274.701L274.801 231.5H274.901L275.001 231.6H275.101H275.201H275.401V231.7H275.501L275.701 231.8H275.801H276.001H276.101H276.201L276.301 231.7H276.401H276.501H276.601L276.701 231.6L276.801 231.7V231.8L276.901 231.7L276.801 231.6H276.901V231.5L277.001 231.4H277.101L277.201 231.3V231.2L277.501 231.1H277.701H277.801V231L277.901 230.9L278.001 230.8V230.7L277.901 230.6H278.001H278.101V230.5L278.001 230.3H278.101L277.901 230.2L278.001 230.1L277.901 230H278.001V230.1L278.101 230L278.201 230.1L278.301 230.2V230.5V230.6V230.7L278.201 230.9V231L278.001 231.2L277.901 231.3L277.601 231.5L277.401 231.6L277.201 231.7L277.101 231.8L276.901 231.9L276.701 232H276.601H276.501H276.301L276.101 232.1H275.701H275.501H275.401H275.301L275.101 232H275.001L274.801 231.9L274.701 231.8L274.501 231.6L274.401 231.5L274.201 231.2L274.001 231V230.9L273.901 230.6L273.801 230.4V230.3V230.2Z" fill="white"/>
<path fill-rule="evenodd" clip-rule="evenodd" d="M273.1 227.803L273.2 227.603L273.5 227.503L273.6 227.403L273.8 227.303H273.9L274.1 227.203H274.2H274.3H274.6L274.7 227.403H274.6H274.7L274.6 227.303H274.5L274.4 227.203H274.3L274.4 227.403L274.5 227.503V227.603H274.4L274.3 227.503H274.2L274.1 227.603V227.703H273.9H273.8H273.7H273.5H273.4L273.1 227.903L273 228.103V228.203V228.303V228.403V228.603V228.703V228.803V228.903L273.1 229.203L273.2 229.303L273.4 229.403H273.5L273.6 229.503L273.7 229.603L273.8 229.703L273.7 229.803L273.6 229.903V230.003H273.7V230.103H273.8H273.7L273.6 229.903H273.5L273.4 229.703L273.2 229.603L273 229.503L272.9 229.403V229.303L272.7 229.003L272.6 228.803V228.603V228.503L272.7 228.403L272.8 228.303V228.103L272.9 228.003L273 227.803H273.1Z" fill="white"/>
<path fill-rule="evenodd" clip-rule="evenodd" d="M277.9 229.897L277.8 229.997H277.7L277.6 229.897L277.5 229.797H277.6L277.4 229.697H277.3H277.2V229.797H277.1L277 229.697L276.9 229.797L276.7 229.697H276.6H276.4L276.3 229.597L276.2 229.397H276L275.9 229.297H275.8L275.7 229.197H275.6L275.5 229.097L275.4 228.997H275.3L275.2 228.697L275.1 228.597L275.2 228.497L275.1 228.397V228.297L275.2 228.397V228.497V228.397V228.297V228.197V228.097L275.1 227.997H275.2V227.897V227.797H275.3L275.2 227.697L275.3 227.597H275.2H275.3V227.497H275.2L275.1 227.397L275 227.297V227.397H274.9V227.297H275.1L275.2 227.397L275.3 227.497L275.4 227.597V227.697V227.897V228.197V228.497L275.5 228.597L275.6 228.697L275.7 228.897L275.8 228.997H275.9V229.097H276L276.3 229.297H276.4L276.7 229.397H276.9H277.2H277.4H277.3L277.4 229.497H277.5L277.7 229.597L277.8 229.697L277.9 229.797V229.897Z" fill="white"/>
<path fill-rule="evenodd" clip-rule="evenodd" d="M343.301 299.003L343.201 298.803V298.703H343.101L342.901 298.203L342.801 297.903V297.803V297.503L342.901 297.403L343.001 297.303H343.101L343.301 297.203H343.701H343.801H344.001H344.301H344.401H344.601L344.801 297.303L345.401 297.503L345.501 297.603L345.601 297.803L345.701 297.903L345.801 298.103L346.001 298.303L346.101 298.403L346.301 298.503L346.501 298.703H346.701L346.801 298.803L346.901 298.903L347.101 299.003L347.301 299.103L347.501 299.203L347.801 299.303H348.001H348.101H348.201H348.301H348.401L348.701 299.403H349.201H349.401L349.501 299.503L349.601 299.603L349.801 299.703L349.901 300.003L350.001 300.103V300.303V300.403L349.901 300.603V300.703L349.801 300.803L349.701 300.903H349.601L349.401 301.003L349.201 301.103H349.101L349.001 301.203H348.901V301.303L348.801 301.503L348.701 301.603L348.601 301.903V302.003L348.501 302.203L348.401 302.403V302.503V302.703V302.803L348.501 303.003L348.401 303.103V303.403V303.603L348.501 304.003V304.303V304.403V304.503L348.601 304.703L348.701 304.803L348.901 305.203L349.001 305.303H349.101H349.301L349.401 305.403L349.501 305.603L349.601 305.703L349.701 305.803H349.801L350.001 305.903L350.101 306.003L350.301 306.103L350.501 306.203H350.601H350.701H350.801H350.901H351.001V306.303H351.101L351.301 306.403L351.401 306.503L351.601 306.603H351.701H351.801L351.901 306.703L352.101 306.903L352.301 307.003L352.501 307.103V307.203H352.701H352.901H353.001H353.101L353.201 307.303H353.301L353.401 307.403L353.501 307.503H353.601H353.801L353.901 307.603H354.101H354.301H354.401L354.501 307.703L354.701 307.903L354.801 308.003L354.901 308.203L355.001 308.403V308.703L355.101 308.903V309.003V309.203V309.403V309.603L355.001 309.803V309.903L354.901 310.003V310.103H354.801L354.701 310.203H354.501L354.401 310.103H354.201L354.101 310.203H354.001H353.701L353.601 310.303H353.501H353.301L352.901 310.203L352.501 310.103L352.401 310.003H352.201V309.903L351.801 309.503V309.403H351.701L351.601 309.303H351.501L351.401 309.203L351.301 309.103L351.101 309.003H351.001H350.901L350.801 308.803L350.601 308.703L350.401 308.603L350.001 308.303L349.701 308.103L349.501 307.903H349.301L349.201 307.803L348.901 307.703H348.801L348.601 307.603V307.503L348.301 307.403H348.201L347.801 307.303L347.601 307.203H347.301L347.101 307.303H346.801L346.701 307.203L346.201 307.103H346.001L345.601 307.003L345.201 306.903L345.001 306.803L344.801 306.703L344.501 306.403L344.201 306.203L343.901 306.003L343.801 305.803L343.701 305.603L343.601 305.403V305.203L343.501 305.103L343.401 304.803V304.703L343.301 304.603L343.101 304.503L342.801 304.403L342.701 304.303L342.601 304.203L342.501 304.303V304.203H342.401L342.301 304.303H342.201L341.901 304.403H341.701L341.501 304.603H341.401L341.301 304.703H341.201L341.101 304.603L340.801 304.303L340.701 304.203L340.601 304.103L340.501 303.903L340.401 303.803L340.301 303.703L340.401 303.603L340.501 303.503L340.701 303.303L341.001 303.103L341.101 303.003L341.301 302.803V302.703L341.401 302.603V302.503V302.403L341.601 302.303L341.701 302.203L341.901 302.103L342.201 301.903L342.401 301.703H342.501H342.601L342.701 301.603V301.503H342.801H342.901V301.403H343.001V301.603L342.901 301.703H342.801L342.601 301.803L342.501 301.903L342.401 302.103V302.203L342.301 302.303H342.201L342.001 302.403L341.801 302.503L341.701 302.603V302.503L341.601 302.603L341.401 302.703V302.803L341.301 303.003L341.201 303.203V303.303L341.301 303.503V303.603V303.703H341.201V303.803L341.101 303.703H341.001H340.901H340.801V303.603H340.901L340.801 303.503L340.701 303.403V303.503L340.601 303.603V303.703L340.801 303.803H340.901L341.101 304.003H341.201H341.301L341.501 303.903H341.701V303.803V303.703H341.601L341.501 303.803L341.601 303.703V303.603H341.801V303.503L341.701 303.603L341.801 303.503L342.101 303.403H342.201H342.401H342.601H342.701V303.303H342.901V303.203H343.001V303.303L343.301 303.403H343.401H343.501H343.601H343.701L344.001 303.103V303.003V302.903L344.101 302.803L344.201 302.703L344.301 302.603V302.503V302.403L344.201 302.303L344.101 302.403V302.303H344.201L344.101 302.203V302.103L344.201 302.303H344.401V302.203L344.501 302.303H344.601L344.801 302.103L344.701 302.003L344.901 301.603L345.001 302.003H345.401L345.301 301.603V301.403L345.601 301.103L345.501 301.003L345.301 300.803V300.603L345.401 300.503L345.301 300.403V300.303V300.203L345.201 300.103V300.003L345.101 300.103L345.201 300.003H345.301L345.201 299.303V299.103L345.301 298.903L345.201 298.803L345.101 298.903H345.001V298.803V298.703H344.901L344.801 298.603L344.901 298.503L344.801 298.403V298.503V298.603V298.703V298.903L344.701 299.003V298.903L344.501 298.803H344.401V298.703L344.301 298.603H344.401H344.501L344.601 298.703L344.701 298.603L344.601 298.503H344.701V298.403H344.601H344.501H344.401H344.301V298.503L344.201 298.403H344.101L344.201 298.303L344.301 298.403H344.501L344.601 298.303V298.203H344.501H344.401V298.103H344.301V298.003L344.201 298.103V298.203V298.303H344.101H344.001L343.901 298.203V298.103V298.003H344.001V298.103H344.101L344.201 298.003H344.101H344.001H344.101V297.903H344.001L343.901 297.803L343.801 298.003H343.701H343.601V298.103H343.501L343.401 298.203H343.301L343.201 298.403V298.503L343.301 298.603L343.401 298.803V299.003V299.203V299.303H343.501H343.601H343.501L343.701 299.403L343.601 299.303H343.701V299.403V299.503V299.603V299.703V299.603L343.801 299.703H343.701H343.601V299.603H343.501V299.703H343.401V299.603V299.303L343.301 299.003Z" fill="white"/>
<path fill-rule="evenodd" clip-rule="evenodd" d="M967.8 471.702L967.4 471.302L967.2 471.102L967.1 470.902V470.802L967 470.602L966.9 470.502L966.7 470.302L966.6 470.202L966.3 469.902L966 469.802L965.9 469.702H965.8V469.602H966L966.2 469.702H966.3H966.5L966.7 469.802L966.8 470.002L966.9 470.102L967 470.202L967.1 470.402L967.2 470.602L967.5 470.902L967.7 471.102V471.202L967.8 471.302L967.9 471.702V471.802H967.8V471.702Z" fill="white"/>
<path fill-rule="evenodd" clip-rule="evenodd" d="M935.799 465.497L935.699 465.397L935.499 465.197L935.299 465.097V464.997L935.199 464.897L935.299 464.797H935.399H935.499L935.599 464.897H935.699L935.899 464.997L936.099 465.297L936.399 465.597L936.499 465.697V465.797V465.997H936.299L936.199 465.897H936.099L935.999 465.597L935.799 465.497Z" fill="white"/>
<path fill-rule="evenodd" clip-rule="evenodd" d="M900.5 426.497L900.7 426.297H900.8V426.397V426.497H900.7V426.397V426.597H900.8L900.9 426.497L901 426.597H900.9L901 426.697L901.1 426.597L901.2 426.697L901.1 426.797L901 426.897H900.9V426.997H901H900.9L900.8 426.797L900.6 426.597L900.5 426.497H900.3H900.4H900.5H900.4H900.5Z" fill="white"/>
<path fill-rule="evenodd" clip-rule="evenodd" d="M899.8 426.3L899.9 426.2V426.1L900 426H900.1H900.2V426.1H900.3H900.4L900.6 426.2L900.5 426.3V426.4H900.4L900.2 426.3H900.1H900H899.9H899.8Z" fill="white"/>
<path fill-rule="evenodd" clip-rule="evenodd" d="M901.499 427.303H901.599L901.699 427.203H901.999H902.099V427.303L902.199 427.503L902.299 427.603L902.399 427.703L902.499 427.603V427.703V427.803L902.399 428.103L902.299 428.303L902.199 428.203L902.099 428.303V428.403L902.199 428.303H902.299V428.403V428.603V428.803L902.399 429.003V429.103V429.203V429.303H902.299H902.199L902.299 429.203V429.103V428.903L902.199 428.803V428.603L902.099 428.403V428.303V428.203L902.199 428.003V427.903H902.299L902.199 427.803H902.099V427.703H901.999V427.803H901.899L901.799 427.703H901.699L901.399 427.403L901.499 427.303Z" fill="white"/>
<path fill-rule="evenodd" clip-rule="evenodd" d="M954.799 424.898H954.699L954.499 424.798V424.698H954.399L954.199 424.498H954.099V424.398V424.198V424.098V423.998L953.999 423.798H953.899V423.698L953.799 423.598L953.599 423.398L953.399 423.298V423.198H953.299L953.199 422.998H953.099L952.799 422.798L952.599 422.598V422.498H952.499L952.399 422.398L952.299 422.298L952.199 422.198L952.099 422.098L951.999 421.998L951.799 421.898L951.699 421.798L951.499 421.698V421.598L951.399 421.498H951.499L951.799 421.398L951.999 421.498H952.199H952.399H952.699L952.799 421.598L952.999 421.798H953.099L953.199 421.898V421.998L953.299 422.098V422.398L953.399 422.598L953.499 422.898L953.599 423.098L953.699 423.298L953.799 423.498L953.999 423.598L954.099 423.798L954.299 423.898L954.499 423.998L954.599 424.098L954.699 424.298L954.799 424.498V424.798V424.898Z" fill="white"/>
<path fill-rule="evenodd" clip-rule="evenodd" d="M936.5 423.198L936.4 423.098V422.998H936.3V423.098V422.998V422.898L936.2 422.798L936.1 422.698L936 422.598L935.9 422.498V422.398H936H936.1H936.2H936.3V422.498V422.698L936.4 422.798L936.5 422.898V422.998L936.6 422.898L936.5 422.798V422.698V422.598L936.4 422.498V422.398V422.198L936.3 422.098V421.998V421.898L936.2 421.698L936.1 421.598V421.498L936 421.298L935.9 421.198L935.8 421.098L935.7 420.998H935.6H935.5V420.898H935.4H935.2H935.1H935V420.698H935.1V420.598L935.2 420.398V420.298H935.1H935L934.9 420.198V420.098V420.298H934.8V420.498V420.598H934.9L934.8 420.698L934.9 420.798V420.898L934.8 420.798H934.6H934.5V420.698V420.498L934.7 420.398V420.298L934.8 420.198V420.098V419.998L934.9 419.898L935.2 420.098L935.3 420.198V420.298L935.4 420.398L935.5 420.498L935.7 420.698H935.8L935.9 420.798L936 420.998L936.4 421.698L936.5 421.798L936.6 422.098L936.7 422.298V422.398L937 422.698L937.4 423.198L937.5 423.298L937.6 423.498V423.598L937.5 423.698L937.4 423.798H937.3V423.698L937.1 423.598L936.9 423.398L936.8 423.298L936.5 423.198Z" fill="white"/>
<path fill-rule="evenodd" clip-rule="evenodd" d="M918.499 442.202V442.102L918.299 442.002H918.199L918.299 441.902L918.399 441.802V441.602L918.599 441.502L918.699 441.302V440.902V440.302H918.799H918.899L918.999 440.402V440.502L919.199 440.402L919.099 440.302L918.999 440.202L918.899 440.002L918.799 439.802L918.599 439.602H918.499V439.502H918.599H918.699V439.302V439.202H918.799V439.102L919.099 439.202L919.199 439.302L919.299 439.402L919.399 439.502H919.599L919.699 439.602H919.799H919.899L919.999 439.702H920.099L920.199 439.802V439.902L920.299 440.102L920.199 440.202V440.302L920.099 440.502V440.602V440.902V441.002V441.202L920.199 441.302H920.299H920.199L920.299 441.402L920.399 441.502L920.499 441.602V441.702H920.599V441.602V441.702H920.699V441.802L920.799 441.702L920.899 441.802L920.999 441.902L921.199 442.002L921.499 442.102H921.599V442.002V442.102H921.799L921.899 442.202H921.999L922.099 442.402L922.399 442.702V442.802L922.499 443.002V443.302L922.399 443.402V443.602L922.299 443.902L922.199 444.002L922.099 444.102L921.899 444.402L921.799 444.502L921.699 444.702L921.599 444.802H921.499V444.902L921.299 445.002L921.199 445.102L921.099 445.202H920.999H920.899L920.799 445.102H920.599V444.902V444.802L920.699 444.902L920.799 444.802V444.702H920.699L920.799 444.502L920.899 444.402H920.999V444.302H920.699L920.499 444.202L920.399 444.302L920.299 444.002L920.099 443.802L919.999 443.902V443.702L919.899 443.502L919.799 443.402L919.699 443.202L919.599 443.102L919.499 442.902L919.299 442.802H919.399L919.299 442.702V442.602V442.502V442.602H919.199L918.999 442.502L918.699 442.402L918.499 442.302L918.599 442.202H918.499Z" fill="white"/>
<path fill-rule="evenodd" clip-rule="evenodd" d="M697.2 405.003V404.903L697.1 404.703L697 404.503V404.403L697.1 404.303L697.2 404.203H697.3H697.4H697.7L697.8 404.303L697.9 404.403L698 404.503V404.603V404.803V404.903L697.9 405.003L697.8 405.203L697.7 405.103V405.003L697.5 404.903H697.4H697.3L697.2 405.003Z" fill="white"/>
<path fill-rule="evenodd" clip-rule="evenodd" d="M891.9 419.297H891.8V419.397H891.7L891.8 419.197L891.7 419.097V418.997L891.6 418.797L891.4 418.597V418.497L891.3 418.397L891.2 418.197L891.1 418.097L891 417.997H890.9L890.7 417.897H890.6L890.3 417.597L890.1 417.297H890L889.9 417.097L889.7 416.897L889.6 416.797L889.5 416.597V416.497V416.397L889.4 416.297V416.197L889.1 415.897L888.9 415.797L888.8 415.697H888.7L888.6 415.597H888.4V415.497H888.2L888.1 415.397L887.9 415.197L887.8 415.097H887.7V414.997H887.5V414.897H887.4H887.3H887.2L887 414.697V414.597V414.497L887.1 414.397H887V414.297V414.197V414.097L887.1 413.997L887.2 413.797H887.3L887.4 413.897L887.5 414.097L887.7 414.297L887.8 414.497L887.9 414.597V414.697L888 414.797V414.697V414.797L888.1 414.897V414.997V414.897H888.2L888.1 414.997V415.097L888.2 414.897V414.997V415.097H888.3V415.197H888.4H888.5L888.6 415.097L888.7 415.197L888.8 415.397H888.9L889 415.297L889.1 415.397H889.2V415.497L889.4 415.697L889.5 415.797L889.6 415.897L889.7 416.097V416.197V416.397L889.9 416.497L890 416.697L890.1 416.597V416.697H890.2V416.797V416.897L890.1 416.997H890.2L890.3 417.097H890.4H890.3V417.297H890.4H890.5H890.6L890.7 417.497L890.9 417.697L891 417.797L890.9 417.897V417.997L891.1 417.897L891.2 417.997L891.4 418.297H891.5L891.4 418.397V418.497L891.5 418.397H891.6V418.497L891.7 418.597L891.8 418.797H891.9V418.897V418.997V419.297Z" fill="white"/>
<path fill-rule="evenodd" clip-rule="evenodd" d="M879.6 402.202L879.5 402.402V402.502H879.6L879.8 402.602V402.702V402.602V402.702H879.9H880H879.9V402.502V402.402H880H880.1H880L880.1 402.202V402.102V401.902V401.802H880V401.702V401.602V401.502H879.9V401.402V401.102L879.8 400.902L879.7 400.702H879.6L879.4 400.402L879.3 400.202V400.102L879.2 399.902V399.502V399.302V399.002L879.3 398.902V398.602V398.502V398.302V398.202L879.2 397.902L879.1 397.702V397.602V397.402V397.302V397.202H879H878.9L878.8 397.102V397.002H878.7V396.902V396.802L878.5 396.602H878.4V396.702L878.3 396.602H878.2V396.502L878 396.402L877.9 396.302L877.8 396.202L877.7 396.102H877.6V396.002L877.5 395.802L877.4 395.702V395.802V395.702V395.602L877.2 395.502V395.402L877.1 395.302H876.9H876.8L876.7 395.202L876.5 395.102V395.002L876.3 394.802H876.2L876.1 394.702H875.9L875.8 394.602L875.7 394.502H875.6L875.5 394.402H875.4V394.502H875.3V394.402H875.2L875.1 394.502H875L874.9 394.402H874.8L874.9 394.302L874.8 394.202H874.7H874.6H874.5V394.302V394.202V394.102H874.6L874.9 394.202V394.302V394.402V394.302H875V394.202H875.1V394.402V394.302L875.2 394.402V394.202L875.4 394.302V394.202L875.6 394.302V394.202H875.7L875.9 394.302L876 394.402H876.1L876 394.502V394.602L875.9 394.502V394.602V394.702L876 394.602V394.702L876.1 394.602H876L876.1 394.502V394.402L876.3 394.602L876.4 394.702L876.5 394.802L876.6 394.902L876.8 395.002L877 395.202L877.1 395.302H877.2L877.4 395.602L877.5 395.702L877.7 395.902L877.8 396.002L877.9 396.102L878.1 396.302L878.3 396.402H878.4L878.6 396.602H878.7L878.8 396.702L878.9 396.802L879 397.002H879.1L879.2 397.102L879.3 397.302V397.402L879.4 397.602L879.3 397.702L879.4 397.802V398.002L879.5 398.202V398.502L879.4 398.602V398.702V398.902V399.002L879.3 399.102L879.4 399.402V399.702L879.6 400.002L879.8 400.502L879.9 400.702L880 400.902V401.002V401.102L880.1 401.202L880 401.302L880.1 401.502V401.602V401.702L880.2 401.802V401.902V402.102V402.202V402.402H880.1V402.502H880.2V402.602V402.802H880.1L880 402.902L879.8 403.002V403.102L879.7 403.002V402.902L879.5 402.802H879.4L879.3 402.702V402.802V402.702V402.602H879.2H879.3V402.502H879.4V402.402V402.302L879.5 402.202L879.6 402.102V402.202Z" fill="white"/>
<path fill-rule="evenodd" clip-rule="evenodd" d="M845.7 366.398L845.6 366.298L845.5 366.198V366.098L845.7 365.998L845.8 365.898L846.1 365.998H846.3L846.6 366.098V366.198H846.7L846.9 366.398H846.8L846.7 366.298L846.8 366.398V366.498H846.9H847H847.1H847.2L847.3 366.598H847.2H847H846.7H846.6L846.5 366.698H846.4L846.3 366.598L845.9 366.498L845.7 366.398Z" fill="white"/>
<path fill-rule="evenodd" clip-rule="evenodd" d="M840.8 364.398H840.9H841.1L841.2 364.498H841.3L841.4 364.398V364.498H841.5L841.6 364.598V364.498L841.8 364.598L842 364.798H842.1L842.2 364.898H842.3L842.4 364.998H842.3V365.098H842.1L841.9 365.198L841.8 365.298L841.7 365.398L841.5 365.598H841.4V365.698H841.3H841.2H841.1L841.2 365.598V365.498L841 365.398V365.298L840.9 364.898V364.798V364.598L840.8 364.498V364.398Z" fill="white"/>
<path fill-rule="evenodd" clip-rule="evenodd" d="M840.799 364.398L840.699 364.198L840.599 363.998L840.499 363.898L840.299 363.798L839.999 363.498H839.899L839.799 363.398L839.699 363.298V363.198L839.899 362.998L839.999 362.898V362.998L840.099 363.098L840.399 363.198L840.499 363.298L840.599 363.398L840.499 363.498L840.699 363.698V363.898L840.799 364.098V364.298V364.398Z" fill="white"/>
<path fill-rule="evenodd" clip-rule="evenodd" d="M849.199 366.498L849.099 366.298L848.899 366.198V366.098V365.998L848.999 365.898H849.099V365.998H849.199V365.898V365.798L849.099 365.698H848.999V365.598H848.899H848.999V365.498L848.899 365.398V365.598V365.498L848.799 365.598L848.899 365.398L849.099 365.498L849.199 365.698L849.299 365.998L849.399 366.098V366.298V366.398L849.499 366.598L849.399 366.698L849.199 367.398L849.099 367.698V367.798L848.999 367.998L848.899 368.098V368.198L848.699 368.298V368.398L848.599 368.298V368.398H848.499V368.498H848.399L848.299 368.598V368.498H848.199L848.299 368.398V368.298L848.399 368.198L848.499 367.998H848.599H848.699V367.898L848.799 367.798L848.899 367.698L849.099 367.198L849.199 366.998V366.798V366.598V366.498Z" fill="white"/>
<path fill-rule="evenodd" clip-rule="evenodd" d="M854.7 358.598V358.698L854.8 358.798L854.9 358.898H855H854.9H854.7H854.6H854.5H854.3H854.2L854 358.798H853.9L853.8 358.698V358.598V358.498L853.9 358.398H854H854.2H854.3L854.4 358.598H854.7Z" fill="white"/>
<path fill-rule="evenodd" clip-rule="evenodd" d="M859.499 357.002L859.599 357.302H859.699V357.602V357.702V357.802L859.799 357.702V357.802L859.899 357.902H859.799H859.699L859.799 358.002H859.699L859.599 357.902H859.499V357.802L859.399 357.602V357.502L859.299 357.402V357.302L859.199 357.102H859.099L858.799 356.702L858.499 356.402L858.299 356.202L858.099 356.102L857.799 355.802L857.599 355.702L857.499 355.602L857.399 355.402L857.199 355.302H857.299L857.199 355.202L857.099 355.102L856.899 355.002L856.699 354.902H856.599H856.399V355.002L856.199 355.102L856.099 355.202L855.999 355.302L855.899 355.402L855.799 355.602L855.699 355.802L855.599 355.902L855.399 356.102V356.202V356.302L855.299 356.202L855.199 356.102H855.299V356.002L855.399 355.902H855.299L855.399 355.802V355.702L855.599 355.602V355.502V355.402V355.302L855.699 355.102L855.799 355.002L855.899 354.902L855.999 354.802L856.199 354.702L856.399 354.602L856.599 354.702V354.602L856.699 354.702L856.899 354.802L856.999 354.902L857.199 355.002L857.399 355.102V355.202L857.599 355.402L857.799 355.502L857.899 355.602L858.099 355.702L858.199 355.802L858.499 356.102L858.699 356.202L858.799 356.402L859.099 356.602L859.299 356.702V356.802L859.399 356.902H859.499V357.002Z" fill="white"/>
<path fill-rule="evenodd" clip-rule="evenodd" d="M860.4 360.203H860.5V360.303L860.4 360.403H860.5L860.4 360.503H860.3V360.703H860.4L860.3 360.803H860.4V360.603H860.5V360.703V360.803L860.6 360.903L860.5 361.003V361.103V361.203L860.4 361.403L860.3 361.603H860.2L860.1 361.703H860L859.8 361.603H859.7H859.6H859.5L859.6 361.503L859.5 361.403L859.7 361.303H859.8H859.9H860L860.1 361.203L860.2 361.103V361.003V360.903L860.3 360.603V360.503L860.2 360.303V360.203H860.3H860.4Z" fill="white"/>
<path fill-rule="evenodd" clip-rule="evenodd" d="M860.499 360.2L860.399 360.1L860.299 360.2H860.199V360.5L860.299 360.6H860.199V360.4V360.2V360V359.5V359.4L860.099 359.3L859.899 359V358.8L859.799 358.7L859.699 358.3V358.1L859.799 358L859.899 358.1V358.2V358.3H859.999V358.4V358.5V358.6H859.899H860.099V358.7V358.9H860.199V359V359.1L860.299 359.2L860.399 359.5H860.499L860.399 359.6L860.499 359.7V359.8V359.9L860.599 360H860.499V360.1V360.2Z" fill="white"/>
<path fill-rule="evenodd" clip-rule="evenodd" d="M825.6 321.602L825.7 321.502L825.9 321.402V321.502V321.702H825.6H825.4H825.3L825.2 321.802V321.702V321.602H825.1H825V321.402L825.1 321.502V321.402L825.2 321.302L825.1 321.202H825.3L825.2 321.102H825.3V321.202V321.302V321.502H825.4H825.5L825.4 321.602H825.3H825.4H825.5H825.6Z" fill="white"/>
<path fill-rule="evenodd" clip-rule="evenodd" d="M824.2 323.4L823.9 323.2L823.8 323.1H823.7L823.6 323L823.5 322.9H823.3H823.2H823H822.8H822.7H822.6V322.8L822.7 322.6L822.8 322.7H822.9H823L823.1 322.6L823 322.7H823.1V322.5H823.2V322.6H823.1L823.2 322.7L823.3 322.8L823.5 322.9L823.8 323.1L823.9 323.2L824.2 323.4Z" fill="white"/>
<path fill-rule="evenodd" clip-rule="evenodd" d="M825.599 323.698L825.999 323.598L826.199 323.498H826.399L826.499 323.398L826.599 323.298L826.799 323.198L826.999 323.098V322.998H827.099V322.898H826.999L827.099 322.798H827.199L827.299 322.698H827.399L827.699 322.798H827.799V322.698H828.099H828.299L828.399 322.598H828.499L828.599 322.498H828.699L828.799 322.398H828.899L828.999 322.498H829.199V322.398H829.299L829.399 322.498H829.499H829.599H829.699H829.799H829.899L829.999 322.398H830.099L830.199 322.298H830.399V322.398H830.499H830.599V322.498H830.699L830.799 322.398L830.899 322.498L830.999 322.398V322.498V322.398V322.298V322.098V321.898H830.899H830.799H830.699L830.599 321.998L830.699 321.898V321.698V321.598V321.498L830.599 321.598L830.699 321.498V321.398V321.498L830.799 321.398L830.699 321.498H830.799V321.398L830.899 321.498H830.799L830.899 321.598H830.999L831.199 321.698L831.299 321.898H831.399H831.499L831.599 321.998L831.699 322.198V322.298V322.398L831.599 322.598L831.499 322.698H831.399H831.199L831.099 322.598H830.999H830.699V322.498H830.599H830.499H830.299H830.199H830.099L829.999 322.598V322.498L829.799 322.598H829.699L829.299 322.498H829.099H828.999H828.899V322.598H828.699H828.599L828.399 322.698L828.199 322.798H828.099H827.899H827.799H827.699H827.599L827.399 322.698L827.199 322.798V322.898H827.299L827.099 322.998L826.799 323.298L826.699 323.398L826.599 323.498H826.499L826.299 323.598L826.199 323.698H826.099H825.999L825.899 323.798L825.799 323.698H825.599V323.798H825.499H825.399H825.299H825.099H824.999H824.799V323.898L824.699 323.798V323.898H824.599L824.699 323.798V323.698H824.499H824.399L824.299 323.598L824.199 323.398L824.399 323.598L824.499 323.698H824.699H824.799L824.999 323.798H825.099H825.299L825.499 323.698H825.599Z" fill="white"/>
<path fill-rule="evenodd" clip-rule="evenodd" d="M827.2 318.403H827.1V318.503L827 318.403H826.9L827 318.503H826.9H826.8L826.7 318.403V318.303V318.203V318.103L826.6 317.903H826.5L826.4 317.803L826.3 317.703H826.4H826.5H826.6L826.7 317.903L826.9 318.103V318.303H826.8V318.403L826.9 318.303H827L827.1 318.403V318.303L827.2 318.403Z" fill="white"/>
<path fill-rule="evenodd" clip-rule="evenodd" d="M826.399 317.502V317.602H826.299V317.702L826.199 317.602L826.099 317.502V317.402V317.302L825.999 317.102V317.002L825.899 316.902L825.699 316.702H825.799V316.802L825.899 316.702V316.602V316.702H826.099V316.802V316.902V317.002V317.202L826.199 317.402H826.299V317.502H826.399L826.299 317.602L826.399 317.502Z" fill="white"/>
<path fill-rule="evenodd" clip-rule="evenodd" d="M825.599 316.098L825.799 316.398L825.899 316.498V316.598V316.698H825.799L825.699 316.598L825.599 316.398L825.499 316.198L825.399 315.898V315.798V315.698H825.299L825.199 315.598H825.099L825.199 315.498H825.299V315.398L825.199 315.498L825.099 315.598H824.999V315.498V315.398H824.899H824.799L824.699 315.198L824.599 315.098V314.998L824.499 314.898V314.798V314.598V314.498V314.398V314.198V313.998L824.299 313.798V313.598L824.099 313.498H823.999H823.899V313.398L823.999 313.198H824.099V313.098L824.199 312.898V312.798V312.698V312.598V312.698H824.299V312.898L824.199 312.998V313.098H824.299L824.399 312.898V312.798L824.299 312.598L824.199 312.498H824.099V312.598H824.199H824.099H823.999V312.498V312.398H824.099H824.199V312.498L824.299 312.598L824.399 312.698V312.898V312.998V313.198H824.299L824.399 313.298L824.499 313.498L824.399 313.598L824.499 313.698V313.798V313.998L824.599 314.198V314.298H824.699V314.398V314.698H824.599L824.699 314.798V314.898L824.799 315.098L824.899 315.198H824.999V315.298H825.099V315.398H825.199V315.298L825.399 315.398V315.498V315.598L825.499 315.698V315.898L825.599 315.998V316.098Z" fill="white"/>
<path fill-rule="evenodd" clip-rule="evenodd" d="M834.999 299L835.099 299.1H835.199V299.3V299.5V299.6V299.7L835.399 299.8H835.499H835.599L835.799 299.9V299.8L835.999 299.9L836.099 300L836.199 299.9H836.299V300V299.9L836.099 300H835.999L835.899 299.9H835.699H835.599L835.499 299.8H835.399L835.299 299.7H835.199L835.399 299.8L835.599 299.9H835.699L835.899 300H835.999H836.099H836.199H836.299H836.399H836.599L836.699 299.9L836.799 299.8V299.7L836.699 299.8L836.799 299.7L836.699 299.6L836.599 299.5V299.4H836.499L836.399 299.3L836.299 299.1H836.399H836.499H836.599L836.699 299.2V299.3L836.799 299.4L836.899 299.6H836.999V299.7V299.8V299.9L836.899 300L836.699 300.1H836.499L836.199 300H836.099H835.999H835.799H835.699H835.499V299.9H835.299H835.199H835.099L834.999 299.8V299.7L834.899 299.6V299.4V299.3V299.2V299H834.999Z" fill="white"/>
<path fill-rule="evenodd" clip-rule="evenodd" d="M818.4 258.802H818.5L818.7 258.702L818.8 258.602H818.9L819 258.402H819.1L819.2 258.302H819.3H819.4H819.5H819.6L819.8 258.202H819.9H820H820.2H820.3H820.4V258.102L820.6 258.202L820.7 258.102H820.8L821 258.202H821.2H821.3L821.4 258.102L821.6 258.202V258.102H821.7H821.8L821.7 258.202H821.8V258.402H821.9L822 258.502L821.9 258.602H821.8L821.7 258.502H821.5H821.4H821.3L821.2 258.402L820.8 258.302H820.7H820.5H820.3V258.402H820.1H819.9L819.6 258.502H819.5H819.3L819.2 258.602L819.1 258.502V258.602H819L818.8 258.802H818.6L818.5 258.902L818.3 259.002L818.2 259.102L818.1 259.202V259.302L818 259.402L817.9 259.502H817.7L817.5 259.602L817.3 259.702H817.2L817.1 259.802V260.002H817H816.9V260.102V260.302H817L816.9 260.502H816.8H816.7L816.8 260.102L816.7 260.002L816.6 259.802V259.702V259.602V259.502H816.5L816.4 259.302L816.3 259.202H816.2L816.1 259.002H816.2H816.3V259.102L816.4 259.202L816.5 259.302H816.6V259.402L816.7 259.502H816.8H816.9H817H817.1H817.2L817.5 259.402H817.6H817.8L817.9 259.302H818L817.9 259.202H818V259.102H818.1V259.002L818.3 258.902L818.4 258.802Z" fill="white"/>
<path fill-rule="evenodd" clip-rule="evenodd" d="M835 299.003V298.803L835.2 298.603V298.503V298.403V298.203L835.1 298.103V297.903V297.803L835.2 297.703V297.603V297.403V297.303V297.203L835.3 297.103L835.4 296.903V296.803L835.5 296.703H835.6L835.7 296.803H835.8L835.9 296.903L836.1 297.103V297.203L836.2 297.703V297.803L836.4 298.203V298.403V298.503L836.5 298.803L836.6 299.003L836.5 299.103H836.4H836.3H836.4V299.003V298.903L836.3 298.703L836.2 298.403V298.303V298.203L836.1 298.103V298.003V297.903V297.803V298.003V298.103H836.2V298.203V298.303V298.203V298.003V297.903L836.1 297.803L836 297.603L835.9 297.403H835.8H835.7L835.6 297.503L835.5 297.403L835.4 297.503L835.3 297.603V297.703V297.803V297.903V298.003V298.103V298.303L835.4 298.403L835.3 298.503V298.703H835.2V298.803L835.1 298.903H835.2H835.1V299.003L835.2 298.903V299.003H835.1H835Z" fill="white"/>
<path fill-rule="evenodd" clip-rule="evenodd" d="M821.6 257.9V257.8L821.7 257.7L821.8 257.5L821.9 257.4L822 257.2L822.2 257L822.3 256.9L822.5 256.8L822.7 256.6L822.9 256.5L823.1 256.4L823.2 256.3H823.3L823.4 256.2H823.5L823.6 256.1L823.7 256H823.8L824 255.7L824.1 255.6L824.2 255.3H824.3V255.4H824.4H824.5V255.5L824.6 255.3V255.1H824.5H824.6V255V255.1V255.3V255.4L824.5 255.5L824.4 255.6H824.2V255.7L824.1 255.8L824 255.9L823.8 256L823.6 256.2L823.5 256.3L823.3 256.4L823.1 256.5L823 256.6L822.8 256.7L822.6 256.8L822.5 256.9H822.4V257L822.2 257.1L822.1 257.2V257.4L822 257.6L821.9 257.7V257.8V258L821.8 257.9H821.9H821.8H821.7V257.8L821.8 257.9H821.9L821.7 257.8L821.9 257.9L821.8 257.8H821.9H821.8L821.9 257.7H821.8V257.6H821.9V257.5V257.6H821.8L821.7 257.7L821.6 257.8V257.9Z" fill="white"/>
<path fill-rule="evenodd" clip-rule="evenodd" d="M825.6 247.897L825.5 247.997L825.4 247.897L825.5 247.797V247.697L825.4 247.597L825.3 247.697V247.797L825.2 247.897L825.1 247.997L825.2 248.097H825.3V247.997H825.4L825.5 248.097H825.4L825.3 248.197L825.2 248.397L825.1 248.597L825 248.797V248.897V248.997V248.897V248.697V248.497V248.397L824.9 248.297H824.8V248.097V247.997L825 247.797L825.1 247.697L825.3 247.597L825.4 247.497V247.397H825.6H825.7H825.8L825.9 247.297L826 247.497H825.9V247.597L826 247.697L825.9 247.797V247.897H825.8H825.7H825.6Z" fill="white"/>
<path fill-rule="evenodd" clip-rule="evenodd" d="M817.1 253.803V253.903V253.803L817 253.903V253.803V253.903V253.803H816.9L816.5 253.603L816.3 253.503L816 253.303L815.8 253.103L815.6 252.903L815.4 252.703V252.603L815.3 252.403L815.1 252.303L814.9 252.203L814.7 252.103H814.6L814.5 252.003L814.4 251.903V252.103L814.5 252.003V252.103L814.4 252.203H814.3V252.303H814.2V252.403H814.1V252.503L814 252.303V252.203L813.9 252.003L813.8 251.903L813.9 252.003H814V252.203H814.2L814.3 252.103H814.4L814.3 251.903V251.803V251.703H814.4L814.5 251.903L814.6 252.003L814.7 252.103L815.1 252.303H815.2L815.3 252.403L815.4 252.603L815.5 252.703L815.6 252.803L815.7 252.903L815.8 253.003L815.9 253.103L816 253.203H816.1L816.2 253.303L816.3 253.403H816.4L816.8 253.603L817 253.703L817.2 253.803L817.3 253.703V253.803L817.2 253.903L817.3 253.803H817.2H817.1Z" fill="white"/>
<path fill-rule="evenodd" clip-rule="evenodd" d="M825.599 304.403L825.699 304.503L825.799 304.603V304.703L825.999 305.003L826.299 305.403L826.399 305.503L826.699 305.803L826.999 306.203H827.099L827.199 306.403H827.299V306.503V306.603V306.703L827.399 307.103V307.303V307.503V307.603L827.299 307.903V308.103L827.199 308.303L827.099 308.503L826.999 308.703L826.699 308.903V309.003L826.399 309.403L826.299 309.503L826.199 309.603H825.999H825.799H825.699L825.299 309.503L825.099 309.403L824.999 309.303H825.099V309.203L825.199 309.103H825.299V309.203L825.399 309.303L825.499 309.403L825.699 309.503H825.799H825.999H826.099L826.199 309.403L826.299 309.303H826.399L826.499 309.103L826.699 308.903L826.799 308.703L826.899 308.603L826.999 308.403L827.099 308.203L827.199 307.903L827.299 307.703V307.603V307.503V307.303V307.203V307.003L827.199 306.803V306.703L827.099 306.503L826.899 306.303L826.799 306.103L826.599 305.903L826.499 305.803L826.299 305.603L826.199 305.403L825.999 305.103L825.799 305.003V304.903V304.803L825.699 304.703L825.599 304.503L825.299 304.203L825.199 304.003L825.099 303.803V303.503L824.999 303.303L824.699 303.003L824.499 302.903L824.399 302.803L824.299 302.703L824.199 302.603V302.503L823.999 302.403H823.899H823.799L823.699 302.303L823.599 302.203V302.103V302.003L823.499 301.803L823.299 301.703L823.199 301.603V301.503L823.099 301.403L822.999 301.303H822.899V301.203H822.799V301.103L822.699 301.003L822.599 300.903L822.499 300.803L822.399 300.903H822.199L822.299 300.803H822.199V300.703H822.299H822.399H822.499L822.599 300.803L822.799 301.003L822.899 301.103L822.999 301.203L823.199 301.403L823.299 301.503L823.599 301.703L823.799 302.003L823.899 302.103V302.203L824.199 302.403H824.299L824.399 302.503L824.499 302.603L824.799 302.803V302.903L824.999 303.103L825.099 303.303L825.199 303.503V303.603V303.703V303.803L825.299 303.903V304.003L825.499 304.203L825.599 304.403Z" fill="white"/>
<path fill-rule="evenodd" clip-rule="evenodd" d="M825.599 334.797H825.699V334.897H825.799H825.899L825.999 334.997L826.199 335.097H826.299L826.399 335.197L826.499 335.297L826.599 335.397H826.699V335.497H826.799V335.597H826.899L826.999 335.797H827.099H827.199V335.897H827.299H827.399V335.997H827.499L827.599 336.097L827.699 336.197L827.799 336.297L827.899 336.397V336.497L827.999 336.597H828.099L828.299 336.797V336.897V336.997L828.199 337.397L828.099 337.597V337.697H827.999L827.899 337.797L827.799 337.897H827.599V337.997H827.499H827.399V338.097L827.299 338.197H827.199L827.099 338.297L826.999 338.397V338.497H826.899L826.799 338.797L826.699 338.997V339.097L826.599 339.197L826.499 339.497L826.399 339.597V339.697V339.797L826.299 339.897V339.997L826.199 340.097V340.297L826.099 340.497L825.999 340.697V340.797V340.897L825.899 341.097L825.799 341.197V341.297L825.699 341.397L825.599 341.497V341.597L825.499 341.697L825.399 341.797H825.299V341.897H825.199H825.099H824.999H824.899V341.797L824.699 341.697V341.597V341.497L824.799 341.597H824.899V341.697V341.797H824.999V341.897L825.099 341.797H825.199H825.299V341.697L825.399 341.597H825.499H825.599V341.497V341.397H825.499L825.399 341.297H825.499V341.197H825.599V341.297L825.699 341.197V340.997H825.599V341.097V341.197L825.499 341.097V341.197L825.399 340.997V341.097V340.997H825.499V341.097V340.997V340.897L825.699 340.697L825.899 340.397L825.999 340.197L826.099 340.097L826.199 339.897L826.299 339.597V339.397L826.399 339.297V339.097L826.499 338.897L826.599 338.797V338.697V338.597H826.699L826.999 338.297L827.099 338.197L827.199 338.097H827.299L827.399 337.997L827.599 337.897V337.797H827.699L827.899 337.597V337.497L827.999 337.397V337.197L827.899 336.997V336.897L827.799 336.797L827.699 336.697L827.599 336.497H827.499L827.299 336.297L827.199 336.197L826.999 336.097L826.899 335.997H826.799L826.699 335.897H826.599V335.797L826.499 335.697H826.399L826.499 335.597V335.497V335.397H826.399L826.299 335.497H826.199L826.099 335.597L825.999 335.497V335.397L825.899 335.297V335.497L825.999 335.597L825.899 335.497V335.397V335.297V335.397H825.799V335.497H825.699L825.799 335.397V335.297V335.197V335.397H825.699L825.599 335.497V335.297H825.499L825.399 335.197V335.097L825.499 334.997V334.897L825.599 334.797Z" fill="white"/>
<path fill-rule="evenodd" clip-rule="evenodd" d="M660 799L660 199L664 199L664 799L660 799Z" fill="white"/>
<path fill-rule="evenodd" clip-rule="evenodd" d="M198 800L198 200L202 200L202 800L198 800Z" fill="white"/>
</svg>
