<svg width="1000" height="1000" viewBox="0 0 1000 1000" fill="none" xmlns="http://www.w3.org/2000/svg">
<path d="M112.271 125.771C110.076 127.509 107.789 128.241 103.674 128.698C98.9182 129.064 97.6378 129.612 95.8087 131.807C94.4369 133.453 92.7907 134.368 91.236 134.368C89.8641 134.368 85.2914 135.648 81.0845 137.295C74.0425 140.13 73.2194 140.678 69.8356 145.708C63.7996 154.488 61.7876 160.524 61.7876 169.852C61.7876 176.803 61.5132 178.175 59.9585 179.638C57.7636 181.65 57.6721 183.205 59.5927 188.418C61.4217 193.539 65.4458 219.146 65.4458 225.914C65.4458 229.115 64.6227 233.048 63.2508 236.523C62.0619 239.541 60.5987 245.485 59.9585 249.692C58.9525 256.369 59.0439 258.015 60.3243 262.313C62.4277 269.538 62.2448 276.214 59.5927 281.427C54.3797 291.944 54.1054 293.773 55.2943 315.631C55.843 326.606 56.5746 338.129 56.9405 341.33L57.3977 347.092L51.9105 354.042C48.3437 358.523 43.5881 366.388 38.9239 375.9C30.5101 392.636 30.3272 393.916 35.3572 402.513C37.1863 405.623 38.0094 408.183 38.0094 411.018C38.0094 419.066 44.4112 428.578 53.2823 433.882C55.7516 435.345 56.5746 436.809 58.5867 443.393C63.7996 460.678 65.3543 463.605 71.5732 468.269C74.6827 470.555 79.987 473.939 83.4623 475.677C90.7787 479.518 96.9976 480.341 119.861 480.432L134.494 480.524L139.25 483.725C142.359 485.828 144.645 488.298 145.926 490.95C147.023 493.145 150.681 498.998 154.248 503.845L160.559 512.807L166.503 513.996C172.173 515.094 172.631 515.368 175.191 519.484C176.746 521.77 181.959 527.166 186.898 531.281L195.769 538.781L201.347 538.415C207.749 538.049 215.431 534.574 216.803 531.556C217.352 530.184 218.815 529.361 221.193 528.995C225.309 528.263 226.406 526.251 226.406 519.118C226.406 513.539 226.68 513.082 231.07 510.43C232.808 509.332 235.094 507.595 236.009 506.589C237.655 504.759 237.655 504.668 235.734 502.656C234.728 501.559 233.631 499.181 233.265 497.443C232.808 494.882 231.802 493.602 228.692 491.681C225.583 489.669 224.668 488.48 224.12 485.828C223.205 480.89 220.644 476.408 216.437 472.293C213.602 469.549 212.688 467.995 212.688 465.8C212.688 463.513 211.956 462.233 209.578 460.221C206.194 457.477 203.451 451.99 198.421 437.997C195.494 429.767 195.311 428.669 195.311 416.963C195.311 398.032 191.745 387.606 181.41 375.9L177.02 370.87V354.957L173.82 353.036C171.442 351.664 170.619 350.567 170.619 348.829C170.619 346.177 166.595 341.879 161.473 339.226C158.729 337.855 157.906 336.666 156.169 331.27C155.071 327.795 154.157 322.673 154.157 319.93C154.157 316.637 153.517 313.985 152.419 312.064C150.773 309.412 150.681 307.949 151.139 294.231C151.687 279.507 151.779 279.232 154.797 273.745C156.717 270.27 157.998 266.337 158.272 263.685C158.455 261.216 159.095 253.808 159.736 247.315C160.742 235.883 160.65 235.243 158.729 230.395C155.712 222.713 155.163 207.989 157.724 200.764C158.821 197.746 159.644 193.722 159.644 191.71C159.644 188.966 160.467 186.772 162.754 183.388L165.863 178.724L165.406 167.566L164.857 156.5L159.461 149.824C153.517 142.599 152.328 140.313 152.328 136.197C152.328 132.722 149.858 131.167 141.719 129.247C138.244 128.515 132.299 126.869 128.458 125.588C119.495 122.753 116.112 122.753 112.271 125.771Z" fill="white"/>
<path d="M908.566 630.686C907.286 630.868 903.719 633.246 900.518 635.99C897.409 638.734 894.299 641.02 893.751 641.02C893.111 641.02 891.099 641.477 889.178 642.026C882.959 643.764 881.496 652.36 887.166 654.921C888.446 655.47 889.452 656.75 889.452 657.665C889.452 658.579 890.093 660.866 890.824 662.695C892.196 666.078 892.196 666.078 889.087 669.279C885.794 672.663 883.782 677.145 882.685 683.546C882.319 685.558 881.404 688.759 880.581 690.588C879.209 693.972 878.935 694.064 874.545 694.064C870.155 694.064 869.698 694.338 863.479 700.191C859.638 703.849 854.425 707.69 850.676 709.611C844.731 712.629 843.634 712.812 834.305 713.086C826.44 713.361 823.696 713.818 821.41 715.19C819.764 716.196 816.837 716.927 814.46 716.927C812.173 717.019 809.338 717.567 808.058 718.299C806.777 719.031 803.668 719.579 801.107 719.671C796.809 719.671 796.077 719.397 792.602 715.921L788.852 712.08L782.176 712.629C778.609 712.903 772.39 712.537 768.458 711.989C762.33 710.983 760.867 710.434 757.941 707.599C756.112 705.861 752.545 703.026 750.076 701.38C746.052 698.636 745.228 698.453 740.839 699.002C738.186 699.276 735.351 699.825 734.528 700.1C732.059 701.014 732.882 704.124 736.083 705.77C737.638 706.593 741.204 709.519 743.857 712.08C746.509 714.732 749.161 716.927 749.71 716.927C750.35 716.927 752.636 718.482 754.923 720.403C763.062 727.17 770.927 731.834 789.584 740.888L808.515 750.034L822.69 749.668L836.866 749.211L846.469 754.607C857.626 760.917 864.12 766.77 867.046 773.172C869.515 778.659 875.003 783.964 879.575 785.518C883.142 786.616 889.269 792.835 893.751 799.785C896.586 804.266 903.719 808.108 914.054 810.76C920.364 812.406 921.096 812.863 925.577 817.985C930.881 824.204 935.18 833.715 935.18 839.568C935.18 844.689 937.192 847.707 942.588 850.634C948.898 854.201 954.568 854.109 959.598 850.451C962.799 848.073 963.439 847.067 964.354 842.495C965.634 835.727 964.72 806.827 963.073 801.066C962.433 798.779 961.61 791.554 961.336 784.878C960.696 771.8 961.061 770.611 965.908 769.422C968.469 768.782 968.561 768.508 966.823 764.392C965.726 761.74 964.354 754.698 962.067 740.888C961.793 739.242 960.33 736.407 958.684 734.578C955.94 731.469 955.757 730.645 955.117 722.506C954.294 710.343 953.288 707.416 949.172 705.313C946.246 703.849 945.423 702.752 943.228 696.807C941.399 691.686 940.758 688.211 940.758 683.18C940.667 677.327 940.301 675.956 938.289 673.303C937.009 671.566 934.997 668.548 933.808 666.536L931.704 662.786L933.625 656.933L935.546 650.988L933.351 646.69C932.07 644.404 928.869 639.648 926.217 636.264L921.37 630.045L916.157 630.137C913.322 630.228 909.847 630.503 908.566 630.686Z" fill="white"/>
<path d="M331.579 758.087C331.03 759.185 329.658 759.917 328.286 759.917C324.72 759.917 319.232 763.117 317.952 766.044C317.312 767.416 316.58 771.714 316.306 775.647C315.757 782.323 315.94 782.78 318.775 787.536C320.787 790.737 322.342 794.852 323.256 799.699L324.72 807.016L328.835 807.564C337.432 808.845 342.462 812.229 345.206 818.722L347.126 823.112L345.297 826.678C344.291 828.69 343.468 831.343 343.468 832.623C343.468 834.909 343.468 834.909 346.669 833.629C349.687 832.349 349.961 832.349 352.705 834.635C355.54 837.013 355.723 837.104 367.795 836.83C378.221 836.647 380.05 836.83 380.05 838.019C380.05 841.768 385.994 843.689 388.006 840.488C389.195 838.568 391.482 838.75 398.615 841.403C401.907 842.591 402.273 842.5 403.645 840.671C404.468 839.573 406.663 838.385 408.492 838.11C411.602 837.562 412.242 837.836 418.278 843.049C421.845 846.158 424.954 848.628 425.228 848.628C425.411 848.628 425.777 847.53 425.96 846.25C426.417 842.409 428.887 841.403 432.453 843.598C434.557 844.878 437.666 845.518 443.611 845.884C451.293 846.341 451.842 846.524 452.116 848.353C452.482 850.548 453.579 851.097 454.585 849.542C455.5 847.987 457.512 848.536 460.347 850.914C462.633 852.834 464.005 853.2 469.035 853.2C474.797 853.2 478.638 854.481 490.07 860.334C490.435 860.517 490.71 859.602 490.71 858.322C490.71 856.95 491.35 855.67 492.082 855.395C493.088 854.938 493.453 853.383 493.453 849.268C493.453 844.238 493.088 843.232 488.972 836.738C486.411 832.897 483.485 827.776 482.387 825.49C480.193 820.917 476.717 818.539 469.218 816.344C466.657 815.612 461.627 813.509 457.969 811.68C454.402 809.851 450.104 808.388 448.458 808.388C444.617 808.296 442.605 807.107 437.758 801.803C435.563 799.425 431.63 796.407 428.978 795.035C425.686 793.48 423.765 791.834 423.033 790.005C422.393 788.542 421.204 787.353 420.29 787.353C419.375 787.353 416.54 786.621 413.979 785.798C410.504 784.701 408.858 783.603 407.852 781.683C407.12 780.311 404.377 777.476 401.633 775.464C397.06 771.989 396.42 771.806 390.384 771.806C384.44 771.806 383.342 771.44 375.386 767.233C368.892 763.849 365.783 762.66 362.856 762.66C360.296 762.66 357.918 761.929 356.18 760.74C353.711 759.002 353.254 758.911 349.047 760.191L344.474 761.471L343.376 758.911C342.37 756.441 342.005 756.258 337.432 756.258C333.499 756.258 332.402 756.624 331.579 758.087Z" fill="white"/>
<path d="M374.563 865.453C374.563 872.678 375.477 876.245 377.215 875.879C378.312 875.696 378.587 874.598 378.404 871.489C377.946 863.898 377.215 860.514 375.843 860.514C374.928 860.514 374.563 861.795 374.563 865.453Z" fill="white"/>
<path d="M348.955 866.002C347.857 866.733 347.949 867.556 350.052 871.672L352.522 876.519V870.757C352.613 864.996 351.973 864.081 348.955 866.002Z" fill="white"/>
<circle id="809" cx="62" cy="344" fill="#5CE50D"/>
<circle id="808" cx="881" cy="689" fill="#E52A0D"/>
<circle id="807" cx="104" cy="169" fill="#E52A0D"/>
<circle cx="375" cy="772" fill="#E52A0D"/>
</svg>
