<svg width="1000" height="1000" viewBox="0 0 1000 1000" fill="none" xmlns="http://www.w3.org/2000/svg">
<path d="M165.521 20.8341C158.096 22.432 156.686 23.09 152.832 26.6619C149.542 29.7637 147.38 30.9856 144.278 31.4557C142.022 31.8317 139.39 32.7716 138.45 33.6175C137.135 34.8395 135.819 34.9335 131.871 34.3696C129.145 33.8996 124.163 33.6175 120.873 33.7115C115.891 33.8996 114.575 34.2756 112.789 36.2494C110.064 39.0693 106.868 39.9153 101.416 39.1633C98.5021 38.7873 97.2801 38.9753 97.2801 39.8213C97.2801 40.3853 96.8101 42.5472 96.3401 44.4271C95.4002 47.717 94.9302 47.999 88.8204 49.9729C82.9927 51.8528 82.2407 52.4168 81.6767 54.9547C81.3947 56.5527 80.0788 59.1846 78.8568 60.8765C77.6349 62.4744 76.6009 64.9183 76.6009 66.2342C76.6009 68.0202 76.0369 68.6782 73.969 69.1481C72.5591 69.4302 70.2092 71.1221 68.7992 72.908C66.9193 75.2579 64.8514 76.4798 60.7156 77.6078L55.2638 79.2057L54.6998 84.4695C54.2298 88.6054 53.5718 90.2973 51.7859 91.8013C50.564 92.9292 48.966 95.6551 48.4021 97.911C47.7441 100.167 46.4281 103.645 45.4882 105.619C43.8902 108.721 43.7022 109.849 44.6422 114.454C45.1122 117.368 45.5822 124.982 45.5822 131.28C45.5822 142.841 45.5822 142.935 42.1983 148.951C38.4385 155.813 38.5324 158.257 42.5743 159.667C43.9842 160.231 49.436 163.05 54.6998 166.152L64.2874 171.698L74.627 187.395C80.3608 196.043 85.4366 203.093 85.9066 203.093C87.5045 203.093 89.0084 210.424 88.3505 214.842C87.9745 217.192 88.1625 220.294 88.8204 222.268C89.7604 225.276 90.2304 225.652 93.1443 225.652C95.6822 225.652 96.5281 226.122 97.1861 227.814C97.7501 229.13 99.63 230.446 102.544 231.574C106.868 233.078 107.432 233.736 111.662 241.161C115.609 248.117 116.831 249.527 120.873 251.501C123.411 252.817 127.265 255.919 129.427 258.363C143.432 273.872 144.936 275 158.284 280.64C165.239 283.554 174.545 287.407 178.963 289.099C183.381 290.791 188.362 292.859 189.866 293.705C191.464 294.551 193.25 295.209 194.002 295.209C195.412 295.209 202.932 299.251 215.245 306.489C219.381 308.933 224.927 311.658 227.465 312.504C232.165 314.008 232.165 314.102 236.207 322.75C238.65 328.014 240.154 332.714 240.154 334.876C240.154 337.507 240.906 339.199 243.256 341.831C244.854 343.711 247.768 348.223 249.554 351.983L252.844 358.657L259.612 360.724C263.371 361.852 268.165 364.108 270.327 365.706C272.677 367.398 275.497 368.526 277.189 368.526C281.513 368.526 287.341 372.192 288.374 375.576C288.844 377.08 290.16 379.336 291.194 380.464C292.886 382.438 293.262 382.438 295.706 381.216C300.124 378.866 303.696 379.43 307.832 383.19L311.498 386.573L328.229 385.258L332.083 388.641C335.843 392.025 335.937 392.119 338.756 390.709C342.422 388.735 357.18 388.735 364.229 390.615C367.049 391.367 371.279 392.025 373.629 392.025C377.671 392.025 377.953 392.213 378.799 395.033C379.551 397.289 380.397 398.229 382.559 398.699C384.157 399.075 386.695 399.921 388.386 400.579C391.112 401.707 391.676 401.613 393.556 399.827C396.188 397.477 401.264 397.853 404.366 400.767C406.434 402.553 406.622 402.553 410.57 401.049C414.141 399.733 414.987 398.793 416.303 395.409C417.807 391.555 418.277 391.179 422.319 390.333C430.309 388.547 458.696 388.171 468.565 389.675C473.453 390.427 477.777 391.085 478.247 391.085C478.623 391.085 478.905 393.529 478.905 396.443V401.895L487.647 411.012C493.38 416.934 497.422 420.412 499.584 421.164C503.156 422.292 527.313 424.924 534.833 424.924C541.13 424.924 545.83 428.026 547.334 433.196C548.65 437.613 550.53 439.399 553.162 438.741C554.478 438.365 555.606 439.023 557.016 440.997C558.426 442.971 559.742 443.723 561.716 443.723C564.723 443.723 577.695 450.021 591.512 458.105C598.656 462.24 600.912 464.12 603.638 468.256C605.518 471.076 609.936 476.528 613.507 480.476C619.053 486.773 619.899 488.183 619.899 491.379C619.899 496.267 622.343 505.667 624.505 508.581C625.351 509.897 626.667 512.34 627.231 514.032C628.641 518.074 626.855 521.834 622.249 524.842C619.711 526.44 618.959 527.568 618.959 529.824C618.959 533.114 621.779 537.343 624.599 538.189C627.325 539.035 627.325 548.905 624.599 551.349C623.095 552.665 622.719 554.263 622.719 558.399V563.85L618.959 565.354C616.891 566.2 614.635 566.858 613.977 566.858C613.413 566.858 610.688 567.892 608.056 569.114L603.168 571.37L605.142 578.326L607.116 585.188L612.568 587.725C617.925 590.169 618.019 590.357 618.019 594.023C618.019 596.749 618.489 598.065 619.805 598.723C621.215 599.475 621.403 600.509 621.121 604.645C620.933 607.371 620.275 611.13 619.805 613.01C618.865 615.924 619.147 617.146 621.497 622.786C624.223 629.178 624.411 629.366 628.265 630.024C632.025 630.682 632.683 630.4 637.477 626.922C642.552 623.162 642.646 622.974 641.894 619.684C641.518 617.71 641.142 611.412 641.048 605.679C641.048 597.501 641.33 594.681 642.458 593.365C644.432 590.827 655.054 585.376 657.122 585.846C658.062 586.034 660.976 589.229 663.607 592.895C667.837 599.005 668.683 599.757 671.409 599.757C674.323 599.757 674.417 599.569 674.417 596.185C674.417 593.365 675.075 591.955 677.613 589.511C679.399 587.725 681.467 586.597 682.501 586.785C683.817 586.973 684.381 586.409 684.569 584.436C684.945 581.146 689.174 579.078 695.566 579.078H699.796V583.214C699.796 586.503 700.266 587.631 702.052 588.853C704.214 590.263 704.684 590.169 708.914 588.383C714.083 586.221 714.835 585.281 714.835 581.24C714.835 578.89 713.989 577.48 710.606 574.566C706.752 571.182 706.376 570.43 706.376 566.576V562.346L710.888 561.782C720.005 560.467 720.099 560.467 721.321 556.425C722.167 553.699 723.295 552.289 725.457 551.255C728.277 549.939 728.465 549.563 728.183 545.427C727.995 542.983 727.337 540.539 726.679 540.069C726.021 539.505 724.517 536.497 723.201 533.302C721.791 529.542 720.287 527.192 718.877 526.534C717.373 525.782 716.715 524.748 716.715 522.774C716.715 518.826 714.929 517.51 707.316 515.63C700.642 514.032 700.548 513.844 695.754 507.547C692.276 502.847 690.302 501.061 688.798 501.061C687.482 501.061 686.637 501.625 686.637 502.471C686.637 503.317 685.791 506.325 684.757 509.239C683.723 512.246 682.877 515.536 682.877 516.664C682.877 520.048 680.151 521.646 675.169 521.082C671.315 520.612 670.657 520.236 669.623 517.698C668.871 516.006 668.495 513.562 668.683 512.152C668.777 510.742 668.401 508.675 667.743 507.453C665.393 502.941 658.908 496.079 655.712 494.763C651.952 493.165 649.32 490.345 648.568 486.867C648.004 484.33 644.808 482.262 641.33 482.262C640.296 482.262 636.913 481.416 633.905 480.288C628.829 478.408 628.547 478.22 629.487 476.152C630.239 474.366 630.051 473.332 628.453 470.7C627.419 468.914 626.479 466.564 626.479 465.53C626.479 463.274 619.993 457.823 617.267 457.823C613.977 457.823 612.38 456.789 612.38 454.627C612.38 451.337 607.868 447.765 602.792 447.013C599.878 446.543 598.28 445.885 598.28 445.039C598.28 444.099 597.058 443.723 594.52 443.723C591.418 443.723 590.572 443.347 589.632 441.373C588.974 439.963 587.471 438.835 585.685 438.459C580.421 437.331 577.601 435.263 575.345 430.752C574.123 428.308 572.807 424.266 572.431 421.822C571.867 418.344 571.209 417.122 568.765 415.618L565.851 413.738L563.407 416.088C561.246 418.156 560.682 418.25 558.05 417.31C552.974 415.524 551.94 412.234 551.752 396.631C551.564 383.566 551.47 382.72 549.214 379.712C546.864 376.61 546.864 376.422 548.086 370.406C548.838 367.022 549.214 363.826 549.026 363.262C548.838 362.792 546.112 361.57 543.01 360.536C539.25 359.409 536.243 357.811 534.269 355.743L531.167 352.547L530.039 326.134L520.075 316.076C509.642 305.455 506.822 301.319 502.874 290.979C501.558 287.501 499.678 283.178 498.644 281.58C497.61 279.888 496.764 277.444 496.764 276.128C496.764 272.462 495.166 269.078 493.098 268.42C492.064 268.138 491.03 266.728 490.654 265.224C490.372 263.814 487.835 260.43 485.015 257.611C481.819 254.509 479.845 251.595 479.469 249.715C478.999 247.459 477.119 245.203 471.761 240.785C466.121 235.991 453.62 222.174 445.254 211.458C444.408 210.33 444.314 209.203 444.972 207.511C445.818 205.255 445.536 204.879 441.306 202.153C438.204 200.179 436.513 198.393 436.137 196.607C435.855 195.103 434.539 192.941 433.223 191.813C431.813 190.403 430.967 188.523 430.967 186.737C430.873 182.414 428.805 179.5 424.763 177.808C418.653 175.27 411.416 169.16 410.382 165.588C408.878 160.606 404.93 157.035 400.888 157.035C397.88 157.035 397.222 156.565 395.436 153.369C394.308 151.395 393.368 148.199 393.368 146.319C393.368 142.653 391.77 141.525 385.191 140.397C383.217 140.021 381.243 138.799 379.739 136.731C377.671 134.006 376.731 133.536 373.535 133.536C371.467 133.536 367.237 132.408 363.947 130.81C359.436 128.836 357.744 127.426 356.334 124.7C355.3 122.726 353.796 121.316 352.856 121.316C349.848 121.316 338.944 116.804 334.809 113.796C329.733 110.13 296.552 75.0699 292.04 68.4902C287.716 62.3804 282.265 59.2786 275.403 59.2786C272.301 59.2786 269.763 58.6206 267.883 57.3986C266.285 56.3647 263.465 55.5187 261.492 55.5187C259.33 55.5187 255.476 54.2967 251.622 52.3228C246.734 49.8789 244.948 48.375 243.726 45.7431C242.316 42.8292 241.564 42.3592 238.932 42.3592C237.241 42.3592 234.985 43.0172 233.951 43.7692C233.011 44.5211 231.507 45.1791 230.849 45.1791C230.097 45.1791 228.311 46.3071 226.901 47.623L224.269 50.1609L220.227 48.469C215.057 46.4011 213.835 45.3671 213.835 42.9232C213.741 39.1633 210.358 33.2416 206.974 31.1737C205.188 30.0457 203.402 28.1658 203.12 26.9438C202.086 22.62 197.198 20.7401 187.61 20.7401C182.535 20.7401 179.057 20.3641 179.057 19.8001C179.057 18.4842 175.203 18.7662 165.521 20.8341Z" fill="white"/>
<path d="M815.223 645.813C811.745 647.881 795.39 651.453 785.05 652.393C774.429 653.333 773.677 653.239 770.669 651.453C767.003 649.103 764.465 649.573 762.961 652.863C762.397 654.085 760.141 656.059 757.979 657.187C754.22 659.067 754.031 659.255 755.911 660.289L757.885 661.323L755.723 666.68C753.844 671.38 751.588 674.2 746.418 678.524C745.572 679.182 744.914 680.592 744.914 681.532C744.914 682.566 743.222 685.198 741.154 687.266C739.086 689.427 737.206 692.059 737.018 693.187C736.83 694.221 736.172 697.699 735.608 700.895C735.044 703.997 734.574 707.381 734.574 708.509C734.574 709.825 733.446 710.953 730.814 712.081C727.431 713.584 727.055 714.148 727.055 717.25C727.055 719.224 726.491 721.292 725.739 721.95C724.987 722.514 721.791 726.838 718.595 731.444C711.357 741.971 708.349 750.807 705.435 769.418C703.368 783.236 703.368 783.706 704.966 790.567C705.905 794.421 707.127 802.881 707.785 809.367L709.007 821.116L705.811 824.5L702.522 827.884L702.71 843.393C702.804 856.177 702.616 859.373 701.3 861.817C700.36 863.602 699.044 864.824 698.01 864.824C696.6 864.824 696.224 865.764 695.848 870.182L695.378 875.54L701.206 881.274C706.187 886.256 707.127 887.665 707.503 891.237C708.067 896.313 712.485 905.525 718.125 913.514C722.355 919.436 722.355 919.53 722.355 927.426V935.322L725.645 936.638C727.807 937.577 729.311 939.081 730.25 941.243C731.096 943.405 732.506 944.815 734.48 945.473C736.736 946.225 737.394 947.071 737.394 948.857C737.394 950.831 738.522 951.771 744.444 954.779C748.298 956.659 751.494 958.821 751.494 959.479C751.494 960.137 752.34 961.547 753.374 962.58C754.407 963.614 755.253 965.682 755.253 967.28C755.253 969.724 755.723 970.1 759.201 971.134C761.457 971.698 764.841 973.014 766.721 973.954C768.601 974.894 771.139 975.74 772.267 975.74C773.489 975.74 775.275 976.492 776.309 977.432C777.437 978.372 779.599 979.688 781.29 980.346C784.016 981.474 784.862 981.286 790.878 978.56C794.45 976.868 797.646 974.894 797.928 974.142C798.398 973.014 799.056 973.108 801.782 974.8C804.789 976.68 805.542 976.774 809.677 975.74C814.001 974.706 814.283 974.424 815.411 970.476C816.445 966.998 817.197 965.964 820.017 964.836C821.897 964.084 824.341 963.614 825.469 963.802C826.691 963.99 828.571 963.238 830.168 962.016C832.236 960.231 833.928 959.855 838.628 959.761C844.08 959.761 844.832 959.479 848.216 956.377L851.976 953.087L860.341 953.275C868.425 953.463 869.083 953.275 874.065 950.267C888.164 941.807 891.266 941.243 901.136 945.191C904.331 946.507 907.245 947.541 907.715 947.541C909.501 947.541 915.705 942.747 917.209 940.115C918.055 938.611 921.627 935.698 925.105 933.63C933.94 928.366 936.948 924.23 937.794 916.522C938.734 907.123 939.956 900.825 941.084 899.415C941.648 898.757 942.4 896.031 942.682 893.493C943.81 885.692 944.186 884.94 947.57 883.342C950.39 881.932 950.766 881.368 950.766 878.172C950.766 875.728 951.424 873.942 952.646 872.814C954.15 871.404 954.526 869.9 954.526 864.354C954.526 859.937 954.056 857.023 953.116 855.801C951.612 853.827 951.236 849.785 952.552 849.785C954.901 849.785 956.405 846.589 956.405 841.607C956.405 837.471 956.781 836.156 958.473 834.84L960.541 833.148L958.003 828.918C956.687 826.568 954.244 820.458 952.552 815.382C949.826 806.829 949.732 805.795 950.766 801.847C953.304 792.353 953.116 787.371 949.544 778.536C945.032 767.256 943.81 760.771 945.032 754.755C945.596 752.217 946.066 747.987 946.066 745.543C946.066 741.783 945.784 740.843 944.186 740.467C942.682 740.091 942.306 739.151 942.306 735.768C942.306 733.418 942.682 730.41 943.152 729.188C943.904 727.214 943.622 726.462 941.178 724.206C939.674 722.702 937.512 719.882 936.478 717.908C935.35 715.558 933.564 713.772 931.496 712.926C928.207 711.61 922.849 704.937 921.063 699.861C920.405 698.075 919.277 696.947 918.055 696.759C915.423 696.383 913.919 693.563 914.671 690.461C915.423 687.453 913.919 685.574 908.937 683.318C906.869 682.378 904.425 681.062 903.58 680.404C902.264 679.464 901.418 679.558 898.88 680.686C896.06 682.002 895.402 682.002 892.488 680.78C890.702 679.934 886.848 679.088 884.028 678.806C878.953 678.242 878.859 678.148 873.501 671.192C870.493 667.338 867.861 663.014 867.579 661.604C867.203 660.195 865.511 657.187 863.725 654.837C861.281 651.641 859.683 650.419 856.957 649.949C855.077 649.573 852.164 648.257 850.472 647.035C847.934 645.061 847.182 644.873 845.49 645.813C842.106 647.599 823.119 647.881 820.769 646.283C818.419 644.685 817.385 644.591 815.223 645.813Z" fill="white"/>
<circle id="576" cx="470" cy="374" fill="#5CE50D"/>
<circle id="577" cx="410" cy="224" fill="#E52A0D"/>
<circle id="1486" cx="207" cy="290" fill="#E52A0D"/>
<circle id="578" cx="723" cy="852" fill="#E52A0D"/>
</svg>
