<svg width="1000" height="1000" viewBox="0 0 1000 1000" fill="none" xmlns="http://www.w3.org/2000/svg">
<path fill-rule="evenodd" clip-rule="evenodd" d="M840.371 1.48829C844.473 -0.464823 847.402 0.316471 847.988 3.73438C848.379 5.39452 849.453 5.78518 855.117 6.46876C860.488 7.05468 862.344 6.85932 864.102 5.68751C868.789 2.66016 875.332 5.00391 872.305 8.6172C871.719 9.30082 871.524 11.0587 871.914 12.4258C872.305 13.9883 872.109 14.9649 871.426 14.9649C869.961 14.9651 870.059 17.6015 871.621 18.1875C872.207 18.3828 876.504 18.3828 881.094 18.1875C887.637 17.7969 889.785 17.9923 891.348 19.1641C893.301 20.7266 893.301 20.7266 890.957 25.2188C888.809 29.3203 888.613 30.297 889.297 39.4766C889.981 49.9257 890.762 52.3672 894.473 55.2969C895.645 56.2734 896.719 57.8359 896.719 58.8125C896.719 61.0585 910.293 73.0698 912.734 73.0703C914.395 73.0703 914.883 73.9493 915.469 77.8555C916.348 84.2031 917.52 85.2773 920.547 82.4453C922.402 80.6875 922.793 79.6133 922.402 76.1953C921.817 71.1173 923.672 68.7736 926.699 70.7266C927.969 71.5078 928.945 73.8516 929.727 78.3438C930.313 81.8593 932.168 87.2305 933.731 90.1602C935.684 93.6758 936.758 96.8985 936.758 99.5352C936.758 103.734 937.93 104.809 943.106 104.809C945.938 104.809 950.918 114.77 949.453 117.504C947.891 120.336 948.281 122.387 950.918 125.512C953.848 129.027 954.043 130.785 951.504 132.152C948.184 133.91 944.766 133.227 942.227 130.492C940.274 128.442 939.981 127.562 940.859 126.488C941.445 125.805 942.031 123.559 942.227 121.605C942.324 119.652 942.227 118.969 941.934 120.238C941.738 121.508 940.859 122.777 940.078 123.07C939.297 123.363 938.711 124.438 938.711 125.414C938.711 126.781 938.027 127.27 935.879 127.27C933.145 127.27 933.047 127.172 933.535 123.363C934.023 120.141 933.828 119.457 932.461 119.457C931.094 119.457 930.899 120.043 931.387 122.387C932.07 125.609 931.191 126.098 927.871 124.047C926.113 123.07 925.625 123.168 923.672 125.512C921.328 128.539 919.57 128.832 916.836 126.781C913.711 124.34 912.149 124.828 913.516 127.855C914.395 129.809 914.395 130.785 913.418 132.348C912.539 133.812 912.442 134.594 913.223 135.375C914.883 137.035 914.492 138.988 912.344 138.988C910.977 138.988 910.293 139.867 909.805 142.406C909.512 144.262 908.633 145.824 907.949 145.824C907.266 145.824 906.191 147.192 905.606 148.852C904.238 152.758 902.188 152.074 901.797 147.484C901.602 145.531 901.113 143.871 900.723 143.871C900.332 143.872 898.379 145.629 896.328 147.68C893.008 151.098 889.688 157.836 888.223 163.988C887.93 165.16 886.563 166.332 884.707 166.918C881.485 167.797 879.727 171.215 882.461 171.215C883.34 171.215 884.023 171.996 884.023 173.168C884.023 175.609 883.242 175.609 880.606 173.168C879.043 171.703 877.773 171.313 875.43 171.801C872.696 172.387 872.305 172.875 872.305 175.512C872.305 179.809 870.938 181.762 869.57 179.418C868.692 177.953 868.398 178.344 867.422 182.055C866.738 184.398 866.055 186.938 865.859 187.621C865.566 188.695 865.176 188.598 863.906 187.426C863.125 186.547 862.148 185.863 861.758 185.863C860.976 185.865 857.656 199.047 857.656 202.074C857.656 203.148 857.266 204.418 856.777 205.004C856.289 205.492 855.703 206.664 855.508 207.543C855.215 209.105 855.02 209.203 852.383 207.836C850.918 207.055 849.258 206.371 848.77 206.371C847.207 206.372 844.961 212.914 845.059 217.211C845.156 219.555 844.961 224.242 844.473 227.562C843.594 234.301 843.008 234.789 838.027 232.25C835.977 231.176 834.707 230.98 833.34 231.664C831.289 232.836 829.336 237.523 829.336 241.234C829.336 244.359 827.871 247.191 823.867 251.293C821.231 254.125 820.156 256.566 818.106 264.477C816.641 270.336 815.664 276.977 815.664 281.176V288.109L823.77 296.605C830.019 303.148 832.363 305.004 834.414 305.004C837.051 305.004 837.051 305.102 836.465 310.082C836.074 312.914 834.902 316.625 833.535 318.48C832.363 320.336 831.289 323.07 831.289 324.633C831.289 326.098 830.898 327.562 830.41 327.855C829.043 328.735 828.066 337.914 828.164 348.461C828.457 377.66 829.141 382.738 833.047 385.18C834.707 386.254 834.707 386.742 833.438 392.309C830.996 403.344 830.41 406.078 830.313 406.664C830.313 406.957 827.773 407.152 824.746 407.152C814.492 407.25 807.754 408.91 805.215 412.035C804.043 413.598 802.969 415.16 802.969 415.551C802.969 416.039 801.406 416.332 799.453 416.332C797.402 416.332 793.594 417.602 790.273 419.359C785.488 421.898 784.316 422.191 782.461 421.215C780.508 420.141 780.41 420.238 780.996 422.094C781.484 423.656 780.703 425.023 777.773 427.758C775.332 430.102 773.477 433.031 772.793 435.57C771.426 440.551 770.254 440.844 768.008 436.84C766.152 433.617 765.566 433.422 761.074 434.984C758.34 435.961 758.047 436.449 758.047 440.258C758.047 442.895 756.875 446.996 754.629 451.781C752.773 455.883 751.211 460.082 751.211 461.156C751.211 462.23 749.941 464.379 748.281 465.941C746.719 467.602 745.352 469.359 745.352 469.945C745.352 470.531 743.984 472.484 742.324 474.438C739.688 477.465 738.809 477.855 736.074 477.27C734.121 476.977 732.656 477.172 732.168 477.758C731.875 478.344 729.434 479.906 726.895 481.273C722.207 483.617 717.617 488.012 714.59 493.188C712.832 496.215 700.332 503.344 696.816 503.246C695.645 503.246 694.473 503.637 694.18 504.125C693.887 504.516 691.934 505.199 689.883 505.59C687.832 505.883 685.391 506.957 684.414 508.031C683.438 509.105 681.68 510.18 680.508 510.473C678.75 510.863 678.066 511.938 677.676 514.672C677.285 516.722 677.481 518.48 677.969 518.676C678.457 518.871 680.02 519.945 681.387 521.02C683.535 522.68 683.926 523.559 683.438 526C682.559 530.199 681.387 531.273 675.039 533.617C671.816 534.789 668.008 537.133 666.152 538.988C664.004 541.234 662.051 542.309 660.098 542.309C658.242 542.309 656.289 543.383 654.141 545.727C651.602 548.363 650.137 549.145 647.402 549.145C643.008 549.145 637.832 553.441 635.391 559.008C633.242 563.695 631.387 563.891 629.629 559.496C627.578 554.613 623.281 553.637 623.281 558.031C623.281 561.449 621.426 563.793 618.594 563.793C617.129 563.891 614.883 564.477 613.516 565.258C611.367 566.43 610.879 566.332 609.121 564.77C607.949 563.695 604.922 562.816 601.309 562.426C598.086 562.133 593.887 561.645 591.934 561.254C588.906 560.766 588.223 561.059 586.758 563.305C583.145 568.871 578.066 573.559 575.82 573.559C572.891 573.559 570.254 578.148 571.621 580.688C572.207 581.566 572.305 583.812 572.012 585.668C571.328 588.891 571.133 589.086 565.176 590.258C559.61 591.332 558.926 591.723 558.438 594.262C557.949 596.801 557.656 596.996 552.773 596.996C548.965 596.996 547.207 597.484 545.449 599.145C544.18 600.316 543.203 601.781 543.203 602.465C543.203 603.051 542.617 604.125 541.836 604.711C540.762 605.59 540.176 605.297 538.906 603.344C538.027 601.977 536.465 600.902 535.391 600.902C532.656 600.903 524.648 608.422 524.648 610.961C524.648 612.133 523.086 614.672 521.133 616.625C518.106 619.75 517.617 621.02 517.129 626.098C516.836 629.32 516.836 633.129 517.227 634.496C517.813 636.742 518.399 637.035 521.719 637.035C523.867 637.035 525.625 637.523 525.625 638.109C525.625 638.695 526.309 640.746 527.188 642.504C528.75 645.824 528.75 646.02 526.406 648.559C521.914 653.344 520.742 656.859 520.742 665.746C520.742 671.508 521.328 675.512 522.598 678.734C524.355 683.324 525.918 689.574 527.09 696.801C527.578 700.219 527.48 700.512 525.332 700.512C524.063 700.512 522.305 699.73 521.523 698.754C518.789 695.629 514.883 685.668 514.883 681.859C514.883 677.172 512.93 676.781 509.902 680.883C508.73 682.445 507.266 683.52 506.484 683.227C504.824 682.641 500.918 686.645 501.602 688.402C502.285 690.062 506.387 690.16 509.023 688.598C510.488 687.621 511.27 687.719 512.832 689.184C514.004 690.258 514.883 692.113 514.883 693.48C514.883 695.629 514.59 695.824 511.367 695.141C507.852 694.555 507.852 694.555 508.535 697.484C508.926 699.145 508.926 700.512 508.73 700.512C506.875 700.512 505.117 699.047 505.117 697.582C505.117 696.605 504.434 695.336 503.555 694.555C502.188 693.481 502.09 693.676 502.676 696.996C503.262 699.828 503.066 700.902 501.699 701.879C499.551 703.442 498.672 710.961 500.137 715.453C501.113 718.285 502.481 719.652 506.777 721.898C511.758 724.633 512.344 724.73 514.395 723.363C516.641 721.898 516.836 721.996 519.375 725.805C521.328 728.832 522.305 729.613 523.574 728.93C524.453 728.441 526.797 727.953 528.75 727.758C531.777 727.465 533.34 728.051 537.148 731.078C540.859 733.812 542.813 734.691 545.84 734.691C548.184 734.691 550.332 734.105 551.016 733.227C553.652 730.102 555.801 731.566 559.414 738.793C561.367 742.699 564.199 746.898 565.762 748.168C567.715 749.73 568.594 751.391 568.594 753.148C568.594 755.297 569.668 756.762 573.184 759.496C575.625 761.449 578.066 763.011 578.457 763.012C578.848 763.012 579.434 764.379 579.824 765.941C580.313 767.992 581.094 768.871 582.363 768.871C583.535 768.871 584.414 769.75 584.805 771.312C585.684 774.926 590.078 777.562 599.16 779.906C606.387 781.859 607.168 782.25 607.461 784.594C607.656 786.156 608.731 787.719 610.293 788.5C611.758 789.281 614.785 792.797 617.129 796.41C621.133 802.758 621.426 803.051 625.234 803.051C628.066 803.051 629.141 802.66 629.141 801.586C629.141 800.805 629.336 800.121 629.629 800.121C629.824 800.121 633.34 803.344 637.441 807.25L644.766 814.379V819.75C644.668 824.535 644.473 825.219 641.641 826.977C639.981 828.051 638.223 829.613 637.832 830.395C637.441 831.176 636.758 836.938 636.27 843.285C635.488 853.344 635.098 855.102 632.656 858.52C628.457 864.672 623.867 868.773 612.441 876.781L601.797 884.301L592.617 882.738C587.637 881.859 581.68 880.59 579.531 879.809C576.309 878.637 575.332 878.637 574.551 879.613C573.965 880.297 571.719 881.664 569.668 882.641L565.762 884.398L563.223 881.273C560.195 877.758 558.437 877.562 549.355 879.906C544.082 881.176 542.129 881.273 538.613 880.395C531.094 878.344 525.82 878.93 520.645 882.25C516.641 884.789 515.664 885.082 513.809 884.105C512.637 883.422 508.34 882.152 504.336 881.176C497.891 879.613 496.621 879.613 494.961 880.785C492.715 882.348 487.832 882.543 482.266 881.176C478.945 880.492 477.773 880.688 474.16 882.836C470.645 884.887 469.473 885.082 467.129 884.301C464.59 883.422 464.004 883.715 459.609 888.109C456.973 890.746 454.238 892.895 453.457 892.895C452.676 892.895 449.746 895.434 446.914 898.461C442.129 903.637 441.641 904.516 441.641 908.715C441.641 913.207 441.543 913.402 434.805 918.48C428.457 923.363 427.969 923.949 426.895 929.027C426.016 933.422 424.844 935.277 419.863 940.453C416.641 943.871 413.32 946.605 412.441 946.605C411.562 946.606 409.219 947.484 407.168 948.559C405.215 949.633 402.676 950.512 401.504 950.512C399.746 950.512 399.551 950.902 400.039 953.637C401.309 960.863 400.82 970.531 398.965 975.219C397.207 979.516 396.523 980.199 391.445 982.25C384.316 985.18 381.68 984.496 373.281 977.367C369.766 974.438 365.957 971.605 364.883 971.117C362.441 970.043 358.633 965.453 358.633 963.598C358.633 961.742 354.824 961.84 354.141 963.695C353.75 964.477 352.578 965.16 351.504 965.16C350.332 965.16 347.793 966.332 345.742 967.699C342.422 970.043 341.738 970.141 339.199 969.066C337.637 968.48 335.586 968.09 334.609 968.188C333.535 968.383 331.777 967.992 330.508 967.309C328.555 966.137 328.359 966.234 328.359 968.578C328.359 970.336 327.676 971.312 326.016 971.996C322.402 973.363 321.524 975.707 323.086 979.418C324.648 983.129 324.941 990.16 323.477 991.039C322.988 991.332 320.84 991.137 318.789 990.648C315.469 989.672 314.688 988.793 311.563 982.934C309.609 979.223 307.754 973.949 307.363 971.02C306.68 966.332 306.484 965.941 305.313 967.504C303.555 969.945 302.676 969.359 298.379 963.207C294.277 957.445 293.496 956.957 291.934 959.496C291.055 960.766 291.25 961.547 292.52 963.012C293.398 963.988 294.18 965.551 294.18 966.527C294.18 967.406 294.863 969.457 295.645 971.02C297.012 973.656 297.012 973.949 295.547 973.949C294.668 973.949 293.398 973.168 292.715 972.289C292.031 971.41 290.176 970.629 288.711 970.531C286.367 970.531 285.684 969.945 284.902 967.309C284.414 965.453 281.875 962.035 279.238 959.594C275.918 956.566 274.746 954.711 275.137 953.539C275.527 952.074 275.234 951.879 273.281 952.172C271.231 952.562 270.742 952.172 270.156 950.023C269.766 948.559 269.961 946.996 270.645 946.312C272.109 944.848 272.012 942.699 270.449 942.699C269.766 942.699 267.617 941.625 265.664 940.258C261.172 937.231 258.047 937.035 258.047 939.77C258.047 940.844 257.656 941.723 257.07 941.723C256.582 941.723 256.094 941.234 256.094 940.746C256.094 939.867 252.871 938.109 247.793 936.254C243.984 934.887 238.418 934.984 237.832 936.449C237.051 938.402 239.883 942.309 244.18 945.043L247.793 947.484L250.43 944.457C252.676 941.82 253.164 941.625 253.75 942.992C254.043 943.969 254.141 945.434 253.945 946.41C253.555 947.875 253.945 948.07 256.191 947.777C257.852 947.484 259.023 947.777 259.023 948.461C259.023 949.047 258.34 949.535 257.559 949.535C256.484 949.535 256.094 950.609 256.094 953.148C256.094 956.664 256.094 956.664 258.047 954.906C261.172 952.074 261.563 954.027 258.633 957.836C255.117 962.426 251.016 962.621 248.77 958.324C246.816 954.613 246.328 954.613 246.328 958.52C246.426 964.477 245.84 967.406 244.668 967.895C243.789 968.09 243.398 970.825 243.398 976.977C243.398 985.668 243.398 985.668 240.957 985.668C239.199 985.668 238.223 984.984 237.539 983.227C236.465 980.492 234.121 980.004 233.242 982.25C232.363 984.594 229.824 983.91 229.141 981.273C228.457 978.442 226.504 978.539 226.016 981.371C225.82 982.348 224.941 985.18 224.16 987.523L222.5 991.723L217.91 991.137C211.367 990.258 206.875 992.211 205.215 996.801C203.848 1000.61 203.066 1000.51 200.918 996.312C199.453 993.578 199.551 993.383 203.066 988.598C205.019 985.961 207.07 983.715 207.461 983.715C207.949 983.715 207.559 982.641 206.68 981.273C205.117 978.93 205.215 978.832 207.168 978.832C208.34 978.832 210.781 977.27 212.734 975.414C216.543 971.606 219.375 971.117 224.063 973.559C226.699 974.926 227.188 974.926 228.457 973.656C229.434 972.68 229.629 971.996 228.848 971.605C228.262 971.215 227.773 971.41 227.773 972.094C227.773 972.777 226.992 972.582 225.82 971.508C224.258 970.141 223.965 968.969 224.355 966.918C224.844 964.672 224.648 964.184 223.281 964.184C222.305 964.184 220.547 965.356 219.375 966.82L217.324 969.457L213.516 967.699C211.465 966.723 209.414 965.746 209.023 965.453C208.633 965.258 207.461 966.821 206.387 968.969C205.313 971.117 203.066 973.754 201.406 974.926L198.477 976.977V974.633C198.477 972.582 198.086 972.387 195.547 972.777C193.887 972.973 192.617 973.559 192.617 973.949C192.617 974.34 191.543 974.438 190.176 974.145C186.563 973.461 187.149 971.41 191.934 967.992C194.18 966.332 196.035 964.574 195.938 964.086C195.84 963.598 195.742 962.035 195.645 960.668C195.547 958.617 195.156 958.227 193.594 958.617C192.52 958.91 191.348 958.715 191.055 958.227C190.078 956.664 187.246 957.348 185 959.789C181.387 963.598 176.699 964.672 170.352 963.109C167.422 962.426 164.59 961.059 164.004 960.082C163.32 959.008 161.66 958.324 159.805 958.324C156.289 958.324 153.164 955.492 154.141 953.051C154.824 951.293 153.066 950.902 151.992 952.562C151.113 954.125 149.453 952.074 150.234 950.219C150.527 949.34 152.188 948.363 153.848 947.973C155.508 947.68 158.047 946.508 159.512 945.434C161.855 943.676 162.344 943.578 164.883 944.945C166.445 945.727 169.277 946.605 171.23 946.996C174.063 947.484 175.039 947.191 176.602 945.531C178.457 943.383 178.457 943.383 176.309 944.066C174.453 944.652 173.672 944.066 171.328 940.355C169.375 937.328 168.594 935.082 168.984 933.422C169.375 931.273 169.863 930.98 172.988 931.078C174.941 931.176 177.969 930.98 179.727 930.59C183.34 929.711 185.781 931.078 185.781 934.008C185.781 935.18 186.465 935.863 187.734 935.863C189.98 935.863 190.078 935.57 188.516 932.934C187.442 931.176 187.637 930.687 190.078 928.734C192.324 926.977 192.617 926.293 191.543 925.414C188.125 922.777 172.109 922.191 167.422 924.535C165.957 925.219 162.637 926.195 160.098 926.488C155.02 927.269 151.602 925.805 141.738 918.676C137.637 915.648 137.148 915.551 135.684 917.016C133.34 919.359 118.984 921.41 114.004 920.141C104.727 917.797 103.652 917.211 103.945 915.062C104.238 913.207 105.02 912.816 109.316 912.426C113.32 912.035 115.176 911.254 117.617 908.812C120.156 906.371 121.426 905.883 123.477 906.273C125.625 906.664 126.309 906.371 127.09 904.516C127.578 903.246 129.531 900.707 131.387 898.949L134.805 895.629L136.855 897.68C138.027 898.852 139.59 899.73 140.371 899.73C141.152 899.73 141.836 900.414 141.836 901.195C141.836 903.441 143.789 902.953 145.938 900.219C147.012 898.852 148.672 897.777 149.746 897.777C150.82 897.777 151.406 897.289 151.113 896.801C150.137 895.238 146.035 895.629 145.352 897.387C144.473 899.633 140.859 898.656 138.613 895.629C137.344 893.871 136.465 891.039 136.27 887.328C136.074 884.203 135.391 880.102 134.805 878.148C133.828 874.731 133.926 874.437 137.539 870.824C139.688 868.676 142.617 864.086 144.18 860.375C146.816 854.223 148.672 852.074 148.672 855.297C148.672 856.078 149.16 856.762 149.648 856.762C150.234 856.762 150.625 855.883 150.625 854.711C150.625 853.539 151.992 851.391 153.555 849.926C155.898 847.777 156.484 846.41 156.484 843.188C156.484 840.941 155.996 839.184 155.508 839.184C154.434 839.183 153.359 836.84 152.188 832.055C151.504 829.027 152.578 828.734 158.73 830.492C161.27 831.176 162.344 831.957 162.344 833.324C162.344 835.277 165.469 837.621 166.641 836.547C166.934 836.254 167.227 834.887 167.227 833.52C167.227 831.371 167.52 831.176 171.133 831.566C174.355 831.859 174.941 831.664 174.453 830.395C173.184 827.562 172.5 816.724 173.574 816.723C174.16 816.723 176.113 818.285 177.969 820.141C179.824 821.996 181.582 823.558 181.973 823.559C182.363 823.559 182.461 821.996 182.168 820.141C181.582 816.723 181.68 816.723 184.609 817.309C186.27 817.602 189.199 817.406 191.152 816.723C194.375 815.648 194.961 815.746 197.109 817.797L199.551 820.141L201.406 817.699C202.48 816.332 203.359 814.965 203.359 814.477C203.359 814.086 203.945 813.793 204.727 813.793C205.41 813.793 206.582 813.109 207.266 812.328C208.242 811.156 209.609 810.961 213.125 811.449C217.324 812.035 217.91 811.84 218.496 809.984C219.277 807.445 219.375 807.445 225.332 810.668C229.824 813.109 230.215 813.598 229.922 816.527C229.434 820.824 231.289 820.531 232.07 816.137C232.656 813.109 233.047 812.719 235.391 813.012C237.148 813.207 238.418 814.184 239.297 815.941C240.469 818.48 243.398 819.75 243.398 817.699C243.398 813.305 236.172 807.25 229.922 806.273C227.871 805.98 225.137 804.711 223.77 803.441L221.328 801.098L218.984 803.539C217.324 805.297 215.664 805.98 213.027 805.98C210.977 805.981 207.852 806.859 206.094 807.836C204.336 808.91 201.211 810.082 199.16 810.375C195.84 811.059 195.254 810.766 191.836 807.348C189.492 805.004 187.539 801.781 186.66 798.852C185.391 794.359 185.293 794.262 181.191 794.262C178.945 794.262 176.797 793.773 176.406 793.09C176.016 792.504 175.527 788.793 175.234 784.887C174.844 778.832 175.039 777.367 176.895 774.926C177.969 773.266 178.945 771.02 178.945 769.848C178.945 766.82 181.387 762.719 185.098 759.398C187.637 757.152 188.125 756.176 187.344 755.004C186.66 753.832 187.051 752.367 189.102 749.34C190.566 747.191 192.324 745.141 193.105 744.75C193.887 744.457 194.57 743.285 194.57 742.016C194.57 739.965 194.863 739.77 198.477 740.258C202.188 740.746 203.75 739.574 201.406 738.109C200.918 737.816 200.43 736.644 200.43 735.57C200.43 734.594 200.039 733.715 199.551 733.715C199.063 733.715 198.379 732.836 197.988 731.859C197.305 729.516 200.918 721.996 202.773 721.996C203.652 721.996 203.945 721.312 203.652 719.945C202.969 717.406 208.926 710.961 211.367 711.645C212.637 711.938 213.125 711.449 213.125 709.789C213.125 707.055 215.274 705.199 217.52 705.98C218.984 706.566 219.082 706.273 218.496 703.539C217.91 701 218.301 699.828 220.156 697.875C222.305 695.434 222.305 695.434 220.352 696.02C218.789 696.508 218.105 696.215 217.715 694.75C217.52 693.676 217.715 692.406 218.203 691.918C219.473 690.648 218.398 688.793 216.445 688.793C215.664 688.793 215.078 687.816 215.078 686.352C215.078 684.008 215.371 683.91 220.254 683.91C224.16 683.91 225.82 683.422 227.09 681.957C227.969 680.883 228.75 679.516 228.75 679.027C228.75 677.562 226.211 677.855 224.844 679.516C223.281 681.371 219.082 681.371 218.398 679.516C217.617 677.66 215.176 677.66 213.125 679.516C211.66 680.883 211.27 680.883 209.316 679.32C207.363 677.66 207.266 677.465 208.73 675.316C209.609 674.145 210.879 673.168 211.563 673.168C212.344 673.168 213.418 672.582 214.004 671.801C214.98 670.629 214.883 669.848 213.613 667.895C211.66 664.965 213.027 661.449 216.055 661.449C217.715 661.449 217.813 661.059 217.031 658.91C215.176 654.125 222.207 647.875 229.727 647.777C231.875 647.68 236.563 643.969 234.512 643.871C233.633 643.871 232.363 644.555 231.68 645.336C229.824 647.582 222.11 646.898 223.574 644.555C224.746 642.602 218.594 644.945 215.469 647.777C213.711 649.242 210.977 650.805 209.316 651.195C207.656 651.586 205.801 652.66 205.313 653.734C203.555 656.957 199.063 656.176 195.645 651.977C192.91 648.656 192.617 647.582 192.52 641.43C192.422 634.887 192.422 634.691 191.152 637.523C190.469 639.184 189.004 641.234 187.93 642.309C185.977 644.066 185.879 643.969 183.34 641.527C179.922 638.012 179.336 638.305 181.875 642.309C183.926 645.727 183.926 645.727 181.973 646.703C180.898 647.289 179.434 647.777 178.652 647.777C176.895 647.777 174.063 643.676 174.063 641.137C174.063 638.207 169.57 635.766 165.566 636.547C162.735 637.035 162.148 636.84 161.66 635.18C161.074 632.738 160.586 632.641 158.34 634.691C156.68 636.156 156.484 636.059 155.898 633.52C154.824 628.93 153.555 627.855 151.895 630.199C150.723 631.859 150.234 631.957 148.477 630.883C147.402 630.297 145.645 627.855 144.668 625.512C143.398 622.68 142.324 621.41 140.957 621.41C139.883 621.41 138.516 620.531 137.93 619.457C137.246 618.09 135.879 617.504 133.535 617.504C130.703 617.504 129.727 616.82 127.09 613.109C122.891 607.25 120.84 606.957 123.77 612.621C125.234 615.551 124.844 620.434 123.184 620.434C122.695 620.434 122.305 621.117 122.305 621.898C122.305 622.68 122.988 623.363 123.77 623.363C126.309 623.363 125.137 626.391 122.109 627.562C120.742 628.051 120.547 628.637 121.328 630.688C122.207 633.031 122.109 633.129 119.082 633.129C116.738 633.129 114.785 634.203 111.172 637.523C108.633 639.965 106.094 641.918 105.703 641.918C104.434 641.918 103.555 634.887 104.629 633.812C105.215 633.227 105.703 631.762 105.703 630.59C105.703 629.32 106.094 628.051 106.68 627.758C107.168 627.465 107.656 626.098 107.656 624.73C107.656 622.777 107.266 622.387 105.898 622.777C104.629 623.168 103.848 622.582 103.066 620.434C102.285 618.481 101.309 617.504 99.9414 617.504C97.7931 617.504 97.2072 616.137 98.8672 615.062C99.4532 614.77 99.8438 613.207 99.8438 611.547C99.8438 609.496 99.3555 608.715 98.1836 608.715C94.4728 608.715 93.6915 607.25 95.3516 603.93L97.0117 600.902H93.9844C92.4218 600.902 88.8086 599.828 85.9766 598.461C81.4845 596.313 80.8008 596.215 79.336 597.484C77.0899 599.535 76.8946 599.438 75.0391 594.652C73.7696 591.234 72.9883 590.453 71.5235 590.844C70.1563 591.234 69.4727 590.648 68.9844 588.695C68.5938 587.133 67.5195 585.18 66.543 584.203C65.4688 583.129 64.6875 581.078 64.6875 579.516C64.6875 577.367 65.2736 576.586 67.1289 576.098C70.2539 575.316 71.6211 572.582 70.7422 569.164L69.961 566.332L68.6914 569.555C67.3242 572.777 62.4414 576.098 60.6836 575.023C59.0235 573.949 56.8751 576.586 56.875 579.906C56.875 585.082 54.7266 594.262 53.2617 594.75C52.5782 595.043 51.9922 596.313 51.9922 597.484C51.9922 601 51.0157 602.855 49.0625 602.855C46.5236 602.855 46.0352 600.512 47.6953 595.824C48.4766 593.48 49.0625 589.574 48.9649 587.035C48.6719 582.641 48.9649 582.055 54.2383 576.293C57.2656 572.875 61.6602 568.188 64.1016 565.746C68.3008 561.547 69.8633 557.934 67.6172 557.934C67.129 557.933 66.6407 556.664 66.6407 555.102C66.6407 551.781 69.7657 547.68 75.1367 543.969C77.1875 542.602 82.5586 537.133 87.1485 531.859C99.5508 517.504 103.457 514.281 113.613 509.203L122.793 504.711L123.086 500.512C123.379 496.898 123.867 496.02 127.285 493.773C130.312 491.82 131.875 491.332 134.902 491.82C138.223 492.211 138.613 492.113 138.223 490.453C137.832 489.281 139.492 486.449 142.91 482.152C147.598 476.195 148.184 475.805 148.965 477.66C150.234 480.395 154.141 481.273 157.07 479.32C158.926 478.148 160.195 477.953 162.832 478.734C167.031 479.906 167.422 478.344 163.906 475.023C161.66 472.973 161.66 472.582 162.734 469.262C163.809 466.137 164.492 465.551 168.203 464.867C172.012 464.086 176.406 461.352 185.391 453.93C187.832 452.074 189.59 451.488 193.496 451.488C198.379 451.488 198.477 451.391 197.891 449.047C197.402 447.094 197.793 446.41 199.844 445.531C201.895 444.555 202.676 444.652 204.141 445.922C205.41 447.094 207.559 447.484 211.074 447.484C213.906 447.387 216.641 447.777 217.324 448.461C219.277 450.414 220.156 449.535 219.57 446.215C218.984 443.09 219.082 442.797 221.621 442.504C223.867 442.309 224.453 441.723 224.648 439.184C224.941 436.645 225.43 435.961 227.871 435.473C229.922 435.082 230.703 434.398 230.703 432.934C230.703 431.274 230.996 431.078 232.559 431.957C235.879 433.715 237.246 433.031 238.809 429.223C240.957 423.852 242.715 422.582 245.547 424.535C247.891 426.195 257.559 426.781 258.438 425.316C258.73 424.828 257.852 423.461 256.582 422.387C255.215 421.215 254.141 419.359 254.141 418.383C254.141 416.332 264.101 407.543 266.348 407.543C267.031 407.543 268.301 406.469 269.18 405.102C270.938 402.367 275.039 401.781 276.016 404.125C276.797 406.176 278.75 405.98 282.852 403.148C286.855 400.414 292.031 399.926 292.813 402.172C293.496 403.93 296.621 404.125 297.988 402.367C298.574 401.781 300.137 399.73 301.602 397.973C303.164 396.117 305.02 394.848 306.387 394.848C307.852 394.848 309.707 393.48 311.758 390.941C314.297 387.719 314.59 386.84 313.711 385.082C312.441 382.738 312.344 382.836 315.469 381.273C316.641 380.688 317.617 379.418 317.617 378.637C317.617 377.855 318.691 376.195 320.059 374.926C322.207 372.973 322.402 372.289 321.523 369.945C320.156 366.43 320.742 365.941 325.918 365.16C330.117 364.477 330.313 364.379 330.313 361.059C330.313 358.031 330.508 357.738 332.168 358.617C333.535 359.398 334.414 359.105 336.172 357.25C337.441 355.98 339.883 354.418 341.641 353.832C343.496 353.148 344.961 352.172 344.961 351.488C344.961 350.902 345.84 348.656 346.914 346.508C347.988 344.359 348.867 342.113 348.867 341.332C348.867 340.648 350.234 339.574 351.797 339.086C353.75 338.305 354.727 337.328 354.727 335.961C354.727 334.887 355.898 331.957 357.363 329.516C360.195 324.535 369.082 313.794 370.352 313.793C370.84 313.793 371.816 314.477 372.695 315.258C374.453 317.113 376.602 317.113 377.969 315.453C378.848 314.477 378.555 312.523 376.992 307.738L374.941 301.391L377.09 298.559C378.262 296.898 379.922 292.992 380.703 289.77C381.582 286.645 383.047 283.129 384.121 281.957C385.977 280.004 385.977 279.906 384.023 274.242C381.582 267.211 381.582 266.918 384.023 266.918C386.172 266.918 388.32 263.988 389.297 259.789C389.98 257.055 391.641 256.371 393.398 258.129C394.961 259.691 398.672 257.934 402.871 253.539L406.484 249.73L403.555 247.582C399.942 244.848 399.453 241.039 402.871 242.016C407.461 243.383 412.148 247.289 412.832 250.316C413.809 254.711 415.957 253.93 416.641 248.852C417.422 243.773 418.887 242.406 419.766 245.922C420.059 247.289 420.742 248.363 421.23 248.363C422.109 248.363 424.063 242.211 424.063 239.477C424.063 237.328 433.047 231.567 435.195 232.348C437.051 233.031 437.051 233.227 435.781 235.668C435 237.133 435.293 237.523 437.148 238.012C442.031 239.184 454.336 250.316 454.336 253.441C454.336 253.832 453.457 254.223 452.383 254.223C449.649 254.223 449.942 255.297 453.848 259.105C455.703 260.961 457.266 262.816 457.266 263.402C457.266 265.062 463.418 270.824 465.273 270.824C466.25 270.824 467.031 271.508 467.031 272.289C467.031 273.07 466.152 273.754 465.078 273.754C463.809 273.754 462.93 274.633 462.539 276.195C462.246 277.562 461.27 279.027 460.391 279.516C458.145 280.785 462.539 282.836 467.813 283.031C470.254 283.129 473.086 284.008 474.648 285.18C476.113 286.254 478.555 287.426 480.02 287.816C482.363 288.402 482.656 288.695 481.68 289.867C480.606 291.137 480.996 291.332 483.73 291.332C485.586 291.332 488.418 292.211 490.176 293.188C492.812 294.848 493.496 294.945 495.059 293.773C497.5 291.82 498.965 292.016 500.918 294.262C502.676 296.312 505.996 296.801 507.559 295.336C508.145 294.848 510.977 294.262 513.906 294.066C518.789 293.773 519.277 293.969 520.449 296.312C521.719 298.949 523.184 299.73 531.875 302.367C535.293 303.441 537.344 303.637 538.516 302.953C540.176 302.074 550.039 302.367 562.051 303.637L566.641 304.125V300.512C566.641 297.484 566.934 297.094 568.398 297.68C569.277 298.07 572.305 298.754 575.039 299.145C580.508 300.023 583.242 301.098 585.195 303.441C585.879 304.32 587.637 305.004 589.199 305.004C590.762 305.004 592.031 305.395 592.031 305.98C592.031 306.469 593.399 306.957 594.961 306.957C597.207 306.957 597.891 307.348 597.891 308.91C597.891 311.645 601.309 311.449 604.238 308.422C605.606 307.152 606.68 305.688 606.68 305.102C606.68 304.613 608.242 303.637 610.098 303.051C614.004 301.781 616.934 297.484 617.715 291.918C618.106 289.867 619.18 287.23 620.156 286.059C622.793 283.129 626.211 273.266 626.211 268.676C626.211 264.965 625.625 264.184 614.004 252.758C603.457 242.406 601.797 240.355 601.797 237.719C601.797 235.082 601.309 234.398 598.867 233.617L595.938 232.543L596.523 221.703C597.012 212.133 596.816 209.984 595.059 205.004C592.813 198.754 592.422 193.676 593.984 193.676C594.57 193.676 596.035 194.359 597.305 195.141C599.356 196.508 599.648 196.41 601.797 194.164C603.457 192.406 605.117 191.723 607.754 191.723C610.195 191.723 612.344 190.941 614.297 189.281C617.129 186.938 617.813 186.84 630.313 186.84C642.422 186.84 643.594 187.035 645.352 188.891C648.77 192.699 652.285 193.871 658.242 193.09C662.539 192.602 664.395 191.82 666.348 189.672C669.473 186.352 672.988 186.059 675.527 188.793C677.676 191.137 679.922 190.648 684.902 186.742C688.125 184.203 689.004 184.008 693.203 184.496C695.84 184.887 699.648 185.961 701.602 186.938C705.41 188.891 710.781 189.379 712.93 187.914C713.613 187.523 714.492 184.594 714.785 181.371C715.078 178.246 715.762 175.023 716.348 174.34C716.836 173.754 719.18 173.168 721.523 173.168C725.527 173.168 725.723 172.973 726.016 170.043C726.406 166.332 730.996 162.328 732.852 164.184C734.707 166.039 736.172 165.551 737.344 162.914C738.027 161.449 739.297 160.473 740.469 160.473C742.031 160.473 742.422 159.789 742.422 157.543C742.422 155.004 742.813 154.613 745.156 154.613C749.551 154.613 750.527 152.855 748.086 149.34C746.914 147.68 745.547 146.02 745.059 145.727C744.18 145.043 746.621 139.574 748.281 138.5C748.77 138.207 749.258 136.742 749.258 135.473C749.258 134.008 750.234 132.152 751.406 131.176C753.262 129.711 753.359 129.223 752.285 127.953C750.235 125.316 752.871 121.313 757.852 119.652C761.172 118.578 761.953 117.895 761.953 115.941C761.953 114.574 763.125 112.035 764.59 110.18C767.129 107.055 767.324 106.957 769.082 108.422C770.547 109.789 771.133 109.887 772.891 108.813C774.355 107.934 775.137 107.836 775.918 108.617C776.504 109.203 777.969 109.691 779.043 109.691C780.215 109.691 781.973 110.57 782.949 111.645C783.926 112.719 785.293 113.598 786.074 113.598C786.758 113.598 789.297 115.356 791.641 117.504C796.231 121.703 798.086 121.41 798.086 116.43C798.086 114.965 798.77 113.305 799.551 112.621C800.332 111.938 801.016 110.18 801.016 108.617C801.016 106.274 801.406 105.785 803.262 105.785C804.531 105.785 806.387 106.664 807.363 107.738C809.902 110.57 814.981 110.375 817.422 107.25C818.984 105.297 819.473 102.563 820.059 93.2852C820.449 86.3516 821.231 80.9805 822.109 79.7109C823.086 78.1484 823.184 76.8789 822.5 75.0234C821.133 71.4103 821.328 67.9923 822.891 67.4063C825.43 66.4297 825.82 61.1563 823.574 58.4219C821.719 55.9805 821.719 55.5898 823.086 51.293C823.867 48.7539 825.332 43.5781 826.406 39.8672C827.383 36.0586 829.141 31.0781 830.215 28.6367C831.289 26.1953 832.266 22.6797 832.266 20.7266C832.266 18.3829 832.754 16.918 833.828 16.5274C835.195 16.0391 835.195 15.5508 833.34 12.4258L831.289 9.00782L834.707 7.54298C836.856 6.66407 838.125 5.4922 838.125 4.32032C838.125 3.34378 839.102 2.07423 840.371 1.48829ZM217.52 981.762C216.738 980.492 215.078 980.688 212.148 982.445C209.707 983.91 209.707 983.91 213.027 983.324C214.785 983.031 216.738 982.738 217.227 982.738C217.715 982.738 217.813 982.25 217.52 981.762ZM943.106 113.207C942.129 112.817 941.641 113.305 941.641 114.77C941.641 116.43 941.836 116.527 943.106 115.551C943.887 114.867 944.57 114.184 944.57 114.086C944.57 113.891 943.887 113.598 943.106 113.207Z" fill="white"/>
<path d="M126.016 837.328C130.02 834.301 133.438 834.691 136.367 838.5C139.102 842.113 139.688 846.02 137.539 846.02C136.855 846.019 135.684 845.434 135.098 844.652C133.242 842.406 126.992 841.625 126.016 843.48C124.648 845.922 123.281 845.336 123.281 842.211C123.281 840.258 124.063 838.695 126.016 837.328Z" fill="white"/>
<path d="M141.055 641.918C142.031 638.891 142.715 638.598 146.523 639.574C149.063 640.355 149.258 641.723 147.012 643.383C145.352 644.652 145.352 644.75 147.012 646.508C148.965 648.754 149.258 651.684 147.402 651.684C146.761 651.684 144.49 653.4 142.277 655.626L141.395 656.53C139.182 658.756 136.91 660.473 136.27 660.473C134.414 660.472 134.707 655.883 136.563 654.809C138.418 653.734 137.539 649.73 135.488 649.73C133.34 649.73 134.805 647.191 137.539 645.922C138.906 645.336 140.469 643.48 141.055 641.918Z" fill="white"/>
<path d="M114.297 652.758C116.348 651.586 116.934 652.66 116.055 656.078C115.664 657.445 114.785 658.52 114.004 658.52C111.953 658.519 112.149 653.93 114.297 652.758Z" fill="white"/>
<path d="M104.531 647.094C110.586 642.113 118.301 646.996 112.539 652.172C110.684 653.832 110.488 653.832 108.828 652.367C107.852 651.391 105.801 650.707 104.434 650.707C101.113 650.707 101.113 649.828 104.531 647.094Z" fill="white"/>
<circle id="500" cx="239" cy="784" fill="#5CE50D"/>
<circle id="502" cx="838" cy="217" fill="#E52A0D"/>
<circle id="501" cx="539" cy="582" fill="#E52A0D"/>
<circle id="1626" cx="376" cy="916" fill="#E52A0D"/>
</svg>
