<svg width="1000" height="1000" viewBox="0 0 1000 1000" fill="none" xmlns="http://www.w3.org/2000/svg">
<path d="M589.855 1.66797C588.879 2.74219 588.488 6.16016 588.39 12.6055C588.39 23.543 586.339 29.793 580.578 36.8242C572.668 46.4922 554.406 58.6016 547.765 58.6016C546.3 58.6016 540.832 57.625 535.558 56.5508L526.086 54.4023L520.812 57.1367C515.246 60.0664 514.172 59.9688 508.703 55.4766L505.968 53.3281L496.105 55.0859C486.535 56.7461 485.949 56.7461 480.968 55.0859L475.793 53.3281L470.422 56.9414C467.394 58.8945 464.465 60.5547 463.879 60.5547C463.293 60.5547 459.679 59.1875 455.871 57.5273C449.23 54.5977 448.644 54.5 444.445 55.6719C436.632 57.8203 435.558 57.918 431.554 56.0625C427.648 54.3047 427.55 54.3047 421.593 56.4531C418.371 57.625 414.464 58.6016 413 58.6016C409.679 58.6016 393.273 71.3945 389.367 76.9609C387.902 79.1094 386.437 82.7227 386.144 84.9688C385.656 88.582 384.875 89.6562 379.504 93.8555C374.23 97.957 373.156 99.4219 371.203 104.695C368.078 113.289 358.8 122.371 350.89 124.617C347.765 125.496 344.933 126.766 344.347 127.352C343.859 128.035 343.468 132.234 343.664 136.531L344.054 144.539L346.593 143.953L349.23 143.27L342.785 150.105L343.468 157.82C343.761 162.215 343.566 167.488 342.98 169.93L342.004 174.324L347.961 179.891C351.281 183.016 354.308 185.555 354.797 185.555C355.187 185.555 355.578 185.945 355.578 186.531C355.578 188.387 352.746 187.508 346.496 183.602C343.078 181.453 339.757 178.523 339.172 177.156C338.488 175.789 338 171.688 338 167.977C338 164.168 337.707 161.141 337.316 161.141C336.828 161.238 335.461 161.824 334.093 162.605C330.871 164.461 326.867 164.461 323.254 162.605C320.617 161.238 320.324 161.238 319.738 162.703C318.175 166.902 321.105 180.184 326.086 191.414C328.82 197.566 331.359 204.305 331.652 206.258C332.238 209.383 332.726 209.969 334.777 209.969C337.218 209.969 337.218 209.969 333.703 213.875C331.75 216.023 330.187 218.074 330.187 218.562C330.187 218.953 331.75 220.32 333.703 221.688C336.925 223.836 337.218 224.324 336.73 227.742C336.242 231.648 337.414 233.406 339.269 231.551C340.734 230.086 341.906 230.184 345.617 232.43L348.839 234.383L346.886 237.215C345.714 238.777 344.836 240.633 344.836 241.414C344.836 242.195 347.668 244.344 351.183 246.199C358.019 249.812 358.8 251.473 353.527 251.375C351.672 251.375 350.011 251.57 349.718 251.863C348.644 253.133 341.711 255.867 340.929 255.379C339.855 254.695 339.269 261.727 339.757 268.758C340.148 273.543 340.441 274.324 341.613 273.348C344.054 271.199 345.226 273.738 344.054 278.523L342.98 282.723L348.058 277.059C353.527 270.906 356.847 269.93 361.242 273.055C364.269 275.203 363.976 276.863 359.582 280.281C356.066 283.113 355.871 283.602 356.261 287.508C356.652 290.242 356.261 292.684 355.187 294.734C353.527 297.859 353.527 297.859 356.164 297.859C357.531 297.859 359.972 298.641 361.535 299.52C363.976 300.984 364.172 301.375 362.902 302.742C361.632 304.109 362.218 304.988 367.589 310.652C375.597 319.051 376.867 319.734 381.066 317.586C383.703 316.316 384.484 315.242 384.679 312.703C384.972 309.383 385.754 308.895 387.609 310.75C389.464 312.605 388.976 316.902 386.535 319.148C385.363 320.32 381.359 322.566 377.843 324.227C371.105 327.156 368.957 329.402 367.785 334.285C366.613 338.777 365.441 338.191 363.879 332.332C360.363 319.93 358.312 314.656 355.773 311.629C353.429 308.797 352.16 308.211 346.789 307.43C341.125 306.648 340.343 306.746 339.172 308.406C338 310.164 337.804 310.066 334.289 306.746C332.238 304.793 327.355 301.277 323.449 298.934L316.32 294.734L313.586 297.957C310.656 301.57 310.754 302.449 314.855 306.844C316.613 308.699 316.906 309.578 316.027 309.969C315.246 310.262 314.562 311.434 314.367 312.703C314.074 314.656 313.683 314.363 311.339 310.359C308.214 304.891 306.261 303.719 301.183 303.719C297.082 303.816 290.05 306.453 293.566 306.551C296.691 306.648 300.109 309.578 299.425 311.336C299.035 312.41 300.011 313.973 302.55 316.023L306.261 319.148L304.504 322.664C303.625 324.715 301.476 327.059 299.914 327.938C298.351 328.816 296.984 330.086 296.984 330.574C296.984 331.16 296.3 332.625 295.422 333.797C294.054 335.848 293.664 335.945 292.199 334.578C290.734 333.309 290.636 333.504 290.636 336.727C290.636 340.633 288.39 342 285.754 339.852C283.507 337.996 283.8 329.695 286.144 328.035C287.902 326.668 287.902 326.57 286.242 322.762L284.582 318.855L282.336 323.934C279.504 330.379 274.621 331.941 272.961 326.961C272.57 325.691 272.082 325.301 271.496 325.887C270.91 326.473 271.007 327.84 271.789 329.5C272.765 331.844 272.765 332.332 271.3 333.113C269.152 334.383 269.152 335.652 271.496 336.434C273.742 337.117 274.914 339.852 273.644 341.121C272.961 341.805 271.789 341.707 270.031 340.926C267.687 339.852 267.101 340.047 264.562 342.488C260.558 346.297 259.679 348.25 260.461 351.863L261.047 354.891L262.511 352.254C263.879 349.52 263.879 349.52 266.808 351.277C271.203 353.914 272.863 356.062 272.082 358.309C271.593 359.871 270.617 360.359 268.078 360.359C265.734 360.359 264.757 360.848 264.757 361.824C264.757 364.168 267.101 363.582 272.668 359.871C278.136 356.16 280.382 356.062 280.382 359.48C280.382 360.652 281.945 363.289 283.8 365.34C287.511 369.441 288.195 373.152 285.754 376.375C283.898 378.816 283.898 381.844 285.754 381.844C288.39 381.844 290.343 387.605 290.832 397.273C291.32 404.988 291.808 407.137 293.859 410.262C296.007 413.582 296.789 414.07 300.109 414.07C302.453 414.07 303.82 413.582 303.82 412.801C303.82 412.215 300.695 401.277 296.984 388.68C290.441 366.609 289.074 360.164 291.027 358.895C292.98 357.723 295.031 362.703 295.031 368.465C295.031 372.176 295.422 374.227 296.3 374.422C296.886 374.617 298.839 375.203 300.597 375.691C304.113 376.863 304.797 376.082 304.797 370.711C304.797 367.195 307.14 363.289 309.289 363.289C310.656 363.289 311.144 366.609 310.949 373.25C310.851 374.812 311.242 375.984 311.73 375.984C313.195 375.984 312.707 378.133 311.047 379.402C309.582 380.379 309.679 381.16 311.535 387.801C312.707 391.902 313.586 397.859 313.586 401.18C313.586 405.672 313.976 407.43 315.05 407.82C316.808 408.504 316.906 411.336 315.343 415.828C314.269 418.66 314.269 419.344 315.343 419.734C317.297 420.32 323.351 425.789 323.351 426.961C323.351 427.449 322.082 428.328 320.422 428.816C318.761 429.402 317.492 430.281 317.492 430.867C317.492 431.355 318.859 433.699 320.422 435.945L323.449 440.047L321.398 450.594C320.226 456.453 319.445 461.238 319.64 461.434C319.836 461.531 321.691 462.605 323.839 463.68C329.406 466.414 336.047 473.836 336.047 477.254C336.144 481.062 342.297 489.266 345.031 489.266C346.203 489.266 348.351 488.094 349.816 486.727C352.355 484.285 368.273 478.035 368.273 479.5C368.273 480.867 363.683 484.383 359.191 486.336C356.554 487.508 354.211 489.07 353.918 489.852C353.039 492.195 350.597 492.977 336.925 495.125C329.699 496.297 323.644 497.469 323.449 497.664C323.254 497.859 325.207 498.445 327.648 499.129C332.922 500.398 334.386 502.449 333.898 507.625C333.605 510.75 333.898 511.238 335.754 511.531C336.925 511.727 339.269 511.141 341.027 510.262C343.761 508.797 344.933 508.797 349.816 509.773C355.089 510.945 355.675 510.848 358.898 508.895C360.851 507.625 363.293 506.844 364.464 507.039C366.418 507.332 366.222 507.723 362.121 511.922C358.41 515.828 356.945 516.609 352.843 517.195C345.714 518.074 344.738 519.051 348.156 521.98C349.718 523.25 352.746 525.008 354.797 525.984C358.019 527.449 358.507 528.035 358.507 530.965C358.507 534.676 357.238 535.066 353.625 532.234C351.769 530.77 349.621 530.281 344.152 530.281H337.121L335.07 534.871C332.531 540.73 328.136 545.32 322.668 547.957C318.371 550.008 310.656 557.82 310.656 560.164C310.656 560.848 311.828 562.703 313.195 564.363C316.125 567.879 317.98 568.074 326.476 565.828C333.996 563.973 336.828 564.266 339.269 567.586C341.32 570.418 340.929 574.617 338.781 572.469C337.023 570.711 334.386 571.102 332.824 573.25C331.847 574.715 329.699 575.398 324.621 576.082C320.812 576.57 316.906 577.449 315.832 577.938C313 579.5 309.093 584.969 305.187 592.977C302.55 598.445 301.867 600.887 302.257 603.523C302.648 606.258 302.355 607.234 300.988 608.113C299.914 608.797 298.449 611.434 297.57 613.973C296.691 616.512 293.957 621.688 291.613 625.398C289.172 629.109 287.218 632.625 287.218 633.211C287.218 633.895 287.902 635.359 288.781 636.629C290.05 638.484 291.027 638.777 293.566 638.387C296.691 637.898 296.789 637.996 297.375 641.805C297.863 645.027 299.23 646.98 304.015 651.57L309.972 657.43L308.8 661.141C307.629 664.949 302.941 670.906 300.988 670.906C299.621 670.906 299.621 669.246 300.89 668.465C302.257 667.586 297.863 660.164 296.007 660.164C295.129 660.164 293.468 659.48 292.297 658.602C290.539 657.43 290.148 656.16 290.148 652.156C290.148 648.25 289.855 647.469 288.879 648.25C288.195 648.836 285.754 649.422 283.312 649.617C279.113 649.91 277.843 650.984 276.183 655.672C275.988 656.16 275.011 655.965 273.937 655.281C271.496 653.719 265.539 654.695 263.683 656.844C262.609 658.113 263 658.895 266.32 661.629C268.371 663.484 271.105 664.949 272.277 665.047C273.547 665.047 275.402 665.926 276.574 667.098L278.625 669.148L280.773 667.098C281.945 665.926 283.898 665.047 285.07 665.047C286.828 665.047 287.218 664.461 287.218 662.02C287.218 659.676 287.511 659.09 288.781 659.578C289.66 659.871 290.539 660.164 290.734 660.164C290.929 660.164 291.125 661.727 291.125 663.582C291.125 666.805 291.32 667 294.445 667C296.593 667 297.961 667.586 298.351 668.562C299.035 670.418 299.132 670.223 296.3 671.785C294.836 672.566 294.054 673.836 294.054 675.594C294.054 678.133 294.25 678.23 298.351 677.938L302.648 677.547L301.281 683.309C299.523 690.828 299.621 694.539 301.574 698.738L303.234 702.156L299.621 705.867C297.668 707.918 296.007 710.555 296.007 711.727C296.007 714.363 296.105 714.363 300.89 711.922C305.675 709.48 306.847 709.48 311.73 711.922L315.636 713.973L319.347 709.48L319.445 712.508C319.445 715.438 317.004 718.758 314.855 718.758C314.269 718.758 313.293 718.074 312.609 717.293C311.925 716.512 309.972 715.828 308.312 715.828C304.406 715.828 296.3 719.441 297.57 720.613C298.058 721.102 301.672 722.469 305.578 723.641C312.707 725.691 316.515 728.23 316.515 730.965C316.515 731.746 317.394 732.82 318.468 733.406C321.593 735.066 320.714 736.336 316.515 736.336C314.367 736.336 312.609 736.727 312.609 737.312C312.609 737.801 312.023 738.289 311.242 738.289C309.972 738.289 308.703 735.75 307.238 730.672C306.945 729.5 305.871 728.523 304.992 728.523C304.113 728.523 302.453 728.23 301.379 727.938C299.816 727.547 299.035 728.23 297.668 730.965C295.031 736.531 295.519 737.703 302.453 743.27C309.972 749.227 309.679 751.277 301.672 748.25C295.226 745.906 292.785 742.488 291.125 733.699C289.562 725.398 287.707 720.711 285.949 720.711C284.289 720.711 280.382 730.867 280.382 735.066C280.382 736.727 281.261 739.168 282.433 740.633C283.703 742.195 284.289 744.051 283.996 745.32C283.214 748.055 287.023 751.668 291.515 752.449C293.566 752.938 295.91 754.207 297.082 755.672C298.547 757.625 299.23 757.918 299.816 756.941C300.89 755.184 304.015 756.258 307.629 759.773C310.168 762.02 310.656 763.289 310.656 766.902C310.656 769.246 310.949 772.664 311.242 774.324C311.828 776.863 312.316 777.352 314.66 777.352C317.199 777.352 317.492 777.645 317.492 780.672C317.492 782.527 317.004 784.383 316.515 784.676C315.929 784.969 314.855 786.629 313.976 788.191C312.609 791.023 312.609 791.023 314.367 789.949C317.882 787.801 319.445 789.461 319.445 795.418C319.445 798.348 319.64 800.789 319.933 800.789C320.226 800.789 321.789 799.812 323.351 798.738C324.914 797.566 326.769 796.883 327.648 797.176C329.699 797.957 330.382 796.492 331.066 789.656L331.652 783.699L338.097 780.281C346.105 776.082 347.765 774.617 347.082 772.859C346.789 772.176 347.277 771.199 348.156 770.906C351.086 769.734 353.722 762.898 354.308 754.988C354.992 745.418 355.773 743.953 357.824 748.348C358.996 750.789 359.484 754.402 359.484 761.141V770.418L363.097 772.957C367.394 775.789 369.836 776.082 372.375 773.738C373.839 772.469 374.621 772.371 376.672 773.25C379.894 774.812 379.699 774.812 380.48 771.492C380.968 769.051 381.554 768.562 383.019 769.051C384.679 769.637 384.875 769.148 384.875 763.875C384.875 759.383 385.265 757.723 386.828 756.355C388.293 754.988 388.488 754.305 387.609 753.23C386.828 752.254 386.828 751.277 387.707 749.422C388.293 748.055 388.781 746.199 388.781 745.223C388.781 744.051 391.222 741.805 395.324 739.168C399.035 736.824 403.625 733.406 405.578 731.648C408.703 728.816 409.484 728.523 411.339 729.5C414.66 731.355 417.687 729.305 420.519 723.25C423.644 716.707 425.109 716.023 428.136 719.832L430.382 722.762L432.922 720.711C436.339 718.074 437.316 718.27 439.074 721.688C440.929 725.301 440.929 728.816 438.976 733.016C437.609 735.848 436.925 736.336 434.093 736.336C430.871 736.336 430.773 736.238 430.773 732.43C430.773 730.281 430.382 728.523 429.797 728.523C428.136 728.523 425.597 734.676 425.5 738.973C425.402 742.879 425.207 743.172 422.765 743.172C420.812 743.172 420.031 742.684 419.933 741.414C419.933 740.438 419.25 741.121 418.273 743.27C417.394 745.125 414.757 748.836 412.511 751.473C410.168 754.012 408.312 756.453 408.312 756.844C408.312 757.137 409.386 758.504 410.754 759.773C413.097 761.922 413.488 762.02 416.418 760.848C424.328 757.625 425.5 758.113 433.41 768.074L436.437 771.98L438.781 769.93C439.953 768.758 442.882 766.902 445.129 765.73C448.547 763.973 452.257 759.676 452.257 757.332C452.257 757.039 450.988 756.844 449.328 756.844C446.496 756.844 445.422 755.574 447.375 754.402C447.961 754.109 448.351 753.328 448.351 752.84C448.351 752.254 447.082 752.742 445.519 753.914C442.394 756.062 442.101 755.867 441.125 751.766C440.636 749.617 441.027 748.738 442.882 747.566C445.031 746.102 445.519 746.199 449.718 748.25C453.527 750.008 454.601 750.203 456.164 749.227C457.726 748.25 458.214 748.348 459.093 750.008C460.754 753.035 463.976 750.887 463.976 746.785C463.976 744.148 463.488 743.367 460.949 742.488C458.703 741.609 458.117 740.926 458.507 739.461C458.996 738.094 457.922 736.824 453.82 733.992C450.109 731.453 448.254 729.5 447.863 727.449C447.472 725.887 446.789 724.422 446.3 724.129C444.64 723.055 445.422 720.027 447.668 718.465C449.816 717 449.816 717 447.863 715.438C445.91 713.875 445.91 713.875 447.961 712.117L450.011 710.457L447.179 707.625C444.054 704.5 444.152 703.328 447.375 705.086C449.23 706.062 450.011 705.867 452.453 704.109C454.504 702.547 456.359 702.059 459.386 702.352C463.39 702.645 463.488 702.547 463.781 699.422C463.976 697.762 464.465 696.297 464.855 696.297C465.246 696.297 467.004 697.762 468.761 699.617C471.593 702.547 471.984 703.426 471.398 706.258C470.91 708.992 471.105 709.676 472.961 710.457C474.914 711.336 479.504 717.977 479.601 719.93C479.601 720.223 478.527 721.883 477.16 723.445C475.402 725.594 475.109 726.57 475.988 727.449C476.867 728.328 476.867 729.012 475.89 730.477C475.304 731.551 474.718 733.699 474.718 735.359C474.718 737.898 475.109 738.289 477.453 738.289C478.918 738.289 481.164 738.973 482.336 739.852C484.875 741.609 484.875 741.609 483.019 734.285C481.359 727.84 481.652 726.766 486.242 722.273L489.269 719.539L491.906 721.59C496.789 725.398 502.062 723.152 502.062 717.195C502.062 715.633 502.746 711.922 503.527 708.992C504.308 706.062 504.992 703.035 504.992 702.352C504.992 700.887 495.617 700.691 494.738 702.156C493.859 703.523 486.828 707.039 484.972 707.039C482.922 707.039 477.55 698.348 477.746 695.32C477.843 693.953 477.55 692.098 477.16 691.121C475.695 687.703 478.136 687.02 483.41 689.363C486.047 690.438 488.781 691.414 489.465 691.414C490.148 691.414 492.882 688.973 495.715 686.043C501.281 680.086 503.429 679.5 507.922 682.82C510.656 684.773 510.949 684.773 512.609 683.309C514.757 681.355 517.394 681.16 517.882 682.82C518.761 685.359 523.449 681.844 525.988 676.668L528.527 671.688L530.48 673.738C531.847 675.203 533.605 675.789 536.73 675.789C541.906 675.789 542.394 674.422 538.586 669.93C535.656 666.414 536.437 664.07 539.953 665.926C543.175 667.586 543.761 667.195 544.445 663.094C544.836 660.359 545.519 659.188 546.593 659.188C547.961 659.188 548.058 659.871 547.472 662.898C547.082 664.852 546.789 667.586 546.886 668.953C547.179 672.762 547.179 680.965 546.789 683.602C546.496 685.848 546.886 686.043 551.281 686.629C554.894 687.02 556.554 687.801 558.117 689.754C559.289 691.219 561.144 692.391 562.316 692.391C565.05 692.391 569.445 688.777 569.445 686.434C569.445 684.871 570.129 684.578 574.425 684.578C579.015 684.578 579.406 684.773 580.382 687.508C581.554 690.926 583.507 690.926 583.898 687.41C584.289 684.285 586.144 679.695 587.023 679.695C588.976 679.695 593.859 687.996 593.859 691.414C593.859 693.172 593.468 693.367 590.441 692.781C587.511 692.293 587.023 692.488 587.023 693.953C587.023 695.418 587.804 695.809 590.246 695.809C591.906 695.809 595.226 696.199 597.375 696.59L601.379 697.273L602.55 691.316C603.429 687.117 603.429 685.066 602.746 684.188C601.964 683.211 602.16 682.43 603.625 681.16C605.48 679.5 605.48 679.402 603.039 677.449C599.914 675.008 601.281 673.836 607.238 673.836C612.414 673.836 613.488 672.176 610.07 669.246C606.652 666.316 605.187 666.414 599.523 670.027C596.886 671.688 594.445 672.859 594.152 672.469C593.761 672.176 594.25 670.32 595.129 668.465C597.277 663.973 602.55 661.336 606.066 662.898C610.168 664.754 610.656 664.266 608.507 660.164C605.871 654.988 605.968 654.402 609.777 654.598C611.437 654.695 614.855 654.402 617.297 654.012C621.105 653.426 622.082 653.621 624.425 655.77C627.16 658.211 627.16 658.309 625.597 660.75C623.644 663.777 623.839 663.973 627.843 662.898C631.945 661.824 631.945 659.676 627.55 650.984C623.839 643.758 623.254 638.777 625.695 636.336C628.136 633.797 629.992 634.383 629.406 637.41C628.722 641.023 632.14 648.836 633.703 647.273C634.484 646.492 635.168 646.492 636.242 647.371C637.023 648.055 639.074 648.445 640.832 648.25C644.152 647.957 644.347 648.152 646.203 655.184C646.496 656.062 647.57 656.258 649.816 655.867C659.777 654.012 659.777 654.012 662.902 656.648C664.562 658.016 667.101 659.188 668.468 659.188C670.519 659.188 671.3 658.406 672.57 655.281C674.425 650.691 676.281 651.082 675.695 655.965C675.402 658.699 675.5 659.09 676.379 657.918C676.964 657.039 678.722 656.258 680.382 656.062C683.019 655.77 683.214 656.062 683.507 659.188C683.996 663.973 685.168 664.754 687.218 661.531C688.195 659.969 689.172 658.504 689.367 658.211C689.464 658.016 690.05 658.406 690.441 659.09C691.125 660.164 691.613 659.871 692.492 658.113C694.25 654.793 698.449 650.398 700.011 650.398C700.695 650.398 701.281 651.277 701.281 652.352C701.281 653.426 701.867 654.305 702.648 654.305C703.429 654.305 704.797 654.598 705.578 654.891C706.945 655.477 707.14 654.793 706.554 650.008L705.871 644.539H711.339C716.125 644.539 717.004 644.246 719.25 641.512C720.617 639.852 722.961 636.531 724.328 634.09C726.574 630.477 726.769 629.402 725.793 627.645C724.816 625.887 724.914 624.812 726.086 622.566C726.964 620.906 727.648 618.66 727.648 617.391C727.648 615.926 728.234 615.242 729.601 615.242C730.675 615.242 733.214 613.68 735.363 611.824C737.414 609.969 739.855 608.406 740.734 608.406C742.101 608.406 742.199 608.016 741.32 606.453C740.539 604.988 740.539 603.523 741.515 601.082C742.394 598.543 742.394 596.688 741.711 593.855C740.734 590.34 740.832 589.949 742.882 588.973C745.91 587.605 747.668 581.355 745.714 579.109C744.933 578.23 744.25 576.766 744.25 575.887C744.25 572.859 747.277 575.398 750.011 580.867L752.746 586.238L754.992 578.035C757.629 568.562 757.824 564.266 755.968 559.969C754.797 557.137 754.992 556.062 758.8 545.906C761.535 538.484 762.707 533.992 762.316 532.332C761.925 530.477 762.609 528.133 764.757 524.422C767.687 518.953 768.566 514.168 766.613 513.484C765.734 513.191 765.832 512.508 766.808 511.043C767.785 509.383 767.785 508.406 766.906 506.355C765.832 504.109 766.027 503.523 767.98 501.668C769.25 500.496 770.617 497.957 771.007 496.102C771.3 494.246 772.57 490.926 773.644 488.777C775.5 485.359 775.597 484.383 774.621 480.672C773.937 478.426 773.156 476.57 772.765 476.57C772.375 476.57 770.617 478.621 768.761 480.965C764.172 487.215 757.922 493.172 756.164 493.172C755.382 493.172 752.55 491.023 750.011 488.387C744.347 482.625 743.664 479.109 747.961 477.352C754.894 474.422 755.675 471.102 750.597 467.195C747.961 465.242 747.179 463.875 747.179 461.531C747.179 459.773 746.496 457.527 745.714 456.453C743.859 454.012 743.859 452.156 745.714 450.789C746.886 449.91 746.984 449.031 746.203 446.297C745.714 444.441 745.226 439.852 745.226 436.141C745.226 430.379 745.812 428.23 749.035 421.004C755.382 407.332 756.652 393.953 752.55 385.75C748.839 378.426 749.23 374.812 754.797 366.805C758.996 360.652 759.386 359.676 759.386 354.109C759.386 349.324 758.605 346.395 755.675 339.559C752.843 333.113 751.672 328.719 750.988 322.469C749.914 311.336 749.914 300.105 751.086 296.004C751.867 293.172 751.672 292.195 749.23 288.68C742.101 278.328 738.488 268.074 740.343 263.582C742.101 259.383 741.027 256.844 734.582 250.203C729.992 245.418 728.625 243.27 727.648 239.07C726.672 235.164 725.207 232.723 721.593 228.914C719.054 226.18 716.906 223.348 716.906 222.566C716.906 221.785 714.269 217.195 711.047 212.41C705.48 204.109 703.918 200.203 706.164 200.203C708.312 200.203 706.847 197.566 701.183 191.707C695.519 185.848 695.226 185.262 695.91 182.039C696.593 178.035 696.593 178.035 681.652 160.555C671.3 148.445 667.004 142.586 660.363 131.844C657.531 127.254 650.988 117.684 645.714 110.652C632.726 92.6836 629.406 87.0195 628.625 80.9648C627.648 73.6406 615.343 45.125 609.289 36.3359C607.726 33.9922 606.652 31.4531 606.945 30.7695C607.238 29.9883 606.652 28.9141 605.578 28.3281C604.406 27.7422 603.332 25.3984 602.648 21.7852C600.695 12.5078 594.836 0.0078125 592.297 0.0078125C591.711 0.0078125 590.539 0.691406 589.855 1.66797Z" fill="white"/>
<path d="M297.57 152.547C294.152 155.574 292.492 163.973 294.445 167.879C295.226 169.344 296.593 171.102 297.375 171.785C298.254 172.469 299.816 174.617 300.988 176.473L303.039 179.793L300.5 182.527C299.132 183.992 297.961 186.043 297.961 187.215C297.961 190.73 300.5 191.805 309.386 191.902C317.101 192.098 317.785 191.902 319.152 189.754C320.519 187.605 320.519 186.531 318.566 176.18C315.734 160.945 313.39 154.891 309.289 152.352C304.992 149.813 300.695 149.813 297.57 152.547Z" fill="white"/>
<path d="M274.523 154.891C273.937 156.258 273.547 158.309 273.547 159.383C273.547 160.945 273.937 161.238 275.793 160.652C276.964 160.359 279.699 159.578 281.847 159.09C288.976 157.332 290.05 154.891 284.582 153.426C278.234 151.668 275.597 152.059 274.523 154.891Z" fill="white"/>
<path d="M284.875 165.926C283.703 167.781 285.168 172.469 288.293 176.766C290.734 180.184 291.418 180.574 293.078 179.695C295.812 178.23 295.519 175.594 292.297 172.762C290.832 171.395 288.683 169.051 287.609 167.488C286.242 165.633 285.363 165.145 284.875 165.926Z" fill="white"/>
<path d="M313.976 208.699C312.414 210.652 310.656 211.434 306.261 212.02C300.109 212.801 295.226 216.316 296.3 219.148C296.984 220.711 303.82 224.617 306.164 224.617C306.945 224.617 309.289 222.664 311.437 220.223C313.586 217.781 315.636 215.828 315.929 215.828C316.32 215.828 318.859 214.852 321.496 213.777C325.5 212.02 326.086 211.434 325.109 210.262C324.425 209.48 323.058 208.406 321.886 208.016C316.808 206.16 316.027 206.258 313.976 208.699Z" fill="white"/>
<path d="M325.793 253.035C325.011 254.207 323.449 264.656 324.035 264.656C324.328 264.656 325.207 263.973 326.086 263.094C327.062 262.02 327.746 261.824 328.039 262.605C328.527 263.973 331.847 263.973 332.629 262.605C333.117 261.922 333.996 262.215 335.168 263.289C336.925 264.852 337.023 264.852 337.023 263.289C337.023 261.629 328.625 251.961 327.16 251.961C326.769 251.961 326.086 252.449 325.793 253.035Z" fill="white"/>
<path d="M307.433 253.621C307.043 253.914 306.75 255.477 306.75 257.039C306.75 260.164 308.605 260.652 311.535 258.113C313 256.941 313.293 256.062 312.511 254.695C311.535 252.937 308.703 252.352 307.433 253.621Z" fill="white"/>
<path d="M254.113 257.039C253.527 258.699 253.82 259.969 255.285 261.922C257.824 265.34 260.168 265.438 262.218 262.215C263.879 259.773 263.879 259.676 260.363 258.309C258.507 257.43 256.945 256.355 256.945 255.867C256.945 254.012 254.894 254.891 254.113 257.039Z" fill="white"/>
<path d="M257.238 649.91C256.945 650.789 254.601 652.547 251.964 653.914C247.863 655.965 247.179 656.746 247.179 659.09C247.179 662.898 251.769 666.414 255.382 665.438C257.726 664.852 257.922 664.363 257.922 659.871C257.922 656.062 258.41 654.402 260.07 652.645C261.925 650.691 262.023 650.203 260.851 649.422C258.8 648.055 257.922 648.25 257.238 649.91Z" fill="white"/>
<path d="M263.293 665.438L260.363 666.707L264.562 667.977C269.054 669.344 270.617 668.758 269.054 666.316C267.687 664.07 266.711 663.973 263.293 665.438Z" fill="white"/>
<path d="M641.711 672.762C641.711 676.375 638.586 680.184 633.8 682.625C631.75 683.699 629.992 684.871 629.992 685.164C629.992 685.457 631.066 687.02 632.433 688.68C636.144 693.074 635.558 696.004 631.359 694.148C629.601 693.27 628.429 693.367 626.574 694.344C624.425 695.516 623.839 695.418 621.789 693.465C618.957 690.828 616.32 691.316 613.39 695.027C610.656 698.543 610.949 700.301 614.855 704.109C616.711 705.965 618.273 706.941 618.273 706.453C618.273 705.867 620.031 704.402 622.277 703.23L626.183 700.984L628.625 703.23C631.554 705.965 631.554 707.137 628.527 710.75C626.086 713.68 626.086 713.777 628.039 714.363C630.285 715.047 630.48 716.023 628.918 718.855C628.136 720.516 628.234 721.102 629.601 722.176C631.164 723.25 631.164 723.641 629.992 725.105C628.82 726.473 628.82 726.863 630.089 727.645C631.066 728.23 632.043 727.742 633.605 725.789C636.144 722.762 636.437 720.711 634.679 718.855C633.605 717.879 633.898 717.195 636.047 715.34C637.511 714.07 638.976 711.922 639.367 710.555C639.855 708.406 640.246 708.211 641.906 709.09C644.347 710.457 647.375 709.383 645.812 707.82C643.859 705.867 644.543 702.84 647.375 700.594L650.011 698.445L647.472 698.934C644.347 699.52 642.882 696.883 644.933 694.441C647.375 691.707 647.57 687.215 645.519 682.723C643.468 677.938 643.175 674.715 644.738 673.152C646.007 671.883 645.129 669.93 643.078 669.93C642.199 669.93 641.711 670.906 641.711 672.762Z" fill="white"/>
<path d="M258.117 671.688C257.238 672.371 257.336 672.957 258.898 674.324C259.972 675.301 260.851 676.668 260.851 677.449C260.851 678.133 261.535 678.719 262.316 678.719C263.39 678.719 263.781 677.645 263.781 674.812C263.781 671.395 263.488 670.906 261.632 670.906C260.363 670.906 258.8 671.297 258.117 671.688Z" fill="white"/>
<path d="M287.804 682.137C288.488 684.48 291.808 688.094 292.589 687.312C292.882 687.02 293.371 685.262 293.664 683.504C294.25 680.281 294.152 680.184 290.734 680.184C287.707 680.184 287.316 680.477 287.804 682.137Z" fill="white"/>
<path d="M249.914 687.312C249.523 688.777 248.351 689.656 246.3 690.047C243.957 690.535 243.273 691.219 243.273 692.977C243.273 694.148 243.761 695.516 244.25 695.809C244.836 696.102 245.226 697.273 245.226 698.348C245.226 700.594 246.3 700.691 250.011 698.738C253.527 696.98 254.113 693.855 252.062 688.973C250.597 685.555 250.402 685.359 249.914 687.312Z" fill="white"/>
<path d="M519.738 690.145C518.175 692.098 515.832 695.516 514.66 697.762L512.511 701.863L515.539 708.504C518.957 715.633 519.25 717.391 517.492 717.977C516.515 718.367 516.515 718.953 517.394 721.004C518.371 723.152 519.25 723.641 522.179 723.641C525.5 723.641 525.597 723.543 525.011 720.809C524.23 717.098 526.672 714.656 530.773 715.047C533.703 715.34 533.8 715.535 533.8 719.93C533.898 725.105 535.656 728.035 537.218 725.594C538.097 724.324 538.293 724.324 539.074 725.594C539.953 726.766 540.148 726.766 540.636 725.398C541.027 724.52 542.004 724.031 543.078 724.324C544.64 724.715 545.129 723.738 546.496 717.391C547.765 711.727 547.863 709.578 547.082 708.602C545.129 706.355 540.929 706.16 537.023 708.113C532.433 710.457 530.773 710.457 530.09 708.016C529.797 706.746 528.722 706.062 527.16 706.062C525.011 706.062 524.718 705.574 524.132 700.984C523.449 696.297 523.644 695.711 525.89 694.051C528.625 692.098 529.113 689.559 527.257 687.703C525.207 685.652 522.765 686.434 519.738 690.145Z" fill="white"/>
<path d="M284.289 692.098C284.191 695.613 282.433 697.957 279.211 698.738C277.746 699.129 275.793 700.301 274.816 701.375C273.058 703.426 273.058 703.426 277.941 702.742C280.675 702.352 284.093 701.375 285.656 700.594C289.172 698.934 291.027 700.105 290.343 703.719C290.05 705.281 290.441 706.648 291.222 707.137C293.664 708.602 294.054 708.113 294.054 703.719C294.054 699.715 293.859 699.324 291.222 698.738C288.488 698.152 288.39 697.957 289.269 695.516C290.148 693.367 289.953 692.684 288 691.219C284.972 688.875 284.289 689.07 284.289 692.098Z" fill="white"/>
<path d="M538.488 691.609C537.414 692.879 535.754 695.027 534.875 696.492C533.312 698.934 533.312 699.227 534.777 701.57C536.047 703.426 537.316 704.109 539.66 704.109C541.418 704.109 544.836 704.402 547.375 704.695C551.183 705.281 551.867 705.086 551.867 703.719C551.867 702.84 551.183 701.863 550.402 701.57C549.621 701.18 548.937 700.398 548.937 699.715C548.937 699.129 548.058 697.762 546.886 696.688C545.226 695.125 544.738 695.125 543.957 696.297C543.273 697.371 543.175 696.492 543.566 693.562C544.152 689.949 543.957 689.461 542.394 689.461C541.32 689.461 539.562 690.438 538.488 691.609Z" fill="white"/>
<path d="M603.039 698.641C598.839 702.156 598.254 703.035 599.621 703.816C601.086 704.793 600.988 704.988 599.523 706.746C597.179 709.285 597.277 711.043 599.914 714.363C602.257 717.391 603.039 716.707 604.113 710.359C604.601 707.039 604.406 706.16 603.039 705.672C601.476 705.086 601.476 704.891 603.527 703.816C604.992 703.035 606.359 701.082 607.043 698.445C607.726 696.199 608.214 694.344 608.117 694.441C608.117 694.441 605.773 696.395 603.039 698.641Z" fill="white"/>
<path d="M250.89 705.086C251.379 708.309 251.672 708.504 255.578 707.039C258.117 706.062 258.117 705.965 256.457 704.109C255.48 703.035 253.722 702.156 252.55 702.156C250.793 702.156 250.5 702.645 250.89 705.086Z" fill="white"/>
<path d="M236.047 712.605C235.656 713.094 233.019 713.875 230.285 714.363C226.086 715.242 225.109 715.73 224.914 717.684C224.132 722.859 226.574 726.277 230.089 725.008C230.968 724.617 231.359 723.641 231.066 722.273C230.578 720.613 231.261 719.832 234.191 718.27C236.535 717 238 715.535 238.195 714.07C238.488 711.922 237.414 711.238 236.047 712.605Z" fill="white"/>
<path d="M254.113 719.93C253.625 721.199 253.625 722.566 254.113 723.055C254.601 723.641 254.992 724.812 254.992 725.789C254.992 727.84 255.382 727.938 258.019 726.277C259.679 725.301 260.168 725.398 261.339 726.863C262.902 729.109 266.027 728.719 266.515 726.277C267.004 724.031 264.074 720.711 261.828 720.711C260.851 720.711 259.582 720.027 258.898 719.246C257.14 717.098 255.089 717.488 254.113 719.93Z" fill="white"/>
<path d="M231.261 727.645C229.797 729.305 228.625 731.062 228.625 731.453C228.625 731.844 230.187 733.113 232.043 734.188L235.363 736.238L237.414 733.016C239.953 728.719 239.855 727.156 236.925 725.789C235.558 725.105 234.289 724.617 234.191 724.617C233.996 724.617 232.726 725.984 231.261 727.645Z" fill="white"/>
<path d="M502.16 735.066C499.523 737.215 497.961 743.465 499.523 745.516C500.89 747.469 506.066 749.324 507.043 748.348C507.531 747.859 508.117 744.93 508.507 741.805C509.093 736.824 508.996 735.848 507.433 734.773C505.089 733.016 504.699 733.016 502.16 735.066Z" fill="white"/>
<path d="M241.808 745.516C240.832 751.961 243.273 755.477 247.082 753.035C248.351 752.254 248.254 751.375 246.691 746.688C245.617 743.66 244.25 741.219 243.664 741.219C242.98 741.219 242.101 743.074 241.808 745.516Z" fill="white"/>
<path d="M249.328 742.879C248.351 743.27 248.449 743.758 249.718 745.223C251.769 747.469 251.086 754.109 248.547 756.941C245.714 760.066 247.765 760.164 252.257 757.137C255.968 754.598 256.457 753.914 256.164 750.887C255.871 747.273 251.476 742.098 249.328 742.879Z" fill="white"/>
<path d="M279.601 756.551C279.797 759.773 279.601 760.164 276.964 761.043C270.617 763.094 258.507 773.836 255.871 779.598C254.601 782.332 256.066 786.141 258.41 786.141C259.093 786.141 261.047 787.215 262.609 788.582C264.269 789.949 266.222 791.023 267.004 791.023C267.785 791.023 270.91 789.949 273.937 788.582C279.894 785.945 282.336 785.555 283.898 787.117C284.582 787.801 284.777 787.215 284.484 785.262C284.191 783.016 284.582 782.137 286.242 781.258C288 780.379 288.586 780.379 289.172 781.258C289.757 782.137 290.441 781.648 291.418 779.695C293.664 775.301 296.203 765.828 295.617 763.973C295.324 762.996 293.175 761.043 290.832 759.578C288.488 758.113 285.754 755.965 284.777 754.891C283.8 753.816 282.14 752.938 281.164 752.938C279.601 752.938 279.308 753.523 279.601 756.551Z" fill="white"/>
<path d="M498.254 758.211L496.007 760.652L501.476 764.168C509.484 769.246 510.949 768.367 505.968 761.727C503.82 758.797 501.671 756.258 501.183 756.062C500.793 755.965 499.425 756.941 498.254 758.211Z" fill="white"/>
<path d="M456.261 759.09C455.48 760.164 455.48 761.434 456.457 764.266C457.531 767.195 458.41 768.172 460.363 768.367C461.828 768.562 463.683 768.27 464.562 767.781C465.929 767 465.734 766.609 463.097 765.047C461.437 764.07 460.07 762.508 460.07 761.629C460.07 759.09 457.629 757.527 456.261 759.09Z" fill="white"/>
<path d="M415.636 769.539C414.562 770.027 412.316 770.418 410.558 770.418C406.457 770.516 406.066 771.492 408.41 775.301C410.168 778.133 410.754 778.523 413.39 777.938C415.05 777.645 417.589 777.352 419.054 777.352C421.203 777.352 421.886 776.766 422.375 774.617C422.765 773.152 423.254 771.199 423.547 770.223C423.937 768.855 423.449 768.562 420.812 768.66C419.054 768.66 416.711 769.051 415.636 769.539Z" fill="white"/>
<path d="M458.898 771.59C456.554 772.859 456.652 774.129 459.093 774.91C460.168 775.301 461.73 776.863 462.609 778.426C463.781 780.77 464.464 781.258 466.222 780.672C467.394 780.379 468.761 779.695 469.152 779.305C470.617 777.938 468.761 774.324 465.636 772.371C462.121 770.32 461.242 770.125 458.898 771.59Z" fill="white"/>
<path d="M359.679 778.23C354.504 781.16 350.695 787.117 354.015 787.117C354.796 787.117 355.578 787.801 355.773 788.68C356.066 790.047 356.457 789.949 358.703 788.191C360.07 787.02 362.121 786.141 363.195 786.141C367.687 786.141 370.226 783.211 366.808 781.844C366.027 781.551 365.343 780.184 365.343 778.816C365.343 775.984 364.074 775.789 359.679 778.23Z" fill="white"/>
<path d="M339.953 785.457C336.925 786.922 336.437 789.949 338.488 793.953C340.539 797.859 347.375 802.742 350.89 802.742C352.355 802.742 353.625 802.645 353.625 802.449C353.625 800.887 346.398 786.336 345.129 785.457C343.078 783.895 342.98 783.895 339.953 785.457Z" fill="white"/>
<path d="M371.3 786.043C370.519 787.508 370.714 787.996 372.765 788.973C376.379 790.535 380.968 790.34 381.652 788.484C383.117 784.676 373.254 782.332 371.3 786.043Z" fill="white"/>
<path d="M364.855 792.977C364.562 793.465 362.902 794.246 361.144 794.734C356.554 795.906 357.14 798.25 362.023 798.641C364.953 798.836 366.32 799.52 366.906 800.887C367.785 802.645 367.98 802.645 371.398 799.812C374.914 796.883 375.011 796.688 373.351 795.027C371.398 792.977 365.734 791.609 364.855 792.977Z" fill="white"/>
<path d="M244.64 800.203C243.761 802.547 246.984 805.672 250.304 805.672C252.648 805.672 253.039 805.281 253.039 802.742C253.039 800.594 252.55 799.812 251.379 799.812C250.402 799.812 248.644 799.52 247.472 799.227C245.91 798.836 245.031 799.129 244.64 800.203Z" fill="white"/>
<path d="M323.351 819.539C323.351 821.883 323.937 823.543 325.109 824.227C326.476 825.105 326.183 825.203 323.644 824.812C321.105 824.422 320.129 824.715 318.468 826.863C316.125 829.793 316.222 833.309 318.664 833.797C319.543 833.992 321.789 832.723 323.644 831.16C325.5 829.5 327.746 828.133 328.625 828.133C330.578 828.133 330.675 826.277 328.82 825.594C326.867 824.812 328.039 822.273 330.187 822.273C331.164 822.273 332.14 821.59 332.531 820.809C333.605 817.977 332.043 816.609 327.648 816.219L323.351 815.926V819.539Z" fill="white"/>
<path d="M370.422 821.688C369.054 824.715 371.3 828.133 374.718 828.133C377.355 828.133 377.453 828.035 375.988 822.957C374.816 818.758 372.082 818.074 370.422 821.688Z" fill="white"/>
<path d="M351.183 937.605C347.472 938.68 342.785 939.363 340.734 939.266C338.781 939.168 336.632 939.559 335.851 940.047C335.168 940.633 330.382 941.609 325.109 942.195C316.418 943.172 313.195 944.051 293.078 951.277C289.562 952.547 287.316 954.012 286.73 955.379C286.144 956.551 284.777 957.625 283.507 957.82C282.336 958.016 280.675 959.285 279.992 960.75C279.211 962.215 276.183 965.633 273.254 968.367C263.586 977.352 263.586 984.676 273.351 992.781C276.379 995.32 279.504 998.055 280.089 998.934C280.773 999.715 281.457 1000.2 281.652 999.91C281.847 999.715 283.214 997.957 284.582 996.004C287.218 992.586 287.316 992.488 295.812 991.902C301.476 991.512 306.164 991.707 309.875 992.586C314.66 993.758 315.636 993.758 317.492 992.488C319.152 991.316 320.324 991.219 324.425 992.195C328.527 993.172 329.504 993.172 331.457 991.805C332.629 990.926 335.07 989.07 336.925 987.801C338.781 986.434 341.418 985.359 342.785 985.359C346.984 985.359 352.257 983.504 354.113 981.453C355.382 980.086 357.14 979.5 360.168 979.5C363.683 979.5 364.367 979.207 364.367 977.547C364.367 976.473 365.441 974.91 366.711 974.129C367.98 973.25 369.347 971.59 369.64 970.418C369.933 969.246 371.886 966.316 374.132 964.07C376.281 961.727 378.039 958.895 378.039 957.723C378.039 956.551 376.867 952.645 375.402 949.031C373.547 944.051 372.375 942.391 371.007 942.391C368.664 942.391 365.734 940.828 362.121 937.898C360.558 936.629 358.996 935.555 358.703 935.652C358.312 935.652 354.992 936.531 351.183 937.605Z" fill="white"/>
<circle id="628" cx="382" cy="201" fill="#5CE50D"/>
<circle id="630" cx="620" cy="483" fill="#E52A0D"/>
<circle id="1503" cx="363" cy="670" fill="#E52A0D"/>
<circle id="629" cx="680" cy="656" fill="#E52A0D"/>
</svg>
