<svg width="1000" height="1000" viewBox="0 0 1000 1000" fill="none" xmlns="http://www.w3.org/2000/svg">
<path d="M436.693 40.8679C435.193 41.8995 431.254 43.5876 428.065 44.6192C418.03 47.7141 406.87 54.4665 397.773 62.907C393.928 66.4708 391.583 67.5024 373.014 73.5983C342.628 83.727 338.314 85.6965 331.468 92.7302C327.06 97.2318 325.091 100.233 322.746 106.047C321.058 110.174 316.556 118.802 312.805 125.273C307.084 135.12 305.677 138.309 304.083 145.437C303.145 150.126 300.613 160.067 298.55 167.57C295.455 178.824 293.861 182.856 288.984 191.391C285.795 197.111 281.387 206.115 279.23 211.554C276.604 218.213 273.697 223.465 270.509 227.497C266.757 232.28 265.538 234.812 264.6 239.22C263.944 242.878 261.505 248.505 257.848 255.07L252.127 265.198L249.407 282.267C247.063 296.616 246.219 299.898 243.968 303.462C242.561 305.807 240.029 310.402 238.435 313.778C236.84 317.155 232.807 323.626 229.431 328.315C226.055 332.91 222.866 338.256 222.304 340.038C221.741 341.82 219.865 345.852 218.177 348.947C216.489 352.042 213.957 357.482 212.456 361.139C210.956 364.703 207.861 370.049 205.423 372.956C201.765 377.364 201.015 379.052 200.452 383.553C200.077 387.211 197.732 393.588 193.231 403.623C183.29 425.475 182.352 427.069 175.224 434.759C171.661 438.604 163.876 448.17 158.062 455.954C152.247 463.832 145.589 471.71 143.338 473.586C139.962 476.305 138.836 478.181 136.679 484.277C133.584 493.186 128.708 500.408 112.014 520.665C105.074 529.199 96.2585 541.298 91.8506 548.425C84.4417 560.523 83.3163 561.836 67.842 576.466C58.9326 584.907 49.1791 593.723 46.178 596.067C32.4856 606.852 29.3907 610.135 24.4202 619.232C21.7942 624.109 19.8248 628.235 20.0124 628.423C20.7626 629.079 238.81 658.34 356.039 673.532C426.752 682.723 484.898 690.507 485.367 690.882C485.836 691.258 486.399 694.728 486.68 698.479C486.867 702.23 487.524 706.075 487.993 707.013C488.462 708.045 493.714 715.266 499.622 723.144L510.313 737.587V743.683C510.313 751.842 513.502 758.969 520.067 765.816C525.037 770.974 525.037 771.068 534.416 798.171L543.888 825.368L544.638 846.47L545.482 867.571L550.265 875.542C554.298 882.201 555.236 884.733 556.267 891.017C557.111 897.019 558.424 900.489 562.457 908.085C567.428 917.37 567.897 917.933 578.119 925.998C583.934 930.594 590.405 935.283 592.468 936.314C597.345 938.846 600.908 944.755 602.784 953.852C603.534 957.416 604.472 960.698 604.847 960.979C605.316 961.448 978.481 954.883 979.982 954.415C980.169 954.321 978.857 951.601 976.981 948.319C974.824 944.473 973.605 941.097 973.605 938.846C973.605 936.596 972.667 934.063 970.791 931.344C965.352 923.466 964.226 919.527 964.226 908.273C964.226 898.426 964.133 898.051 961.882 896.55C959.631 895.049 959.35 895.143 954.379 898.895C951.472 901.052 948.471 902.74 947.627 902.552C946.595 902.365 945.657 900.489 944.907 897.113C943.125 889.704 943.219 889.329 945.938 889.985C947.251 890.267 949.315 890.829 950.534 891.111C952.222 891.58 953.16 891.017 954.754 888.766C957.38 885.108 956.63 881.732 952.878 880.232C950.721 879.294 950.159 878.45 950.159 876.387C950.159 872.354 953.441 872.729 955.88 876.949C958.037 880.607 958.318 880.701 960.85 878.825C962.444 877.606 962.538 877.231 961.131 873.948C960.1 871.322 959.912 869.165 960.569 865.695C960.944 863.069 961.319 858.849 961.413 856.317C961.413 853.691 962.257 849.752 963.288 847.595C965.445 842.812 964.977 839.154 961.975 838.592C960.944 838.31 957.943 837.935 955.504 837.654C952.878 837.372 949.784 836.153 948.002 834.84C946.314 833.621 940.218 830.245 934.403 827.338L923.806 822.086L919.116 811.957C916.49 806.424 912.833 798.359 911.051 793.951L907.768 785.979L908.894 773.318C909.55 766.378 909.926 758.407 909.738 755.593L909.363 750.529L904.205 748.747C901.391 747.809 897.171 746.59 894.826 746.027C890.887 745.183 881.697 739.181 879.164 735.899C878.602 735.055 876.163 730.928 873.725 726.614C870.911 721.55 866.879 716.392 861.908 711.327C855.437 704.856 853.655 702.136 848.497 691.914C845.215 685.349 840.995 677.284 839.119 674.001C835.836 668.187 835.649 667.624 835.18 656.182C834.523 641.646 833.023 636.488 828.334 632.455C824.77 629.454 824.77 629.173 824.207 621.389C823.832 615.668 822.988 611.729 821.112 607.321C818.674 601.6 818.58 600.475 818.58 587.627L818.674 574.028L809.483 554.521L808.545 527.23C807.983 512.225 807.326 499.376 807.139 498.72C806.857 497.969 808.358 495.437 810.327 493.093C814.923 487.559 815.767 484.84 813.703 482.589C812.297 480.995 811.922 480.995 804.982 483.621C794.29 487.653 790.258 487.372 782.192 482.12C777.784 479.213 775.346 476.962 774.69 475.18C774.127 473.586 771.782 471.147 769.156 469.365C766.343 467.49 764.092 465.051 763.529 463.457C760.528 454.641 752.65 455.298 745.054 464.958C743.553 466.74 739.146 471.054 735.207 474.43C728.642 480.151 727.798 480.62 726.016 479.588C724.984 478.931 723.953 477.712 723.671 476.868C723.39 476.024 722.077 474.805 720.764 474.148C718.607 472.929 718.232 473.117 715.887 475.368C713.824 477.431 713.167 479.213 712.417 485.121L711.479 492.249L703.039 495.344C695.817 497.969 693.285 498.438 686.064 498.438C673.778 498.532 671.903 498.063 671.34 494.406C671.059 492.811 671.34 489.06 671.903 486.059C672.84 481.37 672.747 480.244 671.246 477.525C669.933 475.086 669.839 473.961 670.59 472.46C672.278 469.272 678.092 467.115 686.533 466.646C693.754 466.177 694.504 465.989 695.255 463.926C696.005 461.769 695.911 461.675 691.597 462.238C688.033 462.613 686.439 462.332 683.907 460.737L680.718 458.862L679.03 460.925C677.53 462.707 675.373 463.363 666.276 464.77C660.18 465.802 653.709 467.021 651.927 467.49C650.145 468.052 644.049 468.521 638.328 468.521H628.012L623.416 472.273C620.978 474.336 618.165 476.024 617.227 476.024C616.289 476.024 614.882 476.305 614.132 476.587C612.444 477.15 610.662 472.648 610.662 467.959C610.662 465.051 610.943 464.77 613.475 464.77C615.539 464.77 616.289 464.301 616.289 463.082C616.383 460.081 619.853 453.704 621.822 453.047C622.948 452.672 624.636 453.047 625.855 453.891C629.606 456.517 632.889 455.767 635.327 451.828C636.64 449.952 639.172 446.482 641.048 444.231C643.017 441.887 645.643 437.854 646.956 435.322C653.24 422.943 661.211 413.095 669.558 407.374C670.871 406.53 673.216 403.342 674.81 400.434C678.28 393.963 688.596 384.585 699.006 378.489C702.757 376.238 707.54 373.143 709.604 371.455C711.667 369.861 715.887 367.329 718.888 365.922C724.328 363.484 739.052 353.167 742.428 349.416C744.022 347.728 745.241 347.54 757.34 347.54C771.219 347.54 780.317 348.947 795.416 353.636C799.261 354.856 806.013 356.731 810.421 357.857C819.143 360.014 823.926 362.546 833.398 370.142C838.744 374.456 839.775 375.769 840.995 380.083C842.683 385.898 844.371 386.461 848.122 382.428C850.842 379.708 852.061 376.895 854.03 369.486C855.719 363.109 854.593 358.326 849.904 351.479C844.465 343.414 842.683 339.381 838.65 326.252C836.68 319.687 833.679 311.809 831.991 308.902C830.397 305.901 828.052 300.93 826.833 297.835C825.614 294.646 822.988 290.145 821.019 287.706C814.172 279.454 814.172 279.454 814.829 268.387C815.392 258.727 815.298 258.352 813.141 255.914C810.515 253.1 796.166 243.441 791.946 241.659C789.507 240.721 788.663 239.314 786.225 232.843C784.631 228.623 783.036 223.277 782.661 220.933C782.286 218.4 780.973 215.306 779.379 213.242C777.878 211.367 775.627 207.146 774.408 203.864C773.189 200.675 770.657 194.673 768.781 190.547C765.499 183.325 765.405 182.95 765.405 171.04C765.405 162.599 765.874 157.253 766.905 153.69C768.312 148.813 768.312 148.156 766.905 145.249C765.311 141.873 765.03 138.122 766.343 135.12C766.905 133.807 766.437 132.026 764.748 129.118C762.029 124.523 761.747 120.772 763.342 112.237C763.904 108.955 764.186 105.954 763.998 105.579C763.717 105.203 758.84 104.078 753.025 103.14C742.897 101.452 742.24 101.171 738.208 97.5132C734.644 94.2308 724.234 89.2603 672.465 66.2832L610.849 38.9922H525.225C441.007 38.9922 439.413 38.9922 436.693 40.8679Z" fill="white"/>
<path d="M792.133 84.5688C780.504 88.6015 780.598 88.5077 779.941 92.728C779.566 95.1664 777.503 99.2929 774.502 103.607C770 110.172 767.374 117.487 767.28 123.114C767.28 124.896 767.843 125.271 770.094 125.271C771.688 125.271 774.502 124.427 776.377 123.395C778.347 122.364 781.16 121.52 782.567 121.52C784.443 121.52 786.037 120.582 787.725 118.612C790.257 115.705 809.671 102.294 814.454 100.137C815.86 99.5742 818.955 99.0115 821.3 99.0115C823.644 99.0115 827.865 98.355 830.678 97.511C835.086 96.2918 835.93 95.5415 837.149 92.728C837.899 90.9461 838.556 89.258 838.556 89.0704C838.556 88.8829 835.18 88.6953 831.147 88.6953C826.927 88.6953 819.143 87.7575 813.047 86.4445C798.135 83.2559 796.353 83.1621 792.133 84.5688Z" fill="white"/>
<path d="M821.018 109.704C815.11 111.205 813.234 112.612 813.234 115.613C813.234 118.52 815.86 122.459 817.83 122.553C818.674 122.553 821.018 125.179 823.175 128.367C826.27 133.057 827.583 134.369 830.397 135.026C834.336 136.058 834.336 135.964 832.554 145.717L831.335 152.47L834.992 153.032C838.462 153.595 838.556 153.783 837.055 155.377C833.21 159.691 838.931 161.661 846.621 158.659C852.155 156.502 852.623 155.471 849.904 151.063C848.309 148.343 848.122 145.624 849.435 139.528C849.997 136.714 854.499 136.527 854.499 139.434C854.499 140.841 855.531 141.778 858.25 142.81C860.314 143.654 862.002 144.686 862.002 145.155C862.002 145.53 862.658 145.905 863.502 145.905C864.628 145.905 864.253 146.749 862.096 149.281C860.408 151.157 858.907 153.876 858.532 155.377C857.969 158.378 855.906 159.972 852.717 159.972C849.529 159.972 850.279 163.442 853.843 165.318L856.844 167.006L852.905 167.288C848.216 167.663 847.934 168.694 851.404 172.352L853.936 174.978H851.123C849.622 174.884 847.372 174.04 846.152 173.102C844.183 171.414 843.995 170.664 844.558 166.537C844.933 163.911 844.933 161.848 844.652 161.848C842.87 161.848 840.432 164.005 840.432 165.599C840.432 168.319 839.212 168.507 833.023 167.1C827.677 165.881 827.396 165.881 828.24 167.475C828.709 168.319 830.584 170.382 832.46 172.071C834.992 174.228 836.68 174.978 839.4 174.978C841.745 174.978 843.526 175.634 844.652 176.853C846.152 178.542 846.246 179.198 845.215 182.48C843.714 187.639 844.558 189.983 847.934 189.983C851.404 189.983 852.061 191.109 850.748 195.235C849.435 199.08 846.434 199.362 846.715 195.61C846.809 193.922 845.871 192.609 843.62 190.921C841.276 189.233 840.432 187.826 840.432 185.857C840.432 182.199 836.211 177.791 832.835 177.791C829.365 177.791 827.302 176.947 827.302 175.447C827.302 174.415 826.27 174.509 822.425 175.822C819.799 176.76 817.455 177.885 817.267 178.354C816.892 179.667 825.145 184.356 827.865 184.356C829.928 184.356 830.115 184.731 830.115 188.67C830.115 192.984 830.115 192.984 827.396 192.515C825.895 192.234 823.175 190.921 821.206 189.608C815.673 185.857 811.921 185.575 806.107 188.483C801.136 190.827 801.042 191.015 801.042 194.86V198.893L812.109 199.08C823.551 199.174 828.24 200.206 828.24 202.644C828.24 204.52 826.833 204.426 819.612 202.175C813.891 200.393 805.544 199.737 802.543 200.862C801.511 201.237 801.042 202.644 801.042 205.833C801.042 209.959 800.855 210.24 796.822 212.773L792.602 215.492V223.183C792.602 230.592 792.696 230.873 795.228 232.373C796.635 233.124 800.574 234.343 804.137 234.999C809.202 235.937 810.89 236.687 812.765 238.938C814.078 240.439 815.11 242.314 815.11 242.971C815.11 243.721 816.329 245.691 817.83 247.379C819.987 249.911 820.549 251.599 821.018 256.945C821.3 261.353 822.05 264.166 823.457 266.042C824.582 267.448 825.426 269.606 825.426 270.825C825.426 272.138 827.489 275.326 830.397 278.609C835.086 283.861 835.555 284.892 837.899 294.271C839.306 299.804 840.432 305.15 840.432 306.181C840.432 307.213 841.463 309.276 842.776 310.777C844.089 312.371 845.496 315.653 845.965 318.185C846.903 322.687 851.311 334.222 853.561 337.88C855.437 340.881 859.563 342.851 863.784 342.851C865.847 342.851 869.505 343.319 871.849 343.976C875.694 345.008 876.257 344.914 879.07 342.851C890.231 334.785 903.548 322.406 915.834 308.995C926.994 296.709 931.496 290.894 937.31 281.422C943.969 270.356 944.907 268.293 949.314 253.006C954.004 237.25 954.097 236.406 952.691 233.686C951.847 232.092 950.721 226.465 950.159 221.119C949.033 211.553 949.033 211.553 946.407 211.553C944.625 211.553 943.687 212.116 943.312 213.429L942.843 215.305L939.561 213.429C937.029 211.929 933.84 207.333 925.024 192.515C918.835 182.105 910.019 167.756 905.424 160.535C897.358 147.874 896.889 147.312 881.227 133.525C867.347 121.334 864.159 118.895 856.375 115.238C850.185 112.33 845.027 110.642 839.494 109.704C830.022 108.204 827.489 108.204 821.018 109.704Z" fill="white"/>
<path d="M771.501 163.911C771.22 165.131 771.032 168.882 771.22 172.164C771.501 178.166 771.595 178.26 775.534 180.886C779.285 183.418 779.473 183.7 778.16 185.2C777.316 186.138 776.659 187.451 776.659 188.295C776.659 190.265 780.598 193.735 782.943 193.735C783.974 193.735 785.569 194.579 786.506 195.61C788.195 197.392 788.101 197.486 785.944 197.486C784.725 197.392 782.099 196.829 780.223 196.173C776.003 194.672 775.815 195.141 779.098 199.455C782.849 204.52 786.038 211.272 786.038 214.273C786.038 218.775 787.819 218.681 792.415 214.086C796.448 210.053 796.729 209.396 796.823 204.801C796.823 200.018 796.729 199.831 793.54 198.799L790.352 197.767L793.259 196.267C795.135 195.235 796.448 193.735 796.823 191.953C797.385 189.233 799.261 188.108 803.575 188.108C806.389 188.108 808.827 183.418 807.702 180.417C806.951 178.542 805.826 177.979 799.542 176.947C783.13 174.228 783.599 174.509 779.942 168.319C778.066 165.318 776.19 162.786 775.721 162.786C775.252 162.786 774.315 162.505 773.471 162.223C772.533 161.848 771.876 162.411 771.501 163.911Z" fill="white"/>
<path d="M906.081 411.971C904.018 413.847 902.798 416.285 901.767 420.224C900.923 423.225 899.516 427.352 898.484 429.321C896.046 434.104 896.14 435.042 899.328 434.479C912.646 431.666 912.552 431.76 916.397 433.26C918.46 434.104 922.681 434.761 925.682 434.761C931.027 434.761 931.309 434.948 935.716 439.262C938.249 441.701 940.968 444.702 941.719 445.827C943.219 447.984 957.756 453.705 964.508 454.737L967.978 455.299V445.921L954.286 432.604C941.625 420.318 940.218 419.193 935.716 418.255C927.464 416.567 923.994 414.972 921.93 412.159C920.148 409.721 919.492 409.439 914.428 409.439C909.738 409.439 908.519 409.814 906.081 411.971Z" fill="white"/>
<circle id="811" cx="766" cy="483" fill="#5CE50D"/>
<circle cx="778" cy="140" fill="#E52A0D"/>
<circle id="1627" cx="612" cy="492" fill="#E52A0D"/>
<circle id="1628" cx="826" cy="931" fill="#E52A0D"/>
</svg>
