<svg width="1000" height="1000" viewBox="0 0 1000 1000" fill="none" xmlns="http://www.w3.org/2000/svg">
<path d="M355.729 1.35079C350.846 2.91329 348.796 5.94063 350.065 9.3586C350.944 11.6047 350.553 12.4836 346.94 16.7805C344.694 19.4172 341.764 21.8586 340.397 22.1516C335.417 23.2258 335.221 23.4211 335.71 26.7414C335.905 28.4016 336.784 31.3313 337.468 33.0891C338.737 36.0188 338.639 36.4094 337.077 37.2883C334.928 38.5578 334.928 40.4133 337.37 46.5656C338.639 49.9836 339.03 52.8156 338.639 55.1594C338.151 58.2844 338.444 59.0656 340.397 60.4328C341.667 61.3117 343.522 61.8977 344.499 61.8C345.573 61.6047 346.159 62.093 346.159 63.4602C346.159 64.632 345.768 65.5109 345.182 65.5109C343.425 65.5109 344.206 67.2688 346.159 67.757C347.428 68.05 348.112 69.1242 348.112 70.6867C348.112 71.9563 348.796 73.6164 349.577 74.3C350.846 75.2766 350.749 75.9602 349.089 79.2805C347.917 81.5266 347.135 84.9445 347.135 88.1672C347.135 92.5617 347.526 93.7336 350.163 96.3703C353.776 100.081 353.19 101.644 348.405 101.644H344.987L345.671 106.136C346.257 110.042 346.061 110.823 344.303 112.093C343.132 112.874 342.253 114.437 342.253 115.609C342.253 116.78 341.471 119.32 340.397 121.175C337.175 127.327 336.979 128.89 339.518 132.503C340.69 134.261 342.253 135.823 342.839 135.823C344.596 135.823 347.135 139.241 347.135 141.488C347.135 143.05 346.452 143.538 344.01 143.831C341.178 144.124 340.788 144.515 340.495 147.152C340.202 149.886 339.909 150.081 337.175 149.691C335.124 149.398 333.659 148.226 332.194 145.882C330.339 142.659 329.948 142.464 325.944 142.952C322.526 143.343 321.745 143.148 322.135 142.073C322.428 141.292 322.917 140.12 323.21 139.437C324.089 137.484 315.593 133.87 310.124 133.87C307.487 133.87 302.507 134.749 299.089 135.823C290.885 138.363 289.811 138.265 288.053 134.945C286.589 132.113 286.979 126.741 289.03 118.05C289.616 115.999 289.225 115.218 287.175 113.851C284.147 111.8 283.952 109.945 286.589 106.038C289.225 102.034 289.128 97.6398 286.198 94.9055L283.854 92.757L281.706 96.2727C278.581 101.351 269.01 107.405 261.003 109.456C257.292 110.433 252.897 112.288 251.139 113.655C246.647 117.073 244.401 117.464 240.397 115.804C233.854 113.07 233.464 113.363 227.995 124.788C221.452 138.558 218.327 142.464 213.542 142.855C210.417 143.148 209.831 143.538 209.44 146.077C209.147 147.64 207.975 150.863 206.706 153.206C204.948 156.429 204.753 157.796 205.534 159.261C206.706 161.507 206.608 161.507 211.784 160.238C216.862 159.066 219.303 160.335 216.081 162.386C214.811 163.167 212.175 164.437 210.221 165.218C206.803 166.39 206.022 166.292 201.432 164.241C194.01 160.921 190.495 160.628 187.565 162.874C186.296 163.948 183.073 165.609 180.436 166.585C171.061 170.101 165.3 177.816 161.003 192.952C158.171 202.816 157.682 203.89 154.362 206.038C150.944 208.382 150.846 208.577 150.846 214.437C150.846 221.37 152.018 223.421 156.51 224.3C159.635 224.886 159.635 224.886 159.635 220.98C159.635 217.366 159.928 216.976 162.37 216.683C164.128 216.488 165.104 215.706 165.3 214.437C165.593 212.191 170.475 209.066 173.698 209.066C177.702 209.066 179.85 211.702 181.608 218.538C182.585 222.249 185.124 228.597 187.272 232.699C190.983 240.023 193.229 241.976 194.401 238.851C195.28 236.702 197.721 237.093 197.721 239.339C197.721 240.511 197.135 242.562 196.354 244.027C195.671 245.491 194.792 248.128 194.401 249.984C194.108 251.839 192.741 254.769 191.471 256.429C190.104 258.089 188.932 261.019 188.737 262.874C188.542 265.413 187.663 266.585 185.026 268.343C181.608 270.394 180.632 271.37 177.116 275.374C174.186 278.695 174.479 291.292 177.8 299.202C182.194 309.749 186.1 312.386 190.983 308.284L194.01 305.745L196.94 308.187C198.503 309.554 200.553 310.628 201.53 310.628C202.507 310.628 204.069 311.507 205.046 312.581C206.022 313.656 207.292 314.534 207.878 314.534C208.561 314.534 212.272 311.605 216.178 308.089L223.21 301.546L229.753 302.62C235.514 303.597 236.686 304.183 239.714 307.601C243.62 311.995 249.186 313.46 253.385 311.116C255.339 310.042 256.218 310.042 258.268 311.116C260.417 312.288 260.807 312.972 260.417 315.902C260.026 319.417 255.729 324.3 252.995 324.3C251.237 324.3 249.577 330.55 250.163 335.042C250.456 337.191 251.042 338.949 251.335 338.949C251.725 338.949 251.823 344.613 251.628 351.449L251.237 364.046L259.245 370.882L256.803 374.202C255.436 376.058 253.581 378.792 252.702 380.355C251.725 382.015 249.772 384.456 248.21 385.824C245.964 387.972 245.28 389.827 244.01 397.64C243.229 402.718 242.741 407.991 243.034 409.359C243.425 411.312 242.839 412.581 240.885 414.339C239.421 415.706 237.468 417.074 236.491 417.366C235.612 417.757 234.343 419.027 233.757 420.394C232.585 422.835 229.167 424.886 226.042 424.886C224.772 424.886 224.089 425.57 224.089 426.741C224.089 427.816 223.014 429.964 221.745 431.429L219.303 434.359L221.647 439.241C222.917 442.074 224.772 444.515 225.846 444.808C228.385 445.687 229.362 448.226 227.507 448.909C225.456 449.788 225.456 458.675 227.604 459.456C228.874 459.945 228.678 460.531 226.628 463.265C223.893 466.781 223.014 473.031 224.87 474.886C225.749 475.765 225.065 476.644 221.647 478.792C218.522 480.745 217.057 482.406 216.667 484.359C216.178 486.409 214.909 487.679 210.905 489.632C206.51 491.781 205.729 492.562 205.143 495.687C204.753 497.64 203.874 499.398 203.19 499.691C202.409 499.984 201.53 501.644 201.139 503.304C200.358 506.624 200.163 507.503 199.089 515.218C198.698 518.05 197.624 521.077 196.354 522.445C194.303 524.691 194.303 524.691 196.257 525.863C197.331 526.448 201.237 530.159 204.948 533.968C208.659 537.874 212.077 541.097 212.565 541.097C213.053 541.097 213.932 539.73 214.421 538.167C215.3 535.823 216.081 535.238 218.229 535.238C220.378 535.238 222.331 533.773 227.311 528.304C232.585 522.738 234.44 521.37 237.468 520.882C242.057 520.198 243.913 518.831 243.327 516.488C242.839 514.925 243.327 514.73 246.354 514.925C248.405 515.12 250.26 515.609 250.553 515.999C250.846 516.488 253.385 515.609 256.218 514.046C260.221 511.898 261.1 510.921 260.807 509.359C260.124 506.624 261.198 505.355 264.616 504.671C273.112 503.011 277.995 500.57 280.827 496.566C282.292 494.417 283.854 491.39 284.245 489.925C284.538 488.558 285.221 487.191 285.612 486.898C286.1 486.605 288.932 487.581 291.96 489.046C295.671 490.902 297.819 491.39 298.698 490.804C299.382 490.218 303.19 487.679 307.096 485.14C311.003 482.503 315.3 479.085 316.569 477.523C320.573 472.835 327.311 474.495 328.874 480.452C329.264 482.308 331.413 486.312 333.464 489.339C336.393 493.636 338.053 495.101 340.983 495.98C343.034 496.566 345.671 498.323 346.843 499.788C350.553 504.964 356.706 508.382 363.151 508.87C368.62 509.359 369.108 509.554 370.085 512.191C370.866 514.534 370.671 515.218 368.815 516.683C367.643 517.659 366.667 519.417 366.667 520.687C366.667 523.616 371.354 528.402 374.186 528.402C376.042 528.402 376.432 527.913 376.432 525.081C376.432 522.152 376.823 521.761 379.557 521.175C381.315 520.882 383.561 519.71 384.733 518.734C385.807 517.757 388.053 516.683 389.616 516.39C391.276 516.097 394.499 515.12 396.94 514.241C402.995 511.995 408.366 512.191 411.1 514.73C412.858 516.39 413.737 516.683 415.3 515.804C418.229 514.241 420.768 509.749 421.354 504.964C421.745 501.741 422.428 500.374 423.991 499.495C427.702 497.738 429.85 495.198 430.534 492.171C431.218 488.558 436.1 485.433 441.081 485.433C443.034 485.433 445.28 485.14 446.159 484.847C447.526 484.359 447.428 483.968 445.768 481.82C444.694 480.452 443.815 478.89 443.815 478.499C443.815 478.011 445.475 476.058 447.526 474.202C450.553 471.37 451.628 470.882 454.069 471.37C455.729 471.663 460.026 472.347 463.639 472.835C470.671 473.714 480.241 478.304 486.393 483.773C488.835 485.824 490.983 486.702 495.085 487.093C499.968 487.581 500.749 487.972 502.116 490.706C504.264 494.808 505.339 495.296 508.366 493.538C512.468 491.097 515.397 492.464 520.28 499.3C523.698 504.281 524.87 506.82 525.749 512.288C526.725 517.757 527.897 520.687 531.803 526.644C534.635 530.941 537.37 536.507 538.249 539.827C539.225 543.636 540.788 546.663 542.936 548.909C544.694 550.765 548.405 556.917 551.139 562.581C557.096 574.886 557.292 575.179 563.151 578.597C565.69 580.062 570.573 584.066 573.991 587.484C578.971 592.464 580.925 595.296 583.464 601.253C586.296 608.089 586.491 609.359 585.905 615.218C584.928 624.788 579.948 638.558 575.944 642.757L572.624 646.273L572.233 662.484C571.843 676.644 571.55 679.378 569.596 683.87C568.229 687.093 567.448 690.999 567.35 694.417C567.35 699.3 567.741 700.277 571.452 704.964C574.577 708.87 575.749 711.312 576.237 715.023C576.823 719.027 577.507 720.394 580.241 722.445C584.831 725.96 588.346 733.187 588.346 739.046C588.346 748.421 593.815 753.109 613.444 760.335C619.694 762.679 625.163 765.12 625.553 765.804C626.042 766.683 624.772 768.148 621.452 770.296C618.815 772.152 616.667 774.202 616.667 775.081C616.667 775.863 617.448 778.109 618.522 780.159C619.499 782.113 620.671 785.238 621.061 786.995C621.745 790.316 625.456 793.05 629.264 793.05C634.733 793.05 640.397 799.398 643.132 808.382C644.303 812.484 644.206 812.581 640.788 816.39C638.639 818.734 637.077 821.663 636.686 824.007C635.319 831.722 634.831 832.601 630.729 833.187C626.042 833.87 621.55 835.726 621.55 836.8C621.55 838.753 626.237 841.878 629.167 841.878C631.901 841.878 632.292 842.269 632.292 844.32C632.292 846.077 631.608 847.054 629.753 847.835C628.288 848.323 625.065 850.472 622.526 852.62C616.471 857.698 615.593 861.312 619.401 865.804C620.866 867.659 622.624 869.124 623.307 869.124C623.893 869.222 624.479 870.003 624.479 871.077C624.479 872.054 625.651 874.495 627.018 876.546C629.655 880.452 629.167 881.917 624.968 881.917C623.21 881.917 623.014 882.406 623.307 885.335C623.6 887.874 623.307 888.851 622.135 889.339C621.061 889.73 620.768 890.609 621.061 891.683C621.452 893.05 621.061 893.538 619.401 893.831C617.35 894.124 617.057 894.808 616.471 901.644C616.081 905.745 615.3 910.921 614.714 913.07C614.03 915.609 614.03 917.757 614.714 919.417C615.593 921.761 615.202 922.347 608.854 927.425C605.046 930.452 602.018 933.48 602.018 934.163C602.018 935.238 598.21 936.214 591.081 936.995C589.616 937.093 587.858 937.777 587.077 938.46C586.296 939.046 585.026 939.339 584.147 938.948C583.366 938.656 582.389 938.851 581.999 939.437C581.706 940.023 580.339 940.511 579.167 940.511C577.311 940.511 576.725 941.195 576.335 943.734C576.042 945.687 576.335 947.152 577.116 947.542C577.8 947.933 578.678 949.495 578.971 950.863C579.85 954.085 585.417 962.777 588.151 965.316C590.007 966.976 591.276 967.073 600.944 966.488C609.733 965.902 612.077 965.999 614.616 967.269C616.276 968.148 617.643 969.515 617.643 970.394C617.643 971.37 618.229 971.663 619.499 971.273C620.475 970.98 621.745 971.273 622.331 971.956C622.917 972.64 625.358 974.105 627.8 975.179C630.729 976.448 632.292 977.718 632.292 978.89C632.292 981.136 633.659 983.773 638.249 989.925C641.862 994.906 642.057 995.003 648.21 995.589C651.725 995.98 656.218 997.152 658.171 998.226C661.686 1000.08 661.882 1000.08 663.151 998.421C663.835 997.445 664.518 995.98 664.518 995.198C664.518 992.562 667.35 989.632 670.378 989.046C674.186 988.265 674.186 986.214 670.378 981.82C668.034 979.183 667.448 977.62 667.448 974.202C667.448 970.394 667.057 969.71 664.616 968.441C661.491 966.781 660.612 965.12 660.612 960.921C660.612 959.261 660.124 957.113 659.538 956.038C658.464 953.89 659.245 950.081 660.417 951.741C661.784 953.695 666.764 955.355 667.448 954.085C667.936 953.304 669.987 953.206 674.089 953.695C677.311 954.085 680.827 954.085 681.901 953.792C683.659 953.206 686.589 947.933 687.175 944.027C687.468 942.366 687.76 942.366 690.495 944.808C693.034 946.859 694.596 947.347 698.893 947.347C704.46 947.347 706.51 946.175 706.51 943.148C706.51 941.585 706.999 941.39 709.05 941.878C711.296 942.464 711.589 942.269 711.198 940.706C710.71 939.144 711.491 938.46 714.616 937.191C719.303 935.335 720.182 936.019 720.182 941.683C720.182 944.613 720.573 945.296 722.331 945.589C723.796 945.784 724.772 946.859 725.456 949.007C725.944 950.765 726.725 952.23 727.116 952.23C727.604 952.23 728.874 953.109 729.948 954.183C731.022 955.257 732.878 956.136 734.147 956.136C736.003 956.136 736.589 956.917 737.565 960.531C738.249 962.972 740.202 966.585 741.96 968.441C744.889 971.663 745.475 971.859 747.428 970.784C749.577 969.71 752.311 969.808 757.096 971.273C758.464 971.761 759.245 971.566 759.245 970.784C759.245 969.32 768.132 961.116 769.792 961.019C770.378 961.019 770.964 961.409 770.964 961.8C770.964 962.288 771.55 963.363 772.233 964.339C773.503 965.999 773.893 965.902 780.827 962.679C784.831 960.726 788.932 959.066 790.007 958.87C791.178 958.675 792.057 957.698 792.253 956.331C792.448 955.159 793.62 953.109 794.987 951.741C796.257 950.472 797.331 948.909 797.331 948.323C797.331 946.761 802.018 950.179 802.702 952.327C803.288 954.085 807.78 957.113 809.831 957.113C810.221 957.113 811.589 955.159 812.76 952.718C814.128 949.788 815.69 948.128 817.253 947.738C818.62 947.445 820.866 945.589 822.331 943.734C824.577 940.804 824.772 939.925 823.796 938.363C822.819 936.8 822.917 936.214 824.284 935.238C825.651 934.163 825.749 933.773 824.577 931.917C822.819 929.085 824.186 926.937 828.874 924.593C832.78 922.738 833.561 920.491 830.729 919.613C829.753 919.222 827.507 917.659 825.846 915.999C823.405 913.656 822.721 912.093 822.721 909.261C822.721 905.745 822.819 905.55 826.725 905.062C829.069 904.769 831.608 904.964 832.682 905.648C834.245 906.624 834.831 906.429 836.491 904.476C837.468 903.206 838.346 901.351 838.346 900.374C838.346 899.3 839.323 898.031 840.593 897.445C841.764 896.956 843.62 894.515 844.694 892.171C845.768 889.73 847.135 887.777 847.819 887.777C850.358 887.777 849.089 882.894 845.573 878.988C842.546 875.667 842.155 874.593 842.643 872.054C843.425 868.05 841.96 865.609 838.346 864.827C834.831 864.046 834.05 862.972 835.319 860.628C836.882 857.796 832.585 853.89 827.018 853.011C822.135 852.327 821.843 851.937 819.694 843.441C818.815 839.925 817.741 838.265 815.69 837.093C813.542 835.823 812.956 834.847 812.956 832.015C812.956 829.378 812.272 827.913 809.928 825.863C807.194 823.421 807.096 823.031 808.464 821.468C809.343 820.491 810.026 818.441 810.026 816.878C810.026 814.144 810.319 813.948 817.643 811.8C821.843 810.628 826.628 809.652 828.385 809.652C831.706 809.652 832.194 809.261 836.003 803.402C838.053 800.277 838.346 798.909 837.858 795.882L837.175 792.073H825.749L823.21 787.777C821.257 784.456 819.596 782.991 816.276 781.722C810.905 779.671 809.831 777.718 810.612 771.859C811.393 765.511 808.659 762.288 801.432 761.312C796.452 760.628 795.768 760.14 790.69 753.988C785.319 747.445 784.147 742.562 787.175 739.241C788.639 737.581 788.542 737.288 786.589 734.554C783.952 730.745 782.389 730.745 779.85 734.652C778.776 736.409 777.018 738.46 775.944 739.144C774.772 739.827 773.893 740.999 773.893 741.683C773.893 744.515 770.475 743.831 767.35 740.413C764.03 736.8 762.37 731.136 764.128 729.183C765.593 727.327 764.421 724.691 760.612 721.077L757.292 717.952V705.941C757.292 698.421 757.878 691.878 758.757 688.558C760.71 681.234 760.612 679.866 758.268 680.452C757.096 680.745 755.241 679.964 753.288 678.402C751.628 677.034 749.968 675.862 749.479 675.862C748.112 675.862 746.647 670.394 747.624 668.929C748.796 666.976 748.698 666.097 747.233 666.097C745.768 666.097 743.62 662.093 743.62 659.359C743.62 658.382 742.936 657.015 742.155 656.331C740.397 654.866 740.202 651.741 741.96 651.155C742.839 650.862 742.643 650.277 741.471 648.812C740.495 647.737 739.714 645.687 739.714 644.32C739.714 641.195 736.882 640.609 736.1 643.636C735.807 644.71 734.831 645.589 733.854 645.589C732.096 645.589 728.971 642.659 728.971 640.999C728.971 640.511 727.897 639.437 726.53 638.753C725.163 638.07 724.089 636.702 724.089 635.823C724.089 634.945 722.819 633.284 721.257 632.112C718.425 630.062 716.081 626.448 710.807 616.78C704.167 604.378 697.526 594.906 694.206 593.343C691.96 592.269 690.885 591.097 690.885 589.632C690.885 588.46 689.323 585.531 687.468 583.187C683.561 578.304 683.659 578.695 685.124 576.058C686.1 574.202 685.807 573.616 682.975 571.273L679.655 568.538L681.218 564.339C682.096 561.995 683.073 559.359 683.561 558.48C683.952 557.308 683.464 556.038 681.706 554.281C680.339 552.913 679.167 550.96 679.167 549.886C679.167 548.909 677.897 546.077 676.237 543.734C674.284 540.902 673.307 538.167 673.307 535.823C673.307 532.796 672.917 532.113 670.182 530.941C667.155 529.671 666.862 529.769 665.007 531.917C662.565 534.749 659.928 534.945 657.096 532.21C655.339 530.648 655.046 529.476 655.534 525.863C656.022 521.663 655.925 521.566 652.995 521.566C650.944 521.566 649.968 520.98 649.577 519.613C649.284 518.538 647.721 516.878 646.061 515.999C642.741 514.046 642.155 511.409 644.694 508.675C646.159 507.015 646.061 506.82 643.132 505.843C641.471 505.257 639.616 503.988 639.128 503.011C637.565 500.081 637.956 491.39 639.811 488.07C642.839 482.503 644.108 481.527 646.061 482.601C647.721 483.48 647.917 483.187 647.917 480.257C647.917 478.402 647.233 476.351 646.452 475.667C645.671 474.984 644.987 473.616 644.987 472.64C644.987 471.37 644.303 470.784 642.741 470.784C641.471 470.784 638.346 469.71 635.807 468.441C633.268 467.171 629.655 465.804 627.8 465.511C625.456 465.023 624.479 464.339 624.479 463.07C624.479 460.042 621.354 458.089 617.448 458.675C614.616 459.163 613.542 458.87 612.175 457.21C611.198 456.136 609.343 455.159 608.171 455.159C606.51 455.159 605.534 454.183 604.557 451.741C603.581 449.593 602.018 447.933 600.358 447.249C596.452 445.784 587.565 436.8 586.882 433.48C586.198 430.452 583.073 428.304 579.948 428.695C577.702 428.89 574.675 425.179 574.675 422.152C574.675 420.98 573.503 420.003 571.257 419.124C569.303 418.441 566.862 416.585 565.69 415.023C564.518 413.46 562.663 412.191 561.491 412.191C558.952 412.191 557.096 410.433 557.78 408.675C558.073 407.894 557.78 407.308 557.194 407.308C556.608 407.308 556.12 406.527 556.12 405.452C556.12 404.378 554.948 403.206 553.288 402.425C551.725 401.839 549.284 399.984 547.721 398.421C545.475 396.077 544.206 395.589 540.495 395.589C535.807 395.589 531.706 393.538 531.706 391.097C531.706 390.316 531.022 389.73 530.241 389.73C529.46 389.73 528.776 388.851 528.776 387.777C528.776 386.409 528.093 385.824 526.725 385.824C525.651 385.824 525.065 385.335 525.358 384.847C525.651 384.261 526.823 383.87 527.8 383.87C528.776 383.87 530.925 382.699 532.585 381.331C534.245 379.964 537.175 378.597 539.225 378.402C545.671 377.425 548.014 376.156 548.6 373.128C548.991 371.468 550.065 370.101 551.237 369.71C554.264 368.734 553.678 364.437 549.772 358.87C546.452 354.183 545.768 351.449 546.94 348.324C547.819 346.175 550.944 346.37 552.214 348.714C553.288 350.765 559.538 351.546 560.221 349.691C561.003 347.249 576.628 349.007 576.628 351.546C576.628 352.132 578.874 352.23 581.901 351.937C587.077 351.449 587.272 351.449 588.737 354.476C589.616 356.136 590.788 357.503 591.276 357.503C591.764 357.503 593.327 358.675 594.694 360.042C596.745 361.995 598.014 362.484 601.335 362.288C603.581 362.191 606.315 362.484 607.487 363.167C609.343 364.144 609.733 363.851 611.589 359.554C614.225 353.499 619.108 349.398 621.745 350.96C623.307 351.937 623.796 351.839 624.577 350.374C625.163 349.398 626.725 348.714 628.288 348.714C629.85 348.714 631.608 348.031 632.292 347.249C634.05 345.101 632.585 340.413 629.655 339.046C627.604 338.167 627.409 337.679 628.385 336.507C630.729 333.675 642.448 328.206 646.159 328.206H649.87V323.909C649.87 321.468 650.358 319.222 650.846 318.929C651.432 318.538 651.139 317.366 649.87 315.804C647.526 312.777 647.428 311.8 649.479 309.554C650.846 307.991 650.846 307.796 648.698 307.21C647.428 306.82 644.987 305.159 643.229 303.597C640.397 301.156 639.128 300.765 634.928 300.863C628.678 301.058 623.014 299.691 623.112 298.128C623.21 297.445 623.307 295.687 623.405 294.124C623.503 292.171 624.186 290.999 625.456 290.609C628.19 289.73 627.897 286.507 624.772 283.382C623.21 281.82 621.257 279.476 620.28 278.109C618.913 276.058 617.741 275.472 614.909 275.472C612.956 275.374 609.538 274.691 607.389 273.909C605.241 273.031 602.507 272.152 601.335 271.859C598.698 271.273 595.768 268.148 596.55 266.781C596.94 266.195 599.675 265.023 602.604 264.046C606.901 262.679 608.366 262.581 609.831 263.558C613.053 265.511 615.495 264.925 617.057 261.898C617.936 260.335 620.378 257.503 622.526 255.745C624.675 253.89 626.432 251.644 626.432 250.863C626.432 249.984 623.405 247.445 619.694 245.199C614.323 241.976 612.76 240.511 612.272 238.265C611.784 236.214 610.612 234.847 608.268 233.773C606.413 232.894 604.948 231.624 604.948 230.941C604.948 230.257 604.167 229.476 603.19 229.183C602.214 228.792 600.065 225.863 598.503 222.445C595.964 217.074 595.28 216.39 592.936 216.585C590.983 216.683 590.3 216.292 590.3 215.023C590.3 212.874 585.221 209.066 582.194 209.066C581.022 209.066 579.46 208.577 578.874 207.991C577.311 206.429 570.964 207.796 569.596 210.042C568.718 211.409 567.741 211.8 566.081 211.312C563.932 210.824 554.948 213.07 550.846 215.12C549.577 215.804 548.796 215.706 548.307 214.925C547.819 214.144 546.55 213.949 544.987 214.339C543.132 214.827 542.448 215.609 542.448 217.269C542.448 218.538 541.764 219.808 540.983 220.199C540.007 220.589 539.714 221.566 540.104 223.714C540.69 226.546 540.593 226.644 537.37 226.644C534.05 226.644 533.854 226.839 533.268 230.55C532.78 233.87 532.292 234.456 530.241 234.456C528.874 234.456 527.8 233.87 527.8 233.187C527.8 232.503 525.651 229.671 523.112 226.839C519.694 223.128 517.643 221.761 515.788 221.761C512.663 221.761 509.245 218.636 509.245 215.902C509.245 213.753 507.682 213.46 504.069 214.827C502.214 215.511 500.553 215.023 495.671 212.484C492.253 210.628 488.932 209.456 488.249 209.652C487.565 209.945 486.686 209.749 486.296 209.163C486.003 208.577 485.026 208.089 484.245 208.089C481.706 208.089 473.112 200.179 473.21 197.933C473.21 196.859 471.843 192.269 470.085 187.972C467.546 181.82 466.276 179.769 464.225 179.085C462.272 178.304 461.589 177.23 461.1 174.3C460.71 172.249 459.733 169.222 458.952 167.659C458.171 166.195 457.487 163.655 457.487 162.191C457.487 159.066 455.241 156.331 452.702 156.331C451.725 156.331 450.358 155.745 449.772 154.964C448.893 153.89 449.479 153.402 453.093 152.327C456.999 151.155 457.487 150.667 457.487 148.226C457.487 146.566 458.854 143.734 460.905 140.999C465.593 134.847 465.495 133.382 460.71 136.507C458.171 138.167 458.073 138.167 458.757 136.507C459.147 135.53 459.44 134.261 459.44 133.773C459.44 133.284 460.221 132.503 461.198 132.113C462.077 131.722 465.202 128.89 468.132 125.863L473.307 120.198L472.917 114.241C472.428 107.405 470.866 105.55 465.593 105.55H462.37V98.2258C462.37 91.6828 462.175 90.9016 460.514 90.9016C458.952 90.9016 458.561 91.8781 457.975 95.9797C457.292 101.351 455.339 103.792 449.284 107.113C447.038 108.382 446.061 108.382 443.815 107.503L440.983 106.331V96.7609C440.983 90.5109 440.593 86.4094 439.714 85.1398C438.639 83.382 438.639 82.8938 439.811 82.2102C441.862 80.9406 439.714 77.9133 434.147 74.3977C429.069 71.0773 427.507 68.7336 429.167 67.0734C430.925 65.3156 430.241 63.0695 427.214 60.1399C425.651 58.5774 424.284 56.3313 424.284 55.0617C424.284 53.8899 423.405 52.425 422.428 51.8391C421.354 51.3508 420.182 49.9836 419.889 48.9094C419.596 47.8352 418.718 46.9563 418.132 46.9563C417.448 46.9563 416.471 45.9797 415.983 44.7102C415.397 43.5383 414.03 42.1711 412.858 41.5852C411.686 41.0969 410.514 39.8274 410.221 38.8508C410.026 37.7766 409.343 37.2883 408.757 37.5813C407.585 38.3625 402.018 27.6203 399.382 19.8078C398.503 16.9758 396.647 13.3625 395.378 11.8C393.327 9.3586 392.643 9.16329 390.104 9.84688C388.542 10.3352 384.733 10.6281 381.706 10.6281C376.53 10.5305 375.26 11.1164 374.186 14.1438C373.991 14.7297 372.526 14.1438 370.866 12.9719C368.718 11.507 367.546 9.45626 366.471 5.74532C365.202 1.05782 364.811 0.569537 362.175 0.374225C360.612 0.276569 357.682 0.667194 355.729 1.35079Z" fill="white"/>
<circle id="368" cx="369" cy="500" fill="#5CE50D"/>
<circle id="370" cx="660" cy="871" fill="#E52A0D"/>
<circle id="369" cx="575" cy="697" fill="#E52A0D"/>
<circle id="997" cx="339" cy="303" fill="#E52A0D"/>
</svg>
