<svg width="1000" height="1000" viewBox="0 0 1000 1000" fill="none" xmlns="http://www.w3.org/2000/svg">
<path d="M729.8 1.59049C727.163 2.86002 726.577 3.93424 725.601 8.52409C725.015 11.4538 724.429 17.0202 724.429 20.8288C724.233 33.2311 724.136 33.3288 715.835 34.9889C708.999 36.2585 708.218 36.2585 701.089 34.2077C695.132 32.4499 693.081 32.2546 691.421 33.0358C690.347 33.6217 688.296 33.9147 687.026 33.5241C685.562 33.1335 683.511 33.6217 681.753 34.696C678.921 36.3561 678.726 36.3561 674.233 33.7194C669.741 30.985 669.644 30.985 661.44 32.1569C654.409 33.1335 652.847 33.1335 650.991 31.8639C648.843 30.4967 643.765 30.0085 629.116 30.0085C626.284 30.0085 621.792 30.7897 619.058 31.6686C614.956 33.0358 611.44 33.2311 600.21 32.9381C584.585 32.3522 575.698 30.2038 568.569 25.2233C565.444 22.9772 563.491 22.3913 559.585 22.3913C555.288 22.3913 554.605 22.6842 554.605 24.2467C554.605 25.321 556.655 32.6452 559.292 40.653L563.882 55.1061L563.687 70.7311C563.491 79.3249 562.905 89.3835 562.319 92.9967C561.245 99.5397 561.147 99.8327 556.851 102.274C554.409 103.739 550.015 106.864 546.987 109.208C543.862 111.454 540.151 114.09 538.491 114.872C536.929 115.751 532.144 119.462 527.944 123.173C517.788 132.059 514.468 134.208 505.776 137.137C499.331 139.383 496.987 139.579 485.757 139.579C478.823 139.481 472.28 139.676 471.401 140.067C468.276 141.337 469.155 147.098 473.062 151.395C476.87 155.594 476.968 156.669 475.308 163.993C474.038 169.364 472.28 171.219 463.687 175.712C458.901 178.251 444.253 188.016 440.737 191.141C438.198 193.29 434.487 200.321 434.487 202.958C434.487 203.934 433.022 208.036 431.167 211.942C429.409 215.946 427.163 221.219 426.284 223.758C424.331 229.13 422.183 230.008 414.468 228.544C410.659 227.86 408.999 227.958 406.655 229.13C402.944 231.083 402.261 232.059 402.261 236.258C402.261 238.895 401.089 241.141 397.28 245.926L392.202 252.079L393.472 260.087C396.401 278.251 396.401 277.958 388.98 290.262C383.608 298.954 381.948 302.665 380.581 309.012C379.019 316.337 379.019 317.313 380.483 325.321C381.753 331.864 382.534 334.012 383.901 334.501C385.366 334.891 385.659 336.063 385.659 340.458C385.659 345.243 386.05 346.317 389.077 349.637L392.495 353.446L390.542 358.426C389.37 361.161 388.101 367.801 387.612 373.075C386.733 382.059 386.343 383.231 381.753 391.337C377.456 398.954 376.87 400.614 376.87 405.594C376.87 411.063 377.065 411.454 381.753 416.63C385.171 420.438 386.636 422.782 386.636 424.735C386.636 427.176 386.05 427.665 381.753 429.13C373.355 431.962 368.276 439.774 361.343 461.161C359.878 465.36 357.339 470.048 354.116 474.247C348.159 481.962 344.546 483.329 333.999 482.157C326.089 481.278 304.897 481.18 301.968 481.962C298.647 482.84 298.94 488.797 302.651 495.34C305.972 501.297 306.265 504.618 304.605 523.368C302.944 542.411 301.187 549.247 296.011 556.473C289.37 565.751 287.124 572.196 287.026 580.985C287.026 590.067 283.218 602.567 279.409 605.79C274.819 609.696 274.331 610.477 274.331 613.602C274.331 620.438 272.378 627.274 269.546 630.301C263.101 637.235 261.147 643.094 258.804 662.235C258.12 668.583 257.241 670.926 253.628 676.883C250.894 681.376 248.647 686.747 247.476 691.337C245.718 698.661 236.831 717.704 227.358 734.305C221.694 744.364 213.198 751.883 207.632 751.883C203.53 751.883 202.651 752.86 201.089 759.696C200.405 762.626 197.964 769.559 195.62 775.126C189.175 789.969 184.292 808.036 183.804 819.266L183.315 828.544L174.819 845.145L166.421 861.747L161.636 863.016C156.948 864.383 156.948 864.383 157.437 867.801C157.827 869.657 158.999 873.075 160.171 875.321C161.343 877.469 163.003 880.594 163.882 882.255C166.323 886.844 165.835 901.981 163.101 910.282C160.073 919.266 153.433 927.86 148.55 928.934C143.569 930.008 139.663 934.794 139.565 939.969C139.565 948.758 139.077 949.442 126.968 959.403C116.714 967.704 115.347 969.266 113.979 973.465L112.515 978.251L118.472 978.739C121.694 979.13 131.948 979.618 141.03 980.008C150.21 980.399 159.878 981.278 162.515 981.962C166.909 983.133 167.495 983.036 168.374 981.571C168.96 980.692 170.62 978.739 172.085 977.274L174.917 974.54L179.897 977.079C184.487 979.422 185.464 979.618 192.69 978.934C196.89 978.544 203.335 977.372 206.753 976.297C211.733 974.735 214.468 974.54 219.351 975.028L225.503 975.712V980.301C225.503 984.501 225.894 985.282 230.386 989.676C233.901 993.192 235.269 995.243 235.269 997.196V999.93H244.839C251.87 999.93 254.897 999.54 256.558 998.368C258.022 997.294 262.026 996.708 269.546 996.317L280.288 995.731L281.851 991.825C283.022 989.09 284.878 987.04 288.589 984.696L293.765 981.376H318.179L319.155 977.665C319.644 975.712 320.425 972.294 320.913 970.145C321.597 966.922 322.28 966.141 325.015 965.36C329.214 964.188 331.558 959.305 333.022 948.563C333.608 944.364 334.683 939.383 335.464 937.528C337.319 933.133 337.222 920.438 335.269 909.891L333.706 901.297L336.343 896.708C337.808 894.071 339.858 889.676 340.835 886.844C341.812 883.915 343.96 880.008 345.62 878.153C349.233 874.149 350.503 871.122 350.503 866.825C350.503 861.844 351.577 861.063 355.093 863.212C357.73 864.774 358.218 865.751 358.804 870.438C359.487 875.516 359.78 876.005 364.077 878.739C368.179 881.278 374.526 883.719 377.554 883.719C378.335 883.719 378.53 882.157 378.14 878.641L377.651 873.465L383.901 870.145C389.565 867.118 390.737 866.825 395.62 867.411L400.991 868.094L405.972 861.844C410.366 856.376 411.636 855.399 416.226 854.032C422.378 852.274 423.257 851.395 424.136 846.122C424.624 843.778 426.089 840.946 427.944 839.09C430.776 836.063 431.46 835.868 437.319 835.868C443.374 835.868 444.448 835.477 455.483 829.422C469.448 821.805 473.94 817.801 476.089 811.063C478.726 802.762 486.05 790.458 489.468 788.505C491.226 787.528 497.476 783.524 503.335 779.618C509.292 775.712 516.323 771.61 519.058 770.536C522.964 768.876 525.015 767.02 529.019 761.649C531.851 757.938 536.929 752.762 540.347 750.223C543.862 747.684 546.987 744.95 547.28 744.169C547.573 743.387 548.062 739.579 548.452 735.672C548.94 728.934 548.843 728.251 546.401 725.126C543.765 721.61 543.472 720.047 544.448 714.872C544.937 712.43 545.522 711.844 547.671 711.844C549.038 711.844 552.944 710.965 556.265 709.989C559.683 708.915 564.663 707.84 567.495 707.547C570.718 707.157 576.089 705.204 581.655 702.372C589.663 698.27 590.835 697.294 592.202 693.973C593.081 691.825 595.522 688.114 597.573 685.575C600.796 681.766 601.48 680.204 601.48 676.883C601.48 673.368 601.089 672.587 598.647 671.415C595.815 669.95 590.64 663.895 589.468 660.868C589.175 659.891 587.319 659.012 584.683 658.622C582.339 658.231 578.53 656.864 576.089 655.692C561.929 648.368 556.362 646.415 549.331 646.415C543.569 646.415 541.909 646.024 539.565 644.071L536.636 641.825L538.882 636.454C540.737 631.766 541.714 630.692 546.694 627.958C554.605 623.465 556.558 619.266 556.558 606.864V597.587L563.491 592.02C569.448 587.137 571.108 584.989 575.698 576.297L581.167 566.337H585.757C592.202 566.337 595.132 563.114 597.671 553.251C598.745 549.149 601.577 542.118 604.116 537.528L608.608 529.227L611.733 531.18C616.128 533.915 622.769 532.938 626.48 529.13C628.823 526.688 629.898 526.297 634.39 526.297C639.468 526.297 639.565 526.297 642.69 521.415C646.304 515.946 649.624 514.286 655.288 515.165C658.413 515.653 659.585 516.532 662.124 520.536C664.468 524.247 665.933 525.516 668.667 526.2C676.48 528.153 679.214 528.251 681.069 526.786C682.144 526.005 683.901 525.321 684.976 525.321C686.245 525.321 688.003 523.563 689.858 520.633C691.519 518.094 694.253 515.36 696.011 514.383C699.136 512.919 699.624 512.919 704.312 514.579C707.144 515.555 711.929 517.704 715.151 519.364C718.276 521.024 721.304 522.391 721.987 522.391C722.573 522.391 727.065 523.954 731.851 525.907C739.175 528.837 742.3 529.422 750.503 529.911L760.269 530.497L771.401 523.075V509.891L767.788 508.622C765.737 507.938 762.515 505.692 760.562 503.641C757.144 499.93 757.046 499.833 748.355 499.247C737.905 498.563 735.659 497.294 734.194 491.434C733.12 487.333 732.73 487.04 725.894 483.817C721.89 482.059 718.374 479.911 718.081 479.13C717.788 478.251 719.155 475.614 721.206 472.88C723.159 470.34 727.554 462.43 730.972 455.497C737.808 441.141 741.519 436.551 757.925 421.415C764.468 415.36 768.862 410.477 769.644 408.524C770.523 405.985 771.401 405.204 773.745 405.008C776.675 404.715 776.773 404.52 777.065 399.54C777.358 394.169 778.14 393.583 782.632 395.34C784.097 395.926 785.757 395.34 788.98 392.997C793.276 389.872 793.472 389.774 796.792 391.239C799.331 392.313 802.847 392.606 810.757 392.313L821.304 391.825L825.796 387.43L830.288 382.938L830.093 376.2C829.898 368.094 831.753 363.016 837.71 355.887C839.858 353.251 841.714 350.321 841.714 349.54C841.714 347.977 849.526 343.876 856.46 341.727C859.585 340.848 860.073 340.165 860.659 337.04C860.952 335.087 861.245 332.352 861.245 330.985C861.245 329.032 862.319 327.958 866.812 325.614C872.378 322.684 872.476 322.587 876.675 312.821C880.581 304.032 881.362 302.762 884.097 301.981C886.636 301.298 887.124 300.614 887.417 297.684C887.71 294.559 887.222 293.68 882.632 289.579C879.898 287.137 877.261 285.087 876.773 285.087C876.284 285.087 875.894 284.305 875.894 283.329C875.894 282.352 873.94 278.446 871.499 274.54C867.3 267.801 867.105 267.118 867.105 260.184C867.105 253.055 867.202 252.665 870.815 248.661C878.237 240.262 877.944 241.044 876.48 236.258L875.21 231.864L865.835 229.032C855.874 226.005 855.386 225.516 855.386 218.094C855.386 216.239 854.702 215.555 852.358 215.067C848.843 214.383 847.671 212.235 845.132 201.102L843.374 193.778L849.429 181.669C856.851 166.923 856.851 165.555 848.745 161.258C845.718 159.696 840.444 157.548 837.222 156.669C830.679 154.813 829.019 152.958 829.019 147.001C829.019 143.973 828.53 143.583 818.862 138.212C809.292 132.743 808.706 132.255 806.655 127.469C805.581 124.735 803.921 120.243 803.14 117.508L801.675 112.43L781.362 112.04C762.026 111.649 761.05 111.747 757.73 113.7C749.819 118.583 750.698 118.876 745.523 109.696C742.983 105.106 741.226 101.102 741.519 100.712C741.909 100.321 749.526 95.6335 758.511 90.1647L774.819 80.3991V66.6296C774.819 54.0319 775.015 52.5671 776.87 50.028L778.921 47.2936L784.194 52.1764C789.761 57.3522 795.327 60.3796 796.694 58.9147C797.476 57.9381 802.651 39.1881 802.651 37.1374C802.651 36.1608 800.601 36.0631 793.96 36.5514C785.952 37.235 784.878 37.0397 779.898 34.7936C776.968 33.4264 772.183 31.6686 769.253 30.7897C764.858 29.5202 762.808 28.0553 757.046 22.0983C752.944 17.8991 749.819 13.6999 749.429 12.0397C747.866 5.00846 746.694 2.76237 744.058 1.39518C740.444 -0.46029 733.706 -0.362634 729.8 1.59049Z" fill="white"/>
<circle id="376" cx="319" cy="500" fill="#5CE50D"/>
<circle id="377" cx="500" cy="155" fill="#E52A0D"/>
<circle id="1378" cx="688" cy="430" fill="#E52A0D"/>
<circle id="378" cx="248" cy="700" fill="#E52A0D"/>
</svg>
