<svg width="1000" height="1000" viewBox="0 0 1000 1000" fill="none" xmlns="http://www.w3.org/2000/svg">
<path d="M430.463 7.33594C430.463 19.0547 427.24 35.9492 423.334 45.6172C421.381 50.4023 418.353 59.3867 416.791 65.6367C411.713 84.875 407.025 97.8633 399.701 113.293C390.619 132.141 374.017 162.707 367.67 172.18C364.935 176.184 361.029 183.02 358.881 187.316C356.83 191.613 353.9 196.594 352.338 198.547C348.724 203.137 346.869 207.043 346.088 211.633C345.697 213.781 344.037 217.102 342.474 218.957C339.935 222.082 339.642 223.059 339.642 229.797C339.642 240.441 337.006 259.777 334.857 265.441C332.318 271.984 328.9 279.504 317.963 302.551C312.787 313.293 306.146 328.332 303.021 336.047C298.236 348.059 297.357 351.477 296.185 361.438C293.841 380.676 294.33 400.109 297.65 424.328C301.752 454.113 306.244 472.57 312.298 484.68C313.763 487.609 315.326 492.492 315.716 495.422C316.205 498.84 318.158 504.211 321.185 510.07C323.724 515.148 326.849 522.18 328.119 525.695C329.388 529.211 334.173 538 338.763 545.227C348.627 560.754 360.345 582.629 363.177 590.734C366.107 599.328 371.576 623.84 372.357 632.141C372.748 636.145 374.31 644.836 375.873 651.379C378.998 664.66 382.513 684.875 385.541 706.848C386.713 714.855 389.447 728.332 391.693 736.633L395.795 751.77V774.23C395.795 795.422 395.697 797.082 393.451 803.527C391.009 810.461 385.931 819.445 379.779 827.551C376.166 832.336 361.322 844.836 343.548 858.215C337.884 862.414 328.021 870.324 321.576 875.793C303.802 890.734 299.213 894.055 286.42 900.695C279.974 904.113 269.33 910.461 262.689 914.758C251.849 921.887 250.58 923.059 249.701 926.477C248.431 930.969 249.408 945.52 251.263 950.5C251.947 952.355 253.607 956.75 254.974 960.266C256.244 963.781 257.904 970.715 258.588 975.695L259.857 984.777L262.787 984.484L265.814 984.191L265.521 977.746C265.228 970.52 265.619 970.031 272.259 968.176C274.701 967.492 277.435 966.711 278.412 966.516C279.877 966.027 280.072 966.613 279.877 971.691C279.681 976.574 280.267 978.527 283.588 985.656C287.103 992.98 291.107 998.449 292.181 997.277C292.279 997.082 295.599 990.93 299.408 983.703C309.662 964.367 311.517 962.707 318.353 966.223C320.697 967.395 323.92 969.641 325.58 971.203C327.631 973.156 329.486 974.035 330.951 973.742C332.904 973.547 333.49 972.473 334.759 967.492L336.224 961.438L338.959 962.902C342.279 964.562 346.478 964.66 362.298 963.391C376.459 962.219 380.756 960.461 382.611 955.09C385.052 947.961 386.713 946.984 403.412 943.176C411.908 941.32 421.283 938.586 424.31 937.316C427.24 935.949 430.951 934.875 432.513 934.875C434.369 934.875 435.931 933.898 437.591 931.75C440.033 928.723 444.72 926.77 452.533 925.402C455.658 924.914 460.736 927.062 471.478 933.41C474.408 935.168 478.9 937.414 481.341 938.293C485.15 939.66 486.42 940.832 488.47 944.641C489.838 947.277 492.963 951.379 495.306 953.918C499.896 958.703 500.97 962.219 502.24 976.867C503.314 988.293 504.584 992.98 507.416 995.617C512.396 1000.3 521.673 1001.09 525.873 997.277C532.904 991.027 537.494 988.684 546.088 987.219C550.873 986.34 556.146 984.777 558.099 983.605C561.224 981.652 562.982 981.359 574.408 981.359L587.201 981.262L595.013 976.672C599.31 974.23 604.681 971.691 606.927 971.008C609.466 970.227 611.322 968.957 612.006 967.492C613.47 964.172 616.986 962.316 623.92 961.047C628.705 960.266 630.756 959.289 633.099 956.945C634.662 955.285 638.275 953.039 640.912 951.965C645.111 950.305 645.892 949.523 646.673 946.398C647.357 943.469 648.334 942.492 651.068 941.418C654.291 940.148 654.779 940.148 656.927 941.809C662.396 946.203 667.767 942.98 673.431 932.043C675.677 927.551 677.533 923.059 677.533 921.887C677.533 920.715 679.095 915.344 680.951 909.973C685.345 897.375 685.345 893.762 680.951 886.438C676.361 878.918 676.166 877.648 677.631 869.445L678.802 862.609H683.588C686.127 862.609 690.912 863.488 694.232 864.66C697.455 865.832 700.287 866.516 700.384 866.418C700.58 866.223 703.705 861.633 707.318 856.262C711.029 850.891 714.154 846.398 714.252 846.203C714.349 846.008 720.697 845.227 728.412 844.445C745.502 842.688 745.892 842.395 745.892 833.41C745.892 828.625 746.576 825.598 748.334 821.789C752.435 812.902 751.459 796.105 745.892 780.188C743.548 773.449 727.24 741.516 722.064 733.703C720.111 730.773 718.451 728.137 718.353 727.844C718.158 727.551 716.693 726.281 715.033 725.109C710.443 721.984 710.15 719.055 713.568 712.414C717.474 704.895 719.427 697.766 720.209 688.098C720.795 680.285 720.892 679.992 726.459 672.473C731.048 666.418 733.197 664.465 737.006 662.805C742.474 660.363 744.623 657.238 745.599 650.207C745.892 647.863 747.259 644.445 748.529 642.688L750.873 639.465L748.041 638.879C746.576 638.586 741.009 635.363 735.736 631.848C730.56 628.234 725.58 625.305 724.798 625.305C721.966 625.305 720.502 619.055 720.502 607.238C720.502 598.059 720.111 595.227 718.646 592.297C717.67 590.344 716.302 586.828 715.716 584.582C714.642 580.871 714.838 580.09 716.986 576.672C718.256 574.621 720.209 570.031 721.283 566.516L723.236 560.07L719.916 556.848C716.4 553.527 711.029 543.469 709.271 537.121L708.295 533.41L699.798 539.855C695.111 543.469 691.009 547.18 690.716 548.059C690.131 550.109 683.002 552.062 675.97 552.062C664.447 552.062 657.416 544.641 653.998 528.918C651.849 518.957 650.384 515.148 647.748 513C646.673 512.121 646.381 510.852 646.869 508.703C648.724 498.449 634.271 482.336 611.127 469.055C607.123 466.711 599.213 461.145 593.646 456.652C582.123 447.375 580.17 446.887 572.064 450.988C567.865 453.137 565.912 453.43 557.709 453.43C549.603 453.43 547.357 453.039 542.865 450.988L537.591 448.547L538.275 444.445C539.056 439.758 540.326 437.805 542.67 437.805C543.548 437.805 545.306 436.926 546.673 435.852C548.041 434.777 549.701 433.898 550.384 433.898C551.068 433.898 553.607 430.871 555.951 427.062C558.392 423.352 560.834 420.031 561.322 419.738C562.884 418.762 562.494 390.441 560.834 382.629C560.052 378.82 559.369 371.691 559.369 366.711V357.629L569.916 346.203C579.974 335.266 580.463 334.387 583.002 326.477C587.591 312.023 592.474 299.035 594.623 296.105C595.697 294.543 596.283 292.785 595.892 292.102C595.502 291.418 590.814 286.73 585.638 281.75C577.142 273.742 576.068 272.18 574.994 267.785C574.31 265.051 572.552 261.438 571.185 259.68C569.72 258.02 567.865 255.09 567.181 253.332C566.4 251.477 564.642 248.547 563.275 246.984C561.908 245.324 558.588 240.246 555.951 235.754C550.873 227.355 550.677 227.062 541.888 224.426C538.08 223.254 534.759 221.203 529.877 216.809C522.748 210.363 520.306 209.484 510.931 209.387C507.806 209.289 505.463 208.801 504.681 207.922C503.802 206.848 502.923 206.652 501.068 207.434C499.701 207.922 498.334 208.117 498.041 207.824C497.162 206.945 505.463 187.121 509.857 179.504C516.595 167.785 525.677 154.406 532.416 146.301C542.963 133.605 543.256 125.012 533.588 112.121C530.756 108.41 527.045 102.551 525.287 99.2305C519.818 88.9766 486.42 57.6289 476.068 53.0391C473.529 51.8672 470.99 50.0117 470.404 48.8398C469.818 47.668 467.865 45.1289 466.205 43.2734C463.373 40.2461 458.685 28.332 457.611 21.3984C457.416 20.1289 456.146 19.1523 454.095 18.6641C452.045 18.0781 447.943 14.8555 442.279 9.09375C437.494 4.21094 432.904 0.304688 432.025 0.304688C430.756 0.304688 430.463 1.57422 430.463 7.33594Z" fill="white"/>
<circle id="393" cx="421" cy="614" fill="#5CE50D"/>
<circle id="392" cx="391" cy="451" fill="#E52A0D"/>
<circle id="1389" cx="462" cy="216" fill="#E52A0D"/>
<circle id="1004" cx="340" cy="915" fill="#E52A0D"/>
</svg>
