<svg width="1000" height="1000" viewBox="0 0 1000 1000" fill="none" xmlns="http://www.w3.org/2000/svg">
<path d="M344.815 18.509C342.74 23.8851 351.794 30.0157 361.98 30.2043L367.639 30.2986L377.542 41.7109C383.579 48.6904 392.822 57.6505 401.31 64.9128C409.044 71.4207 415.081 76.8911 414.986 77.0797C414.043 77.9286 403.385 72.5525 394.991 66.8935C388.295 62.4606 384.994 59.5368 383.484 56.9902C382.353 54.9153 379.429 51.4255 377.071 49.0676C374.713 46.7097 371.223 42.3712 369.337 39.2587C365.942 33.7883 365.942 33.7883 362.169 34.2599C359.434 34.6372 357.17 34.1656 353.586 32.4679C350.945 31.2418 346.984 29.827 344.815 29.2611C341.042 28.3179 340.853 28.1293 339.721 23.1306C338.401 17.2829 338.59 17.3772 329.818 19.2635C325.102 20.301 322.65 20.2067 315.01 19.0749L305.862 17.6602L300.863 22.376C298.222 24.9225 294.355 28.1293 292.469 29.6384L288.979 32.2792L291.997 37.561C293.601 40.4848 295.204 44.5405 295.487 46.6154L295.958 50.3881L302.089 51.7085C307.182 52.746 308.974 53.6891 312.464 57.1789C314.916 59.5368 319.16 62.272 322.367 63.5924C325.48 64.8185 330.384 67.1765 333.214 68.7798C336.043 70.3832 339.156 71.7037 340.193 71.7037C341.608 71.7037 341.419 71.1378 338.873 68.3083C337.269 66.4219 336.137 64.6299 336.42 64.4413C336.703 64.1583 339.156 65.4788 341.891 67.3651C344.626 69.3458 348.965 72.3639 351.511 74.1559C356.793 77.8342 358.302 78.1172 359.151 75.382C359.622 73.8729 358.868 72.4582 355.944 69.4401C351.794 65.1958 350.945 62.272 353.869 62.272C356.981 62.272 380.183 75.382 392.539 84.1535C404.328 92.4534 405.272 92.8306 409.61 91.6045C411.214 91.0386 412.534 91.3215 413.666 92.3591C415.175 93.6795 415.552 93.6795 416.307 92.4534C418.476 88.775 418.948 88.3978 421.023 88.9636C423.097 89.5295 455.165 109.336 457.24 111.411C457.712 111.883 456.863 112.26 454.882 112.26C451.393 112.26 445.168 109.713 440.923 106.695C439.509 105.752 434.793 103.394 430.36 101.413C423.38 98.301 421.494 97.9237 415.835 98.0181C412.062 98.1124 408.101 98.8669 406.403 99.7158C395.274 105.469 376.694 108.676 375.279 105.092C374.241 102.451 374.713 101.225 377.071 100.187C379.9 98.8669 379.523 98.0181 374.524 92.2647C371.506 88.775 371.223 88.6807 361.98 87.6432C353.114 86.7 351.888 86.3228 342.079 81.041C333.591 76.5138 330.761 75.4763 327.177 75.4763C323.122 75.4763 322.839 75.665 323.688 77.2684C324.725 79.1547 339.816 88.8693 347.455 92.4534C351.039 94.2454 352.171 95.3772 353.775 99.2441L355.755 103.96L351.322 105.752C347.455 107.355 346.607 108.299 344.72 112.543L342.551 117.542L333.214 120.654L323.782 123.672V132.349V141.026L330.667 145.365L337.552 149.704L338.684 155.929C339.721 161.776 339.627 163.002 337.458 171.868C335.854 178.376 333.968 183.186 331.893 186.299C329.535 189.788 328.121 193.938 326.14 202.332C324.725 208.557 323.216 214.311 322.744 215.159C322.367 216.008 320.009 217.234 317.557 217.895C314.445 218.838 310.861 221.196 304.919 226.289C300.486 230.25 295.393 234.117 293.884 235.06L290.96 236.569L290.865 255.055V273.447L294.261 280.71L297.562 287.972L296.336 300.799C295.298 312.211 294.921 314.003 292.657 317.116C291.054 319.285 289.828 322.492 289.451 325.416C288.79 330.037 288.696 330.226 283.226 332.961L277.567 335.791V345.505C277.567 354.937 277.472 355.22 274.643 358.71C271.908 362.105 271.719 362.671 272.096 368.141C272.474 373.14 272.191 374.743 270.021 379.176C268.041 383.138 267.286 386.439 266.72 393.324C266.06 401.152 265.683 402.85 263.136 406.434L260.307 410.678L262.287 414.168C263.608 416.526 264.362 419.355 264.362 422.279C264.362 424.731 264.834 428.315 265.306 430.107C266.249 433.125 265.966 434.163 262.382 441.614L258.326 449.82L262.853 455.667C267.192 461.232 267.286 461.609 266.72 465.948C265.966 471.607 263.796 472.927 256.44 472.361C252.196 471.984 250.498 471.324 248.329 469.249C244.462 465.476 243.99 463.401 246.348 460.194C248.8 456.893 248.8 456.327 246.537 454.252C245.216 453.121 244.65 450.763 244.179 444.632C243.707 437.747 243.896 435.955 245.499 432.277C246.537 429.919 247.385 426.052 247.385 423.694C247.385 420.11 247.951 418.789 250.309 416.337C252.196 414.356 253.327 412.093 253.705 409.452C254.176 405.774 254.082 405.491 251.252 404.547C249.649 403.982 248.329 402.944 248.329 402.19C248.329 401.435 250.121 397.379 252.196 393.041L256.063 385.307L250.875 390.966C247.291 394.927 245.216 398.134 244.084 401.718C243.235 404.547 240.783 409.169 238.708 411.999L234.936 417.092L235.784 426.901C236.256 432.654 236.256 437.087 235.784 437.558C234.181 439.162 239.934 467.74 247.48 496.601C255.214 526.405 258.703 546.023 258.703 560.359C258.703 567.055 258.515 567.904 257.289 566.867C256.44 566.112 255.874 566.112 255.874 566.678C255.874 567.244 258.609 585.824 262.004 608.083C267.569 644.301 268.135 649.299 267.569 657.128C266.909 665.711 267.003 665.899 269.361 667.786C271.813 669.672 273.794 676.085 273.794 681.933C273.794 686.743 272.379 685.14 268.984 676.557C267.003 671.558 265.117 668.163 264.174 667.974C263.042 667.786 264.079 672.218 269.173 689.195C274.643 707.21 275.68 711.832 275.68 717.491C275.68 723.527 275.303 724.942 272.757 729.091L269.833 733.807L272.474 749.558C274.737 763.611 275.869 767.573 282 784.267C286.15 795.302 290.299 804.828 292.092 807.374C294.355 810.393 296.43 815.769 299.637 826.804C303.881 841.423 303.975 842.083 302.655 845.761C301.335 849.44 301.429 849.723 303.504 851.703C305.013 853.118 306.05 855.665 306.805 859.909C308.125 867.548 310.389 873.773 314.35 880.187C317.18 884.808 317.368 885.563 316.897 891.411C316.425 897.258 316.52 897.918 318.689 899.899C320.009 901.125 321.801 904.804 322.933 908.671C324.065 912.349 326.328 917.253 328.026 919.611C330.007 922.252 331.422 925.553 331.799 928.288C332.365 932.25 332.931 933.004 336.609 935.174C338.873 936.494 340.759 938.003 340.759 938.475C340.759 938.946 341.891 939.984 343.4 940.738C344.815 941.493 348.399 945.077 351.511 948.755C355.944 954.131 357.547 955.452 359.717 955.452C363.489 955.452 366.79 956.961 371.412 960.733C374.524 963.28 376.882 964.223 381.409 964.978C384.711 965.544 388.766 966.77 390.464 967.807C392.727 969.222 394.331 969.505 396.877 969.033C399.896 968.467 400.65 968.75 403.574 971.58C406.309 974.221 407.347 974.692 410.742 974.409C412.817 974.315 415.458 973.749 416.401 973.278C418.57 972.146 420.928 973.655 420.928 976.201C420.928 978.654 422.72 979.031 435.453 979.031C444.602 979.031 448.186 979.408 452.807 981.012L458.561 982.992L464.22 978.654L469.784 974.315H477.707C484.969 974.315 485.912 974.126 487.893 971.957C489.119 970.637 490.628 969.599 491.289 969.599C491.949 969.599 493.363 968.373 494.401 966.864C495.438 965.449 497.513 963.94 499.022 963.657C500.437 963.374 504.021 961.205 506.945 958.753C512.038 954.603 512.415 954.414 516.848 955.074C521.187 955.64 521.47 955.546 522.319 953.094C523.168 950.83 525.054 949.887 538.824 944.888C552.594 939.889 555.99 939.041 568.534 937.437C576.362 936.494 583.153 935.645 583.813 935.645C584.379 935.645 585.7 934.419 586.548 932.91C587.869 930.741 589.378 929.798 593.434 928.854C597.961 927.723 598.904 927.157 600.319 924.327C603.337 918.102 605.789 916.782 605.789 921.498C605.789 923.007 606.072 924.327 606.449 924.327C606.732 924.327 608.996 923.101 611.354 921.592C614.372 919.706 617.484 918.668 621.54 918.291C628.425 917.536 636.819 914.047 642.101 909.802C644.176 908.105 648.043 905.558 650.59 904.049C653.23 902.54 657.663 899.428 660.493 896.975C663.322 894.617 667.849 891.128 670.49 889.147C673.131 887.261 676.998 883.677 678.979 881.319C681.62 878.018 684.355 876.037 689.637 873.679C693.504 871.887 698.125 869.246 699.823 867.643C701.615 866.134 704.727 864.059 706.802 863.021C715.197 858.683 723.496 849.157 735.758 829.633C747.547 810.958 749.151 807.563 749.151 801.904C749.151 800.206 749.811 797.848 750.565 796.622C751.32 795.49 753.678 790.492 755.847 785.587C759.054 778.136 759.714 775.778 759.62 770.779C759.431 765.686 759.808 764.366 762.261 760.876C764.241 757.952 765.184 755.312 765.656 750.879C765.939 747.483 767.259 742.862 768.485 740.409C769.712 738.052 771.126 732.77 771.692 728.714C772.258 724.753 773.39 720.226 774.239 718.622C775.465 716.17 775.559 714.472 774.616 706.644C774.05 701.645 772.918 695.137 772.258 692.308C771.221 688.158 771.126 683.536 771.787 669.106C772.258 659.203 772.918 650.526 773.201 649.677C774.993 645.055 761.695 601.292 758.582 601.292C757.733 601.292 756.507 603.367 755.375 606.951C754.338 609.969 753.395 612.139 753.3 611.667C753.112 611.101 752.546 608.932 751.98 606.763C751.037 602.99 750.848 602.801 748.49 603.745C745.472 604.876 744.906 604.405 746.415 602.047C747.264 600.538 747.076 599.5 745.378 596.105L743.303 591.955L745.284 590.352L747.264 588.654L745.284 587.239C743.397 585.919 743.303 585.258 743.869 579.882C744.623 572.431 742.548 566.018 738.021 562.056C734.626 559.038 732.174 558.472 732.174 560.736C732.174 561.491 731.796 562.151 731.325 562.151C730.193 562.151 729.344 559.793 729.344 556.586C729.344 554.794 727.929 552.625 724.251 548.946C721.233 546.023 718.969 542.91 718.781 541.495C718.592 539.703 717.743 538.949 715.291 538.289C713.216 537.817 711.801 537.817 711.141 538.477C709.82 539.798 708.5 539.798 705.199 538.572L702.652 537.534L704.916 535.176C706.991 532.913 707.651 532.724 712.65 533.29C719.346 533.95 719.441 534.044 721.893 538.666L723.779 542.439L726.797 540.741C728.967 539.42 729.91 538.194 730.099 536.119C730.382 533.573 729.533 532.441 723.685 527.254C720.007 523.953 715.762 519.52 714.253 517.35C712.273 514.427 710.669 513.2 708.311 512.729C705.671 512.257 704.822 511.314 702.181 506.032C698.691 498.959 698.031 491.979 700.672 489.999C702.086 489.055 701.709 488.489 697.937 485.377C695.579 483.491 693.409 481.321 693.221 480.661C692.938 479.907 693.787 477.926 695.107 476.04C697.088 473.21 697.276 472.456 696.333 470.664C695.39 468.966 694.73 468.683 692.089 469.154C689.448 469.72 688.694 469.437 687.845 467.834C687.279 466.702 685.864 465.948 684.449 465.948C682.657 465.948 681.997 465.382 681.525 463.118C681.242 461.421 679.545 458.968 677.375 457.082C673.886 454.158 673.697 453.687 673.697 448.782C673.697 444.066 673.414 443.5 671.245 442.463C668.981 441.425 668.415 441.614 666.152 443.783C662.568 447.273 660.87 446.801 658.135 441.52C656.909 438.973 654.928 436.615 653.891 436.238C652.382 435.766 652.004 434.823 652.099 432.182C652.382 423.222 653.23 423.505 657.663 433.691C659.927 438.973 662.002 443.312 662.379 443.312C662.662 443.312 663.417 442.84 663.983 442.274C665.303 440.954 664.548 424.92 663.039 422.09C662.473 421.053 659.833 411.904 657.192 401.812L652.382 383.421L648.986 383.138C644.365 382.76 642.29 379.648 643.139 374.46C643.516 372.385 643.987 370.688 644.365 370.688C644.648 370.688 645.685 372.574 646.628 374.932C647.854 377.856 648.986 379.176 650.212 379.176C651.155 379.176 652.004 378.705 652.004 378.139C652.004 377.667 650.307 370.782 648.232 362.859C645.213 351.824 643.893 348.052 642.101 346.637C640.875 345.6 639.177 343.336 638.423 341.638C636.819 338.526 635.593 337.866 634.461 339.658C634.178 340.224 632.575 341.261 630.877 341.921C628.331 343.053 628.048 343.525 628.331 346.637C628.519 349.372 628.048 350.693 625.973 352.862C622.955 356.069 621.917 356.163 613.806 354.088C608.053 352.673 607.675 352.39 607.109 349.467C606.638 346.826 605.883 346.071 602.016 344.468L597.489 342.581L594.377 344.845C591.736 346.826 591.076 346.92 589.944 345.788C588.812 344.656 588.906 344.09 590.227 342.016C592.962 337.866 594.565 337.583 600.036 340.129C602.771 341.355 605.978 342.393 607.204 342.393C610.033 342.393 610.882 339.28 608.524 337.111C607.392 336.074 606.732 334.187 606.732 331.829C606.732 328.622 607.015 328.245 609.09 328.245C611.071 328.245 611.542 328.811 612.014 331.924C612.58 335.413 612.769 335.602 614.843 334.659C618.239 333.055 617.862 328.811 613.806 322.775C611.92 320.134 609.845 317.87 609.09 317.87C606.544 317.87 607.581 316.267 610.505 315.701C612.957 315.135 613.334 314.664 613.334 312.023C613.334 309.571 612.58 308.344 610.033 306.269C608.241 304.855 605.412 301.082 603.808 297.97C601.545 293.442 600.696 292.499 599.753 293.254C598.149 294.574 597.301 291.933 597.301 285.708C597.301 281.37 597.206 281.276 590.321 276.088C584.379 271.561 582.681 269.675 579.286 263.355C575.985 257.225 574.57 255.527 571.081 253.641C567.214 251.566 566.648 250.811 564.856 245.152C563.158 239.776 562.026 238.173 557.122 233.551C553.915 230.627 551.085 228.269 550.708 228.269C550.425 228.269 550.142 229.213 550.142 230.439C550.142 233.268 546.747 236.381 542.88 237.23C537.315 238.361 533.448 233.457 538.07 231.005C539.39 230.25 539.767 229.684 539.013 229.401C538.447 229.213 537.881 227.892 537.881 226.477C537.881 224.403 536.749 223.082 531.75 219.498C528.355 217.046 525.62 214.688 525.62 214.122C525.62 213.65 527.412 213.179 529.675 213.179C533.165 213.179 534.203 213.745 537.409 216.951C541.276 220.913 544.106 221.762 545.143 219.215C545.521 218.272 544.2 216.197 541.371 213.367C538.447 210.444 535.9 206.388 533.731 201.389C530.524 194.127 530.336 193.844 527.506 194.127C524.865 194.41 524.677 194.221 524.677 191.58C524.677 188.845 524.488 188.656 520.998 188.656C516.848 188.656 514.396 186.77 516.471 185.072C517.414 184.318 518.923 184.412 522.319 185.355C524.771 186.11 527.035 186.581 527.223 186.393C527.412 186.299 524.299 179.508 520.338 171.302C515.056 160.456 512.698 156.589 511.472 156.589C510.529 156.589 509.02 156.306 508.171 155.929C506.851 155.457 506.662 155.74 507.228 157.532C507.888 159.701 507.794 159.701 504.304 156.966C502.229 155.363 499.305 153.571 497.608 152.91C495.156 151.873 492.609 148.195 492.609 145.648C492.609 144.422 496.476 145.742 499.588 148.1C502.512 150.27 503.55 150.647 505.059 149.892C506.662 149.043 505.153 147.157 490.723 132.066C477.613 118.39 472.142 113.486 462.145 106.224C455.26 101.319 438.565 88.6807 424.89 78.1172L400.084 58.8766L387.446 42.6541C378.863 31.5247 374.336 24.9225 373.298 21.7158L371.695 16.9999H358.585C347.361 16.9999 345.286 17.1886 344.815 18.509Z" fill="white"/>
<path d="M277.001 34.07C275.586 34.8245 274.832 36.6165 273.983 41.6153C272.379 50.6697 272.474 51.4243 275.492 54.914C277.001 56.6117 278.51 59.0639 278.793 60.3843C280.396 66.3263 283.886 67.9297 295.676 67.9297H305.39L298.788 63.1195C295.11 60.4787 291.903 57.6492 291.62 56.8003C291.337 56.0458 289.262 54.914 286.904 54.3481L282.754 53.3106L282.471 47.2743C282.283 43.9732 282.66 40.0119 283.226 38.4085C283.697 36.8052 283.886 35.2018 283.509 34.8245C282.094 33.5041 278.981 33.2211 277.001 34.07Z" fill="white"/>
<path d="M263.136 74.347C262.475 79.723 263.607 80.9492 269.549 81.3264L274.737 81.6094V78.0253C274.737 74.6299 274.548 74.4413 272.096 74.6299C270.492 74.8186 268.323 74.064 266.531 72.8379L263.607 70.7629L263.136 74.347Z" fill="white"/>
<path d="M224.75 90.9479V96.9841L228.9 99.4364C238.237 104.907 244.085 103.303 242.482 95.6637C241.633 91.6081 240.218 90.5706 235.502 90.5706C234.37 90.5706 231.918 89.2502 229.937 87.7411C227.957 86.1377 225.976 84.9116 225.599 84.9116C225.127 84.9116 224.75 87.6468 224.75 90.9479Z" fill="white"/>
<path d="M243.896 196.869C236.257 197.152 235.125 197.435 235.125 198.944C235.125 200.925 240.124 203.565 249.744 206.584C258.704 209.507 271.06 217.053 275.304 222.24L278.794 226.484L281.246 224.126L283.604 221.674L279.925 217.902L276.153 214.035L281.152 214.695C283.792 214.978 286.056 215.072 286.056 214.789C286.056 214.6 282.849 211.865 278.794 208.941C272.097 203.848 256.252 195.926 253.705 196.397C253.045 196.492 248.612 196.775 243.896 196.869Z" fill="white"/>
<circle id="640" cx="278" cy="740" fill="#5CE50D"/>
<circle cx="338" cy="166" fill="#E52A0D"/>
<circle id="1085" cx="460" cy="649" fill="#E52A0D"/>
<circle id="1506" cx="380" cy="953" fill="#E52A0D"/>
<circle id="868" cx="331" cy="783" fill="#5CE50D"/>
</svg>
