<svg width="1000" height="1000" viewBox="0 0 1000 1000" fill="none" xmlns="http://www.w3.org/2000/svg">
<path d="M410.828 2.55078C409.754 3.91797 408.582 6.75 408.192 8.89844C407.606 12.6094 407.41 12.8047 400.77 14.8555C396.18 16.3203 393.641 16.7109 392.859 16.0273C392.176 15.4414 389.539 14.7578 387.098 14.4648C383.192 13.9766 381.629 14.3672 375.184 17.5898C370.301 19.9336 366.395 22.668 364.149 25.3047C361.902 27.9414 359.852 29.4062 358.387 29.4062C357.117 29.4062 355.359 30.4805 354.285 31.8477C352.527 34.2891 352.43 34.3867 348.817 32.8242L345.203 31.3594V13.9766L341.883 11.9258C339.246 10.2656 337 9.875 330.359 9.875C323.133 9.875 321.863 10.168 320.203 11.9258C316.395 16.125 310.242 19.7383 307.703 19.0547C306.434 18.7617 305.067 18.957 304.774 19.543C304.383 20.1289 302.527 20.6172 300.574 20.6172H297.059L297.645 24.7188C298.035 27.7461 297.645 29.8945 295.984 33.2148C293.152 38.7812 291.492 46.3008 291.492 53.4297C291.492 57.9219 290.906 59.582 288.465 63.293C284.461 68.957 283.777 74.2305 286.414 77.9414C288.856 81.3594 290.027 88.1953 288.66 90.7344C288.074 91.8086 285.34 94.1523 282.508 96.0078C277.332 99.2305 277.234 99.2305 266.59 99.0352C251.16 98.7422 247.449 99.8164 239.832 106.75C236.317 109.875 232.801 114.074 231.922 116.125C230.75 118.762 228.602 120.812 224.402 123.352L218.543 127.062L217.859 144.348C216.395 185.461 216.297 186.633 213.953 186.633C212.781 186.633 210.731 187.414 209.461 188.293C203.992 192.004 192.469 202.941 189.637 207.141C174.5 229.504 153.992 250.109 146.961 250.109C143.348 250.109 138.172 252.844 131.043 258.801C124.207 264.367 109.852 274.133 101.942 278.625C99.0118 280.188 97.0587 282.629 94.2267 287.707C92.1759 291.418 88.6603 296.301 86.5118 298.449C83.4845 301.281 82.5079 303.039 82.5079 305.285C82.5079 308.312 82.3126 308.508 73.4259 311.535C61.0235 315.832 53.8946 320.129 53.211 323.938C52.8204 325.5 50.4767 329.504 47.9376 332.824C43.3478 338.684 43.3478 338.781 43.9337 344.543C44.6173 350.012 44.5196 350.305 42.1759 351.379C38.3673 353.137 36.2189 356.945 36.9024 360.852C37.2931 363.488 36.9024 364.758 34.5587 367.59C32.9962 369.543 30.8478 371.301 29.8712 371.691C27.3321 372.473 24.5001 379.211 25.2814 382.531C26.1603 385.754 24.7931 386.73 19.5196 386.926C17.3712 386.926 14.8321 387.316 13.8556 387.707C12.0978 388.293 12.0978 388.488 13.6603 389.758C14.5392 390.441 17.3712 394.152 20.0079 397.961C23.5235 403.039 26.3556 405.871 30.2618 408.215C38.7579 413.391 41.1017 419.738 38.4649 430.285C37.4884 433.996 37.6837 434.973 39.4415 438.293C41.1993 441.32 42.7618 442.492 48.1329 444.641C51.7462 446.105 57.1173 447.961 60.1446 448.742C63.172 449.621 69.9103 452.551 75.086 455.188C80.2618 457.922 94.2267 464.074 106.141 468.859C117.957 473.742 129.774 478.82 132.215 480.285C134.656 481.75 138.66 483.898 141.102 485.07C143.543 486.242 151.063 491.809 157.801 497.473C169.617 507.434 170.203 508.117 173.817 515.93C176.746 522.082 177.625 525.305 177.625 529.406L177.723 534.777L174.598 534.68C172.84 534.582 171.375 534.875 171.375 535.266C171.375 535.754 173.621 538.098 176.356 540.539C180.067 543.859 182.117 545.031 184.461 545.031C186.219 545.031 189.832 546.496 193.055 548.352C200.086 552.648 218.152 559.289 225.086 560.168C234.168 561.34 255.359 568.371 260.828 572.082C264.344 574.426 266.688 575.402 268.641 575.109L271.473 574.816L267.762 571.203C265.711 569.152 262.293 567.004 260.242 566.418C258.094 565.734 255.652 564.465 254.774 563.391C253.211 561.73 253.211 561.633 255.457 561.633C256.824 561.633 258.289 562.023 258.875 562.512C260.438 564.074 270.887 569.445 272.352 569.445C273.133 569.445 274.109 570.422 274.5 571.594C274.891 572.863 276.746 575.207 278.699 576.965L282.215 580.09L279.09 580.188C275.184 580.188 275.086 581.262 278.602 584.582C282.02 587.805 287.977 590.441 295.106 591.906C300.477 592.98 301.258 593.566 312 604.113C319.324 611.34 324.793 615.93 327.625 617.102C330.067 618.176 333.875 620.617 336.219 622.473C338.563 624.426 342.567 626.77 345.203 627.746L349.891 629.406L350.965 636.73L352.137 644.055L359.07 650.402C362.879 653.918 367.469 657.922 369.227 659.289C370.984 660.656 375.379 664.172 379.09 667.199C382.703 670.227 387.684 673.742 390.125 675.012C393.152 676.672 395.301 678.82 396.961 681.848C400.867 688.977 410.242 698.547 421.863 707.238C427.82 711.633 435.047 717.492 437.977 720.324C440.906 723.059 446.57 727.453 450.477 730.09C455.067 733.117 457.508 735.363 457.508 736.633C457.508 740.148 460.242 745.227 462.195 745.227C465.418 745.227 473.133 749.133 477.235 752.844C479.383 754.797 482.41 758.898 483.875 761.926C487.977 769.934 497.449 780.48 506.141 786.633C510.242 789.562 514.539 792.785 515.516 793.957C516.59 795.129 521.375 798.254 526.063 800.988C533.387 805.188 534.559 806.164 533.192 807.141C532.215 807.824 531.922 808.898 532.215 809.875C533.192 812.219 541.395 817.492 544.129 817.492C545.594 817.492 549.012 819.934 553.797 824.328C557.899 828.137 563.758 832.531 566.785 834.094C569.91 835.656 573.914 838.098 575.672 839.66C586.512 848.742 593.738 852.648 607.41 857.043C614.93 859.387 622.156 861.535 623.524 861.828C627.43 862.609 643.055 872.863 648.426 878.137C652.625 882.238 654.188 883.02 659.07 883.996C669.715 885.949 688.172 893.664 694.422 898.84C695.985 900.109 699.5 901.867 702.137 902.844C708.875 905.285 716.395 909.68 719.227 912.805C726.356 920.422 740.809 928.723 749.988 930.383C757.996 931.75 763.465 934.777 770.496 941.32C774.988 945.617 778.699 948.352 781.336 949.133C783.778 949.816 791.395 950.305 800.672 950.305H816.004L828.895 955.773C836.024 958.801 845.887 962.805 850.867 964.562C855.945 966.418 863.074 969.25 866.883 970.812C870.692 972.473 875.086 973.742 876.844 973.742C881.434 973.742 882.508 975.012 883.094 980.48L883.582 985.461H887.098C890.027 985.461 891.199 986.047 892.859 988.391C894.52 990.637 895.887 991.32 898.328 991.32C900.086 991.32 904.285 992.395 907.606 993.762C912.391 995.715 914.637 996.105 918.348 995.617C922.059 995.129 923.817 995.422 927.137 997.082C932.703 999.914 939.149 1000.6 947.547 999.133C956.141 997.668 956.629 996.203 950.086 990.637C945.692 986.926 945.594 986.828 946.473 983.02C947.938 976.379 947.352 960.266 945.301 951.086C943.445 942.883 943.445 942.395 945.106 939.562C947.254 936.047 947.254 933.02 945.594 911.73C944.324 895.812 944.129 894.934 941.102 890.148C938.074 885.266 937.977 884.777 937.977 874.23C937.977 864.367 938.172 863.391 939.734 863.391C940.809 863.391 942.371 862.512 943.348 861.438C944.324 860.363 946.18 859.484 947.449 859.484C949.402 859.484 949.695 858.996 949.695 855.48C949.695 852.941 948.914 850.305 947.254 847.961C945.008 844.641 944.813 843.566 944.813 833.117C944.813 826.965 945.203 821.398 945.594 820.812C946.961 818.664 952.82 816.418 956.238 816.711C960.047 817.004 962 815.148 965.223 808.02C967.078 804.016 967.078 803.918 964.93 795.422C962.879 787.219 962.879 786.535 964.246 780.676C965.711 775.012 966.004 774.523 968.543 774.523C970.008 774.523 972.352 773.84 973.719 772.961C974.988 772.082 976.258 771.496 976.356 771.691C976.551 771.887 977.137 773.156 977.723 774.523L978.797 776.965L980.262 773.547C981.043 771.691 983.094 769.152 984.656 767.98L987.488 765.832L986.121 757.727C985.34 753.332 984.559 749.426 984.266 749.23C984.07 749.035 982.996 750.012 981.824 751.477L979.774 754.016L976.649 749.914C972.449 744.445 971.277 736.73 974.402 736.242C976.16 735.949 976.649 734.875 977.625 728.137C978.211 723.742 979.481 717.98 980.359 715.148C981.727 711.242 981.824 709.387 981.141 707.238C979.969 704.016 980.457 703.234 983.094 703.234C985.535 703.234 985.242 701.477 982.117 696.789C980.652 694.641 978.602 690.246 977.625 687.023C976.551 683.898 974.5 677.844 973.035 673.645C970.887 667.785 970.496 665.539 971.18 663.586C971.766 662.219 972.156 656.066 972.156 650.012C972.156 637.707 971.766 636.828 965.418 636.828C962.781 636.828 962.391 637.316 960.926 641.711C958.973 647.473 958.094 647.277 954.578 639.758C953.309 637.121 952.039 634.875 951.746 634.875C951.453 634.875 949.207 636.145 946.766 637.805L942.469 640.637L939.149 634.387C936.512 629.406 935.145 627.941 932.606 627.062C927.82 625.5 919.031 620.52 916.981 618.273C914.149 615.148 911.805 615.734 911.024 619.738C910.633 621.887 909.852 623.156 908.875 623.156C907.02 623.156 892.371 613.488 889.734 610.559C887.781 608.41 887.586 605.871 888.66 598.645C889.246 594.934 888.953 593.371 886.707 588.879C885.242 585.949 883.484 583.312 882.899 582.922C882.313 582.531 879.481 582.141 876.746 582.141C870.594 582.141 870.594 582.238 873.524 568.371C876.649 553.723 876.551 553.527 869.129 549.426C865.223 547.18 862.098 544.641 860.731 542.395C858.094 538.098 851.746 535.266 844.715 535.266C841.395 535.266 839.149 534.777 838.367 533.801C836.414 531.457 830.945 530.969 824.109 532.727C819.031 533.996 817.371 534.094 816.297 533.215C815.125 532.238 814.246 532.629 811.707 535.07C809.949 536.73 807.02 538.391 805.164 538.879C800.867 540.051 791.785 538.195 787.977 535.559C786.414 534.387 781.629 532.531 777.332 531.359C772.254 529.992 768.543 528.234 766.59 526.477C761.707 521.984 748.426 518.566 743.25 520.52C741.199 521.398 740.125 521.301 739.149 520.52C737.977 519.543 737.977 519.25 739.246 518.273C740.613 517.297 740.516 516.516 738.856 511.34L736.903 505.48L739.442 502.844C741.59 500.598 741.785 499.914 740.711 498.645C740.028 497.863 738.563 497.18 737.391 497.18C736.219 497.18 733.973 495.813 732.41 494.25C730.848 492.59 728.602 491.32 727.43 491.32C725.672 491.32 725.086 492.199 724.11 496.203C723.231 500.012 722.547 501.086 721.278 500.695C720.399 500.402 718.641 499.914 717.274 499.621C715.906 499.23 713.66 497.277 712.098 495.129C708.192 489.367 704.285 487.414 697.059 487.414C691.59 487.414 690.906 487.219 690.906 485.461C690.906 484.191 691.59 483.508 692.86 483.508C695.106 483.508 699.695 477.16 699.695 474.035C699.695 472.375 700.281 471.789 701.746 471.789C705.36 471.789 707.508 469.934 707.508 466.906C707.508 463.586 707.41 463.586 710.926 464.953C713.367 465.832 713.66 465.637 715.125 462.121C716.395 459.094 717.567 458.02 720.399 457.141C722.84 456.457 724.11 455.48 724.11 454.406C724.207 452.746 727.43 450.012 733.582 446.398C735.633 445.227 736.805 443.566 737.293 441.32C737.781 439.172 739.735 436.535 743.25 433.41C746.961 430.09 748.524 427.941 748.524 426.184C748.524 424.621 749.207 423.547 750.477 423.254C752.332 422.766 754.383 417.883 754.383 413.781C754.383 412.707 755.164 409.582 756.043 406.652C757.606 401.574 757.606 401.477 755.555 399.23C753.016 396.496 752.82 393.469 754.969 390.246C756.238 388.391 756.434 386.535 755.945 382.531C755.262 377.648 755.457 377.16 757.313 376.574C760.438 375.598 765.125 368.469 765.125 364.855C765.125 363.195 764.051 358.508 762.684 354.602C759.949 346.398 759.461 337.609 761.707 334.68C763.66 332.141 763.66 324.719 761.707 324.035C760.926 323.645 757.313 321.203 753.504 318.371L746.766 313.293L746.082 307.336C745.106 297.375 744.617 296.105 741.883 294.836C739.735 293.762 739.051 292.492 738.074 288.195C737.488 285.266 736.903 280.285 736.903 277.258C736.805 274.23 736.317 270.52 735.731 268.957C735.145 267.492 734.266 262.121 733.778 257.043C733.094 248.84 732.606 247.277 728.992 241.125C724.988 234.484 724.695 234.289 716.004 230.188C711.024 227.844 705.36 224.426 703.309 222.668C699.793 219.543 699.598 218.859 698.524 210.754L697.449 202.258H688.367C677.918 202.258 673.133 203.723 666.785 208.801C663.27 211.633 662.586 212.805 661.219 218.762C659.07 228.332 659.168 238 661.512 242.492L663.465 246.008L657.606 252.941C654.383 256.75 651.356 259.875 650.77 259.875C649.11 259.875 645.496 264.855 645.008 267.98C644.617 270.617 644.031 271.105 641.59 271.398C639.051 271.594 637.977 272.766 634.266 279.113C631.824 283.215 629.676 286.926 629.578 287.316C629.383 287.805 630.653 289.953 632.41 292.199L635.535 296.203L633.485 300.5C631.922 303.527 630.653 304.895 628.699 305.383C627.137 305.676 624.305 306.359 622.254 306.848C618.348 307.824 616.688 307.434 616.688 305.383C616.688 304.699 615.613 303.137 614.344 301.965C612.098 299.816 611.903 299.816 609.461 301.379C608.094 302.355 606.922 303.43 606.922 303.918C606.922 304.309 605.555 306.262 603.895 308.117C601.551 310.852 599.988 311.633 596.375 312.121C588.66 313.098 587.684 313.488 583.485 317.004C580.164 319.738 578.602 320.422 575.086 320.422C572.742 320.422 570.789 320.227 570.789 319.934C570.789 319.543 571.473 318.078 572.254 316.516C573.719 313.781 573.621 313.684 569.324 310.949C566.199 308.996 564.93 307.531 564.93 305.969C564.93 304.113 564.442 303.82 561.317 303.82C554.578 303.82 549.695 299.23 547.254 290.734C546.668 288.781 546.766 286.633 547.547 284.582C549.695 278.82 545.985 277.355 533.192 278.82L527.332 279.504L523.426 271.105L516.395 270.812C509.949 270.52 509.266 270.715 508.192 272.766C505.652 277.648 500.477 277.941 497.84 273.449L496.082 270.422L490.223 276.965L484.363 283.41L484.461 276.574C484.559 268.762 486.902 264.074 492.957 259.484C495.985 257.141 499.5 249.426 499.5 245.227C499.5 244.445 500.574 242.785 501.844 241.418C503.309 239.855 505.164 235.559 506.531 230.676C508.875 222.668 508.875 222.473 507.117 219.055C506.141 217.102 505.36 214.66 505.36 213.684C505.36 211.535 507.801 202.648 509.949 196.691C511.707 191.906 511.024 186.34 508.485 184.484C507.606 183.801 505.555 181.457 503.895 179.309C502.332 177.16 499.891 174.426 498.426 173.254C496.277 171.496 495.692 169.738 494.813 163C493.152 151.281 493.348 143.859 495.496 139.172C498.524 132.531 498.914 127.648 496.863 124.133C495.399 121.594 494.617 121.105 492.274 121.496C489.93 121.789 489.735 121.691 491.004 120.715C492.371 119.738 492.371 119.25 490.223 115.734C488.27 112.512 487.879 110.656 487.781 103.918C487.781 95.0312 488.66 96.0078 478.699 94.25C476.258 93.8594 474.402 92.6875 473.133 90.9297L471.18 88.0977L473.328 83.6055C475.086 79.8945 475.281 78.7227 474.402 76.3789C473.621 74.0352 473.621 73.2539 474.891 71.9844C476.258 70.6172 476.356 70.0312 475.086 67.1992C473.035 62.4141 473.328 57.2383 475.867 54.5039C477.039 53.2344 478.016 51.7695 478.016 51.1836C478.016 49.4258 474.695 47.2773 470.887 46.5938C468.348 46.1055 465.711 44.4453 462.586 41.418L457.996 37.0234L453.504 38.5859C450.965 39.4648 448.035 40.1484 446.863 40.1484C445.692 40.1484 443.445 40.832 441.883 41.6133C438.27 43.4688 438.27 42.9805 441.981 36.2422C445.692 29.4062 445.301 24.7188 440.516 21.1055C437.391 18.7617 432.703 17.9805 430.555 19.4453C429.969 19.8359 428.602 22.7656 427.625 25.8906L425.672 31.6523L422.547 24.4258C420.008 18.5664 419.422 16.3203 419.91 13.293C420.496 9.97266 420.106 8.70312 417.469 4.69922C415.711 2.16016 413.953 0.109375 413.563 0.109375C413.074 0.109375 411.805 1.18359 410.828 2.55078Z" fill="white"/>
<circle id="384" cx="185" cy="539" fill="#5CE50D"/>
<circle id="386" cx="542" cy="371" fill="#E52A0D"/>
<circle id="385" cx="360" cy="630" fill="#E52A0D"/>
<circle id="1383" cx="778" cy="591" fill="#E52A0D"/>
</svg>
