<svg width="1000" height="1000" viewBox="0 0 1000 1000" fill="none" xmlns="http://www.w3.org/2000/svg">
<path d="M660.125 2.50436C660.125 3.57858 651.043 12.4653 646.453 15.7856C643.914 17.7387 642.351 18.227 640.203 17.8364C638.641 17.4458 636.785 17.7387 636.004 18.4223C634.93 19.3012 633.855 19.3012 631.316 18.3247C628.777 17.4458 627.508 17.4458 625.848 18.3247C624.285 19.1059 623.601 19.1059 623.016 18.227C622.43 17.3481 621.746 17.3481 620.281 18.1294C619.207 18.7153 616.766 19.2036 615.008 19.2036C613.152 19.2036 610.808 19.8872 609.734 20.6684C607.098 22.6215 604.656 22.4262 603.289 20.1801C601.336 17.1528 592.547 17.4458 588.641 20.6684C587.078 22.0356 584.637 23.1098 583.367 23.1098C582 23.1098 579.168 23.9887 577.019 25.1606C573.113 27.1137 572.918 27.1137 571.062 25.3559C569.207 23.6958 569.109 23.6958 567.742 25.5512C566.961 26.5278 566.375 29.0669 566.375 31.1176C566.375 34.145 565.984 34.8286 564.519 34.8286C563.348 34.8286 560.906 37.0747 558.172 40.5903C554.656 45.1801 553.68 47.2309 553.68 50.1606C553.68 53.4809 553.094 54.4575 549.187 57.6801L544.793 61.3911L542.547 59.3403L540.398 57.2895L537.078 60.7075C533.074 64.809 530.535 65.102 529.266 61.5864C528.094 58.559 527.117 59.0473 521.355 65.4926L517.742 69.3989L513.738 66.7622C511.59 65.2973 508.855 64.1255 507.781 64.1255C506.512 64.1255 505.828 63.4419 505.828 62.27C505.828 60.9028 504.558 60.0239 501.043 58.852C494.793 56.8012 493.133 56.8989 493.133 59.145C493.133 61.684 489.031 64.1255 483.367 64.809C478.777 65.2973 478.582 65.1997 477.898 62.7583C477.215 59.8286 475.555 59.3403 475.555 62.0747C475.555 63.1489 475.262 64.6137 474.969 65.4926C474.48 66.7622 474.09 66.6645 472.723 64.9067L470.965 62.8559L467.937 67.3481C466.082 69.9848 465.203 72.0356 465.789 72.4262C466.961 73.2075 467.058 76.8208 465.887 76.8208C465.398 76.8208 464.031 76.0395 462.762 74.9653L460.516 73.2075L455.73 78.3833C453.094 81.313 450.164 83.6567 449.187 83.6567C447.918 83.6567 447.137 84.6333 446.746 86.7817C445.867 90.688 444.598 92.3481 441.766 93.4223C440.301 94.0083 439.031 95.9614 437.957 99.477C436.98 102.309 435.613 105.043 434.93 105.434C434.148 105.825 433.562 106.997 433.562 107.875C433.465 111.196 429.363 114.614 424.676 115.297C420.574 115.883 420.086 116.274 419.109 119.497C418.23 122.426 418.23 123.403 419.402 124.672C420.183 125.551 420.867 126.723 420.867 127.211C420.769 128.676 416.57 132.973 413.348 134.926C410.613 136.489 410.418 136.977 410.906 140.883L411.394 145.18L407.586 145.082C405.437 145.082 402.215 144.497 400.359 143.813C397.234 142.641 396.844 142.739 395.476 144.79L394.012 147.036L389.031 143.813C384.93 141.274 383.269 140.786 379.949 141.079C376.726 141.372 375.945 141.86 375.945 143.422C375.945 146.547 374.09 149.086 371.746 149.086C364.91 149.184 363.055 151.918 366.277 157.29L368.328 160.805L366.277 163.637C363.836 167.055 360.027 168.129 356.219 166.567C353.973 165.688 353.484 164.809 353.484 162.172C353.484 159.047 353.289 158.852 350.066 158.852C347.234 158.852 346.648 159.243 346.648 160.805C346.648 161.879 345.867 163.051 344.988 163.442C344.012 163.735 341.863 165.297 340.105 166.957L337.078 169.79L332.391 168.227C329.851 167.348 326.824 165.883 325.75 164.907C324.09 163.442 313.543 158.852 311.883 158.852C311.687 158.852 311.492 160.122 311.492 161.684C311.492 163.442 312.273 165.004 313.543 165.883C315.594 167.153 315.594 167.348 314.031 170.278C313.152 172.036 312.469 174.282 312.469 175.454C312.469 177.211 311.883 177.407 307.098 177.407C301.922 177.407 301.726 177.504 298.308 181.899C296.062 185.024 294.891 187.563 294.891 189.711C294.891 194.106 294.012 195.961 291.863 195.961C289.519 195.961 289.519 196.157 291.961 200.844C294.109 205.043 294.305 206.508 293.035 208.559C292.254 209.731 291.277 209.633 287.078 207.778C280.926 205.141 280.144 205.629 279.461 212.563C279.07 216.86 278.777 217.446 277.117 216.86C275.359 216.372 275.359 216.469 276.824 219.887C277.605 221.938 278.289 223.696 278.289 223.793C278.289 223.989 276.336 224.77 273.992 225.551C270.183 226.821 269.5 226.821 268.426 225.649C267.156 224.086 265.008 223.793 264.226 225.063C263.933 225.551 264.715 227.309 265.887 228.969C267.449 231.313 268.621 231.997 270.086 231.606C271.648 231.313 272.527 231.997 274.187 234.926L276.336 238.735L272.918 240.883C269.988 242.641 269.012 242.836 266.473 241.957C262.957 240.688 261.687 242.641 263.641 246.254C265.594 249.868 263.055 258.852 259.93 259.243C258.172 259.536 257.781 260.219 257.781 262.954C257.781 265.786 257.391 266.274 255.144 266.762C253.582 267.055 251.14 267.641 249.676 268.032L246.941 268.715L249.383 273.305L251.726 277.797L249.578 279.848C247.918 281.411 246.16 281.899 242.449 281.899C236.785 281.899 234.832 283.461 233.269 289.223C232.39 292.153 231.512 293.129 227.996 294.692C225.75 295.668 223.113 297.622 222.234 298.891C219.89 302.602 216.765 305.239 212.664 306.997C210.613 307.875 209.344 309.047 209.734 309.633C210.027 310.219 210.32 312.27 210.418 314.125C210.418 317.543 210.418 317.543 214.519 317.25C218.23 316.957 218.719 317.25 220.086 319.887C220.965 321.45 221.648 323.207 221.648 323.598C221.648 324.086 219.012 326.137 215.789 328.188C212.664 330.239 209.734 332.582 209.441 333.461C209.246 334.438 206.902 336.293 204.265 337.758C201.726 339.223 198.797 341.274 197.82 342.348C196.551 343.813 195.281 344.204 193.23 343.715C187.078 342.543 183.758 345.082 185.516 349.77C186.004 351.137 186.199 353.481 185.906 355.043C185.418 357.387 184.344 358.364 179.656 360.317L174.09 362.758L173.308 371.254C172.723 378.579 172.43 379.555 171.062 378.969C164.226 376.137 164.129 376.137 162.566 378.09C161.297 379.848 161.394 380.239 163.933 382.485C165.496 383.852 167.156 386.586 167.742 388.54C168.719 392.153 168.621 392.348 164.812 395.571C162.566 397.524 159.539 399.086 157.781 399.282C155.144 399.575 154.754 399.965 154.168 403.188C153.582 406.899 147.43 415.395 144.598 416.469C140.887 417.836 140.594 422.133 143.719 428.09C146.258 432.778 145.769 433.754 140.496 434.731C137.664 435.219 136.492 434.926 134.148 432.875C131.219 430.434 131.121 430.434 128.387 432.29C126.824 433.266 124.09 436.391 122.332 439.223C119.695 443.422 119.109 445.375 119.109 449.575C119.109 454.262 118.914 454.75 116.668 455.336C115.008 455.727 113.543 455.434 112.371 454.36C109.539 451.723 105.242 452.407 101.726 456.02C99.9686 457.778 98.6014 460.219 98.6014 461.391C98.6014 464.321 93.328 465.786 89.6171 463.93C86.1991 462.172 84.9296 462.172 84.9296 464.028C84.9296 464.809 83.66 466.079 82.0975 466.86C80.535 467.739 79.0702 469.301 78.7772 470.473C78.1913 472.524 77.996 472.622 67.6444 471.938C57.4882 471.254 56.8046 471.352 51.2382 473.891C42.4491 477.895 38.1522 481.704 37.4686 486.196C36.8827 489.321 36.1014 490.297 32.5858 492.25L28.3866 494.594L26.4335 491.274C23.2108 485.805 22.2342 486.782 20.9647 496.254C20.5741 498.891 19.6952 502.114 18.9139 503.286C17.5467 505.434 17.4491 505.434 14.6171 503.676C13.0546 502.797 10.7108 500.454 9.44128 498.598C8.2694 496.743 6.21862 495.18 5.04675 494.985C2.99597 494.692 2.89831 494.985 3.09362 501.04C3.19128 505.825 2.80065 507.875 1.62878 509.243C-0.324346 511.391 -0.519659 517.153 1.23815 519.399C1.82409 520.278 4.16784 522.036 6.41393 523.403C9.34362 525.161 11.0038 527.211 12.5663 530.825C14.2264 534.731 16.2772 537.075 22.3319 541.86C26.5311 545.278 31.3163 548.696 32.7811 549.575C35.3202 550.942 38.6405 558.266 61.0038 611.098C74.871 644.106 86.8827 673.5 87.6639 676.43C89.3241 682.973 90.0077 683.852 93.8163 684.633C95.4764 684.926 98.0155 686.098 99.578 687.172C101.043 688.247 102.996 689.125 103.875 689.125C104.851 689.125 105.437 690.004 105.437 691.274C105.437 695.278 108.855 699.379 113.543 701.235C118.621 703.188 117.547 700.161 124.09 730.825L127.215 745.668L131.316 746.352C136.199 747.036 155.828 746.352 158.855 745.375C161.101 744.594 161.394 745.082 162.566 751.821C163.055 755.043 162.859 755.532 160.808 756.02C158.367 756.704 155.047 761.293 154.266 765.297C153.875 767.055 152.996 767.836 151.238 768.032C148.797 768.325 148.699 768.618 148.113 776.332C147.137 788.247 147.332 804.848 148.406 807.68C149.09 809.438 150.066 810.219 151.726 810.219C153.875 810.219 154.168 810.707 154.656 815.883C155.926 827.895 155.926 828.286 153.777 828.774C152.312 829.262 151.824 830.141 151.824 832.582C151.824 837.856 154.168 838.539 160.711 835.317C163.836 833.754 168.426 832.289 171.062 831.997C174.871 831.508 176.141 830.922 176.922 829.164C177.898 827.016 183.562 825.161 185.516 826.332C187.762 827.7 189.617 833.364 190.105 840.395C190.594 847.231 190.887 848.11 194.109 851.43C196.062 853.481 198.406 855.141 199.383 855.141C200.457 855.141 201.629 856.411 202.508 858.559C203.973 861.879 203.973 861.879 211.004 862.172L218.133 862.465L221.355 866.664C223.894 870.082 224.578 871.84 224.578 875.356C224.578 878.872 225.262 880.727 228.094 884.536C231.512 889.223 231.707 889.321 236.883 889.321C242.156 889.321 242.156 889.321 242.156 892.348C242.156 894.497 243.23 896.645 245.672 899.282C248.797 902.797 249.09 903.579 248.894 908.168C248.504 914.809 249.676 916.664 257 920.961C260.418 922.914 266.57 927.016 270.672 929.946C277.508 934.731 278.387 935.707 279.363 939.711C280.242 943.227 281.121 944.301 283.66 945.375C285.808 946.352 288.055 948.696 290.594 952.797C294.109 958.559 294.793 959.047 305.047 964.223L315.789 969.594L334.246 968.911C351.433 968.227 352.996 968.032 356.121 965.883C359.734 963.442 367.742 961.782 369.012 963.149C369.5 963.637 370.574 966.957 371.551 970.571C373.601 978.383 377.605 982.68 385.808 985.903C390.691 987.856 391.473 987.856 394.402 986.684C397.43 985.414 397.918 985.512 402.898 988.149L408.074 990.981L420.574 989.516C432.391 988.149 433.172 988.149 435.516 989.809C436.883 990.786 440.105 993.032 442.644 994.887L447.332 998.207L449.187 995.766C451.336 992.934 451.824 984.243 450.066 980.825C449.383 979.75 448.894 975.356 448.992 971.059V963.344L454.168 960.024C457 958.168 459.93 956.704 460.613 956.704C461.297 956.704 462.957 955.043 464.324 952.895C466.277 950.063 466.863 947.914 466.863 943.911C466.863 939.809 467.644 937.172 470.281 932.192C472.723 927.309 473.406 924.965 473.016 922.719C472.625 920.961 473.016 918.715 473.992 916.86C476.141 912.758 475.945 910.122 473.601 909.34C472.332 908.95 471.648 907.875 471.648 906.411C471.648 904.848 470.574 903.481 468.035 901.918L464.519 899.672L469.5 895.278C473.699 891.567 474.578 890.2 474.578 887.563C474.578 884.438 474.578 884.438 479.754 884.438C482.488 884.34 485.906 883.754 487.273 882.973C488.641 882.192 490.887 881.606 492.254 881.508C493.621 881.508 495.769 880.434 497.039 879.067C498.308 877.7 500.945 876.332 502.898 876.039C506.316 875.454 506.512 875.258 508.562 868.52C509.734 864.614 510.711 860.805 510.711 860.024C510.808 859.243 511.394 857.68 512.176 856.704C513.055 855.532 513.641 852.602 513.641 849.672C513.641 845.375 513.25 844.399 511.199 843.032C509.246 841.762 508.758 840.59 508.758 837.661C508.758 834.243 508.465 833.754 505.144 832.387C502.703 831.411 500.555 829.457 498.992 826.918C497.43 824.282 495.867 822.914 494.207 822.719C492.449 822.524 490.984 821.254 489.422 818.325C487.176 814.223 487.176 814.125 489.129 814.125C490.203 814.125 491.668 813.149 492.254 811.977C492.937 810.707 495.086 807.875 497.137 805.629C499.285 803.286 500.945 801.039 500.945 800.454C500.945 799.965 501.824 799.477 502.996 799.477C504.168 799.477 506.512 798.793 508.367 797.914C511.101 796.645 511.98 796.547 513.152 797.524C514.031 798.207 517.937 798.989 521.941 799.282C528.973 799.672 529.266 799.672 529.266 797.622C529.266 793.422 531.023 791.86 537.957 790.102L544.598 788.344L545.183 781.606C545.476 777.797 546.355 774.086 547.234 773.207C548.016 772.329 549.09 769.692 549.773 767.25C551.141 762.075 553.875 758.754 557.586 757.973C561.004 757.192 563.055 754.946 563.933 750.747L564.617 747.426L569.305 748.012C571.941 748.305 575.848 749.477 577.996 750.551C583.562 753.383 592.351 753.286 601.433 750.161C610.711 747.036 618.523 743.227 620.769 740.688C622.43 738.735 623.113 738.735 636.199 739.418C643.719 739.809 652.605 740.102 655.828 740.004C659.148 739.907 664.324 740.493 667.254 741.372C672.625 742.934 672.723 742.934 677.703 740.395C680.535 738.93 688.25 735.414 694.988 732.582L707.195 727.309L711.883 729.164C717.742 731.411 722.625 730.434 725.652 726.332C727.605 723.696 727.996 723.5 733.269 723.989C736.98 724.379 739.715 724.086 741.277 723.207C742.547 722.524 745.379 721.743 747.43 721.45C750.75 720.961 751.433 720.375 752.312 717.641C753.68 713.735 753.973 713.539 764.617 710.024C769.207 708.559 773.797 706.606 774.969 705.825C776.043 704.946 779.754 702.211 783.074 699.575C786.98 696.743 790.203 694.985 791.961 694.985C793.426 694.985 795.769 694.106 797.137 693.032C798.699 691.86 801.043 691.079 803.484 691.079C807 691.079 807.683 690.688 809.637 687.368C813.055 681.704 815.398 679.555 820.867 677.016C823.797 675.649 826.629 673.5 827.605 671.84C829.266 669.008 830.34 668.227 841.375 662.172C846.355 659.34 847.723 659.047 850.359 659.731C854.168 660.903 854.558 660.317 855.34 653.286C855.828 648.403 856.219 647.719 859.344 646.157C861.199 645.18 865.203 643.813 868.133 643.129C876.238 641.372 882.098 636 879.168 633.168C878.875 632.778 878.68 629.848 878.777 626.625C878.973 621.059 878.875 620.766 876.726 620.766C873.699 620.766 872.625 619.887 870.574 615.883C867.937 610.61 862.273 605.239 858.66 604.555C855.73 603.969 853.094 602.211 855.242 602.211C855.828 602.211 857.195 601.137 858.465 599.77C859.734 598.5 861.59 597.329 862.469 597.329C864.812 597.329 866.961 590.102 865.496 587.563C863.152 583.95 863.055 579.457 865.203 575.356C867.547 570.766 867.742 567.055 865.691 567.055C863.348 567.055 863.933 565.2 866.668 563.93C868.523 563.051 869.012 562.368 868.523 560.805C868.23 559.633 867.742 558.071 867.547 557.192C867.254 556.215 867.84 555.434 869.109 555.043C871.453 554.457 871.648 551.723 869.598 546.938C867.84 542.543 869.207 538.93 872.918 538.539C875.359 538.247 875.457 537.954 875.75 531.606C876.043 525.063 876.043 525.063 878.875 525.063C880.633 525.063 882.195 524.282 883.172 523.012C884.051 521.743 885.223 521.157 886.101 521.45C887.078 521.84 888.152 521.059 889.324 519.106C890.301 517.446 892.742 515.2 894.793 514.223C897.234 512.954 898.406 511.684 898.406 510.317C898.406 508.559 898.699 508.461 899.871 509.438C901.043 510.415 901.922 510.219 904.558 508.559C907.293 506.899 909.441 506.508 916.668 506.508C922.625 506.508 925.848 506.118 926.433 505.239C927.312 504.165 929.363 490.395 929.949 482.094C930.144 478.872 930.34 478.676 934.246 478.188C942.742 477.211 945.183 470.864 938.933 465.786C935.711 463.247 935.516 462.856 936.492 459.633C937.371 456.704 937.078 455.825 934.93 452.407C932.781 449.282 932.586 448.207 933.465 446.743C935.125 444.008 934.734 439.028 932.586 436.684C930.926 434.829 930.828 434.34 932 432.778C933.172 431.118 933.758 431.02 936.785 431.997C940.691 433.168 941.375 432.875 941.375 429.946C941.375 428.774 942.058 426.821 942.937 425.649C944.109 423.891 944.793 423.696 946.355 424.477C947.82 425.356 948.406 425.161 948.894 423.891C949.383 422.622 950.359 422.426 954.656 423.012C958.172 423.403 959.93 423.305 959.93 422.622C959.93 422.036 960.516 421.547 961.297 421.547C962.078 421.547 962.859 420.571 963.055 419.399C963.25 417.836 964.226 417.055 966.473 416.567C968.133 416.274 970.672 415.004 972.137 413.832C973.601 412.758 975.359 411.782 976.141 411.782C976.824 411.782 977.996 409.926 978.777 407.582C979.949 404.067 980.535 403.481 982.781 403.676C985.223 403.872 985.32 403.676 985.32 398.5C985.32 393.715 985.516 393.227 987.566 393.227C992.937 393.227 993.719 392.446 994.891 385.61C995.476 381.997 995.672 376.528 995.379 373.403C994.793 367.934 994.793 367.836 997.43 367.836C999.578 367.836 999.969 367.446 999.969 364.809C999.969 363.051 998.797 360.122 997.137 357.778C994.5 353.969 994.207 352.7 993.621 342.25C992.84 329.848 992.156 328.286 986.883 327.602C983.465 327.211 982.488 325.258 985.223 324.379C988.641 323.305 987.957 318.618 983.953 315.395C981.219 313.344 980.73 312.465 981.512 311C982.195 309.829 982 308.364 981.023 306.508C979.851 304.262 978.289 303.286 973.797 302.016C970.672 301.137 966.473 300.454 964.422 300.454C961.297 300.454 960.711 300.063 959.832 297.524C959.148 295.864 958.074 294.594 957.098 294.594C953.875 294.594 953.289 292.739 953.777 284.536C954.168 278.579 954.754 276.04 956.121 274.477C957.195 273.305 957.976 271.059 957.976 269.008C957.976 266.176 956.414 263.54 949.09 253.969L940.301 242.348L933.758 241.176C927.215 240.004 927.215 240.004 923.016 242.934C918.133 246.45 915.594 246.352 915.203 242.641C915.008 240.786 913.641 239.223 910.516 237.27C908.172 235.805 906.219 234.047 906.219 233.364C906.219 230.434 903.875 227.211 901.629 227.211C899.578 227.211 899.383 226.821 899.383 221.938C899.383 217.153 899.09 216.372 895.965 213.637C894.012 211.977 891.863 210.61 891.082 210.61C890.301 210.61 889.617 209.926 889.617 209.145C889.617 207.094 885.613 205.727 880.047 205.727C875.652 205.727 875.359 205.532 872.234 200.942C869.891 197.524 868.133 195.961 865.984 195.571C863.348 195.082 863.055 194.692 863.543 192.25C864.031 189.809 863.348 188.637 857.586 182.973C852.801 178.286 849.871 176.332 846.941 175.454C842.937 174.477 842.742 174.184 842.742 170.668V167.055L835.516 164.711C829.656 162.856 827.996 161.977 827.117 159.926C826.531 158.461 824.48 155.434 822.43 153.09C819.109 149.184 818.523 148.891 816.57 149.965C815.105 150.747 814.422 152.016 814.422 153.872C814.422 156.606 814.226 156.704 809.344 157.094C804.558 157.485 803.777 157.192 798.601 153.579C793.816 150.161 793.035 149.086 792.937 146.45C792.937 144.008 792.254 142.934 790.008 141.567C786.59 139.614 786.297 137.368 789.031 134.926C790.398 133.657 790.691 132.778 790.008 132.094C789.519 131.606 789.031 129.653 789.031 127.993C789.031 126.235 788.641 124.575 788.152 124.282C787.664 123.891 786.59 121.743 785.808 119.399C784.441 115.395 784.441 115.004 786.394 113.051L788.445 111L786.394 108.95C784.637 107.192 784.539 106.411 785.32 103.969C785.906 102.407 786.199 101.04 786.004 100.844C785.808 100.747 782.391 98.6958 778.484 96.352L771.355 92.1528L767.254 96.1567C764.91 98.4028 762.762 100.258 762.469 100.258C762.176 100.258 760.32 98.1098 758.465 95.5708C755.437 91.2739 754.558 90.688 750.359 90.102C746.355 89.6137 745.086 89.9067 740.594 92.4458C737.664 94.0083 734.441 95.3755 733.465 95.3755C731.219 95.3755 729.461 92.6411 729.461 89.1255C729.461 87.7583 728.973 85.5122 728.289 84.145C727.312 81.8989 727.508 80.9223 730.047 76.3325L732.879 71.059L729.461 67.5434C726.726 64.7114 725.457 64.1255 722.137 64.1255C718.816 64.1255 717.547 63.5395 714.715 60.6098C711.492 57.1919 711.199 57.0942 706.023 57.6801L700.555 58.3637L695.086 52.9926C689.324 47.3286 689.226 46.938 687.957 33.852C687.078 24.6723 686.394 23.0122 679.754 16.0786C671.355 7.0942 660.125 -0.620641 660.125 2.50436Z" fill="white"/>
<circle id="380" cx="203" cy="363" fill="#5CE50D"/>
<circle id="1381" cx="500" cy="121" fill="#E52A0D"/>
<circle id="1382" cx="297" cy="872" fill="#E52A0D"/>
<circle cx="727" cy="598" fill="#E52A0D"/>
</svg>
