<svg width="1000" height="1000" viewBox="0 0 1000 1000" fill="none" xmlns="http://www.w3.org/2000/svg">
<path fill-rule="evenodd" clip-rule="evenodd" d="M38.2806 243.548L40.01 243.178L44.4572 242.066H44.5807L51.2515 240.337L51.4986 239.472L51.7456 239.225L51.9927 239.595V239.348H52.6104L52.7339 239.101H53.1045L53.5986 238.731L53.8457 238.854L53.9692 238.607L54.3398 238.484L54.5869 238.854L54.9575 238.978L55.8222 239.842L55.9457 240.09H56.4399L56.3163 240.337L56.6869 240.46L56.934 240.954L57.4281 241.201L57.3046 241.448L57.4281 241.819L58.0458 241.943L58.1693 241.695L58.5399 241.572H59.0341V241.695H59.5282L59.6517 241.448L61.0106 241.325L61.2576 241.078L60.7635 240.954V240.584H61.0106L61.3812 240.337L61.2576 240.213L61.6282 239.966L61.5047 239.719L61.8753 239.472V239.101H62.1224L62.3694 238.607L62.2459 238.113H62.6165L62.493 237.742L62.8636 237.125V236.878L62.3694 236.631L62.74 236.136L62.6165 235.642L63.2342 235.395L63.1106 235.025L63.4812 234.531L63.2342 234.16V233.789L63.6048 234.036H63.8518L63.7283 233.789L64.2224 233.542L64.593 233.666L64.8401 233.419V233.172L64.593 233.295L64.346 232.925L64.593 232.678L64.346 232.431L64.4695 232.307L64.0989 231.936L64.346 231.689L64.4695 231.936L64.7166 231.813L64.593 231.566L64.8401 230.701L64.9636 230.454L65.4578 230.33L65.7048 229.96H66.3225L66.5695 229.589L66.3225 229.466L66.199 228.725L66.5695 228.354V227.86L66.8166 227.736L67.0637 227.489L66.8166 226.995V226.501L66.9401 226.377L66.5695 226.254L66.6931 225.883H66.9401L67.1872 225.636L66.9401 225.019L66.5695 224.895L66.8166 224.648L66.6931 224.524L66.5695 223.907L65.7048 223.66L65.4578 222.795V222.424H65.5813L65.7048 222.177L66.199 222.054L65.9519 221.807H65.4578V221.56L65.8284 221.683L65.2107 220.818V219.707L65.5813 219.46L65.4578 218.842L65.0872 218.471L65.2107 217.854L64.9636 217.607L65.2107 217.483L65.0872 217.236L65.2107 216.865L65.8284 216.248L65.7048 216.124L65.8284 215.877L66.8166 215.63L67.0637 215.877V215.507L67.5578 215.754L67.9284 215.259L68.4225 215.383L68.7931 215.136V214.765H69.2873L69.5343 215.012L70.152 214.889L70.0285 214.518L70.3991 214.024L70.6461 213.901L70.7697 214.395L71.1403 214.024L71.2638 214.271L71.5108 214.024L71.8814 213.901L72.005 213.53L71.8814 213.406L72.1285 213.159L72.005 213.036H72.4991L72.6226 213.283L72.9932 213.036L73.2403 212.542L73.1168 212.295H73.858V211.924L73.7344 211.677V211.306L73.9815 211.059L73.6109 210.689L74.4756 210.812L74.2286 210.565V210.071L74.3521 209.824V209.206L75.0933 208.712L75.2168 208.095L75.4639 208.218L75.8345 207.971V207.724H76.0816L76.2051 207.353H76.6992L76.9463 207.106L77.3169 206.489L77.1934 206.118L78.0581 204.883L77.9345 204.759L78.3051 204.142L78.5522 204.018L78.7993 203.524L79.2934 203.03V202.783L79.7875 202.412L80.2817 201.424V201.177L80.6523 200.93L81.0229 200.312L81.3935 200.188L81.7641 199.447L82.1347 199.2H82.8759L82.7523 199.447L83.1229 199.324L83.617 199.571V199.324L83.8641 199.077L84.3582 198.83V198.706H84.7288L84.8524 198.459L85.0994 198.212V197.965L85.3465 197.841L85.8406 197.718L86.2112 197.347L87.1995 197.1H87.6936L87.9407 196.853H88.5583L90.1643 196.483L90.7819 196.112L94.735 193.888L96.7115 192.282L96.9586 192.159L99.0586 192.653L100.541 190.924H100.665L102.518 190.182L103.382 188.947V188.453L104.618 186.723L104.865 185.982V185.488L104.618 184.87L104.988 183.635L105.853 182.77L106.1 182.4L107.582 180.3L108.447 178.941L108.941 178.447L109.065 178.076L108.941 177.582L109.806 177.088L110.177 177.335H110.424L110.177 176.964L110.3 176.47L110.794 176.223L111.288 176.717L110.918 176.964L110.794 177.211H111.412L111.659 176.964H112.03V177.211L112.647 177.335L112.524 177.953L112.771 178.076L113.018 177.582H113.512L113.388 177.335H114.006L114.13 176.841L114.253 177.088L114.5 176.717H114.994L115.365 176.594L115.736 176.964L116.106 176.841L116.477 176.594L116.6 176.223L117.218 175.853L117.341 175.482L117.465 175.358L117.836 175.729L118.206 175.482V174.988L118.33 174.741L118.947 174.247L119.442 174.123V173.753L119.936 173.382L119.689 172.641L119.812 172.517L120.43 171.776L120.677 171.158L120.183 170.911L120.43 170.664L120.677 170.788L120.8 170.541L120.553 170.417V170.047L120.924 169.923L121.047 170.17L121.171 169.923L121.665 170.294L122.283 170.047L123.024 170.541L123.395 170.417L123.271 170.047L123.518 169.676L123.395 169.429L123.518 168.935L124.012 169.058L124.506 168.811L124.63 168.688L124.383 168.441H124.63L124.753 168.07L125.248 168.194L125.495 168.07L125.742 168.317L126.112 167.946H126.73L126.606 167.699L127.224 167.823L127.471 167.576L127.595 167.823L128.336 167.946L128.212 167.576L128.706 167.329L129.201 167.699L129.818 167.576L130.189 167.823L130.436 167.699L131.054 168.194L131.177 167.946L131.424 168.441L131.671 168.317L131.795 167.946L132.289 168.07L132.412 168.194L132.783 167.946V168.441L133.154 168.317L133.401 168.688L133.277 168.811L133.895 168.935H134.142L134.265 168.688L134.76 168.811L135.007 169.182L135.377 169.305L135.501 169.676L135.871 169.552L135.995 169.305L136.489 169.552L136.86 169.305L137.107 169.676H137.354L137.477 169.923L137.848 170.047L137.601 170.17L137.724 170.294L138.095 170.417L138.218 170.788H138.342L138.589 171.158L138.96 171.282L139.083 171.529L139.454 171.282L139.577 170.911H140.071L140.195 171.035L140.319 170.788L140.566 171.035L141.06 170.911L141.183 171.405L141.307 171.158L141.677 171.282H141.924L141.801 171.035L142.295 171.405L142.789 171.282V171.035H143.16L143.283 170.788L143.654 170.664L144.272 170.788L144.148 171.035L144.642 170.788L144.766 171.035L144.889 170.788H145.26V170.664L145.754 170.911L145.877 170.541L146.372 170.664L146.495 170.788H147.113L147.236 170.664L147.607 170.788L147.854 170.664V170.294L147.73 170.047L147.978 169.552L147.854 169.182L147.978 168.811L148.842 168.688L149.213 168.317L149.46 167.452H149.583L149.954 166.958L149.831 166.711L150.201 166.464V165.97L150.942 165.723L151.066 165.476L151.189 165.352L151.313 165.105L151.684 164.735H151.931L152.054 164.488L152.672 164.364L152.919 163.746H153.289L153.784 163.87L153.907 163.746L154.401 163.87L154.525 163.623L155.019 163.499V163.252H155.637V163.129L156.254 162.758H156.501L156.872 162.388H157.119L157.49 162.017H157.737L158.231 161.646L158.354 161.029L158.725 160.658V160.287L158.972 160.411L159.219 160.04L159.96 159.793V159.546L160.578 159.176V158.682L161.072 158.064L161.196 157.693L161.443 157.323L161.566 156.581L161.443 156.211L162.06 156.334L162.431 156.458L162.925 156.334L163.172 156.087H164.037L164.16 155.593L166.013 153.493L168.484 153.987L169.102 154.481L171.078 155.099L171.449 156.211L171.819 156.458L172.19 156.581L173.672 155.717L174.414 155.84L175.649 155.47L175.772 155.593L178.737 154.852L179.478 154.481H179.849L179.725 153.864V153.493L180.096 153.246L182.196 152.876L182.567 152.628L182.937 152.505L183.184 152.628L183.431 152.505H184.049L184.42 151.64L184.667 151.517L185.655 150.528H186.273L186.89 151.64L188.126 152.011L188.867 151.64L189.608 149.417L189.361 147.934L189.484 146.946L189.979 146.452V146.328L190.226 145.958V145.464L190.72 145.093L191.214 144.969L191.461 144.105L191.585 143.734V143.116L192.079 143.24V142.993H191.832V142.622L192.202 142.499L191.955 142.005L192.202 141.758V141.387L191.832 140.893H192.202L192.449 141.14L192.573 140.893V140.399L192.82 140.769L193.19 140.522L193.314 140.893L193.685 141.016L194.179 140.893H195.043L195.167 140.769L195.661 140.646V140.399L195.167 140.028L195.291 139.781L195.167 139.41L195.043 139.163V138.793L195.414 138.546L195.538 138.669L195.661 137.928L195.785 137.681L196.279 137.805L196.526 137.434L196.773 137.681L197.267 137.434L197.391 137.681L197.761 137.557L197.885 137.805L198.008 137.681L198.749 137.557L199.244 137.928L199.367 138.299L199.614 138.175L199.985 138.422L199.738 138.793H200.108L200.232 139.04V139.287L200.602 139.41V139.658L200.849 139.905H201.344L201.467 139.163L201.714 139.287V138.546H202.085V138.793H202.579L202.95 138.546L202.826 139.287H203.197L203.444 139.04L203.691 139.287V138.916L204.061 139.04L204.185 138.669L204.308 138.793L204.432 138.422L204.679 138.546V138.175L204.432 137.928L204.926 137.805L205.05 137.434L205.42 137.805L205.544 137.557L205.914 137.928H206.161L206.285 138.052L206.656 138.175L207.026 137.928L207.397 138.175L207.273 137.928L207.026 137.681L207.15 137.31H207.397V137.063L207.891 137.187V136.569H208.138L208.261 136.816L208.756 136.693L209.126 136.94L209.497 136.569V136.94H209.744L209.867 137.187H210.238L210.361 136.569L210.732 136.446V136.693L211.35 136.569V136.322H211.597L211.72 136.569L212.091 136.446H212.462L212.214 136.199L212.585 135.828L212.832 135.952L212.956 135.828L212.832 135.581L213.45 135.828V135.457L213.82 135.581L213.944 135.334L214.562 135.581L214.685 135.334L215.303 135.704L215.55 136.075L215.92 136.446L218.638 137.434L220.738 139.163L221.974 138.916L224.321 138.546L227.656 137.681L228.274 138.175L228.521 139.04L228.768 139.658L228.891 140.522V141.263L229.138 141.387H229.756L229.88 141.881L230.003 142.252L230.374 142.375V142.869L230.868 142.746L231.239 142.499L231.609 142.622L232.35 143.611V143.981L232.227 144.228L232.474 144.722L232.844 144.599L233.092 144.969L233.709 145.093L234.327 144.599L234.821 144.722L235.068 144.475L235.933 144.352L236.427 143.981L236.797 143.858L236.921 143.611H237.168L237.415 143.981L238.527 143.858L238.774 143.981L239.392 143.858L239.515 143.487L239.639 142.869L239.886 142.499H240.256L240.503 142.005H240.874L241.245 142.499L241.492 142.622L241.986 142.746L242.356 142.869L242.974 142.622L243.839 142.375H244.333L244.704 142.005L245.074 142.128L246.062 142.499L246.557 143.611L246.433 144.228L246.557 144.475L247.668 144.722L248.286 144.599L248.657 144.846L248.78 145.216L249.521 145.711L249.768 146.328L250.386 146.699L250.88 146.822H251.251L251.621 146.452H251.868L252.116 146.081V145.711L252.363 145.216L252.61 145.093L253.227 144.846L253.721 144.352L254.957 144.475H255.08L255.945 144.846H256.316L256.563 144.969L257.551 144.846L258.169 144.599L258.539 143.981L259.404 143.611L260.269 142.746L260.763 142.622L261.01 142.746L261.133 142.499L261.751 142.375L261.875 142.622L262.369 142.375L262.492 142.252H262.863L262.986 142.005H263.357L264.345 142.128L264.716 142.375L265.334 143.116H265.704L266.075 143.487L266.816 143.611L267.434 144.105H267.681L268.298 144.228H268.792L269.163 143.981L269.534 143.858L270.151 144.105L270.769 143.981L271.634 143.858L272.004 143.734L272.745 144.228L272.622 144.475L272.993 144.969L273.24 144.722L273.487 144.969L273.857 145.464L275.093 146.081L275.216 145.958L276.328 146.205L276.822 146.575L278.057 147.193L278.675 146.946L279.046 147.193L279.54 147.069L280.405 146.946H281.146V147.069L281.64 147.44L282.134 148.181L282.505 148.305L282.628 148.181L283.616 148.305L284.234 148.181L284.852 148.305L285.593 148.675L285.963 148.552L286.705 148.675L287.446 148.428H287.693L288.064 148.058L288.434 147.811H289.299L289.917 148.181L289.793 148.428L290.04 148.799L290.411 149.17V149.417L290.781 149.664L291.275 149.54L291.646 149.911L292.387 150.158L292.881 150.281L293.128 150.158L293.499 150.281L294.117 150.034L294.734 150.281L295.105 150.158L295.352 150.281L295.599 151.023H295.97L296.587 151.764L296.958 152.011L297.205 152.505L297.328 152.999L297.699 153.37L297.823 153.74L298.44 154.358V154.852H298.687V155.223L299.181 155.717L299.799 155.964L299.923 155.84L300.046 156.087H300.417L300.54 156.211L301.529 156.458L301.899 156.211L302.887 156.458V156.705L303.258 157.199L303.752 157.446L304.37 157.94L304.74 158.682L305.358 159.176L305.852 159.423L306.223 159.299H307.088L307.458 158.929L307.829 159.052L307.952 158.929L308.323 159.052L308.446 158.929L308.817 159.052L309.929 157.57L310.176 157.076L310.299 156.581L310.67 156.087L311.164 155.47L311.658 155.223L312.029 154.728L312.276 154.358L312.894 153.987H313.264L313.511 153.37L313.882 153.493L314.252 152.999L314.623 153.37L314.87 153.246L315.117 153.37L315.364 153.123L315.982 153.37V153.246H317.341L317.711 153.37V153.864L317.958 153.987L319.194 154.728L321.417 154.976L323.888 154.605H325L327.1 154.852L327.841 155.223L329.818 154.852L330.065 154.728L330.559 154.976L331.053 154.852L331.794 154.976H332.041L332.165 155.47L332.535 155.223L333.276 154.976L333.4 154.605L334.018 154.481L334.388 154.605L334.759 154.976L334.882 154.852L335.006 155.099L335.253 155.223L335.5 154.852L335.129 154.358L335.253 154.111L335.624 154.234L335.994 153.987L336.241 154.111L336.488 153.864L337.23 153.617L338.712 153.37L339.33 153.617L342.294 152.752L343.53 151.764L345.506 151.27L347.112 148.552L346.742 147.193L346.247 147.317L345.753 145.216L345.877 145.34L347.73 144.722L348.347 144.228L348.471 143.858L348.1 143.363L348.224 142.499V141.758L348.965 141.387L349.089 140.893L348.965 140.646L349.212 140.522L353.783 140.893L355.142 143.24L359.218 143.116L362.06 153.74L359.712 154.481L360.33 156.581L360.824 158.434L361.071 159.299L361.195 160.287L361.442 161.152L362.924 162.882L363.295 164.364L363.418 165.105L363.295 165.599L363.665 165.723L364.283 166.835L365.024 167.329L365.395 167.823L365.889 168.194L366.383 168.811V168.935L368.73 168.194L370.583 167.576L372.93 169.676L373.795 172.27L374.289 173.505L374.413 173.382L377.995 172.517L377.501 171.035L381.331 168.194L383.06 166.958L386.396 165.599L388.125 164.858L389.36 163.746V162.264L388.125 161.523L387.384 158.558L388.866 157.446L387.137 154.976V154.852L388.125 154.358H388.866L391.954 154.234H393.56L396.155 153.987L398.872 153.864L400.231 153.74L405.172 153.37L405.543 153.123L405.79 153.37L405.914 152.999L406.161 152.876L406.778 152.752L407.025 152.381L407.272 152.258L407.52 152.505L407.89 152.258L408.384 151.764L408.755 151.64L409.002 151.393H409.249L409.62 151.023L409.743 150.528L410.114 150.652L409.867 150.281L409.743 150.405L409.62 150.034L412.831 150.405L414.684 150.528L423.208 151.27L426.791 153.617L428.15 153.864L429.261 155.47L430.003 156.829L431.608 159.423L437.167 160.411L438.65 160.658L440.503 161.399L443.468 164.241L445.321 164.364L447.544 164.611L449.15 165.352L451.127 164.735L451.991 163.746L453.721 163.376L454.215 162.635L455.45 161.276L458.662 160.287L461.009 158.929L461.256 158.311L463.233 156.952L465.086 156.458L466.321 156.087H467.803L468.421 155.593L475.586 155.099L477.068 154.111L478.674 153.864L482.01 154.234L482.874 154.111L484.604 153.74L485.592 152.999L488.186 154.605V156.829L486.828 158.558L486.704 159.67L485.716 162.017L485.592 163.376L485.098 163.993V164.982L486.086 165.105L485.839 167.823H485.963L488.186 168.688L488.31 168.811L488.928 166.835L489.916 164.982L490.657 163.252L492.016 162.264H493.622L496.216 163.499L502.64 163.376H510.052L510.299 163.499L510.422 163.993L510.299 164.117L510.422 164.488L510.299 164.982L510.422 165.599L515.734 165.723L518.205 165.846H521.664L521.787 166.093L521.911 165.846L527.717 165.97L528.334 171.652L528.952 172.27L532.658 175.111L532.164 180.917L540.688 181.659L540.441 183.512L541.429 184.747L544.27 186.353L544.023 187.218L544.147 187.712L543.776 188.576L543.653 188.7L543.529 189.565L544.641 190.182L546.123 189.812L549.582 188.823L550.2 188.7L553.782 189.565L555.018 188.206L557.859 184.747L561.688 182.77L564.406 181.412L567.247 181.782L569.224 179.929L570.583 179.559L572.559 179.188L571.694 174.741H571.818L572.436 175.111L573.3 175.358L575.153 175.111L575.771 174.864L576.142 174.617H576.759L577.747 174.864L578.736 174.988L579.23 175.235L580.342 175.729L581.206 176.347L581.577 176.841L581.824 177.335V177.953L581.948 178.817L582.071 179.435L582.812 180.547L583.43 181.906L583.554 182.77L583.801 183.141L587.507 181.164L589.483 181.288L590.101 182.029L594.672 186.476L599.736 187.341L600.725 186.847L600.972 184.994L602.454 184.623L604.678 184.006L610.607 180.547L613.448 180.053L616.537 178.694L618.143 178.076L620.49 178.447L621.107 173.258L619.872 170.294L620.119 167.946L620.737 167.823L621.107 167.576L621.355 166.835L621.478 166.341L621.725 165.476L621.972 165.229L622.466 164.858L623.084 164.611L623.331 164.488L624.072 164.611H624.443L625.061 164.241L625.184 163.993V162.882L625.925 162.14L626.172 161.77L626.666 161.399H627.531L627.902 161.152L628.396 160.164V159.299L628.519 158.434L628.272 157.817L628.025 157.446L627.902 156.952V156.211L628.519 155.593L629.014 154.852V154.358L628.396 153.246V152.752L628.643 152.381L628.89 152.134L629.878 152.258L630.372 152.134L630.867 151.764L631.484 151.517H631.855L632.596 151.764L632.967 152.258H633.461L634.078 152.011L634.943 152.134H635.437L636.549 151.887H636.92L638.155 152.134H638.402L638.896 151.764L639.637 151.146L640.502 149.417L641.12 148.922L641.243 148.428L640.873 146.946L640.379 146.205L640.255 145.711L640.626 144.599L640.502 144.105L640.873 143.858H641.243L641.49 143.981L641.737 144.352L642.232 144.722L642.973 144.846L643.714 144.475L644.332 144.105H644.826L645.69 144.722L646.185 144.846L646.679 144.599H646.926L647.296 144.846L648.285 144.475V144.105L648.779 143.981L649.767 144.105L650.261 143.734L650.879 143.611L651.249 143.858L651.373 144.352L651.744 144.475L651.991 144.722L652.608 144.969L652.855 145.216L653.226 144.846L653.102 144.352L653.349 144.105L653.597 144.228L654.091 144.599L654.832 144.105L654.955 143.487L655.944 142.746L656.685 142.375L656.932 141.881L657.55 141.511L657.673 141.387V140.646L657.92 140.275L657.797 140.028L657.55 139.781L657.179 139.905L656.932 139.658L657.179 139.04H657.673L657.92 138.546L658.291 138.422H658.538L659.65 139.163L660.638 139.534L660.885 139.658L661.009 140.275L661.132 141.14L660.885 141.387L661.132 141.758L662.12 141.634L662.491 141.881L662.738 141.758L662.985 141.14L663.726 140.646L664.838 141.016L665.456 140.893L666.32 140.646L667.309 140.275L667.432 140.028L667.556 139.658L667.309 139.04V138.422L666.444 137.681H665.95L665.579 136.693L665.826 135.334L665.95 134.963L665.826 134.716L665.579 134.346L665.826 133.975H666.691L667.062 133.234L667.803 132.616L668.173 131.998V131.257L668.668 130.64L669.038 130.146L669.532 130.022L670.026 130.146L670.521 129.898H671.015L671.756 130.146L671.632 130.516L671.756 130.887L672.003 131.01H672.744L672.991 130.64L673.238 130.516L673.609 131.01L674.227 130.763H674.597L674.844 131.134L674.968 131.998L675.338 132.246L676.45 132.616L676.697 132.987L676.821 134.469L676.45 135.087L675.709 135.952L675.585 137.187L675.462 137.434L675.215 137.805L674.721 137.928L674.227 138.422L673.979 139.163V139.658L674.721 140.275L674.474 141.016L674.968 141.511L675.091 142.128L675.215 142.375L675.709 142.746L676.203 143.24V143.487L675.832 143.858L676.697 144.475L677.191 143.981L677.809 144.228V144.475L678.18 144.846L678.056 145.34V145.587L678.427 145.958L678.797 146.452V147.069L679.168 147.687L679.538 148.181L679.291 148.305V148.675L679.909 149.293L680.033 149.787L680.28 150.405V150.775L680.774 151.64L680.65 152.011V152.505H680.897L681.268 152.134L681.885 151.764L682.009 152.011L682.133 152.381L682.503 152.876L682.627 153.37L682.874 153.617L682.75 153.864L682.997 154.111L683.738 154.605L683.986 154.358H684.233L685.097 155.223L685.221 155.47L685.097 155.84L685.344 156.458V157.076L685.097 157.446L685.221 158.311V158.805L685.715 159.299L685.468 159.793H684.974L684.85 160.04V160.658L684.974 160.905L684.603 161.77L684.727 162.017L684.974 162.635V163.005L685.097 163.376L685.344 163.499V163.993L684.85 164.117L684.727 164.364L684.974 164.611L685.468 164.858V165.105L685.221 165.723V166.217L684.85 166.711L684.974 167.082L685.221 167.452V167.699L685.097 168.07L685.344 168.935L685.468 169.182L685.962 169.676L685.715 170.417L685.962 171.035L685.715 171.776L685.839 171.9L686.456 172.023L686.58 172.27L686.95 172.641H687.444L687.939 173.011L688.186 173.382L688.433 173.876L688.803 174.741V175.111L689.05 175.482L689.668 175.606L690.533 176.47L690.78 176.347H691.398L691.768 176.47L692.262 176.964L692.88 177.335V177.582L692.633 178.076L692.509 178.694V178.941L692.386 179.435L692.509 179.806L693.127 179.929L693.374 180.176V180.794L693.498 181.288L693.25 181.535L693.374 181.782L693.868 182.029H694.609L694.733 182.153V182.647H695.104L695.721 183.141L696.462 182.647H697.08L697.327 182.894L697.451 183.512L697.08 183.759V184.129L697.451 184.5L698.068 184.623H698.439L699.427 184.994L699.551 185.365L699.304 186.229L699.427 186.6L700.045 187.218L699.921 187.588L699.551 188.082L699.674 188.7V189.194L699.798 189.318L700.539 189.565L700.786 189.812L699.921 191.047L699.551 191.418L700.292 191.788L700.168 192.282H701.28L701.527 192.406L701.651 193.518L701.527 194.259L701.28 194.753L701.033 195.618L700.662 195.988V196.73L700.786 196.977H701.404L701.651 197.718L702.021 198.088L702.515 199.077L702.639 199.447L702.268 199.694L702.021 200.188L701.774 201.547L701.898 201.918L702.021 202.536L702.515 202.783L702.639 203.277L702.392 203.647V204.018L702.763 204.389L703.01 205.253L702.639 205.747L702.763 206.118H703.504L703.751 205.747L704.121 205.624L704.492 205.747L704.616 206.612L704.986 207.848L705.11 208.218L705.48 208.836L706.098 208.959L706.345 209.33L706.716 209.083L707.58 209.33L708.445 208.836L709.433 209.206L709.804 209.33L710.422 209.206L711.163 209.453L711.657 210.071H712.027L712.892 210.689H713.757L714.498 211.43L714.992 212.295H716.969L717.71 212.418L719.069 212.295L719.934 211.801H720.798L721.292 211.677L723.269 211.801L723.393 211.677L725.616 208.589L725.74 208.465L727.84 207.23L728.828 206.983L728.951 207.106L729.693 208.589L729.816 208.712L731.299 209.083L731.422 209.206L731.546 210.689L732.287 212.665H732.41L734.758 213.406L735.005 213.53L736.116 216.124L736.487 216.371V217.112L737.228 217.36L737.599 217.73L738.711 218.348L739.452 218.471L739.699 218.965L740.563 219.83L742.169 220.695L742.293 221.066L744.64 219.336L745.011 219.213L745.134 219.089L745.999 218.348H746.37L746.74 218.471L748.717 218.718L752.423 217.977L757.117 217.112L756.87 220.077L759.711 221.066H759.958L761.688 218.224L765.517 218.842L765.394 220.448L769.717 221.683L771.694 221.436L773.794 221.189L774.164 218.101L774.411 217.236L774.659 216.865L776.759 215.754L778.982 215.012L781.576 216.001L783.8 222.548L787.135 223.413L789.977 224.277L793.559 223.783L795.289 224.154L798.006 224.03L798.5 223.66L800.477 221.683L801.712 219.83L803.565 221.313L802.947 223.413L802.206 225.513L803.318 226.377L805.295 227.983L806.036 228.601L805.912 229.713L805.418 231.442L805.048 233.295L805.912 234.036L805.665 234.407L805.418 235.889L804.059 236.507L803.812 237.001L804.183 237.495V238.484L806.159 239.472L807.024 239.842H807.889L809.001 240.09L810.236 240.831L812.212 241.325L814.807 243.178L816.165 245.278L817.895 245.648L822.96 246.76L826.048 247.872V248.737L826.419 249.231L826.789 250.837V251.084L827.407 251.702V252.319L828.025 253.431L828.519 254.419L828.889 254.666L829.136 255.037L829.507 255.161L830.248 255.037H831.113L831.731 255.778L831.607 256.149L832.472 257.384L832.595 259.731L830.866 261.708L832.719 264.178L837.166 263.931H838.154L839.019 264.302L839.39 265.043L846.678 267.761L846.802 267.884L846.678 268.255L846.925 268.378V268.626H847.543L848.531 268.378L848.902 268.873L849.396 269.243L849.766 269.12L850.137 269.367L850.755 269.614H851.496L851.743 269.737L851.866 270.231H852.36V270.973L852.608 271.343L853.596 271.467L853.966 271.837L854.214 272.702L854.461 272.826L854.337 273.196L854.708 273.443L855.449 274.061L855.078 274.308L855.819 275.049L856.314 274.802L857.549 273.937L863.478 277.643L863.355 280.361L863.478 280.485L864.961 283.449L866.443 284.808L869.779 290.861L870.767 293.456L872.99 296.05L873.979 296.915L875.832 299.756L880.897 300.497L884.603 303.956L886.332 302.968L889.544 305.809L893.867 311.986L894.856 317.421L894.115 319.027V319.521L896.956 325.08L898.562 328.168L898.932 329.28L899.179 329.651L899.303 330.145L900.291 332.739L903.38 335.333L905.356 337.433L906.962 339.41H907.086L907.209 339.657L907.703 339.904L907.827 340.027H908.321L908.691 340.151L909.185 339.904L909.433 340.274H909.803L910.05 340.522L910.174 340.151L910.668 340.027L910.792 340.274L911.039 339.78H911.286L911.78 340.027L911.903 339.78H912.15L913.88 340.151L916.35 343.363L917.339 346.081L918.08 349.91L919.809 351.269V351.145L920.427 351.022L920.674 350.651L920.551 350.404L920.798 350.034L921.168 349.91L922.404 349.539L922.651 349.292L923.392 349.416L923.515 349.292L924.009 349.416L924.133 349.786L924.627 350.034H925.368L926.233 349.539H926.851L927.345 349.786H928.333L929.198 350.034L929.568 350.157L929.815 350.651H931.174L931.545 350.775L932.039 351.639L933.274 351.763L933.521 351.887H933.769L934.757 352.628L935.127 353.245L935.498 353.369L935.992 353.863H937.227L936.98 354.604L937.474 355.716V356.21L938.092 356.457L939.204 356.828H939.575L939.945 356.457L940.686 356.334V357.322L940.933 357.816L941.922 358.804L942.169 358.928H943.281L943.528 359.051L943.775 359.422H944.145L945.504 359.299L945.751 359.422L945.875 359.175L946.245 359.051L946.369 359.422L946.739 359.299L947.11 358.804L947.357 358.928L947.728 358.804L948.098 359.051L948.222 358.681L949.951 358.557H950.693V359.051L950.94 359.546L951.187 359.669L952.051 359.793L952.422 359.916L953.287 359.546H954.275L954.769 360.04L956.128 359.299L958.352 358.187L960.328 358.31V359.546L960.575 360.534L960.328 362.51V364.734L961.44 366.093L960.575 379.558L961.193 382.77L959.834 390.058L958.846 390.799L958.599 391.17L959.216 391.788V392.158L958.599 392.776H958.352L957.734 392.035H957.487L957.116 392.776L956.622 393.023L956.499 393.641L956.128 394.011L955.881 394.752H955.634L955.387 394.999L955.016 395.123L955.14 395.864L955.016 396.235L954.398 396.605L954.151 396.976L953.781 397.223V397.347L953.04 397.717L952.916 397.964L953.163 398.211L952.916 398.458V398.829L953.163 398.952V399.941L952.793 400.311L952.422 400.435V400.682L952.175 400.929L951.804 401.053L951.557 400.805L951.063 400.929L950.816 401.3L950.445 401.176L950.322 401.3H949.828L949.457 401.423L949.581 402.041H948.963L948.592 402.658V402.906L948.345 403.029V403.4H947.481L947.357 403.647L947.11 403.894L946.492 403.4L946.122 403.523L944.269 404.017L942.663 408.341L943.898 410.935L944.639 411.8L945.257 413.035L945.134 415.876L946.987 417.977L948.098 421.93V422.177L947.728 422.3L946.863 422.918L946.616 423.412L945.751 425.388L945.628 425.759L946.739 426.871L947.604 427.859L948.222 428.724L948.469 429.341L946.616 428.23L945.998 428.106L945.381 428.477L945.134 428.971L945.628 429.712L946.122 431.194L946.369 432.059L947.728 435.518L948.469 437.248L946.616 438.236L946.739 439.224L946.863 441.201L946.987 441.571H947.234L947.357 441.942V442.312L947.604 443.795L945.875 444.165L945.381 444.412L943.775 444.907L942.045 445.895L940.439 446.513L939.204 449.354L937.845 449.601L936.61 448.366L935.498 449.354L934.51 449.23L934.263 451.083L934.016 453.06L932.533 453.924L931.916 454.419L931.421 454.542L931.298 454.913L930.31 454.789L929.815 455.16L929.692 455.407L928.827 455.283L928.704 455.654L928.951 455.777L929.445 456.519V456.889L929.939 457.136V457.383L930.31 457.63L930.68 457.383V457.878L930.927 458.001H931.051V457.63L931.421 457.754L931.545 457.878L931.792 457.63L932.163 457.754L932.286 457.878L932.657 458.125H932.904L933.521 458.001L934.016 457.63L934.263 457.878L934.633 457.507L935.374 458.248V458.372H935.622L935.869 458.248L936.239 458.372L936.486 458.866L936.733 458.619L936.98 458.495L937.351 458.742L937.227 459.113L937.598 459.236L937.845 459.607L938.092 459.483H938.339L939.204 459.978L939.575 459.854L939.945 460.101H940.439L940.563 460.225L940.81 459.978H941.057V460.595L941.18 460.842H941.675L941.798 460.966L942.169 460.595L942.416 460.719L942.663 460.472H942.786L943.157 460.101V460.472L943.898 460.719L944.022 460.966L944.269 460.595L944.392 460.842V461.213L944.763 461.089L945.134 461.336L945.504 461.213L945.628 461.089L945.998 461.336L946.369 461.213L946.492 461.46L946.739 461.213V461.954L946.987 462.201L947.11 462.078L947.234 462.572L947.481 462.448L947.604 462.695V462.942L947.728 463.313H948.592L948.84 463.189L949.087 463.436V463.931L949.334 464.054L949.581 463.436L950.198 463.313L950.322 463.436L950.569 463.189L950.816 462.695L951.434 462.325H951.928L952.051 462.201L952.422 461.954H952.793V462.201L952.422 462.695L952.793 462.942V463.313H953.04L952.793 463.56L952.916 463.684H953.287L953.41 464.054L954.028 463.807V463.56L954.275 463.436L954.151 463.189H954.275L955.14 463.56L955.387 463.436L956.004 463.684L956.375 463.931L956.622 463.807L956.375 463.436L956.499 463.066L956.869 462.695L957.24 462.572L957.487 461.831L957.734 461.707L958.104 461.954L958.228 461.584L957.857 461.089L957.981 460.472H957.61L957.981 460.225L958.352 460.595L958.599 460.348L958.846 460.472L959.093 460.225V459.978L959.71 459.483L960.328 459.731V459.978L959.834 460.225L959.71 460.595L959.463 461.213L959.34 461.954L959.71 462.572L960.205 462.695L960.575 463.313L961.563 462.325L961.687 462.448H962.058L961.81 461.46L961.934 460.842L962.181 460.595V460.225L962.552 459.607L963.54 459.483L965.269 459.36H965.393L965.64 458.495L965.887 458.248L966.505 458.372L967.617 459.36L967.864 459.607L969.099 460.472L969.593 460.348H969.84L970.581 460.719L971.075 460.842H971.446L971.94 461.213H973.175L973.67 461.831L974.658 462.572L975.028 463.066L975.152 463.313L975.646 463.436H976.387L976.758 463.313L977.005 462.942H977.499L978.364 462.572L980.093 462.819L980.464 462.942L980.834 462.695L981.081 462.819H982.317L982.44 462.942L983.552 463.56L984.17 463.684L984.417 463.807L984.54 464.178H985.405L985.652 463.807L986.146 463.56L987.011 463.436L987.258 463.684V464.425L987.876 464.548L988.123 464.301H988.617L989.111 464.548H989.605L990.099 464.919L990.47 465.042L990.717 465.166L990.47 465.784L990.594 466.154V466.648L990.717 466.895L991.335 467.266L991.829 467.142L992.199 467.39L992.694 467.266L992.941 467.39H993.311L993.435 467.637H993.682L993.311 468.872L994.052 470.354L994.299 473.813L993.188 476.531L993.064 476.655L992.694 476.284L988.123 477.272L987.999 478.508V479.249L988.123 479.496L987.505 479.743L987.011 478.878L986.393 479.002L986.023 479.125L985.776 480.36H985.405L985.158 480.855V481.349L984.17 481.596L983.182 481.472L981.946 481.843L981.699 482.461L980.587 483.202L979.97 483.449L979.846 483.696H979.723L979.599 482.831H979.229L978.981 483.078V483.572L978.487 484.314L978.117 484.684H977.746L977.499 485.055V485.425L977.005 485.549V486.167L976.758 486.29L976.511 486.661L976.264 487.278L976.14 487.649L976.758 494.196L975.646 494.814L975.028 495.184L974.287 495.802L973.175 496.79L972.681 497.902L971.94 498.52L970.828 497.161L970.705 497.037L969.346 498.149L969.099 498.273L967.617 499.508L967.987 500.002L967.864 501.979L968.481 502.349L969.716 505.191L970.334 504.573L971.199 505.438L971.817 504.943L972.434 505.438L972.681 505.932L972.805 506.796L970.952 508.279H970.705L968.111 507.291V507.908L968.234 508.526V509.638L967.864 510.626L966.628 511.491L965.763 511.367L964.158 510.008L963.293 510.502L962.675 510.626L962.428 511.12L962.058 511.738L960.699 512.726L960.452 512.479L959.216 513.22L959.463 513.344L958.228 514.208L956.375 513.22L955.757 512.973L954.028 512.108H953.41L950.94 513.591L950.445 513.344L950.322 513.591L949.457 513.097L949.581 513.467L948.716 513.591L948.098 513.838V514.332L947.851 514.208V514.579H947.728L947.604 514.95H947.357L947.11 514.703L946.987 514.332L946.616 514.208L946.492 514.332V514.579L946.369 514.826L945.875 514.703L945.628 514.95L945.381 514.826L945.257 515.197L944.022 513.467L941.428 510.008L938.586 512.232L937.598 512.85L936.857 512.232L935.374 513.591L935.127 515.938L935.004 516.803L934.633 517.297L933.151 518.656L932.286 519.397L931.668 517.05L930.557 518.161L928.827 517.667L928.086 517.05L927.098 516.308L925.986 515.938L926.109 516.185L924.998 517.173L924.504 516.432L924.874 515.938L924.38 515.814L924.009 515.938L924.133 516.185L923.886 516.432L922.774 516.926L922.651 517.297H922.156L921.539 517.914L921.292 517.544L920.674 517.173V516.803L920.921 516.556L921.045 515.691L920.921 515.32L920.18 515.567L919.686 514.826L919.315 514.579V514.455L917.215 513.344L916.721 513.467L915.115 513.097L914.621 512.973L914.744 513.344L914.497 513.714L913.88 514.208L913.015 514.455L912.274 514.579L912.15 514.208L910.915 514.826L910.421 514.208L909.433 514.703L909.803 515.814L909.68 516.556L910.421 517.05L909.803 517.297L909.433 517.42L906.344 517.667V518.038H905.85L906.097 518.285L907.209 518.656L907.58 519.273L906.838 519.397L906.591 519.891L905.85 520.385L905.356 520.509L903.75 520.756L899.426 521.497H899.056L898.562 521.991L894.609 525.079L893.867 525.573V526.068L894.485 527.179L895.226 527.921L896.215 528.662L896.091 528.785L896.956 529.897L897.079 530.268L897.697 530.021L898.932 532.121H898.809L899.55 532.738L900.785 534.221L899.797 535.085L899.179 535.209L899.426 535.703L899.921 536.321L899.426 537.433L899.179 537.309L898.562 536.938L897.573 536.444H897.203L896.585 536.321L895.597 537.927H895.103L894.856 539.038L894.979 539.656L895.103 539.903L896.462 540.274V541.633L895.226 541.88V543.115L895.721 543.239L895.844 543.362V544.597L895.597 544.721L895.968 544.968L894.485 546.574L893.991 547.809V548.303L893.25 549.045L892.879 550.527L891.767 552.009V552.504L890.409 552.998V557.321L889.05 557.815L888.185 558.186L887.938 558.557L887.073 558.804L886.703 559.051L886.456 559.421H885.961L886.085 558.804L885.097 558.927L884.355 558.557L881.761 558.804L881.514 559.174L880.649 559.298L880.032 559.668L879.291 560.78H878.92L878.055 560.657L876.944 559.915L875.832 559.668L875.091 559.915L875.338 560.41L875.461 562.386L874.102 564.733L869.532 565.104L868.42 565.227L868.667 565.721L868.42 566.71L867.926 567.327L868.543 568.439L869.284 569.675L867.802 570.292L867.926 570.539L866.567 570.91L864.961 571.157L864.59 571.775L866.443 573.01L866.073 573.504L865.208 573.133L864.22 573.257L861.996 573.133L860.761 572.763L859.649 573.01L856.314 571.404L854.214 570.539V568.81H853.225L852.36 569.922L851.866 569.551L849.89 570.292L849.396 570.91L848.531 570.786L847.913 571.033V571.157L846.555 571.775L846.802 572.145L845.813 573.01L843.837 574.616L842.354 574.863L841.984 575.604L840.625 576.345L838.525 575.481L837.537 574.986L836.548 574.863L836.301 575.481L835.931 575.851L835.684 576.839L835.066 576.963H834.819L834.448 577.087L833.584 577.21L832.348 577.457L831.484 579.928L832.719 580.175L832.225 580.669L832.101 581.534L831.978 582.028L831.607 582.151L831.854 582.398V582.645L832.101 582.893L832.225 583.14L832.101 583.51H832.348L832.472 583.757L832.101 584.251L831.978 584.746L831.607 585.363L831.484 586.475L830.866 586.722L830.495 586.969L830.372 587.34L830.125 587.216L829.878 587.463L829.631 588.328H829.26L828.889 588.699L828.519 589.316L828.148 589.44H828.025L827.654 590.057H826.666L826.542 590.552L826.666 590.922L826.419 591.169L826.542 591.416L826.295 591.54L825.925 591.416L825.677 591.293L825.307 591.54V591.787L824.936 591.91L824.813 592.281L824.936 592.652H825.43L825.307 593.022L825.43 593.269L824.936 593.393L824.689 593.146V593.393L824.319 593.887V594.381L824.072 594.999L823.454 595.369L823.083 595.246V595.74H822.836L822.589 596.111L822.095 596.358L822.219 596.728H821.971V596.975L821.601 597.099L821.23 597.346L820.366 597.222L820.119 597.469L819.377 598.458L819.13 598.952V599.693L819.254 601.052V601.793L819.377 602.04L819.871 602.411L820.119 602.781L819.995 603.028L819.501 603.646L819.254 604.14L819.13 605.375L819.254 605.746L819.007 606.364L818.266 607.476L818.018 607.723H817.648L816.783 607.846H815.424L814.683 607.476L814.436 608.217L814.312 608.464L814.065 609.081L813.695 609.205L813.324 609.946L813.077 610.564V611.552L811.718 613.529L811.842 613.776L811.718 614.146L811.965 614.393L811.842 615.382L812.459 617.976L812.583 618.47L812.83 620.446L813.201 621.805L813.818 623.164L814.312 624.399L814.065 626.129L813.695 626.994V628.723L813.818 630.329L813.942 633.294L813.818 634.282V636.012L813.695 637.617L813.571 638.606L813.324 639.47L813.077 640.459L812.459 641.818L811.965 642.435L812.089 644.165L812.336 645.524L812.707 646.882L812.459 647.377L811.718 647.006L811.348 647.13L811.101 647.871L811.842 649.353L811.718 649.477L812.212 651.577L813.077 656.024L813.324 657.63L813.818 660.224L814.189 660.471V660.718L813.448 662.324L813.695 662.571L813.942 662.942L814.189 663.189L814.065 663.683L813.818 663.93L814.065 664.301L814.683 664.548L815.548 666.03L815.301 666.648V667.265L814.93 668.007V668.624L815.424 669.242L815.301 670.107L815.795 671.342L815.548 671.713L815.301 671.836V672.701L815.671 672.948L815.548 673.318L815.301 673.565L815.795 674.06H815.918L816.042 674.307V675.542L816.165 676.036L816.289 676.407V676.777L815.918 677.024L816.536 678.136L815.424 678.63L815.918 678.877L815.548 679.372L814.436 680.73L814.56 681.595L813.942 682.336L811.965 683.325L809.495 685.301L808.753 685.919L807.889 686.413L806.777 687.278L806.406 687.031L805.912 687.772L804.43 688.76L803.195 689.748L802.947 690.119L801.465 692.96L800.847 694.195L798.994 697.654L798.871 698.519L798.5 700.619L798.006 702.596L797.759 703.337L796.771 704.819L796.524 705.807L796.277 705.931L795.783 706.672L796.4 706.919L796.277 707.413L796.03 707.908L795.659 708.402L794.177 708.155L793.682 708.525L792.941 708.896L792.571 709.39L791.583 710.131L791.335 710.502L789.977 711.243L790.594 712.602L791.706 712.725L792.447 711.861L793.93 712.602L794.177 712.849L794.053 713.096V713.343L793.806 713.59L793.559 713.466L793.435 713.714L793.188 713.837L793.065 714.208H792.818L793.312 714.949L793.065 715.196L793.188 717.049L793.682 717.172L793.806 718.408V719.025H794.053L794.794 721.62L795.041 721.867L794.424 723.226V723.72L793.065 725.696L792.694 725.943L792.2 726.808L791.088 728.414L790.471 729.649L789.606 729.526H788.988L788.494 728.785L788 728.167L787.629 729.155L787.259 731.008L787.382 732.367L788.124 733.849L788.371 735.332L788.494 735.579L787.382 736.32L786.271 736.938L784.912 737.802L783.8 738.297H783.306L782.935 741.508L782.688 741.879L782.318 744.967H779.106L778.365 745.214V746.203L778.982 748.056H781.082L781.329 749.291L781.576 749.662L781.329 750.032L780.712 750.279L781.7 752.75L783.8 752.009L787.506 750.65L787.877 752.503L789.853 753.12L791.212 753.615L792.941 754.109L794.177 752.132L794.671 751.885L795.536 752.379L796.647 753.985L799.859 750.773L802.33 750.279L803.565 751.638L807.024 756.085L806.901 756.332L807.765 757.321L807.518 757.444L807.889 757.938L806.159 759.668L807.395 761.15L805.912 762.509L808.259 765.103L809.742 763.744L810.359 764.486L810.854 764.115L811.348 764.238L811.842 764.733L812.212 764.486L812.459 764.609L812.83 765.227L813.448 764.609L814.56 766.091L813.818 766.709L814.683 767.821L814.436 767.944L814.93 768.686L815.054 769.056L815.548 769.921L815.424 770.415L815.548 770.786L816.66 772.145L817.03 772.639L817.895 773.627L818.018 773.874L818.513 774.739L819.501 774.862L820.119 774.615L820.366 775.851L819.377 776.345L817.277 777.456L817.648 777.703L816.042 778.445V778.568L814.93 779.062V778.939L814.436 779.186L815.177 780.792L814.683 781.162L814.807 781.286L815.424 781.409L815.795 781.904V782.521L815.918 782.892L816.66 783.015L817.277 783.757L818.018 784.127L818.389 784.868L819.007 785.486V785.98L819.13 786.227L819.254 786.968L819.501 787.215L819.254 787.833L818.883 788.451V788.945L818.266 789.81L817.771 790.18L818.636 790.921L819.254 791.663V793.021L819.377 793.639L819.254 794.504L819.871 794.38L819.995 795.122L820.119 795.369L820.86 795.245L820.366 798.086L819.995 798.457L819.871 797.963L819.748 798.086L819.377 798.21L819.254 797.839L819.501 797.963L819.377 797.716L819.624 797.345V796.851L819.748 796.604H819.377L819.254 796.727H819.007L818.883 796.357L818.636 796.48L818.389 796.11L818.142 796.233V796.727L817.154 796.604L817.03 796.975L814.56 796.604L812.954 796.357L812.707 797.839L811.842 797.592L812.089 796.233L810.236 795.986L809.989 795.122L809.371 794.627L807.889 794.133L807.271 794.257L806.777 794.133L806.406 794.257L807.024 794.875H806.901L807.395 795.739L806.901 796.11L806.159 797.222L804.059 798.086L804.43 800.063L803.689 802.163L803.071 801.916H802.33L801.959 802.163L801.218 801.916L800.23 802.163L799.612 802.781L798.5 803.769L798.253 804.881L797.883 805.622L796.277 805.004L796.03 805.869L794.918 805.251L794.3 805.004L794.671 804.263L794.547 803.645L793.93 803.275L793.435 802.657L794.053 801.792L793.312 801.422L791.706 802.039L790.841 801.916L789.73 801.669L789.853 800.681L787.259 800.433L786.518 800.186L785.282 799.692L783.923 799.198H783.676L783.182 799.816L782.194 800.557L781.823 800.063L781.082 798.704L780.465 798.581L778.612 797.839L778.735 797.098H777.994L777.87 795.245L777.994 794.998L777.5 794.38L777.006 795.122L776.141 794.504L775.77 792.898L775.523 792.404H774.782L775.029 791.786L775.276 791.292L775.029 791.045L775.276 790.798L775.77 789.316L776.759 789.192L778.241 788.574L779.476 787.833L779.6 788.08L780.094 787.957L780.465 787.586L782.194 786.598L782.688 785.857L783.306 785.61L783.429 784.868L783.8 783.262V783.139L783.676 782.521V781.533L783.306 780.545L782.935 780.421L782.318 780.545L781.947 780.174L780.959 779.68L780.712 779.433L781.206 779.309L780.835 777.58L782.688 777.333L783.676 776.221L783.923 776.345V776.839H784.294L784.665 777.333L785.035 777.209L785.529 778.074L785.653 778.445L786.518 778.074H787.012L787.877 778.321V776.221L787.629 775.974L787.012 775.727L786.518 774.986L784.665 772.392L784.171 770.909L784.912 770.786L784.541 770.044L784.418 769.056L783.676 769.18L783.553 767.944L783.429 767.697L783.059 767.327L782.194 767.45L781.7 766.833L782.565 766.462L782.935 766.586L783.306 766.215L783.553 765.721L783.923 765.474L783.429 764.115L783.059 764.362L782.565 764.609L780.094 763.868L779.847 763.744L779.353 763.127L777.87 763.003L776.882 762.262L776.388 762.385L775.77 759.297L775.4 758.803V757.568L774.906 756.703L775.276 754.85L775.153 754.603L773.547 754.109V754.479L772.558 754.232L772.435 754.356V755.962L772.929 756.95L772.064 756.456L770.335 756.332H769.841V757.321H769.594L769.717 758.432H769.347V758.679L768.111 758.803L767.741 759.05V759.791L767.37 759.915L767.247 759.421H766.629L766.258 759.544L765.27 759.421L765.641 757.568L763.664 757.691V758.309H762.058L760.823 759.297L759.711 760.162L758.599 760.409L757.982 760.656L757.735 761.274V762.015L757.364 762.88L756.005 763.991L755.758 763.868L755.634 764.362L754.029 763.621L753.287 763.25L752.546 764.733L752.052 764.609L751.064 764.856L750.693 765.103L749.828 766.339L749.334 766.833L748.84 767.203L748.47 767.327L748.223 767.08L747.605 767.203L747.481 767.574L746.987 766.956H746.617V766.586H746.37L745.999 766.709L745.875 766.586L745.505 767.08L744.64 767.327L743.405 767.821L741.799 767.697L740.44 767.944L740.193 768.068L739.822 767.821L739.575 767.944L739.205 767.821L739.081 767.574L738.834 767.944L738.34 767.821L737.969 767.45L737.722 766.956L737.846 766.833L737.599 766.709L737.475 766.462H737.228V766.215L736.857 765.844L736.363 765.597V765.474L735.869 765.35V765.103L736.116 765.227V764.98H735.869L735.993 764.733L735.746 764.362H735.252L735.128 764.115H734.758L734.263 765.227L733.522 767.574L732.905 768.315L732.163 770.044L731.916 770.909L730.31 769.427L729.693 768.562L729.075 767.45L727.469 768.191L726.234 769.056L725.74 769.55L726.11 770.044V770.415H725.987L725.74 770.909L725.987 771.033L725.74 771.156L725.863 771.527L725.74 771.65V773.009L725.616 773.503L725.245 774.121L724.628 774.368L724.257 774.615L724.134 775.109L724.257 775.727V776.345L724.01 776.962L724.134 777.951L723.763 779.433L723.393 779.804L723.145 779.927L722.775 780.421V781.162L722.898 781.286L722.651 781.656L722.034 782.151L721.663 782.645L721.416 782.892L720.798 783.139H720.304L719.439 783.88L719.316 784.251L718.945 784.498L718.204 784.868L717.957 785.115L716.969 785.486L716.845 785.733V786.845L717.216 787.71L716.475 788.451L714.992 788.821L714.375 789.192L714.128 789.81L713.88 789.933H713.386L712.892 790.551L712.027 791.786L711.039 793.269L710.051 794.133L708.816 795.616L708.198 796.727L707.086 798.21L705.851 799.445L705.357 800.681L704.616 801.175L703.38 801.298L703.01 801.669L702.515 803.522L701.898 804.139L701.404 804.016L700.786 803.892L700.292 803.522L699.304 803.028L697.451 803.151L694.98 803.398L692.88 803.151L692.262 802.657L691.15 801.669L689.174 801.175H688.927L687.692 799.939L687.568 799.569L687.444 798.086L687.197 797.963L686.333 796.975L687.074 796.727L686.703 795.739L686.086 794.998L684.727 793.763L683.986 794.257L683.862 794.133L683.121 793.269L682.997 793.516L682.38 793.886H681.885L681.762 794.01L680.897 794.504L679.786 794.998L679.415 795.122L679.168 795.369H679.044L678.55 794.998L678.056 795.245L677.685 795.492L677.191 796.11V796.604H677.068L676.203 796.851L675.832 796.975L675.338 796.851L674.227 797.839L673.362 797.963H672.991L671.385 798.951L670.891 799.198L670.521 799.445H670.026L669.162 799.816L667.926 800.433L667.679 800.186L667.432 799.816L666.691 799.569L666.073 799.939L665.209 800.063L664.962 800.31L663.479 800.433L662.985 799.816L662.738 800.063L661.75 799.816L661.626 800.433L660.02 800.681L659.279 801.051L659.897 801.916L661.009 802.904L661.626 803.769L662.244 804.51L659.897 806.24L658.785 807.104L657.92 807.969L656.808 808.834L656.067 809.328L654.832 809.451L654.338 808.957L653.844 808.34L652.732 808.71L652.485 809.451L652.979 810.44L652.732 810.81L653.102 811.428L653.226 812.293V812.54L653.597 813.651L654.585 814.516L655.573 814.887L656.067 815.504L656.685 815.999L657.303 817.234L657.673 817.605L658.291 818.593L658.538 819.334L658.785 819.705L659.032 820.569L659.403 821.063L660.02 821.805L660.267 822.546L660.391 822.793L660.885 824.275V825.016L660.761 825.264L661.009 825.511L660.761 825.881L661.256 826.128V826.622H661.009L660.885 826.993L660.761 828.352V828.475L660.514 828.97L660.885 829.217L660.761 829.587L661.503 829.834L662.367 830.452L662.862 830.823L663.109 831.193L663.356 831.44L663.85 832.305L665.085 832.428L666.568 831.811L666.444 831.44L667.679 830.823L668.791 832.058L668.668 833.046L668.173 833.664L667.309 834.281L666.691 833.293L665.95 833.787L665.826 833.417L662.367 834.281H662.738L662.985 834.776L662.862 834.899L663.109 835.023V835.393L663.603 836.011L663.109 836.382L662.738 837.123L662.367 837.37V838.358H661.75L661.009 838.111L660.391 838.482L659.279 840.582L658.785 840.458L658.414 840.582L658.538 841.323L659.526 842.188L660.267 842.558L659.65 842.929L659.156 843.052H658.661L658.414 843.299L657.055 842.682V842.805L656.067 841.817L654.955 842.682L654.708 842.805L654.338 843.423L653.597 843.299L653.226 843.546H652.732L652.361 843.793V844.411L652.114 844.658H651.991L651.497 844.04L650.508 843.176V842.805L650.632 842.311L650.138 842.064L650.014 841.817L649.643 842.064V842.435L648.779 843.423L649.643 843.917L650.261 844.658L649.767 844.905L649.149 845.893L645.814 849.476L646.432 849.846L647.296 850.711L646.926 851.452L644.826 851.205L641.737 851.947L640.626 851.576L637.908 852.564L638.031 851.452L638.155 851.205L638.773 850.958V850.588L639.143 849.599L639.39 849.105L639.143 846.635L639.514 844.411L640.379 843.299L640.873 841.076L640.749 840.952L641.367 839.099V838.976L640.131 836.999L639.637 837.123L639.02 836.876H637.784L637.043 837.246H636.549L635.931 837.123L634.202 839.47L634.449 839.593L633.831 840.334L632.596 839.964L631.484 840.211L631.114 840.087V839.47L629.137 840.334L628.272 838.976L627.902 839.47H627.284L626.914 839.593L626.419 840.334L625.802 840.705L625.678 840.952V841.446L625.431 841.57L625.308 842.064H625.061L624.813 841.817L624.443 842.188H624.072L624.196 842.682L624.319 842.929L624.196 843.176L624.443 843.299L624.196 843.67L623.578 844.164L623.331 843.917L622.837 844.411L622.713 844.658L622.466 844.411L622.096 844.535L621.725 844.411L621.478 844.782L621.602 845.029L621.231 844.905L621.107 845.152L620.737 845.276L620.86 845.523H620.613L620.243 845.77L619.872 845.646V845.276H619.625V845.523L619.254 845.646L619.131 846.017L618.76 845.893L618.39 846.388H618.143L617.772 846.635V846.882L617.525 847.376L617.401 847.252L617.031 847.994V848.241H616.784L615.919 848.858H615.301L614.931 849.105L615.054 849.476L614.807 849.599L614.56 849.476V849.723L614.437 849.97L614.313 849.723L613.943 849.846L613.572 850.464H613.078L611.966 851.452L610.237 851.329L609.742 852.317L609.125 852.441L608.631 853.058L609.001 854.788L608.631 855.158L608.878 855.405L608.507 855.653L608.754 856.023L608.384 856.147V856.517H608.137L608.013 857.011H607.89L608.013 857.258L607.519 857.629H607.272L607.025 857.876H606.901V858.247L606.654 858.494L606.284 858.741V858.988L606.16 859.482H605.789L605.666 859.853L605.419 859.729L605.172 859.976L605.295 860.1L604.925 860.47L604.431 860.594V861.088L604.184 860.964H603.689V861.212L603.195 861.088L602.948 861.459L602.701 861.706V861.953L602.454 862.2V862.941L601.96 863.682H601.713V864.176H601.342L600.972 864.67H600.601L600.478 865.288H600.601L600.725 865.535L600.478 865.782V865.906L600.23 866.4L600.478 866.647L600.23 867.018H599.983L600.107 867.265L599.983 867.635L599.736 867.759L599.489 868.376H599.119L598.748 868.871H598.378L598.13 868.747L597.883 869.118L597.636 869.241L597.513 869.488L597.389 869.612L596.895 869.365V869.735L596.524 869.612L596.401 868.747L589.113 869.118L586.148 869.859L582.812 870.971L579.23 868.747L578.859 868.623L578.365 868.129L577.995 867.882L577.5 867.759L576.883 867.882L576.389 867.388L576.142 866.894L575.647 866.4L575.277 866.276L574.783 865.535L574.659 864.67L574.783 864.423L575.524 863.929L575.771 863.312V862.57L575.524 862.323H575.277L572.065 863.806L569.841 860.1L568.236 859.853L568.112 858.864L567.741 858.617L567.124 858L567.618 856.27L566.012 855.158V855.9L565.765 856.27L565.147 856.394L564.406 855.776L563.171 857.382L562.306 857.011L561.812 856.641L561.441 856.888L560.824 856.764L559.341 856.023L559.465 854.541L560.329 853.923L557.982 850.341L556.376 851.452H554.77L553.288 852.317V852.564L551.312 853.058L550.076 852.811L548.1 854.911L547.359 854.664L546.37 854.417H544.147L543.529 853.676L543.035 854.047L542.788 854.911L541.676 855.776L541.923 857.506L541.8 858.123L541.552 858.617L536.858 859.729L528.952 861.582L521.664 863.312L520.181 862.447L519.317 862.57L518.822 860.223L519.811 860.594L519.687 858.247L518.946 856.888L518.081 854.664L516.105 853.429L514.869 854.047H514.622L513.634 853.552L511.658 851.947L512.028 851.205L510.175 850.464L509.31 851.205L509.187 851.576L509.434 852.564V852.935L509.187 854.047L509.31 854.788L509.187 855.158L508.693 855.776L506.716 856.764L505.975 857.629L505.604 857.753L504.987 857.876H504.246L503.751 857.629L502.763 856.764L501.898 855.405L501.528 855.035L501.281 854.911L500.169 854.664L499.428 854.417L498.563 854.294H498.193L497.575 854.664L496.463 855.529L495.351 856.641L494.487 858L493.869 858.494L493.251 858.864L492.634 859.111L491.151 860.1L490.904 860.594V861.335L491.151 862.076L491.522 862.817L493.004 863.682L493.745 864.3L494.116 864.794L494.24 865.288L494.363 865.906L494.487 866.771L494.363 867.141L493.745 867.759L492.881 867.882L492.634 868.006L492.016 868.623L491.151 869.982L490.657 870.229L490.286 870.106L489.792 869.982H489.175L488.557 869.859L488.186 869.982L487.816 870.353L487.198 869.982L487.075 869.241L487.322 868.376H487.445L488.31 867.018L488.186 866.771L487.816 866.647L487.075 867.018L487.198 866.523L486.828 866.029L486.086 865.412V865.288L485.839 865.041L485.716 864.547L486.086 864.3L485.839 864.053L485.716 863.559L485.345 863.065V863.312L484.975 862.817L484.851 862.941L484.357 863.065L484.11 862.817V862.57L483.739 862.323L483.616 862.694V862.323L483.369 862.2L482.998 862.447H482.751L482.627 862.076L482.504 862.447H482.133L481.639 861.953L481.392 862.076L481.269 861.829V861.582L481.021 861.459L480.898 861.706L480.527 861.582H480.157L479.91 861.459L480.033 861.088L479.539 860.964L479.663 860.47L479.416 860.594L478.921 860.347V860.223L478.674 860.1L478.304 859.606L477.933 859.853L477.686 859.729L476.945 859.606V859.359L476.451 858.988H476.08L476.327 859.606L475.463 860.223L475.339 860.47L474.968 860.347L474.845 860.223L474.227 860.1L473.857 860.347L473.733 860.47L473.362 860.594L473.239 860.841L472.868 860.717L472.621 860.594L472.251 860.841L471.757 861.088L471.386 860.964L471.262 860.594L470.768 860.223L470.398 860.47L469.904 861.212L469.286 861.335L468.792 861.088L468.545 860.717L468.174 860.594L467.803 860.347L466.939 860.223L466.074 860.47L464.098 861.335L463.356 862.2H462.368L461.38 862.323L461.133 862.2L460.762 862.323L460.392 862.817H460.144L460.021 863.065L459.033 862.2H458.539L458.415 861.829L458.168 861.953L457.921 861.706L458.168 861.335H458.415L458.292 860.964L458.044 860.717L457.921 860.47L458.292 860.347L458.168 859.976L457.921 859.729L457.797 860.223L457.55 860.347L457.303 860.223L457.55 859.853L457.303 859.729L457.18 860.1L456.933 859.853L456.809 859.482L456.562 859.359L456.439 859.606L456.068 859.729L455.697 859.482L455.821 859.235L455.45 859.359L455.203 859.111L455.45 858.741L455.327 858.494L455.45 858.37L455.08 858.247L455.203 858L454.462 858.37L454.215 858.247L454.091 858L453.844 858.247L453.474 857.629L453.103 857.506L452.98 858L452.733 857.876L452.485 858.123V858.37L452.115 858.247L451.991 858.123L452.115 858.864L451.868 858.988L451.374 858.617L451.25 858.247L451.003 858.37V858H450.385L450.015 858.247L449.891 857.753L449.521 857.629L448.779 858L448.285 858.37V858.123L448.162 858L447.791 858.247V857.506H448.038L447.791 857.258L447.297 856.888L447.174 856.641L446.926 856.764L447.05 856.023H446.926L446.803 855.653L446.556 855.776L446.309 855.158L446.679 855.035L446.556 854.788H446.185L446.309 854.664L446.062 854.294H445.691V854.541L445.568 854.417L445.444 854.664L445.073 854.417V854.788H444.703V854.664L444.332 854.541L444.579 854.417L444.209 854.17L444.456 853.8L444.085 853.552L444.332 853.429L444.209 853.058L443.591 852.935L443.838 852.564L443.22 852.317V852.07L442.603 851.823L442.973 851.452H442.479L442.356 851.082L442.232 851.329L441.862 851.205L441.985 851.082L441.862 850.588L441.738 850.835L441.368 850.711L441.244 850.835L440.997 850.464L441.368 850.217V849.846L441.12 849.723L440.873 849.352L440.75 849.599L440.626 849.229L440.503 849.476L440.256 849.352V849.105L439.885 848.982L440.132 848.735L440.009 848.488H439.762L440.009 848.241L439.515 847.994L439.638 847.746H439.391L439.515 847.376H439.762L439.638 847.129L439.885 846.758L439.638 846.882V846.635L439.267 846.264L439.144 846.017L439.391 845.523L439.144 845.399L439.267 845.276V844.782L438.773 844.905L438.897 844.658L438.773 844.411H439.144V844.164L439.02 843.67L439.144 843.299H438.773V842.682L438.526 842.435L438.773 841.94L439.02 842.064V841.817L439.391 841.94L439.885 841.199H440.132L440.379 840.829L440.132 840.582L440.256 840.334L440.503 840.087L440.626 839.84L440.997 840.334L441.368 840.087L441.12 839.84V839.593L441.738 839.717L442.232 840.211L442.356 839.84L441.862 839.717L443.22 838.605L443.344 837.74L443.468 837.37L443.838 836.876L443.591 835.764L444.332 834.652V833.787L445.073 833.417L445.815 833.17L446.062 832.428L445.568 831.317L445.938 829.834L446.185 828.599V827.858L446.309 826.746L445.938 825.881L446.185 824.399L446.432 823.287L445.691 821.31L445.197 820.94L444.703 819.705V816.493L444.332 815.999L442.85 813.775L442.356 811.551L441.985 810.069L441.12 809.945L440.503 808.834L440.626 807.598L440.873 804.51L440.256 803.645L440.009 801.051L439.515 799.322L439.391 798.581H438.773L438.156 797.963L437.291 797.222L437.662 795.739L436.797 795.492L435.314 794.504L435.067 793.639L434.944 792.28H433.585L431.608 791.786H429.138L428.891 790.057L428.397 789.068L428.273 787.957L427.038 787.215L426.173 786.474L425.926 785.61L425.802 784.745L425.432 784.127L424.814 783.386L424.567 782.645V781.533L424.196 780.668L422.961 780.174L422.714 779.804L422.961 778.321L422.467 777.951L421.973 777.209L421.849 777.086L421.232 777.209L420.738 776.715L419.502 776.962L418.761 776.592L418.267 775.851L417.896 774.862L417.402 773.874L416.537 772.392L414.808 770.786L414.314 770.539H412.831L412.09 770.292L411.102 769.921L408.631 769.55H408.261L408.014 769.674L406.655 769.18L405.543 768.191L404.802 768.439L403.567 768.315L401.837 768.562L400.478 769.056L400.108 769.303L399.613 769.18L398.502 768.315L397.637 768.068L396.649 766.462L395.908 764.98L395.537 764.486L394.919 764.115L393.931 763.25L392.943 761.768L392.449 760.285L390.596 759.915L389.854 760.038L388.125 759.668L387.013 758.432L385.778 758.309L384.419 757.938L384.79 756.456L385.284 754.356L383.678 753.368L383.554 752.997L382.195 752.503L380.095 753.862L378.489 754.726L376.636 755.838L375.401 757.321L374.166 757.444L371.695 755.962L368.977 754.232L367.371 753.491L365.889 752.503L366.507 749.291L367.371 747.562L369.348 745.461L368.483 744.103L366.754 743.114L363.295 742.126L360.454 741.261L357.859 739.408L358.23 738.667L359.836 735.208L360.33 734.467L360.577 733.479L358.107 733.108L356.377 732.985L356.254 731.626L353.042 731.255L350.324 730.638L348.1 729.649L346.742 729.526L342.665 728.785L342.047 728.538L340.194 728.661L340.318 726.067L339.577 725.943L336.982 726.19L334.759 725.696L333.894 726.561L332.782 726.685L331.794 726.808L331.3 727.92L330.188 730.391L328.459 734.344L327.594 736.814L326.729 737.555L324.382 739.038L324.012 737.555L321.417 734.591L321.047 733.849L320.676 733.232L320.306 732.985L320.058 732.243L315.241 716.431L309.805 713.59L309.435 713.343L309.558 712.849L309.435 712.355L309.682 712.108V711.49L309.805 709.884V709.019L309.558 707.908V707.043L309.311 706.055L309.064 705.19V704.819L308.817 703.831V703.46L308.693 702.966L308.817 701.978L308.57 699.754L308.693 699.384L308.57 698.643V698.519L308.941 698.396L309.064 698.025L308.817 697.654H308.446L308.199 697.407L307.829 696.79L307.705 695.801L307.335 695.307L306.84 695.06L306.593 694.813L306.47 694.072L306.223 693.701L306.099 693.084L306.346 692.59L306.47 692.219V691.725L306.099 691.231L305.976 690.737L306.099 689.995L306.47 689.625V689.378L306.84 688.884L307.458 688.389L307.829 688.142V687.648L308.076 687.154L307.952 686.66L308.199 685.795L309.311 685.054L309.682 684.683L310.176 683.819L310.299 682.954L311.411 681.842L311.164 681.719L310.546 681.595L310.423 681.348L310.052 681.224L309.682 680.977L309.311 680.236V679.372L309.188 678.383L308.693 678.26L308.076 677.889L307.458 677.642L307.088 677.395L306.717 676.901L306.47 676.407V675.542L306.84 674.183H306.964L308.693 673.195L308.817 673.071L309.311 671.96L309.805 671.218L310.052 670.724L311.411 670.107H311.658L312.523 669.736L312.77 668.377L312.894 668.13L312.647 667.883L312.894 667.265L312.647 667.142V666.771L312.77 666.648L313.141 666.03L313.264 666.277L313.511 666.154L313.264 665.783L313.511 665.536L313.635 665.042L314.005 664.795L314.252 664.918H314.5L314.623 664.671L315.241 664.301L316.229 663.93H316.6V663.312H316.97V662.695H317.217L317.341 662.448L317.217 661.583L317.464 661.089L317.588 660.471L316.97 659.977L316.229 659.606L316.105 659.359L316.723 658.124L316.847 658H318.206L318.7 656.641L318.453 656.024L317.958 655.653H317.711L317.588 655.406H317.094L317.217 655.283L316.847 655.159L316.476 654.912V655.036L315.982 654.789L315.735 654.171L315.488 654.047L315.364 653.553V653.183L314.747 652.936L314.252 652.565L314.376 652.071L314.005 651.947L314.252 651.577L314.623 651.453L314.87 651.577L315.611 651.33L315.735 651.083L315.364 650.959L315.735 650.588H315.858V650.218L315.364 649.724V649.353L315.488 648.735H314.994V648.612H314.623L314.252 649.106L313.882 648.982V648.488L314.005 648.118L313.635 647.994L313.511 647.377L313.388 647.13L313.141 647.006V646.759L313.511 646.635V646.018L313.388 646.265L313.264 646.141V645.771H313.511L313.882 645.4H313.635L313.758 645.029L314.005 645.153L313.882 644.535L314.005 643.918L314.252 643.794L314.129 643.547L314.376 643.671L314.5 643.3H314.87L314.623 643.053H314.994L315.241 643.424L315.735 643.176L315.611 643.053H315.364L315.488 642.559H315.735L315.364 642.065L316.229 641.941L316.476 641.571L316.723 641.447L316.6 641.2H317.217L317.094 640.459L317.217 640.088L316.97 639.965L317.217 639.47L316.847 639.223L316.353 639.47V638.976L316.105 638.729L316.229 638.359L315.858 638.482L315.611 638.359L315.982 637.988L315.611 638.112L315.858 637.865L315.735 637.37L316.723 635.641L316.353 635.27L316.105 634.776H316.229L316.6 634.159H316.353V633.912L316.847 633.788L317.094 633.912L317.217 633.788L317.464 633.912L317.341 634.159L317.588 634.035V633.664L317.835 633.417L318.206 633.664V633.294L318.453 633.047L318.576 633.17L318.947 632.923L319.194 632.8L319.441 632.429L319.811 632.553L319.564 632.182L320.058 631.935L320.306 632.059V631.688H320.553L320.429 631.194L320.8 631.317L320.923 630.823L321.417 629.835L321.17 629.711L321.417 629.094H321.788L321.911 628.847L321.664 628.723L321.417 628.353L321.788 628.229L322.035 627.982L322.159 628.229V628.476H322.529L322.653 628.847H322.9L323.023 628.6L323.27 628.723L323.517 628.105L323.888 627.982L324.135 627.364H324.259V627.858L324.629 627.735L324.876 627.488L325.123 627.735L325.37 627.611H325.741L325.247 627.982L325.37 628.353L325.865 628.6L325.741 628.723L325.617 629.217L325.988 629.341L326.482 629.217L326.235 628.97H326.482L326.729 629.341L326.976 628.97L326.606 628.723L326.853 628.476L326.729 627.858L327.1 627.611L327.47 627.982H327.717L328.088 627.611L328.335 626.994L328.088 626.623L327.594 626.747L327.47 626.994L326.853 627.488L326.606 627.364V627.117L326.976 626.747V626.005L327.347 625.388L327.841 625.017V624.029L328.088 623.782L328.582 623.905L329.323 623.782L329.941 624.523L330.312 624.399L330.682 623.658V623.164L331.3 623.041L332.412 623.288L332.782 623.411L332.906 623.782L333.4 623.164L333.647 622.67L333.894 622.299L333.647 621.929L333.771 621.435L335.006 621.064L335.5 620.941L335.624 620.57L335.129 619.952L334.882 619.582L334.512 619.335L334.265 618.964L333.771 618.47V618.223L334.265 618.099L334.512 617.729L334.635 617.235H335.129L335.5 617.482L335.994 617.605L336.982 617.358L337.477 617.482L337.971 617.358L338.712 616.864V616.123L337.971 615.629L337.6 615.011L337.724 614.64L338.218 614.146L338.094 613.776L337.847 612.787L337.971 612.417L338.341 611.923L338.588 611.058L338.959 610.811L339.7 611.058L339.947 610.934L340.071 610.564V610.193L339.947 609.699H339.083L338.959 609.081L338.465 608.587L337.724 608.711L337.477 608.464L337.724 607.599L338.094 607.352L338.341 607.599H338.712L338.959 606.981V606.734L338.588 605.746L338.465 604.634L338.341 604.387L337.724 604.017L336.612 603.893L336.241 603.77L335.624 603.152L335.5 602.905L335.624 602.534V602.164L335.747 601.669L336.118 601.175L336.365 600.928L336.488 600.187L336.735 599.94H337.106L337.23 599.446V599.075L336.982 598.705H336.488L336.241 598.087L335.624 597.469L335.006 597.346L333.771 596.605L333.276 596.728L333.029 596.605L332.535 596.111L332.288 595.616L332.412 595.246V594.628L332.535 594.258L332.906 594.01L333.029 593.516V592.652L333.4 591.91L333.647 591.046L334.018 590.552L334.512 589.934L334.882 589.687V588.946L334.265 588.328H333.647L333.524 588.081V586.599L333.4 586.228L332.906 585.857L332.659 585.734L331.918 585.857H331.794L331.671 585.487L331.794 584.498L331.547 584.128L330.806 583.757H330.312L329.941 583.387L329.694 582.769L329.323 582.151L329.076 582.028H328.212L327.841 582.151L326.606 583.387L326.235 583.634L325.865 584.498L325.37 584.746L324.876 584.498L324.506 584.375L323.888 583.51L323.764 583.016V582.645L323.888 582.028L323.764 581.534V580.545L323.888 579.804L323.517 579.187L323.27 578.816L323.023 578.322L322.159 578.198H321.788L320.676 578.569L320.306 578.94L319.564 580.422L319.317 580.545H319.07L318.823 580.298L318.329 580.175L317.958 579.804V579.434L317.464 578.94L317.341 578.569L317.464 578.075L317.711 577.581L318.453 576.839L319.317 576.592L320.182 576.098L320.306 575.851L320.182 575.234L319.688 574.616L317.094 574.492L316.6 574.369L316.229 574.245L315.982 573.751L315.858 573.257L315.982 572.639L315.611 572.269L315.117 572.145L314.747 571.775L314.623 571.404L314.376 570.91L314.252 570.416L313.758 569.675L313.882 568.933L314.005 568.686L314.129 568.192L313.388 567.204L312.647 566.71L312.276 566.586L312.029 566.216L311.411 565.969L311.164 565.721L310.794 564.61L310.423 564.239L309.682 564.116L309.435 564.239L309.064 564.486L308.941 564.733L308.446 565.104L307.829 564.98L307.335 564.486L307.211 563.621L307.088 562.016L306.717 561.521L306.099 560.657L305.605 560.286L304.864 559.915L304.493 560.039L303.999 560.41L303.258 560.78L302.887 561.398L302.64 561.645L302.393 562.139L302.517 562.633L303.011 563.251L303.258 563.868L303.382 564.61L303.258 565.104L303.629 565.227L303.999 565.474L303.876 565.845L303.505 566.216L303.258 566.71L303.011 566.957L302.64 566.833L302.517 566.586V566.216L302.146 565.845L301.899 565.969L301.776 566.586L301.652 566.71H301.282L300.664 566.216L300.417 565.598L299.923 565.351L299.552 564.733L299.676 563.868V563.374L299.429 563.004L299.552 562.386L299.799 561.768L299.676 561.151L299.429 561.027L299.181 561.151L298.687 561.027L298.44 560.039V559.792L298.193 559.174L297.823 559.051L296.958 557.939L297.328 557.321L296.958 555.962L296.711 555.345L295.97 554.604L295.105 553.862V553.121L294.858 552.874H293.622L293.128 552.627L293.005 552.009V550.898L292.758 550.527L292.264 549.909L292.017 549.168V548.18L291.77 547.562V546.821L292.017 546.45L292.14 545.833V543.733H291.893L292.264 543.362L291.646 542.744V542.497L291.152 541.509L291.028 540.891L291.275 539.78V539.286L290.781 536.321L290.534 536.197H289.669L288.311 536.444L285.469 537.185L284.111 537.556L282.999 538.05L282.01 538.544L279.416 540.15L278.181 540.768L275.957 542.127L274.598 542.868L273.24 543.362L272.251 543.609L271.14 543.733H270.398L268.916 543.609L268.051 543.239L266.075 542.003L265.334 541.509L263.851 541.015L263.11 540.891H262.369L260.763 541.139H258.539L257.922 541.015L256.439 540.644L251.374 538.915L250.88 538.791H246.433L245.568 538.668L243.592 538.421L242.109 537.927H240.751L238.774 538.05L237.539 538.297L236.427 538.544L235.068 538.791L233.586 538.915H230.868L229.386 539.162L228.768 539.286L228.027 539.533L225.556 540.768L223.95 541.139L223.456 541.015L222.221 540.891L220.121 540.521H219.256L218.885 540.768L217.773 541.633L216.168 542.497L215.426 543.239L214.932 544.227L214.562 546.203L214.438 546.574L214.067 547.439L213.82 547.933L213.203 548.55L212.214 549.045L209.991 549.662H207.52L206.408 549.539L205.297 549.168L203.938 548.674L202.085 547.562L201.097 546.821L200.602 546.203L199.861 545.339L199.367 544.35L198.749 542.744L198.379 541.633L198.255 540.891L198.379 540.15L198.626 539.162L199.12 538.297L199.738 536.691L199.861 535.332V533.974L199.738 533.356L199.367 532.862L198.626 532.244L197.761 531.997L195.291 531.503L194.302 531.379L192.82 531.503L190.967 532.121L190.102 532.615L189.114 533.727L188.743 534.468L187.632 535.209H187.261L186.643 535.085L185.779 534.591L184.543 534.221H183.061L181.949 533.974L181.208 533.727L179.355 533.232L178.243 532.738L176.514 531.75L175.649 531.132L174.043 529.897L172.931 529.403L171.202 529.156L169.843 529.032L168.855 528.785L168.113 528.415L167.496 527.797L166.631 526.685L166.013 525.944L165.643 525.326L164.16 523.597L163.543 522.732L162.801 522.238L162.184 521.991L160.948 521.867H160.207L157.86 522.238H157.119L155.76 521.867L153.66 521.003L153.042 520.756L151.436 519.52L150.695 519.15L149.831 518.779L147.607 518.285L147.236 518.161L146.866 517.791L146.619 517.42L146.372 516.926L146.248 516.185V514.579L145.877 513.714L144.889 512.602L144.148 511.985L143.036 510.873L141.801 509.761L141.183 509.267L140.566 508.896L138.96 508.279L138.589 508.032L137.354 506.673L136.613 505.561L135.748 504.696L135.254 504.326L134.76 504.202L132.412 503.708L131.671 503.461L130.807 502.967L130.189 502.72L129.201 502.473L128.336 502.349H126.977L126.112 502.226L125.495 501.855L123.765 500.126L123.147 499.755L122.406 499.261H120.8L118.947 499.384L118.083 499.508L116.971 499.755L116.106 500.373L115.488 500.867L114.13 502.349L112.894 502.967H111.659L110.671 502.473L110.053 501.979L109.559 501.361L109.312 500.743L108.818 499.632L108.571 498.643L108.447 498.396L107.953 497.902L106.1 496.173L104.865 495.184L103.135 493.578L102.394 492.961L102.023 492.467L101.653 491.725L100.912 489.996L99.9234 487.772L99.6763 486.784V485.919L99.1822 484.19L99.0586 483.449L98.8116 483.202L97.8233 482.337L97.0821 481.349L96.588 480.484L95.9703 479.372L95.4762 477.396L94.982 476.284V476.037L93.9938 475.049L92.5114 472.825L92.0173 472.331L91.2761 471.466L90.6584 471.343L90.4113 471.466L90.1643 471.837L89.9172 472.949L89.5466 473.196L88.9289 473.443L87.5701 473.69L86.9524 473.937L86.5818 474.06L85.7171 475.049L84.7288 476.037L84.3582 476.16L83.4935 476.407L82.9994 476.655L82.5053 477.025L81.517 478.384L81.1464 478.755L80.6523 479.372L79.7875 479.99L78.5522 480.731L78.3051 480.978L77.9345 481.966L77.6875 482.337L77.3169 482.955L76.3286 483.696L74.5992 484.314L73.9815 484.684L73.7344 484.931L73.2403 485.302L72.4991 485.672L71.8814 485.302L71.2638 485.425V485.178L71.0167 484.561L71.1403 484.314H71.3873L71.7579 484.066H72.005L72.3756 483.943L72.6226 483.449L72.7462 482.831L72.4991 480.855L72.005 480.113L71.8814 479.743L71.5108 479.249L71.6344 478.755L71.5108 478.631L71.2638 477.643L71.3873 477.396L71.2638 476.902V476.284L71.3873 475.666L71.2638 475.543L71.6344 475.296H72.005L72.1285 475.049L72.4991 474.802L73.858 473.813L73.6109 473.443L73.9815 473.196H73.858L74.105 472.701L73.9815 472.454L74.4756 472.331L74.7227 471.466L74.9698 471.59L75.0933 470.848L75.4639 470.725V470.354L75.711 469.984V469.243L75.8345 469.119L75.4639 468.378L75.5874 467.513L75.3404 467.39L75.0933 466.895V466.648L74.8462 466.401L74.7227 465.907V465.537L74.3521 464.919L74.4756 464.425L74.8462 464.178L74.7227 464.054H74.105L73.858 463.189L73.6109 462.819L73.1168 461.954L72.3756 461.336L72.005 461.089L70.8932 460.595L70.3991 460.225H70.2755L69.9049 460.595H69.1637L68.4225 460.101L68.6696 459.36L68.5461 458.495L67.9284 458.248L68.0519 457.754L68.299 457.63L68.5461 457.878L68.6696 457.63L68.9167 457.754L68.7931 457.383L69.4108 456.889V456.148H69.5343V455.654L70.0285 455.283L70.152 455.407L70.0285 454.789H69.6579L69.5343 454.172L69.1637 454.295V453.801L69.4108 453.677L69.7814 452.813L69.6579 452.689L70.152 452.442H70.3991V451.948H70.5226L70.8932 452.319L71.0167 452.195L71.5108 452.442L71.6344 452.936L72.005 452.813L72.1285 452.689L71.8814 451.948L71.6344 451.577H71.5108L70.152 450.589L69.4108 450.713L69.2873 450.589L69.0402 450.713L68.4225 450.96L67.9284 451.33L67.6813 451.577L67.1872 452.442L67.0637 453.677L66.9401 454.048V454.666L67.1872 454.789L67.3107 455.16L67.0637 456.148L66.6931 457.013L66.3225 457.136H65.5813L65.2107 456.889L64.593 456.766L64.2224 456.889L63.1106 457.383H62.8636L62.74 457.26H62.493L62.1224 457.013H61.5047L60.0223 457.507H59.7753L59.6517 457.63L59.0341 457.878L58.9105 457.26L59.4047 456.766L59.7753 456.025L60.0223 455.901L60.2694 455.16L60.5164 454.789L60.7635 454.172L61.3812 453.183L61.5047 452.566L61.9988 452.072V451.701L62.3694 450.836L62.493 450.713L62.6165 450.219L62.9871 449.23V448.613L63.6048 448.118L63.8518 447.995L63.7283 447.871L64.0989 447.13L64.346 446.389L64.7166 445.771L65.0872 444.783L65.2107 443.548L65.3342 443.301L65.2107 442.56L65.5813 442.436L65.7048 441.571L65.9519 440.954L66.3225 440.707L66.446 440.336L66.9401 440.089V439.718L67.3107 438.854L67.6813 438.359L67.9284 437.742L68.1755 437.618L68.4225 437.001L68.5461 436.259L68.6696 436.136L68.7931 435.642L68.9167 435.518L68.6696 435.395L68.5461 435.024V433.295H68.6696L68.5461 432.924V429.836L68.6696 429.465L68.7931 428.847V428.353L68.5461 427.983L68.7931 427.859V427.365L68.9167 427.241L68.5461 427.118L68.7931 426.994L68.9167 426.253V425.141L69.0402 424.894V424.277L69.1637 423.165L69.0402 422.424V421.559H69.2873L69.0402 420.694L69.2873 420.2L69.1637 420.077L68.9167 419.212V418.718L68.6696 417.977L68.7931 417.482L68.6696 417.235V416.618L68.5461 416.494L68.4225 416V415.382L68.299 414.888L68.4225 414.271L68.299 413.9H68.1755V413.406L67.9284 412.788V412.541L67.8049 412.418L67.5578 411.923L67.0637 411.306L66.8166 410.317L66.446 409.823L66.3225 409.206L66.446 408.712L66.3225 408.217V407.6L65.5813 407.106L66.199 406.859L66.0754 406.364L65.2107 405.5L64.8401 405.376V404.882L64.346 404.635L64.2224 404.882L63.9754 404.635L63.3577 404.264L62.9871 403.77L62.8636 403.276L62.3694 402.288L62.2459 401.423L62.3694 401.3L62.1224 400.682L62.2459 400.435L62.1224 400.064V399.817L61.8753 399.076L61.7518 397.717L61.8753 397.099L61.6282 396.852L61.9988 395.988H61.8753L61.9988 395.494L61.8753 394.752L61.3812 393.394V392.776H61.1341V392.158L60.7635 391.541L61.0106 391.17L60.7635 390.676H60.5164L60.2694 390.058L60.0223 389.935L59.7753 389.44L59.5282 388.699L59.2811 388.576L59.1576 387.958L58.6635 387.34L58.0458 386.599L57.5517 385.734L57.4281 385.364L57.0575 384.746V384.129L56.8105 383.634H56.5634L56.4399 383.264V382.893L56.0693 381.164L55.9457 380.423L55.8222 379.805L55.5751 379.681L55.6987 379.311L55.5751 378.817L55.2045 377.581V376.964L54.9575 376.717L54.8339 375.605V375.358L54.7104 374.617L54.2163 372.887L53.9692 372.393L53.5986 372.022L53.4751 371.775L52.981 371.158L52.6104 370.293V368.687L52.3633 367.946L51.9927 368.069L52.1162 367.822L51.8692 367.081L52.1162 366.958L51.9927 366.34L51.4986 364.981L51.2515 364.116L51.4986 363.993L51.9927 363.869V364.116L52.8574 366.71L52.981 366.587L53.5986 367.699L54.5869 369.181H54.9575L54.4633 368.563L54.9575 368.44L54.5869 367.328L54.3398 367.081L53.5986 364.734L53.228 364.61L52.8574 363.499H52.7339L52.981 364.24L52.4868 364.363L52.2398 363.375V362.881H52.1162L51.9927 363.128L51.6221 360.41H51.375L51.128 358.928L50.8809 357.569H50.6338L50.5103 357.198H50.7574L50.6338 356.457V356.334L50.3868 355.716L50.1397 355.469L49.275 353.492L48.7808 353.74L49.275 353.369L49.1514 353.122H48.9044L48.5338 352.504V352.134L49.0279 351.887L48.9044 351.516L48.6573 351.639L48.5338 351.392L48.2867 351.516L48.1632 351.145H47.9161L48.1632 351.887H48.0397L47.7926 351.022L47.9161 350.898V350.651L48.1632 350.528L47.9161 350.281H47.7926L48.1632 349.91L47.2985 348.798L47.1749 348.922L47.422 349.416L45.8161 346.945L45.0749 346.328L43.9631 345.463L43.8395 345.216L42.9748 344.722L41.4924 343.98L40.8748 343.733L41.3689 343.857L41.616 343.486L41.7395 342.992V342.251L41.4924 340.274L41.3689 338.545L41.2454 336.939L40.8748 334.592L40.5042 333.233L40.1336 331.38L39.8865 330.268L39.6394 329.404L39.2688 328.292L39.0218 326.933L38.8982 325.327L38.6512 324.092L38.5276 322.239L38.4041 320.633V320.015L38.2806 319.397L38.157 316.803L37.91 315.568L37.7864 314.827L37.4158 312.356L37.2923 311.615L37.4158 310.256V308.28L37.2923 307.662L37.0452 306.179V303.709L36.6747 301.115L36.1805 300.003L36.057 299.632L36.4276 298.397V297.903L36.3041 296.297L36.1805 295.679L36.057 294.444L35.8099 293.209V291.479L35.9335 289.997L35.6864 288.514V287.773L36.1805 287.279L36.5511 286.291L37.0452 283.82L37.4158 282.091L37.91 280.608L38.4041 277.643L38.7747 276.285L38.8982 275.42L39.2688 272.455L39.3924 269.737V267.267L39.5159 263.931V260.967L39.3924 259.237L39.2688 258.002L39.0218 256.766V256.519L38.8982 255.408L39.3924 254.419L39.5159 253.678V251.825L39.2688 249.231L38.6512 245.401L38.2806 243.548Z" fill="white"/>
<path fill-rule="evenodd" clip-rule="evenodd" d="M24.9413 476.167L21.4824 475.549L20.3706 475.302L20 475.179L20.6177 474.067L21.3589 472.708L22.2236 470.979L23.0883 469.373L23.4589 468.385L24.0766 467.149L24.9413 465.296L25.559 463.937L26.5472 461.837L27.2884 459.984L27.9061 458.625L28.6473 456.649L29.0179 455.784L29.6355 454.302L30.5003 452.325L30.8709 451.09L31.7356 449.237L32.2297 447.755L33.0945 445.655L33.5886 444.049L34.0827 442.813L34.3298 441.825L34.8239 440.466L35.5651 438.49L35.6886 437.996L36.5534 435.278L37.4181 431.942L38.1593 429.472L38.777 426.631V426.26L39.1476 424.778L39.2711 424.407L39.6417 422.43L39.7652 421.442L40.2593 419.589L40.5064 418.477L41.2476 414.895L41.6182 412.918L41.8653 411.93L42.3594 409.83L42.9771 406.371L43.3477 404.148L43.5947 401.43L43.8418 399.947L43.9653 398.589L44.0889 396.736V396.118L44.4595 391.424L44.7065 388.212V386.853L44.9536 383.518L45.0771 378.823L45.2007 376.6V373.759L45.0771 370.794V368.941L44.8301 364.988L44.7065 362.888V362.147L44.3359 357.699L44.0889 354.611L43.8418 352.017L43.3477 349.052L43.1006 347.323V346.087L42.6065 345.717L41.1241 344.975L40.2593 344.728L41.0005 344.852L42.6065 345.717L43.7183 346.458L44.2124 346.828H44.4595V347.323L44.8301 348.187L45.6948 349.546L45.9418 350.287L46.5595 351.276L47.5478 353.376L47.6713 353.87L47.9184 354.117L48.7831 355.846L49.6478 357.823L49.7714 358.193L49.6478 358.317L49.7714 358.935H49.8949V360.046L49.6478 361.035V361.652L49.5243 361.776L49.2772 362.517L49.0302 364.123L48.9066 365.482L49.0302 366.1H49.1537L49.2772 366.964V369.806H49.4008L49.2772 370.547L49.5243 371.041V372.523L49.6478 372.647V374.253L49.5243 374.623L49.6478 374.994V375.488L49.5243 376.106V376.476L49.6478 376.6L49.7714 377.341L50.0184 377.465L50.142 378.206L50.0184 379.194L49.8949 379.688L49.7714 380.8L49.1537 381.788V383.024L49.2772 383.394L49.4008 384.135L49.6478 384.629L49.2772 385.494L49.1537 385.618L48.9066 386.359V387.347L48.7831 388.212L48.9066 388.459L49.1537 388.706L49.2772 389.2L49.0302 390.065L48.9066 390.312V391.177L48.7831 392.536V393.03L48.9066 393.4L48.6596 394.265V394.759L49.0302 395.747H48.536V396.118H48.9066L48.7831 396.612L48.4125 396.983L48.536 397.23L48.289 397.847L48.1654 398.094L47.7948 398.959H47.9184L47.6713 399.206L47.4242 399.577V400.195L47.1772 400.689L47.3007 400.936V401.553L47.4242 401.677L47.3007 402.295L47.4242 402.665H47.1772L46.9301 403.901V404.642L46.683 405.259L46.8066 406.618L47.4242 407.236L46.8066 408.348L46.5595 409.583V410.448L46.3124 411.436V412.177L46.5595 412.671V413.413L46.683 414.03L47.0536 414.277L47.1772 414.895L45.8183 416.624L45.3242 417.983V418.354L44.9536 419.713L44.7065 420.577L44.8301 421.195L44.7065 422.06L44.583 422.43L44.2124 422.925L43.8418 423.913L43.9653 424.407L43.8418 424.778V425.642L43.5947 426.136L43.1006 426.878L42.9771 427.125L43.1006 427.866V428.236L42.9771 428.607L42.4829 428.978V429.348L43.1006 429.966L43.4712 430.213L45.5713 432.931V433.672L45.9418 434.537L45.0771 435.278L44.583 435.525L44.4595 435.772L43.9653 436.143L43.8418 436.39L43.3477 436.76L42.8535 437.007L41.9888 437.748H41.8653L41.7417 438.243L41.9888 438.613L42.2359 438.366L42.4829 439.107L43.2241 439.725L43.1006 440.096H42.8535L42.4829 440.59L42.2359 440.713L42.1123 441.084L41.8653 441.207L41.1241 441.949H41.2476L40.7535 442.196L40.1358 442.937L39.7652 443.678L39.8888 444.296L40.1358 444.543L40.6299 444.666L40.7535 445.037L40.3829 445.655L39.3946 446.89L39.2711 447.631L38.9005 448.002L38.777 448.372L38.4064 448.619L37.0475 449.978L36.6769 450.719L36.8004 451.09L36.6769 452.325L36.4298 453.066L36.5534 453.437L37.4181 454.549L37.5416 455.043L37.4181 455.661L37.171 456.031L36.3063 458.008V459.12L36.5534 459.984L36.8004 460.231L37.171 460.478V460.602L36.1828 461.59H36.0592L35.318 462.208L34.8239 462.455L34.5768 462.702L34.2062 462.826L33.9592 463.073L33.4651 463.32L31.9827 463.69L31.4885 463.937L31.1179 464.432L30.1297 465.543L29.2649 466.655L28.8943 467.52V467.89L29.0179 468.014L28.8943 468.755L29.2649 468.879H29.0179L28.5238 469.373L27.5355 469.867L27.2884 470.485L27.1649 470.979L27.7826 472.585L27.659 472.955L26.3002 473.696L25.6825 474.191L25.4354 474.561V475.179L24.9413 476.167Z" fill="white"/>
<circle id="396" cx="740" cy="641" fill="#5CE50D"/>
<circle id="399" cx="403" cy="255" fill="#E52A0D"/>
<circle id="398" cx="55" cy="363" fill="#E52A0D"/>
<circle id="397" cx="500" cy="581" fill="#E52A0D"/>
</svg>
