<svg width="1000" height="1000" viewBox="0 0 1000 1000" fill="none" xmlns="http://www.w3.org/2000/svg">
<path d="M396.638 15.8275C389.883 18.206 387.694 18.5866 377.895 18.5866C365.717 18.5866 362.387 19.3477 359.437 22.9631C357.344 25.4368 357.439 27.7201 360.103 39.5176C361.055 43.5135 360.96 43.8941 358.676 45.7018C354.966 48.6511 353.063 58.9264 354.871 66.0619C356.869 73.6732 356.203 75.3857 349.923 78.24C345.927 80.0477 341.932 80.9039 333.94 81.5699C315.197 83.0921 314.436 83.4727 305.968 91.3694C301.877 95.1751 297.786 99.7418 296.93 101.549C295.122 105.07 289.604 134.659 289.604 140.843C289.604 144.458 289.223 145.124 286.084 147.217C284.086 148.549 280.946 150.071 279.138 150.737C277.236 151.308 273.525 154.067 270.861 156.826C267.056 160.727 265.819 162.82 264.867 166.721C263.44 172.81 264.201 175.379 269.624 182.99C271.717 186.035 273.43 188.984 273.43 189.65C273.43 190.316 271.147 195.263 268.292 200.591C265.438 205.919 262.679 211.818 262.108 213.721C261.347 216.194 260.11 217.526 257.446 218.763C255.544 219.715 250.311 222.759 245.839 225.613C237.086 231.132 232.519 236.364 232.519 241.026C232.519 245.593 234.993 252.253 238.989 258.627C241.082 261.957 243.461 266.809 244.222 269.378C245.459 273.564 245.459 274.421 243.936 277.941C242.129 282.222 237.657 285.933 234.517 285.933C230.997 285.933 222.244 289.738 220.912 291.927C220.151 293.068 219.009 296.113 218.343 298.777C217.677 301.346 216.536 304.295 215.679 305.151C214.347 306.578 213.967 306.483 210.161 303.819C205.499 300.489 201.123 300.109 196.461 302.582C193.036 304.295 192.75 305.056 191.609 316.949C190.657 326.748 189.896 330.173 187.518 334.93C186.757 336.453 185.425 343.398 184.473 350.248L182.856 362.616L178.384 365.375C176.006 366.898 170.012 372.226 165.16 377.268C157.643 384.974 156.407 386.687 156.882 388.685C157.643 391.634 160.022 393.537 165.73 395.535C180.097 400.673 191.989 415.99 187.708 423.982C186.091 427.217 185.044 427.693 179.621 427.693C175.72 427.693 174.388 428.168 172.581 430.071C170.392 432.45 170.297 433.021 170.583 443.676C171.249 464.037 171.344 463.561 167.728 467.271C164.494 470.601 164.494 470.696 164.589 478.879C164.684 483.445 165.16 488.393 165.826 489.82C166.396 491.342 166.872 496.385 166.872 501.142C166.872 505.899 167.348 512.559 167.919 515.793C168.87 521.121 169.346 521.977 172.2 523.69C176.101 525.973 181.809 525.688 188.945 522.739C197.793 519.123 201.123 521.026 201.123 529.684C201.123 535.963 202.55 540.625 205.024 541.862C205.975 542.433 208.639 545.763 211.018 549.283C213.301 552.803 216.536 557.465 218.058 559.653C219.675 562.032 221.293 566.028 221.959 569.548C223.005 574.495 223.862 576.208 227.001 579.347L230.807 583.153L230.141 593.238C229.38 605.416 229.285 618.831 229.951 619.497C230.141 619.782 234.232 620.258 238.894 620.543C245.554 620.924 248.503 620.734 252.404 619.402L257.446 617.784L264.296 621.209C270.861 624.539 271.242 624.92 273.715 630.628C276.57 637.193 277.045 644.138 275.143 650.513C274.096 653.938 272.383 655.936 268.197 658.41C266.39 659.551 264.011 669.446 263.916 676.581C263.916 680.673 264.392 681.909 267.246 685.239C269.72 688.189 271.717 689.426 275.238 690.282C280.185 691.423 294.171 699.13 294.837 701.033C297.025 706.931 298.928 735.283 297.596 740.516C297.215 741.943 294.076 744.322 288.272 747.747C276.379 754.787 275.618 755.834 273.811 766.014C272.669 772.769 272.003 774.767 270.29 775.814C269.149 776.575 265.628 779.905 262.489 783.139C259.349 786.374 254.782 789.99 252.214 791.131C246.791 793.7 246.505 794.081 247.266 798.076C247.742 800.74 248.884 801.787 254.212 805.022C257.732 807.02 262.869 809.779 265.628 811.111C270.481 813.299 270.671 813.584 270.195 816.248C269.434 819.864 269.339 819.959 264.677 820.53C261.347 821.005 260.205 821.767 258.112 824.811C256.78 826.809 254.021 829.378 252.118 830.329C249.359 831.756 248.027 833.469 245.839 838.131C243.365 843.839 242.795 844.315 236.04 848.026C229.285 851.736 228.809 852.307 225.955 858.206C221.768 867.244 222.434 870.859 230.046 880.754C233.281 884.94 238.228 891.41 241.082 895.215C254.782 913.292 256.019 914.529 263.726 917.288C267.626 918.715 274.952 920.808 279.995 921.95C288.367 923.853 289.509 923.853 293.79 922.616C297.31 921.569 302.353 921.379 314.721 921.665L331.085 922.045L335.462 925.09C338.982 927.468 340.885 928.134 344.595 928.134C348.877 928.134 349.828 928.515 354.205 932.511L359.057 936.887L358.867 953.251C358.771 964.383 359.152 971.614 360.103 976.18C361.34 982.46 361.626 982.935 364.956 984.553C368.286 986.17 368.856 986.17 373.709 984.838C381.034 982.65 385.982 982.84 388.17 985.314C389.692 987.026 390.739 987.217 394.259 986.836C396.638 986.551 400.538 985.219 402.822 983.887C408.245 980.842 410.433 980.747 413.287 983.792C415.475 986.075 419.376 986.931 421.374 985.409C421.945 985.029 424.419 981.603 426.988 977.893L431.554 970.948H439.832C447.348 970.948 448.489 971.233 452.39 973.707C454.769 975.229 458.003 978.464 459.811 981.318C462.57 985.504 463.331 986.17 465.995 986.17C467.708 986.17 469.896 985.599 470.848 984.838C472.465 983.697 472.56 983.221 471.513 981.033C469.23 975.99 470.562 966.095 474.082 962.004C475.319 960.577 476.461 960.387 481.028 960.863L486.451 961.434L488.353 956.106C489.495 953.251 490.351 950.112 490.351 949.255C490.351 948.304 491.493 946.211 493.015 944.498C495.299 941.644 496.821 941.073 507.952 938.409C514.803 936.792 520.511 935.27 520.797 935.079C521.082 934.794 521.177 931.369 521.082 927.278C520.892 922.521 521.272 919.381 522.033 918.24C523.936 915.576 529.454 914.814 553.144 913.863C572.743 913.102 576.454 912.626 583.114 910.533C592.247 907.679 594.531 907.584 600.429 909.962C602.903 910.914 606.614 911.96 608.612 912.341C610.514 912.721 612.132 913.482 612.132 913.958C612.132 914.529 614.891 917.859 618.316 921.379C622.978 926.231 624.5 928.515 624.5 930.608C624.5 932.13 625.356 935.27 626.403 937.553C627.45 939.836 628.306 942.5 628.306 943.547C628.306 946.496 632.968 951.919 635.536 951.919C636.868 951.919 640.294 952.776 643.338 953.917C647.239 955.344 650.759 955.915 655.992 955.82L663.318 955.63L667.314 960.672C669.502 963.431 671.785 966.761 672.356 967.998C673.307 969.996 673.878 970.091 677.779 969.616C681.68 969.14 682.441 969.33 686.247 972.375C689.291 974.848 691.004 975.514 692.621 975.134C694.334 974.658 695.666 975.229 697.949 977.512C701.564 981.033 704.609 982.079 708.129 980.842C711.554 979.605 711.744 976.561 708.605 972.946C706.226 970.091 706.131 969.521 706.702 963.051C708.7 939.456 708.605 935.936 705.465 923.853C703.943 917.574 701.469 909.296 700.137 905.396C697.664 897.879 696.998 887.509 698.615 880.469C699.091 878.566 702.135 873.428 705.465 869.052C712.886 859.347 714.884 855.447 714.884 851.165C714.884 848.311 713.933 846.979 707.273 840.604C700.137 833.754 699.661 833.088 699.661 829.378C699.661 825.001 702.135 821.862 706.321 821.005C712.315 819.769 712.981 819.008 712.981 814.06C712.981 811.206 712.506 809.018 711.554 808.257C710.032 807.02 710.317 803.5 712.601 797.22C713.838 793.7 714.408 793.224 719.451 791.797C722.4 790.941 726.396 789.99 728.204 789.704C733.151 788.753 735.53 786.85 739.335 780.856C741.238 777.907 744.188 773.53 745.995 771.247C747.708 768.963 749.611 765.348 750.181 763.16C752.274 755.644 755.985 746.986 758.554 743.561C763.501 737.377 766.546 730.146 767.021 723.486C767.402 717.397 767.402 717.207 764.357 714.638C762.645 713.211 759.981 711.784 758.554 711.498C752.94 710.357 754.272 702.174 760.837 697.417C763.025 695.8 769.971 689.616 776.25 683.622C786.906 673.442 793.375 668.209 800.13 664.118C801.653 663.262 806.315 657.934 810.406 652.416C818.778 641.189 820.11 637.003 817.256 630.914C816.399 629.106 815.733 626.157 815.733 624.254C815.733 620.353 816.685 620.068 822.108 622.256C826.77 624.254 827.15 624.064 827.15 620.829C827.15 618.736 826.009 616.643 823.059 613.408C815.258 604.94 814.687 603.608 815.353 596.568C815.924 590.859 816.209 590.193 819.159 588.481C820.871 587.339 824.486 584.104 827.15 581.155C831.622 576.303 832.003 575.447 831.527 572.402C831.241 570.499 830.195 568.406 829.148 567.55C826.294 565.362 825.343 560.129 826.96 556.133C827.911 553.755 828.102 551.091 827.721 546.429C826.865 538.627 827.721 536.915 833.239 534.821C841.041 531.872 844.942 522.834 842.468 513.605C841.136 508.848 840.565 508.372 836.855 509.133C834.667 509.609 833.81 510.37 833.335 512.368C833.049 513.795 831.527 516.174 830.005 517.601C826.484 520.931 823.059 520.265 820.395 515.793C817.541 510.846 811.928 507.611 806.315 507.611C802.128 507.611 801.653 507.326 801.082 505.233C800.416 502.664 798.703 501.522 794.232 500.571C791.473 500 790.902 500.285 788.523 503.71C786.811 505.994 783.956 508.372 781.292 509.609C777.392 511.417 775.869 511.607 769.495 511.036C763.311 510.561 760.932 509.799 754.463 506.279C750.181 504.091 744.473 501.617 741.714 500.951C737.432 500 736.005 498.953 731.724 494.101C728.965 491.057 724.779 487.251 722.305 485.634C717.929 482.779 716.692 480.877 713.457 472.219C712.41 469.269 710.412 466.51 707.844 464.512C702.135 459.85 700.328 459.089 694.904 459.089C690.813 459.089 689.196 459.66 684.82 462.609C681.965 464.607 679.396 466.986 679.111 467.937C677.969 471.362 674.735 472.504 669.407 471.362C666.648 470.792 664.269 470.031 663.984 469.555C663.698 469.079 663.032 463.941 662.461 458.138C661.795 451.573 660.273 443.962 658.37 437.968C655.136 427.503 655.231 427.693 647.144 426.266C645.146 425.98 642.957 425.124 642.196 424.268C640.008 422.079 627.735 417.227 620.79 415.8C614.891 414.563 614.13 414.088 608.802 408.379C590.249 388.59 585.587 380.883 584.826 368.61C584.256 360.714 584.256 360.523 579.689 355.291C575.312 350.248 575.122 349.772 576.073 346.918C576.644 345.301 577.976 343.493 579.023 342.922C581.306 341.685 580.735 339.402 576.835 333.789C575.312 331.6 573.79 328.556 573.505 326.938C573.124 325.226 572.458 323.704 571.887 323.323C571.411 323.038 567.511 322.847 563.229 322.943C554.191 323.133 550.671 321.991 544.867 316.568C541.632 313.619 540.776 312.096 540.776 309.718C540.776 307.339 539.825 305.627 536.59 302.392C532.879 298.682 532.118 297.159 530.691 291.07C529.454 285.457 529.359 283.745 530.311 282.603C532.404 280.129 527.837 272.613 522.699 270.044C520.321 268.903 517.467 267.856 516.23 267.856C514.232 267.856 511.473 265.287 506.335 258.722C504.052 255.868 504.623 251.682 507.286 251.682C509.76 251.682 516.23 245.403 515.849 243.5C515.659 242.644 514.707 241.407 513.661 240.836C512.614 240.265 511.473 239.314 511.092 238.838C509.855 237.221 510.236 232.559 511.948 229.8L513.471 227.04L507.952 219.619C501.673 211.342 499.961 207.441 499.866 201.257C499.866 198.879 499.2 194.502 498.534 191.363C497.392 186.606 497.392 185.274 498.629 181.658C501.388 173.476 498.819 169.1 492.825 172.049C489.781 173.476 489.305 173.476 487.973 172.144C486.26 170.336 486.26 170.812 488.068 163.201C488.829 159.776 491.017 154.353 492.825 151.023C495.394 146.171 495.87 144.648 495.108 143.126C494.347 141.699 494.538 140.272 496.06 136.942C497.106 134.373 497.963 130.472 497.963 127.713C497.963 123.812 498.438 122.385 500.436 120.292C503.957 116.677 505.574 108.685 505.574 95.0799C505.574 81.5699 505.384 81.1893 495.299 74.0538C491.779 71.5801 488.734 69.487 488.544 69.3919C488.353 69.2016 489.59 66.9182 491.208 64.3494C494.252 59.5923 494.347 59.4972 493.681 50.7443C492.825 38.6614 491.208 34.4751 485.88 30.7646C481.694 28.0055 480.932 27.8153 470.372 27.3396L459.24 26.8639L457.242 29.5278C456.101 30.9549 454.959 33.5237 454.578 35.3314C453.532 41.0398 450.678 42.3718 439.356 42.3718C429.842 42.3718 429.366 42.2767 423.848 39.0419C420.708 37.1391 417.854 35.3314 417.569 34.8557C417.283 34.38 416.712 30.0987 416.237 25.2464C415.571 19.3477 414.714 15.9227 413.668 14.6858C411.384 12.117 405.866 12.4976 396.638 15.8275Z" fill="white"/>
<circle id="400" cx="500" cy="803" fill="#5CE50D"/>
<circle id="1393" cx="414" cy="208" fill="#E52A0D"/>
<circle cx="322" cy="530" fill="#E52A0D"/>
<circle id="401" cx="365" cy="914" fill="#E52A0D"/>
</svg>
