<svg width="1000" height="1000" viewBox="0 0 1000 1000" fill="none" xmlns="http://www.w3.org/2000/svg">
<path d="M580.208 215.434C579.452 216.852 579.83 217.891 582.004 220.443C585.407 224.413 585.88 230.557 583.044 234.149L581.248 236.417L578.318 231.691C576.711 229.139 575.104 225.264 574.821 223.185C573.497 215.056 568.582 212.787 559.603 216.19C555.822 217.702 555.538 218.08 553.175 225.17L550.623 232.637H544.291C538.903 232.637 537.012 233.109 532.381 235.661C527.844 238.119 526.426 238.497 524.441 237.646C523.023 237.174 520.377 236.89 518.392 237.174C515.367 237.552 514.233 238.402 511.019 242.656C507.522 247.287 506.955 247.571 504.781 246.72C502.796 245.964 501.945 246.153 500.055 247.854L497.881 250.028L495.14 247.382L492.399 244.83L485.026 248.422C477.748 251.919 477.559 252.108 476.803 256.267C475.669 261.938 473.873 264.017 470.754 262.789C469.525 262.316 467.256 261.938 465.744 261.938C463.192 261.938 463.097 262.127 462.625 267.798C460.923 288.593 461.869 306.079 465.46 320.635C466.973 326.496 466.973 327.063 465.46 329.331C463.475 332.356 463.286 340.579 465.177 345.683C465.838 347.763 466.689 353.434 467.067 358.349C467.445 363.264 468.391 369.124 469.147 371.393C469.997 373.945 470.47 379.427 470.47 386.516C470.47 394.834 470.848 398.142 471.888 399.56C472.644 400.505 473.306 403.435 473.306 406.082C473.306 412.982 468.485 420.543 455.725 433.493C444.477 444.93 435.214 452.113 425.573 456.839C420.469 459.391 419.334 460.337 418.862 462.794C417.822 467.709 412.529 471.112 399.58 475.365C386.914 479.43 371.223 481.982 365.174 480.848C362.055 480.28 361.11 479.335 357.234 473.191C352.414 465.63 348.917 463.267 340.221 461.943C334.833 461.187 329.918 458.541 326.043 454.571C323.491 451.83 322.545 449.656 320.56 440.96C319.237 435.289 317.252 428.105 316.212 424.986C315.267 421.867 313.944 416.29 313.471 412.698C312.904 408.917 311.297 403.435 309.596 399.938C307.611 395.779 306.76 392.565 306.855 389.919C307.044 386.043 306.949 385.949 302.507 384.437C300.049 383.586 294.945 380.939 291.164 378.387C285.021 374.512 283.319 372.622 276.23 362.602C270.937 354.946 266.684 350.031 263.375 347.479C255.341 341.43 245.889 332.167 242.865 327.346C241.352 324.889 239.367 320.635 238.422 317.894C236.91 313.168 236.91 312.223 238.328 304.472C239.178 299.935 239.84 295.02 239.84 293.602V291.05L234.452 291.712C227.836 292.563 218.195 296.249 208.081 302.015C203.922 304.378 195.793 308.442 190.028 310.994C184.262 313.641 175.566 317.894 170.651 320.541L161.671 325.267H151.558C141.822 325.267 141.066 325.456 132.086 329.142L122.823 333.017L121.311 339.161C118.381 350.787 111.386 363.359 105.904 367.045C104.486 367.896 101.084 372.905 98.059 378.387C95.1289 383.775 90.781 390.77 88.4179 394.078L84.07 400.032L83.4084 421.205C83.0303 432.831 82.9358 443.039 83.2193 443.796C83.5029 444.552 82.5577 449.75 81.0453 455.422L78.3988 465.63L70.3645 473.191C66.0166 477.35 61.7632 481.887 60.9125 483.305C59.9673 484.723 54.2015 490.016 48.0577 494.931C41.8193 499.941 36.1481 505.045 35.2974 506.274C34.0686 508.069 33.7851 511.189 33.7851 521.113C33.7851 537.465 30.5714 554.857 26.0344 563.648L22.9152 569.602L22.8207 584.726C22.6316 598.431 22.4426 600.511 20.0796 607.411C17.7166 614.5 17.5275 615.634 18.1892 625.369C18.6618 633.593 18.4727 636.617 17.3385 639.926C15.1645 645.975 15.4481 649.283 19.607 662.989C21.5919 669.889 23.5769 678.301 23.9549 681.704C24.333 685.201 24.9001 688.509 25.2782 689.076C25.7508 689.832 27.6412 689.643 31.9892 688.226C35.2974 687.186 39.3618 686.335 40.9686 686.335C44.5604 686.335 48.6248 682.365 49.9481 677.261C50.8933 673.953 50.7988 673.48 48.5303 671.685L46.0727 669.7L50.9878 667.526C54.5796 666.013 57.1316 664.028 59.7782 660.531C62.7084 656.845 65.2604 654.86 70.9316 652.119C74.9015 650.134 78.2097 648.149 78.2097 647.676C78.2097 647.298 79.9111 644.935 82.0851 642.478C85.2042 638.98 86.5275 638.13 88.9851 638.13C91.159 638.13 92.8604 637.279 95.1289 634.916C99.0988 630.852 101.084 630.379 109.023 631.419L115.262 632.364L120.177 628.772C128.117 622.817 130.196 622.061 138.986 622.061H147.021L149.951 618.469C156.189 610.813 155.906 611.002 165.925 610.53C174.81 610.152 175.282 610.246 179.63 612.893C184.262 615.728 189.744 616.579 202.977 616.39C205.34 616.39 211.578 616.674 216.966 616.957L226.701 617.524L231.995 622.061C238.044 627.165 244.566 629.717 246.929 627.732C248.347 626.504 265.455 626.787 268.291 628.111C269.425 628.583 270.748 627.26 273.867 621.872C276.136 618.091 277.932 614.878 278.026 614.783C278.121 614.783 279.633 614.405 281.523 614.027L284.832 613.365L286.533 621.211C288.518 630.474 291.732 635.767 296.174 637.185C299.104 638.224 299.86 637.941 305.059 634.822C308.178 632.931 311.392 630.19 312.054 628.772C313.377 626.315 314.038 626.126 323.585 624.991L333.699 623.857L338.992 627.071C351.28 634.538 357.234 635.2 366.97 630.19C372.547 627.354 374.532 626.787 379.73 626.787C387.386 626.787 388.615 627.543 387.764 631.324C387.103 634.443 388.615 636.239 390.411 634.443C391.923 632.931 399.58 633.215 402.415 634.822C403.738 635.578 407.141 636.239 409.977 636.239C414.136 636.239 416.026 636.806 419.334 639.075C421.603 640.682 423.966 641.911 424.533 641.911C425.195 641.911 426.423 643.139 427.274 644.746C428.219 646.259 430.488 648.716 432.378 650.134L435.686 652.686L440.129 650.985C442.492 650.039 447.029 648.527 450.148 647.487C453.173 646.448 456.481 644.935 457.426 644.085C458.938 642.761 459.317 642.856 461.963 645.124C463.948 646.731 466.028 647.582 468.391 647.582C470.47 647.582 472.549 648.338 473.778 649.472L475.858 651.363L479.544 649.472C481.529 648.432 485.026 647.109 487.2 646.637C492.304 645.408 496.936 641.533 496.936 638.508C496.936 636.996 497.692 635.861 499.204 635.2C501 634.349 501.567 633.215 502.134 629.056C502.796 623.857 502.796 623.763 508.751 622.534C510.547 622.25 512.154 621.022 513.099 619.32C514.422 617.146 515.462 616.579 519.621 616.012C522.362 615.634 525.481 614.689 526.615 613.932C527.655 613.176 529.451 612.609 530.585 612.609C532.759 612.609 533.799 611.002 533.799 607.789C533.799 605.898 533.893 605.898 536.634 607.505C538.525 608.639 540.037 610.908 541.455 614.405C542.589 617.335 544.291 620.927 545.236 622.534C546.181 624.046 547.221 628.111 547.504 631.513C548.166 637.185 548.544 638.035 552.797 642.383C557.429 647.109 560.264 653.064 561.682 661.004C562.249 664.028 562.911 664.69 567.637 666.769C575.86 670.361 576.995 670.55 578.129 668.66C580.586 664.406 580.681 664.312 583.044 665.541C584.273 666.202 587.297 668.66 589.755 670.928C594.197 674.993 594.386 675.087 599.112 674.426C602.515 673.953 606.012 674.331 610.927 675.56L617.922 677.261L623.499 671.874L627.374 675.276C631.533 679.152 633.896 679.53 639 677.356C640.891 676.6 642.592 675.938 642.875 675.938C643.065 675.938 643.537 678.585 643.915 681.798C644.86 689.454 646.467 691.817 652.895 694.559C656.392 696.165 660.74 699.474 666.128 704.672C672.271 710.627 676.241 713.557 682.858 716.96C687.867 719.417 692.121 722.253 692.688 723.482C696.847 731.611 700.722 735.675 708.756 740.306C716.885 745.032 717.074 745.127 718.114 749.948C718.775 752.689 720.76 757.415 722.462 760.628C724.919 765.071 726.526 766.772 729.362 768.096C733.804 770.08 737.49 773.672 738.908 777.453C739.854 779.911 740.137 780.1 743.54 779.532C747.415 778.965 751.291 780.194 756.3 783.597C757.907 784.637 760.743 785.771 762.822 786.149C766.036 786.622 767.643 786.149 774.543 782.652L782.482 778.493L785.507 780.194C787.208 781.234 789.571 782.652 790.989 783.408C793.258 784.731 793.541 784.637 796.66 781.612C798.456 779.911 801.386 777.453 803.088 776.13C805.64 774.239 806.396 772.727 807.152 768.663C807.908 764.126 808.854 762.613 814.808 756.186C820.952 749.475 821.897 748.719 825.206 748.719C829.364 748.719 832.956 747.017 836.17 743.615C840.234 739.267 843.07 740.212 853.278 749.191L862.258 757.037L868.118 752.878L873.978 748.624L878.988 751.271C883.336 753.539 885.321 753.917 894.489 754.201L904.981 754.579L906.588 750.704C907.438 748.341 908.1 744.087 908.1 739.928C908.1 732.461 911.503 717.716 914.244 713.085C916.512 709.209 918.781 707.98 924.736 707.413C929.651 706.846 929.84 706.752 929.84 704.011C929.84 702.026 930.785 700.135 932.675 698.15C935.511 695.22 935.511 695.22 933.621 693.424C931.258 691.25 931.163 690.116 933.432 690.116C934.377 690.116 936.173 689.076 937.401 687.753C938.63 686.43 940.332 685.39 941.182 685.39C942.128 685.39 944.869 682.46 947.61 678.49C953.186 670.456 953.659 669.983 958.48 668.282C960.37 667.62 961.977 666.486 961.977 665.919C961.977 665.257 963.3 664.501 964.812 664.123C966.419 663.745 967.648 662.894 967.648 662.138C967.648 661.476 969.066 660.153 970.767 659.302C975.966 656.656 977.951 654.198 979.085 648.811C980.125 644.368 980.03 643.517 978.707 642.194C977.384 640.776 977.478 640.209 980.597 634.443L984 628.205L978.612 617.619C973.036 606.371 971.901 600.605 974.359 595.217C975.399 593.138 975.021 592.382 971.145 587.845C968.877 585.104 966.608 581.512 966.325 579.811C965.947 578.204 964.623 575.746 963.3 574.328C960.464 571.209 960.464 570.264 963.395 566.294C964.718 564.498 965.758 562.324 965.758 561.474C965.758 558.827 960.748 555.897 956.4 555.897C952.997 555.897 952.241 555.519 950.162 552.305C948.838 550.226 947.326 546.35 946.948 543.515C946.475 540.679 945.625 537.182 945.058 535.669C943.356 531.416 938.536 525.272 935.511 523.382C931.825 521.208 931.919 519.034 936.078 510.243C938.158 505.896 939.292 502.115 939.103 500.413C938.819 498.05 938.441 497.767 935.795 498.05C933.243 498.239 932.014 497.483 928.422 493.891C925.964 491.528 922.751 487.559 921.238 485.006C919.726 482.549 917.836 480.186 917.08 479.902C914.622 478.957 910.747 469.978 911.314 466.575C911.975 463.078 911.219 460.431 909.518 460.431C907.344 460.431 905.075 456.934 906.021 455.043C906.588 454.098 907.533 451.546 908.195 449.372C909.234 445.686 909.14 445.024 906.966 440.771C904.792 436.612 904.697 436.045 906.115 435.194C907.344 434.438 907.438 433.965 906.399 432.737C905.264 431.413 905.832 430.846 910.652 428.389L916.229 425.648L917.458 417.708C918.119 413.36 919.537 406.365 920.577 402.206L922.562 394.456L920.671 389.919C918.875 385.76 918.214 385.193 914.527 384.248C911.03 383.397 910.18 382.735 908.289 379.049C906.493 375.552 905.264 374.512 900.255 372.243C897.041 370.826 892.693 367.99 890.614 365.911C887.117 362.602 884.848 361.563 874.356 358.727C872.371 358.254 872.938 352.678 875.49 346.534C878.61 338.878 878.61 335.38 875.301 333.301C872.938 331.694 872.56 331.694 867.74 333.206C864.999 334.057 860.745 334.813 858.288 334.719C855.736 334.624 852.333 334.908 850.632 335.286C848.174 335.759 846.756 335.38 843.732 333.396C840.99 331.505 837.966 330.654 832.673 329.993C824.166 329.048 822.559 328.575 818.778 325.739C817.171 324.605 814.525 323.282 812.918 322.998C811.217 322.62 809.043 321.297 808.097 320.068C806.49 318.083 806.207 317.989 803.371 319.217C799.401 320.824 795.054 319.407 794.297 316.193C793.352 312.412 791.651 313.263 787.586 319.785C784.373 324.889 782.01 326.212 776.338 326.212C772.936 326.212 771.234 326.968 766.319 330.654C761.877 333.963 760.081 336.042 759.514 338.216C758.852 340.674 758.19 341.335 756.3 341.335C754.788 341.335 753.748 340.674 753.181 339.256C752.425 337.271 752.425 337.271 750.629 339.161C749.684 340.201 748.36 341.808 747.888 342.753C746.186 345.683 741.838 342.753 739.854 337.271C738.908 334.719 737.68 332.167 737.112 331.505C736.545 330.843 733.237 329.993 729.74 329.709C725.392 329.237 722.462 328.386 720.099 326.779C718.208 325.55 715.467 323.943 713.86 323.282C712.254 322.526 710.363 320.446 709.418 318.65C708.567 316.854 706.488 312.506 704.881 309.104C703.274 305.606 699.682 299.935 696.941 296.343L691.932 289.822L676.43 286.23L677.092 279.991C677.375 276.589 678.321 273.091 678.982 272.241C680.4 270.728 680.589 266.853 679.549 263.072L678.888 260.898L675.674 263.356C667.545 269.311 649.964 263.639 648.169 254.471C647.507 250.974 641.552 249.556 637.582 251.824C634.841 253.431 634.841 253.337 628.603 249.178C624.917 246.815 621.892 243.885 621.23 242.372C620.285 240.104 618.962 239.348 612.818 237.552C605.823 235.567 605.445 235.283 603.838 231.408C602.704 228.761 600.341 226.02 597.033 223.468C594.197 221.294 590.7 218.269 589.188 216.663C585.974 213.26 581.626 212.693 580.208 215.434Z" fill="white"/>
<circle id="372" cx="417" cy="500" fill="#5CE50D"/>
<circle id="375" cx="371" cy="582" fill="#E52A0D"/>
<circle id="374" cx="46" cy="582" fill="#E52A0D"/>
<circle id="373" cx="767" cy="725" fill="#E52A0D"/>
</svg>
