<svg width="1000" height="1000" viewBox="0 0 1000 1000" fill="none" xmlns="http://www.w3.org/2000/svg">
<path d="M155.904 62.3311C155.416 62.5264 153.268 62.917 151.119 63.3076C146.041 64.1865 142.721 67.6045 142.721 72.0967C142.721 73.9522 141.842 78.1514 140.67 81.4717C138.326 88.21 138.717 92.7998 141.842 95.6319C147.115 100.417 146.236 105.593 139.693 107.741C137.643 108.425 134.225 110.378 132.174 112.136C130.221 113.796 123.775 117.507 118.014 120.241C110.201 124.05 106.197 126.784 102.193 130.69C99.2637 133.62 96.1387 136.062 95.1621 136.062C92.4277 136.159 89.4004 139.187 86.8613 144.362C84.8105 148.562 84.0293 149.245 78.6582 151.198C67.8184 155.202 64.9863 157.155 63.2285 161.452C60.3965 168.581 61.1777 176.491 65.6699 187.233L69.6738 196.804L68.502 205.3C67.5254 212.624 67.0371 214.089 64.2051 217.116C62.4473 218.972 59.6152 222.683 57.9551 225.417C53.1699 233.132 49.2637 236.355 43.5996 237.136C40.9629 237.526 33.9316 239.48 28.0723 241.628C19.1855 244.655 16.6465 246.12 13.1309 249.538L9.0293 253.737L12.3496 263.015C14.1074 268.093 17.4277 276.198 19.6738 281.081C24.5566 291.433 33.4434 317.019 35.7871 327.468C37.4473 334.597 37.3496 335.476 34.9082 361.452L32.3691 388.015L34.9082 395.925C36.2754 400.222 37.7402 406.179 38.2285 409.206C39.0098 413.991 38.9121 415.163 37.252 417.8C36.1777 419.558 35.2988 422.683 35.2988 424.929C35.2988 428.249 34.8105 429.323 32.1738 431.276C29.5371 433.327 29.0488 434.499 28.6582 439.089C28.0723 445.925 31.7832 463.601 34.5176 467.507C36.4707 470.144 36.4707 470.73 35.3965 478.249C33.541 490.261 33.541 490.261 26.3145 495.925C20.1621 500.71 18.9902 501.296 14.791 501.296H10.1035L5.12305 509.108C2.38867 513.503 0.142578 517.116 0.142578 517.409C0.142578 517.605 8.93164 530.69 19.6738 546.413L39.2051 575.026V582.839C39.3027 593.679 40.377 598.171 43.8926 602.468C46.4316 605.495 47.0176 607.155 47.0176 610.866V615.554L53.9512 619.069L60.9824 622.585L66.9395 620.046C74.0684 617.019 73.9707 617.019 74.6543 619.362C75.1426 621.511 83.4434 622.78 86.4707 621.218C87.7402 620.534 89.8887 620.534 93.3066 621.315C97.8965 622.39 98.5801 622.878 101.51 627.761C103.268 630.593 105.416 633.23 106.393 633.523C107.271 633.718 115.377 635.183 124.361 636.648C140.279 639.187 140.67 639.382 141.646 641.921C142.428 644.265 141.939 645.534 138.717 651.003L134.811 657.448L148.189 674.343C155.514 683.62 162.057 691.726 162.643 692.409C163.229 692.995 186.373 698.659 214.01 704.812C241.646 711.062 265.182 716.53 266.256 717.019C267.33 717.507 276.803 724.148 287.252 731.96C297.701 739.675 306.881 746.413 307.564 746.804C308.346 747.292 330.416 737.136 364.889 720.534L420.943 693.483L677.291 815.651C818.307 882.839 934.127 937.819 934.713 937.819C935.299 937.819 935.494 936.843 935.299 935.573C935.006 934.401 934.615 929.323 934.225 924.343C933.834 917.409 933.932 915.358 934.908 915.358C955.123 914.968 999.557 913.308 999.85 913.015C1000.14 912.722 992.818 773.269 983.639 602.956L967.037 293.288L959.127 283.23L951.314 273.269L951.803 267.409C952.096 264.187 952.389 260.476 952.486 259.108C952.584 257.741 950.631 251.491 948.092 245.241C943.697 234.011 943.6 233.815 944.576 227.272C945.357 221.511 946.529 219.069 952.877 208.62L960.201 196.608L955.709 189.382C951.51 182.546 951.021 181.081 948.287 166.433L945.357 150.905L953.561 142.897C958.15 138.601 962.057 134.206 962.35 133.132C962.838 131.276 959.518 127.468 955.514 125.417C954.146 124.733 953.268 123.269 953.072 121.12C952.779 118.093 952.584 117.995 947.408 117.409C944.479 117.116 940.084 116.14 937.74 115.163C933.834 113.698 932.857 113.698 927.877 114.968C924.752 115.749 917.33 116.53 911.275 116.628C901.998 116.726 900.143 116.53 899.361 115.163C898.873 114.284 897.701 113.601 896.725 113.601C895.748 113.601 891.744 112.429 887.74 110.964C881.393 108.62 878.561 108.327 864.596 107.839C850.924 107.351 848.482 106.96 847.408 105.495C846.725 104.616 844.869 103.835 843.307 103.835C839.4 103.835 838.424 102.956 837.252 98.6592C836.178 94.9483 836.275 94.8506 838.619 95.4366C840.475 95.9248 840.963 95.7295 840.963 94.167C840.963 93.1905 840.279 91.8233 839.498 91.1397C838.717 90.4561 838.033 88.4053 838.033 86.6475C838.033 82.7412 836.861 82.1553 827.096 80.3975C819.967 79.128 800.143 72.878 798.092 71.2178C797.311 70.6319 793.209 70.1436 788.912 70.0459C781.979 69.9483 781.002 69.753 779.439 67.7022C777.975 65.749 777.389 65.6514 774.459 66.5303C772.604 67.1162 765.67 67.7998 759.029 68.0928L746.822 68.6787L742.232 72.585C736.471 77.4678 733.834 78.542 725.24 79.4209C721.529 79.8115 716.158 80.7881 713.521 81.5694C705.807 83.7178 688.814 93.3858 681.49 99.7334C677.877 102.858 673.189 106.276 671.139 107.253C668.307 108.522 666.061 110.769 662.643 115.944C660.104 119.753 656.686 124.636 654.928 126.784C649.557 133.425 647.311 138.894 646.822 146.315C646.432 152.761 646.627 153.737 649.947 160.28C651.9 164.089 653.463 168.288 653.463 169.558C653.463 171.022 655.025 173.269 657.857 175.808L662.252 179.714V186.843C662.252 196.999 659.127 205.007 650.436 216.823C641.842 228.64 634.615 236.159 629.537 238.796C627.389 239.968 620.748 242.507 614.889 244.46C606.49 247.292 603.561 247.878 601.705 247.194C600.338 246.706 596.529 245.827 593.111 245.339C589.107 244.753 585.787 243.581 583.834 242.116C582.076 240.749 579.439 239.382 577.779 238.991C576.217 238.601 572.701 236.452 569.967 234.206C567.33 231.96 562.936 228.64 560.201 226.882C557.564 225.124 553.561 222.097 551.412 220.241C545.65 215.358 536.471 210.28 533.248 210.28C530.514 210.28 526.51 207.351 526.51 205.397C526.51 204.812 525.143 204.421 523.482 204.421C519.088 204.421 509.322 201.687 503.951 198.952C501.314 197.683 497.896 196.608 496.139 196.608C491.744 196.608 481.588 193.874 478.072 191.628C474.361 189.382 466.158 188.21 442.525 186.355C432.564 185.573 422.213 184.499 419.381 183.913C414.01 182.741 401.607 176.687 391.549 170.339L385.396 166.433L380.025 153.054C375.045 140.358 374.752 138.894 374.166 128.737C373.482 114.87 372.311 112.429 365.377 110.866C362.643 110.183 358.053 109.694 355.318 109.694C349.557 109.694 340.377 108.23 334.029 106.179C331.49 105.397 328.17 104.812 326.705 104.812C323.678 104.812 313.424 97.4873 309.713 92.8975C308.248 90.9444 306.49 90.2608 302.193 89.6748C299.068 89.2842 295.064 88.4053 293.111 87.624C288.521 85.8662 279.146 84.3037 273.287 84.3037C269.576 84.3037 267.232 83.5225 262.74 80.8858C255.318 76.5889 252.193 76.4912 236.959 80.6905C226.51 83.5225 223.971 83.8155 213.326 83.6201L201.412 83.5225L181.1 73.1709C161.275 63.1123 157.955 61.6475 155.904 62.3311Z" fill="white"/>
<circle id="388" cx="250" cy="92" fill="#5CE50D"/>
<circle id="389" cx="663" cy="130" fill="#E52A0D"/>
<circle id="1385" cx="456" cy="190" fill="#E52A0D"/>
<circle cx="330" cy="518" fill="#E52A0D"/>
</svg>
