<svg width="1000" height="1000" viewBox="0 0 1000 1000" fill="none" xmlns="http://www.w3.org/2000/svg">
<path d="M643.555 108.927C641.699 109.416 638.574 111.369 636.719 113.127C632.715 116.935 629.199 118.498 624.219 118.498C622.266 118.595 619.531 119.181 618.164 119.963C616.797 120.744 613.086 121.33 609.766 121.427H603.711L602.539 127.97C600.977 137.638 598.145 146.72 592.285 160.978C589.453 167.912 586.816 175.822 586.426 178.556C586.035 181.193 583.789 187.248 581.445 191.838C579.004 196.72 576.367 204.142 575.098 209.416C572.754 219.474 571.875 221.525 563.184 236.564C559.961 242.131 552.441 255.9 546.387 267.033C533.496 290.861 526.758 299.455 517.09 304.24C513.867 305.9 510.156 307.951 508.789 308.927C507.422 309.904 503.516 311.857 500 313.322C496.484 314.787 492.09 317.424 490.234 319.181C488.379 320.939 485.352 322.795 483.496 323.478C481.641 324.064 478.711 325.627 476.953 326.994C474.902 328.556 472.461 329.435 470.312 329.435C467.676 329.435 465.234 330.607 460.156 334.318C456.445 336.955 452.832 339.201 452.051 339.201C451.27 339.201 445.898 341.252 439.941 343.693C434.082 346.134 426.953 348.771 424.121 349.455C420.605 350.334 417.09 352.384 412.305 356.193C408.105 359.611 404.59 361.662 403.125 361.662C400.195 361.662 394.629 367.326 391.504 373.576C390.43 375.92 386.914 380.412 383.789 383.634C380.762 386.857 375.391 392.814 371.875 396.818C364.648 405.314 357.227 412.443 346.289 421.232L338.672 427.482L339.16 432.463C339.453 435.099 339.16 439.396 338.574 442.033C337.793 445.353 337.891 447.013 338.672 447.795C340.332 449.455 338.965 462.248 336.719 465.373C335.742 466.838 334.277 469.865 333.496 472.111C332.52 474.748 329.492 478.947 325.391 483.244C316.797 492.131 305.176 506.974 304.199 510.099C303.809 511.466 302.734 513.908 301.758 515.568C300.879 517.228 299.512 520.256 298.828 522.306C298.145 524.357 296.191 528.459 294.434 531.291C291.699 535.783 291.406 537.15 291.797 541.349C292.09 544.181 291.504 548.966 290.527 553.068C288.77 560.099 288.77 566.056 290.625 585.978C291.211 592.521 291.113 593.205 288.184 598.381C286.035 602.091 285.156 604.826 285.352 606.974C285.645 609.806 286.035 610.197 288.77 610.49C291.113 610.685 293.164 612.15 296.973 616.349C302.051 621.916 307.129 631.388 306.25 633.634C306.055 634.318 305.078 639.787 304.199 645.841C301.465 664.299 291.699 683.146 281.25 690.08C276.27 693.4 268.75 704.533 266.797 711.369C265.527 716.056 259.277 724.455 250 734.22C245.898 738.517 240.039 745.353 237.109 749.357C228.027 761.662 224.902 764.006 207.52 771.916C198.926 775.724 189.16 780.9 185.84 783.244C178.125 788.713 161.133 805.705 156.25 812.834C150.586 821.134 145.605 824.259 122.559 834.025C109.18 839.787 97.5586 843.009 83.0078 845.158C79.0039 845.744 71.0938 847.306 65.625 848.576C59.4727 849.943 52.4414 850.92 47.9492 850.92C39.3555 850.92 30.7617 852.287 24.6094 854.533C21.2891 855.802 19.9219 857.072 17.5781 861.271C14.4531 866.642 9.76562 871.33 4.88281 873.869C2.44141 875.138 0 877.97 0 879.533C0 879.728 11.7188 880.216 26.1719 880.509C40.5273 880.9 79.4922 882.56 112.793 884.123C174.219 887.15 378.809 893.205 380.078 892.033C381.836 890.47 382.91 852.677 381.934 826.994C381.348 812.443 380.859 799.455 380.859 798.088C380.859 795.939 382.227 794.67 388.965 790.275C393.359 787.443 400.488 781.974 404.785 778.166C409.082 774.357 414.551 769.865 416.992 768.205C419.434 766.545 422.168 764.299 423.242 763.224C424.219 762.052 427.246 760.392 430.078 759.513C433.105 758.537 437.305 755.802 440.723 752.873C443.945 750.138 448.828 745.841 451.66 743.302C454.492 740.861 457.812 738.517 459.082 738.127C460.254 737.736 463.379 735.881 465.918 734.025C470.02 731.095 471.68 730.607 478.027 730.119L485.352 729.533L490.234 723.381C493.555 719.181 497.949 715.275 504.004 711.174L512.891 705.216L519.434 707.756C523.535 709.416 527.832 710.295 531.25 710.295C534.18 710.295 540.82 711.369 545.898 712.736L555.176 715.08L558.301 712.15C561.719 708.732 564.453 699.943 564.453 692.228V687.736L567.188 689.201C570.801 691.056 584.473 690.568 588.672 688.42C590.918 687.248 593.164 686.955 596.875 687.443C600.684 687.834 604.492 687.345 611.426 685.49C616.504 684.123 625.488 682.56 631.445 681.974C639.258 681.193 642.578 680.412 644.043 679.142C645.117 678.068 649.316 675.138 653.418 672.599C658.984 669.084 662.598 665.763 667.188 660.002C678.027 646.525 685.352 635.783 687.988 629.631L690.625 623.576L701.953 618.888C708.301 616.349 715.039 613.127 717.188 611.857C720.41 609.904 721.68 609.611 726.074 610.197L731.25 610.783L736.035 605.705C739.648 601.896 742.383 600.041 746.68 598.576C751.953 596.72 752.832 595.939 756.836 589.787L761.328 583.146L777.344 579.826C791.602 576.896 793.75 576.213 796.289 573.674C798.926 571.037 799.121 570.451 798.242 566.545C797.559 563.127 796.973 562.248 794.922 562.052C793.555 561.857 791.113 560.197 789.453 558.244L786.328 554.631L783.105 557.463L779.785 560.197L779.492 557.951C779.199 556.584 779.785 555.119 780.859 554.338C782.422 553.263 782.422 552.58 781.348 547.599L780.078 542.131L783.105 539.006C784.766 537.248 786.133 535.588 786.133 535.197C786.133 534.806 784.375 533.634 782.227 532.56L778.32 530.607V520.549C778.32 510.295 778.613 509.416 782.715 505.998C784.57 504.435 785.254 504.435 790.527 505.705C798.828 507.658 806.055 507.56 810.352 505.314C815.723 502.58 824.023 499.357 830.078 497.697C836.719 495.939 842.48 493.009 845.801 489.884C848.242 487.638 848.34 487.052 847.852 481.193C847.363 475.041 847.461 474.748 850.586 471.525C852.93 469.181 854.883 468.107 858.301 467.619C860.742 467.326 869.824 465.47 878.418 463.517L894.043 460.002L912.109 461.174C922.07 461.759 943.457 462.248 959.766 462.248H989.453L988.77 459.025C988.379 457.365 987.012 453.361 985.645 450.236C983.594 445.744 983.203 443.693 983.691 439.787C984.473 432.951 985.645 431.291 990.234 430.509C993.457 429.924 994.727 429.045 997.07 425.627C998.73 423.283 1000 421.134 1000 420.939C1000 420.646 993.555 416.056 985.645 410.588C966.211 397.306 962.5 393.791 960.938 387.345C960.254 384.318 960.059 380.216 960.449 376.896C961.133 371.818 960.938 371.134 958.398 367.814C956.836 365.763 954.395 362.248 952.93 360.002C951.465 357.756 949.414 355.509 948.34 354.924C945.215 353.166 944.531 342.619 947.168 335.685C948.242 332.658 949.219 328.654 949.219 326.799C949.219 322.99 944.238 313.42 941.797 312.443C940.723 312.052 940.332 310.49 940.43 306.779C940.43 303.947 940.137 298.381 939.844 294.474C939.453 290.275 939.648 284.416 940.43 280.021C941.797 271.134 941.016 267.424 935.352 256.486C933.301 252.482 931.641 248.381 931.641 247.306C931.641 246.232 932.812 243.595 934.277 241.447L936.914 237.443L930.273 231.388L923.633 225.431L926.562 220.549C928.223 217.814 929.883 214.591 930.176 213.224C930.762 210.881 930.273 210.49 924.219 207.951C918.066 205.412 915.527 203.361 912.109 197.697C911.035 196.037 908.594 194.572 904.395 193.302C898.34 191.252 898.145 191.154 896.582 186.369L895.02 181.486L886.328 178.361L877.539 175.236L875.488 177.482C874.219 178.849 871.289 180.216 868.262 180.9C863.574 181.877 862.5 181.681 852.734 178.556C846.973 176.701 841.699 174.748 841.016 174.357C840.332 173.869 839.551 171.818 839.258 169.67C838.965 167.619 837.793 162.736 836.719 159.025C835.547 155.216 834.473 151.505 834.277 150.724C833.984 149.845 832.129 152.482 829.98 156.779C826.855 162.931 825.684 164.396 823.926 164.396C822.559 164.396 820.02 166.154 817.383 168.888L812.988 173.381L803.711 172.795C796.777 172.404 792.383 171.525 786.23 169.279C778.613 166.447 777.93 166.349 775.684 167.814C774.414 168.693 772.949 170.451 772.461 171.818C771.68 173.869 770.898 174.162 767.09 174.162C763.379 174.162 762.695 173.869 762.695 172.209C762.695 170.646 762.012 170.256 759.473 170.256C757.715 170.256 754.59 171.134 752.441 172.209C750.293 173.283 747.754 174.162 746.582 174.162C745.508 174.162 742.188 175.334 739.258 176.799C732.715 179.924 725.391 179.924 712.891 176.994C699.512 173.771 695.02 172.111 691.895 169.279C690.332 167.814 685.254 164.103 680.664 161.173C671.875 155.509 656.543 141.154 654.688 137.052C650.391 127.287 649.121 117.13 651.758 113.42C652.637 112.248 653.32 110.88 653.32 110.588C653.32 110.002 647.461 107.463 647.07 107.853C646.973 107.853 645.41 108.341 643.555 108.927Z" fill="white"/>
<circle id="816" cx="541" cy="289" fill="#5CE50D"/>
<circle id="459" cx="601" cy="127" fill="#E52A0D"/>
<circle id="1629" cx="311" cy="647" fill="#E52A0D"/>
<circle id="457" cx="430" cy="500" fill="#E52A0D"/>
</svg>
