<svg width="1000" height="1000" viewBox="0 0 1000 1000" fill="none" xmlns="http://www.w3.org/2000/svg">
<path d="M852.438 1.70703C851.266 2.58594 849.703 5.71094 848.824 8.54297L847.359 13.8164L851.949 18.3086C854.488 20.8477 857.809 24.7539 859.371 27.0977L862.203 31.1992L859.469 37.5469C857.027 43.5039 855.465 45.0664 839.547 59.6172L822.359 75.3398L809.078 74.7539L795.699 74.168L789.059 80.8086C776.266 93.3086 778.219 92.5273 756.148 93.3086L736.91 93.9922L727.047 100.047C721.676 103.465 713.961 107.371 709.859 108.836C702.926 111.375 701.852 111.57 691.109 110.984C684.762 110.691 679 110.301 678.316 110.105C677.438 109.91 675.875 113.914 673.141 123.484C670.992 131.004 669.039 137.352 668.941 137.449C668.844 137.645 665.816 138.523 662.203 139.5L655.758 141.062L647.164 162.156C639.938 179.93 637.398 184.91 630.953 194.383L623.434 205.516L622.848 226.023L622.359 246.531L617.77 255.809C615.231 260.887 612.203 268.113 610.934 271.922C609.762 275.633 607.027 283.348 604.879 289.012C601.559 297.703 600.094 300.145 595.406 304.93C592.379 308.055 586.129 313.523 581.441 316.941L572.945 323.289L566.5 335.887C560.348 348.094 559.762 348.777 543.453 366.062C528.121 382.273 526.461 383.738 522.652 384.227C518.844 384.812 518.355 385.398 512.887 393.602C509.762 398.387 506.734 402.293 506.344 402.293C505.855 402.293 497.164 396.727 486.91 389.988L468.453 377.586L458.883 383.445C453.609 386.668 447.945 390.086 446.188 390.965C444.43 391.844 439.547 395.945 435.25 400.242C426.656 408.641 426.07 410.203 429 416.453L430.66 419.969L421.871 428.758C409.859 440.867 400.875 447.02 393.844 447.801L388.57 448.387L332.809 497.41C302.242 524.266 256.441 563.914 231.148 585.398L185.152 624.461V628.855C185.152 631.297 186.422 637.156 187.984 642.039L190.816 650.828L186.031 655.223C181.246 659.52 181.246 659.715 181.246 665.379C181.246 670.359 181.93 672.215 186.52 681.004L191.793 690.867L189.938 695.75C188.473 699.461 187.691 704.93 186.91 718.699C186.031 733.055 185.445 736.961 184.273 737.938C183.395 738.523 178.805 739.305 173.922 739.695C167.379 740.281 164.352 740.965 162.301 742.43C160.348 743.797 155.855 745.066 148.922 746.141L138.375 747.801L129.293 754.93C120.602 761.668 119.332 763.23 101.656 787.938C91.4023 802.098 83.1016 814.305 83.1016 814.988C83.1016 815.672 101.559 828.66 124.117 843.895C164.742 871.141 165.914 872.117 245.992 935.691L326.949 1000.05L330.465 996.824C332.516 995.164 348.043 980.516 365.23 964.402L396.285 935.008L437.008 909.91C459.371 896.043 477.73 884.227 477.828 883.543C478.023 882.859 477.73 881.688 477.242 881.004C476.656 880.027 471.871 882.078 456.832 889.988C446.09 895.652 436.91 900.34 436.422 900.242C435.641 900.242 432.906 896.629 420.309 879.539C413.863 870.75 413.766 870.359 413.668 864.598C413.668 859.52 413.961 858.348 415.816 857.176C417.281 856.199 417.672 855.223 417.281 854.051C416.598 852.488 414.742 852.391 387.496 853.074L358.492 853.758L356.637 846.824C354.684 839.012 354.391 838.816 344.625 838.816H338.473V822.215V805.711L342.379 804.637C344.527 804.148 348.043 803.172 350.191 802.684C354.098 801.609 355.563 800.438 354.684 798.973C354.391 798.484 347.066 798.973 338.277 799.852C315.523 802.293 316.402 802.391 314.156 797.996L312.203 794.285L325.875 782.566C333.395 776.219 339.938 770.848 340.23 770.75C340.621 770.555 343.844 772.605 347.359 775.242C352.34 778.953 354 780.711 354.488 783.25L355.172 786.57L357.809 783.445L360.348 780.32L364.938 782.859C369.332 785.398 369.625 785.887 374.215 797.215C378.023 806.492 379.684 809.422 382.516 811.668L385.934 814.402L392.672 810.105C400.777 804.734 407.711 802.293 412.203 803.074C415.621 803.758 416.012 804.344 417.184 810.984C417.867 814.793 423.629 823.289 428.414 827.684C429.684 828.855 432.516 830.125 434.664 830.418C439.84 831.297 447.652 833.836 448.336 834.91C448.629 835.301 447.75 841.062 446.383 847.605C445.016 854.246 443.941 859.812 443.941 860.008C443.941 860.203 445.113 859.715 446.676 858.934C449.02 857.762 449.605 856.297 452.242 845.555L455.27 833.445L466.402 833.348H477.633L486.422 828.758C491.305 826.219 498.922 821.043 503.512 817.234C508.102 813.523 514.547 809.031 517.965 807.371C521.383 805.711 524.801 803.172 525.582 801.805C526.461 800.34 529.586 797.508 532.516 795.457L537.984 791.648L544.527 792.527C549.996 793.309 552.145 793.113 558.199 791.355C564.352 789.695 565.914 788.719 569.039 785.105C572.848 780.711 574.801 775.145 574.801 768.895C574.801 764.305 579.879 755.809 588.375 746.043C591.988 742.039 596.578 736.375 598.629 733.543L602.438 728.27L600.582 721.043C598.824 713.914 598.824 713.816 600.973 707.273C604.098 697.312 604 694.773 599.898 687.742C597.066 683.055 595.602 681.59 593.355 681.102C591.695 680.711 590.426 680.32 590.426 680.125C590.426 680.027 588.18 668.992 585.543 655.809C582.809 642.625 580.66 631.59 580.66 631.297C580.66 631.004 579.586 630.809 578.316 630.809H576.07L580.27 652C582.613 663.621 584.566 673.875 584.566 674.754C584.566 675.926 580.758 677 565.816 679.93C555.465 681.98 546.48 683.641 545.895 683.543C545.309 683.543 544.43 682.078 543.941 680.32C542.477 675.438 540.23 676.316 539.84 681.785C539.547 685.691 539.254 686.473 537.594 686.473C536.031 686.473 535.738 685.789 535.738 682.566C535.738 678.855 535.641 678.66 532.711 678.66H529.586L530.172 683.543L530.758 688.426H527.438H524.02V683.055C524.02 680.125 523.824 677.684 523.531 677.684C523.336 677.684 521.969 678.172 520.504 678.855C518.063 680.027 517.965 680.223 518.551 685.691C519.234 690.965 519.137 691.355 516.988 691.844C509.762 693.504 505.172 694.285 504.977 694.09C504.781 693.895 503.805 690.574 502.633 686.57C500.68 679.344 500.68 679.344 502.535 676.609C503.609 675.145 504.488 673.777 504.488 673.484C504.488 673.094 494.43 673.777 493.941 674.363C493.746 674.461 494.234 675.828 495.113 677.391C495.992 678.855 497.457 683.738 498.531 688.23L500.387 696.238L498.238 696.727C494.918 697.508 479.879 700.145 479.195 700.145C478.805 700.145 477.633 694.871 476.656 688.426C474.996 677.293 474.703 676.707 472.555 676.707C469.82 676.707 469.82 676.609 472.75 689.891C474.02 695.75 474.801 700.926 474.41 701.316C473.043 702.586 458.395 705.223 457.711 704.344C452.633 696.629 450.777 693.113 449.801 689.5C449.117 687.059 446.09 679.93 442.867 673.68L437.203 662.156L441.598 660.496C447.066 658.445 448.141 656.199 447.945 646.629C447.848 642.527 448.141 639.598 448.727 639.598C449.996 639.598 450.484 641.648 451.266 650.145C451.949 657.176 451.949 657.176 454.879 657.176C457.125 657.176 457.613 656.785 457.223 655.418C455.758 650.828 453.805 639.305 454.293 638.523C454.586 638.035 457.418 637.645 460.543 637.645H466.207L467.379 644.676C468.746 653.855 469.43 655.418 471.188 654.344C472.359 653.562 472.164 650.438 469.43 633.055C465.426 607.371 465.719 608.641 462.887 608.055C460.055 607.566 459.957 608.934 461.91 619.773L463.18 626.707L458.199 627.684C455.465 628.27 452.926 628.465 452.633 628.27C452.34 628.074 451.266 624.168 450.289 619.578C449.313 614.988 448.141 610.984 447.652 610.691C445.406 609.227 445.211 612.352 446.969 620.945C447.945 626.023 448.727 630.32 448.531 630.418C448.336 630.613 446.773 631.102 445.113 631.395L441.988 631.98V627.781C441.988 625.438 441.695 622.508 441.402 621.434C440.816 619.09 435.836 616.648 430.074 615.672C426.852 615.184 426.363 614.695 425.68 611.473C425.289 609.52 424.996 600.633 424.996 591.746C424.898 574.07 425.68 570.262 430.074 566.062C432.711 563.621 433.883 563.426 496.578 556.102C531.637 552 560.543 548.875 560.738 549.07C560.934 549.266 562.887 559.031 565.035 570.75C567.184 582.469 569.039 592.234 569.332 592.43C569.527 592.625 570.699 592.332 572.066 591.746L574.41 590.672L570.797 568.016C565.914 538.035 565.816 539.988 571.871 539.988C576.168 539.988 578.902 538.914 592.184 532.078C600.582 527.684 609.176 523.094 611.129 521.727C614.352 519.578 615.523 519.285 619.625 519.871C624.117 520.457 624.41 520.359 626.852 517.234C628.805 514.598 630.66 513.621 636.031 512.156C644.625 509.91 649.996 505.223 649.996 499.949C649.996 497.605 650.68 495.75 651.949 494.578C653.121 493.602 654.391 489.988 655.465 485.398C656.344 481.297 657.613 475.828 658.395 473.191C659.176 470.555 659.762 466.551 659.762 464.402C659.762 462.156 660.641 458.055 661.715 455.223C662.789 452.391 663.668 448.484 663.668 446.434C663.668 444.48 664.742 438.426 666.012 433.055C667.379 427.684 669.918 415.379 671.871 405.711C675.484 386.863 677.242 381.883 683.785 372.02C686.129 368.504 689.645 361.668 691.598 356.883C695.602 347.215 702.828 337.254 712.984 327.586C718.551 322.312 719.43 320.848 722.262 312.938C724.996 305.32 725.387 302.977 725.289 295.164C725.094 286.473 725.191 286.082 728.316 281.883C730.563 278.758 733.199 276.707 737.106 274.949C740.426 273.387 743.844 270.848 745.602 268.602C747.262 266.551 748.629 264.598 748.629 264.305C748.629 264.109 747.457 263.621 745.992 263.328C744.039 262.938 742.281 263.719 738.57 266.648C732.613 271.434 731.051 271.531 731.051 267.137C731.051 260.398 733.102 253.074 737.398 244.48C742.77 233.836 747.262 229.148 754.781 226.512C761.813 224.07 765.426 224.07 767.672 226.512C769.234 228.27 772.066 229.246 772.066 227.977C772.066 227.684 771.188 225.828 770.113 223.875C769.039 221.824 768.16 219.676 768.16 218.992C768.16 218.309 772.848 214.109 778.512 209.715C784.176 205.223 789.742 200.828 790.914 199.852C793.063 198.191 810.543 193.309 814.645 193.309C815.816 193.309 817.184 193.797 817.477 194.383C818.746 196.336 815.133 203.562 812.106 205.32C810.543 206.297 808.688 207.957 808.199 209.031C807.32 210.594 807.516 210.887 809.273 210.887C810.445 210.887 813.082 210.398 815.133 209.715C818.551 208.738 819.137 208.055 821.09 202.879C822.75 198.094 823.824 196.727 826.754 195.262C828.805 194.188 830.66 192.723 830.953 191.941C831.637 190.184 828.805 188.914 827.34 190.379C825.094 192.625 822.164 191.355 819.918 187.059L817.672 182.859L819.82 179.344C820.992 177.391 824.703 173.387 827.926 170.359C833.395 165.477 834.273 164.988 838.473 164.988H843.063L852.731 182.273L862.398 199.656L870.504 205.223C877.145 209.715 879.879 210.887 885.055 211.863L891.5 212.938L904 208.348L916.402 203.66L916.891 199.754C917.184 196.629 906.832 129.051 904.391 118.504C904.098 117.332 901.461 114.695 898.434 112.645L892.867 108.836L893.648 97.6055C894.527 83.6406 894.527 81.7852 893.648 65.1836C892.867 52.0977 892.965 51.6094 895.406 46.1406C899.41 36.9609 899.41 35.3008 895.797 29.7344C891.305 22.7031 884.078 16.3555 875.582 12.1562C871.578 10.1055 865.523 6.58984 862.106 4.24609C858.688 1.90234 855.66 -0.0507812 855.27 -0.0507812C854.879 -0.0507812 853.609 0.730469 852.438 1.70703Z" fill="white"/>
</svg>
