<svg width="1000" height="1000" viewBox="0 0 1000 1000" fill="none" xmlns="http://www.w3.org/2000/svg">
<path d="M312.305 4.54982C308.398 6.99123 300.684 10.7022 295.215 12.9483C289.453 15.292 284.082 18.124 282.617 19.6865L280.078 22.3233L278.418 19.5889C276.953 17.0498 276.172 16.7569 271.777 16.7569C262.598 16.7569 260.449 18.0264 252.246 28.4756L244.727 37.9483L236.719 38.5342L228.613 39.2178L215.234 32.1865C207.129 27.9873 201.27 25.4483 200.293 25.8389C199.121 26.3272 198.73 27.8897 198.73 32.8701V39.2178H194.434C191.797 39.2178 189.355 39.9014 187.793 41.0733C185.449 42.9287 185.449 42.9287 178.418 39.6084C174.121 37.6553 168.75 34.042 164.746 30.4287C158.105 24.4717 156.738 23.6904 156.738 25.7412C156.738 26.4248 156.25 28.6709 155.664 30.624C154.688 34.2373 154.59 34.335 149.902 34.335C144.434 34.335 143.652 35.7998 146.582 40.0967C147.754 41.7569 147.852 42.6358 147.07 43.417C146.484 44.0029 145.996 47.9092 145.996 52.499V60.6045L140.43 61.2881C137.305 61.6787 134.766 61.5811 134.57 61.0928C134.375 60.6045 132.422 56.8936 130.078 52.8897C126.367 46.3467 125.586 45.5654 122.754 45.2725L119.629 44.9795V49.7647C119.629 55.2334 117.676 57.7725 113.477 57.7725C110.84 57.7725 110.84 57.8701 110.84 64.6084C110.84 70.8584 111.035 71.4444 112.793 71.4444C113.965 71.4444 115.234 72.4209 115.918 73.8858C117.188 76.7178 118.359 76.9131 120.801 74.7647C122.363 73.2022 122.656 73.2998 124.414 75.4483L126.172 77.6944L127.93 74.374L129.59 71.0537L131.543 73.6904C133.301 76.1319 133.984 76.3272 140.137 76.3272C148.633 76.3272 149.609 76.7178 151.953 81.3076C153.027 83.4561 154.492 85.1162 155.273 85.1162C157.227 85.1162 165.527 93.2217 165.527 95.0772C165.527 99.7647 167.969 101.034 170.898 97.8115C171.875 96.7373 173.438 95.8584 174.512 95.8584C175.879 95.8584 176.27 96.6397 176.27 99.1787C176.27 102.206 176.758 102.792 181.641 105.624C184.668 107.382 186.914 109.237 186.719 109.921C186.523 110.507 184.473 111.093 182.227 111.288C178.125 111.581 178.125 111.679 179.688 113.437C180.859 114.706 183.398 115.585 187.207 115.976C192.676 116.562 193.164 116.855 194.434 119.882C195.215 121.64 195.801 124.862 195.801 126.913C195.801 133.944 196.973 136.679 202.734 143.222C208.594 149.765 209.277 151.327 207.422 153.183C206.055 154.55 210.84 158.358 213.965 158.358C216.016 158.358 216.309 158.847 216.309 161.776C216.309 164.12 216.895 165.39 218.262 166.171C219.531 166.855 220.215 168.222 220.215 169.98C220.215 171.542 220.898 174.667 221.68 176.913C222.461 179.159 223.145 182.772 223.145 184.823C223.145 188.73 226.074 191.952 230.664 193.124C232.813 193.71 232.91 194.101 232.91 202.401V211.19L236.23 213.144C239.648 215.097 240.137 218.124 237.207 219.296C235.352 219.979 235.449 225.253 237.5 228.476C238.477 229.94 241.699 233.944 244.824 237.46C249.512 242.733 250.488 244.394 250.488 247.323C250.488 250.351 250.098 251.034 247.559 252.108C245.898 252.792 244.336 253.671 244.141 254.159C243.848 254.55 245.313 257.772 247.363 261.19C249.512 264.608 251.563 268.417 251.953 269.589C252.344 270.858 254.102 273.495 255.762 275.448C259.668 279.745 267.578 291.073 268.359 293.417C268.75 294.394 271.191 296.542 273.926 298.202C278.418 300.936 279.004 301.815 280.762 307.577C282.031 311.483 283.594 314.511 285.156 315.78C287.305 317.44 287.598 318.417 287.598 323.983C287.598 331.112 287.891 331.405 297.852 333.261C301.855 333.944 303.418 334.921 306.348 338.241C309.57 341.952 309.961 343.026 310.059 347.616C310.059 350.448 310.547 353.671 311.133 354.745C311.621 355.819 312.207 359.433 312.305 362.851C312.5 367.929 312.988 369.491 315.234 372.128C316.699 373.886 317.871 375.741 317.871 376.229C317.871 376.718 319.531 379.354 321.484 382.089C326.172 388.241 337.402 396.151 342.969 397.128C345.215 397.421 347.461 398.3 347.949 398.886C349.805 401.229 350.684 406.015 350 409.726C349.414 413.339 349.707 413.925 353.809 418.319C357.129 421.933 358.594 424.472 359.961 429.55C361.035 433.163 361.816 437.46 361.816 438.925C361.816 440.976 362.988 442.929 365.723 445.663C368.457 448.397 369.629 450.448 369.629 452.401C369.629 454.647 370.313 455.526 373.34 457.089C379.004 460.019 390.918 471.054 391.016 473.495C391.113 475.155 392.578 476.132 399.512 478.573C404.102 480.233 408.594 481.601 409.57 481.601C413.672 481.601 429.102 510.116 431.445 522.128C432.324 526.229 432.617 530.917 432.227 533.847C431.25 541.268 435.645 555.819 440.332 560.604C443.652 564.022 443.848 564.608 443.848 570.468C443.75 576.327 444.238 577.694 449.805 588.534C454.59 597.909 455.957 601.522 456.445 606.601C456.836 610.116 457.91 614.413 458.887 616.268C460.547 619.393 460.547 619.686 458.594 625.155C457.422 628.28 456.543 633.065 456.543 636.093C456.543 639.218 455.566 644.393 454.102 648.593L451.66 655.819L454.98 659.237C460.449 665.097 462.207 673.983 458.496 677.401C457.129 678.671 456.543 680.429 456.543 683.554C456.543 686.972 455.859 688.827 453.223 692.44C446.777 701.327 445.41 706.112 447.949 711.483C448.828 713.436 448.633 715.292 447.266 720.37C445.508 727.108 445.801 726.913 437.012 727.987C436.133 728.085 435.156 730.331 434.277 734.042C433.594 737.265 432.422 740.194 431.641 740.683C430.566 741.268 430.762 742.636 432.715 748.397C435.254 755.917 435.84 767.245 434.082 773.593C433.594 775.448 430.762 781.21 427.93 786.288C423.145 794.686 422.754 795.858 423.438 799.472C423.926 801.62 424.219 805.819 424.316 808.651C424.316 811.679 425.488 817.733 426.953 822.323C429.492 830.233 429.59 831.698 429.492 847.811C429.395 857.186 429.199 867.929 429.004 871.737C428.809 878.28 429.004 879.061 433.984 889.315L439.16 900.058L438.574 918.124C438.184 928.085 437.402 937.362 436.816 938.827C435.938 941.268 435.254 941.561 431.25 941.561C427.832 941.561 425.977 942.245 423.535 944.296C420.313 946.933 420.313 947.03 421.387 951.62C422.656 956.601 428.613 963.046 431.934 963.046C435.449 963.046 437.793 967.147 439.941 976.718C443.066 991.366 444.043 993.612 448.047 997.226C451.27 1000.06 451.953 1000.25 453.223 999.081C454.004 998.3 455.469 994.686 456.543 990.976C458.984 982.186 462.402 976.62 466.699 974.374C470.215 972.518 470.508 972.518 480.273 974.179C486.328 975.253 492.383 977.011 495.703 978.671C501.074 981.405 501.172 981.405 508.008 980.136C520.02 977.89 522.656 976.718 524.023 973.593C524.902 971.347 524.902 970.077 523.535 966.464C522.559 964.022 521.387 961.874 520.898 961.581C519.238 960.507 520.02 958.163 521.973 958.163C523.047 958.163 525.293 956.893 527.051 955.331C530.078 952.597 530.176 952.401 528.516 950.643C527.246 949.081 526.855 946.933 526.855 940.292C526.855 935.018 526.465 931.796 525.879 931.796C523.828 931.796 520.02 926.62 520.02 923.983C520.02 920.761 524.414 912.558 526.855 911.288C527.832 910.702 529.883 910.311 531.445 910.311C535.645 910.311 536.328 909.335 537.109 902.499C538.086 893.612 539.16 892.733 548.34 892.733C555.469 892.733 555.859 892.636 558.887 889.511C561.621 886.776 562.012 885.604 562.012 881.21C562.012 876.522 562.207 876.132 564.355 876.132C566.797 876.132 578.32 868.222 579.199 865.976C579.59 864.999 576.758 843.905 575.098 835.995C574.707 833.847 575.195 833.261 579.297 831.405C582.91 829.745 623.145 815.585 624.121 815.585C624.316 815.585 625.098 814.901 625.879 814.022C628.027 811.874 627.832 806.405 625.098 797.421C621.484 785.214 621.191 782.675 623.34 781.991C628.711 780.233 640.137 762.265 640.137 755.526C640.137 751.815 639.551 750.936 630.371 741.854L620.605 732.089V727.011C620.605 724.179 621.094 720.858 621.68 719.589C622.461 717.831 622.363 715.194 621.191 708.944C619.531 700.155 616.699 679.745 616.699 676.718C616.699 675.741 620.117 671.347 624.219 666.854C632.031 658.456 639.844 653.28 646.68 652.011C648.731 651.718 655.176 648.788 660.938 645.565C666.699 642.44 672.656 639.804 674.121 639.804C675.586 639.804 678.027 640.78 679.492 642.05L682.227 644.198L682.324 661.776C682.422 678.573 682.324 679.55 680.176 683.163C677.246 687.948 675.977 695.175 677.93 695.956C681.445 697.226 683.887 696.249 688.477 691.561C692.09 687.948 694.336 686.483 696.973 685.995L700.684 685.409V677.792C700.684 668.124 702.637 662.753 706.641 661.386C709.277 660.507 709.473 660.604 710.059 663.046C710.352 664.511 712.012 668.612 713.672 672.226C716.309 678.183 716.895 678.866 719.336 678.866C721.973 678.866 722.168 678.573 722.168 674.96C722.168 671.347 722.852 670.468 730.566 662.753C735.254 658.163 739.453 654.452 739.941 654.452C740.527 654.452 742.09 655.136 743.555 656.015C745.996 657.479 746.191 657.968 745.606 661.972C744.629 668.124 745.898 673.983 748.633 676.034C750 677.108 753.125 677.89 756.152 678.085L761.328 678.378L763.086 683.358C765.723 691.366 767.383 693.124 773.047 694.491L778.027 695.761L781.445 692.343C784.277 689.511 784.766 688.241 784.961 684.14C785.059 681.503 784.766 678.671 784.375 677.89C783.789 676.718 784.961 676.034 789.551 674.667C795.996 672.811 795.898 672.909 796.875 665.78L797.559 660.995L820.801 684.237L818.848 690.487C817.773 694.003 817.09 696.835 817.188 696.933C817.285 696.933 819.043 697.714 821.094 698.69C827.734 701.718 830.371 701.034 836.231 694.882L841.406 689.315L882.422 688.339L885.84 683.358C887.695 680.624 889.16 677.792 889.16 677.108C889.16 675.546 886.133 674.374 879.59 673.495C876.074 673.007 874.023 672.226 873.242 670.956C872.559 669.882 870.996 669.101 869.531 669.101C868.066 669.101 865.43 668.417 863.477 667.636C859.277 665.878 858.203 662.655 860.938 659.726C863.281 657.186 862.793 655.624 858.398 652.597L854.883 650.253L850.098 654.843L847.363 652.206C845.898 650.741 843.359 649.179 841.699 648.593C839.648 647.811 838.086 646.249 836.621 643.124C835.449 640.78 834.473 638.143 834.473 637.362C834.473 634.823 841.504 630.038 846.387 629.452C852.051 628.671 852.148 628.183 848.731 614.022C846.387 604.354 846.387 604.354 848.242 600.058C849.707 596.542 850.098 593.319 850.098 583.749C850.098 573.104 849.707 570.37 846.68 559.237C844.727 552.304 842.773 546.151 842.188 545.37C840.625 543.612 837.695 543.808 837.012 545.761C836.523 547.03 835.742 546.249 834.082 542.538C832.813 539.901 830.176 536.581 828.32 535.116C825.098 532.675 824.023 532.382 816.699 532.382C812.207 532.382 806.445 531.796 803.711 531.112C798.926 529.94 798.731 529.745 795.41 522.811C792.188 516.171 791.895 515.78 788.672 515.78C783.496 515.78 777.734 513.827 772.656 510.214C769.824 508.163 766.309 506.698 763.477 506.308L758.984 505.722L759.57 498.593C760.254 491.073 763.281 481.698 766.211 477.792C767.676 475.936 768.066 473.788 768.066 467.245V459.042L764.648 457.577C758.984 455.233 755.762 455.722 752.734 459.628C751.27 461.483 749.609 463.046 749.023 462.948C747.949 462.948 739.746 451.815 739.746 450.448C739.746 449.374 748.047 445.858 752.734 444.979C759.57 443.71 761.133 435.8 756.836 425.155C754.492 419.296 753.613 411.093 755.176 408.651C755.566 408.065 757.129 407.186 758.594 406.894C762.012 406.015 763.184 403.769 763.184 398.397C763.086 394.491 760.938 382.284 760.156 381.601C754.199 376.62 750.879 375.155 745.606 375.155H739.941L738.281 382.186C736.133 391.269 734.57 392.733 726.66 392.733H720.703L717.09 387.069C713.574 381.698 713.379 380.917 713.379 373.397C713.379 365.585 713.379 365.39 710.449 363.925C708.887 363.144 706.152 362.46 704.297 362.46C701.074 362.46 700.879 362.167 699.805 358.163C699.219 355.722 698.731 352.89 698.731 351.913C698.731 350.546 697.461 349.472 694.824 348.397C692.676 347.519 690.43 346.835 689.746 346.835C688.184 346.835 686.133 343.71 686.035 341.171C686.035 338.436 682.422 338.241 679.102 340.78C677.832 341.854 675.684 342.929 674.316 343.222C672.266 343.71 671.582 343.319 670.117 340.878C669.238 339.218 668.457 335.995 668.457 333.749C668.457 330.038 667.773 328.866 663.184 323.69C658.301 318.417 657.813 317.343 657.227 312.069L656.641 306.308L664.453 297.909C668.652 293.319 672.949 287.851 673.828 285.702C676.465 279.745 677.539 265.487 675.781 261.19C675 259.237 674.316 255.917 674.316 253.671C674.316 250.351 674.902 248.983 677.344 246.64C680.469 243.71 684.082 237.558 684.082 235.214C684.082 233.065 681.152 231.015 675.586 229.159C670.606 227.597 670.41 227.401 670.41 224.081C670.41 221.249 671.68 219.003 677.246 211.972C686.328 200.448 686.231 199.081 676.563 195.956C670.41 194.003 668.555 191.464 667.481 183.749C666.504 177.108 664.746 173.3 659.961 168.026C656.641 164.413 656.25 164.218 650.488 164.218C647.266 164.218 643.555 164.511 642.285 164.804C640.137 165.39 640.039 165.78 640.625 171.444C641.113 176.913 641.016 177.499 638.867 179.062C637.5 180.038 633.594 180.917 628.809 181.308L621.094 181.894L608.008 166.171C595.215 150.839 595.02 150.448 594.336 144.687C593.848 140.878 592.871 138.046 591.602 136.679C590.527 135.409 589.355 132.675 588.965 130.526C587.402 121.054 587.598 121.444 582.813 120.663C580.371 120.272 576.563 119.003 574.316 117.733C571.191 115.976 568.848 115.39 563.77 115.39C558.203 115.39 556.836 114.999 554.297 112.851C550.098 109.335 541.504 107.284 534.668 108.065C530.273 108.554 527.637 109.823 519.629 115.097L509.961 121.444L510.547 129.062C511.328 138.437 510.156 139.315 504.785 133.847L500.977 129.94L501.563 105.624H498.926C494.629 105.624 490.039 109.14 488.574 113.534C487.598 116.464 486.426 117.929 484.18 118.808C481.152 120.077 480.957 119.98 478.516 116.757C476.074 113.534 476.074 113.437 477.637 110.312C478.516 108.554 481.641 104.452 484.57 101.23C490.137 95.0772 490.43 93.6123 487.793 86.6787C486.523 83.2608 480.273 81.7959 475.098 83.6514C472.852 84.4326 470.215 85.1162 469.238 85.1162C468.262 85.1162 465.137 86.6787 462.305 88.5342C458.203 91.3662 456.641 91.9522 454.199 91.3662C448.828 90.292 447.754 89.2178 447.754 85.3115C447.754 80.624 446.973 79.7451 442.969 78.8662C440.039 78.3779 439.258 78.6709 436.914 81.21C434.668 83.5537 433.398 84.1397 430.078 84.1397H426.074L426.66 80.4287C429.883 59.6279 428.418 57.5772 409.57 56.21L399.414 55.5264L393.359 50.0576C389.941 47.0303 386.816 43.3194 386.23 41.8545C384.863 37.8506 380.859 33.4561 375.781 30.2334C373.34 28.6709 368.066 24.0811 364.063 19.9795L356.738 12.6553L351.758 13.2412C348.926 13.6319 343.848 14.8037 340.527 15.8779L334.277 17.9287L326.953 14.2178L319.629 10.4092L320.215 5.23342C320.508 2.49904 320.508 0.15529 320.117 0.252946C319.629 0.252946 316.211 2.20607 312.305 4.54982Z" fill="white"/>
<circle id="444" cx="604" cy="470" fill="#5CE50D"/>
<circle id="445" cx="386" cy="239" fill="#E52A0D"/>
<circle cx="500" cy="846" fill="#E52A0D"/>
<circle id="446" cx="735" cy="540" fill="#E52A0D"/>
</svg>
