<svg width="1000" height="1000" viewBox="0 0 1000 1000" fill="none" xmlns="http://www.w3.org/2000/svg">
<path d="M327.414 1.31055C326.047 2.0918 324.289 2.67773 323.41 2.77539C321.262 2.77539 317.941 6.68164 317.062 10.0996C316.184 14.0059 314.23 16.0566 311.008 16.7402C305.734 17.8145 293.527 24.2598 291.867 26.7012C290.305 29.1426 290.305 29.5332 291.867 34.3184C292.746 37.1504 293.918 40.1777 294.406 41.1543C295.285 42.9121 295.48 42.9121 297.238 41.252C298.215 40.373 299.094 38.4199 299.094 37.0527C299.094 35.6855 299.484 33.8301 300.07 33.0488C300.852 31.877 301.34 31.877 304.27 33.2441C307.59 34.8066 307.688 35.0996 308.371 41.7402C308.762 45.5488 308.762 50.8223 308.371 53.459C307.688 58.7324 308.566 59.709 314.328 59.2207C318.43 59.0254 323.117 61.7598 323.996 64.9824L324.68 67.7168L326.34 65.4707C327.902 63.3223 328.098 63.3223 329.562 64.9824C330.441 65.959 333.176 70.6465 335.812 75.4316C340.305 83.8301 340.5 84.5137 340.793 93.2051C340.988 98.1855 341.574 103.459 342.062 104.826C342.648 106.291 343.039 108.342 343.039 109.514C343.039 111.076 344.406 112.443 347.824 114.299C352.023 116.545 352.609 117.424 353.098 120.646C353.391 122.697 354.758 127.58 356.125 131.584C359.934 142.326 359.836 142.424 352.316 142.424C347.922 142.424 344.699 143.01 342.258 144.279C338.84 146.037 338.449 146.721 335.812 155.803C334.25 161.076 332.59 167.229 332.004 169.475C330.832 174.455 327.609 175.627 322.238 173.088C319.113 171.623 318.82 171.135 319.309 168.205C320.188 162.834 318.137 159.318 312.863 157.463C307.395 155.412 303.977 152.482 303.977 149.846C303.977 148.674 305.148 145.354 306.516 142.424C309.445 136.174 309.152 129.729 305.832 129.729C304.855 129.729 300.852 126.408 296.945 122.307L289.816 114.885L280.539 115.275C273.117 115.568 269.895 116.154 264.426 118.4C260.715 119.963 257.492 121.33 257.297 121.428C257.199 121.525 257.785 123.479 258.566 125.822C259.348 128.068 260.031 130.119 260.031 130.217C260.031 130.998 234.25 144.963 218.527 152.678C213.645 155.119 208.762 158.83 201.438 165.666L191.281 175.334L196.848 181.682C199.875 185.197 202.414 188.322 202.414 188.713C202.414 189.006 197.727 192.814 191.965 197.111L181.516 204.826L179.27 214.396C178.098 219.67 177.121 225.236 177.023 226.701C177.023 228.166 176.145 231.193 175.07 233.342L173.02 237.15L174.973 260.881C176.047 273.869 177.219 288.225 177.609 292.814L178.195 301.115L171.359 303.264C165.207 305.314 162.57 305.51 145.578 305.51H126.633L120.188 310.881C115.207 315.178 113.645 317.033 113.254 319.67C112.961 321.525 111.398 324.65 109.836 326.701C106.027 331.682 102.609 344.572 101.828 356.779C101.242 366.35 101.34 366.74 104.367 372.893C106.027 376.408 107.688 380.998 108.078 383.146C108.469 385.295 108.957 388.225 109.25 389.689C109.641 391.74 109.25 392.521 106.809 393.986C104.367 395.451 103.977 396.135 104.465 398.381C105.344 402.775 104.074 406.096 101.633 406.096C100.461 406.096 98.2148 407.268 96.75 408.732C94.6016 410.783 94.0156 412.248 94.0156 415.666C94.0156 418.01 94.5039 420.744 94.9922 421.818C95.8711 423.283 95.5781 424.357 93.5273 426.994C91.1836 430.119 91.0859 430.51 92.2578 435.295C93.1367 439.201 93.1367 441.154 92.2578 443.4C91.2812 445.939 91.4766 447.111 93.0391 450.822C94.1133 453.166 94.9922 456.389 94.9922 457.853C94.9922 462.541 97.7266 467.521 101.828 470.06C104.172 471.525 105.734 473.283 105.734 474.357C105.734 476.31 110.031 480.314 112.082 480.314C112.668 480.314 114.035 481.291 115.109 482.365C117.941 485.49 124.777 488.127 130.344 488.127C134.934 488.127 135.227 488.225 134.641 490.275C134.348 491.545 134.055 494.182 134.055 496.135C134.055 498.967 133.273 500.725 130.637 503.654C128.293 506.291 127.219 508.342 127.219 510.49C127.219 513.81 130.539 521.33 132.102 521.33C133.566 521.33 137.668 527.482 138.449 530.803C139.035 533.83 138.938 534.025 136.496 534.025C132.395 534.025 119.797 541.447 118.527 544.572C117.062 547.99 119.406 554.143 124.777 561.076C128.781 566.252 129.465 571.623 126.34 572.6C124.094 573.283 119.406 572.209 119.406 571.037C119.406 569.279 113.059 566.252 109.445 566.252C106.32 566.252 104.758 567.326 96.457 574.748L87.082 583.342L87.5703 587.932C88.1562 593.693 86.1055 603.947 83.3711 608.928C82.1992 610.978 80.2461 616.057 78.9766 620.158L76.6328 627.678L83.7617 632.365C89.7188 636.271 91.8672 638.518 97.043 646.232C103.977 656.291 113.352 664.689 115.402 662.639C117.16 660.881 116.672 659.416 113.254 656.877C111.496 655.51 109.445 653.264 108.664 651.799C107.492 649.455 107.492 648.771 109.152 645.744C110.617 643.107 111.301 642.521 112.961 643.01C114.133 643.4 115.598 644.475 116.281 645.451C117.844 647.795 125.363 648.869 129.172 647.307C131.809 646.232 132.395 646.428 138.254 650.627C141.77 653.068 145.48 655.119 146.555 655.119C147.727 655.119 148.898 655.607 149.191 656.096C149.875 657.17 153.977 656.779 161.008 655.021C163.645 654.338 165.891 652.873 167.16 651.115C168.332 649.553 170.09 648.283 171.164 648.283C172.141 648.283 173.312 647.795 173.605 647.307C173.996 646.721 175.949 645.158 178.098 643.791C180.93 642.033 181.906 640.764 181.906 638.908C181.906 637.639 182.785 634.807 183.859 632.756L185.715 629.045L183.273 627.873C181.906 627.287 179.758 626.799 178.488 626.799C176.34 626.799 173.117 624.553 173.117 622.99C173.117 621.428 179.758 616.057 181.711 616.057C183.078 616.057 184.348 615.178 185.031 613.615C185.617 612.248 186.887 611.174 187.961 611.174C189.523 611.174 189.719 611.955 189.719 617.326C189.719 625.139 191.184 627.189 197.629 628.752C201.828 629.728 203.098 629.728 206.125 628.459C208.078 627.58 212.082 626.701 214.914 626.31C220.48 625.725 222.043 626.896 220.09 630.412C219.406 631.682 219.406 634.611 220.09 639.494C220.871 644.67 220.773 647.307 219.992 649.357C219.016 651.603 219.113 652.971 220.383 656.682C222.141 661.857 222.336 663.908 221.066 663.908C220.676 663.908 219.211 660.295 218.039 655.998C214.426 643.303 207.297 635.978 197.043 634.123C194.895 633.732 192.355 632.658 191.379 631.779C189.719 630.314 189.426 630.412 188.156 632.17C187.375 633.146 186.789 634.807 186.789 635.783C186.789 636.76 186.105 638.615 185.324 639.787C184.152 641.74 184.055 642.619 185.324 646.525C186.008 648.967 186.398 651.213 186.105 651.506C185.91 651.799 188.352 656.193 191.574 661.369C197.434 670.549 198.41 672.697 196.555 672.697C196.066 672.697 195.383 674.26 194.992 676.115C194.699 677.971 194.211 679.533 194.016 679.533C193.723 679.533 191.867 678.459 189.719 677.092C187.57 675.725 184.738 674.65 183.371 674.65C179.953 674.65 169.602 670.549 163.84 666.935C158.469 663.518 153.781 661.955 148.898 661.955C147.141 661.955 144.406 660.978 142.844 659.807C140.109 657.853 139.621 657.756 134.543 659.025C128.586 660.49 127.512 661.271 126.242 665.666C125.559 668.303 125.656 668.693 127.512 668.986C128.781 669.182 129.758 670.256 130.148 671.721C130.441 673.185 132.004 674.846 134.055 675.822C137.375 677.482 138.742 680.412 136.789 681.584C136.105 681.975 137.082 683.439 139.328 685.393C141.281 687.15 142.844 688.908 142.844 689.396C142.844 692.424 151.242 697.404 158.371 698.576C161.984 699.162 162.375 699.064 162.375 697.209C162.375 694.279 165.988 694.572 167.453 697.6C168.82 700.725 169.309 700.725 172.043 697.014C173.996 694.377 174.191 693.596 173.215 691.447C172.531 690.08 172.434 688.713 172.824 688.225C173.215 687.834 176.34 687.346 179.66 687.15L185.617 686.857L186.887 690.568C187.57 692.619 189.035 695.06 190.207 696.037C194.113 698.967 194.602 705.021 190.891 703.068C188.156 701.701 187.18 702.775 187.57 706.877C187.961 710.295 188.254 710.685 190.988 710.978C193.527 711.174 194.309 711.857 195.188 714.494C195.676 716.154 196.652 718.107 197.336 718.791C198.215 719.67 198.02 720.158 196.848 721.037C195.48 722.111 195.48 722.502 196.945 725.627C197.824 727.482 199.875 730.314 201.438 731.779C203.098 733.342 204.367 735.197 204.367 735.881C204.367 736.564 205.246 737.15 206.223 737.15C207.297 737.15 209.348 738.81 210.91 740.764C212.375 742.814 215.012 745.842 216.574 747.404C218.234 749.064 220.676 751.896 222.141 753.654C225.656 757.853 228.195 757.463 228.586 752.482C228.977 748.283 229.855 747.893 232.102 751.31C234.152 754.338 235.422 754.435 236.594 751.408C237.863 747.99 239.23 747.502 242.16 749.357C244.211 750.725 245.969 750.92 251.438 750.334C255.246 750.041 258.664 750.139 259.348 750.627C260.031 751.115 262.473 751.799 264.816 752.092C267.551 752.385 269.992 753.459 271.555 755.021C274.191 757.658 276.633 766.35 276.633 773.088C276.633 775.92 277.316 778.264 278.586 779.826C279.66 781.193 280.539 783.244 280.539 784.221C280.539 786.76 288.742 794.475 293.918 796.721C296.164 797.697 298.703 799.65 299.68 801.018C300.559 802.385 302.023 803.557 303 803.557C305.539 803.557 307.395 806.291 307.004 809.611C306.809 812.053 307.59 813.322 311.984 817.424C314.816 820.06 318.43 822.893 319.895 823.674C322.336 825.041 322.922 825.041 324.973 823.674C327.121 822.307 327.219 822.307 327.805 825.236C328.098 826.896 328.391 829.143 328.391 830.314C328.391 831.486 328.977 833.342 329.758 834.318C330.93 835.978 331.418 836.076 333.762 835.002C335.617 834.123 336.691 834.025 337.082 834.709C337.863 835.881 343.234 836.174 347.922 835.295C350.852 834.807 351.535 835.002 352.707 836.955C353.488 838.225 354.367 840.471 354.758 842.131C355.148 844.084 356.516 845.842 358.957 847.404C363.84 850.627 366.965 857.072 365.402 860.588C364.523 862.443 363.449 863.127 361.398 863.127C359.934 863.127 358.664 863.615 358.664 864.103C358.664 865.959 372.824 879.435 376.926 881.486C382.297 884.318 387.961 891.252 387.961 895.158C387.961 896.818 388.547 898.576 389.23 898.967C391.281 900.236 391.77 902.58 390.305 904.631C389.328 905.998 389.23 906.779 390.109 907.756C390.988 908.83 390.988 910.002 390.012 912.541C389.23 914.689 389.035 917.717 389.426 920.744C389.914 924.65 389.816 925.627 388.352 926.408C385.52 927.971 387.277 933.537 391.867 937.248C396.457 940.861 396.652 941.935 393.234 942.814L390.695 943.498L395.48 948.283C398.02 950.92 403 954.728 406.516 956.682C410.031 958.635 416.379 962.541 420.676 965.373C425.266 968.4 428.684 970.06 429.074 969.475C429.465 968.791 434.934 970.158 444.602 973.185L459.445 977.873L470.676 988.81C483.957 1001.9 486.594 1002.87 486.594 995.06C486.594 992.424 487.277 988.518 488.059 986.174C489.328 982.463 489.328 981.877 487.766 979.826C486.887 978.557 484.445 976.701 482.297 975.725C472.531 971.33 471.359 967.717 478.879 965.08C481.613 964.006 484.152 962.639 484.445 961.955C485.227 959.904 482.492 955.803 478.586 953.264C474.191 950.236 473.605 948.869 474.973 944.182C476.047 940.764 476.535 940.373 480.148 939.787C488.645 938.42 491.477 937.346 491.477 935.393C491.477 934.318 490.598 932.658 489.426 931.584C487.57 929.826 487.473 929.338 488.547 926.115C489.816 922.404 489.621 918.596 487.57 906.584C485.812 896.33 487.766 877.873 491.281 871.428C492.453 869.279 493.43 867.326 493.43 867.033C493.43 864.689 478.684 859.709 477.023 861.369C476.047 862.346 473.605 860.783 463.742 852.385C458.566 847.99 455.93 846.525 453.098 846.525C451.438 846.525 450.363 845.549 449.191 843.107C448.02 840.666 446.945 839.689 445.383 839.689C444.113 839.689 442.648 838.908 441.965 837.834C441.379 836.857 439.523 835.783 437.961 835.49C436.203 835.1 434.738 834.123 434.348 832.951C434.055 831.877 432.199 829.533 430.344 827.775C428.391 826.018 426.242 823.381 425.461 821.916C424.68 820.353 423.41 819.182 422.727 819.182C421.066 819.182 418.918 815.959 417.258 810.881C416.574 808.732 415.5 806.682 414.816 806.291C414.133 805.803 413.059 803.361 412.375 800.725C411.789 798.088 410.422 795.158 409.445 794.279C407.688 792.717 407.688 792.619 409.738 790.568L411.789 788.518L408.859 787.639C407.297 787.053 404.855 785.881 403.391 784.904C402.023 783.83 399.973 783.049 398.996 783.049C397.922 783.049 396.262 782.17 395.285 781.096C393.332 778.947 388.938 778.557 385.812 780.217C383.078 781.682 375.266 780.51 375.266 778.557C375.266 777.775 375.949 776.896 376.73 776.603C378.879 775.725 378.488 773.771 375.852 772.404C374.484 771.623 373.117 769.572 372.336 767.228C371.359 763.81 371.457 762.639 372.922 759.416C374.484 755.998 374.484 755.607 373.02 753.947C372.043 752.971 371.359 751.018 371.359 749.748C371.359 748.088 369.406 745.353 365.012 741.057C359.641 735.783 358.957 734.611 360.422 734.123C363.645 732.951 367.453 734.318 369.016 737.346C369.797 738.908 371.359 740.471 372.434 740.959C373.605 741.35 376.34 744.67 378.586 748.478C381.32 753.068 383.273 755.314 384.738 755.51C386.594 755.803 386.789 756.291 386.301 758.732C385.324 763.518 389.133 762.443 393.234 756.682C396.652 751.896 399.387 750.92 398.41 754.826C398.117 755.998 398.41 756.682 399.289 756.682C400.07 756.682 401.633 758.732 402.707 761.271L404.758 765.959L406.613 762.248C408.273 759.123 408.957 758.635 412.082 758.635C414.035 758.635 416.477 757.853 417.453 756.975C419.113 755.51 419.504 755.51 422.727 756.975C424.582 757.951 427.121 758.439 428.391 758.049C429.66 757.756 431.027 757.951 431.32 758.537C431.711 759.123 433.859 759.611 436.105 759.611C439.035 759.611 441.672 760.588 445.48 763.029C450.363 766.154 451.145 766.35 456.32 765.764C461.984 765.178 466.281 766.545 468.918 769.768C470.578 771.818 471.945 771.721 471.945 769.768C471.945 768.889 473.508 765.959 475.363 763.42C479.27 757.853 479.27 758.049 477.219 757.268C476.34 756.877 474.289 757.853 472.141 759.611L468.527 762.541L467.941 759.416C467.648 757.658 467.062 755.021 466.672 753.654C466.184 751.799 466.477 750.627 467.648 749.357C469.309 747.795 469.406 747.795 470.676 749.455C471.359 750.432 471.75 751.799 471.555 752.385C471.262 753.068 472.727 754.24 474.973 755.119C478.488 756.486 479.074 756.486 482.199 755.021C484.445 753.947 485.617 752.678 485.617 751.408C485.715 750.236 486.301 748.283 487.082 746.916C487.863 745.549 488.449 742.814 488.547 740.764C488.547 737.443 488.742 737.15 491.281 737.15C493.723 737.15 494.406 736.369 496.75 731.389C498.996 726.799 500.266 725.334 503.293 724.064C507.492 722.209 507.688 721.428 505.93 713.81C504.953 709.514 505.051 708.635 506.516 706.975C507.395 705.998 508.664 703.459 509.152 701.408C510.52 696.525 517.258 689.494 521.359 688.713C527.902 687.541 534.543 678.557 539.816 663.713C541.086 660.1 542.355 658.537 546.262 656.096C549.777 653.752 551.047 652.385 551.047 650.627C551.047 649.26 552.023 647.697 553.391 646.818C555.051 645.744 556.027 643.889 556.418 641.154C556.906 638.322 558.957 634.611 562.863 629.338C567.941 622.404 568.625 621.037 568.625 616.935V612.346L576.926 607.658C581.418 605.119 586.496 601.701 588.059 600.041C591.281 596.721 591.574 594.963 590.5 583.732C589.719 575.529 590.891 573.088 601.926 559.416C606.418 553.752 610.812 548.185 611.691 547.014C612.668 545.646 614.426 544.768 616.965 544.572C620.383 544.279 620.969 543.791 623.215 539.494C624.875 536.467 627.805 533.049 631.418 530.314C636.398 526.408 637.277 526.018 639.426 526.994C640.695 527.58 642.551 529.533 643.43 531.291C644.309 533.049 646.555 536.076 648.41 538.029C651.73 541.545 651.73 541.643 650.559 545.549C649.387 549.455 649.484 549.65 654.953 558.635C657.98 563.713 660.422 568.4 660.422 569.279C660.422 570.256 658.762 571.232 655.539 572.014C651.73 572.99 650.559 573.771 650.07 575.627C649.68 576.896 649.973 578.654 650.656 579.435C651.535 580.51 651.535 581.584 650.754 583.928C648.703 589.689 649.484 598.478 652.609 607.268C656.516 617.814 656.906 618.596 660.52 620.646C662.18 621.623 664.816 624.553 666.379 627.092C668.82 631.096 670.383 632.268 676.633 635.197C680.637 637.053 684.445 638.518 685.129 638.518C685.812 638.518 688.156 636.271 690.5 633.635C694.406 629.143 695.09 628.752 698.996 628.752C702.707 628.752 703.586 628.361 705.051 626.018C705.93 624.553 706.809 623.185 707.004 622.99C707.102 622.795 708.957 623.771 711.105 625.139C714.719 627.58 715.012 627.58 716.477 625.92C717.355 624.943 718.039 623.381 718.039 622.307C718.039 618.303 719.211 616.057 721.262 616.057C722.434 616.057 724.777 614.689 726.535 612.932C729.562 610.002 729.855 609.904 733.371 610.978C735.422 611.564 742.062 612.541 748.02 613.127C763.059 614.494 762.57 614.885 764.523 600.236L765.109 595.646L773.508 592.912C780.637 590.568 782.004 589.787 782.883 587.443C783.762 585.1 784.348 584.709 786.594 585.197C790.598 585.978 792.844 582.072 794.699 571.037C797.434 555.314 799.094 548.381 802.023 541.35C803.684 537.346 805.051 532.365 805.148 529.24L805.441 524.064L800.559 521.232C796.652 519.084 793.527 518.205 785.91 517.424C773.703 516.057 770.969 515.178 762.57 510.295C753.977 505.217 749.875 499.846 750.754 494.963C751.926 488.225 756.223 481.682 765.988 471.721C777.121 460.49 778.684 459.807 794.504 459.807H803.391L811.301 465.08L819.113 470.451L837.766 471.037L856.418 471.721L857.59 468.596C859.055 464.201 858.957 460.393 857.199 456.193C855.246 451.506 855.344 445.842 857.59 441.447C859.348 438.029 860.129 437.541 868.527 434.904C873.898 433.146 879.367 430.705 881.906 428.752L886.105 425.627L893.234 427.482L900.461 429.24L903.195 427.092C905.148 425.627 908.664 424.553 914.328 423.674C918.918 422.99 922.922 422.307 923.215 422.111C923.605 421.916 923.215 419.084 922.434 415.861C921.066 410.783 920.676 410.002 918.625 410.002C915.402 410.002 912.375 404.924 912.375 399.26C912.277 393.596 911.398 392.228 902.609 383.928C898.605 380.119 893.332 374.357 890.891 371.037C886.887 365.666 885.812 364.885 878.977 362.248C874.875 360.588 869.602 358.83 867.258 358.244C864.914 357.56 854.758 353.654 844.504 349.455C826.242 341.935 825.852 341.838 820.09 342.619C816.77 343.01 812.863 343.986 811.301 344.768C808.664 346.135 807.785 346.135 802.316 344.572C795.383 342.717 790.207 339.103 786.984 334.025C784.836 330.607 784.738 329.924 785.52 322.111C786.008 317.521 786.594 313.322 786.789 312.736C787.082 311.857 784.543 306.486 782.98 304.728C782.785 304.533 779.562 303.557 775.656 302.58C766.77 300.334 758.762 294.572 757.004 289.201C756.418 287.15 753.781 283.244 751.242 280.51C747.824 276.701 745.969 273.283 743.625 266.74C739.914 256.486 736.691 252.775 731.613 252.775C728.684 252.873 727.707 253.557 723.215 259.514C718.527 265.666 717.844 266.154 712.961 267.228C700.852 269.768 702.121 269.963 699.582 264.787C694.016 253.068 689.426 249.26 671.164 241.057C649.289 231.193 627.805 224.455 617.941 224.455C615.598 224.455 612.668 224.064 611.398 223.576C608.566 222.502 601.828 213.908 595.188 202.971C590.012 194.475 585.715 190.08 578.879 186.564C575.656 185.002 574.68 183.732 573.41 179.826C572.531 177.287 567.551 168.986 562.277 161.467C557.102 153.947 551.535 145.354 550.07 142.424C548.02 138.42 545.969 136.076 541.965 133.342C538.938 131.291 535.324 127.971 533.762 126.018C532.297 123.967 526.926 118.107 521.848 112.834C515.207 105.998 511.984 103.361 510.324 103.361C507.102 103.361 494.992 96.2324 489.523 91.1543C483.566 85.5879 477.023 81.291 453.098 67.3262C437.961 58.5371 431.418 54.1426 427.902 50.334L423.02 45.2559L423.41 34.709C423.703 24.9434 423.898 24.0645 426.34 21.5254C428.977 18.791 429.758 16.0566 428.098 15.0801C425.852 13.7129 412.863 11.3691 403.195 10.5879L392.453 9.80664L388.254 12.6387C382.395 16.7402 378 18.4004 373.312 18.4004C371.164 18.4004 368.332 18.9863 367.16 19.7676C365.988 20.5488 363.059 21.4277 360.617 21.8184C357.004 22.3066 355.832 23.0879 353.977 25.8223C352.707 27.7754 351.047 29.1426 349.875 29.1426C348.117 29.1426 347.922 28.459 347.922 23.4785C347.922 18.5957 347.434 17.3262 344.504 13.5176C342.551 11.0762 340.109 7.6582 339.035 5.90039C337.863 4.24023 336.203 2.77539 335.227 2.77539C334.25 2.77539 332.98 2.0918 332.297 1.31055C330.832 -0.447266 330.539 -0.447266 327.414 1.31055Z" fill="white"/>
<circle id="452" cx="441" cy="682" fill="#5CE50D"/>
<circle id="453" cx="296" cy="490" fill="#E52A0D"/>
<circle id="454" cx="381" cy="877" fill="#E52A0D"/>
<circle cx="723" cy="553" fill="#E52A0D"/>
</svg>
