<svg width="1000" height="1000" viewBox="0 0 1000 1000" fill="none" xmlns="http://www.w3.org/2000/svg">
<path fill-rule="evenodd" clip-rule="evenodd" d="M667.855 0.078125C669.515 0.078275 672.738 3.88676 672.738 5.9375C672.738 7.01172 673.421 8.18359 674.203 8.47656C674.984 8.7696 675.57 10.1368 675.472 11.6016C675.374 13.0664 675.667 15.5078 676.156 17.168L676.937 20.0977L674.789 18.1445C673.128 16.6797 672.445 16.5821 671.859 17.4609C671.273 18.4375 670.785 18.3398 669.808 17.168C669.125 16.3868 668.246 15.7032 667.757 15.7031C666.292 15.7031 666.781 18.8281 668.539 20.0977C670.394 21.4648 669.417 23.5156 666.781 23.5156C665.804 23.5156 664.925 23.9062 664.925 24.4922C664.925 25.8594 668.246 25.6641 669.613 24.2969C670.589 23.3204 671.078 23.3203 671.664 24.3945C672.738 26.1523 674.691 24.8828 674.691 22.4414C674.691 18.5352 678.011 20.8789 679.476 25.7617C680.843 30.1562 681.039 30.3516 684.652 30.3516C687.874 30.3516 688.363 30.6446 688.851 32.9883C689.242 34.5508 689.828 36.5039 690.414 37.3828C691.683 39.8242 691.585 44.3162 690.218 43.4375C687.972 42.0703 690.414 50.2734 693.05 53.0078C694.71 54.8633 695.589 56.8164 695.589 59.1602C695.687 63.1641 697.64 63.75 699.3 60.1367C699.984 58.6719 700.863 57.9883 701.644 58.4766C703.597 59.6486 710.14 69.8047 710.042 71.5625C710.042 72.5391 710.531 73.3203 711.214 73.3203C711.8 73.3205 713.363 75.2736 714.535 77.6172C716.097 81.0351 716.488 83.086 716.097 86.6992C715.707 90.1172 715.999 92.5586 717.464 95.9766C718.538 98.4178 719.222 100.664 718.929 100.957C718.734 101.25 719.32 102.324 720.394 103.398C721.664 104.668 722.738 107.891 723.519 112.48C724.203 116.484 725.277 120.684 726.058 121.855C726.839 123.027 727.425 124.98 727.425 126.055C727.425 127.227 727.914 129.082 728.597 130.254C729.769 132.402 731.234 146.563 731.722 160.918C731.917 165.703 732.503 169.609 733.285 170.488C734.066 171.465 734.457 173.809 734.261 176.641C733.382 189.336 733.773 193.926 736.117 197.637C737.386 199.687 738.07 202.031 737.777 202.91C737.093 204.57 739.535 211.797 742.953 218.34C744.124 220.391 745.003 222.832 745.003 223.711C745.003 224.59 746.175 226.348 747.542 227.715C750.96 230.938 754.476 237.969 755.16 243.242C756.136 249.688 753.597 259.746 748.519 270.391C745.98 275.371 744.027 280.059 744.027 280.742C744.027 282.402 741.195 287.969 740.023 288.652C739.535 289.043 738.46 290.703 737.777 292.559C736.117 296.562 732.699 297.344 729.671 294.512C728.499 293.438 726.253 291.582 724.593 290.312C722.249 288.457 721.566 287.285 721.566 284.551C721.566 282.012 720.882 280.352 719.027 278.691C716.878 276.738 716.585 275.762 716.976 272.93C717.464 270 717.269 269.414 715.121 268.633C712.972 267.754 712.777 267.266 712.972 262.383C713.07 259.453 712.874 256.719 712.582 256.328C712.191 256.035 709.261 256.035 705.941 256.426C700.082 257.109 699.789 257.305 697.054 261.602C695.296 264.336 694.417 266.777 694.906 267.656C695.199 268.438 695.589 270.391 695.687 272.051C695.785 273.613 696.859 277.129 697.933 279.668C699.105 282.305 700.374 285.527 700.667 286.797C700.96 288.066 701.644 289.141 702.23 289.141C702.718 289.141 702.425 290.117 701.644 291.289C699.593 294.219 699.691 301.738 701.839 304.375C702.718 305.547 704.867 307.207 706.527 307.988C711.605 310.527 712.289 311.992 710.433 316.484C708.773 320.586 709.164 328.203 711.019 328.203C712.581 328.204 710.531 338.262 708.187 341.68C707.015 343.535 705.941 345.684 705.941 346.367C705.941 347.051 705.062 348.125 703.988 348.711C700.863 350.371 701.546 354.082 705.453 356.523C710.433 359.648 709.847 361.016 703.304 361.699C694.515 362.48 692.562 363.848 689.242 370.977C687.679 374.492 686.41 378.105 686.41 379.18C686.41 380.156 684.847 384.062 682.992 387.773C679.574 394.609 678.695 398.809 680.55 399.98C681.136 400.274 681.527 401.836 681.527 403.496C681.527 405.254 682.015 406.328 682.894 406.328C683.675 406.328 684.164 407.402 684.164 408.965C684.164 410.527 684.749 414.531 685.433 418.047C686.703 424.102 686.605 424.785 684.066 432.207C681.039 440.898 679.281 451.934 680.55 454.18C681.136 455.156 680.746 456.328 679.574 457.598C678.304 458.965 677.23 462.383 676.449 467.363C675.765 471.953 674.398 476.641 673.128 478.691C671.957 480.547 669.613 486.309 668.05 491.387C664.632 501.836 661.312 510.527 657.015 519.609C654.378 525.176 652.132 532.109 649.203 544.512C648.617 546.562 646.761 551.445 644.906 555.254C642.855 559.551 641.097 565.605 640.023 571.367C639.242 576.445 638.265 581.523 638.07 582.598C637.386 586.504 631.722 600.664 628.011 608.184C625.667 612.871 622.835 621.27 620.589 629.961C615.023 651.836 612.289 660.039 610.433 661.113C609.066 661.992 609.066 662.285 610.042 662.969C611.214 663.75 611.019 665.215 609.261 671.074C608.089 675.078 606.722 680.938 606.234 684.062C605.746 687.187 604.476 691.191 603.402 692.949C602.328 694.707 600.57 699.492 599.496 703.594C598.519 707.598 597.25 711.797 596.761 712.676C596.175 713.652 595.101 717.07 594.32 720.293C593.539 723.516 590.121 731.719 586.898 738.457C583.578 745.195 580.941 751.347 580.941 752.031C580.941 753.398 576.449 766.875 575.082 769.512C574.691 770.391 573.519 776.348 572.542 782.793C570.199 798.906 567.855 809.551 565.804 813.555C564.828 815.41 564.046 819.316 563.949 822.344C563.851 826.348 562.679 830.254 559.554 837.48C555.16 847.344 554.281 850.664 552.523 862.871C551.449 870.391 546.566 882.305 543.441 885.234C542.269 886.211 541.878 887.285 542.464 887.48C543.343 887.774 537.581 900.664 535.14 903.887C534.749 904.375 533.382 908.77 532.21 913.555C531.039 918.242 529.183 923.906 528.109 925.957C527.132 928.008 525.96 931.816 525.57 934.355C525.277 937.09 524.007 940.215 522.64 941.777C521.468 943.34 520.394 945.879 520.394 947.441C520.394 949.102 519.906 950.273 519.124 950.273C518.343 950.273 517.855 951.25 517.855 952.422C517.953 953.887 517.171 954.668 515.316 955.254C513.851 955.645 511.605 957.207 510.238 958.77C508.089 961.211 507.601 961.406 505.746 960.234C503.988 959.16 503.206 959.453 499.105 962.871C496.566 964.922 492.66 967.559 490.414 968.73C486.312 970.781 486.117 970.781 481.234 969.219C476.253 967.559 475.96 967.559 466.292 970.195C460.824 971.66 454.281 973.223 451.546 973.613C445.882 974.492 423.226 986.113 417.855 990.898C411.703 996.367 407.601 997.832 395.882 998.516C390.023 998.809 383.968 999.395 382.503 999.688C380.16 1000.18 379.769 999.98 379.769 998.223C379.769 996.563 378.304 995.391 372.738 992.852C367.171 990.312 365.218 988.848 363.851 986.211C362.191 983.086 361.312 982.598 352.621 980.156C347.445 978.691 338.949 977.227 333.871 976.836L324.593 976.152L323.714 971.953C323.128 969.707 322.347 967.852 321.859 967.852C321.371 967.852 319.32 966.582 317.367 965.02C315.414 963.457 312.289 961.992 310.531 961.797C308.48 961.602 306.82 960.723 306.136 959.551C305.55 958.477 304.574 957.305 303.988 956.914C303.304 956.523 302.523 954.766 302.23 953.008C301.839 951.25 300.081 947.344 298.226 944.414C294.613 938.848 294.124 936.699 295.785 933.574C296.761 931.914 295.491 930.254 286.703 921.172L276.546 910.625L275.863 901.152C275.472 895.977 275.472 891.191 275.863 890.605C276.156 890.019 275.96 882.402 275.277 873.711C273.812 855.254 274.105 852.617 278.109 852.617C281.331 852.617 282.406 851.738 281.136 850.176C280.453 849.395 280.453 848.125 281.039 846.465C281.917 844.316 281.429 843.535 276.546 838.848C272.054 834.551 271.273 833.281 271.761 831.133C271.956 829.668 271.956 826.055 271.664 823.125C271.175 818.34 270.589 817.168 266.097 812.383C255.648 801.25 253.597 797.832 251.253 787.48C249.984 782.207 249.007 776.543 248.91 774.98C248.91 771.758 246.468 763.066 245.101 761.406C244.71 760.82 244.515 758.672 244.71 756.621C245.199 753.398 245.492 753.008 248.031 753.008C250.081 753.008 250.667 752.617 250.277 751.543C249.886 750.762 249.105 750.078 248.324 750.078C244.71 750.078 244.027 738.262 247.445 734.453C248.226 733.574 248.91 731.914 248.91 730.84C248.91 729.766 249.593 728.301 250.374 727.617C251.546 726.641 251.839 726.641 251.839 728.008C251.839 728.887 252.23 729.57 252.718 729.57C253.206 729.57 253.304 727.715 253.109 725.371C252.718 721.758 253.109 720.488 255.843 716.582C257.601 714.043 259.749 711.992 260.628 711.992C262.191 711.992 262.191 711.504 261.019 706.914C259.359 700.762 259.359 697.93 260.628 691.777C261.507 687.773 262.289 686.797 265.316 685.137C267.367 684.062 271.761 683.086 275.667 682.695C281.429 682.305 282.699 681.816 284.164 679.766C286.019 677.324 287.582 671.074 288.851 661.699C289.828 654.57 295.882 644.609 299.203 644.609C301.253 644.609 305.55 636.602 305.55 632.695C305.55 630.254 306.527 627.91 308.968 624.688C310.921 622.246 312.874 620.195 313.363 620.195C313.851 620.195 316.39 615.898 318.929 610.723C321.468 605.547 324.984 599.785 326.742 598.125C328.499 596.367 330.16 593.828 330.55 592.461C330.843 591.094 331.722 589.531 332.503 588.848C333.285 588.262 333.871 587.09 333.871 586.211C333.871 584.453 330.062 578.106 328.207 576.641C326.351 575.273 327.132 571.074 330.55 563.066C333.968 555.059 333.675 552.031 328.499 544.023C326.058 540.41 324.105 537.09 324.105 536.699C324.105 536.211 323.128 534.551 321.859 532.891C320.589 531.23 318.441 527.812 316.976 525.176C314.339 520.781 314.339 520.293 315.316 514.629C315.902 511.309 316.781 507.598 317.269 506.328C317.953 504.57 317.464 502.226 314.828 495.977C312.972 491.582 311.41 487.383 311.41 486.699C311.41 486.016 310.14 484.258 308.48 482.891C304.867 479.57 302.718 472.93 302.816 465.41C302.914 462.09 302.035 455.449 300.667 450.078C298.421 440.801 298.421 440.41 299.984 435.332C302.23 428.301 302.035 425.859 299.398 422.148C298.128 420.488 296.273 417.363 295.394 415.215C293.734 411.699 293.734 411.016 295.199 406.23C295.98 403.301 298.421 398.027 300.667 394.414C302.816 390.801 304.574 387.48 304.574 386.895C304.574 386.309 305.453 385.43 306.527 384.844C307.601 384.258 308.48 382.988 308.48 382.012C308.48 379.961 314.046 370.781 317.171 367.656C318.246 366.582 319.808 364.043 320.687 362.09C321.468 360.234 322.542 358.379 323.128 357.988C323.617 357.695 324.105 356.523 324.105 355.547C324.105 354.473 325.57 352.52 327.425 351.055C330.55 348.516 330.648 348.32 329.671 344.023C328.89 340.312 329.085 339.141 330.843 336.016C333.578 331.133 333.48 329.863 329.964 325.957L327.132 322.637L328.89 316.387C330.55 310.43 330.843 310.137 333.48 310.332C335.043 310.527 340.707 310.918 346.078 311.211C351.449 311.602 356.429 312.285 357.113 312.871C357.992 313.555 358.871 313.359 360.042 312.188C361.019 311.309 362.582 310.625 363.46 310.625C364.339 310.625 365.121 310.234 365.121 309.844C365.121 309.453 366.488 308.281 368.148 307.305C369.808 306.328 372.64 303.496 374.496 300.957C377.816 296.172 384.261 292.266 386.898 293.34C388.656 294.024 389.73 300.566 388.558 302.812C387.191 305.449 388.265 305.645 392.464 303.594C396.077 301.738 397.64 299.883 395.394 299.883C394.906 299.883 394.417 299.004 394.417 298.027C394.417 296.074 395.492 295.684 404.476 294.414L409.066 293.828V296.855C409.066 299.004 409.554 299.883 410.628 299.883C411.8 299.883 412.093 299.297 411.605 297.539C411.312 296.172 411.507 294.805 412.093 294.414C412.777 294.023 412.972 292.266 412.679 290.02C412.289 287.188 412.679 285.918 414.046 284.648C415.023 283.77 415.902 282.402 415.902 281.621C415.902 280.156 417.464 279.863 418.246 281.23C419.32 282.891 426.937 283.184 429.769 281.719C433.285 279.863 436.214 280.742 436.996 283.77C437.679 286.406 443.246 287.969 443.246 285.43C443.246 284.648 442.66 284.258 441.781 284.648C439.437 285.527 440.023 281.914 442.562 279.668C446.273 276.25 449.007 275.273 453.011 275.957C456.234 276.543 456.82 277.031 457.113 279.57C457.406 281.328 457.113 282.695 456.332 282.988C455.453 283.281 455.746 284.355 457.406 286.895C458.675 288.75 460.042 291.094 460.335 292.07C461.117 294.414 464.73 294.219 464.73 291.875C464.73 289.824 466.683 289.531 468.441 291.289C470.296 293.144 469.71 290.801 467.757 288.359C466.683 287.188 465.023 286.211 463.851 286.211C461.117 286.211 460.433 284.648 462.191 282.109C463.07 280.937 463.753 277.91 463.753 275.469C463.753 269.805 467.953 264.434 474.398 261.602C476.839 260.625 480.843 257.891 483.285 255.547C489.632 249.492 499.496 241.484 502.914 239.824C506.234 238.066 507.699 238.555 507.699 241.582C507.699 243.047 508.773 244.316 511.117 245.586C514.339 247.344 514.437 247.539 512.972 249.98C512.191 251.348 510.726 253.691 509.554 255.059C507.406 257.793 505.453 264.727 506.82 264.727C507.308 264.726 507.699 263.848 507.699 262.773C507.699 261.504 508.382 260.82 509.457 260.82C510.433 260.82 512.875 259.941 515.023 258.867C517.171 257.793 520.296 256.914 522.054 256.914C525.667 256.914 526.156 255.937 523.421 254.277C522.445 253.691 520.589 251.152 519.417 248.711C518.246 246.27 516.781 244.219 516.097 244.219C514.144 244.219 512.484 239.629 513.46 237.188C513.949 235.918 516.488 233.086 519.027 230.938C521.859 228.594 524.593 225.078 525.765 222.539C527.328 218.926 528.304 217.949 531.039 217.266C532.894 216.777 534.554 215.801 534.847 215.117C535.14 214.238 534.554 214.043 532.796 214.434C527.23 215.898 529.183 210.527 536.8 203.691C541.781 199.297 542.855 199.785 543.832 207.109C544.417 211.309 544.124 212.578 541.683 216.582C539.632 220.098 538.949 222.539 538.949 226.445V231.621L541.878 230.059C543.539 229.18 544.808 227.715 544.808 226.641C544.808 225.664 545.687 224.492 546.761 224.199C548.128 223.809 548.714 222.734 548.714 220.977C548.714 219.512 549.3 217.461 550.082 216.387C550.765 215.312 552.621 212.187 554.085 209.551C556.82 204.668 564.242 194.414 565.023 194.414C566.488 194.414 573.128 199.004 573.128 199.98C573.128 200.664 573.617 201.25 574.105 201.25C574.691 201.25 575.082 200.371 575.082 199.297C575.082 196.562 576.839 196.855 578.207 199.785C578.792 201.152 579.671 202.227 580.16 202.227C581.722 202.226 579.867 197.93 576.937 195C574.398 192.363 574.007 192.168 571.761 193.438C569.906 194.414 568.929 194.414 567.953 193.535C567.171 192.949 565.316 192.754 563.46 193.047C560.238 193.73 560.335 193.828 559.945 188.066C559.847 186.406 559.457 184.062 559.164 182.695C558.675 180.938 559.066 179.277 560.628 176.836C561.8 174.98 563.363 171.855 563.949 170C564.632 167.754 565.511 166.777 566.39 166.973C567.171 167.266 569.613 167.559 571.761 167.852C575.472 168.145 575.863 168.047 576.449 165.605C576.937 163.75 576.644 162.383 575.472 161.113C573.226 158.672 574.105 157.988 577.816 159.355C581.234 160.527 581.527 161.504 579.476 165.117C578.695 166.484 578.109 169.121 578.011 170.977C578.011 174.199 578.011 174.297 579.476 172.246C580.257 171.074 580.746 169.512 580.453 168.828C580.16 168.047 580.55 165.898 581.332 164.043C583.187 159.551 582.406 156.816 578.988 155.352C575.179 153.789 574.691 151.934 577.621 150.078C580.453 148.125 580.648 146.563 578.109 146.562C574.398 146.562 573.128 145.293 571.566 140.117C570.296 135.625 570.296 134.648 571.468 132.207C572.249 130.645 572.64 128.105 572.445 126.25C572.054 123.711 572.445 122.637 574.496 120.684C575.863 119.414 577.035 117.656 577.035 116.777C577.035 115.996 577.523 115.312 578.011 115.312C578.597 115.313 578.988 115.996 578.988 116.777C578.988 118.73 579.964 118.633 581.624 116.484C582.894 114.922 582.992 114.922 584.164 116.68C584.847 117.754 586.507 119.707 587.874 121.074C589.339 122.441 591.292 126.152 592.269 129.277C593.246 132.305 594.71 135.527 595.687 136.406C597.152 137.773 597.542 137.676 599.789 135.625C602.035 133.672 602.425 132.5 602.718 125.078C603.011 120.293 603.597 116.68 604.281 116.484C604.867 116.289 605.355 116.582 605.355 117.168C605.355 117.949 605.941 117.949 607.308 117.266C608.382 116.777 610.042 115.898 611.019 115.41C612.093 114.922 613.46 114.922 614.437 115.508C616.488 116.582 616.585 115.605 614.632 111.113C613.851 109.16 613.265 105.449 613.265 102.91L613.363 98.2227L614.925 103.301C616.976 109.844 618.929 110.82 626.449 108.867C632.601 107.305 634.652 105.547 634.652 102.031C634.652 100.762 635.238 99.1992 635.921 98.5156C636.605 97.8319 637.289 94.8046 637.289 91.6797C637.386 87.4805 638.265 84.2578 640.804 78.9844C645.003 70.1954 645.98 64.2383 643.929 61.3086C643.148 60.1367 642.464 57.9883 642.464 56.5234C642.464 55.0587 641.976 53.5938 641.39 53.2031C640.707 52.8125 640.511 51.0547 640.804 48.7109C641.195 45.9767 640.999 45.0001 640.121 45.1953C638.753 45.4883 633.675 40.0195 633.675 38.2617C633.675 37.5782 632.992 36.8946 632.21 36.6016C631.039 36.1133 630.941 35.7227 631.917 34.5508C633.578 32.5977 638.363 33.6719 641.585 36.7969L644.222 39.3359L645.882 36.8945C646.761 35.5273 647.542 33.3789 647.542 32.1094C647.738 29.082 651.058 25.4688 653.792 25.4688C654.964 25.4687 656.136 24.7851 656.527 24.0039C656.82 23.2227 657.992 22.5391 659.066 22.5391C660.335 22.539 661.019 21.8554 661.019 20.5859C661.019 19.5117 661.507 17.7539 662.191 16.7773C663.558 14.5313 661.8 11.7969 658.968 11.7969C656.332 11.7969 656.722 10.625 660.433 7.89062C662.191 6.62108 664.339 4.27733 665.218 2.8125C666.097 1.34767 667.269 0.078125 667.855 0.078125ZM324.984 968.828C324.593 968.828 324.496 969.707 324.789 970.781C325.082 971.953 326.156 972.734 327.328 972.734C329.183 972.734 329.281 972.637 327.523 970.781C326.546 969.707 325.472 968.828 324.984 968.828ZM661.8 7.89062C661.214 7.89062 661.214 8.47656 661.996 9.35547C663.363 11.0156 664.535 10.6249 663.46 8.96484C663.167 8.37894 662.386 7.89068 661.8 7.89062Z" fill="white"/>
<path d="M717.757 354.082C719.613 349.102 721.566 347.637 721.566 351.25C721.566 355.742 708.578 381.425 706.82 380.449C705.941 379.863 708.187 373.418 709.945 371.66C710.433 371.172 710.824 369.609 710.824 368.242C710.824 366.777 711.898 364.629 713.265 363.359C714.632 362.09 715.707 360.723 715.707 360.332C715.707 359.844 716.585 357.109 717.757 354.082Z" fill="white"/>
<path d="M603.89 110.43C604.671 110.43 605.355 110.625 605.355 110.82C605.355 111.016 605.648 111.992 606.039 112.871C606.527 114.336 606.332 114.434 604.574 113.457C603.402 112.773 602.425 111.895 602.425 111.406C602.425 110.82 603.109 110.43 603.89 110.43Z" fill="white"/>
<path d="M600.374 91.875C602.23 91.875 602.425 92.5588 603.988 103.789L604.476 107.5H600.472C595.296 107.5 592.66 104.863 592.66 99.8828C592.66 96.2696 592.757 96.1719 595.589 96.5625C598.226 96.9531 598.519 96.6601 598.519 94.4141C598.519 92.5586 599.007 91.875 600.374 91.875Z" fill="white"/>
<circle id="404" cx="542" cy="497" fill="#5CE50D"/>
<circle id="405" cx="677" cy="443" fill="#E52A0D"/>
<circle cx="344" cy="567" fill="#E52A0D"/>
<circle id="1395" cx="284" cy="832" fill="#E52A0D"/>
</svg>
