<svg width="1000" height="1000" viewBox="0 0 1000 1000" fill="none" xmlns="http://www.w3.org/2000/svg">
<path d="M696.958 112.31C687.387 116.704 686.411 117.388 686.411 119.829C686.411 124.224 682.798 126.665 676.157 126.665C670.395 126.665 670.298 126.763 664.829 132.134C659.458 137.505 659.165 137.603 656.04 136.529C652.622 135.357 650.766 136.138 649.79 139.458C649.302 141.021 648.52 141.216 643.637 140.728C638.95 140.24 636.899 140.63 630.552 143.072C623.911 145.611 622.544 145.904 618.149 145.025C614.243 144.341 612.583 144.439 610.141 145.806L607.016 147.369L600.571 141.021C595.2 135.747 593.442 134.576 590.024 134.185C587.29 133.892 583.969 132.232 579.77 129.204C574.399 125.396 573.032 124.908 570.591 125.591C567.759 126.275 567.759 126.47 567.661 133.501L567.563 140.63L563.266 142.876C558.286 145.513 556.528 145.708 556.528 143.853C556.528 142.388 552.329 141.314 546.177 141.314C542.856 141.314 541.88 140.923 541.391 139.361C540.61 136.822 535.141 134.478 532.895 135.65C531.919 136.138 530.844 137.701 530.552 139.165C530.161 140.63 528.891 143.658 527.524 145.904C525.278 150.005 524.985 150.103 520.395 150.103C516.489 150.103 515.512 150.396 515.512 151.665C515.512 152.544 513.559 154.986 511.118 157.134C507.407 160.357 506.723 161.626 506.723 164.556C506.723 170.22 505.649 171.197 501.059 169.829C494.712 167.876 489.927 168.365 486.899 171.099C485.434 172.466 484.262 174.126 484.262 174.712C484.262 175.396 483.091 177.056 481.723 178.521L479.184 181.158L474.692 178.326C471.665 176.47 468.93 175.494 466.294 175.494C464.048 175.396 461.216 174.81 459.848 174.029C458.481 173.247 455.942 172.661 454.184 172.564C452.329 172.564 450.766 171.978 450.473 171.099C450.083 170.22 448.618 169.634 446.762 169.634C445.102 169.634 442.856 168.951 441.88 168.169C439.243 166.119 437.876 166.314 433.677 169.146C430.649 171.099 429.477 171.392 427.036 170.708C424.985 170.122 423.52 170.22 422.251 171.197C421.274 171.978 418.735 172.564 416.684 172.564C413.462 172.564 412.973 172.271 412.973 170.318C412.973 166.704 408.286 163.286 399.692 160.454C393.345 158.404 391.294 158.013 389.145 158.892C387.68 159.38 385.434 159.869 384.067 159.869C382.114 159.869 381.723 160.357 381.723 163.091C381.723 164.849 381.04 167.29 380.161 168.462C378.696 170.611 378.794 171.001 381.235 174.615C382.602 176.861 383.579 178.814 383.286 179.204C382.7 179.79 379.38 178.814 371.86 175.982C368.93 174.81 366.294 174.419 364.048 174.908C361.216 175.396 360.239 176.372 357.505 181.353C355.649 184.576 353.598 187.212 352.817 187.212C352.036 187.212 350.473 189.068 349.399 191.411C347.544 195.22 347.055 195.611 344.321 195.22L341.391 194.732L341.977 199.517C342.466 203.814 342.173 204.693 338.755 209.478C335.825 213.579 335.141 215.142 335.727 216.802C336.411 218.56 335.532 220.513 331.235 226.568L325.962 234.185L327.427 238.775C328.989 243.072 328.891 243.267 326.841 245.513C325.669 246.783 324.204 247.759 323.618 247.759C322.934 247.759 321.665 248.736 320.591 249.81C318.833 251.763 318.052 251.861 310.141 251.275C298.227 250.494 298.13 250.396 297.446 241.021C296.86 233.208 296.762 233.013 287.973 218.658C283.188 210.65 279.184 203.228 279.184 202.251C279.184 200.786 277.231 199.712 270.395 197.271C261.899 194.244 261.411 194.244 257.895 195.611C255.942 196.49 253.11 198.247 251.743 199.517C250.376 200.786 246.665 202.837 243.54 204.107C238.364 206.158 237.68 206.646 236.411 210.454C234.555 216.021 228.989 219.732 212.485 226.275C201.841 230.474 199.399 231.06 196.762 230.376C194.223 229.595 193.052 229.888 190.317 231.744C188.462 233.013 186.411 234.087 185.727 234.087C185.044 234.087 184.458 235.064 184.458 236.236C184.36 237.505 182.505 240.533 180.259 243.072L176.157 247.661L165.903 249.224C156.919 250.591 155.259 251.079 152.622 253.716C150.18 256.06 147.934 257.036 141.391 258.306C134.36 259.771 133.188 260.259 132.895 262.115C132.7 263.286 130.552 266.119 128.012 268.365C124.204 271.978 123.618 273.052 123.813 275.982C123.911 278.619 123.325 279.986 120.884 282.525L117.759 285.747L118.247 297.173C118.735 308.208 118.93 308.794 121.372 310.747C122.837 311.919 124.302 314.165 124.79 315.728C125.766 319.341 124.497 325.005 122.446 326.079C121.177 326.861 121.47 327.642 124.497 331.353C127.622 335.064 127.915 336.04 127.427 339.068C127.036 341.021 126.059 342.876 125.278 343.169C124.595 343.462 123.911 344.634 123.911 345.806C123.911 348.443 123.13 349.419 119.419 351.958C117.466 353.423 115.61 356.158 114.048 360.161C111.606 366.411 111.313 366.607 102.817 369.244C100.18 370.025 97.2508 371.001 96.3718 371.294C95.2 371.783 94.5164 371.001 93.6375 368.169C92.9539 366.119 92.1726 364.165 91.782 363.775C91.489 363.482 88.8523 363.579 85.9226 364.165C81.3328 365.142 80.3562 365.728 77.3289 370.025C75.3758 372.661 73.1297 374.712 72.1531 374.712C70.9812 374.712 69.2234 372.759 67.1726 369.244L64.0476 363.775L59.0672 364.361C56.3328 364.654 52.9148 364.947 51.5476 364.947C49.6922 364.947 48.2273 366.021 46.0789 369.048C43.2468 373.15 43.1492 373.54 43.3445 383.013C43.6375 391.216 44.1258 393.951 46.5672 400.103L49.4968 407.427L47.4461 409.576C46.3718 410.845 44.0281 412.017 42.3679 412.408C40.6101 412.701 37.7781 413.775 36.1179 414.849C33.3836 416.509 33.0906 417.193 33.0906 421.197C33.0906 424.81 32.407 426.665 29.6726 430.474C27.5242 433.306 25.7664 437.212 25.0828 440.533C24.0086 445.611 24.1062 446.001 26.5476 449.81C28.8914 453.423 29.1844 454.595 29.1844 462.701C29.1844 469.439 28.7937 472.173 27.7195 473.345C26.3523 474.908 26.3523 475.494 28.2078 480.083C29.282 482.818 30.1609 486.138 30.1609 487.408C30.1609 488.579 31.2351 490.63 32.6023 491.9C35.0437 494.244 36.1179 497.076 37.9734 506.158C38.4617 508.794 39.1453 511.822 39.4383 512.896C39.9265 514.556 38.5593 516.021 32.114 521.001C26.8406 525.103 23.325 527.056 21.5672 527.056C20.0047 527.056 17.9539 527.74 16.8797 528.521C15.9031 529.302 12.9734 529.986 10.532 529.986C6.5281 529.986 5.84451 530.279 5.35623 532.232C5.06326 533.501 5.25857 536.04 5.74685 537.896C7.2117 542.779 7.01638 543.267 3.20779 545.513C0.375758 547.173 -0.210179 548.052 0.0827896 550.201C0.278102 552.154 1.05935 553.033 2.81716 553.423C4.28201 553.716 5.74685 555.181 6.62576 557.036C7.60232 559.185 8.87185 560.357 10.825 560.747C15.0242 561.724 20.3953 570.122 20.3953 575.884C20.3953 578.326 21.0789 581.158 21.8601 582.134C22.6414 583.208 23.325 585.064 23.325 586.333C23.325 589.751 26.157 593.462 28.6961 593.462C30.2586 593.462 32.5047 595.318 35.825 599.126C41.8797 606.158 42.8562 609.087 40.0242 612.603C38.7547 614.165 37.9734 616.607 37.9734 618.853C37.9734 623.443 35.4343 629.204 31.8211 632.72C30.3562 634.185 29.1844 636.431 29.1844 637.798C29.1844 639.263 28.4031 640.728 27.1336 641.411C25.3758 642.29 24.6922 642.095 22.4461 639.947C19.1258 636.822 17.1726 637.31 15.8054 641.802C14.8289 644.732 15.0242 645.318 17.5633 647.759C20.1023 650.201 20.3953 651.079 20.3953 657.134C20.3953 661.04 21.0789 665.337 21.9578 667.486C23.2273 670.611 23.325 671.88 22.2508 676.275C21.0789 681.255 21.0789 681.451 23.8133 684.283C26.5476 687.115 26.5476 687.115 25.2781 693.072L24.0086 699.029L27.1336 702.154C29.7703 704.986 30.1609 706.06 30.1609 710.845V716.411L35.4343 718.755C39.3406 720.611 40.8054 721.783 41.2937 723.833C41.6843 725.298 43.2468 728.13 44.8093 730.083C46.3718 732.036 48.032 735.161 48.325 737.017C48.7156 738.872 50.2781 742.974 51.7429 746.001L54.575 751.568L52.6218 756.158C50.2781 761.431 50.5711 762.505 54.9656 767.583C57.7 770.904 59.1648 771.587 65.9031 773.247C70.1023 774.224 74.0086 775.005 74.3992 775.103C74.8875 775.103 74.9851 772.369 74.6922 768.951C74.2039 763.775 74.4968 762.31 76.5476 758.501C81.6258 749.126 82.9929 745.611 82.7 742.583C82.407 739.947 82.8953 739.263 86.3133 737.212C89.8289 735.161 91.0984 734.966 99.5945 735.357C106.235 735.65 109.751 736.236 111.802 737.408C114.829 739.263 125.376 754.693 126.45 758.892C127.036 761.236 130.942 763.384 134.555 763.384C137.876 763.384 138.266 765.24 136.509 770.513C134.165 777.349 134.165 783.404 136.509 786.724C138.169 789.068 138.559 791.802 139.145 805.669L139.829 821.978L136.802 828.619C135.044 832.232 133.286 837.408 132.798 840.142C132.309 842.779 131.137 846.587 130.356 848.54C129.477 850.591 128.794 853.521 128.794 855.181C128.794 859.576 126.157 863.97 122.837 865.142C121.274 865.63 120.005 866.411 120.005 866.802C120.005 867.193 123.52 868.365 127.817 869.536L135.63 871.587L139.927 867.779C142.368 865.63 144.614 862.896 145.005 861.724C145.298 860.552 147.544 857.525 149.985 855.083L154.38 850.494L164.536 856.158L174.595 861.822L177.134 859.869C178.891 858.501 180.454 858.111 182.114 858.501C183.384 858.892 185.337 858.697 186.313 858.208C187.876 857.329 189.536 858.697 197.641 866.997C207.602 877.251 210.239 879.107 213.169 877.447C214.731 876.568 214.634 876.275 212.095 874.029L209.458 871.49L211.606 870.708C212.778 870.22 213.755 869.536 213.755 869.048C213.755 867.486 210.337 865.044 206.43 863.775C203.501 862.798 202.427 861.822 201.841 859.576C200.864 855.767 198.227 854.204 191.098 853.228C185.532 852.447 181.626 849.81 181.528 846.685C181.528 844.634 185.532 836.138 187.485 834.38C188.559 833.404 191.782 829.107 194.809 824.81C200.376 816.9 201.548 816.216 206.235 817.974C208.188 818.755 209.067 818.462 210.923 816.509C213.95 813.286 215.122 813.579 217.27 818.267C219.419 822.954 221.079 823.931 221.86 821.001C222.837 817.095 225.376 817.583 230.454 822.564C233.97 825.982 235.239 828.033 235.239 830.083C235.239 833.697 237.583 838.286 241.88 842.681C244.712 845.708 245.493 847.369 246.177 852.349C247.055 859.185 249.399 864.556 253.989 870.611C256.626 874.126 257.114 875.591 256.919 879.4C256.821 882.622 257.407 885.161 258.97 887.896L261.216 891.802L266.977 891.509C272.348 891.119 273.227 890.826 277.231 886.822C280.649 883.501 282.407 882.525 284.946 882.525C286.704 882.525 288.852 882.134 289.829 881.646C292.368 880.279 304.673 884.38 309.458 888.286L313.364 891.411L317.173 889.458C319.223 888.384 328.403 885.65 337.485 883.404L353.891 879.302L365.317 870.22L376.645 861.138L385.63 864.068C393.93 866.9 394.614 866.997 396.274 865.533C397.837 864.068 399.497 863.97 407.895 864.556L417.661 865.24L432.895 885.747L439.438 885.161C445.688 884.673 446.47 884.283 456.333 877.251C463.657 872.076 467.661 869.829 469.614 869.829C473.227 869.829 474.887 866.997 474.106 862.017C473.618 858.892 474.009 857.72 476.841 854.009C478.696 851.568 481.626 849.029 483.286 848.345C486.02 847.173 486.899 847.271 490.903 849.322C493.442 850.494 497.934 852.544 500.864 853.716C506.04 855.669 506.528 855.767 512.973 854.302L519.712 852.935L522.934 845.806C525.18 841.119 526.255 837.212 526.255 834.283C526.255 831.939 526.548 829.204 526.841 828.326C527.231 827.447 530.942 824.81 535.141 822.369C541.782 818.56 542.856 817.486 542.856 815.24C542.856 813.189 544.126 811.724 549.497 807.818C555.259 803.521 556.04 802.544 556.333 799.419C556.626 796.294 557.016 795.806 559.751 795.22C561.411 794.927 563.852 793.951 565.122 793.072C567.368 791.607 567.466 791.216 566.782 783.306C566.098 775.298 566.196 774.908 568.735 771.587C570.2 769.634 576.059 764.361 581.723 759.966C590.61 752.935 592.661 751.665 596.958 751.177C601.841 750.494 620.298 743.658 622.739 741.704C623.325 741.119 623.911 739.654 623.911 738.482C623.911 733.501 624.79 733.013 628.891 735.747C630.942 737.115 632.895 738.97 633.188 739.849C633.481 740.728 637.29 743.462 641.587 746.001C647.739 749.712 650.376 750.689 653.696 750.689C657.895 750.689 658.188 750.494 664.927 742.388C668.735 737.798 671.958 734.087 672.055 734.087C672.153 734.087 675.376 733.208 679.087 732.134C682.895 731.06 689.536 729.79 693.93 729.204L701.938 728.326L726.938 739.654L727.622 743.853C728.794 750.591 731.626 751.372 738.559 746.88C741.977 744.732 744.712 743.951 750.473 743.462L757.993 742.779L768.247 752.837L778.794 751.861C784.653 751.275 794.321 749.81 800.18 748.443C806.137 747.076 813.657 745.708 816.88 745.415L822.837 744.927L824.594 749.224C825.473 751.665 826.45 753.619 826.743 753.619C827.036 753.619 830.161 751.958 833.774 750.005C840.024 746.685 840.708 745.806 846.86 735.943C850.473 730.181 853.403 724.419 853.403 723.052C853.403 721.001 854.184 720.318 857.7 719.146L861.899 717.681L878.305 738.189L882.212 737.603C887.094 736.822 892.466 731.353 892.466 727.056C892.466 725.591 892.466 724.029 892.563 723.54C892.661 722.661 890.708 721.685 887.583 721.001C885.727 720.611 884.653 719.341 883.286 715.826C882.309 713.286 880.259 708.697 878.794 705.767C877.231 702.74 875.766 698.736 875.376 696.783C874.692 693.365 874.985 692.974 880.942 687.212C887.192 681.158 887.387 681.06 893.149 682.818C895.688 683.599 895.786 683.208 897.348 669.732C898.13 663.091 898.13 660.259 897.348 659.283C895.981 657.72 897.934 647.661 899.985 645.611C900.766 644.927 902.915 644.048 904.77 643.658C907.602 643.169 908.481 642.388 909.751 639.263C911.802 634.087 915.024 633.306 918.833 636.919C921.665 639.556 921.762 639.654 923.618 637.994C926.645 635.259 932.798 634.38 949.692 634.087L965.512 633.892L970.591 629.497L975.766 625.005L975.571 614.458C975.376 605.865 974.887 602.837 973.032 598.15L970.688 592.486L975.571 587.212C981.04 581.158 981.528 578.619 978.012 573.15C976.548 570.904 975.18 566.607 974.399 562.017C973.13 554.595 973.227 554.4 975.376 552.056L977.622 549.615L974.985 541.607C972.348 533.697 972.348 533.501 974.009 530.279C975.473 527.642 975.669 525.689 975.18 519.048C974.594 511.431 974.399 510.943 971.079 508.306L967.661 505.474V492.388C967.661 479.693 967.661 479.4 970.102 477.837C971.372 476.958 973.813 476.275 975.473 476.275C978.403 476.275 978.794 475.786 984.458 463.775C988.755 454.595 991.587 450.103 995.2 446.392L999.985 441.411L993.344 426.861L986.606 412.31L979.575 411.431C972.837 410.65 972.544 410.454 972.544 407.915C972.544 406.255 970.298 402.056 966.196 396.392C961.313 389.556 959.848 386.724 959.848 384.185C959.848 382.232 957.7 375.786 955.161 369.634C950.376 358.599 950.376 358.599 946.86 358.306L943.247 358.013V351.177C943.247 344.829 942.954 343.755 939.145 337.31L934.946 330.279L934.458 313.677C934.067 304.497 933.384 295.708 932.7 294.146C932.114 292.486 931.333 289.556 931.04 287.505L930.454 283.892H915.122L905.942 273.15L903.208 275.494L900.376 277.74L891.098 275.591C882.895 273.638 881.04 272.857 876.548 268.951C872.055 265.044 870.786 264.556 865.122 263.97C855.552 262.896 852.524 261.626 845.2 255.474C839.927 250.982 837.485 249.615 833.969 249.126C830.259 248.54 827.817 246.978 818.735 239.458C812.876 234.576 806.43 229.595 804.477 228.423C802.524 227.251 799.009 224.224 796.665 221.685C792.856 217.486 792.173 216.021 790.512 208.404L788.657 199.712L776.743 193.853L770.981 181.646C765.903 171.197 764.731 169.341 761.899 168.169C759.36 167.095 757.895 165.24 754.673 158.697C750.864 150.982 750.18 150.201 743.344 145.806C737.876 142.193 713.364 123.052 707.602 117.876C707.212 117.583 707.602 115.533 708.384 113.482C709.751 110.454 709.751 109.576 708.677 108.599C707.7 107.622 705.356 108.306 696.958 112.31Z" fill="white"/>
<circle id="504" cx="376" cy="330" fill="#5CE50D"/>
<circle id="1045" cx="201" cy="310" fill="#E52A0D"/>
<circle id="1046" cx="137" cy="762" fill="#E52A0D"/>
<circle id="505" cx="346" cy="806" fill="#E52A0D"/>
</svg>
