<svg width="1000" height="1000" viewBox="0 0 1000 1000" fill="none" xmlns="http://www.w3.org/2000/svg">
<path d="M362.621 53.5102C362.621 53.9755 363.459 61.0467 364.482 69.2345C365.506 77.3292 368.204 105.614 370.53 131.945C381.602 257.646 390.441 353.015 398.443 433.404C400.676 456.199 404.304 493.417 406.351 516.212C408.398 539.007 410.352 559.012 410.631 560.686C411.097 563.478 414.632 566.734 425.797 574.55C426.356 574.922 416.493 623.49 415.749 624.328C414.725 625.444 201.471 620.792 198.215 619.489C195.33 618.466 195.237 618.28 195.796 614.279C196.261 611.023 195.982 610.092 194.772 609.627C192.074 608.603 189.562 611.86 189.562 616.233C189.562 621.816 187.701 623.211 179.885 623.211C176.35 623.211 172.535 623.769 171.139 624.514C169.651 625.258 164.068 626.188 158.672 626.561C148.809 627.212 148.716 627.119 145.739 624.7C142.947 622.374 142.296 622.188 133.364 622.281C127.595 622.374 122.292 621.909 119.594 621.071L115.314 619.769L114.755 622.653C114.383 624.235 113.36 626.375 112.336 627.398C108.615 631.12 104.893 636.516 104.893 638.191C104.893 641.075 103.311 640.238 100.799 635.865C98.3798 631.678 91.0294 624.514 85.0747 620.42C83.2138 619.117 81.0738 616.605 80.2365 614.837C78.1895 610.371 74.6539 606.463 72.6069 606.463C71.6765 606.557 69.0713 608.138 66.8383 610.185C63.2096 613.349 62.4653 613.628 60.5114 612.697C57.6271 611.395 57.534 611.581 53.2541 623.676C50.5558 631.399 49.9045 634.469 49.7184 641.541C49.5323 649.914 49.4393 650.194 46.3689 653.357C42.8333 657.079 34.8316 660.242 32.9707 658.753C32.3194 658.288 30.4586 658.102 28.7838 658.288C26.3647 658.66 25.8064 659.126 26.3647 660.335C29.0629 666.755 29.0629 666.662 26.3647 671.686L23.8525 676.618L27.5742 679.874C29.7142 681.735 31.7612 684.34 32.3194 685.736C32.8777 687.411 33.9012 688.341 35.1107 688.341C36.8785 688.341 36.9716 688.899 36.9716 697.831C36.9716 707.322 36.9716 707.415 39.5768 708.904C41.9028 710.206 42.182 710.857 41.8098 713.928C41.4376 717.091 40.9724 717.557 36.8785 719.231C32.6916 720.999 32.3194 721.371 32.3194 724.349C32.3194 726.954 33.2499 728.629 36.8785 732.629C40.6933 736.816 41.5307 738.398 41.8098 741.655C42.0889 745.283 42.275 745.562 44.9732 745.842C47.2063 746.028 48.3228 745.562 49.8115 743.702C51.4862 741.655 52.2306 741.375 54.9288 741.841C57.441 742.306 58.4645 743.236 59.767 745.842C60.6044 747.795 61.4418 750.773 61.5349 752.541C61.6279 754.774 63.1166 757.751 65.8148 761.566L69.8157 767.334L69.1644 774.499C68.7922 779.523 68.1409 782.035 67.2105 782.593C64.9774 783.803 65.3496 793.014 67.7687 796.364L69.7226 799.062L67.7687 803.063C66.6522 805.296 65.8148 808.18 65.8148 809.483C65.8148 811.251 65.2566 811.995 63.4888 812.46C60.5114 813.204 60.4183 816.275 63.2096 817.764C64.4192 818.415 66.9313 820.741 68.8852 822.974C73.6304 828.277 76.8869 828.37 83.2138 823.439C85.6329 821.485 88.2381 819.159 88.9825 818.322C89.6338 817.391 91.5877 816.74 93.1694 816.74C96.9842 816.74 102.102 821.671 102.102 825.3C102.102 828.743 106.288 833.488 109.266 833.488C112.336 833.488 119.407 827.812 120.152 824.742C120.431 823.439 121.64 822.137 122.664 821.857C123.78 821.485 126.107 820.183 128.06 818.88C132.433 815.903 138.109 816.275 145.552 820.183C159.137 827.161 162.207 828.65 163.975 829.115C165.371 829.58 166.673 828.65 169.371 825.021C172.163 821.392 173.558 820.462 175.605 820.462C177.373 820.462 178.676 819.811 179.327 818.601C180.071 817.205 181.281 816.74 184.258 816.74C189.096 816.74 190.492 815.531 190.492 811.437C190.492 809.39 189.934 808.087 188.631 807.436C185.654 805.854 186.398 803.9 190.678 802.784C195.609 801.388 198.866 802.132 205.844 805.854C210.217 808.18 211.334 809.297 211.148 810.692C210.962 811.716 210.217 812.925 209.473 813.298C207.333 814.507 207.984 817.112 210.962 819.997C213.195 822.137 213.753 823.439 213.753 826.603C213.753 830.138 213.939 830.51 216.544 830.976C219.149 831.534 219.335 831.906 219.335 835.535C219.335 837.768 218.777 841.955 218.033 844.839C216.637 850.887 217.288 852.096 222.964 854.05C225.104 854.795 226.128 855.818 226.5 857.772C227.058 860.935 230.687 865.122 232.827 865.122C233.571 865.122 234.222 865.681 234.222 866.332C234.222 867.076 235.804 868.1 237.851 868.658C244.457 870.705 245.48 874.985 239.805 876.753C238.037 877.311 234.129 880.009 231.245 882.8C227.058 886.801 225.941 888.569 225.662 891.174L225.383 894.431L229.756 894.71C233.757 894.989 234.315 894.71 235.339 892.663C236.176 890.616 237.014 890.244 240.27 890.244C246.69 890.244 248.644 894.71 246.411 904.293C245.946 906.526 246.132 910.806 247.062 916.761C248.458 925.228 248.737 925.972 251.342 927.554C252.924 928.578 254.971 929.322 255.808 929.322C256.646 929.322 257.483 930.159 257.669 931.369C257.855 932.764 258.879 933.602 261.205 934.253C265.857 935.463 266.787 936.486 266.787 940.58C266.787 944.209 266.787 944.209 270.416 944.209C273.858 944.209 274.231 943.837 277.022 939.277C282.325 930.718 282.977 930.252 290.513 930.252C296.747 930.252 297.305 930.438 298.236 932.578C298.887 933.881 300.003 935.184 300.748 935.463C301.492 935.835 302.143 937.044 302.143 938.254C302.143 940.394 302.423 940.487 307.54 940.487C311.913 940.487 313.402 940.859 314.797 942.441C316.937 944.767 321.031 947 323.171 947C324.102 947 325.497 946.349 326.428 945.511C327.73 944.395 327.823 943.65 326.986 941.417C325.683 937.882 326.8 936.579 332.661 935.37C336.104 934.625 337.5 934.625 339.454 935.742C343.547 938.068 348.2 934.253 344.478 931.555C343.082 930.531 342.896 929.415 343.361 925.228C343.641 922.437 344.385 919.273 344.943 918.157C346.06 916.203 346.06 916.203 349.316 919.459C353.131 923.181 357.597 924.018 358.527 921.134C360.481 915.086 361.04 914.435 363.645 914.435C365.04 914.435 366.529 913.97 366.808 913.505C367.739 912.016 370.065 914.249 371.646 917.971C372.763 920.576 372.67 921.227 371.274 923.367C369.786 925.786 369.786 925.879 371.739 927.461C374.438 929.694 374.345 933.137 371.46 935.835C369.041 938.161 368.297 942.162 370.344 942.72C370.902 942.906 373.042 943.557 374.996 944.116C378.066 945.139 378.811 945.046 381.695 943.278C383.463 942.162 384.952 940.487 384.952 939.557C384.952 935.463 399.001 929.415 408.864 929.322C415.097 929.322 416.214 928.019 417.051 920.204C417.889 911.644 417.889 910.806 417.051 899.734C416.214 890.43 416.679 889.406 420.773 889.313C421.796 889.313 424.216 887.825 426.076 886.057C430.17 882.149 432.403 875.729 432.403 868.1C432.403 863.634 431.938 862.517 429.24 859.075C427.472 856.935 425.053 853.213 423.843 850.794C422.076 847.072 421.983 846.328 423.099 845.583C425.332 844.188 440.87 839.163 444.964 838.605C458.921 836.558 458.269 836.93 469.9 825.579L480.693 815.065L479.762 809.576C479.204 806.599 478.366 802.039 477.808 799.341C476.413 792.642 477.622 791.246 483.763 792.084C490.09 793.014 491.951 791.246 491.951 784.64C491.951 781.291 491.486 779.337 490.462 778.5C489.718 777.848 487.95 775.243 486.647 772.638L484.321 767.986L486.647 765.939C487.95 764.822 489.811 763.334 490.741 762.589C491.765 761.938 493.625 759.426 495.021 757.007C496.417 754.495 498.836 751.889 500.325 751.145C503.395 749.563 504.418 749.377 503.581 750.587C503.302 751.145 505.07 751.796 507.489 752.168C510.466 752.634 514.839 754.588 520.794 758.216C530.843 764.45 535.681 765.474 535.681 761.38C535.681 758.868 536.89 758.309 543.589 757.937L547.218 757.658L546.939 749.191C546.846 744.539 547.125 739.049 547.683 737.003C548.521 733.839 549.172 733.095 551.591 732.629C553.824 732.257 555.127 732.629 557.546 734.49C559.779 736.165 561.547 736.723 563.78 736.537L566.85 736.258L567.501 729.745C568.525 719.417 569.921 716.626 578.853 707.694C589.739 696.715 590.855 696.529 603.23 704.065L612.441 709.648L615.418 706.671C618.21 703.879 618.582 702.856 620.071 692.621L621.745 681.642L647.332 672.524C661.382 667.5 674.501 662.754 676.361 661.917C678.315 661.08 682.968 657.73 686.782 654.38L693.667 648.333H701.669C709.299 648.333 709.764 648.426 710.694 650.566L711.718 652.799L716.556 650.566C719.161 649.356 721.766 648.333 722.418 648.333C722.976 648.333 726.977 649.821 731.257 651.682C738.514 654.846 739.258 654.939 743.631 654.008C746.237 653.45 750.144 653.171 752.47 653.543C754.797 653.822 758.425 653.636 760.565 653.078C763.729 652.24 765.683 652.333 770.614 653.543C776.289 654.939 777.313 655.032 784.384 653.543C791.921 652.054 792.014 651.961 797.131 646.193C799.922 643.029 803.923 638.656 805.97 636.423L809.692 632.515L859.377 630.003L909.061 627.398L911.015 624.328L912.969 621.164L923.204 621.722C928.88 622.002 934.555 622.56 936.044 622.839C938.277 623.397 938.556 623.118 938.556 621.071C938.556 619.862 939.114 618.28 939.859 617.722C940.603 617.163 941.999 614.558 943.115 612.139C944.976 607.673 948.046 605.533 952.512 605.533C954.28 605.533 959.025 600.881 959.025 599.02C959.025 598.369 960.235 594.368 961.724 590.274C963.212 586.087 964.608 580.039 964.887 576.69C965.445 568.316 969.074 561.059 973.168 560.221L976.052 559.663L975.587 541.892C975.308 530.634 975.494 523.562 976.052 522.539C977.076 520.957 969.539 398.234 968.33 396.838C968.051 396.466 956.42 398.141 942.65 400.653C919.296 404.933 917.528 405.119 916.784 403.537C916.412 402.7 914.179 401.211 912.039 400.374C905.991 398.141 905.433 396.931 908.224 392.744C909.527 390.79 910.643 388.278 910.643 387.069C910.643 385.952 911.201 384.743 911.946 384.463C913.9 383.719 914.551 381.486 913.341 379.346C912.876 378.323 911.481 373.019 910.364 367.53C909.061 361.482 907.48 356.364 906.27 354.69C903.479 350.782 898.268 349.014 885.615 347.805C879.753 347.246 872.496 346.13 869.425 345.292C864.401 343.897 863.377 343.059 858.632 337.384C855.748 333.941 852.678 331.057 851.747 331.057C850.817 331.057 848.77 331.801 847.095 332.639C843.745 334.406 841.605 334.313 834.627 332.359C826.719 330.219 821.322 324.172 821.322 317.659C821.322 315.798 820.764 315.147 818.81 314.774C812.297 313.472 805.784 311.146 803.179 309.192C801.69 307.982 798.713 306.866 796.666 306.68L792.944 306.401L792.851 296.352C792.851 288.908 792.479 286.024 791.455 285.094C790.711 284.442 774.894 274.301 756.285 262.67C728.931 245.644 715.439 236.339 686.968 215.312C667.429 200.89 608.161 158.928 555.22 121.99L458.921 54.9059L420.773 54.3476C399.838 54.0685 378.159 53.5102 372.67 53.2311C366.622 52.859 362.621 52.952 362.621 53.5102Z" fill="white"/>
<circle id="420" cx="263" cy="812" fill="#5CE50D"/>
<circle id="421" cx="382" cy="872" fill="#E52A0D"/>
<circle cx="470" cy="221" fill="#E52A0D"/>
<circle id="1630" cx="652" cy="540" fill="#E52A0D"/>
</svg>
