<svg width="1000" height="1000" viewBox="0 0 1000 1000" fill="none" xmlns="http://www.w3.org/2000/svg">
<path d="M540.843 0.951567C538.695 1.83047 537.914 3.29532 537.914 7.20157C537.914 9.54532 537.23 11.3031 535.863 12.5727C531.273 16.7719 529.613 25.268 533.129 27.4164C536.156 29.3695 535.277 33.5688 531.566 34.7406C527.562 36.0102 520.336 41.0883 520.336 42.5531C520.336 43.2367 518.773 44.6039 516.722 45.6781C513.011 47.7289 510.57 52.0258 510.57 56.4203C510.57 58.0805 512.816 61.4008 517.406 66.6742C523.363 73.4125 524.144 74.682 523.265 76.4398C521.996 78.8813 520.238 78.8813 515.453 76.4398C513.304 75.3656 510.961 74.4867 510.179 74.4867C509.3 74.4867 508.617 73.3148 508.421 71.2641C508.226 68.6273 507.347 67.7484 503.539 65.6977C499.046 63.3539 498.949 63.3539 495.433 65.0141C493.285 65.9906 489.574 66.6742 485.961 66.6742C479.125 66.6742 477.855 67.3578 466.722 78.1977C456.078 88.3539 453.539 90.5023 451.976 90.6C451.195 90.6 450.414 91.5766 450.218 92.7484C449.925 94.5063 449.242 94.9945 447.093 94.9945C445.336 94.9945 443.871 95.7758 442.796 97.4359C440.941 100.268 437.132 102.416 432.25 103.295C430.394 103.686 427.171 105.346 425.121 107.006L421.507 109.936L421.898 118.432C422.191 124.194 422.875 128.1 424.242 130.834C426.488 135.229 426.097 136.401 420.336 142.553C417.699 145.483 417.503 145.971 418.48 149.096C419.652 152.807 419.359 153.588 416.625 153.588C415.453 153.588 413.5 155.639 411.156 159.448C408.324 164.038 407.054 165.307 405.101 165.307C403.05 165.307 402.269 166.186 400.511 170.678C397.875 177.026 397.679 179.272 399.828 181.03C402.171 182.983 404.125 187.377 404.125 190.6C404.125 192.26 402.855 195.776 401.195 198.315C399.632 200.952 398.265 203.588 398.265 204.174C398.265 204.858 397.191 206.03 395.824 206.909C394.457 207.788 393.382 209.35 393.382 210.327C393.382 211.303 392.503 212.573 391.429 213.159C390.257 213.745 388.402 216.577 387.132 219.409C385.863 222.338 384.398 224.877 383.812 225.268C383.226 225.561 380.98 231.323 378.734 238.061C376.488 244.799 374.144 250.268 373.461 250.268C372.875 250.268 370.629 249.389 368.48 248.315C366.332 247.241 363.011 246.362 361.058 246.362C358.226 246.362 357.25 245.873 356.761 244.409C355.98 241.967 349.828 241.674 346.898 243.92C344.066 246.069 342.113 245.678 338.89 242.455C336.449 240.112 335.472 239.721 333.617 240.405C330.98 241.381 331.078 242.748 333.91 249.584C336.058 254.663 337.816 266.381 336.644 267.553C335.57 268.725 333.617 280.151 333.421 286.498C333.226 293.823 331.761 295.58 326.488 294.702L322.386 294.116L321.703 302.221C320.629 313.452 320.921 318.041 322.679 326.147C324.828 335.424 323.656 338.842 318.089 339.721C314.476 340.307 314.281 340.502 314.281 343.92C314.281 345.873 313.89 347.924 313.5 348.608C312.328 350.463 307.933 348.901 305.98 345.873C304.32 343.432 303.441 343.041 300.609 343.237C297.386 343.53 297.191 343.725 297.484 346.752C297.582 348.51 296.996 350.952 296.214 352.123C294.554 354.565 294.261 367.553 295.628 376.44C296.898 383.666 296.019 388.94 293.773 388.94C292.796 388.94 291.527 388.354 290.941 387.573C290.257 386.791 288.695 385.913 287.425 385.62C286.058 385.229 284.984 384.35 284.984 383.569C284.984 381.909 281.078 380.737 278.343 381.518C277.367 381.909 275.609 382.983 274.535 383.959C272.777 385.62 272.582 386.498 273.363 390.307C273.851 392.748 273.949 395.385 273.754 395.971C273.461 396.655 274.73 402.026 276.586 407.983C279.515 417.846 280.101 418.823 283.128 420.385C285.277 421.557 287.132 423.705 288.597 426.733C289.867 429.272 291.722 432.202 292.796 433.373C293.871 434.448 295.238 436.889 295.824 438.745C299.242 448.51 304.613 452.612 308.812 448.608L311.058 446.459L312.718 448.998C313.695 450.561 313.89 451.44 313.207 451.44C311.839 451.44 313.011 463.94 314.476 465.795C316.234 468.041 317.113 467.163 317.406 462.866L317.699 458.764L320.531 461.694C322.875 464.233 323.265 464.33 322.679 462.475C322.289 461.303 322.289 459.252 322.679 457.885C323.168 455.737 323.851 455.346 326.586 455.346C332.152 455.346 333.812 457.983 333.812 466.577C333.812 473.705 333.91 473.901 336.156 473.901C337.718 473.901 338.793 473.217 339.183 472.045C339.964 469.604 343.48 465.112 344.652 465.112C346.019 465.112 345.726 467.651 344.066 469.018C341.722 470.971 342.308 472.729 345.531 473.413C348.168 473.998 348.461 474.389 348.461 477.807C348.461 480.541 348.949 481.713 350.218 482.104C351.097 482.397 353.246 483.764 354.808 485.131L357.738 487.67L354.32 486.987C352.464 486.694 350.218 485.717 349.339 485.034C347.289 483.276 344.554 484.252 344.554 486.791C344.554 487.866 345.629 490.014 346.996 491.674C348.363 493.237 349.437 495.385 349.437 496.362C349.437 498.022 349.828 498.12 352.464 497.143C354.027 496.557 355.589 496.362 355.882 496.655C356.761 497.534 354.32 501.245 352.855 501.245C350.511 501.245 341.918 495.58 340.16 492.846C338.597 490.405 338.5 490.405 336.644 492.065C335.668 492.944 334.789 494.213 334.789 494.702C334.789 495.19 336.742 497.827 339.183 500.366C342.015 503.393 343.578 505.932 343.578 507.592C343.578 508.959 344.359 510.717 345.336 511.498C346.214 512.28 349.046 514.721 351.488 516.87C353.929 519.018 356.761 520.776 357.738 520.776C359.3 520.776 359.398 519.995 358.812 512.963C358.421 508.666 358.421 505.151 358.91 505.248C361.254 505.639 362.132 504.858 362.23 502.416C362.328 499.975 362.425 499.975 363.304 503.198C364.574 507.592 364.671 510.522 363.695 515.502C363.109 518.725 363.402 519.897 364.867 521.752C366.429 523.705 367.015 523.901 368.285 522.924C370.14 521.362 371.312 522.924 370.531 526.049C370.14 527.612 370.629 528.881 371.898 530.053C372.972 531.03 373.851 532.885 373.851 534.155C373.851 536.987 375.121 539.526 379.027 544.506C381.761 548.022 381.859 548.315 380.199 550.073C378.539 551.928 378.539 552.123 380.98 554.37C383.617 556.811 385.277 563.745 384.203 568.041C383.91 569.409 384.007 570.776 384.593 571.069C385.082 571.362 385.57 573.51 385.57 575.854C385.57 578.1 386.058 580.444 386.742 581.127C387.425 581.811 388.011 586.401 388.207 593.041C388.402 601.635 388.207 603.979 387.035 604.37C386.253 604.662 385.961 605.541 386.253 606.42C386.644 607.299 386.156 608.471 385.082 609.252C383.812 610.229 383.128 612.475 382.738 617.553C382.25 622.436 381.566 624.877 380.394 625.756C379.515 626.44 378.734 627.612 378.734 628.491C378.734 631.713 374.828 646.264 373.851 646.557C373.363 646.752 372.875 647.534 372.875 648.412C372.875 649.194 372.289 651.245 371.507 652.905C370.043 656.323 368.773 670.287 369.75 671.752C370.14 672.241 371.214 673.217 372.191 673.998C373.754 675.268 374.437 674.877 378.734 670.678C381.468 668.041 383.617 665.112 383.617 664.135C383.617 663.061 384.691 661.889 386.058 661.401C387.425 660.912 389.671 659.252 390.941 657.787L393.285 655.053L393.382 658.471C393.382 661.596 392.699 662.573 386.546 667.748C382.836 670.971 379.711 673.901 379.711 674.194C379.711 674.584 379.418 675.561 379.125 676.342C378.832 677.221 379.418 678.002 380.882 678.295C382.543 678.784 383.812 678.198 385.863 676.049C389.086 672.631 389.867 672.338 388.988 675.073C388.597 676.44 388.89 677.221 389.964 677.612C390.843 678.002 392.015 679.272 392.503 680.541C393.675 683.666 395.921 683.471 397.777 680.248C398.558 678.686 400.316 676.147 401.683 674.584C403.734 672.143 404.32 671.85 405.101 673.12C405.785 674.194 405.296 675.17 403.148 677.026C400.121 679.467 399.144 683.862 401.488 683.862C402.269 683.862 403.832 684.936 405.003 686.205C406.371 687.573 407.933 688.354 409.007 688.061C410.961 687.573 413.89 681.323 413.89 677.612C413.89 675.17 417.308 670.19 418.968 670.19C419.554 670.19 419.554 670.776 418.773 671.655C416.918 673.803 418.187 684.741 420.433 686.401C421.898 687.475 422.289 687.377 422.582 686.01C422.777 685.131 423.851 683.471 425.121 682.299C426.293 681.225 427.66 678.393 428.05 675.952L428.929 671.655L429.32 675.854C429.515 678.881 429.125 680.639 427.66 682.495C426.097 684.448 425.902 685.522 426.586 686.889C428.05 689.526 429.125 689.916 433.714 689.233C437.132 688.647 438.402 687.768 441.332 684.057C443.187 681.518 446.41 676.537 448.461 672.924C452.367 665.698 455.492 663.354 461.156 663.354C463.89 663.354 465.648 662.377 469.554 658.959C472.289 656.518 475.121 654.565 475.902 654.565C478.148 654.565 478.539 652.807 476.976 650.463C476 649.096 475.414 646.166 475.414 643.041C475.414 640.209 474.925 636.987 474.437 635.912C473.656 634.448 473.754 634.057 474.73 634.057C475.609 634.057 476.293 635.424 476.683 637.768C477.953 646.752 480.882 649.389 488.5 648.315C496.312 647.143 501.586 642.651 506.859 632.592C510.961 624.975 511.449 623.315 510.961 619.897C510.57 617.748 510.082 615.6 509.789 615.014C509.496 614.526 509.105 610.815 509.007 606.713C508.714 599.584 508.812 599.487 510.375 601.83C511.254 603.198 514.086 606.225 516.625 608.569C519.261 610.912 521.312 613.452 521.312 614.037C521.312 614.721 521.898 615.795 522.679 616.381C523.461 616.967 524.242 619.995 524.437 623.315C524.73 626.83 525.511 629.76 526.488 630.932C527.367 631.909 528.148 633.666 528.148 634.741C528.148 635.815 529.515 637.866 531.078 639.233C532.738 640.698 534.007 642.846 534.007 644.116C534.007 648.412 535.277 649.096 539.964 647.631C544.164 646.264 550.609 646.264 550.609 647.534C550.609 647.924 549.828 649.194 548.851 650.463C547.289 652.514 546.8 652.612 544.457 651.537C542.406 650.561 541.527 650.659 540.257 651.733C538.207 653.491 538.988 660.034 541.625 662.67C544.066 665.112 545.726 664.135 545.726 660.327C545.726 657.983 546.117 657.397 547.484 657.69C550.316 658.178 550.023 662.28 546.8 667.455C545.14 670.092 543.773 672.827 543.773 673.51C543.773 674.096 546.019 676.83 548.656 679.467C555.492 686.205 556.761 690.795 555.687 704.76C555.004 714.135 555.101 715.405 556.566 716.186C557.445 716.674 558.714 718.334 559.203 719.897C559.984 722.241 559.886 723.022 558.714 724.096C557.445 725.073 557.347 726.733 557.836 733.471C558.617 743.237 559.886 745.678 563.304 744.995C565.746 744.604 565.746 744.604 565.941 751.537C566.136 759.155 567.699 764.526 571.41 770.385C574.535 775.463 575.023 778.393 573.656 782.397C572.386 786.108 573.656 797.045 576.293 804.467L577.66 808.373L578.734 804.955C579.32 803.1 580.101 799.194 580.394 796.264C581.175 790.307 582.836 791.186 582.836 797.729C582.836 800.854 583.421 802.221 585.863 804.565C589.281 807.69 593.578 816.381 593.578 819.995C593.578 825.073 594.75 828.393 596.605 828.393C597.777 828.393 598.656 829.37 599.046 831.127C599.437 832.592 600.218 834.448 600.902 835.229C602.269 836.791 602.953 840.893 603.832 850.854C604.32 857.299 603.148 865.014 601 869.409C600.316 870.776 600.121 872.924 600.414 874.291C600.804 875.659 600.707 877.221 600.218 877.905C597.777 880.932 602.269 884.741 605.004 882.006C605.589 881.42 606.859 881.127 607.738 881.323C609.203 881.616 609.203 881.909 607.25 884.252C605.296 886.791 605.296 887.084 606.664 889.135C607.543 890.307 608.226 892.065 608.226 893.041C608.226 895.678 603.734 895.287 601.195 892.358C600.023 890.991 598.558 889.916 597.972 889.916C596.41 889.916 593.578 893.139 593.578 894.995C593.578 897.631 597.875 900.659 601.683 900.659C604.613 900.659 605.296 901.049 605.296 902.514C605.296 903.588 604.808 904.76 604.32 905.053C602.66 906.03 603.246 907.104 605.882 908.373C608.812 909.643 611.742 909.057 612.523 906.909C613.011 905.737 613.304 905.737 614.867 907.202C616.527 908.862 616.429 908.959 613.89 910.131C610.961 911.401 610.375 914.135 612.132 918.725C612.914 920.873 612.718 921.85 611.156 923.803C609.3 926.147 609.3 926.537 610.668 928.588C612.718 931.713 612.523 935.522 610.179 938.452C607.738 941.577 607.64 944.213 609.984 945.58C611.546 946.557 611.546 946.557 609.984 947.534C609.007 948.12 608.226 949.487 608.226 950.463C608.226 951.733 607.054 952.905 604.808 953.784C602.562 954.76 601.39 955.932 601.39 957.202C601.39 960.327 600.316 962.084 598.851 961.498C596.898 960.815 596.996 969.018 598.949 976.733C600.414 982.299 600.414 982.787 598.461 986.596L596.41 990.502L599.437 994.897C603.441 1000.66 604.125 1000.95 604.906 996.85C605.296 994.604 606.664 992.455 608.812 990.698C611.156 988.745 612.328 986.694 613.109 983.178C613.695 980.541 614.671 977.709 615.355 976.928C616.039 976.147 616.527 972.729 616.527 969.311C616.527 963.159 616.625 962.866 620.14 960.034C622.191 958.471 624.73 955.151 625.707 952.807C626.781 950.463 628.148 948.51 628.734 948.51C630.492 948.51 637.425 940.405 638.109 937.475C638.402 936.01 640.355 932.787 642.406 930.444C644.457 928.1 646.898 924.096 647.777 921.459C648.656 918.92 649.925 915.6 650.414 914.037C651 912.573 651.976 911.401 652.66 911.401C653.832 911.401 659.984 905.151 659.984 903.979C659.984 903.784 659.3 902.416 658.421 901.147C657.543 899.877 656.957 897.534 657.054 896.069C657.445 890.6 656.957 888.94 654.32 885.815C650.707 881.518 646.605 866.674 648.265 863.549C650.023 860.327 648.558 857.885 644.261 856.518C639.867 855.248 633.812 848.998 633.031 844.995C632.836 843.627 631.957 840.6 631.078 838.159C628.246 830.053 628.246 828.588 631.078 827.319C634.496 825.756 634.984 823.315 633.617 814.623C632.933 810.62 632.152 804.955 631.664 802.026C631.273 799.096 629.613 794.116 627.953 791.088C626.293 788.061 624.632 783.959 624.242 782.006C623.949 780.151 623.265 778.588 622.875 778.588C622.386 778.588 619.261 776.147 615.843 773.217C612.425 770.287 607.836 767.065 605.492 766.186C601.879 764.819 601.293 764.233 600.804 760.815C600.121 756.616 597.093 752.221 595.043 752.221C594.261 752.221 593.089 751.245 592.504 750.073C591.82 748.803 589.671 745.971 587.621 743.725C584.203 740.014 583.812 739.037 583.812 734.448C583.812 730.834 583.226 728.491 581.859 726.83C579.613 723.998 579.613 723.608 580.882 718.823C581.761 715.698 582.347 715.209 585.668 714.623C588.695 714.135 589.671 713.452 590.16 711.498C590.648 709.252 591.039 709.057 594.652 709.545C598.168 710.034 598.656 709.838 599.535 707.495C600.218 705.639 600.316 702.807 599.632 698.51C598.461 691.284 599.144 673.217 600.609 671.362C601.195 670.678 603.832 670.19 606.761 670.19H611.937L616.82 655.737L614.183 653.198C610.668 649.877 609.496 649.975 607.543 654.077C605.296 658.764 603.636 658.373 602.757 653.1C602.464 650.659 600.414 645.873 598.363 642.455C594.945 636.791 594.652 635.912 595.629 633.178C597.972 626.537 594.75 621.166 587.718 619.702C585.57 619.311 584.593 618.432 584.203 616.577C583.812 615.209 581.468 611.791 578.929 609.155C576.39 606.42 573.558 602.905 572.777 601.342C571.898 599.682 566.82 594.018 561.449 588.647C555.98 583.276 551.586 578.198 551.586 577.221C551.586 576.245 552.367 573.901 553.246 572.045C554.906 568.627 554.906 568.334 553.246 565.502C552.367 563.94 551.586 561.694 551.586 560.522C551.586 559.35 550.707 556.909 549.632 555.151C548.07 552.612 547.093 552.026 544.359 552.026C540.648 552.026 537.914 549.291 537.914 545.58C537.914 544.506 537.035 542.748 535.961 541.772C534.203 540.112 533.226 537.377 534.496 537.377C534.789 537.377 536.742 538.256 538.793 539.33C542.504 541.186 542.601 541.186 544.261 539.33C545.433 537.963 546.703 537.67 549.144 538.061C551.683 538.452 552.562 538.159 553.929 536.303C554.808 535.034 555.492 532.495 555.492 530.541C555.492 528.588 556.175 526.049 557.054 524.877C557.836 523.705 558.129 522.729 557.738 522.729C557.25 522.729 555.394 521.362 553.539 519.702L550.218 516.674L553.246 515.405C556.664 513.94 560.179 506.518 558.91 503.491C557.152 499.487 559.886 483.666 562.425 483.666C564.476 483.666 569.164 478.393 569.75 475.268L570.336 471.948L576.879 475.366C582.543 478.393 583.91 478.686 586.254 477.807C587.718 477.221 590.453 477.026 592.308 477.416C594.945 477.905 596.312 477.612 598.558 475.952C602.66 472.924 608.714 470.971 614.183 470.971H618.871L619.457 465.307C619.75 462.28 620.531 458.666 621.214 457.299C622.386 454.955 622.972 454.858 630.785 454.76C641.039 454.663 644.75 452.807 644.066 448.12C643.871 446.459 643.382 444.311 642.894 443.334C642.308 441.87 642.894 441.674 648.168 441.674C653.05 441.674 655.101 441.088 660.179 438.354L666.136 434.936L670.824 437.28L675.414 439.623L677.074 430.932C678.734 422.241 678.832 422.045 683.421 418.725C687.425 415.795 688.89 415.307 693.382 415.307C697.484 415.307 699.144 414.819 700.414 413.452C702.074 411.596 702.074 411.498 698.656 410.913C695.629 410.327 695.14 409.838 695.14 407.397C695.14 405.541 695.629 404.565 696.605 404.565C698.461 404.565 702.953 397.924 702.953 395.092C702.953 391.381 704.027 389.916 706.273 390.405C707.836 390.893 710.472 389.038 717.699 382.69L727.074 374.389L725.902 368.725C725.316 365.6 724.339 363.159 723.851 363.256C723.363 363.452 720.14 364.526 716.625 365.698C713.109 366.87 709.691 367.944 709.105 368.041C708.421 368.237 707.836 369.702 707.836 371.264C707.836 375.366 706.957 377.123 704.027 378.588C698.949 381.225 695.433 381.42 693.285 379.272C691.136 377.123 687.816 376.635 685.472 378.1C684.593 378.686 682.64 378.295 679.808 376.928C676.293 375.268 675.609 374.487 675.804 372.436C676.097 370.288 675.511 369.799 672.191 368.627C666.722 366.87 665.941 365.502 667.015 359.838C667.894 354.858 667.601 352.319 665.355 349.487C664.379 348.12 663.597 347.924 662.718 348.608C660.668 350.268 653.929 348.901 653.441 346.85C652.953 345.288 651.976 344.995 646.214 344.995C642.601 344.995 638.402 345.483 636.937 345.971C634.984 346.752 633.421 346.752 631.371 345.873C628.734 344.702 628.539 344.409 629.027 340.698C629.32 338.452 631.175 333.276 633.129 329.077C636.546 321.752 636.644 321.166 635.57 316.479C634.789 312.377 634.789 311.205 635.961 309.936C636.742 309.057 637.816 307.202 638.402 305.639C638.988 304.174 640.062 303.002 640.941 303.002C641.918 303.002 642.406 302.026 642.406 299.682C642.406 297.827 642.699 295.678 642.992 294.799C643.382 293.627 642.992 293.237 641.527 293.237C640.355 293.237 638.109 292.26 636.449 291.088C633.617 289.038 633.421 288.94 632.25 290.502C630.492 292.944 625.707 292.944 620.238 290.6C617.699 289.428 614.769 288.256 613.793 287.963C612.425 287.475 612.23 286.987 613.109 285.424C614.574 282.592 611.839 273.51 608.812 271.557C608.031 271.069 608.129 270.483 609.007 269.604C611.351 267.26 610.375 263.256 606.273 258.862C600.316 252.319 599.925 246.752 605.394 243.92C608.129 242.455 611.839 237.963 611.058 237.084C610.765 236.889 608.91 237.084 606.761 237.573C601.586 238.842 595.824 238.745 593.578 237.573C590.941 236.108 573.558 238.354 568.773 240.698C566.722 241.772 562.718 244.506 559.886 246.85C553.148 252.319 551 253.002 548.363 250.366L546.312 248.413L549.925 243.139C553.636 237.866 554.613 233.08 552.171 232.104C551.39 231.811 551.097 230.737 551.293 229.37C551.879 226.635 550.121 222.924 548.265 222.924C545.336 222.924 544.457 220.19 545.238 213.452C545.921 206.713 547.484 204.272 553.343 200.463C555.394 199.096 555.394 198.705 554.32 195.873C553.343 193.237 553.441 191.674 554.515 187.084C555.98 181.616 556.078 181.42 560.57 180.151C567.308 178.295 573.168 171.069 574.535 163.061C575.218 159.057 576.976 158.373 580.589 160.913C582.64 162.377 582.836 162.182 586.937 154.955C591.039 147.729 591.136 147.631 594.652 147.827C598.07 148.12 601.39 146.557 601.39 144.702C601.39 144.311 599.632 141.87 597.484 139.428C595.336 136.987 593.578 134.545 593.578 134.057C593.578 133.569 595.336 131.518 597.484 129.565C601.976 125.366 602.171 124.682 599.339 123.803C597.875 123.315 597.386 122.534 597.875 121.069C598.168 119.897 599.339 115.405 600.511 111.108C602.66 103.002 602.66 100.073 600.414 85.2289C599.828 81.7133 599.242 73.4125 599.046 66.6742C598.851 59.9359 598.656 53.6859 598.558 52.7094C598.461 51.5375 597.679 51.0492 595.629 51.0492C593.578 51.0492 592.504 50.4633 592.113 49.0961C591.332 46.6547 585.765 46.2641 585.765 48.6078C585.765 49.3891 584.496 51.4398 582.836 53.1977L580.004 56.4203L579.906 53.6859C579.906 52.2211 579.125 49.3891 578.05 47.3383C577.074 45.3852 576 41.6742 575.609 39.2328C575.218 36.6938 574.339 33.8617 573.558 32.8852C572.777 31.8109 572.093 28.9789 572.093 26.5375C572.093 22.8266 571.507 21.3617 569.261 18.9203C567.601 17.1625 566.039 14.9164 565.746 13.8422C564.867 11.1078 559.691 8.76407 555.882 9.35001C552.757 9.83829 552.66 9.74063 552.367 6.32266C552.074 3.1 551.781 2.70938 549.437 2.70938C547.875 2.61172 546.214 2.12344 545.531 1.43985C544.261 0.170317 543.187 0.072661 540.843 0.951567Z" fill="white"/>
<path d="M337.425 518.53C335.277 518.92 334.789 519.311 335.375 520.58C335.668 521.459 336.254 523.217 336.449 524.389C336.742 525.756 337.718 526.635 338.793 526.635C339.867 526.635 340.648 527.123 340.648 527.612C340.648 528.198 341.82 529.076 343.285 529.662C345.238 530.444 346.214 530.248 347.289 529.174C350.316 526.147 345.824 517.455 341.429 517.944C340.746 518.041 338.89 518.334 337.425 518.53Z" fill="white"/>
<path d="M587.718 860.131C587.23 861.498 586.351 862.573 585.765 862.573C584.496 862.573 584.496 866.186 585.765 866.967C586.351 867.26 586.742 869.116 586.742 870.971C586.742 874.682 586.839 874.78 591.234 873.12C594.457 871.948 595.531 870.092 595.531 865.307C595.531 863.354 595.14 862.768 594.066 863.159C593.089 863.549 592.601 863.159 592.601 861.889C592.601 859.936 590.843 857.69 589.476 857.69C588.988 857.69 588.207 858.764 587.718 860.131Z" fill="white"/>
<path d="M569.554 873.803C568.773 877.123 569.554 877.807 572.679 876.44C575.316 875.17 575.121 873.998 572.093 872.338C570.433 871.459 570.043 871.752 569.554 873.803Z" fill="white"/>
<path d="M575.023 881.03C576.293 883.471 578.246 883.764 577.757 881.42C577.562 880.444 576.683 879.565 575.707 879.369C574.144 879.076 574.046 879.272 575.023 881.03Z" fill="white"/>
<path d="M573.07 905.248C573.07 908.276 574.535 911.205 575.609 910.229C576.488 909.252 575.121 902.612 574.046 902.612C573.461 902.612 573.07 903.784 573.07 905.248Z" fill="white"/>
<path d="M585.472 904.174C584.691 905.541 581.859 917.26 581.859 919.311C581.859 922.631 584.593 921.264 586.742 916.772C588.304 913.549 588.695 911.596 588.207 909.252C587.328 905.248 586.156 903.1 585.472 904.174Z" fill="white"/>
<path d="M592.601 908.666C592.601 911.498 592.992 914.33 593.382 915.014C594.066 916.088 599.437 918.627 599.925 918.041C600.023 917.846 600.414 915.014 600.707 911.596C601.195 905.737 601.097 905.346 598.754 904.467C593.48 902.514 592.601 903.1 592.601 908.666Z" fill="white"/>
<circle id="466" cx="474" cy="459" fill="#5CE50D"/>
<circle cx="516" cy="140" fill="#E52A0D"/>
<circle id="465" cx="426" cy="355" fill="#E52A0D"/>
<circle id="464" cx="486" cy="634" fill="#E52A0D"/>
</svg>
