<svg width="1000" height="1000" viewBox="0 0 1000 1000" fill="none" xmlns="http://www.w3.org/2000/svg">
<path d="M346.629 255.578C344.286 262.121 341.454 264.953 336.278 265.93C333.348 266.516 332.567 267.297 331.004 271.008C328.368 277.062 327.391 278.234 325.34 277.16C322.801 275.793 319.872 278.82 318.407 284.387C317.723 287.023 316.258 290.441 315.282 291.906C313.133 295.031 313.036 300.207 315.086 302.551C315.965 303.527 316.844 305.578 317.04 307.141C317.528 311.437 321.043 318.859 323.192 320.227C324.95 321.301 325.047 322.082 324.559 327.844C323.875 334.484 319.579 343.469 316.942 343.469C316.258 343.469 314.598 344.348 313.329 345.422C311.473 346.789 310.008 347.18 307.469 346.789C303.856 346.203 300.829 348.059 300.829 350.891C300.829 352.453 295.262 355.187 292.235 355.187C291.258 355.187 289.793 354.113 289.11 352.746C288.329 351.379 285.594 348.937 282.86 347.277C278.172 344.348 277.879 344.348 274.852 345.715C272.118 347.082 271.629 347.082 271.141 345.812C270.848 345.031 269.676 344.445 268.602 344.445C267.43 344.445 264.989 343.273 263.133 341.906C260.497 339.855 259.129 339.465 256.688 339.953C254.54 340.344 253.075 340.051 251.805 338.879C250.34 337.512 249.657 337.512 247.704 338.586C246.239 339.367 243.993 339.562 241.551 339.172C239.5 338.781 235.692 338.195 232.958 337.902C227.391 337.316 225.926 336.437 225.438 333.41C225.145 331.555 224.364 331.164 219.286 330.773C214.11 330.383 213.426 329.992 213.133 328.039C212.938 326.867 211.961 325.402 210.887 324.914C209.227 324.035 209.032 322.766 209.032 314.66C209.032 309.094 208.641 305.285 207.958 304.797C207.372 304.504 203.563 303.82 199.364 303.332C195.262 302.844 190.379 301.867 188.524 301.184C182.665 298.742 175.438 296.594 173.583 296.594C171.532 296.594 170.262 293.957 171.727 292.492C173.192 291.027 171.434 287.805 169.09 287.805C168.114 287.805 166.551 288.684 165.575 289.758C163.036 292.492 162.059 292.199 158.348 287.316C154.637 282.336 153.661 281.945 152.489 285.266C151.219 288.488 148.875 289.074 141.942 287.707C136.473 286.633 135.692 286.633 133.25 288.391C131.883 289.367 129.735 290.734 128.661 291.418C127.586 292.004 126.415 293.078 125.926 293.762C125.34 294.738 122.997 295.031 117.43 294.738C111.375 294.543 109.52 294.836 108.543 296.008C107.762 296.887 106.2 297.57 104.93 297.57C103.661 297.57 102.196 298.449 101.61 299.523C100.926 300.891 99.5591 301.477 97.313 301.477C95.5552 301.477 91.9419 302.16 89.3052 302.941C86.6685 303.723 83.5435 304.406 82.3716 304.406C81.1997 304.406 79.6372 305.285 78.856 306.457C77.8794 307.727 75.9263 308.703 73.0942 308.996C66.5513 309.875 65.1841 310.949 65.77 314.465C66.356 318.762 65.6724 320.031 63.0356 320.031C61.7661 320.031 59.52 320.52 58.1528 321.203C56.2974 322.082 55.4185 322.082 54.5396 321.203C52.6841 319.348 49.8521 319.836 49.8521 321.887C49.8521 324.719 42.7231 326.379 41.7466 323.645C41.4536 322.766 40.6724 322.766 38.3286 323.547C35.7896 324.523 35.106 324.426 33.6411 322.863C32.3716 321.398 30.6138 321.008 26.2192 321.008C19.188 321.008 17.0396 322.082 16.1606 325.891C15.77 327.453 14.9888 328.82 14.4028 328.82C13.7192 328.82 11.3755 329.602 9.12939 330.48C4.83252 332.336 2.39111 335.656 4.14893 337.414C5.51611 338.781 4.24658 340.539 1.90283 340.539C0.437988 340.539 0.0473633 341.223 0.0473633 344.348C0.0473633 347.57 0.535645 348.449 3.46533 350.402C6.68799 352.648 6.78564 352.746 5.02783 354.699C1.80518 358.215 2.09814 359.387 6.78564 362.902C9.22705 364.758 11.4731 366.711 11.6685 367.297C11.8638 367.785 13.1333 369.25 14.4028 370.422C15.9653 371.789 16.9419 373.937 17.1372 376.379C17.4302 379.309 18.4067 380.969 22.2153 384.484C24.7544 386.926 27.6841 390.051 28.563 391.516C30.4185 394.348 35.4966 396.008 37.5474 394.348C39.2075 392.98 44.9692 394.055 44.9692 395.715C44.9692 396.398 45.8481 398.937 46.9224 401.477C48.9731 405.871 49.4614 406.262 54.7349 406.359C56.688 406.457 57.2739 407.043 57.4692 409.191C57.6646 410.949 58.9341 412.609 61.0825 414.074C64.6958 416.418 65.2817 418.273 65.9653 429.016C66.2583 432.824 67.1372 437.805 67.9185 440.148C68.6997 442.394 69.3833 445.129 69.3833 446.105C69.3833 446.984 70.5552 448.742 72.1177 449.914C75.438 452.551 76.6099 458.703 76.2192 470.91C76.1216 474.035 75.438 475.305 72.8013 477.551L69.481 480.285L70.0669 488.488C70.4575 494.641 70.3599 496.789 69.481 496.789C68.895 496.789 66.1606 498.84 63.4263 501.281C59.6177 504.894 58.2505 507.141 56.7856 511.828C55.1255 517.199 55.1255 517.98 56.395 519.445C57.3716 520.519 57.6646 522.082 57.3716 523.84C56.5903 527.746 59.4224 534.875 61.7661 534.875C62.8403 534.875 65.5747 536.144 67.9185 537.805C70.2622 539.367 73.2896 540.734 74.6567 540.734C76.0239 540.734 77.2935 541.125 77.6841 541.613C78.7583 543.469 84.3247 545.519 89.9888 546.203C93.2114 546.594 96.8247 547.57 97.9966 548.547C102.098 551.769 109.129 553.723 114.403 553.234C118.211 552.844 120.262 553.137 122.508 554.504C124.168 555.383 127.782 556.555 130.418 556.945C133.153 557.238 137.743 558.801 140.672 560.266C147.704 563.879 163.133 577.844 165.379 582.824C166.356 584.875 168.114 587.121 169.286 587.707C170.458 588.391 172.606 590.344 174.168 592.102C175.633 593.859 179.247 596.691 182.274 598.449C187.157 601.184 188.329 601.477 193.993 601.086C197.411 600.891 200.243 600.988 200.243 601.281C200.243 601.574 199.364 602.844 198.29 604.211C197.215 605.578 196.336 608.215 196.336 610.07C196.336 612.902 196.922 613.879 199.559 615.539C202.489 617.492 203.172 618.859 206.395 629.699C208.446 636.437 210.008 643.859 210.008 646.496C210.008 650.793 210.692 652.258 216.747 661.144C221.239 667.785 223.68 672.473 224.168 675.109L224.754 679.113L230.711 679.797C239.012 680.676 246.922 680.578 248.875 679.504C250.047 679.016 256.102 680.383 267.625 683.898C280.614 687.805 290.575 690.051 309.129 693.078L333.543 697.18L340.868 695.617C345.36 694.641 349.95 694.25 352.684 694.641C355.321 695.031 357.958 694.836 359.227 694.152C363.133 692.102 378.075 694.543 395.262 700.207L411.083 705.383L415.868 711.73C420.262 717.394 421.336 718.176 427.098 720.129C430.614 721.398 435.594 722.375 438.133 722.375C441.942 722.375 444.872 723.547 454.833 728.82C470.848 737.316 478.758 739.953 488.231 739.953C492.333 739.953 497.313 739.465 499.364 738.879C505.028 737.316 506.59 738.293 506.493 743.176L506.395 747.277L512.645 747.57C516.161 747.766 519.872 748.547 521.141 749.426C523.387 750.891 523.68 750.793 528.368 746.398C531.004 743.957 533.641 741.906 534.325 741.906C534.911 741.906 538.036 740.344 541.258 738.391C552.489 731.555 587.645 715.832 594.579 714.562C598.192 713.879 602.391 712.414 604.051 711.144C608.446 707.922 610.887 707.434 614.208 709.191C616.747 710.461 618.309 710.559 623.583 709.68C627 709.094 631.102 708.215 632.567 707.629C634.032 707.141 636.375 706.945 637.743 707.238C641.942 708.41 659.129 708.019 660.594 706.848C661.473 706.164 663.817 705.969 667.43 706.359C670.75 706.75 673.387 706.652 674.071 705.969C674.754 705.383 677.098 704.699 679.247 704.309C681.493 703.82 685.594 701.769 688.915 699.328C692.625 696.594 695.75 695.031 697.606 695.031C702.098 695.031 712.743 688.586 714.305 684.875C714.989 683.215 716.747 680.773 718.211 679.504C719.579 678.137 720.75 676.574 720.75 675.891C720.75 675.207 723.29 671.203 726.512 666.906C731.004 660.852 733.153 658.801 736.473 657.531C738.817 656.555 742.137 654.504 743.895 652.941C745.75 651.379 747.801 650.109 748.485 650.109C749.168 650.109 750.926 648.352 752.391 646.203C753.758 644.055 756.2 641.711 757.762 640.93C759.325 640.051 760.79 638.391 760.985 637.023C761.668 633.605 756.297 625.793 749.754 620.715C742.137 614.66 739.696 608.508 742.723 603.234C743.504 601.867 744.09 599.035 744.188 596.984C744.188 594.836 745.653 589.758 747.411 585.559C751.415 576.086 754.735 573.937 765.282 573.937C772.02 573.937 772.215 574.035 775.731 577.746C779.833 582.141 780.321 582.336 797.704 583.703L810.79 584.777L814.891 580.969C817.137 578.918 820.75 576.281 822.899 575.012C825.243 573.742 827.586 571.398 828.465 569.543C829.344 567.785 831.981 564.074 834.422 561.34C837.45 558.019 838.915 555.383 838.915 553.625C838.915 551.672 839.891 550.402 842.333 548.742C845.36 546.594 846.043 546.496 849.168 547.57C852.098 548.547 853.465 548.449 856.786 547.277C859.032 546.398 862.84 545.422 865.282 545.129C871.727 544.055 875.926 541.613 878.27 537.219C879.54 535.07 882.665 531.945 885.692 529.894C892.137 525.598 892.918 524.23 891.551 520.324C890.086 516.125 890.965 512.316 894.969 505.676C900.633 496.398 907.665 491.906 916.551 491.906C921.629 491.809 923.875 490.051 923.875 486.144C923.875 479.797 926.61 477.746 931.2 480.773C934.325 482.824 936.375 481.945 937.645 478.234C938.231 476.672 939.305 475.305 940.086 475.305C940.868 475.305 943.407 473.352 945.848 471.008C949.852 467.004 950.243 466.809 952.098 468.176C953.856 469.348 954.833 469.348 957.665 468.469C959.52 467.785 962.059 467.492 963.133 467.785C964.5 468.176 965.282 467.785 965.575 466.418C966.063 464.562 970.555 463.781 972.118 465.246C972.508 465.734 974.657 466.516 976.903 467.004C980.125 467.883 981.883 467.687 985.79 466.32C988.524 465.441 991.942 464.66 993.504 464.562C995.165 464.562 996.141 464.074 996.141 463.098C996.141 462.316 997.02 461.242 998.094 460.656C1000.93 459.191 1000.54 455.383 996.825 447.961C994.09 442.492 992.723 440.93 986.864 437.023C983.055 434.484 978.563 431.066 976.708 429.406C974.754 427.648 972.313 426.477 970.75 426.477C968.407 426.477 967.918 425.988 967.43 423.254C966.844 420.031 966.649 419.934 960.301 419.055C953.954 418.176 953.758 418.078 951.219 413.781L948.68 409.387L940.965 409.094C936.083 408.898 932.372 409.289 930.907 410.07C929.247 410.949 927.977 410.949 925.829 410.168L922.997 409.094L917.528 419.738L912.157 430.285L904.833 426.965C894.676 422.375 889.989 421.789 886.375 424.816C883.836 426.867 882.958 427.062 879.54 426.281C876.219 425.5 875.34 425.695 874.559 426.965C871.727 431.848 868.016 436.242 866.942 436.242C866.356 436.144 863.036 433.996 859.715 431.262C853.954 426.672 853.563 426.184 853.563 422.375C853.563 418.957 854.149 417.59 857.079 414.66L860.692 411.047L859.422 404.797C858.348 398.84 858.446 398.156 860.79 392.297C862.157 388.879 863.329 384.973 863.329 383.605C863.329 382.238 865.965 371.008 869.188 358.605L874.95 336.242L872.899 333.996C871.727 332.727 869.969 331.75 869.09 331.75C868.114 331.75 865.77 330.969 863.915 330.09C860.985 328.723 859.813 328.723 856.59 329.602C854.442 330.285 851.708 332.043 850.438 333.605C848.387 335.949 847.215 336.437 841.063 336.926L833.934 337.512L830.907 334.094C824.071 326.574 814.305 322.766 809.032 325.695C807.469 326.477 806.395 326.477 804.344 325.402C800.926 323.547 798.875 324.426 793.993 329.992C791.747 332.629 789.208 334.68 788.329 334.68C787.352 334.68 782.567 338.586 777.684 343.273C768.797 351.574 768.602 351.965 768.602 356.262C768.602 360.656 768.504 360.754 764.696 362.023C762.547 362.707 760.301 363.879 759.715 364.562C759.032 365.441 757.274 365.637 754.54 365.344C751.219 364.855 749.754 365.148 746.825 367.199C742.43 370.227 732.274 373.742 728.075 373.742C726.415 373.742 724.168 374.426 722.997 375.207C721.825 375.988 720.262 376.379 719.481 376.086C717.723 375.402 712.45 378.039 711.668 379.894C711.083 381.457 699.754 388.391 697.801 388.391C697.02 388.391 694.872 387.707 693.016 386.73C689.989 385.363 689.403 385.266 687.352 386.633C684.422 388.586 670.458 388.781 668.895 386.828C668.211 386.047 666.844 385.754 665.086 386.144C662.938 386.535 661.766 386.144 660.008 384.289C657.079 381.066 653.368 380.187 650.731 382.043C649.559 382.824 647.899 383.215 647.118 382.922C646.239 382.629 642.625 382.824 639.012 383.508L632.469 384.777L627.977 379.894C625.536 377.16 622.411 374.621 620.848 374.328C617.821 373.644 614.305 368.664 614.305 365.148C614.305 358.605 609.032 355.187 598.68 355.187C593.7 355.187 593.407 354.992 586.571 348.449C582.762 344.836 578.661 341.223 577.489 340.637C576.317 340.051 572.118 339.562 568.211 339.66C563.036 339.758 559.715 339.172 555.907 337.707C553.075 336.535 548.875 335.656 546.629 335.656C544.383 335.656 540.77 334.973 538.426 334.094C534.325 332.531 534.227 332.531 531.297 335.07C528.172 337.707 520.067 340.539 515.77 340.539C511.375 340.539 506.883 342.297 503.368 345.324C499.852 348.449 497.02 349.035 492.723 347.375C490.868 346.691 488.915 346.691 486.375 347.473C483.348 348.449 482.274 348.352 480.516 347.082C478.954 346.008 477.684 345.812 476.024 346.398C474.168 347.18 473.485 346.887 472.606 345.129C470.946 342.102 468.7 340.637 465.575 340.539C464.11 340.539 461.278 339.562 459.227 338.293C457.274 337.121 454.735 335.656 453.661 335.07C452.586 334.484 451.61 333.117 451.415 332.141C451.219 330.969 449.852 329.699 448.094 329.016C445.262 327.941 445.165 327.648 445.653 324.035C446.043 321.008 445.75 319.738 444.286 318.469C442.821 317.199 442.723 316.516 443.602 315.441C444.481 314.367 444.481 313.195 443.504 310.559C442.821 308.703 442.137 303.625 442.04 299.426C441.942 295.227 441.454 291.32 440.965 290.832C439.012 288.879 426.122 284.68 422.411 284.68C419.579 284.777 417.43 284.094 414.598 281.945C412.45 280.383 406.883 277.062 402.196 274.621C395.36 271.105 392.625 270.227 388.719 270.227C382.665 270.227 377.684 268.273 375.633 265.148C374.657 263.586 372.02 262.121 368.504 261.047C365.379 260.07 361.766 258.215 360.399 256.848C357.665 254.113 351.024 249.719 349.657 249.719C349.168 249.719 347.801 252.355 346.629 255.578Z" fill="white"/>
<circle id="448" cx="596" cy="448" fill="#5CE50D"/>
<circle cx="810" cy="428" fill="#E52A0D"/>
<circle id="1027" cx="152" cy="428" fill="#E52A0D"/>
<circle cx="673" cy="643" fill="#E52A0D"/>
</svg>
