<svg width="1000" height="1000" viewBox="0 0 1000 1000" fill="none" xmlns="http://www.w3.org/2000/svg">
<path d="M722.34 14.3689C722.34 15.6979 706.961 114.807 706.676 115.092C706.486 115.282 654.938 110.725 591.998 104.934C529.058 99.1433 476.37 94.3968 474.851 94.3968H472.193L465.738 132.085C462.225 152.875 454.821 198.632 449.315 233.852C443.904 269.072 439.347 297.931 439.157 298.026C439.062 298.121 433.176 300.21 426.151 302.583C414.095 306.76 412.956 306.95 406.595 306.475L399.855 305.811L381.153 316.633C363.876 326.506 361.977 327.835 356.756 334.006L351.06 340.746L351.629 355.366C352.104 368.181 351.724 375.491 348.212 412.325C346.123 435.583 344.13 454.855 344.035 454.949C343.845 455.139 296.379 451.627 238.47 447.165C180.656 442.703 126.165 438.621 117.432 438.052C102.812 437.197 100.818 436.817 90.6606 433.305C80.6927 429.887 78.7941 429.508 70.2502 429.508H60.8519L56.8647 436.343C54.6813 440.14 51.1688 447.26 49.1752 452.196C45.9475 459.981 45.4729 461.974 45.4729 468.62C45.4729 476.024 45.4729 476.119 47.6563 475.455C50.5043 474.6 50.1245 475.17 52.5928 466.816C53.732 462.639 56.1053 456.848 57.8141 453.81C61.5164 447.26 61.9911 447.64 64.0796 459.411C66.263 472.037 68.7313 478.683 74.1424 486.942L79.1738 494.536L79.4586 488.935C79.7434 483.809 79.8383 483.429 81.8319 483.999C82.9711 484.284 84.2052 484.568 84.5849 484.568C86.0089 484.568 89.1417 492.163 89.1417 495.675C89.1417 502.795 91.6099 509.82 96.0718 516.181C101.008 523.111 101.673 526.908 98.7299 530.705C97.6856 531.939 96.6413 535.262 96.2616 538.015C95.692 542.192 94.9326 543.521 91.4201 546.749C88.4772 549.502 87.2431 551.401 87.2431 553.204C87.2431 555.103 87.7177 555.768 89.1417 555.768C91.3251 555.768 91.3251 555.957 89.9961 560.989C89.2366 563.742 86.8633 566.97 80.8826 572.95C74.8069 579.121 72.9083 581.684 73.1931 583.298L73.4779 585.386L76.041 583.393C77.7498 582.064 78.7941 581.684 79.1738 582.443C79.5535 583.013 80.6927 583.298 81.6421 583.013C83.2559 582.538 83.2559 582.728 81.9268 584.722C79.9333 587.76 75.6613 589.279 70.7248 588.804L66.6428 588.329L67.4022 592.696C68.8262 600.291 69.0161 600.86 74.5221 608.455C77.56 612.632 80.5029 618.138 81.2623 620.796C82.9711 626.492 83.6356 647.282 83.6356 685.35C83.5407 712.121 83.5407 713.26 80.7877 725.791C78.0346 738.512 77.8448 738.987 68.7313 755.03C63.4151 764.429 57.8141 775.726 55.4407 781.896C53.2573 787.782 48.6056 798.414 45.0931 805.439C39.8719 815.692 37.8783 820.913 35.0303 832.21C33.0367 839.9 31.6128 846.26 31.8026 846.26C32.0874 846.26 33.4165 845.691 34.8404 844.931C38.4479 843.032 41.5806 839.33 46.707 831.071C50.5992 824.616 51.5485 823.761 55.8205 822.147C62.2759 819.869 67.8769 820.818 73.5728 825.185C77.9397 828.508 78.0346 828.508 85.4393 827.938C89.9961 827.559 95.0275 826.419 98.7299 824.9C105.375 822.242 109.647 822.052 126.925 823.477C136.798 824.236 137.937 824.141 140.69 822.527C145.057 819.869 162.05 819.869 170.783 822.527C174.96 823.761 179.707 824.426 185.498 824.426C198.883 824.426 200.592 824.9 203.155 829.552C204.295 831.641 207.712 836.008 210.75 839.14C217.205 846.07 218.25 847.874 218.25 852.716C218.25 856.798 219.389 857.652 225.559 857.652C228.312 857.652 228.977 858.222 230.97 862.304L233.344 866.861L242.647 868.949C247.773 870.183 252.615 871.227 253.374 871.512C254.134 871.702 256.602 873.506 258.786 875.404C262.108 878.442 264.387 882.429 272.456 899.897C277.772 911.384 282.519 921.257 282.993 921.921C283.468 922.491 284.987 923.25 286.411 923.63C287.835 923.915 290.778 926.003 293.056 928.187C296.853 931.889 297.043 932.364 297.043 937.585C297.043 945.37 300.366 951.825 306.157 955.242C316.504 961.413 325.048 968.913 329.605 975.843L334.162 982.773L355.806 986L363.686 981.539C368.053 979.07 371.66 976.982 371.755 976.887C371.755 976.887 371.375 973.469 370.711 969.482L369.572 962.078L377.736 946.699C385.9 931.414 385.995 931.225 391.121 928.567C393.874 927.143 397.766 924.389 399.76 922.491L403.178 919.168L407.07 921.826C410.867 924.484 410.962 924.674 410.962 930.275V935.971L426.341 949.641L441.815 963.312L449.979 954.578L458.238 945.939H462.985C467.921 945.939 468.871 945.085 468.871 941.098C468.871 939.484 469.63 939.294 476.086 939.294C479.978 939.294 486.148 938.819 489.661 938.25L496.211 937.3L522.792 948.123L552.886 946.414L553.455 933.693L558.297 930.75C560.86 929.136 563.138 927.902 563.328 928.092C563.423 928.282 562.664 931.225 561.62 934.832C560.575 938.345 559.911 941.382 560.101 941.572C560.48 941.952 838.727 963.122 842.429 963.027C844.138 963.027 845.277 959.419 853.156 930.465C857.903 912.618 861.89 897.429 861.89 896.859C861.89 896.29 858.283 892.872 853.916 889.454L845.942 883.094L845.372 877.303C844.802 870.658 842.524 208.41 842.999 207.936C843.189 207.746 868.82 209.265 899.863 211.258C930.906 213.157 959.006 214.961 962.329 215.151C965.556 215.34 968.214 215.246 968.214 214.961C968.119 214.676 962.898 210.404 956.538 205.467C950.177 200.531 926.159 180.785 903.186 161.704C858.852 124.965 725.568 15.508 723.574 14.2739C722.909 13.8942 722.34 13.8942 722.34 14.3689Z" fill="white"/>
<circle id="432" cx="88" cy="712" fill="#5CE50D"/>
<circle id="1408" cx="330" cy="520" fill="#E52A0D"/>
<circle id="433" cx="44" cy="463" fill="#E52A0D"/>
<circle cx="546" cy="835" fill="#E52A0D"/>
</svg>
