<svg width="1000" height="1000" viewBox="0 0 1000 1000" fill="none" xmlns="http://www.w3.org/2000/svg">
<path d="M114.507 80.8377C114.13 81.121 113.846 82.1596 113.846 83.1038C113.846 84.048 112.997 85.2754 112.052 85.8419C109.692 87.0694 102.799 87.0694 102.044 85.8419C101.289 84.6145 87.2202 85.5587 79.1002 87.3526C71.7355 88.9578 65.1261 92.2624 58.4223 97.8332C53.7958 101.516 52.7572 101.988 50.2079 101.421C45.6757 100.288 43.1264 100.571 41.0492 102.46C39.6329 103.782 38.8776 103.876 37.0836 103.026C35.9506 102.46 32.1738 102.082 28.5858 102.176C20.1825 102.554 18.9551 103.782 17.6332 113.601C16.689 119.927 16.7834 121.438 18.0109 123.232C19.5216 125.592 19.8993 129.275 18.5774 129.275C18.1997 129.275 18.0109 130.313 18.2941 131.635C18.5774 133.24 19.3328 133.996 20.749 133.996C21.7877 133.996 23.5816 134.657 24.5258 135.412C25.5644 136.167 27.0751 136.64 27.9249 136.356C28.8691 136.073 30.6631 137.206 32.5515 139.094C35.384 142.021 35.6673 142.777 35.1952 145.987C34.8175 147.875 35.1008 151.086 35.6673 152.974C36.5171 156.09 36.4226 156.845 34.5343 159.678C33.3068 161.377 31.324 163.738 30.0966 164.965C27.3584 167.703 27.1696 172.708 29.8133 175.068C30.9463 176.107 31.7017 177.995 31.7017 179.884C31.7017 182.716 31.9849 182.999 35.5729 183.566C39.1608 184.227 39.3496 184.416 39.0664 187.154C38.7831 189.986 38.4999 190.175 34.7231 190.458L30.7575 190.742V197.823C30.7575 205.471 29.2468 209.626 24.7147 214.535C23.3928 215.952 22.2598 217.651 22.2598 218.218C22.2598 218.69 23.5816 220.862 25.1868 222.844C27.6417 226.055 28.5858 226.527 31.7961 226.527C34.251 226.527 36.6115 227.282 38.4055 228.604C41.1436 230.681 41.3324 230.681 42.4655 229.076C43.4097 227.849 45.1092 227.471 50.3023 227.471C55.1177 227.471 57.2893 227.093 58.1391 226.055C59.6498 224.261 63.7098 224.261 65.6926 226.055C66.5424 226.81 69.4694 227.754 72.302 228.132C76.5508 228.793 77.5895 229.359 78.9113 231.72C80.0444 233.797 81.4606 234.741 84.3876 235.308C86.937 235.78 88.3532 236.63 88.3532 237.479C88.3532 239.84 90.997 240.029 94.4905 237.951C99.0226 235.308 100.817 235.496 97.7008 238.235C96.2845 239.462 94.8682 241.35 94.4905 242.484C94.0184 243.994 93.1686 244.466 90.6193 244.466C87.0314 244.466 86.6537 245.222 89.1086 247.393C89.9584 248.243 91.9412 250.887 93.3575 253.436C95.718 257.402 96.2845 257.874 98.7394 257.496C101.855 257.024 102.422 257.874 101.855 262.028C101.289 265.522 102.611 266.655 105.349 265.239C106.859 264.389 107.426 264.483 107.804 265.616C108.559 267.599 111.769 268.449 113.28 267.221C114.035 266.56 117.434 265.522 120.833 264.861C127.443 263.445 129.142 263.728 137.262 267.221C139.434 268.26 142.078 269.015 142.928 269.015C143.872 269.015 145.099 269.487 145.666 270.054C146.232 270.62 150.953 271.47 156.052 271.848C161.151 272.226 166.721 273.075 168.421 273.642C170.592 274.303 173.142 274.303 176.258 273.736C179.94 272.981 181.734 273.17 184.566 274.303C188.06 275.625 188.343 276.097 188.91 280.44C189.476 284.311 190.043 285.35 192.214 286.483C193.725 287.238 196.652 287.899 198.729 287.899C201.94 287.899 202.884 288.466 205.716 291.865L209.021 295.83L212.703 291.865C215.064 289.315 217.424 287.71 219.596 287.333C221.39 286.955 225.733 284.972 229.227 282.801L235.553 278.929L235.27 274.869C235.081 272.698 234.231 270.054 233.287 269.015C232.343 267.977 231.965 267.127 232.531 267.127C233.098 267.127 234.514 269.11 235.836 271.565C237.725 275.247 238.763 276.191 241.879 277.135C243.956 277.796 247.072 278.929 248.772 279.874C252.171 281.573 254.531 280.629 254.531 277.419C254.531 274.775 255.853 274.492 262.462 275.719L268.6 276.852L273.415 272.509C278.042 268.354 280.969 266.938 280.969 268.921C280.969 269.487 280.591 270.148 280.024 270.432C278.703 271.281 278.891 272.792 280.308 272.792C280.874 272.792 283.896 271.093 286.917 269.015C289.844 266.938 293.149 265.239 294.187 265.239C295.226 265.239 296.076 264.766 296.076 264.294C296.076 263.728 297.114 262.784 298.436 262.217C301.174 260.99 302.024 258.818 301.174 255.419C300.702 253.531 300.136 253.058 298.814 253.436C295.037 254.664 297.492 248.998 301.458 247.393C304.196 246.355 312.788 246.355 314.582 247.582C315.526 248.149 324.874 248.432 341.869 248.526C344.985 248.526 346.968 248.998 347.629 249.943C348.573 251.265 349.234 251.264 352.727 250.226C355.749 249.376 356.976 248.338 357.731 246.26C358.77 243.522 358.864 243.522 364.624 244.089C370.384 244.655 370.478 244.655 373.594 241.445C378.315 236.63 383.036 233.986 385.113 235.119C386.34 235.874 386.718 235.685 386.718 234.741C386.718 233.986 388.04 232.853 389.645 232.192C392.383 231.059 392.478 230.776 391.911 227.093C391.25 222.75 385.019 209.531 383.13 208.304C382.469 207.832 380.392 206.038 378.409 204.149C376.521 202.355 372.555 198.579 369.723 195.935C366.89 193.197 363.019 189.798 361.225 188.287C359.431 186.871 356.882 183.471 355.56 180.828C353.483 176.673 352.727 176.012 350.083 175.729C348.29 175.54 345.929 176.107 344.513 176.957C342.152 178.562 342.058 178.562 338.659 174.879C336.77 172.802 334.41 170.819 333.371 170.442C331.861 170.064 331.388 169.025 331.294 166.287C331.2 164.399 331.105 162.133 330.916 161.377C330.822 160.528 331.011 158.734 331.388 157.223C331.955 154.957 331.483 154.107 328.556 151.274C325.346 148.253 324.59 147.97 320.719 148.442C318.359 148.725 315.998 149.575 315.432 150.425C314.771 151.274 313.543 151.935 312.693 151.935C311.844 151.935 309.483 152.785 307.406 153.824C302.968 156.09 302.685 156.09 302.685 154.39C302.685 153.635 301.174 151.463 299.38 149.481C297.586 147.592 296.076 145.609 296.076 145.232C296.076 144.76 295.226 144.382 294.282 144.382C293.243 144.382 290.977 143.532 289.183 142.493C285.973 140.605 284.84 138.433 284.745 134.468C284.651 132.107 279.175 129.369 275.776 130.03C273.887 130.313 272.66 131.824 270.582 135.884C268.033 140.888 267.561 141.36 263.973 141.927C260.668 142.493 259.347 142.116 255.853 139.944C253.587 138.528 251.699 136.828 251.699 136.262C251.699 134.468 247.45 131.163 243.106 129.747C238.858 128.331 233.759 124.365 233.759 122.571C233.759 122.005 232.909 119.55 231.776 117C230.454 113.884 228.944 112.09 227.15 111.335C225.639 110.674 223.75 109.447 222.806 108.408C221.957 107.464 220.163 106.614 218.935 106.614C217.708 106.614 215.725 105.953 214.497 105.198C211.665 103.31 209.776 104.159 207.416 108.125C203.45 114.829 199.957 113.129 199.579 104.443C199.296 98.683 199.201 98.5885 195.802 96.889C192.97 95.6615 191.365 95.4727 188.438 96.1336C185.133 96.889 184.472 96.7001 183.717 95.2839C182.489 93.0178 182.489 89.902 183.717 89.1466C184.283 88.8634 184.661 87.7303 184.661 86.6917C184.661 83.9535 179.846 84.3312 177.107 87.2582L174.936 89.5243L173.425 87.5415C171.82 85.5587 167.76 84.5201 157.279 83.387C154.447 83.1038 150.953 82.4428 149.631 81.9707C148.026 81.3098 146.327 81.4042 144.533 82.0652C142.455 82.8205 141.606 82.7261 140.284 81.5931C138.207 79.7047 134.241 79.7991 132.258 81.6875C130.087 83.9535 122.439 84.048 119.606 81.8763C117.246 80.0824 115.546 79.7047 114.507 80.8377Z" fill="white"/>
<path d="M395.876 272.227C396.537 278.553 395.215 279.591 391.344 275.72C389.739 274.115 387.851 272.793 387.095 272.793C386.34 272.793 385.49 272.132 385.207 271.377C384.829 270.621 383.696 269.96 382.469 269.96C380.864 269.96 379.919 270.905 378.786 273.737C377.937 275.814 376.615 277.514 375.859 277.514C374.821 277.514 374.443 276.475 374.443 273.737C374.443 269.3 373.027 268.827 368.778 271.943C366.701 273.548 365.379 273.832 362.829 273.36C360.091 272.887 359.525 273.076 359.053 274.681C358.769 275.72 359.43 278.081 360.375 280.063C361.319 281.952 362.169 284.879 362.169 286.578C362.169 288.844 362.924 290.166 365.379 292.055C367.173 293.376 368.778 295.454 368.967 296.587C369.156 298.003 369.911 298.758 371.138 298.853C372.177 298.947 373.688 299.23 374.632 299.608C377.181 300.741 375.104 305.651 369.533 311.222C366.889 313.96 364.907 316.415 365.284 316.792C365.568 317.076 367.928 316.887 370.477 316.226C373.027 315.659 377.653 315.282 380.675 315.471C383.791 315.565 386.906 315.282 387.662 314.81C388.417 314.243 392.76 313.865 397.293 313.771C401.73 313.771 405.979 313.299 406.734 312.732C408.717 311.222 416.743 309.522 419.198 310.183C422.691 311.033 425.429 309.805 425.429 307.35C425.429 306.217 426.468 304.235 427.79 303.007C430.056 300.836 431.095 296.398 429.206 296.398C427.979 296.398 423.541 291.488 423.541 290.072C423.541 288.278 414.76 281.291 412.4 281.291C409 281.291 404.657 278.647 404.657 276.57C404.657 274.398 398.426 267.128 396.632 267.128C395.687 267.128 395.499 268.355 395.876 272.227Z" fill="white"/>
<path d="M348.383 285.16C348.1 285.727 346.967 286.01 346.023 285.727C343.19 284.971 343.662 289.409 346.589 291.298C348.855 292.808 349.139 292.714 350.744 291.298C352.443 289.787 352.821 289.787 355.465 291.109C358.958 292.997 359.336 292.997 359.336 291.203C359.336 290.448 358.486 289.315 357.448 288.654C356.409 287.993 355.559 286.954 355.559 286.388C355.559 284.216 349.611 283.272 348.383 285.16Z" fill="white"/>
<path d="M362.168 296.96C362.168 297.81 362.829 298.282 363.774 298.093C366.134 297.621 366.417 295.449 364.151 295.449C363.018 295.449 362.168 296.016 362.168 296.96Z" fill="white"/>
<path d="M466.219 334.352C465.558 335.013 465.085 336.335 465.085 337.279C465.085 338.601 464.708 338.884 463.48 338.412C459.231 336.524 457.06 336.901 454.416 339.639C451.772 342.378 451.772 342.378 453.378 345.777C454.699 348.609 455.549 349.176 458.382 349.459C461.025 349.648 461.781 350.12 461.781 351.631C461.781 352.669 461.12 353.614 460.365 353.708C459.609 353.802 456.871 354.18 454.416 354.463C450.451 355.03 449.695 355.408 448.845 357.862C448.09 360.129 447.429 360.601 444.691 360.601C441.858 360.601 441.197 360.129 440.442 357.862C439.309 354.558 437.609 353.708 434.494 354.935C432.039 355.785 430.15 360.506 430.15 365.416C430.15 368.721 429.489 369.098 426.562 367.588C425.146 366.832 422.219 366.266 420.047 366.266C416.743 366.266 415.987 366.549 415.987 367.965C415.987 369.57 415.515 369.57 409.945 368.815C404.563 367.965 403.524 368.06 400.503 369.854L397.104 371.837L394.365 369.57C391.438 367.021 384.263 366.266 382.374 368.154C380.769 369.759 375.198 365.322 374.254 361.734C373.404 358.618 371.61 358.335 371.61 361.356C371.61 362.206 370.949 364.189 370.194 365.699C368.306 369.287 369.25 370.231 376.426 372.309C383.507 374.291 385.396 376.369 383.885 380.806C382.941 383.733 382.563 384.111 380.958 383.167C377.936 381.562 375.765 382.978 371.138 389.493C367.55 394.403 366.323 395.536 364.151 395.536C362.263 395.536 361.224 396.197 360.469 397.896C359.902 399.218 358.864 400.257 358.297 400.257C357.731 400.257 357.448 400.918 357.731 401.673C358.108 402.428 357.92 403.278 357.448 403.561C356.881 403.939 356.503 404.883 356.503 405.827C356.503 406.772 355.842 408.094 355.087 408.754C354.048 409.604 353.954 410.265 354.615 411.115C355.37 411.965 354.993 412.72 353.199 413.853C351.877 414.703 350.838 416.119 350.838 417.063C350.838 418.857 356.598 424.806 359.997 426.6C363.49 428.394 368.4 427.827 371.422 425.278C374.065 423.106 374.349 423.012 382.563 423.862C387.19 424.334 391.061 424.806 391.25 424.806C391.344 424.806 391.438 425.844 391.438 427.072C391.438 428.299 392.477 430.849 393.799 432.737C396.726 437.08 397.104 442.745 394.365 442.745C391.344 442.745 391.155 444.539 393.799 448.033C396.159 451.149 396.632 451.338 400.314 450.771C403.902 450.204 404.091 450.299 402.297 451.715C397.67 455.209 395.971 457.286 397.198 457.664C400.314 458.608 400.88 459.835 399.37 462.101C397.576 464.839 398.898 467.861 402.391 469.183C403.619 469.655 404.657 470.882 404.657 471.827C404.657 473.715 401.919 476.736 400.125 476.736C398.142 476.736 396.159 479.758 396.159 482.779C396.159 484.479 395.31 487.028 394.271 488.35C393.044 489.955 392.477 491.843 392.666 494.298L392.855 497.981H388.606C386.245 498.075 382.941 498.83 381.336 499.68C378.031 501.38 375.104 506.006 375.576 508.65C375.67 509.5 375.482 510.727 375.104 511.294C374.821 511.86 375.482 513.843 376.615 515.543C378.409 518.186 379.353 518.753 382.469 518.847C384.546 518.942 388.606 519.697 391.533 520.547C395.971 521.869 397.009 522.624 398.331 525.362C399.747 528.289 401.352 529.233 404.091 528.761C404.563 528.667 406.64 528.856 408.528 529.139C412.966 529.894 413.721 531.783 411.644 536.787C410.133 540.375 410.133 540.375 412.683 542.452C414.854 544.152 415.043 544.718 414.194 546.512C412.966 548.778 411.455 548.967 408.056 547.456C405.318 546.134 400.88 547.079 400.88 548.873C400.88 549.534 401.73 551.233 402.769 552.555C404.374 554.632 405.224 554.915 408.151 554.443L411.55 553.877L410.983 557.937C410.606 560.958 410.983 563.036 412.305 565.679C414.571 570.023 414.099 571.156 409.945 571.156C407.679 571.156 405.885 570.306 403.335 567.756C400.786 565.302 399.181 564.452 397.292 564.641C395.876 564.829 394.177 564.641 393.61 564.263C392.855 563.791 391.061 564.452 389.267 565.963C386.057 568.323 386.057 568.417 385.396 578.237C384.735 589.095 385.301 591.361 389.078 592.305C390.494 592.683 391.438 593.533 391.438 594.572C391.438 595.61 392.76 596.932 394.743 597.876C396.915 598.915 398.048 600.142 398.048 601.37C398.048 604.013 400.692 609.112 402.863 610.623C405.318 612.322 405.129 614.211 402.58 614.966C399.181 615.816 391.344 615.627 387.19 614.494C380.486 612.7 377.276 612.417 375.859 613.644C373.782 615.344 375.009 619.215 378.975 623.275L382.28 626.768L379.447 631.301C377.842 633.756 376.237 636.777 375.859 638.004C374.821 641.687 376.992 646.125 381.619 649.618C386.434 653.206 390.305 659.815 393.516 670.107C395.31 675.961 395.593 679.266 395.31 689.557C395.215 692.295 395.782 693.901 397.481 695.695C398.709 697.016 401.73 701.265 404.185 705.042C406.829 709.291 410.039 712.784 412.305 714.201C414.288 715.523 415.987 717.222 415.987 717.883C415.987 720.81 422.03 723.171 431 723.832C436.571 724.209 439.592 724.776 439.592 725.531C439.592 726.098 438.365 727.797 436.76 729.308L433.927 732.046L436.571 733.746C437.987 734.69 440.348 735.445 441.858 735.445C443.747 735.445 446.013 736.861 449.884 740.355C455.549 745.454 457.815 748.569 458.759 752.535C459.137 754.14 461.309 756.217 465.274 758.861C468.579 760.938 473.583 764.998 476.416 767.925C479.248 770.852 483.875 774.251 486.707 775.573C489.446 776.99 494.072 780.389 496.81 783.221C500.965 787.376 502.759 788.509 506.819 789.453C509.557 790.114 512.106 791.152 512.578 791.719C512.956 792.38 517.205 794.835 522.02 797.101C526.741 799.367 531.462 802.105 532.501 803.238C533.445 804.371 535.711 805.693 537.411 806.26C540.904 807.487 541.565 809.753 539.582 814.096C538.732 816.079 538.921 816.929 540.715 819.384C542.509 821.744 543.548 822.311 546.475 822.311C549.496 822.311 550.724 822.972 553.179 825.615C556.011 828.731 556.672 829.015 560.921 828.826C564.603 828.637 568.097 829.581 576.5 832.886C586.981 836.946 587.358 837.229 587.17 839.873C587.075 841.478 587.642 843.366 588.775 844.499C589.719 845.538 590.663 847.898 590.852 849.692C591.135 852.903 591.23 852.997 596.706 854.13C599.727 854.697 603.504 856.113 604.92 857.152C607.092 858.757 608.036 858.945 609.453 858.19C612.191 856.774 619.744 856.963 620.594 858.568C621.538 860.267 628.714 860.834 630.508 859.418C632.774 857.529 636.929 859.134 638.628 862.533C639.383 864.327 640.611 865.744 641.366 865.744C642.027 865.744 642.971 866.593 643.538 867.632C644.671 869.709 647.315 870.087 648.92 868.482C649.77 867.632 651.28 868.01 655.151 869.804C657.984 871.126 661.1 871.975 662.138 871.787C663.366 871.409 664.31 871.975 665.065 873.486C666.859 876.696 674.791 880.945 676.962 879.718C678.19 879.057 679.323 879.151 680.834 879.907C683.949 881.606 687.254 880.473 690.181 876.602C693.202 872.731 694.902 872.447 696.979 875.658C698.396 877.735 699.151 878.018 704.438 878.018C710.292 878.018 710.481 878.113 713.503 881.889C717.468 886.988 726.06 892.559 728.799 891.803C730.215 891.426 731.631 892.087 733.331 893.692C735.691 895.958 736.352 896.052 742.773 895.675C746.644 895.391 751.081 894.919 752.592 894.542C754.858 894.069 755.897 894.353 757.219 895.863C758.918 897.657 759.674 897.752 770.721 897.185C778.18 896.808 783.09 896.996 784.506 897.563C785.639 898.13 789.888 899.735 794.042 901.151C798.102 902.473 805.467 905.966 810.471 908.799C815.475 911.631 820.102 913.898 820.668 913.898C821.235 913.898 822.462 914.747 823.312 915.691C825.767 918.43 834.17 919.468 855.698 919.752C873.354 919.94 874.865 919.846 876.754 918.146C878.075 917.013 879.869 916.447 881.758 916.541C885.723 916.919 892.805 911.726 892.805 908.516C892.805 906.155 893.749 905.777 895.354 907.383C896.676 908.704 902.247 905.683 902.247 903.511C902.247 902.756 906.118 898.224 910.744 893.597C915.465 888.971 919.242 884.816 919.242 884.439C919.242 882.739 917.259 884.155 909.045 891.803C902.436 897.941 900.358 899.451 900.358 898.035C900.358 896.996 900.642 895.958 901.114 895.769C902.624 895.108 910.744 885.572 910.744 884.439C910.744 882.456 902.341 873.392 900.547 873.486C899.697 873.486 897.809 873.203 896.393 872.825C891.577 871.503 892.144 874.619 897.903 881.04C900.83 884.25 903.191 887.082 903.191 887.366C903.191 887.743 902.341 888.499 901.397 889.065C899.697 890.104 898.47 889.254 889.783 881.417C881.663 873.864 879.869 872.636 878.359 873.486C877.226 874.053 876.754 875.091 877.037 876.224C877.414 877.452 877.037 878.018 875.998 878.018C873.354 878.018 871.749 876.413 872.221 874.43C872.505 873.297 871.938 871.22 870.711 869.426C866.462 862.911 866.367 862.533 867.784 861.023C869.011 859.89 869.389 859.89 870.522 861.495C871.749 863.289 871.938 863.194 875.337 860.645C878.359 858.285 878.736 857.624 878.264 855.074C877.509 851.203 875.148 847.804 873.354 847.804C872.221 847.804 871.938 847.237 872.41 845.632C872.693 844.499 872.977 842.8 872.977 841.761C872.977 840.25 873.449 840.156 877.131 840.628C880.153 841.1 882.23 840.911 884.213 839.873C888.745 837.512 891.2 837.984 892.899 841.478C893.749 843.366 895.921 845.255 898.47 846.577C903.474 849.22 905.835 849.315 906.684 847.049C907.062 846.199 908.101 844.405 909.045 843.177C910.65 841.1 910.65 840.723 909.328 838.74C908.573 837.512 907.912 835.53 907.912 834.396C907.912 833.169 907.251 829.487 906.59 826.088C905.457 820.895 905.457 819.478 906.59 816.929C908.006 813.341 908.478 813.247 911.594 815.418C913.766 816.929 913.766 817.023 912.066 817.59C910.461 818.156 910.556 818.44 913.105 819.762C918.581 822.783 923.774 828.354 925.946 833.641C927.079 836.474 928.684 839.401 929.44 839.967C930.478 840.817 930.856 842.611 930.667 846.293C930.478 851.298 930.478 851.486 933.122 851.77C935.388 852.053 935.766 852.525 936.049 855.169C936.238 856.963 935.954 859.512 935.482 861.023C934.633 863.289 934.821 863.95 936.71 865.744C938.315 867.254 939.07 869.237 939.448 873.675C940.392 881.701 940.581 881.984 945.963 880.19C949.551 879.057 950.401 878.396 949.834 877.168C949.456 876.319 949.079 874.619 948.984 873.297C948.89 871.881 948.04 870.559 946.813 869.993C944.452 868.954 943.886 866.121 946.246 867.066C949.079 868.104 951.062 866.027 951.722 861.306C952.006 858.851 952.95 855.546 953.705 854.036C955.31 851.014 955.216 850.825 952.1 849.315C950.589 848.465 950.023 847.521 950.212 845.821C950.401 844.594 950.589 842.422 950.589 841.006C950.684 839.306 951.062 838.645 951.911 839.023C952.855 839.401 953.233 838.457 953.233 835.624C953.233 831.942 953.044 831.753 950.401 831.753C946.813 831.753 943.791 828.542 943.791 824.577C943.791 820.234 945.868 819.95 950.495 823.727C955.027 827.598 956.443 827.882 955.594 824.86C954.744 822.216 950.589 816.646 949.362 816.646C948.89 816.646 948.512 815.418 948.512 813.908C948.512 811.83 949.079 810.981 951.25 810.036C953.611 809.092 954.649 809.187 958.237 810.792C960.503 811.83 963.336 814.002 964.469 815.607C966.452 818.345 969.284 819.573 969.284 817.684C969.284 817.212 970.134 816.646 971.173 816.362C973.533 815.796 974.572 813.058 973.344 811.075C972.872 810.32 970.795 808.714 968.718 807.676C963.808 805.127 962.958 802.388 964.941 795.496C966.263 790.964 967.018 789.831 969.379 788.981C975.138 786.809 971.362 784.826 962.109 785.11C955.688 785.393 955.405 785.298 953.894 782.749C950.778 777.462 952.855 771.324 957.765 771.324C961.164 771.324 962.392 770.38 962.769 767.548C963.053 765.565 963.714 765.093 967.207 764.715C970.984 764.243 971.456 763.96 972.589 760.655C974.289 755.745 976.46 753.574 980.048 753.196C983.542 752.818 984.108 750.269 980.804 749.797C979.671 749.608 978.16 748.664 977.499 747.625C976.838 746.587 974.289 744.226 971.739 742.432C967.018 738.939 964.186 738.75 960.881 741.393C959.654 742.432 949.362 744.981 948.701 744.415C948.512 744.226 949.079 742.81 949.928 741.205C951.156 738.75 951.817 738.372 953.705 738.844C955.405 739.222 957.01 738.75 959.37 736.956C961.164 735.54 963.808 734.501 965.224 734.501C969.851 734.501 979.671 733.368 980.143 732.707C980.331 732.329 979.01 730.158 977.121 727.892C975.327 725.531 972.684 721.754 971.362 719.394C968.151 713.823 960.409 704.948 957.482 703.343C956.066 702.587 955.122 701.265 955.122 700.038C955.122 698.905 954.366 697.3 953.516 696.544C951.817 695.128 940.864 689.746 937.937 688.802C937.087 688.519 935.482 686.441 934.444 684.081C933.027 680.871 931.989 679.643 929.912 679.266C925.285 678.227 924.907 677.944 924.907 675.867C924.907 672.562 921.319 668.502 917.165 667.274C914.805 666.613 911.311 664.159 908.006 661.043C905.079 658.21 900.547 654.528 897.998 652.828C895.354 651.129 892.616 649.051 891.955 648.202C890.444 646.408 889.311 646.313 886.101 648.013C883.929 649.146 883.552 649.052 882.608 647.635C882.041 646.691 879.964 645.464 877.981 644.803C875.998 644.236 870.427 641.781 865.612 639.515C857.492 635.644 853.149 634.417 853.149 636.022C853.149 637.155 856.265 642.064 860.136 647.069C864.196 652.356 864.29 653.3 861.174 653.3C859.852 653.3 858.814 652.828 858.814 652.356C858.814 650.279 855.792 650.279 853.621 652.356L851.355 654.433L856.076 660.571C858.625 663.875 860.702 666.991 860.702 667.463C860.702 667.841 859.286 667.747 857.681 667.274C850.694 665.008 849.561 664.064 843.612 656.794C840.591 653.206 838.325 652.451 836.342 654.433C835.492 655.283 836.153 656.416 839.269 659.438C842.668 662.648 843.707 664.442 844.934 669.635C846.728 676.716 846.917 680.493 845.595 682.57C844.934 683.609 844.651 682.57 844.651 679.077C844.651 675.017 844.084 673.506 841.535 670.107C839.836 667.841 838.136 665.386 837.853 664.536C837.475 663.686 835.303 662.27 832.943 661.515C828.6 660.004 828.6 660.004 828.6 662.176C828.6 663.403 829.638 665.858 830.866 667.652C832.093 669.446 833.321 672.467 833.698 674.261C834.076 676.15 835.115 678.699 836.153 680.021C838.419 682.854 838.608 688.424 836.625 690.124C835.398 691.162 835.209 690.69 835.209 686.819C835.209 683.231 834.643 681.626 832.282 678.699C829.827 675.583 828.789 675.017 825.956 675.017C823.973 675.017 820.763 675.961 818.686 677C815.664 678.605 814.626 678.794 813.209 677.849C811.132 676.527 809.716 677.849 809.716 681.154C809.716 682.287 808.488 683.703 806.883 684.648C804.334 686.064 804.051 686.725 804.051 691.068C804.051 694.467 803.673 695.789 802.729 695.789C802.068 695.789 800.368 696.639 798.952 697.772C797.064 699.282 796.497 699.377 796.497 698.338C796.497 697.489 797.064 696.639 797.725 696.356C798.48 696.072 798.291 695.506 797.064 694.467C794.514 692.39 791.776 692.579 789.227 695.034C786.961 697.205 786.3 696.072 787.999 692.862C789.132 690.785 793.57 690.407 796.592 692.201C798.197 693.24 798.669 693.145 799.896 691.54C801.124 689.935 801.029 689.557 798.858 687.48C797.536 686.347 796.497 684.742 796.497 684.081C796.497 683.42 795.458 682.381 794.137 681.815C791.493 680.588 790.832 678.227 793.381 679.171C797.064 680.588 803.39 678.605 807.639 674.734C811.415 671.146 818.875 660.759 820.385 656.794C820.668 655.944 822.085 654.717 823.407 654.245C824.729 653.772 826.9 651.412 828.316 649.146C830.394 645.747 831.904 644.519 835.681 643.103C840.024 641.403 840.402 641.026 840.969 637.627C841.252 635.644 842.385 632.15 843.518 629.979C846.162 624.974 846.162 622.52 843.612 621.103C841.157 619.876 837.475 621.481 836.531 624.219C835.87 626.391 832.188 627.335 829.733 626.013C827.183 624.691 827.467 624.597 823.407 627.807C821.424 629.318 818.78 630.64 817.553 630.64C816.136 630.64 813.87 631.962 811.887 633.944C810.094 635.738 808.205 637.249 807.733 637.249C807.261 637.249 806.883 637.627 806.883 638.004C806.883 639.515 796.969 649.524 795.647 649.524C794.892 649.524 793.098 650.657 791.682 651.978L789.132 654.433L789.227 649.901L789.416 645.275L783.939 645.558C780.824 645.652 777.424 646.408 776.103 647.352C773.742 648.863 773.648 648.863 774.025 646.691C774.403 643.481 782.051 640.743 788.094 641.498C794.137 642.253 797.064 640.931 797.63 637.343C798.102 633.85 796.12 631.584 789.605 628.751C785.167 626.769 784.695 626.296 785.639 623.747C786.111 622.614 786.961 622.708 791.304 624.125C794.042 624.974 797.347 626.485 798.669 627.335C802.068 629.507 806.317 630.545 808.111 629.507C809.055 629.035 810.566 626.957 811.699 624.88C813.493 621.292 813.493 620.914 812.076 618.743C810.754 616.666 809.999 616.477 803.012 616.477C798.574 616.477 794.137 617.043 792.248 617.799C788.094 619.593 787.244 618.271 789.888 614.588C792.154 611.473 794.137 610.245 802.823 607.129L808.677 604.958L814.909 610.245C821.424 615.721 825.956 617.421 829.449 615.627C830.771 614.872 831.432 613.644 831.432 611.945C831.432 609.773 830.866 609.112 828.411 608.451C826.334 607.79 824.634 606.28 822.935 603.353C820.385 598.915 819.252 598.065 815.003 597.121C812.548 596.649 812.36 596.271 812.926 593.533C814.154 587.018 814.059 586.829 811.038 585.791C809.433 585.318 807.544 584.374 806.789 583.808C806.033 583.241 803.862 582.391 801.785 582.108C799.519 581.636 797.158 580.314 795.364 578.426C792.626 575.499 792.626 575.404 791.21 577.293C790.454 578.331 789.605 580.22 789.321 581.542C788.377 585.791 788.094 586.263 786.111 586.263C784.978 586.263 783.184 586.735 782.145 587.301C780.351 588.245 780.257 588.151 780.635 584.28C780.918 580.786 780.635 579.937 777.802 577.198C776.008 575.499 773.931 573.894 773.081 573.705C772.137 573.516 772.42 573.422 773.648 573.61C774.781 573.799 776.764 574.271 777.897 574.555C781.107 575.31 782.901 573.044 783.656 567.19C784.223 562.563 784.034 561.997 781.673 560.014L779.03 557.842L782.334 555.01C784.978 552.744 785.356 552.083 784.223 551.328C783.467 550.855 782.429 550.855 781.862 551.233C781.39 551.705 778.557 552.272 775.725 552.555C772.892 552.838 769.588 553.31 768.455 553.688C764.678 554.915 766.094 552.838 770.721 550.383C776.197 547.456 777.991 543.963 775.253 540.941C774.214 539.808 772.326 539.053 770.532 539.053C768.643 539.053 767.227 538.487 766.849 537.637C766.566 536.881 765.528 536.22 764.489 536.22C763.545 536.22 760.335 534.238 757.408 531.783C753.348 528.384 752.12 526.684 752.12 524.701C752.12 522.435 751.554 521.963 747.21 520.736C735.313 517.431 732.67 517.242 726.438 519.319C721.623 521.019 719.357 521.302 713.031 520.736C708.782 520.452 703.4 519.508 700.945 518.564C697.262 517.242 696.413 516.581 696.413 514.693C696.413 511.955 693.58 506.95 691.975 506.95C691.408 506.95 690.464 507.517 690.087 508.178C689.709 508.933 688.576 509.783 687.632 510.066C686.027 510.633 685.932 510.066 686.027 503.835C686.121 495.337 685.271 490.805 683.383 489.2C681.4 487.689 680.833 487.783 679.04 489.577C678.095 490.427 677.529 492.693 677.529 495.054C677.529 498.453 677.151 499.303 675.168 500.152C672.902 501.191 672.808 501.096 672.808 498.453C672.808 496.942 672.43 495.431 671.864 495.148C671.392 494.865 670.919 493.826 670.919 492.788C670.919 491.843 669.503 490.238 667.615 489.105C664.31 487.122 663.555 485.801 665.254 484.762C666.765 483.818 666.387 480.513 664.782 480.513C664.027 480.513 662.044 479.191 660.345 477.681C657.323 474.754 655.435 474.187 654.396 475.792C654.018 476.359 651.469 475.131 648.259 472.96C645.237 470.882 641.555 469.183 640.233 469.183C638.911 469.183 636.551 468.239 635.04 467.106C632.302 465.123 632.208 465.123 630.319 466.822C629.281 467.766 628.431 469.56 628.431 470.693C628.431 473.243 618.234 484.29 615.967 484.29C615.212 484.29 613.229 486.084 611.624 488.255C609.925 490.522 607.187 494.015 605.298 496.092L601.993 499.869L604.448 492.788C605.865 488.916 607.659 485.045 608.508 484.195C611.813 481.08 612.663 477.303 611.058 473.432C608.98 468.522 609.169 464.179 611.435 462.101C612.663 460.968 613.324 459.174 613.324 456.719C613.324 452.659 615.023 451.338 618.328 452.848C621.161 454.17 622.766 453.415 622.766 450.677C622.766 448.599 622.388 448.411 618.706 448.411C611.152 448.411 592.268 459.646 591.23 464.745C590.474 468.427 584.809 473.904 582.826 472.865C582.071 472.393 579.144 472.299 576.311 472.771C571.874 473.337 571.213 473.809 570.363 476.264C568.947 480.419 568.097 481.457 566.114 481.457C565.17 481.457 564.226 481.929 564.037 482.496C563.754 483.346 562.243 483.157 558.655 481.929C555.917 481.08 552.895 480.513 551.857 480.796C550.724 481.08 550.063 480.796 550.063 479.947C550.063 478.341 550.157 478.341 546.38 479.663C544.775 480.23 543.453 481.08 543.453 481.457C543.453 482.59 536.939 486.178 534.861 486.178C532.69 486.178 525.514 490.522 525.514 491.843C525.514 492.41 524.192 492.788 522.681 492.788C521.076 492.788 518.432 493.449 516.922 494.298C514.278 495.62 513.9 495.62 512.201 494.109C511.257 493.26 510.407 491.466 510.407 490.238C510.407 487.783 516.544 480.513 518.527 480.513C520.415 480.513 523.909 474.659 522.492 473.809C521.737 473.337 522.587 471.827 524.853 469.277C528.63 465.028 529.479 460.874 526.93 458.797C525.042 457.286 525.419 454.17 527.591 452.754C529.007 451.904 529.763 452.282 532.029 454.831C535.522 458.608 537.883 458.702 540.054 454.925C541.66 452.187 541.66 451.998 540.149 450.299C538.638 448.599 538.638 448.222 540.621 444.067L542.793 439.63L540.526 435.475C538.449 431.604 538.355 431.226 539.96 430.376C543.926 428.11 538.921 425.089 534.012 426.883C531.651 427.638 530.801 427.544 529.385 426.316C527.497 424.617 525.231 424.428 522.776 425.75C521.454 426.411 520.604 426.128 519.282 424.711C518.244 423.578 516.355 422.162 515.033 421.407C512.956 420.368 512.295 420.368 510.501 421.595C509.463 422.351 508.518 423.578 508.518 424.239C508.518 424.995 507.574 425.75 506.441 426.128C504.742 426.6 503.514 425.939 501.248 423.389C499.549 421.595 498.132 419.235 498.132 418.196C498.132 415.175 495.488 414.797 492.656 417.441C490.862 419.141 487.085 420.651 480.287 422.351C474.905 423.673 469.146 425.655 467.54 426.6C465.746 427.733 461.97 428.677 457.532 429.055C453.661 429.432 448.845 430.282 446.863 431.037C440.631 433.398 437.137 432.831 433.644 428.866C429.395 424.05 426.657 419.235 425.901 415.269C425.335 412.059 425.524 411.681 428.64 409.793C430.434 408.66 432.228 406.866 432.511 405.922C432.889 404.694 433.833 404.128 435.155 404.222C437.704 404.411 443.369 401.201 443.369 399.596C443.369 398.84 444.596 398.085 446.107 397.802C447.901 397.424 449.79 395.913 451.395 393.742C452.717 391.759 455.455 389.21 457.532 388.077C460.742 386.283 461.309 385.527 461.309 382.789C461.309 378.635 463.669 377.124 471.223 376.274C474.905 375.897 478.021 374.858 480.287 373.347C482.081 372.025 484.253 370.987 485.102 370.987C486.613 370.987 489.823 366.455 491.051 362.583C491.523 360.978 491.145 360.412 488.974 359.562C487.557 358.995 485.574 357.862 484.63 357.013C482.836 355.408 476.416 342.283 476.416 340.206C476.416 339.545 475.566 338.695 474.527 338.412C473.489 338.034 471.412 336.807 469.995 335.579C467.918 333.88 466.974 333.597 466.219 334.352ZM795.647 703.059C794.514 704.948 794.326 704.381 795.175 701.926C795.553 701.076 796.025 700.604 796.214 700.888C796.497 701.076 796.214 702.115 795.647 703.059Z" fill="white"/>
<circle id="819" cx="833" cy="629" fill="#5CE50D"/>
<circle cx="863" cy="867" fill="#E52A0D"/>
<circle id="1015" cx="164" cy="199" fill="#E52A0D"/>
<circle id="424" cx="583" cy="470" fill="#E52A0D"/>
</svg>
