<svg width="1000" height="1000" viewBox="0 0 1000 1000" fill="none" xmlns="http://www.w3.org/2000/svg">
<path d="M459.445 994.322C460.438 994.171 461.907 994.178 462.71 994.335C463.513 994.492 462.701 994.61 460.905 994.61C459.11 994.603 458.453 994.472 459.445 994.322Z" fill="white"/>
<path d="M563.478 236.524C564.161 235.142 569.184 235.504 570.271 237.013C571.169 238.258 572.684 238.929 571.963 237.761C571.773 237.453 573.298 237.76 575.352 238.442C577.407 239.124 580.343 239.857 581.88 240.072C583.415 240.286 584.828 240.715 585.019 241.024C585.21 241.333 586.395 241.586 587.652 241.586C588.909 241.586 589.789 241.346 589.608 241.053C589.427 240.76 590.511 240.458 592.018 240.381C594.336 240.264 594.997 240.535 596.318 242.143C597.73 243.861 598.089 243.985 600.081 243.435C602.922 242.65 603.571 243.11 603.571 245.909C603.571 247.267 603.307 248.031 602.919 247.792C602.56 247.57 602.266 247.679 602.266 248.034C602.265 248.39 601.605 248.809 600.797 248.964C599.642 249.187 599.747 249.267 601.286 249.337C603.512 249.439 606.836 251.983 606.836 253.584C606.836 254.171 606.591 254.652 606.292 254.652C605.993 254.652 605.749 255.092 605.749 255.631C605.749 256.17 606.308 256.611 606.992 256.611C608.664 256.611 610.091 258.14 610.15 259.993C610.19 261.386 610.234 261.405 610.691 260.228C611.155 259.053 611.234 259.088 611.619 260.64C612.22 263.038 614.342 263.42 615.681 261.371C616.464 260.178 616.947 259.932 617.476 260.46C618.331 261.315 620.551 261.43 620.551 260.619C620.551 260.309 621.322 259.28 622.268 258.333C623.973 256.631 626.427 256 626.428 257.264C626.428 257.623 626.741 257.917 627.126 257.917C628.027 257.917 629.692 259.58 629.692 260.484C629.692 260.869 630.13 261.184 630.672 261.184C631.207 261.184 631.671 261.698 631.697 262.327C631.743 263.241 631.828 263.274 632.135 262.491C632.344 261.952 632.976 261.152 633.551 260.714C634.765 259.78 637.123 259.6 636.574 260.484C636.365 260.817 636.862 261.184 637.678 261.3C638.846 261.467 639.193 261.987 639.343 263.797C639.584 266.812 640.734 268.991 642.026 268.894C644.325 268.721 645.291 269.078 645.656 270.238C645.989 271.277 646.819 271.471 651.415 271.58C654.366 271.65 657.063 271.986 657.409 272.325C657.749 272.665 659.1 272.943 660.406 272.943C661.797 272.943 663.377 273.452 664.193 274.162C665.623 275.402 666.159 278.821 664.925 278.822C664.461 278.822 664.461 279.214 664.925 280.085C665.937 281.979 665.741 283.901 664.461 284.649C663.371 285.282 663.371 285.315 664.461 285.334C665.159 285.347 665.603 285.859 665.603 286.66C665.603 287.408 665.166 287.967 664.585 287.967C664.024 287.967 663.75 288.261 663.972 288.62C664.194 288.98 664.043 289.274 663.644 289.274C663.24 289.274 663.077 289.543 663.279 289.871C663.481 290.2 663.279 290.617 662.829 290.799C662.333 290.999 662.463 291.151 663.155 291.182C664.18 291.228 664.592 291.964 664.37 293.357C664.331 293.626 664.598 293.847 664.977 293.847C665.806 293.847 665.702 304.812 664.866 305.33C663.821 305.976 664.279 306.937 665.931 307.565C666.825 307.906 667.562 308.603 667.562 309.113C667.563 310.148 669.318 311.07 669.639 310.203C669.75 309.898 670.729 309.547 671.807 309.423C672.884 309.3 674.131 308.757 674.582 308.218C675.306 307.348 675.489 307.352 676.214 308.244C676.945 309.148 677.128 309.144 678.01 308.191C679.374 306.709 679.498 305.606 678.297 305.606C677.735 305.606 677.461 305.312 677.683 304.952C677.905 304.593 677.591 304.299 676.997 304.299C676.299 304.299 676.045 303.948 676.286 303.319C676.514 302.722 676.286 302.339 675.698 302.339C674.451 302.339 674.464 300.118 675.711 299.078C676.246 298.634 676.495 297.965 676.267 297.591C676.038 297.217 676.155 297.1 676.527 297.331C676.899 297.563 677.566 297.315 678.01 296.78C678.454 296.245 679.668 295.807 680.699 295.807C681.731 295.807 682.58 295.513 682.58 295.154C682.58 294.077 686.961 294.38 687.386 295.486C687.595 296.028 688.58 296.82 689.579 297.245C691.93 298.247 693.68 299.725 693.68 300.707C693.68 302.44 691.231 304.299 688.946 304.299C687.686 304.299 686.289 304.74 685.845 305.279C685.153 306.107 685.296 306.259 686.739 306.259C687.686 306.259 688.456 306.626 688.463 307.075C688.469 307.682 688.62 307.665 689.031 307.013C689.442 306.364 689.697 306.576 690.011 307.825C690.246 308.755 690.65 309.483 690.911 309.444C691.179 309.403 691.832 309.409 692.374 309.457C693.242 309.534 693.242 309.615 692.374 310.178C691.551 310.706 691.61 310.826 692.7 310.899C693.418 310.946 694.222 310.951 694.496 310.908C694.764 310.866 694.985 311.125 694.985 311.485C694.985 311.844 695.495 312.14 696.128 312.142C697.597 312.147 701.005 314.384 700.432 314.963C700.19 315.206 700.333 315.405 700.758 315.405C702.514 315.405 700.764 321.833 698.59 323.397C697.571 324.126 694.985 323.988 694.985 323.204C694.985 322.824 694.699 322.687 694.359 322.901C694.013 323.114 693.132 322.913 692.4 322.455C691.343 321.797 690.8 321.788 689.788 322.419C688.985 322.921 688.365 322.979 688.117 322.576C687.503 321.583 683.435 321.823 682.345 322.917C681.803 323.456 680.758 323.897 680.014 323.897C679.269 323.897 678.662 324.191 678.662 324.55C678.662 324.909 678.075 325.203 677.356 325.203C676.638 325.203 676.051 324.85 676.051 324.419C676.051 323.809 675.875 323.809 675.268 324.419C674.295 325.387 669.521 325.463 669.521 324.511C669.521 324.13 669.26 323.981 668.94 324.177C668.62 324.374 668.163 323.877 667.922 323.073C667.497 321.65 667.471 321.646 666.916 322.917C666.531 323.8 666.328 323.906 666.289 323.243C666.243 322.394 666.152 322.39 665.637 323.212C665.304 323.734 665.179 324.395 665.355 324.682C665.532 324.969 665.388 325.203 665.029 325.203C664.677 325.203 664.187 325.83 663.938 326.596C663.592 327.69 663.377 327.795 662.927 327.086C662.496 326.408 662.352 326.535 662.346 327.598C662.339 328.377 661.966 329.148 661.522 329.312C661.014 329.498 661.628 330.449 663.155 331.833C665.839 334.271 666.328 336.591 664.461 338.012C663.384 338.828 663.39 338.881 664.592 338.901C665.538 338.916 665.675 339.11 665.12 339.663C664.565 340.217 664.624 340.654 665.355 341.385C666.087 342.117 666.524 342.177 667.079 341.623C668.098 340.602 670.076 340.694 671.199 341.815C672.348 342.964 672.382 343.962 671.317 345.152C668.817 347.935 668.757 348.068 669.809 348.47C670.363 348.684 670.657 349.121 670.455 349.443C670.259 349.764 670.553 350.027 671.114 350.027C671.839 350.027 672.153 350.727 672.205 352.477C672.283 354.876 672.296 354.886 672.733 352.967C673.125 351.239 673.223 351.426 673.55 354.546C673.798 356.9 674.314 358.376 675.11 358.955C675.763 359.434 676.018 359.845 675.685 359.867C675.346 359.891 675.738 360.177 676.554 360.504C677.474 360.875 678.186 361.865 678.44 363.129C678.741 364.633 679.002 364.932 679.459 364.287C679.903 363.669 679.988 363.843 679.76 364.889C679.577 365.697 679.701 366.395 680.027 366.44C683.115 366.866 687.13 369.456 687.17 371.047C687.196 372.247 688.815 374.269 689.331 373.751C689.566 373.517 689.763 373.645 689.763 374.034C689.763 374.423 689.39 374.89 688.946 375.071C688.457 375.268 688.587 375.422 689.272 375.452C689.899 375.48 690.414 375.742 690.415 376.033C690.415 376.325 690.944 377.134 691.591 377.83C692.237 378.527 692.961 379.611 693.196 380.241C693.438 380.869 693.954 381.383 694.346 381.383C694.737 381.383 694.881 381.089 694.659 380.73C693.995 379.66 701.456 379.926 702.54 381.01C703.761 382.232 703.78 382.163 701.521 384.724C700.451 385.94 699.569 387.137 699.562 387.382C699.555 387.628 698.968 388.015 698.25 388.242C696.566 388.776 696.572 389.901 698.257 390.342C699.824 390.753 700.333 392.45 700.072 396.409C699.883 399.254 699.942 399.353 701.842 399.496C703.428 399.617 703.552 399.541 702.494 399.1C701.404 398.646 701.581 398.508 703.585 398.272C706.086 397.977 708.175 398.412 708.09 399.21C708.064 399.466 708.064 400.189 708.09 400.818C708.129 401.795 708.214 401.772 708.697 400.655C709.167 399.563 709.265 399.701 709.305 401.491C709.357 403.824 711.035 405.082 712.015 403.526C712.498 402.763 712.596 402.774 712.615 403.594C712.628 404.393 712.739 404.411 713.196 403.688C713.843 402.666 715.997 403.154 717.506 404.663C718.048 405.204 718.491 405.332 718.491 404.948C718.491 404.535 719.961 404.247 722.083 404.247C725.353 404.247 725.68 404.378 725.726 405.717C725.752 406.525 725.922 406.819 726.104 406.37C726.712 404.86 731.178 405.4 732.856 407.187C733.738 408.124 735.121 408.82 736.101 408.821C737.047 408.821 738.171 409.17 738.596 409.598C739.046 410.047 740.75 410.304 742.631 410.204C745.752 410.039 749.075 411.319 748.089 412.308C747.847 412.545 747.945 412.74 748.298 412.74C748.644 412.74 749.336 413.755 749.819 414.996C750.309 416.237 750.903 417.129 751.151 416.978C751.393 416.828 752.131 418.295 752.797 420.238C753.456 422.18 754.207 423.637 754.475 423.476C754.736 423.313 755.134 424.015 755.356 425.034C755.65 426.359 756.401 427.139 757.987 427.762C759.208 428.241 760.188 428.806 760.168 429.016C759.939 431.129 760.423 434.296 760.977 434.297C761.905 434.297 763.544 435.968 763.544 436.91C763.544 437.321 763.178 438.045 762.727 438.518C762.277 438.992 761.357 440.146 760.678 441.084C759.999 442.022 759.026 442.789 758.517 442.789C758.007 442.789 757.759 443.058 757.961 443.387C758.163 443.716 757.994 444.096 757.589 444.232C756.721 444.521 755.65 450.628 756.466 450.629C757.308 450.629 757.119 455.371 756.198 457.352C755.748 458.319 755.017 459.113 754.566 459.116C754.116 459.119 753.75 459.428 753.75 459.804C753.75 460.18 753.012 461.222 752.117 462.12C751.216 463.018 750.486 463.446 750.485 463.071C750.485 462.695 749.454 462.388 748.2 462.388C746.463 462.388 745.914 462.113 745.901 461.244C745.895 460.286 745.797 460.256 745.288 461.062C744.955 461.59 744.471 461.815 744.217 461.562C743.962 461.309 743.368 461.611 742.898 462.234C741.762 463.732 741.782 464.347 742.977 464.347C743.512 464.347 743.956 464.597 743.956 464.902C743.957 465.206 745.125 465.982 746.548 466.625C747.978 467.269 748.99 468.049 748.794 468.358C748.605 468.667 748.905 468.92 749.467 468.92C750.048 468.92 750.485 469.479 750.485 470.227C750.485 470.945 750.263 471.533 749.995 471.533C749.728 471.534 749.506 472.269 749.506 473.166C749.506 474.064 749.728 474.798 749.995 474.799C750.883 474.799 750.505 480.098 749.552 481.052C749.036 481.565 747.756 481.986 746.691 481.986C745.634 481.986 744.4 482.426 743.956 482.965C743.257 483.803 743.466 483.946 745.379 483.946C746.606 483.946 747.978 484.31 748.422 484.756C749.068 485.402 749.362 485.368 749.858 484.592C750.394 483.755 750.57 483.749 751.086 484.549C751.562 485.296 752.033 485.064 753.456 483.37C754.546 482.072 755.604 481.404 756.205 481.634C756.74 481.84 757.583 481.671 758.079 481.26C758.778 480.679 759.561 480.896 761.572 482.228C763.002 483.172 765.078 483.946 766.188 483.946C768.539 483.946 770.073 485.231 770.073 487.203C770.073 487.969 770.367 488.414 770.727 488.192C771.086 487.97 771.424 488.319 771.477 488.969C771.535 489.619 771.646 490.444 771.731 490.804C771.81 491.163 771.915 491.799 771.954 492.216C772.052 493.147 773.723 492.964 774.781 491.908C775.852 490.838 777.223 490.934 777.674 492.111C777.876 492.65 778.457 493.091 778.96 493.091C779.463 493.091 779.874 493.744 779.874 494.561C779.887 495.621 780.043 495.786 780.441 495.154C781.284 493.821 781.794 497.375 781.31 501.256C780.938 504.243 780.866 504.355 780.461 502.563C780.03 500.647 780.017 500.658 779.945 503.053C779.854 505.82 780.004 506.546 780.618 506.341C781.056 506.195 782.126 509.363 781.931 510.239C781.872 510.508 782.12 510.729 782.479 510.729C782.838 510.73 783.139 511.831 783.139 513.178C783.152 515 783.315 515.377 783.785 514.649C784.32 513.815 784.418 513.842 784.425 514.834C784.431 515.476 784.914 516.731 785.502 517.624C786.494 519.144 786.488 519.321 785.339 520.378C783.909 521.694 783.635 526.429 784.94 527.263C785.397 527.554 785.599 528.069 785.391 528.406C785.182 528.743 785.326 529.02 785.704 529.02C786.083 529.02 786.403 529.828 786.403 530.817C786.416 532.216 786.554 532.397 787.05 531.633C787.474 530.98 787.683 530.925 787.689 531.47C787.696 531.919 788.31 532.286 789.048 532.286C789.785 532.286 790.23 532.549 790.027 532.871C789.832 533.193 790.105 533.625 790.641 533.83C791.182 534.037 791.62 534.802 791.62 535.531C791.62 536.262 791.986 536.785 792.436 536.696C792.887 536.606 793.18 536.9 793.089 537.349C792.997 537.798 793.383 538.165 793.944 538.165C794.506 538.165 794.78 538.459 794.559 538.819C794.337 539.178 794.61 539.472 795.172 539.472C795.844 539.472 796.191 540.081 796.197 541.269C796.21 542.669 796.347 542.849 796.844 542.085C797.372 541.268 797.49 541.322 797.561 542.411C797.614 543.13 797.587 544.143 797.516 544.663C797.405 545.43 797.562 545.454 798.358 544.794C799.024 544.244 799.474 544.203 799.762 544.666C799.997 545.043 800.637 545.352 801.185 545.352C803.112 545.352 805.984 548.792 805.984 551.104C805.984 552.294 806.246 553.106 806.56 552.909C806.879 552.713 807.297 553.21 807.486 554.014C808.355 557.653 809.837 560.616 810.862 560.767C812.462 561.002 814.44 562.966 814.061 563.947C813.702 564.882 815.459 566.904 816.641 566.919C817.091 566.926 817.006 567.19 816.432 567.562C815.818 567.957 815.746 568.199 816.242 568.205C816.68 568.212 818.22 569.414 819.67 570.88C821.518 572.75 822.307 574.105 822.308 575.42C822.308 576.452 822.673 577.531 823.124 577.819C825.253 579.183 826.656 585.854 824.809 585.854C824.391 585.854 824.228 586.031 824.443 586.249C824.659 586.467 824.123 587.362 823.248 588.239C822.373 589.115 821.655 590.039 821.655 590.292C821.655 591.259 818.515 594.346 817.535 594.346C816.974 594.346 816.354 594.595 816.164 594.901C815.975 595.206 813.533 595.649 810.738 595.886C807.944 596.122 805.56 596.606 805.442 596.963C805.318 597.32 804.587 597.616 803.81 597.621C802.472 597.63 802.478 597.675 804.025 598.452C805.246 599.068 805.71 599.882 805.86 601.687C806.043 603.899 806.259 604.137 808.473 604.547C809.798 604.793 811.325 605.503 811.867 606.125C812.416 606.747 813.442 607.367 814.153 607.503C815.256 607.714 815.479 608.362 815.648 611.825C815.818 615.385 815.694 615.902 814.669 615.915C813.703 615.922 813.663 616.033 814.434 616.523C815.015 616.889 815.851 616.869 816.602 616.464C817.496 615.987 818.247 616.091 819.39 616.836C820.251 617.398 821.479 617.842 822.119 617.816C823.144 617.776 823.124 617.705 821.981 617.208C821.002 616.79 821.466 616.633 823.823 616.601C825.736 616.575 827.335 616.921 827.903 617.49C828.967 618.554 829.17 622.806 828.185 623.414C827.825 623.636 827.525 624.61 827.518 625.576C827.512 627.66 827.087 628.346 824.939 629.823C823.686 630.678 823.575 630.927 824.449 630.927C825.344 630.927 825.572 631.522 825.572 633.815C825.572 635.513 825.233 636.832 824.757 637.029C824.306 637.211 824.619 637.381 825.455 637.407C827.322 637.473 828.837 638.904 828.837 640.609C828.837 641.314 829.275 642.065 829.816 642.268C832.023 643.117 829.569 647.258 826.852 647.258C826.03 647.258 825.54 647.448 825.775 647.677C826.003 647.906 825.096 648.683 823.758 649.395C822.42 650.107 821.147 650.968 820.931 651.315C820.709 651.661 820.343 651.916 820.114 651.89C818.044 651.609 815.772 651.949 816.105 652.485C816.327 652.844 815.903 653.138 815.165 653.138C814.427 653.138 813.82 653.464 813.82 653.869C813.82 654.274 813.245 654.445 812.514 654.255C811.103 653.889 810.673 654.797 812.024 655.287C812.658 655.516 812.632 655.928 811.9 657.136C810.64 659.227 810.451 664.243 811.633 664.243C812.821 664.244 812.781 667.987 811.58 669.189C810.496 670.279 807.943 670.442 807.943 669.43C807.943 669.051 807.669 668.907 807.336 669.116C807.003 669.319 806.605 668.823 806.448 668.013C806.2 666.733 806.148 666.772 806.076 668.326C806.024 669.312 805.691 670.122 805.332 670.122C804.973 670.122 804.679 670.521 804.679 671.004C804.679 672.154 802.459 674.696 801.453 674.696C801.022 674.695 800.226 674.257 799.69 673.715C799.148 673.18 797.777 672.703 796.635 672.657L794.559 672.585L796.518 672.082L798.476 671.586L796.518 671.429C795.44 671.344 794.186 671.324 793.735 671.383C793.285 671.442 792.194 670.671 791.307 669.665C790.425 668.659 789.694 668.222 789.681 668.692C789.668 669.162 789.368 669.365 789.009 669.143C788.65 668.921 788.356 669.071 788.355 669.469C788.355 669.874 788.061 670.018 787.702 669.796C787.343 669.574 787.05 669.855 787.05 670.41C787.049 671.005 786.487 671.429 785.704 671.429C784.966 671.429 784.543 671.723 784.765 672.082C784.986 672.442 784.712 672.736 784.15 672.736C783.589 672.736 783.132 673.174 783.132 673.709C783.132 675.173 785.802 677.961 787.206 677.961C787.879 677.961 788.264 678.236 788.061 678.563C787.859 678.896 788.577 679.36 789.661 679.595C790.745 679.837 791.463 680.301 791.261 680.627C791.059 680.96 791.346 681.228 791.907 681.228C792.782 681.228 792.926 682.495 792.926 690.047C792.926 697.599 792.782 698.865 791.907 698.865C791.346 698.866 791.065 699.147 791.274 699.493C791.736 700.239 787.879 704.091 786.678 704.092C786.227 704.092 785.704 703.726 785.521 703.276C785.326 702.792 785.175 702.923 785.143 703.602C785.09 704.68 782.883 705.183 779.965 704.778C779.482 704.712 779.28 704.974 779.515 705.36C779.749 705.738 779.658 706.052 779.312 706.052C778.96 706.052 778.829 706.862 779.018 707.848C779.208 708.834 779.495 711.924 779.665 714.707C779.939 719.286 779.854 719.77 778.777 719.783C777.85 719.79 777.785 719.92 778.47 720.358C779.031 720.71 779.103 721.011 778.653 721.161C778.242 721.305 778.176 721.763 778.489 722.279C778.816 722.801 780.24 723.148 782.061 723.148C783.726 723.148 785.09 723.415 785.091 723.748C785.091 724.075 785.457 724.356 785.907 724.369C786.358 724.376 787.383 724.937 788.192 725.616C789.4 726.622 789.661 727.505 789.661 730.556C789.661 733.717 789.465 734.318 788.355 734.606C787.637 734.795 787.05 735.265 787.05 735.651C787.05 736.036 786.619 735.781 786.09 735.082C785.222 733.939 785.13 733.926 785.11 734.958C785.091 735.958 784.379 736.102 779.502 736.102C775.944 736.102 774.063 735.867 774.317 735.448C774.539 735.089 774.409 734.795 774.03 734.795C773.651 734.795 773.338 735.507 773.338 736.376C773.338 737.245 772.972 738.101 772.521 738.283C771.927 738.525 771.908 738.768 772.436 739.159C773.697 740.081 773.194 746.717 771.77 748.024C771.085 748.651 770.726 749.167 770.975 749.167C771.222 749.168 770.752 749.866 769.93 750.715C769.114 751.564 768.252 752.159 768.017 752.029C767.788 751.898 767.422 752.244 767.207 752.806C766.991 753.367 766.521 753.641 766.162 753.419C765.797 753.191 765.503 753.322 765.503 753.7C765.503 754.086 764.327 754.393 762.891 754.393C761.454 754.393 760.279 754.687 760.279 755.046C760.279 755.405 759.692 755.699 758.974 755.699C758.255 755.699 757.668 755.405 757.668 755.046C757.668 754.687 756.551 754.393 755.186 754.393C753.822 754.393 752.353 754.04 751.922 753.609C751.315 753.001 751.138 753.002 751.138 753.609C751.138 754.066 750.217 754.393 748.944 754.393C746.953 754.393 746.777 754.55 747.058 756.026C747.24 756.979 747.07 757.659 746.645 757.659C746.241 757.66 745.948 757.881 745.993 758.149C746.209 759.514 745.732 760.436 743.793 762.435C742.591 763.669 741.769 765.132 741.899 765.792C742.023 766.432 741.833 766.785 741.487 766.57C741.135 766.355 740.684 767.014 740.476 768.046C740.273 769.072 739.659 770.358 739.124 770.894C738.582 771.436 738.275 772.012 738.438 772.175C738.594 772.332 737.994 772.86 737.1 773.337C736.199 773.82 735.468 774.624 735.468 775.12C735.468 775.617 735.174 775.846 734.814 775.624C734.455 775.402 734.162 775.78 734.162 776.466C734.162 777.825 732.248 779.87 730.969 779.87C730.525 779.87 730.348 780.164 730.57 780.524C730.792 780.883 730.518 781.177 729.957 781.177C729.395 781.177 728.938 781.503 728.938 781.902C728.938 782.3 728.546 782.476 728.076 782.293C727.599 782.111 726.836 782.562 726.379 783.3C725.7 784.384 725.432 784.462 724.962 783.724C724.531 783.038 724.387 783.176 724.374 784.28C724.367 785.103 724.009 785.678 723.552 785.586C723.101 785.495 722.807 785.789 722.898 786.24C723.003 786.749 722.31 787.056 721.063 787.056C719.902 787.056 719.236 786.788 719.471 786.403C719.712 786.011 718.785 785.749 717.113 785.749C715.599 785.749 714.541 785.939 714.776 786.167C715.286 786.677 711.068 789.016 709.638 789.016C709.076 789.016 708.808 789.323 709.043 789.701C709.324 790.159 707.776 790.316 704.349 790.192L699.229 789.995L699.158 787.226C699.119 785.698 699.471 783.712 699.935 782.817C700.653 781.432 700.64 781.177 699.844 781.177C699.328 781.177 698.903 780.589 698.903 779.87C698.903 779.152 698.59 778.564 698.211 778.564C697.832 778.564 697.741 778.93 698.009 779.38C698.387 780.007 698.283 780.027 697.559 779.458C697.043 779.047 695.345 778.505 693.798 778.25C691.049 777.793 690.996 777.819 691.832 779.152C692.302 779.909 692.909 780.523 693.184 780.524C693.458 780.524 693.68 781.111 693.68 781.829C693.68 782.548 693.366 783.136 692.987 783.136C692.609 783.136 692.479 783.43 692.7 783.789C692.922 784.149 692.792 784.443 692.413 784.443C691.963 784.443 691.721 787.109 691.721 791.955C691.721 796.364 691.46 799.467 691.088 799.468C690.742 799.468 690.611 799.873 690.801 800.363C690.99 800.859 690.663 801.741 690.082 802.323C689.495 802.91 689.194 803.387 689.416 803.387C689.631 803.387 689.201 804.047 688.45 804.851C687.706 805.654 687.399 806.412 687.777 806.536C688.822 806.889 688.58 810.541 687.437 811.684C686.85 812.272 686.609 813.154 686.863 813.761C687.105 814.342 687.32 815.185 687.34 815.636C687.353 816.139 688.306 816.452 689.788 816.452C691.12 816.452 692.57 816.884 693.001 817.406C693.608 818.138 694.059 818.19 694.953 817.628C696.84 816.452 698.25 817.439 698.25 819.948C698.25 821.169 698.688 822.54 699.229 822.985C699.765 823.435 700.209 824.592 700.209 825.559C700.209 826.643 700.862 827.891 701.893 828.792C702.906 829.668 703.428 830.655 703.199 831.249C702.99 831.792 702.801 832.875 702.775 833.653C702.73 835.024 702.71 835.031 702.168 833.764C701.783 832.862 701.613 833.77 701.626 836.703C701.639 839.774 701.789 840.499 702.168 839.317C702.573 838.056 702.704 837.971 702.756 838.931C702.815 840.1 702.892 840.107 704.035 839.074C705.563 837.69 709.906 837.461 710.702 838.722C711.029 839.231 711.322 840.382 711.361 841.277L711.439 842.909L711.962 841.277C712.458 839.729 712.491 839.754 712.55 841.766C712.602 843.432 712.896 843.889 713.914 843.889C715.821 843.889 717.839 845.902 717.839 847.796C717.839 849.037 718.368 849.684 719.961 850.376C721.13 850.886 722.298 851.618 722.56 852.003C723.258 853.032 723.173 866.1 722.468 866.1C722.141 866.1 722.024 866.76 722.2 867.57C722.461 868.752 722.383 868.85 721.821 868.06C721.24 867.25 721.122 867.329 721.109 868.55C721.103 869.36 720.542 870.581 719.85 871.274C719.164 871.96 718.772 872.698 718.981 872.907C719.19 873.116 718.896 873.286 718.328 873.286C717.76 873.286 716.911 874.149 716.447 875.2C715.984 876.252 715.371 876.97 715.09 876.794C714.802 876.618 714.574 876.787 714.574 877.166C714.574 877.552 714.058 877.885 713.432 877.911C712.805 877.938 712.628 878.1 713.053 878.277C713.516 878.466 712.889 879.597 711.446 881.164C708.129 884.77 705.093 884.548 703.84 880.609C703.383 879.165 701.515 878.564 701.515 879.858C701.515 880.236 701.221 880.368 700.862 880.146C700.503 879.924 700.209 880.054 700.209 880.433C700.209 880.818 699.693 881.158 699.066 881.191C698.348 881.236 698.532 881.425 699.557 881.706C701.025 882.118 701.208 882.543 701.385 885.952C701.522 888.493 701.358 889.597 700.889 889.311C700.51 889.076 700.026 889.343 699.81 889.905C699.595 890.466 698.988 890.924 698.459 890.924C697.388 890.924 695.639 889.389 695.639 888.448C695.639 887.286 692.152 888.514 690.226 890.356C689.161 891.375 688.032 892.047 687.719 891.852C687.105 891.473 686.935 892.328 687.131 894.745C687.274 896.483 685.178 898.757 683.422 898.777C682.43 898.783 682.398 898.881 683.233 899.416C683.932 899.867 683.082 900.077 680.295 900.142C678.141 900.188 676.156 900.193 675.888 900.148C675.62 900.109 675.397 901.102 675.397 902.356C675.397 903.773 674.901 905.139 674.092 905.949C673.374 906.668 672.956 907.255 673.158 907.255C673.36 907.255 673.145 907.661 672.668 908.151C672.191 908.641 671.166 909.744 670.383 910.6C668.679 912.462 666.746 914.115 666.269 914.115C666.087 914.115 666.002 914.337 666.094 914.605C666.185 914.872 665.669 915.095 664.951 915.095C664.233 915.095 663.645 915.382 663.644 915.735C663.644 916.087 662.881 916.571 661.954 916.8C660.374 917.199 660.289 917.42 660.668 919.954C660.988 922.097 660.811 922.992 659.845 924.103C659.166 924.887 658.421 925.331 658.192 925.103C657.957 924.868 657.769 925.135 657.768 925.697C657.768 926.252 657.03 926.899 656.136 927.121C655.235 927.35 654.504 927.82 654.504 928.173C654.504 928.526 653.752 928.813 652.832 928.813C651.722 928.813 651.317 929.074 651.631 929.577C651.951 930.093 651.749 930.204 651.018 929.923C650.423 929.694 649.934 929.76 649.934 930.061C649.934 930.368 649.052 930.982 647.975 931.426C646.897 931.877 646.016 932.517 646.016 932.864C646.015 933.203 644.618 933.412 642.914 933.321C640.649 933.203 639.865 933.386 640.002 934.006C640.119 934.529 639.806 934.705 639.185 934.47C638.585 934.235 638.181 934.438 638.181 934.973C638.181 935.77 635.314 937.024 634.1 936.763C633.832 936.704 633.61 936.959 633.61 937.338C633.61 937.71 633.094 937.933 632.468 937.828C631.828 937.717 631.397 937.991 631.488 938.448C631.58 938.899 631.429 939.193 631.161 939.102C630.893 939.011 630.534 939.233 630.371 939.592C629.94 940.546 627.041 941.93 626.362 941.512C626.036 941.31 625.774 941.46 625.774 941.839C625.774 942.224 625.33 942.531 624.795 942.531C624.287 942.532 623.871 942.79 623.821 943.118L623.81 943.251C623.742 943.58 623.183 943.838 622.51 943.838C621.792 943.838 621.204 944.06 621.204 944.334C621.204 944.602 620.296 945.229 619.186 945.719C617.541 946.451 616.888 946.458 615.621 945.779C614.361 945.106 613.871 945.106 613.068 945.779C612.52 946.236 611.481 946.457 610.757 946.268C610.039 946.079 609.452 946.19 609.451 946.516C609.451 946.842 608.716 947.111 607.818 947.111C606.921 947.111 606.186 947.405 606.185 947.764C606.185 948.123 605.598 948.417 604.88 948.417C604.162 948.417 603.574 948.711 603.574 949.071C603.574 949.43 603.133 949.724 602.595 949.724C602.056 949.724 601.615 950.051 601.615 950.449C601.615 950.887 600.835 951.063 599.673 950.893C598.604 950.736 597.64 950.873 597.529 951.206C597.419 951.539 595.112 951.801 592.401 951.788C588.269 951.775 587.328 951.977 586.565 953.035C586.066 953.728 585.264 954.297 584.783 954.297C584.303 954.297 584.059 954.538 584.241 954.832C584.424 955.126 582.237 955.897 579.383 956.55C576.53 957.196 574.195 957.98 574.192 958.294C574.192 958.608 573.294 958.869 572.195 958.869C571.031 958.869 570.366 959.137 570.601 959.523C570.836 959.902 570.186 960.176 569.046 960.176C567.969 960.176 566.903 960.47 566.677 960.836C566.451 961.202 565.993 961.332 565.659 961.123C565.325 960.921 565.051 961.058 565.051 961.444C565.05 961.822 564.022 962.136 562.766 962.136C561.509 962.136 560.48 962.43 560.48 962.789C560.48 963.736 557.379 963.585 557.032 962.625C556.833 962.07 556.323 962.273 555.441 963.266C554.728 964.069 553.954 964.533 553.722 964.298C553.489 964.063 553.298 964.383 553.298 965.003C553.298 965.624 553.004 965.951 552.645 965.729C552.286 965.507 551.992 965.631 551.992 966.016C551.992 966.395 551.551 966.708 551.013 966.708C550.474 966.708 550.033 966.97 550.033 967.29C550.033 967.61 549.299 968.055 548.401 968.283C547.504 968.506 546.769 969.06 546.768 969.511C546.768 970.641 544.396 972.581 543.008 972.594C542.036 972.601 542.013 972.699 542.852 973.241C543.643 973.751 543.549 973.875 542.361 973.881C541.554 973.888 540.893 974.117 540.893 974.391C540.893 974.659 540.266 975.273 539.499 975.756C538.337 976.481 538.014 976.481 537.551 975.749C537.123 975.07 536.992 975.136 536.985 976.018C536.977 976.886 536.427 977.16 534.689 977.16C533.511 977.16 532.533 977.431 532.416 977.777L532.397 977.888C532.259 978.305 529.996 978.512 526.038 978.461C517.334 978.357 517.491 978.343 518.692 979.12C519.493 979.636 519.419 979.754 518.283 979.761C517.519 979.768 516.528 980.211 516.081 980.753C515.582 981.354 514.15 981.734 512.372 981.734C510.607 981.734 509.632 981.988 509.878 982.387C510.114 982.766 509.45 983.04 508.284 983.04C507.186 983.04 506.288 982.772 506.287 982.452C506.287 982.132 505.111 981.753 503.675 981.615C501.863 981.446 501.063 981.623 501.063 982.204C501.063 982.772 499.99 983.04 497.69 983.04C495.835 983.04 494.498 983.217 494.721 983.439C495.755 984.477 490.587 987.338 488.872 986.679C488.395 986.496 488.005 986.652 488.005 987.025C488.005 987.423 486.476 987.659 484.25 987.6C482.186 987.548 479.909 987.548 479.19 987.6C477.884 987.704 477.884 987.704 479.19 988.305C480.187 988.769 479.837 988.874 477.721 988.737C475.752 988.606 474.946 988.808 474.946 989.429C474.946 989.906 474.682 990.135 474.361 989.939C474.04 989.743 473.601 990.037 473.387 990.592C473.172 991.154 472.7 991.427 472.339 991.205C471.977 990.984 471.682 991.14 471.682 991.565C471.682 992.048 470.856 992.232 469.396 992.062C467.914 991.885 467.111 992.069 467.111 992.572C467.11 993.107 465.367 993.375 461.518 993.427C457.887 993.479 456.068 993.277 456.332 992.846H456.33C456.555 992.48 456.17 992.179 455.475 992.179C454.779 992.179 453.844 991.742 453.396 991.199C452.95 990.664 452.179 990.219 451.685 990.219C451.19 990.219 450.781 989.559 450.775 988.749C450.767 987.561 450.644 987.47 450.132 988.26C449.628 989.043 449.486 988.906 449.437 987.607L449.377 985.973L448.719 987.777C448.357 988.763 447.793 989.409 447.465 989.207C447.136 989.005 446.867 989.239 446.867 989.736C446.867 990.408 445.64 990.657 441.971 990.729C438.992 990.794 437.073 990.565 437.073 990.16C437.073 989.795 436.779 989.671 436.42 989.893C436.061 990.115 435.768 989.984 435.768 989.606C435.768 989.227 435.278 988.913 434.68 988.913C434.081 988.913 433.763 988.743 433.972 988.534C434.436 988.071 432.109 985.647 431.197 985.647C430.838 985.647 430.544 985.353 430.544 984.993C430.544 984.634 429.443 984.308 428.096 984.262C425.659 984.19 425.657 984.183 427.605 983.687C428.767 983.393 425.71 983.19 420.097 983.197C413.87 983.203 411.412 983.386 412.915 983.733C415.197 984.255 415.196 984.256 412.425 984.118C410.539 984.027 409.651 984.249 409.65 984.817C409.65 985.431 408.104 985.647 403.773 985.647C400.292 985.647 397.898 985.379 397.897 984.993C397.897 984.634 397.236 984.333 396.428 984.333C395.24 984.32 395.146 984.203 395.938 983.687C396.726 983.177 396.623 983.053 395.41 983.046C394.574 983.04 394.082 982.746 394.306 982.38C394.546 981.995 393.769 981.727 392.386 981.727C391.108 981.727 390.061 981.426 390.061 981.054C390.061 980.603 389.608 980.617 388.705 981.1C387.083 981.969 383.054 980.355 382.398 978.578C382.177 977.977 381.68 977.24 381.295 976.946C380.805 976.567 380.829 976.305 381.374 976.083C382.54 975.606 381.62 973.888 380.198 973.888C379.515 973.888 378.962 973.437 378.962 972.868C378.962 972.313 378.668 972.033 378.31 972.255C377.95 972.477 377.656 972.333 377.656 971.928C377.656 971.53 377.379 971.373 377.042 971.575C376.704 971.784 376.079 971.581 375.653 971.124C375.179 970.622 373.766 970.387 372.023 970.524C370.242 970.667 369.168 970.484 369.168 970.033C369.168 969.642 368.36 969.309 367.372 969.309C365.973 969.296 365.794 969.158 366.557 968.661C367.209 968.244 367.264 968.028 366.72 968.022C365.149 968.002 364.92 967.793 364.271 965.787L363.618 963.762L358.184 963.573C353.033 963.39 352.681 963.469 351.443 965.043C350.726 965.958 349.701 966.702 349.168 966.702C348.634 966.702 348.379 966.996 348.601 967.356C348.822 967.715 348.644 968.009 348.204 968.009C347.764 968.009 347.586 968.191 347.808 968.413C349.047 969.655 342.868 972.581 339.015 972.581C337.331 972.581 336.596 972.83 336.883 973.293C337.173 973.764 336.581 973.934 335.126 973.803C333.664 973.672 332.985 973.869 333.094 974.398C333.208 974.953 332.081 975.195 329.378 975.195C327.245 975.195 325.317 975.489 325.095 975.848C324.873 976.207 323.991 976.501 323.136 976.501C322.281 976.501 321.4 976.207 321.178 975.848C320.664 975.018 317.212 974.999 315.679 975.822C314.808 976.285 314.151 976.115 313.109 975.142C312.34 974.423 311.71 973.554 311.71 973.208C311.71 972.862 311.18 972.581 310.532 972.581C309.884 972.581 308.231 971.556 306.858 970.295C304.919 968.518 303.809 968.009 301.873 968.009C300.503 968.009 299.222 967.747 299.025 967.434C298.83 967.114 296.713 966.65 294.323 966.389C291.721 966.115 289.518 965.494 288.836 964.847C287.56 963.632 287.309 960.105 288.445 959.366C288.851 959.099 286.613 958.883 283.471 958.876C280.104 958.87 277.757 958.595 277.757 958.209C277.756 957.85 277.316 957.557 276.778 957.557C276.24 957.557 275.776 957.04 275.747 956.413C275.718 955.773 275.555 955.616 275.374 956.067C274.976 957.047 272.534 955.721 272.534 954.519C272.534 954.062 271.973 953.905 271.126 954.127C270.162 954.382 269.866 954.258 270.185 953.741C270.469 953.284 270.218 952.984 269.546 952.984C268.937 952.984 267.759 952.252 266.927 951.351C265.87 950.208 264.667 949.691 262.935 949.632L260.454 949.547L265.025 948.58L262.903 948.417C261.737 948.326 260.414 948.215 259.965 948.169C259.516 948.123 258.858 947.424 258.504 946.615C257.845 945.112 256.863 944.622 256.863 945.798C256.863 947.274 254.197 946.307 252.807 944.328C251.464 942.421 251.033 942.225 248.524 942.407C246.99 942.519 245.905 942.884 246.114 943.224C246.323 943.564 245.724 943.838 244.784 943.838C243.811 943.838 243.249 943.557 243.478 943.185C243.7 942.826 243.406 942.531 242.825 942.531C242.245 942.531 241.951 942.826 242.172 943.185C242.394 943.544 242.1 943.838 241.519 943.838C240.939 943.838 240.645 943.544 240.866 943.185C241.102 942.806 240.439 942.531 239.277 942.531C236.193 942.531 232.061 940.5 232.001 938.951C231.97 938.161 231.81 937.979 231.602 938.501C231.373 939.075 230.818 938.657 229.978 937.273C229.015 935.692 228.806 934.555 229.129 932.648C229.418 930.936 229.314 930.119 228.806 930.119C228.395 930.119 228.24 929.825 228.461 929.466C228.69 929.094 228.131 928.813 227.163 928.813C225.01 928.813 222.306 925.84 222.278 923.449C222.266 922.378 221.757 921.405 220.996 921C220.302 920.628 219.529 919.674 219.277 918.884C219.026 918.094 218.402 917.022 217.891 916.512C217.379 916.002 217.105 915.199 217.282 914.741C217.46 914.278 217.183 913.736 216.667 913.54C216.151 913.338 215.728 912.795 215.728 912.324C215.728 910.861 211.433 907.909 209.313 907.908C208.647 907.908 207.769 907.177 207.359 906.276C206.923 905.322 206.07 904.643 205.296 904.643C204.57 904.643 203.976 904.349 203.976 903.99C203.976 903.63 202.93 903.336 201.651 903.336C200.269 903.336 199.492 903.604 199.731 903.99C199.978 904.388 198.976 904.643 197.158 904.643C195.522 904.643 194.182 904.349 194.182 903.99C194.182 903.63 193.3 903.336 192.223 903.336C190.63 903.336 190.262 903.61 190.254 904.806C190.246 905.995 190.123 906.086 189.611 905.296C189.131 904.551 188.976 904.832 188.969 906.439C188.963 907.608 188.696 908.562 188.376 908.562C188.055 908.562 187.614 909.281 187.395 910.15C187.176 911.025 186.41 911.926 185.692 912.155C184.975 912.383 184.388 912.834 184.388 913.155C184.387 914.108 173.89 913.833 172.905 912.847C172.432 912.37 172.202 911.828 172.395 911.632C172.589 911.443 172.134 910.953 171.385 910.555C169.912 909.764 169.533 906.831 170.641 904.799C170.98 904.172 171.435 902.552 171.652 901.194C171.87 899.841 172.327 898.901 172.668 899.11C173.25 899.469 173.572 898.136 173.341 896.333C173.284 895.889 173.691 894.837 174.245 893.994C174.799 893.145 175.054 892.257 174.813 892.015C174.573 891.773 174.737 891.577 175.177 891.577C175.617 891.577 175.795 891.283 175.573 890.924C175.352 890.565 175.481 890.271 175.861 890.271C176.242 890.27 176.553 889.552 176.553 888.677C176.553 887.802 176.824 886.913 177.155 886.71C177.486 886.508 177.951 885.456 178.187 884.378C178.424 883.3 178.888 882.589 179.218 882.791C179.547 882.993 179.854 882.705 179.898 882.144C180.08 879.884 181.579 876.552 182.413 876.552C182.781 876.552 183.082 875.389 183.082 873.972C183.082 872.417 183.452 871.183 184.015 870.869C184.964 870.34 185.04 870.15 185.04 868.347C185.04 867.792 185.334 867.512 185.693 867.734C186.059 867.962 186.347 867.452 186.347 866.59C186.347 865.062 187.369 863.683 190.312 861.26C191.313 860.437 191.914 860.273 192.08 860.77C192.219 861.188 192.758 861.528 193.277 861.528C193.798 861.528 194.392 861.972 194.599 862.507C194.805 863.049 195.548 863.488 196.249 863.488C196.95 863.488 197.342 863.782 197.12 864.141C196.899 864.5 197.175 864.793 197.734 864.793C199.434 864.793 198.88 866.668 196.467 869.085C195.21 870.339 194.182 871.653 194.182 871.999C194.182 872.352 195.959 872.633 198.131 872.633C200.744 872.633 202.995 873.077 204.783 873.94C206.444 874.743 208.822 875.245 210.954 875.245C212.861 875.245 214.422 875.54 214.423 875.899C214.423 876.944 219.392 876.67 220.299 875.573C220.746 875.037 220.878 874.593 220.592 874.593C220.306 874.592 220.713 873.913 221.497 873.077C222.281 872.241 222.724 871.359 222.481 871.117C222.239 870.876 222.548 870.673 223.167 870.673C223.786 870.673 224.137 870.418 223.944 870.112C223.507 869.4 225.801 867.25 226.377 867.824C226.609 868.06 226.983 867.766 227.21 867.171C227.437 866.583 227.99 866.1 228.44 866.1C228.935 866.1 229.151 865.519 228.985 864.63C228.795 863.605 229.415 862.422 231.033 860.711C232.31 859.366 233.698 858.261 234.118 858.261C234.538 858.261 234.699 858.078 234.477 857.856C234.255 857.633 234.502 857.026 235.027 856.497C235.552 855.975 235.81 855.27 235.601 854.93C235.391 854.59 235.462 854.354 235.758 854.406C237.289 854.668 238.034 854.25 237.68 853.329C237.456 852.748 237.566 852.486 237.936 852.715C238.299 852.936 238.581 852.362 238.581 851.402C238.581 850.428 238.863 849.866 239.234 850.095C239.593 850.317 239.887 850.029 239.887 849.461C239.887 848.887 240.328 848.253 240.866 848.044C241.405 847.842 241.846 846.96 241.846 846.084C241.846 842.923 245.037 837.357 246.85 837.357C248.273 837.357 248.53 835.998 247.353 834.698C246.354 833.594 246.317 833.215 247.073 831.797C247.552 830.902 248.352 830.171 248.851 830.171C249.35 830.171 249.576 829.877 249.354 829.518C249.133 829.159 249.242 828.865 249.598 828.865C250.017 828.864 250.028 828.12 249.627 826.741C249.288 825.572 249.194 823.769 249.419 822.731C250.127 819.439 250.114 815.8 249.394 815.792C249.014 815.786 249.142 815.492 249.681 815.146C250.518 814.604 250.494 814.513 249.518 814.506C247.768 814.486 248.095 811.599 250.087 809.463C251.028 808.457 252.056 807.706 252.372 807.797C252.688 807.888 252.945 807.522 252.945 806.981C252.945 806.275 253.672 806 255.558 806C257.848 806 258.169 805.817 258.169 804.498C258.169 803.675 258.504 802.662 258.911 802.257C259.465 801.702 259.393 801.251 258.632 800.493C257.441 799.298 256.21 799.154 256.21 800.199C256.21 800.624 255.531 800.8 254.578 800.617C253.484 800.408 252.945 800.598 252.945 801.193C252.945 801.682 252.309 802.08 251.531 802.08C250.753 802.08 250.289 801.911 250.499 801.702C251.399 800.801 248.078 798.161 246.042 798.161C244.78 798.161 243.795 797.769 243.569 797.181C243.362 796.645 242.522 796.195 241.703 796.195C240.502 796.182 240.404 796.058 241.193 795.548C242.03 795.006 242.006 794.915 241.029 794.908C240.401 794.902 239.887 794.457 239.887 793.915C239.887 793.38 239.593 792.935 239.234 792.935C238.875 792.935 238.581 791.89 238.581 790.61C238.581 789.336 238.349 788.429 238.064 788.604C237.78 788.78 237.478 787.99 237.395 786.847C237.313 785.704 237.084 784.253 236.889 783.626C236.673 782.927 236.943 782.32 237.573 782.078C238.287 781.804 238.414 781.438 237.976 780.908C237.15 779.915 237.34 777.316 238.227 777.466C238.601 777.531 238.834 777.217 238.744 776.767C238.66 776.344 238.914 776.059 239.315 776.101L239.479 776.126C239.881 776.165 240.126 775.862 240.034 775.415C239.936 774.938 240.136 774.722 240.479 774.931C240.822 775.146 241.29 775.016 241.519 774.644C241.749 774.272 242.177 774.122 242.47 774.298C242.763 774.481 243.367 774.193 243.811 773.657C244.255 773.122 245.446 772.684 246.458 772.684C247.47 772.684 248.48 772.39 248.701 772.031C248.923 771.671 250.19 771.352 251.516 771.313C253.68 771.254 253.759 771.195 252.293 770.725C251.205 770.379 251.042 770.182 251.803 770.136C253.096 770.064 253.325 768.085 252.269 766.113C251.805 765.244 250.9 764.845 249.379 764.845C247.802 764.845 246.799 764.382 245.897 763.239C245.201 762.35 244.445 761.808 244.218 762.036C243.991 762.265 243.805 762.075 243.805 761.617C243.804 761.153 242.629 759.377 241.193 757.659C238.731 754.72 237.655 751.126 239.234 751.126C239.593 751.126 239.887 750.715 239.887 750.219C239.887 749.716 240.328 749.141 240.866 748.932C241.658 748.625 241.846 747.122 241.846 741.106C241.846 733.848 242.716 729.667 244.448 728.596C244.813 728.374 245.11 727.374 245.11 726.381C245.11 724.839 247.506 721.743 248.704 721.737H249.525C249.799 721.736 250.827 720.985 251.81 720.071C252.794 719.163 253.607 718.647 253.619 718.927C253.631 719.214 254.084 718.862 254.627 718.144C255.17 717.425 255.748 716.909 255.913 717C256.077 717.085 256.725 717.157 257.352 717.151C258.329 717.144 258.354 717.046 257.517 716.51C256.672 715.961 256.689 715.87 257.64 715.864C259.181 715.85 262.711 712.473 263.055 710.69C263.285 709.488 263.125 709.292 262.225 709.671C259.618 710.769 258.169 710.788 258.169 709.723C258.169 709.142 257.875 708.671 257.517 708.671C257.157 708.671 256.863 708.201 256.863 707.626C256.863 707.058 256.276 706.43 255.558 706.247C254.839 706.058 254.252 705.64 254.252 705.326C254.252 705.006 253.404 704.752 252.368 704.752C250.193 704.752 248.375 702.511 248.375 699.832C248.375 698.905 248.143 698.285 247.858 698.461C247.352 698.775 247.049 697.239 246.845 693.32C246.789 692.242 246.404 691.139 245.99 690.87C245.576 690.603 245.225 688.91 245.211 687.114C245.196 685.252 244.748 683.221 244.169 682.391C243.609 681.594 243.151 680.275 243.151 679.451C243.151 678.635 242.858 677.968 242.499 677.968C241.439 677.968 241.644 660.008 242.714 659.115C243.206 658.704 243.465 657.593 243.311 656.548C243.141 655.385 243.425 654.379 244.075 653.843C244.644 653.366 245.11 652.119 245.11 651.061C245.11 649.95 245.386 649.316 245.764 649.551C246.123 649.773 246.416 649.493 246.416 648.931C246.416 648.376 246.857 647.918 247.395 647.918C247.947 647.918 248.375 647.33 248.375 646.579C248.375 645.848 249.11 644.508 250.008 643.607C250.905 642.712 251.677 641.699 251.722 641.353C251.767 641.013 251.84 640.491 251.885 640.191C252.047 639.12 255.199 634.959 255.642 635.232C255.891 635.382 256.3 634.292 256.551 632.809C256.871 630.908 257.177 630.372 257.578 631.005C258.063 631.776 258.344 629.934 258.143 627.308C258.128 627.112 259.109 625.988 260.323 624.813C262.006 623.173 262.635 621.912 262.966 619.495C263.205 617.752 263.839 615.844 264.377 615.249C264.914 614.655 265.158 613.969 264.918 613.727C264.678 613.492 264.989 613.295 265.608 613.295C266.228 613.295 266.569 613.028 266.367 612.701C265.829 611.826 266.666 610.03 267.608 610.03C269.305 610.03 267.304 601.109 265.335 599.89C263.563 598.794 266.539 593.748 269.019 593.644C269.695 593.616 269.926 593.459 269.533 593.296C268.501 592.868 269.6 586.641 270.977 585.119C271.547 584.489 271.787 583.961 271.547 583.893L271.391 583.873C271.199 583.819 271.331 583.604 271.728 583.352C272.183 583.063 272.724 581.23 272.932 579.279C273.139 577.327 273.575 575.632 273.9 575.512C274.226 575.392 274.492 574.991 274.492 574.619C274.492 574.247 275.381 572.931 276.466 571.695C277.552 570.458 278.287 569.201 278.102 568.901C277.916 568.6 278.223 568.179 278.782 567.964C279.341 567.75 279.637 567.311 279.438 566.99C279.24 566.669 279.516 566.042 280.05 565.599C280.584 565.155 281.021 564.226 281.021 563.535C281.022 561.451 283.97 559.001 286.065 559.344C287.063 559.507 289.274 559.841 290.979 560.084L294.081 560.528L294.158 558.003C294.201 556.615 294.194 555.139 294.144 554.724C294.094 554.308 294.746 552.664 295.593 551.07C297.102 548.23 297.108 548.151 295.886 547.158C295.199 546.601 294.575 545.714 294.498 545.188C294.42 544.661 293.854 543.727 293.239 543.113C291.88 541.752 291.844 541.152 293.05 539.946C293.56 539.435 294.076 538.458 294.193 537.776C294.514 535.92 295.743 534.902 297.664 534.902C298.643 534.902 299.208 534.621 298.978 534.248C298.757 533.889 299.033 533.595 299.593 533.595C300.152 533.595 300.61 533.303 300.61 532.947C300.611 531.876 305.395 526.591 307.508 525.327C308.203 524.911 308.698 524.25 308.609 523.858C308.519 523.465 308.727 523.143 309.069 523.143C309.413 523.143 310.798 522.393 312.149 521.476C313.756 520.385 315.29 519.877 316.585 520.006C317.986 520.146 318.573 519.917 318.595 519.224C318.612 518.685 318.979 518.317 319.412 518.407C319.844 518.497 320.198 518.112 320.198 517.552C320.198 516.992 320.492 516.715 320.852 516.937C321.211 517.159 321.505 516.881 321.505 516.32C321.505 514.893 323.842 510.676 324.351 511.184C324.58 511.414 324.769 511.112 324.769 510.513C324.77 509.894 325.284 509.425 325.961 509.425C327.579 509.425 329.992 506.736 329.992 504.934C329.992 504.123 330.284 503.649 330.645 503.872C331.005 504.094 331.299 503.818 331.299 503.257C331.299 502.471 332.042 502.239 334.563 502.239C336.542 502.239 337.828 502.528 337.828 502.972C337.828 503.5 338.065 503.507 338.676 503C339.143 502.613 340.832 502.092 342.431 501.842C344.029 501.592 345.483 501.211 345.663 500.996C346.291 500.244 348.918 498.973 349.844 498.973C350.357 498.973 350.876 498.687 350.995 498.338C351.115 497.989 351.801 497.607 352.518 497.49C353.237 497.372 354.508 496.9 355.345 496.441C356.18 495.981 357.262 495.758 357.746 495.944C358.23 496.129 358.981 495.855 359.414 495.332C359.847 494.81 360.53 494.421 360.931 494.468C362.417 494.644 363.36 494.385 363.052 493.885C362.877 493.602 363.49 493.307 364.416 493.231C365.341 493.154 366.54 492.724 367.081 492.276C367.621 491.827 368.238 491.521 368.452 491.595C369.25 491.871 371.779 490.971 371.78 490.409C371.78 490.089 372.735 489.806 373.902 489.782C375.68 489.743 375.813 489.644 374.719 489.174C373.806 488.781 374.691 488.603 377.657 488.58C380.91 488.557 382.282 488.848 383.533 489.827C384.431 490.53 385.496 491.111 385.901 491.119C386.306 491.127 387.004 491.575 387.451 492.114C388.911 493.873 389.881 493.2 390.22 490.192C390.569 487.093 391.871 485.254 393.716 485.254C394.34 485.254 394.664 485.068 394.437 484.841C394.21 484.614 394.751 483.855 395.641 483.156C396.53 482.456 397.109 481.644 396.929 481.351C396.748 481.058 397.038 480.649 397.574 480.444C398.111 480.235 398.55 479.595 398.55 479.02C398.55 478.444 398.918 477.589 399.366 477.119C399.815 476.65 400.606 475.654 401.124 474.906C401.841 473.868 402.726 473.559 404.843 473.602C406.548 473.636 408.013 473.265 408.636 472.642C409.765 471.512 410.003 469.574 409.012 469.574C408.643 469.574 408.412 467.508 408.468 464.702C408.52 462.024 408.775 459.963 409.033 460.122C409.291 460.282 409.662 459.799 409.858 459.048C410.055 458.297 410.529 457.877 410.912 458.114C411.295 458.351 411.608 458.212 411.608 457.806C411.609 457.4 412.049 456.627 412.588 456.088C413.126 455.549 413.567 455.272 413.567 455.471C413.568 455.965 418.706 453.254 419.159 452.521C419.333 452.239 419.228 452.002 418.931 451.948L418.651 451.924C418.351 451.874 418.233 451.657 418.393 451.399C418.575 451.103 418.262 450 417.696 448.949C416.274 446.304 415.928 437.255 417.2 435.983C417.735 435.447 418.139 433.794 418.139 432.138C418.139 430.361 418.516 428.917 419.11 428.424C419.612 428.008 419.904 427.463 419.797 427.167L419.744 427.056C419.638 426.76 419.93 426.215 420.431 425.798C420.965 425.354 421.403 424.43 421.403 423.744C421.403 423.059 421.842 422.329 422.379 422.122C422.916 421.917 423.212 421.518 423.039 421.238C422.865 420.957 423.161 420.363 423.695 419.919C424.23 419.476 424.668 418.69 424.668 418.174C424.668 417.69 424.926 417.448 425.254 417.603L425.387 417.675C425.715 417.826 425.974 417.55 425.974 417.025C425.974 416.464 426.194 416.041 426.463 416.083C427.776 416.291 428.62 415.937 428.249 415.336C428.022 414.968 428.078 414.709 428.374 414.76C429.824 415.012 431.232 414.632 430.892 414.079C430.681 413.738 431.618 413.255 432.975 413.005C434.33 412.756 435.588 412.374 435.768 412.156C436.697 411.029 439.307 410.127 441.636 410.127C444.554 410.127 445.145 409.185 442.623 408.552C441.708 408.322 440.991 407.669 440.991 407.066C440.991 406.474 440.82 406.161 440.61 406.37C440.135 406.846 437.727 404.496 437.727 403.556C437.727 403.175 437.432 403.046 437.073 403.268C436.703 403.496 436.42 402.947 436.42 401.999C436.42 401.08 436.051 400.328 435.601 400.328C434.834 400.327 432.866 396.886 432.799 395.429C432.782 395.07 432.416 394.133 431.983 393.348C431.551 392.563 431.197 391.519 431.197 391.027C431.198 389.603 435.357 385.957 436.979 385.956C437.822 385.956 438.279 385.668 438.043 385.286C437.816 384.918 437.872 384.659 438.168 384.71C441.221 385.241 441.881 383.541 439.358 381.646C438.461 380.972 437.727 379.891 437.727 379.245C437.727 378.599 437.26 377.358 436.689 376.488C435.646 374.894 435.875 371.474 437.13 369.908C437.437 369.524 437.758 368.283 437.845 367.149C437.931 366.015 438.399 364.934 438.885 364.747C439.37 364.561 439.62 364.168 439.439 363.875C439.259 363.583 439.827 362.805 440.703 362.147C441.579 361.488 442.297 360.564 442.297 360.093C442.297 359.623 442.665 359.003 443.113 358.715C444.345 357.927 445.561 355.459 445.561 353.753C445.561 352.919 445.967 351.683 446.461 351.005C447.215 349.974 447.218 349.632 446.482 348.896C445.003 347.415 446.51 342.188 448.417 342.188C448.822 342.187 449.181 341.232 449.215 340.065C449.319 336.494 449.731 334.427 450.271 334.761C450.554 334.936 450.806 334.4 450.833 333.571C450.898 331.513 452.865 328.296 454.586 327.431C455.364 327.04 455.784 326.503 455.519 326.239C455.256 325.973 455.772 325.826 456.667 325.908C457.562 325.992 458.881 326.009 459.6 325.948C460.69 325.854 460.744 325.732 459.926 325.203C459.198 324.732 459.574 324.567 461.395 324.56C462.742 324.555 464.012 324.623 464.217 324.713C464.421 324.802 464.877 324.362 465.228 323.734C465.58 323.105 466.588 322.59 467.468 322.59C468.348 322.59 469.067 322.296 469.067 321.937C469.067 321.578 469.655 321.283 470.373 321.283C471.091 321.283 471.678 321.024 471.679 320.706C471.679 320.389 472.193 319.943 472.821 319.716C475.688 318.679 477.222 317.351 477.025 316.075C476.913 315.347 477.133 314.751 477.515 314.751C477.896 314.751 478.208 314.301 478.208 313.75C478.208 313.2 478.649 312.581 479.187 312.374C479.902 312.101 480.167 310.976 480.167 308.228C480.167 305.687 480.485 304.196 481.14 303.652C481.674 303.208 481.951 302.584 481.754 302.265C481.557 301.947 481.927 301.681 482.577 301.675C483.579 301.667 483.609 301.569 482.778 301.033C482.126 300.61 482.072 300.396 482.615 300.389C483.064 300.384 483.432 299.92 483.432 299.361C483.432 298.8 483.726 298.524 484.085 298.746C484.444 298.968 484.737 298.831 484.737 298.442C484.737 298.052 485.472 297.455 486.37 297.114C487.268 296.772 488.002 296.089 488.002 295.597C488.002 295.105 488.583 294.176 489.293 293.533C490.002 292.891 490.421 292.104 490.225 291.783C490.027 291.463 490.253 291.283 490.728 291.381C491.204 291.48 491.52 291.192 491.43 290.743C491.34 290.294 491.582 289.927 491.967 289.927C492.943 289.927 494.772 287.994 494.99 286.732C495.842 281.8 494.707 277.725 491.621 274.637C488.48 271.495 487.798 270.128 488.908 269.09L489.133 268.891C490.257 267.825 490.179 265.734 488.943 264.829C488.031 264.162 488.049 263.951 489.114 262.797C489.767 262.089 490.955 261.142 491.755 260.694C493.363 259.79 496.099 259.579 495.593 260.398C495.416 260.685 495.541 261.346 495.871 261.867C496.393 262.694 496.472 262.692 496.48 261.855C496.487 261.215 496.833 261.383 497.514 262.355C498.077 263.158 499.581 264.252 500.857 264.785C503.926 266.068 509.988 266.063 511.274 264.777C511.813 264.238 512.653 263.797 513.141 263.797C513.628 263.797 514.467 264.238 515.006 264.777C515.544 265.316 516.175 265.757 516.405 265.757C517.597 265.758 518.69 267.926 518.69 270.288C518.69 272.364 518.253 273.412 516.716 275.022C514.741 277.089 513.597 279.822 514.378 280.604C514.607 280.832 516.336 280.947 518.222 280.86C520.267 280.765 522.4 281.089 523.508 281.664C525.595 282.747 528.333 282.489 529.768 281.073C530.603 280.247 530.419 280.128 528.303 280.128C526.74 280.128 525.293 279.615 524.219 278.681C522.818 277.462 522.579 276.742 522.699 274.109C522.777 272.389 523.083 270.983 523.378 270.983C523.673 270.982 523.914 270.532 523.914 269.982C523.914 269.432 524.354 268.813 524.893 268.606C525.456 268.39 525.872 267.414 525.872 266.311C525.872 265.17 526.534 263.679 527.505 262.631C528.724 261.316 529.137 260.153 529.137 258.04C529.137 255.318 530.215 253.345 531.702 253.345C532.087 253.345 532.401 253.051 532.401 252.692C532.401 252.332 532.99 252.038 533.708 252.038C534.434 252.039 535.013 252.473 535.014 253.018C535.014 253.557 535.418 253.998 535.913 253.998C536.408 253.998 537.178 253.557 537.625 253.018C538.072 252.479 538.845 252.039 539.343 252.038C540.075 252.038 540.097 251.796 539.459 250.774C539.025 250.079 538.435 249.655 538.147 249.832C537.222 250.404 537.594 246.752 538.559 245.785C539.619 244.725 542.848 244.514 542.849 245.505C542.849 245.864 543.436 246.158 544.154 246.158C544.872 246.158 545.46 245.847 545.46 245.467C545.46 245.086 545.733 244.944 546.066 245.15C546.4 245.356 546.86 244.932 547.09 244.208C547.386 243.275 548.076 242.893 549.461 242.893C550.535 242.893 551.28 242.672 551.117 242.403C550.955 242.133 551.231 241.533 551.731 241.07C552.201 240.636 552.59 240.447 552.638 240.62L552.647 240.7C552.698 240.876 553.114 240.702 553.614 240.286C554.185 239.812 555.059 239.687 555.736 239.983C556.369 240.26 557.108 240.441 557.377 240.383C557.646 240.327 557.866 240.594 557.866 240.978C557.866 241.362 558.505 241.583 559.286 241.468C560.511 241.288 561.981 239.555 563.478 236.524Z" fill="white"/>
<path d="M355.62 964.291C356.249 964.128 357.277 964.128 357.905 964.291C358.534 964.455 358.019 964.592 356.763 964.592C355.506 964.592 354.992 964.455 355.62 964.291Z" fill="white"/>
<path d="M282.858 959.725C283.33 959.535 283.893 959.562 284.11 959.778C284.327 959.993 283.941 960.15 283.253 960.117C282.492 960.085 282.337 959.934 282.858 959.725Z" fill="white"/>
<path d="M208.22 910.522C207.553 909.444 210.898 909.784 213.06 911.012C214.9 912.064 215.067 912.442 215.071 915.584C215.073 917.472 214.782 919.013 214.423 919.014C214.064 919.014 213.769 919.472 213.769 920.033C213.769 920.595 213.507 920.889 213.185 920.693C212.864 920.49 212.432 920.771 212.227 921.307C211.711 922.646 209.628 922.529 208.321 921.085C207.727 920.432 207.24 919.249 207.24 918.465C207.24 917.681 206.886 916.473 206.453 915.774C205.81 914.748 205.871 914.291 206.781 913.285C207.394 912.606 207.7 911.854 207.46 911.613C207.22 911.371 207.383 911.175 207.823 911.175C208.263 911.175 208.442 910.881 208.22 910.522Z" fill="white"/>
<path d="M179.992 914.644C180.627 914.481 181.509 914.487 181.951 914.67C182.394 914.846 181.874 914.983 180.797 914.97C179.72 914.957 179.358 914.807 179.992 914.644Z" fill="white"/>
<path d="M702.331 885.371C702.338 883.934 702.468 883.425 702.625 884.235C702.782 885.051 702.775 886.227 702.612 886.848C702.449 887.475 702.324 886.808 702.331 885.371Z" fill="white"/>
<path d="M207.73 874.135C208.539 873.978 209.86 873.978 210.668 874.135C211.476 874.285 210.815 874.416 209.199 874.416C207.583 874.416 206.923 874.285 207.73 874.135Z" fill="white"/>
<path d="M215.606 860.43C216.078 860.241 216.641 860.267 216.858 860.483C217.074 860.698 216.688 860.854 216.001 860.822C215.24 860.789 215.085 860.639 215.606 860.43Z" fill="white"/>
<path d="M223.872 833.072C226.3 832.614 230.694 833.176 230.82 833.96C231.263 836.69 231.227 838.265 230.705 838.892C230.361 839.303 229.205 840.676 228.138 841.93C227.07 843.191 226.191 844.458 226.185 844.745C226.179 845.039 225.881 845.091 225.522 844.869C225.163 844.647 224.869 845.013 224.869 845.686C224.869 846.359 224.439 847.476 223.911 848.175C223.384 848.874 222.922 850.181 222.886 851.075C222.824 852.578 222.774 852.604 222.258 851.402C221.761 850.246 221.692 850.298 221.651 851.892C221.626 852.878 221.294 853.689 220.913 853.689C220.533 853.689 220.404 853.983 220.625 854.342C220.847 854.701 220.718 854.994 220.338 854.994C219.958 854.994 219.626 855.805 219.601 856.791C219.56 858.385 219.491 858.438 218.993 857.281C218.432 855.975 218.432 855.975 218.309 857.281C218.241 858 218.2 858.751 218.218 858.941C218.235 859.137 217.408 859.359 216.379 859.444C215.076 859.542 214.196 859.137 213.485 858.124C212.262 856.374 212.139 853.12 213.28 852.682C213.863 852.459 214.036 850.911 213.887 847.267C213.721 843.243 213.894 841.989 214.703 841.316C215.267 840.845 215.728 840.172 215.728 839.813C215.729 838.878 220.39 834.743 221.445 834.743C221.935 834.743 222.162 834.463 221.952 834.123C221.741 833.784 222.605 833.307 223.872 833.072Z" fill="white"/>
<path d="M723.265 840.786C726.294 837.429 734.162 840.388 734.162 844.882C734.162 846.385 733.503 847.489 731.524 849.305C728.73 851.879 726.013 852.44 724.531 850.755C724.081 850.239 723.715 849.508 723.715 849.122C723.715 848.737 723.31 848.266 722.813 848.076C721.378 847.527 721.691 842.537 723.265 840.786Z" fill="white"/>
<path d="M734.86 844.163C734.893 843.4 735.05 843.249 735.259 843.765C735.448 844.242 735.421 844.804 735.206 845.02C734.991 845.235 734.834 844.849 734.86 844.163Z" fill="white"/>
<path d="M699.001 820.372C699.001 819.477 699.151 819.105 699.334 819.556C699.517 820.007 699.517 820.738 699.334 821.189C699.151 821.639 699.001 821.273 699.001 820.372Z" fill="white"/>
<path d="M797.138 787.075C798.43 786.383 798.986 786.442 800.696 787.448C803.092 788.865 803.21 789.747 801.297 791.948C799.697 793.791 796.844 794.183 796.844 792.57C796.844 792.014 796.569 791.72 796.236 791.929C795.466 792.406 794.728 790.172 795.23 788.872C795.433 788.337 796.295 787.526 797.138 787.075Z" fill="white"/>
<path d="M702.005 791.158C703.167 791.015 705.08 791.015 706.249 791.158C707.411 791.302 706.458 791.419 704.127 791.419C701.789 791.419 700.836 791.302 702.005 791.158Z" fill="white"/>
<path d="M790.49 730.222C790.49 728.609 790.615 727.943 790.771 728.752C790.928 729.562 790.928 730.883 790.771 731.693C790.615 732.502 790.49 731.842 790.49 730.222Z" fill="white"/>
<path d="M780.618 717.157C780.618 716.263 780.768 715.89 780.951 716.341C781.134 716.792 781.134 717.523 780.951 717.974C780.768 718.424 780.618 718.059 780.618 717.157Z" fill="white"/>
<path d="M813.213 666.478C813.245 665.714 813.402 665.563 813.611 666.078C813.801 666.555 813.774 667.118 813.559 667.333C813.343 667.549 813.187 667.163 813.213 666.478Z" fill="white"/>
<path d="M818.267 652.694C818.737 652.504 819.298 652.531 819.514 652.746C819.735 652.962 819.35 653.118 818.658 653.085C817.901 653.053 817.744 652.903 818.267 652.694Z" fill="white"/>
<path d="M816.529 610.676C816.529 609.781 816.679 609.409 816.862 609.86C817.045 610.31 817.045 611.042 816.862 611.492C816.679 611.943 816.529 611.578 816.529 610.676Z" fill="white"/>
<path d="M806.735 602.185C806.735 601.287 806.885 600.919 807.068 601.368C807.251 601.817 807.251 602.552 807.068 603.001C806.885 603.45 806.735 603.083 806.735 602.185Z" fill="white"/>
<path d="M823.085 575.728C823.098 574.65 823.241 574.288 823.411 574.924C823.574 575.56 823.568 576.442 823.386 576.884C823.209 577.326 823.072 576.805 823.085 575.728Z" fill="white"/>
<path d="M751.184 478.337C751.216 477.577 751.373 477.422 751.582 477.943C751.771 478.414 751.746 478.979 751.53 479.196C751.315 479.412 751.157 479.026 751.184 478.337Z" fill="white"/>
<path d="M757.817 453.895C757.817 452.638 757.948 452.123 758.111 452.752C758.281 453.381 758.281 454.409 758.111 455.038C757.948 455.667 757.817 455.152 757.817 453.895Z" fill="white"/>
<path d="M670.997 326.057C671.637 325.891 672.519 325.902 672.956 326.081C673.399 326.26 672.884 326.395 671.807 326.382C670.729 326.368 670.364 326.222 670.997 326.057Z" fill="white"/>
<path d="M702.214 316.983C702.246 316.222 702.403 316.067 702.612 316.588C702.802 317.06 702.775 317.623 702.56 317.84C702.344 318.057 702.188 317.671 702.214 316.983Z" fill="white"/>
<path d="M666.381 301.36C666.394 300.282 666.537 299.92 666.707 300.555C666.87 301.191 666.863 302.073 666.681 302.515C666.504 302.957 666.368 302.437 666.381 301.36Z" fill="white"/>
<path d="M517.915 279.682C518.386 279.493 518.949 279.516 519.167 279.733C519.384 279.95 518.998 280.105 518.31 280.076C517.549 280.045 517.394 279.89 517.915 279.682Z" fill="white"/>
<path d="M648.464 270.55C648.908 270.369 649.646 270.369 650.097 270.55C650.54 270.732 650.175 270.879 649.28 270.879C648.38 270.879 648.014 270.732 648.464 270.55Z" fill="white"/>
<path d="M519.394 269.948C519.426 269.187 519.581 269.032 519.79 269.553C519.978 270.025 519.955 270.589 519.738 270.806C519.521 271.023 519.366 270.636 519.394 269.948Z" fill="white"/>
<path d="M640.237 264.45C640.237 263.552 640.387 263.184 640.57 263.633C640.753 264.082 640.753 264.817 640.57 265.267C640.387 265.715 640.237 265.348 640.237 264.45Z" fill="white"/>
<path d="M604.276 245.124C604.308 244.363 604.462 244.208 604.671 244.73C604.859 245.201 604.836 245.765 604.619 245.982C604.402 246.198 604.248 245.813 604.276 245.124Z" fill="white"/>
<path d="M544.984 236.742C547 234.726 548.627 234.328 550.01 235.513C551.594 236.87 551.802 239.626 550.319 239.626C549.76 239.626 549.483 239.92 549.704 240.28C549.898 240.594 549.586 240.858 548.995 240.919L548.456 240.947C547.907 241.003 547.598 241.235 547.712 241.52L547.78 241.653C547.914 241.981 547.498 242.24 546.805 242.24C546.066 242.239 545.46 241.927 545.46 241.547C545.46 241.167 545.166 241.037 544.808 241.259C543.841 241.857 544.002 237.725 544.984 236.742Z" fill="white"/>
<path d="M583.004 172.993C582.325 171.893 585.915 172.596 587.522 173.878C589.037 175.087 589.272 175.607 588.737 176.564C588.264 177.409 588.33 178.239 588.963 179.454C590.038 181.516 590.113 183.585 589.147 184.551C588.641 185.057 588.634 185.641 589.124 186.556C589.503 187.266 589.629 188.032 589.402 188.259C589.175 188.486 589.333 188.672 589.752 188.672C590.807 188.673 590.707 190.532 589.593 191.647C589.086 192.154 588.571 192.846 588.449 193.185C588.327 193.524 587.461 193.991 586.524 194.224C585.084 194.581 584.527 194.26 582.933 192.15C581.255 189.929 580.773 189.674 578.597 189.855C577.106 189.978 576.149 189.772 576.148 189.326C576.148 188.924 575.855 188.776 575.497 188.997C574.747 189.462 571.629 186.16 571.599 184.868C571.587 184.393 571.15 183.577 570.627 183.053C569.626 182.052 569.921 180.465 571.385 178.984C571.857 178.505 572.048 177.798 571.81 177.412C571.552 176.996 571.684 176.901 572.135 177.18C572.556 177.441 573.061 177.209 573.272 176.659C573.499 176.07 574.882 175.5 576.696 175.25C580.014 174.793 583.373 173.591 583.004 172.993Z" fill="white"/>
<path d="M648.131 97.2161C649.502 97.2161 650.148 97.5899 650.396 98.5227C650.625 99.4195 651.285 99.8294 652.486 99.8294C655.229 99.8294 656.946 102.048 654.667 102.645C653.577 102.93 653.577 102.947 654.667 103.02C655.294 103.061 655.81 103.462 655.816 103.911C655.823 104.463 656.045 104.41 656.502 103.748C657.063 102.94 657.149 102.998 656.966 104.075C656.848 104.794 657.331 105.858 658.043 106.441C659.257 107.437 659.27 107.565 658.226 108.61C657.612 109.22 657.109 110.215 657.102 110.818C657.096 111.764 657.005 111.78 656.463 110.934C655.928 110.111 655.823 110.151 655.816 111.184C655.797 113.624 652.565 115.377 649.934 114.379C649.392 114.175 648.712 113.604 648.418 113.111C648.131 112.617 647.615 112.385 647.275 112.595C646.57 113.029 644.71 111.384 644.71 110.327C644.71 109.943 644.416 109.628 644.057 109.628C643.117 109.628 643.247 107.839 644.22 107.448C644.664 107.267 644.403 107.095 643.626 107.067C641.386 106.984 639.983 101.136 642.202 101.135C642.548 101.135 642.647 100.841 642.425 100.482C642.203 100.123 642.431 99.8294 642.934 99.8294C643.436 99.8294 644.383 99.2412 645.036 98.5227C645.702 97.7807 647.047 97.2162 648.131 97.2161Z" fill="white"/>
<path d="M622.51 78.5911C623.43 77.4851 629.692 77.2069 629.692 78.2718C629.693 78.6308 630.424 78.925 631.324 78.9251C632.29 78.9251 632.957 79.2989 632.957 79.843C632.957 80.4401 633.414 80.6422 634.263 80.4202C635.066 80.2098 635.568 80.4005 635.568 80.9173C635.568 81.3776 635.745 81.5727 635.967 81.3509C636.554 80.7688 638.181 82.5629 638.181 83.7864C638.181 84.8017 639.421 87.4252 640.211 88.0706C641.458 89.0956 642.751 93.0046 642.751 95.7757C642.751 98.9743 641.458 101.135 639.559 101.135C639.115 101.135 638.938 101.429 639.16 101.788C639.382 102.148 639.231 102.442 638.833 102.442C638.429 102.442 638.285 102.736 638.507 103.095C638.729 103.454 638.448 103.748 637.887 103.748C637.332 103.748 636.875 104.042 636.875 104.402C636.875 104.761 636.306 105.055 635.614 105.055C634.922 105.055 633.91 105.496 633.375 106.034C632.343 107.062 628.387 107.409 628.387 106.47C628.387 106.171 627.943 105.926 627.407 105.926C626.865 105.926 626.428 106.171 626.428 106.47C626.428 106.77 625.859 107.015 625.174 107.015C624.482 107.015 623.776 107.382 623.594 107.831C623.326 108.485 623.255 108.485 623.209 107.831C623.183 107.382 622.425 107.015 621.53 107.015C620.629 107.015 619.898 106.703 619.898 106.323C619.898 105.942 619.624 105.798 619.298 106.001C618.971 106.204 617.646 105.139 616.359 103.635C614.551 101.523 614.021 100.327 614.021 98.3841C614.021 96.8901 614.375 95.7321 614.891 95.5335C615.804 95.181 616.118 93.2965 615.263 93.2962C614.982 93.2962 614.57 92.7036 614.342 91.9798C614.113 91.2561 613.649 90.8326 613.316 91.0384C612.983 91.2446 612.716 90.6605 612.716 89.7415C612.716 88.8219 613.01 88.0706 613.369 88.0706C613.728 88.0704 614.021 87.6117 614.021 87.052C614.021 86.4916 614.316 86.2148 614.675 86.4368C615.034 86.6588 615.328 86.5221 615.328 86.1331C615.328 85.7438 616.059 85.145 616.96 84.804C617.854 84.4623 618.593 83.7799 618.593 83.2874C618.593 82.7954 619.167 81.8675 619.879 81.2249C620.591 80.5821 620.982 79.7561 620.76 79.3889C620.531 79.0227 620.65 78.9117 621.028 79.1429C621.4 79.3737 622.066 79.1257 622.51 78.5911Z" fill="white"/>
<path d="M805.012 42.3284C805.789 41.0657 808.368 41.6553 809.1 43.2649C809.498 44.1316 810.437 45.0383 811.201 45.2796C812.363 45.6487 812.547 46.1504 812.384 48.4309C812.22 50.6713 811.822 51.3713 810.085 52.4583C808.936 53.1814 807.989 53.9212 807.989 54.1009C807.989 54.2806 808.936 55.0194 810.085 55.7425C812.168 57.0496 813.474 60.6328 811.861 60.6331C811.456 60.6331 811.273 60.874 811.456 61.1673C811.639 61.4612 811.214 62.1148 810.516 62.6184C809.817 63.1227 809.243 63.777 809.243 64.0735C809.243 64.9967 806.004 67.9084 805.391 67.5315C805.077 67.3356 804.646 67.8452 804.443 68.6643C804.129 69.9022 800.65 71.979 799.403 71.6692C799.253 71.6307 797.83 71.3087 796.243 70.9554C793.56 70.3563 791.79 68.9436 787.84 64.2522C786.919 63.158 786.932 58.7959 787.852 57.5755C788.172 57.1509 788.61 55.1548 788.812 53.1389C789.159 49.7995 789.459 49.2357 792.201 46.8089C793.853 45.3446 795.132 43.8878 795.041 43.5706C794.897 43.0597 796.315 42.7056 797.653 42.9173C797.927 42.9597 798.142 42.684 798.143 42.304C798.143 41.9094 798.495 41.8349 798.959 42.1302C800.108 42.8577 801.002 42.8254 801.551 42.0374C801.871 41.5821 802.445 41.6239 803.32 42.1653C804.136 42.6709 804.764 42.7308 805.012 42.3284Z" fill="white"/>
<path d="M813.265 48.221C813.265 47.3233 813.415 46.9558 813.598 47.4046C813.78 47.8534 813.78 48.5889 813.598 49.0384C813.415 49.4866 813.265 49.119 813.265 48.221Z" fill="white"/>
<path d="M817.659 7.92996C819.984 5.14094 826.571 5.44732 827.342 8.38016C827.524 9.09411 827.942 9.67847 828.256 9.67898C828.576 9.67898 828.837 10.8936 828.837 12.3782C828.837 14.3287 828.445 15.4169 827.427 16.2981C826.656 16.9688 826.226 17.5176 826.474 17.5179C826.722 17.5179 826.545 17.9279 826.082 18.429C825.625 18.9302 825.018 19.206 824.75 19.0413C824.476 18.8766 824.078 19.2014 823.862 19.763C823.379 21.0256 821.603 21.0489 820.513 19.8069C820.062 19.2968 819.696 18.4086 819.696 17.8333C819.696 17.2582 819.455 16.937 819.154 17.1194C818.083 17.7811 816.647 15.0813 816.562 12.2503C816.504 10.3047 816.863 8.88463 817.659 7.92996Z" fill="white"/>
<circle id="436" cx="396" cy="484" fill="#5CE50D"/>
<circle id="1409" cx="730" cy="534" fill="#E52A0D"/>
<circle id="437" cx="410" cy="642" fill="#E52A0D"/>
<circle cx="683" cy="816" fill="#E52A0D"/>
</svg>
