<svg width="1000" height="1000" viewBox="0 0 1000 1000" fill="none" xmlns="http://www.w3.org/2000/svg">
<path fill-rule="evenodd" clip-rule="evenodd" d="M492.192 992.298L492.583 992.526L493.187 992.755L493.84 992.885L494.183 992.934L494.656 993.13L495.048 993.391L495.097 993.538L494.966 993.913L494.836 994.076L494.574 994.24L493.905 994.272L493.595 994.207L493.367 994.223L493.465 994.599L493.301 994.55L493.285 994.338L492.681 994.076L492.241 993.489L491.718 993.244L490.902 993.114L490.968 992.689L491.588 992.787L491.882 992.771L492.061 992.689L492.143 992.281L492.192 992.298Z" fill="white"/>
<path fill-rule="evenodd" clip-rule="evenodd" d="M526.448 941.261L526.318 941.066L526.285 940.641L526.367 940.429L527.003 939.858L527.264 939.711L527.526 939.89L527.574 940.135L527.77 940.609L528.064 941.082L528.701 941.833L529.174 942.273L529.566 942.779L530.169 943.514L530.186 943.856L530.039 944.085L529.696 944.215L529.321 944.199L528.864 944.052L528.652 943.922L528.488 943.726L528.113 943.089L528.08 942.926L527.803 942.502L527.395 942.077L526.905 941.8L526.563 941.506L526.448 941.261Z" fill="white"/>
<path fill-rule="evenodd" clip-rule="evenodd" d="M485.06 978.477L485.092 978.574L484.896 978.77L484.88 978.982L484.75 979.097V979.342L484.962 979.782L484.913 979.88L484.962 980.304L484.896 980.435L484.847 980.19L484.701 980.043V979.766L484.374 979.505L484.113 979.652L484.244 979.782L484.113 979.994L483.982 980.027L484.015 980.321L484.227 980.255L484.39 980.745L484.521 980.941L484.782 981.431L485.321 981.496L485.647 981.969L485.468 982.165L485.876 982.704L486.153 983.226L486.3 983.65L486.333 983.96L486.3 984.45L486.349 984.499L486.626 984.466L486.757 985.266L486.414 985.249L486.479 985.543L486.724 986.163L487.002 986.49L487.083 986.702L487.132 987.241L487.247 987.583L487.573 988.106L487.54 988.138L487.312 987.926L486.92 987.094L486.855 986.816L486.626 986.278L486.496 986.082L486.398 985.641L486.169 985.266L485.761 984.874L485.06 983.813L484.325 982.279L484.195 981.953L483.721 981.006L483.591 980.615L483.248 980.06L483.281 979.293L483.525 979.08L483.999 978.901L484.374 978.656L485.06 978.477Z" fill="white"/>
<path fill-rule="evenodd" clip-rule="evenodd" d="M502.001 979.467L502.116 979.434L502.099 979.254L501.887 979.303L501.74 979.01L502.116 979.14L502.279 979.075L502.262 978.814L503.291 978.667L504.074 978.602L504.27 978.683L504.351 978.895L504.286 979.205L504.107 979.646L503.715 980.299L503.421 980.642L502.948 981.099L502.507 981.196L502.605 981.376L502.622 981.833L502.556 982.421L502.311 982.437L502.246 981.458L502.148 981.099L502.36 980.788L502.23 980.87L502.295 980.576H502.409L502.279 980.74L502.54 980.609L502.589 980.364L502.524 979.972L502.148 980.038L502.197 980.429L502.083 980.332L501.969 979.826H502.083L502.148 979.989L502.524 979.94L502.393 979.418L502.001 979.467Z" fill="white"/>
<path fill-rule="evenodd" clip-rule="evenodd" d="M507.518 875.392L507.534 875.147L507.942 874.527L508.154 874.315L509.133 873.94L509.411 873.891L509.639 873.907L509.835 874.005L509.949 874.25L509.427 875L509.215 875.245L508.578 875.555L508.203 875.67L508.007 875.621L507.73 875.441L507.518 875.392Z" fill="white"/>
<path fill-rule="evenodd" clip-rule="evenodd" d="M528.392 870.076H528.294L528.261 869.782H528.327L528.18 869.309V869.048L528.278 868.738L528.392 868.15H528.457L528.653 867.677L528.914 867.498L529.322 867.302L530.367 867.334L531.003 867.188L531.036 867.449L530.595 867.481L529.942 868.232L529.632 868.673L529.371 869.113L528.473 869.88L528.392 870.076Z" fill="white"/>
<path fill-rule="evenodd" clip-rule="evenodd" d="M472.511 842.457L472.168 841.951L471.972 841.347L471.956 841.118L472.054 841.086L472.103 840.776L472.054 840.661L471.793 840.58L472.054 840.547L472.087 840.612L472.446 840.123L472.56 840.172L472.821 840.09V839.992L473.017 840.057L473.05 840.514L473.262 841.118L473.343 841.983L473.262 842.212L473.033 842.195L472.837 842.342L472.821 842.473L472.511 842.457Z" fill="white"/>
<path fill-rule="evenodd" clip-rule="evenodd" d="M541.187 663.12H541.089L540.713 662.663L540.518 662.304L540.599 662.223L540.73 662.419L541.121 662.533L541.203 662.272L540.926 662.174L540.811 662.321L540.713 662.223L541.024 661.88L541.497 661.619L541.709 661.374L541.791 661.113L542.035 660.623L542.28 659.807V659.709L542.443 659.285L542.574 658.698L542.819 657.065L542.868 656.119L542.917 655.221L542.868 654.993L542.884 654.666L542.819 654.65L542.933 654.079L543.096 653.867L543.031 653.769L543.047 653.328L543.145 653.54L543.113 653.867L543.439 653.801L543.782 654.014L543.929 654.03L544.222 654.275L544.5 654.944L544.581 655.384L544.614 655.858L544.5 656.249L544.141 657L543.88 657.604L543.586 658.159L543.357 658.485L542.786 659.562L542.59 660.068L542.705 660.15L542.541 660.623L542.443 660.77L542.199 661.39L541.954 661.815L541.709 662.043L541.823 662.255L541.856 662.892L541.725 663.316L541.742 663.447L542.003 663.659L541.872 663.675L541.285 663.381L541.187 663.12Z" fill="white"/>
<path fill-rule="evenodd" clip-rule="evenodd" d="M536.519 669.511L536.176 669.397L536.078 669.152L536.29 669.103L537.041 668.679L537.367 668.467L537.596 668.239L538.102 667.52L538.004 667.439L538.183 667.39L538.363 667.096L538.804 666.606L539.146 666.035L538.771 665.758L539.228 666.035L539.342 666.411L539.179 666.917L538.412 667.945L538.216 668.271L537.759 668.728L537.155 669.234L536.796 669.43L536.519 669.511Z" fill="white"/>
<path fill-rule="evenodd" clip-rule="evenodd" d="M544.956 632.941L544.891 632.827L544.923 632.631L544.891 632.076L544.793 631.783L544.629 631.57L544.434 631.473L544.466 631.326L544.907 631.048L545.135 630.95L545.935 630.836L547.045 630.624L548.204 630.02L548.448 629.628L548.677 629.367L548.873 629.416L548.922 629.628L548.905 630.134L548.824 630.428L548.661 630.705L547.877 631.016L547.437 631.244L546.735 631.57L546.18 631.946L545.935 632.223L545.478 632.778L545.364 632.762L544.956 632.941Z" fill="white"/>
<path fill-rule="evenodd" clip-rule="evenodd" d="M460.14 560.51L459.961 560.837L457.611 560.625L457.578 560.478L457.709 560.38L457.856 560.461L459.194 560.576L459.21 560.51L458.818 560.478L458.753 560.412L458.492 560.363L458.427 560.004L458.476 559.792L459.112 559.809L459.455 559.645L459.683 559.352H459.912L459.863 559.433L460.206 559.694L460.304 559.645L460.385 560.494L460.14 560.51Z" fill="white"/>
<path fill-rule="evenodd" clip-rule="evenodd" d="M452.893 455.391L453.366 455.652L453.04 455.717L453.301 456.402L453.53 456.354L453.383 455.831L453.432 455.733L453.513 455.913L453.611 456.468L453.546 456.696L453.35 456.957H452.991L451.016 457.072L451 456.713L451.588 456.68L451.685 456.566L451.653 456.19L451.767 456.043L452.24 455.75L452.812 455.554L452.893 455.391Z" fill="white"/>
<path fill-rule="evenodd" clip-rule="evenodd" d="M540.271 366.155L540.141 366.367L540.19 366.612L539.7 366.742L539.635 366.71L539.21 366.775L538.59 366.759L538.558 366.873L538.215 366.889L537.97 366.857L537.938 366.514L538.052 366.71L538.215 366.726L538.248 366.465L538.003 366.449L537.938 366.269L538.052 366.057L538.068 365.894L538.297 365.518L538.46 365.551L538.411 365.42L538.639 365.273L538.705 365.388L538.802 365.273L538.819 365.437L539.178 365.322L539.21 365.437L540.043 365.665L540.255 365.714L540.304 365.845L540.271 366.155Z" fill="white"/>
<path fill-rule="evenodd" clip-rule="evenodd" d="M541.431 365.971L541.186 365.057L541.219 365.008V364.257L541.317 364.176L541.301 363.653H541.121L541.17 363.327L541.284 363.311L541.186 363.099L541.268 362.527L541.382 362.217V361.956L541.48 361.695L541.904 360.34L542.051 360.373L541.904 360.699L542.035 361.091V363.131L542.166 363.115V363.392L542.035 363.409L542.051 363.8L541.921 363.849L542.068 364.176L542.231 364.143V363.882H542.41L542.394 364.241H542.59L542.867 363.474L542.998 362.87V362.642L542.312 361.777L542.459 361.238L542.394 361.222L542.574 360.846L542.884 359.769L543.488 359.932V359.9L542.965 359.72L542.998 359.263L543.275 359.018L543.292 358.806L543.488 358.692L543.341 358.529L543.324 358.349L543.161 358.17L542.982 358.284L542.9 358.105L543.112 357.746L543.324 357.648L543.945 357.484L544.238 357.501L544.499 357.664L544.548 357.909L544.434 358.447L544.042 359.508L543.912 359.998L543.504 359.932L543.896 360.079L543.618 361.14L543.128 362.609L543.194 362.919L542.9 363.996L542.655 364.633L542.394 365.09L542.247 365.302L541.725 365.857L541.545 365.987L541.431 365.971Z" fill="white"/>
<path fill-rule="evenodd" clip-rule="evenodd" d="M468.805 333.118L468.609 333.167L468.331 333.004L468.07 332.743L467.548 332.449L467.434 332.286L467.385 332.025L467.548 331.65L467.874 331.356L468.136 331.258L468.429 331.323L468.919 331.764L468.854 331.796L469 332.106L469.049 332.482L469.017 332.841L468.805 333.118Z" fill="white"/>
<path fill-rule="evenodd" clip-rule="evenodd" d="M473.425 276.931L473.229 277.175L472.903 277.388L472.854 277.208L472.919 276.996L472.756 275.674L472.527 275.348L472.609 275.168H472.886L473.017 275.103L473.311 275.086L473.343 274.989L473.637 274.891L473.751 275.005H474.012L474.29 275.201L474.469 275.446L474.502 275.641L474.323 275.592L474.045 275.658L473.817 275.625L473.67 275.837L473.556 276.147L473.507 276.8L473.425 276.931Z" fill="white"/>
<path fill-rule="evenodd" clip-rule="evenodd" d="M532.16 266.271L531.655 266.092L531.328 265.912L531.1 265.471L531.132 265.325L531.361 265.357L531.867 265.259L532.014 265.145L532.405 265.014L532.846 264.639L533.189 264.215L533.221 263.888L533.401 263.758L533.76 263.839L533.988 264.003L534.217 264.411L534.184 264.77L534.021 265.112L533.792 265.39L533.384 265.782L533.091 265.977L532.487 266.206L532.16 266.271Z" fill="white"/>
<path fill-rule="evenodd" clip-rule="evenodd" d="M527.754 136.852L528.047 137.211L528.455 137.832L528.635 138.24L528.651 138.615L528.439 138.648L528.015 138.207L527.607 137.603L526.84 136.363L526.252 135.4L525.942 135.025L525.583 134.551L525.191 134.274L525.273 133.996L525.453 133.898L525.844 134.029L526.122 134.339L526.693 135.384L526.921 135.775L527.313 136.314L527.754 136.852Z" fill="white"/>
<path fill-rule="evenodd" clip-rule="evenodd" d="M480.459 57.4564L480.148 57.0647L479.985 56.6893L479.512 55.9549L479.414 55.4653L479.479 55.2368L479.838 54.8288L480.067 54.8125L480.54 55.1552L480.752 55.4L480.85 55.7428L480.883 56.1344L480.867 56.7709L480.834 57.0484L480.736 57.2442L480.459 57.4564Z" fill="white"/>
<path fill-rule="evenodd" clip-rule="evenodd" d="M470.861 60.6348L470.453 60.7001L470.127 60.5532L469.8 60.2105L469.768 59.982L469.914 59.5577L470.159 59.2476L470.584 59.0028L470.877 58.9375H471.204L471.4 59.0191L471.742 59.2639L471.889 59.4924V59.8188L471.824 60.0146L471.644 60.2105L471.4 60.3737L470.861 60.6348Z" fill="white"/>
<path fill-rule="evenodd" clip-rule="evenodd" d="M482.711 50.7929L482.385 50.6133L482.254 50.6786L481.912 50.5317L482.107 50.2706L481.912 50.1727L481.814 49.8463L481.65 48.9487L481.732 48.916L481.667 48.7202L481.65 48.2959L481.699 48.0021L481.895 47.9531L482.14 48.0347L482.483 48.2632L483.07 48.8507L483.266 49.3567V49.6668L483.152 50.14L482.956 50.5807L482.711 50.7929Z" fill="white"/>
<path fill-rule="evenodd" clip-rule="evenodd" d="M484.017 45.5204L483.674 45.3736L483.511 44.9656L483.462 44.5412L483.396 44.2964L483.445 43.6436L483.56 43.3009L483.674 43.154L483.935 43.0234L484.229 43.0887L484.425 43.2682L484.718 43.7579L484.767 44.2638L484.751 44.5575L484.8 44.786L484.751 44.9656L484.539 45.292L484.115 45.5204H484.017Z" fill="white"/>
<path fill-rule="evenodd" clip-rule="evenodd" d="M487.786 42.3379L487.574 42.2889L487.999 42.2073L488.309 41.8646L488.537 41.375L488.684 40.5263L488.717 39.7593L488.7 39.4492L488.521 39.1881L488.309 39.0901L488.39 38.7964L488.929 38.5189L489.092 38.2905L489.418 38.2578L489.5 38.5516L489.484 39.3513L489.533 39.4655L489.516 39.743L489.304 40.3631L489.141 40.6406L488.668 41.424L488.553 41.7504L488.276 42.1584L488.08 42.2726L487.786 42.3379Z" fill="white"/>
<path fill-rule="evenodd" clip-rule="evenodd" d="M495.114 34.2293L494.771 34.6699L494.135 35.2574L493.874 35.5838L493.612 35.845L493.351 36.0245L492.992 36.1387L492.796 36.1224L492.486 35.9755L492.617 35.9266L493.155 36.0571L493.531 35.8286L493.678 35.6981L494.037 35.2248L494.135 34.9963L494.575 34.1477L494.836 33.7233L495.179 33.0542L495.342 32.3198L495.489 31.9444L495.571 31.5201L495.832 30.9325L495.897 30.6877L496.06 30.5409L496.158 30.345L496.436 30.0186L496.828 29.7412L497.007 29.3984H497.203L497.317 29.5127L497.285 29.8391L497.187 30.2471L496.713 31.1447L496.632 31.3732L496.224 32.1566L495.914 32.9236L495.571 33.4132L495.114 34.2293Z" fill="white"/>
<path fill-rule="evenodd" clip-rule="evenodd" d="M499.177 24.2893L499.536 23.9955L499.797 23.9792L499.83 24.2567L499.928 24.5341L499.797 24.6484L500.14 24.5994L500.352 24.4199L500.515 24.1424L500.532 23.6855L499.993 23.6039L500.042 23.3754L500.14 23.3427L500.499 23H500.793L501.348 23.2611L501.511 23.6202L501.527 23.9303L501.478 24.1751L501.282 24.5504L501.054 24.8768L500.76 25.1869L500.417 25.4644L500.156 25.546L499.944 25.5296L499.487 25.3012L499.177 25.1053L498.916 24.8279L499.047 24.4035L499.177 24.2893Z" fill="white"/>
<path fill-rule="evenodd" clip-rule="evenodd" d="M500.549 5.42433L500.63 5.44065L500.973 5.27745L501.103 5L501.381 5.0816L501.707 5.34273L501.919 5.70177L502.034 6.10978L501.968 6.45251L501.609 7.49701L501.43 7.92134L501.136 8.41095L500.989 8.54151L500.744 8.50887L500.924 8.44359L501.103 8.10086L501.12 7.39909L500.891 6.46883L500.646 6.01186L500.418 5.73441L500.597 5.48961L500.549 5.42433Z" fill="white"/>
<path fill-rule="evenodd" clip-rule="evenodd" d="M503.11 17.3672L502.996 17.3999L502.588 17.3183L502.31 17.1387L502.033 16.8123L502.065 16.6981L501.951 16.4206L502.049 16.2248L501.984 15.98L502.212 15.931L502.261 16.1432L502.424 16.2085L502.735 16.1922L503.061 15.9473L503.322 15.5883L503.534 15.0824L503.665 14.2827L503.714 13.7767L503.681 13.7604L503.714 12.6017L503.616 12.0631L503.534 11.345L503.42 11.0676L503.208 10.8717L502.832 11.0513L502.669 11.0349L502.408 10.8064L502.18 10.8391L502.163 10.7412L502.996 10.3984L503.436 10.4311L503.6 10.5943L503.697 11.0839L503.746 11.6061V11.9162L503.844 13.3198L503.763 16.0779L503.714 16.4206L503.583 17.1224L503.436 17.2367L503.11 17.3672Z" fill="white"/>
<ellipse cx="498.5" cy="890.5" rx="108.5" ry="108.5" stroke="#CCCCCC" stroke-width="2"/>
<ellipse cx="498.5" cy="609.5" rx="108.5" ry="108.5" stroke="#CCCCCC" stroke-width="2"/>
<ellipse cx="510" cy="310" rx="86" ry="86" stroke="#CCCCCC" stroke-width="2"/>
<ellipse cx="510" cy="87" rx="86" ry="86" stroke="#CCCCCC" stroke-width="2"/>
<ellipse cx="450" cy="455" rx="37" ry="37" stroke="#CCCCCC" stroke-width="2"/>
</svg>
