<svg width="1000" height="1000" viewBox="0 0 1000 1000" fill="none" xmlns="http://www.w3.org/2000/svg">
<path d="M364.695 2.08594C361.863 3.84375 361.472 4.625 361.472 8.33594C361.472 12.3398 361.668 12.7305 364.89 13.8047C368.699 15.2695 368.797 15.3672 367.136 20.6406C366.355 23.4727 366.355 25.3281 367.136 28.1602C368.113 31.2852 369.09 32.2617 373.679 34.5078C376.609 35.9727 379.246 37.1445 379.441 37.1445C379.734 37.1445 380.125 35.7773 380.515 34.2148C381.004 31.7734 381.687 31.2852 383.933 31.2852C385.496 31.2852 387.254 31.0898 388.035 30.7969C388.816 30.5039 390.183 31.8711 391.55 34.2148C393.211 37.2422 393.601 38.9023 393.113 41.9297C392.527 45.8359 392.625 46.0312 400.925 55.0156L409.324 64.1953L407.371 75.3281C406.297 81.4805 405.222 87.3398 404.929 88.5117C404.636 90.0742 406.004 91.7344 411.57 96.2266C420.652 103.648 428.758 111.363 429.929 113.512C430.515 114.684 430.515 116.734 429.832 119.273C428.953 122.301 429.05 125.035 429.929 130.211C431.101 136.363 431.883 138.121 438.133 146.422C441.941 151.598 445.359 156.285 445.75 156.969C446.14 157.652 443.699 160.387 439.402 164C435.496 167.223 429.246 173.766 425.535 178.453L418.797 187.047L410.3 186.754C402.097 186.363 401.707 186.461 399.851 188.902C398.484 190.562 396.824 191.441 395.164 191.441C392.82 191.441 389.89 193.59 389.793 195.348C389.793 195.641 391.355 196.715 393.211 197.691L396.629 199.547L396.14 205.504L395.554 211.461L401.804 221.129L408.054 230.699L400.34 244.957C396.14 252.77 392.722 260.191 392.722 261.461C392.722 264 391.55 264.391 389.793 262.34C388.914 261.266 388.133 261.168 386.472 261.852C384.422 262.828 384.324 263.219 385.203 267.711C386.082 272.008 385.886 273.18 383.933 277.379C381.297 283.043 381.883 284.508 386.961 284.02C390.379 283.727 390.769 283.922 392.234 287.145C393.504 289.977 393.601 291.734 392.918 296.422C392.136 301.305 392.234 302.965 393.894 307.359L395.945 312.535L393.406 315.758C390.965 318.98 390.965 319.078 392.527 323.473C393.992 327.672 393.992 328.16 391.843 335.582C390.574 339.781 388.523 345.152 387.254 347.398C384.226 352.77 384.226 355.797 387.449 357.945C389.597 359.312 389.89 360.094 389.402 362.828C388.816 365.562 389.5 367.418 392.918 373.668C395.261 377.77 397.605 381.285 398.093 381.48C398.679 381.578 402.879 382.262 407.664 382.848C413.035 383.629 416.16 384.508 416.16 385.191C416.16 385.875 414.89 387.633 413.328 389.098C411.668 390.66 410.3 393.004 410.105 394.371C409.91 396.227 408.933 397.105 406.492 397.984C404.05 398.766 402.781 399.938 402.097 402.184C400.34 407.262 398.875 408.043 392.332 407.359L386.57 406.676L380.125 411.656C373.679 416.734 373.679 416.734 371.238 414.977C369.871 414 366.453 413.121 363.426 412.926L358.054 412.535L350.926 422.496C344.773 431.188 343.894 432.945 343.894 436.656C343.894 442.906 344.773 445.152 347.312 445.738C351.023 446.715 351.414 453.551 348.386 466.93C346.043 477.379 345.945 478.453 347.312 483.336L348.679 488.707L345.164 493.395C343.015 496.422 340.769 501.5 338.914 507.457C335.593 518.492 335.886 518.004 332.273 519.469C330.418 520.25 328.953 522.008 327.976 524.449C326.707 527.672 325.535 528.746 320.75 530.895C317.625 532.262 313.816 533.727 312.156 534.117C309.519 534.703 309.226 535.094 309.519 538.219C310.008 542.125 310.593 542.613 316.258 543.492C319.773 543.98 320.847 544.762 323.289 548.277L326.121 552.379L321.824 555.016C318.015 557.262 317.625 557.945 318.504 559.508C319.09 560.68 321.726 562.047 325.242 563.023L330.906 564.684L334.617 572.203C336.765 576.793 339.402 580.504 341.062 581.676C343.113 583.043 343.992 584.605 344.48 587.73C345.457 593.98 350.047 595.738 353.953 591.344C355.418 589.684 357.761 588.609 360.984 588.023C363.621 587.535 365.867 587.145 365.965 587.242C365.965 587.34 367.332 589.195 369.09 591.441C371.043 594.078 373.386 595.738 375.925 596.52C380.808 597.984 382.468 601.402 381.59 608.141C380.808 613.609 382.957 617.906 387.742 620.738C390.086 622.105 391.453 624.449 394.578 632.359C398.191 641.734 398.777 642.613 407.175 650.914C415.183 658.922 415.965 660.094 416.648 664.391C417.136 668.492 417.722 669.273 420.554 670.641C423.582 672.105 424.07 672.105 426.316 670.543C428.562 669.176 428.855 668.199 428.855 663.707C428.855 659.312 429.148 658.434 430.808 657.945C432.273 657.555 433.64 658.531 436.082 661.363L439.402 665.27L441.062 662.73C442.039 661.363 445.066 658.922 447.898 657.262L453.074 654.332L462.058 655.602C470.945 656.969 471.043 656.969 472.019 654.82C472.898 652.867 473.972 652.574 481.004 651.988C485.301 651.598 492.332 650.523 496.531 649.547C503.953 647.789 504.148 647.789 505.418 649.645C506.199 650.719 510.789 655.895 515.769 661.266L524.754 670.934L524.461 678.551C524.168 686.168 525.633 693.688 527.586 694.957C528.367 695.348 528.465 698.277 528.074 703.551C527.488 710.875 527.586 711.949 530.32 718.199L533.152 725.035L530.808 728.453C528.855 731.383 528.465 733.141 528.465 739C528.465 742.809 529.148 748.961 530.027 752.672L531.59 759.312L526.121 764.391C523.093 767.223 520.652 770.152 520.652 770.934C520.652 771.715 519.09 773.57 517.332 774.938C511.179 779.625 509.91 782.945 510.593 792.418L511.179 800.621L506.59 807.945C503.074 813.609 500.144 816.734 494.676 820.934L487.449 826.5V833.629C487.449 840.562 487.449 840.758 490.183 841.344C491.941 841.734 495.066 844.469 499.265 849.449C502.781 853.551 506.004 857.555 506.394 858.141C506.785 858.922 505.906 860.875 504.051 863.121L501.121 866.832L503.66 876.793L506.297 886.754L513.035 888.902C520.652 891.344 522.898 893.883 524.07 901.305C524.851 905.797 528.465 910.094 531.687 910.191C532.566 910.191 533.347 910.875 533.347 911.754C533.347 912.633 538.133 918.004 543.992 923.668C552.488 932.164 554.636 934.801 555.222 937.73C555.711 940.562 557.175 942.516 561.765 946.52C565.183 949.449 568.797 953.648 570.066 956.285C572.019 960.191 572.996 960.973 576.023 961.559C578.172 961.949 580.222 961.754 581.394 961.07C583.347 959.801 584.422 960.191 587.84 963.219C589.5 964.781 589.988 966.246 589.988 970.055C589.988 974.059 589.5 975.23 587.156 977.477C585.593 978.941 582.566 980.895 580.32 981.871C575.73 984.02 574.558 986.461 576.609 989.684C577.488 990.953 578.269 993.395 578.465 995.25C578.758 998.18 579.148 998.57 582.664 999.254C584.812 999.742 590.476 999.938 595.359 999.84L604.148 999.547V989.977C604.148 984.605 603.855 980.113 603.465 979.82C602 978.941 602.781 973.375 605.222 967.223C607.273 962.047 607.566 960.387 606.687 957.75C606.199 956.09 605.418 952.477 605.027 949.84C604.441 945.738 603.562 944.273 599.363 940.074C596.629 937.34 593.504 933.434 592.429 931.48L590.574 927.77L593.894 924.938C595.75 923.277 598.582 921.715 600.047 921.422C603.172 920.641 604.636 917.809 604.636 912.145C604.636 909.996 605.515 906.871 606.59 905.113C607.566 903.355 608.25 901.109 607.957 899.938C607.761 898.863 608.152 894.859 608.933 891.148C610.203 885.289 610.984 883.824 614.109 881.09C621.726 874.449 624.851 872.789 628.562 873.473C630.418 873.863 632.371 874.938 632.957 876.012C634.031 878.062 638.425 878.648 641.55 877.086C642.429 876.598 647.215 875.035 652 873.57C656.883 872.105 661.863 869.957 663.23 868.688C664.597 867.516 667.527 865.367 669.773 864C675.047 860.68 675.437 859.996 673.386 856.578C671.726 853.746 671.726 852.867 673.777 836.266C674.949 826.695 677.488 809.801 679.441 798.863L683.054 778.844L681.004 770.055C679.832 765.27 678.465 758.336 677.879 754.723L676.902 748.082L683.738 733.531C687.449 725.523 690.574 718.395 690.574 717.613C690.574 715.758 683.64 713.512 680.418 714.293L677.781 714.977L679.832 711.266C680.906 709.215 682.664 706.09 683.64 704.332C685.105 701.793 685.496 699.449 685.3 693.395L685.008 685.68L666.062 660.777C650.535 640.367 646.824 634.801 645.066 629.625C643.406 624.84 639.988 619.371 630.222 606.383C612.742 582.945 573.093 533.727 571.922 533.922C570.554 534.215 568.308 544.957 568.797 549.059C569.09 551.305 568.699 553.355 567.82 554.625C567.039 555.797 566.746 557.262 567.136 557.848C567.625 558.531 568.015 559.801 568.015 560.777C568.308 563.707 572.508 566.539 575.828 565.855C587.937 563.609 592.332 564.586 593.894 570.25C594.383 572.203 594.871 574.156 594.871 574.547C594.871 575.035 595.652 576.598 596.726 577.965C598.484 580.602 599.754 585.875 600.34 593.199C600.535 595.25 601.902 599.449 603.367 602.477C605.32 606.383 606.004 609.117 605.808 611.949C605.613 614.195 605.906 616.344 606.492 616.734C607.078 617.027 607.566 618.59 607.566 620.055C607.566 621.617 608.25 623.375 609.031 624.059C609.91 624.84 610.496 626.891 610.496 629.527C610.496 632.75 610.984 634.02 612.449 634.801C613.718 635.484 614.402 636.852 614.402 638.707C614.402 640.562 615.086 641.93 616.355 642.613C619.187 644.176 618.797 647.691 615.379 650.914C612.84 653.355 612.254 653.551 611.472 652.379C610.984 651.598 610.496 650.621 610.496 650.133C610.496 649.742 609.422 648.863 608.054 648.277C606.687 647.691 605.32 646.129 605.027 644.859C604.636 643.59 602.488 641.246 600.144 639.586C597.019 637.438 595.75 635.875 595.261 633.336C594.578 629.332 589.5 622.594 587.254 622.496C586.277 622.496 584.519 621.91 583.152 621.324C581.785 620.738 580.027 620.055 579.148 619.859C577.586 619.371 575.34 610.973 575.34 605.797C575.34 604.234 574.265 602.867 572.019 601.5C570.164 600.426 568.211 598.277 567.527 596.715C566.355 593.883 564.109 592.32 562.547 593.395C562.058 593.688 562.742 595.25 564.109 596.91C566.843 600.133 566.55 602.184 563.621 600.621C561.57 599.547 559.617 601.305 561.472 602.477C563.035 603.355 567.527 610.289 567.527 611.656C567.527 612.34 566.355 613.512 564.89 614.293C562.547 615.66 562.058 616.734 561.179 622.984L560.203 630.113L554.832 631.871C551.902 632.945 548.484 633.727 547.215 633.824C545.359 633.824 545.164 633.531 546.043 631.969C547.605 628.941 547.312 628.258 542.136 625.133C539.207 623.375 536.765 620.934 536.179 619.371C535.593 617.906 533.933 615.367 532.371 613.805C529.929 611.266 529.441 609.605 528.367 601.207L527.195 591.441L530.125 589C533.347 586.168 536.277 580.895 536.277 577.77C536.277 576.598 536.961 574.645 537.84 573.473C538.621 572.301 539.207 570.348 539.109 569.078C538.914 567.906 539.597 565.66 540.672 564.098C542.527 561.266 542.527 561.266 540.379 559.801C539.207 559.02 538.23 557.555 538.23 556.578C538.23 555.504 537.644 554.723 536.961 554.723C535.008 554.723 532.664 551.695 531.883 548.18C531.297 545.055 529.441 542.711 529.441 545.055C529.441 545.836 528.855 545.641 527.683 544.664C526.121 543.297 525.437 543.199 522.703 544.273C519.871 545.25 519.383 545.25 518.504 543.688C518.015 542.711 516.258 540.465 514.695 538.707C513.133 536.852 511.57 533.922 511.277 532.164C510.886 530.309 509.617 527.77 508.445 526.402C505.32 522.984 502.683 515.367 503.562 512.535C504.051 511.363 505.32 508.922 506.59 507.262C509.422 503.648 509.617 498.766 507.273 492.223C505.711 487.926 505.711 487.242 507.468 480.113C508.933 473.668 509.031 472.008 507.957 468.883C507.078 466.148 507.078 464.684 507.859 463.121C509.324 460.484 509.226 459.996 507.468 459.996C506.59 459.996 506.004 459.117 506.004 457.652C506.004 456.383 505.125 454.234 504.051 452.867C502 450.23 501.316 442.027 503.074 440.953C504.832 439.879 504.148 437.926 501.609 436.754C500.34 436.168 497.996 433.922 496.433 431.773C492.82 426.793 491.453 416.344 493.894 412.535C494.968 410.973 495.261 409.02 494.871 406.578C494.578 404.527 493.992 401.012 493.699 398.668C493.015 394.469 490.183 391.344 487.254 391.734C484.422 392.027 482.468 391.539 483.054 390.66C483.445 390.074 482.371 388.414 480.906 386.852C479.343 385.289 477.488 382.262 476.902 380.113C476.218 377.867 475.34 375.914 474.851 375.621C473.484 374.742 475.633 364.391 478.562 358.043C480.613 353.648 481.199 351.012 480.906 348.082C480.515 344.762 480.906 343.688 483.347 341.051C485.008 339.293 486.765 337.926 487.351 337.926C487.84 337.926 489.109 337.047 490.086 336.07C491.062 335.094 492.722 334.02 493.797 333.824C495.457 333.531 495.75 332.75 495.457 329.43C495.359 327.184 495.652 325.133 496.238 324.742C496.726 324.449 497.215 323.082 497.215 321.812C497.215 320.152 497.801 319.371 499.363 319.176C500.535 318.98 502.879 317.027 504.539 314.781C506.101 312.535 508.836 310.191 510.496 309.605C514.988 308.043 516.16 305.113 515.476 296.617C515.086 291.246 514.304 288.121 512.156 284.41C509.812 280.211 509.617 279.137 510.691 277.672C512.84 274.449 513.133 273.277 512.058 271.422C511.375 270.445 510.886 267.711 510.886 265.562C510.886 262.828 510.008 259.898 508.25 256.969C506.004 253.16 505.808 252.184 506.687 248.863C507.468 246.031 507.371 244.762 506.394 243.492C504.636 241.148 504.734 236.559 506.492 234.703C507.664 233.629 507.957 231.383 507.859 226.305C507.761 222.398 507.761 211.07 507.761 201.012C507.859 190.465 507.468 181.578 506.883 180.113C506.199 178.16 506.297 176.109 507.078 172.691C508.152 168.688 508.152 167.809 506.687 166.246C504.246 163.609 504.636 161.656 508.054 158.824C510.593 156.676 510.984 155.895 510.398 153.258C509.617 149.742 511.375 145.543 513.621 145.543C514.402 145.543 515.672 146.324 516.453 147.203C517.722 148.863 517.82 148.766 517.234 146.52C516.843 145.152 516.258 142.125 516.062 139.781C515.672 136.363 514.5 134.117 510.789 129.723C508.152 126.5 506.004 123.375 506.004 122.594C506.004 121.812 504.246 120.055 502.097 118.688C500.047 117.418 497.801 115.27 497.117 114.098C496.433 112.828 494.48 110.387 492.722 108.727C487.937 103.941 486.472 101.5 486.472 97.9844C486.472 93.9805 482.761 86.6562 479.343 84.0195C476.902 82.0664 476.707 81.4805 477.293 77.2812C477.683 73.8633 477.488 71.7148 476.316 69.4688C475.34 67.7109 474.949 65.5625 475.242 64.5859C475.535 63.6094 475.34 60.6797 474.754 58.1406C473.777 53.7461 473.875 53.2578 476.218 50.8164L478.855 48.082L474.558 45.1523C472.312 43.4922 468.797 40.5625 466.941 38.6094C465.086 36.5586 462.254 34.2148 460.789 33.2383C458.152 31.5781 457.566 31.5781 452.683 32.9453C447.703 34.4102 447.215 34.4102 442.429 32.457C437.84 30.5039 437.254 30.5039 434.031 31.7734C427.586 34.5078 419.773 33.1406 418.211 29.1367C417.722 27.8672 414.695 24.0586 411.472 20.543C406.687 15.3672 405.418 14.3906 404.246 15.3672C403.269 16.2461 399.851 16.4414 393.211 16.1484L383.543 15.7578L375.73 7.94531L367.82 0.132812L364.695 2.08594Z" fill="white"/>
<circle id="408" cx="439" cy="599" fill="#5CE50D"/>
<circle cx="619" cy="644" fill="#E52A0D"/>
<circle id="410" cx="470" cy="274" fill="#E52A0D"/>
<circle id="409" cx="589" cy="836" fill="#E52A0D"/>
</svg>
