<svg width="1000" height="1000" viewBox="0 0 1000 1000" fill="none" xmlns="http://www.w3.org/2000/svg">
<path d="M0 152.863C0 155.402 6.93359 172.98 9.08203 175.714C11.6211 178.937 11.6211 181.476 9.08203 181.476C8.00781 181.476 7.8125 182.062 8.30078 183.624C8.69141 184.894 9.17969 187.628 9.47266 189.777C9.76562 191.925 10.5469 194.366 11.2305 195.148C13.5742 197.784 16.6016 205.988 16.6016 209.698C16.6016 212.335 17.5781 214.581 20.6055 218.585C23.4375 222.394 24.4141 224.445 23.9258 225.812C23.5352 226.984 23.0469 230.011 22.7539 232.648C22.2656 237.042 22.2656 237.335 24.2188 236.749C27.2461 235.773 28.125 238.409 28.7109 249.64C29.2969 260.87 30.7617 264.679 35.2539 267.023C36.9141 267.804 40.1367 270.245 42.3828 272.296C44.5312 274.249 47.3633 276.202 48.5352 276.593C50.5859 277.277 51.3672 278.253 58.0078 288.702C59.8633 291.534 62.5 294.952 63.8672 296.222C65.2344 297.491 66.4062 299.249 66.4062 300.03C66.4062 300.812 68.457 303.937 70.8984 306.964C75.0977 312.042 75.3906 312.726 74.8047 316.534C74.4141 318.78 74.1211 323.175 74.1211 326.202C74.1211 329.327 73.6328 331.866 73.1445 331.866C72.6562 331.866 72.2656 331.183 72.2656 330.402C72.2656 329.62 71.582 328.937 70.8008 328.937C70.0195 328.937 69.3359 329.718 69.3359 330.792C69.3359 331.769 68.6523 333.136 67.8711 333.82C66.1133 335.284 67.5781 338.702 69.9219 338.702C70.7031 338.702 71.6797 339.679 72.168 340.851C73.2422 343.78 72.5586 344.366 70.8008 342.023C69.3359 340.167 69.3359 340.167 69.9219 342.12C70.3125 343.195 71.2891 344.855 72.0703 345.831C72.8516 346.71 73.2422 347.784 72.9492 348.175C71.9727 349.152 68.3594 345.441 68.3594 343.488C68.3594 342.511 67.4805 341.437 66.4062 341.144C65.332 340.851 64.4531 339.679 64.4531 338.605C64.4531 336.456 62.6953 336.261 59.1797 337.823C57.3242 338.702 56.3477 338.702 55.2734 337.823C53.8086 336.554 41.9922 333.527 41.3086 334.113C40.5273 334.991 44.1406 341.73 45.7031 342.316C46.582 342.706 48.5352 344.073 49.9023 345.441C51.2695 346.808 53.5156 348.761 54.9805 349.64C56.8359 350.909 57.6172 352.472 58.1055 356.085C58.5938 359.991 59.2773 361.163 61.3281 362.238C62.793 362.921 64.8438 363.507 65.918 363.605C66.9922 363.605 68.2617 364.581 68.8477 365.753C69.3359 366.925 71.7773 368.78 74.3164 369.757C78.0273 371.32 79.3945 372.687 81.9336 377.179L85.1562 382.648L87.8906 380.695C89.9414 379.23 91.2109 378.937 92.4805 379.523C93.457 380.011 95.6055 380.988 97.168 381.769C99.2188 382.843 100.391 384.21 100.977 386.847C101.465 388.8 102.344 390.46 102.93 390.46C104.102 390.558 109.375 394.855 109.375 395.734C109.375 397.101 116.992 403.155 119.336 403.644C124.121 404.718 130.371 419.464 130.176 429.523C130.176 435.382 129.297 442.804 128.516 443.976C128.223 444.464 127.344 447.491 126.465 450.616C125.195 455.597 125.195 456.476 126.465 458.429C127.344 459.796 129.395 460.968 131.348 461.359C134.082 461.847 135.156 462.628 136.23 465.265C137.109 467.316 138.477 468.78 140.039 469.171C141.406 469.464 142.578 470.343 142.578 471.124C142.578 471.808 143.945 473.37 145.508 474.64C147.168 475.812 148.438 477.277 148.438 477.863C148.438 478.937 153.613 483.234 154.785 483.234C156.348 483.234 166.309 493.195 168.945 497.296C170.605 499.835 172.559 502.081 173.34 502.374C174.219 502.765 175.488 504.132 176.172 505.499C176.953 506.964 179.199 508.624 181.738 509.601C186.328 511.456 186.719 512.14 189.941 525.714C191.211 531.085 192.285 533.136 194.629 535.089C197.559 537.628 197.754 537.628 200.879 536.066C202.539 535.187 204.395 533.527 204.98 532.257C205.566 531.085 206.934 530.109 208.008 530.109C210.742 530.109 213.867 528.351 213.867 526.886C213.867 526.202 214.648 524.054 215.723 522.101L217.48 518.488L214.746 514.288C213.184 512.042 211.133 509.796 209.961 509.405C208.594 508.917 208.008 507.843 208.008 505.89C208.008 504.425 206.934 501.691 205.566 499.835C204.102 497.882 203.125 495.245 203.125 493.292C203.125 490.851 202.734 490.07 201.367 490.07C200.488 490.07 198.145 488.116 196.289 485.675C192.871 481.28 189.551 479.523 187.5 480.792C186.816 481.183 186.523 482.355 186.816 483.331C187.109 484.308 186.719 485.87 185.938 486.847C185.059 488.019 184.668 488.214 184.57 487.238C184.57 486.359 183.789 486.163 182.129 486.554C179.492 487.238 178.613 486.066 175.586 478.351C173.438 472.98 173.34 469.171 175.293 467.609C176.074 466.925 176.758 465.363 176.758 463.995C176.758 461.652 172.656 452.667 170.312 450.03C169.629 449.152 168.75 445.831 168.359 442.706C167.773 437.921 167.09 436.359 164.258 433.429C159.375 428.448 157.91 424.933 157.715 417.804C157.422 411.163 155.664 400.421 154.199 396.515C153.711 395.245 153.32 393.488 153.32 392.511C153.32 391.534 152.148 389.777 150.781 388.409C149.316 387.14 147.559 384.503 146.777 382.648C145.508 379.718 145.215 379.523 144.336 381.085C143.652 382.257 143.652 383.527 144.336 384.991C147.363 391.534 147.559 392.609 145.801 392.218C144.727 392.023 143.652 390.167 142.773 387.042C141.992 384.308 140.332 380.89 138.965 379.327C136.816 376.691 136.719 376.398 138.184 374.249C139.648 372.003 139.551 371.905 137.695 371.905C135.254 371.905 132.52 367.609 129.785 359.503C128.418 355.304 126.855 352.57 124.707 350.909C115.625 343.585 115.723 343.683 115.723 335.382C115.723 331.183 115.332 327.57 114.941 327.277C114.453 326.984 114.355 325.714 114.746 324.347C115.625 320.636 114.551 318.488 111.426 317.902C109.57 317.511 108.301 316.534 107.91 315.07C106.348 309.991 102.93 303.546 101.758 303.546C101.074 303.546 100 302.472 99.4141 301.105C98.6328 299.347 97.7539 298.761 96.582 299.152C94.7266 299.738 94.8242 300.03 93.2617 289.581C92.9688 287.726 91.2109 284.601 89.3555 282.452C87.4023 280.402 85.6445 277.667 85.3516 276.398C84.9609 275.226 83.4961 273.566 81.9336 272.784C80.4688 272.003 78.0273 269.366 76.6602 267.023C75.0977 264.288 73.2422 262.53 71.9727 262.335C70.4102 262.14 69.7266 261.261 69.5312 259.405C69.3359 257.941 68.3594 256.085 67.3828 255.402C64.4531 253.351 63.0859 246.222 64.7461 241.534C66.2109 237.433 65.918 222.003 64.4531 220.05C63.9648 219.464 63.3789 215.363 62.9883 210.773C62.6953 206.183 62.207 201.007 61.9141 199.249C61.5234 197.003 61.8164 196.124 62.793 196.124C66.3086 196.124 64.8438 189.386 59.9609 182.941C55.8594 177.57 57.4219 177.081 62.9883 182.062C65.918 184.698 70.8984 189.093 74.0234 191.827C83.4961 200.323 90.332 202.472 92.5781 197.589C93.9453 194.562 94.7266 194.562 98.0469 197.394C99.6094 198.761 100.879 201.105 101.27 203.351C101.562 205.402 102.344 207.159 102.93 207.355C113.184 210.382 116.309 213.409 115.527 219.562C114.648 226.3 116.797 238.019 119.727 242.316C122.07 245.831 122.461 247.687 123.047 256.183C123.633 264.777 124.121 267.023 127.734 275.128C129.98 280.206 131.836 284.796 131.836 285.284C131.836 285.773 133.203 287.726 134.766 289.581C136.426 291.437 138.281 294.952 138.965 297.394C140.039 301.495 142.09 304.034 147.07 307.159C148.828 308.234 148.828 308.331 146.777 308.331C143.848 308.429 143.945 310.089 146.875 312.433C148.145 313.409 149.707 315.46 150.293 317.023C151.562 319.952 155.859 323.077 158.887 323.077C160.352 323.077 161.133 324.445 162.5 328.937C163.477 332.062 164.844 335.187 165.527 335.773C166.211 336.359 166.992 338.116 167.285 339.679C167.773 341.827 168.652 342.706 170.605 343.195C172.07 343.585 174.219 344.659 175.391 345.734C177.148 347.296 177.637 347.394 178.613 346.124C180.273 344.171 185.938 346.222 184.961 348.468C183.203 352.179 183.398 357.355 185.449 360.675C187.012 363.409 187.109 364.093 186.035 364.093C183.789 364.093 184.277 366.827 186.816 368.097C187.988 368.78 191.016 370.929 193.457 372.98C196.68 375.714 198.926 376.788 201.172 376.788C203.125 376.788 204.883 377.472 205.664 378.448C207.422 380.792 207.324 381.671 205.566 381.671C203.223 381.671 203.809 383.527 207.812 388.702L211.426 393.488L216.797 393.195L222.168 392.999L225.586 399.542C227.441 403.155 229.785 406.378 230.762 406.671C233.105 407.452 232.91 410.87 230.469 410.675C229.395 410.577 228.32 409.991 228.125 409.308C227.148 406.769 225.684 408.136 223.73 413.409C222.559 416.437 221.68 421.222 221.68 424.054C221.68 429.718 222.07 430.206 230.762 438.019C234.277 441.241 238.281 442.316 238.281 440.07C238.281 439.484 239.258 439.874 240.43 440.948C243.945 444.171 255.664 451.886 256.152 451.398C256.445 451.105 257.422 452.277 258.496 453.937C259.473 455.695 261.816 457.843 263.867 458.917C270.02 462.042 272.07 469.659 266.309 468.195C262.402 467.218 262.5 468.78 266.504 473.468C269.629 477.081 270.508 477.667 271.68 476.593C272.852 475.616 273.438 475.616 274.316 476.788C274.902 477.472 276.758 478.351 278.32 478.741C279.98 479.034 281.25 479.718 281.25 480.304C281.25 481.573 279.688 481.573 277.246 480.206C276.172 479.62 274.805 479.327 274.219 479.523C272.559 480.109 283.203 488.116 285.547 488.116C288.477 488.116 294.824 495.05 299.121 502.863C301.074 506.476 303.418 509.601 304.199 509.991C304.98 510.284 305.664 511.163 305.664 512.042C305.664 512.823 307.812 516.339 310.449 519.659C313.086 523.077 315.625 526.984 315.918 528.448C316.406 530.206 317.285 531.085 318.555 531.085C321.484 531.085 326.66 535.577 328.613 539.874C330.078 543.097 330.957 543.878 333.887 544.366C339.453 545.245 339.648 545.441 340.82 549.64C341.602 552.667 341.602 554.034 340.82 555.011C340.039 555.988 340.039 557.843 340.723 561.945C341.309 565.07 341.797 568.878 341.797 570.538C341.797 572.198 343.164 576.202 344.727 579.425C346.289 582.648 347.656 585.87 347.656 586.554C347.656 588.507 351.465 593.585 352.93 593.585C355.176 593.585 357.227 596.808 356.445 598.956C355.957 600.03 355.566 602.57 355.566 604.62C355.469 609.113 354.492 611.163 349.512 617.12C345.605 621.808 345.02 622.882 346.582 622.882C347.949 622.882 355.469 628.058 355.469 628.937C355.469 630.109 349.219 632.648 346.484 632.648C345.215 632.648 342.676 634.015 340.82 635.675L337.5 638.8L340.625 641.437C342.383 642.804 343.75 644.757 343.75 645.636C343.75 646.515 345.312 649.738 347.168 652.863C349.023 655.988 350.586 659.21 350.586 660.089C350.586 660.968 351.562 661.945 352.832 662.335C354.004 662.628 355.469 663.898 356.055 665.07C360.84 674.542 362.695 677.277 365.234 678.644C366.797 679.523 368.75 680.792 369.531 681.378C371.582 683.136 382.91 687.335 383.887 686.749C384.375 686.456 384.766 687.335 384.766 688.702C384.766 691.632 386.035 692.413 394.531 694.659C401.66 696.613 405.664 699.738 407.227 704.523C407.812 706.281 409.082 708.038 409.961 708.331C410.84 708.624 412.695 710.48 414.062 712.433C415.332 714.484 417.09 716.827 417.969 717.609C419.629 719.269 429.199 722.491 432.422 722.491C433.594 722.491 435.449 723.566 436.719 724.835C438.477 726.593 440.332 727.277 444.922 727.667C448.145 727.863 453.027 729.132 455.859 730.304C460.254 732.159 461.328 732.355 463.77 731.281C466.211 730.304 467.09 730.402 468.945 731.671C470.117 732.55 471.875 733.234 472.754 733.234C473.73 733.234 476.27 735.382 478.516 738.019C480.664 740.753 483.398 743.195 484.375 743.488C485.352 743.781 486.523 744.855 486.816 745.929C487.109 746.906 489.746 748.859 492.773 750.323C495.703 751.788 498.828 754.034 499.707 755.304C500.488 756.573 501.855 757.648 502.637 757.648C503.418 757.648 505.273 758.234 506.641 758.917C513.477 762.433 516.602 763.605 522.949 765.363C526.758 766.339 532.227 768.097 535.156 769.366C538.086 770.538 541.504 771.71 542.773 772.003C543.945 772.296 545.41 773.37 545.996 774.347C547.461 777.179 550.879 778.546 555.859 778.253C558.398 778.156 562.695 778.741 565.332 779.523C567.969 780.304 570.312 780.792 570.508 780.499C570.801 780.304 572.656 780.988 574.707 782.062C576.855 783.136 579.688 784.015 581.055 784.015C582.715 784.015 584.863 785.382 587.598 788.312C590.625 791.534 593.164 793.097 597.363 794.366C600.488 795.343 603.809 796.027 604.785 795.929C605.859 795.831 607.91 796.613 609.375 797.687C616.309 802.57 624.023 805.597 630.664 805.89C634.277 805.988 638.184 806.671 639.355 807.257C640.527 807.941 642.578 808.429 643.848 808.429C645.215 808.429 648.633 809.601 651.465 811.066C655.957 813.409 657.715 813.8 664.844 813.702C671.875 813.605 673.73 813.214 678.906 810.48C682.129 808.82 685.547 807.452 686.426 807.452C690.332 807.355 705.176 801.398 707.031 799.152C709.18 796.515 713.965 794.464 719.531 793.683C722.461 793.292 725 792.706 725.293 792.413C726.27 791.437 724.414 789.874 722.168 789.874C718.652 789.874 718.457 788.312 721.777 786.945C724.121 785.968 725.195 785.968 727.051 786.945C728.223 787.628 729.785 787.823 730.371 787.531C731.738 786.652 735.352 787.726 735.352 788.995C735.352 789.484 734.277 789.679 733.008 789.288C731.25 788.898 730.371 789.191 729.492 790.753C728.516 792.706 728.711 792.804 732.422 792.804C734.668 792.804 740.332 794.366 745.215 796.222C755.371 800.128 754.883 800.031 754.883 798.37C754.883 797.784 751.562 795.929 747.559 794.464C743.066 792.804 740.234 791.144 740.234 790.265C740.234 788.409 739.941 788.409 748.145 792.316C752.148 794.171 756.348 795.734 757.52 795.734C759.375 795.734 759.668 796.124 759.277 797.882C758.887 799.835 759.668 800.519 764.16 802.765C767.676 804.425 769.531 805.011 769.531 804.132C769.531 803.546 769.043 802.472 768.359 801.788C767.676 801.105 767.578 800.616 768.066 800.616C768.848 800.616 777.441 808.527 791.602 822.198C793.75 824.347 797.07 826.495 799.023 826.984C801.27 827.667 803.32 829.23 804.98 831.671C807.422 835.089 819.727 847.491 820.801 847.491C822.07 847.491 824.219 841.144 824.219 837.238C824.219 834.698 825 831.378 825.879 829.816C827.539 826.984 827.539 826.886 825 824.347L822.461 821.808L830.273 805.988L838.184 790.265L860.742 789.093C873.145 788.409 883.594 787.531 883.887 787.14C884.277 786.749 884.766 784.015 884.961 781.183L885.254 775.812L881.836 775.128C878.027 774.347 875 771.124 875 767.902C875 766.339 873.535 764.777 869.238 762.14C866.113 760.187 863.086 758.624 862.598 758.624C862.012 758.624 859.766 756.476 857.52 753.741C854.59 750.323 852.539 748.761 850.098 748.273C844.141 747.198 846.387 745.929 854.492 745.929H862.305V724.542L865.527 723.956C870.312 723.175 906.836 720.538 914.062 720.538C924.414 720.538 927.734 719.659 927.734 717.12C927.734 714.288 930.273 713.312 932.91 715.167C934.082 715.948 935.547 716.632 936.133 716.632C936.719 716.632 939.648 711.359 942.676 704.913C946.094 697.784 948.73 693.195 949.609 693.195C952.539 693.195 955.957 690.948 956.445 688.702C956.836 687.433 957.91 685.968 958.984 685.382C960.254 684.698 960.938 683.331 960.938 681.378C960.938 679.425 961.328 678.546 962.207 678.839C962.988 679.034 963.379 681.378 963.379 685.48C963.379 691.339 963.477 691.73 966.113 692.609C968.066 693.292 968.75 694.171 968.75 696.124C968.75 697.589 969.531 699.542 970.605 700.421C972.363 701.984 972.461 701.984 973.535 698.956C974.121 697.296 975.293 692.023 976.074 687.335C976.855 682.648 978.223 676.691 979.004 674.054C979.785 671.417 980.469 668.39 980.469 667.218C980.469 666.144 981.348 664.386 982.422 663.409C983.496 662.433 984.375 661.261 984.375 660.773C984.375 659.503 981.055 659.894 978.809 661.456C977.246 662.53 976.66 662.628 976.27 661.652C975.684 659.991 977.344 657.062 978.809 657.062C979.59 657.062 981.348 655.792 982.812 654.23C984.961 651.984 985.352 650.909 984.766 648.761C984.082 646.222 983.984 646.124 982.812 647.784C982.031 648.859 981.445 649.054 981.445 648.468C981.445 647.589 980.566 647.687 978.418 648.859L975.293 650.421L975.977 647.589C976.367 646.124 977.734 643.292 979.102 641.339C980.762 638.898 981.445 636.554 981.445 633.331C981.445 630.695 982.422 626.202 983.789 622.882C985.059 619.659 985.938 616.241 985.645 615.07C985.254 613.702 985.645 613.116 986.621 613.116C988.867 613.116 994.141 608.331 994.141 606.183C994.141 605.206 995.508 602.277 997.07 599.738C999.414 596.124 1000 594.073 1000 589.972C1000 586.749 999.414 584.113 998.535 583.038C997.656 582.159 995.996 580.206 994.824 578.741C992.676 576.007 988.574 574.64 988.281 576.495C987.793 579.425 986.035 579.913 977.637 579.23C973.047 578.937 967.578 578.058 965.43 577.277C961.035 575.812 951.562 575.519 950.684 576.984C950.391 577.472 948.535 577.96 946.582 577.96C942.188 577.96 931.641 581.964 931.641 583.527C931.641 584.21 930.859 584.796 929.98 584.796C929.004 584.796 926.855 585.577 925.293 586.652C923.438 587.726 919.336 588.702 914.16 589.093C903.809 590.07 897.168 591.827 887.891 596.027C874.219 602.374 873.73 603.448 873.047 625.812C872.559 641.925 872.461 643.097 870.117 646.808C868.262 649.835 867.578 652.472 867.09 658.82L866.602 666.925L860.742 672.784C857.617 676.007 852.246 680.402 848.926 682.648C844.922 685.187 842.773 687.238 842.773 688.507C842.773 690.07 843.262 690.265 846.191 689.679C849.121 689.191 849.609 689.288 849.609 691.046C849.609 692.12 850.293 693.488 851.074 694.171C853.418 696.124 852.832 696.71 849.121 696.32C846.387 696.027 845.215 696.417 842.773 698.956C840.625 701.105 838.77 701.984 836.523 701.984C834.863 701.984 832.91 702.472 832.227 703.156C831.348 704.034 831.055 703.937 831.055 702.667C831.055 701.691 829.688 700.421 827.93 699.64C824.902 698.273 824.805 698.273 827.148 698.077C829.395 697.98 829.492 697.882 827.832 696.71C825.391 694.757 807.129 693.585 805.176 695.148C804.395 695.831 804.004 696.71 804.297 697.198C804.59 697.687 803.516 698.077 801.953 698.077C800 698.077 797.559 699.249 795.02 701.398C790.82 704.913 785.645 706.378 779.199 705.792C777.344 705.597 774.609 705.89 772.949 706.281C771.387 706.671 768.359 707.452 766.406 707.941C763.77 708.624 762.695 709.406 762.695 710.773C762.695 712.433 759.277 714.484 758.203 713.409C757.91 713.116 754.199 713.995 749.902 715.265C740.137 718.292 731.152 718.292 730.566 715.167C730.371 714.093 729.395 712.628 728.418 711.945C727.344 711.261 726.562 709.991 726.562 709.21C726.562 707.062 722.852 703.937 720.312 703.937C718.848 703.937 717.188 702.863 716.016 701.3C714.16 698.761 713.574 698.566 706.348 698.468C702.148 698.468 697.754 697.882 696.484 697.198C692.773 695.245 691.895 696.515 694.922 699.445C697.754 702.179 697.754 702.179 695.312 701.495C693.945 701.105 691.211 700.616 689.258 700.323C687.207 700.031 685.547 699.249 685.547 698.566C685.547 697.98 684.57 696.906 683.398 696.32C681.543 695.441 681.445 695.245 682.91 695.245C683.887 695.148 685.547 695.636 686.719 696.222C690.918 698.468 689.551 695.734 683.789 690.265C680.469 687.14 677.734 684.015 677.734 683.331C677.734 682.648 676.172 680.402 674.219 678.448C671.484 675.616 670.117 672.98 668.359 666.632C666.504 660.284 665.332 657.941 662.793 655.597C660.938 653.937 659.18 651.398 658.789 649.835C658.398 648.37 657.324 646.905 656.348 646.613C655.176 646.32 654.688 645.538 654.98 644.366C655.469 642.413 649.902 637.53 647.168 637.53C646.191 637.53 645.508 636.945 645.508 636.261C645.508 635.577 644.238 633.722 642.676 632.257C641.113 630.695 638.867 627.374 637.695 624.738C636.621 622.101 635.059 619.952 634.277 619.952C633.496 619.952 633.105 619.366 633.398 618.585C633.691 617.804 633.301 615.851 632.422 614.386C631.641 612.921 630.273 609.308 629.297 606.378C628.418 603.448 626.66 599.542 625.391 597.687C624.121 595.831 622.559 592.511 621.973 590.265C621.387 588.019 620.508 585.48 620.02 584.601C619.531 583.624 619.141 581.671 619.141 580.206C619.043 576.691 615.625 572.003 614.453 573.859C613.77 574.933 613.281 574.835 611.914 573.566C609.766 571.417 609.961 570.929 612.598 571.32C614.648 571.613 614.746 571.32 614.746 563.8C614.746 559.503 615.137 555.402 615.625 554.62C616.211 553.741 616.016 552.863 614.941 552.081C613.77 551.202 613.574 550.323 614.258 548.077C614.648 546.515 615.137 546.027 615.137 546.905C615.234 549.152 617.188 550.226 618.262 548.566C619.336 546.808 619.434 542.12 618.262 541.437C617.871 541.144 617.188 538.898 616.895 536.456C616.504 532.452 616.797 529.816 618.652 521.613C619.043 519.855 618.75 519.366 617.09 519.366C615.332 519.366 615.137 518.976 615.723 517.12C616.113 515.948 616.211 514.093 616.113 513.019C615.918 511.945 615.82 506.085 615.918 500.03C615.918 494.073 615.723 489.093 615.332 489.093C614.941 489.093 614.16 489.581 613.477 490.265C612.598 491.144 612.305 490.46 612.305 487.14C612.305 483.82 612.598 483.136 613.477 484.015C615.723 486.261 616.309 485.187 616.113 479.327C616.016 476.105 616.406 472.98 616.992 472.198C617.871 471.222 617.773 470.441 616.797 468.976C615.918 467.902 615.625 466.046 615.918 464.484C616.211 462.921 615.918 461.066 615.137 460.187C614.062 458.917 614.16 458.527 615.625 457.648C616.992 456.866 617.09 456.378 616.113 455.304C614.551 453.351 615.625 452.57 617.969 454.034C620.703 455.792 623.438 454.523 622.07 452.081C621.582 451.007 621.094 449.933 621.094 449.64C621.094 448.761 623.34 448.956 625 450.03C626.172 450.812 626.074 451.398 624.316 454.62C623.145 456.671 621.973 459.991 621.582 461.945C620.996 464.972 621.191 465.655 622.461 465.655C623.34 465.655 624.219 464.484 624.609 462.921C624.902 461.456 626.172 458.038 627.441 455.402C628.613 452.667 630.762 447.296 632.227 443.488C634.57 437.238 634.766 435.968 633.789 432.941C632.617 429.23 629.688 428.253 628.125 431.085C627.344 432.452 626.562 432.257 621.484 429.718C617.188 427.57 613.477 426.593 606.836 425.909C599.609 425.128 596.387 424.152 589.648 420.929C585.059 418.683 579.297 416.437 576.855 415.753C574.414 415.167 571.777 413.995 570.996 413.019C568.848 410.577 558.594 389.972 558.594 388.116C558.594 387.238 557.91 384.991 557.129 383.038C556.152 380.597 555.957 378.937 556.738 377.081C557.52 375.03 557.227 374.054 555.176 371.32C553.809 369.464 552.051 367.999 551.367 367.999C549.805 367.999 541.992 359.698 541.992 358.136C541.992 357.452 539.648 354.425 536.914 351.398C529.59 343.39 529.59 343.39 527.832 337.238C526.953 334.21 525.586 331.476 524.805 331.183C524.023 330.89 521.289 326.398 518.652 321.222C516.113 316.046 512.891 310.675 511.621 309.308C510.352 307.941 508.496 305.402 507.617 303.644C506.641 301.886 504.492 299.933 502.539 299.152C500.684 298.37 498.926 296.808 498.535 295.734C498.242 294.659 497.168 293.78 496.289 293.78C495.312 293.78 494.043 292.902 493.457 291.925C492.09 289.679 484.668 287.921 476.66 287.921C473.438 287.921 469.727 287.238 468.164 286.456C464.355 284.503 462.207 284.601 460.938 286.847C460.352 287.921 458.496 288.995 456.25 289.386C451.367 290.167 447.754 294.757 445.996 302.277C445.312 305.499 443.848 309.015 442.773 310.089C441.797 311.163 439.941 313.214 438.672 314.679C437.012 316.632 435.84 317.218 434.277 316.827C433.105 316.534 431.348 316.241 430.469 316.241C429.492 316.241 427.539 314.874 426.074 313.312C424.707 311.652 422.559 310.382 421.484 310.382C420.312 310.382 417.871 309.308 415.918 308.038C414.062 306.769 410.742 305.011 408.691 304.132C406.641 303.253 403.125 300.812 400.781 298.663C398.438 296.515 396.094 294.757 395.605 294.757C395.117 294.757 393.066 292.023 390.918 288.605C387.988 284.015 386.816 280.695 385.84 275.226C385.254 271.222 383.984 266.632 383.203 265.07C382.52 263.507 381.836 261.652 381.836 260.87C381.836 257.648 378.516 253.644 373.34 250.421C368.359 247.394 360.352 239.191 360.352 237.14C360.352 236.652 359.18 235.968 357.715 235.382C356.152 234.894 352.148 231.769 348.633 228.448C345.215 225.226 342.09 222.491 341.797 222.491C341.504 222.491 339.941 220.343 338.379 217.609C336.816 214.972 334.668 212.433 333.496 212.14C332.422 211.749 330.859 210.968 330.078 210.187C329.004 209.308 322.656 208.624 308.594 207.941C297.559 207.355 285.645 206.671 282.031 206.378L275.391 205.89V214.679C275.391 219.464 275 223.468 274.609 223.468C273.828 223.468 224.414 219.073 193.848 216.339L180.176 215.07L145.02 197.003C125.684 187.14 100.977 174.835 90.1367 169.855C79.1992 164.777 70.3125 160.187 70.3125 159.698C70.3125 159.113 71.2891 157.648 72.4609 156.378C73.6328 155.109 74.4141 153.937 74.1211 153.741C73.2422 152.96 0 151.984 0 152.863Z" fill="white"/>
<circle id="440" cx="578" cy="688" fill="#5CE50D"/>
<circle id="442" cx="530" cy="470" fill="#E52A0D"/>
<circle id="441" cx="410" cy="627" fill="#E52A0D"/>
<circle id="1413" cx="923" cy="600" fill="#E52A0D"/>
</svg>
