<svg width="1000" height="1000" viewBox="0 0 1000 1000" fill="none" xmlns="http://www.w3.org/2000/svg">
<path d="M785.561 32.831C783.631 35.0365 781.701 36.3231 780.322 36.3231C776.922 36.3231 772.419 38.5286 770.03 41.2855C767.824 43.9506 759.921 49.005 755.602 50.6591C740.99 56.2648 737.314 57.4595 735.477 57.4595C734.374 57.4595 732.444 58.4703 731.249 59.7569C730.055 60.9516 727.022 63.1571 724.449 64.5356C720.13 66.9249 718.935 67.1087 709.102 67.1087C698.993 67.1087 698.258 67.2925 694.766 69.6818C692.836 71.0603 690.079 72.163 688.609 72.163C685.209 72.163 681.441 74.2767 678.5 77.7688C675.008 81.9042 670.781 81.7204 666.554 77.2174C662.786 73.174 659.294 72.163 648.542 71.7036C639.168 71.336 638.157 71.8873 634.757 79.5148C632.552 84.5692 631.633 85.5801 626.854 88.337C621.708 91.2777 620.972 91.4615 613.161 91.2777C607.739 91.2777 604.155 90.7263 602.685 89.8992C601.306 88.9803 599.468 88.7046 597.447 89.1641C595.701 89.4398 593.495 89.256 592.484 88.7046C591.106 87.9694 590.187 87.9694 589.36 88.6127C588.165 89.6235 584.857 89.4398 581.457 87.9694C579.435 87.1423 578.792 87.418 576.218 90.1749C571.256 95.505 563.72 97.7105 561.147 94.586C560.136 93.2994 558.666 93.2075 551.406 93.7589L542.86 94.4022V92.1048C542.86 88.8884 541.297 85.0287 540.011 85.0287C539.368 85.0287 538.081 84.2935 537.162 83.4664C536.151 82.5474 534.313 81.8123 532.935 81.7204C531.281 81.6285 530.545 81.169 530.729 80.25C531.005 78.3202 529.259 77.1255 525.215 76.3903C522.367 75.8389 521.631 76.1146 520.804 77.6769C520.253 78.6878 518.874 79.6986 517.772 79.9743C516.577 80.3419 515.29 81.4447 514.831 82.5474C513.269 86.0396 509.225 87.3261 503.344 86.1315C500.495 85.4882 492.592 85.0287 485.7 85.0287H473.202L472.558 91.1858C471.915 98.4457 470.353 105.154 469.066 106.9C468.515 107.635 467.871 109.841 467.596 111.955C467.228 114.528 466.401 116.09 465.206 116.733C464.196 117.193 462.45 118.479 461.439 119.49C460.428 120.501 458.774 121.788 457.855 122.247C456.476 123.074 456.384 123.534 457.303 125.28C458.038 126.75 458.13 127.853 457.395 129.047C456.936 130.058 456.476 132.08 456.476 133.459C456.476 134.929 456.017 136.583 455.465 137.134C454.638 137.962 455.006 138.972 456.844 141.086C458.13 142.648 459.233 144.762 459.233 145.681C459.233 146.692 459.693 148.438 460.336 149.724C461.163 151.654 460.979 153.492 459.325 159.466C457.579 166.082 457.487 167.093 458.682 169.942C459.601 172.239 459.876 175.18 459.509 180.602C459.049 187.219 459.141 188.321 460.979 190.711C461.99 192.181 462.909 194.203 462.909 195.305C462.909 196.316 469.617 205.69 477.796 216.166C485.975 226.734 493.878 237.486 495.349 240.243C496.727 243 501.598 249.984 506.193 255.774L514.372 266.434V272.224C514.372 275.532 514.831 278.932 515.29 279.851C516.026 281.229 515.566 282.976 513.177 287.846L510.052 294.095L511.339 300.068C512.901 307.145 512.35 317.161 510.144 323.043C509.133 325.708 508.49 330.487 508.306 336.368L508.122 345.558L502.884 348.223C498.473 350.52 496.543 350.98 490.386 351.071C486.435 351.163 482.759 351.531 482.391 352.082C481.105 353.461 479.634 357.964 478.072 365.499C477.153 369.819 476.05 372.667 475.407 372.667C474.764 372.667 473.569 373.403 472.834 374.23C471.088 376.251 471.915 379.008 475.131 381.581C478.072 383.787 479.083 388.841 477.613 393.344C476.877 395.642 476.785 397.02 477.521 397.755C478.072 398.491 478.072 399.409 477.613 400.237C477.061 400.972 476.694 402.993 476.694 404.556C476.694 407.864 475.499 408.232 469.526 407.037C467.32 406.578 466.677 405.842 466.217 403.637C465.758 401.247 466.125 400.328 468.882 397.48C470.628 395.642 472.099 393.712 472.099 393.069C472.099 391.69 467.871 388.933 466.677 389.576C465.39 390.404 462.909 389.209 462.909 387.739C462.909 387.003 461.898 385.992 460.703 385.533C458.222 384.614 455.557 381.306 455.557 379.1C455.557 378.365 452.617 374.781 449.124 371.105C445.54 367.429 442.692 363.845 442.692 363.202C442.692 361.456 439.935 359.067 436.534 357.872C434.145 357.045 433.502 356.218 432.583 352.45C431.664 348.682 431.756 347.671 432.95 345.741C434.88 342.893 434.329 341.606 429.366 337.838C425.966 335.357 425.231 334.254 425.231 331.865C425.231 329.476 425.874 328.649 428.999 326.902C433.502 324.329 436.81 317.988 435.891 313.669C435.34 310.637 436.534 307.604 439.199 305.766C440.118 305.123 440.854 304.02 440.854 303.377C440.854 302.734 441.681 301.447 442.783 300.436C444.254 299.058 444.621 297.955 444.254 295.014C444.07 292.992 444.254 288.949 444.805 286.008C445.357 282.516 445.357 280.402 444.713 279.575C443.886 278.565 443.427 273.694 443.427 264.137C443.427 260.277 442.967 259.45 437.729 253.66C432.123 247.503 431.848 247.319 429.458 248.422C428.08 248.974 425.231 249.525 423.026 249.525C420.636 249.525 418.614 250.076 417.879 250.903C417.144 251.822 416.317 252.006 415.214 251.455C413.468 250.444 407.587 252.282 405.106 254.487C403.543 255.866 403.36 255.866 402.9 254.579C401.889 252.098 398.948 252.925 398.029 256.142C397.019 259.726 395.273 260.461 394.445 257.612C394.078 256.417 392.056 253.66 389.851 251.363C387.737 249.065 385.256 245.114 384.337 242.633C383.418 240.06 381.488 236.659 380.018 235.005C378.639 233.351 377.444 231.054 377.444 229.859C377.444 228.664 376.617 227.01 375.607 226.091C373.677 224.345 369.541 224.621 364.211 227.102C362.649 227.745 346.843 232.064 329.015 236.659C303.651 243.184 295.656 245.573 292.256 247.687C289.866 249.249 286.926 250.444 285.639 250.444C282.974 250.444 280.952 251.455 275.714 255.223C272.773 257.336 269.189 258.347 254.302 261.104C236.474 264.412 236.29 264.504 219.197 272.224C202.38 279.851 201.921 280.127 201.369 283.159C200.726 286.835 201.921 290.327 206.332 296.944C208.813 300.804 209.272 302.274 208.813 304.755C208.537 306.501 208.261 308.707 208.353 309.718C208.445 310.729 208.721 317.161 209.089 323.962L209.732 336.368L222.23 336.644C233.166 336.827 235.004 337.103 236.29 338.573C237.852 340.32 237.944 340.32 241.161 338.114C243.458 336.552 245.756 335.908 248.788 335.908C252.74 335.908 253.567 336.276 258.162 340.779C262.481 344.914 264.135 345.833 269.833 347.304C274.979 348.682 277.644 349.969 281.228 353.093C283.893 355.299 286.282 357.964 286.65 358.975C287.753 361.823 294.369 364.121 303.467 364.856C310.543 365.316 313.116 366.051 321.203 369.635L330.577 373.862V377.262C330.577 380.662 330.669 380.662 334.804 381.306C337.193 381.581 340.502 381.857 342.156 381.857C343.902 381.857 345.28 382.041 345.28 382.317C345.28 384.063 339.95 392.977 338.664 393.436C337.01 393.896 337.01 394.079 338.848 397.02C339.858 398.674 341.329 403.453 342.064 407.496C342.799 411.54 343.81 415.767 344.361 416.87C345.189 418.34 345.097 419.076 344.086 420.27C341.329 423.67 340.502 427.254 341.972 430.563C343.534 434.514 342.156 444.164 339.675 445.91C338.48 446.737 338.296 448.023 338.572 450.964C338.848 453.169 338.572 455.926 338.112 457.213C337.469 458.959 337.653 460.613 338.939 463.921C339.95 466.311 340.686 469.251 340.686 470.354C340.686 471.457 341.329 473.571 342.064 474.949C343.259 477.338 343.259 477.798 342.064 479.544C341.329 480.647 340.686 482.301 340.686 483.22C340.686 484.139 340.226 484.598 339.675 484.323C338.48 483.496 333.609 485.517 332.966 487.08C332.782 487.723 333.609 490.296 334.896 492.777C337.285 497.188 337.285 497.28 335.631 499.761C334.437 501.599 333.334 502.243 330.944 502.243C326.441 502.243 323.041 503.989 323.409 506.286C323.593 507.389 323.041 508.675 322.306 509.319C320.101 511.065 322.398 513.822 325.89 513.454C328.371 513.27 328.739 513.546 328.739 515.476C328.739 516.762 329.106 517.957 329.658 518.325C330.117 518.6 330.209 519.703 329.75 520.898C329.29 522.001 328.647 525.033 328.279 527.698C327.912 530.455 326.993 533.028 325.982 533.947C325.063 534.774 323.96 536.796 323.685 538.266C323.133 540.472 323.501 541.483 325.522 543.596C327.544 545.71 327.82 546.721 327.36 549.202C326.901 552.143 327.085 552.51 331.863 555.727C336.826 559.127 336.826 559.219 335.999 562.619C335.631 564.549 334.988 568.041 334.712 570.43C334.345 573.371 333.609 574.933 332.599 575.301C329.015 576.496 324.879 580.999 324.512 584.031C324.328 585.777 323.776 587.34 323.409 587.615C322.949 587.891 320.284 591.291 317.436 595.243C313.668 600.297 311.554 602.411 309.624 602.87C308.154 603.146 305.856 604.616 304.478 605.995L301.997 608.568L303.008 616.103L304.018 623.547L299.332 629.245C296.85 632.461 294.737 635.586 294.737 636.229C294.737 636.872 295.748 639.445 297.034 641.927C299.24 646.338 299.332 646.521 297.494 646.521C296.391 646.521 289.131 652.679 278.931 662.328C269.649 671.058 254.394 685.394 244.837 694.216C224.987 712.596 226.733 708.368 229.03 731.067C230.593 746.873 230.776 759.647 229.49 764.334C228.571 767.458 228.846 768.561 231.603 774.534C233.901 779.497 234.912 783.265 235.463 788.595C236.106 795.671 236.198 795.947 240.15 799.531L244.193 803.298V810.834C244.193 816.256 244.653 819.288 245.756 821.402C247.685 825.078 247.502 831.419 245.112 849.615C244.101 856.966 242.447 870.383 241.436 879.481C240.334 888.579 238.679 898.228 237.669 901.077C235.279 907.878 236.014 913.116 239.874 916.332L242.631 918.63L241.896 926.625C241.069 935.63 241.069 939.123 242.08 955.205C242.999 969.633 241.988 968.989 263.584 969.633L277.92 970L280.86 963.567C282.515 959.8 283.709 955.572 283.709 953.367C283.709 947.485 287.201 928.646 289.223 923.868C291.52 918.538 291.52 918.538 289.223 918.538C286.834 918.538 284.261 922.673 284.352 926.441C284.444 930.3 283.709 930.392 281.687 926.808C280.677 925.062 279.114 923.776 277.368 923.5C275.163 923.041 274.611 922.397 274.152 919.273C273.784 917.251 272.957 914.678 272.13 913.483C270.844 911.462 270.935 911.186 273.968 908.153C276.174 905.948 277.001 904.385 276.633 903.099C276.357 902.088 276.541 900.526 277.093 899.607C277.92 898.228 278.103 898.32 279.39 900.71L280.768 903.375L281.412 900.618C283.525 890.417 285.271 888.12 294.921 882.33C306.316 875.714 335.264 864.042 354.47 858.437C386.45 849.063 408.414 841.711 415.582 837.852C420.728 835.095 422.934 833.165 427.069 827.835C429.826 824.251 433.226 820.391 434.697 819.288C438.281 816.44 442.692 809.731 442.692 806.882C442.692 805.504 443.794 802.655 445.081 800.45C446.643 797.784 447.286 795.395 447.103 793.373C446.735 789.606 444.07 788.687 443.243 792.087C442.508 794.936 441.129 795.211 440.67 792.638C440.21 789.422 438.648 790.157 437.913 794.017C436.902 799.163 436.443 800.174 435.432 799.622C434.972 799.255 435.156 797.049 435.983 794.201C436.718 791.627 437.637 787.951 438.097 786.205C438.556 783.908 438.832 783.632 438.924 785.103C439.108 789.238 440.854 786.022 440.854 781.519C440.854 778.21 441.773 774.718 444.07 769.572C446 765.069 447.286 760.75 447.286 758.452C447.286 755.512 448.205 753.49 451.422 748.803C456.109 742.187 456.752 740.624 454.546 740.992C452.433 741.268 451.881 738.603 451.881 728.678C451.881 723.256 452.341 719.12 453.26 716.915C453.995 715.077 454.914 710.574 455.19 706.898C455.649 701.476 455.465 699.546 454.179 697.065L452.525 693.94L449.951 696.881C445.54 701.844 444.805 701.017 444.897 690.816C444.897 685.945 444.805 680.064 444.621 677.767C444.53 675.469 444.621 672.069 444.989 670.231C445.54 667.474 445.173 665.912 443.151 662.42C440.854 658.284 440.762 657.457 441.221 649.738L441.681 641.467L440.302 645.878C439.567 648.268 438.556 650.014 438.005 649.738C436.81 649.003 436.994 646.521 438.189 646.521C439.383 646.521 438.372 640.824 436.994 639.997C436.534 639.721 437.362 638.159 438.924 636.597C442.324 633.288 442.692 631.358 439.751 632.185C438.556 632.461 435.983 632.921 433.961 633.196L430.285 633.748L434.145 632.094C436.259 631.175 438.464 629.98 438.924 629.52C440.302 628.05 437.453 614.266 435.34 612.06C433.502 610.314 433.502 610.314 433.502 612.244C433.502 613.347 432.767 614.357 431.664 614.633C430.194 615.001 429.826 614.633 429.826 612.611C429.826 611.049 428.815 609.027 427.069 607.373C425.599 605.903 424.312 603.789 424.312 602.595C424.312 601.4 423.945 600.665 423.485 600.94C422.29 601.676 421.371 598.735 422.382 597.448C422.842 596.897 424.036 594.324 425.047 591.751C426.793 587.34 426.885 586.972 425.415 585.41C423.945 583.939 424.036 583.848 426.793 584.491C429.183 584.95 429.826 584.766 429.826 583.664C429.826 582.929 429.366 582.01 428.815 581.642C428.172 581.274 428.08 579.712 428.356 577.69C428.723 575.852 429.091 573.463 429.275 572.36C429.366 571.166 430.194 569.511 431.113 568.501C432.583 566.846 432.583 566.663 430.285 563.998C426.793 559.862 427.529 559.495 431.756 563.354C435.156 566.387 435.891 566.663 438.924 566.111C443.243 565.284 453.076 559.862 458.222 555.359C460.428 553.429 462.541 551.867 463.001 551.867C463.368 551.867 464.012 551.04 464.287 550.029C464.563 549.018 465.39 548.191 466.125 548.191C466.769 548.191 471.455 544.056 476.418 539.002C481.38 533.855 487.629 528.25 490.294 526.412C492.868 524.574 495.073 522.828 495.073 522.46C495.073 522.092 497.462 521.082 500.403 520.163C503.252 519.152 506.376 517.589 507.204 516.487C508.306 515.292 508.858 515.108 508.858 515.935C508.858 516.854 509.685 517.038 512.074 516.671C515.658 516.119 516.026 516.487 513.728 519.06C512.166 520.714 512.166 520.806 514.372 520.53C515.934 520.255 516.761 519.519 516.945 518.049C517.312 515.843 518.966 515.2 518.966 517.406C518.966 519.611 520.253 518.968 522.091 516.027C522.918 514.465 523.561 512.076 523.469 510.697C523.194 508.308 525.767 503.162 527.237 503.162C528.432 503.162 555.725 477.063 555.725 475.96C555.725 475.684 554.806 475.684 553.704 476.052C551.59 476.603 551.59 476.603 553.795 474.857C554.99 473.846 556.644 473.203 557.471 473.479C558.298 473.663 559.585 472.744 560.504 471.273C568.04 459.235 570.521 455.834 572.634 454.732C574.932 453.537 575.299 452.802 575.116 449.861C575.116 448.942 575.208 448.85 575.575 449.585C576.218 451.148 578.424 451.148 579.343 449.585C579.711 449.034 582.559 447.288 585.592 445.818C588.625 444.347 591.749 442.785 592.484 442.417C593.219 441.958 594.506 441.315 595.241 441.039C599.652 439.201 606.269 435.709 608.934 433.779C610.68 432.493 612.977 431.482 614.08 431.482C615.183 431.482 618.216 430.838 620.789 430.103C625.016 428.817 625.567 428.357 625.567 426.152C625.567 422.66 627.038 420.638 627.681 423.119C628.232 425.416 630.346 425.6 636.871 423.762C639.536 423.027 642.752 422.2 644.131 421.924C645.601 421.557 646.612 420.822 646.428 420.27C646.336 419.535 647.99 419.076 651.299 418.892C654.607 418.708 656.72 418.157 657.456 417.238C658.099 416.227 658.65 416.135 659.11 416.686C659.937 418.157 666.094 417.881 668.759 416.319C670.046 415.583 672.711 414.94 674.732 414.94C679.327 414.94 681.625 413.654 680.062 412.091C679.143 411.172 679.235 410.529 680.43 409.242C681.257 408.324 682.268 407.588 682.727 407.588C683.187 407.588 684.749 406.669 686.22 405.659C688.333 404.004 688.609 403.361 687.874 402.075C686.771 400.328 687.598 395.642 688.976 395.642C689.436 395.642 689.62 396.836 689.344 398.307C689.068 399.777 689.16 401.156 689.62 401.431C690.814 402.166 702.761 396.928 705.426 394.447C706.713 393.252 710.756 390.679 714.248 388.841C722.06 384.614 722.611 384.155 721.416 382.592C720.865 381.949 720.222 379.652 719.946 377.446C719.486 373.862 719.578 373.586 721.692 373.586C722.979 373.586 724.173 372.943 724.449 372.208C725.184 370.462 726.195 370.462 727.941 372.208C729.871 374.138 731.341 373.219 734.282 368.256C735.66 365.867 737.682 362.559 738.785 360.813C740.807 357.688 739.979 357.596 736.579 360.537C735.66 361.272 734.925 361.456 734.925 360.905C734.925 360.445 736.487 358.791 738.509 357.32C744.299 353.001 754.315 343.904 755.418 341.79C756.062 340.687 758.727 338.114 761.392 336C764.7 333.335 766.17 331.497 766.17 330.027C766.17 328.74 767.089 327.27 768.468 326.351C772.603 323.686 774.257 315.967 771.408 313.118C770.489 312.291 769.846 312.107 769.846 312.658C769.846 313.945 767.457 314.864 765.803 314.221C765.067 313.945 764.7 313.118 764.976 312.383C765.527 310.82 772.327 307.788 774.257 308.155C775.819 308.523 775.636 304.571 773.89 302.09C773.154 300.987 772.879 300.068 773.338 300.068C773.89 300.068 774.441 300.62 774.717 301.355C775.084 302.366 780.874 304.112 780.874 303.193C780.874 301.539 778.393 298.231 777.106 298.231C773.89 298.231 774.533 296.576 778.025 296.025C783.079 295.198 785.377 292.992 785.652 288.581C785.744 286.56 785.285 283.986 784.734 282.976C783.906 281.321 783.906 280.77 785.009 279.851C786.388 278.748 786.939 275.256 785.744 275.256C785.469 275.256 784.366 275.899 783.447 276.818C782.436 277.737 781.793 277.921 781.793 277.186C781.793 276.635 782.804 275.624 784.09 275.072C786.02 274.245 786.388 273.418 786.204 271.213C785.836 267.353 782.62 266.802 780.231 270.202C779.312 271.488 777.841 273.51 776.922 274.613C775.268 276.635 775.268 276.635 775.911 273.418C776.279 271.672 776.555 269.191 776.463 268.088C776.279 266.434 777.014 265.607 779.036 264.872C781.793 263.861 782.252 262.758 781.793 257.796C781.517 254.487 779.863 253.936 777.474 256.142C775.636 257.796 775.36 257.888 775.36 256.601C775.36 255.774 774.717 255.039 773.982 255.039C771.96 255.039 772.327 252.558 774.441 251.363C775.452 250.811 776.187 250.076 776.095 249.709C776.003 249.341 776.463 247.871 777.106 246.4C777.841 244.654 777.841 243.368 777.29 242.816C776.738 242.265 776.922 241.162 777.841 239.784C778.944 238.038 779.036 237.027 778.301 235.005C777.749 233.627 777.014 229.583 776.738 225.999C776.187 220.026 776.279 219.291 778.025 218.096C779.863 216.809 779.863 216.718 776.738 215.523C774.992 214.788 773.522 214.144 773.522 213.961C773.522 213.869 774.809 211.663 776.279 209.274C778.76 205.138 779.036 204.036 779.036 196.96C779.036 192.089 779.587 187.862 780.414 185.84C782.528 180.602 782.252 179.499 778.852 179.867C776.463 180.051 775.911 180.51 776.095 181.888C776.279 182.807 775.911 183.91 775.268 184.37C773.154 185.656 771.684 184.186 771.684 180.51C771.684 176.834 771.684 176.834 776.738 176.558C777.749 176.467 778.668 175.731 778.852 174.72C779.312 172.423 781.058 170.677 782.344 171.136C783.906 171.688 785.561 169.115 784.917 167.369C784.55 166.45 783.723 165.99 783.079 166.266C782.252 166.542 781.793 166.082 781.793 165.071C781.793 164.152 782.528 163.049 783.355 162.774C784.55 162.222 784.642 161.947 783.815 161.395C783.171 161.028 782.528 159.098 782.436 157.26C782.252 154.044 782.068 153.86 779.863 154.319C777.933 154.687 777.29 154.411 776.922 152.941C776.555 151.47 777.198 150.643 779.587 149.173C782.896 147.243 783.631 145.681 781.333 145.681C780.414 145.681 779.955 144.762 779.955 142.924C779.955 141.362 779.312 139.891 778.393 139.34C777.474 138.881 777.106 138.145 777.474 137.778C777.933 137.318 778.576 137.594 778.944 138.237C779.863 139.708 780.506 138.697 780.69 135.572C780.874 133.275 782.252 123.258 783.355 117.377C783.631 115.631 783.355 113.333 782.804 112.23C782.16 111.128 781.793 109.841 781.885 109.29C781.977 108.83 781.793 107.819 781.425 106.9C781.058 106.073 781.15 104.051 781.609 102.305C782.16 100.284 782.068 98.7214 781.425 97.7105C780.782 96.6077 780.874 95.505 781.701 93.5751C784.55 87.6937 784.734 86.9585 784.182 85.4882C783.906 84.6611 783.263 84.2016 782.804 84.5692C782.252 84.8449 781.058 84.3854 779.955 83.4664C778.025 81.7204 777.565 80.4338 779.036 80.4338C779.495 80.4338 780.874 79.4229 782.16 78.1364C783.447 76.8498 785.193 75.8389 786.02 75.8389C787.123 75.8389 787.398 75.2875 787.123 73.6334C786.847 72.163 787.398 70.5089 788.777 68.7629C791.258 65.8222 791.626 62.9733 789.512 62.9733C788.501 62.9733 788.226 62.2382 788.409 60.0326C788.593 57.8271 789.512 56.5405 791.626 55.1621C793.28 54.1512 794.567 52.8646 794.658 52.3132C794.658 51.3024 790.523 49.6482 788.961 49.9239C788.501 50.0158 788.226 49.3725 788.226 48.4536C788.226 46.4318 791.81 44.5939 795.853 44.5939L798.794 44.502L796.221 42.664C794.475 41.2855 793.831 40.1828 794.199 38.9881C794.658 37.7015 794.291 37.2421 792.912 37.2421C791.901 37.2421 790.799 36.7826 790.523 36.3231C790.247 35.7717 790.431 35.4041 790.891 35.4041C791.442 35.4041 791.901 34.3933 791.901 33.1067C791.901 31.7282 791.35 30.8093 790.615 30.8093C789.88 30.8093 789.145 30.5336 788.961 30.0741C788.869 29.7065 787.307 30.9011 785.561 32.831Z" fill="white"/>
<circle id="461" cx="282" cy="917" fill="#5CE50D"/>
<circle id="1632" cx="374" cy="349" fill="#E52A0D"/>
<circle id="462" cx="701" cy="309" fill="#E52A0D"/>
<circle id="463" cx="434" cy="569" fill="#E52A0D"/>
</svg>
