<svg width="1000" height="1000" viewBox="0 0 1000 1000" fill="none" xmlns="http://www.w3.org/2000/svg">
<path d="M89.264 46.631C83.893 48.6818 78.1312 51.3185 76.3734 52.4904C72.2719 55.5177 59.8695 60.4982 56.8422 60.4982C55.475 60.4982 51.8617 60.9865 48.8344 61.6701C43.4633 62.7443 43.3656 62.7443 36.0414 58.7404C31.8422 56.3967 27.4476 54.6388 25.7875 54.7365C24.225 54.7365 18.3656 56.592 12.7992 58.8381C0.592174 63.7209 1.08045 62.842 0.299205 81.9826C-0.189077 94.6779 -0.0914204 95.9474 3.4242 112.256C6.93983 128.467 7.33045 129.444 10.2601 132.08C12.5062 133.838 14.3617 137.061 16.2172 141.846C20.0258 151.904 22.8578 157.569 28.6195 166.162C32.7211 172.412 34.2836 173.975 37.7992 175.244C41.5101 176.709 42.975 178.174 49.0297 187.256C56.5492 198.389 76.9594 233.447 95.1234 266.358C104.498 283.252 107.916 290.772 116.12 312.158C125.592 336.768 126.373 338.33 136.53 354.151C150.885 376.416 166.412 405.518 165.631 408.643C165.143 410.596 166.412 412.158 173.639 419.092C180.573 425.537 183.209 428.858 186.823 435.596C189.557 440.869 193.17 445.85 196.393 448.877C201.764 454.053 201.471 453.369 204.108 470.166C204.596 473.389 205.084 479.443 205.084 483.643C205.084 490.967 204.987 491.162 203.131 490.186C201.764 489.404 200.592 489.404 199.225 490.186C196.686 491.553 196.686 494.776 199.323 512.451C201.276 525.147 201.276 526.709 200.006 530.127C198.639 533.447 198.737 534.229 200.397 538.428C201.373 540.967 202.838 547.315 203.62 552.588C204.401 557.861 205.28 562.842 205.573 563.526C205.866 564.307 205.28 567.432 204.205 570.557C202.252 576.123 202.252 576.123 204.205 587.451C205.28 593.604 207.428 601.904 208.991 605.811C210.553 609.815 212.506 615.772 213.385 619.092C214.264 622.51 216.608 627.686 218.659 630.713C225.885 641.358 227.252 645.069 228.034 656.299C228.62 665.088 228.424 667.237 227.057 669.971C225.592 672.705 225.495 674.072 226.471 679.737C227.057 683.35 227.545 692.041 227.545 698.877V711.475L231.452 719.58C235.553 728.174 236.53 733.35 233.795 733.35C232.526 733.35 232.33 734.131 232.916 737.451C234.577 748.389 234.381 747.998 239.459 751.123C243.659 753.76 244.83 755.225 249.03 763.721C251.764 768.994 253.912 773.584 253.912 773.779C253.912 774.072 252.741 774.365 251.276 774.561C248.639 774.854 248.541 775.147 248.248 780.518C247.955 785.401 248.346 786.768 250.397 789.404C252.252 791.846 253.131 794.678 253.912 801.319C255.768 815.088 259.967 825.733 269.733 841.358C275.885 851.319 278.327 856.104 278.327 858.35C278.327 860.791 279.596 862.94 284.088 868.018C287.311 871.631 290.241 875.928 290.729 877.588C291.217 879.639 293.952 882.959 298.834 887.256C310.26 897.608 340.827 929.834 342.194 933.057L343.463 935.987L346.881 932.276C350.104 928.76 350.592 928.565 358.014 927.979C369.049 927.197 369.733 926.514 372.077 913.526C372.662 910.401 373.737 908.154 375.006 907.276C376.08 906.592 376.959 905.225 376.959 904.346C376.959 903.467 377.838 900.928 378.815 898.779C380.28 895.654 381.452 894.385 384.284 893.506C389.752 891.651 392.291 892.822 393.659 897.705C395.123 903.272 395.612 903.662 402.252 905.713C409.87 907.959 410.944 910.108 407.135 915.674C403.717 920.654 403.522 923.682 406.745 926.709C408.209 928.076 409.577 931.006 410.26 934.131C411.627 939.99 412.702 940.479 420.123 938.233C423.737 937.158 424.03 937.256 427.057 940.186C429.791 942.822 431.354 943.408 437.311 944.19C444.342 945.069 445.416 945.557 450.202 949.756C453.034 952.197 457.428 952.881 472.37 953.272C482.526 953.467 483.502 953.369 485.651 951.319C487.116 949.951 489.166 949.17 491.315 949.17C493.17 949.17 496.979 948.487 499.909 947.705C506.842 945.947 513.385 947.022 515.827 950.44C521.198 957.764 520.709 957.569 527.057 956.201C530.28 955.615 534.186 955.029 535.748 955.029C539.948 955.029 541.022 953.467 540.338 948.584C539.557 942.725 540.924 941.358 547.467 941.358C552.35 941.358 552.741 941.162 554.303 938.233C557.721 931.397 562.799 925.733 565.436 925.733C571.393 925.733 589.362 919.483 591.803 916.455C592.877 915.186 596.1 824.951 600.592 668.897C602.252 612.256 604.401 537.256 605.475 502.393C606.549 467.432 607.428 436.377 607.428 433.252V427.49L643.366 427.783C678.327 428.076 679.205 428.076 679.401 426.221C680.573 416.162 690.436 174.365 690.436 156.885V154.444L707.33 153.76C722.174 153.174 727.252 152.49 750.495 147.803C783.991 140.967 865.338 125.733 865.827 126.123C865.924 126.319 866.998 130.127 868.17 134.717C869.44 139.795 871.588 145.069 873.639 148.096C876.471 152.49 876.959 154.053 876.959 158.936C876.959 163.428 877.35 165.088 878.815 166.358C881.745 168.994 886.432 167.627 888.385 163.526C889.557 160.986 891.315 159.717 896.002 157.666C901.178 155.518 902.35 154.541 903.912 151.123C908.112 141.748 910.455 139.307 922.467 131.69L934.088 124.365L946.979 123.194C955.573 122.412 961.53 121.338 965.045 119.971C968.659 118.506 973.639 117.627 981.647 117.139C992.291 116.455 993.366 116.162 996.491 113.623C998.346 112.061 999.909 110.498 999.909 110.108C1000.01 109.815 998.248 107.276 996.198 104.639C992.584 100.147 991.608 99.5607 982.916 96.631C974.323 93.799 972.955 93.6037 965.631 94.1896C958.209 94.8732 957.233 94.6779 944.83 90.7716L931.842 86.5724L907.135 92.0412C893.463 95.0685 876.666 98.5841 869.635 99.9513C862.702 101.319 842.877 105.518 825.69 109.229C790.045 117.139 729.987 128.858 725.202 128.858C723.346 128.858 720.026 128.076 717.682 127.197C714.069 125.733 710.26 125.537 694.83 125.537C684.674 125.635 673.541 126.123 670.221 126.709C664.362 127.686 663.873 127.588 655.573 124.268C643.073 119.19 638.287 118.115 627.838 118.115C618.756 118.115 564.85 113.623 563.483 112.744C563.092 112.549 558.307 111.865 552.741 111.377C537.702 109.912 535.065 108.35 515.534 88.6232L499.323 72.217H186.92L183.6 74.6584C177.448 79.2482 165.827 77.3927 157.428 70.5568C153.717 67.5295 151.373 66.3576 149.127 66.3576C145.221 66.3576 144.44 65.7717 141.412 60.9865C140.045 58.8381 136.53 54.4435 133.502 51.2209L128.131 45.3615L120.123 45.5568C114.655 45.6545 111.139 45.2638 109.284 44.2873C104.987 42.1388 99.9086 42.7248 89.264 46.631Z" fill="white"/>
<circle id="468" cx="403" cy="470" fill="#5CE50D"/>
<circle id="470" cx="209" cy="465" fill="#E52A0D"/>
<circle id="1033" cx="257" cy="781" fill="#E52A0D"/>
<circle id="1434" cx="470" cy="792" fill="#E52A0D"/>
</svg>
