<svg width="1000" height="1000" viewBox="0 0 1000 1000" fill="none" xmlns="http://www.w3.org/2000/svg">
<path d="M617.401 209.559L484.504 288.994L428.957 334.493C398.339 359.518 371.987 380.751 370.376 381.604C368.67 382.552 349.143 386.628 322.886 391.463C298.43 396.013 278.239 399.71 278.144 399.804C277.955 399.994 273.31 500.757 271.699 539.716C270.94 559.243 269.992 579.149 269.708 583.888L269.139 592.514L253.973 599.908L248.854 608.913C243.925 617.729 243.451 618.203 233.782 625.028C226.389 630.241 223.64 632.706 222.881 634.886L221.933 637.825L204.207 636.971C188.946 636.213 186.197 636.308 183.638 637.635C181.268 638.772 170.462 639.626 131.882 641.616C105.056 642.943 81.7374 644.27 80.0312 644.555C77.6614 644.934 76.1448 646.166 73.3958 650.147L69.7938 655.361H59.8407C51.8783 655.361 47.897 655.93 39.745 658.11L29.6024 660.859L25.8107 658.015L22.0191 655.266L18.7014 657.825L15.4785 660.385L15.2889 669.959C14.6254 695.837 14.7202 696.121 19.8389 698.396C23.5358 700.102 23.5358 700.197 24.1993 706.548C24.6733 711.667 25.5264 714.321 28.5597 719.629C32.067 725.696 33.1097 726.738 43.4419 733.563C49.6033 737.639 56.4282 741.715 58.6084 742.474C61.4522 743.516 64.2011 745.792 67.8979 750.152C70.7417 753.564 73.1115 756.787 73.1115 757.356C73.1115 757.83 72.4479 759.157 71.6896 760.2C70.3625 762.001 70.2677 762.001 66.5709 759.82C64.4855 758.683 62.4949 757.735 62.2105 757.735C61.9261 757.735 61.8313 762.569 61.9261 768.352L62.2105 779.063L70.8365 783.803C76.3343 786.836 82.1166 791.102 86.5718 795.272L93.5863 801.908L102.497 803.33L111.502 804.751L117.568 802.097C120.886 800.581 124.014 799.538 124.393 799.633C124.867 799.822 127.711 802.856 130.839 806.552L136.527 813.188L130.27 819.539C125.626 824.278 124.204 826.174 124.962 827.122C125.436 827.786 130.27 833.852 135.579 840.488L145.342 852.716L147.238 849.588C149.039 846.649 149.039 845.891 147.996 839.919C147.333 836.412 147.048 833.284 147.143 833.189C147.333 832.999 151.504 830.629 156.433 827.88L165.343 822.951L173.495 831.009C177.95 835.369 183.733 840.203 186.197 841.72C189.799 843.9 191.6 845.986 194.539 851.199C196.529 854.991 198.899 858.214 199.657 858.593C200.416 858.877 204.207 861.531 208.094 864.47L215.203 869.778L218.331 867.598C220.038 866.46 221.554 865.418 221.744 865.228C221.933 865.133 221.175 861.721 220.132 857.645C218.426 850.915 218.331 850.062 219.753 847.502C220.701 845.512 220.985 843.331 220.606 840.393C220.322 838.118 220.701 831.862 221.554 826.648L223.071 816.979L231.223 810.723C238.996 804.751 239.944 803.709 247.337 791.481L255.11 778.494V759.062L261.935 753.375C265.632 750.341 269.518 747.213 270.561 746.455C271.509 745.792 278.334 743.516 285.728 741.526L298.998 737.829L302.126 739.82C305.065 741.621 305.823 741.621 315.302 740.673C324.402 739.725 325.729 739.346 329.805 736.407C339.095 729.772 352.65 731.668 370.471 742.095C379.192 747.213 379.571 747.308 386.68 747.308L393.979 747.403L402.7 755.176C409.714 761.337 413.127 765.413 419.478 774.892C426.397 785.224 427.914 786.931 430.474 787.5C435.213 788.447 435.497 788.353 441.469 783.803C446.778 779.821 447.346 779.632 453.413 779.537C459.1 779.537 461.186 778.968 472.466 773.944L485.073 768.352L495.879 770.342L506.78 772.238L512.089 778.02C516.544 782.855 519.956 785.224 531.521 791.481L545.645 799.159L591.808 802.761L598.917 794.988C602.993 790.438 610.197 784.182 615.695 780.201L625.269 773.186L632.568 774.134C639.298 774.892 640.436 774.798 649.156 772.143C663.185 767.878 675.603 766.172 685.935 767.309C702.334 769.015 718.354 772.807 729.634 777.736L740.25 782.381H767.645L784.613 769.584C796.177 760.863 802.339 756.787 804.045 756.787C810.111 756.787 812.102 755.745 814.756 751.289C816.652 748.161 817.221 746.171 816.842 744.275C816.273 741.241 812.292 735.08 806.509 728.066L802.718 723.516L803.95 717.923L805.182 712.235H809.448C812.766 712.235 814.567 711.572 818.358 708.728C823.003 705.316 823.667 705.316 824.994 708.633C825.183 708.918 826.795 709.392 828.596 709.581L831.913 709.866L831.629 704.083L831.25 698.301L835.515 697.164C839.497 696.026 839.876 695.647 840.918 691.476C841.677 688.727 843.573 685.599 846.132 682.85C850.018 678.774 850.208 678.205 850.872 671.191L851.535 663.702L956.279 542.749L956.943 520.568C958.175 479.524 963.294 421.038 968.412 389.472C970.213 378.476 971.92 365.111 972.299 359.708C972.962 350.039 973.152 349.565 977.607 341.697C980.261 337.242 982.915 332.882 983.674 332.029C984.432 331.27 985.001 329.469 985.001 328.237C985.001 325.773 983.105 324.445 974.1 320.749C966.99 317.81 962.441 314.208 959.786 309.753C958.175 307.004 956.374 305.393 954.194 304.634C951.54 303.781 950.971 303.023 950.402 299.895C949.833 296.577 950.118 295.534 953.056 291.648C958.459 284.254 958.459 284.538 949.075 271.742C944.43 265.391 940.165 259.324 939.501 258.187C938.932 257.144 938.079 247.949 937.605 237.522C936.563 215.72 935.804 208.895 932.392 192.876C930.97 186.335 929.358 176.856 928.79 171.737L927.652 162.448L904.713 173.064L881.773 183.586L859.971 168.23C848.028 159.888 837.222 152.589 835.989 152.021C834.094 151.262 752.099 130.219 750.867 130.219C750.583 130.219 690.485 165.955 617.401 209.559Z" fill="white"/>
<circle id="492" cx="128" cy="755" fill="#5CE50D"/>
<circle id="495" cx="366" cy="657" fill="#E52A0D"/>
<circle id="1038" cx="493" cy="530" fill="#E52A0D"/>
<circle cx="748" cy="706" fill="#E52A0D"/>
</svg>
