<svg width="1000" height="1000" viewBox="0 0 1000 1000" fill="none" xmlns="http://www.w3.org/2000/svg">
<path d="M247.315 108.666C242.499 109.61 240.611 110.554 237.589 113.481L233.813 117.164L219.838 117.447C208.13 117.73 205.769 117.541 204.73 116.314C203.031 114.237 202.37 114.331 184.713 118.202L169.227 121.602L160.729 130.005C153.27 137.37 151.759 138.409 148.927 138.409C143.167 138.409 142.978 138.881 143.733 150.4C144.394 159.843 144.205 161.637 141.845 170.985C138.351 184.865 131.742 194.968 121.544 201.955C119.183 203.56 114.462 207.337 110.969 210.453L104.548 216.024V225.466C104.548 231.037 103.887 237.269 103.037 240.669C101.432 246.806 101.81 252.377 104.076 256.437C105.209 258.514 105.114 258.987 103.415 260.875C100.677 263.802 100.299 269.184 102.471 275.416L104.265 280.609L98.0327 286.936C93.6892 291.279 91.2342 294.678 90.1012 297.7C87.0796 306.292 87.1741 306.67 97.7494 320.739C105.681 331.22 107.381 334.147 107.381 336.885C107.381 338.679 108.041 342.362 108.891 345.195C109.647 347.933 110.119 351.049 109.836 352.182C109.552 353.315 109.552 355.77 109.93 357.753C110.308 360.397 111.157 361.719 113.14 362.757C115.784 364.079 115.879 364.268 115.879 371.822C115.879 381.453 113.612 389.573 110.78 389.573C109.836 389.573 108.136 388.818 107.192 387.968C103.792 384.947 100.299 387.59 95.4833 396.938C94.4446 398.921 96.8052 405.436 98.7881 406.097C103.32 407.514 103.509 411.007 99.3546 415.445C97.4661 417.522 96.994 419.033 96.994 422.999C96.994 427.342 96.6163 428.287 93.9725 430.836C91.7064 433.008 89.6291 433.952 86.1354 434.424C83.4916 434.802 79.8091 436.218 77.7318 437.54C74.2382 439.901 74.1437 440.184 74.5214 444.527C74.9935 449.437 74.427 450.381 70.2724 451.42C68.3839 451.892 67.8174 452.553 68.1951 453.592C68.4784 454.442 66.9676 456.802 64.0405 459.918C58.564 465.678 57.4309 468.794 59.6026 471.91C62.3409 475.876 61.019 482.202 56.4867 486.262C55.1648 487.49 54.5038 489.189 54.5038 491.644C54.5038 497.31 52.7098 498.443 44.2117 497.782C40.246 497.404 35.1471 497.498 32.7866 497.876L28.5375 498.632L27.4045 506.185C25.9881 515.439 24.0053 544.71 23.8164 560.006C23.722 567.088 22.7778 575.775 21.4558 583.234L19.2841 595.132L21.267 599.381C22.9666 602.78 23.3443 605.235 23.3443 612.505C23.3443 621.287 23.4387 621.57 26.177 624.214C29.8595 627.707 30.0483 631.768 26.5547 632.617L24.1941 633.278L24.5718 647.631C24.7606 655.562 25.2328 662.927 25.7049 664.06C26.177 665.76 26.0826 666.232 24.9495 666.232C22.3056 666.232 21.0782 669.82 22.3056 673.975C22.9666 676.052 23.1555 678.885 22.8722 680.395C22.4945 682.095 22.8722 684.172 23.8164 686.061C25.0439 688.421 25.2328 690.404 24.6662 695.314C24.3829 698.808 23.6276 702.207 22.9666 702.962C22.0224 704.19 16.6403 719.297 17.018 719.77C17.2068 719.864 26.177 719.581 37.0356 719.014C47.9886 718.542 62.152 718.448 68.6672 718.731C77.6374 719.203 82.2641 719.014 88.0239 717.787C101.432 715.143 125.132 715.709 138.54 719.109C140.334 719.581 145.15 720.242 149.115 720.525C153.176 720.903 157.519 721.469 158.747 721.752C164.601 723.358 199.632 754.517 202.936 761.032C203.975 763.11 206.524 766.886 208.507 769.247C210.773 771.891 212.19 774.629 212.19 776.14C212.19 777.651 213.795 780.578 216.439 783.883C218.799 786.81 221.443 790.775 222.199 792.664C224.087 797.479 230.885 800.784 238.817 800.784C243.633 800.784 244.671 800.501 246.088 798.518L247.787 796.252L248.354 798.518C248.826 800.123 248.259 801.445 246.56 803.239C244.199 805.694 244.105 805.789 239.289 804.467C236.551 803.711 234.19 803.145 233.907 803.145C233.624 803.145 233.718 807.111 234.19 811.926C234.851 819.197 235.89 822.974 240.611 835.249C247.126 851.867 254.019 865.747 257.513 868.863C260.345 871.507 278.947 886.426 280.457 887.37C281.118 887.653 284.045 889.07 287.067 890.486C291.883 892.658 293.299 892.941 299.342 892.469C303.024 892.185 312.939 891.524 321.248 891.052C341.832 889.919 354.957 888.22 356.751 886.615C357.601 885.859 360.245 885.293 363.361 885.293C368.082 885.293 368.743 885.009 370.631 882.46C372.425 880.005 373.369 879.627 376.957 879.627C381.018 879.627 381.206 879.722 380.64 881.988C380.168 883.876 380.451 884.348 382.434 884.82C383.85 885.198 385.928 884.82 387.722 883.971C389.988 882.743 390.649 881.799 390.649 879.627C390.649 876.228 391.026 876.228 395.842 879.155C397.919 880.477 400.752 881.516 402.074 881.516C405.945 881.516 413.593 878.683 415.671 876.417C417.37 874.623 418.692 874.434 431.534 874.151C443.525 873.867 446.264 873.584 451.551 871.507L457.783 869.241L461.466 871.129C466.376 873.584 469.02 873.49 472.891 870.657C474.685 869.43 477.046 867.824 478.273 867.258C479.406 866.597 480.35 865.464 480.35 864.614C480.35 862.914 474.591 853.094 471.286 849.129C470.058 847.618 469.02 845.824 469.02 845.069C469.02 842.897 476.007 846.863 477.329 849.79C477.895 851.112 478.84 852.245 479.406 852.245C479.973 852.245 481.483 853.378 482.711 854.7C484.788 856.871 485.26 857.06 486.677 855.927C488.093 854.7 488.187 854.888 487.526 857.249C486.96 859.798 488.093 862.631 489.793 862.631C491.209 862.631 496.402 856.588 496.402 854.983C496.402 852.056 497.535 850.356 499.329 850.356C500.274 850.356 501.123 849.79 501.218 849.129C501.218 848.562 501.407 846.863 501.501 845.541C501.595 844.124 502.823 841.48 504.334 839.592C505.75 837.703 508.111 833.455 509.621 830.244C511.038 827.034 513.115 823.635 514.154 822.596C516.514 820.519 518.214 813.154 517.458 808.527C517.081 805.977 517.458 804.561 518.969 802.578C520.008 801.162 520.952 798.707 520.952 797.007C520.952 795.308 521.802 791.909 522.935 789.548C525.012 784.732 524.918 784.355 520.102 779.728L517.931 777.556L520.008 775.29C521.707 773.496 522.085 772.269 521.613 769.719C520.858 765.092 522.841 762.732 527.845 762.354C531.527 762.071 532 761.693 534.171 757.727C538.326 750.079 544.463 742.998 549.751 739.787C552.489 738.088 556.361 734.688 558.249 732.139C561.082 728.551 562.309 727.607 564.198 727.795C566.181 728.079 566.653 727.512 567.597 724.302C568.541 721.091 569.297 720.336 572.696 719.109C575.528 717.976 577.134 716.654 578.361 714.387C579.683 711.649 580.722 710.988 584.499 710.138C589.22 709.194 591.675 706.645 591.769 702.679C591.769 701.64 592.713 697.864 593.846 694.37L595.924 687.855L599.606 688.516C603.289 689.082 603.478 688.988 611.504 681.151C624.062 668.97 624.723 668.404 625.856 670.009C626.328 670.764 627.083 672.936 627.65 674.73C629.066 680.018 632.276 681.339 643.891 681.339H653.71L655.788 676.335C656.921 673.597 657.865 670.575 657.865 669.631C657.865 666.421 660.037 660.567 661.17 660.567C661.831 660.567 662.586 661.794 662.87 663.399C663.53 666.61 670.895 671.803 674.672 671.897C675.9 671.897 678.166 672.747 679.677 673.88C681.943 675.485 682.415 676.524 682.415 679.734C682.509 682.567 683.17 684.456 684.776 686.25C686.758 688.516 687.797 688.893 692.235 688.893C697.239 688.893 697.428 688.988 698.467 692.198C699.128 694.181 699.317 697.486 698.939 700.413C698.467 704.284 698.75 706.362 700.166 709.666C703.282 716.842 704.699 717.598 713.858 716.937C725.188 716.182 726.322 715.521 728.399 709.1C729.249 706.173 730.665 703.623 731.515 703.34C736.897 701.64 738.124 700.791 739.446 697.297C741.24 692.859 741.335 688.044 739.824 684.739C738.408 681.528 739.73 680.112 750.588 672.653C755.026 669.631 759.275 666.421 759.842 665.665C760.503 664.91 762.013 664.343 763.241 664.343C764.752 664.343 765.507 663.777 765.507 662.738C765.507 660.472 757.953 649.236 756.442 649.236C754.837 649.236 754.648 647.347 756.348 647.347C756.915 647.347 758.52 645.648 759.653 643.665C760.88 641.776 765.507 636.394 769.945 631.862L777.876 623.553L776.743 619.021C775.233 613.261 775.988 611.467 784.58 598.247C790.529 589.277 791.001 588.05 790.529 584.839C790.057 582.196 790.529 580.213 792.229 576.436C794.117 572.565 794.4 571.054 793.739 569.165C793.267 567.843 793.078 564.916 793.456 562.65C793.834 560.195 793.645 558.118 792.984 557.268C792.229 556.324 792.418 555.663 793.739 554.435C795.156 553.208 796.006 553.019 798.083 553.869C799.499 554.435 800.821 554.719 800.821 554.624C800.916 554.435 802.426 552.547 804.126 550.281C806.77 546.787 807.147 545.843 806.581 542.633C806.014 539.422 806.203 538.95 808.186 538.383C809.414 538.1 812.53 537.817 815.079 537.817C821.594 537.723 828.676 533.851 830.942 529.036C832.075 526.864 833.586 525.353 835.097 524.975C838.685 524.031 840.384 519.027 841.045 506.657C841.612 498.537 842.273 494.666 843.784 491.267C844.917 488.812 846.144 484.751 846.427 482.202C846.899 477.858 846.805 477.575 844.728 477.198L842.462 476.914L844.822 475.026C846.144 473.987 848.977 471.249 851.148 469.077C854.453 465.584 856.153 464.734 861.441 463.506C865.406 462.562 868.711 461.146 870.411 459.54C872.866 457.369 873.338 456.141 874.188 448.682C874.66 444.055 875.321 439.901 875.604 439.523C875.887 439.051 875.226 437.54 874.188 436.218C872.016 433.48 871.638 430.175 873.149 427.342C873.716 426.209 873.81 424.698 873.243 423.282C872.488 421.394 872.771 420.544 874.376 419.033C877.304 416.484 880.231 415.067 882.875 415.067C885.424 415.067 889.201 411.479 889.201 409.024C889.201 408.08 889.767 404.492 890.523 400.998C891.278 397.599 892.789 390.045 893.922 384.38C895.055 378.62 896.755 372.672 897.699 371.161C898.738 369.556 901.193 365.495 903.27 362.096C905.347 358.603 908.841 353.693 910.918 351.049C914.034 346.989 914.695 345.478 914.695 341.984C914.695 338.207 914.978 337.735 917.433 336.885C919.605 336.13 920.266 335.186 920.832 332.259C921.871 325.838 932.069 316.868 935.846 318.945C940.567 321.589 942.644 321.494 949.254 318.095C952.842 316.301 957.657 312.996 960.018 310.825C962.378 308.559 965.4 306.481 966.722 306.198C968.044 305.82 971.443 304.498 974.37 303.271C978.997 301.194 979.847 300.438 981.263 296.756C982.113 294.395 982.963 291.185 982.963 289.485C983.151 286.936 982.679 286.18 980.13 284.858C976.164 282.876 975.598 281.176 977.958 278.627C980.508 275.888 981.83 268.618 982.207 254.738C982.49 243.69 982.396 243.124 980.413 242.179C979.375 241.613 977.203 239.913 975.598 238.497C974.087 237.081 969.838 234.342 966.25 232.454C960.207 229.149 959.263 228.96 954.447 229.527C949.82 229.999 948.876 229.904 946.893 228.016C945.005 226.222 944.816 225.372 945.288 221.595L945.854 217.252L942.361 216.119C939.339 215.174 938.301 215.269 935.468 216.78C932.069 218.479 931.88 218.479 929.142 216.78C927.536 215.835 925.931 214.136 925.554 213.097C925.27 212.058 923.287 209.887 921.21 208.282L917.528 205.26V197.895C917.528 191.946 917.244 190.247 915.922 189.586C914.601 188.736 914.601 188.547 916.395 187.603C918.944 186.281 919.416 179.955 916.961 179.955C916.206 179.955 915.828 179.483 916.111 179.011C916.489 178.444 916.206 177.311 915.545 176.556C914.695 175.517 914.695 174.856 915.45 174.101C916.772 172.779 916.961 168.624 915.828 168.624C915.356 168.624 914.223 169.474 913.279 170.513C910.918 173.156 908.463 172.873 906.48 169.757C903.648 165.225 900.343 162.109 897.132 161.07C894.772 160.315 893.261 158.71 890.995 154.838C889.012 151.345 886.935 149.079 884.48 147.851C880.136 145.679 879.664 144.924 878.72 139.825C878.342 137.748 877.492 134.065 876.831 131.61C875.982 128.211 875.887 126.228 876.643 123.773C877.587 120.846 877.492 120.468 875.982 120.468C874.943 120.468 872.582 123.018 869.655 127.267C864.651 134.726 861.818 136.331 856.342 134.537C853.792 133.688 852.093 133.971 845.955 135.954C839.251 138.314 838.307 138.975 833.019 145.018C829.903 148.701 826.882 151.628 826.221 151.628C825.56 151.628 824.616 152.478 823.955 153.611C823.294 155.027 822.633 155.31 821.972 154.649C820.65 153.328 818.478 154.177 815.268 157.199C813.285 159.087 812.813 160.126 813.191 162.109C813.568 163.903 813.285 164.753 812.246 165.225C811.396 165.508 810.075 167.302 809.319 169.191L807.903 172.684L801.577 172.023C798.083 171.646 793.551 170.89 791.473 170.418C789.396 169.852 785.43 169.663 782.692 169.946C777.688 170.513 777.404 170.418 766.64 164.092C754.271 156.821 751.627 155.688 736.142 151.628C725.566 148.89 724.433 148.795 703.566 148.701C691.668 148.606 680.715 148.323 679.11 147.945C675.805 147.19 665.891 148.795 656.449 151.628C652.861 152.667 644.363 154.177 637.659 154.933C630.955 155.783 625.006 156.632 624.439 156.916C617.263 160.787 604.044 170.324 604.044 171.646C604.044 172.779 603.289 173.345 601.872 173.345C600.173 173.345 597.435 176.083 590.258 185.148L581.005 196.856L576.661 196.384C574.301 196.101 569.863 195.44 566.747 194.968C562.97 194.307 560.232 194.307 558.627 194.968C556.927 195.534 551.828 195.44 542.575 194.59C531.716 193.646 526.523 192.607 516.703 189.586C506.128 186.281 504.145 185.337 502.068 182.693C495.93 174.762 494.042 173.345 489.037 173.345C484.977 173.345 483.75 172.873 480.161 169.852C474.685 165.225 458.728 154.933 455.8 154.177C454.479 153.8 449.285 153.044 444.281 152.572L435.027 151.722L418.598 161.542C401.13 172.118 398.769 172.873 391.687 170.418C388.855 169.379 388.477 169.568 383.567 174.195L378.468 179.011H362.511L358.734 174.762C355.051 170.513 353.352 167.491 348.253 156.16C346.742 152.761 344.665 149.456 343.721 148.984C342.776 148.418 338.622 144.169 334.467 139.447C326.63 130.477 322.192 126.889 315.96 124.717C312.656 123.49 311.806 123.584 309.068 124.906C305.952 126.323 305.857 126.323 281.402 116.786C267.899 111.593 256.096 107.344 255.058 107.344C254.113 107.438 250.62 108.005 247.315 108.666Z" fill="white"/>
<circle id="499" cx="404" cy="500" fill="#5CE50D"/>
<circle id="497" cx="485" cy="267" fill="#E52A0D"/>
<circle id="496" cx="91" cy="711" fill="#E52A0D"/>
<circle id="1039" cx="434" cy="825" fill="#E52A0D"/>
</svg>
