<svg width="1000" height="1000" viewBox="0 0 1000 1000" fill="none" xmlns="http://www.w3.org/2000/svg">
<path d="M253.502 604.333L253.993 605.41L252.701 606.504L251.571 607.73L251.147 607.86L250.132 605.948L250.05 604.479L251.343 603.793L253.502 604.333Z" fill="white"/>
<path fill-rule="evenodd" clip-rule="evenodd" d="M856.76 69.4805L858.346 71.3916L860.702 71.4414L862.812 72.3232L864.088 74.4297L864.938 75.2139L866.101 74.9365L866.509 72.4209L867.064 72.2412L869.829 72.8945L875.244 75.4922L879.61 74.626L880.085 75.002L879.905 76.1611L877.305 78.4316L879.054 79.6572L879.692 79.6738L880.919 77.7295L885.042 77.5986L888.263 78.3828L893.709 75.8672L897.227 76.4551L900.744 78.9707L900.547 81.3066L898.928 81.748L898.618 81.4053L899.86 80.4082L899.614 80.0332L898.618 80.7188L897.914 79.5098L896.375 79.6406L894.872 78.1875H894.152L892.386 81.2578L893.202 81.4053L893.89 80.4902L894.413 80.5557L894.642 81.1924L893.89 82.4502L888.737 88.3311L887.609 88.8535L882.112 95.4688L880.28 99.8301L879.626 105.891L874.033 118.778L869.534 119.039L868.929 118.354L870.482 117.455L870.287 116.018L872.642 114.106L872.446 113.143L870.435 114.417L869.96 114.106L869.715 111.542L870.926 109.777L872.069 109.223L872.822 110.056L875.128 110.562L876.354 111.901L876.765 111.46L876.307 108.83L873.771 103.995L872.969 96.9883L872.3 95.3711L871.202 94.5703L866.673 94.8975L863.384 96.874L861.585 99.0293L857.316 107.312L856.253 107.458L853.374 105.711L852.408 105.857L854.52 107.899L854.618 111.885L853.848 113.028L851.361 113.845L850.462 115.25L850.594 116.197L851.935 116.426L853.325 114.352L853.832 114.433L854.291 116.753L856.466 115.74L857.186 120.003L859.083 123.335L859.065 125.312L864.725 129.983L869.502 129.624L870.009 127.174L868.323 124.495L862.829 123.417L863.009 122.339L868.095 122.666L869.861 124.299L870.974 126.292L872.103 126.635L872.119 125.851L870.762 124.233L871.383 123.319L870.959 121.783L872.135 120.231L873.035 120.362L877.287 143.019L879.561 150.744L880.429 156.642L886.791 176.813L887.969 178.219L888.574 182.367L887.231 179.852L883.716 180.146L881.197 178.138L881.033 177.108L881.704 176.34L880.673 173.253L876.895 167.405L875.424 167.34L875.995 168.826L875.473 169.562L875.604 170.035L877.697 170.656L877.157 174.494L877.533 174.674L878.481 173.269L879.381 173.629L878.906 175.295L880.625 180.768L880.313 183.937L881.507 184.132L883.356 182.71L884.763 182.775L885.549 181.044L886.202 181.028L887.036 182.661L888.164 183.136L889.195 185.798L889.883 186.222L890.587 185.405L891.19 185.504L891.682 186.762L891.354 189.163L894.789 210.12L890.83 222.485L883.962 237.465L878.858 246.594L878.957 245.125L881.018 241.677L881.164 239.358L883.029 236.729L882.997 232.661L884.338 230.488L887.036 222.828L887.004 220.132L884.565 216.066L881.917 213.812L882.343 212.636L884.271 214.53L884.632 213.272L881.164 205.972L876.993 199.959L875.146 199.47L873.444 202.835L875.898 204.468L878.334 208.829L876.633 208.208L874.671 206.134L871.76 205.611L870.614 204.109H869.52L872.854 211.084L869.993 211.54L869.403 209.336L868.323 210.12L866.884 210.282L866.443 212.179L867.702 212.798L869.208 215.428L870.581 213.191L872.005 212.896L872.398 216.017L871.301 219.97L872.74 222.158L873.182 224.658L875.571 225.898L875.881 225.604L874.981 223.972L875.718 223.58L877.254 224.167L879.856 226.324L879.677 224.037L881.18 224.674L881.443 226.829L880.46 227.271L880.02 228.609L883.144 230.93L881.95 232.221L882.244 235.063L879.89 240.062L877.68 238.9L876.405 241.352L874.735 241.874L874.459 242.445L875.931 242.772L878.727 240.437L879.921 240.927L877.68 244.732L877.451 249.013L876.438 249.649L875.374 252.589L871.481 255.84L866.428 261.851L864.595 266.293L860.979 269.871L859.132 272.518L857.233 272.632L853.161 276.307L851.265 279.279L850.576 281.485L848.893 282.89L849.383 284.328L847.421 288.23L846.962 286.435L844.868 284.017L845.064 281.044L845.637 279.9L849.22 277.532L850.069 274.167L846.439 277.025L844.868 274.02L840.648 269.919L842.448 265.298L839.486 263.141L839.782 260.562L836.101 260.103L835.839 259.466L836.919 259.499L837.065 258.878L836.673 256.183L835.529 254.336L835.709 251.937L834.973 251.12L830.948 250.826L828.462 249.584L828.036 246.645L826.27 245.255L826.386 242.07L825.322 239.179L826.336 239.93L826.893 239.473L828.708 239.571L827.661 238.608L829.607 233.724L821.87 228.006L821.282 226.487L821.854 224.004L819.435 223.596L817.372 218.874L817.012 216.277L814.853 215.902L813.071 217.764L811.941 216.752L808.507 215.854L805.595 217.34L804.141 217.177L799.951 214.692L796.354 213.681L791.431 210.97L792.004 212.407L793.18 213.093L798.514 214.548L804.827 218.499L806.314 218.517L807.673 217.078L810.208 217.535L812.139 219.153L815.132 217.373L816.292 218.466L816.391 220.981L818.026 224.674L819.254 225.508L820.514 225.539L820.022 227.646L820.823 229.165L826.107 232.743L828.186 235.192L826.32 238.591L824.962 238.608L824.39 239.179L825.043 242.037V245.876L826.81 247.722L827.661 250.532L834.352 252.721L836.166 257.26L834.891 259.221L835.137 260.806L835.74 261.411L838.358 261.492L838.047 263.729L840.829 265.804L840.73 266.995L839.242 269.103L839.405 269.952L841.825 273.04L845.522 276.373L845.327 277.907L844.557 278.871L841.989 279.771L841.711 277.728L841.042 277.156L835.823 274.526L834.891 274.575L833.581 276.16L832.144 279.802L831.964 281.681L832.567 282.253L838.031 281.028L839.455 282.04L839.603 283.199L837.476 286.124V287.774L838.489 289.098L840.583 289.179L843.216 288.183L845 288.525L845.67 289.243L844.77 293.36L845.049 295.615L843.903 298.815L843.822 300.221L844.787 301.739L842.316 305.528L839.339 312.438L835.644 329.345L830.933 361.997L829.641 360.952L828.527 355.055L828.725 352.262L830.933 345.679L829.739 342.086L830.671 339.896L833.353 336.826L833.647 335.649L831.292 330.979L829.919 330.603L830.639 331.762L825.895 332.269L824.946 333.199L826.107 335.503L828.365 336.352L827.825 337.708L825.011 338.981L819.941 337.985L816.751 339.161L816.049 340.125L816.195 342.755L815.558 343.589L812.744 340.975L810.486 337.219L809.979 335.355L810.175 332.596L809.424 331.011L807.967 329.688L804.713 329.132L800.296 323.873L799.592 319.772L798.578 320.703L798.808 323.186L800.607 327.728L808.312 332.351L808.753 335.829L809.946 338.475L814.592 344.062L814.511 344.52L812.204 344.16L811.91 344.829L813.791 345.663L814.657 345.123L815.753 345.696L818.632 349.419L820.595 354.189L823.474 355.153L822.754 356.329L823.049 356.786L824.701 356.672L825.895 357.39L827.007 356.427L827.514 356.934L828.103 359.857L826.565 360.919L825.943 359.466L825.061 358.992L825.126 361.017L825.796 361.802L828.314 361.67L830.834 363.811L830.687 365.869L829.412 365.149L827.988 365.035L827.612 365.542L830.72 367.845L831.308 368.874L829.951 370.688L829.688 372.663L827.007 378.609L826.81 380.423L824.619 377.466L822.95 376.389L820.218 375.08L817.929 375.521L819.81 377.449L824.275 379.883L822.623 381.566L822.852 382.333L823.294 382.627L825.436 380.438L823.981 390.925L822.787 392.167L822.247 391.954L823.277 388.573L820.514 389.015L817.83 391.873L816.85 393.947L814.838 393.311L813.413 393.881L811.974 398.374L809.096 397.688L807.444 399.32L801.081 403.259L799.543 402.817L798.644 399.894L799.249 398.815L798.823 397.786L793.36 396.79L791.071 395.564L786.948 396.625L785.296 396.463L783.955 394.896L783.105 391.692L779.981 389.259L778.002 386.466L774.239 385.176L773.782 384.358L773.944 380.291L767.845 373.366L767.647 371.129L771.213 367.714L769.479 361.246L765.193 356.443L762.708 356.134L757.981 353.928L755.87 354.532L753.482 356.804L749.59 356.427L750.8 358.093L752.599 358.158L755.069 357.048L757.276 354.729L759.19 355.414L760.353 356.819L763.067 357.815L764.933 357.636L768.481 362.847L768.63 365.869L769.332 367.322L769.104 368.335L766.798 369.707L767.011 371.259L766.24 373.562L768.874 376.551L769.431 377.988L771.246 378.266L770.641 379.441L772.473 379.721L772.865 380.537L772.964 385.551L772.146 386.842L768.612 387.739L763.82 391.972L761.646 391.873L759.289 392.674L756.688 389.864L755.085 389.423L751.585 389.717L745.451 389.177L743.668 390.452L742.147 390.402L739.612 389.275L739.318 388.264L737.993 387.331L733.969 386.532L733.348 385.094L731.188 384.26L732.301 382.351L728.652 381.745L727.345 382.921L726.903 382.774L726.805 381.272L723.239 379.997L721.931 381.239L720.132 380.864L718.381 381.549L716.565 379.214L713.195 381.582L709.45 382.056L699.014 377.76L697.052 377.418L696.381 378.528L694.141 380.015L693.208 383.053L694.368 383.558L695.269 383.281L695.466 380.618L697.984 379.066L707.65 383.281L713.327 383.118L716.27 380.945L717.35 382.578L718.479 382.905L719.951 382.089L723.877 381.336L726.657 383.755L729.749 382.677L729.879 384.669L732.709 386.319L733.984 387.806L737.895 388.981L743.292 391.972L746.63 390.795L751.291 390.402L755.592 391.302L759.78 394.062L761.906 393.017L763.428 393.049L768.154 389.766L772.784 388.295L773.846 387.055L774.616 386.988L777.15 388.051L781.403 392.281L783.235 396.871L786.524 397.9L790.139 396.741L794.13 398.309L797.156 398.291L797.989 402.506L800.491 404.466L802.603 404.189L804.875 402.932L807.166 400.481L809.751 399.306L811.419 399.927L812.874 399.288L813.839 397.736L813.692 395.45L814.609 394.698L815.704 395.237L819.614 400.53L822.312 397.345L823.751 393.311L824.275 393.326L824.668 394.322L823.816 396.904L821.822 421.307L824.177 446.739L827.612 470.049L827.603 470.048L831.26 484.048L831.913 489.211L833.5 493.326L833.125 494.812L831.668 496.151L830.621 496.283L829.739 495.434L829.592 492.673L830.769 489.406L830.558 487.839L829.886 487.233L829.133 487.185L828.462 487.936L829.853 488.803L828.365 492.265L829.002 493.489L829.346 496.92L827.531 496.202L824.047 496.119L819.171 493.44L816.718 493.718L816.081 494.242L816.375 495.155L819.368 497.019L819.417 497.605L818.451 497.835L816.489 497.394L811.959 494.682L810.747 494.846L809.064 496.185L807.478 494.879L800.428 493.31L801.393 491.954L801.081 490.207L795.308 487.691L793.77 488.785L792.199 486.53L791.267 486.629L790.27 488.295L789.68 488.394L788.944 485.894L785.247 483.265L784.3 479.508L777.201 477.041L770.673 473.742L770.15 472.484L770.036 468.629L764.785 462.406L767.011 460.266L765.227 456.705L764.147 452.801L763.085 452.146L760.5 451.969L760.368 451.478L761.76 450.792L762.054 449.991L760.959 448.162L761.383 446.316L760.222 445.5L758.668 445.548L757.981 445.059L757.064 442.951L754.448 440.893L755.118 435.861L750.292 432.268L747.659 431.157L743.865 427.662L740.692 426.485L740.431 427.53L741.509 430.145L740.938 430.979L737.829 430.832L736.014 431.826L734.197 431.484L729.668 434.687L728.262 434.113L726.346 431.696L724.693 431.712L723.845 432.48L724.433 434.065L723.926 435.389L714.356 437.707L713.016 440.567V442.396L714.635 444.274L718.381 445.091L718.921 445.875L718.152 446.463L716.713 445.956L716.009 446.644L713.621 451.348L711.724 452.261L705.263 452.294L697.182 453.323L692.684 456.525L683.818 460.281L676.884 470.377L670.275 475.081L666.874 475.816L664.91 478.806L662.898 477.449L660.412 472.696L650.941 470.164L647.213 466.489L640.211 466.816L636.204 466.015L634.699 466.913L633.881 469.185L636.253 466.963L641.258 467.877L643.63 467.174L645.773 467.11L647.753 468.285L650.32 471.112L652.267 471.128L656.354 472.875L659.087 472.974L662.08 478.299L663.782 479.539L665.891 479.491L668.002 476.894L671.763 475.816L678.453 470.671L683.95 461.523L689.953 459.482L696.462 454.859L697.967 454.319L711.69 453.209L714.848 451.494L716.713 447.379L719.361 447.835L720.018 444.797L716.173 443.669L714.536 442.429L714.422 441.236L715.601 438.133L721.308 436.842L725.905 436.891L724.843 433.689L725.479 432.855L726.69 432.906L727.655 434.816L728.948 435.714L732.823 434.113L734.868 432.105L737.224 433.543L737.813 432.007L738.516 431.696L742.065 431.778L742.54 430.832L741.46 428.266L742.033 427.645L744.438 430.129L748.951 432.252L751.078 434.311L753.549 435.47L754.154 436.416L753.516 438.868L753.679 441.105L758.08 446.382L760.386 446.446L760.614 446.938L759.043 448.814L759.699 449.42L760.695 449.354L760.843 450.366L758.896 452.311L759.273 452.833L762.822 453.274L763.673 455.529L765.146 457.162L766.061 459.774L764.018 461.326L763.509 462.47L766.177 464.577L768.939 468.53L768.727 471.962L770.052 474.819L771.605 476.061L775.368 477.695L777.576 477.759L783.498 479.866L784.201 483.787L787.816 487.022L789.746 490.124L790.711 489.994L791.022 488.851L791.545 488.688L794.358 490.958L795.814 489.274L799.903 491.349L799.118 493.849L800.607 495.091L806.365 495.695L807.919 497.05L811.974 496.659L817.765 498.799L820.628 498.88L821.004 497.427L817.603 494.765L818.959 494.567L826.827 498.129L830.981 498.063L831.457 501.657L833.059 501.363L833.845 497.019L834.939 496.25L835.413 497.394L833.141 503.978L828.675 532.855L827.514 542.068L826.926 553.077L827.661 561.897L831.946 576.108L836.103 580.683L838.112 584.472L838.424 590.631L837.361 599.37L836.282 600.774L835.186 600.856L829.148 599.418L825.52 599.223L815.655 601.771L814.052 603.992L812.679 604.563L811.125 603.567L810.666 602.357L815.77 595.368L816.652 593.294L812.792 584.406L810.666 582.169L809.881 580.454L809.391 571.422L810.192 565.133L811.419 562.894L811.926 563.597L811.467 565.508L811.796 566.373L815.572 565.655L820.334 566.439L821.838 565.557L822.476 563.27L824.668 560.901L825.109 553.747L823.753 542.003L825.601 538.099L826.059 534.456L827.334 531.925L827.253 531.059L826.599 530.978L824.733 532.104L823.915 531.565L824.832 529.311L827.187 527.432L827.988 525.979L828.381 520.899L827.285 517.402L822.034 515.803L818.043 513.728L814.052 512.944L813.104 513.451L811.419 516.145L809.031 516.178L808.229 518.023L806.609 517.615L807.002 511.164L805.612 504.124L801.081 501.2L799.201 500.727L798.007 501.231L796.502 506.492L797.058 508.027L799.004 510.462L802.733 510.87L801.867 512.389L799.396 512.944L796.469 512.765L783.498 506.541L780.782 506.019L778.46 506.508L772.769 509.187L772.081 514.415L767.287 514.25L765.014 518.023L762.512 517.012L759.895 517.958L758.881 516.897L756.41 516.03L753.384 513.924L752.338 511.882L751.323 511.131L750.179 511.294L749.623 512.911L746.139 512.536L745.778 510.788L743.047 508.093L743.308 506.1L740.708 505.969L736.587 502.768L733.168 502.588L728.948 501.135L727.753 501.853L727.852 503.258L726.969 504.303L725.3 505.022L723.616 504.794L724.939 505.707L726.919 505.104L728.049 504.238L729.225 501.738L730.469 501.967L731.549 503.176L735.522 503.323L737.453 505.234L739.007 505.332L740.135 506.328L742.049 506.671L741.951 509.09L743.457 509.808L745.451 513.157L749.671 514.151L751.275 512.144L752.599 514.332L755.381 516.667L757.784 517.321L760.401 519.036L763.673 517.828L764.884 519.348L765.652 518.906L767.827 514.985L770.511 515.59L773.258 514.758L773.618 514.268L773.192 512.193L774.059 510.624L773.782 509.399L779.72 506.901L782.991 507.325L793.491 512.666L798.022 513.875L803.453 513.287L805.612 515.231L805.399 516.799L798.137 515.901L790.973 512.454L787.161 511.702L785.722 509.792L784.365 510.021L781.912 511.801L782.206 515.295L783.334 515.525L786.312 513.5L789.565 513.157L790.171 513.94L789.092 516.897L787.424 517.191L787.128 517.925L790.679 519.33L790.957 520.377L790.024 522.14L796.027 522.106L797.417 518.597L798.383 517.534L801.474 516.913L805.088 519.053L807.215 519.608L807.82 520.523L808.18 523.187L807.101 526.42L807.247 527.465L810.617 528.314L811.68 527.221L812.693 528.102L813.922 532.202L812.744 533.624V535.371L815.998 538.197L817.552 541.283L816.358 547.998L817.731 550.171L817.39 551.804L817.782 554.106L815.933 553.355L815.197 553.731L812.417 557.635L808.899 557.357L809.161 559.447L808.737 560.281L803.388 564.463L800.361 565.361L797.711 567.828L795.978 568.333L792.216 567.909L788.273 569.117L783.334 573.202L783.022 579.523L783.466 584.048L784.872 584.586L787.179 581.859L788.323 581.599L788.912 582.855L790.924 582.496L792.15 586.678L792.396 592.934L793.982 598.046L791.709 603.469L792.036 607.536L792.984 609.938L796.271 612.942L797.908 612.78L799.495 611.243L801.996 610.819L804.173 609.595L805.121 610.478L804.941 614.038L803.289 618.529L803.192 622.81L804.271 622.695L804.435 619.183L806.021 616.046L806.087 613.14L806.758 611.129L809.881 607.274L811.386 606.245L812.27 606.148L813.446 607.635L811.746 610.591L808.377 614.07L807.199 616.341L801.033 632.349L800.722 640.924L799.888 641.512L799.69 642.427L799.675 646.053L798.841 649.974L798.693 656.523L800.083 664.021L799.609 670.474L800.148 674.197L799.773 674.557L797.597 672.155L794.883 670.276L792.249 665.605L791.758 662.191L790.646 662.633L791.071 660.606L794.031 658.353L794.244 659.839L796.534 659.758L797.875 660.655L797.482 657.96L798.269 657.112L796.469 655.167L796.451 653.796L797.401 655.005L798.056 655.036L797.989 654.449L794.702 647.114L789.763 642.736L788.993 642.655L788.699 643.586L790.105 645.808L791.742 645.954L793.002 647.065L793.116 647.996L795.341 651.148L795.39 652.081L793.164 655.624L792.265 659.136L790.711 660.673L789.647 663.727L788.83 662.714L788.552 660.949V653.501L787.931 651.736L785.265 648.225L785.412 647.785L788.486 647.017L788.863 645.954L788.078 645.22L787.014 646.624L783.988 647.393L776.022 645.465L768.597 646.2L768.123 645.399L768.105 642.64L767.239 642.982L767.224 645.27L766.536 646.266L765.161 646.086L762.692 643.814L762.938 644.697L765.244 646.853L767.664 647.18L767.224 648.356L764.737 649.924L760.68 650.577L759.633 651.231L758.995 654.922L754.595 654.645L751.944 655.281L750.325 658.173L749.345 658.548L748.805 659.889L747.479 660.117L746.711 662.142L745.91 662.174L742.246 658.761L740.446 658.68L739.841 658.059L739.072 658.304L738.778 659.577L737.583 659.496L736.946 660.117L735.67 660.067L733.609 657.602L732.578 658.974L730.059 658.859L728.898 659.856L725.383 655.788L723.68 654.743L721.816 654.792L720.327 653.191L716.549 653.682L713.996 655.086L713.147 654.351L712.018 650.577L710.547 648.144L706.473 646.314L703.512 647.294L703.022 645.939L702.139 645.384L696.103 646.2L693.796 645.841L690.46 641.823L687.695 641.725L684.948 639.617L681.545 634.145L680.285 628.853L678.83 627.48L681.365 625.799L682.33 624.148L683.524 623.364L683.785 621.012L681.431 615.605L680.187 614.314L679.845 611.326L678.061 608.108L676.801 607.128L672.303 607.227L670.782 606.361L672.599 608.271L674.986 607.911L677.047 608.599L679.239 612.306L679.68 615.133L681.3 616.211L682.478 621.42L677.686 628.297L679.403 630.29L679.73 632.691L682.526 638.996L685.684 641.316L685.896 642.247L685.095 642.803L678.699 643.097L671.976 648.552L663.765 649.776L660.756 651.46L656.534 652.538L658.334 653.027L663.39 650.953L673.547 649.304L676.491 647.702L680.154 644.501L688.316 642.803L690.083 642.884L692.701 646.543L694.86 647.261L694.336 649.368L694.959 651.214L694.695 652.424L696.512 654.873L694.271 657.978L694.074 660.297L691.996 663.465L692.144 666.341L689.789 668.333L689.708 669.1L693.256 666.014L695.007 658.893L697.428 655.561L697.395 654.008L695.612 652.015L695.595 647.996L700.96 646.444L703.479 648.193L705.785 647.245L709.777 648.635L710.906 650.479L712.361 655.446L714.029 656.671L715.453 656.197L717.792 654.138L720.441 654.057L721.211 655.591L724.58 656.44L729.177 661.946L729.731 661.88L730.109 660.541L732.284 660.655L733.478 659.595L735.801 661.162L738.239 660.967L739.955 659.691L741.085 660.736L741.542 659.953L742.164 660.067L744.061 662.501L746.81 663.759L748.004 663.041L748.379 661.555L750.163 660.492L750.292 659.349L751.668 658.287L752.043 656.458L752.861 655.675L755.314 656.18L760.843 655.249L761.318 654.22L760.107 652.832L760.5 651.934L765.571 651.247L774.175 647.311L778.722 647.425L784.087 649.467L785.886 651.28L787.767 656.507L787.325 661.294L788.208 664.233L788.699 669.754L787.784 670.342L786.867 668.79L786.18 670.31L785.133 670.505L781.861 667.173L778.754 666.259L776.316 666.65L776.791 667.337L781.027 667.434L785.901 672.563L786.408 676.223L785.805 677.841L785.771 680.354L784.005 682.137L783.661 685.532L784.971 687.117L781.192 691.626L778.641 692.638L778.329 696.183L777.594 697.425L772.931 699.972L770.724 702.162L770.576 703.697L771.099 704.808L775.384 706L774.715 709.283L775.09 710.557L777.314 713.563L781.372 715.197L781.534 717.221L782.401 717.81L785.313 717.074L789.403 717.353L789.959 716.911L789.713 715.326L788.078 712.191L790.204 703.42H791.119L791.677 704.351L796.208 706.605L797.336 713.204L801.867 725.814L802.473 733.458L803.928 738.832L802.144 737.721L802.014 736.447L800.296 736.61L800.329 737.166L802.716 739.354L804.368 739.894L804.959 741.005L804.581 744.337L806.218 751.133L805.891 751.866L806.839 752.7L807.805 752.766L807.542 754.366L808.033 755.249L806.888 757.927L804.893 756.849L803.567 756.963L802.128 755.705L799.69 756.44L797.81 759.104L796.469 759.772L794.031 763.48L792.396 762.958L786.558 764.231L782.533 773.478L777.903 772.906L777.724 773.559L778.901 773.576L779.489 774.687L781.616 774.099L781.829 777.121L780.488 781.351L779.621 781.252L776.823 787.787L776.104 787.182L771.393 787.247L771.05 788.522L768.367 790.498L767.565 792.72L765.848 794.205L765.913 795.577L764.229 797.931L763.688 800.887L762.938 811.16L763.265 816.47L762.789 817.972L763.706 820.586L764.654 827.446L767.206 834.014L768.303 840.334L768.139 842.393L770.739 848.729L774.632 860.98L778.526 869.344L788.273 883.278L791.773 886.887L791.578 887.247L790.884 887.739L791.233 887.95L791.464 889.044L790.939 889.894L791.529 890.481L794.816 890.613L794.587 889.076L792.036 886.726L793.917 886.888L795.438 886.317L798.725 886.888L798.562 888.064L801.883 892.114L801.147 895.137L802.913 897.374L803.159 898.764L802.569 904.824L804.419 910.165L803.96 912.222L801.801 915.425L800.148 916.257L796.682 916.928L793.753 916.289L792.412 917.417L789.893 917.613L787.814 918.544L784.708 920.554L779.262 920.455L774.812 925.061L771.557 924.8L769.251 925.584L768.597 927.006L764.704 930.387L757.948 929.93L756.655 931.121L752.616 932.526L751.144 932.347L749.72 929.636L744.813 928.23L743.832 927.186L743.193 924.85L737.011 921.32L733.675 916.322L731.63 916.601L731.009 919.083L729.192 918.282L727.476 918.333L726.543 919.264L725.986 921.109L724.792 921.452L722.83 921.305L718.396 919.264L715.52 920.569L713.751 920.177L712.476 916.616L704.249 917.433L701.011 916.665L698.884 918.333L697.754 915.44L696.069 914.362L693.715 913.807L693.208 912.746L691.769 912.075L691.391 910.867L694.957 909.381L694.926 908.318L695.792 906.898L694.908 904.137L695.433 902.945L694.957 901.523L694.123 900.478L690.787 899.352L689.363 897.881L682.82 896.607L679.86 892.508L676.459 891.674L674.495 891.772L673.496 890.775L671.534 886.365L669.588 885.026L669.474 883.979L670.929 879.8L668.263 875.928L667.201 875.961L664.271 878.885L659.316 880.338L656.354 882.985L654.966 883.457L652.249 883.147L649.403 881.58L642.796 874.36L638.984 872.253L628.254 868.219L626.275 864.592L619.307 866.878L605.519 858.841L604.913 858.744L559.147 886.137L544.474 880.028L505.021 865.833L505.644 863.464L504.384 858.286L506.216 857.437L507.018 856.049L509.177 857.372L511.695 857.813L513.854 860.213L515.441 860.966L518.287 860.672L519.529 859.937L521.738 860.883L527.005 860.753L527.791 861.455L528.444 863.383L530.865 863.284L532.322 864.428L540.368 863.416L541.481 864.232L541.646 866.993L542.854 867.939L545.424 867.841L551.884 866.061L554.778 869.264L555.564 870.945L556.841 871.485L560.08 871.092L567.08 867.793L573.41 868.006L576.271 866.322L578.088 864.004L580.917 862.354L584.222 862.566L582.177 861.342L584.533 855.575L582.962 852.569L581.391 851.621L580.704 848.715L581 844.158L580.263 837.623L581.211 835.483L580.247 833.997L581.588 831.22L579.642 829.62L577.924 820.326L574.391 818.381L571.839 818.006L569.059 815.246L565.329 813.905L565.346 813.056L567.014 812.681L566.278 809.137L562.597 806.979L560.733 806.865L559.457 803.762L559.621 801.885L558.476 794.665L559.391 793.129L558.05 790.286L557.021 789.697L555.237 791.333L554.142 793.374L553.11 793.291L550.724 789.928V788.146L548.906 785.876L549.186 783.279L547.845 783.066L546.24 780.764L541.856 777.3L536.77 769.542L535.201 768.84L533.581 766.798L530.964 765.67L529.329 763.286L528.609 759.365L524.798 755.037L523.652 752.309L520.839 751.836L520.365 749.388L519.562 750.352L519.841 752.215H519.22L516.65 744.863L512.496 742.528L512.464 738.607L510.109 735.765L509.225 735.374L507.836 736.5L506.903 735.112L505.986 734.867L506.069 732.63L504.384 731.175L503.926 728.448L502.486 726.504L500.753 725.279L499.034 724.886L495.877 725.002L492.754 722.697L488.926 721.734L484.576 717.078L480.471 710.938L477.607 708.015L472.504 705.105L470.197 703.112L468.775 702.345L466.026 702.264L463.116 701.969L457.979 699.847L457.244 700.239L456.735 702.477L456.099 702.966L451.616 699.324L449.163 699.356L447.33 697.445L437.974 682.188L429.747 673.286L426.641 671.262L422.778 670.493L419.884 672.078L418.28 672.502L416.481 672.144L415.125 673.188L412.246 671.325L413.848 670.623L413.931 669.628L410.725 668.287L410.707 668.244L410.708 668.249L405.54 666.763L403.74 663.659L403.675 661.863L400.125 662.549L396.69 661.879L392.699 659.805L390.065 656.505L388.986 656.424L388.839 657.601L388.135 657.829L387.746 657.066L384.341 658.076L383.031 659.627L382.23 659.692L381.135 658.827L380.742 659.284L381.495 660.559L380.578 661.587L376.489 662.697L372.433 661.637L371.73 660.737L371.778 659.17L368.556 655.919L360.101 656.507L354.883 656.099L351.104 654.973L347.374 653.061L344.285 649.486H344.283L347.308 653.03L348.405 654.32L348.192 655.154L349.222 656.869L348.978 660.396L349.86 661.018L352.346 660.69L352.724 661.084L350.285 663.86L350.646 665.313L352.182 665.037L352.184 665.035L354.244 661.114L353.54 658.729L354.112 657.422L362.26 657.717L366.594 656.41L367.182 656.605L366.576 658.354L368.948 658.287L369.733 658.876L369.814 660.412L362.995 671.73L358.365 682.315L357.957 686.529L357.858 691.675L359.085 695.628L360.083 696.493L362.323 695.89L365.529 697.229L367.901 701.377L367.329 702.733L366.267 702.538L364.141 700.332L361.867 699.239L360.787 699.516L360.46 700.381L361.147 705.444L361.702 705.919L362.308 705.201L363.339 706L365.496 710.199L366.348 713.858L368.18 716.014L368.735 718.479L367.002 720.587L368.36 724.704L368.164 726.206L366.905 727.316L366.036 729.195L364.026 728.917L363.666 729.832L360.82 732.233L361.964 733.948L361.54 736.545L363.339 739.126L365.579 739.52L365.856 740.107L365.154 741.071L365.095 741.11L365.285 741.899L368.18 744.301L370.273 747.306L370.928 747.404L370.912 746.099L369.604 744.187L368.769 738.438L371.518 739.858L372.433 747.96L374.166 755.229L377.242 764.312L385.715 777.101L386.353 779.714L386.435 783.83L388.233 790.233L388.576 793.599L391.897 801.193L395.038 806.11L398.883 810.325L402.202 811.729L408.729 821.237L412.639 824.372L417.464 829.403L420.031 829.534L420.571 828.211L421.258 828.112L424.464 828.7L426.868 830.646L432.314 832.653L436.861 837.668L438.09 838.403L439.872 838.354L441.116 840.086L444.305 842.552L445.941 843.222L447.805 842.585L448.655 842.978L449.915 843.908L455.02 846.424L460.105 846.229L470.836 847.976L474.941 850.148L477.805 849.314L480.142 849.462L491.903 856.763L493.114 856.942L494.848 856.093L499.034 858.543L503.32 858.821L504.22 858.282L505.479 863.46L504.858 865.828L501.505 864.621L471.899 849.805L460.693 849.854L439.905 842.227L438.858 841.555L432.413 833.161L422.403 831.444L420.67 832.146L419.197 836.199L405 859.834L402.154 859.59L399.699 857.384L395.496 857.303L394.597 855.832L392.502 855.718L391.374 854.019L390.36 854.427L389.085 853.644L388.708 854.231L386.386 852.565L386.173 851.323L384.716 849.854L384.962 847.942L384.749 846.669L384.062 846.211L384.291 845.298L380.955 839.237L376.964 834.729L376.047 834.859L374.886 832.114L373.921 831.936L371.845 829.354H370.879L370.208 827.982L369.031 827.524L368.72 826.104L369.505 825.875L369.701 824.684L367.002 824.161L366.186 823.245L367.199 822.478L367.019 821.889L364.27 821.727L363.796 818.884L362.979 817.464L361.604 816.989L361.571 815.895L360.574 815.029L360.034 814.85L359.561 815.438L358.005 814.604L357.875 813.411L356.91 813.085L354.424 809.917L350.597 807.563L349.599 807.237L348.765 807.875L347.635 806.682L346.441 807.449L345.901 807.173L345.739 805.897L343.383 803.725L343.253 802.256L341.208 801.146L340.11 801.275L337.609 799.479L338.574 798.433L338.116 797.388L335.531 794.904L331.836 793.599L328.253 788.045L319.879 781.723L314.251 780.041L312.125 776.773L312.419 774.128L310.946 771.939L311.04 771.678L310.832 771.828L306.399 768.251L304.027 765.572L298.059 762.469L295.687 759.806L290.238 757.846L277.187 750.038L276.565 748.438L274.83 747.099L270.235 741.119L264.216 735.599L261.254 734.209L258.854 732.235L258.852 732.237L250.607 726.552L243.917 720.476L243.278 716.85L240.466 711.623L233.04 702.688L225.105 696.105L223.962 693.344L223.666 690.503L220.526 685.047L214.818 679.298L214.687 678.334L212.348 676.944L211.334 674.642V674.478L206.607 665.455L201.405 657.926L200.996 656.912L201.422 655.639L199.785 653.433L199.836 651.784L198.607 648.435L196.924 647.145L197.021 645.037L194.52 640.758L195.647 640.594L194.273 636.871L192.801 636.82L191.428 635.352L187.208 633.13L183.314 630.042L160.955 616.239L146.381 606.374L145.743 605.818L145.923 605.182L144.549 604.757L138.628 599.971L135.176 595.708L132.347 593.796L131.986 592.604L126.736 587.492L126.311 585.892L130.188 584.466L130.154 584.455L126.245 585.893L124.691 586.316L123.366 585.957L122.483 586.464L120.242 584.684L120.291 584.177L122.156 583.426L119.31 582.348L118.655 581.514L116.628 577.235L116.693 575.503L116.071 572.562H115.237L115.139 574.261L112.571 573.429L111.966 573.738L114.763 576.124L115.908 578.722L116.071 580.403L115.662 581.433L114.959 581.498L113.912 580.697L109.676 574.393L106.683 571.469L105.145 568.35L99.0273 563.253L92.9912 560.395L98.291 560.59L99.207 558.646L93.3838 558.924L91.7158 556.54L91.2578 556.996L89.9004 556.735L88.0029 555.543L87.3652 556.065L87.6924 556.457L91.1758 558.744L91.4053 559.233L90.5215 559.725L83.3906 554.171L86.2529 554.693L86.6943 554.056L86.7598 552.619L85.3203 550.903L85.3369 549.222L87.4307 548.192L89.001 546.559L88.7393 546.036L87.7246 546.673L87.5615 546.249L87.1523 543.356L87.7246 541.512L86.5801 542.312L86.7275 545.382L86.2197 546.592L83.1943 549.482L82.4902 553.403L78.2051 550.314L77.96 549.597L78.5654 548.567L77.0439 547.162L75.7842 543.341L72.5293 539.029L69.9775 537.085L64.8418 534.488L64.9072 533.915L66.2158 533.753L66.0684 533.002L55.2402 524.933L56.3525 524.197L59.4932 525.602L60.2451 526.941L64.1875 527.692L65.3975 527.137L64.7432 526.451L62.1104 525.668L60.2617 523.642L60.2451 521.616L62.2412 519.442L62.0449 518.578L58.0205 520.375L56.3525 517.729L55.1914 517.124L55.4033 515.474L53.7354 516.471L53.3096 516.128L50.9707 511.521L52.2139 509.839L50.5459 509.496L50.6934 508.14L52.083 505.771L51.5928 504.352L50.9873 504.285L50.3662 505.087L49.7607 504.433L49.1885 505.314L47.0127 505.429L44.9844 506.54L42.7598 506.458L41.4023 508.206L42.1387 508.843L43.6436 507.601L46.7998 510.247L46.5059 513.874L49.8096 515.033L51.5762 518.17L54.4062 520.538L55.0107 522.482L54.4062 523.576L47.1602 517.32L22.1504 502.016L14.4785 495.334L13.8408 491.936L14.7568 491.299L14.25 489.879L16.4248 483.818L18.6338 481.482L19.5488 478.771L26.0918 475.978L29.7402 472.401L32.1934 468.137L33.8613 462.354L34.9736 460.329L36.0859 459.496L36.7236 460.329L36.2656 461.848L35.3008 462.306L35.2031 464.152L34.042 466.684L36.8057 465.915L40.208 466.521L47.9775 472.057L54.0459 478.231L56.2539 482.92L54.1445 482.413L53.5879 482.92L53.2607 485.124L57.252 489.912L60.0654 490.336L64.9395 492.639L69.8145 493.814L71.6133 492.933L75.0322 492.639L77.7803 499.074L78.3359 498.275L78.2705 496.657L76.8477 492.655L81.1328 492.442L82.6055 493.341L82.7031 494.796L86.6943 496.69L86.5469 497.948L88.1504 500.92L89.2461 500.74L87.9053 498.536L88.1992 497.621L87.4629 496.673L87.627 495.727L83.5371 493.814L84.9932 491.464L87.5127 490.581L89.2627 490.614L94.6279 496.15L98.1934 495.727L100.876 494.027L104.409 493.848L106.159 497.033L108.008 497.294L110.493 496.462L112.129 496.886L115.744 502.7L122.188 506.18L125.836 507.536L127.047 506.197L127.21 502.718L127.701 502.016L134.179 502.782L134.637 502.619L134.293 501.852L132.968 500.936L129.975 501.623L127.815 501.263L126.851 501.965L125.755 504.89L123.792 505.642L116.562 502.26L115.499 499.563L112.865 496.003L107.059 495.48L105.063 491.903L106.077 488.882L106.896 488.114L108.907 488.522L111.083 490.254L114.91 491.071L116.873 490.482L117.724 489.242L117.511 488.687L114.566 489.747L113.274 489.567L109.562 487.607L106.519 486.955L105.129 487.478L104.621 491.185L103.624 492.344L96.7861 495.352L94.6602 495.187L93.793 493.047L90.6689 490.14L90.2764 488.687L91.5527 487.102L98.3408 484.488L99.6162 482.626L94.2354 479.18L125.362 476.565L132.723 476.518L136.37 476.794L139.887 479.31L144.025 478.46L145.17 475.014L147.051 475.716L151.304 472.612L153.921 473.087L153.872 472.222L157.52 469.803L158.779 464.479L165.485 458.386L162.558 452.031L164.504 449.516L163.997 447.948L165.502 447.146L163.49 442.101L163.408 439.798L165.878 435.648L165.895 433.148L166.958 431.776L168.07 426.991L167.562 424.965L173.647 421.258L174.891 418.514L176.069 417.403L184.982 414.969L189.595 417.518L196.139 422.32L198.607 422.498L198.608 422.499L200.31 421.848L206.982 416.979L207.751 414.447L207.769 411.082L206.23 402.148L205.724 401.543L201.144 400.023L199.852 397.444L200.424 395.483L203.875 390.958L203.924 389.195L203.303 385.633L200.946 380.34L199.296 365.819L198.249 363.436L195.107 361.932L194.861 361.361L195.042 359.14L198.166 348.75L196.058 346.872L196.057 346.873L191.951 345.29L191.542 342.889L195.91 332.956L196.121 331.73L194.879 325.9L195.941 321.228L200.112 321.017L203.482 318.925L205.265 318.435L214.769 319.284L217.37 320.281L219.725 320.134L221.72 319.153L225.729 319.645L232.401 318.108L235.607 315.691L238.192 315.757L240.776 316.262L243.116 319.627L247.729 322.013L252.65 321.587L257.133 319.269L258.375 320.02L259.587 323.418L260.747 324.136L263.35 323.532L268.354 324.055L269.729 323.743L271.837 321.898L272.59 321.98L274.11 323.646L276.581 323.956L277.742 323.515L282.617 319.627L284.27 315.674L286.559 313.044L287.116 310.447L286.265 307.508L286.738 306.724L290.715 304.73L291.564 302.003L296.227 298.949L298.155 295.404L300.609 293.558L302.099 290.259L306.04 288.232L307.35 285.685L309.213 284.705L308.412 281.094L308.724 279.821L309.18 279.281L314.562 278.465L318.733 275.525L319.027 273.988L315.903 271.571L316.182 269.17L321.792 266.819L325.538 263.797L327.565 262.849L331.59 262.555L333.177 261.788L338.967 261.885L343.334 260.219L344.446 261.461L344.756 263.797L343.856 266.802L341.583 271.082L341.142 274.169L342.68 277.746L356.011 287.988L359.789 291.582L361.424 294.194L365.154 295.779L366.135 295.062L366.429 292.889L367.722 291.336L372.481 291.876L374.919 293.102L376.375 295.143L376.244 300.354L378.55 302.492L379.45 304.992L380.595 305.449L381.412 307.165L382.803 307.784L386.729 307.949L390.704 306.871L392.225 307.394L393.73 309.435L393.725 309.441L393.73 309.437L396.052 307.852L397 304.944L396.15 302.396L391.832 299.455L393.254 293.15L393.011 284.069L394.04 282.729L396.526 282.614L398.112 281.798L400.763 278.874L402.17 278.107L404.754 278.45L408.059 280.035L410.986 277.666L412.18 273.141L413.784 272.699L417.938 273.435L419.982 271.41L422.715 270.609L424.791 267.392L426.641 267.244L427.735 266.526L428.881 263.161L431.841 262.605L431.742 265.235L432.807 266.02L439.381 266.379L440.052 263.585L441.443 263.227L442.112 259.307L442.865 258.343L443.782 259.829L444.877 260.024L445.336 256.938L447.527 259.453L448.101 257.002L449.816 257.247L450.291 255.45L452.057 254.552L452.533 253.164L453.595 253L455.148 254.765L456.359 254.128L457.979 254.372L458.633 252.576L460.024 252.511L460.63 251.448L462.493 250.632L462.919 249.112L464.13 248.346L463.524 244.36L467.581 240.439L467.908 239.605L467.237 237.793L468.269 236.52L468.481 233.742L467.105 232.076L467.531 230.917L469.298 230.524L469.822 232.437L471.882 232.73L475.022 229.021L475.562 226.556L477.574 226.016L479.751 224.547L481.713 224.562L483.807 225.706L487.39 223.975L493.621 223.893L496.435 224.823L498.545 224.139L500.753 224.89L503.353 224.04L504.352 225.854L505.365 225.952L506.019 225.346L511.057 216.722L509.863 215.251L507.426 214.746L507.065 214.239L506.511 209.796L504.693 210.336L502.534 208.081L502.027 204.062L498.936 203.475L497.792 201.988L501.473 197.398L503.697 191.502L505.218 189.395L507.065 183.04L512.48 177.339L513.561 173.926L514.77 172.651L514.704 169.63L513.74 167.556L514.46 165.514L512.415 161.789L512.841 161.055L515.064 160.842L517.208 159.062L519.693 160.237L523.488 165.138L524.453 165.285L526.09 164.06L528.543 164.272L530.227 162.067L533.222 160.613L537.13 154.651L536.956 154.38L536.836 154.387L534.35 154.109L533.989 153.407L536.655 150.712L537.13 149.372L536.23 147.51L532.599 145.06L532.109 143.524L532.484 142.414L533.794 141.467L536.034 141.695L537.72 138.608L536.655 137.71L536.77 135.864L540.009 132.613L542.708 130.979L544.687 128.497L546.78 127.958L549.872 125.116L556.269 123.793L556.758 120.967L558.722 118.174L559.556 115.87L562.155 113.42L565.754 113.257L569.812 113.894L574.031 111.346L577.744 110.627L579.609 111.754L581.031 111.771L581.915 113.143L583.011 113.42L583.682 116.589L585.072 118.614L590.52 122.11L591.011 123.924L590.159 125.132L588.426 124.789L587.247 125.998L588.195 127.37L589.292 127.647L591.632 126.521L592.253 127.958L591.32 130.326L592.058 133.169L596.784 137.301L598.845 137.775L600.251 143.214L602.05 143.361L604.962 138.118L606.059 138.461L605.846 139.556L606.989 140.797L609.166 141.989L613.5 141.074L614.45 143.149L617.868 143.328L621.139 144.668L622.758 144.047L624.41 145.55L626.881 144.881L628.599 146.317L629.906 145.436L635.664 144.815L635.91 145.534L634.993 146.742L633.244 147.298L633.733 149.879L636.318 149.601L638.33 148.735L639.099 148.947L639.345 150.304L640.883 151.446L646.574 152.754L647.163 152.558L648.8 149.601L653.641 149.274L658.187 146.971L658.498 144.864L663.455 140.144L664.599 137.416L666.529 135.161L666.398 133.822L667.117 133.201L669.229 134.721L671.354 135.227L669.816 138.428L669.801 139.768L670.341 140.404L671.747 141.14L674.576 141.418L675.771 141.042L676.507 139.801L678.012 139.277L679.173 140.241L679.762 142.773L680.547 143.573L683.998 144.651L688.791 140.715L687.237 139.277L687.843 136.06L685.944 131.78L686.224 129.117L687.024 128.023L691.883 124.642L693.763 124.822L695.088 125.867L693.861 129.313L695.825 130.212L698.312 132.45L703.413 134.018L710.056 132.858L711.348 131.307L713.489 130.392L719.46 131.11L719.329 128.023L717.874 126.912L715.601 121.457L715.699 119.807L716.5 118.713L719.346 118.435L721.701 119.104L722.159 119.823L722.175 124.315L722.633 124.871L723.581 125.051L728.587 122.535L729.291 122.633L730.239 127.06L733.462 127.893L738.141 125.688L742.671 127.566L747.677 125.442L748.625 125.459L750.571 126.912L752.142 127.011L752.469 126.227L750.883 122.421L751.291 121.882L753.81 121.996L754.922 121.064L758.668 123.728L760.482 123.041L759.943 122.094L760.614 119.513L761.253 119.366L762.186 120.248L762.921 123.172L765.619 121.963L767.974 122.159L771.099 118.745L778.836 118.092L774.469 115.348L774.239 114.711L775.105 114.253L779.016 115.887L780.374 115.037L780.406 113.077L780.962 112.538L783.137 114.694L785.265 115.037L785.673 114.024L785.395 112.212L786.524 110.741L790.679 112.31L790.547 110.889L789.467 109.451L790.105 109.141L792.15 109.418L793.737 108.978L795.536 110.268L796.715 110.284L796.502 109.255L797.074 107.851L794.26 106.707L794.979 105.775L796.565 105.646L797.762 104.714L797.564 102.117L798.284 101.97L799.756 103.261L803.339 101.12L805.693 101.234L806.74 100.304L808.081 100.32L810.747 100.762L811.451 101.479L811.338 103.375L812.417 104.42L813.137 104.044L812.547 101.904L814.493 99.2588L813.561 98.1475L813.578 97.2822L817.618 96.0898L817.029 93.6396L818.926 93.5254L820.562 94.5049L822.312 93.5088L824.193 94.2441L824.684 88.9844L825.486 88.5264L827.76 89.0332L828.168 88.249L826.713 85.7822L827.187 85.4717L829.607 86.7793L830.081 86.3867L828.854 84.7861L828.119 81.6992L828.854 80.376L831.193 81.9932L831.979 81.7646L831.064 80.0166L830.785 77.8936L831.358 77.1904L833.533 79.1182L834.367 77.0107L835.74 75.3779L838.604 74.332L840.239 75.1328L840.19 77.7461L843.298 80.1631L845.751 79.6572L848.86 77.5176L851.771 77.4189L854.978 74.4795L855.271 69.2031L856.76 69.4805ZM523.211 744.128L522.841 746.189L524.611 743.89L523.211 744.128ZM273.613 576.812L273.637 576.841L276.042 577.462L276.63 578.23L275.616 579.699L276.386 580.86L275.159 582.02L275.601 583.031L275.175 583.392L271.381 581.971L265.426 584.046L264.967 584.682L259.308 585.809L255.612 587.492L252.701 589.713L251.262 591.836L249.511 596.279L246.37 599.073L245.225 599.481L239.632 599.154L230.193 594.955L229.375 594.237L229.556 593.764L230.814 593.601L230.979 593.028L229.67 591.313L226.661 592.457L223.846 595.103L224.175 596.786L225.336 598.288L224.271 604.267L226.758 607.926L228.067 612.336L229.948 613.479L233.121 613.675L237.146 614.753L242.052 618.053L245.896 618.887L248.929 620.817L243.099 626.024L243.078 626.071L248.929 620.823L253.208 621.816L258.704 626.097L262.989 627.926L267.275 623.041L272.164 619.988L277.661 619.382L283.173 619.988L287.443 627.926L289.291 629.15L288.67 634.034L285.61 637.09L283.173 638.314L281.325 644.424L295.408 645.027L301.509 641.368H319.861L320.482 625.491L322.921 621.213V617.554L324.147 613.273L319.256 612.049L314.971 609.599L311.307 610.823L307.626 616.329L306.417 616.933L305.19 618.761L300.905 619.382V610.22L297.24 604.715L294.787 599.227L289.896 592.512L288.064 582.124L284.384 576.016L273.613 576.812ZM777.969 430.586L773.83 437.839L771.753 442.788L771.623 443.947L771.742 444.112L771.852 443.146L773.929 438.198L778.067 430.945L777.724 429.54L777.712 429.534L777.969 430.586ZM546.258 201.628L546.316 201.662L546.295 201.597L546.258 201.628Z" fill="white"/>
<path d="M550.543 847.212L554.664 847.293L554.026 849.531L556.545 850.789L555.957 851.9L553.912 851.802L548.253 847.196L547.19 845.104L550.543 847.212Z" fill="white"/>
<path d="M536.428 838.652L537.507 838.686L538.08 841.234L539.307 843.275L538.26 843.912L535.69 844.044L531.275 847.196L529.263 843.062L530.784 839.878L529.933 837.199L530.767 836.758L533.843 837.379L534.088 836.464L534.823 836.35L536.428 838.652Z" fill="white"/>
<path d="M528.87 841.576L528.085 843.78L528.101 846.329L527.381 846.575L525.91 844.206L526.924 842.508L527.038 840.907L529.05 839.616L528.87 841.576Z" fill="white"/>
<path d="M544.72 843.993L545.391 844.713L545.668 845.122L545.424 845.464L543.247 845.056L542.282 845.562L542.036 845.154L542.642 843.732L542.103 841.495L544.016 841.021L544.753 840.205L544.72 843.993Z" fill="white"/>
<path d="M430.647 763.054L431.17 764.114L431.202 765.356L430.188 768.818L431.007 775.419L431.856 778.424L434.294 780.906L437.19 780.563L438.727 781.135L441.933 780.072L445.482 781.446L446.383 780.841L446.464 779.682L447.625 780.009L448.067 780.922L448.377 783.014L450.471 785.301L451.109 787.946L451.37 791.034L450.455 794.872L448.737 796.751L445.974 797.993L442.391 799.365L439.986 799.512L437.353 798.972L435.08 797.747L433.346 795.265L430.63 792.978L429.061 788.321L430.123 784.484L429.486 783.209L425.592 780.105L423.498 779.354L419.246 779.453L419.164 781.429L417.316 782.327L416.139 781.054L414.666 780.841L410.872 783.209L409.072 783.406L404.46 780.792L400.943 777.509L401.188 776.056L404.688 770.469L404.917 767.626L406.716 765.96L412.491 763.054L418.15 761.42L420.85 761.502L422.943 760.079L426.688 759.917L430.647 763.054Z" fill="white"/>
<path d="M375.655 725.374L376.406 726.354L378.026 726.876L383.114 726.975L383.489 725.275L385.142 725.831L386.353 727.611L386.303 730.552L387.76 732.756L387.285 736.301L384.471 737.331L375.359 736.105L371.893 737.968L370.405 737.919L369.832 737.217L370.354 735.026L370.879 735.092L371.419 736.367L372.433 736.089L372.367 735.386L371.287 733.573L368.867 731.63L370.061 730.813L370.175 729.914L372.187 727.905L371.73 725.831L373.365 725.815L374.429 724.753L375.655 725.374Z" fill="white"/>
<path d="M794.784 677.496L791.398 683.965L790.744 691.104L791.512 697.702L792.444 700.005L794.064 701.998L794.146 703.223L794.325 704.285L793.05 702.799L789.583 700.936L788.177 695.121L789.157 690.891L788.144 687.312L788.388 685.697L790.597 683.214L790.924 679.669L793.263 677.316L794.784 677.496Z" fill="white"/>
<path d="M115.63 583.426L117.887 585.632L118.345 587.428L120.324 587.754L123.007 589.715L131.332 593.291L131.938 592.621L132.298 593.814L135.127 595.725L138.578 599.988L134.768 598.616L121.895 589.519L118.623 588.178L113.945 585.043L114.615 584.275L115.482 584.749L114.861 583.524L115.123 583.116L115.63 583.426Z" fill="white"/>
<path d="M95.4453 480.633L98.7822 482.888L98.2422 483.524L94.0059 484.848L91.1104 486.433L88.7881 489.388L82.9814 489.942L74.5576 489.585L72.4473 488.522L71.9082 487.052L78.5 482.527L83.832 480.699L86.3018 479.276L95.4453 480.633Z" fill="white"/>
<path d="M823.899 344.046L823.948 345.94L821.33 349.584L819.941 349.927L819.482 349.29L820.874 347.721L820.088 346.153L823.424 343.752L823.899 344.046Z" fill="white"/>
<path d="M985.652 193.654L986.159 200.874L983.296 205.629L978.799 205.857L977.801 204.6L975.184 203.945L971.455 205.17L971.144 204.696L971.962 203.472L974.431 202.23L974.971 200.483L977.114 197.755L977.393 195.402L978.668 193.997L980.482 193.295L982.872 193.997L984.884 193.295L985.652 193.654Z" fill="white"/>
<path d="M902.004 83.0869L899.254 83.6758L896.312 83.2998L895.967 82.793L896.312 82.4502L899.37 83.1035L902.396 82.3037L902.004 83.0869Z" fill="white"/>
<path d="M905.863 76.292L905.062 77.207L903.426 80.3926L902.838 80.0166L903.132 78.5137L902.756 78.2363L902.199 79.5098L901.233 79.3301L901.381 77.583L905.52 75.3936L905.863 76.292Z" fill="white"/>
<circle id="488" cx="293" cy="659" fill="#5CE50D"/>
<circle id="489" cx="164" cy="579" fill="#E52A0D"/>
<circle cx="293" cy="447" fill="#E52A0D"/>
<circle id="1633" cx="860" cy="251" fill="#E52A0D"/>
</svg>
