<svg width="1000" height="1000" viewBox="0 0 1000 1000" fill="none" xmlns="http://www.w3.org/2000/svg">
<path d="M721.68 2.44184C718.848 4.00434 715.625 4.78559 712.598 4.88324C705.762 4.88324 692.383 8.59418 688.769 11.3286C685.84 13.5747 684.375 17.5786 686.426 17.5786C686.914 17.5786 687.695 18.4575 687.988 19.5317C688.769 22.1684 690.234 21.9731 693.359 19.0434C695.312 17.1879 697.754 16.4067 705.469 15.2348C712.305 14.1606 715.723 13.184 717.187 11.8168C718.359 10.7426 720.996 9.08246 723.144 8.20356C728.418 6.05512 732.422 3.12543 732.422 1.36762C732.422 -0.780819 726.66 -0.194881 721.68 2.44184Z" fill="white"/>
<path d="M837.011 16.0134C835.839 17.3806 833.691 17.5759 823.339 17.3806L811.035 17.0876L796.875 23.2399C785.839 28.0251 780.957 29.5876 774.902 30.3688C770.605 30.8571 764.648 31.736 761.621 32.2243C758.691 32.8102 754.297 33.2009 752.05 33.2009C749.023 33.2009 746.386 34.0798 743.261 36.0329C735.058 41.0134 732.91 41.404 723.535 39.6462C718.945 38.7673 713.086 38.0837 710.449 38.0837H705.664L708.496 41.0134C711.035 43.6501 711.132 43.9431 709.375 43.9431C708.3 43.9431 706.543 43.2595 705.468 42.4782C702.734 40.3298 702.148 40.7204 702.148 44.3337C702.148 48.5329 704.98 50.779 710.156 50.779H713.867L713.281 54.6852C712.597 58.9821 712.207 58.6891 720.8 60.447C725.683 61.5212 726.757 62.2048 730.078 66.404C732.226 69.0407 734.961 71.3845 736.328 71.7751C738.476 72.361 738.574 72.5563 737.011 73.3376C734.961 74.5095 730.175 71.4821 728.32 67.7712C727.441 65.9157 725.39 64.6462 721.289 63.279C715.039 61.2282 712.89 61.4235 712.89 64.1579C712.793 65.1345 711.718 63.7673 710.254 61.1306L707.812 56.2477L706.445 58.6891C705.468 60.447 705.175 60.6423 705.078 59.2751C705.078 57.2243 702.343 57.029 701.464 59.1774C701.172 59.9587 701.953 61.7165 703.222 63.1813L705.566 65.7204L703.125 65.1345C701.757 64.7438 700.195 64.4509 699.511 64.4509C698.828 64.4509 698.047 62.7907 697.754 60.7399C697.363 58.7868 696.679 55.1735 696.093 52.7321C695.312 49.2165 695.41 47.654 696.582 44.822C699.023 38.9626 698.242 38.6696 682.422 39.3532C668.066 40.0368 662.304 41.2087 644.531 46.6774C635.644 49.5095 602.148 66.111 591.699 73.0446C588.574 75.0954 585.547 76.1696 580.957 76.6579C573.632 77.4391 570.312 79.5876 565.039 86.7165C563.086 89.4509 557.714 94.236 552.539 97.947C547.558 101.56 542.48 105.271 541.308 106.15C538.281 108.591 536.23 115.916 535.156 128.025C534.082 139.841 533.3 142.38 529.297 147.459C525.683 151.951 525.293 157.908 528.32 162.107C531.25 166.209 529.394 166.502 525.195 162.4C523.144 160.447 521.289 159.08 520.996 159.373C520.312 160.056 526.757 173.24 529.394 176.56C530.761 178.416 530.957 179.978 530.566 185.838C530.175 191.111 530.371 193.748 531.445 195.798C532.324 197.459 533.203 200.779 533.593 203.22C534.179 207.322 534.082 207.81 532.226 208.298C530.273 208.787 530.175 209.275 530.761 214.353L531.445 219.822L526.464 224.412C523.73 226.951 521.484 229.685 521.484 230.466C521.582 233.103 523.828 236.13 528.32 239.646C533.105 243.455 537.89 244.236 540.039 241.697C541.699 239.646 548.437 239.841 551.562 241.99C559.179 247.263 568.847 248.533 572.461 244.92C573.73 243.65 575.39 242.869 576.367 242.966C577.246 243.162 579.297 242.576 580.957 241.795C584.57 239.841 585.937 239.841 585.937 241.697C585.937 243.943 589.257 245.115 595.703 245.115C601.172 245.115 601.562 245.213 600.683 246.97C599.902 248.24 598.242 248.923 594.336 249.216C589.746 249.607 588.672 250.095 586.23 252.927C584.765 254.685 583.203 257.029 582.812 258.005C582.422 258.982 580.371 262.302 578.222 265.427L574.414 271.091L573.73 290.623L573.047 310.056L576.855 315.33C578.906 318.259 583.007 322.459 585.937 324.802L591.308 329.002L603.027 329.197C613.964 329.392 615.527 329.197 625.976 325.974C632.129 324.021 640.918 321.97 645.41 321.287C653.906 320.017 653.906 319.92 659.472 313.377C660.937 311.716 661.132 311.716 664.941 313.767C667.187 314.939 668.847 316.599 668.847 317.38C668.847 318.162 667.187 320.213 665.136 321.97C661.816 324.802 660.937 325.095 651.855 325.681C642.968 326.17 633.886 327.927 628.222 330.173C626.464 330.857 625.976 331.834 625.976 334.373C625.976 336.228 625.39 337.986 624.804 338.279C623.828 338.767 623.828 338.963 624.804 339.451C626.757 340.33 630.371 349.314 631.836 356.541C633.105 362.791 633.007 363.279 630.273 371.189C624.804 387.009 610.351 405.076 600.586 408.298C598.73 408.982 595.312 411.13 592.968 413.181C590.625 415.232 587.597 416.99 586.132 417.185C584.472 417.38 582.812 418.65 581.543 420.505C580.468 422.166 577.929 424.802 575.879 426.267C571.679 429.197 569.14 434.177 567.285 442.673C566.211 447.459 565.429 448.923 562.109 451.658C558.691 454.392 556.25 455.271 545.214 457.615L532.324 460.252L526.757 455.466C521.972 451.463 520.312 450.584 516.211 450.193C511.425 449.705 511.132 449.509 508.496 444.627C505.175 438.377 501.757 437.009 491.992 437.791C488.281 438.084 482.812 437.986 479.687 437.498C474.707 436.716 473.632 436.13 469.726 431.638C466.113 427.634 464.746 426.755 462.109 426.755C460.254 426.755 457.519 427.537 456.054 428.416C453.711 429.783 453.027 429.783 451.757 428.709C450.879 428.025 450.293 426.755 450.39 425.877C450.586 424.705 449.804 424.216 447.265 424.021C443.066 423.63 438.086 420.017 438.964 417.966C439.257 417.185 441.797 415.427 444.433 414.158C448.047 412.498 450.097 410.642 452.246 407.322C453.808 404.783 456.152 402.146 457.519 401.56C458.886 400.974 459.961 399.607 459.961 398.63C459.961 396.189 469.043 387.693 471.679 387.693C474.414 387.693 474.121 385.154 470.996 381.443C469.433 379.783 467.578 377.244 466.699 375.974L465.039 373.533L465.527 376.17C466.113 379.099 463.574 388.279 461.425 391.013C460.254 392.576 459.765 392.673 458.496 391.599C457.617 390.818 455.957 388.572 454.882 386.423C452.832 382.322 453.418 380.857 457.324 380.857C458.593 380.857 458.984 379.978 458.984 376.853C458.984 374.412 459.863 371.482 461.035 369.529L462.988 366.209L460.449 363.865C458.496 362.107 457.519 359.666 456.347 353.806C455.566 349.607 454.297 345.505 453.613 344.724C451.855 342.673 448.242 331.248 448.242 327.927C448.242 326.365 448.925 323.728 449.804 322.068C451.269 319.236 451.562 319.138 456.054 319.627C458.886 320.017 461.132 319.724 461.816 319.041C463.281 317.576 469.726 320.701 470.41 323.24C470.8 324.802 471.777 325.193 475.293 325.193C479.004 325.193 480.664 324.412 486.523 320.115C493.359 315.037 495.117 312.595 495.117 308.005C495.117 304.197 499.218 300.779 503.613 300.779C506.738 300.779 507.714 300.291 508.984 298.045C510.449 295.505 510.449 295.31 508.203 292.673C506.933 291.111 505.859 288.67 505.859 287.107C505.859 281.443 504.199 279.588 498.535 278.806C495.605 278.513 492.773 277.537 492.089 276.755C491.504 275.974 489.746 275.388 488.183 275.388C486.035 275.388 485.058 276.072 483.886 278.318C482.714 280.662 481.738 281.248 479.199 281.248C474.707 281.248 472.168 279.099 470.703 274.021C469.531 269.822 469.726 260.349 471.289 251.755C472.168 246.677 467.968 235.447 462.402 228.123C459.961 224.802 457.519 220.115 456.64 216.795C455.078 211.423 454.882 211.13 451.367 210.545C441.894 208.982 436.718 210.447 433.203 215.818C431.836 217.966 428.418 220.994 425.683 222.556C421.582 224.9 420.214 225.193 417.675 224.509C415.918 224.119 412.89 223.435 410.839 223.142C405.371 222.263 399.414 216.599 399.414 212.302C399.414 210.447 399.902 208.201 400.488 207.224C401.269 205.955 401.367 204.49 400.683 202.537C399.609 199.216 396.093 198.435 389.648 200.193C383.886 201.755 381.836 205.466 381.836 214.841C381.836 222.361 377.343 246.873 374.609 254.783C373.73 257.127 371.582 261.521 369.726 264.548C366.992 269.138 366.406 271.287 365.918 277.83C365.625 282.127 364.648 287.693 363.769 290.232C362.402 294.041 362.304 296.287 363.086 303.416C363.867 311.13 363.769 312.205 362.109 314.353C360.742 316.209 360.351 318.357 360.351 324.705C360.351 329.392 359.765 334.47 358.886 336.912C358.105 339.158 356.933 343.943 356.347 347.459C355.859 351.072 354.101 358.103 352.636 363.279C351.074 368.357 349.511 375.193 349.218 378.416C347.949 388.67 344.824 399.509 338.671 414.548C332.324 429.88 310.254 472.752 303.418 482.908C297.461 491.795 288.671 503.123 285.644 505.857C284.179 507.224 280.468 511.326 277.441 515.134C274.414 518.845 267.48 526.365 261.914 531.638C256.25 537.205 251.269 542.869 250.293 545.017C249.316 547.361 247.949 548.826 246.972 548.826C243.945 548.826 240.234 551.072 240.234 552.83C240.234 553.904 243.457 556.541 249.218 560.056C254.199 563.181 260.058 567.088 262.207 568.748C268.75 574.021 277.929 579.978 280.566 580.564C281.933 580.955 283.984 582.224 285.156 583.494L287.207 585.74L281.543 584.47C278.418 583.884 274.218 582.322 272.265 581.15L268.554 578.904V581.736V584.47L264.648 580.076C262.5 577.634 259.472 574.021 258.105 571.873C254.785 567.185 251.367 565.72 248.925 567.966C247.363 569.431 247.07 569.431 247.07 568.162C247.07 566.599 243.457 561.521 242.382 561.521C239.941 561.619 239.355 563.279 240.136 568.162C240.82 572.654 240.722 573.24 239.16 573.24C236.132 573.24 233.691 568.455 234.179 563.474C234.375 561.033 235.058 558.591 235.546 557.908C236.621 556.541 233.203 552.732 230.859 552.732C223.73 552.732 221.191 565.623 226.171 576.56C228.418 581.443 228.515 582.322 227.441 585.349C226.367 588.474 226.464 588.963 228.808 591.795C232.714 596.384 233.398 601.17 230.957 606.736C230.371 608.103 230.761 608.396 233.203 608.396C234.863 608.396 236.621 608.982 237.011 609.763C237.89 611.228 244.14 613.279 247.851 613.279C251.464 613.279 267.187 623.923 269.433 627.927C272.363 633.201 275.293 635.252 282.714 637.693C286.523 638.963 293.261 641.795 297.851 644.041C302.441 646.287 308.593 648.923 311.523 649.802C314.453 650.779 318.847 652.244 321.289 653.025C336.816 658.396 340.625 658.201 349.707 651.755C353.125 649.412 357.226 646.677 358.789 645.701C360.351 644.822 363.086 642.771 364.843 641.209L368.164 638.474V641.99C368.164 643.943 368.457 645.505 368.945 645.505C370.312 645.505 379.394 639.841 381.25 637.791C384.082 634.666 384.961 635.349 383.105 639.158C380.664 644.334 382.422 644.431 387.109 639.353C391.601 634.47 393.75 633.494 392.871 636.716C392.382 638.572 392.675 638.67 396.582 638.084C398.925 637.791 401.464 637.302 402.148 637.107C403.125 636.814 403.222 637.302 402.734 638.865C402.246 640.623 402.441 640.818 403.906 640.134C404.98 639.744 406.933 639.158 408.496 638.865C411.816 638.377 412.207 640.916 408.984 642.673L406.933 643.845L409.082 644.92L411.23 646.091L409.179 647.947C408.007 649.021 407.324 650.584 407.519 651.56C408.007 653.123 407.324 653.318 402.929 653.318C400.097 653.318 395.41 652.634 392.48 651.755C389.16 650.681 383.691 650.095 377.441 650.193C367.675 650.193 367.675 650.193 357.422 655.076C347.07 660.056 337.597 663.084 332.226 663.084C330.664 663.084 327.441 662.4 325.195 661.619C320.8 660.056 315.722 659.763 310.644 660.74C308.3 661.228 306.836 662.595 304.199 666.99C301.171 671.97 300.097 672.849 292.773 676.365C285.351 679.88 283.886 680.173 275 680.466C266.015 680.857 265.039 680.662 258.886 677.927C249.414 673.533 245.605 673.045 242.578 675.877C239.746 678.513 239.55 680.759 242.089 683.005C243.164 683.982 244.238 685.838 244.629 687.205C245.214 689.548 245.312 689.646 251.757 688.963C256.543 688.572 258.691 688.67 259.863 689.646C261.621 691.013 264.648 698.24 264.648 700.974C264.648 701.853 266.211 703.611 268.066 704.88C272.168 707.42 272.265 709.08 269.433 717.673C267.48 723.435 267.48 723.826 269.043 725.584C270.019 726.658 271.582 727.732 272.558 728.025C273.632 728.416 274.414 729.295 274.414 730.173C274.414 730.955 275.195 732.81 276.269 734.177C277.246 735.642 279.101 739.158 280.273 741.892C282.812 747.752 282.031 749.998 277.441 749.998C276.074 749.998 273.437 750.388 271.679 750.877C269.921 751.463 262.988 751.951 256.347 752.146L244.238 752.439L239.843 748.142C237.402 745.701 233.886 740.916 232.031 737.4C226.074 726.072 220.41 721.482 209.668 719.138C205.468 718.162 202.148 716.99 202.148 716.306C202.148 715.623 201.269 714.353 200.293 713.474C198.535 711.912 196.386 711.716 179.98 712.107C160.351 712.4 159.961 712.498 152.929 718.162C148.535 721.677 145.019 721.189 144.043 716.892C143.75 715.33 142.578 713.279 141.504 712.302C137.89 708.982 132.812 701.463 132.812 699.314C132.812 695.115 135.449 696.189 142.382 703.123C148.632 709.275 149.316 710.252 148.73 712.888C148.046 716.599 149.121 716.599 153.808 712.888C155.859 711.228 158.691 709.568 160.058 709.275C163.574 708.298 177.441 708.396 181.836 709.373C184.57 710.056 186.425 709.763 189.16 708.494C191.211 707.517 193.164 706.345 193.457 705.857C193.847 705.271 192.48 701.755 190.527 697.849L186.914 690.916L174.804 691.111C168.066 691.306 158.203 691.599 152.832 691.892C147.461 692.283 137.793 692.576 131.347 692.771C117.675 693.064 120.117 691.99 99.023 706.052C96.777 707.615 93.9449 709.08 92.6754 709.47C86.7184 711.326 85.1559 716.404 89.1598 720.701C90.4293 722.068 94.3355 724.998 97.7535 727.341C103.125 730.759 104.785 732.615 108.398 738.865C113.769 748.24 115.625 749.509 124.511 749.509C130.566 749.509 131.836 749.119 136.132 746.384C141.601 742.771 144.531 742.185 143.945 744.92C143.457 746.97 144.238 748.045 147.754 750.291C149.414 751.365 150.39 752.83 150.39 754.295C150.39 757.517 153.515 759.861 158.886 760.838C161.425 761.326 164.062 762.302 164.55 763.084C165.136 763.767 166.894 765.037 168.554 765.916C170.214 766.795 172.07 768.162 172.754 768.943C174.414 770.994 176.66 770.896 179.004 768.845C180.273 767.576 182.617 767.088 186.718 766.99C193.457 766.892 193.554 766.795 195.898 757.81C197.851 750.388 200.976 746.482 206.347 745.017C210.449 743.943 209.179 743.162 221.972 754.002C231.64 762.107 237.89 765.72 244.336 766.795C250.097 767.869 250.879 767.771 253.515 765.916C255.273 764.646 258.496 763.767 262.109 763.474L267.773 762.986L269.238 766.306C270.214 768.845 270.312 770.017 269.531 770.994C267.675 773.142 277.929 774.998 283.789 773.533C288.476 772.361 289.941 772.947 290.039 775.974C290.039 777.048 297.07 781.345 300.683 782.42C302.05 782.81 304.492 782.517 306.738 781.541C310.351 780.173 310.546 779.783 310.546 775.877C310.546 772.947 309.961 771.287 308.496 769.92C304.004 765.818 302.636 760.154 304.785 754.099C305.566 751.658 305.468 750.681 304.101 748.533C303.222 747.166 302.636 745.896 302.832 745.701C303.027 745.505 310.449 742.869 319.238 739.841L335.351 734.275L338.086 737.009L340.82 739.744L338.379 744.92C335.254 751.658 335.254 754.392 338.379 756.443C340.625 757.908 341.015 757.908 342.578 756.638C345.605 754.002 349.218 753.709 352.734 755.857C356.25 758.005 360.742 758.396 364.648 756.834C366.699 756.052 367.187 755.271 367.187 752.634C367.187 748.728 368.359 747.068 373.828 743.748C376.172 742.283 379.004 739.548 380.078 737.693C382.519 733.494 386.425 731.443 393.066 730.759C399.707 730.076 404.004 731.834 405.175 735.838C407.031 741.99 407.129 743.845 405.761 745.798C404.98 746.873 403.906 749.802 403.222 752.341C402.343 755.955 401.757 756.834 400.488 756.345C397.851 755.271 391.797 754.588 390.234 755.173C387.89 756.15 390.234 760.447 393.457 761.033C400.683 762.498 408.105 762.791 411.914 761.814C415.918 760.642 416.015 760.74 419.043 764.158C420.703 766.013 422.754 767.576 423.535 767.576C425.879 767.576 439.257 755.076 441.308 751.072C442.382 749.119 443.652 745.701 444.238 743.455C444.922 741.111 446.484 738.474 447.949 737.302L450.488 735.252L453.027 737.693C454.394 739.06 456.738 740.33 458.105 740.72C460.351 741.306 460.742 742.088 461.718 747.459C463.281 755.662 463.183 760.838 461.425 763.084C459.277 765.916 459.668 769.92 462.207 773.142C466.601 778.513 472.656 789.158 473.437 792.771L474.218 796.384L482.91 797.654C489.843 798.63 492.187 799.412 494.043 801.267C496.289 803.513 496.386 803.904 495.41 809.275C494.824 812.4 494.629 815.33 495.019 815.72C496.191 816.892 517.675 814.451 520.8 812.791C522.949 811.716 524.218 811.619 526.269 812.4C527.636 812.986 530.664 813.865 532.91 814.353C536.718 815.134 537.207 815.037 538.574 812.791C539.453 811.423 542.285 809.47 544.922 808.396C547.754 807.224 549.804 805.662 550.097 804.49C550.586 802.83 551.172 802.634 553.906 803.22C558.203 804.197 557.91 803.904 563.086 810.642C567.089 815.818 567.675 817.185 568.066 822.556C568.652 829.685 569.336 830.369 578.613 832.517C582.422 833.396 586.132 834.373 587.011 834.568C587.89 834.861 589.257 836.423 589.941 838.084C592.089 843.259 595.8 844.724 607.129 844.724H616.992L618.164 848.338C618.847 850.388 619.726 852.439 620.117 852.83C620.507 853.318 623.144 852.537 625.879 851.17L630.859 848.63L631.738 850.779C633.886 856.736 633.789 857.908 630.761 860.838C626.367 864.939 625.488 867.966 627.929 870.603C630.468 873.338 630.468 873.728 626.953 875.486C624.609 876.755 624.121 877.439 624.609 879.295C625.39 882.713 622.656 888.474 620.019 888.865C618.652 889.06 616.992 890.525 615.82 892.478L613.867 895.798L616.992 898.435C620.898 901.658 620.703 902.341 613.672 911.814C607.129 920.603 606.933 923.826 612.793 924.998C615.82 925.486 615.625 927.83 611.621 934.959C608.691 940.232 607.226 941.892 604.297 943.064C601.855 944.041 600.39 945.408 599.609 947.556C598.925 949.314 598.144 951.463 597.851 952.341C597.461 953.22 595.605 955.076 593.75 956.345C590.527 958.494 590.332 958.884 590.332 964.451C590.332 970.994 592.187 974.314 597.363 977.244C601.953 979.685 602.441 983.396 600 994.334C599.511 996.58 599.707 997.068 601.269 997.068C602.343 997.068 604.004 996.482 604.98 995.701C606.64 994.529 607.129 994.529 609.179 996.189C612.207 998.533 612.89 998.045 613.672 993.259C614.55 987.693 616.504 987.498 622.265 992.673L627.148 997.068L631.054 995.017C634.082 993.455 635.254 993.259 636.328 994.236C637.597 995.31 640.625 995.115 645.214 993.65C646.875 993.064 647.363 993.455 647.656 995.31C647.851 996.97 648.437 997.459 649.902 997.166C650.976 996.97 655.078 996.58 658.984 996.384C665.429 995.994 666.504 996.189 668.457 998.045C670.312 999.802 671.289 999.998 673.437 999.314C674.902 998.826 676.464 997.459 676.855 996.384C678.027 993.259 674.023 986.228 670.117 984.373C668.164 983.494 666.992 982.224 666.992 980.955C666.992 979.197 667.48 979.002 672.265 979.295C678.613 979.685 679.687 978.123 676.953 972.556L675.097 968.845L678.418 965.134C681.543 961.716 681.933 961.619 684.765 962.693C686.523 963.279 687.89 963.767 687.89 963.572C687.988 963.474 688.769 961.716 689.843 959.763C691.601 956.345 691.601 955.955 690.039 953.611C688.769 951.755 688.476 949.998 688.964 947.361C689.257 945.408 689.16 942.576 688.574 941.111C687.597 938.474 681.64 934.08 678.125 933.396C676.66 933.201 676.074 931.931 675.586 927.732C674.902 922.556 675 922.263 677.734 919.822C680.664 917.38 680.664 917.283 678.711 915.525C677.148 914.158 676.074 913.963 673.144 914.548C671.093 915.037 666.406 915.427 662.597 915.623C658.789 915.72 654.101 916.502 652.148 917.38C650.097 918.259 647.558 918.943 646.289 918.943C644.238 918.943 644.238 918.943 646.777 916.209L649.414 913.474L646.386 907.322C644.824 903.806 641.894 898.923 640.039 896.287L636.523 891.599H639.843C645.019 891.599 647.07 890.623 648.047 887.888C649.023 885.252 649.023 885.252 651.855 890.33C654.101 894.236 655.371 895.505 657.031 895.505C659.961 895.505 663.476 891.697 666.406 885.252C668.847 879.783 673.535 875.779 683.007 871.091C687.011 869.041 688.086 867.966 689.16 864.646C690.136 861.814 691.211 860.349 692.675 860.056C693.847 859.763 697.754 858.298 701.464 856.834C708.691 853.806 709.57 852.146 705.859 848.435L703.711 846.287L705.859 844.92C707.031 844.138 708.007 842.869 708.007 842.185C708.007 840.525 704.98 841.111 698.437 843.943C694.043 845.798 690.722 846.091 688.086 845.115C685.937 844.334 685.839 832.81 687.988 831.052C689.843 829.49 689.843 827.83 687.89 824.119C686.425 821.091 686.425 821.091 690.332 817.088C699.121 808.005 703.027 802.927 705.859 796.58C707.91 792.088 709.375 790.037 710.644 790.037C713.379 789.939 721.093 775.877 720.214 772.556C719.824 771.189 719.531 768.357 719.531 766.306C719.531 762.986 719.336 762.693 716.699 762.693C713.281 762.693 712.011 760.349 714.16 758.005C716.894 754.978 717.285 743.064 714.941 731.052C713.769 725.291 712.597 720.017 712.207 719.334C711.816 718.748 707.129 712.791 701.855 706.15L692.187 694.041L692.773 689.548C693.066 687.107 693.652 682.517 693.945 679.49L694.531 674.021L690.82 672.068C688.672 671.091 684.668 669.431 681.738 668.357C675.976 666.306 674.804 664.548 674.804 658.201C674.804 655.662 675.39 654.099 676.367 653.513C677.832 652.634 677.832 652.341 676.172 649.607C674.121 646.091 666.894 642.576 661.718 642.576C659.863 642.576 658.203 641.99 658.007 641.404C657.226 639.255 659.375 633.884 661.132 633.298C662.695 632.81 664.16 630.466 665.429 626.658C666.113 624.509 663.183 618.455 659.863 615.427C655.957 611.814 657.812 607.42 663.281 607.42C667.285 607.42 673.925 604.588 677.246 601.463C681.054 597.849 682.714 597.947 688.769 601.658C693.066 604.295 694.433 604.685 698.925 604.295C701.757 604.002 704.394 603.513 704.687 603.22C705.371 602.537 701.66 593.162 699.804 590.916C699.218 590.134 697.265 588.963 695.605 588.181C691.894 586.619 691.504 585.252 694.629 584.47C705.957 581.931 707.519 582.029 708.496 585.74C708.789 587.205 710.254 589.548 711.621 591.013C714.746 594.236 722.949 595.603 727.636 593.65C730.566 592.478 730.859 592.576 733.789 595.896C737.207 599.705 741.113 601.658 743.847 600.974C745.019 600.584 747.265 601.853 750.195 604.392C752.636 606.638 755.664 608.396 756.836 608.396C758.886 608.396 758.984 608.103 758.496 602.83C758.203 599.705 757.714 596.189 757.324 594.92C756.738 593.259 757.031 592.771 758.203 592.771C759.082 592.771 760.058 593.455 760.351 594.236C760.742 595.115 762.207 595.701 764.257 595.701C766.015 595.701 769.336 596.384 771.484 597.263C776.172 599.216 778.125 598.63 778.515 595.213C778.711 593.064 779.687 592.283 784.277 590.818C787.304 589.744 792.968 587.205 796.972 585.056C800.976 583.005 808.105 580.076 812.89 578.611C820.507 576.365 821.875 576.17 824.023 577.341C825.39 578.025 828.32 578.611 830.664 578.611C834.082 578.611 835.449 578.025 838.379 575.193C842.871 570.896 843.945 568.845 844.629 563.963C845.214 560.349 845.605 559.959 849.414 558.787C853.32 557.517 853.515 557.224 853.515 553.709C853.515 550.681 852.832 549.412 849.707 546.58C847.558 544.627 844.531 542.38 842.968 541.599C841.308 540.72 839.062 538.572 837.988 536.716C836.23 533.982 834.961 533.201 830.957 532.322C828.32 531.736 825.195 531.248 824.218 531.248C822.558 531.248 822.265 530.564 822.265 526.463C822.265 522.068 822.558 521.287 825.488 519.138C827.343 517.673 829.785 516.599 830.859 516.599C832.812 516.599 833.007 516.111 833.007 510.838C833.007 501.755 832.812 501.951 843.652 501.951C851.367 501.951 853.613 501.56 856.445 499.9C861.23 497.068 862.304 495.31 862.304 490.623C862.304 487.009 862.793 486.033 866.406 483.005C868.847 480.857 871.484 479.49 873.144 479.49C876.562 479.49 881.445 474.119 885.254 466.013C887.695 460.74 888.379 459.959 890.136 460.447C896.484 462.4 899.511 463.084 900.097 462.498C901.562 461.033 900.488 455.857 898.047 452.341C891.797 443.259 892.675 432.615 900.39 424.314C902.929 421.677 903.222 420.603 903.515 412.595L903.808 403.806L899.218 401.365C895.215 399.216 894.043 397.752 889.746 389.646C887.109 384.568 884.277 380.271 883.398 380.076C882.617 379.88 879.98 381.541 877.539 383.787L873.144 387.888L864.062 384.861C859.082 383.201 851.464 381.443 847.168 380.955C839.648 380.173 836.718 379.197 829.101 374.9C827.246 373.923 824.707 373.045 823.632 373.045C821.972 373.045 821.289 372.166 820.41 368.748C819.824 366.306 819.336 362.888 819.336 361.033C819.336 359.275 818.652 355.662 817.773 353.123C816.015 347.849 816.406 346.873 819.726 348.435C822.558 349.705 823.242 349.119 823.242 345.603C823.242 343.064 823.535 342.771 828.125 342.185C830.859 341.795 833.007 341.306 832.91 340.916C832.91 340.623 831.054 338.963 828.808 337.4C823.047 333.201 822.265 329.197 825.195 319.724C826.464 315.72 828.515 311.619 829.687 310.447C831.836 308.396 832.031 308.396 838.379 310.056C843.359 311.326 845.605 311.423 847.851 310.642C851.66 309.275 858.105 309.275 858.886 310.545C859.179 311.033 860.644 311.521 862.011 311.521C863.379 311.521 865.039 312.107 865.625 312.888C866.211 313.67 868.457 314.548 870.605 314.939C873.828 315.427 875.097 315.134 877.832 313.084C881.054 310.74 881.25 310.642 884.668 312.205C886.621 312.986 888.867 313.865 889.746 314.158C891.699 314.744 895.996 309.373 896.875 305.173C897.265 303.513 897.949 290.916 898.437 277.048L899.316 251.853L902.148 246.775C904.101 243.259 905.175 239.646 905.664 235.056C906.347 228.22 909.277 222.166 917.675 210.642C920.215 207.224 921.582 203.806 922.949 197.556C923.925 192.869 924.804 188.084 924.804 186.912C924.804 185.74 925.488 184.275 926.269 183.591C928.906 181.443 929.004 176.072 926.758 163.767C925.488 157.224 923.535 147.752 922.265 142.771L920.117 133.689L922.461 128.318C923.828 125.193 925.293 119.236 925.879 114.451C927.148 103.709 927.148 102.634 925.879 99.3141C925 96.9704 924.316 96.6774 920.605 96.6774C914.55 96.6774 907.422 94.236 902.148 90.3298L897.558 86.9118L897.265 80.3688L896.972 73.7282L888.965 73.4352C881.543 73.1423 880.273 72.8493 873.828 69.1384C869.922 66.8923 865.039 63.7673 862.988 62.1071C856.836 57.1266 852.246 45.9938 850.879 33.0056C850.293 27.1462 850 26.5602 844.238 20.7009C838.964 15.1345 838.183 14.6462 837.011 16.0134Z" fill="white"/>
<path d="M580.273 18.5523C577.051 21.1891 576.269 27.6344 578.711 30.3687C579.687 31.5406 581.836 32.9078 583.496 33.5914C587.597 35.3492 595.508 33.2008 597.949 29.7828C600 26.9508 601.66 26.8531 612.5 28.5133C619.629 29.5875 620.508 29.4898 628.613 27.0484C633.301 25.5836 640.527 23.6305 644.531 22.6539C650 21.2867 651.953 20.4078 652.148 19.1383C652.539 17.3805 651.855 17.3805 641.504 18.0641C635.449 18.4547 629.394 19.2359 628.027 19.7242C624.902 20.9937 593.75 22.2633 593.066 21.1891C592.578 20.3101 584.375 16.5992 583.203 16.5992C582.812 16.6969 581.445 17.4781 580.273 18.5523Z" fill="white"/>
<path d="M560.546 23.3398C559.765 23.8281 548.144 28.0273 534.667 32.6172C512.402 40.332 509.375 41.1133 500.488 41.6992C488.476 42.3828 486.718 43.0664 485.839 46.6797C485.546 48.3398 483.691 50.9766 481.835 52.6367C478.222 55.957 477.929 57.2266 479.687 61.0352C480.566 63.0859 481.445 63.4766 484.96 63.4766C488.574 63.4766 489.453 63.0859 491.308 60.2539C494.726 55.2734 495.996 54.6875 503.222 54.6875H510.058L518.457 48.4375C526.66 42.3828 526.953 42.2852 534.375 41.6992C542.773 41.1133 544.921 40.2344 550 35.3516C552.636 32.8125 554.101 32.1289 555.761 32.5195C560.351 33.6914 567.968 26.7578 565.918 23.4375C565.136 22.2656 562.5 22.2656 560.546 23.3398Z" fill="white"/>
<path d="M457.91 78.1211C453.027 79.5859 434.57 89.9375 433.105 92.0859C432.324 93.2578 431.64 95.0156 431.64 95.9922C431.64 97.1641 429.687 98.6289 425.293 100.68C421.777 102.34 418.75 104.098 418.359 104.586C418.066 105.074 416.797 105.465 415.429 105.465C413.281 105.465 412.988 105.855 413.281 108.102C413.574 110.738 413.867 110.836 419.14 111.129L424.707 111.422L431.347 105.367C439.16 98.1406 439.648 97.457 439.257 94.0391C438.965 91.6953 439.453 91.3047 444.433 89.8398C447.461 88.8633 451.465 87.0078 453.222 85.6406C455.078 84.3711 458.007 82.9062 459.765 82.5156C462.89 81.832 465.82 79.7812 465.82 78.0234C465.82 76.9492 461.523 76.9492 457.91 78.1211Z" fill="white"/>
<path d="M408.007 124.799C406.152 126.849 401.465 133.685 397.461 140.131C393.554 146.576 388.281 154.877 385.84 158.685C381.836 164.935 381.347 166.205 380.761 173.334C380.371 177.631 379.882 182.416 379.492 184.076C378.515 188.568 381.64 191.596 387.695 192.181C392.09 192.572 392.578 192.474 392.578 190.619C392.578 189.447 392.187 188.275 391.601 187.982C391.113 187.689 390.625 186.517 390.625 185.541C390.625 183.783 390.82 183.783 394.043 185.15C398.34 186.908 398.047 187.006 399.414 183.685C400.097 182.025 402.343 179.877 405.078 178.412C407.617 177.045 411.523 174.017 413.769 171.674C417.48 167.865 418.164 166.4 420.996 155.267C424.511 141.693 424.414 138.373 420.41 132.416C419.14 130.56 418.164 127.826 418.261 126.361C418.457 124.213 417.871 123.529 414.941 122.553C411.425 121.283 411.328 121.381 408.007 124.799Z" fill="white"/>
<path d="M574.218 332.613C569.433 334.859 564.843 338.082 561.035 341.695C555.859 346.675 554.589 347.457 550.488 347.945C544.043 348.629 541.992 350.679 541.992 356.734C541.992 364.156 539.843 366.304 525.488 373.238C515.429 378.218 511.914 380.464 505.859 386.226C501.855 390.035 493.554 396.285 487.597 400.191C481.543 404.097 476.562 407.711 476.562 408.199C476.562 408.785 474.316 410.25 471.679 411.617C468.945 412.984 466.503 414.742 466.211 415.523C465.332 417.867 470.214 427.242 473.535 429.586C476.66 431.832 476.66 431.832 482.91 430.171C489.062 428.511 489.355 428.511 494.433 430.367C497.265 431.539 503.027 434.664 507.226 437.398C511.425 440.132 515.527 442.378 516.308 442.378C517.089 442.378 520.703 445.503 524.414 449.312C530.273 455.464 531.347 456.246 534.765 456.343C539.941 456.539 551.367 453.218 555.957 450.289C562.5 446.089 565.918 436.519 564.062 428.023C562.89 422.847 564.55 421.187 572.265 419.918C577.734 419.039 579.101 418.453 579.101 416.988C579.101 416.109 580.761 413.472 582.812 411.226C585.644 408.101 588.769 406.246 596.972 402.828C602.832 400.386 608.398 398.433 609.277 398.433C610.156 398.433 612.5 396.382 614.355 393.941C616.211 391.5 618.847 387.789 620.312 385.836C621.777 383.882 624.316 378.609 626.074 374.019C628.808 366.597 629.003 364.839 628.711 357.222C628.418 350.777 627.832 348.238 626.562 346.773C624.316 344.234 610.937 337.789 605.957 336.812C598.437 335.347 590.039 332.515 588.183 330.757C585.351 328.316 582.324 328.707 574.218 332.613Z" fill="white"/>
<path d="M204.492 607.32C201.172 608.883 197.07 610.445 195.215 610.836C186.914 612.691 183.789 619.43 188.965 624.508C191.504 627.145 192.871 627.535 193.847 625.973C194.14 625.387 196.191 624.996 198.34 624.996C201.855 624.996 202.148 625.191 201.172 626.852C199.707 629.684 199.902 629.879 203.613 629.879C207.324 629.879 207.812 628.902 205.566 624.996C204.394 622.848 204.492 622.359 205.761 620.797C207.91 618.453 212.988 618.746 216.894 621.383C220.117 623.531 220.215 623.922 220.508 630.367C220.8 638.375 222.754 643.258 228.222 649.313C231.933 653.512 232.129 653.609 239.648 654.195C246.972 654.781 247.461 654.977 250.488 658.492C252.832 661.227 254.394 662.106 256.738 662.106C258.398 662.106 263.965 664.156 269.336 666.793C278.515 671.383 279.004 671.578 285.547 671.09C291.992 670.699 292.773 670.406 298.535 665.719C303.32 661.813 304.687 660.25 304.687 658.102C304.687 655.27 305.761 655.66 291.504 653.707C288.281 653.219 285.84 651.949 281.836 648.531C278.808 646.09 273.34 641.793 269.531 639.156C264.648 635.641 262.5 633.395 261.914 631.344C261.133 628.609 260.644 628.414 255.761 627.828C251.758 627.34 249.121 626.363 244.922 623.336C241.797 621.188 238.086 618.844 236.523 618.258C235.058 617.574 233.008 615.816 232.129 614.254C230.957 612.301 229.394 611.324 226.758 610.836C224.121 610.445 222.656 609.469 221.484 607.418C220.019 604.781 219.336 604.488 215.136 604.488C212.011 604.488 208.496 605.465 204.492 607.32Z" fill="white"/>
<path d="M187.988 640.718C185.84 641.108 178.613 641.499 171.875 641.596C156.25 641.694 150.879 643.354 147.754 649.018C144.14 655.366 144.922 663.179 149.511 665.522C153.32 667.573 154.98 667.378 161.523 664.057C168.164 660.639 175.586 660.054 177.832 662.69C178.711 663.764 180.078 664.057 182.422 663.764C185.254 663.276 185.84 663.569 187.5 666.304C188.574 668.061 189.453 670.6 189.453 671.968C189.453 675.386 195.117 682.612 197.949 682.612C199.121 682.612 200.39 682.124 200.683 681.636C201.66 680.073 202.734 680.464 207.324 683.979C211.328 687.007 211.914 687.202 216.406 686.518C226.757 684.858 236.328 680.561 236.328 677.729C236.328 676.655 237.207 674.995 238.281 674.116C240.722 671.968 240.82 669.721 238.476 667.671C236.328 665.718 226.269 662.104 223.047 662.104C220.41 662.104 218.945 659.663 216.211 651.069C213.672 642.964 212.793 642.378 204.687 643.843L198.047 644.917L195.898 642.28C194.726 640.815 193.359 639.741 192.871 639.741C192.285 639.839 190.136 640.229 187.988 640.718Z" fill="white"/>
<path d="M228.125 690.918C226.758 692.383 224.805 693.359 223.242 693.359C219.434 693.359 213.867 695.996 213.867 697.754C213.867 698.633 216.309 701.856 219.238 704.883C222.266 707.91 225.586 711.914 226.855 713.574C228.027 715.332 229.688 717.09 230.469 717.383C233.105 718.457 246.484 720.703 250.781 720.703C254.492 720.703 255.176 721.094 256.934 724.121C259.766 728.809 261.816 727.441 265.137 718.75C267.969 711.328 267.773 709.375 264.062 705.273C262.793 703.809 260.547 700.195 258.984 697.266L256.25 691.895H248.926C243.652 691.895 241.016 691.406 239.258 690.137C235.742 687.695 230.859 687.988 228.125 690.918Z" fill="white"/>
<path d="M99.1209 762.692C95.8005 764.254 91.5037 765.524 89.2576 765.524C83.8865 765.622 79.199 767.282 75.9763 770.309C72.656 773.337 72.656 774.118 75.2927 780.368L77.3435 785.153L74.7068 788.669C72.0701 792.184 71.9724 792.477 73.242 796.774C73.9255 799.215 74.8045 803.024 75.0974 805.172C75.5857 808.59 76.6599 809.762 83.3005 815.133C89.3552 819.919 91.5037 821.09 93.5545 820.797C95.0193 820.602 98.3396 820.114 100.879 819.821C106.25 819.137 106.738 818.356 107.812 809.469L108.496 803.903L114.16 803.317C118.945 802.731 120.117 802.243 121.972 799.801C123.144 798.141 124.609 796.872 125.293 796.872C125.976 796.872 132.812 800.387 140.527 804.684C153.515 811.911 155.078 812.497 160.156 812.497H165.722L166.894 818.063C167.48 821.09 167.969 824.508 167.969 825.583C167.969 826.754 169.043 828.317 170.215 829.196C173.144 831.344 188.086 833.493 197.265 833.102C204.101 832.907 204.687 832.712 208.496 829.196C210.644 827.243 214.551 824.118 217.09 822.36C221.094 819.626 222.265 819.235 225.488 819.821C231.64 820.797 237.304 817.184 252.148 802.536C268.847 786.129 271.191 783.004 269.629 779.684C269.043 778.317 268.554 776.364 268.554 775.29C268.554 774.118 268.164 773.629 267.48 773.922C266.894 774.313 266.797 775.778 267.09 777.438C267.48 779.001 267.578 780.27 267.285 780.27C267.09 780.27 265.234 778.903 263.183 777.34C260.644 775.29 259.082 774.704 258.398 775.387C257.91 775.876 255.761 776.364 253.711 776.364C250.781 776.364 250 776.754 250 778.122C250 779.196 250.976 780.465 252.246 781.051C254.199 782.028 254.297 782.126 252.441 782.126C251.367 782.126 249.609 781.54 248.633 780.758C247.558 779.977 245.703 779.294 244.433 779.294C242.48 779.294 242.383 779.587 243.164 781.833C244.824 786.032 244.336 786.032 239.844 781.637C237.5 779.196 234.668 777.34 233.496 777.34C229.199 777.34 224.804 774.606 222.265 770.309C219.726 765.915 216.015 763.083 211.914 762.497C209.961 762.301 209.375 762.692 209.179 764.645C208.984 766.012 208.496 767.477 208.008 768.063C207.617 768.551 207.031 770.7 206.64 772.653C205.957 776.364 205.957 776.364 201.172 776.364C196.777 776.364 195.996 776.754 192.773 780.27C187.793 785.641 178.613 787.985 175.781 784.665C175.097 783.883 173.535 783.2 172.265 783.2C170.898 783.2 169.043 782.712 167.969 782.028C166.504 781.051 165.429 781.149 162.597 782.516C159.472 783.981 158.789 784.079 155.957 782.712C154.199 781.93 150.097 779.098 146.777 776.462C141.504 772.458 139.844 771.676 134.863 771.09C130.176 770.504 128.222 769.723 125 767.087C121.289 763.962 110.058 759.665 106.347 759.86C105.566 759.86 102.344 761.129 99.1209 762.692Z" fill="white"/>
<circle id="476" cx="409" cy="423" fill="#5CE50D"/>
<circle id="478" cx="297" cy="511" fill="#5CE50D"/>
<circle id="1634" cx="798" cy="92" fill="#E52A0D"/>
<circle id="477" cx="327" cy="604" fill="#E52A0D"/>
<circle id="1437" cx="566" cy="738" fill="#E52A0D"/>
</svg>
