<svg width="1000" height="1000" viewBox="0 0 1000 1000" fill="none" xmlns="http://www.w3.org/2000/svg">
<path d="M751.888 21.4717L751.277 24.7129L754.628 23.2559L758.003 22.623L760.089 26.4277L760.048 28.4707L759.328 30.624L757.633 30.8887L757.892 33.7539L755.542 35.4111L757.655 36.2559L756.456 38.499L754.544 39.1064L751.825 39.2598L747.343 40.585L747.209 44.042L748.692 42.2373L751.735 41.8691L754.063 42.041L754.739 44.9121L751.935 46.8486L750.889 48.501L749.779 51.0449L747.562 53.1562L750.281 52.5664L757.089 46.1104L758.547 42.9336L760.59 46.8701L760.155 49.7842L759.221 52.0225L757.415 54.8291L756.545 57.1562L754.369 59.7441L754.696 61.7451L756.001 64.373L755.805 61.2002L756.806 59.2012L756.412 61.2637L758.676 58.9844L761.35 57.5273L759.501 59.918L759.263 62.3086L760.501 60.79L761.72 59.332L762.744 56.6572L764.465 55.6318L764.376 57.8975L763.68 62.8105L763.267 64.7695L764.094 67.8564L764.835 70.1162L765.184 72.2686L765.942 74.7285L767.729 78.9248L768.293 80.8145L768.314 82.9883L767.838 85.6777L769.229 83.3164L769.246 80.5557L768.616 78.4014L767.528 76.5537L767.027 74.5283L765.965 72.0527L765.612 68.833L765.158 66.374L764.57 64.1562L765.201 61.5283L765.311 58.8525L766.223 56.8945L768.812 58.9375L768.942 56.8945L769.745 55.2002L767.896 55.0693L765.505 53.375L765.483 47.501L765.135 45.3057L765.59 43.5889L767.527 43.5L764.549 40.8721L764.612 38.8027L765.766 35.6504L766.028 32.6484L766.83 29.9512L772.988 26.7578L777.254 27.5811L779.388 30.2783L782.149 30.6953L781.299 34.5215L784.213 34.2148L782.365 35.6943L782.692 38.1748L783.516 40.4336L784.171 37.6309L787.106 35.541L790.329 31.8457L793.374 34.9111L792.699 38.6963L795.525 38.2803L795.895 35.9307L796.981 32.6689L799.206 31.2129L803.012 32.5205L802.468 34.543L804.859 35.4346L807.623 36.5859L806.839 39.4785L804.598 41.0225L802.404 42.6973L805.578 43.1738L811.322 38.7178L814.587 39.1084L819.651 42.9141L821.985 45.6533L824.287 42.3271L826.161 44.2852L829.467 47.2197L829.119 49.2842L830.53 51.1094L828.944 54.916L820.569 58.6582L820.544 61.0488L818.369 63.2227L817.935 64.9648L818.87 67.8564L814.888 71.7891L793.047 76.2695L778.689 75.8799L781.298 76.2061L780.537 78.8359L782.255 80.9258L784.583 80.207L787.191 81.3164L789.177 82.0547L792.482 80.9678L793.175 83.7295L798.096 82.3135L807.056 83.0996L805.229 86.0781L803.708 88.3623L802.553 91.6875L803.86 89.9717L804.424 88.252L806.665 88.166L808.931 86.5996L810.474 88.7734L811.995 91.1436L811.889 93.7773L810.538 96.4277L810.257 98.4736L809.888 100.624L809.233 103.689L812.038 98.623L815.152 97.082L817.195 97.0195L818.632 94.2754L819.916 96.1055L818.913 98.0371L821.087 95.582L822.853 97.5156L824.704 98.3857L822.175 94.9717L823.331 93.2559L822.745 91.166L820.939 87.8623L820.131 85.709L821.896 85.165L823.31 87.2334L825.659 86.3418L827.182 88.3848L828.052 90.3848L829.14 93.3613L829.836 95.6465L828.771 98.0371L830.926 97.3623L830.53 94.5176L830.143 92.2998L829.008 90.126L828.337 88.2305L834.121 86.5586L835.013 88.7744L836.624 87.0596L839.474 86.6426L841.952 91.1875L846 99.0615L843.583 105.215L837.517 106.018L830.514 102.038L830.424 106.583L830.402 113.455L828.66 119.064L823.528 123.33L821.556 126.244L820.975 127.105L820.939 127.155L816.959 128.571L815.433 132.593L813.781 138.703L813.563 146.511L811.45 150.838L806.708 146.399L805.314 138.831L810.67 125.678L811.54 119.063L805.578 111.977L802.01 106.604L780.58 99.4727L774.793 98.2998L764.226 90.7314L762.751 89.6865L755.746 95.5352L754.051 101.298L746.41 103.689L739.755 104.539L735.1 111.347L733.119 116.219L731.424 122.61L727.31 126.199L727.327 126.241L727.642 127.103L729.422 131.957L728.592 138.264L728.506 144.285L729.028 151.681L729.482 158.335L731.877 165.145L733.771 171.098L734.051 176.972L732.203 182.43L726.828 183.495L723.045 193.758V201.694L717.606 205.542L712.253 201.588L707.294 201.024L703.245 200.501L697.135 196.977L691.453 195.324L688.344 200.238L686.104 204.999L682.208 206.459L675.422 212.308L670.526 208.654L666.456 210.197L654.188 208.523L649.446 200.501L645.18 194.301L640.982 191.106L628.014 175.076H619.729L614.158 183.733L615.873 193.323L607.889 190.151L605.672 195.26L592.792 198.216L600.079 204.999L601.691 212.154L600.3 222.595L594.62 231.705L602.625 234.987L597.841 243.665L583.548 241.49L571.275 237.421L562.683 239.248L556.42 235.378L548.695 238.14L548.777 245.558L548.78 245.796L548.916 246.418L552.195 261.298L548.409 274.497L530.287 270.301L518.279 285.111L514.932 303.79L512.191 310.293L504.92 314.42L503.53 320.512L513.538 335.101L513.971 345.365L506.794 354.26L496.286 378.506L490.128 386.551L492.609 396.837L481.511 410.755L467.021 413.689L471.441 433.086L469.915 441.979L469.419 459.551L470.157 466.485L467.222 474.297L466.002 483.602L461.672 493.018L447.487 522.22L456.888 528.158L464.893 547.619L460.194 560.861L436.849 557.103L429.213 559.668L422.402 564.646L414.439 577.608L408.936 588.412L405.218 592.635L406.998 599.653L400.297 614.333L408.281 634.123L404.674 639.666L406.781 652.824L405.281 659.824L411.938 680.439L413.201 687.464L409.263 723.105L413.768 728.105L418.118 732.759L422.664 733.673L434.191 746.894L433.781 754.984L430.433 762.375L429.561 768.702L424.687 769.616L414.938 772.423L416.312 780.295L417.832 787.818L422.749 797.146L426.993 806.932L427.623 813.587L424.38 820.242L425.295 829.136L424.253 837.311L417.79 846.072L412.764 850.444L405.651 850.402L403.998 857.469L404.431 863.561L397.383 870.147L401.082 888.321L402.234 894.55L400.19 903.742L398.972 912.047L397.536 919.163L393.337 921.73L389.223 914.373L386.895 908.316L386.463 908.137L386.806 910.014L387.805 913.279L386.478 911.366L385.522 908.316L384.936 907.489L386.455 908.101L386.42 907.852L385.528 905.741L383.464 904.768L379.958 905.155L378.263 903.483L378.479 900.288L377.412 902.441L375.085 903.346L373.3 904.044L372.386 901.873L370.236 900.219L370.105 902.588L368.405 900.417L365.731 901.632L364.143 899.874L363.642 896.911L362.796 894.412L364.033 891.26L360.273 891.104L359.729 888.063L359.575 885.952L357.397 883.601L358.487 879.759L359.268 882.171L360.726 879.604L359.29 876.434L359.114 873.211L358.812 870.187L358.027 866.904L357.898 864.533L356.047 860.991L357.355 856.399L359.226 853.401L360.14 855.444L360.789 858.924L361.506 861.641L361.854 858.966L362.51 856.315L362.88 853.813L362.379 851.598L360.354 849.55L358.005 850.637L355.612 851.508L352.83 854.511L353.242 858.185L353.284 860.337L353.892 863.753L355.244 866.102L357.789 869.688L357.201 873.384L355.438 875.821L353.348 877.304L351.652 877.036L351.129 874.557L351.37 871.516L350.849 868.429L350.607 866.403L349.261 863.926L346.604 862.164L344.561 861.704L345.216 864.336L348.868 866.295L349.978 868.706L350.111 872.317L349.674 875.864L347.957 876.062L345.69 874.232L345.648 876.605L349.281 881.447L352.503 882.429L353.264 884.428L352.086 887.753L352.63 889.761L353.569 893.37L352.958 895.886L351.046 894.696L349.065 896.109L348.13 898.22L347.519 900.676L347.322 903.458L346.778 907.309L345.907 905.241L345.843 909.867L345.454 908.601L344.429 905.241L343.779 907.766L344.496 910.393L342.428 912.848L340.23 912.874L341.949 911.306L338.862 911.745L337.314 913.675L335.51 915.958L330.529 916.303L330.503 913.959L329.592 911.436L328.223 909.652L326.132 909.049L324.869 906.878L324.785 908.834L323.174 906.042L322.804 904.026L319.501 904.768L322.436 907.938L323.608 910.591L326.11 914.33L321.412 917.155L316.907 918.138L316.932 920.067L313.384 920.412L313.754 922.394L312.123 922.695L309.601 924.72L312.646 924.28L314.429 923.996L316.123 924.788L313.843 926.847L312.491 929.457L310.839 931.327L308.749 931.654L302.593 930.827L304.869 933.273L303.336 931.327L307.486 932.481L306.425 934.566L303.113 934.609L305.312 934.765L304.766 937.047L302.025 939.562L299.2 940.829L296.371 940.329L297.525 942.957L292.236 949.918L289.452 951.176L288.649 953.588L287.843 956.172L284.796 959.239L282.468 960.583L280.988 962.633L279.098 963.917L277.402 963.322L276.594 965.416L273.595 966.872L271.742 967.69L271.615 969.697L270.263 972.368L267.021 974.021L263.911 974.065L263.323 972.867L265.021 970.696L263.848 967.742L262.301 971.843L260.278 973.178L260.301 975.375L252.796 976.762L249.4 976.848L247.463 979.94L246.2 978.261L239.13 979.958L234.605 978.502L231.778 977.977L227.756 978.175L227.407 980.268L225.405 981L224.645 978.459L226.732 977.028L228.385 976.003L230.038 974.806L227.212 975.263L223.184 977.399L224.076 974.375L221.948 975.935L221.466 973.479L217.965 973.962L220.142 972.092L223.1 972.109L221.425 971.334L219.445 970.094L217.792 967.802L218.028 971.368L215.943 972.109L214.876 968.155L213.874 970.61L214.354 972.635L215.616 976.158L210.632 975.22L207.934 972.351L209.522 969.724L210.219 967.655H212.285L213.197 965.648L215.093 964.718L216.682 963.063L219.724 961.453L216.376 962.504L214.137 964.477L212.068 961.608L212.221 959.54L211.544 957.74L211.35 961.548L209.174 962.935L206.913 961.453L201.516 960.798L198.513 957.43L196.838 956.258L193.966 955.414L192.033 953.889L189.768 952.209L188.507 950.452L188.072 948.324L188.031 946.102L180.76 944.474L179.631 942.207L176.736 939.821L175.474 937.65L174.364 934.101L172.907 932.076L172.538 929.466L171.909 927.338L170.668 925.288L172.452 923.16L173.388 921.247L173.668 919.223L174.322 916.854L175.301 914.812L174.735 912.719L176.631 914.157V911.771L176.673 909.876L174.888 909.247L175.474 905.5L181.155 910.135L180.369 914.157L180.306 916.354L181.678 913.572L184.05 913.477L184.941 911.323L188.399 912.813L189.637 915.088L194.251 919.964L199.168 920.739L195.229 919.567L193.205 916.096L195.143 912.813L198.491 910.651L214.312 906.637L204.368 907.524L202.366 908.679L197.319 909.592L192.355 915.829L190.704 912.486L190.878 910.221L192.642 909.695L191.965 907.395L189.943 907.921L187.312 904.285L188.031 901.692L192.837 900.408L196.016 899.435L193.554 898.952L193.338 896.979L194.686 894.843L196.971 893.103L198.733 891.276L201.691 890.347L204.41 887.848L206.063 887.478L209.35 887.753L204.998 887.064L199.907 890.26L198.144 890.82L195.819 887.978L201.279 887.822L200.103 885.057L199.015 887.124L196.142 887.081L195.033 884.626L193.423 886.297L193.813 883.756L195.99 881.301L197.864 880.361L199.559 878.578L201.301 875.555L209.001 871.599L213.178 871.188L205.759 871.251L203.387 872.903L203.233 870.971L204.062 868.555L204.369 865.905L202.997 868.185L202.584 870.512L201.497 872.755L199.253 876.864L196.839 879.207L194.686 881.033L193.228 879.319L192.403 881.258L191.185 883.972L189.051 880L189.314 877.794L198.952 876.209L197.276 875.035L194.357 876.192L190.007 875.598L187.44 871.599L185.767 872.08L186.573 874.296L186.226 876.493L184.397 877.579L183.068 875.778L182.481 878.621L180.59 879.966L183.875 878.69L185.592 878.819L187.855 882.042L187.962 884.428L185.201 884.798L183.548 885.298L181.263 886.909L179.282 888.021L179.74 885.755L179.546 883.67L179.129 881.146L177.761 885.057L176.632 887.322L174.952 888.761L173.256 887.891L172.302 884.91L173.082 882.214L172.977 879.732L171.667 882.86L171.604 885.841L169.908 883.015L170.21 880.801L170.016 878.776L169.079 882.757L165.858 877.924L164.665 875.125L164.688 872.687L165.732 870.753L166.773 868.51L168.842 865.771L170.126 863.248L171.821 862.356L172.803 865.707L173.843 863.661L173.04 861.227L174.54 858.641L176.521 856.683L176.89 859.88L176.436 862.794L175.671 864.795L175.823 867.187L174.562 869.229L172.581 872.384L176.151 870.97L177.477 868.011L177.239 865.834L177.651 863.575L178.893 861.116L183.48 861.88L183.939 866.252L185.81 864.204L187.878 862.922L186.771 862.747L187.289 859.289L190.139 857.705L191.248 855.702L194.057 857.901L195.948 857.357L200.541 853.985L205.283 851.202L203.63 850.898L199.147 853.355L195.991 855.986L193.382 856.183L192.489 853.702L193.514 850.507L192.272 853.114L188.771 855.051L185.637 850.919L185.287 848.634L187.378 843.895L189.073 843.027L194.254 842.484L194.817 840.547L196.253 835.565L199.475 833.327L206.325 831.634L205.478 829.459L201.974 831.85L199.3 827.977L199.105 825.87L201.519 824.825L203.039 821.869L203.911 819.062L205.912 818.587L207.808 816.607L209.175 814.866L212.592 813.298L213.985 811.191L216.094 810.299L219.577 811.715L217.703 815.304L216.899 817.563L216.615 820.128L215.227 822.259L214.636 827.564L214.201 829.85L213.964 832.806L214.092 834.874L214.529 831.089L214.81 829.11L216.747 824.956L216.685 821.605L219.033 815.8L220.555 813.562L223.427 809.798L225.386 808.036L230.281 806.906L233.349 808.036L228.888 805.907L230.409 803.817L233.175 800.361L230.825 801.167L227.341 806.013L224.383 807.122L220.839 810.342L218.009 809.734L221.009 805.907L217.032 808.342L215.311 809.122L212.264 810.146L210.264 810.669L208.394 812.538L206.674 812.929L205.173 811.276L204.348 807.602L204.105 809.797L205.346 812.475L201.824 813.82L203.673 815.191L202.235 817.476L202.216 819.583L201.58 822.105L199.627 822.259L196.644 821.082L195.885 823.257L194.162 826.148L192.488 828.196L191.575 833.195L191.443 835.739L189.553 838.632L186.483 839.393L185.007 834.673L186.659 834.807L188.965 832.566L186.051 832.63L186.743 829.759L186.226 826.672L189.205 824.913L186.701 824.866L184.113 827.953L182.023 829.041L181.722 825.584L185.112 823.062L184.024 819.821L182.329 821.498L183.089 819.54L184.373 816.974L185.312 814.627L187.462 813.19L184.482 813.56L183.11 815.497L182.196 818.518L180.242 822.563L178.131 825.409L175.892 828.65L173.689 827.304L172.19 824.781L173.954 823.478L170.426 823.499L172.232 820.691L167.992 818.342L167.949 816.299L170.188 815.538L167.883 813.93L168.774 810.709L171.82 811.037L171.494 807.95L171.257 804.926L172.999 801.663L174.889 802.339L176.456 804.472L178.438 807.317L181.067 809.296L184.156 809.712L186.875 806.752L187.858 804.229L187.811 801.839L187.9 799.774L188.205 796.987L188.75 794.491L188.92 792.532L189.616 789.945L187.05 789.879L187.965 787.159L184.875 789.856L182.546 790.03L182.35 794.074L179.044 795.6L176.456 797.838L173.864 799.036L172.169 798.729L170.211 796.47L167.338 792.423L169.365 792.575L171.473 795.076L169.646 791.119L167.231 788.051L169.297 788.727L167.666 786.833L165.601 785.836L164.164 783.053L162.269 781.507L164.185 781.026L166.599 783.292L168.362 783.791L169.623 785.487L173.976 787.792L174.778 791.033L175.913 793.6L178.067 794.249L176.847 791.292L178.695 792.226L178.458 789.334L175.105 786.269L173.367 785.054L173.738 782.832L176.066 782.052L176.543 779.724L179.847 777.875L181.547 778.53L183.507 777.66L181.589 776.92H178.849L177.064 777.095L175.865 779.354L173.061 781.074L171.346 780.225L168.837 779.332L166.183 775.785L165.703 773.658L164.942 771.156L166.88 770.502L167.987 774.504L168.294 776.504L168.771 772.266L170.533 770.07L168.859 769.854L166.51 769.373L166.029 766.676L166.615 764.611L168.533 762.85L170.792 762.786L173.016 763.764L175.581 765.784L178.712 766.807L181.042 769.137L181.5 767.066L182.172 765.004L184.088 763.742L186.766 764.809L187.959 762.739L189.939 762.479L192.638 761.567L192.723 764.153L195.706 761.504L199.534 761.525L201.341 762.047L203.688 761.652L206.889 763.066L208.975 763.916L209.107 766.375L212.303 765.915L211.784 768.48L214.134 765.959L215.982 764.502L217.94 764.175L220.635 759.414L227.12 760.87L228.773 761.698L229.448 764.048L232.083 765.198L233.429 768.397L234.232 771.025L232.821 772.873L229.361 775.833L232.559 773.985L235.495 774.181L237.586 776.027L237.062 781.444L238.932 779.006L239.217 775.289L237.173 774.614L235.453 769.853L234.3 766.154L236.233 764.285L239.845 764.221L241.392 762.284L244.592 763.003L246.721 764.851L248.964 765.198L246.394 762.522L248.114 760.543L249.855 758.828L255.011 758.634L256.686 758.088L258.1 756.368L256.57 756.704L256.014 756.828L249.705 758.5L247.634 758.369L246.265 756.696L246.155 754.542L245.506 752.479L246.896 749.412L247.481 746.604L249.287 744.65L250.375 742.691L252.423 741.146L246.741 745.041L244.698 744.583L245.417 746.735L243.087 750.541L244.218 752.979L245.046 756.911L246.657 758.828L243.895 760.633L240.347 759.65L238.979 761.698L234.603 762.677L232.035 763.568L232.362 760.959L228.012 758.717L223.117 757.566L219.615 755.328L221.4 753.127L223.423 748.805L224.748 746.693L225.314 744.736L222.594 749.543L221.354 751.65L218.808 750.911L218.2 753.67L218.506 756.131L216.633 756.109L217.593 758.305V760.653L215.049 762.764L212.936 762.697L209.932 761.763L207.365 760L206.493 757.524L202.931 759.804L200.928 759.587L199.208 758.542L196.251 758.695L193.858 758.737L193.314 755.87L192.354 758.088L189.438 759.414L185.393 759.565L182.437 762.326L180.608 763.24L177.669 761.825L176.58 759.523L173.317 760.805L173.645 758.632L170.819 757.999L168.643 756.96L168.817 754.869L170.794 755.154L174.21 756.979L173.58 753.607L171.712 752.521L167.641 752.805L169.272 750.868L167.487 751.369L167.856 747.865L169.51 747.543L172.124 746.847L173.58 744.629L175.297 744.735L177.669 749.955L178.455 747.301L176.733 744.889L182.542 743.258L189.005 744.061L186.438 742.756L173.212 743.431L169.489 745.453L167.856 743.67L167.751 741.605L169.403 739.905L169.88 741.911L170.534 739.864L167.619 739.192L170.054 737.061L173.666 736.844L175.582 735.799L178.581 737.278L184.305 738.887L186.349 738.648L188.288 737.689L192.247 735.515L195.163 738.189L193.398 735.166L190.7 734.645L188.853 735.43L185.805 736.69L183.651 737.361L181.697 734.865L178.063 735.146L174.452 732.797L173.407 729.623L175.429 730.272L180.694 730.101L174.626 727.513L180.214 727.207L182.306 728.383L180.694 726.446L178.063 725.645L179.78 724.837L177.192 724.535L168.882 723.97L167.466 721.295L168.422 719.248L169.161 717.073L170.993 715.618L173.645 718.033L173.95 715.816L176.17 714.813L171.949 715.161L173.385 713.467L178.213 711.572L180.039 710.054L182.562 705.704L186.697 705.81L188.397 706.682L191.528 707.439L194.054 709.487L190.637 712.528L194.576 711.357L200.84 710.681L201.167 713.141L200.687 715.4L199.666 717.574L202.103 712.856L205.169 713.857L206.368 715.985L209.066 716.989L207.716 715.337L206.347 713.247L212.979 712.402L215.156 714.16L218.941 714.857L221.64 711.921L224.708 710.117L227.316 711.466L230.3 711.14L226.556 709.726L221.919 709.858L220.246 712.771L212.003 710.877L206.563 711.14L204.715 709.573L202.212 709.42L200.45 708.484L198.295 709.05L194.618 707.593L201.405 707.05L191.985 704.965L187.808 703.768L185.547 704.527L182.215 704.157L177.933 704.77L176.19 705.656L173.887 704.332L175.54 700.874L178.239 701.613L180.564 699.481L181.434 697.18L183.567 698.046L181.239 694.267L178.456 691.698L175.234 691.005L175.451 688.872L174.258 687.108L175.256 685.11L178.15 683.959L179.956 686.155L180.912 688.218L182.089 691.633L184.392 693.047L186.243 695.047L186.329 698.874L188.811 694.699H190.527L185.438 691.676L185.505 687.98L186.962 686.065L189.159 687.395L192.332 688.218L193.227 690.503L196.188 693.785L194.577 691.327L193.837 687.916L197.249 687.61L199.6 686.133L202.17 687.891L202.212 689.87L201.928 691.96L199.383 696.589L199.012 698.765L201.32 696.003L203.127 690.609L205.909 693.612L205.998 695.786L208.496 694.916L211.242 695.158L216.375 696.811L207.408 693.005L206.216 690.938L204.236 687.591L202.539 686.459L203.037 684.37L204.821 685.742L207.019 686.307L204.69 685.241L203.363 683.263L204.516 680.934L206.235 679.22L208.127 678.175L209.784 677.846L213.634 675.784L215.742 675.129L217.548 679.22L218.07 681.631L220.139 684.001L222.812 689.521L222.901 691.765L221.945 693.766L224.053 692.002L221.29 683.694L218.983 679.521L218.287 675.757L219.854 673.63L222.748 674.193L223.946 676.695L223.988 674.521L224.142 672.368L226.988 671.303L230.21 671.498L234.406 672.822L233.647 670.235L231.211 669.757L228.471 668.41L221.596 671.323L218.766 671.582L216.332 669.408H214.525L217.023 668.216L219.574 667.127L223.444 666.516L228.013 667.323L226.143 665.322L221.639 665.582L223.878 664.646L214.806 664.234L214.98 661.798L215.155 659.691L216.939 658.688L224.01 658.561L226.031 662.472L226.708 659.691L228.905 657.537L231.883 656.514L235.103 660.06L236.192 661.996L236.213 659.733L235.431 657.147L242.069 656.904L240.739 658.646L242.438 661.647L242.851 663.734L243.742 661.798L244.113 658.514L249.161 660.408L252.725 664.493H254.62L255.71 665.198L256.012 665.392L256.571 665.755L257.076 666.08L264.062 663.038L256.571 663.278L255.71 663.305L255.186 663.321L252.619 661.016L252.552 658.582L254.489 658.191L254.991 661.776L255.71 660.775L256.21 660.081L255.71 658.072L255.576 657.537L257.62 655.342L266.302 652.143L269.914 652.336L272.917 652.622L275.595 655.077L273.7 651.861L273.873 649.578L271.698 649.663L268.719 650.036L260.166 652.186L256.162 654.603L255.71 654.619L251.637 654.757L252.033 652.428L254.642 649.293L261.475 647.643L259.168 647.447L253.965 648.991L252.161 649.97L249.463 650.73L238.367 651.558L238.759 649.23L238.805 646.601L241.567 644.686L246.547 645.688L244.679 643.641L240.24 643.555L238.436 640.336L236.086 638.552L240.067 635.923L242.587 633.835L245.701 632.899L247.856 631.812L249.725 632.615L251.118 634.467L253.532 636.446L254.098 638.79L255.71 639.279L255.967 639.358L256.571 638.932L257.905 637.987L259.775 636.03L261.517 634.769L264.933 635.011L263.974 637.443L261.363 639.055L266.672 637.031L270.177 635.206L274.48 637.138L275.22 639.163L275.853 642.969L276.287 645.207L277.834 647.883L280.658 648.707L284.968 653.077L287.059 653.753L288.853 655.744L289.048 657.939L289.745 654.72L286.306 650.982L283.805 649.459L282.367 647.806L279.67 646.655L277.732 644.393L277.275 642.369L278.101 640.195L276.949 637.587L274.864 636.021L272.188 633.195L269.399 633.433L270.032 630.953L271.728 627.976L273.643 626.192L276.581 628.193L276.342 630.281L277.8 632.389L280.039 633.302L281.26 635.149L281.935 637.761L282.737 640.043L282.452 642.216L287.501 644.264L286.48 642.133L290.31 642.76L291.873 644.718L293.833 646.111L291.787 642.634L288.636 641.566L285.589 637.651L292.681 636.411L290.505 635.497L288.805 634.826L290.917 632.694L287.741 634.458L284.675 635.868L286.086 633.324L281.935 632.499L279.342 631.519L279.585 629.476L278.799 627.389L279.432 624.498L280.758 626.408L281.391 628.651L282.108 625.215L279.976 623.887L289.724 624.866L292.787 626.519L290.765 624.062L290.917 621.954L302.534 619.559L293.181 619.821L291.461 617.732L289.438 614.665L289.091 612.775L295.03 611.645L297.053 609.925L294.681 608.928L293.136 606.86L294.244 604.858L297.185 604.684L299.011 604.383L300.797 606.62L302.232 604.816L304.646 601.903L308.168 605.297L308.802 607.665L307.735 610.513L307.388 613.927L308.997 611.383L312.868 609.187L318.244 608.036L312.735 607.925L309.848 606.447L310.344 604.188L319.786 601.576L316.089 602.034L314.087 601.228L311.215 602.468L309.736 599.142L312.345 598.704L314.694 596.662L316.568 597.575L319.155 595.421L320.984 594.509L322.268 596.553L321.854 594.14L320.112 593.51L321.877 592.074L323.814 591.617L325.685 590.18L327.447 590.269L327.923 592.641L329.358 594.551L330.252 597.554L331.883 599.882L332.908 601.359L334.428 603.296L334.232 607.123L330.817 611.688L332.755 611.514L335.431 609.276L337.586 610.057L339.238 611.948L342.761 611.688L344.308 615.948L344.698 613.341L343.827 610.622L338.737 609.425L337.41 607.103L338.716 604.47L340.998 603.101L345.543 602.098L347.266 603.598L349.176 603.054L351.268 602.881L353.291 604.251L357.837 602.99L359.99 603.924L362.579 603.513L364.211 603.121L361.972 601.317L359.928 598.445L362.167 596.118L365.039 595.792L364.997 592.466L362.775 592.794L360.731 594.182L358.992 594.66L359.097 591.769L360.729 590.27L362.514 589.595L364.383 586.766L368.344 584.312L371.042 585.288L373.697 583.203L374.786 581.007L375.069 580.873L377.722 579.636L381.007 579.418L381.161 577.134L380.052 575.007L378.178 575.155L376.502 574.177L375.932 574.276L375.07 574.428L370.631 575.201L370.107 572.415L372.563 571.024L373.957 568.482L375.07 567.803L375.932 567.274L376.307 567.046L380.506 565.739L382.03 564.064L378.287 562.719L375.07 562.159L375.045 562.15L374.698 559.928L375.07 559.584L375.932 558.782L377.506 557.322L375.932 558.342L375.659 558.518L373.852 559.691L373.24 562.778L365.888 568.432L364.321 570.279L363.122 571.999L358.448 573.958L356.162 576.522L360.012 575.282L364.016 572.152L367.15 573.304L368.889 574.412L368.846 576.479L366.691 580.392L364.473 583.526L361.405 584.33L359.23 586.418L357.076 586.677L355.228 589.938L352.683 591.416L349.113 594.225L346.134 595.439H343.652L341.303 597.201L338.604 599.244L336.038 599.768L333.515 598.747L333.08 595.982L332.907 593.766L330.165 590.917L330.362 588.722L329.816 586.439L333.71 584.787L336.081 584.197L339.26 581.179L337.04 582.524L337.015 580.064L334.712 581.262L331.646 583.653L329.205 584.243L325.118 585.896L323.181 587.829L322.593 585.353L327.336 581.479L329.164 581.152L323.027 581.721L325.593 577.589L330.837 574.628L332.733 571.782L338.194 570.737L339.671 569.107L341.478 569.587L340.999 567.519L339.063 568.585L337.062 569.587L334.321 570.696L338.779 567.346L335.863 567.477L334.121 567.825L335.236 566.131L335.822 563.238L336.889 560.669L335.953 558.365L338.694 557.976L342 557.95L339.413 556.863L340.781 555.232L341.542 551.864L345.2 550.407L345.442 550.604L347.308 552.123L346.003 549.537L343.611 548.755L346.31 546.882L348.265 546.602L350.659 544.407L349.895 541.946L351.157 540.185L353.184 542.058L351.484 539.641L354.356 540.901L353.464 537.771L350.222 536.816L351.659 534.943L354.336 536.989L353.966 534.857L358.053 535.835L360.947 539.144L360.45 537.011L360.34 534.815L356.772 534.399L357.142 532.377L360.188 531.511L362.495 530.661L364.823 531.185L364.259 529.136L364.999 527.333L364.148 525.051L365.04 523.031L367.935 524.466L368.215 526.726L369.501 528.529L371.547 530.725L371.458 533.729L373.96 533.249L376.917 534.62L376.331 536.922L375.072 538.768L374.79 539.184L373.527 542.271L375.744 538.899L375.935 538.742L378.074 536.987L378.596 533.595L381.03 533.094L385.103 531.812L379.789 532.181L380.182 530.049L382.25 528.485L381.728 526.396L383.772 525.831L386.254 524.832L389.083 523.636L386.317 523.112L385.34 521.048L383.076 522.569L382.971 525.007L380.077 521.44L379.096 519.287L378.207 516.938L378.926 514.959L380.663 514.524L382.188 512.763L383.926 513.285L382.796 511.152L389.908 509.849L386.256 507.368L389.713 506.239L387.649 505.911L385.559 505.827L387.301 504.74L388.366 502.913L390.41 502.106L393.41 499.931L395.654 499.52L397.35 497.582L402.571 498.671L400.09 496.67L397.391 496.495L393.194 498.258L388.146 502.433L384.561 504.021L382.559 507.521L379.597 510.002L378.313 511.785L375.074 513.197L374.072 513.632L376.75 511.283L378.772 508.413L376.529 508.675L375.937 508.513L375.074 508.272L373.767 507.911L375.074 507.363L375.937 507.001L381.75 504.565L385.927 502.348L384.037 502.542L373.419 505.086L378.007 500.496L381.36 502.085L383.795 500.649L380.273 499.735L382.686 498.258L384.533 498.822L387.19 497.866L388.844 496.865L390.148 493.561L391.848 491.866L393.912 490.388L395.98 490.8L398.724 491.343L400.963 493.823L401.117 491.343L403.967 490.236L405.642 488.626L408.578 488.387L409.93 486.318L413.451 485.321L414.909 483.273L416.52 481.121L418.173 479.188L419.064 477.034L422.48 472.01L420.349 473.25L415.082 480.408L412.232 482.534L408.165 484.603L406.665 481.991L409.274 481.537L408.229 479.405L406.423 478.945L407.923 477.099L410.558 476.75L415.193 476.686L412.539 475.969L410.404 475.579L407.992 475.272L405.357 475.753L404.053 477.405L405.162 473.34L407.337 472.839L409.1 470.839L407.12 471.904L409.405 468.574L412.648 469.445L415.389 471.076L413.319 469.229L411.037 468.858L410.342 466.01L409.143 464.183L411.429 463.598L413.277 464.812L414.909 467.618L413.646 465.139L413.801 462.77L417.608 461.967L412.56 462.162L412.147 460.161L411.361 458.071L411.471 455.965L411.187 453.158L410.272 457.032L408.207 458.008L409.385 456.071L410.035 453.68L408.207 456.963L406.381 457.158L406.292 454.44L404.771 450.656L405.859 447.7L406.708 445.657L409.361 443.197L411.318 446.242L412.016 448.851L414.519 449.267L417.259 449.569L414.561 448.224L413.362 446.133L411.166 443.589L410.494 440.918L413.061 437.83L413.166 436.11L412.078 434.394L412.319 432.173L413.359 429.696L416.321 426.909L418.017 426.715L420.039 427.586L421.519 429.412L424.284 430.737L427.284 434.394L426.982 431.502L426.37 429.306L423.824 427.845L421.78 427.043L421.173 423.562L421.26 420.608L413.883 421.626L414.822 417.234L418.085 415.083L423.129 413.604L426.176 412.3L428.091 411.06L430.268 408.732L436.467 406.885L436.53 409.973L438.252 410.559L437.316 412.95L437.011 415.192L439.381 412.843L442.059 412.254L445.232 412.887L443.817 410.928L441.796 411.276L439.033 410.516L439.794 408.058L443.015 406.384L443.273 409.339L445.344 407.665L449.15 406.342L450.042 403.992L452.827 401.665L453.565 399.427L450.935 400.751L448.606 401.729L447.366 404.078L444.166 403.861L441.948 404.926L439.097 406.689L439.055 404.318L435.706 405.603L433.226 406.817L430.765 406.773L427.416 409.777L423.673 412.079L424.09 408.818L425.283 406.927L430.396 402.989L435.316 402.774L432.66 401.749L432.919 399.923L430.789 399.031L430.765 401.079L427.723 403.337L425.674 402.969L423.937 402.145L422.283 402.014L421.085 399.47L424.981 397.295L425.59 395.164L423.672 392.64L425.372 392.118L422.543 389.398L419.76 388.074L423.37 386.486L425.784 387.836L426.914 389.923L427.109 392.054L430.985 392.186L428.874 391.965L428.639 389.314L429.79 386.442L432.9 386.227L436.512 386.835L439.447 387.594L433.925 385.141L434.574 383.07L436.95 381.44L434.379 381.529L432.313 384.659L429.854 385.225L428.073 385.899L426.199 385.397L427.201 382.463L429.509 380.4L427.224 380.03L424.895 378.832L427.398 378.483L429.921 379.027L431.987 377.982L434.748 379.139L433.465 376.789L427.418 375.265L433.686 374.093L439.364 375.375L442.236 373.83L444.67 372.049L439.712 372.331L436.97 373.919L435.165 373.312L435.361 371.264L439.819 371.242L435.403 369.634L436.622 367.285L438.729 367.374L441.038 368.266L447.306 368.113L441.888 367.026L439.059 365.61L438.45 363.632L436.775 361.046L434.489 361.178L434.838 358.87L439.775 358.307L442.279 356.259L444.909 354.021L444.954 356L445.108 359.022L446.218 356.782L447.782 353.804L447.085 351.435L447.955 349.239L448.785 351.301L449.634 353.999L451.937 354.849L453.876 351.435L453.787 348.933L457.793 348.453L460.946 349.281L461.708 351.323L462.795 349.539L459.969 348.304L456.595 347.518L454.225 347.823L454.831 345.126L454.92 342.821L458.227 341.301L457.398 343.887L464.404 341.342L466.147 343.627L466.079 341.476L463.623 340.19L459.858 340.212L462.858 338.819L465.993 338.212L469.801 337.711L472.388 336.973L470.994 340.018L470.604 342.148L473.434 344.91L473.065 342.909L473.19 338.08L474.976 336.841L479.067 338.017L480.896 339.188L482.981 339.538L483.94 344.213L485.681 345.606L487.531 345.844L485.505 342.625L486.444 340.191L484.069 337.927L485.399 336.037L492.772 338.253L491.926 335.969L489.576 336.449L483.963 334.603L481.504 336.665L480.113 334.296L474.479 334.492L476.915 329.947L473.999 331.168L470.149 332.93L466.516 333.537L464.035 337.384L464.253 333.689L462.424 334.339L456.705 335.71L454.462 336.275L456.115 334.907L457.572 332.296L458.554 330.385L461.251 326.405L461.511 324.405L464.838 323.207L466.449 325.491L469.474 323.382L471.343 322.49L472.996 320.748L470.061 321.38L466.865 321.185L464.447 318.509L465.688 315.834L470.735 312.312L472.542 311.727L475.457 314.397L472.499 313.681L472.259 315.834L471.736 318.055L468.345 318.335L471.219 319.555L473.541 317.29L476.003 315.357L477.153 317.117L475.827 320.577L477.697 319.248L481.483 317.271L484.377 318.879L485.074 320.901L486.748 324.404L487.186 326.385L488.967 328.687L489.034 331.103L491.516 329.318L489.685 327.989L488.925 325.729L487.836 323.186L485.729 321.207L486.965 319.38L487.467 315.27L492.276 312.029L495.234 311.335L489.079 312.202L486.294 314.941L478.463 314.969L477.982 311.311L481.05 310.594L483.485 310.878L482.05 309.095L479.655 308.835L476.741 309.009L479.376 303.572L478.22 301.377L480.094 301.92L484.943 304.07L488.011 303.352L485.967 301.854L483.311 302.438L480.898 300.137L485.944 298.766L487.685 299.594L491.818 303.135L487.794 297.721L487.815 295.873L486.162 296.829L480.703 295.873L481.42 293.329L480.897 291.392L480.354 293.962L479.615 291.872L479.746 294.654L478.088 297.504L477 299.225L475.067 302.007L471.497 304.835L469.19 305.963L466.191 307.638L463.925 307.422L466.972 303.573L464.321 302.768L466.777 301.442L473.173 300.244L471.366 300.157L469.713 298.589L466.582 298.526L464.167 298.045L463.577 295.785L466.211 295.111L468.431 293.96L471.192 293.654L465.473 293.633L466.646 291.611L469.149 289.87L471.497 290.26L474.349 290.135L474.607 292.805L477.242 289.611L481.895 287.349L482.962 289.241L483.093 291.523L483.419 289.175L488.795 284.393L491.077 285.913L491.752 287.892L492.102 285.869L493.517 283.584L494.187 280.935L496.647 279.736L492.274 279.129L491.71 276.781L490.077 277.282L484.292 278.782L482.918 276.434L478.631 280.281L478.066 282.218L476.112 278.803L478.657 274.606L481.223 272.474L481.593 274.996L483.331 273.736L484.418 272.062L484.396 269.909L486.62 271.127L487.139 273.346L486.836 275.345L485.031 274.65L484.703 276.738L487.574 276.128L489.794 274.563L491.709 271.604L490.554 269.103L492.45 266.516L492.122 264.146L493.754 263.275L494.926 265.819L494.821 267.909L496.712 270.518L496.126 272.605L496.909 275.192L496.169 277.584L499.215 280.174L500.89 282.868L501.28 286.128L503.35 288.329L507.961 292.764V291.089L504.133 288.478L502.828 284.936L502.436 282.303L501.501 280.349L506.329 285.109L506.07 282.673L503.916 280.128L506.461 281.216L509.635 281.912L507.961 281.479L507.59 279.521L504.459 277.604L504.892 275.52L506.613 272.933L509.07 274.65L512.159 275.431L509.661 273.282L507.982 271.561L505.959 271.498L503.609 274.042L500.89 271.54L503.524 269.734L505.938 268.843L504.654 267.079L508.223 267.845L506.176 265.67L505.373 263.691L498.192 266.082L499.131 264.43L502.61 263.949L498.301 262.255L496.344 261.363L496.845 258.603L499.454 258.973L502.02 260.43L506.613 261.711L508.482 265.776L513.509 269.148L515.226 269.45L513.642 267.798L510.553 265.059L508.941 262.604L508.002 260.124L503.783 258.947L501.105 257.056L498.412 255.774L501.824 254.122L510.353 250.902L513.357 252.424L515.356 254.255L514.334 256.186L518.621 254.316L521.842 252.012L523.321 254.032L524.061 256.316L528.063 259.516L527.868 261.817L528.501 263.949L528.869 261.536L530.544 260.645L529.52 258.603L525.997 255.927L524.581 254.054L523.864 251.794L526.759 249.033L531.457 251.535L533.611 251.731L527.65 248.576L532.064 247.056L536.591 247.705L539.594 249.252L533.739 245.314L530.042 245.947L530.157 245.513L531.413 240.833L529.782 240.901L526.93 242.421L524.602 245.988L519.252 248.011L519.924 246.374L519.965 246.269L519.788 245.512L519.469 244.162L517.141 242.964L515.275 245.512L515.179 245.64L514.725 246.374L514.006 247.531L511.156 247.557L509.434 248.707L505.976 249.034L504.761 246.729L504.582 246.374L504.151 245.512L503.758 244.729L505.389 241.75L507.111 242.616L506.693 240.685L505.563 238.399L506.172 235.702L508.588 234.008L511.24 231.637L514.092 230.503L516.531 230.202L518.332 232.091L519.815 234.05L519.271 231.965L518.77 229.765L521.14 228.502L523.839 228.482L526.426 229.812L528.798 230.877L530.889 230.071L528.691 229.157L525.926 225.699L523.1 226.549L523.771 222.96L526.797 220.655L529.668 222.199L533.761 222.459L535.567 224.328L535.303 222.306L531.649 221.394L526.839 219.546L528.691 218.242L530.103 216.395L532.389 214.61L534.13 215.915L532.214 213.196L527.493 213.524L526.167 211.502L527.122 208.673L527.471 205.496L528.343 203.411L529.255 199.389L534.479 198.476L536.501 196.343L541.284 195.409L539.371 194.581L538.914 192.67L539.437 190.385L537.219 190.649L536.368 186.796L537.13 184.494L538.783 180.688L539.653 177.904L538.998 175.817L539.416 173.621L541.917 172.118L544.438 175.686L544.463 178.341L546.396 178.077L548.419 181.708L548.486 183.862L549.227 185.904L549.051 188.125L549.639 185.731L549.226 182.231L549.116 180.119L550.727 183.037L552.489 184.667L554.206 181.925L556.383 181.576L559.321 183.255L561.298 183.709L559.604 180.947L552.01 179.059L549.706 175.75L547.986 174.534L546.116 172.509L545.875 170.423L548.03 168.598L554.863 165.922L555.429 167.965L556.801 170.032L557.366 172.187L559.953 173.923L560.386 176.034L563.455 178.314L569.178 178.555L570.224 181.489L568.35 183.47L566 184.014L568.026 184.168L568.223 186.299L570.155 186.754L573.704 186.558L573.118 184.668L572.135 182.384L572.093 179.944L568.873 176.164L564.108 176.946L561.87 174.358L559.389 171.467L559.082 168.596L560.366 166.528L562.826 164.986L565.218 166.575L564.172 164.616L561.955 164.115L559.779 165.292L557.821 165.661L556.473 161.312L559.104 155.507L558.999 152.546L560.958 151.331L563.328 148.699L566.983 148.589L569.507 146.636L573.706 145.131L574.16 149.005L574.467 151.332L573.879 153.703L574.899 156.026L575.358 158.919L574.381 164.096L574.312 166.354L575.121 168.814L573.964 171.378L573.097 174.075L576.531 170.486L576.683 167.162L576.075 164.554L576.51 159.661L580.644 158.68L582.429 159.552L584.146 159.984L582.212 159.028L580.427 157.963L578.099 155.877L577.248 153.831L576.925 151.744L577.513 148.046L579.317 143.089L579.819 145.395L579.841 147.723L581.58 141.721L582.08 139.326L582.276 136.238L583.405 139.003L583.668 135.891L584.799 132.674L589.24 137.415L589.436 139.694L589.633 142.763L589.242 145.241L589.305 147.591V151.724L591.109 154.526L591.717 156.616L590.719 158.79L590.522 161.463L589.999 164.464L590.476 166.813L589.324 168.967L588.911 172.271L586.562 175.011L584.386 180.319L586.736 177.622L590.411 172.707L592.63 166.486L593.849 163.595L594.003 160.702L594.479 158.526L597.028 160.442L599.18 161.768L602.858 161.984L600.836 160.986L598.81 157.919L595.504 156.071L594.395 151.528L593.962 147.896L596.07 144.61L599.159 142.091L599.725 140.112L598.725 137.632L603.814 131.304L602.663 134.349L601.598 137.131L604.316 141.849L605.163 139.004L605.601 136.544L607.534 135.543L607.45 139.109L609.165 137.416L608.056 133.241L610.865 132.76L607.733 131.366L607.602 128.585L607.828 127.058L607.907 126.542L608.155 126.196L609.47 124.369L615.174 126.196L615.366 126.259L616.979 128.368L617.607 131.305L619.698 132.481L621.547 132.677L625.83 135.96L627.243 138.393L630.401 140.482L628.596 140.806L631.378 141.028L630.291 139.071L628.549 136.416L625.919 135.028L628.005 134.919L627.287 132.723L625.286 130.089L624.461 127.787L624.226 125.613L626.551 124.589L626.879 126.2L626.968 126.631L627.315 124.156L627.14 122.177L624.441 123.068L622.42 123.459L620.482 122.024L624.617 119.849L626.443 116.783L623.657 118.129L620.72 118.088L618.286 120.741L615.741 118.826L612.975 119.48L610.63 116.672L611.216 114.499L608.364 115.153L606.078 114.218L604.425 112.847L605.339 110.434L608.19 107.934L609.473 109.801L610.909 111.606L610.561 109.452L610.629 107.346L610.324 104.955L612.236 105.847L614.913 107.605L618.198 110.519L619.157 112.564L620.811 114.239L620.33 112.149L619.809 110.149L617.722 107.02L621.092 101.778L621.593 103.625L623.355 102.691L625.01 106.585L625.247 103.778L628.077 102.518L629.401 105.083L628.747 106.998L629.925 109.912L629.64 112.414L633.383 111.977L636.536 113.042L631.229 110.935L631.382 107.499L631.271 105.367L634.428 104.259L636.736 105.062L638.691 105.626L645.782 105.392L644.437 111.392L641.848 113.587L637.734 115.503L635.845 115.481L634.186 117.413L631.969 119.503L634.34 117.851L640.127 115.761L644.895 112.717L646.959 109.544L647.983 111.544L648.328 113.74L649.071 115.85H651.68L652.357 117.85L653.486 120.263L656.423 118.438L657.621 120.982L659.902 118.828L661.777 115.85L656.054 115.238L652.399 112.241L654.465 110.478L656.358 109.85L657.03 107.955L654.88 107.021L656.444 105.194L654.51 104.714L652.16 103.563L655.335 101.953L657.599 101.083L652.879 101.431L654.88 98.5811L658.708 96.9756L655.771 95.6045L656.227 92.1689L658.535 88.4941L660.468 85.4287L661.381 82.5361L663.387 80.5352L669.846 80.2998L672.739 81.0391L671.197 78.6006L667.495 77.667L668.954 74.0137L669.454 69.5107L670.172 66.6621L671.936 66.5576L677.571 69.2539L679.439 69.6875L680.095 67.4248L677.613 64.8369L675.374 62.9473L672.089 61.6436L669.196 61.2949L666.54 60.4033L666.477 57.8594L667.977 54.5293L670.761 55.9648L673.806 57.8389L673.96 55.9023L673.697 53.5537L675.897 53.0938L673.676 51.1152L672.219 47.6152L672.915 45.334L675.524 45.4199L677.33 46.8555L677.571 49.2461L681.182 48.0059L680.485 45.9209L681.311 43.9209L682.487 46.7461L681.659 49.5303L683.575 51.4639L684.12 47.7051L687.469 49.5107L689.058 52.5508L689.188 54.9463L690.995 53.0303L690.886 47.9219L690.013 46.0742L688.577 43.5947L693.473 44.5918L693.562 47.1396L692.432 49.1152L695.084 49.2041L695.89 46.4863L697.76 45.5303L699.284 47.5293L700.589 45.5732L702.981 45.9209L702.502 48.7021L700.807 52.7256L698.367 54.7715L699.349 57.4688L697.933 59.4893L697.325 61.6182L694.824 66.7529L693.148 69.624L690.472 73.7314L693.714 72.6445L694.344 75.4512L690.081 76.1895L694.495 75.9932L695.304 78.9297L696.237 80.7979L693.932 82.127L692.779 84.8457L694.433 87.3896L696.106 86.0391L694.016 92.0186L692.646 94.3682L692.905 96.7588L693.06 99.1279L693.888 102.87L695.976 105.135L696.172 103.065L694.979 100.39L696.588 98.6094L697.111 101.153L698.241 103.329L700.243 102.305L701.33 96.3047L702.133 94.499L703.242 90.2822L704.31 88.0176L703.723 85.7793L701.31 85.3418L704.678 76.3418L707.377 66.9053L709.4 63.4014L709.271 57.2676L710.312 55.2471L710.577 52.8564L711.945 49.1611L712.467 46.4424L713.316 43.7471L717.188 37.0264L720.171 38.6367L720.953 40.4619L720.324 42.3955L720.714 44.6172L722.236 48.3535L722.933 50.834L722.325 53.0732L716.644 58.6826L719.976 56.9248L722.955 56.8359L724.216 63.2061L724.153 65.3818L724.502 67.5557L724.63 70.0361L724.544 72.21L725.367 74.2324L725.521 76.3428L727.395 75.209L727.654 73.1455L730.136 71.123L730.679 69.0332L733.483 66.2939L736.051 66.1396L733.353 63.1406L733.462 60.8779L733.027 58.0967L735.483 57.5098L738.293 57.7051L734.961 55.6377L733.83 53.8115L734.507 51.7891L732.548 48.9189L736.245 46.8965L735.33 43.4404L735.506 41.3281L742.751 40.7852L738.99 40.3086L737.965 37.6553L735.701 35.374L731.154 37.3535L728.804 34.002L733.769 33.2852L732.242 31.5L730.61 30.7412L729.438 28.9141L735.331 28.2393L736.813 30.5879L737.528 28.5449L736.573 26.7598L735.442 24.6084L735.051 22.6074L736.813 19.2139L738.706 20.3477L739.097 23.0195L741.207 22.8916L743.078 23.7158L745.363 22.6963L746.124 20.7383L748.823 19.7822L750.665 19L751.888 21.4717Z" fill="white"/>
<path d="M377.346 912.081L376.56 911.427L377.992 909.127L377.346 912.081Z" fill="white"/>
<path d="M374.73 907.387L374.906 907.3L374.557 909.316L373.342 911.47L371.906 909.687L373.405 906.731L374.73 907.387Z" fill="white"/>
<path d="M377.992 909.127L378.061 908.842L378.235 908.756L377.992 909.127Z" fill="white"/>
<path d="M384.936 907.489L382.607 906.576L378.235 908.756L379.17 907.257L383.737 905.818L384.936 907.489Z" fill="white"/>
<path d="M369.074 905.974L366.618 907.739L367.531 905.586L368.921 904.862L369.074 905.974Z" fill="white"/>
<path d="M181.997 899.822L183.522 900.442L183.957 901.623L182.847 903.579L179.953 901.45L178.929 899.211L181.997 899.822Z" fill="white"/>
<path d="M166.071 881.766L167.161 884.574L166.879 886.728L166.922 887.185L167.186 889.777L166.79 892.948L165.184 896.67L161.831 896.127L161.309 892.362L163.331 886.969L165.072 887.555L163.615 885.048L163.875 882.55L164.139 880.62L165.009 878.44L166.071 881.766Z" fill="white"/>
<path d="M173.099 893.292L173.057 895.23L170.248 894.206L171.905 891.449L173.099 893.292Z" fill="white"/>
<path d="M196.249 890.07L194.528 892.491L192.636 893.077L190.002 892.052L190.982 889.27L193.312 888.839L196.249 890.07Z" fill="white"/>
<path d="M165.75 848.152L168.728 851.651L170.186 854.827L170.533 855.304L170.966 857.479L168.532 859.547L169.837 857.61L169.509 855.415L167.794 855.805L165.945 856.111L165.703 858.438L164.487 861.675L166.335 859.874L165.749 862.764L163.896 866.093L163.051 863.939L162.745 861.744L163.748 857.653L165.987 854.544L162.09 853.742L162.222 851.784L164.661 848.717L164.465 846.304L165.75 848.152Z" fill="white"/>
<path d="M174.013 841.17L175.819 844.521L177.08 848.131L177.102 848.759L177.038 850.717L176.494 853.197L173.796 853.651L170.924 853.197L170.358 851.023L168.965 846.652L168.923 844.217L170.381 842.324L171.142 839.585L174.013 841.17Z" fill="white"/>
<path d="M184.046 834.213L183.476 838.757L181.607 842.151L182.02 844.934L180.28 843.999L177.345 844.326L177.149 840.996L174.08 840.585L173.776 838.019L176.168 836.082L178.866 834.324L181.348 834.149L182.631 833.605L184.046 834.213Z" fill="white"/>
<path d="M169.858 831.997L171.12 832.842L171.251 835.386L170.338 837.712L167.704 836.125L166.922 833.976L168.294 831.774L169.335 834.04L168.596 831.648L168.965 829.69L169.858 831.997Z" fill="white"/>
<path d="M162.767 809.513L164.857 813.316L165.553 816.816L163.832 817.534L164.963 819.34L165.553 821.621L165.527 823.646L163.573 822.95L161.526 821.621L160.136 819.187L160.088 816.902L161.329 814.099L161.155 811.619L161.267 809.555L162.243 806.899L162.767 809.513Z" fill="white"/>
<path d="M164.223 801.01L168.4 802.813L170.011 806.572L169.446 808.662L166.856 808.879L167.509 806.768L165.702 805.812L163.832 802.551L162.571 800.788L162.855 798.813L164.223 801.01Z" fill="white"/>
<path d="M187.743 791.831L187.309 797.421L186.611 802.05L185.956 806.14L183.957 807.834L179.715 807.554L178.125 805.185L176.823 802.618L175.143 799.726L176.775 799.769L180.063 797.115L182.499 795.636L184.152 793.985L186.046 790.591L187.743 791.831Z" fill="white"/>
<path d="M158.568 793.245L158.741 793.768L156.826 796.006L156.72 793.832L157.85 791.224L158.568 793.245Z" fill="white"/>
<path d="M160.549 772.128L161.831 773.98L162.486 776.804L161.594 777.37L160.459 775.458L159.614 773.326L158.526 771.543L160.549 772.128Z" fill="white"/>
<path d="M156.567 764.301L157.11 765.235L154.697 766.739L154 764.39L156.241 761.756L156.567 764.301Z" fill="white"/>
<path d="M163.442 756.801L164.118 754.32L165.422 755.364L165.206 761.302L162.266 762.67L160.136 761.952L159.371 764.085L159.308 761.52L159.545 759.059L160.939 756.04L161.831 758.997L162.202 757.039L162.55 753.951L163.442 756.801Z" fill="white"/>
<path d="M165.422 721.354L163.922 720.529L165.617 719.18L165.422 721.354Z" fill="white"/>
<path d="M177.646 709.352L174.821 709.24L173.168 710.461L170.423 712.523L166.271 712.982L166.79 710.091L164.398 708.069L166.029 705.679L168.965 705.351L177.646 709.352Z" fill="white"/>
<path d="M173.732 698.041L175.17 696.806L175.581 697.238L175.539 700.045L173.189 703.545L172.709 700.348L171.014 698.563L171.558 696.216L173.732 698.041Z" fill="white"/>
<path d="M196.598 680.427L198.773 681.493L198.034 683.431L197.644 685.585L195.051 686.56L189.701 685.975L188.699 683.737L192.094 683.952L189.286 682.561L190.268 680.538L192.179 678.992L195.4 678.866L196.598 680.427Z" fill="white"/>
<path d="M205.344 672.839L206.432 675.429L206.668 677.188L200.992 682.429L199.165 682.232L199.752 680.169L199.841 677.188L199.186 674.864L200.427 672.078L202.121 670.753L204.017 670.557L205.344 672.839Z" fill="white"/>
<path d="M196.557 677.188L194.771 677.362L193.509 677.515L194.226 675.752L197.142 674.864L196.557 677.188Z" fill="white"/>
<path d="M192.227 676.017L191.661 676.296L189.829 676.211L190.853 673.973L192.227 676.017Z" fill="white"/>
<path d="M212.936 670.146L214.394 671.429L216.11 672.906L211.087 673.166L208.695 672.622L206.647 670.056L212.936 670.146Z" fill="white"/>
<path d="M236.279 650.987L236.475 653.378L231.078 654.66L228.381 654.988L228.967 653.052L231.078 651.419L234.648 649.984L236.279 650.987Z" fill="white"/>
<path d="M234.32 643.308L235.212 643.092L237.319 642.396L237.802 644.547L235.736 645.703L235.276 647.635L233.339 644.595L233.016 642.114L234.32 643.308Z" fill="white"/>
<path d="M261.146 626.871L260.797 629.479L261.475 630.371L261.405 633.808L259.278 634.979L256.303 635.34L254.969 635.502L253.791 631.132L253.902 628.83L256.57 629.735L257.164 629.938L258.316 631.807V629.695L259.774 627.806L259.188 625.13L261.146 626.871Z" fill="white"/>
<path d="M269.108 629.198L267.215 631.263L263.777 630.893L262.688 629.067L263.866 626.76L265.26 627.763L268.761 626.607L269.108 629.198Z" fill="white"/>
<path d="M276.85 617.824L277.985 620.502L278.483 622.871L271.718 623.673L270.589 620.648L272.284 619.847L274.132 617.673L276.265 617.107L276.85 617.824Z" fill="white"/>
<path d="M288.013 616.869L290.015 618.869L290.516 621.716L285.949 622.803L283.488 621.672L281.249 616.977L283.033 615.867L285.62 617.344L286.883 614.279L288.013 616.869Z" fill="white"/>
<path d="M281.402 619.958L282.554 621.304L282.268 622.279L278.593 621.652L278.614 618.152L281.402 619.958Z" fill="white"/>
<path d="M276.307 601.474L276.983 604.145L278.726 606.669L275.594 610.863L272.024 610.975L270.198 609.756L271.762 609.06L266.236 606.842L266.041 604.842L267.953 603.69L270.699 603.189L273.307 600.798L276.307 601.474Z" fill="white"/>
<path d="M305.245 592.817L307.288 592.207L309.073 594.904L310.25 595.319L308.053 597.299L300.197 600.408L295.783 600.536L293.996 601.581L291.191 602.167L288.103 604.061L285.385 603.797L281.899 601.447L283.229 598.234L287.015 594.924L292.756 594.449L294.758 593.927L290.538 592.185L292.909 591.708L298.175 589.729L299.979 591.424L300.697 589.339L303.745 588.686L305.245 592.817Z" fill="white"/>
<path d="M308.682 589.187L309.834 589.361L308.941 590.665L305.636 590.513L306.333 588.512L308.682 589.187Z" fill="white"/>
<path d="M299.066 579.901L299.479 583.206L296.849 586.357L290.648 586.97L287.84 587.339L290.037 585.968L286.558 586.511L284.86 587.271L282.119 586.252L284.013 585.14L289.862 584.009L295.063 579.924L298.85 577.792L299.066 579.901Z" fill="white"/>
<path d="M333.96 563.093L333.896 564.809L331.591 564.396L332.656 561.613L333.96 563.093Z" fill="white"/>
<path d="M370.621 520.878L374.513 523.507L375.082 525.822L375.887 527.099H375.943L379.325 527.058L378.391 531.037L375.943 529.838L373.949 528.864L371.926 529.45L370.686 525.036L372.165 523.316L368.923 523.882L367.465 522.076L368.315 519.49L370.621 520.878Z" fill="white"/>
<path d="M380.454 523.687L379.541 526.863L376.821 524.751L378.497 521.315L380.454 523.687Z" fill="white"/>
<path d="M375.942 517.574L376.883 519.337L376.648 520.926L374.362 521.405L371.446 519.928L371.885 517.88L375.083 517.438L375.818 517.337L375.942 517.574Z" fill="white"/>
<path d="M373.797 502.749L372.576 504.532L370.058 506.444L367.945 504.833L368.748 502.116L368.469 502.331L366.203 502.356L364.271 504.031L360.985 505.224L370.992 499.592L373.797 502.749Z" fill="white"/>
<path d="M364.962 500.965L363.007 501.724L361.307 503.899L360.589 504.507L358.239 505.836L358.307 503.249L359.548 500.679L362.157 500.377L364.878 498.287L369.096 497.507L364.962 500.965Z" fill="white"/>
<path d="M387.98 488.264L386.328 489.568L384.521 490.941L381.521 490.72L383.041 487.372L387.373 487.483L388.417 486.567L387.98 488.264Z" fill="white"/>
<path d="M403.431 483.003L402.147 485.873L402.888 486.175L404.668 486.721L402.471 489.702L399.577 490.636L396.99 488.699L398.384 485.547L398.188 483.373L398.684 481.197L401.449 480.089L403.431 483.003Z" fill="white"/>
<path d="M404.406 457.755L406.255 459.083L407.821 462.43L408.06 464.673L408.019 468.521L404.929 471.345L401.535 473.587L401.687 475.672L400.642 477.35L396.835 479.351L397.99 476.828L397.901 471.999L400.49 469.887L400.014 466.604L401.013 464.91L402.295 461.605H400.49L401.361 458.908L401.536 456.799L403.188 455.124L404.406 457.755Z" fill="white"/>
<path d="M394.4 446.797L393.074 448.537L393.529 450.86L392.312 453.341L389.961 452.17L387.373 451.974L388.048 449.013L389.136 446.711L393.203 446.385L394.4 446.797Z" fill="white"/>
<path d="M418.179 424.377L414.72 426.248L411.631 428.683L408.04 433.163L406.276 433.812L407.585 431.881L404.819 431.401L406.451 428.746L407.691 425.463L412.196 423.594L412.523 425.942L413.611 424.744L414.805 423.616L416.463 422.766L418.18 422.549L418.179 424.377Z" fill="white"/>
<path d="M410.391 412.135L408.911 415.656L411.695 418.396L409.847 419.461L408.716 420.569L401.973 423.964L404.321 421.007L404.776 417.699L408.193 415.027L407.561 412.611L405.473 412.896L409.671 409.893L410.391 412.135Z" fill="white"/>
<path d="M417.81 404.588L418.026 405.196L417.745 407.808L416.591 409.479L414.414 408.373L414.455 405.285L416.742 404.107L417.81 404.588Z" fill="white"/>
<path d="M419.55 394.279L419.049 397.325L416.763 398.651L416.7 396.021L416.003 393.435L418.59 394.412L419.093 392.411L419.55 394.279Z" fill="white"/>
<path d="M452.638 345.157L451.486 347.422L452.228 349.791L450.943 353.18L450.29 350.831L448.136 348.615L446.984 346.726L447.809 344.093L450.812 345.57L451.899 342.396L453.335 341.615L452.638 345.157Z" fill="white"/>
<path d="M455.771 323.413L454.794 325.894L452.116 325.412L454.704 322.414L455.771 323.413Z" fill="white"/>
<path d="M418.96 280.835L418.505 283.642L419.049 286.466L418.678 289.707L416.938 289.796L415.151 287.859L416.545 290.62L416.894 292.836L415.893 294.556L413.088 296.815L410.779 298.361L412.042 295.512L412.238 292.861L412.956 290.771L413.325 288.533L413.869 286.555L416.7 281.183L416.786 278.855L417.419 278.421L418.96 280.835Z" fill="white"/>
<path d="M473.176 285.51L475.767 286.25L476.745 285.837L475.504 287.706L472.24 288.229L469.675 288.207L467.911 286.75L468.195 284.64L470.546 283.857L473.176 285.51Z" fill="white"/>
<path d="M426.771 276.464L426.316 279.467L424.077 283.247L421.638 285.532L419.895 283.748L420.181 281.398L422.684 279.271L424.141 280.923L423.771 278.116L422.616 276.442L423.835 274.527L426.771 276.464Z" fill="white"/>
<path d="M475.917 282.422L475.896 284.401L473.091 283.225L474.808 280.159L475.917 282.422Z" fill="white"/>
<path d="M493.151 280.115L492.084 281.9L489.43 281.488L487.211 280.357L485.035 282.4L481.683 281.271L483.642 279.725L492.062 279.508L493.151 280.115Z" fill="white"/>
<path d="M439.851 267.742L441.72 266.174L443.417 266.068L444.699 267.853L442.243 271.829L438.456 272.178L436.909 274.746L437.085 277.244L433.996 277.439L434.387 279.418L431.819 279.028L429.603 278.009L429.887 280.115L429.078 282.269L427.49 280.249L428.298 277.941L429.929 273.661L427.837 275.963L427.71 273.572L428.577 271.376L431.253 269.788L428.339 268.769L432.669 264.937L433.798 266.615L436.756 264.72L439.851 267.742Z" fill="white"/>
<path d="M470.196 252.065L466.586 257.44L465.128 260.135L459.82 265.028L460.144 262.701L459.8 259.809L458.839 261.788L457.665 264.485L457.275 267.856L454.361 269.964L451.985 270.423L449.613 272.271L446.895 272.375L447.332 268.791L450.399 267.07L448.941 264.916L450.073 261.655L452.011 264.114L453.315 260.741L450.485 258.024L455.596 257.089L454.444 255.438L458.886 256.33L458.817 253.939L461.452 254.043L461.801 256.064L461.015 258.589L463.343 256.218L464.365 252.587L467.757 251.545L470.196 252.065Z" fill="white"/>
<path d="M486.316 216.159L486.575 218.423L487.055 220.772L486.469 224.424L486.314 226.858L485.116 230.035L487.36 228.098L488.623 226.056L489.663 227.902L489.404 230.099L487.857 234.446L486.791 236.168L485.011 237.408L485.358 240.211L485.555 242.254L484.791 244.539L486.532 242.036L486.246 238.817L487.166 237.123L488.925 235.644L491.253 233.991L492.974 235.08L491.686 232.426L492.843 229.206L495.583 229.316L494.453 226.926L492.104 225.053L492.188 222.64L495.932 220.181L495.472 217.685L497.214 219.811L500.521 220.945L501.195 223.272L503.35 223.074L503.763 225.295L503.456 227.401L503.74 229.511L505.089 230.383L504.938 232.905L504.715 235.34L503.823 237.144V239.232L504.171 241.167L502.128 241.125L500.235 241.146L497.121 242.277L493.73 244.8L493.646 245.521L493.578 246.097L493.548 246.382L493.317 248.347L492.033 250.933L490.971 254.433L489.292 254.216L488.99 252.215L488.924 249.322L488.14 247.322L488.489 249.497L486.552 252.15L487.639 253.847L485.422 253.455L484.095 255.651L484.703 257.567L483.244 260.633L480.484 258.264L475.959 257.435L476.978 254.781L479.438 252.457L479.593 249.889L475.808 253.89L473.783 256.328L472.085 256.955L472.39 259.067L470.388 261.11L469.342 263.743L467.21 265.156L467.235 263.089L467.104 260.957L468.498 259.087L469.628 255.282L471.936 251.587L474.609 249.913L472.217 249.392L474.609 248.258L472.761 246.499L470.325 246.173L470.545 245.522L471.129 243.781L473.369 242.104L476.765 242.172L476.458 239.016L479.551 237.669L477.265 236.43L476.157 234.692L476.068 231.431L480.354 230.861L483.011 232.799L480.855 230.079L477.309 230.365L475.982 228.666L475.94 225.82L478.311 223.6L477.831 221.34L478.723 218.88L480.397 214.858L483.032 215.186L485.642 214.034L486.316 216.159Z" fill="white"/>
<path d="M502.658 245.525L502.694 245.63L502.973 246.385L503.413 247.588L501.676 248.803L502.633 251.088L498.301 251.762L495.714 254.111L495.298 251.979L495.192 250.349L495.473 247.889L495.9 246.385L496.086 245.735L496.222 245.523L497.259 243.91L501.938 243.519L502.658 245.525Z" fill="white"/>
<path d="M467.086 215.949L469.631 219.127L469.151 221.387L471.066 219.475L470.805 223.17L470.152 225.233L473.438 224.277L471.304 227.454L472.394 230.083L474.633 231.409L473.635 236.913L467.019 242.587L460.189 240.477L461.842 238.259L464.191 236.67L466.151 235.932L468.348 234.391L468.326 232.279L468.278 230.172L464.713 229.949L465.823 232.17L463.278 233.407L462.273 235.802L459.904 235.977L459.646 233.887L457.708 236.695L456.425 234.366L456.188 236.737L455.272 240.131L452.139 241.65L450.137 240.89L449.418 238.105L449.006 237.518L449.92 234.32L452.095 232.235L450.009 231.432L452.577 227.949L452.925 230.255L454.879 232.54L454.032 230.386L454.074 227.625L456.227 227.188L457.184 230.473L459.143 228.514L461.229 228.297L461.995 230.345L462.84 228.624V226.296L461.452 224.448L463.278 224.144L464.713 225.994L466.082 224.144L468.104 225.905L465.474 221.842L465.168 219.493L463.843 217.381L463.342 214.923L466.91 213.164L467.086 215.949Z" fill="white"/>
<path d="M516.404 221.62L516.97 221.948L518.211 225.579L511.163 227.535L511.421 225.209L512.947 223.403L515.512 219.666L516.404 221.62Z" fill="white"/>
<path d="M523.584 214.469L525.87 217.25L523.805 219.619L521.932 222.709L519.628 221.472L518.714 218.01L517.627 214.684L518.909 216.601L521.388 217.534L519.713 216.01L519.948 214.034L523.584 214.469Z" fill="white"/>
<path d="M463.496 220.405L462.666 222.296L459.577 221.382L459.841 219.187L462.406 218.796L463.496 220.405Z" fill="white"/>
<path d="M489.968 194.158L489.402 196.833L487.813 202.397L486.531 204.42L484.836 207.575L484.529 209.575L482.244 211.729L479.133 213.293L477.284 213.206L477.613 215.882L476.958 218.532L476.372 219.842L474.675 220.775L474.175 218.774L474.153 216.489L474.085 214.336L474.608 211.835L475.808 208.9L476.806 205.227L478.875 202.768L482.027 200.94L482.942 196.766L484.88 193.614L485.791 191.873L490.143 191.224L489.968 194.158Z" fill="white"/>
<path d="M499.044 212.532L501.783 212.989L502.894 212.468L503.415 212.858L503.68 215.664L503.525 218.035L501.218 218.358L499.043 217.445L497.521 215.38L495.192 213.185L496.127 211.228L499.044 212.532Z" fill="white"/>
<path d="M522.732 168.218L526.472 172.37L525.779 170.26L526.43 167.083L527.929 170.021L528.779 167.521L530.628 167.452L530.824 171.391L530.522 173.781L531.283 175.781L531.716 172.499L533.522 170.805L534.108 173.37L533.564 177.196L535.243 178.284L535.524 176.088L536.681 176.15L537.002 177.021L537.635 180.088L537.483 182.261L534.679 183.048L534.046 185.222L535.697 188.459L535.134 191.028L536.199 194.158L532.851 195.309L529.979 195.397L527.735 196.982L524.668 196.264L525.301 193.963L522.733 195.657L521.905 197.615L518.685 201.289L517.707 202.963L516.815 208.076L515.337 205.532L515.728 203.094L507.222 203.706L508.091 201.463L509.918 200.767L513.419 200.027L513.79 198.027L516.36 194.918L513.441 196.638L511.465 195.852L510.399 193.07L514.38 191.612L512.527 190.632L511.486 188.679L509.025 187.566L513.963 186.087L512.158 183.98L510.114 184.741L508.439 184.066L509.264 181.935L511.465 181.697L514.011 181.307L517.381 181.416L519.798 181.612L517.381 180.002L522.538 178.436L518.23 178.13L516.075 177.305L514.291 174.128L516.383 175.607L518.858 174.476L517.86 171.347L520.687 172.455L522.887 174.107L524.863 175.717L524.367 173.955L523.494 171.717L520.776 169.478L520.405 166.76L522.732 168.218Z" fill="white"/>
<path d="M526.868 202.139L526.475 204.51L524.646 206.879L522.296 208.076L522.255 205.881L522.862 203.812L524.319 202.16L526.67 201.4L526.868 202.139Z" fill="white"/>
<path d="M549.56 144.449L551.344 143.644L553.02 145.512L555.649 146.535L556.304 147.47L557.587 149.189L555.913 153.149L554.909 155.693L553.147 156.579L552.017 158.385L553.542 161.171L553.759 163.39L551.757 165.433L547.622 166.455L545.796 166.651L540.553 169.237L538.16 168.847L534.918 167.021L533.613 165.174L534.438 162.998L536.46 162.323L539.03 162.54L541.074 163.674L542.902 161.278L540.245 161.716L537.681 156.78L541.16 157.016L544.186 156.361L546.968 155.865L541.899 155.887L540.53 153.95L540.985 150.557L543.209 151.518L544.38 153.472L544.817 151.275L545.859 149.559L547.513 149.274L547.686 152.668L548.647 155.517L551.319 156.929L550.474 154.778L550.536 152.558V149.511L547.601 146.298L547.336 143.601L549.56 144.449Z" fill="white"/>
<path d="M560.677 129.291L561.917 132.488L563.854 132.51L564.701 130.071L566.703 129.073L567.573 131.292L568.008 133.354L568.641 131.618L569.838 131.401L569.812 134.729L567.313 136.729L567.267 138.967L566.527 141.015L565.508 144.032L563.94 146.535L558.11 148.145L556.631 145.707L551.124 141.9L549.123 141.357L548.844 138.575L551.689 138.902L551.213 137.033L549.883 135.355L550.711 133.529L553.346 133.182L555.564 133.444L555.41 131.075L556.04 129.444L557.914 127.377L560.677 129.291Z" fill="white"/>
<path d="M596.14 136.465L596.51 138.359L597.073 141.336L594.94 143.316L592.701 141.753L592.375 139.487L593.441 135.793L596.14 136.465Z" fill="white"/>
<path d="M573.443 131.921L574.034 132.38L574.558 135.467L573.792 137.293L573.338 139.684L571.791 142.471L566.094 143.035L567.334 140.401L568.943 137.337L571.616 133.814L572.488 131.898L573.443 131.921Z" fill="white"/>
<path d="M551.344 131.967L548.102 134.227L546.013 135.879L545.664 133.946L545.229 132.553L547.664 128.484L549.102 130.336L551.06 128.378L551.344 131.967Z" fill="white"/>
<path d="M600.883 127.703L604.145 126.636L603.707 127.067L601.663 129.075L600.074 132.401L597.857 132.009L596.357 129.509L596.417 127.067L596.421 126.921L598.728 125.617L600.883 127.703Z" fill="white"/>
<path d="M567.641 113.806L568.511 116.111L570.602 117.785L572.386 119.374L574.362 118.308L574.646 120.482L575.867 121.464L580.37 123.2L578.106 124.31L577.287 126.205L576.759 127.423L572.95 127.966L570.882 125.94L569.73 122.113L566.773 117.722L565.465 115.764L565.706 113.679L567.641 113.806Z" fill="white"/>
<path d="M565.561 126.205L565.875 126.636L564.719 126.77L562.871 126.311L562.59 126.205L560.934 125.592L561.134 123.075L563.025 122.726L565.561 126.205Z" fill="white"/>
<path d="M557.045 118.028L557.675 120.266L558.132 122.071L557.98 124.832L555.654 126.205L555.218 126.464L554.927 126.205L552.366 123.938L554.695 123.68L554.652 120.113L555.176 117.681L557.045 118.028Z" fill="white"/>
<path d="M600.55 126.206L601.077 124.268L602.123 123.418L600.55 126.206Z" fill="white"/>
<path d="M595.313 115.156L595.008 118.11L595.03 120.111L595.794 122.242L595.726 124.703L593.312 124.333L591.527 124.83L590.482 121.874L589.42 125.637L586.547 124.159L585.936 121.615L585.894 118.243L586.744 116.438L589.221 113.197L593.793 112.962L595.313 115.156Z" fill="white"/>
<path d="M598.532 120.725L598.401 122.726L597.746 123.571L595.966 122.161L596.706 118.419L598.532 120.725Z" fill="white"/>
<path d="M616.092 100.216L616.566 102.562L616.37 105.177L614.326 105.678L613.936 102.173L613.695 99.7178L614.545 99.0654L616.092 100.216Z" fill="white"/>
<path d="M639.523 95.3506L640.675 97.457L643.31 99.0029L645.68 100.244L645.986 102.417L639.523 103.089L632.3 102.001L629.972 98.5215L632.016 97.7188L631.929 95.5234L634.823 95.3018L636.824 94.541L637.976 97.7393L638.106 95.7383L638.128 93.6289L639.523 95.3506Z" fill="white"/>
<path d="M653.62 75.668L655.01 77.3203L655.078 79.8643L656.251 81.8008L657.428 82.1914L657.318 82.4268L658.101 84.4277L657.926 86.7344L657.318 88.4541L653.97 93.4951L651.573 95.4756L653.858 95.9756L650.532 99.1543L647.897 99.6289L646.831 96.6523L647.117 92.584L646.657 90.6035L645.506 96.0195L642.85 94.9531L640.764 91.7812L642.59 90.9102L641.371 88.3457L642.744 85.5371L646.268 84.4502L647.096 82.7979L646.504 81.04L648.269 82.7979L649.27 85.1943L649.202 82.7559L648.658 80.624L651.271 81.4521L650.902 79.3838L652.534 78.4062L651.141 74.8643L653.62 75.668Z" fill="white"/>
<path d="M815.876 85.9326L816.811 87.8857L817.855 89.8008L819.202 91.041L817.529 92.2354L815.808 94.1279L814.308 96.4102L812.154 94.584L813.287 90.7148L811.784 87.3428L812.698 85.3887L815.876 85.9326Z" fill="white"/>
<path d="M647.573 61.1621L648.533 63.6641L648.095 65.4697L646.227 67.5742L646.031 69.8389L645.855 71.9033L643.179 72.6621L644.007 74.5791L643.243 77.2539L641.178 78.2939L640.201 81.124L638.373 80.6006L638.718 83.3203L636.394 82.9082L633.085 82.6436L632.692 85.4082L632.148 87.1045L629.951 85.4941L629.994 88.1055L628.688 87.2139L626.993 88.3447L624.858 86.624L624.839 89.4102L622.53 90.3018L622.62 88.2812L623.142 85.8848L623.444 83.3633L625.207 80.6436L618.095 82.0166L618.876 80.3428L615.873 79.8828L617.872 78.6904L622.748 79.166L621.965 76.9062L624.251 77.4297L626.817 78.9072L626.381 74.8857L628.36 75.2549L629.21 72.8857L631.497 75.4072L631.126 77.626L633.214 76.4697L634.454 79.0811L635.453 75.207L633.477 72.0137L634.344 69.709L637.521 71.0586L637.676 73.2539L639.915 72.3154L640.153 70.1191L642.48 68.252L639.978 66.9697L639.782 63.7715L641.979 63.2061L644.786 65.4482L645.68 63.6846L644.83 61.7061L645.093 59.1621L647.573 61.1621Z" fill="white"/>
<path d="M657.839 65.623L659.099 67.2754L661.666 66.9277L664.429 69.5996L666.498 72.0576L666.388 74.2969L664.646 76.1484L662.189 80.582L659.317 80.3652L657.84 78.2324L655.621 75.751L655.922 73.1006L655.687 70.9268L654.145 68.251L654.884 65.3594L657.839 65.623Z" fill="white"/>
<path d="M659.972 46.374L661.952 46.8535L660.036 46.9395L659.799 49.2031L663.779 48.8545L662.562 50.5488L660.69 52.4219L658.146 50.9863L657.973 48.1357L655.031 47.8311L656.188 45.2871L659.972 46.374Z" fill="white"/>
<path d="M696.461 31.5693L698.83 30.2188L701.071 29L701.116 32.5254L701.027 34.6348L701.506 37.0703L703.963 35.7441L704.875 33.6982L706.812 33.6758L706.485 35.8076L704.596 38.2412L700.982 40.0938L698.718 40.5254L696.938 40.0459L698.025 42.1562L694.762 43.6348L692.761 43.5303L689.714 41.1816L692.365 38.1357L689.755 37.8301L687.254 40.0049L686.081 38.2412L686.604 34.7422L689.123 34.9795L690.887 33.1104L692.908 33.501L695.28 34.9795L693.78 32.3926L690.104 29.0459L692.867 28.9355L695.543 28.5234L696.461 31.5693Z" fill="white"/>
<path d="M674.048 39.2852L673.376 41.7656L671.026 40.7002L672.177 38.7637L673.745 36.958L674.812 36.5879L674.048 39.2852Z" fill="white"/>
<circle id="508" cx="356" cy="846" fill="#5CE50D"/>
<circle id="510" cx="356" cy="612" fill="#E52A0D"/>
<circle id="509" cx="184" cy="816" fill="#E52A0D"/>
<circle id="1451" cx="214" cy="682" fill="#E52A0D"/>
</svg>
