<svg width="1000" height="1000" viewBox="0 0 1000 1000" fill="none" xmlns="http://www.w3.org/2000/svg">
<path d="M183.046 271.33C181.253 271.99 177.573 272.651 174.837 272.651C170.214 272.745 169.743 272.934 167.478 276.236C165.497 279.161 165.12 280.859 165.12 286.237C165.12 292.086 164.836 293.03 162.1 296.426C160.025 299.068 158.421 300.106 156.628 300.106C155.213 300.106 153.326 300.955 152.477 301.898C151.062 303.408 150.967 304.257 151.911 307.654C152.854 311.239 152.76 311.899 151.156 313.503C149.458 315.296 149.175 315.296 146.439 313.88C144.835 313.031 141.344 310.012 138.608 307.182C134.174 302.464 118.135 289.728 116.625 289.728C116.342 289.728 116.059 290.86 116.059 292.275C116.059 295.766 115.115 296.992 111.058 299.445C109.171 300.577 106.152 303.597 104.36 306.238C102.567 308.786 99.1707 312.088 97.0007 313.409C93.6042 315.39 92.8494 316.333 92.6607 319.07C92.472 320.957 91.2455 323.41 89.7359 325.108C88.3207 326.617 86.7168 329.07 86.0564 330.486C85.4903 331.901 83.3203 334.071 81.339 335.392C78.7916 336.996 76.2442 340.109 73.1308 345.392C68.4134 353.506 64.2621 356.714 58.6956 356.714C56.4313 356.714 55.6765 357.469 53.6009 361.809L51.0535 366.904L53.6952 370.395L56.3369 373.98L54.0726 378.037C52.8461 380.301 50.3931 382.943 48.6005 384.075C45.9587 385.679 45.3926 386.717 44.8266 390.774C44.2605 395.019 43.8831 395.491 41.4301 396.057C39.3544 396.434 38.694 397.095 38.694 398.793C38.694 400.114 37.7505 401.624 36.3353 402.567C33.6936 404.36 33.3162 406.435 35.3918 409.171C36.1466 410.115 36.807 412.096 36.807 413.511C36.807 414.927 37.6562 417.474 38.694 419.172C39.8261 421.153 40.5809 423.984 40.5809 426.72C40.5809 429.173 40.9583 432.192 41.5244 433.513C42.6566 436.626 41.3357 437.381 37.7505 435.494C36.2409 434.739 34.9201 434.268 34.9201 434.551C34.9201 434.928 36.4296 437.098 38.2222 439.457C40.0148 441.816 41.5244 444.08 41.5244 444.552C41.5244 444.929 39.6375 446.816 37.3731 448.703C34.5427 450.967 32.9388 453.137 32.5614 455.119C30.9575 463.138 30.1084 464.931 27.9384 465.968C26.6175 466.535 23.6927 469.459 21.2397 472.478C16.428 478.705 15.7676 482.196 18.9754 485.593C20.6736 487.385 21.7114 487.668 24.9193 487.291C28.3158 486.819 29.0705 487.102 31.5236 489.65C33.5049 491.631 35.2031 492.574 37.1844 492.574C39.4488 492.574 40.4866 493.235 41.6188 495.311C43.1283 497.952 53.6009 505.783 55.5822 505.783C56.8087 505.783 66.4321 511.821 70.1117 514.935C71.6212 516.067 73.4138 517.105 74.1686 517.105C75.3951 517.105 75.3951 514.557 74.1686 505.406C74.1686 504.934 75.9612 503.896 78.4142 503.141C82.5655 501.82 82.7542 501.82 87.849 504.84C90.5851 506.538 93.9816 509.085 95.3024 510.5C96.6233 511.821 99.5481 513.708 101.907 514.652C104.265 515.595 108.134 517.577 110.587 519.18C114.266 521.539 115.87 521.916 119.927 521.728C124.267 521.445 125.022 521.728 126.909 524.086C128.89 526.539 129.173 526.634 133.702 525.785C139.646 524.747 143.42 526.351 143.42 529.842C143.42 531.163 143.891 532.2 144.552 532.2C145.118 532.2 148.797 533.804 152.666 535.691C158.61 538.616 159.93 539.654 161.346 542.956C162.289 545.126 165.591 550.881 168.705 555.787C174.366 564.939 176.724 566.732 179.743 564.279C180.687 563.429 182.196 563.618 185.97 564.939C189.744 566.26 191.159 567.298 192.103 569.468C193.046 571.732 195.311 573.336 203.991 577.676C209.84 580.601 216.728 583.714 219.275 584.563C222.483 585.695 224.37 587.111 225.596 589.281C226.823 591.262 228.615 592.677 231.068 593.432C233.05 593.998 235.031 595.13 235.314 595.885C235.597 596.734 237.012 597.3 238.616 597.3C240.88 597.3 242.013 596.451 244.466 593.054L247.485 588.809H254.75C261.26 588.809 262.203 589.092 264.184 591.168C265.883 593.054 267.298 593.526 270.789 593.526C274.562 593.526 275.6 593.998 278.336 596.828C280.129 598.715 282.488 600.13 283.714 600.13C284.846 600.13 290.602 603.244 296.357 607.018L306.829 614L320.51 609.848C334.945 605.414 336.832 605.414 336.832 609.943C336.832 611.075 337.964 613.622 339.379 615.698C341.077 618.245 342.304 621.642 342.964 626.076C344.191 634.85 345.795 635.699 355.984 633.435L363.06 631.926L365.891 634.284C368.155 636.171 370.136 636.737 375.986 637.209C380.326 637.586 384.855 637.398 387.402 636.832C391.27 635.794 391.836 635.888 393.818 637.775C394.95 638.813 396.837 639.756 397.969 639.756C399.384 639.756 400.516 640.794 401.648 643.247C403.63 647.399 408.253 650.135 413.348 650.135C416.178 650.135 417.027 649.569 419.008 646.644C420.235 644.662 422.594 642.398 424.292 641.643C427.122 640.323 427.217 640.134 425.99 637.869C424.197 634.756 424.292 634.379 426.367 632.303C427.688 630.982 430.141 630.322 435.142 629.85C442.973 629.095 450.237 630.793 459.578 635.605C463.446 637.492 473.919 641.643 475.051 641.643C475.145 641.643 477.126 638.907 479.391 635.511C482.599 630.888 484.108 629.378 485.806 629.378C487.316 629.378 490.241 627.303 494.486 623.246C497.977 619.849 501.279 617.113 501.845 617.113C502.411 617.113 503.449 618.245 504.204 619.66C505.148 621.547 507.318 623.057 511.374 624.661C515.431 626.265 517.601 627.774 518.262 629.378C518.922 630.699 519.771 632.02 520.149 632.303C520.621 632.68 527.036 633.246 534.395 633.624C551.85 634.473 553.548 634.85 560.152 640.323C566.473 645.512 566.473 645.606 567.7 661.551L568.266 669.665L573.644 672.589C577.889 674.948 580.248 675.608 584.211 675.608C588.645 675.608 589.683 675.986 592.042 678.439C594.211 680.703 595.532 681.269 598.835 681.269C602.514 681.269 603.08 681.552 604.495 684.477C605.628 686.93 606.76 687.874 609.118 688.345C611.383 688.723 612.326 689.383 612.326 690.61C612.326 691.553 613.458 693.063 614.779 694.006C616.855 695.327 617.327 695.421 618.27 694.195C619.497 692.78 629.686 691.459 633.083 692.308C634.592 692.685 634.97 693.629 634.97 696.365C634.97 698.441 634.309 700.611 633.46 701.46C632.139 702.875 632.234 703.064 635.064 704.29C639.027 705.988 648.744 705.234 651.952 702.969C653.273 702.026 658.179 699.478 662.802 697.403C668.18 694.855 672.142 692.308 673.746 690.327C675.256 688.534 677.898 686.836 680.256 686.081C683.936 684.949 684.219 685.043 686.012 687.307C687.427 689.194 688.842 689.761 691.484 689.761C694.314 689.761 695.258 690.232 696.578 692.497C697.428 694.006 698.182 695.987 698.182 696.837C698.182 697.78 699.031 702.214 700.164 706.837C701.862 714.291 702.334 715.234 704.221 715.234C705.353 715.234 707.24 715.895 708.372 716.744C709.598 717.593 711.58 718.065 712.901 717.782C714.787 717.499 715.165 717.782 715.165 719.574C715.165 722.782 717.618 722.405 719.411 719.008C720.165 717.499 722.147 715.517 723.656 714.763C725.26 713.913 726.487 712.498 726.487 711.555C726.487 710.234 727.807 709.196 730.732 708.064C734.695 706.554 735.072 706.554 736.77 708.064C737.714 708.913 740.167 709.951 742.148 710.234C744.224 710.517 746.583 711.366 747.432 712.215C748.753 713.253 750.168 713.442 754.036 712.876C764.509 711.366 776.962 712.498 779.604 715.14C780.17 715.706 782.34 716.178 784.51 716.178C786.586 716.178 789.133 716.838 790.077 717.593C791.115 718.348 793.002 719.008 794.228 719.008C795.549 719.008 798.757 720.895 802.059 723.631C808.286 728.82 812.626 730.047 821.023 729.103C828.382 728.16 839.137 722.593 842.157 718.159C843.477 716.083 845.742 714.008 847.157 713.347C848.667 712.781 850.742 711.083 851.874 709.479C853.007 707.97 854.327 706.743 854.705 706.743C855.177 706.743 856.497 709.479 857.63 712.876C860.46 721.273 862.913 724.009 869.517 725.896C874.14 727.216 875.084 727.216 875.933 726.084C876.782 725.046 877.726 724.952 881.216 725.896C883.575 726.556 886.5 727.783 887.821 728.726C890.085 730.33 890.274 730.33 891.595 728.537C892.349 727.594 893.67 725.518 894.519 724.009C895.84 721.556 896.784 721.084 903.105 719.952C909.804 718.82 910.653 718.914 916.502 720.895L922.729 722.971L925.465 720.706C927.069 719.48 928.296 717.782 928.296 716.838C928.39 714.857 931.504 714.668 933.107 716.65C933.768 717.404 935.655 718.065 937.353 718.065C940.089 718.065 940.467 717.687 941.033 714.763C941.693 711.555 941.693 711.555 945.844 712.121C948.675 712.498 950.562 712.215 951.505 711.46C952.732 710.423 953.109 710.706 953.864 713.064C954.619 715.046 956.6 716.838 960.94 719.291C964.242 721.178 967.167 722.782 967.356 722.782C967.639 722.782 969.526 719.857 971.696 716.367C974.243 712.121 975.564 708.819 975.564 706.649C975.564 700.516 977.545 692.308 980.47 686.553C983.3 680.986 983.3 680.703 982.64 671.457C981.979 662.022 981.885 661.834 977.356 655.041C972.545 647.776 972.45 647.493 972.733 643.342C972.828 640.7 969.62 637.681 962.166 633.718C958.77 631.926 958.676 631.643 957.543 623.812C956.223 614.566 957.543 601.923 960.091 599.093C961.506 597.489 961.506 597.111 959.619 594.187C958.015 591.545 957.638 589.469 957.638 582.865C957.638 575.317 957.826 574.468 960.94 569.279C962.733 566.26 965.28 560.599 966.601 556.731C968.582 550.881 968.959 548.617 968.393 543.899C967.922 539.276 968.11 537.578 969.431 535.597C971.696 532.106 970.941 525.596 967.639 521.822C966.318 520.218 964.903 517.765 964.62 516.539L964.053 514.18L961.789 516.256C960.563 517.388 959.525 519.18 959.525 520.124C959.525 522.388 957.072 522.294 952.26 519.746C948.675 517.86 948.109 517.765 945.75 518.992C944.335 519.746 942.07 522.294 940.75 524.464C936.881 530.974 936.598 531.257 934.334 530.691C932.73 530.219 932.164 529.37 932.164 527.483C932.164 525.124 931.692 524.747 928.579 524.181C926.503 523.898 923.484 524.086 921.314 524.841C918.295 525.785 917.163 526.917 915.559 530.219C912.257 537.012 906.407 538.522 900.275 534.182C896.406 531.446 893.576 531.729 888.764 535.125C885.273 537.672 884.141 538.05 880.462 537.578C876.971 537.201 875.461 537.578 872.819 539.371C869.989 541.258 868.291 541.635 861.781 541.635C854.233 541.635 853.95 541.541 847.912 537.389C835.364 528.804 832.627 527.483 827.25 527.672C823.853 527.86 820.645 527.2 817.532 525.785C814.984 524.747 809.607 522.766 805.738 521.633C799.134 519.652 798.568 519.18 796.775 515.595C794.228 510.406 792.624 508.613 790.549 508.613C789.322 508.613 788.756 509.274 788.756 510.783C788.756 515.029 784.888 516.444 780.265 513.897C775.264 511.067 772.339 516.256 773.66 525.785C774.981 534.842 772.434 537.106 759.98 537.956L751.489 538.522L746.394 534.653C740.827 530.502 740.261 529.37 739.318 521.728C738.94 518.803 738.091 515.595 737.431 514.746C735.544 512.199 730.827 513.708 727.43 518.048C724.694 521.539 724.6 521.916 724.6 531.163C724.6 540.031 724.411 540.975 722.335 543.05C720.354 545.032 719.694 545.126 716.108 544.371C711.58 543.333 705.636 540.503 704.126 538.616C703.654 537.956 702.9 536.54 702.617 535.503C701.579 531.54 694.786 517.388 692.993 515.029C691.955 513.803 689.974 512.104 688.748 511.444C685.634 509.84 681.294 504.745 681.2 502.764C681.2 501.82 680.351 498.801 679.313 495.971C677.52 491.159 677.237 490.876 674.879 491.537C672.992 492.008 672.142 493.046 671.482 495.499C671.01 497.292 670.35 499.084 669.972 499.462C668.84 500.594 660.538 498.424 657.802 496.348C654.216 493.424 647.99 493.895 641.102 497.386L635.441 500.311L622.704 499.745C611.288 499.273 609.685 498.896 606.477 496.82C599.495 492.197 598.929 489.65 602.797 479.366C606.665 468.988 604.495 460.874 597.419 458.798C590.155 456.628 586.664 458.138 584.871 464.365C583.362 469.176 581.38 470.214 573.644 470.214C565.813 470.214 563.36 468.988 553.548 459.836C544.773 451.816 542.32 450.495 534.867 449.646C530.244 449.175 528.923 448.514 524.3 444.457C518.922 439.551 515.62 437.853 511.846 437.853C508.261 437.853 504.77 434.173 504.204 429.833C503.261 422.191 500.619 415.87 497.883 414.36C496.09 413.323 495.147 411.813 494.769 409.454C494.392 407.001 493.543 405.68 491.845 404.926C489.392 403.794 489.297 403.605 491.184 394.642C491.75 391.906 491.562 391.528 488.637 390.302C486.844 389.547 483.731 387.188 481.655 385.113C479.674 382.943 477.598 381.245 477.221 381.245C476.749 381.245 475.522 382.282 474.39 383.603C471.843 386.528 470.522 386.528 465.427 383.509C460.899 380.867 459.012 381.056 454.294 384.452C452.785 385.584 450.332 387.094 448.917 387.754C447.407 388.509 446.275 389.358 446.275 389.641C446.086 391.811 441.086 395.774 436.746 397.189C432.406 398.604 431.557 399.359 430.802 401.812C430.33 403.699 429.387 404.831 428.349 404.831C427.5 404.831 423.16 402.284 418.82 399.171C414.48 396.151 410.14 393.038 409.196 392.378C408.158 391.717 406.932 388.698 406.177 385.49C404.951 380.207 404.29 379.263 397.214 372.47C392.969 368.508 388.723 365.205 387.779 365.205C384.383 365.205 383.062 364.073 383.062 361.337C383.062 359.167 382.213 358.035 379.194 356.054C375.986 353.978 375.043 353.695 373.533 354.639C372.212 355.488 371.174 355.488 369.476 354.733C367.683 353.884 366.74 353.978 365.042 355.205C361.74 357.469 358.815 357.092 357.305 354.261C356.456 352.563 353.72 350.77 348.531 348.6C342.21 345.77 340.134 345.298 334.756 345.487C329.473 345.676 327.869 345.298 324.189 343.128C318.906 340.015 318.34 339.166 320.793 337.845C321.831 337.279 322.68 335.958 322.68 334.92C322.68 333.41 320.887 332.184 314.566 329.259C310.131 327.183 306.263 324.73 305.98 323.881C303.81 318.032 298.244 314.258 291.828 314.258C289.092 314.258 286.828 313.88 286.828 313.409C286.828 311.616 280.506 308.786 275.034 308.125C269.09 307.465 258.806 304.351 256.92 302.559C256.07 301.804 256.07 300.577 256.92 297.464L257.957 293.501L249.089 284.538L240.126 275.575L231.634 275.67C224.558 275.858 221.728 275.387 215.124 273.217C205.5 270.009 188.801 269.065 183.046 271.33Z" fill="white"/>
<circle id="472" cx="632" cy="599" fill="#5CE50D"/>
<circle id="473" cx="457" cy="539" fill="#E52A0D"/>
<circle cx="104" cy="470" fill="#E52A0D"/>
<circle id="1035" cx="888" cy="716" fill="#E52A0D"/>
</svg>
