<svg width="1000" height="1000" viewBox="0 0 1000 1000" fill="none" xmlns="http://www.w3.org/2000/svg">
<path d="M500.047 43.4134L476.053 49.8119L459.022 65.3375C445.472 77.7581 440.673 82.8392 435.121 90.6491C429.758 98.2708 422.607 105.892 403.223 124.806C389.485 138.261 363.139 164.137 344.79 182.392C319.573 207.421 309.222 217.019 302.636 221.629C295.484 226.522 292.944 228.969 289.462 234.238C284.099 242.236 278.924 246.847 251.636 268.394C239.968 277.616 228.301 287.59 225.76 290.507C222.749 294.082 211.364 303.304 192.921 317.136C159.517 342.165 96.5677 393.164 84.8059 404.738C72.6676 416.688 59.212 438.142 45.0978 468.346C33.9005 492.341 29.3839 505.043 22.7032 532.331L19.4099 545.504L18.0925 627.367L21.8563 643.363C24.0205 652.49 27.1256 670.368 29.1016 685.047L32.6772 710.735L37.0997 714.405C41.334 717.98 41.9927 718.168 47.6383 718.168C53.0959 718.168 53.9427 718.451 56.2951 720.897L58.8357 723.626L55.9187 729.366L53.0018 735.2L57.4242 750.537L61.7526 765.875L86.5937 791.468C107.859 813.393 111.435 817.533 111.905 820.544C112.282 822.426 112.658 824.496 112.846 825.06C113.034 825.625 131.759 839.457 154.53 855.829L195.838 885.563L231.029 894.408L241.098 902.406C246.649 906.829 251.636 910.781 252.201 911.251C252.859 911.722 264.057 915.862 277.136 920.567C294.638 926.683 314.492 932.611 350.906 942.491L400.777 956.041L483.204 963.004L492.331 959.24C503.152 954.817 515.573 951.806 540.79 947.29L559.421 943.996L578.428 935.151C594.236 927.906 601.67 923.672 622.841 910.122C636.861 901.089 667.254 882.458 690.495 868.532L732.838 843.315L738.013 843.879C740.93 844.162 744.412 844.538 745.729 844.726C747.611 845.008 750.34 843.597 757.114 838.798C764.077 833.905 768.688 831.459 778.474 827.789L790.895 823.084L806.42 804.642L821.852 786.105V774.437C821.852 765.686 821.381 760.793 819.97 755.242C818.464 749.69 817.806 742.727 817.147 727.578C816.677 716.475 815.641 697.844 814.701 686.176C813.76 673.473 813.383 660.582 813.665 653.996C814.23 642.987 814.324 642.798 821.664 622.944C825.804 611.935 829.662 600.55 830.32 597.727C830.885 594.904 833.237 586.624 835.496 579.378C837.754 572.133 841.141 560.277 842.929 553.032C846.222 539.858 853.656 517.087 856.196 512.006C856.949 510.595 858.078 507.208 858.643 504.573C859.302 501.656 860.995 498.08 863.065 495.352C864.947 492.905 870.217 484.154 874.827 475.874C882.167 462.607 884.143 459.784 891.482 452.35C899.48 444.258 900.327 443.693 908.043 441.059C916.135 438.236 916.323 438.142 921.592 431.179C924.603 427.321 932.413 418.194 939 410.948C945.587 403.703 955.561 392.129 961.206 385.355C969.581 375.192 971.463 372.275 971.463 369.829C971.463 368.135 972.592 365.03 973.815 362.96C975.791 359.855 976.167 357.973 976.167 351.857C976.167 345.552 976.544 343.765 979.084 338.872L981.907 333.132L981.249 319.77L980.684 306.503L974.097 288.625C968.264 272.535 967.417 269.43 966.099 258.044L964.5 245.341L960.642 241.107C957.066 237.249 956.125 235.179 951.138 219.183L945.587 201.493L938.341 197.259C931.661 193.307 929.685 191.331 914.629 173.547C890.541 144.942 881.414 136.285 861.372 123.206L844.811 112.479L842.176 105.516C840.671 101.658 839.353 98.459 839.259 98.2708C839.165 98.1767 830.885 95.0715 820.911 91.4959C803.033 85.0034 802.656 84.8152 794.846 78.1345C790.518 74.3707 785.437 70.0423 783.649 68.5367C781.391 66.6549 772.922 63.2675 755.044 57.1512L729.733 48.4005L673.84 46.8949C621.524 45.4835 617.195 45.2012 607.127 43.1311C598.753 41.3433 589.249 40.4023 562.62 38.8969C543.989 37.7677 527.711 36.9208 526.394 37.015C525.076 37.015 513.22 39.9319 500.047 43.4134Z" fill="white"/>
<circle id="821" cx="158" cy="832" fill="#5CE50D"/>
<circle cx="899" cy="175" fill="#E52A0D"/>
<circle id="1583" cx="188" cy="361" fill="#E52A0D"/>
<circle cx="806" cy="661" fill="#E52A0D"/>
</svg>
