<svg width="1000" height="1000" viewBox="0 0 1000 1000" fill="none" xmlns="http://www.w3.org/2000/svg">
<path d="M530.719 17.8118C530.248 18.5667 528.832 18.661 526.756 18.2836C524.303 17.8118 522.982 18.0949 521.661 19.3216C520.057 20.737 519.302 20.8314 516.659 19.8878C512.319 18.2836 510.715 18.4723 510.148 20.737C509.771 22.1524 510.62 23.5679 513.451 26.1157C524.208 35.835 529.493 41.8742 533.833 49.4232C535.626 52.5372 537.702 55.7455 538.363 56.5947C540.061 58.482 542.515 66.5972 542.515 70.2773C542.515 73.58 540.439 75.8447 538.268 74.9954C535.438 73.9574 535.626 77.3545 538.552 80.3741C540.156 82.0726 542.326 85.4697 543.553 88.1118C544.874 91.1314 547.422 94.3397 550.63 97.0762C553.366 99.4353 555.631 101.983 555.631 102.832C555.726 103.682 556.386 104.908 557.141 105.569C557.896 106.229 558.556 107.456 558.556 108.305C558.556 109.249 563.275 115.383 569.031 121.988C581.486 136.52 593.659 154.354 595.546 160.771C596.773 165.206 597.056 165.489 600.076 165.678C601.869 165.866 604.133 165.395 604.983 164.64C606.493 163.507 606.587 163.13 605.266 160.488C604.417 158.978 603.19 157.468 602.529 157.185C601.774 156.902 599.793 154.637 598.094 152.184C595.924 148.976 595.546 147.843 596.679 148.315C597.622 148.692 598.66 148.976 599.132 148.976C599.51 148.976 601.68 150.485 603.85 152.278C609.606 157.091 614.23 156.713 609.04 151.806C606.493 149.447 605.926 147.088 607.908 147.088C608.569 147.088 609.89 148.598 610.833 150.391C611.871 152.184 613.192 153.694 613.853 153.694C614.513 153.694 615.551 154.543 616.117 155.581C616.684 156.619 617.816 157.468 618.571 157.468C619.42 157.468 619.892 157.94 619.703 158.601C618.948 160.677 617.439 160.393 616.117 157.94C614.608 155.109 611.871 154.732 612.626 157.468C612.909 158.506 612.72 159.355 612.249 159.355C611.777 159.355 611.399 160.865 611.399 162.658C611.399 165.395 611.777 166.055 613.947 166.527C615.268 166.904 617.155 166.716 618.099 166.055C619.043 165.489 620.081 165.017 620.364 165.017C620.647 165.017 620.836 169.264 620.836 174.453C620.836 183.135 620.741 183.89 619.043 183.89C616.401 183.89 615.551 181.908 617.533 180.493C619.137 179.266 619.043 179.077 615.929 177.85C613.853 177.001 612.343 175.586 612.06 174.265C611.682 173.038 610.833 171.245 610.173 170.207C608.946 168.697 608.569 168.603 607.247 169.641C606.398 170.301 605.738 170.585 605.738 170.113C605.738 168.886 603.85 171.906 603.85 173.227C603.85 173.793 605.832 176.529 608.191 179.36C614.136 186.343 619.798 196.912 621.024 203.423C622.912 213.708 625.459 217.2 628.385 213.614C629.045 212.765 630.178 212.293 630.932 212.576C631.593 212.859 632.159 212.481 632.159 211.727C632.159 210.028 636.217 207.858 641.124 207.103C643.954 206.725 644.426 206.82 642.822 207.48C641.595 207.952 640.652 208.613 640.652 208.896C640.652 210.689 642.822 213.142 644.332 213.142C645.275 213.142 647.54 213.708 649.239 214.463C652.541 215.879 652.258 216.162 647.068 217.294C643.105 218.143 638.576 222.484 639.331 224.654C639.708 226.07 639.519 226.447 638.67 226.164C637.915 225.881 637.255 224.371 637.066 222.767C636.877 221.068 636.405 219.747 635.839 219.747C635.367 219.747 635.084 218.804 635.273 217.577C635.462 215.784 634.99 215.501 631.97 215.218C629.989 215.029 628.385 215.312 628.385 215.69C628.385 216.162 630.272 221.257 632.631 227.013C634.896 232.769 637.632 240.413 638.67 243.999C639.614 247.49 641.501 254.095 642.916 258.719C644.238 263.248 645.37 267.967 645.37 269.193C645.37 271.081 645.747 271.269 647.823 270.892C649.144 270.703 650.465 269.854 650.749 269.193C651.503 267.117 653.768 267.589 653.202 269.665C652.919 270.986 651.598 271.552 648.578 271.93C642.445 272.59 641.407 273.817 642.162 279.573C643.011 286.084 644.238 287.594 646.408 284.669C647.918 282.782 648.201 282.687 648.673 284.103C649.522 286.367 648.484 287.688 645.747 287.688C643.86 287.688 643.483 288.16 643.483 290.614V293.444L646.314 291.746C648.484 290.519 649.427 290.425 650.182 291.18C652.258 293.256 649.333 295.426 644.992 295.143C637.821 294.577 637.255 295.237 637.632 303.258C637.915 308.731 637.727 310.807 636.594 312.034C635.651 313.166 634.99 316.941 634.518 324.49C634.141 330.435 633.291 338.267 632.537 341.947C631.215 348.08 630.744 349.024 625.271 354.403L619.515 360.347H613.287C608.097 360.347 606.493 360.725 602.907 363.178C600.548 364.688 598 366.009 597.151 366.009C596.301 366.009 595.075 366.575 594.508 367.33C593.942 367.991 590.923 369.689 587.903 371.105C583.279 373.181 581.958 374.313 580.354 377.616C579.222 379.88 578.373 382.428 578.373 383.278C578.373 386.203 581.486 392.902 584.695 396.866C588.941 402.15 592.999 404.415 599.132 405.17C609.135 406.208 614.608 408.378 617.061 411.964C618.288 413.757 620.458 415.927 621.779 416.776C623.1 417.531 625.459 419.607 627.158 421.4C628.856 423.193 631.121 424.514 632.348 424.514C633.575 424.514 635.556 425.174 636.689 426.024C638.01 426.873 639.897 427.345 641.407 427.062C645.936 426.212 653.202 429.798 658.864 435.649C670.376 447.821 672.641 459.051 667.734 479.716C665.941 487.171 661.034 497.173 657.543 500.57C656.033 501.985 654.806 504.061 654.806 505.099C654.712 507.836 652.919 510.761 649.899 513.215C648.389 514.347 647.257 515.857 647.257 516.706C647.257 517.461 644.049 521.235 640.086 524.916C632.159 532.37 631.404 535.012 636.028 537.654C638.198 538.881 639.142 538.881 642.445 537.749C645.181 536.9 646.314 535.956 646.314 534.729C646.314 533.691 645.936 533.125 645.464 533.503C644.992 533.786 644.238 533.503 643.954 532.936C643.2 531.71 646.125 529.351 648.484 529.256C650.56 529.256 650.654 533.125 648.673 536.239C647.635 537.843 647.446 539.07 648.106 540.768C649.427 544.26 651.598 544.637 656.033 542.09C660.185 539.825 664.431 539.447 666.318 541.335C666.979 541.995 668.017 542.467 668.772 542.467C669.81 542.467 669.998 543.316 669.527 546.147C668.866 550.582 670.848 556.999 673.112 557.376C675.188 557.848 683.587 554.262 687.456 551.337C689.06 550.11 690.853 549.072 691.419 549.072C692.079 549.072 694.155 547.657 696.137 545.864C698.118 544.071 700.855 542.278 702.27 541.995C703.591 541.618 706.517 539.353 708.781 536.994C710.952 534.541 713.971 531.804 715.387 530.955C716.802 530.011 718.029 528.784 718.029 528.124C718.029 527.463 719.444 525.104 721.237 522.934C722.936 520.764 725.106 516.989 726.05 514.441C726.993 511.988 729.069 508.402 730.768 506.609C732.466 504.816 734.165 501.797 734.542 500.004C735.675 494.814 739.544 487.737 741.431 487.737C742.374 487.642 744.639 485.189 746.715 481.981C748.885 478.584 751.433 475.847 752.849 475.375C757.944 473.582 758.416 472.639 761.341 459.994C761.719 458.201 763.417 456.22 766.059 454.238C771.816 450.275 773.514 447.633 774.741 441.027C775.307 437.913 777.005 433.007 778.515 430.081C780.025 427.156 781.252 423.759 781.252 422.532C781.252 420.268 782.478 417.909 786.725 412.341L788.895 409.416H785.215C780.497 409.416 778.421 407.246 778.421 402.056C778.421 398.753 778.138 398.092 776.534 398.092C772.853 398.092 774.741 390.827 779.836 385.07C782.101 382.617 784.083 379.503 784.271 378.276C784.649 375.351 790.971 371.765 801.351 368.368C807.201 366.481 810.693 366.009 818.053 366.009C823.809 366.009 827.584 366.387 828.056 367.047C828.433 367.613 829.848 367.896 831.453 367.519C834.567 366.953 835.982 368.84 834.095 371.199C833.057 372.426 833.245 375.257 834.661 380.352C835.416 383.089 836.926 382.334 838.435 378.465C839.285 376.578 840.795 374.03 841.832 372.898C843.72 370.822 843.437 368.84 841.266 368.84C838.624 368.84 838.152 366.481 839.002 357.045C839.473 351.949 840.323 347.137 840.794 346.571C841.266 345.91 841.455 344.4 841.172 343.173C840.511 340.626 843.72 336.757 844.946 338.55C845.984 340.437 848.91 339.682 849.948 337.229C850.608 335.813 851.835 334.87 852.967 334.87C854.005 334.87 854.854 334.492 854.854 334.115C854.854 333.643 856.553 331.661 858.629 329.585C861.082 327.226 862.403 325.056 862.403 323.452C862.403 322.036 863.441 320.149 864.951 318.828L867.499 316.658L865.329 315.808C863.63 315.242 863.347 314.77 864.196 313.732C864.763 313.072 864.951 312.223 864.574 311.94C864.291 311.562 864.574 310.713 865.14 309.958C865.895 309.014 865.989 308.448 865.234 307.976C863.819 307.127 864.102 304.107 865.706 302.786C867.027 301.654 867.027 301.371 865.706 299.956C863.725 297.785 863.913 296.653 866.367 295.049C868.348 293.728 868.443 293.444 867.122 291.085C865.989 288.821 865.989 288.255 867.405 285.896C868.254 284.386 869.009 282.121 869.009 280.8C869.009 278.535 875.426 267.778 877.501 266.457C877.973 266.174 878.445 265.041 878.445 264.098C878.445 261.833 874.199 259.568 868.537 258.719C865.046 258.247 864.196 257.775 863.725 255.983C863.347 254.662 862.404 253.718 861.554 253.718C860.611 253.718 859.573 253.435 859.195 253.057C858.818 252.68 855.326 252.302 851.457 252.302C844.663 252.208 844.286 252.302 842.776 254.85C841.927 256.266 840.134 257.681 838.718 257.964C837.303 258.342 835.888 259.191 835.605 259.946C835.321 260.701 834.283 261.267 833.245 261.267C832.207 261.267 831.075 261.644 830.792 262.21C830.509 262.682 829.377 263.154 828.244 263.154C827.018 263.154 826.546 263.626 826.829 264.475C827.112 265.324 826.451 266.457 825.036 267.306C823.809 268.155 822.771 269.665 822.771 270.703C822.771 271.647 822.016 272.685 821.073 272.968C820.223 273.251 818.431 275.233 817.11 277.309C815.883 279.29 813.146 282.121 811.165 283.442C808.051 285.424 806.447 285.801 800.124 285.801C794.085 285.801 792.481 286.084 791.726 287.405C790.971 288.821 790.499 288.821 788.235 287.783C786.253 286.933 785.876 286.462 786.819 285.801C788.706 284.669 783.233 282.027 779.081 282.027C777.383 282.027 775.118 281.366 774.08 280.611C773.137 279.856 771.627 279.196 770.872 279.196C768.985 279.196 756.623 273.251 751.056 269.76C748.697 268.344 745.3 266.834 743.507 266.457C741.714 266.079 738.034 264.098 735.392 262.116C730.579 258.625 727.937 258.153 730.862 261.361C731.711 262.305 732.089 263.532 731.712 264.003C730.768 265.608 729.541 265.23 729.73 263.343C729.824 262.305 729.258 261.833 728.126 262.022C727.182 262.21 724.54 261.361 722.275 260.229C717.84 257.964 715.576 254.284 716.613 250.981C716.991 249.849 716.802 249 716.236 249C715.67 249 715.198 248.339 715.198 247.584C715.198 246.829 715.67 246.169 716.236 246.169C717.557 246.169 716.519 239.564 714.443 234.94C713.594 233.053 712.65 227.674 712.273 223.05C711.518 212.765 710.574 207.292 709.442 206.065C708.97 205.593 708.593 204.083 708.593 202.668C708.593 199.176 706.611 197.761 703.497 198.988C702.176 199.459 701.044 200.309 701.044 200.875C701.044 201.347 700.572 201.819 700.1 201.819C697.552 201.819 703.875 194.364 706.517 194.27C707.272 194.27 707.649 193.42 707.46 192.099C707.177 189.929 705.29 189.646 699.911 190.967C696.326 191.91 691.419 188.23 692.268 185.116C693.117 181.531 688.871 174.17 686.512 175.02C685.851 175.303 684.719 174.831 684.058 173.982C683.398 173.227 681.699 172.566 680.19 172.566C677.831 172.566 677.453 172.944 677.453 175.303C677.453 177.284 678.302 178.7 680.756 180.493C683.492 182.663 683.964 183.512 683.964 187.004C684.058 195.402 684.153 196.251 685.474 195.213C686.323 194.458 686.795 194.647 687.267 195.779C688.116 197.95 688.022 198.044 685.568 198.044C681.888 198.044 681.794 201.441 685.38 207.952C687.078 211.066 688.777 215.312 689.06 217.388C689.343 219.464 689.815 221.823 690.192 222.767C690.664 223.805 690.003 224.749 688.116 225.787C681.605 229.278 681.039 229.372 678.68 227.202C676.887 225.409 676.509 224.182 676.509 219.559C676.509 215.029 676.038 213.331 674.15 210.783C671.508 207.386 666.318 205.971 662.921 207.763C661.411 208.518 661.223 208.33 661.789 207.008C662.072 206.065 661.883 204.744 661.317 204.083C660.09 202.573 655.278 202.29 656.222 203.706C657.448 205.593 653.957 204.555 652.541 202.573C651.22 200.781 651.032 200.781 650.465 202.102C649.711 204.083 648.201 204.178 648.201 202.385C648.201 200.592 638.859 199.271 637.821 200.875C637.255 201.724 636.783 201.441 635.934 199.931C634.707 197.572 635.179 196.534 637.066 197.667C638.481 198.516 645.37 198.893 645.37 198.138C645.37 197.761 644.332 195.024 643.011 191.91L640.746 186.249L643.954 184.55C648.012 182.474 648.295 180.776 644.426 182.191C640.18 183.607 638.387 182.569 639.142 178.983C639.425 177.379 639.236 175.491 638.67 174.831C637.821 173.793 638.198 173.321 640.086 172.566C642.822 171.528 643.294 169.924 641.124 169.169C638.953 168.32 641.029 166.244 644.709 165.395C647.635 164.828 647.635 164.734 645.464 163.979C644.049 163.413 643.483 162.658 643.86 161.714C644.143 160.96 644.709 159.733 644.992 158.978C645.275 158.129 644.804 157.374 643.577 156.996C640.746 156.147 636.311 150.485 631.687 142.181C631.216 141.238 630.083 140.483 629.14 140.483C628.29 140.483 626.686 139.351 625.554 137.841C623.761 135.67 623.572 134.538 624.044 129.914C624.61 124.158 624.138 123.498 618.948 123.498C617.061 123.498 616.212 122.932 615.74 121.327C614.796 117.93 615.08 117.742 618.288 119.723C619.892 120.761 621.874 121.61 622.534 121.61C623.195 121.61 624.799 122.743 626.026 124.064C627.441 125.574 628.951 126.329 629.8 125.951C631.404 125.385 631.687 123.875 630.272 123.026C628.951 122.177 629.14 117.175 630.555 116.609C631.215 116.326 631.027 116.043 630.083 116.043C627.63 115.949 626.403 112.835 627.064 108.022C627.63 104.437 627.441 103.682 626.12 103.682C625.176 103.682 624.61 102.927 624.61 101.417C624.61 100.19 623.95 98.9635 623.195 98.586C622.44 98.3029 621.779 96.9819 621.779 95.6608C621.779 93.9623 621.307 93.3018 620.081 93.3018C617.722 93.3018 616.872 92.3581 618.005 90.9427C618.571 90.2821 617.91 88.8667 616.117 86.6964C613.947 84.1486 613.475 82.9219 613.947 80.6572C614.23 79.053 614.891 77.1658 615.457 76.5052C616.118 75.656 615.834 75.3729 614.325 75.3729C613.098 75.3729 612.343 75.939 612.343 76.8827C612.343 78.015 611.777 78.2981 609.984 77.8263C608.097 77.3545 607.531 77.6376 607.059 79.6192C606.587 81.6951 606.021 81.9782 603.473 81.7895C601.491 81.6008 600.359 80.9403 599.982 79.6192C599.604 78.2981 598.755 77.8263 597.151 77.9206C595.263 78.2038 594.886 77.7319 594.697 75.7503C594.603 73.9574 594.886 73.58 595.641 74.3349C596.868 75.5616 600.736 75.7503 601.491 74.5236C602.341 73.1082 598 70.6547 594.697 70.6547C592.338 70.6547 591.583 70.2773 591.583 68.9562C591.583 67.069 588.847 64.0494 587.148 64.0494C586.582 64.0494 585.638 63.3888 584.978 62.6339C584.129 61.596 582.902 61.3129 581.109 61.6903C579.222 62.1621 577.995 61.7847 576.58 60.3693C575.447 59.2369 573.749 58.3876 572.805 58.3876C571.767 58.3876 570.635 57.9158 570.352 57.444C570.069 56.8778 568.748 56.5004 567.521 56.5004C565.822 56.5004 565.067 57.1609 564.596 58.7651C563.935 61.596 561.859 62.5396 559.5 61.2185C555.348 58.9538 554.876 53.3864 558.651 52.4428C560.632 51.8766 560.632 51.8766 558.839 49.5176C556.763 46.5923 556.103 46.498 555.442 48.9514C555.159 50.0837 554.121 50.8386 552.989 50.8386C550.158 50.8386 549.592 53.1033 551.574 56.5004C553.555 59.8031 552.612 62.4452 549.215 62.917C546.384 63.3888 545.629 60.558 547.61 57.1609C548.46 55.6511 549.026 54.33 548.931 54.2357C548.743 54.1413 547.516 53.5752 546.006 52.9146C544.308 52.1597 543.27 50.8386 542.892 49.0457C542.609 47.6303 540.628 44.3277 538.646 41.7799C536.57 39.2321 534.211 35.5519 533.267 33.5703C532.135 31.2113 530.719 29.7014 528.549 28.9466C526.568 28.1917 525.624 27.3424 526.001 26.4931C526.284 25.8326 526.473 24.7002 526.473 24.1341C526.473 23.5679 527.417 24.0397 528.643 25.1721C531.286 27.6254 532.135 27.0593 532.135 22.813C532.135 20.6427 532.607 19.6991 533.645 19.6991C535.532 19.6991 534.871 17.4343 532.89 17.0569C532.041 16.8682 531.097 17.2456 530.719 17.8118ZM578.75 66.4084C578.373 67.1633 577.712 67.8239 577.24 67.8239C576.674 67.8239 576.768 67.2577 577.429 66.4084C578.089 65.6536 578.75 64.993 578.939 64.993C579.127 64.993 579.033 65.6536 578.75 66.4084ZM559.406 94.9059C558.179 96.4157 556.858 97.9255 556.48 98.3973C556.009 98.9635 555.726 98.3973 555.726 97.3593C555.726 95.0003 558.085 92.3581 560.161 92.3581C561.387 92.3581 561.293 92.9243 559.406 94.9059Z" fill="white"/>
<path d="M678.491 140.765C677.925 141.332 677.453 142.747 677.453 143.974C677.453 145.201 677.076 146.144 676.604 146.144C676.226 146.144 675.849 147.088 675.943 148.22C676.038 149.447 676.698 150.39 677.453 150.39C678.302 150.39 678.774 151.145 678.585 152.089C678.208 154.071 686.7 162.374 688.776 161.997C691.041 161.525 691.041 157.751 688.871 156.335C686.795 155.109 686.229 152.278 687.833 151.334C689.437 150.39 688.871 148.975 686.606 147.937C685.379 147.371 683.775 145.484 683.115 143.691C681.699 140.199 680.095 139.161 678.491 140.765Z" fill="white"/>
<path d="M660.185 150.586C659.807 150.869 659.524 152.001 659.524 152.945C659.524 155.398 661.789 154.549 662.166 152.001C662.449 150.02 661.411 149.265 660.185 150.586Z" fill="white"/>
<path d="M651.032 192.198C651.032 192.67 649.993 193.519 648.672 194.085C645.936 195.312 645.559 197.105 648.012 197.105C649.616 197.105 653.862 193.519 653.862 192.104C653.862 191.726 653.202 191.443 652.447 191.443C651.692 191.443 651.032 191.82 651.032 192.198Z" fill="white"/>
<path d="M664.997 193.042C664.054 193.231 663.299 193.891 663.299 194.363C663.299 194.835 662.355 195.212 661.223 195.118C657.92 194.835 655.75 195.118 655.75 195.873C655.75 197.099 664.148 200.213 665.658 199.553C666.601 199.27 667.073 199.647 667.073 200.78C667.073 201.723 667.734 203.044 668.489 203.705C669.715 204.743 669.904 204.46 669.904 201.912C669.904 200.308 669.432 198.987 668.866 198.987C668.3 198.987 668.017 197.666 668.206 195.967C668.489 192.948 667.828 192.287 664.997 193.042Z" fill="white"/>
<path d="M718.973 249.093C718.973 249.942 719.633 251.169 720.388 251.83C721.143 252.49 721.803 254 721.803 255.227C721.803 258.058 725.861 260.417 727.654 258.624C728.597 257.68 727.748 256.359 723.879 252.49C720.765 249.376 718.973 248.15 718.973 249.093Z" fill="white"/>
<path d="M506.468 476.507C503.637 478.583 502.883 480.753 505.242 479.809C507.318 479.055 506.94 480.942 504.864 482.074C502.505 483.301 501.656 483.301 502.411 482.074C502.694 481.508 502.411 481.13 501.656 481.13C500.901 481.13 497.126 483.961 493.258 487.453C489.389 491.039 484.104 495.379 481.557 497.172L476.933 500.475L476.461 515.101C476.178 523.216 475.423 530.954 474.763 532.369C474.102 533.879 473.63 536.427 473.63 538.125C473.63 539.918 472.97 541.9 472.026 542.56C471.177 543.315 468.063 547.279 465.043 551.43C462.024 555.582 458.721 559.734 457.872 560.678C455.135 563.509 449.945 565.774 444.567 566.434C435.885 567.566 435.13 568.133 435.602 572.945C436.074 576.437 435.791 577.474 434.092 578.89C432.771 580.117 432.111 581.721 432.111 584.174C432.111 586.156 431.733 587.76 431.167 587.76C430.695 587.76 430.223 588.609 430.223 589.647C430.223 590.78 429.374 592.478 428.431 593.516C427.109 594.932 426.543 597.196 426.26 601.914C425.977 607.482 425.505 608.897 422.958 612.106C421.259 614.182 419.655 617.107 419.277 618.522C418.051 623.807 411.068 634.092 404.557 640.414C400.877 643.906 397.291 647.869 396.442 649.284C395.592 650.794 394.554 651.927 394.083 651.927C393.611 651.927 391.252 653.625 388.704 655.795C385.873 658.154 381.91 660.325 378.23 661.457C375.021 662.495 370.398 664.571 368.039 666.081C365.774 667.685 363.415 668.912 362.849 668.912C361.716 668.912 356.621 673.63 356.621 674.762C356.621 675.14 357.376 675.517 358.319 675.517C359.735 675.611 359.735 675.706 358.131 676.933C357.093 677.688 355.677 678.348 355.017 678.348C353.318 678.348 343.599 685.708 342.466 687.784C341.995 688.728 339.919 689.672 337.843 690.049C334.162 690.615 330.011 694.201 328.878 697.975C328.123 700.146 320.008 705.336 317.932 704.958C317.083 704.864 315.762 705.336 315.101 706.185C314.441 706.94 312.648 707.6 311.138 707.6C308.307 707.6 298.493 712.885 291.982 717.98C289.906 719.584 286.981 721.849 285.377 723.076C283.867 724.302 281.036 726.001 279.244 726.945C277.451 727.888 274.337 730.059 272.355 731.757C269.43 734.494 268.109 734.965 264.24 734.965C260.937 734.965 259.427 734.588 259.05 733.55C258.578 732.229 258.012 732.323 254.804 734.022C252.728 735.06 249.991 735.909 248.859 735.909C244.801 735.909 242.914 736.947 240.555 740.438C237.441 745.062 234.516 747.704 228.571 751.101C223.192 754.215 222.815 754.876 224.891 756.669C226.967 758.273 225.646 760.443 222.626 760.443C220.833 760.443 219.701 761.01 219.323 762.142C219.04 763.18 217.814 764.407 216.587 764.973C213.945 766.105 208.566 772.805 209.132 774.22C209.887 776.296 207.622 780.259 205.735 780.259C202.527 780.259 197.148 783.279 197.148 785.072C197.148 786.11 196.299 786.865 195.072 787.054C193.657 787.242 192.808 788.092 192.619 789.413C192.43 790.734 191.675 791.583 190.543 791.583C189.599 791.583 188.656 792.244 188.278 792.998C187.995 793.753 187.051 794.414 186.108 794.414C185.164 794.508 183.371 795.263 182.239 796.301C179.974 798.094 179.974 798.188 181.578 802.906C182.428 805.454 182.994 808.096 182.805 808.757C182.522 809.417 181.861 807.908 181.201 805.549C179.219 798.377 174.973 798.66 169.972 806.115L167.141 810.361L169.123 811.776C171.104 813.192 171.104 813.192 168.462 812.154C166.103 811.116 165.631 811.21 164.121 813.098C163.178 814.23 161.951 815.174 161.479 815.174C161.007 815.174 159.969 815.834 159.309 816.683C158.271 818.004 158.46 818.476 160.63 820.08C162.045 821.118 163.178 822.345 163.178 822.817C163.178 823.289 162.328 822.817 161.196 821.685C160.158 820.647 158.743 819.986 158.177 820.175C156.855 820.552 156.667 826.78 157.893 830.177C159.12 833.669 156.667 831.593 155.063 827.724L153.647 824.515L151.854 826.686C150.344 828.573 150.25 829.045 151.477 830.366C153.364 832.442 153.175 832.914 150.533 832.442C147.608 831.876 144.305 833.669 144.305 835.933C144.305 836.877 143.739 838.292 143.079 838.953C142.418 839.613 141.286 841.689 140.531 843.482C139.776 845.275 138.927 846.974 138.455 847.257C138.077 847.634 137.417 849.144 137.134 850.843C136.379 854.711 138.455 855.655 142.701 853.39C144.4 852.541 146.664 851.975 147.608 852.164C148.929 852.447 147.985 853.107 144.588 854.24C140.719 855.561 139.587 856.316 139.493 857.92C139.398 859.524 139.304 859.618 138.927 858.392C138.643 857.259 137.606 856.693 135.907 856.693C130.623 856.693 127.886 858.486 125.055 863.581L122.413 868.488L126.282 864.808L130.057 861.128L131 863.393C131.755 865.469 131.472 865.752 128.735 866.601C124.583 867.828 123.168 869.432 126.848 868.583C128.452 868.3 131.189 867.733 132.982 867.45C134.775 867.167 136.945 866.695 137.7 866.412C138.455 866.129 142.324 865.752 146.192 865.563C152.703 865.186 153.081 865.28 151.477 866.601C150.25 867.545 147.608 868.017 143.739 868.017C140.531 868.017 136.379 868.677 134.586 869.432C132.699 870.187 130.057 870.847 128.83 870.847C125.716 870.847 121.658 874.528 121.564 877.453C121.47 878.774 122.13 881.416 122.979 883.398C124.395 886.512 124.772 886.889 127.131 886.323C128.547 885.945 130.528 884.907 131.661 883.964C132.699 882.926 134.775 882.171 136.379 882.171L139.115 882.265L136.284 883.681C132.604 885.662 131.094 887.644 131.094 890.475C131.094 892.268 131.378 892.551 132.321 891.701C133.265 890.947 133.925 891.041 134.68 891.796C135.53 892.645 136.096 892.456 137.134 891.041C138.455 889.342 138.549 889.342 139.115 890.947C139.87 892.74 138.172 895.382 136.284 895.382C135.53 895.382 134.869 894.91 134.68 894.344C134.492 893.683 133.831 893.872 133.076 894.815C130.245 898.213 141.946 904.912 146.098 902.27C147.136 901.61 148.646 901.704 151.099 902.553C152.987 903.214 157.705 903.969 161.479 904.346C165.254 904.629 170.821 905.101 173.841 905.384C179.031 905.856 179.219 905.762 179.219 903.591C179.219 897.741 187.901 896.231 194.6 900.949C199.79 904.535 202.244 907.271 201.017 908.121C199.507 908.97 199.79 910.48 201.395 910.48C202.149 910.48 202.81 911.329 202.81 912.273C202.81 913.688 203.659 914.16 207.339 914.443C210.076 914.726 212.246 914.443 213.001 913.782C214.039 912.839 215.171 912.839 217.625 913.594C220.456 914.443 221.116 914.348 222.154 913.027C223.192 911.518 223.57 911.518 226.967 912.933C231.779 914.915 233.761 916.802 235.459 920.765C237.158 924.728 237.158 924.445 234.704 924.823C232.628 925.106 232.628 925.295 235.931 928.786C239.328 932.466 239.328 932.466 245.745 932.277C249.331 932.183 253.671 931.428 255.464 930.673C257.257 929.918 261.409 929.352 264.712 929.352C269.902 929.352 270.751 929.635 270.751 931.051C270.751 935.014 272.733 936.052 281.036 936.241C287.547 936.335 289.057 936.052 290.095 934.731C291.133 933.315 291.322 933.221 291.888 934.542C292.454 936.146 295.757 936.429 296.701 935.014C296.984 934.448 298.682 934.07 300.286 934.07C305.004 934.07 309.534 932.466 311.138 930.201C312.27 928.597 313.214 928.314 315.667 928.692C317.649 929.069 319.159 928.786 319.819 927.937C320.386 927.182 322.178 926.333 323.783 926.049C325.387 925.672 326.802 924.634 327.085 923.785C327.274 922.841 328.973 921.52 330.765 920.859C333.124 919.916 333.879 919.161 333.502 918.123C333.124 917.274 332.653 915.481 332.37 914.16C331.992 911.989 332.275 911.612 334.823 911.14C338.126 910.48 355.3 898.873 356.621 896.325C357.187 895.382 357.564 893.494 357.564 892.079C357.564 886.417 369.171 880.189 380.494 879.812C386.062 879.623 387.194 879.246 389.176 877.075C391.818 874.244 392.384 869.904 390.119 869.904C389.27 869.904 388.421 869.243 388.043 868.394C387.76 867.639 386.439 866.507 385.213 866.035C382.948 865.186 382.948 865.091 384.363 863.015C385.213 861.883 386.251 860.09 386.722 859.052C387.194 857.92 388.327 856.504 389.176 855.749C391.818 853.579 396.253 846.596 396.253 844.52C396.253 843.482 397.008 842.256 397.951 841.689C399.273 840.935 399.367 840.463 398.423 838.859C397.763 837.726 397.197 836.122 397.197 835.273C397.291 832.631 400.782 825.365 403.33 822.723C404.557 821.401 407.01 818.854 408.803 817.061C412.012 813.758 416.069 808.285 416.069 807.247C416.069 806.964 414.654 806.303 413.049 805.832L409.936 804.982L413.427 804.888C416.635 804.794 417.013 804.511 417.485 801.68C418.051 798.943 418.145 793.093 417.862 782.902C417.768 780.448 418.711 777.9 420.598 774.692C422.203 772.144 423.618 768.464 423.807 766.483C424.09 763.369 425.034 762.142 431.167 756.763C436.734 751.856 438.244 750.063 438.056 748.176C437.961 746.855 438.15 746.572 438.433 747.421C438.622 748.365 439.282 749.12 439.848 749.12C441.264 749.12 456.645 740.344 456.645 739.495C456.645 739.117 457.211 739.023 457.872 739.212C458.438 739.495 462.118 738.174 465.892 736.381C480.33 729.492 490.898 726.001 500.523 725.057C503.637 724.774 508.072 724.019 510.243 723.453C513.451 722.604 514.583 722.698 515.055 723.548C515.999 725.057 525.152 729.304 527.511 729.304C529.681 729.304 529.87 728.077 527.889 726.473C526.284 725.152 525.907 717.98 527.417 717.98C527.983 717.98 528.455 718.735 528.549 719.584C528.643 720.528 528.738 722.132 528.832 723.17C528.927 724.208 529.115 725.624 529.21 726.19C529.398 727.983 533.173 727.605 535.626 725.718C537.419 724.302 540.628 717.508 540.628 715.055C540.628 713.828 531.474 709.488 525.718 707.978C521.944 706.94 519.679 706.845 517.131 707.6C512.885 708.733 512.319 708.733 512.319 707.6C512.319 707.034 513.545 706.657 514.961 706.657C518.547 706.657 519.302 705.713 517.32 703.637C515.338 701.372 514.489 686.746 516.093 680.33C517.792 673.252 521.283 670.422 532.795 666.647C535.532 665.703 538.363 664.194 539.023 663.25C539.684 662.306 541.949 660.797 544.119 659.947C546.289 659.098 548.365 657.494 548.931 656.078C549.592 654.852 550.441 653.814 551.007 653.814C551.479 653.814 551.951 652.964 551.951 651.832C551.951 650.794 552.989 648.529 554.216 646.925C557.99 641.83 564.312 628.336 563.746 626.543C563.369 625.316 564.407 623.807 567.049 621.353C570.823 617.956 573.088 617.201 574.126 618.9C575.164 620.504 576.297 619.088 575.825 616.729C575.353 614.182 576.58 612.483 585.261 604.085C589.696 599.65 590.64 598.234 590.64 595.592C590.64 593.139 591.583 591.346 594.697 587.949C600.831 581.343 612.343 567 612.343 565.962C612.343 565.49 611.022 565.113 609.512 565.113C606.115 565.113 604.794 562.565 604.794 556.149C604.794 552.657 604.511 551.997 602.529 551.525C596.962 550.109 595.735 545.108 599.604 540.013C600.925 538.314 601.963 536.521 601.963 535.955C601.963 535.389 602.435 534.917 602.907 534.917C603.473 534.917 603.85 535.578 603.85 536.333C603.85 537.087 604.511 537.748 605.266 537.748C606.021 537.748 606.681 537.276 606.681 536.804C606.681 536.238 607.153 535.861 607.719 535.861C609.229 535.861 611.305 532.935 611.399 530.954C611.399 530.01 612.815 528.312 614.608 527.179C616.778 525.764 618.005 524.16 618.288 522.178C618.854 518.687 618.665 518.498 616.212 519.913C614.891 520.857 614.608 521.518 615.268 522.367C616.023 523.216 615.74 523.688 614.041 524.065C612.815 524.443 611.305 524.537 610.833 524.348C610.361 524.16 608.663 525.198 607.153 526.613C605.643 528.123 603.473 529.255 602.435 529.255C601.397 529.35 599.51 529.916 598.189 530.671C596.868 531.426 594.792 531.992 593.565 532.086C589.13 532.086 593.942 528.784 600.076 527.557C606.304 526.236 608.002 524.443 605.171 522.084C603.473 520.763 603.567 520.668 606.021 521.235C608.191 521.706 608.852 521.423 609.229 519.819C609.512 518.781 610.078 517.932 610.55 517.932C611.682 517.932 611.588 515.384 610.456 514.629C609.89 514.252 608.852 514.535 608.097 515.101C606.964 516.045 606.681 515.95 606.681 514.252C606.681 513.214 607.247 512.27 607.908 512.176C608.474 512.176 607.814 511.704 606.209 511.232C604.133 510.666 603.095 510.855 601.774 511.987C600.17 513.402 600.076 513.308 600.076 510.572C600.076 507.269 598.283 506.514 597.528 509.439C596.962 511.515 596.207 511.798 594.792 510.383C594.225 509.817 593.376 510.1 592.338 511.232C591.017 512.742 591.017 513.308 592.055 514.157C592.904 514.912 593.47 514.912 593.942 514.157C594.792 512.742 596.301 513.025 596.301 514.629C596.301 515.384 595.924 516.045 595.358 516.045C594.886 516.045 594.697 516.705 594.98 517.46C595.358 518.309 594.98 518.875 594.131 518.875C593.376 518.875 592.527 518.309 592.244 517.649C591.961 516.894 591.017 517.271 589.319 518.781C586.676 521.235 585.827 526.896 588.092 527.651C588.658 527.84 587.903 528.689 586.205 529.538C582.43 531.52 580.071 531.614 582.902 529.633C585.261 528.029 585.638 524.726 583.562 523.971C581.486 523.122 581.864 521.706 584.034 521.706C585.072 521.706 586.299 520.951 586.582 520.008C586.959 519.159 588.092 517.649 589.224 516.705C591.111 515.007 591.017 515.007 587.431 515.478C585.45 515.762 583.279 516.705 582.619 517.649C581.486 519.159 581.298 519.064 581.392 516.233C581.486 513.591 581.77 513.214 584.034 513.214C586.865 513.214 592.527 508.967 592.527 506.797C592.527 505.948 593.187 505.759 594.414 506.137C595.735 506.608 596.301 506.325 596.301 505.287C596.301 502.834 592.904 503.494 589.413 506.608C587.62 508.118 585.921 509.439 585.544 509.439C584.129 509.439 585.167 504.721 587.148 502.551C592.432 496.417 592.999 495.379 592.621 492.265C592.149 487.641 591.489 487.17 590.073 490.472C589.13 492.831 588.375 493.398 587.054 493.02C583.091 491.699 577.806 505.004 581.298 507.174C582.524 507.929 577.901 512.27 575.825 512.27C575.164 512.27 574.598 513.308 574.598 514.535C574.598 515.762 573.937 517.366 573.088 518.026C571.861 519.064 571.484 518.97 570.729 517.649C569.408 515.29 568.276 515.667 564.784 519.347C562.991 521.14 560.727 522.65 559.689 522.65C556.009 522.65 552.8 524.82 552.234 527.557C551.857 529.444 550.819 530.482 548.554 531.331C546.761 531.992 545.346 533.03 545.346 533.69C545.346 534.351 544.968 534.917 544.402 534.917C543.93 534.917 543.458 534.445 543.458 533.973C543.458 533.407 542.42 532.558 541.099 532.086C539.873 531.614 538.08 529.822 537.23 528.123C536.381 526.424 534.777 524.443 533.833 523.782C532.607 522.933 532.324 522.084 532.89 521.423C533.833 520.197 533.739 513.497 532.701 512.553C531.569 511.421 532.135 510.383 533.833 510.383C535.249 510.383 535.626 509.628 535.721 506.137C535.721 503.306 535.249 501.607 534.305 501.135C533.55 500.664 532.89 499.909 532.89 499.437C532.607 496.889 531.757 495.285 530.625 495.285C529.87 495.285 529.304 495.757 529.304 496.417C529.304 496.983 529.021 497.172 528.738 496.889C528.36 496.606 527.228 496.889 526.096 497.644C523.642 499.437 519.868 499.437 519.868 497.738C519.868 496.983 518.358 495.568 516.565 494.436C514.678 493.398 512.979 491.699 512.696 490.85C512.413 489.906 511.753 488.396 511.281 487.453C510.715 486.415 510.715 485.849 511.375 485.849C511.847 485.849 512.319 484.716 512.319 483.206C512.319 481.791 513.168 479.621 514.112 478.394C516.376 475.469 523.548 474.619 528.643 476.695C532.795 478.488 533.267 478.017 529.304 475.941C527.417 474.997 523.831 474.525 517.792 474.525C510.432 474.619 508.639 474.903 506.468 476.507ZM213.095 782.052C213.756 782.524 214.228 783.373 213.945 784.034C213.756 784.694 213.001 784.411 211.869 783.185C210.076 781.203 210.736 780.543 213.095 782.052ZM158.46 835.178C158.46 836.405 154.402 835.745 154.025 834.424C153.836 833.763 154.591 833.48 156.101 833.763C157.422 834.046 158.46 834.707 158.46 835.178ZM386.251 872.263C385.307 873.018 383.891 873.678 383.325 873.678C382.665 873.678 382.099 874.339 382.099 875.094C382.099 875.849 381.344 876.509 380.494 876.509C379.173 876.415 379.551 875.754 381.91 873.678C383.608 872.074 385.684 870.847 386.534 870.847C387.949 870.847 387.855 871.036 386.251 872.263ZM241.404 920.765C242.159 922.181 242.065 922.652 240.744 922.935C239.423 923.313 239.045 922.935 239.234 921.426C239.611 918.217 239.989 918.123 241.404 920.765ZM242.253 929.258C242.631 931.806 241.121 931.239 239.517 928.314C238.668 926.616 238.762 926.427 240.272 926.71C241.215 926.899 242.065 928.031 242.253 929.258Z" fill="white"/>
<path d="M203.942 938.414C202.621 939.358 201.866 940.868 201.866 942.661C201.866 944.17 201.395 945.397 200.734 945.397C200.073 945.397 201.017 946.812 202.716 948.511C205.452 951.436 205.641 951.908 204.603 954.173C203.942 955.588 202.904 956.721 202.149 956.721C201.395 956.721 200.923 957.947 200.923 960.401C200.923 963.892 200.828 964.081 197.243 964.647C193.185 965.308 192.241 966.723 192.996 970.875C193.562 973.328 193.279 973.8 190.165 975.31C187.146 976.725 186.674 977.292 186.957 979.839C187.24 982.198 187.712 982.765 189.977 982.953C191.77 983.142 192.996 982.765 193.562 981.821C194.034 981.066 194.978 980.594 195.733 980.972C196.676 981.255 198.469 980.122 200.451 978.047C203.376 974.933 204.037 974.649 206.962 975.216C209.415 975.593 210.925 975.31 212.907 973.989C215.738 972.007 222.815 969.931 226.778 969.931C228.382 969.931 229.231 969.46 229.231 968.422C229.231 967.289 229.798 967.006 231.213 967.384C232.723 967.761 233.006 967.667 232.251 966.912C231.496 966.157 231.59 965.496 232.628 964.553C234.61 962.571 234.233 960.589 231.779 960.023C230.553 959.646 229.231 959.551 228.665 959.646C228.193 959.74 227.155 959.74 226.401 959.646C225.363 959.551 225.268 959.363 226.212 958.797C226.967 958.325 225.646 957.57 222.626 956.721C220.078 956.06 217.908 955.116 217.908 954.645C217.908 953.229 220.739 952.663 222.154 953.89C223.853 955.305 230.458 954.267 229.892 952.663C229.703 952.097 228.099 950.87 226.306 949.832C222.437 947.756 219.795 944.831 219.795 942.566C219.795 939.735 216.493 937.754 211.114 937.376C207.528 937.093 205.358 937.376 203.942 938.414Z" fill="white"/>
<circle id="485" cx="646" cy="530" fill="#5CE50D"/>
<circle id="484" cx="661" cy="194" fill="#E52A0D"/>
<circle cx="195" cy="810" fill="#E52A0D"/>
<circle id="486" cx="513" cy="693" fill="#E52A0D"/>
</svg>
