<svg width="1000" height="1000" viewBox="0 0 1000 1000" fill="none" xmlns="http://www.w3.org/2000/svg">
<path d="M572.017 301.797C561.141 304.161 559.533 305.201 560.384 309.457C560.857 312.295 560.479 313.051 556.317 317.213C553.858 319.672 551.115 323.076 550.264 324.684C549.318 326.387 547.049 328.467 544.59 329.697C542.32 330.832 539.482 332.534 538.348 333.48C535.983 335.466 535.51 339.154 537.307 340.951C538.158 341.803 538.158 342.37 537.402 343.127C536.551 343.978 535.699 343.883 534.092 342.843C529.93 340.195 526.809 340.006 523.215 342.181C520.283 344.072 519.905 344.64 520.378 347.383C520.756 349.652 520.378 350.882 519.148 352.017C516.973 354.003 515.555 353.246 513.852 349.085C513.096 347.288 511.866 345.869 511.015 345.869C510.258 345.869 504.489 351.26 498.152 357.786C491.816 364.312 485.479 370.27 484.155 370.932C481.318 372.445 462.875 377.174 449.351 380.012C444.338 380.957 439.231 382.66 437.623 383.795C436.11 384.93 432.138 386.632 429.017 387.672C425.801 388.618 418.897 391.455 413.695 394.009C408.494 396.562 402.724 398.927 400.833 399.211C398.847 399.589 396.388 401.008 394.685 402.71C393.172 404.412 386.741 410.087 380.31 415.478C371.23 423.139 368.015 425.314 365.84 425.314C362.718 425.314 358.368 427.205 356.571 429.475C355.909 430.232 354.017 431.178 352.41 431.461C350.707 431.84 346.64 433.637 343.425 435.434C336.426 439.311 328.103 441.108 311.08 442.432C304.554 443 297.839 443.756 296.136 444.229C294.056 444.797 290.367 444.607 285.26 443.662C281.004 443 273.911 442.338 269.466 442.338C262.089 442.338 261.048 442.054 256.509 439.217C251.685 436.19 230.5 413.681 228.514 409.425C228.041 408.29 226.717 407.344 225.771 407.344C224.826 407.344 223.596 406.304 223.029 405.074C221.988 402.899 218.867 401.67 214.138 401.67C212.909 401.67 211.396 400.724 210.544 399.4C209.126 397.319 209.22 396.941 210.923 393.725L212.72 390.32H210.45C209.126 390.32 207.423 389.375 206.383 387.956C205.437 386.632 203.262 385.308 201.37 384.93C198.628 384.457 198.249 384.551 199.101 385.686C199.668 386.443 200.425 387.956 200.614 389.091C201.181 391.077 200.898 391.172 196.547 390.604C192.291 390.131 191.913 390.226 191.913 392.023C191.913 393.252 193.521 394.955 196.736 397.035C200.236 399.211 202.127 401.291 203.357 404.129C204.87 407.533 205.721 408.195 208.653 408.763C210.639 409.047 213.855 410.371 215.841 411.695C218.773 413.586 219.34 414.532 219.34 417.18C219.34 419.828 218.867 420.585 216.503 421.531C214.233 422.477 213.003 422.477 211.206 421.625C209.882 421.058 207.423 420.585 205.626 420.585C202.884 420.585 202.222 420.207 201.749 418.221C200.898 414.721 198.439 415.289 194.466 420.112C192.48 422.477 190.305 424.368 189.643 424.368C188.981 424.368 187.751 422.666 186.9 420.585C185.671 417.464 185.009 416.802 182.928 416.802C181.226 416.802 180.185 417.369 179.902 418.599C179.429 420.49 174.038 422.477 169.593 422.477C166.093 422.382 163.445 420.869 160.23 416.991C158.243 414.627 157.014 413.965 154.271 413.965C150.11 413.965 143.206 411.978 141.598 410.371C140.747 409.52 140.841 408.479 141.787 405.547C142.827 402.237 142.827 401.197 141.409 397.697C139.234 391.928 139.423 389.848 142.355 388.523C144.435 387.672 145.286 387.672 147.083 388.902C148.313 389.658 150.11 390.32 151.245 390.32C152.853 390.32 153.136 389.753 153.136 386.254C153.136 382.849 152.569 381.619 150.015 379.16L146.894 376.134L144.152 378.971C142.449 380.768 140.463 381.809 138.855 381.809C137.437 381.809 135.072 382.281 133.654 382.754C130.06 384.173 127.979 383.227 122.21 377.742C118.427 374.148 117.197 372.351 117.197 370.365C117.197 367.906 117.575 367.622 120.034 367.622C123.534 367.622 123.912 364.879 120.886 361.853C118.805 359.772 118.805 358.637 120.98 350.787C122.399 345.964 121.548 344.64 113.509 339.438C110.671 337.641 104.618 332.818 100.079 328.751C95.5391 324.59 91.5668 321.279 91.2831 321.279C91.094 321.279 90.7157 322.414 90.5265 323.833C90.2428 326.197 89.8645 326.481 87.3109 326.197C84.5682 325.914 84.2844 326.103 83.717 329.697C83.4333 331.872 82.7712 333.574 82.3929 333.574C81.258 333.574 75.3942 329.791 71.3274 326.481C69.2467 324.779 65.1799 322.131 62.248 320.428C57.8975 317.969 56.006 317.496 50.8988 317.496C36.6177 317.496 33.9696 319.766 37.8472 328.089C38.9822 330.548 39.8333 332.818 39.5496 333.007C39.3605 333.196 36.6177 334.615 33.5913 336.128L27.9167 338.776L28.1058 354.854C28.2004 363.65 28.5787 378.025 28.8624 386.726L29.5245 402.426L32.3618 402.994C35.2937 403.561 43.049 409.047 47.1158 413.397C48.5344 414.91 50.8988 416.045 53.4524 416.424C57.2355 416.991 57.6138 417.275 59.5053 422.098L61.586 427.205L59.4107 431.65C57.3301 435.717 56.2897 436.663 48.3453 440.73C39.7388 445.175 39.3605 445.553 37.0906 450.66C34.1587 457.375 34.6316 460.686 40.0225 468.819C43.9002 474.683 44.0893 475.345 45.1297 485.843C46.6429 501.732 46.17 504.38 40.59 508.731C38.0364 510.717 33.4967 513.081 30.3757 514.027C23.7553 516.202 16 521.215 16 523.485C16 526.133 22.715 531.996 26.498 532.658C29.7136 533.226 30.2811 533.983 35.1991 543.062L40.4954 552.803L39.8333 561.031C39.3605 565.477 39.3605 569.354 39.6442 569.543C39.9279 569.733 41.5357 569.26 43.2381 568.503C46.4537 567.179 46.6429 566.233 44.373 559.613C43.9002 558.289 43.3327 553.56 42.9544 549.02C42.4815 541.549 42.5761 540.414 44.7513 536.252C46.9266 531.807 47.3995 531.524 54.4928 529.065C60.7348 526.984 63.7613 526.511 74.1647 526.322L86.4597 526.038L93.3638 529.537C97.1469 531.524 101.308 533.131 102.538 533.131C105.753 533.131 107.077 530.105 106.321 524.525C105.753 520.647 105.943 519.891 107.172 519.891C108.023 519.891 108.874 520.931 109.158 522.255C111.144 532.091 111.239 532.091 117.386 529.537C120.129 528.403 124.007 527.457 125.993 527.457C128.83 527.457 129.492 527.078 129.492 525.66C129.492 524.336 130.438 523.674 132.802 523.295C136.869 522.539 138.004 523.106 138.004 526.133C138.004 527.93 138.477 528.403 140.179 528.403C143.017 528.403 145.57 525.66 145.57 522.539C145.57 520.458 146.043 520.08 148.88 519.701C153.798 519.134 154.839 520.931 151.812 524.903C148.88 528.781 148.691 530.578 151.15 532.848C152.474 534.077 152.758 535.023 152.191 535.969C150.204 538.995 151.056 540.697 154.555 540.697C157.676 540.697 158.054 541.076 159.757 544.953C161.081 547.98 162.121 549.209 163.54 549.209C164.958 549.209 165.431 548.547 165.431 546.94C165.431 545.615 164.958 544.291 164.391 543.913C162.216 542.589 166.755 541.36 173.943 541.17C177.915 541.076 181.699 540.697 182.266 540.319C182.833 540.035 183.685 540.319 184.063 541.17C184.536 541.927 186.144 542.778 187.751 543.156C190.494 543.629 190.872 543.44 192.48 540.035C193.615 537.86 195.034 536.347 196.263 536.158C198.155 535.874 198.249 536.063 197.304 539.752C195.98 544.386 196.547 544.859 204.208 546.372C207.045 546.94 212.72 548.547 216.692 549.777C225.015 552.52 228.419 552.236 227.379 548.926C227.001 547.791 226.528 545.332 226.244 543.535L225.677 540.225L228.041 543.062C231.068 546.75 232.581 549.588 232.581 551.858C232.581 552.803 234.283 554.979 236.364 556.681C238.445 558.289 240.147 560.086 240.147 560.559C240.147 561.031 238.728 561.504 237.121 561.694C234.378 561.977 233.999 562.261 233.999 564.815C233.999 567.084 234.472 567.746 236.175 567.936C237.404 568.125 238.728 569.26 239.201 570.395C239.674 571.624 240.714 572.854 241.471 573.137C242.322 573.516 242.984 574.461 242.984 575.407C242.984 576.353 243.835 578.15 244.781 579.379C246.2 581.271 246.578 581.366 247.051 580.041C247.902 577.866 249.51 578.15 250.645 580.798C251.402 582.406 251.402 583.541 250.645 584.959C249.321 587.513 251.78 593.661 254.523 594.417C256.414 594.89 256.414 595.363 256.036 605.672C255.752 611.536 255.658 616.359 255.847 616.359C255.941 616.359 257.265 615.886 258.779 615.319C262.94 613.616 268.52 612.765 269.087 613.711C269.371 614.184 268.236 615.791 266.628 617.305L263.697 620.047L266.534 621.466C268.142 622.317 270.601 622.979 272.019 622.979C273.438 622.979 277.883 624.02 281.761 625.249C285.638 626.479 292.353 627.803 296.704 628.181C302.662 628.748 304.743 629.316 305.405 630.545C305.878 631.491 307.675 632.437 309.377 632.815C311.08 633.099 313.16 634.329 313.917 635.369C316.376 638.49 318.078 636.788 319.402 630.073C321.199 620.52 321.105 620.237 316.943 620.804C314.295 621.182 313.066 620.804 311.742 619.385C310.134 617.588 310.134 617.588 313.349 617.021C315.241 616.737 318.173 615.319 320.064 613.9C324.131 610.779 324.415 606.901 321.105 599.619C318.835 594.795 318.835 594.795 320.726 594.323C321.861 593.944 324.509 594.795 327.158 596.309C331.035 598.484 331.981 598.673 334.156 597.633L336.615 596.498L335.102 592.715C333.494 588.648 333.778 587.04 335.953 588.742C336.71 589.405 337.656 589.405 338.507 588.932C341.912 586.756 342.574 587.702 342.006 594.133C341.817 597.633 340.966 601.037 340.115 601.983C337.372 605.104 337.277 607.563 339.925 609.644C341.344 610.684 343.33 611.819 344.276 612.103C345.695 612.576 345.884 613.049 345.127 613.995C344.56 614.657 344.371 616.359 344.749 617.683C345.033 619.102 344.843 620.709 344.181 621.561C342.479 623.641 343.898 626.762 346.64 626.762C348.343 626.762 349.194 627.614 350.234 629.978C351.086 632.059 352.504 633.477 354.49 634.139C356.382 634.801 357.422 635.842 357.422 636.977C357.422 638.017 358.273 639.909 359.314 641.233C361.394 643.786 361.773 646.151 360.259 647.096C359.125 647.758 359.976 652.014 361.773 654.568C362.435 655.608 363.759 659.581 364.61 663.364C365.556 667.714 367.069 671.403 368.488 673.105C371.23 676.415 370.758 679.442 367.164 680.293C365.177 680.86 364.894 681.333 365.272 683.887C365.461 685.495 365.083 687.67 364.326 688.805C362.624 691.453 363.664 693.912 366.502 693.912C368.299 693.912 368.771 694.385 368.771 696.182C368.771 699.303 373.689 700.721 378.229 698.83C380.783 697.79 383.809 697.6 391.659 698.168C401.306 698.735 402.062 698.641 407.17 696.371C411.142 694.574 414.074 693.912 418.519 693.912C421.829 693.912 424.761 693.439 425.139 692.872C425.517 692.21 427.125 692.02 429.395 692.399C431.381 692.682 433.178 692.588 433.556 692.02C434.408 690.602 442.73 690.98 444.811 692.493C447.176 694.29 449.162 692.777 449.162 689.088C449.162 686.251 454.553 679.725 456.917 679.725C457.674 679.725 459.092 678.874 460.038 677.834C461.646 676.131 461.551 675.848 459.187 671.781C457.863 669.511 456.728 667.147 456.728 666.674C456.728 666.201 458.903 664.499 461.457 662.796C466.185 659.675 466.28 659.675 475.454 660.148C480.467 660.432 486.236 660.999 488.222 661.377C490.87 661.756 492.383 661.567 494.369 660.243C495.788 659.297 498.814 658.256 501.179 657.878C511.582 656.176 518.297 651.92 519.811 645.867C520.283 643.786 519.716 642.84 516.027 639.625C512.339 636.409 511.488 635.085 511.015 631.491C510.447 627.424 509.407 626.1 491.816 608.225C476.778 592.809 472.238 588.837 467.982 586.851C463.254 584.676 462.213 583.635 459.187 578.15C455.12 570.962 451.904 568.314 445.851 567.463C441.596 566.895 441.406 566.801 438.191 560.464C435.164 554.411 434.975 553.371 434.975 544.859C434.975 536.442 435.164 535.401 437.529 532.28C442.636 525.376 447.554 520.836 450.107 520.836C451.526 520.836 456.728 520.174 461.835 519.418C469.779 518.283 472.522 517.337 483.115 511.946C489.83 508.541 499.287 503.245 504.111 500.029C508.934 496.908 514.325 494.071 516.027 493.787C518.392 493.315 519.148 492.652 519.621 490.477C520 488.68 521.891 486.6 525.107 484.235C527.85 482.344 531.916 479.128 534.281 477.236C536.645 475.345 541.279 472.508 544.684 470.994C554.142 466.738 562.654 460.118 562.654 456.997C562.654 456.713 561.046 457.754 559.06 459.267C554.236 463.239 550.548 463.807 543.644 461.726C537.307 459.74 536.456 457.564 541.658 456.335C543.266 455.957 546.008 455.295 547.711 454.822C550.359 454.254 550.832 453.498 552.061 449.147L553.48 444.135L550.643 441.108C545.346 435.528 545.346 434.961 550.075 428.908C553.574 424.273 554.709 423.422 557.263 423.422C561.613 423.422 564.545 422.477 564.545 421.058C564.545 419.545 567.572 418.693 573.436 418.693C577.975 418.693 578.164 418.599 585.068 411.222C593.391 402.237 599.539 398.832 607.389 398.832C610.226 398.832 614.387 398.17 616.657 397.414C619.873 396.279 624.412 395.995 636.235 396.09C650.516 396.279 651.745 396.468 654.488 398.454C656.19 399.684 661.297 401.48 666.783 402.71C673.782 404.318 677.943 405.831 682.577 408.668C688.252 412.168 689.292 413.303 692.319 419.166C695.629 425.692 695.723 425.787 699.317 425.692C701.398 425.598 703.195 425.125 703.289 424.652C703.479 424.084 704.141 422.949 704.803 422.098C705.843 420.585 706.505 421.058 710.477 426.543C716.057 434.109 717.476 435.339 722.016 436.947C724.475 437.798 725.893 438.933 726.272 440.352C726.745 442.243 726.839 442.338 728.92 440.919C730.055 440.068 731 438.838 731 438.082C731 436.001 734.5 434.488 735.162 436.19C735.446 436.947 735.067 437.893 734.311 438.365C731.946 439.689 731.568 444.513 733.649 446.499C735.446 448.107 735.635 448.107 738.094 446.499C740.553 444.891 740.742 444.891 741.971 446.499C742.633 447.539 743.39 448.674 743.485 449.147C743.674 449.62 745.565 450.282 747.646 450.566C750.767 450.944 751.713 451.606 753.51 454.727C756.063 459.172 756.253 462.199 753.794 462.199C752.848 462.199 751.524 462.861 750.862 463.617C749.821 464.847 750.01 465.414 751.618 467.211C752.753 468.346 753.888 471.184 754.266 473.548C755.118 479.412 756.82 482.438 761.17 485.938C763.251 487.545 765.143 490.004 765.521 491.423C766.656 495.963 770.534 500.975 773.087 500.975C774.884 500.975 775.546 500.313 776.303 497.381C777.532 493.031 777.627 490.099 776.397 486.41C774.506 480.357 772.614 470.616 773.087 469.765C774.128 468.063 776.397 470.049 777.343 473.359C777.816 475.345 778.289 478.655 778.289 480.83C778.289 485.086 779.14 485.843 781.126 483.479C782.072 482.344 782.072 481.492 781.126 479.317C778.383 472.697 783.491 470.332 787.463 476.385C788.598 478.182 790.3 480.736 791.151 481.965L792.759 484.235L793.894 480.547C794.461 478.466 795.502 475.912 796.164 474.967C797.204 473.17 797.299 473.264 796.92 475.44C796.731 476.764 796.353 478.371 796.164 479.128C795.691 481.02 798.812 481.587 800.704 480.074C802.122 478.844 802.028 474.305 800.42 469.008C799.947 467.306 800.231 466.928 801.744 466.928C804.392 466.928 804.96 468.063 804.96 473.926C805.054 479.79 803.635 482.722 800.798 483.195C798.434 483.479 796.731 488.775 798.434 490.477C801.649 493.693 810.445 486.789 810.445 481.114C810.445 478.75 810.823 478.277 812.809 478.277C814.133 478.277 816.876 479.412 818.957 480.736C821.038 482.154 823.024 483.1 823.307 482.816C823.591 482.533 822.645 479.506 821.227 476.007C819.903 472.602 818.957 469.103 819.335 468.346C820.092 466.266 822.74 467.684 822.74 470.238C822.74 471.373 823.591 473.075 824.631 474.021C825.577 474.872 826.996 477.236 827.563 479.128C828.225 481.02 829.36 483.006 830.117 483.573C831.441 484.519 831.346 484.708 829.549 485.275C826.807 486.221 826.901 488.302 829.928 490.193C832.671 491.99 835.035 496.152 835.035 499.084C835.035 500.219 836.17 502.583 837.494 504.285C840.142 507.785 844.398 509.487 850.262 509.487C855.274 509.487 868.515 519.039 871.542 524.809C874.095 529.727 870.123 527.93 862.935 520.931C858.017 516.108 855.274 514.216 852.721 513.743C847.235 512.703 846.952 513.554 851.586 517.053C855.936 520.269 855.936 520.363 853.572 520.647C852.153 520.836 849.6 520.174 847.897 519.134C846.195 518.094 843.169 516.77 841.088 516.108C837.21 514.878 833.143 511.757 833.143 510.055C833.143 509.487 832.198 506.177 831.157 502.678C829.739 498.422 828.509 496.152 827.374 495.774C826.334 495.395 825.577 494.26 825.577 493.125C825.483 486.978 822.267 484.33 821.227 489.626C820.47 493.031 818.957 493.409 818.957 490.193C818.957 487.734 816.687 485.37 815.268 486.316C814.701 486.6 813.377 489.91 812.242 493.693C811.202 497.476 809.215 502.299 807.891 504.569L805.622 508.636L802.311 506.744C800.514 505.609 798.812 504.758 798.717 504.758C798.528 504.758 797.299 506.461 795.88 508.541C793.516 512.041 793.421 512.703 794.461 516.108C795.124 518.188 796.353 520.553 797.393 521.404C800.136 523.957 799.663 529.727 796.164 535.212C794.556 537.766 792.286 539.941 791.151 540.13C785.098 541.36 783.301 541.36 781.126 540.225C778.383 538.617 774.128 538.428 771.763 539.752C770.344 540.508 770.155 541.265 770.723 544.197C771.006 546.183 771.763 548.642 772.331 549.682C772.898 550.723 773.655 553.465 774.033 555.735C774.979 561.694 777.532 566.801 781.504 570.773C792.192 581.649 798.623 592.62 797.677 598.106C797.015 601.889 799.19 605.577 802.69 606.428C806.851 607.469 812.999 614.562 813.755 619.385C814.133 621.561 815.268 624.776 816.214 626.384C818.862 630.735 827.28 638.301 833.333 641.8C837.683 644.259 839.48 646.056 842.223 650.596C845.817 656.838 860.571 673.105 863.597 674.24C864.543 674.618 866.718 675.942 868.421 677.172C873.906 681.239 874.568 681.144 875.23 676.131C875.514 673.672 876.176 669.795 876.743 667.43C877.311 665.066 878.446 660.526 879.108 657.216C880.621 650.407 885.917 642.368 891.119 639.152C896.226 636.031 896.604 632.626 893.673 618.25C891.97 609.928 891.97 608.698 893.2 605.672C894.429 602.645 894.807 602.456 897.55 603.024C900.293 603.591 900.86 604.253 902.563 609.549C904.076 613.995 906.062 617.021 910.98 622.506C916.749 628.938 917.79 629.6 920.911 629.6C923.653 629.6 924.788 629.032 926.112 626.952C927.153 625.533 931.125 622.696 935.097 620.52C941.718 616.926 942.569 616.17 946.541 609.455C949.567 604.442 951.648 601.889 953.54 601.321C957.039 600.092 957.512 598.2 955.81 592.809C954.769 589.594 954.58 587.135 955.147 584.865C955.715 582.311 955.526 581.176 954.58 580.325C952.31 578.434 953.067 576.069 957.701 570.678C960.917 566.706 964.038 564.436 969.523 561.599C973.685 559.424 978.319 557.721 979.737 557.721C981.534 557.721 982.858 557.059 983.521 555.735C984.372 554.127 984.183 553.276 982.196 550.628C979.17 546.75 974.063 532.848 974.063 528.686C974.063 523.863 966.307 509.203 962.524 506.839C957.417 503.718 954.485 499.84 953.351 494.828C952.688 492.18 950.513 486.6 948.338 482.344C944.933 475.25 944.082 474.305 939.637 471.94L934.813 469.292L934.53 462.955C934.341 457.564 934.53 456.335 936.232 454.633C937.272 453.592 938.975 452.741 940.015 452.741C941.056 452.741 941.907 452.268 941.907 451.795C941.907 449.525 938.88 445.175 935.192 442.054C932.071 439.406 930.179 438.555 925.923 437.987C921.573 437.514 919.965 436.758 916.938 433.92C914.952 432.029 912.682 429.191 912.02 427.489C911.264 425.881 909.561 423.895 908.143 423.233C906.63 422.571 904.454 420.018 903.13 417.559C899.253 410.371 897.739 409.236 892.632 409.236C888.471 409.236 887.903 408.952 885.539 405.642C884.12 403.75 881.756 400.535 880.243 398.643C878.446 396.373 877.594 394.009 877.594 391.834C877.594 388.051 876.27 386.443 870.028 382.754C867.38 381.146 865.394 379.066 864.165 376.323C862.368 372.635 853.194 363.839 851.018 363.839C849.694 363.839 849.978 365.541 851.775 368.379L853.383 370.932L851.018 368.946C849.789 367.811 847.046 366.014 844.966 364.974C842.885 363.933 840.142 361.947 838.913 360.623C834.373 355.8 825.388 350.787 819.146 349.652C815.836 349.085 811.958 348.139 810.634 347.666C809.215 347.099 804.487 346.058 800.136 345.302C795.407 344.451 786.706 341.803 779.14 338.776C772.047 335.939 765.71 333.574 765.143 333.574C764.575 333.574 763.44 332.534 762.589 331.21C761.454 329.413 760.225 328.845 757.577 328.845C755.685 328.845 751.429 328.183 748.024 327.332C743.485 326.292 739.702 326.103 733.554 326.576C725.704 327.143 725.137 327.049 721.732 324.779C718.8 322.698 717.192 322.32 712.558 322.414C709.437 322.414 706.127 322.887 705.276 323.36C704.33 323.833 701.776 324.59 699.601 325.062C697.331 325.535 693.264 326.481 690.522 327.049C685.793 328.089 685.414 328.089 683.523 326.008C681.631 324.022 680.969 323.927 670.566 324.211L659.595 324.59L659.311 320.05C658.933 314.659 660.162 312.767 664.04 312.767C668.58 312.767 674.254 308.89 674.254 305.769C674.254 305.485 668.391 305.58 661.297 305.863C651.272 306.242 647.584 306.809 645.409 308.039C640.301 311.065 636.045 311.16 629.047 308.701C623.94 306.809 620.819 306.336 612.779 306.336C607.294 306.336 601.336 305.863 599.539 305.296C597.742 304.728 593.297 304.256 589.797 304.256C583.934 304.256 583.366 304.066 583.934 302.459C584.785 299.81 582.231 299.621 572.017 301.797Z" fill="white"/>
<path d="M132.329 344.074C129.587 345.209 128.546 346.533 128.546 349.37C128.546 351.64 133.559 356.274 136.113 356.274C136.964 356.274 138.288 356.936 138.95 357.693C139.99 358.922 140.368 358.922 140.936 357.977C143.017 354.761 141.031 345.587 138.004 343.979C135.923 342.844 135.45 342.844 132.329 344.074Z" fill="white"/>
<path d="M151.907 358.733C151.623 359.112 152.38 360.152 153.609 361.192C155.217 362.422 155.879 363.935 155.879 366.016C155.879 367.718 156.257 370.555 156.73 372.352L157.676 375.663L158.906 372.731C159.568 371.123 161.459 369.042 163.256 368.096C167.039 366.016 167.228 364.124 163.824 363.273C162.31 362.895 159.662 361.571 157.865 360.341C154.555 358.166 152.947 357.693 151.907 358.733Z" fill="white"/>
<path d="M132.424 367.903C131.005 369.7 133.181 378.969 135.072 378.969C137.815 378.969 142.733 375.091 142.733 372.821C142.733 368.471 135.072 364.877 132.424 367.903Z" fill="white"/>
<path d="M159.189 377.839C156.919 379.352 159 392.214 161.648 392.214C162.027 392.214 163.067 392.498 163.824 392.782C164.864 393.16 165.62 392.309 166.377 389.944C167.323 386.918 167.228 385.972 165.431 382.378C164.391 380.108 162.783 377.933 162.027 377.649C160.23 376.987 160.419 376.987 159.189 377.839Z" fill="white"/>
<path d="M172.714 387.106C171.863 388.051 173.754 391.078 175.835 392.213C177.821 393.253 181.509 392.024 181.509 390.321C181.509 388.713 173.943 385.971 172.714 387.106Z" fill="white"/>
<path d="M676.43 480.166C673.498 481.301 673.781 483.003 677.186 485.652L679.929 487.921V485.084C679.929 483.476 680.213 481.585 680.496 480.734C681.158 479.031 679.74 478.842 676.43 480.166Z" fill="white"/>
<path d="M685.982 484.139C683.428 485.368 682.766 488.489 682.766 499.744C682.766 508.35 682.861 508.918 685.604 511.944C687.117 513.647 688.63 516.579 689.008 518.47C689.576 521.875 690.143 522.159 693.832 521.213L696.007 520.645L694.116 517.997C693.075 516.484 692.224 514.309 692.224 513.079C692.224 511.188 692.886 510.62 696.196 509.864C699.128 509.202 700.641 508.256 701.871 506.175C703.479 503.338 703.479 503.054 700.263 493.407L697.142 483.477L692.508 483.287C690.049 483.193 687.022 483.571 685.982 484.139Z" fill="white"/>
<path d="M654.393 493.312C654.393 494.731 659.217 498.136 661.108 498.136C663.378 498.136 663.567 493.88 661.392 493.029C659.122 492.177 654.393 492.367 654.393 493.312Z" fill="white"/>
<path d="M658.555 509.489C656.474 510.34 655.623 512.799 654.677 520.932C654.299 524.81 654.488 525.378 656.663 526.891L659.122 528.499L661.014 524.148C662.054 521.784 663.473 519.608 664.229 519.325C666.688 518.379 666.688 516.204 664.135 512.326C661.392 508.259 661.487 508.259 658.555 509.489Z" fill="white"/>
<path d="M223.123 636.785C220.286 639.623 217.259 642.082 216.314 642.46C215.462 642.744 214.422 643.879 214.138 645.013C213.76 646.148 211.585 648.891 209.126 650.972L204.775 654.944L208.369 660.146C210.923 663.929 213.098 665.82 215.746 666.955C218.867 668.185 219.908 669.32 221.421 673.008C223.029 676.697 224.163 678.021 227.663 679.629C231.73 681.615 244.592 684.357 249.888 684.452C252.253 684.452 252.442 684.168 252.442 680.763C252.442 678.777 251.969 675.845 251.402 674.143C250.361 671.306 250.172 671.211 245.065 671.211C240.431 671.117 239.485 670.833 237.877 668.752C235.418 665.253 236.269 657.687 239.674 654.566C242.606 651.823 242.795 648.891 239.958 647.945C236.648 647 234.472 644.635 234.472 642.176C234.472 639.433 231.257 632.813 229.554 632.246C228.892 631.962 225.96 634.043 223.123 636.785Z" fill="white"/>
<path d="M332.359 641.703C331.319 642.082 328.103 643.879 325.266 645.77C322.429 647.662 319.024 649.553 317.7 649.931C312.214 651.539 311.458 654.187 316.47 654.187C318.835 654.187 321.956 652.958 326.306 650.31C330.657 647.756 333.305 646.621 334.629 647.094C337.75 648.04 345.033 644.351 345.127 641.609C345.127 640.757 335.007 640.852 332.359 641.703Z" fill="white"/>
<path d="M218.111 688.9C216.881 690.224 216.881 690.697 218.678 693.818C219.718 695.709 220.759 697.412 220.948 697.601C221.515 698.357 225.771 693.818 226.244 692.021C226.528 690.791 225.771 689.94 223.123 688.9C219.908 687.67 219.34 687.67 218.111 688.9Z" fill="white"/>
<circle id="528" cx="575" cy="403" fill="#5CE50D"/>
<circle cx="872" cy="522" fill="#E52A0D"/>
<circle id="530" cx="122" cy="522" fill="#E52A0D"/>
<circle id="1461" cx="373" cy="552" fill="#E52A0D"/>
</svg>
