<svg width="1000" height="1000" viewBox="0 0 1000 1000" fill="none" xmlns="http://www.w3.org/2000/svg">
<path d="M834.261 42.7927C831.692 45.9333 830.645 46.5044 828.836 46.1237C827.314 45.743 824.649 46.5044 820.842 48.4078C817.701 49.9305 813.894 51.263 812.372 51.263C810.373 51.263 809.041 51.9292 807.994 53.5471C805.614 57.0685 802.854 57.1636 792.671 54.0229C783.63 51.1678 782.868 51.0726 773.256 51.7388C767.736 52.2147 758.98 52.5954 753.745 52.6906C748.511 52.7858 742.325 53.3568 739.946 53.9278C737.566 54.4037 730.714 55.165 724.718 55.5457C718.722 55.9264 712.917 56.783 711.87 57.4492C710.823 58.1154 706.635 59.6381 702.638 60.685C698.546 61.8271 694.453 63.3499 693.597 64.1112C685.888 70.6781 683.889 72.2009 682.747 72.2009C681.986 72.2009 679.131 73.7236 676.466 75.5319C673.706 77.3401 671.136 78.8629 670.66 78.8629C670.184 78.8629 669.042 79.7195 668.186 80.6712C666.663 82.3843 666.663 82.5746 668.186 83.4312C669.042 83.907 669.518 84.7636 669.137 85.3346C668.281 86.7622 664.474 85.4298 662.571 82.9553C660.477 80.3857 658.288 80.1002 657.336 82.3843C655.623 86.2863 652.863 89.998 649.913 92.187C648.2 93.5194 646.296 95.5181 645.63 96.6601C644.964 97.8973 644.107 98.8491 643.631 98.8491C642.489 98.8491 633.162 106.368 631.64 108.461C630.593 109.984 630.783 110.555 633.543 113.03C635.256 114.648 637.635 115.98 638.873 115.98C640.395 115.98 640.966 116.551 640.966 117.979C640.966 119.121 641.918 120.739 643.155 121.69C644.393 122.642 646.201 125.021 647.153 127.115C648.2 129.114 649.722 131.208 650.484 131.874C651.721 132.826 651.721 133.397 650.579 136.442C649.913 138.346 649.532 140.059 649.722 140.154C649.818 140.344 651.34 141.201 652.958 141.962C655.623 143.294 656.004 144.056 656.48 148.529C656.86 152.431 656.575 154.239 655.147 156.523C652.578 160.711 652.863 162.71 656.289 165.565L659.335 168.039L655.433 172.322C652.102 175.939 651.435 177.271 651.435 180.602C651.435 184.314 651.15 184.694 647.819 186.217C641.918 188.882 637.255 193.07 635.256 197.447C634.114 200.207 632.877 201.635 631.735 201.635C628.689 201.635 625.834 204.3 625.549 207.631C625.358 210.105 624.787 210.772 622.789 210.962C620.79 211.152 620.124 211.914 619.648 214.198C618.982 217.529 622.027 222.954 626.5 226.475C628.784 228.188 628.784 228.378 627.167 230.758C626.024 232.471 625.739 234.184 626.215 236.849C626.691 239.704 626.405 241.131 624.597 243.796C621.076 249.316 608.227 254.17 598.044 253.885C595.665 253.789 592.429 254.36 590.906 255.217C588.431 256.549 587.86 256.454 585.291 255.122C583.768 254.36 579.39 253.409 575.583 253.028C571.872 252.647 567.018 251.505 564.829 250.363C561.307 248.65 560.451 248.555 557.405 249.602C553.313 251.029 551.695 255.122 553.408 260.071C554.645 263.878 561.498 270.54 565.305 271.777C567.113 272.348 568.255 273.395 568.445 274.727C568.636 275.869 569.207 276.821 569.683 276.821C570.254 276.821 570.539 278.534 570.444 280.628C570.158 283.769 570.634 284.911 573.109 287.48C577.963 292.524 578.914 299.662 574.822 299.662C574.251 299.662 572.062 300.9 569.968 302.517C567.969 304.04 565.78 305.373 565.209 305.373C564.638 305.373 563.211 306.515 561.878 307.847C558.262 311.749 556.454 312.32 545.89 312.606C537.039 312.891 535.516 313.177 532.185 315.461C528.663 317.745 528.473 318.126 528.949 321.837C529.139 324.026 529.71 326.786 530.091 327.833C530.567 329.451 530.281 330.022 528.473 330.498C527.236 330.784 525.523 332.116 524.571 333.448C522.953 335.637 522.953 335.923 524.476 338.207C525.808 340.206 525.903 341.538 525.237 345.155C524.476 349.152 524 349.723 521.05 350.675C518.956 351.341 516.957 353.054 515.53 355.338C513.531 358.479 513.436 359.24 514.483 361.429C515.149 362.761 516.005 369.233 516.386 375.8C516.767 382.367 517.338 389.219 517.719 391.028C518.29 394.168 518.099 394.549 513.626 397.975C510.39 400.45 508.487 402.829 507.345 405.684C505.917 409.491 505.156 410.157 499.16 412.822C495.448 414.44 491.451 415.772 490.214 415.772C486.883 415.772 483.266 412.441 482.6 408.634C482.029 405.97 481.553 405.303 479.745 405.303C478.508 405.303 476.414 404.447 474.986 403.305L472.512 401.401L469.466 403.685C466.611 405.779 465.755 405.874 460.33 405.399C456.142 404.923 453.858 404.161 452.43 402.734L450.432 400.735L443.389 407.873C437.203 414.25 436.061 415.011 433.872 414.44C431.683 413.869 430.541 414.44 426.448 418.532C421.595 423.291 421.499 423.386 417.883 422.339C415.884 421.768 414.076 421.483 413.886 421.768C413.695 421.959 414.076 424.243 414.647 426.907L415.789 431.666L418.93 430.334C423.213 428.621 426.829 429.572 426.829 432.523C426.829 434.141 426.258 434.807 425.021 434.807C424.069 434.807 422.261 435.568 421.024 436.615C416.17 440.327 406.557 442.611 396.184 442.421C382.193 442.135 380.861 441.85 381.527 438.994C382.193 436.71 382.098 436.615 377.149 437.281C373.342 437.757 371.344 438.614 368.774 440.993C366.966 442.706 364.682 444.324 363.73 444.609C362.778 444.99 361.256 447.179 360.209 449.654C356.782 457.458 354.974 459.266 349.169 460.598C342.982 462.026 343.458 461.169 339.176 478.11L336.035 490.007L338.224 492.291C340.222 494.385 340.318 495.146 339.747 500.666C339.366 503.997 338.034 509.612 336.796 513.229C333.751 521.984 333.846 523.222 338.034 526.838L341.65 529.884L338.795 532.644C336.32 535.118 330.515 537.212 298.537 547.015C269.319 556.056 260.754 558.34 259.326 557.579C256.947 556.246 231.155 556.342 224.969 557.674C222.209 558.245 218.021 559.768 215.547 561.005C212.977 562.242 210.503 563.289 210.027 563.289C209.456 563.289 208.695 564.812 208.314 566.62C207.648 570.332 207.267 570.522 204.602 568.619C203.555 567.953 196.893 565.954 189.85 564.336L177.002 561.291L141.789 565.288L106.575 569.19L60.1308 553.391C34.5295 544.731 13.4013 537.593 13.1158 537.593C11.593 537.593 25.2026 554.914 33.1971 563.004C42.2384 572.331 42.7143 572.997 42.4288 576.423C42.3336 578.897 42.7143 580.515 43.7612 581.372C44.6177 582.038 44.9984 583.371 44.7129 584.322C44.3322 585.56 44.9033 586.416 46.997 587.463C49.186 588.605 49.9474 589.842 50.4232 592.888C51.2798 597.837 64.8894 618.299 70.3142 622.581C75.6439 626.864 84.7804 630.766 94.0121 632.575C101.531 634.192 101.911 634.383 108.383 640.759L115.045 647.326L120.755 646.279C123.896 645.708 126.656 645.328 126.846 645.518C127.037 645.803 126.751 649.515 126.18 653.893C125.419 660.27 125.514 662.173 126.561 663.886C127.418 665.123 128.464 671.881 129.321 682.064C130.463 696.054 130.463 699.005 129.226 704.144C128.464 707.475 128.084 710.711 128.369 711.282C128.56 711.948 128.179 713.281 127.513 714.327C125.324 717.087 125.704 719.372 128.369 719.372C129.511 719.372 131.891 719.847 133.509 720.418C135.698 721.18 137.411 721.085 140.837 719.943C147.594 717.563 152.638 717.944 155.779 720.99C158.253 723.369 158.348 723.654 156.826 725.272C154.922 727.461 153.875 738.025 155.493 739.643C157.016 741.166 156.826 741.927 154.351 742.594C152.543 742.974 152.067 744.116 151.115 750.302C150.449 754.3 149.688 757.916 149.402 758.487C148.546 759.82 143.977 759.534 139.314 757.821C134.27 756.013 127.227 756.584 122.944 759.154C121.231 760.2 116.853 761.533 113.047 762.104C109.335 762.77 105.433 763.912 104.481 764.578C103.529 765.34 101.816 766.006 100.579 766.006C99.4369 766.006 98.1997 766.672 98.0093 767.433C97.7238 768.195 97.248 769.622 96.9624 770.479C96.5817 771.431 96.3914 773.429 96.4866 774.952C96.7721 777.902 97.0576 777.807 90.2052 775.904C88.5873 775.428 88.1114 775.809 87.5404 778.188C87.1597 780.282 86.3032 781.138 84.3997 781.519C82.9721 781.805 79.1652 782.947 76.0246 784.089L70.1239 786.182L68.506 794.938C67.6494 799.697 66.6977 805.978 66.4122 808.833C65.8411 814.639 64.7942 816.447 62.2246 816.447C60.8922 816.447 60.4163 817.113 60.4163 819.112C60.4163 820.54 60.8922 822.253 61.5584 822.919C62.3198 823.68 62.3198 824.346 61.6536 825.203C61.0825 825.869 60.1308 831.675 59.5598 838.146C58.7032 847.759 58.037 850.519 56.1336 853.564L53.8494 857.276L56.4191 857.752C57.8467 858.037 60.6067 858.513 62.5101 858.894C66.5073 859.56 66.7929 860.226 64.6039 863.557C62.4149 866.888 63.4618 868.792 67.4591 868.792C69.8384 868.792 70.8853 868.316 71.3611 866.984C71.9322 865.175 75.9294 864.033 82.5914 864.033C86.3032 864.033 86.8742 863.272 84.9707 861.368C83.0673 859.465 85.6369 858.037 91.9183 857.562L97.7238 857.086L97.3431 861.083C97.0576 864.795 97.1528 864.985 99.6273 864.985C102.387 864.985 103.91 863.653 102.292 862.606C100.389 861.464 101.436 860.036 105.147 858.608C107.241 857.752 108.669 856.8 108.478 856.419C107.146 854.326 124.848 853.945 134.651 855.848C139.79 856.8 141.408 856.8 144.168 855.658C146.357 854.802 148.926 854.516 151.782 854.897C154.161 855.277 157.968 855.658 160.347 855.848C162.726 855.944 165.582 856.61 166.819 857.276C168.056 857.942 169.674 858.228 170.435 857.942C171.577 857.562 171.482 856.895 169.864 854.326C168.817 852.613 167.961 850.899 167.961 850.519C167.961 847.568 186.519 844.523 189.47 846.997C190.421 847.759 194.514 848.615 199.273 848.901C209.932 849.662 219.449 851.471 221.257 852.993C222.019 853.755 224.112 854.611 225.826 854.992C228.205 855.468 228.871 855.277 228.871 854.135C228.871 853.279 229.632 852.613 230.584 852.613C233.059 852.613 236.485 855.373 236.485 857.371C236.485 859.75 237.912 860.512 240.958 859.75C243.147 859.179 243.242 859.084 241.814 857.466C239.911 855.373 239.911 854.135 241.814 852.137C243.147 850.804 245.431 850.614 256.661 850.804C269.89 850.995 269.985 850.995 272.27 848.52C275.315 845.189 282.167 844.713 293.874 846.997C298.918 848.044 299.774 847.949 305.294 845.665C310.719 843.286 315.097 842.524 334.512 840.335C341.46 839.479 341.745 839.574 345.076 842.239C347.836 844.428 348.693 844.713 349.073 843.571C349.454 842.81 349.264 841.953 348.693 841.573C348.217 841.287 348.027 840.24 348.312 839.193C348.788 837.766 348.407 837.385 346.694 837.385C345.457 837.385 343.458 836.528 342.126 835.482C339.08 833.102 336.891 833.102 335.274 835.386C334.036 837.195 326.232 839.384 327.089 837.766C329.468 832.436 330.325 831.58 333.941 830.628C339.651 829.105 344.505 830.247 348.407 834.054C350.12 835.862 351.643 837.671 351.643 838.146C351.643 838.622 352.5 839.764 353.451 840.621C354.974 842.048 355.164 842.81 354.403 844.808C353.547 846.997 353.927 847.759 358.4 852.232C363.73 857.657 363.635 857.276 361.256 867.84C360.78 870.219 360.304 873.931 360.209 876.12C360.209 878.309 359.828 880.403 359.257 880.688C356.782 882.211 358.876 882.877 365.538 882.687C370.202 882.592 373.342 882.973 374.484 883.734C375.627 884.59 376.388 884.59 376.578 883.924C376.769 883.353 378.006 883.829 379.529 884.971C381.146 886.303 382.764 886.779 384.002 886.399C387.333 885.352 389.617 886.779 390.283 890.396C390.759 892.966 390.569 894.012 389.331 894.679C387.047 895.916 387.523 897.344 390.188 897.344C392.758 897.344 393.329 899.057 391.425 900.96C390.569 901.817 390.569 902.102 391.52 902.102C392.282 902.102 392.567 902.673 392.186 903.625C391.52 905.243 393.614 909.716 395.898 911.619C397.04 912.571 397.231 913.903 396.755 917.234C396.089 922.374 398.753 931.32 402.655 937.03C403.988 939.029 405.32 941.789 405.606 943.216C406.272 946.357 407.129 947.214 411.887 948.736C414.266 949.498 415.884 950.735 416.36 952.163C417.597 955.303 419.691 955.97 422.546 954.066C424.355 952.924 425.402 952.734 426.734 953.495C429.399 954.827 429.494 954.732 429.875 951.496L430.16 948.451L434.253 951.972C440.534 957.207 441.676 956.541 441.105 948.261C440.915 944.739 442.152 945.976 443.865 950.925C444.912 954.066 444.817 954.827 443.579 956.921C442.057 959.11 442.057 959.301 444.436 960.157C445.864 960.728 447.386 961.109 447.862 961.109C449.385 961.109 452.526 955.018 452.526 951.972C452.526 949.117 454.905 945.881 456.999 945.881C457.57 945.881 458.236 944.93 458.521 943.883C458.997 942.17 459.568 941.884 462.328 942.455C466.135 943.121 483.932 943.407 484.599 942.741C484.789 942.455 485.265 937.506 485.55 931.701C486.121 921.517 487.073 918.377 488.786 921.232C489.167 921.993 490.119 923.421 490.975 924.468C492.308 926.371 492.403 926.276 493.354 923.706C494.497 920.756 495.163 920.565 496.781 922.754C497.732 923.992 498.494 924.182 500.683 923.326C502.205 922.754 509.629 922.279 517.148 922.183C524.666 922.088 531.518 921.612 532.375 921.232C533.517 920.565 534.945 921.422 538.371 924.563L542.844 928.75H551.695C556.549 928.75 561.117 928.37 561.783 927.989C562.354 927.513 563.972 925.8 565.305 923.992C567.398 921.137 569.207 920.28 580.247 916.663C587.194 914.474 593.095 912.571 593.38 912.571C593.666 912.571 593.856 914.76 593.951 917.33C593.951 919.994 594.522 922.659 595.189 923.326C595.855 923.992 599.757 924.658 604.516 924.848C612.51 925.134 612.7 925.134 612.129 923.135C611.749 921.517 612.415 920.565 615.08 918.852C616.983 917.52 619.933 916.283 621.647 915.902C626.881 914.855 628.309 910.668 623.455 910.668C620.409 910.668 618.791 906.766 619.648 901.436C620.029 898.771 620.885 896.963 622.122 896.297C624.692 894.964 623.931 892.204 618.125 882.116C615.556 877.643 612.891 871.361 612.129 868.126C611.273 864.509 609.56 860.607 607.371 857.562C605.372 854.992 603.849 852.042 603.849 850.995C603.849 849.948 602.802 848.139 601.47 846.902C599.186 844.808 599.091 844.142 599.091 833.864C599.091 823.3 599.091 823.109 596.807 822.538C595.569 822.253 593.666 822.443 592.619 823.014C591.477 823.585 587.385 824.061 583.387 824.061C576.725 824.061 576.154 823.871 575.393 821.872C574.917 820.635 572.823 817.209 570.825 814.353C566.066 807.596 563.972 799.506 565.685 795.224C570.254 784.279 570.729 781.804 570.158 773.905C569.492 764.769 569.112 763.722 566.352 761.818C564.638 760.771 562.83 760.676 558.072 761.247C552.171 762.009 551.695 761.818 542.273 757.726C536.943 755.347 531.994 752.777 531.138 751.92C530.186 750.874 529.71 747.923 529.52 743.165C529.425 736.693 529.71 735.36 532.851 728.698C536.372 721.275 540.179 716.516 555.026 701.289C560.641 695.388 562.545 692.628 565.305 686.252C567.113 681.874 568.636 677.686 568.636 677.02C568.636 676.354 570.063 674.831 571.872 673.689C573.68 672.642 575.964 670.263 577.011 668.454C579.295 664.743 583.102 663.315 589.383 663.981C592.619 664.267 593.951 665.028 596.14 667.693C597.663 669.596 599.376 672.832 599.947 675.021C601.375 680.256 604.801 684.158 608.703 685.014C611.178 685.585 612.986 685.205 616.698 683.396C631.354 676.163 635.256 674.926 647.248 674.26C656.48 673.784 660.001 673.118 665.616 671.024L672.659 668.264L674.372 661.317C676.085 654.559 676.466 653.988 684.079 646.565L691.884 638.951L695.119 628.197C697.975 618.87 698.831 617.061 702.067 614.206C704.066 612.398 706.35 610.875 707.206 610.875C708.063 610.875 710.728 609.448 713.202 607.639C715.581 605.831 721.768 602.31 726.907 599.835C735.663 595.457 736.234 594.982 737.186 591.365C737.757 589.271 739.66 586.035 741.373 584.227C743.181 582.419 747.179 575.947 750.319 569.856C755.554 559.958 756.41 557.389 758.885 545.302C760.408 537.878 761.74 531.692 761.93 531.502C762.121 531.311 767.545 529.408 773.827 527.219C784.772 523.412 785.723 522.841 791.243 517.226C796.763 511.706 797.049 511.135 796.097 508.66C795.621 507.233 794.099 504.663 792.861 503.045L790.482 500L795.431 495.622C798.191 493.147 801.332 490.958 802.569 490.578C803.806 490.102 804.663 489.055 804.758 487.818C804.758 486.485 806.471 484.487 809.421 482.107C812.181 480.109 815.132 476.683 816.464 474.018C818.653 469.83 822.65 465.262 830.549 457.934C833.119 455.554 834.071 455.174 835.498 455.935C838.163 457.458 840.543 454.698 839.21 451.652C838.354 449.844 837.592 449.463 835.213 449.844C830.74 450.51 830.454 447.274 834.166 436.234C835.974 430.905 837.021 425.956 836.736 424.528C836.545 423.101 834.737 418.342 832.834 413.869L829.407 405.779L835.784 399.879C839.401 396.548 843.017 393.883 843.969 393.883C844.92 393.883 847.49 391.884 849.679 389.505C853.486 385.412 853.867 385.222 856.246 386.269C858.34 387.316 859.482 387.221 862.718 385.888C864.811 385.032 867.571 384.366 868.809 384.366C870.046 384.366 871.283 383.699 871.569 382.938C871.949 382.177 873.853 380.749 875.947 379.702C881.562 376.752 882.038 373.326 877.469 366.664C874.329 362.19 873.472 361.524 870.712 361.524C868.238 361.524 867.191 360.953 865.858 358.669C864.05 355.528 859.577 354.672 858.53 357.337C858.054 358.669 857.769 358.669 855.865 357.337C854.438 356.29 851.583 355.814 847.49 355.814H841.209L839.686 351.15C838.639 347.819 838.449 346.201 839.21 345.44C839.876 344.774 839.876 343.727 839.02 342.109C837.973 340.206 837.973 339.444 839.305 337.636C840.162 336.399 840.828 334.876 840.828 334.21C840.828 332.021 837.973 332.877 836.831 335.352C835.974 337.16 835.023 337.731 832.548 337.731C829.788 337.731 829.122 337.16 826.552 332.592C824.268 328.595 823.031 327.357 820.652 326.882L817.701 326.311L819.7 324.122L821.794 321.837L819.795 320.029C818.653 319.077 815.988 317.84 813.799 317.269C810.754 316.508 809.516 315.556 808.089 312.986C807.137 311.178 805.043 308.989 803.425 308.228C799.333 306.229 799.333 305.182 803.711 302.708C812.657 297.569 812.372 285.958 803.045 282.055C800.475 281.009 799.904 280.152 799.428 276.44C798.572 270.825 801.141 266.638 808.279 261.974C813.894 258.358 814.561 255.978 811.23 251.696C809.326 249.221 808.945 249.126 802.759 249.792C798.667 250.173 795.621 249.982 794.384 249.316L792.29 248.269L795.336 242.178L798.286 236.182L795.241 231.805C792.481 227.712 792.1 227.522 788.959 227.998C785.819 228.474 785.628 228.378 785.628 225.999C785.628 224.191 786.58 222.858 789.435 221.05C792.671 218.861 793.242 218.005 793.242 215.245C793.242 212.961 794.194 210.676 796.192 208.107C798.952 204.68 799.523 204.395 803.14 204.68C806.471 204.871 807.994 204.3 812.943 200.874C818.272 197.257 819.414 196.876 824.649 196.876C829.883 196.876 831.025 197.257 836.355 200.874C841.685 204.585 843.017 205.061 850.345 205.823C854.818 206.203 861.29 206.679 864.716 206.774C870.141 206.869 871.378 207.25 874.805 210.01C879.087 213.436 886.32 214.864 898.693 214.959C906.307 214.959 912.588 212.58 916.871 207.916C918.869 205.823 920.011 205.442 924.77 205.442C928.958 205.442 931.527 204.776 934.858 203.063C937.333 201.73 939.997 200.683 940.854 200.683C941.711 200.683 943.519 199.827 944.851 198.78L947.231 196.876L950.657 198.875C952.655 200.017 955.225 200.683 957.128 200.493C959.888 200.207 960.364 199.732 962.458 194.212C964.266 189.548 965.123 188.311 966.741 188.311C967.883 188.311 969.691 187.645 970.738 186.788C972.07 185.836 973.688 185.551 976.258 185.932C979.589 186.503 979.779 186.407 979.779 184.028C979.779 182.696 980.16 181.744 980.636 182.03C981.112 182.315 982.825 182.125 984.443 181.554C986.917 180.697 987.298 180.126 986.822 178.413C985.87 175.272 983.491 170.894 981.683 168.801C980.826 167.754 979.779 165.85 979.399 164.518C979.113 163.185 975.877 158.141 972.166 153.288C967.312 146.816 965.313 143.294 964.933 140.439C964.457 137.299 963.219 135.395 959.698 131.969C957.128 129.495 954.464 125.878 953.607 124.07C952.275 120.739 952.084 120.643 948.658 121.31C946.659 121.69 943.804 122.547 942.377 123.308C940.759 124.07 937.713 124.546 934.763 124.355C930.004 124.07 929.814 123.974 929.053 120.548C928.196 116.837 922.391 111.221 919.535 111.221C916.49 111.221 916.109 105.606 918.964 103.037C920.677 101.514 920.773 100.657 920.297 95.0422C919.06 83.1456 917.061 75.9126 914.206 72.6767C912.683 70.8685 910.97 68.0133 910.399 66.205C909.352 63.0643 909.162 62.9692 901.643 61.9222L893.934 60.7802L890.413 63.6354L886.987 66.4905L885.94 60.114C884.988 54.6892 884.322 53.3568 881.467 50.5968C879.563 48.8837 876.993 47.4561 875.661 47.4561C874.424 47.4561 872.901 46.7899 872.235 46.0285C870.712 44.2202 863.765 44.1251 861.195 45.9333C860.148 46.6947 857.769 47.5513 855.96 47.9319C852.82 48.503 852.534 48.3126 850.821 45.1719C848.918 41.6506 847.966 41.1747 845.587 42.6975C844.635 43.2685 843.303 42.8878 841.114 41.1747C839.496 39.9375 837.973 38.8906 837.783 38.8906C837.592 38.8906 836.069 40.6989 834.261 42.7927Z" fill="white"/>
<circle id="823" cx="736" cy="281" fill="#5CE50D"/>
<circle id="1638" cx="649" cy="530" fill="#E52A0D"/>
<circle id="516" cx="381" cy="879" fill="#E52A0D"/>
<circle id="517" cx="806" cy="435" fill="#E52A0D"/>
</svg>
