<svg width="1000" height="1000" viewBox="0 0 1000 1000" fill="none" xmlns="http://www.w3.org/2000/svg">
<path d="M388.007 126.059C385.436 126.535 376.583 128.439 368.491 130.438C358.495 132.818 350.213 134.15 342.788 134.626C328.318 135.578 310.135 141.385 299.187 148.525C292.904 152.809 281.099 158.14 275.388 159.473C272.912 160.044 266.82 160.806 261.869 161.187C255.301 161.663 251.493 162.519 248.161 164.043C241.878 167.089 233.596 175.085 229.026 182.511C225.789 187.747 224.076 189.365 217.698 193.268C207.987 199.266 202.847 201.075 195.421 201.17C192.185 201.265 187.044 202.122 183.998 203.074C181.046 204.026 173.431 205.834 167.148 206.977C160.865 208.024 154.486 209.452 152.868 209.928C151.345 210.499 144.205 211.927 137.065 213.165C121.929 215.735 121.262 215.83 114.313 218.781C105.65 222.399 100.224 224.208 85.7534 228.015C78.1376 230.015 67.5706 233.347 62.1444 235.441C56.7181 237.63 51.863 239.344 51.2918 239.344C50.7206 239.344 48.2455 240.867 45.6751 242.676L41.1056 245.913L33.6802 245.056C26.826 244.294 26.0644 244.39 24.1604 246.198C21.5901 248.578 21.3045 251.91 23.3988 253.624C24.2556 254.29 27.0164 255.908 29.6819 257.051C33.6802 258.955 34.537 259.05 34.9178 257.908C35.2986 257.051 36.7265 256.48 38.5353 256.48C40.1537 256.48 42.5336 255.623 43.8664 254.576C47.0079 252.101 57.7653 251.815 56.8133 254.195C55.9565 256.384 57.8605 259.336 60.1452 259.336C62.906 259.336 62.2396 263.524 59.4788 263.905C58.3365 264.096 56.6229 265.047 55.7661 265.999C54.3382 267.618 54.243 268.665 54.9093 272.854C55.5757 276.947 56.1469 277.994 57.8605 278.185C60.526 278.566 61.3828 281.041 59.574 283.135C58.8124 283.992 58.1461 285.325 58.1461 286.086C58.0509 286.848 57.3845 286.086 56.5277 284.563C53.5766 278.946 49.4831 275.519 45.6751 275.519C40.5345 275.519 37.5833 274.186 35.6794 270.855C33.2994 266.761 31.4907 266.38 29.0155 269.522C25.6836 273.615 25.874 279.708 29.4915 282.945C32.2522 285.229 32.3474 285.61 31.7763 291.132C31.3003 296.272 31.5859 297.415 33.585 300.366C35.5842 303.412 38.7257 313.313 40.6297 323.118C41.0105 324.927 42.0576 327.497 43.0096 328.735C45.3896 331.781 45.3896 332.067 41.296 337.017C37.7737 341.111 37.7737 341.396 38.0593 348.25C38.3449 356.152 37.1073 359.103 32.633 361.102C31.2051 361.768 26.7308 364.434 22.6373 367.1L15.2118 371.955L15.8782 376.048C16.3542 379.285 16.0686 380.808 14.4503 383.474C13.3079 385.282 12.7367 386.996 13.1175 387.186C13.4983 387.472 16.0686 387.948 18.8294 388.329C23.0181 388.9 24.3508 389.566 27.2068 392.708C29.0155 394.707 30.9195 396.421 31.3955 396.421C31.8715 396.421 35.2986 399.372 38.9161 402.894C43.5808 407.463 46.8175 409.748 49.6735 410.605C54.9093 412.223 61.0972 416.412 62.8108 419.649C64.0483 421.934 63.9531 422.314 61.954 424.504C59.9548 426.693 59.8596 426.979 61.1924 428.121C64.6195 430.787 64.1435 433.167 59.574 436.88C54.4333 441.164 54.243 442.972 57.5749 453.444C60.05 461.25 61.2876 462.583 66.8091 463.535C70.7122 464.201 70.9978 465.153 68.5226 469.723C68.0466 470.58 68.3322 471.817 69.2842 472.864C70.5218 474.102 70.617 474.768 69.7602 475.625C69.0938 476.292 68.6178 478.195 68.6178 479.909C68.6178 482.575 69.0938 483.336 71.9497 484.669C74.3297 485.811 75.1865 486.763 74.7105 487.715C74.4249 488.572 73.7585 491.618 73.1873 494.474C70.7122 508.659 70.3314 509.706 68.9986 509.706C67.761 509.706 59.098 517.607 59.098 518.75C59.098 518.94 60.3356 520.559 61.8588 522.272C63.3819 523.986 65.0955 527.127 65.6667 529.222C66.4283 531.982 67.9514 533.886 70.9978 536.076C74.5201 538.741 75.2817 539.789 75.8529 543.596C76.424 547.595 76.2337 548.166 73.3777 551.117C71.6642 552.831 70.5218 554.83 70.7122 555.401C70.9026 556.067 76.424 559.018 82.8975 561.97C93.0837 566.634 94.7972 567.681 95.0828 569.681C95.5588 574.345 98.4147 582.247 99.6523 582.723C100.414 583.008 100.985 584.151 100.985 585.293C101.08 586.34 101.651 588.815 102.318 590.719C103.46 594.051 103.27 594.908 96.5108 612.044C92.7029 621.849 89.5613 630.417 89.5613 631.083C89.5613 631.75 87.8478 633.654 85.8486 635.272C82.6119 637.842 82.2311 638.604 82.8023 640.889C83.4687 643.269 83.9447 643.459 88.895 643.745C95.654 644.125 98.1292 642.888 98.1292 639.175C98.1292 637.747 98.8907 635.177 99.7475 633.558C101.366 630.798 101.366 630.607 99.5571 629.275C97.6532 627.847 97.6532 627.847 99.8427 625.657C100.985 624.515 101.937 624.039 101.937 624.705C101.937 625.467 102.889 625.562 104.793 625.181C106.887 624.8 108.22 625.181 109.648 626.419C111.266 627.846 111.838 627.942 113.551 626.895C114.979 626.038 115.741 625.943 116.502 626.704C117.074 627.275 118.597 627.751 119.739 627.751C120.977 627.751 123.261 628.703 124.785 629.846C127.45 631.845 127.545 631.94 126.117 635.177C124.88 638.223 124.975 638.794 126.498 641.46C127.545 643.269 129.259 644.601 130.782 644.887C132.496 645.173 134.114 646.6 135.637 649.171C137.541 652.312 138.493 652.979 141.159 653.074C148.679 653.455 160.96 656.12 164.196 658.215C167.052 659.928 168.671 660.309 172.955 659.928L178.095 659.452L181.046 664.593C184.188 670.114 184.283 670.114 187.425 668.306C188.662 667.639 190.947 667.354 192.47 667.544C195.231 667.925 195.517 668.306 197.706 674.303C197.992 675.35 198.753 675.065 200.752 673.256C202.18 671.923 204.465 670.114 205.893 669.162C208.273 667.734 208.654 667.734 210.653 669.067C213.699 671.257 216.841 670.971 218.554 668.306C219.982 666.116 220.268 666.116 224.647 667.258C229.978 668.591 237.975 674.113 238.07 676.397C238.07 677.254 237.308 678.968 236.452 680.205C235.5 681.443 234.262 683.347 233.691 684.394C233.12 685.536 231.406 686.393 229.788 686.584C227.884 686.774 225.028 688.583 221.791 691.534L216.65 696.103L220.458 700.006C223.314 703.053 224.837 703.91 227.408 703.91C230.073 703.91 230.74 704.386 231.501 706.766C232.263 708.955 233.31 709.717 235.88 710.193C238.26 710.669 239.688 711.621 240.831 713.715C241.688 715.238 243.687 717.808 245.4 719.332C247.59 721.426 248.732 723.616 249.494 727.138C250.351 731.231 251.207 732.659 254.444 735.135C259.109 738.752 265.201 739.418 266.153 736.467C266.439 735.42 267.581 734.182 268.819 733.707C269.961 733.135 272.722 731.231 274.912 729.423C277.196 727.519 281.385 725.329 284.622 724.282C287.858 723.33 290.429 722.188 290.429 721.807C290.429 721.331 291.286 721.426 292.238 721.902C293.856 722.854 294.046 722.473 294.427 718.665C294.713 714.477 294.617 714.381 291.571 713.81C288.906 713.239 288.334 712.668 287.382 708.86C286.811 706.575 285.098 703.243 283.67 701.53C281.004 698.578 281.004 698.388 282.718 696.865C284.336 695.437 284.812 695.532 290.524 698.103C294.808 700.006 297.569 700.673 299.758 700.387C303.947 699.721 311.372 702.577 311.372 704.766C311.372 706.861 320.892 710.097 324.414 709.146C326.699 708.574 326.794 708.765 326.223 711.811C325.842 713.905 326.033 715.429 326.794 716C327.461 716.571 334.22 717.047 342.216 717.142C354.307 717.333 356.591 717.047 358.114 715.714C359.162 714.857 359.923 713.525 359.923 712.763C359.923 711.145 361.351 711.145 364.207 713.049C366.206 714.286 366.301 714.857 365.445 716.857C364.588 718.665 364.683 719.522 365.921 720.855C366.873 721.807 367.539 723.044 367.539 723.52C367.444 725.044 360.494 728.851 356.782 729.423C354.783 729.613 352.974 730.279 352.688 730.755C351.831 731.993 356.972 737.134 360.494 738.562C362.303 739.418 364.778 741.989 367.158 745.606C370.109 750.366 371.823 751.889 375.536 753.508L380.105 755.507L384.389 753.222C386.674 751.985 389.625 749.7 390.863 747.986C393.052 745.225 393.433 745.035 396.194 746.082C397.812 746.749 399.811 748.462 400.668 750.081C402.857 754.46 404.666 755.412 407.237 753.698C409.616 752.08 412.282 752.651 412.282 754.745C412.282 755.507 413.424 756.554 414.948 757.125C416.376 757.696 418.946 759.029 420.755 760.172C422.754 761.314 424.848 761.885 426.086 761.599C427.323 761.314 430.75 761.885 433.702 762.932C436.748 763.979 440.556 764.836 442.269 764.836C444.84 764.836 445.411 765.312 446.268 768.073C446.839 770.072 446.934 771.69 446.458 772.166C445.887 772.738 446.648 775.974 448.172 780.353L450.742 787.684L458.167 790.54C462.166 792.063 466.354 793.396 467.402 793.396C468.925 793.396 469.401 794.443 470.258 799.393C470.829 802.725 471.305 806.533 471.305 807.961C471.305 809.294 471.781 811.483 472.352 812.721C473.304 814.72 473.78 814.91 478.54 814.53L483.68 814.149V817.1C483.68 818.718 484.156 821.955 484.823 824.335C486.156 829.095 488.25 830.332 492.915 829.095C494.438 828.714 497.294 828.238 499.388 828.143C504.719 827.952 510.241 822.717 511.002 817.29C511.478 813.578 511.669 813.482 515.952 812.911C524.044 811.864 524.615 811.578 524.615 809.103C524.615 806.438 527.091 804.819 531.184 804.819C533.564 804.819 534.706 805.581 536.991 808.818C538.514 810.912 539.847 813.292 539.847 814.054C539.847 814.815 540.799 817.576 541.846 820.146C543.655 824.24 544.226 824.811 546.606 824.811C548.701 824.811 549.653 825.382 550.319 827.191C551.271 829.666 551.747 829.856 559.267 829.952C564.694 830.047 565.265 830.999 565.455 839.662C565.551 842.232 566.122 844.993 566.788 845.659C567.55 846.516 567.645 847.087 566.883 847.373C566.312 847.563 564.503 848.706 562.885 849.943L559.839 852.133L562.219 854.322C564.123 856.036 565.265 856.417 568.311 855.941C570.406 855.655 573.357 854.513 574.785 853.37C577.736 851.086 581.163 851.466 583.924 854.417C584.971 855.465 586.78 856.702 588.112 857.273C593.063 859.177 593.634 858.606 596.299 849.562C599.441 839.186 601.726 837.187 610.484 837.187H615.91L616.577 833.855C617.148 830.618 617.338 830.428 620.67 830.618C622.574 830.808 625.335 830.142 626.953 829.38C629.619 827.952 629.999 827.952 635.235 830.618C638.282 832.141 641.138 833.379 641.709 833.379C642.28 833.379 642.946 832.141 643.232 830.618C643.803 827.952 644.089 827.857 648.277 827.952C650.657 828.048 653.418 827.762 654.37 827.286C655.703 826.62 656.274 827.096 657.226 829.476C657.797 831.094 658.749 832.427 659.32 832.427C659.892 832.427 661.605 833.664 663.033 835.187C664.842 837.091 666.27 837.758 667.888 837.377C669.507 837.091 670.268 837.377 670.268 838.329C670.268 839.091 671.315 840.709 672.553 841.851C676.075 845.183 680.645 844.041 683.977 838.995C685.405 836.901 687.594 834.711 688.832 834.14C690.641 833.284 691.212 832.332 691.212 829.952C691.212 827.381 691.688 826.62 693.592 826.144C695.4 825.668 696.448 826.144 698.161 828.143C700.16 830.523 700.541 830.618 702.445 829.476C703.587 828.714 704.539 827.476 704.539 826.62C704.539 823.478 710.537 823.002 718.819 825.382C725.102 827.191 725.007 827.191 734.051 825.477C740.048 824.335 741.286 824.335 742.143 825.477C742.619 826.144 745.284 827 748.045 827.286C752.614 827.857 752.995 828.143 754.613 831.665C755.851 834.426 756.517 834.997 757.089 834.045C757.469 833.284 759.088 832.141 760.611 831.475C763.276 830.428 763.848 830.523 768.227 833.759C770.797 835.663 773.463 837.187 774.129 837.187C776.128 837.187 781.65 845.85 781.65 848.896C781.65 851.086 782.506 851.847 788.599 854.893C793.359 857.369 796.501 858.416 799.071 858.225C801.641 858.13 802.593 858.416 802.593 859.463C802.593 861.557 807.924 864.032 811.827 863.652C814.398 863.461 815.54 863.937 816.873 865.556C818.396 867.364 819.824 867.745 827.535 868.221C832.676 868.602 836.96 869.363 837.816 870.125C840.482 872.41 846.575 874.409 851.525 874.695C855.523 874.885 857.237 874.409 860.949 872.124L865.424 869.363L861.711 866.698C859.712 865.175 857.713 863.556 857.332 862.985C857.046 862.414 855.999 861.938 855.047 861.938C854.095 861.938 852.382 860.891 851.144 859.558C849.431 857.654 849.145 856.893 850.002 856.036C850.668 855.369 851.144 853.751 851.144 852.418C851.144 850.99 852.001 849.086 853.048 848.134C855.047 846.326 856.856 841.185 856.856 837.377C856.856 835.949 854.857 832.808 851.525 829.285C846.86 823.954 846.289 823.002 846.765 820.051C847.051 817.957 846.765 816.053 845.908 814.91C843.814 812.15 844.195 808.056 846.575 805.771C847.717 804.724 848.955 803.867 849.335 803.867C849.716 803.867 851.335 801.583 852.858 798.822C854.476 796.156 863.139 785.875 872.278 775.974C881.322 766.169 890.937 755.316 893.698 751.794C900.933 742.56 909.215 734.373 922.067 723.996C928.35 718.856 934.061 713.905 934.823 713.049C935.585 712.097 937.869 710.573 939.773 709.526C942.629 708.098 943.581 706.956 944.057 704.481C944.819 700.102 949.483 698.198 959.098 698.198C967 698.198 975.948 696.77 976.805 695.342C977.091 694.771 978.614 689.249 980.137 682.966L982.898 671.542L980.804 667.258C979.661 664.878 978.709 662.308 978.709 661.547C978.709 660.785 977.852 659.262 976.805 658.215C975.758 657.167 974.901 655.263 974.901 653.931C974.901 652.027 974.425 651.551 972.521 651.551C969.951 651.551 969.475 649.837 971.093 646.696C971.95 645.268 973.188 644.887 977.662 644.887C982.327 644.887 983.469 644.506 985.373 642.412C986.896 640.889 987.372 639.746 986.706 639.365C972.617 630.322 970.332 628.418 968.713 624.895C967.761 622.801 966.429 620.612 965.667 620.04C965.001 619.469 964.43 617.946 964.43 616.708C964.43 615.471 963.287 613.376 961.954 612.044C960.526 610.616 959.765 608.997 960.05 608.236C960.336 607.474 960.812 606.237 961.098 605.57C961.383 604.904 960.336 603.666 958.718 602.714C957.195 601.762 955.862 600.144 955.862 599.192C955.862 597.954 954.624 597.002 951.863 596.146C948.817 595.194 947.294 593.956 946.152 591.576C945.295 589.863 943.2 587.197 941.582 585.769C938.25 582.723 937.965 580.438 940.535 577.201C943.296 573.584 943.962 567.967 941.868 565.682C940.916 564.635 940.154 563.112 940.154 562.255C940.154 561.398 938.345 559.494 936.061 557.971C932.538 555.591 931.967 554.83 932.538 552.831C932.919 551.307 932.253 549.023 930.634 545.976C928.159 541.502 928.159 541.312 929.492 536.171C930.825 531.125 930.825 530.745 928.921 528.936C926.446 526.461 927.588 524.747 933.776 522.082C937.965 520.178 938.06 520.083 937.298 516.56C935.204 505.517 936.346 498.663 940.63 496.378C942.344 495.426 942.439 495.141 941.201 492.761C940.535 491.333 939.583 488.382 939.297 486.287C938.631 482.67 938.06 482.003 932.538 478.767C929.206 476.863 925.779 474.197 924.922 472.96C924.066 471.627 922.542 470.675 921.21 470.675C919.877 470.675 915.783 469.437 911.88 467.914C908.072 466.391 903.122 464.582 900.837 463.916C897.791 463.059 896.934 462.393 897.315 461.25C897.696 460.393 897.029 459.156 895.792 458.204L893.602 456.586L898.172 446.304C902.265 437.165 903.503 435.261 909.12 429.93C919.877 419.744 926.16 416.698 946.342 411.652L963.954 407.273L966.524 386.52L968.999 365.767L966.143 361.007C963.573 356.913 963.192 355.39 963.382 350.345C963.478 345.87 963.097 343.871 961.574 341.682C960.526 340.063 959.67 338.159 959.67 337.398C959.67 336.636 957.575 334.637 955.005 332.924C951.483 330.639 950.15 329.116 949.674 326.736C948.341 321.119 945.295 312.551 940.535 301.318C936.156 291.227 935.775 289.894 936.346 285.039C936.822 280.66 936.441 278.375 933.966 271.235C932.348 266.475 930.349 259.05 929.587 254.671C928.826 250.292 927.588 245.817 926.826 244.77C926.065 243.628 925.398 241.914 925.398 240.867C925.398 239.82 924.732 238.297 923.875 237.345C922.542 235.917 922.542 235.441 923.78 232.966C924.827 230.967 925.018 228.682 924.542 223.732C923.97 218.305 923.399 216.877 921.591 215.64C920.353 214.783 917.402 212.117 915.022 209.642C911.69 206.31 909.31 204.882 905.312 203.74C902.361 202.883 899.695 201.646 899.409 200.789C899.029 200.027 897.125 198.599 894.935 197.457C892.841 196.41 891.127 195.172 891.127 194.696C891.127 194.22 888.652 193.935 885.701 194.03C880.655 194.125 880.179 193.935 880.37 192.126C880.56 190.793 879.799 189.746 878.276 189.08C876.943 188.413 875.896 187.366 875.896 186.509C875.896 185.748 875.42 185.081 874.848 185.081C874.277 185.081 870.945 183.653 867.423 181.845C860.283 178.227 856.475 178.513 857.046 182.416C857.427 185.367 856.57 185.462 816.016 188.889C785.648 191.555 780.222 191.745 760.325 191.174C745.855 190.793 735.574 190.888 730.243 191.65C723.293 192.507 717.296 192.316 687.404 189.841C668.269 188.318 634.474 184.891 612.198 182.225C589.921 179.56 569.263 177.18 566.312 176.799L560.886 176.228L559.553 179.465C557.173 185.081 553.27 187.842 545.845 189.27C541.37 190.127 537.658 191.555 534.802 193.554C530.232 196.695 528.899 197.076 519.189 197.838C513.477 198.314 513.192 198.314 513.192 196.219C513.192 194.982 512.716 193.554 512.145 192.983C510.621 191.46 515.286 189.27 522.331 187.937C533.945 185.938 536.325 185.272 537.182 183.749C538.324 181.749 542.989 179.369 545.94 179.369C547.273 179.369 548.891 178.513 549.843 177.18C552.318 173.658 549.462 174.038 540.038 178.798C530.423 183.653 519.665 186.89 509.86 187.842C501.863 188.699 472.161 188.032 470.829 186.985C470.353 186.509 467.402 185.938 464.355 185.557C460.643 185.081 457.882 184.129 456.073 182.606C454.645 181.369 452.36 180.321 451.028 180.321C446.934 180.321 444.554 175.752 444.268 167.66C444.173 162.9 443.602 159.854 442.46 158.14C441.603 156.808 440.841 154.618 440.841 153.38C440.841 151.667 440.365 151.191 438.747 151.191C437.033 151.286 436.462 150.715 436.272 148.43C436.081 146.717 434.558 144.337 432.559 142.433C430.655 140.433 429.513 138.625 429.798 137.768C430.084 137.006 430.37 135.769 430.37 135.007C430.37 133.96 431.226 134.055 434.939 135.483C451.123 141.861 458.929 146.907 465.878 155.475C467.973 158.045 468.734 158.426 469.877 157.474C471.971 155.76 469.972 152.714 462.261 146.241C457.787 142.528 454.169 140.338 451.313 139.577C448.933 139.006 443.602 136.53 439.413 134.15C435.225 131.77 430.941 129.866 429.894 129.866C428.846 129.866 426.276 128.819 424.182 127.487C420.564 125.297 419.612 125.202 406.57 125.297C398.954 125.297 390.672 125.678 388.007 126.059Z" fill="white"/>
<circle id="548" cx="727" cy="465" fill="#5CE50D"/>
<circle id="1058" cx="446" cy="182" fill="#E52A0D"/>
<circle id="1469" cx="272" cy="435" fill="#E52A0D"/>
<circle id="549" cx="582" cy="739" fill="#E52A0D"/>
</svg>
