<svg width="1000" height="1000" viewBox="0 0 1000 1000" fill="none" xmlns="http://www.w3.org/2000/svg">
<path d="M252.302 722.744L259.396 728.276L262.658 731.114L264.645 732.675L266.206 733.951L269.752 736.788L274.718 741.329L278.264 744.166L278.689 744.875L281.243 747.003L283.229 748.279L286.209 751.259L291.883 755.657L292.876 756.65L293.302 757.643L292.167 762.608L291.6 763.601L288.194 766.154L287.769 766.864L287.627 768.708L285.499 770.41L284.79 771.546L285.073 773.39L282.52 774.809L280.392 777.505L277.555 778.781L275.284 779.633L269.61 782.611L268.759 783.463L266.631 785.023L258.971 786.583L256.417 788.428L253.863 790.698L248.756 795.096L246.344 797.365L244.216 799.919L241.662 801.905L238.968 803.324L237.123 804.743L234.995 807.863L230.455 813.112L228.895 815.809L225.773 818.787L224.071 820.49L221.659 822.476L220.382 824.32L219.248 826.022L216.836 828.576L214.566 829.145L211.444 831.13L209.316 834.251L207.331 837.797L205.912 839.5L204.777 841.202L203.075 843.614L201.23 844.749L199.67 845.316L198.535 846.31L197.542 847.729L194.705 850.282L193.003 852.268L191.301 851.842L190.023 853.119L188.179 855.531L185.626 858.368L185.058 859.361L181.512 862.767L180.944 863.617L179.81 864.326L178.532 865.745L175.837 868.44V869.859L172.432 875.25L171.298 878.514V880.073L170.304 881.208L170.587 882.77L169.453 883.336L168.744 882.91L167.608 883.195L166.757 884.897L166.331 887.025L166.048 889.011L168.318 907.454L169.453 914.973L171.438 929.868L168.885 937.672L167.183 941.359L153.848 949.021L151.861 950.297L151.436 951.574L148.314 957.532L145.335 961.646L143.491 963.49L140.512 966.187L137.674 968.457L135.546 969.875L130.864 971.861L124.765 975.124L121.36 976.826L119.516 978.387L116.111 982.501L111.854 986.898L109.302 989.169L105.613 992.573L105.045 992.999L102.917 986.189L98.5195 971.577L97.3848 968.881L93.1289 954.837L92.2773 952L91.2842 948.878L87.7373 937.387L87.1699 937.104L84.9004 936.82L80.9277 929.301L77.5234 923.059L74.5439 917.243L74.4023 916.958L76.2471 915.256L79.3672 912.419L86.4609 905.326L88.3057 903.339L91.2842 900.645L92.2773 899.793L94.8311 897.239L103.06 889.295L104.336 887.592L109.869 882.06L112.849 878.371L116.679 874.115L118.239 872.13L119.09 871.562L122.212 868.157L123.346 867.163L124.623 865.461L126.183 864.043L128.027 862.198L127.177 861.063L127.034 860.354L128.311 862.057L128.736 861.772H129.162L130.724 860.639L132.709 858.511L136.256 854.821L140.37 850.85L143.633 847.444L144.769 846.451L147.889 843.33L150.727 840.351L159.381 830.137L164.488 823.611L167.893 819.781L171.864 814.957L173.426 812.829L173.566 812.971L179.667 805.735L184.491 799.776L185.768 797.791L187.186 796.089L189.456 793.535L196.833 784.739L200.096 780.483L203.784 775.234L206.763 770.41L205.629 768.851L205.486 767.999L206.196 767.148L206.338 766.58L207.474 765.445L205.771 767.999L205.912 768.851L208.04 769.844L209.742 768.142L209.459 767.432L211.02 766.58L213.147 763.601L216.411 759.63L220.524 754.663L224.497 749.415L226.625 746.011L229.604 742.038L232.583 737.356L235.137 733.242L237.406 729.838L240.386 725.439L245.492 717.211L252.302 722.744Z" fill="white"/>
<path fill-rule="evenodd" clip-rule="evenodd" d="M706.557 7.88574L709.962 13.418L711.947 16.8232L713.792 19.6602L718.757 24.3418L723.724 29.3066L737.343 35.4072L740.037 36.2588L746.421 38.5283L750.536 39.2373H753.656L757.912 38.9541L759.331 38.5283L764.722 37.6768L768.552 36.6846L770.822 35.833L772.809 34.9814H773.943L775.078 34.4141L779.618 32.4277L781.604 32.1445L784.016 32.8535L785.293 32.9951L786.995 32.4277L789.975 32.7119L791.677 33.2793L794.939 33.9883L798.628 35.6914L800.757 37.3936L803.168 38.6699L805.153 40.2305L806.572 42.6426L807.707 42.7842L810.403 42.6426L814.091 44.6289L818.206 45.6221L819.057 47.3242L818.915 49.8779L819.057 51.4385L820.475 55.8359L819.908 56.6875L819.624 58.6738L821.043 60.0918L821.894 63.0713L823.313 65.7666L824.59 67.043L826.008 69.7393L826.575 73.2852L828.278 74.5625L829.129 77.1162L826.434 79.1016L826.15 82.6484L825.156 86.6211L824.59 90.168L823.028 92.0117L822.888 93.7148L824.022 95.8428L826.859 103.22L827.569 106.34L828.278 108.043L830.406 109.745L832.251 110.881L835.655 114.001L838.066 115.277L841.755 116.413H842.322L843.741 115.42L844.876 112.725L846.721 113.009L848.564 112.016L849.416 111.307L850.977 111.447L852.537 111.021L854.665 112.016L855.232 111.731L857.502 111.873L858.495 111.59L861.617 112.44L863.886 112.583L866.724 113.292L868.568 114.285L873.392 118.683L877.789 120.385L888.004 123.081L891.267 124.357L893.536 125.066L895.522 125.351L896.799 126.06L899.778 126.911L901.055 127.62L903.042 129.606L905.027 130.458L907.155 130.032L908.29 129.465L911.27 129.182L912.688 129.606L913.682 129.039L915.385 131.024L916.094 131.45L916.803 130.884L918.505 132.16L918.931 132.869L918.789 134.004L917.938 135.423L916.235 135.14L916.094 136.274L916.803 137.409H917.796L918.789 136.7V138.402L919.215 139.679L919.355 141.098L918.931 142.232L919.355 143.651L918.079 146.205L917.796 147.766L917.37 148.049L916.377 147.482L915.668 146.347L914.674 145.495L912.972 145.638L912.405 146.205L913.256 147.623L912.831 149.468L913.114 151.312L913.54 152.021L914.533 152.163L914.959 153.015L913.54 154.292L914.249 155.284L915.668 158.263L916.661 159.398L916.519 159.966L915.1 160.25L914.533 161.385L912.972 163.229L914.107 165.782V168.478L914.391 169.471L915.242 170.18L915.1 172.308L913.54 173.159L913.397 174.01L913.823 175.004V176.28L912.688 177.982L912.831 179.401H914.674L914.959 180.11L916.235 180.962L917.513 182.522L917.796 183.658L917.513 184.509L918.079 186.211L919.072 187.629L919.215 188.339L917.938 190.042L916.803 191.318L917.228 192.17L916.519 193.305L914.959 193.872L913.823 196.566L914.107 197.135L916.235 197.986L917.228 198.695L918.363 198.837L919.215 200.114L919.355 201.391L920.774 202.81L920.917 204.512L921.769 207.349L921.343 209.193L920.491 210.186L919.072 210.896L918.789 211.889L919.072 213.165L918.363 214.301L917.513 214.727L915.81 214.584L915.242 215.152L916.094 218.272L916.944 219.266L916.377 220.685L917.228 221.819L918.363 221.962L919.215 222.671L919.924 224.09L919.781 225.792L919.072 226.927L918.363 227.21L918.222 228.629L918.931 232.176L920.35 233.027L920.491 232.033L922.478 231.04L923.896 231.75L923.612 234.587L922.478 235.296L922.052 237.85L921.343 238.701H920.35L918.363 237.709L917.37 238.701L917.653 239.269L919.498 240.829V241.255L918.646 242.531V244.519L918.222 244.802V246.504L918.789 246.787L919.641 248.349L920.35 248.49L921.343 247.923L921.626 247.213L923.187 246.93L924.747 247.497L924.605 248.774L923.045 249.767L922.619 250.334L921.626 250.477L920.917 251.895L921.769 253.739L920.917 255.016L921.343 256.01L922.761 257.144L922.903 257.995L922.478 259.697L924.322 259.557L925.314 259.981L925.599 261.116L924.889 262.11L924.18 262.251L923.896 261.542L922.761 260.691L921.769 260.975L921.059 262.11L921.626 263.812L921.059 264.521L920.207 264.805L918.789 265.798L918.646 267.217L919.924 267.926L920.35 270.338L921.343 271.757L923.045 271.188L923.328 272.182L922.335 274.452L923.328 275.729L922.478 276.438L922.193 277.289L921.059 277.998L920.774 278.991L919.781 279.417L918.931 278.424L918.079 277.006L916.944 276.863L915.951 277.998L916.094 279.843L916.803 279.985L918.505 281.119L918.222 282.539L917.228 282.68L916.094 284.524L916.377 286.795L916.094 287.22L916.944 288.638L916.377 289.632L915.385 289.063L914.107 287.787L913.54 286.51L912.688 286.652L912.263 287.504L912.546 288.78L911.837 291.051L912.546 291.76L914.107 291.051L914.959 291.334L915.525 292.753L914.816 294.313L913.54 294.029L912.831 294.455L912.546 293.745L910.986 293.604L910.703 292.895H909.852L910.135 293.462L909.142 294.597L911.412 295.873L911.837 296.725L911.27 298.286L910.135 298.569L910.844 299.278L912.688 299.137L914.107 299.562H915.525L915.81 302.257L914.249 303.818L914.674 305.379L917.228 305.662L916.803 306.372L915.385 311.054L913.54 311.337L912.688 311.054L912.121 309.492L910.703 309.776V310.911L909.852 312.756L908.007 311.054L906.73 312.188L906.446 314.458L907.581 316.586L908.716 317.863H910.844L911.27 318.715L909.284 319.424L907.724 320.274L907.864 321.126L908.433 321.693L910.844 321.977L911.27 322.686L910.418 324.104L909.567 324.53L909.426 325.239L909.993 325.808L910.135 326.942L907.155 330.063L906.446 331.908L905.879 332.049L905.027 334.603L904.034 335.312L902.475 337.299L900.63 337.44L899.778 338.008L899.495 338.718L900.204 339.284L901.48 342.122V343.683L902.758 345.242L903.894 347.513L903.468 348.081L904.318 349.783L905.453 349.924L906.73 351.627L906.305 353.188L906.446 354.039L907.439 356.309L908.149 356.45L907.581 357.159L904.744 357.728L904.46 358.861L903.184 359.287L903.468 360.989L902.616 362.125L900.63 360.849L899.778 362.125L900.346 362.834L901.906 363.402L902.049 364.111L901.197 365.104L901.34 366.239L900.488 366.948L899.212 366.522L898.502 366.807L898.218 367.658L898.927 369.219L898.644 369.786H897.225L897.084 370.212L897.509 371.914L898.786 372.48L897.935 374.042L897.225 374.751V375.744L898.502 377.021L897.084 377.447L896.799 378.014L897.935 379.858L897.793 380.426L896.516 381.277L895.381 380.567H893.536L893.253 382.128L891.267 382.27L891.125 384.682L891.977 385.107L893.536 384.823L894.104 385.249L892.827 387.235L892.117 387.803L892.402 388.796L891.125 391.207L891.267 392.059L892.117 392.909L892.969 394.328L892.402 395.747L893.395 396.031L893.82 396.599L893.679 398.301L892.827 399.861L893.253 401.563H894.104L894.813 403.266L895.807 402.841L896.799 403.124L897.509 404.117L897.084 405.395L896.09 406.104L895.097 405.962L894.388 406.954L893.253 407.238L893.82 408.941H894.388L894.53 407.664L896.232 406.671L896.374 407.947L896.09 410.501L897.367 411.211L896.799 412.914L895.807 413.339L895.239 414.332L895.807 415.183L895.097 415.751L895.948 416.176V416.885L897.935 417.879L898.786 416.744L899.353 417.17L898.927 418.729L899.353 418.872L900.346 418.162L900.204 417.17L899.637 416.46H900.346L901.48 417.311L901.623 418.305L901.055 419.438L903.608 420.857L903.042 422.135L901.34 423.128L901.623 423.979H902.475L902.19 424.83L900.914 426.107L902.475 426.674L902.19 427.667L901.34 427.81L900.204 427.525L900.062 428.376L901.48 429.228L902.19 431.498L903.325 432.491L904.46 432.917L905.453 434.335L905.596 435.186L904.034 435.328L904.318 437.173L905.736 437.313L906.73 438.165V439.301L907.155 440.01L908.858 440.152L909.567 441.003L908.575 441.57L907.439 442.847L906.162 443.414L906.021 443.84L907.298 445.117L908.007 446.677L907.724 447.245L906.872 446.677L905.736 447.245L905.312 447.954L905.17 450.366L906.162 450.649L906.446 451.643V452.777L904.886 454.196L905.879 455.614L906.021 456.608L905.453 457.176L906.162 457.459L906.73 459.445L906.305 459.87L905.596 459.587L904.886 460.155L906.588 461.006L906.73 461.715L904.744 463.843L905.17 465.12L906.872 464.552L908.007 465.12L906.872 466.822L905.312 466.965L905.027 467.957L904.177 467.815L904.46 467.105L903.751 466.822L903.894 467.815L903.468 468.383L901.48 470.085V472.071L901.906 473.489L901.766 473.915L900.771 473.489L898.927 473.915L897.793 474.625L896.941 474.341L895.807 475.051L896.374 478.881L896.799 479.59L896.232 480.584L896.658 481.435L895.665 482.002L895.522 483.562L894.956 484.414L895.097 485.549L894.53 486.684L895.807 487.394L894.813 489.662L895.097 490.372L895.807 489.662L896.941 490.514L896.232 491.933L896.658 492.642L898.927 493.067L898.076 493.777L898.502 494.77L899.069 493.918L899.921 494.77L898.786 495.905L898.218 497.323H899.353L900.346 495.905H901.055L900.062 498.033L898.076 498.742L898.502 500.444L899.212 501.153L899.069 502.005L901.623 502.431V502.998L900.062 503.85L899.921 505.269L900.63 505.409L903.894 506.971L903.608 508.531L904.034 510.942L906.872 509.95L908.433 511.652L909.284 511.794L909.426 510.942L910.561 512.078L909.142 512.787L907.581 513.354L907.864 514.347L909 515.624L908.858 516.76L909.426 516.617L909.852 517.326L909.142 517.752L908.149 517.469L907.439 516.76L907.298 517.469L908.575 518.462L908.29 518.745L907.155 517.894L906.446 518.319L907.155 519.597L906.021 520.731L906.162 521.725L905.453 522.15L904.886 520.731H904.177L904.318 523.144L903.468 523.71H902.475L902.049 524.278L902.475 524.987L903.894 525.838L905.453 525.271L905.736 525.98L904.603 526.689L903.894 527.825L905.17 528.676L906.305 528.534V528.96L905.027 530.094L906.73 529.385L908.29 530.236L908.433 531.088L907.581 531.371L906.588 530.945L906.446 532.081L909.993 533.216L909.709 534.066L908.858 534.351L907.439 534.066L907.581 535.201L908.858 535.77L908.575 536.337L909.142 538.039L908.29 538.606L908.433 539.174L909.993 538.748V539.741L908.575 540.451V543.43L907.298 543.146L907.581 543.855L909.142 544.139L908.716 545.841L909.709 547.26L909.852 548.111L907.864 549.104H906.162V550.239L905.736 551.091L904.46 551.658L905.453 551.941L906.305 552.793L905.736 553.36L904.46 552.65L903.751 554.069L905.596 554.354L904.886 555.914L905.596 556.198L906.305 555.63L907.014 555.772L906.872 556.623L905.879 557.617L906.446 558.609L906.162 560.454V562.156L907.298 563.008L908.29 564.427L908.858 565.986L911.554 568.397L910.844 570.242L911.412 572.796L910.703 573.932L910.135 575.918L908.858 577.903L910.135 581.876L910.986 583.011L911.837 585.139L913.397 585.706L914.249 586.558L914.107 588.117L912.688 589.253L912.405 590.246L913.682 590.671L914.674 590.53L915.668 591.239L916.094 592.941L915.525 594.218L915.668 595.212V596.771L913.965 597.34L912.546 595.921L910.986 596.346L910.418 595.921L909.426 596.488L909.142 596.204L907.298 596.346L906.588 595.495L904.744 595.353L903.751 595.637L902.899 595.069L901.197 595.495L900.346 594.644H898.786L897.084 593.367L896.09 593.225L895.665 593.935L894.671 593.793L892.543 594.644L891.834 594.36L890.132 593.084L887.861 592.658L887.011 593.084H885.733L884.883 591.381L883.605 591.522L882.329 593.225L881.903 595.637L882.046 596.63L881.62 597.906L879.917 599.325L879.492 601.879L878.498 602.588L877.08 605.852L877.222 606.703L876.513 607.27L875.378 609.256L875.52 610.107L874.242 611.668L872.683 612.944V614.079L871.831 615.215V615.924L870.979 616.491L870.129 619.045L869.703 621.882L867.858 626.706L866.156 628.408L865.021 630.394L863.745 631.245L862.184 634.082L859.63 635.218H858.495L856.367 636.494L854.522 638.48L851.544 639.331L850.551 639.757L850.409 641.034L849.132 642.027L848.849 642.879L849.132 644.155L849.558 644.581L848.99 645.432L847.855 645.573L847.288 646.992L847.43 647.985L847.004 648.411L847.43 649.829L846.295 651.106V652.667L847.004 653.234L846.579 654.369L847.004 655.504L847.998 655.93L847.146 656.781L847.004 657.774L847.572 659.192L847.146 662.739L847.713 664.584L845.87 665.436L845.159 667.421L843.741 668.981L843.883 669.975L844.876 670.542L844.309 671.251L844.593 672.954L843.457 672.812L842.606 673.379L842.748 675.082L841.472 675.365L842.039 676.784L840.763 677.777L841.472 678.77L840.763 678.629L839.911 679.621L840.62 680.897L839.77 681.892L839.344 683.451L837.925 683.311L837.073 684.161L837.216 685.153L835.513 685.438L835.655 686.998L835.371 687.424L836.081 688.417L835.513 688.984V689.978L836.507 690.687L835.938 691.254L836.081 693.099L838.209 694.942L836.364 695.085L833.953 697.639L833.243 698.915L831.966 698.206L831.115 698.348L830.548 699.198L830.123 700.901L828.987 700.617L827.994 703.454L827.144 703.597L826.008 705.725L827.001 706.859L827.144 707.711L828.42 708.704L828.562 709.839L827.144 710.549L825.582 710.123L824.59 711.115L823.88 713.103L823.738 714.805L824.447 715.939L823.597 716.507L823.313 719.344L823.738 720.763L823.028 723.174L823.313 723.884L822.888 725.302L824.306 726.153L824.022 727.005L825.016 729.417L826.292 730.978L827.144 733.53L827.001 734.099L828.42 737.503L827.853 739.206L827.144 740.624L824.59 742.752L825.016 744.028L823.313 745.873L823.454 746.866L822.178 746.016L821.185 747.149L821.043 748.569L821.326 749.703L820.334 748.853L818.915 749.42L817.78 750.697L817.638 751.406L818.206 751.689L818.489 752.825L817.922 753.108V754.243L819.198 755.804L817.354 756.229L816.645 756.655L816.504 758.216L817.354 759.492L816.645 759.918L816.929 760.769L818.063 761.478L817.638 762.329L819.057 763.465V764.457L816.645 765.167L815.51 767.578L815.793 768.43L815.368 769.564L816.078 770.841L815.51 771.835L816.219 773.254L815.652 773.537L814.376 776.516L815.936 778.928L816.219 780.488L815.936 782.049L816.645 782.616L815.936 782.758L815.084 783.609L815.652 785.454L814.942 786.021L814.517 788.007L814.942 790.561L816.219 791.412L815.51 792.405L812.956 793.397L813.24 794.392L811.112 795.951L808.559 798.079L806.146 801.059L803.735 803.471L797.918 807.727L795.933 809.57L791.96 812.124L788.556 814.536L785.576 817.373L780.611 821.062L777.064 823.899L770.113 829.29L768.411 830.851L760.75 836.383L757.061 838.796L755.784 839.93L751.954 843.052L749.542 844.754L747.131 848.159L745.429 849.861L743.867 850.854L741.882 851.421L738.761 853.549L733.653 857.806L729.965 861.636L727.128 864.048L725.283 865.324L724.148 866.317L721.879 868.871L719.751 870.857L713.792 875.964L710.104 879.653L708.969 880.22L705.989 881.072H699.322L694.781 881.639L691.944 882.348L689.249 883.341L685.703 884.192L683.007 884.618L680.312 885.469L676.766 886.746L674.921 887.03L671.374 887.456L665.558 887.739L659.457 889.441L657.755 890.15L653.924 891.712L650.236 893.697L647.824 893.981L642.575 893.697L640.305 893.13L637.326 892.847L629.382 893.13L627.537 893.272L619.593 892.988L615.62 892.563L611.507 891.853L607.393 891.712L600.725 891.853H592.923L589.233 891.428H579.587L574.905 891.712L570.79 891.853L568.662 892.138L565.116 892.847L561.569 893.697L560.435 894.123L556.462 895.116L553.909 895.968H553.767L550.646 896.819L546.531 897.67L542.134 898.237L536.885 898.662L536.602 897.386L532.062 897.812L528.09 900.365L524.685 900.224L523.123 902.919L519.293 903.629H518.867L517.165 902.777L514.896 902.352L513.761 901.075L511.917 899.656L509.789 897.67L509.079 897.386V894.832L508.653 893.556L507.802 892.704L502.837 889.016L498.298 884.618L495.886 881.213L495.318 878.659L494.325 874.829L493.899 873.553L491.346 869.296L490.637 866.885L490.353 864.898L490.495 863.055L491.914 857.947L493.474 853.691L496.027 847.591L498.298 843.478L499.148 840.355L500 837.944L502.554 832.979L502.837 832.837L505.674 829.858L507.661 827.588L509.505 824.467L515.889 816.664L518.017 813.401L520.429 808.436L521.563 806.308L522.414 804.18L525.677 797.37L526.387 795.101L528.799 787.439L529.792 783.468L530.075 779.921L529.366 776.516L528.656 773.395L527.805 770.558L527.664 769.707L528.373 767.578L528.656 766.159L528.515 761.763V758.641L528.09 751.548L528.373 749.562L528.94 747.575L529.508 745.306V741.617L530.644 739.063L531.068 734.95L531.21 732.821L531.777 727.715L532.346 726.721L533.622 722.323L534.899 718.209L535.183 717.358L537.878 714.379L540.432 711.542L540.715 710.974L542.985 708.278L545.113 705.441L549.652 700.192L551.213 697.922L554.051 692.814L557.597 687.424L562.847 680.331L564.69 679.055L564.549 678.77L566.108 677.493L568.379 675.082L570.933 673.663L572.209 673.379L576.607 671.819L577.742 671.109L580.154 670.4L581.998 669.975L584.126 668.981L585.545 667.847L588.524 665.86L590.227 665.15L593.489 662.739L602.427 656.355L605.548 653.944L607.251 652.383L608.385 651.531L610.938 650.113L618.6 646.709L618.316 644.155L619.31 642.168L622.855 639.757L623.707 639.048L625.693 636.353L627.537 633.373L631.936 628.691L633.354 628.408L636.049 629.26L638.745 629.543L639.738 629.117L641.015 627.698L641.299 624.436L641.582 623.727L644.42 618.478L645.555 617.059L647.54 615.355L649.811 614.222L650.804 614.789L650.661 617.483L652.081 618.478L653.783 618.194L655.06 616.917L656.903 614.646L658.322 613.228L659.883 612.519L661.159 612.235L661.869 611.668L664.423 606.844L665.7 606.418L666.551 606.844L668.111 608.688L670.807 608.972H674.921L676.623 607.979L678.894 607.837L680.17 606.703L680.596 605.852L682.156 604.433L684.993 605.567L685.986 605.426L686.979 604.716L687.831 602.872L688.54 602.446L689.249 602.872L689.959 604.575L691.235 605.142H692.513L693.931 603.864L694.924 603.724L695.917 603.864L696.909 604.575L697.761 606.135L698.896 608.831L699.605 611.525L700.882 613.228L702.301 614.363L703.436 614.646L704.57 614.363L705.563 613.087L706.698 608.831L708.117 606.703H705.847L705.422 605.426L706.132 604.716L706.415 602.446L705.989 602.021L706.272 598.758L706.557 597.48L707.408 597.34L708.26 597.766L708.686 594.218L708.26 592.941L708.543 591.097L709.536 587.125L709.395 585.989H708.117L706.698 582.869V581.167L707.975 580.174L707.408 579.322V578.046L707.975 577.478L707.691 575.492L707.834 574.357L707.55 572.087L706.132 569.676L705.706 568.54H706.557L705.847 567.688L705.706 565.42L703.861 563.718L701.591 562.156L699.18 561.873H696.909L693.931 559.886L689.107 558.609H688.114L683.007 558.894L680.596 559.177L679.46 559.603L676.906 560.028L673.219 559.745L668.395 558.894L665.983 559.177L663.571 557.9L660.733 557.617L658.891 557.332L657.471 556.481L655.06 556.056L650.945 554.495L647.824 552.367L644.846 549.53L643.284 548.254L640.873 547.118L639.738 546.835L637.61 547.118L635.057 548.254L633.212 548.395L631.367 547.402L630.375 545.558L629.808 541.444L628.247 541.728L627.111 541.16L625.268 539.6L623.424 536.763L622.146 534.351L620.728 530.662L619.025 528.534L617.465 527.115L614.061 525.555L610.798 524.42L608.385 523.994L605.265 523.853L602.995 523.994L601.86 524.278L599.873 525.271L594.482 528.817L590.085 534.351L587.815 536.62L586.113 538.748L584.269 540.734L581.432 542.862L578.878 543.855L575.331 544.707L571.358 544.281L563.13 543.43L558.874 543.288L554.902 542.862L551.497 542.011L551.071 541.585V538.891L551.497 538.039L557.597 533.216L560.15 531.229L561.286 528.108L561.995 526.974L564.123 525.98L564.69 525.838L566.677 525.129L569.939 524.562L572.777 524.278L575.614 523.853L582.708 524.278L584.126 524.136L585.119 523.71L586.254 522.292L586.68 520.873L587.39 517.894L588.524 513.638L588.667 509.382L589.092 508.956L589.659 502.289L588.95 500.728L589.659 496.188L589.233 494.486V493.493L589.518 489.379V486.825L588.95 483.988L587.531 479.59L586.822 477.462L584.552 474.483L582.991 473.206L581.147 472.78L578.026 472.639L573.771 471.787L571.075 470.228L568.237 467.39L567.103 466.113L566.534 464.127L566.819 462.85L570.649 459.587L568.805 457.176L568.379 455.614L565.684 454.764L564.549 453.912L561.712 450.649L561.853 450.224L559.016 446.677L557.739 441.712H557.313L556.888 439.584L558.307 439.441L561.428 438.023L561.853 436.037L562.704 431.781L563.13 430.363L564.406 423.694L564.69 420.007L564.549 414.332L564.832 407.522V404.826L566.534 403.975L568.379 401.706L567.953 398.017L567.244 390.356L566.677 386.951L565.399 381.277L564.832 379.433L564.69 379.149L564.123 376.17L561.002 367.232L559.584 362.551V362.409L557.03 352.903L556.462 351.343L554.618 352.052L554.051 351.201L554.902 348.932L555.753 347.655L556.604 344.392L556.462 343.54L557.739 342.548L559.441 341.98L558.874 340.42L560.86 339.001L561.002 337.582L560.719 335.738L559.867 334.177L558.165 332.617L558.022 329.354L556.462 326.942L555.895 324.673L556.179 321.409L557.881 318.43L557.171 316.444L557.313 315.167L558.307 315.025L559.158 312.614L556.746 307.79L553.767 307.364L552.064 307.507L549.085 304.953L549.511 303.393L550.93 300.98L550.787 300.129L548.943 297.435L546.674 295.873V294.455L544.403 292.469L542.701 292.61L542.843 289.349L541.141 289.063L539.722 287.646L538.162 276.863L539.438 274.878L540.006 274.452L540.147 272.75L541.424 270.479L543.694 269.061L546.531 268.777L548.519 269.345L549.795 269.061L551.213 267.217L553.058 267.075L554.618 265.94L555.611 264.521H557.313L557.597 264.238L558.307 263.953L559.584 261.259V260.123L561.428 257.995L563.84 256.15L564.549 255.158L568.379 251.753L571.926 246.504L571.642 245.937L572.352 244.943L572.92 244.659L574.054 243.1L575.898 244.376L576.607 244.659L577.742 243.95L577.601 243.1L577.742 239.837L577.176 237.992L580.013 233.453L580.154 233.311L580.013 228.912L581.432 225.792L582.991 224.656L583.56 222.245L584.269 220.968L581.289 214.727L579.87 214.158L579.161 212.173L578.452 211.747L577.601 210.471L575.757 209.902L574.479 210.045L574.054 210.471L572.777 210.328L571.216 209.902L570.79 209.335L571.216 208.058V207.774L572.352 203.944L573.486 200.823L573.629 199.972L572.92 199.83L574.479 193.162L574.763 187.346V185.076L574.905 178.551L575.188 169.754L575.331 166.634L577.885 164.647L580.438 165.215L580.722 165.498L582.141 165.357L582.424 163.37L582.708 162.661L582.991 160.391L586.396 161.102L587.957 160.959L589.376 161.242L590.795 160.676L591.504 159.114V157.412L590.795 154.575L591.787 152.872L592.354 152.589L593.063 151.312L593.632 151.596L595.191 151.17L595.901 150.177L597.036 147.623L596.895 147.057L597.462 145.495L595.901 138.402L594.341 137.834L591.361 137.551L591.22 137.409L590.369 135.423L590.795 134.288L592.071 132.443L593.063 130.315L593.489 128.756L594.625 128.33L595.051 127.337L595.334 126.911L595.901 125.351V123.932L596.186 123.223L599.022 118.683L599.307 115.562L599.447 115.277L599.732 112.157L599.164 111.731L598.738 108.894L599.307 107.617L600.866 106.766L601.009 105.489L600.725 104.212L601.009 102.084L602.001 100.808L602.711 98.9629L602.853 97.6855V97.5449L603.137 95.1328L604.129 91.7275L605.832 90.0254L606.399 88.749L606.257 84.3516L606.399 84.0674L606.967 82.9326L608.385 81.7979L610.088 81.2305L611.224 79.3857L610.514 77.9668L610.938 76.832L612.357 74.8457L613.209 74.4209L614.911 72.5762L615.054 72.293L616.472 70.7324L617.323 70.1641L618.884 69.5967L620.586 67.3271L621.438 66.6182L622.146 65.1992L623.14 64.2061L627.254 62.7871L628.956 62.6455L631.084 63.3545L632.219 64.7734L633.638 64.3477L635.908 62.6455L636.475 61.6523L639.738 60.6592L641.44 59.9502L643.994 58.248L644.42 57.5381L647.399 55.127L653.073 51.2959L651.655 50.4453L652.364 49.168H656.052L662.437 44.9121L662.861 44.3447L665.841 43.4941L668.111 39.9473L668.253 39.8057L670.522 38.2441L671.941 37.1094L673.219 35.6914L676.34 32.9951L676.766 30.584L678.751 28.1719H679.886L682.014 29.0234L682.724 28.7393L682.865 28.4561L684 27.0371V26.8955L688.114 21.7881L688.966 19.9443L691.944 17.1064L693.505 15.9717L696.484 14.8369L698.187 13.8438L700.173 13.2764L700.882 11.999V10.7227L702.301 9.87109L706.132 7.60156L706.557 7.88574ZM718.474 565.561L716.487 566.838L715.495 566.129L714.218 567.405L715.636 568.824L716.204 570.242L716.346 572.229L718.332 572.37L718.615 572.938L720.318 574.073L719.041 574.357V575.209L720.176 575.918L719.893 576.769L720.885 577.052H722.871V575.492L721.169 574.357L720.602 573.647L720.743 571.945L721.596 570.952L721.879 569.959L721.027 569.25L721.879 567.122V565.277L721.169 564.71L719.466 564.568L718.474 565.561Z" fill="white"/>
<circle cx="708" cy="569" fill="#5CE50D"/>
<circle cx="838" cy="397" fill="#E52A0D"/>
<circle cx="123" cy="904" fill="#E52A0D"/>
<circle cx="738" cy="167" fill="#E52A0D"/>
</svg>
