<svg width="1000" height="1000" viewBox="0 0 1000 1000" fill="none" xmlns="http://www.w3.org/2000/svg">
<path d="M794.351 163.481L794.354 164.127L793.882 164.387L793.45 164.221C793.196 163.887 792.933 163.553 792.62 163.273C792.889 162.691 792.684 161.95 792.7 161.33L792.913 160.986L793.173 161.284L793.31 162.148L793.57 162.19C793.896 161.978 794.37 160.833 794.505 160.419L794.334 160.028C792.24 160.295 791.195 158.933 789.282 160.565L789.07 160.997C787.936 159.878 786.231 158.388 785.423 156.998L784.647 157.95L784.393 157.992C783.653 157.589 781.233 155.77 781.186 154.852C782.817 155.032 785.219 155.71 786.721 156.389C786.87 156.838 787.37 157.591 787.846 157.763C788.115 157.807 792.402 156.541 792.549 156.368C792.632 156.146 792.658 155.872 792.632 155.638L793.018 155.248C793.545 155.576 794.027 156.103 794.36 156.623C794.488 157.357 794.435 158.183 794.76 158.867C797.068 159.619 795.38 162.503 794.351 163.481Z" fill="white"/>
<path d="M832.603 17.4609L833.05 18.0081C833.265 18.7972 833.288 21.9289 832.294 22.2943L832.034 22.216L831.971 21.5285L832.514 20.5651L831.888 18.2996L832.174 17.6435L832.603 17.4609Z" fill="white"/>
<path d="M831.072 23.4039L831.493 23.0078L831.925 23.0392L832.205 23.8933L831.429 25.6377L830.864 25.4819C830.762 24.7785 830.893 24.0809 831.072 23.4039Z" fill="white"/>
<path d="M796.011 117.842C796.813 117.783 797.632 117.779 798.434 117.833L799.298 117.186C800.528 113.461 798.397 113.064 798.886 110.333L799.318 109.854C799.857 109.686 801.247 109.488 801.569 108.989L801.953 108.943L802.219 109.417C803.264 108.62 806.024 106.71 806.621 105.74C807.679 105.078 809.859 106.625 810.99 106.713C812.67 106.845 813.977 104.977 815.046 103.901C816.349 102.592 817.402 100.882 818.105 99.11C818.006 98.5403 817.474 97.8195 817.624 97.2979L817.152 96.9956C816.964 96.1089 817.441 95.3842 817.318 94.496C816.893 94.2565 814.348 89.8556 814.36 89.3347C813.806 88.8185 813.309 88.3512 812.798 87.7885C812.95 86.4112 813.633 85.7632 814.78 85.106C815.361 85.0702 816.006 85.2586 816.545 85.4447C816.786 85.6942 818.71 88.8162 818.729 89.1061C819.066 89.2797 819.387 89.5076 819.681 89.7463L819.77 90.6524C817.931 94.6115 819.484 93.7279 819.655 96.9018C819.684 97.4327 819.311 98.1125 819.358 98.7612C819.563 101.61 820.402 104.101 819.901 106.989C819.674 108.303 819.55 109.817 819.218 111.088C819.022 111.838 818.29 112.438 818.054 113.378C817.979 113.677 817.872 114.054 817.885 114.369C817.951 116.066 818.63 117.735 818.766 119.411L818.551 119.932L817.99 120.061L817.296 121.009C816.765 120.945 816.241 121.125 815.656 121.014L815.224 121.274L814.489 122.655C814.994 125.649 818.953 127.288 818.145 130.534C816.703 131.942 813.837 132.771 812.833 134.133C813.315 139.781 813.419 137.794 809.829 141.382C809.582 143.188 810.783 146.468 808.891 147.553L808.807 148.631C810.571 151.374 810.324 151.504 810.338 154.49L809.734 154.969L809.434 155.787C809.08 156.081 807.933 156.648 807.492 156.266C807.704 155.26 806.593 154.313 807.137 153.292L806.656 152.735C806.286 152.597 805.731 152.554 805.366 152.74C804.536 153.795 804.247 154.698 803.601 155.761L802.474 156.198C801.497 156.444 801.347 156.628 800.617 156.636L800.136 156.162L799.402 155.99L799.19 156.339C799.518 156.912 799.846 157.325 800.32 157.756C800.426 158.052 800.491 158.388 800.497 158.704L800.969 159.219L801.401 159.349L801.664 159.865L801.578 160.338L800.929 160.041C800.365 160.077 799.863 160.364 799.419 160.692C799.519 160.194 799.383 159.334 799.064 158.922L798.678 158.667L798.849 158.323C797.539 157.429 794.686 154.525 794.767 152.813C794.801 152.082 795.028 151.257 794.932 150.527C794.717 148.874 793.988 146.648 793.491 145.012C793.292 144.664 790.082 142.833 789.122 141.835C789.029 141.445 788.954 141.034 788.94 140.632L787.815 139.299L786.903 139.257L786.431 138.825L786.553 138.268C787.758 137.68 787.434 135.998 787.627 134.986L788.236 135.028L789.014 134.638L789.137 132.825L789.48 132.477C789.638 131.826 789.305 131.159 789.346 130.498L789.821 129.935C790.477 129.952 791.344 129.679 791.892 129.326C791.972 129.048 792.064 128.762 792.195 128.503L793.794 128.586L793.8 130.695L794.277 131.299L795.402 131.466C796.057 130.716 796.378 129.894 797.215 129.263L797.299 128.872L796.778 128.232C795.755 128.02 792.611 127.883 792.189 126.863C791.899 125.633 792.909 124.479 792.701 123.243L792.956 122.941C793.843 122.779 794.779 122.546 795.685 122.628L796.24 122.066C795.848 121.729 795.596 120.954 795.502 120.472C795.913 119.754 795.765 118.676 796.011 117.842Z" fill="white"/>
<path d="M776.403 166.305C776.922 166.638 777.301 167.277 777.436 167.872L777.044 168.09L776.655 167.966C776.438 167.416 775.847 167.279 775.702 166.757L775.354 166.715L775.654 166.455C775.853 166.466 776.254 166.479 776.403 166.305Z" fill="white"/>
<path d="M751.4 167.555L752.359 167.965C752.68 168.311 752.87 169.029 752.537 169.429L752.187 169.648L751.804 169.429C751.61 168.931 751.221 168.427 751.194 167.883L751.4 167.555Z" fill="white"/>
<path d="M757.468 170.743L756.604 170.962C756.027 170.753 755.216 170.465 754.616 170.754L754.401 171.103C754.028 171.067 753.6 170.959 753.277 170.759C753.105 170.505 753.009 170.357 752.928 170.072C753.945 169.557 757.079 169.37 757.468 170.743Z" fill="white"/>
<path d="M761.37 170.266C762.12 170.982 762.602 172.017 762.62 173.057L762.36 173.104C761.965 172.702 760.79 170.635 761.37 170.266Z" fill="white"/>
<path d="M772.05 170.07C772.465 170.829 772.37 171.604 772.301 172.424C771.961 172.375 771.52 172.426 771.217 172.601C771.546 173.784 772.027 174.252 771.096 175.361L770.281 175.45L770.316 174.414C770.012 173.984 769.755 173.43 769.666 172.909L769.795 172.648C769.7 172.187 769.605 171.713 769.446 171.268C770.455 171.152 770.974 170.844 771.643 170.143L772.05 170.07Z" fill="white"/>
<path d="M779.555 159.541C777.555 163.588 784.389 162.558 783.564 166.52C783.131 166.581 782.145 166.649 781.747 166.395L781.232 166.525C781.305 169.813 780.756 169.354 782.331 172.129L782.934 172.342L783.409 171.78L783.887 172.212C783.97 172.97 783.42 173.704 783.461 174.54L782.857 175.019L782.637 174.545C781.28 174.068 780.554 173.405 780.382 171.879L779.347 171.149L778.523 171.239L778.394 171.624L778.872 172.056L778.783 172.317C775.738 173.989 777.473 174.261 776.028 176.378L774.998 176.941C774.898 177.216 774.74 177.635 774.478 177.806L773.613 177.508L772.919 177.852C772.841 179.305 770.771 179.501 770.727 181.269L770.378 181.529C770.249 181.161 770.192 180.75 770.163 180.363C769.786 180.369 769.245 180.369 768.911 180.587C768.389 179.532 767.278 177.521 766.431 176.67C764.979 176.901 764.311 175.22 763.44 174.389C765.201 174.609 766.608 175.96 767.992 177.05C768.12 177.476 768.313 177.953 768.602 178.3C768.976 178.48 769.436 178.587 769.852 178.597L770.456 178.295C771.076 176.063 773.904 176.057 774.946 174.223C774.934 173.205 775.135 171.89 775.76 171.072C776.457 170.935 777.486 169.919 777.476 169.171L777.996 169.041C778.237 169.309 778.409 169.758 778.389 170.119L778.648 170.243L779.164 170.072L779.384 169.723L779.206 168.947L779.555 168.514C779.818 168.622 780.13 168.687 780.414 168.686L780.585 168.426C780.476 167.605 780.638 166.884 780.368 166.057L780.752 165.754L781.189 165.926L781.747 165.708C781.472 163.666 779.967 162.952 778.492 161.791C778.216 161.183 778.034 160.305 778.103 159.635L778.834 159.031L779.555 159.541Z" fill="white"/>
<path d="M768.259 194.952C767.074 195.461 765.318 196.103 764.025 195.655C763.116 194.169 762.791 193.567 763.239 191.817C763.21 191.55 763.012 191.247 762.801 191.088L762.972 190.265L763.839 189.963L765.004 190.302C764.939 190.961 764.884 191.549 764.92 192.202L765.441 192.286C765.654 192.491 765.813 192.818 765.878 193.104C768.687 192.646 767.607 191.744 768.336 190.984C768.523 191.228 768.842 191.413 769.114 191.541C769.276 190.651 769.152 188.07 769.406 187.531L769.755 187.484C769.831 188.786 770.572 189.748 770.627 190.974C770.682 192.18 769.573 192.963 769.52 194.238L769.516 194.343C769.854 195.024 770.436 195.878 770.514 196.624C770.501 196.736 770.353 196.946 770.213 196.884C769.892 196.115 768.934 195.429 768.259 194.952Z" fill="white"/>
<path d="M747.887 217.792C746.77 218.318 745.788 218.433 744.778 219.229L744.735 220.135C745.387 220.197 746.534 219.41 747.027 218.958L747.37 218.917C747.45 219.157 747.682 219.388 747.891 219.521L748.325 219.385L748.585 219.474L748.886 220.078L749.407 220.421L749.455 220.807L749.106 221.369C748.543 221.377 747.844 220.861 747.424 220.99C746.316 222.695 745.532 222.983 744.188 224.275L743.542 224.192C743.194 224.299 742.842 224.544 742.589 224.801L742.506 225.234L742.767 225.708L743.11 225.749L743.287 226.135L743.027 226.525L742.641 226.182H742.252L742.169 226.916L741.688 227.218L741.433 227.046C741.556 225.539 740.789 223.365 740.987 221.786C741.347 218.915 743.771 219.066 745.164 217.198C745.872 216.249 746.105 214.987 746.791 214.089C747.202 213.888 748.75 213.152 749.166 213.172C749.54 213.662 748.215 217.132 747.887 217.792Z" fill="white"/>
<path d="M720.956 242.389L721.388 242.259C721.612 242.076 721.803 241.761 721.863 241.479L722.421 241.431C722.517 241.036 722.645 240.639 722.805 240.265C722.498 239.264 721.722 237.641 722.321 236.687C723.398 236.687 724.784 236.607 725.825 236.969C726.218 237.507 726.638 238.023 727.076 238.526C727.641 240.131 724.83 242.263 723.9 243.369C723.082 243.552 721.559 243.831 720.79 243.598L720.653 242.994L720.956 242.389Z" fill="white"/>
<path d="M316.276 659.889L316.926 660.336L317.002 661.113C316.829 661.446 316.311 661.752 315.947 661.8C315.633 661.824 315.169 661.438 314.975 661.232C314.95 660.897 314.984 660.538 315.06 660.211C315.4 660.019 315.877 659.848 316.276 659.889Z" fill="white"/>
<path d="M381.449 726.186L380.977 726.232C380.475 725.389 380.274 724.746 380.431 723.785C380.96 720.536 383.294 724.765 381.449 726.186Z" fill="white"/>
<path d="M167.58 970.688L167.814 970.88L167.946 971.407C167.88 971.669 167.302 971.972 167.085 972.078L166.862 971.948L166.83 971.167L167.58 970.688Z" fill="white"/>
<path d="M745.6 189.156C745.6 189.156 746.989 192.133 748.179 190.545C749.37 188.958 745.6 189.156 745.6 189.156Z" fill="white"/>
<path d="M754.33 198.68C752.743 198.878 752.941 202.45 754.529 202.251C756.116 202.053 755.918 198.481 754.33 198.68Z" fill="white"/>
<path d="M763.259 200.462C762.862 201.256 765.442 203.438 766.434 202.049C767.426 200.66 763.656 199.668 763.259 200.462Z" fill="white"/>
<path d="M363.413 538.219L363.963 538.989C364.548 539.025 365.329 539.322 365.778 539.704C365.973 540.304 365.973 541.193 365.778 541.794L365.063 542.454C364.422 542.583 363.668 542.606 363.028 542.454C362.013 541.673 361.483 540.249 361.652 538.989C362.201 538.975 363.038 538.626 363.413 538.219Z" fill="white"/>
<path d="M366.222 532.023C365.031 532.023 364.238 534.404 366.023 534.404C367.809 534.404 367.412 532.023 366.222 532.023Z" fill="white"/>
<path d="M285.862 982.438C287.846 983.231 289.434 978.866 287.449 978.073C285.465 977.279 283.878 981.644 285.862 982.438Z" fill="white"/>
</svg>
