<svg width="1000" height="1000" viewBox="0 0 1000 1000" fill="none" xmlns="http://www.w3.org/2000/svg">
<path d="M292.194 9.9991L260.944 19.6671L198.933 31.3858C164.851 37.8311 134.675 43.5928 131.941 44.0811L126.96 45.1553L118.855 67.8116C114.362 80.3116 109.968 92.0303 108.991 93.8858C108.015 95.7413 98.9328 110.585 88.7765 126.894L70.2218 156.386L71.1984 218.398L64.7531 242.519C61.2374 255.8 53.0343 287.05 46.4913 311.855C32.4288 365.859 32.6242 364.101 41.3156 371.913C44.5382 374.745 47.9562 377.089 49.0304 377.089C50.1046 377.089 53.9132 379.433 57.4288 382.362C62.1163 386.073 65.1437 387.734 68.0734 388.222C70.7101 388.612 73.6398 390.077 75.7882 391.933C79.1085 394.862 79.3039 395.351 79.0109 400.136C78.6203 405.116 78.7179 405.214 81.6476 405.898C84.2843 406.484 84.6749 406.972 84.6749 409.706C84.6749 411.855 85.4562 413.612 87.214 415.273C88.6788 416.542 90.632 419.569 91.6085 421.816C92.6828 424.159 95.4171 428.359 97.7609 431.093C102.644 436.855 104.792 440.859 106.745 447.401C108.308 452.675 114.558 459.12 118.073 459.12C119.148 459.12 122.37 460.78 125.105 462.929C127.839 464.98 131.257 467.421 132.624 468.3C134.382 469.472 135.359 471.132 135.847 473.671C136.335 476.894 137.116 477.87 140.73 480.019C143.171 481.386 146.101 482.558 147.468 482.558C150.105 482.558 153.425 485.683 154.89 489.589C155.573 491.444 156.648 492.323 158.112 492.323C159.48 492.323 161.53 493.691 163.288 495.644C165.241 497.89 169.441 500.429 175.495 503.066C180.573 505.312 186.14 508.437 187.898 509.901C189.558 511.464 193.952 514.198 197.663 516.151C206.843 521.034 207.331 521.523 208.112 526.405C208.503 529.335 210.163 532.46 213.093 536.171C215.534 539.296 217.487 542.421 217.487 543.3C217.487 545.839 220.905 547.987 225.007 547.987C227.155 547.987 231.452 548.866 234.577 549.941C237.702 551.015 241.413 551.894 242.78 551.894C244.148 551.894 249.421 552.87 254.402 554.042C262.409 555.995 263.679 556.581 265.339 559.218C266.413 560.878 269.148 563.612 271.589 565.37C275.593 568.202 276.569 568.495 283.601 568.495C289.655 568.495 291.706 568.886 293.659 570.448C295.71 572.109 297.663 572.401 306.355 572.401C312.702 572.401 318.464 571.816 321.491 570.937L326.276 569.472L337.605 576.991C343.757 581.093 356.941 589.687 366.804 596.132C377.644 603.066 389.069 611.366 395.319 616.933C401.179 622.011 406.257 626.112 406.843 626.112C407.331 626.112 408.405 626.894 409.089 627.773C410.554 629.726 414.167 631.972 415.827 631.972C416.511 631.972 418.952 633.534 421.296 635.487C423.64 637.441 427.155 639.394 429.206 639.98C431.159 640.468 433.698 641.737 434.773 642.616C435.847 643.593 439.753 646.034 443.464 648.085C447.273 650.136 453.718 654.14 457.917 657.069C463.777 660.976 466.511 662.245 469.148 662.245C471.198 662.245 473.542 663.026 474.616 664.003C476.277 665.566 483.698 667.03 497.859 668.691C502.155 669.276 502.644 669.569 508.405 677.48C511.823 681.972 515.241 685.683 516.023 685.683C516.902 685.683 519.538 684.12 521.882 682.167L526.277 678.554L531.257 683.534C534.089 686.171 537.8 689.101 539.558 689.98C541.218 690.859 542.683 692.226 542.683 693.007C542.683 694.081 543.757 694.472 546.394 694.472C548.445 694.472 550.495 694.862 550.984 695.351C551.57 695.839 554.89 696.425 558.503 696.62C565.046 697.011 565.144 697.011 571.784 703.261C577.155 708.241 578.62 710.292 578.718 712.538C578.816 714.394 580.476 717.519 583.405 721.327C585.945 724.55 588.972 728.944 590.046 731.093C591.316 733.437 593.562 735.78 595.71 736.952C599.812 739.198 600.202 741.054 598.054 750.234C596.784 755.605 591.902 761.855 589.07 761.855C588.386 761.855 587.116 762.734 586.14 763.808C585.163 764.882 583.503 765.761 582.527 765.761C581.55 765.761 579.597 766.542 578.23 767.421C575.984 768.788 575.788 769.569 576.277 772.694C576.765 776.015 576.57 776.405 572.956 778.847C569.441 781.191 569.148 781.581 570.124 783.73C571.882 787.538 570.515 790.566 566.609 792.03C564.655 792.714 563.288 793.788 563.484 794.374C565.339 798.769 565.339 798.964 563.777 798.964C561.53 798.964 559.675 802.87 561.335 803.944C562.116 804.433 563.288 804.823 563.972 804.823C566.413 804.823 565.046 808.534 561.335 811.464C559.187 813.222 557.136 814.589 556.843 814.589C556.55 814.589 554.695 816.151 552.741 818.007C550.788 819.96 548.054 821.718 546.687 822.011C540.437 823.378 538.777 824.55 538.777 827.48C538.777 829.042 538.191 830.507 537.312 830.8C536.14 831.288 536.14 831.679 537.409 833.632C539.558 836.855 538.288 839.003 534.187 839.003C531.062 839.003 530.769 839.198 531.452 841.151C532.624 845.253 531.843 850.234 529.499 853.749C526.569 857.948 526.472 859.901 529.109 861.757C531.062 863.222 531.062 863.222 529.206 864.589C528.132 865.273 526.862 867.519 526.277 869.569C525.3 872.987 525.398 873.28 528.23 875.429C531.062 877.675 531.062 877.87 529.89 881.776C528.816 885.39 528.327 885.878 525.886 885.878C523.152 885.878 523.152 885.878 523.152 892.323C523.152 898.183 522.859 899.062 520.319 901.405C518.757 902.87 516.413 904.53 514.948 905.214C512.019 906.484 511.726 908.827 514.069 911.464C515.534 913.124 515.534 913.222 513.679 913.222C512.605 913.222 510.944 914.101 509.968 915.175C509.089 916.151 506.648 917.519 504.694 918.202C500.398 919.569 497.663 922.694 498.347 925.526C499.226 928.847 496.296 933.339 492.976 934.023C490.339 934.609 489.851 935.194 489.362 938.612C488.777 942.03 488.386 942.519 486.042 942.519C480.183 942.519 477.937 950.917 482.624 955.019C484.48 956.679 485.066 958.046 485.066 961.366C485.066 963.71 485.261 965.859 485.554 966.151C485.847 966.444 488.874 965.859 492.097 964.882C496.394 963.515 500.593 963.026 506.55 963.124C512.605 963.319 516.218 962.831 519.538 961.562C522.566 960.39 525.105 960.097 527.253 960.585C529.011 960.976 535.554 961.659 541.706 962.05C571.003 964.198 580.28 966.054 586.335 970.741C589.167 972.987 596.101 975.234 603.718 976.308C606.355 976.698 609.87 977.773 611.53 978.749C613.484 980.019 616.316 980.605 620.515 980.605C625.398 980.605 627.839 981.288 633.601 984.023C638.679 986.464 642.097 987.441 645.32 987.441C650.398 987.441 657.624 984.609 660.359 981.581C661.628 980.214 663.386 979.628 666.511 979.628C670.515 979.628 671.296 980.019 676.081 984.999C679.011 987.929 682.038 990.37 682.917 990.37C683.796 990.37 686.14 989.003 688.191 987.441C691.706 984.706 692.39 984.511 700.788 984.511C708.308 984.511 709.675 984.804 709.675 986.073C709.675 989.784 717.585 998.769 721.589 999.648C725.105 1000.43 728.816 997.499 729.695 993.202C730.183 991.249 730.964 990.37 732.136 990.37C734.773 990.37 736.042 987.441 736.042 981.679C736.042 977.089 736.237 976.698 738.386 976.698C740.046 976.698 742.097 975.234 745.027 971.816C749.03 967.128 749.421 966.933 754.402 966.933C757.234 966.933 761.14 967.616 763.093 968.398C764.948 969.179 768.659 969.862 771.296 969.862C775.886 969.862 776.081 969.96 778.62 974.355C780.964 978.359 789.265 984.511 792.195 984.511C792.78 984.413 794.636 982.46 796.394 980.116C798.347 977.48 801.374 974.843 804.109 973.573C808.21 971.62 808.894 970.839 809.773 966.933C810.456 964.491 811.53 961.562 812.214 960.487C813.386 958.632 813.288 958.046 811.335 955.605C809.48 953.261 809.382 952.675 810.554 952.48C811.433 952.284 812.898 950.234 814.07 947.987C815.73 944.276 816.316 943.788 818.464 944.179C819.831 944.472 822.077 944.374 823.445 944.081C825.593 943.495 825.886 942.909 825.886 939.491C825.886 937.148 826.765 933.827 827.937 931.776C829.89 928.261 830.573 927.968 836.335 926.894C839.753 926.308 843.659 925.429 845.124 924.843C847.175 924.062 848.054 924.257 849.812 925.917C852.253 928.163 852.448 928.163 857.429 926.796C860.945 925.819 861.042 925.722 861.042 921.23C861.042 917.03 861.433 916.151 865.437 912.245C868.171 909.609 871.784 907.265 874.519 906.288C878.718 904.921 879.206 904.335 880.671 900.234C883.015 893.105 885.066 891.444 890.437 892.128C894.929 892.714 895.027 892.714 897.37 888.808C899.519 885.097 899.616 884.316 898.737 879.042L897.761 873.28L902.839 868.788C906.452 865.566 908.21 863.124 908.991 860.194C909.577 857.948 910.749 854.726 911.628 853.163C913.093 850.429 914.948 839.784 914.558 835.585C914.558 834.511 914.558 831.679 914.753 829.237C915.339 819.96 915.241 814.98 914.46 811.952C913.777 809.12 913.874 808.73 915.437 808.73C918.366 808.73 919.636 806.679 919.636 801.991C919.636 799.452 920.32 796.62 921.101 795.644C923.152 792.909 922.956 789.882 920.515 786.757C918.952 784.901 918.269 782.265 917.878 777.48C917.487 770.937 917.487 770.741 919.636 771.327C921.589 771.816 921.784 771.62 921.491 767.616C921.394 765.273 921.784 762.343 922.37 761.171C923.542 758.925 922.859 753.749 920.71 747.792C919.343 744.374 921.98 738.515 927.741 731.874C930.183 729.042 932.722 725.038 933.308 723.085C933.991 721.034 936.042 717.03 937.995 714.198C941.316 709.218 941.413 708.827 940.241 705.507C938.874 701.698 939.362 695.741 941.804 689.296C942.585 687.05 943.562 682.265 944.05 678.651C944.538 673.866 945.515 671.327 947.468 668.691C950.495 664.784 956.745 647.694 956.745 643.495C956.745 642.03 955.769 638.808 954.597 636.366L952.448 631.972L956.355 627.773C963.777 620.058 965.534 608.925 959.968 604.823C958.015 603.359 957.429 601.796 956.55 595.546C955.573 588.905 955.671 587.538 957.234 584.12C958.698 580.898 959.48 580.214 961.823 580.214C966.218 580.214 965.534 576.405 960.456 573.378C958.21 572.011 954.011 568.495 950.984 565.468C946.687 561.073 943.171 558.827 934.187 554.628C923.542 549.55 922.663 549.355 920.222 550.624C918.757 551.405 915.339 552.284 912.702 552.577C909.187 552.968 906.355 554.14 903.132 556.484C890.046 565.956 887.898 566.933 875.788 568.495C872.273 568.984 867.39 569.765 865.046 570.253C861.823 571.034 859.773 570.839 856.745 569.765C854.499 568.984 850.691 568.495 848.152 568.593C844.538 568.788 842.976 568.3 840.241 566.249L836.823 563.71L836.14 550.234C835.359 533.534 834.675 530.702 830.183 526.503L826.667 523.085L826.765 508.437C826.765 500.331 826.57 487.734 826.277 480.409C825.788 467.03 825.788 467.03 822.859 464.589C820.515 462.538 820.027 461.464 820.027 457.753C820.027 455.409 819.148 451.405 818.073 448.866C816.999 446.327 816.12 442.909 816.12 441.249C816.12 439.491 815.437 435.683 814.655 432.753C812.702 425.624 812.8 424.55 815.437 421.327C817.292 418.984 817.585 417.519 817.487 411.073C817.39 402.773 816.706 401.503 811.628 399.062C806.257 396.523 804.206 391.347 804.987 382.558L805.573 375.429L799.714 371.23C795.417 368.202 793.464 366.151 792.585 363.612L791.511 360.194L785.359 360.78C782.038 361.073 778.913 361.073 778.523 360.683C777.546 359.706 768.171 359.609 765.632 360.585C764.362 361.073 763.191 360.976 762.898 360.487C762.507 359.901 760.945 359.511 759.382 359.511C751.765 359.511 736.335 346.913 733.894 338.808L732.82 334.999L716.999 335.585L716.023 340.859C715.144 345.839 714.655 346.425 709.382 350.038C706.355 352.089 703.816 354.433 703.816 355.214C703.816 357.265 702.839 356.874 699.616 353.847C696.98 351.405 696.784 351.308 695.612 352.87C694.734 354.042 692.976 354.628 690.339 354.628C686.726 354.628 686.14 355.019 684.48 358.144L682.722 361.562L679.109 358.632C675.105 355.507 666.706 353.944 658.405 354.823C654.695 355.312 654.109 355.116 653.132 353.066C652.351 351.21 651.277 350.722 648.445 350.722C646.394 350.624 643.659 350.038 642.292 349.355C640.925 348.573 639.265 348.28 638.386 348.769C637.605 349.159 634.48 349.745 631.55 350.136C627.351 350.624 625.007 350.331 621.003 348.769C618.171 347.694 613.581 346.816 610.554 346.816C607.722 346.816 604.987 346.327 604.597 345.741C604.011 344.765 601.667 345.058 598.054 346.327C597.175 346.718 595.612 345.253 593.464 342.03C590.827 337.929 589.851 337.05 587.214 336.855C581.648 336.659 578.327 337.148 575.398 338.905C573.152 340.175 571.491 340.37 568.073 339.784C562.605 338.808 555.769 334.218 556.062 331.581C556.55 327.089 558.21 320.644 559.675 317.323C560.847 314.589 560.945 313.026 560.261 311.171C559.382 308.827 559.675 297.89 560.847 292.421C561.042 291.151 562.702 289.491 564.655 288.417L568.171 286.659L564.558 285.39L561.042 284.12L561.53 278.554C561.921 274.062 561.628 272.694 560.066 270.937C558.308 269.081 558.21 268.3 559.187 263.905C559.87 260.78 561.823 256.776 564.655 252.968C569.636 246.132 570.32 242.812 566.706 241.933C563.191 241.054 563.093 237.441 566.413 234.609C571.101 230.702 572.273 227.284 571.491 219.96C571.101 216.444 570.417 212.734 569.831 211.659C569.05 210.292 569.441 209.316 571.296 207.265C572.566 205.898 573.933 203.554 574.323 201.991C574.909 199.648 574.519 199.159 571.296 197.597C569.343 196.718 566.706 194.862 565.339 193.593L563.093 191.347L565.046 189.198C566.218 188.026 567.097 185.878 567.097 184.511C567.097 182.46 566.316 181.679 563.484 180.507L559.773 179.042L564.362 176.308C566.902 174.745 568.952 173.28 569.05 172.987C569.05 172.694 567.292 170.448 565.046 167.812C561.335 163.515 560.945 163.319 558.991 164.687C557.038 166.054 556.941 165.956 555.671 162.441C554.987 160.487 554.402 157.265 554.304 155.409C554.304 153.554 553.718 150.233 553.034 148.085C552.058 144.862 552.058 143.788 553.23 141.933C554.499 139.882 554.304 139.394 550.105 134.511C544.734 128.261 543.659 125.624 543.659 119.081C543.659 113.808 543.366 113.71 537.409 115.956C536.237 116.347 535.847 115.956 535.847 114.491C535.847 113.319 535.456 112.441 534.87 112.441C534.382 112.441 533.894 111.952 533.894 111.464C533.894 110.878 534.675 110.487 535.652 110.487C536.628 110.487 537.898 109.999 538.581 109.316C539.46 108.437 539.265 107.655 537.702 105.898C535.749 103.944 535.652 103.358 536.823 99.4522C537.409 97.1085 537.8 93.8858 537.702 92.3233C537.507 90.7608 537.995 88.0264 538.679 86.2686C539.851 83.4366 539.851 82.5577 538.288 79.4327C537.409 77.4796 536.335 73.085 536.042 69.7647L535.554 63.71L483.21 34.4132C454.402 18.2999 430.183 4.92097 429.401 4.62801C427.839 4.04207 335.749 0.0381622 328.034 0.233475C325.202 0.331131 311.335 4.04207 292.194 9.9991Z" fill="white"/>
<circle id="536" cx="597" cy="713" fill="#5CE50D"/>
<circle id="1463" cx="780" cy="966" fill="#E52A0D"/>
<circle cx="276" cy="229" fill="#E52A0D"/>
<circle id="537" cx="914" cy="738" fill="#E52A0D"/>
</svg>
