<svg width="1000" height="1000" viewBox="0 0 1000 1000" fill="none" xmlns="http://www.w3.org/2000/svg">
<path d="M527.053 18.5121C526.018 18.7946 523.476 20.9597 521.311 23.3131L517.545 27.6434L513.027 26.1371C509.261 24.9134 508.508 24.8193 508.038 25.9489C507.473 27.5492 500.13 27.7375 498.624 26.2313C496.93 24.5369 495.8 25.9489 495.235 30.1851C494.576 34.8918 490.999 39.0338 485.351 41.4814C480.926 43.3641 479.797 45.0585 481.209 47.6944C481.868 48.9181 481.774 49.9536 480.832 51.2715C480.079 52.2129 479.514 54.0956 479.514 55.4135C479.514 57.3904 478.291 58.6142 472.737 62.0972C464.547 67.2747 462.57 68.1219 462.57 66.4275C462.57 64.4506 460.028 62.8503 457.957 63.5093C456.828 63.7917 454.662 65.392 453.156 66.9923C450.991 69.1574 449.956 69.6281 449.108 68.7809C447.414 67.0864 445.625 67.5571 442.142 70.5695C440.354 72.1698 435.741 74.9939 431.881 76.7825C428.022 78.6652 424.915 80.5479 424.915 81.0186C424.915 81.3951 423.221 82.3365 421.244 82.9013C417.573 84.0309 417.573 84.0309 419.455 85.5371C422.28 87.8906 422.28 98.9045 419.361 102.011C417.761 103.705 417.384 105.306 417.384 110.483C417.384 116.79 417.29 116.885 415.125 116.508C413.054 116.131 412.866 116.32 413.242 118.956C413.713 121.497 413.054 122.533 408.536 127.145C404.017 131.852 403.17 132.323 402.134 131.099C401.475 130.252 400.722 127.428 400.44 124.792C399.969 120.368 399.781 119.991 397.428 119.709C394.792 119.426 394.792 119.426 394.792 125.074C394.792 128.181 395.168 130.911 395.639 131.193C396.016 131.476 396.486 134.111 396.486 137.124C396.58 140.136 397.051 144.09 397.616 145.878C399.969 153.88 396.957 165.741 391.968 168.471C390.932 169.036 390.085 170.26 390.085 171.201C390.085 172.048 389.049 173.837 387.732 175.061C385.284 177.414 385.661 179.862 388.767 181.085C390.179 181.65 390.179 181.462 389.049 180.144C388.014 178.826 388.108 178.638 390.085 179.014C393.568 179.485 393.474 182.027 389.897 184.286C386.696 186.357 384.437 185.698 384.437 182.968C384.437 180.615 382.648 181.556 381.989 184.192C381.613 185.698 380.765 187.675 380.107 188.71C379.259 189.84 378.789 193.229 378.789 197.653C378.789 204.055 379.071 205.09 381.048 206.973C382.836 208.667 383.966 209.044 385.943 208.573C387.543 208.102 389.238 208.479 390.65 209.42C392.533 210.644 392.909 211.68 392.909 215.351C392.909 217.799 393.568 220.623 394.321 221.564C395.639 223.258 395.545 223.635 393.191 226.083C391.215 228.154 390.65 229.566 390.838 231.825C391.12 234.367 390.462 235.59 387.449 238.603C384.343 241.521 378.506 244.627 375.776 244.721C375.4 244.721 376.153 242.462 377.377 239.732C378.694 237.096 379.73 234.084 379.73 233.143C379.73 231.072 373.988 221.282 372.764 221.187C372.293 221.187 371.069 220.529 370.128 219.587C367.586 217.328 364.292 219.211 361.468 224.765C360.056 227.589 357.796 230.13 355.914 231.354C352.995 232.954 352.525 233.896 351.677 238.979C350.642 244.627 350.642 244.721 353.937 249.617C355.631 252.347 357.137 255.076 357.137 255.735C357.137 258.089 354.878 261.666 353.372 261.666C351.677 261.666 348.853 265.149 346.406 270.327C344.9 273.433 344.9 274.657 345.841 282.753C346.5 287.648 346.782 292.449 346.406 293.296C346.123 294.143 346.688 297.438 347.724 300.638C348.665 303.745 349.983 308.169 350.548 310.334C351.113 312.5 352.525 315.041 353.654 315.983C354.878 316.924 356.102 318.43 356.478 319.277C356.855 320.313 358.079 320.972 359.397 320.972C360.809 320.972 362.409 321.913 363.539 323.514L365.421 326.149L368.998 324.455C371.446 323.231 372.764 323.043 373.423 323.702C373.988 324.267 375.023 324.737 375.776 324.737C376.906 324.737 376.906 324.455 375.965 323.325C375.117 322.29 375.117 321.913 375.87 321.913C376.435 321.913 377.188 322.572 377.471 323.325C378.506 325.867 383.966 325.114 386.225 322.102L388.202 319.56L387.073 322.855C386.508 324.643 385.661 326.714 385.096 327.373C384.625 327.938 384.437 329.727 384.719 331.139C385.472 334.622 382.46 339.517 379.165 340.364C377.094 340.929 376.153 340.458 373.611 337.728C372.011 335.845 369.657 334.057 368.622 333.774C367.492 333.398 366.551 332.362 366.457 331.515C366.457 330.103 366.268 330.103 365.327 331.703C364.668 332.645 363.162 334.716 361.938 336.222C360.432 338.105 359.961 339.517 360.338 341.211C360.997 343.659 359.773 346.671 357.42 349.024C356.667 349.872 356.384 351.472 356.761 353.731C357.137 356.367 356.572 358.72 354.407 363.616C352.807 367.193 351.489 370.77 351.489 371.523C351.489 372.276 352.807 373.406 354.313 373.971C356.855 374.912 358.455 378.395 356.29 378.395C355.914 378.395 354.313 379.336 352.901 380.466C350.454 382.349 350.359 382.537 352.054 383.761C354.219 385.361 355.255 385.361 355.255 383.572C355.255 381.313 357.796 383.008 359.114 386.02C360.15 388.75 360.056 389.032 356.196 392.986C352.336 396.94 352.242 397.128 352.901 401.835C353.654 407.201 353.089 407.765 350.359 404.188C347.159 400.14 343.111 401.835 340.569 408.33C340.475 408.424 339.816 408.33 339.063 408.048C337.933 407.577 337.651 405.883 337.745 400.235C337.839 394.116 338.122 392.986 339.534 392.704C340.381 392.515 341.134 391.574 341.134 390.539C341.134 388.373 342.734 388.185 344.9 390.162C346.312 391.386 346.688 391.386 347.63 390.35C348.383 389.315 348.383 388.373 347.253 386.302C345.653 383.102 345.464 381.219 346.782 381.219C348.571 381.219 347.724 379.619 345.37 378.583C344.052 377.924 342.829 377.454 342.734 377.454C342.546 377.454 342.64 378.866 342.734 380.466C342.923 382.16 342.64 384.231 342.075 384.984C341.228 386.208 340.663 385.832 338.31 383.102C332.85 376.795 332.191 374.912 332.474 365.404C332.662 357.873 332.474 356.649 330.967 356.085C326.637 354.484 326.731 347.989 331.156 342.153C332.944 339.893 334.639 336.598 335.015 334.904C335.392 333.21 336.051 331.327 336.427 330.856C337.369 329.727 337.275 319.089 336.427 319.089C336.145 319.089 335.392 319.56 334.827 320.125C334.168 320.784 333.227 320.125 331.815 317.677C330.12 314.759 329.367 314.288 327.579 314.759C324.19 315.606 322.495 314.571 321.366 310.993C319.859 306.475 317.977 307.416 318.353 312.405C318.541 314.571 318.165 317.018 317.506 317.771C316.094 319.56 317.694 321.443 324.095 325.208C329.273 328.314 330.591 330.856 326.449 329.821C324.472 329.35 324.095 329.444 324.566 330.48C324.943 331.233 324.378 330.762 323.342 329.538C322.213 328.314 321.366 326.808 321.366 326.149C321.366 325.02 316.659 323.514 315.811 324.361C315.623 324.549 317.6 326.808 320.33 329.444C322.966 331.986 325.131 334.339 325.131 334.716C325.131 335.375 315.906 327.091 314.211 324.831C313.364 323.796 312.611 323.702 309.787 324.643C307.81 325.302 306.304 326.149 306.304 326.432C306.304 326.808 305.927 327.656 305.456 328.409C304.798 329.444 304.233 329.538 303.291 328.785C301.22 326.997 297.078 328.503 295.007 331.797C292.56 335.751 292.654 337.163 295.29 339.611C297.831 342.058 299.244 342.153 302.632 340.364C304.044 339.705 306.21 339.328 307.622 339.517C309.504 339.893 310.257 340.835 311.011 343.941C311.575 346.012 312.234 348.46 312.517 349.213C312.799 349.966 313.176 354.108 313.364 358.25C313.74 365.592 313.646 366.063 311.199 368.605C309.787 370.111 307.998 373.406 307.151 375.947C305.645 380.372 305.645 380.56 307.339 380.937C308.375 381.219 309.787 382.631 310.634 384.137C311.387 385.643 312.423 386.867 313.082 386.867C313.74 386.867 313.929 388.185 313.552 390.539C313.176 393.363 313.552 394.681 315.341 396.846C317.882 400.046 318.071 400.988 316.188 400.988C315.435 400.988 314.399 401.835 313.835 402.776C312.987 404.377 313.458 405.13 316.659 407.671C321.271 411.343 321.648 414.449 317.882 416.332C313.27 418.685 308.186 415.108 308.186 409.554C308.092 404.188 306.586 398.823 304.609 397.222C303.48 396.375 302.256 393.645 301.597 390.444C299.526 379.995 292.277 375.947 285.688 381.501C283.993 382.914 282.111 384.043 281.546 384.043C280.416 384.137 274.674 391.292 273.638 394.116C273.168 395.245 273.45 395.528 274.58 395.057C275.804 394.586 276.557 395.339 277.686 397.975C279.475 402.306 278.816 407.954 275.615 415.014C274.297 417.838 273.074 422.733 272.791 425.84C272.509 429.04 271.85 433.653 271.285 436.1C270.438 440.242 270.532 440.807 272.415 442.878C274.297 444.855 274.392 445.42 273.356 448.432C272.509 451.162 272.603 452.104 273.733 453.892C274.768 455.492 275.333 459.729 275.709 468.672C275.992 475.544 276.651 482.039 277.216 482.98C277.686 484.016 278.439 490.511 278.722 497.383C279.192 507.832 279.004 510.562 277.78 513.198C276.839 515.175 275.992 520.541 275.615 527.318C275.05 536.261 275.239 538.991 276.463 542.004C277.498 544.64 277.78 546.616 277.216 548.499C275.804 553.3 277.592 574.01 279.851 579.658C281.828 584.459 281.828 585.306 280.887 598.485C280.322 606.11 279.663 613.83 279.381 615.618C278.91 618.819 279.098 619.101 284.182 622.584C290.583 627.009 292.466 629.55 296.514 639.435C299.338 646.118 299.714 648.095 299.714 655.155C299.62 660.804 299.244 663.722 298.208 665.04C295.76 668.24 293.125 678.595 293.125 684.997C293.125 691.68 294.254 693.751 302.162 702.224C304.798 705.048 306.68 708.248 307.81 711.92C309.316 716.721 310.257 718.038 315.435 722.18C320.612 726.417 321.366 727.452 321.366 730.276C321.366 732.065 322.213 734.512 323.248 735.83C324.284 737.148 325.131 739.219 325.131 740.349C325.131 741.478 325.978 744.773 326.92 747.691C328.708 752.869 328.708 752.963 326.92 754.563C325.79 755.599 325.319 756.823 325.696 758.046C326.731 761.247 326.449 768.495 325.131 772.355C323.342 777.721 323.813 780.922 327.484 787.699C329.273 790.9 330.779 794.195 330.779 794.854C330.779 795.513 329.932 798.807 328.896 802.008C327.861 805.209 327.014 809.445 327.014 811.327C327.014 813.304 326.449 815.469 325.884 816.223C323.719 818.858 315.341 823.471 309.881 824.977C306.963 825.824 304.327 826.86 304.044 827.331C303.762 827.707 308.092 835.426 313.552 844.463C319.483 854.065 331.815 877.223 343.393 900.38L363.256 939.918L379.73 951.873L396.204 963.922L423.974 972.959L451.65 981.996L502.107 972.395C529.783 967.217 553.223 962.604 554.259 962.322C555.576 961.945 555.859 961.286 555.388 959.121C555.106 957.615 555.482 955.356 556.235 953.85C557.271 951.873 557.647 947.825 557.647 938.317C557.647 931.257 558.024 925.232 558.495 924.95C558.965 924.667 559.624 922.973 559.907 921.09C560.283 919.302 561.413 917.231 562.543 916.478C564.331 915.254 564.425 914.689 563.484 912.618C562.166 909.888 560.472 909.512 560.472 912.053C560.472 912.995 559.907 914.312 559.154 914.877C558.212 915.725 557.365 915.254 555.388 912.712C553.976 910.829 551.811 909.229 550.117 908.853C547.951 908.382 547.292 907.723 547.292 906.029C547.292 904.899 548.046 903.581 548.893 903.299C550.305 902.734 550.305 902.545 549.175 901.792C548.14 901.133 547.292 901.416 546.163 902.734C544.186 905.087 543.339 905.087 541.833 902.734C540.985 901.228 540.044 900.945 538.067 901.416C536.655 901.792 535.337 902.451 535.055 902.828C534.302 903.863 523.099 903.204 521.687 902.075C521.028 901.51 518.863 900.757 516.981 900.38C513.686 899.721 513.498 899.533 514.062 896.991C514.439 894.732 514.251 894.261 512.839 894.261C511.238 894.167 511.238 894.073 513.215 892.473C514.345 891.437 515.286 889.931 515.286 888.896C515.38 887.295 519.24 882.024 520.464 882.024C520.746 882.024 520.558 882.871 519.993 883.812C519.522 884.848 519.052 886.542 519.052 887.672C519.052 889.555 519.146 889.555 521.876 888.143C523.382 887.39 524.982 886.072 525.453 885.224C526.112 884.001 527.241 883.718 530.819 884.095C534.396 884.565 535.62 884.283 537.032 882.871C537.973 881.93 539.856 881.082 541.174 881.082C542.962 881.082 543.621 881.741 544.186 883.906C544.939 886.636 545.033 886.636 546.916 885.319C548.61 884.189 548.893 883.247 548.516 879.67C547.951 875.434 548.705 874.493 550.964 876.564C551.905 877.599 551.999 877.129 551.529 874.305C551.058 872.045 551.246 870.727 551.811 870.727C553.788 870.727 553.976 874.775 552.376 880.706C551.152 885.319 551.058 887.201 551.811 888.896L552.847 890.967V888.802C552.941 886.26 554.541 882.965 555.671 882.965C556.141 882.965 556.706 884.189 556.989 885.695C557.553 888.519 560.377 890.308 561.413 888.613C562.26 887.201 565.555 887.86 567.438 889.837C569.603 891.908 570.262 891.908 569.603 889.649C569.038 887.295 570.827 886.542 573.18 888.237C575.816 890.214 576.475 889.837 576.475 886.448C576.569 884.377 577.228 882.965 578.828 881.741L581.087 880.141L580.617 886.448C580.334 890.025 579.675 894.92 579.111 897.368C578.452 900.474 578.452 902.263 579.111 902.922C580.428 904.24 580.899 903.11 582.876 895.109C583.817 891.343 585.135 888.049 585.794 887.86C587.677 887.201 586.265 897.556 583.817 902.263C582.782 904.334 581.464 906.97 580.805 908.099C580.146 909.512 578.922 910.265 577.228 910.265C572.333 910.265 571.674 911.018 572.333 915.819C572.615 918.172 573.651 920.902 574.498 921.938C575.627 923.161 575.91 925.044 575.722 928.621C575.533 931.351 575.816 933.893 576.286 934.175C576.851 934.458 579.111 933.234 581.37 931.351C583.535 929.468 587.677 926.644 590.313 925.138C593.043 923.538 595.49 921.938 595.773 921.467C596.055 920.996 596.714 917.137 597.185 912.9C597.938 905.275 599.256 899.157 601.233 894.167C602.174 892.002 602.927 891.626 607.728 891.061C614.129 890.402 618.177 888.519 620.342 885.319C621.189 884.001 622.413 882.965 623.166 882.965C625.708 882.965 629.097 876.752 631.168 868.374C632.297 863.667 633.992 858.207 634.933 856.042C635.969 853.971 636.722 851.524 636.722 850.582C636.722 848.511 638.322 845.499 646.23 832.32C652.725 821.494 654.325 816.505 653.384 810.292C653.102 808.033 653.761 805.868 655.643 802.385C657.714 798.807 658.373 796.36 658.373 792.783C658.373 788.735 659.126 786.475 662.609 780.074C664.963 775.744 666.845 771.131 666.845 769.908C666.845 767.272 674.753 758.329 677.954 757.387C678.989 757.011 680.495 755.128 681.248 753.245C682.001 751.269 685.484 746.75 688.873 743.079C693.015 738.56 696.216 733.853 698.852 728.488C700.923 724.157 703.464 719.827 704.5 718.98C706.1 717.756 711.09 708.154 711.09 706.46C711.09 706.177 710.054 705.989 708.736 705.989C706.571 705.989 706.383 705.612 706.383 701.941C706.383 697.14 709.207 693.751 713.255 693.751C716.549 693.751 720.503 691.869 720.503 690.268C720.503 689.515 722.103 686.785 724.174 684.055C726.528 680.855 728.128 677.466 728.693 674.265C729.634 669.37 729.634 669.37 726.151 666.075C722.668 662.781 720.597 657.321 722.009 655.061C722.292 654.497 721.821 652.425 720.974 650.354C719.468 647.06 719.373 645.93 720.409 640.282C721.068 636.799 722.009 633.316 722.48 632.563C723.233 631.527 723.327 631.716 722.951 633.692C722.668 635.01 722.103 636.799 721.821 637.646C721.444 638.682 721.727 639.152 722.762 639.152C723.61 639.152 724.551 638.588 724.833 637.929C725.116 637.175 724.928 629.362 724.457 620.325C723.798 607.993 723.892 603.286 724.833 600.745C725.775 597.732 725.775 597.073 724.174 595.002C723.233 593.779 721.727 590.672 720.974 588.13C719.656 583.706 719.75 583.329 721.915 578.623L724.269 573.728L723.892 578.434C723.515 582.576 723.704 582.859 724.833 581.353C725.775 580.035 725.963 577.587 725.586 571.939C724.833 561.019 724.645 560.454 719.844 555.277C715.796 550.947 715.42 550.005 714.667 544.357C714.102 539.368 714.196 537.768 715.326 536.544C716.079 535.697 716.738 533.626 716.738 532.025C716.738 530.425 717.208 528.825 717.679 528.542C718.244 528.26 718.62 526.471 718.62 524.683V521.482L716.267 522.988C714.384 524.212 713.631 524.306 712.502 523.365C711.748 522.706 711.09 521.576 711.09 520.917C711.09 520.164 710.148 519.599 708.83 519.599C707.324 519.599 705.535 518.376 703.559 515.834C700.17 511.598 697.346 510.939 694.616 513.951C692.545 516.21 688.967 516.399 688.12 514.328C687.179 511.88 687.461 511.127 689.438 511.127C690.474 511.127 691.321 510.468 691.321 509.715C691.321 508.962 690.944 508.303 690.38 508.303C688.591 508.303 682.849 511.598 682.849 512.727C682.849 514.516 676.071 513.104 674.188 510.939C672.211 508.774 671.929 501.713 673.623 500.019C674.282 499.36 675.412 498.889 676.259 498.889C678.518 498.889 681.907 495.406 681.907 493.147C681.907 491.453 681.437 491.17 678.895 491.547C677.2 491.829 675.035 492.3 674.188 492.77C672.117 493.618 670.423 489.852 671.646 487.405C672.117 486.557 672.494 481.474 672.588 476.108C672.588 470.178 672.964 467.165 673.435 468.295C674 469.895 674.282 469.613 674.847 466.601C675.224 464.435 675.129 462.647 674.565 461.894C673.812 461.047 673.906 459.164 674.753 455.398C675.883 450.692 675.788 449.844 674.094 446.644C672.682 443.914 672.4 442.031 672.87 438.736C674 430.076 673.906 428.287 671.835 424.333C670.705 422.074 668.822 418.497 667.787 416.332C665.81 412.19 662.421 408.989 659.032 407.954C656.208 407.107 655.455 405.694 656.114 402.4C656.585 399.952 656.02 398.917 652.819 395.622C648.395 391.103 648.018 388.938 650.466 379.901C652.254 373.312 653.666 371.146 653.666 375.006C653.666 376.418 654.043 377.359 654.608 376.983C655.173 376.701 655.549 374.535 655.549 372.276C655.549 369.64 656.49 366.44 658.373 362.862L661.197 357.497L658.373 354.202C655.737 351.19 655.549 350.719 656.114 345.636C656.585 341.399 657.338 339.611 659.597 337.163C661.197 335.563 663.362 334.151 664.398 334.151C668.069 334.151 669.199 332.739 667.881 329.821C666.845 327.373 666.94 326.997 669.952 323.984C673.623 320.313 676.259 320.595 673.812 324.361C672.964 325.585 672.4 326.902 672.682 327.091C673.717 328.22 677.954 327.75 681.154 326.243C686.143 323.89 688.12 319.936 688.779 310.993C689.344 303.463 689.344 303.368 686.991 302.239C683.978 300.921 681.437 302.145 680.589 305.439C680.213 306.757 679.554 307.793 679.083 307.793C678.048 307.793 678.048 307.887 677.765 301.674C677.483 296.214 677.859 294.614 679.554 294.614C680.213 294.614 680.966 293.955 681.342 293.202C682.19 290.848 680.966 288.966 678.518 288.966C676.73 288.966 676.259 289.436 676.259 291.319C676.259 293.013 675.883 293.484 674.847 293.108C674 292.731 673.435 292.072 673.529 291.413C673.812 288.871 673.247 288.212 669.67 287.742C662.892 286.895 660.162 282.376 666.375 282.376C668.163 282.376 671.835 281.529 674.565 280.493C677.295 279.364 682.284 278.328 685.579 278.14C691.038 277.669 691.509 277.857 689.815 278.987C688.12 280.305 688.12 280.399 689.721 280.964C693.204 282.376 693.863 287.365 690.662 287.648C690.003 287.742 688.591 287.836 687.555 287.836C686.52 287.93 685.673 288.683 685.673 289.53C685.673 290.66 686.614 290.942 690.568 290.754C693.674 290.566 695.557 290.848 695.839 291.601C696.028 292.26 697.534 292.731 699.322 292.731C701.958 292.731 702.429 292.354 702.994 289.813C703.276 288.212 703.559 285.388 703.559 283.6C703.559 281.623 704.123 280.211 704.971 279.928C705.724 279.552 706.383 278.422 706.383 277.293C706.383 276.257 707.042 274.469 707.795 273.527C708.548 272.492 709.207 270.703 709.207 269.573C709.207 266.749 705.912 259.501 703.653 257.524C701.958 255.924 701.77 256.018 700.452 257.995C698.758 260.348 699.228 264.961 701.488 267.502C702.711 268.914 702.617 269.291 701.205 270.797C699.605 272.398 699.417 272.303 698.005 270.138C694.804 265.149 689.815 260.442 685.579 258.277C683.131 257.053 680.872 255.265 680.495 254.229C680.213 253.194 678.707 251.97 677.2 251.405C674.094 250.37 673.906 250.087 675.412 247.451C676.165 245.945 676.636 245.757 677.765 246.604C678.424 247.263 679.742 247.546 680.495 247.169C682.378 246.51 686.332 249.899 686.991 252.817C687.461 254.418 688.214 255.076 689.815 255.076C692.451 255.076 693.204 253.57 693.204 247.734C693.204 244.627 693.768 242.839 695.275 241.238C697.816 238.603 696.875 237.285 694.333 239.826C693.298 240.862 691.415 242.274 690.191 242.933C688.026 244.063 688.026 243.968 689.721 242.18C690.662 241.144 691.321 239.921 691.227 239.45C690.756 236.908 691.603 236.249 695.086 236.249C700.358 236.249 704.123 234.178 704.782 230.789C705.065 229.283 706.1 227.777 706.948 227.4C708.171 226.93 708.36 227.212 707.889 228.907C707.606 230.13 707.324 233.425 707.324 236.343C707.324 240.674 706.853 242.086 704.971 244.157C702.9 246.416 701.958 248.487 702.994 248.487C703.182 248.487 704.876 247.828 706.759 247.075L710.242 245.569L709.677 238.32C709.301 233.237 709.489 229.754 710.431 226.741C712.031 221.658 711.466 220.058 706.665 214.88C703.841 211.868 702.711 209.609 701.864 205.467C700.358 197.842 700.358 194.829 702.147 194.829C702.994 194.829 704.029 193.794 704.594 192.57C705.535 190.593 705.159 189.275 702.711 183.815C699.793 177.602 699.699 177.226 700.264 168L700.829 158.587L696.404 154.916C691.98 151.15 681.907 146.82 677.671 146.82C676.353 146.82 674 145.502 672.305 143.902L669.199 141.078L672.211 142.49C679.836 146.255 676.73 142.019 667.975 136.747C664.116 134.488 663.362 134.394 654.796 134.865C649.148 135.147 643.594 136.088 640.205 137.312C632.486 140.042 627.779 138.724 614.694 130.346C608.858 126.675 608.293 124.98 608.104 111.519C608.01 107.377 607.634 103.517 607.257 102.858C606.881 102.199 604.527 100.599 602.08 99.1869C597.467 96.6452 593.419 91.656 593.419 88.7378C593.419 87.8906 591.819 85.2547 589.842 82.9013C585.229 77.3473 584.759 76.0294 585.888 71.2285C586.359 69.0633 586.924 63.6034 587.112 59.179L587.583 50.9891L582.688 47.412C580.052 45.4351 576.381 42.2345 574.498 40.2576C572.615 38.2808 570.356 36.6804 569.414 36.6804C568.473 36.6804 566.402 35.7391 564.802 34.5153C563.202 33.2915 558.306 31.1264 553.882 29.7144C549.458 28.2082 543.998 25.9489 541.644 24.5369C539.291 23.2189 536.279 21.4304 534.866 20.7714C533.36 20.0183 532.231 19.077 532.231 18.6063C532.231 17.8532 530.16 17.759 527.053 18.5121Z" fill="white"/>
<circle id="560" cx="666" cy="510" fill="#5CE50D"/>
<circle id="1477" cx="649" cy="286" fill="#E52A0D"/>
<circle id="1478" cx="288" cy="450" fill="#E52A0D"/>
<circle cx="544" cy="876" fill="#E52A0D"/>
</svg>
