<svg width="1000" height="1000" viewBox="0 0 1000 1000" fill="none" xmlns="http://www.w3.org/2000/svg">
<path d="M671.054 183.622C670.677 184.187 669.546 184.658 668.604 184.658C667.568 184.658 665.402 185.506 663.706 186.542C661.822 187.672 658.902 188.426 656.359 188.426C653.721 188.426 651.084 189.179 649.294 190.31C647.787 191.346 644.961 192.194 643.171 192.194C638.085 192.194 635.635 194.36 635.635 198.882C635.635 202.838 633.375 206.888 626.404 215.46C623.578 219.04 622.73 219.511 619.245 219.511C617.173 219.511 611.615 220.17 607 221.018C602.384 221.772 598.051 222.243 597.203 221.866C596.449 221.583 594.848 221.96 593.623 222.808C592.399 223.561 590.892 223.938 590.138 223.656C589.385 223.373 586.276 224.409 583.168 225.916L577.704 228.742L570.168 227.235C563.292 225.916 561.502 225.916 548.409 227.329C528.816 229.402 527.497 230.061 520.244 242.401L514.592 251.821L508.092 254.081C503.665 255.494 499.332 256.248 494.905 256.248H488.217L486.615 250.784C485.202 245.886 484.543 245.132 481.435 243.72C479.456 242.966 476.631 242.024 475.029 241.647C471.261 240.799 467.964 237.597 467.964 234.865C467.964 232.604 464.667 229.213 459.392 225.916C457.885 224.974 454.4 224.221 450.82 224.126C445.545 223.844 444.415 224.126 441.683 226.293C438.952 228.365 438.01 228.554 435.466 227.894C433.017 227.235 431.416 227.518 427.271 229.307C423.221 231.097 421.808 231.38 420.301 230.532C419.359 229.967 417.38 229.59 415.968 229.778C414.555 229.873 412.011 229.025 409.845 227.612C405.041 224.409 399.954 223.75 392.701 225.539C386.39 227.047 383.94 226.576 382.81 223.75C382.528 222.996 381.115 221.866 379.702 221.301C376.499 219.982 351.725 219.322 347.863 220.359C344.095 221.301 332.32 216.214 332.32 213.671C332.32 212.446 331.567 211.975 329.683 211.975C327.705 211.975 326.857 211.316 326.103 209.243C325.256 207.077 323.937 206.229 319.321 204.628C312.068 202.179 310.561 203.121 308.3 211.222C306.793 216.779 306.416 217.25 302.271 219.228L297.938 221.301L294.453 219.04C292.475 217.721 290.685 216.685 290.497 216.685C290.214 216.685 289.743 218.192 289.366 219.982C289.084 221.772 288.424 223.279 287.953 223.279C287.483 223.279 284.845 225.351 282.019 227.894C279.193 230.438 275.99 233.075 274.954 233.64C273.541 234.394 272.976 235.619 272.976 237.879C272.976 240.799 272.694 241.176 269.679 241.741C267.419 242.118 266.006 243.06 265.252 244.756C264.216 246.828 262.991 247.393 257.905 248.335C252.347 249.277 251.405 249.277 247.92 247.487C242.833 245.038 239.442 245.792 238.594 249.56C238.029 252.103 237.652 252.386 232.66 252.762C224.559 253.422 220.791 254.646 220.32 256.719C220.132 257.755 218.907 259.921 217.588 261.711C216.081 263.689 215.045 266.421 214.762 269.435L214.291 274.145H210.241C206.85 274.145 205.814 274.616 204.118 276.877C202.988 278.478 200.821 280.174 199.408 280.833C195.263 282.529 194.227 287.615 196.582 294.303L198.372 299.484L195.263 301.933C193.474 303.252 191.119 304.288 189.894 304.288C188.67 304.288 187.257 304.665 186.691 305.042C184.808 306.361 179.438 318.606 178.967 322.845C178.685 325.483 177.743 327.838 176.424 329.156C175.294 330.287 173.786 333.395 173.127 336.033C172.091 339.895 171.337 341.025 169.642 341.496C168.417 341.779 165.591 343.945 163.425 346.206C160.316 349.409 159.563 350.822 160.128 352.235C160.505 353.271 160.505 355.532 160.222 357.321C159.845 359.865 158.998 360.901 156.548 362.031C153.534 363.538 153.44 363.727 153.911 367.683C154.476 371.734 154.382 371.922 149.86 375.69C146.752 378.327 144.774 380.965 143.643 384.073C141.948 388.595 141.948 388.595 144.02 390.29L146.092 391.986L144.209 394.529C143.078 396.036 140.817 397.355 138.274 398.015C134.695 398.862 134.412 399.145 135.825 400.275C137.238 401.5 137.144 401.877 134.412 404.703C131.586 407.623 131.209 407.717 129.702 406.398C128.478 405.268 127.63 405.174 126.217 405.927C124.239 406.963 122.637 411.862 123.674 413.463C123.956 414.028 122.92 416.948 121.413 420.057L118.493 425.709L120.942 427.592C123.014 429.194 123.297 429.853 122.543 432.114C121.884 433.904 120.848 434.846 118.775 435.317C117.174 435.599 114.631 436.824 113.029 437.86C110.486 439.744 110.298 440.121 110.957 443.889C111.899 449.069 109.921 452.084 105.588 452.178C103.139 452.178 102.479 452.555 102.479 454.062C102.479 456.794 98.2403 459.337 95.6028 458.018C93.2479 456.888 87.4076 455.852 83.1688 455.852C81.6616 455.852 79.5893 455.381 78.4589 454.627C77.4227 453.968 75.5388 453.12 74.22 452.837C70.9231 452.084 66.6842 455.852 66.6842 459.525C66.6842 462.54 63.7641 466.213 57.6413 471.112L54.3444 473.749L49.4461 470.641C42.0988 466.025 40.78 465.931 38.5193 469.699C36.3527 473.372 35.6934 473.467 29.8531 471.488C26.1794 470.264 25.1433 470.17 21.9406 471.3C17.3249 472.901 16.8539 474.88 20.0566 479.966C21.2812 482.039 23.2593 485.618 24.2955 487.973C25.4259 490.328 26.5562 492.777 27.0272 493.531C27.404 494.284 29.7589 495.603 32.3023 496.451C35.5992 497.581 37.3889 498.806 38.4251 500.784C39.7438 503.045 40.78 503.61 44.5479 504.081C48.3158 504.457 49.6345 505.211 53.0256 508.791C56.2284 512.182 57.0761 513.877 57.6413 517.833C58.4891 524.145 61.315 527.913 64.7061 527.065C66.0249 526.782 67.9088 525.652 68.7566 524.616C70.1695 522.92 70.5463 522.826 71.0173 524.05C72.1477 526.971 70.7347 539.405 69.0392 542.419L67.2494 545.433L70.2637 548.542C73.8432 552.215 74.22 555.795 71.2999 558.527C68.6624 560.976 69.5102 562.954 73.6548 563.708C76.5749 564.273 77.0459 564.744 77.0459 567.099C77.0459 568.888 77.6111 570.019 78.8357 570.396C79.7777 570.678 82.9804 573.504 85.9947 576.613C89.2916 580.098 92.4943 582.453 94.0956 582.83C95.6028 583.112 96.8273 583.866 96.8273 584.431C96.8273 584.996 98.5229 586.032 100.595 586.692C103.798 587.634 104.74 587.634 106.624 586.409C108.696 584.996 108.885 585.09 109.827 587.539C110.392 588.952 111.051 591.025 111.428 592.155C112.276 595.452 121.319 598.372 130.079 598.184C132.434 598.184 133.753 598.655 134.129 599.597C134.506 600.444 136.767 602.14 139.122 603.365C144.962 606.285 146.281 607.886 144.868 610.335C144.303 611.466 143.267 612.313 142.607 612.313C141.477 612.313 138.557 617.212 137.05 621.827C136.767 622.769 134.977 623.9 133.187 624.559C129.137 625.878 128.949 627.008 132.434 631.341C135.071 634.921 140.346 637.935 145.622 639.065C149.201 639.913 149.672 642.362 146.658 645.376C144.962 647.072 143.738 647.26 137.144 647.072C127.536 646.695 126.405 647.731 129.608 654.231C132.057 659.224 134.224 660.354 141.854 660.354C144.774 660.354 148.165 660.636 149.295 660.919C152.31 661.767 155.23 666.948 155.23 671.563V675.425L164.932 675.237C176.895 675.049 194.792 678.44 194.792 680.983C194.792 681.831 195.452 683.715 196.3 685.316C197.147 686.823 198.372 689.838 199.031 691.91C199.691 694.171 201.48 696.714 203.553 698.315C209.016 702.837 210.618 701.801 217.4 689.084C224.088 676.462 227.102 672.599 230.022 672.599C231.153 672.599 232.942 671.94 233.979 671.187C237.841 668.266 241.891 669.397 248.767 675.331C253.666 679.57 256.115 680.983 259.129 681.454C261.861 681.831 264.404 683.244 267.136 685.599C271.092 688.99 271.186 689.178 269.585 691.251C268.737 692.475 267.042 693.888 265.723 694.359C263.839 695.018 262.897 694.83 260.542 692.852C257.434 690.214 257.057 690.12 253.76 691.439C251.876 692.098 251.311 693.04 251.311 695.113C251.311 698.504 249.144 699.917 244.246 699.917C241.232 699.917 240.855 700.199 241.42 701.518C242.456 704.061 243.587 707.452 244.717 711.974C245.753 715.836 250.557 722.524 252.441 722.524C252.912 722.524 255.455 723.466 257.999 724.596L262.803 726.575L262.426 731.284L262.143 735.994L266.571 737.501C269.02 738.349 271.94 739.951 273.165 740.987C278.251 745.791 289.649 752.196 294.642 753.138C299.446 754.174 299.822 754.457 300.105 757C300.388 759.449 299.917 760.015 295.395 762.275C292.663 763.688 289.649 765.007 288.801 765.29C287.953 765.572 286.07 767.456 284.751 769.528C282.678 772.543 282.207 774.521 282.113 779.608C281.925 786.767 281.171 786.013 292.381 790.723C297.279 792.795 299.069 793.078 304.155 792.607C307.452 792.324 313.293 791.005 317.06 789.687C323.183 787.52 324.973 787.332 334.958 787.708C344.283 788.085 346.827 788.462 351.819 790.629C356.435 792.607 359.167 793.172 364.536 793.172C370.47 793.172 372.448 793.643 378.383 796.469C383.94 799.201 386.295 799.766 391.194 799.766C397.505 799.766 401.838 801.179 406.265 804.664C408.714 806.548 410.221 806.831 419.264 807.207C431.981 807.584 439.894 806.171 445.074 802.497C448.466 800.143 449.784 799.766 455.625 799.766C461.088 799.766 463.349 800.237 467.305 802.309C473.993 805.7 479.456 806.454 485.862 804.852C493.586 802.874 499.332 803.157 504.607 805.889C508.752 807.961 509.976 808.149 517.23 807.584L525.236 807.019L531.736 811.729C535.221 814.272 538.612 816.627 539.272 817.004C540.59 817.852 559.901 812.953 566.212 810.222C568.755 809.091 571.676 808.243 572.712 808.243C575.067 808.243 580.247 804.287 590.421 794.585C594.848 790.44 600.877 785.165 603.797 782.999C606.717 780.832 610.391 777.253 611.898 775.086C614.253 771.601 615.571 770.753 620.564 769.34C623.767 768.398 629.795 766.043 634.034 763.971C639.969 761.051 642.889 760.203 646.562 760.203C649.2 760.203 653.815 759.355 656.83 758.319C659.844 757.283 664.271 756.435 666.532 756.435C674.162 756.435 682.075 754.457 690.27 750.595C697.617 747.015 699.124 746.733 707.791 746.262C714.761 745.979 718.906 746.262 723.521 747.392C726.913 748.24 730.775 748.711 731.999 748.428C734.072 747.863 734.354 748.146 734.919 751.16C735.484 753.892 736.144 754.645 738.97 755.587C740.76 756.152 743.962 758.131 745.94 759.92C749.049 762.746 750.085 763.217 752.817 762.746C754.607 762.464 758.374 762.84 761.106 763.594C765.628 764.819 766.381 764.724 769.113 763.311C772.975 761.239 776.931 762.746 776.931 766.137C776.931 769.999 779.663 771.507 786.445 771.507C792.097 771.507 792.851 771.224 795.3 768.681C799.915 763.877 801.234 764.913 805.85 776.782L809.995 787.237L816.306 790.158C819.791 791.759 828.08 794.773 834.768 796.94C845.13 800.237 848.427 800.896 858.035 801.367L869.245 801.932V795.998C869.245 789.969 870.375 785.448 875.085 773.673C878.005 766.137 878.287 763.406 876.498 758.978C875.744 757.283 874.896 753.327 874.52 750.124C873.954 744.943 874.143 744.001 875.838 742.305C878.193 739.951 878.193 738.82 875.838 735.241C874.52 733.263 873.954 730.813 873.954 726.951C873.954 721.205 873.672 721.676 880.925 715.177C883.845 712.445 897.41 693.982 899.67 689.555C900.895 687.2 903.25 683.432 904.945 681.077C906.641 678.722 908.807 675.331 909.844 673.447C912.575 667.984 920.865 660.448 927.553 657.434C932.263 655.173 935.559 654.419 943.566 653.76C949.03 653.195 955.247 652.441 957.319 651.876C959.391 651.405 962.594 650.934 964.384 650.934C968.905 650.934 973.803 647.826 973.803 644.906C973.803 643.681 974.369 642.174 975.122 641.609C975.97 640.949 976.724 637.841 977.1 634.167C978.419 619.095 979.738 610.712 981.057 608.64C982.281 606.756 982.281 606.285 981.245 605.625C980.491 605.154 979.455 604.777 978.89 604.777C978.231 604.777 977.571 604.024 977.289 603.082C977.1 602.234 976.535 600.633 976.064 599.691C975.499 598.184 975.687 597.995 977.383 598.372C979.173 598.843 979.455 598.56 979.455 595.829C979.455 584.054 975.122 576.801 966.55 574.163C963.536 573.221 959.862 571.903 958.355 571.149C954.116 568.983 945.45 568.041 943.189 569.548C942.153 570.207 939.422 571.243 937.067 571.808C934.712 572.468 931.792 573.692 930.473 574.634C927.364 576.895 922.372 578.873 917.945 579.721C915.778 580.098 912.387 582.076 908.902 584.996L903.438 589.612L900.235 586.88C896.468 583.677 891.852 583.112 891.852 585.844C891.852 586.786 890.91 588.199 889.78 588.952C888.178 589.989 887.707 591.119 887.896 593.662C888.084 596.394 887.707 597.148 885.729 597.995C883.657 598.937 880.925 598.278 864.817 592.532C854.644 588.952 845.413 585.09 844.188 584.054C843.058 582.924 841.362 579.627 840.514 576.707C837.783 568.041 836.558 566.157 833.544 566.157C829.493 566.157 825.914 562.86 825.914 559.092C825.914 555.983 823.936 552.969 821.863 552.969C821.204 552.875 819.791 551.462 818.661 549.672L816.588 546.375L818.661 545.245C819.791 544.68 821.863 544.209 823.37 544.303C825.631 544.491 825.914 544.209 825.914 541.854C825.914 540.347 826.385 537.803 826.95 536.202C827.798 533.659 827.704 532.905 826.102 530.833C822.711 526.5 820.827 518.775 821.581 511.616C822.052 506.53 821.769 503.892 820.262 499.371C819.226 496.168 818.19 491.458 817.813 488.915C817.248 484.864 817.53 483.828 819.508 481.191C821.204 478.93 821.958 476.481 822.429 472.148C822.711 468.945 822.523 466.308 822.052 466.308C821.581 466.308 821.204 464.235 821.204 461.692C821.204 457.359 821.487 456.794 825.254 453.403C828.74 450.388 829.588 448.881 830.529 444.454C831.189 441.534 832.319 438.614 833.073 438.048C834.957 436.447 834.863 426.462 832.979 424.861C831.754 423.919 831.66 422.412 832.131 417.89C832.508 414.688 833.167 411.673 833.638 411.014C834.109 410.449 834.203 407.34 833.826 404.043C833.355 399.616 832.602 397.544 830.529 395.189C828.457 392.928 827.798 391.138 827.798 388.312C827.798 385.015 827.515 384.45 824.972 383.602C823.276 382.943 822.052 381.813 821.769 380.4C819.885 371.357 819.32 368.154 818.849 363.633C818.472 360.807 817.624 357.51 816.871 356.379C816.117 355.249 815.552 353.648 815.552 352.894C815.552 351.481 810.371 349.503 806.886 349.503C805.85 349.503 805.19 348.749 805.19 347.619C805.19 346.112 804.531 345.735 801.988 345.735C799.162 345.735 798.691 345.358 798.126 343.003C797.749 341.402 796.807 340.083 795.582 339.801C794.546 339.518 793.981 338.859 794.264 338.388C794.546 337.917 793.133 336.786 791.061 335.844C787.481 334.243 787.293 333.96 787.293 329.722C787.293 326.236 786.822 324.918 784.938 323.128C783.619 321.903 782.583 320.396 782.583 319.737C782.583 316.817 780.511 313.896 778.721 314.367C777.779 314.65 776.931 314.367 776.931 313.802C776.931 313.237 775.895 312.766 774.576 312.766C773.069 312.766 772.221 312.201 772.221 311.353C772.221 310.6 771.75 309.94 771.279 309.94C770.714 309.94 769.207 308.904 767.888 307.585C766.664 306.361 764.686 304.759 763.649 304.194L761.671 303.158L763.838 300.897C765.533 299.013 765.816 298.354 764.78 297.789C763.838 297.129 763.838 296.564 764.591 295.057C766.004 292.42 765.91 291.101 764.309 291.101C763.555 291.101 762.708 290.441 762.425 289.594C761.954 288.463 761.106 288.275 758.186 288.746C755.078 289.217 754.418 289.123 753.947 287.521C753.57 286.579 753.57 285.072 753.853 284.319C754.136 283.565 753.759 282.34 752.911 281.681C752.157 281.022 751.498 279.985 751.498 279.42C751.498 278.007 746.506 273.392 741.607 270.283C738.122 268.117 737.274 266.892 735.956 262.276C734.919 258.697 734.731 256.625 735.39 256.436C736.615 256.059 735.108 251.821 732.753 249.183C731.905 248.147 730.586 245.227 729.927 242.589C729.267 240.046 728.231 237.597 727.478 237.126C726.818 236.749 725.971 235.148 725.594 233.64C725.217 232.039 724.369 230.815 723.616 230.815C722.768 230.815 722.485 230.344 722.862 229.684C723.239 229.025 723.71 226.481 723.804 224.032C723.898 220.641 723.616 219.511 722.674 219.511C721.92 219.511 721.355 218.946 721.355 218.286C721.355 217.721 720.036 216.497 718.435 215.743C714.95 214.047 713.537 211.598 711.464 204.157C710.24 199.541 709.674 198.787 707.696 198.787C705.341 198.787 700.632 194.549 700.632 192.382C700.632 191.628 699.784 191.252 698.559 191.44C697.052 191.628 696.11 191.063 695.545 189.745C694.98 188.614 692.813 186.824 690.647 185.788C686.031 183.527 671.996 181.926 671.054 183.622Z" fill="white"/>
<circle id="564" cx="600" cy="720" fill="#5CE50D"/>
<circle id="565" cx="344" cy="357" fill="#E52A0D"/>
<circle id="567" cx="762" cy="357" fill="#E52A0D"/>
<circle id="566" cx="869" cy="720" fill="#E52A0D"/>
</svg>
