<svg width="1000" height="1000" viewBox="0 0 1000 1000" fill="none" xmlns="http://www.w3.org/2000/svg">
<path fill-rule="evenodd" clip-rule="evenodd" d="M281.403 15.8154L281.648 16.3057L282.139 16.918L282.384 17.041L282.507 16.4277L282.874 16.7959L282.996 17.1631L283.486 17.4082L283.609 17.6533L283.854 17.7754L284.711 18.1436H285.325V17.6533L285.569 17.5312L287.162 16.1826L287.408 16.0605L287.652 16.1826L288.265 17.1631L289.246 17.8984L290.839 19.124V20.2266L291.574 20.7168L292.063 20.8389L292.431 21.084L293.043 20.9619L293.534 20.5938L293.657 20.7168L294.882 21.6973L295.617 23.0449L296.23 24.0254L296.474 24.2705L297.088 25.1279L297.823 25.8633L297.944 26.2305L298.557 26.5986L299.292 26.7207L299.661 26.9658L300.273 27.2109H301.009L301.867 27.0879L302.233 27.333L302.969 27.9463L303.827 28.4365L304.193 28.1914L304.439 28.4365L304.807 28.3135L305.175 29.1709L305.541 29.5391L306.399 30.0293L306.769 30.2744L307.381 30.3965L307.747 30.6416L308.359 31.377L309.095 30.6416L313.018 27.9463L313.996 26.8428L314.486 25.8633L314.731 25.7402H316.325L318.162 25.373L319.633 24.6377L322.451 23.167L323.799 22.7998L324.657 22.4316L325.393 22.1875L326.617 21.4521L327.72 20.3486L328.946 19.124H332.989L334.215 19.2461L335.439 19.124H338.381L340.587 19.001H343.036L343.159 18.8789L344.263 19.8594H344.384L344.507 20.5938L344.753 21.3291L344.875 22.0645L345.119 23.167L345.365 24.6377L345.61 25.373L345.854 26.1084L346.101 26.4756L346.346 26.8428L346.836 27.0879H347.938L348.919 26.7207L350.021 26.2305H350.756L351.124 26.4756L351.368 26.7207L351.491 27.333L351.614 27.0879L352.35 25.6182L352.839 24.8828L353.451 24.0254L354.556 22.4316L354.922 21.8193L356.516 19.6143L357.128 18.7559L357.374 19.001L357.986 18.8789L358.476 19.001L358.965 19.4912L359.088 19.8594L358.599 20.2266L358.722 21.8193L359.088 22.5547L360.559 23.7803L362.519 25.25L362.642 25.1279L363.623 25.6182L363.989 26.3535H364.358V27.0879L364.479 27.2109L366.072 26.9658L369.993 25.0049L371.832 23.7803L372.199 23.167L373.792 24.5146L376.856 27.2109L377.223 29.416L380.654 31.0088L381.267 32.3574L383.839 30.7646L384.208 31.377L384.453 31.6221V31.9893L384.085 32.4795L384.208 32.9697L384.085 33.3379L384.453 33.7051L384.574 33.9502L385.065 34.3174L386.291 32.1123L386.657 31.7441L386.903 31.9893L386.536 32.2344L386.291 32.7246V33.2148L386.536 33.7051L387.271 34.0723L388.005 34.1953L388.619 33.9502L389.354 33.7051L389.967 33.8271V34.0723L389.109 34.4404L388.619 35.1758L387.516 35.4209L387.148 35.2979L386.78 36.1553L387.148 36.7686L387.393 37.3809L388.128 38.2383L388.374 38.8516L389.845 39.709L391.682 40.6895L393.397 41.792L393.521 42.6494L394.011 43.5078L394.377 44.4873L394.746 44.3652L394.989 45.1006L394.623 45.4678L396.829 47.5508L399.77 50.4922L400.382 50.9814L400.995 51.7168H400.626L399.891 53.1875L400.137 54.4131L400.872 56.373L402.587 60.7842L403.078 61.7646V62.1328L402.343 62.377L402.097 62.7451L402.22 63.6025H401.361V63.7256L401.974 64.2158L402.955 64.9502L405.527 67.2783L406.875 68.3818L407.488 68.9941L408.346 69.6064L409.693 70.832L411.41 72.4248L417.291 71.4443L418.884 71.0771L421.579 72.915L424.031 74.5078L425.133 75.3662L425.623 77.0811L427.583 83.4531L427.829 84.4336L428.318 86.1484L429.666 88.5996L430.77 90.8047L436.773 88.8447L436.161 87.374L440.204 86.2715L441.92 92.6426L441.062 92.8877L441.552 94.1133L441.308 94.2354L441.552 94.7256H441.675L441.798 94.8486L442.287 96.5635L444.616 95.9512L445.352 98.5244L447.557 97.9121L452.948 103.303L456.256 106.734L454.541 111.022L455.276 112.125L455.644 112.003L455.767 112.615L456.624 115.556L459.933 114.698L461.403 119.232L462.139 122.418L461.524 122.541L461.893 124.134L462.628 123.889L463.24 126.339L463.607 126.217L464.099 126.339L464.466 126.217L464.834 126.462L465.323 126.339L465.569 126.707L466.182 126.584V126.094L466.549 126.217L466.794 125.972L468.265 125.358L468.388 125.481L468.754 125.113H469.856L472.062 125.358H475.003L476.105 125.481L476.352 123.766L476.597 122.785L476.841 121.683L477.332 119.723L477.699 117.517L481.007 118.864L483.948 120.09L484.684 120.335L484.561 121.192L484.193 122.908L483.948 124.746L483.704 126.217L483.458 126.829L481.988 127.074L481.498 128.422L481.13 129.647V130.75L480.886 134.794V138.715L480.518 138.592V138.715L481.007 139.205L480.886 140.062L480.027 142.391L481.13 143.738L481.007 144.474L480.64 146.189L481.498 149.865L478.68 153.051L478.067 155.134L477.576 157.095L476.964 158.688L476.105 159.668L474.637 161.138L474.758 161.996L475.249 164.937L475.616 167.387L475.738 168.735L479.905 167.387L481.007 169.348L483.09 172.288L482.723 172.901L483.704 174.494L484.684 176.332L484.193 176.823L485.052 178.048L486.031 179.885L486.399 180.375L485.664 180.866L484.929 181.602L483.948 182.703L483.458 183.562L482.846 184.42L481.865 185.521L480.15 186.38L477.821 187.851L475.249 189.321L476.72 191.648L475.616 192.261V194.344H486.521L488.114 195.568L489.708 196.673L491.301 197.897L492.28 198.021L492.526 198.387L493.139 199.245L493.016 199.613L493.261 199.98L493.016 200.349L493.505 200.47L493.751 200.716L493.874 200.47H494.24L494.486 200.716V201.084L494.24 201.451V201.817L494.853 202.799H494.731L494.119 202.922L493.505 202.799L493.384 202.922L493.751 203.534L493.874 204.515L493.751 204.759L493.505 204.882H493.016L492.526 205.127L492.157 205.371L492.28 205.74L492.893 205.983L492.648 206.229L492.036 206.353L493.874 207.823L494.609 208.312L496.446 209.171L498.406 210.15L500.123 210.028H501.837L502.45 212.479L502.818 212.968L503.063 213.091V213.826L503.431 213.949L503.677 213.826L504.412 216.155H503.431L503.677 217.626L505.637 217.748L506.003 218.238L506.249 218.361L506.372 218.238L506.738 217.87L507.107 219.709L507.23 220.688L508.332 221.915L508.821 222.527L509.68 222.894L510.415 223.263L511.763 224.364L512.621 224.977L513.601 226.693L514.336 227.55L515.562 228.897H517.399L517.767 230.245L518.135 231.472L518.258 232.084L518.624 233.063L519.482 232.942L523.403 232.084L525.854 231.595L526.957 231.349L526.467 235.27L528.182 235.515V235.761L529.897 234.779L531.368 237.721L532.594 240.294L532.96 240.048L534.922 239.068H535.778L536.76 238.823L538.23 238.211L540.067 238.088H541.049L542.027 236.862L542.763 236.25L542.027 235.27L542.763 234.657L542.519 234.411L543.254 233.799L544.11 233.063L544.602 233.555L544.969 234.411L546.562 232.942L547.175 233.678L547.42 233.432L548.033 234.044L547.42 234.534L548.033 235.27L547.42 235.761L547.298 236.127L547.541 237.229L548.155 238.211L548.769 240.171L549.012 240.66V241.151L549.258 242.622L550.116 243.602L551.341 244.705L552.321 245.44L551.341 247.891L554.159 251.566L554.895 250.954L555.753 251.444L558.814 253.037L559.919 253.527V253.772L560.408 253.894L560.531 254.14L561.144 254.385L563.839 256.591L564.085 256.712L567.147 253.527L568.495 254.14H569.353L569.23 254.385L570.455 254.508L571.805 254.752L572.049 254.14L572.906 254.385L572.783 255.12L574.132 255.61L574.254 255.12L575.356 255.241L575.112 255.977L576.092 256.223L578.91 258.674L580.503 257.693L585.159 259.53L586.384 256.835L587.365 257.693L587.733 258.06L587.978 258.795L588.346 258.918L588.958 259.407L589.202 259.653L590.796 260.389L591.164 260.878L591.531 261.124L591.899 261.613L592.267 262.472L592.512 263.207L592.756 263.453L593.124 263.574L593.491 263.942L593.614 263.696L596.31 264.555L600.476 266.148L600.599 266.638L602.314 270.927L602.805 271.171L603.171 270.927L603.783 271.171L604.642 271.539H605.132L605.989 271.294L607.094 273.499L607.583 274.234L607.706 274.97L608.441 277.299L608.195 279.503L607.46 279.994L603.906 281.954V282.321L603.049 282.689L602.805 283.057L602.192 282.936L601.823 283.057L601.334 282.936L600.844 283.057L599.74 283.915L599.617 284.65L599.374 285.14L599.128 285.508L599.005 286.243L598.516 286.61L598.393 287.591L598.148 287.714L598.639 288.693L599.128 289.429L599.74 289.797L600.231 290.286L600.476 291.268L599.617 291.88L599.005 292.615L598.882 293.228L598.27 293.718L597.657 294.575L597.291 295.311L596.799 295.678L596.31 295.923L595.942 297.761L595.574 298.25L594.716 298.864L594.595 299.354L594.35 299.6L594.227 300.09L594.473 300.824L594.716 301.191L595.208 302.416L595.697 303.887L591.531 304.868L590.306 305.113L590.184 305.604L589.816 305.847L589.448 305.48L589.571 304.868H588.958L587.733 304.991L587.365 305.113H587.119L586.875 304.622V305.234L586.63 305.604L586.018 305.847L586.14 306.582H586.018L585.65 306.093H585.282L585.65 306.582L585.282 306.705L585.036 306.461V306.828L584.915 307.074L584.424 307.317L584.18 307.074V306.582L583.567 306.951L583.444 307.074L583.076 306.828L582.832 307.563L582.586 307.687L582.464 307.563L582.709 307.074L582.464 306.951L582.218 307.317V306.951L582.097 306.828L581.852 307.44L581.729 307.317V306.828L581.484 306.951L580.993 307.44L580.626 307.563L580.014 307.687L579.401 308.422L578.91 308.911L579.522 309.523L581.852 312.097L582.097 311.729L583.567 312.711L582.832 313.323L583.935 314.302L584.424 314.548L587.119 315.772L586.875 316.385L588.467 317.12L587.119 319.203L588.836 320.674L591.285 322.512L592.633 323.615L593.859 323.247L596.433 323.738L598.27 324.228L598.882 324.718L599.863 325.209L600.599 325.698L601.7 326.311L603.783 327.292L604.765 327.781L606.848 329.252L607.583 328.517L608.441 328.884L608.563 328.761L609.666 329.496L610.155 329.619L610.646 329.987V330.11L611.626 331.09L611.503 331.579L611.626 331.824L612.607 332.56L612.729 333.295L612.484 333.541H612.361L612.238 334.03L612.361 334.643L612.852 335.133L613.22 336.113L613.586 336.604L613.709 337.339L613.464 337.707L613.586 337.951L613.832 338.563V340.157L613.955 341.382L612.852 341.75L611.26 342.24L608.931 343.098L607.094 343.221L605.377 343.588L604.519 344.568L603.294 345.181V345.425L603.049 345.304L602.192 345.794L601.823 345.548L601.088 345.794V346.16L600.844 346.406L600.476 346.283L600.231 346.039L599.863 345.916L599.617 346.039V346.529L599.251 346.651L598.516 345.794L598.27 345.671L597.78 345.916L597.534 346.16V346.651L596.922 346.772L596.678 346.529V346.283L596.556 346.039L595.82 345.794L595.451 345.181H595.085L594.839 345.548L594.962 345.794V346.039L594.35 345.916V345.304L594.104 345.181H593.737L593.614 345.548V346.039L593.859 346.529L593.614 346.896H593.124L592.756 346.651L592.267 346.283V345.916L592.021 345.671L591.654 345.794L591.408 346.039L591.164 345.916H590.919L590.429 345.425L589.571 345.671L589.202 345.794L588.836 346.16H588.346L588.101 346.039L587.978 346.529L587.854 346.651L587.119 346.406L586.875 346.529L586.998 347.019L586.507 346.896L585.65 346.529L585.282 346.896H585.036L584.67 346.529L583.812 346.16L583.199 346.529L583.321 347.019L582.953 347.264L582.464 347.019L581.361 346.772L580.87 346.896L580.503 347.019L579.891 347.508V347.999L579.646 348.243V348.734L579.033 349.47L578.787 350.572L578.42 351.062L578.91 351.553L578.42 352.165L578.666 352.288L578.543 352.409L578.91 352.778L579.278 352.655L579.155 353.514L578.787 353.636L578.666 353.391H578.42L578.298 353.021L577.686 353.268V353.636L577.931 353.88V354.126L578.298 354.248V354.492L578.543 354.615L578.787 354.126L578.91 354.248V354.615L578.543 355.104L578.175 355.228L578.298 355.474L579.278 355.351L579.401 355.474L579.646 356.209L579.401 356.454H579.155L578.91 356.209L578.175 356.698L578.543 357.802L582.464 359.271L583.688 363.56L584.424 367.604L585.036 368.461L585.895 368.953L588.101 369.81L597.291 369.074L601.579 369.81L610.155 370.055L613.097 370.667L616.405 372.384L619.958 374.344L622.531 379.245L622.654 379.734L623.267 384.146L623.022 392.11L624.002 394.562L624.859 396.03L625.718 396.766L626.697 397.38L628.291 397.87L634.294 395.909L635.521 396.153L637.112 396.766L639.195 397.87L641.034 399.095L641.891 399.463H642.872L644.955 399.34L645.813 399.095L649.979 397.747L652.307 397.501L654.269 397.747L655.616 398.236L656.595 398.728L658.678 399.953L660.148 400.075L662.478 399.095L663.457 398.972L681.102 403.138L684.164 404.119L685.881 404.362L688.821 403.996L690.292 404.854L691.518 408.774L691.64 409.756L693.846 412.695L695.314 413.922L695.684 414.778L695.438 418.211L696.908 425.193L699.114 427.276L703.034 430.586L703.647 431.198L704.139 433.648L704.874 436.956L712.96 442.961L713.695 443.328L714.554 443.574L715.655 443.696L717.616 443.574L719.332 443.328H720.803L721.538 443.084L722.273 442.716L722.886 442.226L723.375 441.736L723.865 441.001L724.356 440.143L724.601 439.039L725.458 436.1L727.541 432.057L730.237 425.438L733.422 419.066L736.486 415.393L737.222 414.411L737.588 413.187L738.446 411.104L738.692 409.878L739.059 409.143L738.938 408.039L739.182 406.814L739.305 406.445L739.671 406.079L741.265 405.221L743.471 403.261L744.083 399.953L744.818 397.87L745.799 396.645L747.514 395.541L749.474 395.174L758.664 393.581L759.399 393.214L760.258 392.6L761.482 391.62L762.83 389.169L764.913 386.597L766.507 385.615L772.511 384.391L773.368 384.759L775.206 385.738L777.901 389.048L780.23 391.987L782.926 394.316L786.112 397.624L788.072 399.707L789.543 400.565L790.646 402.402L791.258 403.015L796.771 407.304L798.731 408.407L800.693 409.021L801.673 409.264H802.897L807.31 408.285L809.147 408.407L810.251 409.143L810.863 410.245L811.843 411.104L814.661 412.082L821.401 418.7L823.974 422.008L825.321 425.685V426.541L825.076 427.399L824.587 428.257L822.749 428.992L819.195 430.953L815.273 433.036L813.682 433.158L813.069 433.036L810.74 432.178L805.104 427.768L802.285 425.438L797.996 423.969L794.321 424.826L791.993 426.174L790.155 429.115L789.052 437.691L787.704 440.266L785.744 442.472L784.886 442.961L781.946 443.574L779.005 443.084L774.227 441.98H773.858L773.123 442.104L771.897 442.716L771.285 443.574L771.162 444.187L771.04 445.044L771.408 447.494L771.531 447.862L772.021 448.721V449.577L773 451.783L773.858 452.887L775.697 453.989L776.922 455.582L778.27 456.562L779.128 457.665L779.005 458.155L778.637 458.768L778.514 459.135L778.882 464.158L779.495 466.733L780.476 468.816L781.7 472.124L782.313 474.084L782.926 476.534L783.415 477.393L785.254 478.985L786.846 480.579L787.827 482.048L788.929 484.254L789.298 484.499L789.91 485.112L790.646 485.234L791.993 485.357L792.482 485.602L793.218 485.848L795.301 486.705L797.261 487.563L799.344 488.053L802.775 487.931L804.002 488.176L808.903 490.38L809.639 491.115L810.128 491.729L810.986 493.444L811.23 494.915L811.353 496.629L811.109 498.468L810.863 499.203L809.639 502.021L809.27 502.878L809.026 503.859L808.903 505.453L809.026 506.188L809.27 506.801L809.393 507.044L808.045 507.902V508.148L808.412 508.638V509.006L808.045 508.884L807.799 508.393V508.025L808.168 507.779L807.922 507.413L807.433 507.658L806.82 508.515L806.329 508.638L806.208 509.25L805.962 509.741L805.716 509.862L805.35 509.373L804.368 508.638L804.124 508.761V509.127L804.368 509.496L804.614 509.741L804.737 510.108L804.368 510.598V511.456L804.246 511.579L803.756 512.314V512.559L803.633 512.681L802.897 512.804L802.775 512.927V513.416L803.144 513.662H803.511L803.879 513.907V514.274L803.39 515.133L802.897 515.499L802.408 515.256L802.162 514.642L801.55 514.764L801.428 515.01L801.796 515.377L802.041 515.745L802.408 515.991L802.775 516.48L802.654 516.725L802.408 517.216H802.041L801.796 516.97L801.428 517.093L801.061 517.339L801.184 517.828L800.814 518.074L800.448 517.951V517.705L800.202 517.339H799.958L799.467 517.705L799.223 518.317L799.344 518.687L799.223 519.176H798.731L798.61 519.543L799.101 519.788L799.223 520.278V520.4L799.836 520.278L800.202 520.034L800.325 520.891L800.814 521.136L801.184 521.014L801.307 521.136V521.626L801.061 522.117V522.483L800.938 522.853L801.061 523.832L800.693 523.709L800.325 523.342L800.202 522.853L799.59 522.974L799.467 523.097L799.713 523.832L798.854 529.223L798.119 533.757L798.365 534.492L798.61 534.982L799.223 535.472L799.836 535.84V537.801L799.59 538.658L799.836 538.781V539.638L799.59 540.129L799.101 540.496L799.223 540.985L799.59 541.354L799.713 541.477L800.693 541.967L799.958 542.579L799.59 543.191L799.713 543.683L800.079 544.295H799.101L798.488 544.539H798.119L797.875 544.662L797.261 544.539L796.282 544.295L795.67 544.539H794.076L793.095 544.662L792.974 546.622L792.116 546.378L790.646 546.01L789.298 545.766L788.316 546.745L787.46 546.622L785.621 546.868L784.886 546.991L784.519 547.357L784.15 547.97L785.009 548.584L785.867 549.074L786.112 549.44V549.687L785.377 550.422L785.989 551.157L786.479 551.523L785.989 552.136L785.867 552.628L785.621 553.483L784.519 553.606L784.396 554.219L784.273 554.711L783.661 554.954L782.803 555.077L781.823 555.2L780.72 555.077L780.107 555.323H778.024L777.045 555.077L776.063 554.833L775.329 555.077L774.471 555.567L774.104 555.936L773.123 556.059L771.897 555.936L770.796 555.689L769.938 555.567L768.713 555.689L768.59 556.794L768.467 557.283L767.242 557.406L766.507 557.65L765.159 558.264L764.547 558.142L763.688 558.264L762.953 558.754L763.32 559.733L762.83 560.468L763.688 560.837L764.301 561.572L763.076 562.552L762.83 562.92L762.953 563.532L762.708 564.268L763.442 564.635L763.199 565.982L763.565 566.597L763.442 567.821L763.199 569.046V570.763L762.585 571.741L762.341 572.477L762.585 572.967L762.83 574.438L762.585 574.929L762.095 575.173L761.359 575.541L760.747 576.03L760.012 576.521L759.522 577.012L759.276 577.624V578.359L759.646 579.339L760.135 580.074L759.89 580.932L760.258 581.422V582.157L760.135 582.893L759.89 583.505L759.399 585.221L759.522 585.833L759.399 587.427L759.154 588.039L759.276 588.283V589.264L758.91 590.366L758.419 593.308L758.175 594.409L757.807 596.003L757.685 596.861L757.439 597.474L756.827 598.821L756.092 599.925V600.658L755.846 601.394L755.356 602.252L754.621 602.741H754.375V602.987L754.132 603.6V604.581L753.763 605.193V606.174L754.253 606.541L754.375 606.786L754.498 607.399L754.621 607.643V608.378L754.744 608.747L755.233 609.236L755.602 609.849V610.339L755.969 611.319L756.336 611.81L756.704 612.178L756.827 612.79L756.95 613.279L757.193 613.648L757.316 614.505L758.052 615.24L758.419 616.221L758.91 616.467L759.646 617.079L760.135 617.938L760.381 618.304H761.482L761.729 618.427L761.605 618.671L761.116 619.285V620.021L760.993 620.51V621.612L760.87 622.104L760.993 622.96L761.237 623.451L760.993 623.695L760.747 624.187L760.624 624.553L760.258 625.288L760.624 626.023L760.993 626.514L761.605 627.003L761.729 627.738L761.973 628.474L762.095 628.597L761.973 629.577L762.095 630.189L762.464 630.802L762.341 631.292L762.464 632.15L762.341 632.64L762.585 633.252L762.708 633.743L763.199 634.11L763.442 634.846L764.056 635.214L764.178 635.703L764.668 636.316L765.036 636.562L764.791 637.174L765.159 637.297L765.526 637.909L765.895 638.153L766.384 638.276L766.63 638.521L767.365 638.768L767.609 639.135H768.222L768.467 639.38L768.713 639.747L768.957 639.87V640.359L769.325 640.851H769.569L770.061 641.218L770.182 641.463L770.673 641.83L771.04 642.075L771.285 642.319L771.897 642.688H772.265L773 642.934H773.368L773.614 643.055L774.35 642.934L774.716 643.055L775.451 643.79L775.818 644.402V645.017L775.941 645.629L776.187 645.996L776.799 646.364L777.412 647.467L777.289 648.814L776.554 649.673L776.31 650.039L775.574 650.774V651.021L776.063 651.387L776.677 652.491V652.734L777.166 654.328L777.045 655.063L777.412 655.799L777.657 656.9L777.534 657.023L776.922 658.249L776.554 658.617V659.106L776.677 659.353L776.922 659.965L778.147 660.946V661.436L777.78 662.537L777.412 662.906L777.289 663.272V663.886L776.677 664.498V664.743L776.799 665.969L776.922 666.337L777.045 667.072V667.562L777.657 668.543L777.78 669.399L778.27 669.645L778.393 669.891L778.882 670.626L779.249 671.115L779.495 671.604L779.249 672.586L779.372 673.444L779.128 673.811V674.178L779.617 675.036V675.771L779.984 676.629V677.241L780.107 677.364L780.843 678.223L781.332 678.712V679.324L781.211 679.693L781.578 680.306L782.19 681.162L782.436 681.53L783.049 681.897L783.171 682.633V684.104L783.049 684.472L783.661 685.328L784.029 685.574L784.273 685.94L784.519 686.187L784.642 686.799L784.519 687.779L784.642 688.146L785.621 688.759L786.725 689.373L787.215 689.74L787.827 689.985L788.072 690.353H788.929L789.298 690.106H790.155L790.522 689.985L791.135 690.106L792.116 689.862L792.605 690.965L792.852 691.211L793.341 691.577L794.076 692.559L794.565 693.906L794.688 695.254L794.812 695.622L795.301 696.112L795.67 696.479L795.913 696.725L796.404 696.848H796.895L797.261 697.091L797.753 697.337L799.223 697.949H799.59L799.836 698.195L800.325 698.438L801.307 698.562L801.919 698.317L802.162 698.072L802.408 697.705L803.267 697.337L803.879 697.705H804.246L804.858 697.949L805.594 698.562H805.962L806.941 699.053L806.82 699.909L807.063 700.521L807.556 701.626L808.045 702.361V702.728L808.168 703.463V703.954L808.045 704.688L808.903 705.423L809.27 706.037L809.639 706.281L809.76 706.404L810.374 706.65L811.109 706.771H811.476L812.088 706.894L812.578 706.527L813.069 706.65L813.436 706.894H813.805L814.294 706.771H814.906L815.765 706.404L816.377 706.527L817.112 706.404H817.848L818.95 707.14L819.439 707.629L819.562 707.875L820.054 708.12L820.666 708.241H821.769L822.137 708.61L822.872 709.1L823.361 709.59L823.484 709.835L823.729 710.081L824.587 710.447L825.567 710.693L825.812 711.06L825.935 711.429V711.795L826.18 712.286L826.057 712.653V713.143L825.935 713.389L826.18 714.124L826.792 714.613L827.038 714.736L827.527 715.104L828.263 715.595L828.386 715.839L828.875 716.207L829.733 717.31L830.101 717.801L830.223 718.657L830.469 719.025L830.713 719.393L831.325 719.638L832.061 720.25L832.673 720.373H832.919L833.531 720.496H833.776L834.021 720.74L834.512 720.862L835.002 721.353L835.614 721.598L836.227 722.456V722.579L836.35 723.314L836.227 723.559L836.473 723.804V724.783L836.839 725.151L836.595 725.519L836.718 725.887L836.962 726.01L836.839 726.254L837.33 726.989L837.574 727.112V727.48L837.942 727.725L837.82 728.093L838.187 728.337L838.065 728.951L838.187 729.195L838.678 729.44L839.291 730.176V731.034L839.045 731.4L839.168 731.891L839.045 732.259L838.801 732.749L839.168 733.729L839.413 733.974L839.78 734.342V734.954L839.903 735.321H840.148L840.639 735.444L841.74 735.566L842.353 736.057L842.599 736.425V736.792L843.088 737.16L843.457 737.281V738.263L843.579 738.875L843.7 739.12V739.61L843.579 739.979L843.823 740.469L844.559 740.958L844.805 741.938H845.171L845.662 742.306L845.906 742.674L846.029 743.286L846.152 743.776L846.642 744.512L846.888 744.88L847.377 745.247L847.746 745.859L848.235 746.104L848.358 747.084L848.725 747.453L849.46 747.696L849.95 748.065L850.318 748.432L850.808 748.311L851.789 748.555L852.524 749.046L852.769 749.536L853.137 750.025L853.626 750.148L854.116 750.884H854.238L854.852 751.25L855.097 751.373L855.343 751.862L855.832 752.598L856.199 752.844L857.18 752.354L857.915 752.108L858.404 751.985L859.263 751.862H859.753L860.488 752.354H860.856L861.836 752.477L862.571 752.598L862.816 752.844L863.062 753.09H863.184L863.552 752.844L863.919 753.09L864.531 753.824L865.146 754.191L866.002 754.927L867.105 755.295L867.595 755.173L867.473 755.662L867.595 756.521L867.473 756.887L866.737 757.622L866.493 758.357L866.247 758.48L865.022 759.951L864.164 761.422V761.666L864.899 762.157L865.635 762.893L866.002 763.628V763.994L865.881 764.483L865.39 765.465L865.635 766.2V766.689L865.512 767.18L865.635 767.548L865.758 768.037L865.635 768.406V769.019L865.39 769.385L865.146 770.489L864.776 770.979L864.287 771.837L863.919 772.081V773.552L863.675 774.041L863.552 774.899L862.693 775.512L861.469 776.37L861.223 776.738L860.488 777.228L859.386 778.207L859.018 778.33L858.527 778.698L858.161 779.311L857.303 779.678L856.69 779.801L855.587 780.046L854.852 780.413L854.484 780.536L853.626 781.271L852.278 782.252L852.155 782.496L852.278 782.987L852.033 783.6L851.666 785.07L851.299 785.927L851.054 786.295V786.539L850.931 787.397L850.685 787.766L850.441 788.01L850.564 788.133L849.829 788.868L848.971 789.849L848.848 790.093L848.725 791.196V792.911L845.662 794.505L842.353 796.465L840.026 800.387L838.678 801.243L837.574 801.979L835.737 802.96L832.184 804.553L830.836 805.043L829.854 805.532L828.875 805.778L828.507 806.021L828.753 806.514V807.126L828.998 807.492L828.63 807.738L828.507 808.104L828.63 808.718L828.998 809.086V809.453L828.507 809.821L828.386 810.066L828.507 810.434V811.046H828.753V811.415L828.63 811.781L828.018 812.15V812.64H828.263L828.386 813.007L828.14 813.498L828.018 813.252L828.14 813.129L828.018 812.763H827.771L827.527 813.129L827.65 813.375L827.404 813.498L827.038 813.252V813.619L826.67 813.864L826.424 813.619L825.935 813.741V814.11L826.057 814.354L825.935 814.6L826.057 815.09L826.303 815.212L826.792 816.438L826.547 816.56V816.929L827.282 817.173L827.404 817.418L827.895 817.908L827.771 818.276L827.65 818.521L827.404 819.501L827.159 819.624V820.113L826.915 820.604V820.849L826.547 821.339L825.812 821.216L825.567 821.707L825.076 822.074L824.955 822.442L824.464 822.81V823.299L824.709 823.544V823.667L824.22 824.525L824.341 824.893L824.097 825.138L823.116 825.75L823.361 826.24L823.238 826.485L823.361 826.731L823.116 827.098L822.749 827.588L822.381 827.956L822.137 828.079V828.446L821.646 828.814L821.278 828.691L820.91 828.814L820.543 829.181L820.175 829.059L819.931 828.936L819.562 828.446L819.195 828.2L818.706 828.323L818.583 828.691L818.215 828.814L817.725 828.936L817.479 829.059L816.867 828.814L816.254 828.691L816.132 828.814L815.642 829.181L815.396 829.548L815.273 829.916L814.784 830.406L814.171 829.304H813.436L813.069 829.427V830.651L812.088 831.142L811.353 831.754L810.986 831.877L810.863 832.122H810.617V832.734L810.74 833.102L810.495 833.47L810.005 833.714L809.516 833.593V833.225L809.393 833.102L809.516 832.612L809.393 832.245L809.147 831.877L809.27 831.51L809.026 831.142L808.168 831.019L807.677 830.406L807.187 830.162L807.063 829.916L806.208 829.548L806.085 829.794L805.594 829.548L804.858 830.039L804.614 830.283L803.633 830.774H803.39L802.654 830.039L802.041 829.304L801.673 829.059L801.428 828.814V828.446L800.693 827.711L800.571 827.344L800.325 827.221L799.836 826.731L799.713 826.485H799.223L798.854 826.608H798.488L797.875 827.098H797.261L797.018 827.465L796.895 827.344L796.282 826.976L795.67 826.853L794.935 827.711L794.321 827.833L793.83 827.588L793.587 827.344L793.464 827.711L793.095 828.323V828.446L792.852 829.548L792.482 830.039L791.87 830.529L791.747 831.019L791.504 831.387L791.747 831.877L791.504 832.245L791.626 832.857V833.225L791.87 833.714L791.993 834.449L790.278 832.857L790.033 832.612H789.787L789.298 832.245L788.562 832.366L788.195 832.122L787.704 831.51L787.337 831.387L786.969 831.019L786.356 830.897L785.744 830.162L785.254 829.794H785.009L784.763 830.162V830.406L784.273 830.651L784.029 830.897L783.538 831.142L783.171 831.264L782.68 831.019L782.436 831.264L782.313 831.754L782.067 831.877L781.7 832.857L781.455 832.979L781.578 833.225L781.823 833.593V834.082L781.455 834.205V834.328L781.823 834.695L781.578 835.797L781.332 836.165L780.72 836.411L780.23 836.9L779.984 837.391H779.249L778.514 837.759L778.393 838.003L777.534 838.861L777.045 838.983L776.799 839.351L776.677 839.719L776.31 839.963L775.818 840.332L775.451 841.066L774.716 841.434L774.471 841.802L774.104 841.925H773.858L773.491 842.169L773.246 841.925L772.879 841.557L772.633 841.434L772.511 841.68L772.021 842.046L771.531 842.292L770.917 842.415L770.061 843.15L769.569 843.272L769.325 843.517L768.713 843.394H768.467L768.344 843.64L768.222 844.129V844.743L768.467 845.477L768.344 845.723L768.222 846.212L768.467 848.052L768.59 848.295L769.814 848.909L769.938 849.889V850.378L770.428 850.501L770.673 850.747L770.917 850.87L771.408 851.849L771.285 852.218L771.531 852.584L771.408 852.83L771.775 853.442V853.932L771.652 854.423L771.897 854.913L772.633 855.402L772.756 855.771L773 856.015L773.246 856.261L773.491 856.507L773.858 856.873L774.104 857.119L774.594 857.241L774.471 857.976L774.594 858.221L774.962 858.59V859.079L775.451 859.324L775.574 859.814L775.697 860.181L776.187 861.162L776.431 861.285L776.554 861.651H777.166L777.657 862.021H777.901L778.27 862.51L778.76 862.877L778.882 863.245L779.005 863.857L778.76 864.104L778.514 864.716V865.082L778.393 865.328H778.147V865.574L778.27 866.063L778.147 867.411V867.9L777.289 868.023H776.677L776.31 868.27L776.431 868.391L776.31 868.882L776.063 869.126L775.697 869.861L775.206 870.229L774.471 870.842V871.454L774.227 871.823L774.104 872.68L773.735 873.292L773.858 873.66L773.98 873.906L773.858 874.519L773.368 875.254L773 875.375L771.897 875.498L771.531 875.866V876.233L771.775 876.723L771.897 877.214L772.756 877.458L773.491 877.581L773.735 878.072L773.98 878.316L774.104 878.562L774.594 879.052L774.35 879.787L774.227 880.276L773.98 881.135L773.614 881.624L773.246 881.87L773 882.236V882.728L772.265 883.586L771.531 884.075L771.897 884.442L772.021 884.688V885.669L771.162 885.913L770.673 886.036L771.408 886.402L773.123 887.384L772.633 888.854V889.344L772.388 889.467L772.021 889.835L771.531 889.712L771.408 890.079L771.652 890.447V891.06L771.531 891.55V891.918L771.285 892.408L771.162 892.651L770.917 893.143L770.55 893.266V893.633L770.305 894.245V894.857L770.182 895.593V896.574L769.938 897.187L769.814 897.922L769.938 898.288H769.814L769.569 898.534L769.202 899.146L768.59 899.636L768.344 899.882L768.467 900.494L768.344 900.74L768.099 901.598L768.344 902.454L768.099 903.067L768.222 903.189L767.854 903.802L768.099 904.171L768.222 904.906L768.099 905.396L768.467 905.272H769.448L770.305 905.029L770.796 905.272L772.879 905.885L773.368 906.254L773.614 906.131L773.858 906.498V906.743L774.471 907.479L774.716 908.091L775.697 908.826H775.941L776.431 909.072H776.677L777.045 909.685L777.412 909.931L778.147 911.155L778.27 911.645L778.637 912.257V912.503L779.005 912.748L779.863 913.115L780.353 913.605L780.843 913.851L781.211 914.586L781.7 914.34H782.313L783.049 914.953L783.294 915.321L783.538 915.934L783.906 916.423L784.763 916.913L785.254 917.648L785.498 918.017L785.867 918.384L786.479 918.875L786.725 918.752L787.092 919.241L787.215 920.223L787.46 920.835L787.827 921.202V921.938L787.95 922.183L788.316 922.306V922.673L788.929 924.021L789.052 924.512V925.368L789.175 925.613L788.808 925.98L788.685 926.472L788.316 926.961L788.072 927.207L787.95 927.451L788.195 927.696L788.072 927.942L787.46 928.799L787.215 929.167L786.846 929.29L786.479 929.657V930.761L786.356 931.005L786.233 931.617L785.867 931.862L786.356 932.598L786.479 932.844V933.088L785.989 933.823L786.112 934.191L785.989 934.681L786.112 934.927L785.744 935.539L785.377 936.029V936.764L785.132 936.887L785.009 937.254L785.254 937.866L785.132 938.112V938.848L785.009 938.97L784.886 939.46L785.009 939.705L784.15 940.195L783.415 940.685L783.171 941.176L782.803 941.666L782.926 941.909L782.559 942.891V943.38L782.68 943.871L782.436 943.992L782.313 944.361L782.436 944.728L782.313 945.342L781.578 945.954H781.211L780.843 945.586L780.23 945.342L779.617 945.709H778.882L777.78 945.586L777.166 945.709L776.677 945.954L775.941 946.198H775.329L775.083 946.075L774.962 946.198V946.811L775.206 947.057L775.451 947.792L775.329 948.037L775.451 948.527L775.329 949.017L775.451 949.385L774.962 949.752L774.104 949.998L773.368 950.487L773.246 951.223V951.591L772.756 952.081L772.633 952.447L772.021 953.183L771.652 953.918L771.897 954.53L771.775 955.021V955.512L772.144 956.124L772.021 957.104V957.472L772.388 957.839L772.021 958.33V958.574L771.775 958.942L771.652 959.065L771.531 959.31L771.285 959.923L770.917 960.29L771.04 960.536L770.55 960.902H769.814L769.569 961.148L768.834 961.515L768.222 961.761V962.006L767.854 962.373L767.609 962.619L766.874 962.985L766.751 962.862V962.496L766.384 962.006L766.261 961.638L765.648 960.902L765.403 960.413L765.282 960.779L764.913 961.148L764.668 961.271L763.935 961.515L763.32 961.393L762.953 960.902L761.973 960.779L761.852 961.271L761.482 961.638L761.359 962.006L761.482 962.25H760.87L760.747 962.373H759.276L758.91 962.985L758.664 962.862L758.175 963.108L757.807 962.862V962.74L757.562 962.862H757.316L756.827 962.985L756.336 963.231L755.969 963.354L755.233 962.74V962.985L755.356 963.476L754.744 964.211L754.621 964.823L754.253 965.314V965.804L754.009 965.559L753.64 965.804L753.519 965.438L753.15 965.068V964.702L752.784 964.088L752.415 963.967L752.292 964.211H752.049L751.803 963.721L750.944 963.476L750.821 963.598L750.578 963.476L750.7 963.231H750.332L749.966 963.721V963.354L749.597 962.862L749.23 962.74L748.984 962.127H748.861L748.738 961.884L748.372 961.515V961.271L748.004 961.025L748.126 960.657L747.637 960.29L747.514 960.044L747.024 960.167L746.778 960.29L746.534 960.902L745.799 960.413L745.92 959.801L745.554 959.555L745.187 959.065L744.941 958.942L744.329 958.33L743.594 957.961L743.348 957.472H743.104L742.368 956.613L742.246 956.001L742.735 954.53L742.858 953.795L743.348 953.183L743.471 952.447L743.348 951.712L743.104 951.223L742.612 950.977L742.368 951.223L741.511 951.346L740.897 951.835L740.529 952.081L739.917 952.816L739.794 953.183L739.428 953.429L738.938 953.918H738.692L738.323 953.673L738.202 953.429L737.834 952.938L737.711 952.57L737.222 952.447L736.731 952.693L736.24 953.306L735.505 953.795L735.384 954.287L735.261 954.653L735.384 955.635L735.261 956.001L735.016 956.124L735.139 956.37L735.016 956.491L734.036 956.736L733.913 956.491L733.545 956.247L732.565 956.491V956.613L732.688 956.982L733.178 957.104L733.422 957.472H733.913L733.545 957.839H733.422L733.178 958.33L732.81 958.696L732.32 958.942L732.197 959.31L731.83 959.678L731.462 959.923H730.973L730.727 960.044L730.114 960.167L729.991 959.923L730.114 959.678L729.502 959.188L728.89 959.432L728.399 959.555H727.787L727.296 959.801L727.052 959.432L726.439 958.942H725.704L725.336 959.065L724.723 959.801L724.233 960.044L723.742 960.413L723.13 960.536L722.886 960.779L723.009 961.271V962.496L722.64 962.862L722.15 963.108L722.027 963.231L721.538 963.354L721.659 963.598L721.415 963.844L721.17 964.333L721.292 964.702L720.926 964.823L720.312 965.438L719.576 965.191L719.455 964.823L719.087 964.702L718.964 964.456L718.597 964.088L718.352 964.211L717.861 963.967L717.493 963.721L716.637 963.354V963.598L716.146 964.333L715.778 964.702L715.655 965.438L715.043 966.05L714.677 966.539L714.431 966.662L713.45 966.416L713.083 966.171L712.96 965.804H712.715L712.471 965.314L711.979 964.823L711.612 965.068L711.489 965.438L711.123 965.559L710.511 966.171L710.142 966.416L709.529 966.171L708.794 967.151H708.549L708.305 966.785L707.692 967.151L707.2 967.397H706.957L706.344 967.521L705.976 967.887L705.486 968.01L704.751 967.887L704.505 967.764L704.139 967.642L704.016 968.133L703.526 968.499L703.28 968.377L702.668 968.745L702.545 968.377H702.178L701.933 967.887L701.442 967.397L701.197 967.521L700.585 967.151L700.216 966.785L699.973 966.662L699.48 966.785L698.991 966.662L698.502 966.906L698.256 967.151L697.89 968.01L697.397 968.499L696.785 968.868L696.541 968.622H696.296L695.929 968.377L695.684 968.499L695.193 968.254L694.948 967.887V967.642L694.458 967.274L694.336 966.785L694.213 966.539H693.846L693.231 966.294L692.619 965.804L692.375 965.559L692.496 965.068L692.375 964.946L691.763 964.702L691.271 964.211L690.536 963.844L690.659 963.598L690.413 963.476L690.047 963.108L689.801 962.985L689.557 963.108L689.188 962.862L688.821 962.74L688.699 962.373L688.332 962.496L687.718 962.373L687.597 962.25L687.105 962.006L686.982 961.761H686.616L686.37 961.271H686.004L685.881 961.025L685.635 960.902L685.269 960.536L685.146 960.167L684.899 960.044L684.533 960.167L684.287 959.678L683.798 959.31L683.675 959.065L683.186 958.819H682.939L682.695 958.574H682.327L682.083 958.33V958.084L681.715 957.961L681.102 958.33L680.367 958.696H680.121L679.754 958.942H679.386L679.632 959.065L679.386 959.432L679.632 959.801L679.386 960.044L679.265 960.902L679.386 961.271L679.142 962.25L678.773 962.862L679.142 963.231L679.019 963.476L678.773 964.211L678.896 964.456L678.65 966.05L678.284 966.416L677.549 967.029H677.059L676.446 967.274L675.955 967.397H675.588L674.853 967.521L674.607 967.764L674.117 967.887L673.505 968.254L673.26 968.133L672.647 968.254L672.401 968.377H672.28L672.157 967.887L671.668 967.397L671.545 966.785L671.299 966.662L671.177 966.05L671.054 965.927L670.933 965.438L670.441 965.314L670.197 965.559H669.706L669.585 965.804L669.462 966.171L669.094 965.804L668.971 966.05V966.416L668.114 966.171L667.868 965.438V964.946L667.623 964.823V964.456L667.133 963.967H666.767L666.275 963.476V963.231L666.031 962.985L665.296 962.74L665.05 962.373H663.825L663.457 962.619L662.844 962.862L661.986 963.354V963.844L662.109 964.211L661.986 964.579L662.109 965.068L662.354 965.681L662.109 965.804L661.865 966.171L661.374 966.416L661.13 966.785L660.639 967.151L660.148 967.764L660.518 968.133L660.271 968.622L659.782 968.989L659.291 969.234L658.924 969.725L658.556 969.97H658.065L657.699 970.093L657.576 969.97H656.718L656.352 969.725L655.982 969.357L655.124 968.868L654.881 969.234L655.004 970.093L654.758 970.216L654.635 971.072L654.39 971.317L654.146 972.176L653.654 972.053L653.533 972.543H653.776L653.654 973.034L653.041 973.523L652.92 973.77L652.186 975.117L651.693 975.238L652.186 975.853L651.816 976.342L651.204 975.974L651.45 976.586L651.327 976.709H650.592L650.469 976.832L650.102 977.444L649.856 977.567V977.936L649.244 978.425L648.998 978.302L648.509 978.548L647.65 978.057L647.405 977.689L647.161 977.567L646.915 977.689H646.18L645.813 977.812L644.343 977.689L643.607 977.077L643.24 976.954V977.2L643.484 977.444L643.24 977.689L642.749 977.812V978.057L643.117 977.936L642.872 978.425L642.137 978.548L642.014 979.037L641.647 979.404L641.524 979.527L641.278 980.631L641.401 980.998L641.034 981.733H640.543V981.979H640.789L640.666 982.469L640.054 982.835L639.808 982.958L639.563 983.081L639.441 983.449H638.829V984.185L638.216 984.062L638.339 984.429H637.971L637.48 984.306L636.868 982.958L636.5 982.591H636.133L635.888 982.223L635.521 982.102V982.223H634.908V982.346L634.294 982.469L633.805 981.979L633.438 982.223H633.192V981.979L632.946 982.102L632.334 981.979L632.09 981.733L631.967 981.12L630.986 980.631L630.619 980.998L630.007 980.875L629.761 980.631L628.659 980.508L627.678 980.386H627.31L627.188 980.14L626.453 980.019L626.085 980.14L625.473 980.019L624.737 979.772H624.493L623.758 979.16L623.022 978.669L622.287 979.16L621.796 979.283L621.675 978.915L620.939 978.792L621.061 979.404L620.204 978.792L619.713 978.548L619.469 978.302L619.346 977.936L619.101 977.812L618.733 977.689L618.61 977.321L618.488 977.077L618.978 976.709L619.101 976.219L618.856 975.484L618.244 974.994V974.626L617.875 974.259L617.998 973.77L617.753 973.155L617.998 972.911V972.42L616.161 970.705L615.547 969.97L615.057 969.604L614.813 969.234L614.444 968.989L614.078 968.745L614.199 968.622L614.813 968.499V968.254L614.321 968.01L614.444 967.764L614.69 967.521V966.539L614.567 966.416L614.813 966.171L614.444 965.804L614.321 965.559L614.078 965.438L613.955 964.946L613.586 964.823V965.068H612.974L612.484 965.559L612.238 965.191L611.995 965.314L611.749 965.804L611.26 965.927V965.804L610.646 966.294L610.524 966.05L610.155 965.927L610.278 965.681V965.068L610.401 964.702L610.769 964.211V963.967L610.524 964.211L610.033 963.844V963.721L610.646 963.476L610.278 963.231H609.789L609.054 962.496L608.563 962.373L608.318 962.006L608.441 961.638L608.686 961.393L608.808 960.902L608.931 960.536L608.808 960.413V959.923L608.686 959.31L608.808 959.188V958.819L608.563 958.453L608.808 957.839L609.298 957.104H609.543L609.42 956.736V956.37L609.666 955.878L610.155 955.756L609.912 954.899H610.033L610.401 954.653L610.524 954.287L610.278 953.552V953.306L609.912 952.57L610.278 952.447H610.646V951.958L611.014 951.591H611.26L611.381 951.1L611.626 951.346L611.749 951.835L612.116 952.324L612.484 952.204L612.607 952.693L612.484 952.938L613.097 953.429L613.464 953.673L613.586 953.06L613.832 952.693L614.567 952.447L614.935 952.57L615.426 952.938L615.303 953.306L615.426 953.552H615.915L616.161 953.06H616.405L616.527 953.429L616.773 953.552L617.263 953.06L618.244 952.57L619.836 952.324L620.327 952.081L620.816 952.204L621.796 951.958L622.041 951.835L622.776 951.712L623.267 951.591H623.758L624.124 951.223L624.247 950.977L624.614 950.733H625.35L625.595 950.364L625.718 949.752L625.841 949.385L626.942 948.158L627.433 946.321L627.801 945.342L628.045 944.974L628.291 944.606L628.78 943.992L628.903 943.503L629.148 942.645L629.026 942.032H628.659V941.297L628.413 940.562L628.045 939.826L627.924 939.214L627.678 938.725L627.556 937.989V937.622L627.31 937.377L627.188 937.01L626.576 936.519L626.453 936.029L626.697 935.66L626.576 935.294L626.208 934.681L625.35 933.577L625.227 933.211L624.982 932.229L625.227 931.862L625.718 931.494L625.962 931.128L626.085 930.638L626.33 930.515L626.697 930.146L626.82 929.902L627.433 929.534L627.924 928.922L628.045 928.678L628.413 928.432L628.903 928.31L629.639 927.451L630.007 927.328L630.986 926.716L631.109 926.595L630.986 926.227L631.354 925.98L631.476 925.736L631.109 925.247V924.756L631.599 924.633L631.722 924.512L632.09 924.633L633.069 924.756L633.438 924.633L633.559 924.266L633.314 924.021L633.069 923.53V923.041L632.702 922.673L632.825 922.55L633.438 922.429L633.928 921.814L635.152 921.079L635.397 920.958L636.868 920.346L637.112 919.854L637.358 919.731L636.991 919.119L637.112 918.629L636.991 918.384L637.112 917.404L637.848 917.158L638.829 917.527H639.441L639.687 917.771L639.931 917.527L640.054 917.281L640.299 917.036L640.177 916.792L639.808 915.688L639.074 915.198L638.583 914.34L638.216 914.218L637.971 913.482L638.094 912.748L637.848 912.257L638.46 911.278H638.706L638.951 911.032L638.829 910.787L638.951 910.543L638.829 910.174L639.563 909.562V909.195L639.808 909.072L640.177 909.195L641.034 909.072L642.014 909.195L642.382 909.562L643.484 909.808L643.73 909.562L644.709 908.826L645.813 908.214L646.057 907.725L646.915 906.989L646.792 906.131L646.915 905.885L646.426 905.642V905.15L646.915 904.294L646.792 903.681L646.915 903.436L646.671 902.823L646.915 902.333L646.792 901.719L646.303 901.229L646.18 900.862L646.303 900.371L646.057 900.25L645.936 899.882L645.567 899.27L645.444 898.9L645.323 898.411L645.2 897.922V896.817L645.813 896.084L646.057 895.961L646.303 896.205L646.549 894.98L646.915 895.349H647.405L647.65 894.734L647.527 894.122L648.019 893.387L648.14 892.897L648.509 892.651L648.386 891.795L648.019 891.673V889.467L648.14 889.59L648.632 889.221V888.731H648.509L648.632 888.364L648.998 888.119L649.244 888.241L649.979 888.608L650.469 889.1L650.837 888.854L651.081 888.487L651.572 888.119L651.939 887.507L652.062 887.138L652.307 886.771V886.036H653.041L654.146 884.934L653.899 884.075L653.776 883.83L653.041 882.972L652.798 882.604L652.675 882.236L652.186 881.747L651.45 881.503L651.204 881.257V880.276L651.081 879.787V879.052L650.715 878.316L650.224 877.949L649.61 877.581L649.244 877.458L648.509 875.866L648.263 875.008L647.773 874.519L647.65 874.272V873.171L647.405 873.048L646.915 873.171L646.549 873.292L645.69 874.15L645.078 874.519L644.22 874.763L643.974 874.519L643.607 874.396L643.24 874.519H642.749L642.505 875.254L642.137 875.131L641.524 875.743L640.912 875.498L640.177 875.743H639.931L639.195 875.131L639.074 875.254L638.339 875.498L637.604 875.375H636.868L636.256 875.989L635.275 876.11L635.152 876.479H634.662L634.785 876.723L634.294 877.458L634.417 878.316L634.54 878.562V878.929L634.05 879.174L633.805 879.787L633.438 880.032L632.946 880.276L632.702 880.521H632.457L631.844 880.768H631.354L631.109 880.153L630.619 879.664L630.374 879.052H630.128L629.516 878.193V876.723L629.148 876.479L629.026 876.233L628.659 875.62L628.168 875.498L627.924 875.131L627.801 874.763L627.678 873.783L627.31 874.15L627.065 873.66L626.697 873.292L626.208 873.537V874.027L625.962 874.15H625.227L624.982 874.519L624.37 874.027H624.124L623.879 874.272L623.512 874.15L622.531 873.906L622.287 873.66L622.041 873.048L621.796 872.802L620.816 872.436H620.327L619.592 872.68L619.469 872.436L619.346 871.944V871.7L619.713 871.332L619.958 870.842L619.836 870.106V868.882L619.713 868.146L619.592 867.657V867.165L618.733 866.676L617.998 866.799L617.753 867.288L617.14 866.431L616.773 866.553L615.915 866.676L615.792 866.431L615.303 865.817L614.444 865.574L614.199 865.205V864.716L614.078 864.225H613.586L613.464 864.593L612.974 865.082L612.607 865.94L611.014 866.308L610.769 866.553L610.646 867.411L610.401 867.657L609.789 867.534L608.808 867.165H607.95L607.583 867.043L607.094 866.553L606.725 866.431L606.358 866.187H605.746L605.377 865.574H604.397L603.662 865.328V865.082L603.171 864.716L603.049 864.347L602.559 864.104L602.436 863.857L601.088 863.368L600.844 863.245L600.476 862.633L599.986 862.264L599.74 862.021H599.374L599.005 862.264L598.639 862.756L598.516 863.245L598.148 863.857L597.903 864.104L598.026 864.347L597.657 864.716L597.291 864.47L596.922 863.98L596.678 863.857L595.942 863.245H595.697L595.451 862.877L594.962 862.633L594.716 862.021L594.35 861.162L594.227 861.408L593.368 862.021L593.124 861.651L592.144 861.774L591.899 862.021L591.408 861.774L590.55 862.387L589.571 862.264H589.448L588.958 862.756L588.467 862.264L587.733 862.877H587.365L586.753 862.756L586.507 862.999L586.14 862.633H585.65L585.405 862.021L585.036 861.529L584.915 860.916V859.568H585.159L585.282 859.202V858.711L585.65 858.098L586.018 857.854L586.384 857.362H587.119L587.242 857.241L587.365 856.261L587.854 855.158L587.733 854.667L587.365 854.301L587.242 853.81L587.61 853.319L587.488 852.83L587.365 852.34L587.61 852.095H587.733L588.101 851.728L587.978 851.236L587.61 851.113H587.119L586.998 850.87V850.135L587.242 850.012L587.61 848.909V848.295L587.978 847.929L588.346 847.806L588.59 847.929L589.325 848.052H589.816V846.947H590.184L589.693 846.458L589.571 845.969L588.958 845.233L589.202 844.62L589.081 844.252L588.958 843.763L588.836 843.272L589.081 842.537L589.325 842.292H589.571L589.938 841.802L590.061 841.68V840.454L589.938 839.963L590.061 839.229L589.938 838.494V838.126L590.673 838.003L590.919 837.514L591.408 837.391L592.39 837.023L592.144 835.431V833.96L591.899 833.225V832.612L592.021 831.999L591.164 831.754L590.55 831.51L590.306 831.631L590.061 831.51L589.693 831.631L588.713 831.387L588.346 831.264L587.978 831.631H587.488L586.998 831.754L586.753 831.51H586.263L585.771 831.631V831.877L584.915 832.245V832.612L585.159 832.979L584.67 833.347L584.057 833.225L583.321 833.47L582.832 832.612L582.464 832.366L582.341 831.999L581.852 831.877L581.605 831.999L580.503 831.754L580.014 832.245L579.769 832.366L579.033 831.999V831.631L578.666 831.019V830.897L578.298 830.529H577.808L577.562 830.406L577.072 829.916L577.195 828.814L577.318 828.446L576.95 827.956L576.337 827.711L576.092 827.465L575.969 827.098L576.337 826.976L576.215 826.362L575.969 825.75L575.725 825.505L575.356 825.261L574.621 825.628L574.254 825.261L573.765 824.77H573.029L572.538 825.015L571.926 824.893L571.436 825.015L570.946 824.893L570.334 824.525H569.966L569.476 824.402L569.107 824.034L568.863 824.279L568.617 824.893L568.251 825.138L567.76 824.893L567.024 824.648L566.78 824.893L565.922 825.261V825.628L565.187 826.485L564.329 826.731H563.839L563.227 826.117L563.35 825.505V825.015L562.98 823.913L563.104 823.055L562.246 822.442L562.002 821.83L561.879 821.707L561.633 820.972L561.267 820.849L560.897 820.113L560.408 819.256H560.162L560.04 819.012L559.919 818.521L559.796 817.908L558.938 817.541L558.692 817.418L558.814 816.683L558.692 816.316L558.325 815.824L558.079 815.581L557.836 814.967L557.713 814.233L557.344 813.498L557.101 813.375L556.978 813.007L556.854 812.027V811.169L557.101 810.801L557.59 810.311L557.836 809.698V808.718L558.079 808.474L557.957 807.861L557.836 807.615L558.325 806.514L558.571 806.145V806.021L558.202 805.043L558.079 804.797L557.836 804.185L557.59 803.938L557.713 803.449L557.59 802.591L557.713 802.225L557.59 801.855V800.142L557.467 800.019L557.223 799.651L557.101 799.037L556.609 799.283L556.365 799.16L556.119 798.671V798.181L555.996 797.936L555.261 797.323L555.384 796.588L555.14 796.465L554.771 796.711L554.525 796.588L553.791 796.219L553.178 796.342L553.057 796.098L552.199 795.729L551.83 795.485L551.464 795.606L550.974 795.976L550.359 795.853V796.219L549.87 797.323L549.503 797.812L549.625 798.548L549.747 799.16L549.625 799.529L548.891 799.896L548.522 800.142L547.42 800.877L547.052 801.12L546.439 801.489L546.316 801.366L545.827 801.243L545.95 800.877V800.631L545.458 800.508V799.651L544.969 799.16L544.725 798.425L544.356 797.812L544.969 796.954L545.092 796.588L544.969 795.606L545.092 795.117L544.846 794.628L544.602 794.505L544.233 794.628H543.621L543.009 794.259V793.402L542.642 792.544V792.176L542.396 791.81L542.519 791.074L542.763 790.584L542.519 790.093L542.396 789.357L542.519 789.113V788.501L542.642 787.766L542.519 787.03L542.273 786.539V786.173L542.027 785.683V785.314L541.415 784.947V784.335L541.049 783.967L540.803 783.723L540.926 783.108L540.436 782.496L540.19 781.761L540.559 781.517V781.271L541.049 780.658H541.415L541.661 780.29L541.906 779.801L542.027 779.557L541.783 779.311L541.661 778.698L541.292 778.086L541.171 777.351L540.926 776.982L540.803 776.615L540.559 776.247L540.436 775.268L539.7 774.286L539.455 774.164L539.209 774.409L538.72 774.655L537.861 774.899L537.372 774.655L536.882 774.899H536.27L536.024 774.286L535.045 773.308L534.554 773.429L534.187 773.185V772.572L533.695 771.346L532.594 770.243L532.348 769.631L531.858 769.019L530.511 770.366L530.144 770.61L530.021 770.979L530.144 771.591L530.265 772.203V773.308L529.897 773.552L529.775 774.041L529.04 773.92L527.692 774.409V774.655L527.446 775.021L525.242 775.757L524.996 775.512L524.507 774.532H524.016L523.771 774.164L523.28 773.429L523.159 773.062L522.668 772.816L522.178 772.693L521.688 771.714L521.32 771.591L521.076 771.102L520.708 770.489L520.341 770.243H519.729L519.114 769.998L518.993 769.754L518.747 769.263H518.012L517.767 769.019H516.787L515.806 768.406L515.562 768.283L515.316 768.406L515.071 768.772H514.458L513.846 769.019L513.356 768.896L513.233 769.019L512.744 768.896L512.253 769.019L512.009 769.142L511.518 769.263L510.782 770.12L510.905 770.243L511.027 771.225L510.905 771.469L510.538 771.591H510.17L509.435 771.346L508.821 771.225L508.332 770.855H507.966L507.352 770.489L506.984 770.243L506.372 769.385L506.003 769.508L505.76 769.142H505.391L504.778 769.263L504.533 768.406L504.289 768.283L504.166 767.915L503.799 766.689L503.308 766.444L502.941 766.323L502.572 766.077L502.206 765.954L501.471 766.077L501.102 765.954L500.735 765.711L500.246 765.832L499.754 765.097L499.388 764.853L498.652 763.994L498.04 764.483L497.794 764.24L497.182 764.117L496.2 763.382V762.646L496.079 762.4L495.344 761.666L495.222 761.422L495.467 761.299L494.976 761.176L493.996 761.422L493.628 761.543L493.261 761.911L492.28 761.788L492.157 761.543L491.545 760.687L491.422 760.44L491.301 759.951L490.933 759.582L490.565 759.705L490.443 759.46H489.585L489.462 759.582L488.482 759.705L487.991 759.828L486.767 758.604L486.644 758.357L487.012 757.622L487.135 757.256L487.256 757.133L487.502 757.256L488.482 757.133L488.604 757.01L489.339 756.887L490.565 756.274L490.687 756.029L490.074 755.173L489.708 755.05V754.681L488.604 753.824L488.482 753.212L488.237 752.721L488.604 751.741L488.85 751.985L489.708 752.231L490.074 751.985L490.443 752.108L491.422 751.985L491.913 751.619L492.157 751.741L492.403 752.108L493.016 751.985L493.628 752.231L494.486 752.354L495.099 752.108L495.467 752.477H495.957L496.323 752.844L496.569 752.598L496.446 752.231L496.079 751.741L494.853 750.884V750.271L494.731 749.779V748.801L494.853 748.432L494.731 748.065L494.24 747.942L494.363 747.453L494.24 747.084L493.874 746.84L493.505 745.982L493.261 745.859L492.648 745.37L491.056 743.53L490.565 742.552L490.32 742.429L490.074 742.062L489.708 741.203L488.973 741.081L488.727 740.835L488.114 740.346L487.135 739.855L486.89 738.752L485.908 738.631L485.787 738.017L485.541 737.65L483.213 737.527L482.601 737.281L481.742 737.404L481.253 737.16L480.763 737.404L480.395 738.017L480.271 738.14V738.508L479.292 739.12V740.469L479.538 740.835L479.292 741.57L479.538 741.816V742.306L479.415 742.797L479.17 742.918L478.188 742.552H477.699L477.332 742.797L476.964 743.041L476.841 743.286L476.474 742.552L475.984 742.797L475.249 742.062L474.269 742.674L473.901 742.918L472.554 742.552L471.45 742.674L470.592 742.183L469.489 742.062L469.244 741.816H468.019L467.652 742.306L466.794 743.653L466.549 744.021L466.305 743.899V744.266L466.426 744.635L466.305 744.757L466.182 745.247L465.569 745.492L464.957 745.859L464.834 746.349V746.84L464.466 747.207L462.995 747.453L462.505 748.188H462.382L462.139 748.432L461.893 748.555L461.28 748.923L461.034 749.167L460.912 749.658L461.157 749.902L460.912 750.271L459.81 750.884L459.074 751.373L458.094 751.25H457.359L456.868 751.129L456.746 751.25H455.276L454.785 750.761L454.419 751.25H453.561L453.314 751.619L452.825 751.862L452.336 751.741L452.09 751.862L451.723 751.741L451.478 751.373L451.354 751.129L450.742 751.373H450.375L449.395 751.741L448.905 752.231L448.292 752.354L447.924 752.108L447.188 752.231L446.576 751.619L446.209 751.741L446.087 751.373L445.841 750.884H445.595L445.229 751.129L444.982 751.619L444.616 751.862L444.37 752.231L444.982 752.967L445.595 753.212L445.718 753.456L445.964 754.191L446.576 754.804L446.821 754.927L446.944 755.173L447.188 755.295L447.312 755.785L447.557 756.643V756.887L447.801 757.378V757.991L447.924 758.234L447.557 758.727L447.065 758.97L446.944 759.46L447.188 759.705L447.557 760.81H448.536L449.395 761.176L449.884 761.788H450.253L450.375 761.911L450.742 762.157H451.478L452.458 762.4L452.948 762.646L453.684 763.382L454.05 763.259L454.662 763.628V763.994L455.154 764.361L455.767 764.483L455.89 764.606L455.644 765.342L456.011 765.954L456.133 766.323L456.502 766.812L455.89 767.671L455.767 767.794V768.406L456.624 768.896L457.114 769.019L457.237 769.263L457.973 769.631L458.462 769.998V770.979L459.563 771.346L460.545 771.958L460.668 772.326L460.791 772.938L461.157 773.797L461.28 773.92V774.409L461.524 774.655L462.016 775.757L462.139 776.615L462.016 776.738L461.524 776.859L461.157 777.351L461.524 778.207L461.77 778.33L462.016 779.065L461.893 779.311V779.923L461.77 780.046V780.413L461.524 780.904L461.403 781.271L461.034 781.884L460.791 782.007L460.422 782.373L460.056 782.496L459.563 782.741H459.197L457.973 783.231L457.359 783.354L457.237 783.231L456.991 783.477L456.624 783.231L456.011 783.6L455.89 784.09L455.521 784.335L455.644 784.579L456.011 785.438L456.256 785.56L456.502 785.927H456.746L457.237 786.173L457.604 785.927H457.727L457.85 786.539V787.274L457.727 787.766L457.973 787.889L458.094 788.622L457.604 789.113L457.114 790.093H457.359L457.973 790.461L458.094 790.828V792.544L457.973 793.157L457.48 793.523L457.359 793.402L456.746 793.646L455.521 793.523H455.276L454.785 793.893V794.382L454.541 794.994V796.465H454.173L454.05 796.219H453.438L452.825 796.465V797.077L452.579 797.446L452.09 797.936V798.302L452.336 798.794L452.458 798.916L452.702 799.283V800.142H452.458L452.09 799.896L450.865 799.529L450.496 799.772L450.375 800.264L449.64 800.877L449.027 801.12L448.782 800.999H448.536L448.17 800.631L448.413 800.264L448.536 799.896V799.651L448.659 799.406L448.782 798.302L448.905 797.689L448.659 797.568L448.17 797.812L447.924 798.059H447.312L446.944 797.689L446.699 797.568L445.841 797.936L445.229 798.059L444.003 797.689L443.758 798.302L442.899 798.548L442.287 798.671L441.92 798.916L442.287 799.651L442.164 801.243L441.186 801.734L440.816 801.855L440.45 802.47L440.327 803.203L439.96 804.185L439.837 804.553L439.715 804.92L439.837 805.409L439.715 805.778L439.225 806.021V806.391L439.102 806.514L438.244 806.635L437.998 807.249L437.632 807.492V808.228L437.998 808.718V809.086L437.754 809.453L437.386 809.698L436.896 810.434L436.529 810.801H436.038L435.671 810.557L435.426 810.311L435.059 809.821L434.446 807.615H433.466L433.097 807.492L432.117 807.983L431.872 808.351L431.137 808.718L430.77 808.84L430.893 809.086L430.524 809.944L430.157 810.188L429.545 810.311L429.054 811.046L428.197 812.027L427.951 812.64L427.583 813.252V814.6L427.462 814.846L427.094 815.212L426.848 816.07L426.48 816.438L426.235 817.05L425.5 817.541L425.746 817.664L425.868 818.766L425.991 818.889L428.197 821.339L428.563 822.81L428.81 823.79L429.177 824.402L430.647 825.505L431.628 825.873V826.731L431.749 827.098L432.24 827.344L432.853 827.711L433.832 827.833V828.2L434.078 827.956L434.323 828.2V828.936L434.813 829.059V829.304L434.323 829.671L433.22 830.039L431.872 830.406L430.647 830.774L429.912 831.387L428.318 832.489L427.462 832.857H426.848L425.746 833.225L425.256 833.593L424.152 835.185L421.702 836.655L421.334 837.023L419.986 838.615L418.148 840.821L417.903 841.434L417.413 841.557L416.801 841.434L416.188 841.189L415.33 840.577L414.473 839.719L413.37 838.494L412.022 838.126L411.287 838.249L410.429 838.615L410.307 838.861L409.816 838.738H409.45L408.958 838.983L408.592 839.351L407.979 839.106L407.61 839.229L406.753 839.719L406.632 839.842L406.019 840.454L405.161 840.944L404.303 841.68L403.813 841.434H403.444L402.832 841.68L402.343 841.312L402.097 840.454L402.22 839.719L401.853 838.861L401.607 838.738L401.484 838.371L401.361 836.9L401.73 836.411L401.607 836.043L401.361 835.185L400.995 834.817L400.872 834.328L400.995 833.837L400.503 833.102V832.489L400.872 831.877L400.995 831.387L401.117 831.264L401.238 830.529V830.039L400.995 828.814V828.323L401.484 826.976L401.974 826.485L401.853 826.24L401.73 825.628L401.484 825.261V824.77L401.361 824.279L401.484 824.034H401.238L401.117 823.667L401.238 823.544L401.117 822.81L400.749 823.178L400.26 823.055L399.891 823.422L399.524 823.667L398.912 822.81L398.299 822.196L397.687 822.565L397.441 822.319L397.318 821.951L396.951 821.707L396.706 821.951H396.46V821.707L395.971 821.339L395.604 821.461L394.989 821.339V820.482L395.358 820.359L395.112 819.868L394.868 820.113L394.5 820.236L393.888 820.113L393.521 820.236L393.397 820.113L392.906 820.236L392.171 819.747L391.682 819.378L390.946 818.889H390.702L390.457 819.012L390.211 818.276V817.908L389.967 817.785L389.354 817.664V817.05H389.109L388.863 817.418L388.74 817.295L388.251 817.664L387.884 817.541L387.761 817.664L386.657 817.05H386.291L386.045 816.806L385.188 816.316L384.697 815.824H382.614L382.002 815.335L381.758 815.09L381.267 814.6L380.776 814.846L380.654 814.354L379.919 813.864L379.429 813.375L379.307 813.129L378.939 812.884L378.693 812.394L377.836 811.658L377.101 811.292H376.856L376.242 811.415L375.875 811.658L375.14 811.415L374.773 811.536L374.159 811.046L372.321 809.698L370.484 808.228L370.116 808.104L368.769 807.983L368.646 807.615H368.278V807.37L368.033 807.249L367.666 807.37L367.298 807.615L367.054 807.37L367.177 806.514L366.931 806.145L367.177 805.778L366.931 805.532L367.177 805.043L366.931 804.92V804.431L366.808 804.185L366.195 804.062L365.95 804.308L365.583 805.043L364.971 805.9L364.479 806.268L364.358 807.615L363.989 807.861L363.744 808.351L363.377 808.84L362.888 809.209H362.642L362.275 809.453L362.152 809.821L361.661 810.311L361.294 809.698H361.049L360.928 809.332L359.946 808.474L359.334 808.228L358.476 808.104L357.74 808.351H357.374L357.128 807.983L356.761 807.492L356.147 807.37L355.903 806.635L355.657 804.797L355.045 804.185L354.31 803.817L353.697 803.572H353.085L352.35 803.695L351.491 803.326L350.756 802.837L350.512 801.734L350.39 801.12L349.776 800.387L350.879 799.651L349.897 799.16V798.671L350.144 797.568V797.2L348.919 796.219L349.041 795.976L348.796 795.606L348.673 795.117L347.693 794.505L347.448 794.382L346.223 793.157L345.242 792.544L343.282 791.687L342.424 791.319L340.832 790.216L339.974 789.727L338.993 789.113L337.769 786.418L337.522 785.806L336.175 784.09L335.562 782.987L334.95 781.394L334.704 780.781L335.072 780.413L335.195 779.557L335.562 777.104L335.686 776.738L335.808 776.003L335.316 775.391L335.195 774.776L334.95 774.899H334.583L333.848 775.021L333.479 775.268L333.356 775.635L332.744 775.757L331.886 776.492L331.642 776.982L331.273 776.859L330.661 777.351H330.171L329.436 777.474L329.067 777.963H328.823L328.334 778.575H327.843L327.72 778.453L327.107 778.575H326.863L326.372 779.065L326.005 779.801L325.882 780.658L325.637 781.025L324.78 780.413L324.045 779.678L323.799 779.188L323.187 777.84L322.697 777.963L322.574 777.84H321.962L321.227 778.086L320.735 778.207V777.963L320.368 777.474V777.228L320.123 776.982L319.633 776.859L320.002 776.37L319.388 776.003L319.267 775.512L319.021 775.145H318.652L318.04 774.776L317.919 774.532L317.428 774.409L317.184 774.655L316.692 774.776V775.021L315.957 775.268V776.124H315.713L315.222 776.492L314.978 776.738L314.486 777.104L314.365 776.982L314.242 777.228V777.474L313.753 777.351L313.384 777.595L313.139 777.963L312.771 778.453L312.282 778.942L312.036 778.821L311.301 778.453L311.791 777.474L311.424 777.104L311.178 775.88L312.036 775.145H312.282L312.403 774.655L311.913 773.797L311.056 773.674L310.935 773.429L310.565 773.308H310.32L309.83 773.185L309.341 773.429L308.852 773.797H307.381L307.012 773.429H306.646L306.522 773.062L306.646 772.572L306.276 772.203H305.787L305.052 771.958H304.072L303.215 771.225L302.969 770.61V769.998L302.723 769.875L301.621 768.896L301.744 768.406H301.254V768.037L301.744 767.915L301.867 767.794L302.11 767.059L301.744 766.444V765.097L301.621 763.871L301.375 763.382L300.763 763.136L300.15 762.4L300.027 761.666L299.171 762.278L298.313 762.034L297.7 762.523L297.578 763.014L295.984 763.382L295.617 763.259L295.126 763.382L294.637 762.77L294.27 762.646L294.514 762.157L293.901 761.543L294.024 761.422L293.778 760.44H293.412L293.043 760.317H292.677L291.329 760.44L291.083 760.563L290.716 760.44L289.98 760.687L288.511 760.563L286.794 761.053L285.814 760.931L285.325 761.176L285.079 760.563L284.711 760.317L284.467 759.705V759.093L284.222 758.604L284.099 758.48L283.731 758.112L282.996 757.499L282.507 757.378L281.526 756.764L280.913 757.133L280.545 756.887L279.565 756.764L279.442 756.887L278.708 756.397H278.218L277.973 756.274H277.605L277.359 755.539L276.993 754.681V754.068L276.87 753.456V752.598L277.359 751.862L276.747 751.619L276.624 751.373L276.258 751.129L275.767 750.148L275.644 749.536L275.399 749.046L274.787 748.188L274.541 747.819L273.929 747.453H273.684V747.084L273.439 746.963L273.561 746.349L272.704 746.104L271.846 745.982L271.233 745.736L270.744 745.613L270.13 745.247L269.64 744.88L268.661 744.266L268.292 744.389L267.926 744.145H267.067L266.821 743.899L266.455 743.776L266.209 744.021L265.352 743.899L265.107 743.653L264.372 743.409L264.003 743.653H263.514L263.147 743.286L262.655 743.164L260.818 742.552L260.572 742.306L260.45 741.938L260.329 741.693L260.572 741.081L260.329 740.469L260.206 740.223L259.96 739.364L260.206 739.12L259.715 738.875L259.471 738.508V738.14L259.102 737.772L258.612 736.792L258.245 736.425L257.877 736.302L257.754 735.321L257.511 734.832V733.361L258.245 731.891V731.4L258.489 730.543L258.735 730.299L258.98 729.931V729.563L259.348 728.828L258.858 727.48L258.367 727.357L258 726.499L257.632 725.519L257.265 725.151L256.406 724.662L255.794 724.783L253.711 724.05L252.24 723.681L250.77 723.191L250.157 723.068L249.422 721.476L249.178 721.231L247.83 720.005L247.095 719.761L245.747 718.657L245.868 717.555L246.114 716.942L245.624 716.453V716.207L245.868 715.472V715.349L245.379 714.613L245.133 713.756L244.031 713.389V709.469L243.785 708.364L243.05 708.12L242.684 707.629L242.071 707.385L241.825 707.629L240.846 707.506L240.11 707.14L239.865 707.506H239.498L238.763 707.263L238.64 706.894L237.292 707.263L236.68 706.771L236.188 706.281L235.576 705.915H235.332L235.209 705.423L234.105 705.057L233.249 703.832L233.493 703.586L233.003 703.097L232.146 702.361H231.655L231.287 702.238H229.204L228.225 702.728L227.612 702.115L226.388 701.626L225.161 699.666L224.305 698.438L223.569 696.602L222.955 696.479L221.976 695.743H221.73L221.486 695.499H220.995L220.751 695.622L220.26 695.377L220.016 695.743H219.034L217.563 694.764L216.706 694.642L216.216 694.764L215.973 694.519L215.604 694.396L214.868 693.539L214.623 693.66L213.644 692.312L213.154 692.436L212.908 692.312L212.54 691.823H212.296L211.928 691.456L210.336 690.721L209.601 690.598L208.865 689.25L208.496 688.759H208.253L207.64 688.146L206.904 687.779L206.536 687.657L205.924 686.799H205.678L205.312 686.555L204.699 686.063L204.087 685.574V685.328L204.453 684.839L204.821 684.716V684.349L204.453 683.491H204.208V683.124L204.453 683.001L204.699 682.389L204.453 681.653L204.208 680.306L204.699 679.938L204.821 679.079L204.942 678.59V677.977L204.699 677.364V676.629L204.208 675.281V674.792L204.699 674.423H205.435L205.801 674.546L207.271 674.301L208.988 674.178L208.619 673.444V672.83L208.496 672.586V672.218L208.253 671.604L208.374 670.992L208.13 669.521L208.496 669.032V668.174L208.619 667.685L208.374 667.316L208.742 666.826L208.865 666.46L209.109 665.969L208.988 665.725L208.865 665.112L209.109 664.866V664.498L209.231 663.886L209.478 663.396V662.906L209.231 662.415L209.354 661.802L208.988 660.946L208.619 660.332L208.374 660.088L208.253 659.597L208.374 659.353L208.13 658.983V658.74L208.865 658.862L209.354 659.106H210.213L210.457 659.229L210.702 659.353L211.071 659.476L211.438 658.983V658.617L211.928 658.371L212.908 657.759L212.662 657.393L212.419 656.779L212.05 656.534L211.684 656.779H211.314L211.071 657.023H210.336L209.844 657.515L209.967 656.779L210.825 656.044L210.948 655.799L211.192 655.31L211.684 655.553L212.05 656.411L212.419 656.779L212.908 657.759L213.275 657.636L214.011 657.759L214.502 657.882L215.604 658.005L215.973 657.27L216.094 656.9L216.462 657.27L217.074 658.128H217.32L217.687 658.983L218.299 659.476L219.524 659.597L220.016 659.842L220.382 659.597L220.995 659.842L221.486 659.719H222.222L223.078 659.229L223.69 659.476L224.059 659.719L224.917 658.74L225.283 658.494L225.529 658.005L225.896 657.393L226.265 657.023L226.509 656.657L227.735 655.431H228.102L228.471 655.553L228.592 655.063L229.327 654.451L229.695 654.328L229.818 655.431L230.062 655.676L231.287 656.288L231.901 656.534L232.022 656.779V658.249L232.391 658.983L232.514 659.106L233.126 659.229H233.616L234.229 658.983L234.718 659.106L235.453 659.965L235.209 660.211L235.087 660.823V661.436L234.105 661.925L233.493 662.415L233.003 662.537L233.126 662.66L233.37 663.029H233.738L233.861 663.272L234.105 663.029L235.087 662.537L235.209 662.294L236.067 662.415L235.821 662.906L235.576 664.131L236.312 664.254H236.557L236.924 664.131V664.008L238.15 663.396L238.395 663.15L239.007 662.906L238.884 662.537L238.518 662.415H238.15L238.271 662.171L239.007 661.925L239.375 662.048L240.354 661.925L240.846 661.68L241.948 661.559L242.438 661.802L243.173 661.312L243.541 661.436L243.785 661.68H244.031L244.154 662.048H244.89L245.256 662.294H245.747L246.482 662.537L246.727 662.415L247.216 662.537L247.585 662.783L247.708 662.66L247.951 662.783L248.32 662.906L248.933 663.519V663.886L249.545 663.763L249.791 663.519L250.893 663.029L252.24 662.415L253.711 660.823L254.2 660.454H254.569V660.332L253.222 659.353L252.853 658.862L252.609 658.371L252.486 657.882L251.996 657.393H251.628L251.505 657.882L251.261 657.759V657.515L251.139 656.9L251.505 656.288L251.751 655.799L251.628 655.553L251.751 654.817L252.24 653.961L252.486 653.593L252.609 653.104L252.486 652.857L251.996 652.734L251.382 652.245L251.139 651.999V651.633L251.382 650.897L251.139 650.285L250.526 649.304L250.77 648.814L251.139 648.447L251.505 647.956L251.996 647.59L252.363 647.467L252.609 647.712L252.486 648.202L252.609 648.691L252.853 648.938L253.711 648.814L253.957 648.938L254.079 649.181L253.834 649.673V650.162L254.2 650.285L254.569 650.162V649.427L254.692 648.938V648.447L254.936 647.956L255.182 647.712L255.305 646.977L255.182 646.608L254.814 646.241L255.059 645.996L255.305 645.629L255.794 645.506L256.406 645.261L257.265 644.894L257.632 643.667V643.055L257.877 642.565L258 642.075L258.123 641.34L258.245 640.482L258.123 640.236L257.632 639.992L257.511 639.38L257.388 639.257L257.019 638.399L256.775 637.909L256.652 637.541L256.283 636.562L256.04 636.193L255.917 635.703L255.671 635.214L255.917 634.602V633.62L255.671 633.498L255.428 632.763L255.182 632.519L255.428 631.904L256.04 631.292L256.162 630.066L256.04 629.821L255.917 629.209L255.059 628.965L254.323 628.106L254.2 627.738L253.711 627.617L253.099 627.126H252.853L252.363 626.882L251.996 626.27L251.261 625.9L250.77 625.534L250.28 625.288L249.299 624.431L249.178 624.063L248.687 622.716V622.104L248.81 621.734L248.687 621.245L247.951 620.51L247.462 620.264L246.973 619.651V619.285L246.727 618.794V618.059L246.604 617.079L246.114 616.711L245.379 616.467L244.89 615.854L244.767 615.362L244.154 615.24L244.031 614.996L243.419 614.505L243.05 614.261L241.948 614.138L241.458 614.261L240.846 614.138L240.601 614.015L240.478 613.648L240.723 612.913V612.544L240.11 611.196L239.619 610.83L239.375 610.339L239.13 609.604L238.763 609.236L238.271 609.113L238.027 609.482L237.905 609.849H236.801L236.188 609.113L235.576 608.991L235.209 609.113L234.597 608.991L234.105 608.87V607.889L233.861 607.153L233.738 606.418L233.493 606.174L233.249 606.052L233.003 605.56L232.758 605.193L232.391 604.703L231.655 604.091L231.287 603.477L230.552 602.864L230.185 602.498L230.062 601.886L230.308 601.517L230.675 600.415V600.046L230.431 599.802H229.939L228.96 599.434L228.592 598.944L228.471 598.698L227.612 597.597L227 597.228V596.983L226.509 596.126H226.265L225.652 595.514V595.023L225.161 594.532V594.166L224.917 593.797L224.671 593.553L224.305 593.062L224.182 592.695L224.059 591.837L223.813 591.593V591.47L223.323 590.857L222.955 590.243L222.588 589.877L222.222 589.387L221.486 588.896H220.995L220.382 588.283L220.016 587.427L220.26 586.812V586.568L219.893 586.077L219.28 585.588L219.157 585.221L219.403 584.729L219.157 584.24L218.789 583.994L218.668 583.628L218.422 583.261L217.687 582.646L217.32 582.034L217.074 581.544L216.951 580.563L216.829 580.196V579.951L216.585 579.339L216.094 578.726L215.727 578.113L214.746 577.624V576.521H214.379L214.011 576.03L213.89 575.908L213.521 575.295H213.031L212.908 574.929L212.662 574.806L212.54 574.438L212.296 574.314L212.419 573.824L212.296 573.702L212.173 573.335L211.807 572.723L211.192 572.477H210.948L210.579 572.11H210.09L209.601 571.741H209.478L209.231 571.006L208.988 570.763L209.354 570.271L209.844 569.292L209.601 568.065L209.478 567.698L208.865 566.597L208.619 566.105L208.253 565.861L207.761 565.126L207.271 564.514L206.904 563.899L206.782 563.532L206.413 562.797V562.185L206.291 561.082V558.754L206.17 557.65L206.291 556.916L206.904 556.302L207.518 556.181L208.253 556.302L208.742 556.425L209.109 556.794L210.09 558.264L210.702 558.877L211.684 559.612L212.785 559.979L213.275 560.102L213.89 560.348L214.746 560.468H215.973L217.563 560.348H218.177L219.403 560.714L220.382 561.449L221.363 562.308L222.222 562.797L223.323 563.778L223.813 564.145H224.917L225.406 564.268L226.388 564.021L227 564.145L227.489 564.268L227.856 564.514L227.735 565.003L227.612 565.126V565.37L227.856 565.982L228.471 566.597L228.837 566.84L229.818 567.33H230.062L230.798 567.944L231.043 568.188L231.287 568.801L231.533 568.923L232.269 569.169L233.126 569.415H233.984L234.352 569.169L234.597 568.801L234.718 568.311L234.964 567.821L235.332 567.453H236.435L236.801 568.188L237.292 568.557L237.659 568.801L238.15 569.169L238.884 569.658L239.375 569.781L240.846 570.027L242.071 569.904L242.807 569.658H245.256L245.868 569.781L246.237 569.904L248.32 570.394L250.28 570.64H252.731L255.794 570.517H257.265L257.754 570.148L257.877 569.904L258.123 569.046L258.858 567.453L259.348 566.351L259.715 565.982L260.083 565.738L260.818 565.126L261.186 564.757L261.92 564.391L263.881 563.899L264.249 563.778L264.495 563.286L264.616 562.552L264.372 562.062L263.881 561.082L263.76 560.468V560.225L264.003 559.855L264.372 559.733L265.23 559.612L266.821 559.12L268.047 558.999L268.538 558.754L269.395 557.772L269.64 557.529L270.253 557.16H270.621L271.356 556.916L273.193 556.548L273.439 556.425L273.807 555.936L273.929 555.567L274.175 554.833L274.052 554.098L273.439 552.871L272.948 552.259L272.704 551.646L272.581 551.279L272.704 550.911L273.071 550.176L273.807 549.074L274.175 548.216L274.296 547.849V547.357L274.175 546.991L273.929 546.745L273.316 546.622L273.071 546.745L272.336 547.48L272.092 547.604L271.11 547.48L270.988 547.357L270.744 546.868L270.498 545.521L270.621 544.662V544.173L270.375 543.068L270.13 542.579L269.763 542.335L268.782 542.09L267.926 542.212L267.19 542.824L267.067 543.314V544.295L267.19 545.643V547.234L267.067 547.726L266.821 548.216L266.455 548.461L265.964 548.584L265.597 548.339L265.23 548.093L264.861 547.604L264.616 546.868L264.249 545.03L264.126 544.662L263.637 543.804L263.024 542.947L262.655 542.579L261.677 541.967L259.96 541.354L259.348 541.108H258.98L258 540.864L256.04 540.496L254.814 540.006L254.569 539.761L254.079 539.025L253.344 537.434L252.117 535.472L251.874 534.859L251.751 533.88V532.532L251.628 532.041L251.505 531.674L251.016 531.306H248.565L248.197 531.185L247.83 530.816L247.462 530.326L247.339 529.958L247.462 529.591L247.339 528.979L247.585 528.12L248.074 527.508L249.299 526.406L249.545 526.037L249.791 525.18L249.668 524.323L249.422 524.2L249.056 523.832L248.565 523.465L248.197 523.219H247.462L246.727 523.465L245.991 523.954L245.256 524.812L244.767 525.425L244.521 525.792L243.908 527.263L243.664 527.631L243.173 527.754L242.807 527.631L241.948 527.14L241.336 526.896L240.846 526.65L239.619 525.425L239.007 525.057L238.64 524.567L238.518 524.2L238.271 523.588L238.15 523.097L238.027 522.483L237.782 521.994L237.17 520.523L237.047 519.543L236.801 518.808L236.312 518.317L235.944 518.074L235.699 518.195L234.597 517.951L234.105 517.582L233.738 517.093L232.635 516.357L232.022 515.991L231.043 515.622H229.572L228.96 515.499L228.225 515.01L227.979 514.764L227.735 514.274L227.612 513.907L227.489 512.314L227.244 511.456L227.367 510.598L227.856 509.741L228.102 509.127L227.856 508.638L227.121 507.536H226.877L226.142 507.167L225.652 506.801L225.283 506.31L225.038 505.453L225.283 504.961L225.773 503.982L226.142 503.37V503.124L226.019 502.635L225.283 500.918L224.671 500.06L223.446 499.203L222.955 498.835L222.834 498.591L222.588 497.733L222.465 496.629L222.588 495.527L222.465 494.057L221.976 493.444L221.117 493.077L220.382 492.954L219.524 493.077L219.157 493.198L218.422 493.689L217.933 493.934H217.563L216.951 493.811L215.973 493.444L214.868 492.586L214.502 492.219L214.011 492.097L213.89 492.219L213.397 492.832L212.785 493.444L211.561 494.302L210.702 494.669L209.967 495.037L209.109 495.527L207.518 495.772H206.782L205.924 495.527L205.557 495.404L204.821 495.037L203.964 493.811L203.595 493.077L203.474 492.097L203.229 491.238L203.105 489.891L202.859 489.278L202.738 489.032L201.758 488.543H201.269L200.41 488.42L199.798 488.543L198.939 489.4L198.693 489.768L198.081 490.503L196.979 491.238L196.367 491.361H195.754L194.406 490.503L193.792 490.014L193.426 489.523L193.18 488.788V487.685L192.936 487.195L192.813 486.46L192.69 486.214L192.2 485.357L191.343 484.377L190.484 483.887L189.749 483.764L189.014 483.274L188.157 482.294L187.912 481.681L187.666 480.823L187.789 480.211L187.666 479.476L187.789 478.985L188.034 478.617L188.893 477.761L189.014 477.27L188.893 476.902L188.524 476.657L187.422 476.413H186.563L186.318 476.167L185.706 476.044L185.094 475.678L184.727 474.696L184.358 473.839L184.112 472.982V472.124L184.358 471.878L184.727 471.389L185.583 471.021L186.074 470.53L185.951 469.918L185.706 469.673L184.971 469.429H184.48L184.112 469.673V469.918L183.868 470.041H183.5L183.133 469.429L183.011 468.938V468.081L183.133 467.223L183.623 466.487L183.746 465.875L183.623 465.263L183.746 464.65V463.546L183.868 463.301L184.235 462.567L185.706 461.219L187.299 460.604L189.26 459.626L189.995 459.135L190.484 458.645L190.73 458.278L190.853 456.317V454.848L190.976 453.499L191.22 452.887L190.976 451.906L190.73 451.537L190.484 451.416L190.24 450.681V450.068L190.361 449.454H190.117L189.628 448.842L189.382 448.721L189.014 448.353L188.893 447.862V447.371L189.137 447.25L189.26 446.638L189.382 446.393L189.505 445.534L189.382 445.288L189.749 445.044L189.628 444.187L189.26 443.574L188.647 442.472L188.401 441.857L188.524 441.001L188.401 440.143L188.157 439.407L187.789 438.918L187.299 438.306L186.931 437.691L186.687 437.447L186.563 437.202V436.467L186.931 435.364L187.054 435.241L187.177 434.752L187.299 433.648V433.036L187.545 432.423L187.912 431.811L188.77 431.442L189.628 431.321L189.995 430.83L190.24 430.707L190.853 430.83L191.466 431.442L191.832 431.321L192.078 431.075H192.2L192.567 431.442L193.059 431.321L193.915 431.688L194.406 431.442L195.019 430.83L195.509 430.095L195.754 429.482V428.992L195.998 428.38L196.61 427.399L198.327 425.808L198.45 425.438L198.693 424.581L198.572 423.846H198.693L197.715 423.11L197.102 422.498L196.979 422.131L197.225 421.885H196.979L196.856 421.15L196.979 420.292L197.225 419.312L197.346 419.436L197.592 418.577L197.958 418.7L198.45 418.454L199.308 418.823L199.92 418.944L200.41 418.211L201.146 418.454V418.088L201.022 417.353L201.269 416.74L201.391 416.617L201.758 415.882L202.003 415.514L202.616 415.393L202.982 415.023L202.247 414.657H201.881L201.758 414.534L202.247 414.411L203.105 414.534L203.352 414.411L203.595 414.165L203.718 412.94L203.841 412.328L203.964 411.961L204.208 411.347L204.33 411.226L204.453 410.734L204.821 410.122L204.576 409.633L204.208 409.264L203.964 409.021H203.474L202.982 408.774L202.616 408.285V407.916L203.105 407.673L203.474 407.795H204.453L205.188 407.427H205.557L206.413 407.06L207.148 406.445L207.395 405.712L207.64 405.59L208.496 405.098V404.854L208.988 404.362H209.478L210.09 404.119L210.457 403.75L210.825 402.894L210.948 402.771L210.825 402.525L211.192 402.279L211.314 401.667L211.561 401.546L211.684 400.932L211.438 400.688L211.314 399.953L210.948 399.584L210.457 399.218L210.336 398.849L210.579 398.359L211.192 397.87L212.419 398.482L212.785 398.604H213.644L213.767 398.359L214.133 397.992V397.501L214.502 397.624V397.38L214.011 396.889L213.767 396.766L213.397 396.03L213.644 395.541L213.767 395.418L214.011 394.929V394.193L214.256 393.458H214.746L214.991 393.214L215.727 393.091V392.6L216.094 392.355L215.85 391.743L215.358 391.131V390.885L215.604 390.272L215.973 390.027L216.094 390.15L216.585 391.008L217.563 391.252L217.933 391.131L218.299 390.885L218.422 390.396L217.687 389.781L217.563 389.292L218.056 388.312L218.422 387.821L218.545 387.332L218.912 387.086L219.157 386.597L218.789 385.861L218.056 385.983L217.933 385.738L217.687 384.759L217.933 384.514L218.545 384.391L219.524 384.146L219.77 383.778L220.016 383.043V382.799L219.77 382.308L219.403 382.063L219.034 381.94L218.422 381.572L218.177 381.328L217.933 380.837V380.47L218.177 380.102L218.668 379.122L219.157 378.633L219.28 378.264L219.647 377.897H220.139L220.751 378.142V378.264L221.73 378.142L221.853 377.651L221.976 377.774L222.343 377.529V376.671L222.711 376.304H222.955L222.834 375.814L221.976 375.691V375.568H221.607L221.24 375.814L220.751 375.691L220.382 375.323L220.139 374.956L220.26 374.467L220.382 374.221L220.872 373.853H221.73V373.362L221.976 373.119L221.73 372.384L221.117 372.138H220.751L219.893 372.261H219.034L218.545 372.138L217.933 371.525L217.81 371.036L218.056 370.422L218.299 370.055L218.668 369.932L219.77 369.81L220.751 369.565L221.486 369.687L221.73 369.442L222.099 368.83L221.976 367.482L221.486 366.991L220.751 366.87L220.26 367.359L220.139 367.972L220.016 368.095L219.524 368.218L219.034 367.972L218.912 367.482L218.545 367.359L218.056 367.482V367.726H217.81L217.32 367.849L216.829 367.604L216.585 367.236V366.87L216.951 366.501L217.81 366.012L218.056 365.766L218.422 364.786L218.789 364.664H219.157L219.524 364.786L220.139 364.908L220.505 364.664L220.628 364.418L220.751 363.929L220.382 363.193L220.016 362.947H219.647L219.403 362.581V361.6L219.647 360.498L219.893 360.252L220.139 360.129L220.751 360.498H221.607L221.73 360.375L221.853 359.885L221.607 359.271L220.628 358.781V358.415L220.751 358.046L221.24 357.802H221.607L222.222 357.68L222.465 357.802L222.834 358.046L223.078 358.658L223.446 359.027L223.813 358.658L223.569 357.923L223.446 357.434L223.569 356.698L224.182 356.332L224.549 356.454L225.161 356.821L226.265 356.575L226.877 356.821V356.209L227.121 355.963L227.367 354.861L226.877 354.492L226.388 354.248L226.019 353.757H225.652L225.529 353.514L225.773 352.288L225.896 351.797L225.652 350.938V350.449L226.019 349.591L226.388 348.979L226.754 348.855L227.121 348.979L227.856 349.47L228.348 349.591L228.96 349.96H229.083L229.45 349.47V349.225L229.204 348.734L228.592 347.999L228.348 347.754L228.102 347.019L228.225 346.16L228.837 345.671L228.96 345.059L229.45 344.568L229.939 344.445L230.185 344.077L229.939 343.711L229.695 343.465L228.471 343.098L227.244 342.362L226.754 342.117V341.505L226.632 341.259L226.265 341.382L225.529 341.138L224.917 340.646L224.182 340.034L223.323 339.544L221.363 338.687L221.24 338.442L220.382 337.339L220.016 337.093L219.28 336.726L218.668 336.604L217.81 336.357L217.074 336.236L216.216 336.357L215.604 336.48L214.379 337.216L213.767 337.461L212.785 337.339L212.54 337.093L211.192 335.991L210.825 335.745L210.336 335.501L209.354 335.256L208.742 335.378L208.253 335.624L207.518 336.236L206.659 336.972L205.678 337.707L204.453 339.055L204.208 339.299L203.595 339.544L202.982 339.667L202.493 339.544L201.881 339.299L201.758 339.176L201.391 338.442L201.146 338.074L200.899 336.849L200.533 335.868L200.041 334.889L199.552 334.153L198.939 333.662L197.837 333.418L197.102 333.295H195.632L194.896 333.662L194.161 334.276L193.303 335.378L192.69 336.113L191.832 336.972L190.73 337.828L189.749 338.196L189.014 338.319L187.912 338.81L187.422 339.055L187.299 339.299L186.81 340.646L186.318 341.382L185.951 341.873L185.462 342.117L184.848 342.485H184.112L182.152 342.976L181.417 343.221L180.561 343.588L179.946 344.323L179.457 345.059L178.844 346.16L178.354 346.896L177.496 347.631L176.516 348.122L175.659 348.489L174.678 348.612H172.841L171.982 348.855L170.267 349.347L169.164 349.591L168.307 349.714L167.449 346.283L165.488 342.485L164.876 342.362L163.65 340.157L163.527 337.951L163.038 337.216L164.141 335.868L164.386 335.745L164.631 335.256V334.766L166.714 333.907L166.836 333.662L167.571 333.418L169.409 333.05H170.635L171.125 333.295L171.492 333.785L171.982 334.521L172.718 335.501L173.33 335.991L174.312 336.48L175.291 337.339L176.271 338.074L176.639 338.319H177.251L177.742 337.584L177.986 337.339L178.478 337.093H179.334L180.192 335.991L179.09 335.256L179.579 334.643L179.825 334.521H180.314L180.438 334.153L179.946 334.03L179.702 333.785L179.825 332.927L180.314 332.683V332.314L182.029 331.458L182.521 331.212H182.765L183.256 330.967V330.6L184.112 330.231L184.48 330.6L186.81 329.006H188.77L190.117 328.394L189.995 328.027L190.24 327.413L189.995 327.292L190.24 326.923L190.607 326.801L191.097 326.311L191.709 326.065V325.821L192.444 325.575L191.955 324.963L192.078 324.84V324.351H191.709L191.097 324.474L190.853 324.351V320.797L190.73 320.308L190.853 319.938L189.749 318.96L189.26 318.591H188.893L188.401 318.714L187.422 319.449L186.441 319.816L185.829 319.938L185.339 320.308L184.971 321.043L184.727 321.286H184.112L182.765 320.92H182.275L181.417 321.043L180.928 320.797L180.438 320.308L179.702 320.185L179.457 320.308L178.967 320.552L178.231 321.043L177.863 320.92L177.496 320.552H176.516L176.148 320.429L175.903 320.185L174.556 319.695L174.188 319.572L174.065 319.326L174.312 319.081L174.801 318.591L175.659 318.102H175.903L177.13 317.489L177.863 317.243L179.213 316.631L179.579 316.263L179.825 315.896L180.069 315.529L180.314 315.283L181.05 315.037L181.417 314.302L181.54 313.936L181.662 313.812L181.908 312.588L183.011 311.24L182.397 310.136V309.77L182.152 308.544L182.029 308.299V307.563L182.152 307.074L182.397 306.828L182.152 306.461L182.275 305.726L181.785 305.48L181.54 304.622V304.499L182.521 303.397L182.888 302.785L182.765 302.295L183.133 302.05L183.379 301.56L183.5 301.068L183.256 300.947V300.579L182.765 300.456V299.967L182.029 299.354H181.662L182.029 298.25L182.888 296.167L183.256 295.188L183.5 294.207L183.379 293.718L182.888 293.351H182.521L181.908 292.124L181.54 291.757L181.296 291.389L181.05 290.776L181.417 290.041L181.54 289.552L181.296 289.185V288.938L181.417 288.693L180.682 287.958L180.314 287.346L180.192 287.468L179.702 287.223L179.457 286.487L179.702 286.243L179.213 285.875L178.478 285.631L178.599 282.2L179.213 281.097V280.483L179.702 280.117L180.314 279.503L180.192 277.788L184.971 279.626L186.074 280.606L189.749 281.586H189.872L191.832 279.503L193.915 277.176L197.837 272.642L198.081 272.029L199.062 269.456L197.592 268.231L195.263 267.127L194.038 266.761L194.65 264.801L195.019 264.065L195.875 263.574L196.367 264.065L196.979 263.942L197.469 263.696L198.081 263.942H198.45L199.062 264.555L199.92 265.044L200.164 265.413L201.269 266.148L201.881 266.515L202.247 266.761L202.616 267.25L203.352 267.619L204.821 267.985L205.312 268.354L205.435 268.598L205.924 269.211L206.17 269.579L206.659 270.314L208.374 269.702L208.865 271.05L210.09 270.559H211.192L211.807 270.314H212.05L212.785 270.191L213.031 270.438L213.154 270.681L213.521 270.927L213.644 271.294H214.379L215.604 271.416L215.85 271.05L215.973 270.927L216.339 271.171L216.585 271.294L216.951 271.416L216.706 270.927L216.216 269.456L214.379 266.271L214.133 265.902V265.536L215.237 265.779L215.358 265.657L215.48 265.167L215.114 264.555L214.256 263.574L214.133 261.982V261.859L214.746 261.982V262.226L215.114 262.595L215.48 262.718L217.687 262.595H218.177L219.77 262.226H220.872L221.117 262.472L221.24 262.961L221.117 263.942L221.363 264.801L221.853 265.779L223.323 267.985L223.2 268.598L222.711 269.823L224.917 270.681L225.529 270.927L226.019 271.05L225.896 271.294L226.265 273.01L227.121 272.887V271.785L228.102 271.539L227.979 270.927L228.592 270.804L228.715 270.314L229.327 271.171L230.308 271.539L230.431 271.171L231.901 271.294H232.514L232.758 270.927L233.37 271.05L234.597 271.539L236.68 272.029L237.292 272.397H237.659L238.271 272.521L238.395 272.642L238.884 272.274H239.375L240.11 271.906L240.723 271.294L241.336 271.05L241.458 270.927L241.09 270.068L240.723 269.579L240.233 268.231L240.11 267.373L240.233 267.25L240.846 267.005L241.213 266.638L241.336 265.902L241.702 265.779H242.438L242.561 265.657L243.419 265.044L241.825 262.718L240.601 260.757L240.11 260.143L239.007 257.938L238.763 255.855L235.087 256.223L230.062 256.346L223.813 256.1L220.139 255.487L216.829 255.12L214.991 254.875L211.071 253.65L210.579 253.527L207.271 252.302L202.37 249.851L200.287 248.626L199.552 248.014L197.102 247.155L194.527 245.808L190.361 244.214L186.931 242.131L185.216 241.151L183.991 240.048L183.256 239.559L183.011 238.823L182.397 236.617V235.393L182.521 233.555L182.397 232.574L181.785 231.349L181.296 230.491L179.946 229.633L178.599 229.021L177.496 228.653L175.047 228.407H170.267L168.797 227.795L167.326 226.693L165.979 224.854L165.366 224.61L162.548 222.771L161.444 221.792L160.71 220.934L159.975 219.953L159.729 219.34L159.606 218.604V217.626L159.729 217.014L160.342 216.155L160.832 215.786L161.567 215.174L162.67 214.562L163.405 214.438L164.631 214.195H165.121L167.694 214.072L169.042 213.582L169.654 212.847L170.145 212.112L170.39 211.499V210.885L170.145 209.66L169.899 208.802L169.409 208.066L168.184 206.842L167.326 206.353L165.733 205.617L164.876 205.127L163.405 203.779L162.915 202.553L162.67 201.451V200.47L163.527 197.897L163.405 194.835L163.772 193.119L164.998 190.669L165.611 190.423L166.224 190.301H166.959L167.939 190.669L170.022 192.138L170.635 192.506L172.841 193.119L174.065 192.996L179.457 192.261L180.192 192.017L181.662 190.546L182.644 188.707L182.888 187.972V186.624L182.765 185.768L182.397 184.909L181.785 184.174L180.069 183.316L177.496 181.602L176.395 181.355L174.556 181.11L172.229 180.989L171.492 180.866L171.002 180.498L170.635 179.885L169.777 176.332L169.287 175.474L168.674 174.983L167.939 174.861H167.204L166.591 175.106L165.979 175.719L164.753 177.802L163.65 179.15L162.18 180.008L159.975 180.62L157.892 180.866H156.299L155.44 180.375L153.603 179.15L152.745 178.415L151.029 176.088L150.54 175.719L150.05 175.474H149.069L147.354 174.861L146.496 174.248L146.006 173.636L145.516 172.778L145.394 172.166L145.271 171.431L145.761 170.205L146.251 169.226L147.722 167.387L149.56 165.917L149.805 165.427L149.682 164.569L149.314 163.834L148.579 162.486L148.456 161.506V160.157L148.824 159.545L149.314 158.933L149.927 158.319L150.907 157.83L152.745 156.972L153.357 156.236L153.726 155.502V154.521L154.093 153.786L154.828 152.806L155.809 151.826L157.646 150.232L158.382 149.497L158.871 148.64L159.117 147.659L158.871 146.68L158.504 145.699L157.769 144.964L156.421 143.983L154.216 142.758L151.765 141.533L150.54 140.308L149.927 139.082L148.824 137.489L148.211 136.142L147.599 133.69L147.354 131.118L146.618 126.339V126.217L146.006 123.153L145.761 121.315L145.516 120.212L144.78 119.109L144.045 118.374L143.555 118.129L142.82 117.885L140.982 117.395L140.369 116.904L139.389 115.802L138.654 113.841L138.286 112.37V110.655L138.409 109.92L138.654 108.817L139.267 107.469L139.512 106.734L139.757 105.754L139.879 104.161L140.002 102.078L139.757 99.8721L139.512 99.0146L139.021 98.6465L138.531 98.2793L136.326 97.2988L135.836 96.8086L135.101 95.4609V93.3779L134.732 91.0498L134.243 88.8447L133.753 87.8643L132.404 86.6387L133.753 85.168L134.243 86.2715L134.488 86.7617L134.732 87.6191L141.84 86.0264L141.35 84.5557L141.228 83.5752L141.472 84.0654L141.84 84.4336L142.33 84.8008L142.942 84.9229L143.433 84.8008L143.8 84.6787L144.413 84.1885L144.903 83.6982L145.394 83.3301L145.761 83.4531V82.9629L146.986 81.8604L147.967 80.3896L148.456 80.0225L153.48 81.125L155.318 81.8604L157.646 82.1055L158.259 82.3496L159.606 81.7373L162.915 80.7568L163.038 81.2471L164.018 82.8398L166.469 82.9629L165.979 81.4922L164.631 77.2041L165.979 74.0176L167.571 73.1602L168.307 72.915L170.757 72.5479H172.841L174.678 72.3027L175.168 72.5479L176.026 72.793H176.395L177.496 72.915H178.231L178.967 72.793L177.742 68.1367L176.516 63.6025L177.742 62.0098L179.579 59.4365L180.805 57.5986L182.644 54.6582L183.256 53.5547L184.848 54.0449L188.401 54.29L189.382 56.6182L190.24 60.5391L190.853 61.6426L190.484 63.2354L190.853 64.583L194.038 64.7061V65.0732L200.899 65.4404L199.92 64.0928L201.146 63.9707L203.229 63.8477H205.801L206.413 64.8281L209.601 64.7061L214.991 64.4609L216.951 66.666L218.056 65.8086L214.991 61.0293L214.379 59.9268L228.837 50.4922L229.695 51.5947L231.655 54.5352L234.229 53.0654L236.557 52.4521L237.782 52.085L239.13 49.7568L240.967 47.9189L241.825 46.9385L242.316 46.4482L243.785 45.3457L245.379 44.1201L246.85 43.0176V41.1797L246.482 39.5869L247.585 39.2188V38.9736L248.565 38.2383L249.178 37.8711L249.422 37.1357H250.034L250.157 37.5039L250.893 37.1357L254.2 35.665L256.652 33.8271L257.388 33.0928L256.283 31.9893L254.079 29.9062L253.957 29.6611L254.323 28.9258L253.099 27.7012L255.059 25.8633H254.936L255.549 25.25L257.265 26.3535L258 25.6182L258.612 25.1279L258.735 25.25L263.269 21.5742L262.901 21.207L263.76 20.7168L263.147 19.6143L263.881 19.2461L263.76 18.8789L264.495 18.3887L271.11 19.8594L271.356 20.1045L271.601 19.9814L275.767 20.8389L281.036 15.5703L281.403 15.8154ZM237.782 664.989L237.292 665.355V665.602L236.924 665.846L236.68 667.195L236.557 667.562V667.808L235.821 667.929L235.699 668.052L234.841 667.929L234.718 668.052H234.229L234.718 668.297L235.087 668.664H235.209L235.453 668.909L235.821 669.155H236.067L236.435 669.399L236.557 669.521L237.047 669.645L237.17 670.012L237.292 670.747L237.536 671.604L238.027 671.361H238.395L238.884 670.992L239.007 670.626L239.13 670.503L239.253 670.135L239.619 669.521V669.155L239.988 668.786L240.233 668.297L239.988 667.438L239.619 667.316L239.253 666.826L239.375 666.337V665.725L239.498 664.989L239.253 664.62H238.884L237.782 664.989Z" fill="white"/>
<circle id="596" cx="399" cy="327" fill="#5CE50D"/>
<circle id="597" cx="327" cy="244" fill="#E52A0D"/>
<circle id="598" cx="673" cy="681" fill="#E52A0D"/>
<circle id="1639" cx="703" cy="891" fill="#E52A0D"/>
</svg>
