<svg width="1000" height="1000" viewBox="0 0 1000 1000" fill="none" xmlns="http://www.w3.org/2000/svg">
<path fill-rule="evenodd" clip-rule="evenodd" d="M18.1987 734.399L18.9179 732.961L19.2056 733.968L19.6371 734.399H20.2124L20.6439 733.536L21.3631 730.084L21.7946 728.934L21.507 727.783L22.0823 726.776L23.0892 726.201L23.6645 725.338L24.2399 725.05L24.6714 724.043L25.1029 723.612L24.8152 722.461L24.9591 721.022L25.2468 720.303L24.9591 719.296L25.5344 720.303L26.6851 720.591L27.4043 719.584L26.6851 718.577L28.1235 719.296L28.4112 719.153L28.1235 716.851L29.1304 717.427L30.4249 716.42L29.4181 713.974L29.8496 713.831L30.4249 714.55L31.7195 715.269L32.151 714.837L32.4387 713.687L32.2948 712.536L32.151 712.104L32.2948 711.098L33.1579 709.803L33.3017 708.652L33.7332 707.358L34.7401 706.495L35.7469 707.214L37.7607 706.639H39.0552L39.9182 707.358L40.9251 707.07L41.3566 707.933L42.3635 707.502L42.795 706.782L43.5142 706.495L43.9457 706.782L44.5211 706.639L45.3841 707.07L45.2402 708.365L44.2334 708.221L42.795 708.652L41.5005 710.235L41.0689 709.947L40.2059 710.091L39.3429 708.94L38.1922 709.228L37.3292 708.652L35.3154 708.509L34.3086 709.515L34.1647 710.378L34.8839 711.817L35.3154 711.961L35.7469 711.241L36.8976 711.385L37.473 710.666L38.1922 710.81L38.0483 711.385L37.6168 711.529L37.473 712.248L38.336 712.392L38.4799 712.824L39.4867 713.255H39.9182L40.7813 713.687L40.4936 714.118L39.7744 713.974L40.2059 715.125L40.7813 715.557L40.3498 716.707L38.6237 717.427L38.9114 718.29L38.336 718.577L37.9045 718.146L37.3292 718.002L36.3223 718.721L35.4593 719.009H34.4524L33.7332 719.153L34.1647 720.303L33.4455 720.447V721.454H32.5825L31.7195 721.31L31.5756 722.029L30.2811 722.461L29.9934 723.18L29.1304 723.899L28.2674 723.755L27.8358 723.899L28.1235 725.338L27.8358 725.769L26.829 725.913L25.5344 727.208L24.2399 727.639L23.233 728.646L22.5138 730.516L22.37 731.235L21.9385 732.961V733.824L20.6439 735.119L19.4932 735.55L18.1987 734.399Z" fill="white"/>
<path fill-rule="evenodd" clip-rule="evenodd" d="M25.103 762.882L25.3907 762.45L25.2468 760.149L25.8222 759.429L25.2468 758.998L25.3907 758.135L26.5414 755.546L27.2606 756.265L26.9729 757.272L26.3975 758.279L26.2537 758.71L26.9729 758.566L27.5482 757.847L27.6921 756.984L27.9798 756.409L27.4044 753.964L27.5482 753.244L28.1236 752.525L28.8428 752.381L29.2743 751.087L28.5551 750.224L27.9798 751.662L27.5482 752.094L26.5414 752.381L25.6783 751.95L25.8222 750.655L26.2537 749.361L26.1099 748.498L26.6852 747.203L27.1167 745.477L27.6921 744.902L27.2606 743.463L28.1236 741.881L28.5551 741.594V740.587L29.4181 740.011V738.717L30.2812 736.415L30.1373 735.552L30.425 734.402L29.9935 733.97L29.7058 732.819L29.9935 732.388L29.2743 731.237L29.562 729.943L29.1305 728.936H29.8496L29.9935 727.785L30.5688 726.778H31.0004V725.771L31.5757 725.484V724.908L32.1511 724.189L32.4387 723.326L33.0141 722.895L33.5894 723.326L34.021 722.895V722.463L35.3155 721.744L35.747 720.737L36.3224 720.593L36.61 721.025L36.7539 721.744L37.6169 722.175L37.9046 722.751L38.4799 722.607L38.6238 722.032L37.6169 720.881L38.0484 720.162H38.6238L40.0621 718.867L40.3498 718.148L41.3567 717.141L41.7882 717.573L41.5005 719.011L42.2197 719.586L42.3636 720.305L42.7951 720.593L42.5074 719.442L42.0759 718.867L42.9389 718.004L42.7951 718.867L43.6581 720.881H44.2335L44.665 721.312L44.9526 720.593L44.665 720.018L45.3842 719.442H46.5349L47.5417 718.867V717.573L47.9732 717.141L47.8294 715.703L48.5486 715.559L48.9801 714.84L50.85 713.689L51.2815 712.107L51.713 711.531L52.4322 711.819V712.394L52.1445 713.114L52.5761 714.696L51.4254 715.271L51.713 716.278L52.7199 716.71L53.2952 717.429L53.1514 718.723L53.7268 718.436L54.446 718.292L55.7405 717.429L55.8843 716.566L56.6035 715.415L57.035 715.559L58.0419 716.422L58.9049 716.566L60.9187 715.415L61.0625 714.552L61.3502 714.84V716.422L60.4871 717.86L60.0556 719.155L61.2063 718.436L62.0694 717.285L62.357 717.716L61.494 718.867L62.5009 719.155L62.9324 719.73L63.9393 719.011L65.09 719.442L65.3776 718.723L64.6585 717.573L65.8092 717.141L66.0968 716.278L65.09 715.846L65.3776 715.415L65.09 714.552L65.8092 714.12V713.545L66.9599 712.826L67.2475 712.251L66.9599 711.963L67.9667 711.1L69.1174 709.374L69.9805 708.511L71.1312 707.792H71.7065L72.7134 709.23L72.8572 710.381L73.2887 711.388H73.8641V711.819L74.5833 711.675L74.7271 710.812L75.1586 710.381L74.4394 708.511L75.0148 707.504L76.0217 706.785L76.1655 705.922L77.3162 706.785V707.216L78.4669 707.935L78.7546 707.216L77.6039 706.497V705.634L77.3162 704.915L76.597 704.483V703.764L76.0217 703.333L75.5901 702.182L76.3093 700.6L77.46 699.161L77.8916 699.017L79.7614 701.463L79.9053 700.456L79.3299 699.593L79.1861 698.874L78.7546 698.011L77.46 697.579L77.8916 696.716L77.46 695.709L78.0354 695.134H79.4738L79.9053 694.702V694.127L79.4738 693.12L79.6176 691.538L79.9053 690.675L80.7683 690.387L81.4875 690.531L81.7752 692.257H82.2067L82.6382 690.387L83.3574 690.099L83.5012 689.524H81.4875L81.3437 688.517L82.4944 687.942L82.782 686.36L82.6382 685.641L83.2136 685.065L84.3643 684.921L84.5081 684.202L84.3643 683.051L85.0835 682.62V681.469H85.8026L86.378 680.894V680.031L86.6657 678.592L87.6725 678.305L86.378 677.586L86.0903 676.723L86.5218 676.147L87.0972 676.003L87.6725 676.291L87.9602 675.284L89.3986 674.853L87.9602 673.702L87.241 674.565L86.378 674.277V673.558L87.5287 673.27V672.839L86.6657 672.551L86.378 671.257L88.104 670.538L87.3849 670.394L85.6588 669.387L86.378 669.099L87.241 669.387H88.3917L89.2548 669.099L89.5424 668.668L90.6931 669.674L91.8438 668.668L92.2754 666.942L93.2822 668.092L94.2891 668.524L94.5768 668.812L96.4467 669.674L96.8782 671.401L97.1658 671.976L99.3234 674.133L100.474 675.86L101.049 676.291L101.481 676.147V677.154L102.488 677.442L102.056 678.449L101.337 679.312L101.625 680.175L101.193 680.319L101.049 681.182L100.33 682.62L101.193 683.483L100.906 684.058V685.928L99.8988 686.935L99.6111 687.654L98.4604 688.086L98.6042 688.949L98.3166 689.236L97.7412 688.517L97.1658 689.093V690.675L97.022 691.538L97.5974 691.969L97.022 692.545L97.7412 693.408L97.3097 694.271L98.3166 695.709L97.885 695.997L98.1727 696.86L97.885 697.723L98.4604 698.298L99.7549 698.442L100.33 699.88L100.906 700.744L101.913 701.463L102.2 700.456L102.488 700.6L102.919 700.024V699.449L103.926 699.737L104.214 700.168L103.639 701.175L103.782 701.894H103.351L103.063 702.757L103.351 703.333H104.502V703.045L105.652 703.476V704.196L106.228 705.059L105.221 705.634L104.933 705.922L103.782 706.209L103.639 706.785L104.502 707.504L104.214 707.935L104.645 708.223L103.639 710.237V710.668L102.919 711.388H102.344L101.193 712.107L100.906 712.97L99.0357 714.983L98.8919 715.703L97.5974 717.429L96.8782 717.716L95.8713 718.436L96.159 719.011L95.8713 720.018L95.1521 720.593V721.312L95.8713 721.888L96.0151 722.751L96.5905 722.319L97.022 722.607V723.326L97.7412 724.477L98.6042 724.333L99.8988 725.915L100.906 724.764L100.762 723.47L100.474 723.038L100.762 722.175L101.625 720.737L102.919 719.586V718.867L103.495 718.436L104.645 718.004L105.365 717.141L104.645 716.566L104.933 715.271V714.408L105.365 713.545L105.796 712.251L106.084 712.394L106.371 713.401L107.091 712.394V711.675L107.522 711.388L108.098 711.531L108.817 711.1L108.673 710.525L107.522 710.381L107.235 709.949L107.378 709.374L107.954 709.23V708.511L108.385 707.36L109.392 707.072L109.536 706.785L110.83 707.648L111.55 707.792L112.7 708.798L113.563 708.942L114.57 707.792L114.858 705.922L114.714 704.483L115.289 703.476L114.426 702.757L114.283 702.326L114.714 701.175L115.146 701.031L115.002 700.312L115.289 699.593L115.865 699.449L116.152 698.73L115.721 697.291L115.146 696.86L115.289 696.572L114.714 696.141L114.426 695.422L113.851 695.278V694.99L115.577 693.695L115.721 693.12L116.44 692.689L116.728 691.394L116.44 691.106L116.584 690.243L115.146 690.819L114.426 690.531L114.283 690.819L112.844 690.531L112.413 691.25L109.824 690.387L108.673 689.812L109.392 689.38L108.961 688.517L109.536 688.373L110.687 689.38L111.837 689.956H112.557L113.276 688.805L114.139 688.23L114.714 688.661L114.858 690.099L115.865 690.387L116.152 689.956L116.872 689.812L117.303 690.099L118.598 689.668L118.454 688.086L119.173 687.51L120.036 687.223L121.474 685.928L122.05 685.641L123.201 686.36L123.344 686.935H123.92L124.064 687.654L123.632 688.086L122.338 688.805L122.769 689.093L124.351 688.949L124.207 689.668L125.214 689.524L125.646 689.093L126.365 689.38L127.803 688.517L127.372 687.367L127.947 686.935L127.516 686.36L127.803 685.928L127.084 684.49L126.077 684.202L126.365 683.627L125.933 682.476L126.221 682.045L127.66 681.613L128.235 681.901L129.098 681.038L128.235 680.606L128.666 679.456L129.242 679.312V678.88L128.523 678.161V677.298L128.235 676.866L127.084 677.154L126.796 676.866L127.084 675.716L127.803 674.853L128.81 673.99L129.242 673.127L130.68 672.983L132.262 674.565H133.269L134.564 673.99L134.851 673.27L134.132 672.264L134.42 671.401L136.002 671.113L136.865 670.681L137.584 669.531H139.167L140.317 671.688L139.023 672.983L137.728 673.127L136.29 674.565L136.146 675.14L134.564 675.716L133.988 676.579L134.132 677.298L135.427 677.154L136.146 678.017L136.002 678.449L137.297 678.736L137.728 677.873L138.304 677.442L138.879 678.017L138.16 678.161L138.447 678.88L137.728 679.168L137.44 679.887L137.584 680.319L136.721 680.606V681.325L136.002 681.613L135.427 681.325L135.283 680.319L134.564 681.182L133.413 680.75L133.125 680.894L132.55 682.188L132.838 682.764L133.557 683.051L134.564 684.058L134.276 684.921L133.413 685.065L132.55 684.49V683.771L131.831 683.627L132.118 684.346L131.399 684.49L131.255 684.777L132.406 685.209L132.262 685.641H131.543L131.399 686.072L130.824 686.216L131.399 686.935V687.51L133.269 686.216L133.845 686.36L133.413 686.791L133.701 687.51L133.125 687.798L132.982 688.373L133.845 688.23L134.132 688.661L132.406 690.099L133.413 690.531V689.812L133.988 689.236L134.42 689.38L134.995 690.387L135.571 690.243V691.106L136.577 690.099H137.153L137.44 689.38L136.865 688.949L136.146 689.524L135.139 689.38L135.283 688.373L135.714 688.086L135.858 686.647L136.434 686.072L136.865 686.504H138.016V686.216L137.44 685.353L137.584 684.921L138.735 685.065L138.879 684.49L138.304 683.771L138.447 682.476L139.023 682.188L139.167 681.613L140.461 681.182L140.03 680.462H141.18L140.749 680.031L140.605 679.168L141.036 679.024V678.449L142.187 677.873L142.763 678.161L143.05 678.88L143.913 678.161L142.906 677.154L140.605 677.298L139.886 677.154L140.893 676.003L142.475 675.428L142.331 674.565L143.482 672.983L145.064 671.544L144.92 669.818L146.215 669.387L147.221 670.106L147.509 670.969L148.228 671.401L149.379 671.544L149.954 670.825H150.674V669.818L149.954 668.524L149.235 667.805L149.379 667.373L150.242 667.229V668.38L150.817 668.812L151.968 668.524L152.831 669.243L152.975 669.818L153.407 670.106L153.55 669.387L153.119 668.236L153.407 667.948L153.982 666.51L154.989 665.072L154.845 664.64L154.27 664.496L153.982 665.216L153.407 665.072L153.263 664.352H151.968L152.687 663.633L153.407 663.777L153.119 663.058L153.407 662.339L152.112 663.202L151.968 662.626L151.249 662.483V660.9L151.68 660.757L151.824 660.181L151.249 659.606L152.112 659.462L151.824 658.887L152.112 658.599L152.4 657.017L153.407 657.161L153.55 656.729H154.126L154.845 656.01L155.42 656.298L156.139 657.161V656.01L154.845 654.859H155.852L156.427 655.291L157.146 655.003L157.434 654.14L156.571 654.428V652.989L157.002 651.695H157.578L157.146 652.558H158.297L158.585 652.845L158.729 654.14L159.16 654.859L159.735 652.845L160.167 652.27L160.886 651.982L161.03 652.702L161.893 652.845L162.9 651.551L162.324 651.119L163.188 649.969L162.9 650.688L163.907 650.832L163.763 651.695L164.626 652.414L163.907 652.989L164.194 653.852L163.188 653.565L163.619 654.284L163.763 655.147L163.475 657.161L164.482 656.729V655.435L165.633 654.715L165.92 654.14L166.927 653.565L167.503 653.133L166.783 651.839L167.503 652.126L167.934 651.119L167.503 650.832L168.078 650.544L168.222 649.825H169.373L169.948 650.4L170.379 649.969L171.099 650.4V650.832L172.105 650.544L171.818 651.551L172.249 651.982L171.53 652.558L172.105 652.845L172.537 653.565L172.969 653.708L172.681 652.702H173.256L173.832 653.852L174.407 653.996L173.688 652.414L175.558 653.565L175.701 653.996L176.421 653.708L175.414 651.551L174.263 651.263V650.544L175.27 650.256L174.838 649.25L175.27 648.818H176.421V647.955L177.427 648.674L177.14 647.667H177.715L176.564 647.236L175.845 646.517L175.701 645.797L176.421 645.078L175.989 644.647L175.27 645.941L174.551 646.373L174.695 647.236L174.407 648.53H173.832L174.119 649.106L173.688 649.969L172.825 649.681V648.818L171.962 649.25L171.386 649.106L170.092 647.955L169.373 648.243L168.366 648.099L168.078 647.523L167.071 647.667L166.927 647.236L166.64 648.099L166.064 648.674L165.489 647.667L166.064 646.948H164.626L164.77 645.51L166.496 646.373L167.934 646.517L168.653 647.092L168.366 645.51L167.79 645.222L168.078 644.791L167.071 644.934L166.783 644.071H165.777L165.345 643.64L165.201 642.633H165.92L165.633 642.058L165.777 641.051L166.064 640.475L166.927 640.763L166.496 639.756L167.503 640.044L167.646 639.037H166.927L167.215 638.318L166.496 637.742L166.927 636.592L167.79 637.023L168.078 636.304V635.729H169.229L170.379 635.441L170.955 636.16L170.811 634.722H170.092L170.236 633.859L169.66 634.722H168.941L169.085 633.859L170.236 632.708L169.373 632.852L169.229 631.989L168.797 630.982L169.804 631.414L170.523 632.133L171.099 631.557L170.523 631.27L170.379 630.551L169.804 630.407L170.379 629.975L170.811 630.407L171.962 629.831L171.386 629.256L170.379 629.112V628.393L170.811 628.105L170.379 626.811L170.236 625.516L171.674 624.653L172.249 623.646L172.681 624.509L173.832 625.229L174.407 626.379H175.126V626.955L176.852 627.674L176.564 627.386L177.859 626.955L178.147 627.53L178.722 626.523L179.873 628.105V628.681L180.304 628.825L180.448 628.393L181.455 628.249L180.16 626.523L180.592 626.235L180.304 625.804L179.585 625.948L179.441 624.653H178.866L179.154 623.79H180.017L179.441 622.927L180.16 622.352L179.729 621.633V620.338H179.297L178.866 619.331L178.578 619.763L179.154 620.913L178.722 621.776L178.147 621.489L178.003 622.208L177.571 622.352L177.14 621.489L176.133 621.057L174.695 621.345L174.838 621.92L174.263 622.352V620.626L173.688 619.044L174.119 618.612L173.256 618.037L173.112 617.03L171.818 616.454L172.537 615.304L171.818 613.434L173.256 613.146H173.975L173.832 613.578L173.975 614.728L174.695 615.016L175.558 614.728L175.989 615.016H177.427V613.865L178.003 613.434L177.427 612.283L178.147 611.852L177.715 610.557L178.578 610.701L178.866 611.564L180.16 610.845L181.023 611.132L181.599 610.989L180.88 608.543L179.873 606.817L178.003 604.947L179.297 605.235L179.729 605.81L181.167 605.523L180.592 607.105L181.023 607.968H181.886L182.462 607.536L182.893 609.263L183.613 609.694L183.9 610.701L184.619 610.269L184.044 606.961L184.763 606.817L185.195 607.824L185.339 608.831L184.907 609.838L185.77 609.55L186.202 608.256L186.633 607.824V606.961L187.496 607.249V606.53L188.503 606.242L187.784 604.804L187.496 604.66L186.921 603.509L188.071 603.797L189.078 603.509L189.51 603.797L190.229 603.653L190.661 604.228L191.38 604.372L191.092 605.235L191.38 605.954L191.811 605.81L191.38 607.105L192.387 606.961L192.674 607.393L192.243 608.256L193.393 608.112L193.25 606.817L193.537 604.947L193.969 604.804L193.106 602.502L193.25 600.776L192.962 600.201L193.106 599.769L193.681 600.776L193.537 601.639L194.4 600.92L195.12 599.913L195.695 600.201L195.263 599.338L195.551 599.05L196.27 600.201L196.126 600.92H195.263L194.976 602.071L194.4 602.502L194.544 603.078L194.976 602.646L195.407 603.078L195.551 602.502L196.126 602.646L195.983 603.365L196.846 603.078L197.277 601.639L198.14 601.495L198.859 601.639L198.715 602.214L199.291 602.502L199.722 601.927L201.017 602.502L200.729 603.797L201.88 602.934L203.606 604.66L204.325 604.372V604.804L203.606 604.947L203.75 605.81L203.031 607.105L203.462 607.393L203.606 606.817L204.901 606.961L204.613 607.968L205.044 608.543L205.907 607.968L206.77 608.112V609.119H207.346L208.065 609.838L207.777 610.845L208.209 611.42L208.784 611.564V612.139L209.503 612.715L209.36 613.721L210.798 613.434L211.086 614.153L211.805 614.728L211.949 615.448L211.805 616.167V616.886L211.373 617.605L211.661 618.037H212.38L212.812 617.461L213.387 616.167L212.955 614.441L212.38 611.276L211.805 610.557L211.229 609.406L210.366 609.263V608.112L209.072 607.824L209.503 607.105L209.647 606.386L208.496 606.53L207.777 605.379V602.79L206.914 602.502V600.776L206.339 600.488L206.051 600.92H204.757L204.038 600.345L203.75 599.769L204.038 599.194L204.757 599.913L205.332 599.769L204.325 598.619L204.469 597.899L203.894 598.187L203.606 597.612L204.038 596.892L203.031 596.749L202.887 596.173L202.311 596.892L201.736 596.173L201.448 595.023L200.873 594.735L200.298 593.153L200.585 592.577L199.291 592.146L199.435 591.283H198.428L198.284 591.858L197.277 592.29L196.989 592.002L197.565 590.995L198.284 590.564L198.428 589.701L198.14 588.694H198.715L198.284 587.687L198.859 587.255L198.428 586.824L198.859 586.392L199.435 586.68L200.154 586.392L199.722 585.242L197.996 584.522L197.421 583.659L198.14 582.652H197.133L196.702 582.509L196.989 581.933L195.983 581.214L196.702 580.926V580.351L197.133 579.776L197.421 579.92V580.926L198.284 581.646L199.147 581.07L199.003 580.063L199.579 579.488L199.722 578.337L199.291 577.906L199.579 577.187L200.585 578.769L201.017 579.92H201.305L202.311 578.625L201.88 578.337V577.762L202.599 576.611L202.311 575.173L201.88 575.029V574.166H202.887L203.174 574.454L204.038 574.022L203.606 573.735L204.038 572.728L203.75 572.152L204.038 571.433L204.469 570.858L204.901 572.008L205.62 571.865V570.426L205.764 569.851L206.483 569.707L206.77 571.433L207.49 573.591L207.346 574.741L207.777 575.748L207.633 577.474L206.914 577.331L206.195 577.906L206.339 578.337L207.346 578.05L207.777 578.913L207.058 579.632L207.777 580.351L207.49 582.077L208.065 581.933L208.209 583.084L208.065 583.947L208.496 584.235L209.072 586.392L209.216 587.687L208.928 588.838L209.36 589.125L209.072 590.276L208.64 591.139L208.065 590.995V591.427L206.914 591.858L207.346 592.29L206.914 592.865L205.907 593.584L206.195 594.16L207.921 593.153L207.49 594.016L208.353 595.166L209.503 594.735L209.072 595.598L209.36 596.029L208.928 596.461H209.647L209.503 597.18L210.223 597.468L211.229 596.461L210.654 596.173L211.373 595.742L211.661 593.728L210.51 593.44L209.935 592.865L210.223 592.577L211.229 592.865L211.517 592.577L210.942 592.146L211.517 592.002V591.427L212.38 591.858L212.524 590.851L213.675 590.564L214.682 590.851L214.969 591.427L214.825 592.29L215.545 592.146L215.832 592.577L216.264 592.002L215.976 590.851L216.264 589.844L215.401 589.701L214.969 588.981L213.531 589.269L213.818 588.262L213.387 587.831L212.236 588.838L211.086 588.262L211.229 586.968L210.798 585.817L211.086 584.666L210.798 582.365H210.223L210.079 581.07L210.654 579.2L210.51 578.337L210.654 577.043L211.086 577.474L210.942 575.892L211.229 574.885L211.805 574.454L211.229 573.878L210.798 572.872V571.577L211.229 570.282L211.086 569.276L211.373 568.7L211.949 569.995V571.577L212.38 571.721L212.955 571.145L213.243 570.426L213.962 569.707L213.675 569.276L213.962 568.413L214.394 568.125L214.538 566.83L215.688 566.686L216.12 567.262L215.832 567.837L216.12 568.269L217.127 568.125L216.983 567.262L217.558 567.118L217.846 567.837L218.421 567.693L218.565 567.118L219.141 567.406V566.83L220.147 566.543L221.01 566.974L221.298 566.686L221.154 565.967L221.298 565.536L222.305 565.823L222.017 566.255L223.456 568.125L225.182 569.132L224.894 568.556L225.326 568.413L226.332 568.556L226.476 568.125L226.908 568.844L227.483 568.7L227.915 568.844L227.339 569.419L227.483 570.282L228.058 571.002L227.483 571.721L227.771 573.159L228.346 572.872L228.634 573.735L229.928 573.591L230.216 573.878L230.36 574.885L230.935 575.461L231.654 575.173L231.942 575.461L232.374 575.173L233.237 575.748L232.949 576.324L233.093 576.755L232.23 577.043L232.805 577.474L232.661 578.194L233.093 578.769L232.374 578.913L232.805 580.495L233.668 580.351L233.524 581.07L233.093 581.358L233.237 581.933L234.1 581.789L234.243 579.92L233.956 579.344L234.387 578.913V578.194L234.675 577.762L233.956 577.331L234.1 576.467L234.819 575.748L235.394 576.036L235.538 575.748L235.107 575.029L234.1 574.741L234.531 573.878L233.668 574.166L234.387 573.447H235.107L235.97 573.878V574.31L236.976 574.885L238.271 575.317L238.702 575.892H239.422L238.702 575.029L237.552 573.735L236.833 572.296H235.97L235.538 572.008L235.682 571.002L234.531 570.57L233.812 571.433L233.093 571.002V570.139L232.661 569.707L232.805 569.276H233.38L233.237 568.556H232.661L232.805 568.125L231.654 567.549L231.942 567.118L231.511 566.83L232.086 566.543L233.237 567.549L233.093 566.543L232.661 566.255L233.237 565.392L232.374 565.536L231.942 564.673V564.385L231.223 564.241L231.079 563.522L230.504 563.378L229.785 563.522L229.641 562.947L230.36 563.091L230.935 562.371L231.223 561.508L230.648 561.221L229.641 561.364L229.065 560.358H229.497L230.072 559.638L229.641 558.775L230.216 558.344L230.935 559.495L231.511 558.919L232.374 559.063V559.782L232.949 560.07L233.093 560.645L232.374 561.652L233.524 562.515L234.387 561.364L233.668 561.221L234.243 560.789L233.812 560.358L234.243 559.782L234.675 560.358H235.826L236.257 560.789L236.689 560.358L236.545 559.351L236.976 559.495L237.264 558.919L237.839 559.207L237.696 558.2L238.99 558.632L239.278 558.919L240.141 558.775L240.429 558.344L239.853 557.769L237.983 556.618L237.408 556.042L235.682 555.755L235.107 555.467L236.401 555.036L236.545 554.604L234.963 554.029L233.956 553.453L233.237 553.741L232.661 553.453L234.243 552.734V553.166L235.538 553.885L236.401 553.741L237.12 554.604L236.833 554.892L237.696 555.467L238.415 555.323L238.702 554.892L239.566 555.179L238.99 555.323L239.134 556.042L239.566 556.474L240.285 556.33L241.579 557.049L242.442 556.474H243.305L243.593 556.186L243.305 555.611L242.73 555.899L241.723 555.755L240.86 555.179L242.874 555.467L242.442 554.173H244.024L243.881 553.31L242.73 553.166L243.593 552.015L242.874 551.727L242.011 552.447H241.292L241.148 551.727L241.723 551.008L241.004 550.289L239.566 550.577L239.134 550.001L240.716 549.714L241.435 549.857L242.298 549.426L242.442 550.577L243.305 550.001V549.426L243.593 550.001L244.312 550.145L244.744 549.282L245.463 549.714L245.319 550.864L245.751 551.583L246.757 552.015L247.189 551.296L247.477 551.583L247.62 552.447L248.052 552.59V553.597H247.62L246.47 554.748H245.319L246.326 555.755L247.045 556.33V556.618L245.607 556.33L246.038 557.625L246.757 557.337L246.901 558.2L248.34 558.488L248.627 559.063L247.62 559.638L246.757 559.207L246.47 559.638L247.189 560.214L246.901 560.933H247.62L248.483 561.652L248.915 561.508L249.346 562.228L249.778 561.508V559.351L251.504 559.926L251.648 560.358H252.511L253.805 561.364L253.23 562.084L253.518 562.515L254.093 562.803L255.532 561.652H256.107L255.1 560.214L254.093 559.638L253.805 559.063L252.942 558.919L252.223 558.2L251.216 558.344L250.929 558.056L249.203 557.193V557.049L251.073 556.762H251.648L252.079 556.474L250.641 556.042L249.49 555.467L250.066 554.748L249.778 554.604L250.353 554.029L250.21 553.597L251.216 553.166L251.36 552.303L250.066 551.152L250.353 550.864L250.066 550.289L251.073 549.857L250.785 549.426L251.216 548.851H252.223L252.655 549.426V550.001H253.374L253.662 549.426L253.949 549.857L254.525 548.563L254.237 547.556H253.374L253.086 547.844L251.936 546.981H249.778L249.922 547.7L248.915 547.844L247.908 546.693L248.627 546.405L248.915 545.686L248.483 544.823L249.059 544.535V545.255L249.634 545.398L250.066 544.967L250.929 545.686L251.648 545.111H252.799L253.374 545.83L254.669 545.398L255.1 546.118L255.532 545.974L255.819 545.255L256.395 545.83L256.682 545.255L257.401 545.542V546.405L257.977 546.118V545.398H259.415L259.703 545.974L260.278 544.392H259.703V543.672H259.415L259.127 544.392H258.696L257.545 544.104L257.689 542.809L256.97 543.529H256.107L256.251 543.097L255.819 542.809L255.388 543.672L254.237 543.385L253.949 542.522H253.086L252.942 543.385L252.367 543.241L252.223 542.666L251.36 542.09L250.641 542.234L249.778 541.083L250.497 540.939L250.21 540.508L251.073 540.364L251.792 541.371H252.511L253.086 540.796L253.518 540.939L253.949 540.076L253.805 539.357L252.799 539.501L253.23 538.494L252.367 538.782L251.792 538.494L252.367 537.2H253.805V536.624L252.655 536.912L251.792 536.049L251.648 537.344L250.641 538.207L249.778 537.344L249.634 537.775L248.34 538.207L248.771 538.926L247.62 539.213L247.045 540.22L246.614 540.076L247.045 539.645V539.07L247.477 538.063L247.189 537.631L247.62 537.2L247.189 536.624L246.182 536.912L245.607 536.624L245.463 536.049L246.038 535.905L245.751 535.617L246.47 535.042L247.477 535.474L247.189 534.611L246.757 534.179L247.333 533.748L246.901 533.172L247.189 532.597L248.483 532.453L248.34 531.878L247.333 531.59L247.764 530.871L248.771 531.158V530.727L249.203 530.295H248.627L247.62 529.145H246.757L246.326 529.432V530.152L245.751 530.727H245.031L245.607 531.302V532.022L244.888 531.59L244.456 532.022H243.449V531.59L244.168 530.871L243.881 529.289L243.449 529.432L243.593 530.295L242.298 531.59V531.015L242.73 530.727L242.011 527.994L242.298 527.131L242.011 525.405H242.874L244.312 524.254L244.744 523.247H245.463L245.607 523.679L246.47 523.823V522.96L247.045 522.241H246.326L245.894 521.665L245.463 521.809L244.744 521.234H244.312V520.227L243.881 519.795L243.593 520.227L243.305 521.378L243.018 521.665L242.586 520.802L242.73 520.371L242.155 520.227L241.723 520.946L242.011 521.953L241.435 522.672L240.429 521.09H239.853V521.521L239.278 521.809L239.997 522.384L239.709 522.96L238.702 523.104L238.127 523.679H237.264L237.839 523.104L237.696 522.384L238.271 522.241L237.696 521.953L238.271 521.09L237.264 521.378L237.696 520.227L237.264 519.651H236.833L236.689 520.227L236.257 519.939L236.113 520.371L234.963 519.508V518.645L235.682 518.501L235.826 518.069L234.963 517.925L235.538 517.206L234.963 516.919L234.387 515.624L235.394 515.768L236.113 514.905L235.107 514.329L235.826 514.042L234.531 513.754H234.1L234.387 512.747L234.963 512.603V511.596L233.812 510.733L234.531 510.302L234.387 509.583L233.812 509.151V509.583L232.805 509.727L232.374 508.576L233.956 507.857L233.237 507.569L232.805 507.713L232.661 507.138L231.942 506.85L233.38 506.562L233.237 506.131L233.956 505.699H234.531L234.387 504.98L233.812 504.836L234.819 503.829L235.25 504.261L235.107 503.11L233.812 502.679L233.668 503.11L231.942 503.254V502.103L233.093 501.816L231.942 501.384L231.223 500.952L231.367 500.233L232.661 499.226H232.949L233.38 497.788L232.949 497.5L232.517 498.076L231.654 498.363L231.079 496.925L231.223 495.774L231.511 494.911L232.805 494.336L232.374 493.617H232.086L232.949 492.466L232.374 491.747L232.086 490.884H230.935L231.079 492.035L230.216 493.761H229.353L229.065 494.624L229.353 495.343L228.634 496.206L228.058 496.35L227.483 497.357L227.195 498.507L227.627 499.514L226.476 499.37L225.469 499.946L225.326 500.377L224.75 500.952L224.894 500.089L225.326 499.514L225.038 498.939L224.319 499.802L223.599 500.377L223.168 499.946L222.593 500.233L222.161 499.083L221.586 498.795L221.73 497.932L222.305 497.5V496.781L221.586 496.637L221.73 495.487H220.867L220.723 496.925L219.572 496.781L219.284 497.069L218.709 496.35L217.702 496.637L215.976 495.199L216.695 494.48L217.558 494.624L217.271 494.048L217.558 493.473L216.551 492.322L216.839 491.603L217.558 490.74L216.839 489.445L216.264 488.87L215.545 489.445L215.257 489.158L214.825 487.432L214.25 487.288L213.243 488.151V489.158L212.524 488.439L213.243 488.007L213.099 487.432L213.531 487.144L213.818 486.425L214.394 486.137V485.418L213.818 484.843V483.692L213.099 481.822H212.524L211.949 482.685L211.661 481.822L210.366 481.391L209.791 481.822L209.503 481.103H208.784L208.928 480.527L211.086 480.24L211.517 479.089L210.223 478.801V478.226H209.216L209.503 477.363L208.928 477.075L208.64 477.507L207.633 477.938L206.77 477.219L206.627 476.5L208.065 475.205L208.209 474.486V473.479L208.784 473.767L209.647 473.336L209.935 472.904H210.654L212.092 474.199L212.812 473.767L211.805 471.897L213.243 472.185L213.962 471.322L213.675 470.459L214.394 470.027L214.538 470.89L215.257 469.596L213.818 468.014L215.401 467.726L216.12 466.719L215.688 465.424L216.12 464.418L214.682 463.555L215.113 462.548L214.25 461.829L212.955 462.692L213.387 460.678L214.394 460.39L215.113 457.657L213.675 456.507L214.25 455.068L215.688 454.061L219.141 454.637L220.291 454.205L219.428 452.191L217.846 451.472L216.983 448.164V445.719L216.12 444.136L216.408 443.705V442.698L215.401 440.828L214.682 441.547L213.818 440.541L214.969 439.821L214.682 437.376L215.832 437.088L216.264 435.506L215.688 435.075L215.113 435.65L215.401 433.924L214.969 432.917L214.394 432.486L213.531 432.917L213.962 434.355L213.387 435.794H212.38L211.086 436.513L210.366 435.794L209.647 435.506L208.928 434.931L208.784 433.636L209.503 434.068L210.366 433.492L210.079 433.061L210.223 432.342L209.647 432.198L210.366 431.335L210.223 430.903L209.503 430.616L209.072 430.903L208.784 430.04V428.89L209.503 429.177L209.791 428.746H210.942L210.079 427.307L211.086 427.164L210.51 426.444V425.869L211.229 425.725L210.51 424.718L209.791 425.15L208.928 425.006L209.216 424.718L209.503 423.136L208.784 422.417L207.633 422.273L207.058 423.136L206.627 423.28L206.051 422.992L205.907 421.698L206.339 421.122L206.627 419.684L206.483 418.965L205.476 417.958L206.339 417.526L207.346 417.958L207.777 418.677H208.64L209.36 417.958L210.223 418.677L210.366 419.252L211.086 419.684L210.51 420.547L212.524 419.396L212.955 418.533L214.106 417.526L216.264 417.383L215.545 416.232L214.106 416.376L213.099 416.088L212.955 415.513H212.38L212.236 415.944L212.38 416.951L211.661 416.807L210.942 417.095L210.51 415.944L209.647 415.8L209.216 414.937L208.209 414.65L207.777 414.794L208.209 413.643L208.928 413.211V412.636L209.503 412.492L209.36 411.629L208.784 410.766L207.777 411.198L207.49 411.485L206.339 410.91L207.49 410.622L208.065 409.759L209.36 410.478L210.223 410.047L210.942 409.328L211.086 408.752L211.517 408.608L211.805 408.033L211.229 407.458L210.51 408.321L209.791 408.177L209.072 407.602L210.366 406.739L209.647 405.876L210.654 404.581L211.661 405.3H212.092L212.236 404.581L211.517 403.286L211.661 402.855L211.229 402.423L209.791 402.567L209.072 401.417L208.64 401.273L208.209 401.848L206.914 401.992L206.339 401.273L206.914 400.841L207.058 400.122L207.921 399.834L208.496 400.985L208.928 400.697L209.791 400.554L210.51 400.697L211.086 399.978L210.942 399.259L209.647 399.547L208.353 398.396L207.777 398.684L207.346 397.821L207.058 397.677L206.483 398.252L206.339 397.821L205.044 397.101L204.325 397.533L203.894 398.396L203.174 397.533H202.455L202.024 396.958L200.729 396.526L200.585 396.095L200.01 395.807L199.435 396.095L199.579 395.375L200.01 394.656L201.017 394.8L202.168 394.656L202.024 393.505L202.455 393.218L202.168 391.636L202.599 391.204L203.606 391.06L204.469 390.197V389.478H205.907L206.051 388.903L204.325 387.464L203.894 386.457L202.743 385.307L201.736 384.731L200.154 383.149L199.003 382.142L198.572 381.279H197.709L197.277 380.992L196.414 381.135L194.832 380.992L194.4 381.135L194.257 377.108L194.4 375.813L194.257 373.224L194.113 372.217L194.257 370.06L193.681 366.895L197.133 364.882L199.722 362.58L202.455 357.834L203.462 355.101L204.469 351.505L205.62 348.053L206.195 347.621L207.921 346.614L211.805 344.457L218.134 340.717L220.291 337.121L225.901 333.813L227.483 331.367L229.497 327.484L229.785 326.477L230.791 324.607L232.661 323.169L233.956 321.011V319.429L234.387 317.127L235.826 314.826L237.264 311.23L237.839 310.511L238.559 308.641L246.614 303.607L250.641 290.086L254.525 289.942L267.902 289.654L273.367 289.367L293.217 288.791L310.046 265.633L311.197 265.202L312.635 263.62L314.074 260.311L314.793 259.88L314.937 258.873L315.512 258.01L317.526 257.435L318.101 257.147H319.108L319.396 255.852L319.683 254.414L319.539 253.839L320.546 252.832L320.978 252.257H322.129L323.279 252.976L323.998 252.832L324.718 253.12L326.156 251.537L325.868 250.962L326.3 249.811L326.731 249.38L327.451 247.941L328.745 247.51V247.078L328.457 245.928L328.889 244.921L329.32 244.345L329.752 243.051L330.183 242.763L331.19 242.907L331.91 241.756L333.492 241.613L334.067 241.469L335.505 241.181L336.8 239.886H337.375L337.807 239.167L339.101 238.304L340.108 238.017L340.54 236.434L341.403 235.571L341.547 234.708L342.554 234.852L343.273 234.133L344.136 233.558L344.711 232.838L345.718 231.975H346.293L346.869 232.838L347.444 232.695L348.163 231.975L349.17 231.256H350.321L352.91 231.975L354.492 231.688L355.643 231.975L356.65 232.407L358.52 234.133L360.533 234.277V233.27L360.821 232.838L360.965 231.688H363.698L367.438 231.975L369.883 232.263H370.746L372.184 231.975L373.479 231.544L374.917 231.832L376.931 231.975L378.801 231.832L381.677 232.119L384.123 232.551L385.849 231.688L386.424 231.112L386.712 230.393L387.575 230.681L391.602 230.537L394.048 230.249H396.493L397.931 229.818L402.103 229.674L402.822 229.386L404.116 228.092L404.979 227.516L407.137 223.633L408.719 221.907L408.863 221.619V219.893L409.438 219.174L410.157 219.318L411.02 218.742H412.027L412.746 218.023L413.61 217.735L414.185 216.297L415.767 215.578L417.349 214.427L417.925 214.283L418.644 213.564L419.075 211.55L420.658 210.831L423.678 209.968L425.836 209.537L429.288 209.105L431.589 209.249L433.603 209.393L437.343 210.112L439.213 210.543L441.37 211.407L442.809 212.27L445.254 214.427L446.692 216.009L450.288 221.475H450.864L454.172 222.194L460.069 224.783L460.213 223.345L459.494 221.907L459.206 220.468L459.782 218.886L459.925 217.735L459.494 216.729L460.213 214.859L459.925 214.139V213.42L460.645 212.701L461.651 211.55L462.227 210.4L462.946 209.824L463.665 208.674L464.241 208.242V207.091L464.528 206.228L465.104 205.797L465.823 204.79L466.11 203.783L467.405 203.208L468.556 203.064L469.994 202.632L470.857 202.776L471.001 200.187L471.576 199.324L471.72 197.886L471.576 197.454L470.569 196.735L471.289 195.009L471.72 194.721L472.583 194.002L473.302 193.714L473.734 194.002L474.022 194.29L475.316 196.16L476.179 197.023L476.898 197.167L477.761 196.591L479.056 197.886L479.631 198.749L480.063 198.605L481.213 198.749L481.933 199.468L482.22 200.475L480.782 201.913L481.357 202.201L481.07 203.352L481.645 204.215L481.357 205.365V205.653L482.796 206.804H483.659L484.953 207.811L485.529 208.386L485.385 209.249L486.248 209.968L486.535 210.687L486.392 211.694L488.405 212.557L489.844 214.571L489.412 215.29L489.556 216.297L489.844 216.872L490.419 217.448L491.138 218.886L493.008 217.448L495.166 216.441H502.214L500.919 216.872L500.344 219.03L500.632 220.037L500.344 220.612L500.775 222.626L500.344 224.352L500.488 226.51L500.632 227.085L500.488 227.66L500.632 228.523L501.063 228.955L500.919 229.53L501.351 230.825L501.638 232.119L501.351 232.695L501.207 234.564L501.495 235.427V236.866L501.782 238.448V240.462L502.358 241.613L503.364 242.907L503.796 244.202L503.221 244.345L502.789 245.065L502.933 245.928L502.645 246.647V248.948L503.221 249.955L503.652 250.53L505.091 251.537L504.659 252.976L504.947 254.126L505.378 255.133L505.522 256.14L506.529 258.298V259.161L506.241 261.174L506.529 262.613L507.967 264.914L508.543 265.633L509.406 265.921L510.7 266.496L511.276 267.935L517.173 277.284L522.207 276.853L526.235 272.394L534.29 269.086L539.324 267.216L540.762 267.503L542.632 266.928L545.365 265.921L546.516 265.777L547.379 266.065L547.523 264.914L547.954 264.483L550.256 263.188L551.55 261.894L552.845 262.181L553.852 261.318L555.146 260.743H555.865L556.441 259.88L557.16 256.859L557.448 255.565L557.591 254.846L558.454 254.126L558.886 253.263L559.893 252.544L560.756 252.257L562.05 251.393L563.201 250.099L563.489 249.38L564.208 247.366L564.639 245.352L568.235 243.914L569.818 246.071L570.249 246.359L571.4 246.215L572.982 246.647L574.277 247.366L575.715 247.941L576.147 248.517L577.873 250.674L579.886 251.393L581.325 251.969L581.756 252.4L583.051 252.832L583.626 252.688L584.058 250.962V249.955L584.633 247.941L584.058 246.935L583.77 246.071L583.626 244.921L583.914 243.482L583.338 242.188L583.195 240.749L582.763 239.886L582.907 238.16L588.804 234.421L591.681 233.701L591.537 232.982L591.825 231.256L591.537 229.242L591.969 228.236L592.832 227.373L597.003 224.783L599.161 224.64L599.736 224.927L600.311 225.934L602.469 226.078L603.62 225.79L604.914 226.222H605.633L606.928 224.783L608.079 224.352L610.38 225.79L611.387 225.934L612.106 226.653L612.969 228.379L614.839 230.393L615.702 230.105H616.709L617.428 229.53L617.716 227.516L617.86 226.653V224.352L618.291 223.057L619.298 222.051L619.442 220.468L620.305 219.893L621.887 220.037L623.757 219.174L624.045 218.886L624.62 216.441L627.641 213.852L631.236 214.283L639.579 211.263L636.271 206.372L637.278 202.776L635.695 198.03L637.422 195.872L638.428 193.139L641.737 190.406L641.305 189.687L641.017 186.954L640.298 182.639L640.011 179.618L639.435 177.173L642.456 175.735L645.333 175.591L648.066 175.447L648.497 177.892L649.648 180.769L652.956 180.338V177.173L656.264 176.454L659.285 178.18L660.436 174.872L660.723 174.584L662.593 173.721L663.456 173.146L663.888 171.42L664.463 170.557L665.758 169.693L666.764 168.543L667.34 168.399L668.059 167.68H668.778L669.21 166.673L670.073 165.235V164.947L671.367 163.508L672.662 162.645L673.813 162.07L674.819 161.207L675.539 160.056L676.258 157.323L677.552 155.454L679.566 153.584L679.854 151.57L680.429 150.851L682.874 149.412L685.176 147.686L687.909 146.679L689.203 146.967L690.498 146.248L691.361 144.666L691.217 143.803L691.505 142.94L691.361 142.364L691.648 140.494L692.799 139.775H694.238L695.101 139.2L696.97 137.618L697.546 136.898L698.409 136.323V136.035L698.121 134.885L698.265 134.165L698.984 132.008L698.84 130.713L700.279 128.268L700.998 126.111L700.71 125.535L700.998 124.385L700.854 123.234L700.998 122.515L700.71 121.795L701.573 120.069L702.58 119.494L702.724 118.919L703.155 118.343L703.443 117.336L704.882 116.33L705.457 115.035L706.32 114.46L706.608 114.747L708.478 114.172L708.765 113.453L710.635 113.165L712.649 111.871L712.505 111.583L713.943 111.151L715.669 110.576L716.245 110.432L717.108 109.857L717.252 109.282L718.258 109.138L718.115 108.706L719.409 108.562L720.128 108.131L721.279 108.275L721.854 107.843L722.43 108.131L722.717 108.706H723.581L723.724 107.268L723.437 106.117L722.717 105.542L722.43 105.11L722.717 103.96L722.142 102.953L722.43 102.377L722.142 101.37L721.567 100.651V98.7813L721.279 98.6375L721.135 97.0553L720.56 96.4799V95.4731L721.423 93.8908L721.135 93.0278L721.279 92.3086L720.991 91.4456L721.854 90.5826V89.5757L723.149 88.8565L722.861 88.2812L724.012 87.7058L725.594 87.2743V86.2674L725.45 86.1236L725.882 85.4044L726.026 84.6852L725.594 84.3975L725.882 83.6783L726.17 83.8222L726.889 83.2468L726.457 82.8153V80.5139H725.594L726.026 79.2194L725.882 78.644L726.745 78.5002L727.033 78.7879L727.464 78.3563L726.745 77.3495L726.889 77.0618L727.752 76.7741L727.033 75.3357L728.039 76.3426L728.471 76.1988L728.902 74.9042L729.478 74.6165L730.485 74.3289L730.916 75.0481L730.772 75.7673H731.635V76.3426L733.218 76.6303L733.649 77.4933V76.7741L735.231 76.6303L735.951 78.0687H736.67L736.814 78.5002L737.677 78.7879L738.252 77.9248L738.108 77.4933H737.533L737.389 76.7741L738.54 75.9111L739.115 74.6165L739.69 75.3357L740.41 75.7673L741.129 75.6234L741.704 76.1988V76.6303H742.279L743.43 77.3495L743.718 77.781V76.918L744.725 77.2056V77.6371L745.875 77.4933L745.732 78.2125H746.307L746.595 77.6371L747.889 76.918L748.608 75.9111V75.6234L749.328 75.1919L749.759 75.4796L749.471 75.9111L749.903 76.0549L750.622 75.7673H751.341L751.629 75.3357L751.197 75.0481L751.341 74.4727L751.773 74.7604L752.636 75.7673L753.067 74.7604L753.93 75.4796L754.65 75.1919L754.793 75.6234L755.513 75.0481L756.232 75.9111H756.807L757.67 75.3357L758.245 75.9111L759.54 75.3357L760.403 75.7673L762.129 76.0549L762.273 76.3426L764.287 76.0549V75.6234H764.862L765.15 74.9042L764.862 74.3289L765.006 73.6097L764.862 73.1782H766.3L767.163 72.6028L766.013 72.459L766.876 70.5891L767.739 70.4452L767.163 71.1644L767.595 71.596L768.17 71.4521L768.026 70.4452H768.602L768.314 69.2945L769.033 68.863V68.4315L769.753 68.863L770.472 68.1438L771.335 68.2877L771.191 69.0069L771.622 69.4384L772.054 69.2945L771.91 68.5754H772.485L772.342 69.0069L773.205 69.2945L773.061 68.7192L773.205 68L773.924 68.1438L774.211 69.0069L774.499 68.5754L776.944 69.4384L777.664 69.2945L778.958 70.3014L779.102 70.7329L780.54 70.8768L781.116 70.3014H782.266L782.698 70.4452L782.123 71.7398H783.273L783.417 70.5891L784.136 70.7329L783.992 71.4521L785.431 72.7467L783.417 73.8974L782.554 74.7604L782.266 76.918L781.116 77.3495L779.965 79.3632L779.821 80.3701L778.958 81.6646L777.52 82.6715L775.65 84.2537L775.506 84.9729L776.081 85.6921L775.506 87.1305L774.931 88.1373L775.65 90.1511L775.506 91.0141L775.65 91.8771L775.506 92.4525L775.794 93.6032V94.7539L776.369 95.7607L776.657 97.0553L777.376 98.6375L778.239 99.7882L778.527 101.227L778.958 101.946L779.534 102.233L781.116 102.09L782.266 102.377L783.273 102.233L785.575 102.665L786.725 103.384L787.013 104.391L786.438 105.542L784.136 106.836L783.417 107.843V110.145L783.561 111.008L782.842 112.446L782.986 113.597L783.992 115.323L784.28 116.473L783.705 118.631L783.849 119.35L784.28 120.645L784.856 121.22L785.719 121.939L787.732 122.658L789.458 122.515L790.897 121.939H792.335L794.493 122.227L795.787 123.234L797.945 124.097L798.808 123.953L799.671 124.672L800.965 126.398L802.979 127.98L802.691 128.987V129.707L804.13 132.439L804.561 134.309L805.424 137.761L806 138.481L806.863 139.056L808.733 140.926L809.02 142.077L808.589 143.515L808.733 144.378L809.74 146.248V146.967L810.746 148.549L811.609 149.125L813.048 150.419L814.198 151.858L814.342 152.577L814.198 153.44L816.212 155.597L816.788 156.46L817.938 157.755L818.37 159.337L820.527 163.365L821.103 164.084L822.685 165.235L823.26 166.385V168.687L823.548 169.981L823.404 170.844L823.548 173.433L823.26 174.728L823.404 175.879L823.836 176.166L824.986 176.454L825.562 177.173L826.281 178.899V180.194L826.856 181.632L827 183.358L828.007 184.221L828.295 184.796L828.007 185.372L827.144 185.228L826.569 185.947L827.144 187.529L826.856 188.249L825.13 190.838L824.555 192.276L824.842 192.851L825.562 193.427L826.569 194.721L826.712 196.447L827.288 197.31L827.863 198.893L828.726 200.043L828.87 201.194L829.877 201.482L830.596 202.345L830.884 205.221L831.459 206.085V207.379L831.891 207.954L833.473 208.386L852.603 213.42L860.658 230.537L884.679 235.14L885.83 236.147H886.261L912.008 262.181L912.584 259.592H913.015L913.591 260.743L914.31 263.044L914.166 263.62L913.447 263.764L913.591 265.777L915.748 294.545L916.036 294.401L916.755 294.833L916.899 295.552L916.323 297.134L935.166 322.593L938.762 327.34L939.194 328.059L945.235 335.97L961.92 358.409L961.201 359.704L961.345 360.279L953.002 378.69L953.434 379.985L953.146 380.848L953.578 381.998L953.434 382.574L953.721 383.437V385.738L953.434 386.17L952.715 386.745L957.893 435.938L957.749 436.513L958.036 437.232L954.297 453.054L949.838 475.781L950.269 476.212L950.125 477.219L949.406 477.938L947.536 490.021L946.529 496.781L947.968 497.932L948.687 500.952L972.852 541.371L974.146 542.666L975.153 543.241L976.448 543.672L978.03 543.816L978.893 544.248L980.044 546.981L979.612 548.131L979.468 549.714L979.9 550.864H981.626L983.352 552.159L984.071 553.597L985.222 554.748L985.653 556.474L986.229 557.337L987.379 557.769V558.775L989.537 560.358L989.969 560.933V562.947L990.4 563.954L989.825 566.399L988.818 566.974L988.386 567.693V568.844L988.099 569.851L987.092 571.577L986.804 571.865L984.934 571.289L984.215 571.865L984.359 572.584V574.741L984.215 576.036L982.777 577.762L982.201 579.057L980.907 580.495L980.331 581.646L979.612 582.365L978.174 584.522V584.954L978.605 585.385L979.325 586.824L979.037 589.557L979.181 591.139V591.714L977.886 592.146L976.16 593.584L975.441 593.872L975.297 594.879L974.29 596.029L974.578 596.892L974.29 597.899L973.571 598.619L972.996 600.201L971.989 601.208L972.42 602.646L972.708 604.228L972.564 604.947L971.989 605.667L970.982 607.249V608.975L971.557 609.838V610.413L970.838 611.708L971.413 612.858L971.27 613.29L970.407 613.578L970.263 614.441L968.968 615.16L968.393 616.023L967.818 616.454V617.317L967.386 618.9L966.667 620.482V621.776L966.523 622.496L965.372 623.359L964.797 624.365L963.79 625.516L963.934 626.667L963.646 627.674L964.365 628.825L963.502 630.407L963.79 631.27L964.797 631.989L964.653 632.996L964.941 634.147L964.509 635.01L963.215 635.585L962.927 636.304L963.071 636.879L963.646 638.03L962.927 640.907V642.777L963.79 644.071L964.941 647.523L965.228 649.106L964.509 650.4L964.653 651.119L965.372 652.126L966.379 654.428L967.242 655.578L967.386 656.585L968.249 658.455V661.332L968.537 663.489L968.249 666.079V667.517L967.961 668.812L967.386 670.25L966.811 670.969L966.667 671.688L967.674 673.846L966.954 675.716L967.098 677.01L967.53 677.729H968.105L969.544 676.866H970.119V677.586L968.68 680.319L968.105 681.038L966.523 682.188L964.941 682.62H963.79L961.776 684.346L960.769 685.497L960.194 686.647L960.05 688.086L959.619 689.812L960.194 690.963L960.05 692.113L959.043 693.12L957.461 695.134L956.31 696.428L955.591 697.867L955.304 698.298L953.721 699.305L952.715 700.312L951.851 701.607L950.701 702.326L948.112 702.901L947.393 702.757L945.954 701.894H945.091L942.646 702.757L940.92 703.189L940.776 704.627L940.488 705.49L939.194 706.641L939.05 707.36L938.618 707.792L936.892 708.511L935.885 708.079L935.022 708.798L934.447 709.518L934.735 710.956L933.153 711.675V712.107L933.584 714.12L932.433 714.408L931.426 713.833H930.995L930.132 714.552L928.694 714.696L927.399 715.271L926.248 714.84V714.408L926.392 712.538L925.817 711.675L925.098 710.812L923.659 710.237L921.933 710.381H920.207L919.056 710.093L917.762 709.661L916.467 708.942L913.447 706.785L912.727 705.922L911.289 703.476L910.426 701.75L909.707 701.319L907.837 700.887L905.392 699.88L904.385 699.161L903.522 698.154L902.947 697.723L899.494 698.73L898.488 699.161L897.193 700.6L896.186 701.175L894.748 701.463L893.166 701.319L892.015 702.182L891.583 702.901L890.289 704.483L890.145 704.915V706.785L890.001 708.223L889.57 710.525L888.85 711.388L887.556 712.826L886.261 714.84L885.254 715.99L884.535 716.566L883.241 716.853L880.796 718.867L880.508 719.73L879.789 720.737L878.926 721.169L877.343 721.744L877.056 722.175L876.768 723.614L874.898 724.764L874.035 725.771L872.741 725.196L871.734 725.628H871.158L870.295 724.908L869.432 724.333L867.562 723.758L866.987 722.319L865.98 721.025L864.973 721.456L863.247 721.312L862.672 720.593L861.233 721.025L860.37 720.162L858.357 719.155H857.925L855.048 720.018L853.898 720.593L852.459 720.162L851.453 718.867H849.439L848.863 719.586L847.137 720.737L845.987 720.881L844.98 720.305L844.404 720.737L843.254 721.169L841.672 721.888L839.658 725.196L838.795 725.915L836.637 727.066L834.192 728.073L831.891 728.504L831.459 728.217L830.884 727.21L829.301 726.347L826.856 726.059L824.411 725.34L822.973 724.621L821.966 724.477L820.096 725.628L819.377 725.484L817.794 724.621L817.075 724.189L816.356 723.182L815.637 721.888L812.472 721.025L811.034 720.881L809.883 721.312L809.308 721.456L807.15 721.169L805.856 719.73L804.417 719.874L803.842 719.73L802.979 718.436L803.267 716.134L802.548 714.12L801.397 713.257L798.376 711.819L797.801 710.237L796.938 709.661L795.787 708.223L794.636 708.367L793.63 708.223L792.91 707.36L793.054 706.209L791.904 703.333L790.753 702.613L790.034 702.757L789.314 703.476L788.595 703.908L787.157 704.052L784.712 703.189L783.849 701.75H783.561V700.887L784.28 699.593V696.716L783.992 695.853L783.417 695.278L782.41 695.422L781.691 694.846L779.246 693.983L778.383 692.257L779.246 690.243L779.677 689.812L778.958 688.517L778.67 687.51L778.958 686.216L779.821 685.353L780.684 683.483L780.253 682.476L780.54 681.757L779.821 680.606L778.527 679.887L775.218 679.743L774.499 679.887L772.917 681.182L771.766 681.469L771.335 681.325L769.609 684.346L769.033 685.065L768.17 685.353L767.451 685.209L766.444 684.634L764.862 684.921L763.855 684.49L763.136 683.483L762.704 682.908L761.554 683.771H760.691V682.62L760.115 681.901L758.389 680.606L758.102 679.743L757.526 679.168L757.095 678.017L756.376 677.586L755.369 676.291L754.218 675.716L753.93 676.291L752.492 676.866L750.622 676.579L750.19 677.154L749.471 677.298L747.458 677.154L746.451 677.586L745.012 679.168L744.437 679.312L744.293 680.894H743.43L742.999 682.332L742.136 682.62L740.841 683.627L741.129 684.058L740.697 684.777L740.841 685.784L739.978 685.928L739.69 686.647L740.266 686.935L739.978 688.373L738.827 691.25L738.54 691.106L737.82 691.969L737.389 693.695L737.82 694.127L737.389 694.846V696.141L734.224 696.86L733.218 696.572L732.642 695.853L730.772 695.278L729.334 695.565L728.327 694.99L726.889 693.12L726.313 692.832L725.738 691.538L724.587 688.805L724.444 687.654L724.3 687.079L723.293 685.784V683.771L723.581 682.045L724.3 680.75L724.156 680.175L723.293 679.743L721.423 677.873L720.128 678.305L718.834 679.168L715.382 679.456L713.799 678.592L713.224 677.873L712.361 677.442L711.498 677.586L710.779 676.866L709.628 676.723L709.197 676.147L708.19 675.716H707.615L707.902 676.579L707.615 677.154L706.751 677.298L706.464 676.866L706.176 677.298L704.306 677.154L703.731 678.017L702.005 678.592L702.724 679.312L702.58 680.031L701.573 680.319L700.854 679.887L699.56 680.031L700.279 681.038L699.991 681.613L700.423 682.332L699.991 684.202L700.279 685.065L701.286 685.784V687.079L701.573 687.223L701.717 688.949L702.436 689.236L702.149 689.956L700.71 689.524L700.135 690.099L700.423 691.25L700.998 691.538L702.149 691.106L702.868 691.682L703.012 693.408L702.292 694.271L701.286 695.853H700.566L699.847 696.285L699.56 696.86L700.135 697.004L699.991 697.435L699.416 698.011L700.135 699.593L699.991 700.887L698.265 701.607L699.847 703.908V704.483H698.696L697.546 704.339L693.375 704.915H691.361L685.032 705.634L683.306 705.346L680.861 705.203L680.141 704.915L678.272 703.476L677.696 703.189L677.265 702.038L675.395 699.88L674.1 699.305L671.799 697.723L670.648 696.716L669.497 695.278L668.059 694.702L666.908 694.558L665.758 694.846L665.182 695.709L664.319 696.428L663.456 697.435V698.442L662.881 699.449L663.025 701.75L662.449 703.333L661.011 704.627L661.299 705.346L661.011 707.36L660.723 708.223L660.436 710.381L658.278 711.531L656.84 712.394L654.251 713.114L653.531 712.97L653.1 713.977L652.812 715.415L653.244 717.141L653.388 718.292L652.812 719.73L652.237 722.463V723.901L651.661 725.052L649.648 727.929L648.066 729.799L647.346 730.95L646.771 732.1L646.196 732.676L645.045 733.395L643.75 733.539L642.744 733.107L640.874 732.388L639.004 731.956H637.853L636.702 732.244L634.832 733.539L633.394 734.258L632.387 734.545H629.942L628.504 734.977L625.771 736.703L624.332 737.135L622.75 737.278H621.168L618.579 736.991L616.421 735.984L615.414 735.409L611.531 732.819L609.085 731.525L606.64 731.237L604.195 730.086L603.332 729.367L601.462 727.641L597.722 723.901L592.976 719.442L590.099 717.429L589.092 716.71L587.797 715.271L587.222 714.264L586.071 710.956L585.064 708.367L584.345 706.929L583.338 705.346L580.174 700.456L578.304 698.442L575.859 696.428L571.975 693.839L569.53 692.689L567.229 691.969L566.078 691.826H564.496L559.461 692.401L556.728 692.113L554.571 691.25L551.838 689.668L550.256 688.661L549.249 688.086L546.66 687.223L543.639 686.504L540.331 685.353L538.029 684.202L536.591 685.209L536.303 685.928L536.447 687.51L536.735 688.517L536.16 689.093L536.303 690.099L536.879 691.538L537.166 692.832L537.023 694.702L535.872 695.422L535.153 697.435L533.139 699.161L532.851 699.305L532.707 700.312L531.844 700.744V701.319H531.125L530.55 702.901L530.838 703.908L530.406 704.627L530.838 706.209L531.125 706.497L532.42 707.504L532.707 708.511L533.858 709.374L534.146 710.668L534.577 711.1V712.251L535.872 713.977L536.016 716.134V717.86L537.166 720.881L538.029 722.032L538.461 723.758L538.605 724.764L539.324 726.347L538.892 728.217L539.036 728.936V729.943L539.324 730.23L538.892 731.093L539.18 732.1L539.036 732.819L539.755 735.84L539.612 736.559L540.187 737.854L540.762 738.141L540.475 739.004L541.482 740.155L542.057 741.306L541.338 742.313L541.05 743.32L541.769 744.47L542.345 744.614L542.488 745.621L542.345 747.059L542.776 748.066L543.351 748.498L542.776 749.217L542.345 750.511L541.625 753.532L541.913 754.827L542.488 755.546L541.913 756.984L542.057 758.135L541.913 758.854L542.057 760.005L541.769 760.58L540.906 761.012L540.187 761.875L539.755 762.018L538.605 761.731L537.742 762.162L536.447 762.018L536.016 762.594L535.153 763.025L534.29 764.176L534.002 764.895L533.57 765.327L531.125 765.615L529.974 766.334L530.118 767.484L529.255 768.347L529.111 769.642L528.536 770.505L528.248 772.231L527.673 772.806L527.961 774.532L527.242 776.258L526.091 776.69L525.803 777.265L526.379 778.56L526.522 780.574L526.091 781.581L525.947 783.45L525.228 784.889L524.509 785.896L523.646 786.615L523.358 788.053L523.646 789.06L522.495 790.067L521.92 790.642L521.344 792.656L520.337 793.519L520.194 794.094L519.474 794.67L519.618 796.827L520.194 797.259L519.906 798.841L520.913 799.992L521.632 802.725L522.207 803.732L521.632 804.595L522.783 805.314L523.358 806.321L523.646 806.465L524.221 808.047V809.197L524.652 810.06L524.796 811.499L524.221 812.937L524.509 814.088V815.958L524.077 817.108L524.365 817.684V818.835L523.933 819.41L524.221 820.273L524.077 823.006L523.933 823.581L524.221 824.732L523.933 825.883L524.365 826.602L523.789 827.753V829.047L523.358 829.766L523.214 831.492L523.646 832.499L524.221 833.218H525.084L526.235 834.225L526.81 835.664L526.091 838.54L525.659 839.979L525.084 840.554L524.652 841.849L523.789 842.424L523.358 842.999L523.07 844.438L523.502 845.445L524.077 845.876L523.933 846.451L523.358 847.458L523.07 849.041V850.335L522.351 852.061L522.207 852.636L521.488 854.506L521.632 855.082L521.2 855.369L520.913 856.808L520.625 857.958L519.043 859.685L518.324 861.554L518.036 862.993L518.324 864.144L518.18 864.863L516.454 866.733L515.303 867.74L514.872 869.466L514.44 870.472L512.858 871.623L512.426 872.342L511.707 872.774L511.132 873.349L510.413 873.924V874.5L510.269 875.651L509.549 877.089L508.974 877.664L508.255 877.952L507.392 879.103V879.822L506.385 880.397L505.666 881.979L506.385 882.842L505.954 884.137L505.378 884.425L504.947 885.144L505.234 885.719L506.241 885.863L505.091 887.158L505.234 887.301L504.371 887.877L503.508 887.445L501.926 888.164L500.919 888.74L500.344 888.452H499.625L499.193 889.027L499.481 890.178L500.056 890.754L499.337 891.473L499.481 891.904L498.905 892.336L498.186 892.192L497.323 892.911H496.748L495.022 892.623L493.871 892.192L491.57 892.623L490.851 893.055L490.131 894.062H488.981L487.83 893.487L487.255 893.918L486.679 895.5L484.522 896.076H482.796L481.357 896.939L480.782 896.363L480.207 896.507L479.775 897.37L478.768 898.377L478.337 899.528V899.24L477.186 899.384V900.391L476.611 901.254L475.316 901.11L474.885 901.829L474.453 900.822L473.158 900.391L471.72 900.535L470.426 900.103L469.85 899.384L469.131 899.24L468.412 898.665L468.268 898.089L467.117 897.945L466.973 895.213L466.254 895.069L465.967 894.493L466.254 893.918L466.11 893.199L464.96 892.048L461.939 890.322L459.35 890.61L458.199 891.041L456.617 894.206L455.179 895.644L454.028 894.781L453.453 895.213L452.59 895.069L452.158 895.356L451.727 895.069L451.007 895.5L449.138 894.637L447.843 894.781L446.836 895.932L446.692 896.651L446.261 897.802L446.117 898.665L446.548 899.959V900.966L445.685 900.391L445.542 901.11L444.391 901.685L444.247 902.117V904.13L443.672 904.85L443.384 905.569L443.528 907.583L443.24 909.165L443.672 909.596L442.521 910.315L441.514 912.473V913.192L440.939 914.199L440.507 915.35L438.925 917.364L437.774 916.932L436.48 915.925L435.329 915.35L434.754 915.638L433.891 916.501L433.172 916.932L430.295 917.507L429.719 917.076L429 917.22L427.274 918.514L426.986 919.09L426.411 919.521L425.692 919.233L424.685 920.672L424.254 920.384L424.11 919.521L423.391 919.377L422.527 920.816L421.521 919.809L420.37 919.665L420.226 920.24L419.075 920.528L418.644 920.96L418.069 920.816L417.205 921.247L416.63 920.24L415.479 919.233L415.623 918.514L416.055 918.083L415.479 917.364L413.897 917.076L413.466 916.357L411.74 915.638L411.308 915.062L410.733 915.206L410.589 916.069L409.87 915.781L409.582 915.35L409.007 914.918H408.288L407.712 913.192L406.993 912.905V912.473L406.13 911.754L403.972 912.042L401.815 910.603L401.671 910.028L400.52 909.021L399.657 908.877L398.794 907.87H397.356L396.78 908.014L395.917 906.72L395.198 906.576L394.191 906L393.472 905.857L391.89 906.144L391.171 906L390.595 906.432L388.869 906L388.726 905.569L388.006 906.144L387 905.857L386.28 906.144V906.576H384.123L383.547 907.583L382.972 907.726V908.59L382.541 909.021L382.253 909.74L381.677 909.884V910.747L381.246 911.898L380.239 912.905L379.664 913.768L379.088 913.624L376.931 914.918L376.212 914.631L375.205 914.487L374.773 915.494L374.342 914.918V915.494L373.335 916.357L373.191 916.788L372.328 916.644L371.321 917.22L370.458 916.644H369.739L369.307 915.638H368.732L368.157 915.062L366.574 915.206L365.855 915.638L364.417 914.918L363.842 915.638L362.259 915.494L362.116 915.206L361.109 915.781L360.246 915.062L360.389 913.624L360.246 913.192L359.239 913.336V913.624L357.944 914.199H356.794L354.492 915.925L354.204 916.357L353.485 916.788L353.341 917.22L352.478 917.651L351.615 917.364L350.752 917.507L348.595 917.651L347.588 917.939L346.581 918.514L345.43 918.946L344.423 919.521L342.554 920.24L341.547 920.672L341.115 920.384L338.382 920.097L337.375 920.384L337.663 921.823L338.526 924.412L337.951 926.138L337.232 925.85L334.211 925.706L333.923 925.131L332.341 925.275L331.91 924.987L331.622 925.85L331.19 925.562L330.615 925.85L329.896 925.562L329.177 926.138L327.594 926.282L326.588 925.706L326.444 926.138L325.149 925.706L324.286 924.699L324.142 923.836L323.567 922.829L322.56 922.398L320.978 922.254L321.122 921.966L320.402 920.672L317.094 917.364L315.944 916.501L314.937 916.357L313.786 915.925L312.635 915.062L311.053 913.192L310.19 912.905L309.039 913.768L308.032 914.918L307.457 915.35L307.169 915.925L305.443 915.638L305.156 916.501L303.43 915.781L300.409 916.501H299.546L298.395 915.062L297.388 914.918L296.525 913.768V912.617L295.806 911.898L293.505 912.042L292.066 910.891L289.909 911.466H288.614L288.327 910.891L287.607 910.603L286.025 911.322L285.738 912.042L284.587 912.185L284.299 913.336L281.566 914.631L279.696 915.062L278.833 915.638L278.114 915.781L277.826 916.357L276.82 916.788L276.532 917.507L275.381 917.939L274.95 918.37H274.087L273.511 918.946L272.504 918.658L271.498 919.809L270.347 920.24L269.052 921.391L268.765 921.966L268.045 921.247L267.326 920.96L267.182 919.809L266.751 919.377L265.169 920.528L263.874 920.384L263.443 920.96V921.391L261.573 922.11L260.854 923.117L260.71 923.836L259.847 924.412L259.703 925.85L258.984 926.857L257.977 926.569L257.545 926.857V928.295L257.833 928.871V929.59L257.114 929.878L256.251 929.734L255.388 930.021L254.956 931.028L254.093 929.734L253.949 928.151L253.518 926.857L252.367 927.288H251.073V926.713L251.936 925.562L252.079 924.699L250.641 923.549L250.066 922.973L250.929 921.823L250.785 920.672L250.21 919.953V918.946L249.346 917.507L249.059 916.644L248.34 916.501L248.052 915.206L247.764 914.775L245.894 913.624L246.326 912.617L245.894 911.466V910.891H246.614L248.34 908.302V907.151L247.477 906L247.045 904.562L246.757 903.411L246.47 903.268L246.182 902.548L245.319 901.398L244.168 900.391L245.031 899.24V898.377L245.463 897.37L245.319 896.219H244.312L243.737 896.651L243.449 896.076L242.442 895.356L242.298 894.781L240.716 894.637L240.429 894.206L239.422 894.349V893.055L240.285 892.336L240.572 890.178L241.004 889.171L239.997 888.164L238.415 887.301L237.12 886.438V886.007L237.696 885.144L239.134 884.712L239.853 884.856L240.429 884.281L240.716 884.425L241.867 883.562H242.155L243.737 882.555L244.744 881.548L246.182 880.685V880.253L245.607 879.822L246.038 878.959V878.096L245.607 877.664L245.894 876.37V875.219H245.031L244.6 874.644L244.168 873.062V871.479L245.463 869.897V869.609L245.031 867.164L244.888 865.582L245.175 865.15L245.031 863.856L244.456 863.568L243.449 864L242.586 864.719L242.011 864L240.141 863.137L239.566 861.986L238.99 860.116L237.408 858.534L236.257 858.822L235.25 859.253L234.243 858.102V857.095L235.107 855.369L235.538 854.65L236.401 854.075H237.12V852.924L237.408 852.061L238.559 851.198L238.702 850.91L238.271 849.904L238.559 849.041L238.415 848.465L236.976 847.171L237.12 845.445L236.113 844.582L235.25 842.424L234.819 841.992L234.387 841.129L233.956 840.842L232.805 840.986L232.517 841.273L231.942 842.568H231.223L230.791 841.849L229.209 840.554L228.921 838.253L226.332 836.527L224.75 836.67L223.456 836.239L222.161 836.095L221.442 835.664H220.867L219.716 835.088H218.853L216.983 833.794L216.551 832.787L215.257 831.348L214.969 830.773L213.675 830.342L212.812 828.184L210.223 827.177L209.647 827.321L208.64 826.889L207.058 826.746L206.195 827.321L205.907 826.17L205.188 825.451L204.757 824.444H203.462L202.168 825.451L201.305 825.595L199.579 826.458L199.147 827.609L198.14 828.328L197.133 828.184L196.702 827.753V826.17L195.839 826.026L195.695 826.458V827.321L195.12 827.177L194.544 826.314L192.962 827.177L192.818 827.896L192.387 828.472H191.667L191.236 827.753L190.661 827.896L190.517 828.759L189.654 829.191L188.935 829.047L187.928 829.191L187.208 828.328L186.633 827.896L185.77 827.753L185.626 828.759L184.619 829.191L184.907 830.629L184.044 830.917L183.613 830.629L182.893 830.773L182.318 829.91L182.749 828.903L182.318 828.04L181.311 827.753L180.88 828.184L180.017 827.609V827.177L179.154 825.883L178.434 825.739L177.571 826.458L175.989 825.451L175.558 824.3L174.695 823.15L173.544 823.294L172.825 824.013L172.393 823.725L171.242 824.157L170.955 823.581L170.379 824.157L169.229 823.725L168.797 824.013L168.366 823.437L167.646 823.581L167.215 822.862L166.064 823.15L165.92 822.574L167.359 821.855L166.64 820.561L165.633 820.848L165.201 820.704L164.482 821.28L164.194 822.43L163.331 822.718L162.612 822.43L162.181 822.574L161.605 823.294L160.886 823.006L160.598 822.574L161.03 821.855L160.455 821.28L160.742 820.704L160.023 819.554L158.441 818.691L158.153 817.108L157.146 816.245L156.571 815.958L155.276 815.67L155.133 814.807L155.42 813.8L155.133 813.081H153.982L152.831 813.8H151.249L150.386 812.937L149.523 813.513L148.948 813.225L149.235 811.786L148.516 811.355L148.085 811.786L148.516 812.074L147.941 812.937H146.646L145.927 813.081V813.8L144.489 813.656L143.769 814.519L143.482 815.095L143.769 815.814L144.489 816.533V817.54L143.913 817.396L143.482 818.115L143.05 818.259L142.043 817.54L140.317 818.403L140.173 818.835L138.304 820.417H137.872L137.728 819.41L136.146 818.978L136.721 818.115L136.434 817.396H135.283L134.708 817.108L134.564 816.245L133.701 815.526L133.269 815.67L133.125 814.807H131.975L132.55 814.376L132.406 814.088H131.543L130.824 814.376L129.961 813.656L129.242 813.8L128.81 812.937L128.091 813.369H127.084L125.933 813.944L124.351 813.656L124.064 813.369L123.057 813.944H122.625L121.618 812.074L121.043 811.499L120.611 812.074L119.461 811.499L118.022 811.93L115.865 813.081L115.577 813.8L114.426 814.232L113.42 814.951L112.125 816.245L111.55 817.252L109.967 817.108L108.529 816.389L107.378 816.533L106.515 816.245L106.228 816.821L106.371 817.54L105.508 818.547L105.652 819.41L104.645 820.129L104.502 820.848L105.221 821.568L105.077 822.143L104.502 823.006L104.789 823.437L104.07 824.3L103.207 824.157L102.632 824.588L102.344 826.026L101.481 826.17L101.049 826.746L102.056 827.177L101.913 828.04L102.632 828.472L102.776 828.903L102.2 829.047L102.344 829.91L102.776 830.342L102.632 831.78L102.776 832.643H103.063V833.65L102.488 835.088L103.495 835.232L103.639 836.239L104.07 836.095L104.358 836.814L105.077 837.102L105.365 837.965L105.221 838.972L106.228 839.26L105.796 840.123L104.645 840.842L103.495 841.417L103.063 840.842L102.632 841.417L102.919 842.712L102.344 842.999L101.769 842.856L101.193 843.862V844.869L100.474 845.157L100.33 846.164L99.6111 846.595V847.314L100.33 848.321L100.186 848.753L99.4673 848.897L100.043 850.335L100.906 850.623L101.049 851.773L101.625 851.63L102.344 852.205L102.919 852.636L103.351 852.205H103.926L104.358 853.931L104.07 855.369L103.495 856.089L101.769 856.376L101.913 856.808L101.337 856.952L100.33 856.52L99.6111 856.952L99.7549 857.815L101.337 858.102V858.39L102.776 858.246L103.063 860.116L102.488 860.548L101.337 860.116L100.762 860.979L101.337 861.698L101.769 862.705L101.625 863.568L100.33 863.856V864.287L101.049 865.87L103.207 866.589L102.776 867.164L103.207 867.308L103.351 868.027H103.926V868.602L103.351 868.459L102.776 869.753L102.344 869.897L102.056 870.616L101.481 870.904V871.479L100.043 873.205L99.3234 873.349L99.0357 874.068L98.3166 875.075L98.6042 875.219L98.1727 876.082L97.885 875.651L96.8782 875.794L96.3028 876.801L96.8782 876.657L97.1658 877.233L96.7343 877.952L96.4467 877.808V878.671L96.8782 879.678V880.397L96.4467 880.541V881.26L96.0151 881.979H96.5905V882.555L96.0151 882.699L96.159 884.569H95.5836L94.4329 883.418L93.5699 881.836L93.4261 880.253L93.1384 879.966L91.9877 879.822L90.9808 878.527L89.2548 876.945L87.241 874.931V874.212L86.8095 873.493L85.9465 872.774L85.2273 872.63L84.2204 871.911L83.5012 871.048L82.3505 870.329L81.1998 868.602L78.6107 866.013L77.46 866.157L76.1655 865.726L75.4463 865.15L74.7271 863.856L74.0079 863.281L72.4257 862.993L71.8504 863.568L71.1312 863.712L70.412 862.561L69.6928 862.274L69.2613 861.411L68.2544 860.835L64.8023 861.411L62.9324 862.849L62.2132 863.712L61.494 865.438L60.631 865.294L59.9118 864.287L59.0488 863.568L58.3296 862.417L58.1857 861.986L56.8912 860.548L55.1651 860.404L54.1583 860.116L52.7199 859.397L52.0007 859.828L51.2815 859.109L49.6993 859.253L49.8431 860.116L49.2678 860.26L47.6856 858.678L47.5417 857.958L47.9732 857.383V856.52L46.8225 855.369L45.0965 854.65L44.9526 855.801L44.2335 855.513L43.8019 854.794L42.9389 854.65L41.3567 854.938L40.3498 854.794L39.1991 855.082L38.0484 854.65L37.1854 854.506L36.4662 853.499L36.0347 853.212L35.8908 852.349L35.1717 850.91L34.1648 849.904L33.8771 849.184L33.4456 848.609L33.5894 847.458L33.4456 847.027L32.0072 846.451L31.1442 846.883L30.7127 846.595L29.8496 845.588L27.9798 845.445L27.2606 844.869L26.8291 844.15L26.2537 842.28V841.705L26.5414 840.986L26.9729 840.698L29.2743 840.266L30.2812 839.691L31.0004 838.828L31.288 837.246L31.1442 835.664L30.2812 832.931V832.068L30.7127 831.348L29.9935 830.485L30.425 829.191L30.2812 828.328L29.7058 827.321L28.9866 826.889L28.6989 826.458L28.8428 824.3L29.2743 822.718L29.1305 820.848L29.562 819.698L29.2743 818.547L28.5551 817.684L28.4113 816.533L27.8359 816.245L27.2606 815.382L27.4044 814.807L27.2606 813.081L27.6921 811.643L27.9798 811.355V810.492L28.2674 808.334L27.8359 807.759V806.608L27.1167 805.745L26.8291 804.595L26.1099 803.444V800.136L25.8222 799.273L25.6783 798.553L25.103 797.403V796.683L24.0961 795.389L22.9454 794.814L21.0755 793.663L19.781 793.088L18.4864 792.081L17.6234 791.793L16.3289 789.635L15.8974 788.485L14.459 787.622L13.8836 786.902L14.0275 786.183L12.8768 785.752L12.1576 784.745L10.5754 783.594L10.2877 783.019L10 781.581L10.1438 780.717L10 779.567L10.7192 777.697L12.3014 775.395L14.0275 774.389L14.7467 773.526L16.0412 772.087L18.6303 771.656L19.781 770.937L21.3632 770.793L22.9454 770.073L23.3769 768.779L24.0961 765.471L25.103 762.882Z" fill="white"/>
<circle id="572" cx="624" cy="530" fill="#5CE50D"/>
<circle id="573" cx="203" cy="381" fill="#E52A0D"/>
<circle id="574" cx="400" cy="293" fill="#E52A0D"/>
<circle id="1641" cx="246" cy="560" fill="#E52A0D"/>
</svg>
