<svg width="1000" height="1000" viewBox="0 0 1000 1000" fill="none" xmlns="http://www.w3.org/2000/svg">
<path d="M223.128 89.3071L218.956 93.4791L174.866 106.374C150.592 113.485 129.827 119.554 128.595 119.933C126.509 120.597 127.931 122.493 148.032 145.344C159.885 158.903 170.22 170.66 170.883 171.514C171.926 172.841 171.168 173.599 164.625 177.582C157.135 182.038 157.135 182.038 153.532 190.192C151.541 194.649 149.549 198.726 149.075 199.295C148.601 199.769 140.731 201.76 131.629 203.657C122.527 205.553 114.941 207.26 114.752 207.449C114.562 207.639 111.717 211.906 108.399 216.931C104.132 223.378 99.6756 228.404 93.2281 234.188L84.0308 242.437L58.3354 238.36L32.5451 234.188L31.2177 236.748C29.511 240.066 26.0976 258.271 25.1494 269.649C24.296 278.941 20.5982 290.035 16.1418 296.957C14.5299 299.327 14.6247 299.517 16.4262 302.456L18.4174 305.49V303.025C18.4174 299.611 20.5033 297.905 22.9686 299.232C25.2442 300.465 32.3555 300.844 35.1052 299.896C39.372 298.379 53.9738 315.92 56.7235 325.781C58.0509 330.522 59.2835 332.608 63.9296 337.254C67.0585 340.478 69.9031 344.175 70.1875 345.598C71.3253 351.002 72.8424 353.562 77.3936 357.64C80.4278 360.389 82.4189 363.044 83.0826 365.32C83.5567 367.311 85.7375 370.914 87.9183 373.379C90.0991 375.939 94.4607 383.24 97.5897 389.593C103.184 401.066 103.848 401.824 110.959 406.091C112.571 407.039 112.666 407.513 111.528 410.642C109.442 416.237 112.286 420.977 117.691 421.167C119.208 421.167 126.13 429.511 128.5 434.157C129.448 436.053 130.302 438.708 130.302 439.941C130.302 441.268 131.913 443.733 134.568 446.294C138.74 450.371 138.835 450.655 138.835 456.249C138.835 463.74 138.077 466.205 135.896 466.205C133.525 466.205 133.62 466.774 136.844 470.851C141.395 476.635 147.369 486.686 147.369 488.582C147.463 492.944 152.773 496.073 157.04 494.271C158.083 493.797 159.221 494.176 160.359 495.598C162.255 497.874 172.116 503.184 174.392 503.184C175.15 503.184 177.426 504.606 179.322 506.313C181.313 508.114 184.916 510.864 187.381 512.571C190.131 514.372 192.122 516.553 192.407 517.88C192.691 519.208 193.07 521.294 193.355 522.432C193.545 523.664 196.105 527.836 198.949 531.724C202.837 537.128 204.354 540.163 205.492 545.188C206.345 549.265 207.862 552.773 209.663 554.859C215.637 562.16 216.775 563.867 215.447 563.867C214.689 563.867 213.551 563.298 212.887 562.634C211.37 561.307 211.37 561.117 216.016 570.978C218.007 575.15 220.188 579.322 221.042 580.175C221.8 581.029 222.843 583.399 223.222 585.39C223.981 588.33 223.791 589.278 222.179 590.984C220.188 593.07 217.533 603.785 217.533 609.853C217.533 612.129 218.292 614.784 219.524 616.49C220.567 618.007 222.559 621.705 223.791 624.55C226.351 630.049 226.351 635.928 223.981 641.143C223.128 643.039 223.696 644.746 228.058 652.995C232.23 660.96 233.747 662.951 236.307 664.089C238.867 665.131 239.246 665.7 238.393 666.743C237.635 667.692 237.824 668.26 239.246 669.303C240.289 670.062 242.755 673.665 244.746 677.363C247.306 682.009 249.961 685.422 253.279 687.982C257.641 691.491 258.684 691.87 263.33 691.87C268.166 691.87 268.924 692.154 273.096 696.042C275.656 698.317 280.302 701.446 283.431 703.058C288.172 705.429 289.5 706.661 291.206 710.264C293.103 714.057 293.766 714.626 296.232 714.626C297.749 714.626 299.076 714.721 299.076 714.816C299.076 715.005 299.74 716.807 300.403 718.893C301.541 722.117 301.541 722.78 300.309 723.634C299.171 724.487 299.74 725.435 303.627 729.038C307.42 732.641 308.463 734.443 309.885 739.563C311.592 745.916 313.299 748.286 316.617 748.95C318.514 749.329 318.608 749.708 317.376 755.397C317.091 757.104 317.565 758.337 318.893 759.569C320.125 760.707 320.884 762.509 320.884 764.5C320.884 768.861 322.306 772.18 324.487 772.844C326.857 773.602 330.935 779.671 331.598 783.463C331.883 785.17 333.495 788.489 335.107 791.049C336.624 793.514 337.951 796.263 337.951 797.212C337.951 798.065 338.615 799.298 339.373 799.961C340.132 800.53 341.839 802.996 343.166 805.366C344.968 808.4 346.864 810.107 349.708 811.339C351.984 812.288 354.734 814.374 355.871 815.985C357.009 817.597 359.854 820.157 362.035 821.769C366.586 824.803 369.241 830.208 371.137 839.879C372.085 844.81 372.37 845.189 374.456 844.715C377.395 844.241 381.567 848.508 381.567 852.111C381.567 853.818 382.515 855.24 384.411 856.662C387.825 859.222 390.385 864.816 389.626 868.23C389.247 870.031 389.721 871.264 391.523 872.971C392.85 874.203 393.893 876.005 393.893 876.953C393.893 879.134 393.988 879.134 399.487 876.384C404.513 873.824 407.168 870.505 407.168 866.807C407.168 864.816 407.642 864.437 410.107 864.437C413.236 864.437 413.236 864.058 410.391 856.946C408.779 853.059 408.779 851.257 410.107 840.543L411.245 832.199L415.701 828.881C422.054 824.235 427.364 824.235 433.432 828.881C439.311 833.337 444.336 834.664 449.835 833.242C452.206 832.578 454.766 831.441 455.619 830.682C456.567 829.829 459.222 829.355 463.204 829.355C469.462 829.355 476.005 831.82 545.411 860.265L556.03 864.627V889.753C556.03 903.596 556.41 914.69 556.884 914.5C557.263 914.311 582.674 885.961 613.3 851.447C643.926 816.839 669.242 788.583 669.526 788.583C669.906 788.583 702.807 780.903 742.725 771.516L815.355 754.354L885.615 729.607L955.874 704.955L970.76 656.219C978.915 629.385 985.362 606.914 984.983 606.25C983.087 602.931 965.261 574.676 964.503 573.823C963.934 573.254 963.175 573.538 962.322 574.676C961.089 576.383 959.098 576.193 904.768 568.702C873.857 564.436 847.403 560.738 846.076 560.453C844.18 560.074 838.111 553.058 820.76 531.25C800.848 506.218 797.909 502.046 797.624 498.822C797.34 495.598 796.866 494.935 793.642 493.323C790.608 491.806 789.66 491.711 788.048 492.659C786.815 493.512 785.867 493.512 785.298 492.944C783.686 491.332 785.393 487.16 789.375 482.798C792.504 479.385 792.978 478.437 791.746 477.962C790.987 477.678 789.186 478.247 787.763 479.385C785.203 481.376 785.203 481.376 783.876 479.48C782.738 477.868 781.885 477.678 776.765 478.247L770.886 478.816L767.283 474.644C764.818 471.799 762.921 470.472 761.12 470.377C759.129 470.377 758.37 469.619 757.422 467.058C756.758 465.257 756.189 462.887 756.189 461.749C756.095 460.611 754.862 458.335 753.25 456.723C750.121 453.5 749.647 452.267 748.699 443.449C748.035 437.57 747.845 437.191 744.432 435.39C741.303 433.683 731.442 423.727 731.442 422.21C731.442 421.831 732.77 422.21 734.287 423.063C735.898 423.917 737.131 424.296 737.131 423.917C737.131 423.632 735.898 421.831 734.287 420.029C732.77 418.322 731.442 415.952 731.442 414.814C731.442 413.771 729.925 411.211 728.123 409.22C725.658 406.47 724.805 404.669 724.805 402.298C724.805 398.126 725.848 397.463 728.882 399.833L731.252 401.729L732.77 399.359C733.623 398.032 734.287 395.092 734.287 392.532C734.287 388.455 733.907 387.697 730.115 384.188C725.658 380.111 724.236 376.698 725.184 372.81C725.753 370.535 725.848 370.44 728.218 371.957C732.106 374.612 731.821 372.715 727.649 368.164C724.426 364.656 723.003 363.803 720.443 363.803C718.737 363.803 716.745 363.139 716.082 362.286C715.418 361.432 712.858 358.588 710.487 355.838C708.117 353.183 705.557 350.054 704.988 348.822C704.135 347.304 703.281 346.83 702.238 347.21C698.066 348.916 697.687 348.727 695.412 343.891C694.179 341.236 691.714 337.728 690.007 336.211L686.783 333.461H689.628C693.136 333.461 693.8 332.418 691.998 329.858C690.86 328.151 689.628 327.772 685.456 327.772C681.284 327.772 680.146 327.393 679.293 325.876C678.534 324.548 677.302 323.979 674.931 323.979C672.276 323.979 671.518 323.505 670.759 321.514C669.526 318.385 669.526 314.213 670.759 314.972C671.328 315.256 671.707 316.489 671.802 317.627C671.802 319.428 671.992 319.333 672.845 317.058C673.983 313.834 672.561 311.274 666.872 306.723C661.562 302.456 657.864 294.871 657.011 286.527C655.968 276.381 656.442 276.571 636.151 276.571H618.799L616.334 273.347C615.007 271.546 613.869 268.891 613.869 267.468C613.869 266.046 612.352 262.254 610.55 259.03L607.326 253.151L586.562 250.117C570.537 247.652 565.323 247.178 563.805 248.031C562.762 248.6 560.202 249.074 558.211 249.074C553.755 249.074 482.168 241.678 481.315 241.109C480.935 240.92 453.628 218.353 420.632 191.046L360.707 141.362L345.252 134.535C331.504 128.467 327.047 125.812 307.515 112.348C295.283 104.004 284.474 96.7977 283.431 96.3235C282.388 95.9443 269.778 93.3842 255.46 90.7294C241.143 88.0745 228.911 85.704 228.342 85.5144C227.774 85.3248 225.403 87.0315 223.128 89.3071Z" fill="white"/>
<path d="M348.381 848.89C348.381 849.269 349.139 850.028 349.993 850.692C351.32 851.734 351.415 852.114 350.372 853.346C349.424 854.579 349.424 855.338 350.467 857.518C351.13 858.941 352.458 860.268 353.406 860.458C354.734 860.742 355.018 860.078 355.018 857.139C355.018 852.398 353.122 848.89 350.467 848.511C349.329 848.321 348.381 848.511 348.381 848.89Z" fill="white"/>
<path d="M345.252 856.471C344.398 857.419 346.863 861.686 350.087 864.815C352.647 867.185 353.311 867.375 355.681 866.616C358.81 865.573 360.707 865.953 360.707 867.754C360.707 868.418 361.371 869.271 362.224 869.556C366.491 871.168 366.68 865.384 362.508 861.496C359 858.272 357.862 858.083 357.862 860.643C357.862 863.772 352.647 863.203 350.561 859.884C348.191 856.281 346.579 855.143 345.252 856.471Z" fill="white"/>
<circle id="588" cx="582" cy="484" fill="#5CE50D"/>
<circle id="1642" cx="241" cy="500" fill="#E52A0D"/>
<circle id="589" cx="233" cy="615" fill="#E52A0D"/>
<circle id="590" cx="718" cy="381" fill="#E52A0D"/>
</svg>
