<svg width="1000" height="1000" viewBox="0 0 1000 1000" fill="none" xmlns="http://www.w3.org/2000/svg">
<path d="M138.591 125.484C136.322 127.848 136.133 128.51 136.7 133.236C137.551 141.082 140.765 146.376 144.641 146.471C146.532 146.471 149.273 149.401 149.273 151.481C149.273 152.332 150.408 153.655 151.92 154.412C153.338 155.168 155.323 156.586 156.269 157.72C157.308 158.855 159.01 159.705 160.239 159.705C163.075 159.705 173.096 169.159 176.404 174.831C177.728 177.194 179.807 180.125 181.036 181.448C182.171 182.772 183.589 184.946 184.156 186.364C184.723 187.782 186.519 189.861 188.315 191.09C190.111 192.225 192.569 195.061 193.798 197.424C197.58 204.609 205.804 211.699 211.192 212.644C214.123 213.117 214.69 214.818 213.083 218.505C212.61 219.734 212.799 220.207 213.839 220.207C214.596 220.207 215.446 219.545 215.824 218.789C216.486 216.898 222.442 216.898 224.332 218.789C225.089 219.639 226.034 222.381 226.412 224.933C227.074 230.133 228.208 230.889 229.815 227.297C230.383 225.973 231.328 225.028 231.895 225.217C232.462 225.406 236.905 226.824 241.632 228.242C249.856 230.7 250.518 230.794 252.125 229.376C254.583 227.108 255.15 227.391 255.15 230.511C255.15 234.765 256.096 235.143 271.883 236.939C276.137 237.412 277.082 237.128 280.107 234.859C281.998 233.441 283.888 232.59 284.266 232.969C284.645 233.347 284.361 233.914 283.794 234.103C283.132 234.387 282.565 235.332 282.565 236.372C282.565 237.601 283.227 238.168 284.739 238.168C285.873 238.168 287.859 238.924 289.088 239.775C290.506 240.72 293.342 241.382 296.272 241.382L301.093 241.477L298.825 237.412L296.556 233.441L292.018 234.008C289.182 234.387 287.291 234.198 286.913 233.536C286.535 232.969 286.819 232.496 287.575 232.496C290.789 232.496 290.222 227.958 286.535 223.704C284.739 221.719 280.58 221.625 276.798 223.515C273.679 225.122 272.166 224.744 272.166 222.286C272.072 220.963 271.788 221.057 270.276 222.948L268.385 225.122L264.982 222.097C263.091 220.49 259.688 218.221 257.419 217.087C254.394 215.669 252.881 214.251 252.125 211.982C251.463 210.281 250.329 208.863 249.478 208.863C246.453 208.768 240.309 205.081 235.109 200.071L229.626 194.872V188.538C229.626 183.15 229.059 181.07 226.223 175.303C223.86 170.388 222.158 168.024 220.362 167.268C216.014 165.566 213.839 164.054 211.192 160.84C209.302 158.571 207.884 157.815 205.52 157.815C202.495 157.815 192.664 152.143 189.922 148.834C189.261 148.078 186.425 146.754 183.683 145.904C180.847 145.147 178.389 144.013 178.106 143.54C177.728 143.068 176.404 142.689 174.986 142.689C172.812 142.689 171.678 141.65 168.369 136.545C165.06 131.629 163.642 130.306 160.806 129.455C158.916 128.982 156.836 128.51 156.363 128.51C155.796 128.51 153.905 127.281 152.109 125.674C147.572 121.892 142.183 121.798 138.591 125.484Z" fill="white"/>
<path d="M82.9105 150.344C81.2089 151.29 80.5472 155.922 82.0597 155.922C83.0051 155.922 85.9356 151.668 85.9356 150.25C85.9356 149.021 84.9903 149.115 82.9105 150.344Z" fill="white"/>
<path d="M90.0006 153.274C87.5427 156.489 86.9755 161.782 88.9607 164.146C89.4334 164.808 89.6225 165.753 89.2443 166.32C88.8662 166.982 88.3935 168.967 88.299 170.858C88.1099 172.748 87.6373 175.49 87.2591 176.908C86.881 178.609 87.0701 179.555 87.7318 179.555C88.299 179.555 88.7717 178.987 88.7717 178.231C88.7717 176.057 91.0405 175.868 92.2694 178.042C93.2147 179.838 93.4038 179.649 94.4436 175.962C95.0108 173.694 96.1452 171.614 96.9015 171.33C98.7922 170.669 98.6031 168.589 96.3343 166.32C95.2944 165.28 94.4436 163.768 94.4436 163.011C94.4436 162.161 93.5928 161.593 92.1748 161.593C88.8662 161.593 88.4881 160.27 90.6623 156.678C91.7022 154.976 92.553 153.274 92.553 152.802C92.553 151.762 90.9459 152.046 90.0006 153.274Z" fill="white"/>
<path d="M43.3959 178.231C42.8287 179.554 42.4506 180.878 42.4506 181.161C42.4506 181.445 41.4107 183.147 40.0872 184.848C36.8731 189.008 37.0622 191.844 40.8435 195.341C43.5849 197.988 44.6248 198.272 52.0929 198.839L60.3173 199.406L62.7752 196.192C65.044 193.262 65.1385 192.6 64.1932 189.102C63.2478 185.604 62.8697 185.321 59.1829 184.754C56.1579 184.281 54.6453 183.336 52.8492 180.972C50.6749 178.042 47.3663 175.773 45.192 175.773C44.7193 175.773 43.8685 176.907 43.3959 178.231Z" fill="white"/>
<path d="M16.7373 228.144C14.9412 232.209 16.2647 233.438 22.5039 233.438C27.0414 233.438 28.3649 233.059 29.1212 231.736C30.5392 229.089 26.5688 225.875 21.7476 225.875C18.5335 225.875 17.6827 226.253 16.7373 228.144Z" fill="white"/>
<path d="M384.944 236.475C381.163 238.744 380.974 240.729 384.283 241.958C387.591 243.281 388.442 243.187 388.442 241.58C388.442 240.824 389.388 239.5 390.427 238.744C392.791 237.137 392.224 234.395 389.671 234.49C388.726 234.49 386.552 235.435 384.944 236.475Z" fill="white"/>
<path d="M391.088 243.559C387.307 244.505 389.481 247.246 397.422 251.406C401.865 253.769 405.457 255.943 405.457 256.321C405.457 256.605 405.741 257.55 406.024 258.401C406.497 259.536 405.457 259.914 400.541 260.103L394.586 260.386L399.123 262.655C401.581 263.979 403.566 265.491 403.566 266.058C403.566 267.665 406.78 270.312 408.577 270.312C409.427 270.312 410.184 269.651 410.184 268.894C410.184 266.72 416.612 268.044 419.732 270.879C422.473 273.526 426.254 273.905 426.254 271.541C426.254 270.69 424.553 268.422 422.473 266.342C419.448 263.6 417.841 262.75 415.194 262.75C411.98 262.75 411.885 262.655 412.452 259.63C412.831 257.456 412.452 255.754 411.129 253.485C409.049 250.177 408.766 249.988 403.283 249.042C401.392 248.759 398.272 247.246 396.571 245.734C394.775 244.127 393.262 242.992 393.073 242.992C392.884 243.087 391.939 243.276 391.088 243.559Z" fill="white"/>
<path d="M416.801 256.035C416.801 258.776 420.488 262.652 427.578 267.473C433.911 271.822 435.707 274.469 435.707 279.763C435.707 281.37 435.046 282.599 434.195 282.977C432.871 283.45 433.25 284.206 436.275 286.853C438.26 288.649 440.718 290.067 441.663 290.161C445.161 290.161 447.997 293.092 447.997 296.401C447.997 299.52 448.091 299.615 451.873 299.615C454.898 299.615 455.843 299.993 456.221 301.505C456.599 302.829 457.545 303.396 459.341 303.396C461.42 303.396 462.177 304.058 463.595 307.177C464.824 309.824 465.863 310.959 467.281 310.959C468.416 310.959 469.834 311.81 470.401 312.755C471.157 313.984 472.197 314.456 473.521 314.078C475.128 313.606 475.411 313.984 475.411 316.536C475.411 318.9 475.884 319.561 478.058 320.034C481.84 320.79 484.77 322.397 487.984 325.328C489.497 326.84 491.293 327.975 492.049 327.975C492.805 327.975 495.452 329.487 498.005 331.283C501.313 333.647 503.582 334.592 506.135 334.592C509.538 334.592 509.632 334.687 509.16 337.428L508.592 340.264H513.508C516.155 340.359 519.464 340.926 520.787 341.682C522.111 342.438 524.001 343.005 525.136 343.1C526.27 343.1 527.499 344.045 528.161 345.369C528.823 346.881 530.713 348.11 534.022 349.245C538.181 350.568 538.654 351.041 537.614 352.27C536.669 353.404 536.763 353.971 538.276 355.011C539.883 356.24 540.261 356.24 541.301 354.917C542.246 353.499 542.624 353.499 545.177 354.822C547.162 355.862 548.202 357.185 548.391 358.887C548.58 361.061 549.147 361.534 551.227 361.628C552.645 361.723 554.346 362.196 555.008 362.668C555.67 363.236 557.655 363.992 559.451 364.37C561.247 364.748 564.84 366.45 567.581 368.151C573.348 371.933 578.358 374.012 584.124 375.336C590.269 376.754 599.061 382.615 599.439 385.64C599.628 387.247 601.14 388.949 604.071 390.839C606.434 392.352 610.877 395.944 613.997 398.78C621.087 405.208 623.356 406.343 625.435 404.263C626.948 402.75 626.853 402.467 624.49 400.009C622.694 398.118 621.938 396.322 621.938 393.959C621.938 391.123 621.559 390.461 619.574 389.988C617.589 389.516 617.305 389.043 618.062 387.625C619.385 385.262 618.534 384.695 614.186 384.695C610.972 384.695 606.812 382.52 606.812 380.819C606.812 380.535 608.419 380.251 610.31 380.346C613.335 380.441 614.186 379.968 616.927 376.281L620.141 372.122L616.644 370.893C614.753 370.231 612.768 369.097 612.39 368.435C611.917 367.773 609.837 364.748 607.663 361.723C604.733 357.658 603.126 356.335 601.424 356.335C600.1 356.335 597.832 355.295 596.225 353.971C594.712 352.648 592.916 351.608 592.349 351.608C591.687 351.608 588.756 349.339 585.826 346.503C581.856 342.911 580.343 340.831 580.343 339.035C580.343 336.955 579.303 336.01 574.387 333.174C571.079 331.378 567.676 329.865 566.825 329.865C566.069 329.865 563.611 328.353 561.436 326.557C556.804 322.681 551.416 320.979 544.799 321.168C541.301 321.263 539.221 320.79 537.709 319.561C534.305 316.914 527.688 313.795 525.608 313.795C524.001 313.795 523.718 313.322 524.285 310.959C524.758 308.217 524.663 308.123 521.354 308.123C519.464 308.123 517.951 308.501 517.951 309.068C517.951 310.581 515.399 310.202 511.334 308.123C508.687 306.799 507.553 305.57 507.553 304.152C507.553 301.6 505 299.709 501.597 299.615C498.288 299.615 493.373 297.157 493.373 295.455C493.373 293.376 485.054 286.38 481.84 285.718C479.949 285.34 476.735 283.166 473.426 279.857C461.515 268.324 457.828 265.583 454.141 265.583C451.494 265.583 449.698 264.732 446.768 262.274C442.136 258.304 438.827 257.926 437.976 261.329L437.409 263.692L434.573 261.329C433.06 260.005 430.697 258.966 429.468 258.966C428.145 258.966 425.025 257.926 422.473 256.602C416.895 253.766 416.801 253.766 416.801 256.035Z" fill="white"/>
<path d="M150.03 263.407C146.533 267.944 146.533 273.333 149.841 280.801C152.204 285.905 152.677 286.473 156.742 287.607C160.996 288.741 161.091 288.931 161.941 293.468C162.509 296.777 162.509 298.195 161.658 298.478C161.091 298.667 160.618 300.085 160.618 301.693C160.618 304.434 160.712 304.529 164.399 304.15L168.181 303.772V307.27C168.181 310.768 170.922 314.549 171.678 312.186C171.867 311.619 173.285 309.35 174.798 307.27C176.405 305.19 177.823 301.787 178.201 299.707C178.579 297.06 179.43 295.737 181.037 294.981C184.346 293.563 187.087 288.458 187.087 283.92C187.087 279.477 186.236 278.816 180.375 278.816C174.987 278.816 173.38 277.681 169.882 271.158C167.708 266.904 165.723 264.636 162.509 262.65C156.553 258.869 153.244 259.058 150.03 263.407Z" fill="white"/>
<path d="M152.487 293.469C151.731 294.697 151.164 296.494 151.353 297.439C151.731 299.708 155.04 300.18 156.458 298.195C157.498 296.872 157.403 296.021 156.269 293.847C154.567 290.538 154.473 290.538 152.487 293.469Z" fill="white"/>
<path d="M225.277 300.473C223.198 300.852 220.267 302.08 218.755 303.215C217.337 304.349 215.635 305.295 214.973 305.295C214.312 305.295 213.083 307.28 212.137 309.643C210.152 314.842 210.625 324.012 212.988 327.321C213.839 328.455 215.446 330.724 216.486 332.426C218.471 335.545 221.307 336.585 232.935 338.476C235.582 338.854 238.985 339.516 240.497 339.799C243.144 340.366 243.522 340.177 245.791 335.356C248.06 330.819 248.154 330.062 247.02 327.037C246.358 325.241 245.791 321.932 245.791 319.664C245.697 316.922 245.129 315.221 243.806 314.086C242.766 313.141 241.915 312.006 241.915 311.345C241.915 310.777 240.214 307.942 238.039 305.011C233.974 299.244 233.691 299.15 225.277 300.473Z" fill="white"/>
<path d="M152.11 311.813C150.786 314.46 150.881 315.784 152.772 317.107C154.757 318.525 156.08 330.342 154.568 332.894C153.812 334.123 154.379 335.257 157.12 338.377C159.105 340.457 160.902 343.482 161.28 344.994C161.941 348.776 163.17 348.587 164.872 344.427C166.857 339.606 166.668 335.825 163.927 330.342C162.698 327.695 161.563 324.764 161.563 323.724C161.563 322.779 160.807 319.943 159.956 317.58C157.309 310.395 154.19 308.032 152.11 311.813Z" fill="white"/>
<path d="M281.147 316.349C280.107 316.538 278.311 316.917 277.271 317.106C276.042 317.389 274.719 318.807 274.057 320.603C273.395 322.305 271.788 324.763 270.654 326.086C269.425 327.41 267.629 330.813 266.589 333.649C262.524 345.276 259.026 351.137 257.514 348.774C257.23 348.301 255.718 347.829 254.3 347.829C251.747 347.829 249.479 350.665 249.479 353.879C249.479 356.526 255.434 366.925 257.608 367.87C260.161 369.099 263.848 367.208 265.644 363.71C267.251 360.591 268.007 360.307 275.948 359.551C279.824 359.267 283.983 358.606 285.117 358.133C286.535 357.66 287.481 357.849 288.332 358.795C289.182 359.74 290.411 360.118 292.207 359.74C295.233 359.173 297.123 361.253 298.636 366.735C299.297 369.099 300.715 370.895 303.835 372.88C306.104 374.393 308.089 376.283 308.089 376.945C308.089 378.552 305.253 379.592 304.402 378.174C303.079 376.094 293.909 374.298 293.909 376.094C293.909 377.607 299.959 383.468 301.944 383.846C303.173 384.13 304.024 385.264 304.308 387.06C304.591 388.667 305.631 390.274 306.955 390.936C308.089 391.503 310.074 392.827 311.209 393.866C314.99 397.27 316.219 397.175 320.284 393.016C323.592 389.707 324.349 389.329 325.672 390.463C326.996 391.503 326.901 391.881 325.01 393.299C322.836 394.906 322.836 395.001 324.632 396.986C327.563 400.2 329.926 401.145 335.315 401.335C339.663 401.524 340.419 401.24 342.026 398.971C342.972 397.648 344.201 395.095 344.862 393.299C345.808 390.463 345.713 389.802 344.012 388.005C342.972 386.871 342.121 385.075 342.121 384.035C342.121 381.577 338.056 376.567 335.504 375.716C334.086 375.243 333.613 374.298 333.613 371.462C333.613 368.437 333.046 367.303 330.777 365.601C329.264 364.467 327.941 362.765 327.941 361.725C327.941 356.337 322.458 353.028 314.895 353.879C309.412 354.541 306.198 353.028 306.198 349.814C306.198 348.963 305.537 347.451 304.78 346.505C303.835 345.182 303.362 342.251 303.362 336.958C303.362 329.678 303.173 329.111 300.621 326.653C299.108 325.141 297.312 322.683 296.651 321.17C294.76 316.633 288.71 314.742 281.147 316.349Z" fill="white"/>
<path d="M231.516 344.992C231.516 346.032 235.297 349.719 236.337 349.719C236.715 349.719 237.282 350.947 237.66 352.555C238.606 356.903 241.631 360.117 244.845 360.117C247.114 360.117 247.586 359.739 247.586 357.848C247.586 356.525 247.208 355.201 246.641 354.918C246.168 354.634 245.696 352.933 245.696 351.326C245.601 346.221 242.954 344.047 236.809 344.047C233.879 344.047 231.516 344.425 231.516 344.992Z" fill="white"/>
<path d="M222.062 349.34C222.062 350.191 223.386 351.987 224.898 353.311C226.506 354.729 227.734 356.43 227.734 357.281C227.734 359.739 236.999 368.625 239.551 368.625C242.104 368.625 242.671 367.302 240.686 366.073C238.133 364.466 235.297 359.739 235.297 357.092C235.297 352.838 229.909 347.828 225.466 347.828C223.008 347.828 222.062 348.206 222.062 349.34Z" fill="white"/>
<path d="M722.711 369.759C719.213 374.769 721.387 379.402 731.124 387.437C736.513 391.88 738.97 394.81 741.05 398.97C744.359 405.493 744.359 405.493 742.185 405.493C741.239 405.493 739.349 406.722 737.931 408.14C734.716 411.448 734.433 416.269 737.363 417.782C738.97 418.727 739.159 419.389 738.687 422.509C737.741 428.181 740.294 435.271 745.966 442.833L750.976 449.356L751.26 459.282C751.638 469.019 751.732 469.303 754.852 472.989C756.648 475.069 758.066 477.243 758.066 477.905C758.066 478.661 758.917 479.607 759.957 480.174C761.091 480.741 762.887 483.482 764.116 486.224C766.007 490.478 766.952 491.518 769.788 492.463C771.773 493.125 774.515 495.205 776.311 497.379C777.918 499.459 780.092 501.916 781.038 502.767C781.888 503.618 784.724 506.265 787.277 508.723C790.396 511.842 792.665 513.26 794.367 513.26C795.785 513.26 797.108 513.828 797.392 514.584C797.675 515.34 799.472 516.569 801.362 517.325C803.253 518.082 805.9 519.878 807.129 521.201C808.452 522.525 810.248 523.659 811.194 523.659C812.139 523.659 813.273 524.415 813.557 525.266C813.935 526.211 815.164 528.291 816.393 529.898C817.622 531.505 818.567 533.585 818.567 534.436C818.567 537.272 821.12 540.959 826.603 546.347C829.533 549.183 832.842 553.342 833.787 555.611C835.111 558.542 836.056 559.582 837.19 559.393C838.608 559.109 838.892 558.069 838.797 552.964C838.703 549.561 837.947 544.929 837.001 542.566C836.15 540.202 834.921 536.988 834.26 535.381C833.693 533.68 832.653 531.694 831.896 530.938C831.235 530.087 829.817 527.724 828.682 525.644C827.548 523.564 825.374 519.878 823.767 517.42C821.97 514.395 821.403 512.788 822.16 512.504C823.956 511.937 823.483 505.509 821.403 502.862C819.04 499.837 819.04 498.324 821.498 495.677L823.388 493.598L819.229 491.99L815.07 490.383L815.542 486.318C815.92 482.537 815.731 482.159 813.746 481.875C811.761 481.592 811.383 480.836 810.532 475.92C809.681 471.288 809.114 470.059 806.94 468.83C804.198 467.317 803.536 465.049 805.9 465.049C806.94 465.049 807.223 464.481 806.751 462.874C805.994 460.416 802.497 457.202 797.77 454.744C795.974 453.705 792.571 451.152 790.207 449.072C787.844 446.898 784.913 444.913 783.59 444.629C782.267 444.346 779.62 443.779 777.729 443.211L774.137 442.266V437.067C774.137 433.191 774.609 431.111 776.122 429.315C777.351 427.708 777.823 426.101 777.445 424.683C777.067 422.887 777.445 422.414 779.525 421.941C781.038 421.658 782.645 421.28 783.212 421.091C783.874 420.902 784.535 419.2 784.724 417.215C785.103 414.19 784.63 412.961 781.227 408.896C779.147 406.249 775.744 403.224 773.853 402.184C771.112 400.766 770.355 399.726 770.355 397.741C770.355 395.756 769.41 394.527 766.196 392.353C761.847 389.327 758.539 384.79 756.175 378.551C755.041 375.526 754.19 374.675 752.016 374.486C750.503 374.297 748.329 372.973 747.006 371.366C745.304 369.381 743.792 368.625 741.428 368.625C738.781 368.625 738.403 368.908 738.876 370.232C739.254 371.177 740.577 372.973 741.901 374.202C744.926 377.038 743.224 377.984 738.876 375.904C737.174 375.053 734.622 374.108 733.109 373.824C731.597 373.54 729.139 372.028 727.626 370.421C726.114 368.908 724.696 367.679 724.507 367.679C724.318 367.679 723.467 368.625 722.711 369.759Z" fill="white"/>
<path d="M263.753 382.334C262.146 384.225 260.823 386.115 260.823 386.588C260.823 387.061 257.608 390.842 253.733 395.096L246.643 402.659L248.061 405.495C248.817 407.007 251.275 409.181 253.354 410.316C255.812 411.545 258.176 413.908 260.066 416.839C262.241 420.336 263.659 421.66 265.927 422.133C267.534 422.416 269.803 423.551 270.938 424.59C272.545 426.103 273.49 426.292 275.664 425.63C279.729 424.212 278.878 422.227 273.585 420.525L268.858 419.013V411.545V404.077H271.505C273.585 404.171 274.246 403.604 274.624 401.713C274.908 400.39 275.853 397.365 276.61 395.002C278.406 389.708 277.933 387.25 274.057 382.523C270.276 377.986 267.629 377.986 263.753 382.334Z" fill="white"/>
<path d="M578.453 380.723C576.657 381.101 575.144 381.952 575.239 382.519C575.333 383.181 575.428 384.788 575.522 386.112C575.711 389.42 581.856 396.037 584.692 396.037C586.299 396.037 586.961 396.605 586.961 397.739C586.961 401.142 595.941 403.033 599.534 400.386C602.464 398.117 601.519 395.754 596.887 393.863L592.633 392.067V387.057C592.633 383.654 592.255 381.858 591.309 381.574C588.851 380.629 581.761 380.156 578.453 380.723Z" fill="white"/>
<path d="M365.848 396.133C364.808 397.929 364.051 398.118 359.136 397.645C353.936 397.078 351.195 397.929 353.464 399.347C353.936 399.631 354.409 401.521 354.315 403.412C354.315 406.437 354.22 406.626 353.464 404.735C352.518 402.561 351.1 401.994 350.155 403.601C349.871 404.074 348.359 404.546 346.846 404.546C343.727 404.546 343.349 405.397 342.498 413.338C342.025 418.537 342.214 419.577 344.199 422.508C347.035 426.762 356.016 432.812 359.325 432.906C364.524 432.906 374.734 421.09 375.395 414.283L375.679 410.691L371.52 410.218C366.037 409.651 365.658 408.044 370.48 406.532C374.45 405.397 378.042 401.143 378.042 397.645C378.042 394.053 368.022 392.73 365.848 396.133Z" fill="white"/>
<path d="M288.521 422.224C284.361 422.508 283.7 422.886 284.172 424.209C285.023 426.762 287.386 428.18 290.601 428.18C294.004 428.18 301.945 430.826 307.616 433.757C309.602 434.891 311.87 435.742 312.532 435.742C314.612 435.742 313.856 431.488 311.398 429.125C310.074 427.896 309.034 426.383 309.034 425.722C309.034 422.791 299.959 421.279 288.521 422.224Z" fill="white"/>
<path d="M389.764 423.734C389.291 424.49 387.117 426.475 384.943 428.082C380.027 431.675 379.649 434.7 383.619 439.332C385.793 441.884 386.739 442.357 388.724 441.884C390.142 441.506 391.654 440.655 392.316 439.899C392.883 439.143 393.923 438.576 394.679 438.576C396.665 438.576 397.232 434.983 395.625 432.715C394.774 431.58 394.112 429.689 394.112 428.555C394.112 427.421 393.356 425.53 392.316 424.301C390.804 422.41 390.52 422.316 389.764 423.734Z" fill="white"/>
<path d="M402.715 430.448C401.959 431.393 401.959 431.961 402.905 432.811C404.417 434.04 405.457 433.284 405.457 430.826C405.457 428.841 404.228 428.652 402.715 430.448Z" fill="white"/>
<path d="M515.305 470.246C513.698 472.136 512.28 474.027 512.28 474.5C512.28 475.067 511.713 475.445 510.957 475.445C509.161 475.445 510.2 479.226 512.186 479.888C513.036 480.172 514.643 480.739 515.683 481.306C517.101 481.968 518.33 481.968 519.654 481.212C522.962 479.51 525.515 479.983 526.46 482.535C526.933 483.859 527.973 484.898 528.634 484.898C530.714 484.898 533.834 480.834 534.495 477.241C535.063 474.311 534.779 473.554 532.605 471.853C531.187 470.718 528.634 469.584 526.838 469.206C525.042 468.922 523.34 468.261 523.057 467.788C521.922 465.897 518.236 467.126 515.305 470.246Z" fill="white"/>
<path d="M657.671 472.231C652.661 475.445 652.378 475.823 653.323 477.903C654.268 479.793 655.024 480.171 658.806 480.171C662.398 480.171 663.627 480.644 665.896 483.007C668.921 486.222 672.135 486.6 677.051 484.52C681.305 482.724 683.573 479.982 682.723 477.619C681.588 474.689 676.294 470.718 673.837 470.813C672.608 470.907 670.339 470.529 668.921 469.867C664.95 468.26 663.532 468.544 657.671 472.231Z" fill="white"/>
<path d="M686.504 477.059C685.843 477.248 685.275 478.383 685.275 479.423C685.275 480.462 684.236 482.542 682.912 484.149C681.589 485.662 680.549 487.458 680.549 488.12C680.549 490.105 683.668 492.279 688.301 493.508C691.987 494.548 693.216 494.453 695.201 493.413C697.281 492.279 697.659 491.523 697.376 488.309C697.187 485.189 696.714 484.338 695.012 484.149C693.973 483.96 691.893 482.164 690.569 480.084C689.151 478.099 688.017 476.397 687.828 476.492C687.733 476.492 687.072 476.776 686.504 477.059Z" fill="white"/>
<path d="M672.326 490.287C669.206 490.854 669.206 495.297 672.326 495.297C673.555 495.297 675.351 494.73 676.296 493.973C677.809 492.839 677.903 492.461 676.864 491.137C676.202 490.287 675.351 489.719 674.973 489.719C674.689 489.814 673.46 490.098 672.326 490.287Z" fill="white"/>
<path d="M594.335 506.74C590.932 508.914 589.797 510.332 589.797 512.034C589.797 513.263 588.852 515.531 587.717 517.044C586.11 519.218 585.921 520.164 586.772 521.014C587.434 521.676 587.907 524.418 587.907 527.159C587.907 530.846 588.474 533.02 589.892 535.005L591.971 537.652L589.892 540.299C588.852 541.623 587.907 543.419 587.907 544.08C587.907 544.742 590.27 547.295 593.106 549.847L598.4 554.385L597.738 559.206L597.171 564.121L602.465 565.35C607.569 566.485 607.853 566.674 607.286 569.037C606.813 571.117 607.569 572.157 612.958 576.6C621.182 583.406 622.128 583.784 626.098 581.894C630.352 579.908 632.243 580.003 634.7 582.272C636.024 583.501 638.576 584.446 641.885 584.73C644.721 585.013 648.597 585.959 650.582 586.715C653.513 588.038 654.931 588.038 658.712 587.188C661.926 586.431 665.046 586.431 668.921 586.998C671.946 587.566 679.415 587.944 685.465 587.944C691.515 587.944 696.714 588.322 697.092 588.795C697.376 589.362 700.117 591.631 703.142 593.899C708.058 597.681 709.382 598.153 715.243 598.815C720.726 599.288 722.711 600.044 726.492 602.691C731.597 606.283 734.906 606.378 740.956 602.88C742.657 601.935 747.195 600.517 750.976 599.76C759.673 598.153 761.658 596.924 763.738 592.198L765.345 588.416L762.415 585.864L759.484 583.312L761.186 580.287C762.131 578.68 762.698 577.167 762.604 577.073C762.415 576.883 759.579 575.087 756.27 572.913C750.882 569.415 749.558 569.037 744.453 569.037H738.687L736.985 563.082C735.567 558.26 734.244 556.181 729.423 551.265C725.736 547.578 722.805 545.404 721.482 545.404C717.511 545.404 712.785 542.473 712.218 539.543C711.556 536.612 709.003 534.533 704.939 533.587C703.615 533.209 701.535 531.886 700.306 530.657C698.605 528.861 697.187 528.388 693.689 528.388C691.231 528.388 688.112 528.01 686.788 527.443C682.345 525.836 667.314 526.025 662.21 527.726C657.767 529.333 657.483 529.333 654.458 527.537L651.244 525.646L647.935 527.632C645.288 529.144 643.492 529.428 640.183 529.05C636.402 528.672 635.173 527.915 631.486 523.85C625.153 517.044 617.59 511.183 614.092 510.521C612.107 510.049 610.405 508.82 609.176 506.834C607.475 504.282 606.813 503.904 603.032 503.904C599.818 503.809 597.643 504.566 594.335 506.74Z" fill="white"/>
<path d="M835.109 518.932C834.258 520.256 838.607 532.261 840.592 534.341C842.293 536.043 842.293 536.232 840.781 537.839C839.268 539.54 839.268 539.918 840.686 543.511C842.672 548.426 842.577 554.855 840.592 559.014C839.363 561.756 839.268 562.701 840.214 565.159C841.632 568.373 849.1 573.95 848.627 571.303C848.438 570.453 849.289 569.129 850.329 568.467C852.314 567.144 852.503 567.333 855.339 572.343C858.837 578.488 863.847 582.269 865.171 579.811C865.643 578.961 865.738 576.314 865.454 573.856C862.618 554.949 860.917 550.317 854.205 543.889C850.518 540.391 848.911 537.933 848.438 535.57C847.587 531.127 842.955 524.32 839.93 522.902C838.418 522.241 837.472 521.012 837.472 519.877C837.472 517.892 836.149 517.325 835.109 518.932Z" fill="white"/>
<path d="M917.827 567.051C915.652 567.713 915.463 568.091 915.558 573.385C915.558 581.704 920.568 590.306 923.499 587.375C924.255 586.619 923.971 584.823 922.553 580.947L920.474 575.653L922.931 571.494C925.011 567.902 925.106 567.24 923.877 566.767C922.175 566.106 921.041 566.2 917.827 567.051Z" fill="white"/>
<path d="M834.827 640.882C834.166 641.922 832.653 642.773 831.33 642.773C830.006 642.773 828.872 643.057 828.872 643.435C828.305 646.365 828.21 653.55 828.588 657.615L829.061 662.625H838.136C847.589 662.625 850.614 663.476 855.814 667.635C858.461 669.715 858.461 669.999 857.326 673.402C856.381 676.427 856.381 677.183 857.893 678.79C858.744 679.735 860.351 680.586 861.391 680.586C862.715 680.586 862.998 680.964 862.526 682.193C860.919 685.975 859.879 690.796 860.446 692.119C860.729 693.065 862.809 693.821 866.212 694.199C869.71 694.672 871.506 695.333 871.506 696.184C871.506 697.697 878.029 703.274 879.825 703.274C882.472 703.274 886.442 706.11 888.806 709.797C890.98 713.011 893.343 714.618 904.782 720.29C917.827 726.718 918.584 727.002 926.808 727.475C931.535 727.758 936.45 728.42 937.774 728.893C939.192 729.46 942.879 730.405 946.093 731.067C951.198 732.107 952.048 732.107 953.277 730.689C954.601 729.176 955.073 729.271 959.611 731.54C963.676 733.525 966.228 733.997 974.264 734.281C982.772 734.659 984.001 734.47 984.001 733.147C984.001 730.878 980.03 729.743 972.089 729.743C965.756 729.743 965.094 729.554 965.094 727.853C965.094 726.718 965.756 725.962 966.607 725.962C968.97 725.962 970.671 723.126 970.766 719.156C970.766 713.106 969.537 711.215 964.999 710.459C959.422 709.608 958.382 708.568 959.706 705.165C960.84 702.045 959.422 699.493 956.491 699.493C954.979 699.493 954.695 698.737 954.695 695.144C954.695 691.552 954.128 690.134 951.009 686.447C948.929 683.989 946.944 680.775 946.566 679.357C945.998 676.994 945.715 676.805 942.973 677.372C941.366 677.656 938.341 678.79 936.356 679.83L932.669 681.721L926.241 679.168C921.798 677.467 917.26 676.521 911.305 676.143C903.175 675.576 902.702 675.481 899.772 672.456C897.125 669.715 895.99 669.242 892.209 669.242C888.522 669.242 887.577 668.864 886.253 666.879C885.403 665.556 884.174 664.516 883.417 664.516C882.756 664.516 878.029 660.923 872.924 656.48C866.496 650.903 862.809 648.445 861.202 648.445C859.879 648.445 856.57 646.932 853.829 645.042C851.182 643.246 846.455 641.071 843.43 640.41C836.34 638.708 836.245 638.708 834.827 640.882Z" fill="white"/>
<path d="M891.169 641.541C889.278 642.014 888.711 647.875 890.412 648.915C890.98 649.198 891.358 650.333 891.358 651.372C891.358 652.412 892.019 653.452 892.776 653.736C894.855 654.587 898.92 651.562 898.92 649.387C898.92 646.74 893.248 641.068 891.169 641.541Z" fill="white"/>
<path d="M641.79 849.327L639.805 852.541L643.681 857.646L647.462 862.75L655.308 863.318C659.562 863.696 665.707 864.168 668.826 864.547C674.498 865.114 674.782 865.019 679.13 861.711C684.046 858.024 684.802 857.835 688.584 859.253C690.474 860.009 691.042 860.671 690.663 862.089C690.285 863.79 690.663 863.979 693.972 863.979C697.281 863.979 698.51 864.641 702.858 868.706C707.396 872.96 708.247 873.433 712.217 873.433C714.675 873.433 718.173 874.284 720.252 875.323C725.641 878.065 727.815 877.876 727.815 874.473C727.815 872.015 728.193 871.637 731.596 871.069C734.905 870.502 737.268 868.517 737.268 866.343C737.268 866.059 735 864.736 732.353 863.507C728.855 861.805 725.83 861.143 722.143 861.238L716.944 861.332L721.481 862.561C723.939 863.223 726.681 864.358 727.437 865.019C729.8 867.004 723.845 869.557 716.944 869.651C711.272 869.651 711.272 869.651 707.679 865.208C704.465 861.238 704.276 860.671 705.789 860.104C706.734 859.725 708.814 859.347 710.326 859.253C712.879 859.158 712.973 859.064 711.272 858.118C710.326 857.551 704.56 856.7 698.51 856.322C686.882 855.661 665.99 851.028 659.562 847.814C657.199 846.585 654.079 846.018 649.92 846.018C643.964 846.018 643.775 846.113 641.79 849.327Z" fill="white"/>
<circle cx="646" cy="534" fill="#5CE50D"/>
<circle cx="601" cy="378" fill="#E52A0D"/>
<circle cx="232" cy="196" fill="#E52A0D"/>
<circle cx="836" cy="529" fill="#E52A0D"/>
</svg>
