<svg width="1000" height="1000" viewBox="0 0 1000 1000" fill="none" xmlns="http://www.w3.org/2000/svg">
<path d="M605.032 95.9236C603.664 98.072 606.399 101.588 611.184 103.834C616.067 106.08 616.457 106.08 620.364 104.713C623.489 103.541 624.563 102.564 624.758 100.806C624.954 98.658 624.465 98.365 617.825 96.7049C609.914 94.8494 605.813 94.5564 605.032 95.9236Z" fill="white"/>
<path d="M693.898 186.457C691.848 187.629 690.578 187.727 688.918 187.043C686.379 185.871 678.469 186.652 677.492 188.215C676.027 190.266 676.711 192.512 679.933 196.418C681.594 198.566 683.742 201.594 684.621 203.156C685.793 205.305 687.648 206.477 692.336 208.137L698.586 210.188L701.808 208.234C705.519 205.891 705.812 204.621 703.078 201.203C700.637 198.078 701.906 196.906 708.351 196.027C712.746 195.344 721.535 190.266 720.266 189.094C719.973 188.801 716.066 188.605 711.769 188.703C705.324 188.801 703.078 188.41 700.441 186.848C698.586 185.773 697.023 184.895 696.926 184.895C696.828 184.992 695.461 185.676 693.898 186.457Z" fill="white"/>
<path d="M860.793 196.512C859.524 200.711 866.067 210.184 870.364 210.281C871.633 210.281 872.024 209.5 872.024 206.375C872.024 204.324 871.438 202.078 870.852 201.59C870.168 201.004 868.02 199.246 866.067 197.586C861.868 194.168 861.575 194.07 860.793 196.512Z" fill="white"/>
<path d="M880.324 198.561C878.664 200.417 878.761 200.71 882.765 207.448C887.453 215.065 890.871 218.19 892.824 216.237C893.605 215.456 893.605 214.382 892.628 211.94C891.945 210.28 891.164 207.741 890.871 206.374C890.675 205.007 890.285 202.956 889.992 201.784C889.699 200.319 888.234 199.05 886.086 198.073C881.789 196.315 882.472 196.218 880.324 198.561Z" fill="white"/>
<path d="M659.328 205.397C655.91 210.865 654.738 211.256 646.828 208.815C639.504 206.569 635.402 206.959 631.789 209.987C628.859 212.428 628.762 212.819 629.347 217.506C629.738 220.24 631.984 226.588 634.328 231.666C639.113 241.823 639.211 242.604 637.16 245.826C635.207 248.756 636.281 251.588 640.969 256.178L644.582 259.596L658.449 260.182C671.535 260.67 672.707 260.963 678.469 263.893L684.523 266.92V271.901C684.523 278.151 687.062 282.936 692.726 287.135C697.804 291.041 700.051 291.139 703.078 287.916C705.91 284.889 708.351 285.377 712.062 289.869C713.527 291.627 717.043 294.655 719.875 296.608C722.707 298.658 726.515 301.295 728.273 302.565C730.812 304.323 732.179 304.713 735.597 304.323C740.773 303.639 742.14 302.565 742.14 299.147C742.14 295.436 742.922 295.045 745.949 297.291C747.414 298.365 749.758 299.342 751.32 299.44C753.859 299.635 754.152 299.244 755.91 293.776C758.644 285.28 757.375 281.569 751.711 281.569C748.488 281.569 744.387 276.979 743.605 272.389C742.726 267.994 745.07 262.916 749.465 259.498L753.078 256.764L755.422 259.596C761.281 266.823 765.969 269.85 771.144 269.85C773.683 269.85 784.133 265.26 784.133 264.186C784.133 263.795 781.789 261.94 779.054 260.084C769.679 253.737 768.508 252.467 768.508 248.268C768.508 243.19 765.773 241.53 755.226 240.162C748 239.283 746.73 239.381 745.949 240.651C743.508 245.143 741.554 246.51 736.574 247.096L731.496 247.682L725.734 242.115C722.512 239.088 718.801 234.498 717.531 231.959C714.601 226.198 711.183 225.319 706.887 229.42C704.543 231.666 703.078 232.155 696.926 232.545C688.039 233.131 686.086 232.155 684.719 226.588C683.058 220.143 674.855 208.326 669.191 204.127C666.457 202.174 663.82 200.514 663.332 200.514C662.746 200.514 660.988 202.662 659.328 205.397Z" fill="white"/>
<path d="M880.52 242.311C878.177 244.948 878.47 249.147 881.302 252.858C882.571 254.518 884.622 258.327 885.794 261.257C888.919 269.265 891.165 272.292 895.364 274.245C900.052 276.296 903.567 275.71 907.474 271.999C910.696 268.972 910.794 267.8 908.059 265.358C905.325 262.917 903.177 258.815 901.321 252.761C899.954 248.464 899.466 247.878 896.145 247.097C894.095 246.608 891.556 244.948 890.188 243.386C887.356 240.065 882.962 239.577 880.52 242.311Z" fill="white"/>
<path d="M612.258 256.863C609.719 257.742 606.398 261.356 606.398 263.113C606.398 265.359 608.84 267.117 611.477 266.727C614.406 266.336 616.652 262.137 615.773 258.817C615.09 256.082 614.797 255.984 612.258 256.863Z" fill="white"/>
<path d="M954.445 267.605C953.078 269.559 952.59 272 952.59 276.199C952.688 284.598 953.664 287.43 956.301 287.43C957.961 287.43 959.133 285.965 961.574 280.984L964.797 274.539L962.746 269.754C960.305 264.09 957.375 263.309 954.445 267.605Z" fill="white"/>
<path d="M835.695 268.973C834.719 269.461 833.937 270.535 833.937 271.219C833.937 272 833.254 272.781 832.472 273.172C831.301 273.562 831.105 274.637 831.594 277.566C832.082 280.496 831.691 282.547 830.226 285.672C829.055 288.016 827.394 293.973 826.515 298.953C825.051 307.156 825.051 308.426 826.418 313.211C828.078 319.266 834.23 327.762 837.941 329.422C839.406 330.008 841.945 332.059 843.801 333.914C845.558 335.77 847.512 337.234 848.195 337.234C849.562 337.234 850.539 334.988 850.539 331.766C850.539 330.008 851.027 329.422 852.59 329.422C854.445 329.422 854.64 329.031 854.055 325.223C853.469 321.316 853.664 320.926 856.594 318.68C858.351 317.312 860.695 316.043 861.672 315.75C862.746 315.457 864.015 314.383 864.601 313.309C865.187 312.234 866.359 310.867 867.14 310.281C869.387 308.426 868.605 302.957 865.09 297.195C863.332 294.266 859.914 288.504 857.57 284.5C851.711 274.734 849.172 272.195 843.019 269.852C840.09 268.777 837.648 267.898 837.551 267.898C837.453 267.898 836.574 268.387 835.695 268.973Z" fill="white"/>
<path d="M779.25 275.618C779.25 277.376 779.836 278.645 780.813 279.036C782.863 279.817 786.086 277.083 786.086 274.544C786.086 273.177 785.305 272.786 782.668 272.786C779.543 272.786 779.25 273.079 779.25 275.618Z" fill="white"/>
<path d="M584.329 283.913C583.45 286.257 586.086 290.554 589.602 292.605C591.36 293.679 593.118 294.265 593.411 293.972C594.387 292.897 592.727 288.601 590.188 285.573C587.454 282.351 585.207 281.667 584.329 283.913Z" fill="white"/>
<path d="M20.6563 444.657C18.2149 446.22 14.6993 447.489 11.6719 447.88C5.71489 448.564 4.44536 449.54 1.71099 454.814C-0.0468244 458.231 -0.242137 459.794 0.343801 466.923C0.832082 474.149 1.41802 475.81 4.93364 481.767C7.96099 486.845 9.81646 488.798 12.0626 489.579C15.4805 490.653 23.293 499.833 25.6368 505.302L27.004 508.72L36.7696 509.989C46.0469 511.161 46.7305 511.161 50.5391 509.208C53.8594 507.548 54.6407 506.571 55.2266 503.544C55.8126 500.028 58.254 494.755 63.918 484.696C68.1172 477.177 66.9454 473.271 58.5469 467.802C56.6915 466.532 55.6172 464.286 54.1524 458.524L52.1993 451.005L46.3399 448.954C43.1172 447.88 38.7227 446.024 36.5743 444.95C30.0313 441.63 25.3438 441.532 20.6563 444.657Z" fill="white"/>
<path d="M299.563 574.833C294.778 578.544 293.411 582.744 295.462 588.017C297.317 592.705 297.415 598.076 295.559 601.591C293.509 605.4 293.216 612.431 294.778 615.458C295.657 617.021 295.852 620.439 295.266 627.373C294.681 636.845 294.485 637.236 291.556 639.482C289.7 640.947 286.477 642.021 283.157 642.509C276.126 643.29 262.161 647.294 259.427 649.248C258.255 650.029 255.716 650.712 253.763 650.712C251.614 650.712 246.438 652.47 240.091 655.498C234.524 658.134 228.372 660.771 226.419 661.455C223.977 662.333 222.317 663.798 221.243 666.044C219.778 669.072 219.778 669.56 221.243 672.49C222.122 674.248 223.489 676.396 224.368 677.275C225.638 678.837 225.54 679.033 223.196 680.009C221.145 680.79 220.071 680.693 218.411 679.521C211.575 674.736 207.669 681.181 213.235 688.115C215.188 690.556 216.458 691.044 223.489 691.923C231.009 692.9 231.595 692.9 233.743 690.849C236.966 687.822 239.7 688.31 244.388 692.705C247.317 695.537 248.001 696.611 246.829 696.611C245.462 696.611 245.071 697.392 245.071 700.029C245.071 702.763 245.657 703.642 247.806 704.814C249.27 705.595 251.224 707.06 252.2 708.134C253.177 709.208 255.325 710.673 256.985 711.357C259.72 712.431 260.208 712.431 261.77 710.38C264.016 707.548 267.923 707.939 268.313 710.966C268.704 713.701 275.735 721.708 278.567 722.49C279.739 722.88 284.231 724.833 288.528 726.884C295.266 730.009 298.099 730.79 309.036 732.06C319.095 733.134 321.927 733.818 322.708 735.185C323.196 736.162 324.759 738.212 325.931 739.677C327.981 742.119 328.079 742.9 327.2 745.537C326.224 748.369 326.419 748.857 330.911 753.544C341.36 764.677 343.704 767.607 343.704 770.146C343.704 775.029 349.661 776.201 354.349 772.197C357.181 769.853 357.669 769.755 360.306 770.83C364.114 772.392 364.016 774.833 360.208 778.056C358.352 779.619 357.083 781.865 356.692 783.818C356.204 787.04 356.399 787.333 362.063 790.751C372.317 797.001 377.493 804.619 373.587 807.841C371.731 809.404 360.306 813.798 358.157 813.798C357.278 813.798 354.934 813.115 353.079 812.236C349.856 810.673 349.661 810.673 346.829 812.724C345.266 813.798 342.532 816.923 340.774 819.658C337.845 824.15 337.649 825.029 338.333 829.912C338.724 833.72 339.993 836.845 342.434 840.458C348.196 849.052 348.391 849.15 351.712 847.197C353.274 846.318 355.032 844.658 355.618 843.583C357.474 839.97 360.599 837.236 361.673 838.115C362.259 838.603 364.602 839.482 366.946 840.068C369.192 840.751 371.048 841.533 371.048 841.923C371.048 842.314 370.169 844.365 369.095 846.513C366.263 852.177 366.556 856.181 369.974 858.623C371.536 859.794 374.27 860.966 375.931 861.259C377.591 861.65 379.641 863.017 380.52 864.287C381.985 866.533 381.985 866.728 378.958 869.853C375.247 873.662 375.638 876.298 380.032 876.298C381.692 876.298 384.72 876.787 386.868 877.47C390.481 878.544 390.677 878.74 390.091 881.572C388.138 891.142 388.235 891.63 391.751 892.705C393.509 893.29 396.048 893.876 397.415 894.072C399.27 894.267 399.954 895.048 400.149 897.001C400.442 899.833 401.224 900.224 408.255 901.201C410.794 901.494 413.528 902.568 414.505 903.642C416.458 905.79 418.606 905.205 421.145 901.982C423.391 899.15 425.638 899.15 430.911 901.884C436.966 904.912 442.239 905.693 444.974 903.935C448.001 901.884 448.196 893.974 445.266 890.263C444.192 888.896 443.313 886.357 443.313 884.599C443.313 881.767 442.825 881.181 438.724 879.423C436.087 878.349 432.474 876.982 430.423 876.396C426.126 875.029 425.247 872.587 425.638 863.31C425.833 858.525 425.54 856.083 424.368 854.326C423.489 853.056 422.806 850.908 422.806 849.54C422.806 848.271 421.243 842.314 419.29 836.259C415.872 825.615 415.774 825.029 416.946 819.267C418.313 812.138 419.583 810.576 427.005 806.865L432.571 804.033L430.911 800.908C429.934 799.248 428.665 797.099 428.079 796.025C427.493 794.951 426.614 788.798 426.224 782.255C425.833 775.712 424.954 768.876 424.173 767.021C423.391 765.263 422.806 762.333 422.806 760.576C422.806 756.865 429.641 743.486 434.134 738.408C437.259 734.892 438.919 729.912 438.235 726.201C437.942 724.833 436.673 724.345 431.985 723.857C424.173 723.173 417.727 719.853 411.184 713.505L405.911 708.232L403.567 710.478C402.005 711.943 401.321 713.505 401.614 714.873C402.102 717.607 400.345 717.802 398.001 715.263C397.122 714.287 394.681 713.212 392.63 712.822C390.579 712.529 388.333 711.552 387.649 710.771C386.966 709.99 385.891 709.306 385.208 709.306C382.766 709.306 377.884 702.568 377.884 699.248C377.884 695.048 377.102 694.169 372.415 692.216C370.169 691.337 366.751 688.896 364.895 686.748C362.845 684.599 360.11 682.646 358.45 682.353C356.888 681.962 354.544 680.693 353.372 679.423C351.224 677.177 351.224 677.08 352.981 675.126C354.641 673.369 354.641 673.076 353.079 670.732C351.419 668.29 351.321 668.193 348.977 669.755L346.634 671.22V666.923C346.634 663.115 346.243 662.138 343.704 660.283C341.751 658.818 340.774 657.353 340.774 655.595C340.774 652.861 338.724 650.517 335.501 649.345C333.938 648.759 333.743 648.173 334.524 643.583C335.013 640.849 335.403 633.915 335.403 628.251C335.403 619.853 335.696 617.998 336.868 617.705C337.747 617.607 338.919 616.142 339.505 614.677C340.188 612.822 341.36 611.748 342.825 611.455C344.876 611.162 345.169 610.576 345.462 606.083C345.755 601.689 345.169 599.833 340.97 591.533C336.673 583.134 335.599 581.865 331.399 579.521C328.763 578.056 325.149 576.005 323.489 574.931C320.852 573.369 319.974 573.271 318.313 574.248C315.677 576.005 314.114 575.81 311.184 573.564C307.669 570.83 304.446 571.123 299.563 574.833Z" fill="white"/>
<path d="M747.609 592.022C745.949 593.78 745.656 595.831 746.632 598.37C747.12 599.639 747.609 599.542 750.05 597.784C753.273 595.342 753.761 592.608 751.027 591.241C749.66 590.46 748.878 590.655 747.609 592.022Z" fill="white"/>
<path d="M977.688 593.777C974.27 594.559 971.242 595.828 970.949 596.609C969.68 599.93 971.828 605.008 976.516 609.793L981.203 614.773L986.867 614.09C990.09 613.699 994.289 612.527 996.34 611.551C999.465 609.891 999.953 609.207 999.953 606.277C999.953 603.543 999.27 602.371 995.852 599.637C991.75 596.414 984.914 592.02 984.231 592.215C984.035 592.215 981.106 592.898 977.688 593.777Z" fill="white"/>
<path d="M930.715 621.316C928.761 622.586 930.324 626.297 932.863 626.297C935.597 626.297 939.406 623.66 939.406 621.805C939.406 620.242 933.058 619.852 930.715 621.316Z" fill="white"/>
<path d="M390.383 622.781C388.918 623.855 388.625 625.711 388.625 634.5V644.852H391.164C394.289 644.852 404.836 638.602 406.301 635.867C409.133 630.594 409.23 628.055 406.594 624.637C404.25 621.609 403.859 621.414 398.098 621.414C394.582 621.512 391.359 622 390.383 622.781Z" fill="white"/>
<path d="M382.472 663.991C379.347 666.823 379.347 666.725 381.398 670.241C382.472 671.998 384.523 673.366 387.062 674.147C389.21 674.831 392.335 676.393 393.898 677.76C395.46 679.03 397.413 680.006 398.292 679.811C400.538 679.42 400.733 674.342 398.683 670.241C397.315 667.604 396.144 666.725 393.019 666.041C390.968 665.651 388.233 664.479 387.159 663.405C385.108 661.549 385.108 661.549 382.472 663.991Z" fill="white"/>
<path d="M421.925 698.957C421.242 699.738 420.851 701.887 421.046 703.645C421.339 706.477 421.632 706.867 424.269 706.867C429.542 706.867 430.324 698.566 425.05 697.785C423.976 697.59 422.609 698.176 421.925 698.957Z" fill="white"/>
<path d="M207.962 706.862C206.497 708.62 208.547 712.331 212.161 714.577C215.286 716.53 222.317 717.409 222.903 715.846C223.587 713.893 221.829 710.28 220.169 710.28C219.29 710.28 216.946 709.206 214.993 707.838C210.891 705.006 209.622 704.811 207.962 706.862Z" fill="white"/>
<path d="M254.64 719.17C252.003 720.635 252.492 722.588 256.788 726.787C258.937 728.935 260.695 731.084 260.695 731.67C260.695 732.256 261.574 733.135 262.745 733.721C265.382 735.185 268.507 732.549 268.507 728.935C268.507 724.931 264.21 719.463 260.597 718.681C256.691 717.9 256.691 717.9 254.64 719.17Z" fill="white"/>
<path d="M303.664 743.878C301.906 747.296 303.078 749.542 306.301 749.151C309.719 748.761 310.695 744.757 307.961 742.804C305.617 741.046 305.129 741.143 303.664 743.878Z" fill="white"/>
<circle cx="336" cy="651" fill="#5CE50D"/>
<circle cx="669" cy="265" fill="#E52A0D"/>
<circle cx="66" cy="481" fill="#E52A0D"/>
<circle cx="430" cy="875" fill="#E52A0D"/>
</svg>
