<svg width="1000" height="1000" viewBox="0 0 1000 1000" fill="none" xmlns="http://www.w3.org/2000/svg">
<path fill-rule="evenodd" clip-rule="evenodd" d="M982.954 338.363H983.09V338.5L983.363 338.908L983.771 339.317L984.044 339.725V339.861L983.907 339.998L984.044 340.27V340.406H983.907L983.499 340.27L983.771 339.998V339.725L983.499 339.453L983.226 338.636L982.954 338.363L982.682 338.227H982.546L982.273 338.091L982.137 337.955H981.865V338.091L981.728 338.227V338.363L981.456 338.636L981.592 339.044H981.456L981.32 339.18H981.184L981.048 339.317V339.044H980.775L981.048 338.908L981.184 338.772V338.636L981.32 338.5V338.091L981.184 337.955V337.819L981.048 337.683L981.184 337.546V337.138H981.048L980.911 337.002L980.639 337.274L980.503 337.138H980.639V336.865H981.048L981.184 337.138H981.728L982.001 337.002L982.137 336.865L982.273 336.593L982.409 336.457L982.273 336.321V336.185H982.682V336.321H982.818L982.954 336.457V336.593L983.226 336.865V337.002L982.954 337.138V337.546L982.818 337.683V337.546H982.546L982.273 337.274L982.137 337.41H982.273L982.001 337.683L982.137 337.819H982.409L982.546 337.955H982.682L982.818 338.091V338.227L982.954 338.363Z" fill="white"/>
<path fill-rule="evenodd" clip-rule="evenodd" d="M973.558 334.544V334.408H974.511L974.783 334.544H975.056L975.328 334.68H975.6L976.145 334.953V335.089L975.737 335.497H975.464V335.633H975.328V335.497H975.464V335.361L975.328 335.497L975.192 335.361L974.92 335.497L974.783 335.633V335.497L974.511 335.361L974.375 335.225L974.647 335.361H974.783L974.647 335.225L974.239 334.953H974.103L973.966 335.089L973.694 334.816L973.558 334.544Z" fill="white"/>
<path fill-rule="evenodd" clip-rule="evenodd" d="M977.099 334.408L976.962 334.272H976.826V334.136L976.69 333.999H976.554L976.418 333.863H976.145V333.591L975.873 333.318H975.737L975.601 333.182V333.046H976.281L976.418 333.182H976.554L977.099 333.455L977.371 333.727V333.863H977.507L977.643 333.999V334.272H977.779L977.916 334.408H977.779L977.643 334.544V334.68L977.235 334.544V334.408H977.099Z" fill="white"/>
<path fill-rule="evenodd" clip-rule="evenodd" d="M31.8881 597.233L32.4328 596.416L33.1137 595.599L34.3393 593.965V593.829L37.0628 592.467H37.3352L37.6075 592.331L38.0161 592.195L38.8331 591.786L39.3778 591.105L39.6502 590.969H39.9226L41.1482 590.833H41.4205L41.6929 590.697L42.1014 590.288L42.3738 590.152L43.4632 589.063L43.7355 588.926L44.1441 588.518L44.4164 588.382H45.0973L45.9144 588.518H46.3229L46.5953 588.382L46.8676 587.837L47.2762 587.428L47.4123 587.156L47.8209 586.611L47.957 586.339L48.2294 586.203L48.6379 585.794L48.7741 585.522L50.1359 584.841H50.5444L50.8168 584.705H51.4977L51.9062 584.569L52.5871 584.433H53.268L53.4042 584.024L53.5403 583.479L53.6765 583.071L54.085 581.709V581.437L53.9489 580.756L53.8127 580.347L53.6765 579.394V578.713L53.5403 578.305L53.4042 578.032V577.624L53.1318 577.487H52.7233L51.2253 577.215H50.8168L50.4082 577.079L49.7274 576.943H48.9103L48.5018 576.807H48.2294L47.6847 576.398L47.4123 576.262L47.2762 575.989L47.14 575.853L47.0038 575.445L46.8676 575.309L46.7314 574.9V574.628L46.5953 574.355L46.4591 573.947L46.3229 573.674V572.994L46.7314 572.177L47.14 571.768L47.5485 571.632L47.957 571.359L48.2294 571.223L48.3656 570.815V570.542L48.0932 569.998L47.4123 569.317L47.14 568.772V568.5L47.0038 567.002V562.78L46.8676 562.508L46.7314 562.099L46.3229 561.691L45.2335 561.146L44.825 561.01L43.4632 560.329L43.1908 560.057V559.376L43.327 558.286L43.4632 557.878L43.5994 557.605V557.197L44.0079 556.652L44.1441 556.38L44.5526 555.971L44.9611 555.699L45.2335 555.427L48.2294 553.929L48.3656 553.656L49.1827 553.52L50.1359 553.248L51.77 552.703L53.4042 552.295L54.3574 552.022L55.1745 551.75L55.9915 551.614L56.8086 551.341L57.7619 551.069L58.5789 550.933L59.396 550.66L60.3492 550.388L61.1663 550.252L61.9834 549.98V549.299L61.4387 548.209V547.801L60.7578 546.439V546.03L60.4854 545.486V545.077L60.3492 544.396V544.124L60.0769 543.034V541.945L59.9407 540.447L59.8045 540.039L59.9407 539.494L60.4854 539.358L60.6216 539.085V538.813L60.8939 538.677H61.0301L61.4387 538.268L61.711 538.132L62.1195 537.724L62.3919 537.587L63.0728 537.451L63.3451 537.315L63.6175 537.451H64.4346L64.7069 537.315L65.3878 536.906L64.9793 536.498V536.226L65.1155 535.817H64.9793L64.7069 535.272V534.864L64.5707 534.455V534.183L64.7069 533.911L64.8431 533.774V533.093L65.1155 532.957V532.821L65.3878 532.685H65.6602L65.7963 532.413L65.9325 532.276V532.14L66.0687 532.004L66.4772 531.868L66.7496 531.596L66.8858 531.323L67.1581 531.187L67.2943 531.051L67.4305 530.778L67.5667 530.642L67.7028 530.234V530.098L68.1114 529.961L68.2475 529.825L68.3837 529.553L68.2475 529.417L68.5199 529.144H68.7923L69.7455 528.736L70.2902 528.463L70.8349 528.055L71.1073 527.51L71.2435 527.374V527.102L71.5158 526.693L72.4691 525.876L72.8776 525.74L73.4223 525.604L73.967 525.74H74.7841L75.3288 525.468L75.7373 525.059L75.8735 524.787V524.242L75.7373 523.425L75.6012 523.016L75.3288 522.744L75.1926 522.472V522.199L75.465 521.927L75.6012 521.655L75.465 521.518V521.246L75.6012 521.11L76.0097 520.837L76.5544 520.565L77.0991 520.429L77.5076 520.293L77.6438 519.884L78.1885 519.476L78.3247 518.659L78.4609 518.114L78.5971 517.842L79.4141 517.705L79.6865 517.297L79.5503 516.752L79.0056 516.207L78.4609 515.527L78.5971 515.118L78.8694 514.165V513.62L79.4141 513.075L79.6865 512.394L79.5503 511.85L78.8694 510.896V509.535L78.7332 508.718V508.309L78.8694 507.764L79.0056 506.947L78.7332 506.13L78.1885 505.858L77.78 505.313L77.5076 504.905L76.6906 504.088L75.7373 503.543L75.3288 503.271L74.9203 502.862L74.6479 502.045V501.364L74.9203 501.092V500.956L75.0564 500.683L75.1926 500.275V500.002L75.0564 499.866V498.232L75.3288 497.687L75.465 497.551L75.7373 497.143L76.282 497.006L76.6906 496.598H77.2353L77.78 496.325L78.1885 496.189L78.5971 495.917L78.8694 495.781L79.2779 495.508L79.5503 495.1L80.2312 494.147L80.5036 494.01L80.9121 493.874L81.3206 493.602L81.7291 493.057L81.8653 492.785L82.0015 491.968L83.0909 491.151L83.7718 490.878L84.8612 489.108L85.406 488.427L85.8145 488.019L86.7677 487.746H87.4486L87.9933 487.882H90.5807L91.3978 487.746L92.7596 488.291L93.1681 488.563L94.2575 488.7L94.9384 488.427L95.7555 488.291L96.164 488.427L96.4364 488.7L97.2534 488.972L98.3428 489.244H99.1599L102.564 488.972L105.016 487.882L106.786 486.793L109.373 485.431L111.688 484.75L113.867 484.614L115.637 484.342H118.089L119.859 484.614L121.629 485.023L124.761 485.431L126.804 485.704L129.528 486.521L131.57 487.065L133.204 487.746H135.111L136.473 488.291L137.154 488.7L137.426 488.972L137.834 489.108V478.759L137.698 476.716L137.834 474.673V460.511L137.698 458.468L137.834 456.562L137.698 454.519L137.834 452.34V442.263L137.698 440.22L137.834 438.178V424.015L137.698 421.972L137.834 419.93L137.698 417.887L137.834 415.844V405.631L137.698 403.588L137.834 401.546V389.426L137.698 385.204L137.834 383.298L137.698 381.255L137.834 379.076V368.999L137.698 366.82L137.834 364.778L137.698 362.735L137.834 360.692V350.479L137.698 348.436L137.834 346.394V332.095L137.698 330.052L137.834 328.01V317.66L137.698 315.617L137.834 313.575V299.14L137.698 297.097L137.834 295.055V284.841L137.698 282.799L137.834 280.756V272.449L137.698 268.364L137.834 266.185V224.651L138.107 224.787L138.515 224.651H139.196L139.605 224.787H140.013L140.286 224.651H141.103L141.511 224.787H149.137L150.363 224.923H154.176L154.584 225.059H167.794L168.611 224.923H172.968L173.377 224.787H173.785L174.194 224.923H174.466L174.875 224.787L175.692 224.923H176.373L176.781 224.787H177.19L177.462 224.923H177.871L178.279 224.787L179.096 224.923L179.369 224.787H183.59L183.999 224.923L184.271 224.787H184.68L185.497 224.923H196.255V222.472L196.391 221.655V219.884L196.255 219.067V218.25L196.391 217.297V214.71L196.255 213.893V213.076L196.391 212.258V209.671L196.255 208.718L196.391 207.901V114.619L196.527 113.666L196.391 112.849V109.308L196.527 108.491L196.391 107.538V104.95L196.527 104.133V103.18L196.255 99.6394H564.48V99.7756L564.616 99.9118L564.752 99.7756H564.888V99.6394H565.024L564.888 99.7756L564.752 99.9118L564.888 100.048L564.48 100.456H564.616L564.48 100.593V100.729H564.343V100.865H564.207V100.729H563.935V100.865H563.663V100.593H563.526V100.729L563.39 101.001V101.137L563.254 101.274V101.41L563.118 101.274V101.137L562.982 101.001V100.865L562.845 100.729H562.573L562.709 101.001V101.137L562.845 101.274V101.41H562.982V101.682H562.845V101.818H562.982V101.954L563.118 101.818V101.682H563.39L563.526 101.546L563.663 101.682L563.526 101.818V102.091L563.39 102.227H563.118V102.499H562.982L563.118 102.635H562.845V102.772V103.18H562.709L562.845 103.316H562.709V103.452L562.573 103.589V103.452L562.437 103.316V103.452L562.301 103.316V103.452L562.165 103.316V103.452L562.301 103.589V103.861H561.892L562.028 103.997H562.301L562.165 104.133H562.028V104.406V104.542H562.165L562.028 104.406H562.301L562.573 104.133L562.709 104.269H562.845V103.997L562.982 103.861L563.118 103.997V104.133H562.982V104.269H562.845L562.709 104.406L562.573 104.269L562.437 104.406L562.301 104.814V104.95H562.437V105.223H562.573L562.437 105.359H562.573V105.495H562.437L562.301 105.631H562.165V105.495H561.62L561.484 105.359H561.211V105.631H561.075V105.359H560.939V105.223L560.803 105.087V104.95L560.53 105.223V105.359L560.394 105.495H560.258L560.394 105.631H560.53V106.176V106.04L560.258 106.312L560.122 106.176V106.312H559.986V106.448L560.122 106.584H559.85V106.993L559.986 107.129V107.265L559.85 107.129V107.265L559.713 107.402V107.129H559.441V107.402L559.305 107.674V107.81H559.441V107.946L559.305 108.219V108.355L559.441 108.491V108.627H559.305L559.032 108.9H558.896V108.763L558.76 108.9V109.036H558.624V108.9H558.488L558.352 109.036V109.172H558.079V109.036L558.352 108.9V108.763L558.215 108.627V108.355L558.079 108.082L558.215 107.946V107.674L558.352 107.402V106.993L558.215 107.129H558.079V106.993H557.807L557.671 107.265V107.402L557.807 107.538H557.671L557.535 107.402V107.674L557.671 107.81V108.491L557.535 108.627H557.398L557.262 108.355V108.491L557.126 108.627V108.763H556.854L556.717 108.491H556.581V108.355H556.445L556.581 108.082V107.81H556.309V108.219L556.173 108.082H555.9L556.037 108.355L556.173 108.491V108.627H556.309V108.763H556.445L556.309 108.9H556.173V109.172L556.037 109.308H556.173L556.445 109.036H556.581V109.172L556.717 109.308V109.444L556.854 109.58H556.99V109.717L556.854 109.853L556.581 109.989V109.853L556.445 109.989V110.534H556.309L556.173 110.397V110.534L556.309 110.806V110.942L556.173 111.078H555.628V110.942H555.492V111.078L555.356 111.215L555.492 111.351V111.487L555.356 111.623V111.895H555.492V112.032H555.764V111.895H555.9V112.168V112.032L555.764 112.168V112.304H555.628L555.764 112.576H555.9L555.764 112.712H555.628L555.492 112.849L555.764 113.121H555.628L555.356 112.985V112.849H555.219L555.083 112.712H554.947L554.811 112.576V112.44H554.539L554.402 112.304V112.44L554.675 112.712H554.811V112.985H554.947L555.083 113.121L554.947 113.257L555.083 113.393V113.53L555.219 113.666V113.938H555.083H555.356V113.802H555.492L555.764 113.666V113.53H555.9V113.393L556.037 113.53V113.393L556.173 113.257V113.53L556.037 113.666V113.802H555.9V114.074L555.764 114.347L555.9 114.483V114.21L556.037 114.074L556.173 113.938L556.309 113.802V113.938L556.445 113.666H556.309L556.445 113.802V113.666L556.581 113.802V113.938L556.445 114.074L556.581 113.802H556.717V113.666L556.99 113.802L557.126 113.938L556.99 114.074V114.347L557.126 114.483V114.619L557.262 114.483V114.619L557.398 114.755V114.891H557.262L557.398 115.028H557.262V114.891L557.126 114.755L556.99 114.891H557.126L556.99 115.028V115.164H557.262H557.398L557.535 115.3L557.262 115.436V115.572H557.398V115.436L557.535 115.572H557.398H557.262L557.126 115.436H556.99L557.126 115.572L556.99 115.708V115.845H557.126V115.708H557.262V115.845L557.398 115.708V115.845L557.535 115.708V115.845H557.398V115.981L557.262 116.117V115.981V115.845L557.126 115.981H557.262L557.126 116.117V115.981H556.854L556.717 116.117V116.389H556.854L556.717 116.525L556.581 116.389V116.525H556.717L556.445 116.798V116.934L556.581 117.07V117.206L556.445 117.343V117.479H556.309V117.751L556.173 118.023V118.16L556.037 118.296V118.432L557.807 118.296V118.16L557.943 118.296H558.079L557.943 118.16H557.807L557.671 118.023L557.807 117.887H557.671V117.751H557.807V117.615L557.943 117.751V117.615H558.079V117.751H558.352L558.488 117.887V117.751H558.352L558.079 117.615H558.488L558.215 117.479L558.079 117.615L557.943 117.479V117.206L558.079 117.479V117.07L558.352 117.343H558.624V117.479L558.76 117.343L558.352 117.206V117.07H558.488V116.934L558.352 117.07H558.215V116.934H558.079L558.215 116.798L558.079 116.662H558.215V116.525L558.352 116.662L558.488 116.389L558.352 116.253H558.488V116.389V116.525L558.352 116.662L558.488 116.798V116.662H558.624L558.488 116.798H558.624V116.662H558.76L558.624 116.525V116.389L558.76 116.525V116.389L558.896 116.253L559.032 116.389V116.525L559.169 116.389V116.525H559.305V116.662L559.441 116.525H559.305L559.169 116.389V116.253L559.032 116.389L558.896 116.253V116.117V115.981L559.032 116.117V115.981H559.305V116.117L559.577 116.389V115.981H559.441V116.117L559.305 115.981L559.169 115.845H559.305L559.441 115.981V115.845H559.305L559.441 115.708H559.577V115.981H559.713V116.117H560.122V115.981L560.258 116.117H560.122L560.258 116.253V116.117L560.394 116.389L560.53 116.525L560.667 116.389H560.53L560.394 116.117V115.981H560.258L560.122 115.845H559.986V115.708L560.122 115.845H560.394V115.708H560.53H560.667L560.53 115.845L560.667 115.981V115.845L560.803 115.708H560.667V115.572L560.803 115.708V115.572L561.075 115.708L560.939 115.572H560.803L560.939 115.436V115.3H560.803V115.436H560.53V115.708L560.394 115.572V115.708H560.258L560.122 115.436H560.394L560.258 115.3H560.394V115.164H560.53V114.891H560.394L560.258 115.164L560.122 115.028V115.164H559.85V115.028L559.986 115.164V115.028L559.85 114.891V114.755L559.713 114.891L559.577 114.755V114.891L559.441 114.755V115.164H559.169L559.305 115.028L559.169 114.891L559.305 114.755H559.169V114.619L559.032 114.755V114.483H559.169L559.032 114.347H559.169L559.305 114.619V114.347H559.169V114.21H559.441L559.713 114.347V114.483L559.85 114.347V114.755L559.986 114.619V114.755H560.122V114.619L560.258 114.755V114.483H560.394L560.258 114.347H560.122V114.21L560.258 114.347V114.21L560.394 114.347V114.21H560.53L560.394 114.074L560.258 114.21V113.938H559.986V113.802L559.85 113.938V114.074L559.577 113.802L559.713 113.666H559.577L559.441 113.802V113.53L559.713 113.666H559.85L559.713 113.53V113.393L559.441 113.257V113.121H559.305V113.257L559.169 113.121H559.305V112.985L559.441 113.121V113.257H559.577V113.121L559.441 112.985H559.577L559.713 113.121V112.985L559.85 113.257L559.986 113.393V113.121L559.85 113.257V113.121L559.713 112.985H559.85L559.713 112.849H559.577L559.713 112.712L559.85 112.849H559.986V112.712H560.122V112.576L560.258 112.712L560.122 112.849H559.986L560.122 112.985H559.85L559.986 113.121V112.985L560.122 113.121V112.985L560.258 113.121V112.985H560.394V113.121L560.53 113.257V113.393L560.667 113.257H560.53L560.394 113.121H560.667V112.985H560.803L560.667 112.849H560.803L560.939 112.985V113.121L561.075 112.985L561.211 113.121H561.075L561.211 112.985H561.347V112.849H561.484H561.62V113.121L561.756 113.257V112.985L561.892 113.257H562.028V113.393L562.165 113.257V113.121H562.301L562.165 113.257H562.301H562.437L562.301 113.121V112.985V112.849H562.437V112.985H562.573L562.437 113.121L562.573 113.257H562.709V113.121H562.845L562.709 113.257L562.845 113.393H562.573L562.709 113.53H562.573L562.709 113.666H562.437L562.709 113.802H562.845L562.709 113.938H562.982V113.802H563.118V113.666V113.938H563.254L563.118 114.074L563.254 114.21V113.938L563.39 114.074V113.938H563.526L563.39 113.802H563.526V113.938H563.663L563.799 113.802H563.663V113.666L563.799 113.802L563.935 113.666V113.802L564.207 113.666L564.071 113.802V113.938L563.935 113.802V114.074H564.071V113.938L564.207 113.802V113.666L564.343 113.938H564.48L564.343 114.074L564.48 114.21V114.074L564.616 114.21L564.48 114.483L564.616 114.347V114.21V114.074L564.752 114.21V114.074L564.888 114.21V114.347H565.024L565.16 114.21H565.433L565.705 114.483V114.755V114.347H565.841V114.21L565.705 114.074L565.841 113.938H565.705L565.841 113.802V113.938V114.074H565.978V114.21H566.795L566.931 114.074V113.938L567.203 114.21V114.074L567.339 114.21H567.475L567.612 114.347H567.884V114.483H568.156L568.293 114.619H568.429V114.483L568.156 114.347V114.21H568.02L567.884 114.074L568.156 113.802V113.53L568.293 113.393V113.257H568.156V112.985H568.02V112.849L567.884 112.712H567.748L567.612 112.576V112.712H567.203L567.067 112.849V112.712H566.931L567.067 112.576L566.795 112.304L566.658 112.44L566.795 112.576H566.658L566.795 112.712V112.849H566.658L566.522 112.985V112.849L566.386 112.712L566.25 112.849V112.712H566.114L565.978 112.576V112.44H565.841V112.576H565.705L565.16 112.44L565.024 112.304L564.888 112.44H564.616V112.576H564.48V112.304L564.343 112.44V112.304H564.48V112.168L564.616 112.44H564.888L565.024 112.304V112.168H565.16V112.032L565.297 112.168H565.433V112.032L565.569 111.759H565.297L565.569 111.623L565.297 111.078V110.942H565.16L565.297 110.806L565.569 110.942L565.841 110.806H565.978L566.25 110.942H566.386L566.522 110.806L566.386 110.67H566.522V110.534H566.658L566.931 110.397L567.203 110.125V109.989H567.339L567.203 109.853H567.067V109.58L566.795 109.308H566.522V109.172H566.658V109.036L566.795 108.9H566.522V108.763H566.386V108.627L566.25 108.763H566.114V108.9L566.25 109.036H566.114V108.9L565.978 109.036V108.9L565.841 109.036V109.172V108.9L565.705 109.036V108.9H565.841V108.763L565.978 108.627H566.114L565.978 108.355H566.114V108.219L565.978 108.355H565.569V108.082L565.433 107.946H565.569V108.082L565.705 108.219H565.841V107.946L565.978 108.219V108.082H566.114L566.25 107.946H566.386L566.25 107.81V107.674H566.114V107.538L566.25 107.674V107.538V107.402H566.386L566.25 107.538L566.522 107.81V107.674L566.658 107.538H566.522V107.402H566.658L566.795 107.538V107.402H566.931V107.674L567.067 107.265L567.203 107.402H567.339V107.265L567.475 107.129H567.339L567.203 106.993H567.339V106.857H567.203L567.067 106.993L566.931 106.857V106.721H567.067L566.795 106.448V106.312L566.658 106.448H566.522V106.584H566.386V106.721H566.25V106.448H566.386V106.312L566.114 106.176H566.25L566.386 106.312V106.176H566.522L566.386 106.04H566.522V106.176H566.658L566.795 106.312L566.931 106.176L567.067 106.312V106.448H567.203V106.312H567.339L567.475 106.448V106.176H567.339V106.312L567.203 106.176V106.04H567.067H566.931L567.067 105.904H567.203L567.067 105.767H566.931L566.795 105.904V105.767L566.658 105.904L566.522 105.767L566.795 105.495V105.359H566.931L567.067 105.495V105.223L567.203 105.495H567.339L567.475 105.359V105.767L567.612 105.904L567.748 105.767L567.612 105.631H567.748V105.359L567.612 105.223H567.748V105.359H567.884V105.223H568.02V105.359L568.156 105.767H568.429V105.359L568.293 105.223H568.429L568.293 105.087V104.95H568.156L568.293 104.814H568.156V104.678L568.293 104.814V104.542H568.429V104.678H568.565V104.269H568.02L568.156 104.133V104.269H568.565V103.997H568.701L568.565 103.861H568.429L568.293 103.725L568.429 103.589L568.565 103.725V103.589H568.701V103.452H568.429H568.293V103.316H568.429V103.18L568.565 103.316L568.701 103.18L568.837 103.044V102.772H568.701L568.565 102.908H568.429V102.772H568.293V102.635H568.429L568.565 102.772V102.635H568.701L568.837 102.499V102.363H568.701V102.091H568.837L568.701 101.954L568.837 101.818L568.701 101.682H568.837H568.973L569.11 101.818H569.246V101.682L569.382 101.41L569.246 101.274H569.382L569.246 101.137L569.11 101.274V101.001H569.382V100.865H569.246L569.382 100.729L569.246 100.593V100.456L568.973 100.184H568.837V99.9118L568.973 100.048L569.11 99.9118L569.246 100.048L569.382 99.9118H569.654L569.791 99.7756V99.6394L569.927 99.5032V99.3671L570.063 99.0947L569.927 99.2309L569.791 99.0947L569.246 98.8224H569.11L568.973 98.9585H568.837V98.8224L568.973 98.6862L569.11 98.55H568.973V98.4138L569.11 98.2776H569.246V98.1415H569.382L569.246 98.0053H569.11V98.1415H568.973V98.0053L569.11 97.8691H569.382L569.518 97.7329L569.382 97.5968V97.4606V97.3244H569.518L569.382 97.1882H569.518L569.382 97.052H569.518V97.1882H569.654L569.518 97.052L569.791 96.7797V96.9159H569.927V96.7797H570.063L570.199 96.9159H570.335V96.5073L570.199 96.3712L570.063 96.235V96.0988L569.927 95.9626V96.0988L569.791 95.9626H569.927H570.063L569.927 95.8264V95.6903H570.199L570.063 95.8264H570.199L570.335 95.5541H570.199L570.335 95.4179H570.608L570.744 95.2817L570.608 95.0094H570.744V94.8732H570.88L570.744 94.737L570.88 94.6008V94.737H571.016V94.6008H570.88L571.016 94.4647L571.152 94.6008H571.289V94.737H571.425V94.4647H571.289L571.425 94.3285V94.1923L571.561 94.0561V93.92H571.697L571.833 93.7838V93.6476H571.969V93.5114L572.106 93.3752V93.2391L572.378 92.9667H572.242L572.378 92.8305V92.5582L572.514 92.6944L572.65 92.5582L572.786 92.6944H572.923L572.514 92.2858L572.65 92.1496V92.0135H572.514V92.1496H572.378V91.6049L572.514 91.7411V91.6049L572.65 91.7411V91.6049H572.786L572.923 91.4688H573.195V91.7411H573.331V92.1496L573.467 92.0135H573.604L573.467 92.1496V92.2858L573.195 92.5582L573.059 92.8305L572.65 93.3752L571.833 95.0094L571.697 95.4179L571.561 95.5541L571.289 96.5073L571.152 96.6435L571.016 97.3244L570.744 97.8691L570.608 98.4138L570.199 99.6394H673.422L696.027 116.934L722.174 114.347L726.804 99.6394H727.621L728.438 99.5032H729.119L729.255 99.3671L730.617 99.7756H731.297L733.34 99.6394H734.021L734.702 99.7756L739.06 99.3671L739.74 99.2309L741.511 99.6394L742.464 100.048L742.872 99.9118L749.954 99.6394H860.53L860.666 99.5032L867.339 99.6394L874.42 99.5032L875.237 99.2309L877.552 99.6394H878.506L880.14 99.9118L881.365 99.6394L881.774 99.5032L882.046 99.7756L886.404 99.6394L887.493 99.7756H889.264L890.081 100.048L890.489 99.6394L890.353 99.9118H890.217V100.32L889.808 100.729L889.672 101.001L889.4 101.274H889.672V101.546L889.536 101.818H889.808L890.217 102.227V102.635L890.353 102.908L890.625 103.044V103.589L890.762 103.861V103.997L890.625 104.133L890.489 104.406H890.353V104.269L890.217 104.406V104.678L890.081 104.814V104.95L890.217 105.087V105.359L890.081 105.495V105.359L889.945 105.223L889.808 105.359V105.631H889.945L890.081 105.767L890.217 105.631V105.767L890.353 105.904V106.857L890.217 106.993V107.129H890.353V107.402L890.489 107.538L890.217 107.81V108.491H890.081L890.353 108.763L890.625 109.036L890.489 109.172L890.625 109.989H890.489V110.125H890.081L889.808 109.989H889.536V110.125L889.264 109.853H889.4V109.717L889.264 109.444V109.58L888.991 109.717L888.855 109.853L888.991 110.125L889.128 110.261H889.536L889.808 110.125L889.945 110.261V110.534H889.672V110.67H889.264V110.806H889.536V110.942L889.4 111.078H889.536V110.942H889.672L889.808 110.806V110.67H889.945L890.081 110.534V110.397L890.217 110.261H890.762L890.898 110.397V111.215L890.762 111.351L890.625 111.759L890.353 112.304L890.217 112.712V112.576H889.945V112.712H889.672L889.536 112.849L889.4 112.712L889.264 112.849H889.536L889.672 112.985L889.536 113.121V113.257H889.672V113.121L890.081 112.712L890.217 112.849H890.353L890.489 112.985L890.762 113.802V114.347H890.625L890.353 114.483L890.217 114.347L889.945 114.619H889.808V114.755H890.081L890.217 114.619H890.489L890.625 114.483H890.762V114.891H890.898V115.028L891.034 115.3V115.436L891.17 115.572L891.306 116.117V116.253L891.443 116.525V116.662L891.579 116.798V117.206H891.443L891.306 117.07L891.034 117.206H890.625V117.343H891.034L891.306 117.206H891.443L891.579 117.343L891.715 117.615V118.16L891.579 118.432V119.385H891.443L891.306 119.249H891.034L890.898 119.113V119.249L890.762 119.113V119.249L890.625 119.385L890.762 119.521V119.794H890.625V119.93H890.898H890.762L891.034 119.658V119.521L891.17 119.385L891.443 119.521H891.579V119.93L891.715 120.066L891.851 120.338H891.987V120.475L891.851 120.611V121.564L891.987 121.7L891.851 121.836L891.579 121.973H891.17V122.109L891.443 122.381V122.517H891.715V122.245L891.851 122.109V122.245H891.987V122.109L892.123 121.973L892.26 122.245L892.532 122.517V122.79L892.668 123.062L892.532 123.198L892.668 123.334L892.396 123.607L892.26 123.879V124.015L892.396 124.151V124.424H892.668L892.804 124.56H892.668L892.804 124.696H892.668V124.832L892.804 124.968L892.668 125.105L892.804 125.241H893.077L893.349 125.513H893.485L893.621 125.786L893.485 125.649L893.349 125.786L893.485 125.922H893.621H893.349V126.058H893.485V126.33H893.621V126.603L893.758 126.739V126.875H894.03L893.894 127.011L894.03 127.147H893.894V127.42L894.302 127.692V127.828L894.439 127.964V128.101H894.711L894.575 128.237L894.711 128.509H894.847L894.983 128.645L895.119 129.19L895.256 129.326V129.871L895.392 130.007V130.143L895.664 130.416V130.552L895.8 130.688H895.664L895.392 130.824V130.552L894.983 130.96V131.097L895.119 131.233V131.369L894.847 131.641V131.505L894.711 131.369L894.575 131.097L894.439 131.233H894.575L894.302 131.505L894.439 131.641V131.914H894.711V132.05H895.119V131.914H895.256V132.05H895.528V131.914L895.392 131.777V131.505H895.528V131.097H895.664V130.96L895.8 131.097H895.936L896.073 131.369L896.209 131.505V131.641L896.617 132.05V132.322L896.753 132.594L896.89 132.731V133.003L897.162 133.412V133.548L897.298 133.956V134.092L897.434 134.229L897.571 134.637L897.843 134.909V135.182H897.979V135.318H898.115L898.388 135.454V135.863L898.115 135.999V136.135L897.979 136.271L897.843 136.135L897.298 136.68H897.026L896.89 136.816V136.68L896.753 136.816H896.617V136.68H896.345L896.753 137.088H896.209V137.361L896.345 137.497H896.753L896.89 137.361V137.088V137.225H897.162V137.088L897.298 136.952H897.434V136.816H897.571L897.707 136.68V136.544L897.843 136.407V136.271H897.979V136.407L898.251 136.135V135.999H898.388V136.271L898.524 136.544L898.66 136.68V136.816L898.796 136.952L898.932 137.225L899.205 137.361L899.749 137.905V138.042L900.022 138.178L900.158 138.45V138.586L900.294 138.722L900.43 139.131L900.567 139.403H900.703L900.839 139.676V139.812L900.703 139.948H900.567L900.158 140.22L900.022 140.493V140.084H899.749V139.948H898.932L898.796 139.812H898.66V139.676L898.388 139.403H898.251L898.115 139.54L898.251 139.676V139.948H898.524V140.084H898.388L898.251 140.22H897.843L897.707 140.493H897.571L897.707 140.765H898.251V140.629H898.388V140.493H898.524V140.357L898.66 140.765H898.796V140.901L898.524 141.174L898.66 141.31V141.446L898.796 141.582L898.932 141.31V141.037H899.069V140.22L899.205 140.357V140.493H899.613L899.749 140.357L900.022 140.629H900.158L900.294 140.493V140.357H900.43V140.629H900.567V140.22L900.703 140.084H900.975L901.384 140.493L901.52 140.901L901.656 141.037L902.064 141.31V141.446L902.337 141.582L902.473 141.855L902.881 142.127L902.745 142.263H902.881V142.399L903.018 142.535V142.672H903.154L903.29 142.944L903.562 143.353L903.699 143.489L903.835 143.761L904.107 144.17L904.243 144.306V144.442L904.516 144.714L904.652 144.987L904.924 145.259V145.395H905.06L905.197 145.668L905.469 145.804L905.605 146.076L905.741 146.212H905.877L906.014 146.348L906.15 146.621L906.967 147.438V147.574H907.239L907.512 147.846L907.92 147.983L908.056 148.255L908.192 148.391H908.465L908.601 148.527H908.737L909.009 148.8L908.873 148.936L909.009 149.208L909.146 149.617H909.282L909.418 149.481L909.69 149.753H909.827L909.963 149.889V150.025L910.099 150.161L910.371 150.706H910.508L910.644 150.978V151.115L911.188 151.387L911.461 151.659L911.597 151.932V152.068L911.869 152.476L912.005 152.613V152.749L912.278 153.021L912.414 153.293L912.959 153.838H913.095L913.231 153.974L913.503 154.111V154.383H913.64V154.655H913.776V154.928L913.912 155.336V155.745L914.048 156.153L914.184 156.289L914.32 156.698V156.834L914.593 157.106L914.865 157.243L915.138 157.515H915.274L915.682 157.924L915.955 158.06L916.091 158.196V158.604L915.955 158.741L915.682 158.877L915.41 159.149V159.285L915.682 159.558L915.41 159.83L915.274 160.102L915.138 160.511L915.001 160.647V160.375L914.865 160.239L914.729 160.375L914.457 160.102L914.184 159.694H914.32L914.184 159.558H914.048V159.694H914.184L914.048 159.83L914.457 160.239V160.375L914.32 160.239H914.184L914.457 160.511H914.593V160.647L914.729 160.783L914.865 160.647H915.001V160.783L914.865 161.056L914.593 161.328H913.912L913.503 161.192H913.095V161.056H912.959V160.919H912.823V161.192L912.686 161.328H912.414L912.278 161.464V161.6L912.55 161.873V162.281L912.414 162.417L912.278 162.69L912.414 162.826L912.278 162.554V162.417L912.142 162.281V162.145L912.005 162.009V161.737L911.733 161.464L911.869 161.328V161.192L911.461 160.783V160.647L911.325 160.511V160.375L911.188 160.239V160.102L911.052 159.966V159.694L910.78 159.421V159.149L910.508 158.877V158.741L910.371 158.604V158.332L910.099 158.06L910.235 157.924L909.827 157.515H909.69L909.963 157.243L909.827 157.106V156.97L909.69 156.834V156.698L909.554 156.562V156.426L909.146 156.017L909.009 155.745H909.146V155.881H909.282L909.418 156.017V156.153H909.554L909.69 156.289V156.426H909.827L910.099 156.289V156.153L910.235 156.017L910.371 156.426H910.508V156.562L910.644 156.698V156.834H910.78L910.916 157.243L911.052 157.515V157.651L911.188 157.787V158.06L911.325 158.196H911.461L911.597 158.332H911.733L912.005 158.741H912.142L912.278 159.013L912.55 159.149H912.686L912.959 159.421H913.095L913.367 159.694H913.776V159.558H913.64L913.367 159.285L913.503 159.421H913.776L913.912 159.285V158.877L913.64 158.741L913.367 158.468H913.231V158.332L912.959 158.06L912.686 157.924H912.55L912.005 157.379V157.243L911.733 156.97V156.834L911.597 156.698V156.153H911.461V156.017L911.325 155.881H911.188V155.745H911.052V155.609L911.188 155.472V155.336L911.052 155.2V155.064H911.325V154.928H911.597V154.791L911.325 154.519L911.461 154.383V154.111L911.188 153.838H910.644L910.371 153.974H910.235L910.371 153.838H910.235L910.099 153.702H910.235V153.566L910.099 153.43H909.554H909.69L909.554 153.293L909.418 153.43H909.282V153.566H909.418L909.282 153.702L909.418 153.838L909.69 153.974L909.554 154.111H909.146V153.974L909.009 153.838H908.873L909.009 153.702V153.566L908.737 153.293V153.157L908.465 152.885H908.601L908.465 152.613H908.601L908.737 152.749V153.021L909.009 153.293V153.43L909.282 153.293L909.146 153.021V152.34L909.009 152.204H908.873L908.601 152.34H908.192V152.476H908.056H907.92V152.613H908.056L907.92 152.749V153.157H908.056L908.192 153.293V153.43H908.056V153.566H907.92L907.784 153.43L907.512 153.293H906.967V153.157L907.103 153.021V152.885L906.967 152.613V152.204L906.831 152.068V151.796H906.967L907.103 151.659V151.523L907.239 151.387V151.251L907.375 151.115V150.978L907.512 150.842V150.57L907.648 150.434V150.025H907.512L907.375 149.889V149.481L907.239 149.344V149.208H907.103V149.072L906.967 148.936V148.8L906.558 148.663H906.422L906.15 148.391H905.605H905.741L905.877 148.255L905.741 148.119H905.06L904.924 148.255L904.652 148.391H904.516V148.527H904.38L904.107 148.8V148.936L903.971 149.208L903.699 149.481H903.562V149.617L903.426 149.753V149.889H903.562L903.699 149.753V149.617H903.835L903.699 149.753L903.835 149.889L903.562 150.025L903.426 150.161V150.298L903.154 150.434L903.018 150.57L903.154 150.842L903.29 150.978V151.115L903.154 151.251V151.387L903.018 151.523V151.659H903.154L903.426 151.932H903.562L903.426 152.204L903.29 152.34V152.476H903.426L903.699 152.613H904.243V152.749L904.38 152.885H904.924L905.197 152.613L905.333 152.749V152.885H905.197L905.06 153.021L904.788 153.157L904.516 153.43V153.566L904.38 153.702L904.516 153.974V154.111H904.652L904.924 154.383V154.519L904.652 154.791V155.2H904.516V155.336L904.38 155.472V155.609H904.516V155.881H904.788V156.017L904.652 156.153V156.426H904.788V156.834H904.924L905.197 156.97L905.06 157.106L904.788 157.243V157.515H904.924L904.788 157.787H904.516V157.924H904.38L903.971 158.06L903.835 157.924V157.787H903.699L903.562 157.651H903.426V157.515H903.29L902.881 157.924V158.604L902.745 158.741V158.877L902.881 159.149V159.558L903.018 159.694H902.881L903.018 159.966V160.239L903.29 160.375L903.562 160.239L903.835 160.511L903.971 160.783V160.919H903.835V161.056L903.699 161.328L903.835 161.464L903.971 161.737H904.107L904.516 162.145L904.652 162.417L904.788 162.554L905.06 162.69V163.234L905.333 163.371L905.197 163.507V163.779H905.333L905.469 163.915V164.052L905.741 164.324V164.869L905.877 165.277V165.686H906.014V165.822L906.15 165.958H906.286L906.422 166.094V166.23L906.558 166.503H906.286L906.15 166.639L906.286 166.775H906.558V166.639L906.695 166.911H906.422V167.047L906.558 167.184H906.695V167.047L906.831 167.456V167.592L906.967 167.728L906.831 167.865V168.409L906.695 168.545V168.818L906.967 169.09H907.103L907.239 169.226V169.635L907.375 169.771V171.814L907.512 172.086V172.495L907.239 172.767V173.039H907.375V174.265L907.239 174.401V175.354H907.375V175.49L907.512 175.763V175.899L907.375 176.035V176.308L907.648 176.035V175.899H907.784V176.716L907.92 176.988V177.806L907.784 177.669H907.648V177.806L907.512 177.942V178.078L907.648 178.214L907.784 178.078V177.806L907.92 177.942L907.784 178.078V178.35L907.92 178.486V178.623L908.056 178.895V179.167L908.192 179.303V179.848L908.056 179.984V180.121L907.92 180.257V180.938L908.056 181.074V181.346L907.92 181.618V181.891L908.329 182.027V182.163L908.465 182.299V182.436L908.329 182.572H908.465V182.708H908.601V183.116L908.737 183.253V183.389L909.418 184.07V184.206L909.554 184.342V184.887L909.69 185.023L909.554 185.295H909.69L909.554 185.568V185.704L909.69 185.84L909.827 186.112L909.69 186.385V186.249H909.554L909.69 186.521L909.827 186.657L910.099 186.793V186.929L910.235 187.066L910.371 187.338V187.61H910.508V188.019L910.644 188.291V188.564L910.916 188.836V189.108L911.325 189.517V190.062L911.461 190.334V190.47L911.325 190.606L911.461 190.879L911.597 191.015V191.151L911.461 191.423V192.24L911.325 192.649V192.921L911.188 193.194V193.602L911.052 194.011L910.916 194.283V194.828L911.188 195.1V195.645L911.325 195.781V195.917H910.916L910.371 196.19L910.508 196.053H910.235L910.099 196.19H909.963L909.827 196.326V196.19L909.963 196.053L909.827 195.917H909.554L909.418 196.19V196.053L909.282 195.917H908.873L908.737 196.053H908.601L908.465 196.326V197.007L908.601 197.143V197.551H908.737L908.601 197.824L908.737 197.96L909.009 198.096L909.146 198.232L909.009 198.368L909.146 198.641V198.777L909.282 199.049L909.418 199.185V199.458L909.554 199.594V200.139L909.282 200.547V200.683L909.146 200.956L908.873 201.228L908.601 201.364V201.5L908.465 201.637V201.773L908.601 201.909L908.737 202.318V202.726L908.601 202.862V203.271L908.465 203.407V203.815L908.329 204.088H908.601V203.952H908.737V204.905L908.873 205.177V205.586L908.737 205.722L908.873 205.994L909.146 206.267V206.403L909.282 206.811L909.418 206.948V209.671H909.282V209.943L909.418 210.08L909.282 210.352L909.146 210.216L909.282 210.08L909.009 209.807H908.873L909.009 209.943V210.08L908.873 210.216H908.737V210.624L908.601 210.761L908.737 211.033L908.601 211.169H908.737L909.009 211.305V211.169L909.282 211.033V210.897L909.146 210.761L909.282 210.624V210.897L909.418 211.169V211.441L909.554 211.714L909.418 211.986V212.122L909.554 212.258V213.076H909.69V213.348L909.963 213.62L909.69 213.893V213.756L909.554 213.893L909.69 214.029H909.827V214.846L909.963 215.118V215.663L909.827 215.935H909.963L909.827 216.208L909.963 216.344V216.616L910.099 216.752L909.963 216.889V217.161L910.099 217.433V220.157L909.963 220.429L909.827 220.565V221.11L909.69 221.382L909.554 221.519V221.655L909.418 221.791L909.146 222.063L909.009 222.608V222.336L909.146 222.063V221.791L909.282 221.519H909.009V221.655L908.873 221.927H908.737L908.601 222.063V222.199H908.329V222.336L908.192 222.472V222.608H908.056L908.192 222.744V222.88H908.056V223.153L908.192 223.289V223.561H908.465V223.697L908.601 223.834L908.737 224.106V224.378L908.601 224.514V224.651L908.465 224.378H907.92V224.514L908.056 224.651V224.787L908.192 224.923L908.329 224.651H908.601H908.873V226.012H909.009V226.285L909.146 226.421V226.557L909.418 226.83L909.554 227.102V227.238L909.69 227.374V227.783L909.827 227.919V228.191H909.554V228.327H909.418L909.554 228.464V228.6H909.69L909.827 228.736V228.872L909.963 228.736L909.827 228.464L909.963 228.327L910.235 228.6L910.099 228.872L910.235 229.008V229.145L910.371 229.417V229.553H910.508L910.371 229.689V229.825L910.508 229.962V230.234H910.644L910.78 230.37V230.643L910.916 230.779V230.915H910.78V230.779H910.644V230.915L910.78 231.187L911.052 231.323L911.188 231.187V231.596H911.325L911.461 231.46V231.732L911.597 232.004L911.869 232.277V232.549H912.005V232.685H912.142L912.278 232.821L912.142 232.958L912.414 233.23V233.366L912.55 233.502L912.414 233.775L912.142 234.047H912.278L912.142 234.183H912.278V234.319L912.414 234.183V234.319H912.686L912.55 234.592H912.414V234.728L912.278 234.864V235L912.414 235.136H912.959V235.681H913.095L912.959 235.817V236.498H913.095L912.959 236.907V237.588L912.823 237.86V237.996V238.132L912.959 238.268V239.222L913.095 239.494L912.959 239.63L913.095 239.903L912.959 240.175V240.311H912.823V240.447L912.686 240.992V241.537L912.823 241.673H912.686V242.354L912.823 242.49V242.898H912.686L912.823 243.171L912.686 243.307V243.171L912.55 243.443V243.307L912.414 243.443V244.669L912.55 244.533V244.124L912.686 243.988V244.669L912.55 244.805V244.941L912.414 245.214L912.005 245.622L911.869 246.031H911.733L911.869 245.894L911.733 245.758H911.869V245.622L911.733 245.758V245.35H911.869V245.214L912.005 245.077L911.869 244.533V244.396H911.461V244.533L911.325 244.805V245.214L911.461 245.486L911.325 245.622H911.188L911.325 245.758V246.031H911.188L911.052 246.167H911.325V246.303L911.461 246.439H911.597V246.575L911.461 246.711V247.392L911.325 247.529V247.665L911.461 247.801V247.937H911.597V248.073H911.461L911.597 248.209L911.461 248.89V249.299L911.325 249.435L911.188 249.299L910.916 248.89V248.754L910.644 248.209V248.073H910.508V247.937H910.371L910.235 247.801V248.073H910.371L910.644 248.346V248.482L910.78 248.754V248.89L910.644 249.027L910.371 249.163V249.299H910.235L910.371 249.435V249.299L910.508 249.163H910.78V249.299H910.916V249.435H911.052L911.461 249.844V250.116L911.597 249.98V250.116H911.461V250.252L911.869 250.661H912.005L911.597 250.797V250.933L911.733 251.342L911.869 251.478L911.597 251.614L911.733 251.75V252.022H911.869L911.733 252.159H911.869V252.295H912.142L911.869 252.431L912.005 252.567L911.869 252.703H912.005V252.839L912.142 253.112H912.278V253.384H912.414V253.52L912.55 253.793H912.686L912.823 253.929L912.959 254.201L913.231 254.61L913.367 254.882V255.018L913.503 255.155V255.291L913.64 255.427V255.291H913.776L913.912 255.563L913.776 255.427V255.699L913.912 255.972L914.048 256.108V256.38H914.184L914.32 256.516V256.38L914.457 256.516L914.593 256.789L914.729 257.197L914.593 257.47V257.606L914.457 257.742V257.606H914.32V257.333H914.184V257.061H913.912V257.197L913.776 257.061L913.912 257.333V257.47H914.048L913.912 257.742H914.048V258.014H914.32V258.15L914.184 258.287H914.32L914.457 258.559V258.695L914.593 258.831V258.967H914.457V259.104H914.593L914.729 259.376V259.648L914.593 259.785V259.921L914.729 260.057H915.001V260.193L915.138 260.329V260.874L915.274 261.01V261.555L915.138 261.691V261.827L915.41 261.963V262.236L915.546 262.508V262.917L915.682 263.053L915.546 263.189L915.818 263.598V264.006L915.955 264.415L916.091 264.551L916.227 264.959L916.091 265.368V265.776L916.227 265.913V266.185L916.091 266.321V266.185H915.955V266.321L915.818 266.457H915.546V266.593L915.682 266.73V267.002L915.818 266.866V267.002L915.955 267.138H915.818V267.274H915.955V267.683H916.091V267.819V267.955L916.227 267.819H916.091L916.227 267.683V267.547V267.955L916.363 268.091V268.228H916.499V268.364H916.363L916.227 268.228V268.364V268.5V268.772H916.363L916.227 268.5V268.364H916.363L916.499 268.5V268.364H916.635V268.636L916.499 268.908L916.635 269.045L916.499 269.181V270.27L916.363 270.406L916.499 270.543L916.363 270.679L916.499 270.815H916.363L916.499 270.951V271.087L916.635 271.223L916.772 271.496L916.635 271.632V271.496H916.499L916.635 271.632H916.499L916.635 271.904L916.772 272.041V272.858L916.908 273.402L917.044 273.675V273.947H917.18L917.044 274.083V274.356H916.908L917.044 274.492V274.628L916.908 274.9L916.772 275.036V275.309L916.908 275.99L917.044 276.262L917.18 276.534L917.316 276.671V277.079L917.453 277.488L917.316 277.624V278.169H918.133L918.406 278.441V278.577L917.861 279.122V279.258L917.316 279.394V279.258H917.044V278.986L916.908 279.258V279.667H916.772L916.908 279.803H916.772V279.939H916.908L917.18 280.211V280.347L917.453 280.075H917.316V279.803H917.453V279.667L917.589 279.53H917.725V279.394L917.861 279.53V279.394L918.27 278.986L918.678 278.713L918.814 278.849H918.951L919.087 279.122L918.951 279.258V279.394H918.678V279.53H918.542L918.406 279.394L918.542 279.258L918.406 278.986L918.27 279.122L918.406 279.258L918.27 279.394V279.939L918.542 280.211V280.484L918.678 280.756H918.814L918.951 281.028V281.164H918.814L918.951 281.437L918.814 281.573L918.951 281.709V281.982L919.223 282.118V282.526L919.087 282.39V282.662L918.951 282.799V283.071H919.087L919.223 283.207H919.359V283.071L919.495 282.799V283.207H919.631V283.48L919.768 283.752V284.16L919.631 284.297V284.433H919.768L919.904 284.705L920.176 284.841V285.114L920.448 285.386V285.931H920.585V286.339L920.448 286.884L920.585 287.02H920.721L920.857 287.156H920.993V286.748L920.857 286.475L921.129 286.884V287.156L921.266 287.292L921.402 287.565L921.266 287.701V287.837L921.129 288.11L920.993 288.518V289.199L920.857 289.471V288.246H920.721L920.585 288.382V288.927L920.448 289.063L920.585 289.199V289.88L920.721 290.016V290.152L920.857 290.288V290.425L921.129 290.697L921.402 290.833V291.242L921.266 291.378L921.402 291.65L921.538 291.786H921.674L921.538 291.65V291.378H921.674V291.923L921.81 292.059V292.467L921.674 292.603V292.74L921.538 292.876V293.148L921.402 293.42L921.538 293.557V293.965L921.674 294.101L921.538 294.238L921.674 294.374V294.51H921.538L921.674 294.646V294.782H921.946L922.083 294.918V295.055L922.219 295.327L922.355 295.463V295.599L922.219 295.463L922.355 295.736V296.008L922.491 296.144V296.28L922.763 296.553V296.825L923.172 296.961V297.097L923.308 297.37H923.444V297.642H923.717L923.989 297.778V297.914L924.125 298.187L924.398 298.323H924.534V298.459L924.806 298.868V299.004L925.215 299.821L925.487 299.957L925.623 300.093L925.759 300.366V300.774L926.032 301.046V301.183H926.168L926.032 301.319L926.304 301.455L926.168 301.591L926.304 301.727H926.44L926.576 301.864H926.713V302L926.849 302.272L926.985 302.408V302.272L927.121 302.408V302.136L927.257 302.272V302.408L927.393 302.544V302.681H927.53L927.802 302.953V303.089H927.666L927.393 303.361L927.53 303.498V303.634H927.393H927.666L927.938 303.498V303.225L928.074 303.361L928.211 303.225V303.361L928.483 303.498L928.619 303.77L929.164 304.315H929.3L929.436 304.179V304.315H929.572L929.845 304.042H930.117L930.389 303.906L930.526 304.042L930.798 303.906H930.934V304.042L930.798 304.179V304.315H930.934V304.451H931.07L930.798 304.587V304.723L931.07 304.587L931.207 304.451L931.343 304.587H931.207L931.479 304.451L931.615 304.315V304.451H932.296L932.432 304.315L932.568 304.451L932.704 304.315H932.977V304.451L933.113 304.315H933.794V304.179H934.747L934.883 304.042H935.156L935.292 303.906H936.245L936.381 303.77L936.245 303.634L936.381 303.498L936.654 303.361V303.225L936.79 303.089V302.953H936.926L937.062 303.089V303.634L937.198 303.906L937.607 304.315L938.015 304.587L938.288 304.859H938.832L939.105 304.996H939.513L939.649 304.859H939.786L939.922 304.587L940.194 304.723H940.603L940.875 304.859V304.996L941.011 305.132V305.404L941.284 305.676V305.813H941.011V306.085L940.875 306.221V306.494L941.011 306.63H941.148L941.284 306.766H941.42V306.357L941.556 306.494V306.766L941.828 306.902L941.965 307.038H942.101L942.509 307.447L942.373 307.583V307.992L942.237 308.128V308.264L942.782 308.809L943.054 308.945L943.19 308.809V309.081L943.871 309.762V310.034L944.28 310.443H944.416L944.96 310.715L945.778 310.987L946.458 311.124L947.684 311.532H947.956L948.365 311.668L949.318 312.077L949.999 312.349H950.271L950.816 312.622L951.088 312.894L951.769 313.166L952.042 313.439L952.45 313.711L952.723 313.847L953.131 314.256L953.54 314.8L954.084 315.481L954.357 315.754L954.765 316.435L955.038 316.979L955.174 317.388L955.446 317.66L955.582 317.932L955.855 318.341L956.263 318.75L956.536 318.886L956.808 319.294L957.216 319.567L957.489 319.839L957.897 320.111L958.17 320.384L958.714 320.656L959.531 321.201L960.076 321.473L961.302 322.154L961.71 322.426L962.255 322.699H962.391L962.527 322.971H962.664L962.8 323.107V323.38L962.664 323.516L961.847 323.924H961.71L961.166 324.197L960.893 324.469L960.621 325.286V325.695L960.485 326.103V326.92L960.621 327.193V327.465L960.893 327.737L961.029 328.01L960.893 328.282V328.691L961.029 328.963V329.099L961.302 329.235L961.438 329.371H961.71L961.574 329.508V329.916H961.029L960.893 330.052H961.438L961.71 330.189V330.597L961.847 330.869V331.006L962.119 331.278L962.255 331.55V331.686L962.527 331.959H962.8V332.231H962.936L963.481 332.504L963.617 332.64L964.434 332.912V332.776L964.706 333.048L964.842 332.912H964.979L965.115 332.776V332.64H965.251L965.387 332.776V332.912L965.115 333.048L964.979 333.184V333.457L965.115 333.593L965.251 333.865H965.523L965.659 333.729L965.932 333.865H966.34L966.749 334.274H967.021V334.138H967.157V334.274H967.294L967.43 334.41H967.702L967.566 334.274H968.111L968.247 334.546H969.2L969.745 334.41L970.017 334.274L970.289 334.001H970.426L970.562 333.865H970.698L970.834 333.729L970.97 333.457V332.776H970.834L970.698 332.64H970.562L970.289 332.367V332.095L970.426 331.823L970.562 331.686L970.698 331.414H970.562L970.97 331.142H971.107L971.243 331.278H971.379L971.651 331.414V331.55H972.468L972.741 331.278V331.142L972.605 331.006V330.733L972.468 330.597V330.733H972.332H972.196L971.788 330.325V330.052H972.06V330.189H972.196V330.461V330.597H972.332V330.733L972.196 330.461H972.332V330.325L972.468 330.461H972.605V330.597L972.741 330.733V330.869L973.013 331.278L973.285 331.55L973.558 331.686L973.83 331.959L974.375 332.231H974.103L973.83 332.367L973.694 332.231H973.285L973.149 332.367H973.013V332.231H973.149L973.285 332.095H973.422V331.959L973.285 331.823H973.149V331.686L973.013 331.959H972.877L972.741 331.823H972.605L972.468 331.686V331.823L972.332 331.686H971.924L971.651 331.823V331.686H971.515L971.243 331.959V332.095L971.107 332.367V332.504H971.379V332.64L971.515 332.776L971.788 332.912H971.924V333.048L972.06 333.184V333.321L971.788 333.593V334.001L971.651 334.138H971.515L971.379 334.274V334.546L971.243 334.682V334.955H971.107V335.227L971.243 335.499V335.636L971.515 335.772L971.651 335.908L972.06 336.044H972.877L973.149 336.18H973.285L973.422 336.453L973.83 336.861V336.997H974.103L974.239 337.134H974.375L974.511 337.27H974.647L974.92 337.542H975.192L975.464 337.678V337.814H975.6L975.873 337.951H976.009V337.814H976.69L976.826 337.678L977.098 337.542H977.507L977.643 337.406H977.507L977.643 337.27V337.134L977.507 336.997H977.643L977.507 336.861L977.371 336.997H977.235V336.725L977.098 336.589H976.962V336.453L976.826 336.317H976.69V336.453L976.554 336.589V336.453L976.69 336.18L976.826 336.044L977.098 335.908H977.643L977.779 336.044H978.052L978.324 335.772V336.044L978.188 336.18L978.46 336.317L978.596 336.453V336.589H978.733L978.869 336.861L979.141 337.134H979.277L979.55 337.542V337.814L979.686 337.951L979.55 338.223V338.359L979.413 338.495L979.277 338.359L979.141 338.223L979.005 338.495V338.632L978.869 338.768L979.005 338.904V339.04H979.141V339.176H979.005V339.585H979.141V339.721L979.413 339.857L979.55 339.993L979.413 340.129V340.81L979.686 341.083V341.219L979.958 341.491H980.094L980.231 341.355H980.367L980.231 341.491V341.764L980.367 341.627V341.764L980.503 341.627H981.048L981.592 342.172V342.308H981.728V342.172L982.273 341.9L982.409 341.627V341.355L982.546 340.81L982.409 340.947L982.546 341.083H982.682L982.818 340.947V340.81H982.954L983.09 341.083L982.954 341.219V341.355L983.226 341.627H983.363L983.499 341.764V341.9H983.635L983.907 341.764L983.771 341.9H983.635V342.036L984.044 342.172V342.308L983.635 342.717L983.499 342.581V342.445H983.635H983.363L983.226 342.308H983.09V342.172L982.818 342.036L982.682 341.9H982.409V342.036L982.546 342.172L982.682 342.445V342.989L982.818 343.262L982.954 343.398H983.226L983.363 343.534H983.499L983.635 343.398L983.907 343.534V343.942H984.316L984.452 344.079H984.588L984.452 344.351L984.316 344.487H984.18L984.044 344.623L984.316 344.896L984.724 345.032L984.861 345.168H985.133L985.405 345.032L985.678 344.76L985.814 344.487H986.222L986.086 344.351V344.215H986.222L986.359 344.351H986.495V344.487H986.631V344.351H986.767L986.631 344.215V344.079L986.495 343.942L986.359 344.079L986.086 343.806L986.222 343.67L986.086 343.398V343.262L986.222 343.125H986.359L986.222 342.989H986.359V342.853L986.086 342.717V342.581L985.95 342.445V342.308L985.814 342.172H985.405V342.036L985.269 341.9V341.627L985.405 341.491V341.355H985.541V341.491L985.814 341.764L985.678 342.036H985.814V342.172L985.95 342.036L986.222 342.172L986.631 342.581H986.903L987.039 342.853L987.176 342.989L987.448 343.125L987.72 343.398V343.534L987.993 343.806V344.079L988.129 344.215L988.265 344.623L988.401 344.76L988.537 345.032H988.674V345.713V345.577H988.537V345.713H988.401L988.265 345.849L988.537 345.985H988.81L988.674 345.849H988.81V345.985L988.674 346.121H988.401L988.265 346.257V346.394H988.401V346.666H988.537V346.802L988.674 346.666V346.53L988.81 346.666V346.802H988.946V346.938L988.81 346.802V346.938L989.082 347.075L989.218 346.938V346.802L989.354 346.666V346.53H989.082H989.491L989.763 346.802V347.075L989.899 347.211L982.273 354.564L978.596 363.552L978.733 363.961V364.505H978.596L977.507 366.548V366.957L977.235 367.229L976.009 369.816V370.225L975.6 370.633L974.239 371.314L973.966 371.587H973.694L973.013 371.859L972.605 372.267L972.06 372.54L971.924 372.812L971.788 373.221V373.629L971.924 373.902V375.536L971.788 376.217L971.515 376.489L971.243 376.897L970.97 377.17L970.426 377.442H969.2L968.928 377.306L968.247 377.034L967.975 376.897L967.43 376.353L967.294 375.944L967.157 375.808L967.021 375.536L966.749 375.263L966.068 375.4L965.796 375.536L965.659 375.808L965.115 376.08H963.753L963.617 376.489V376.761L963.753 377.034L963.889 377.715L964.025 378.123L963.889 378.532V378.804L963.753 379.213L963.481 379.757L963.072 380.166L962.8 380.302H962.391L961.983 380.166L961.574 379.893L961.302 379.349L961.166 378.94V378.532L961.302 378.123V377.851L961.438 377.442V377.17L961.574 376.761L961.302 376.217L961.029 376.08H960.621L960.349 375.944H959.94L959.531 375.808L959.123 375.944L957.489 376.761L957.353 377.034L956.536 377.442L956.263 377.715L955.855 377.987L954.765 378.532L954.357 378.94L953.812 379.213L953.676 379.485L953.267 380.03L952.723 380.71L952.586 380.983L952.45 381.119L952.042 381.664L951.769 381.8L951.361 382.208L951.088 382.345L950.408 382.617H950.135L949.727 382.753L948.91 382.617H948.637L948.229 382.481L947.956 382.345L947.548 382.072L947.412 381.8L947.139 381.528V381.255L947.003 380.847L946.595 380.438L946.05 380.166H945.641L945.369 380.302L944.688 380.438L944.28 380.71L943.735 380.983L943.463 381.255L943.054 382.072V382.481L942.918 382.889L942.782 383.162L942.645 383.298L942.101 383.57L941.828 383.843V384.66L941.692 385.068V385.341L941.556 385.613L941.148 386.158L940.739 386.566L940.194 386.838L939.513 386.975L939.241 387.111H938.832L938.56 387.247H938.152L937.198 387.383L936.381 387.519H935.973L935.7 387.656H934.883L934.611 387.792H933.93L933.249 387.928L932.841 388.064L932.16 388.2L931.887 388.336H931.479L930.117 389.017L929.845 389.29L929.436 389.562L929.028 389.698L928.755 389.834L928.347 389.698H927.938L927.393 389.971L927.257 390.107L926.849 390.379L926.713 390.651L926.576 390.788V391.332L926.713 391.605V391.877L927.121 392.286L927.666 392.558L927.802 392.83L927.938 392.966V393.511L927.121 393.92H926.713L926.576 394.056V394.464L926.713 394.737V394.873L926.44 395.009V395.145L926.576 395.282H926.44V395.826L926.304 396.099L926.44 396.371L926.576 396.779L926.985 396.916L927.121 397.188L926.849 397.733L926.168 397.869L925.896 398.005L925.759 398.55H925.623L925.351 399.367L924.942 399.639V400.184L925.079 400.592L924.806 400.729L924.261 401.273L924.398 401.954L924.534 402.09L924.398 402.227L923.989 402.907L923.308 403.452L923.036 403.588H922.627L922.491 403.452H922.355L922.219 403.588V403.997H921.946L921.81 404.269L921.674 404.405H921.538V404.814L921.674 404.95V405.086H921.538L921.402 405.222L921.129 405.086V406.176H920.857L920.585 406.312H920.448L920.312 406.176H919.904L919.768 406.312H919.631L919.359 406.04L918.951 405.903H918.542L917.589 406.312L917.316 406.176H916.908L916.499 406.04H916.227L915.818 405.903L915.41 406.04L914.865 406.176L914.184 406.857L913.912 406.993L913.231 407.538L913.095 407.81L912.823 407.946L912.142 408.218H911.461L910.644 408.082L910.099 407.81H909.69L909.282 407.674L908.601 407.81L906.695 408.763H906.014L905.333 408.491L905.197 408.218L904.107 407.129L903.835 406.72L903.29 406.448H900.839L900.294 406.176L900.158 405.903L899.886 405.767L899.613 405.222L898.932 404.95L897.162 405.222L896.89 405.767V406.176L897.026 406.448V406.72L897.298 406.993L897.434 407.265L897.843 407.674L897.979 407.946L898.388 408.491V408.763L898.524 409.035V409.444L898.388 409.853V410.125L898.251 410.533L897.843 411.35L897.571 411.487L897.298 412.031L896.89 412.44L896.753 412.848V413.529L897.162 413.938L897.434 414.074L897.843 414.483L898.251 415.027V416.253L898.115 416.525V416.934L897.979 417.206V417.615L898.115 418.023L898.251 418.159L898.524 418.296L898.796 418.568V418.84L898.388 419.385L898.251 419.521L897.979 420.066L897.843 420.474V421.564L897.979 421.836L898.115 422.245L897.979 422.653V422.926L897.843 423.334V423.606L897.707 423.879L897.571 424.287L897.162 425.104L897.026 425.513V425.785L896.753 426.466L896.617 426.739V427.011L896.345 427.692L895.664 428.237L894.847 428.645L894.302 429.054L894.166 429.19L893.621 429.598L893.485 429.734L893.349 430.007L893.077 430.279L892.804 430.824L892.532 431.096L892.26 431.641V432.73L892.532 433.275L892.668 433.411L892.804 433.82V434.501L892.668 434.773L892.26 435.726L891.987 436.271L891.851 436.952L891.715 437.36L891.579 437.905L891.443 438.722V439.812L891.579 440.22L892.123 441.31L892.532 441.718L892.668 441.991L893.077 442.399L893.213 442.671L893.894 443.352L894.166 443.488L894.302 443.761L894.575 443.897L894.983 444.714V445.123L894.847 445.94V446.348L894.711 446.621V447.029L894.439 447.574V449.208L894.575 449.48L894.847 450.161L894.983 450.297L895.119 450.706L895.256 450.978L895.392 451.523L895.664 452.068L895.8 452.476V452.749L895.936 453.157V454.246L895.8 454.519L895.392 455.064L895.256 455.336L893.894 456.017L893.485 456.425L892.94 456.834L892.804 456.97L892.532 457.515L891.715 459.694L891.443 460.647L891.034 461.736L890.217 463.779L889.945 464.868L889.536 465.822L889.128 466.911L888.855 467.864L888.447 468.954L888.038 469.907L887.766 470.996L887.357 472.086L886.949 473.039L886.54 474.128L885.859 476.171L885.451 477.124L885.042 478.214L884.77 479.167L883.68 482.299L883 482.844L879.731 485.704L879.595 486.248L879.323 487.202L879.05 488.291L878.506 490.334L878.233 491.423L877.961 492.376L876.872 496.462L876.735 497.551L876.463 498.504L875.918 500.683L875.646 501.636L876.872 504.088H876.735L875.782 504.496L874.693 504.768L874.42 505.722L874.012 506.811L873.74 507.901L873.331 508.854L873.059 509.943L872.65 510.896L872.378 511.986L872.105 512.939L871.697 514.029L871.424 514.982L871.016 516.071L870.199 517.433L868.429 517.705L868.156 517.978H868.02L867.748 518.25L864.343 521.11L864.479 521.927L865.977 532.276L866.113 533.366V534.455L866.522 538.541L866.658 539.63L866.794 540.583L867.203 544.805L867.339 545.894V546.847L867.748 551.069L867.884 552.022L868.02 553.112L868.429 557.197L868.565 558.286L868.701 560.329L868.973 563.461L869.109 564.551L869.382 567.683L869.518 568.636L869.654 569.725L869.79 570.679L870.063 571.768L870.199 572.857L870.471 573.811L870.607 574.9L871.016 575.581L871.833 576.126H871.697L869.927 578.849L869.518 579.939L869.246 580.892L868.973 581.981L868.701 582.935L868.292 584.024L868.02 584.977L867.611 586.067L867.339 587.02L867.067 588.109L866.658 589.063L866.386 590.152L866.113 591.105L865.705 592.195L865.433 593.284L865.16 594.237L866.113 597.097L866.386 598.186L866.794 599.276L867.475 601.319V601.455L866.522 603.497L866.113 604.451L865.569 605.676L865.296 606.493L864.888 607.583L863.935 609.625L863.662 610.579L863.526 610.715L863.39 611.123L862.981 611.94V612.213L862.845 612.621V613.847L862.981 614.119V614.392L863.118 615.209L862.981 615.481V615.89L862.845 616.162L862.437 617.388L862.3 617.66L862.028 617.932L860.939 619.566L860.122 620.52L859.441 621.609L858.624 622.562L857.943 623.652L857.262 624.605L856.445 625.558L855.764 626.648L854.947 627.601L854.266 628.69L853.585 629.644L853.177 630.869L852.904 631.822L852.36 633.865L852.087 634.955L851.542 636.997L851.27 637.95L850.998 639.04L850.862 639.993L850.589 641.083L850.044 643.125L849.636 644.215L849.364 645.168L849.091 646.257L848.547 648.3L848.274 649.253L848.138 650.343V650.206L848.274 650.615V650.887L848.547 651.16L848.683 651.704L848.955 652.249V652.658L848.683 652.794L848.41 653.202L848.002 653.611V654.019L847.866 654.292L847.457 654.564L847.321 654.7L847.049 655.381L846.776 655.926V656.334L846.912 656.607L847.049 657.288L847.457 657.696L847.729 658.241L848.138 658.649L848.274 658.922L848.547 659.058L848.683 659.194L848.41 661.101L848.274 662.19L848.138 663.143L847.866 665.186L847.729 666.275L847.593 667.229L847.457 668.318L847.321 669.271L847.185 669.544L846.64 669.68L845.823 670.088H845.278L844.734 669.816L844.189 668.727L843.78 668.318L843.372 668.182L843.099 668.318H842.691L841.601 668.863H840.512L840.104 668.727L839.831 668.59L839.423 668.318H839.014L837.925 668.59L836.971 668.863L835.882 668.999L834.929 669.135L833.839 669.407L832.886 669.544L831.797 669.816L830.707 669.952L829.754 670.225L828.665 670.361L827.711 670.633L826.622 670.769L825.532 671.042L824.579 671.178L823.49 671.314L822.537 671.586L821.447 671.723L821.583 672.403L821.447 672.812V673.221L821.583 673.629V674.038L821.447 674.446L820.902 675.535L820.494 675.808L820.222 676.08H818.587L818.315 676.353L817.089 678.395L816.409 679.485L814.638 682.481L814.094 683.434L813.413 684.523L812.868 685.477L809.872 690.515L809.191 691.604L808.51 692.558L807.966 693.647L807.421 694.6L806.74 695.554L806.195 696.643V698.686L806.059 699.094L805.923 699.639L805.242 700.32L805.106 700.592L804.833 700.728L804.697 700.865L804.016 701.137L803.744 701.273L803.199 701.409L803.063 701.682L802.791 701.954L802.382 703.043L802.246 703.452L801.429 705.086L801.293 705.495L801.02 706.039V706.312L800.884 706.584L800.748 706.993V707.401L800.884 708.491V709.308L800.476 710.125L799.386 711.078L798.978 711.486L798.433 711.759L798.161 712.031L797.616 712.304L797.208 712.576L796.663 712.848L796.391 713.121V714.482L796.254 715.299V715.436L795.846 715.844L795.71 716.117L795.573 716.253L795.437 716.525L794.348 717.478L794.075 717.751L793.531 718.023H793.258L792.714 718.295L792.305 718.432H792.033L791.76 718.568H791.352L790.807 718.84H790.399L787.675 720.202L786.858 721.019L786.586 721.564L786.313 721.972L786.177 722.245L785.769 722.653L784.543 725.104L784.407 725.513L784.271 725.785V726.057L784.134 726.466V726.875L783.998 727.147V728.645L784.134 728.917L784.271 729.326L784.407 729.598L784.543 730.143L784.679 730.551L784.407 731.096V731.505L784.271 731.913V732.185L784.407 732.594L786.177 736.135V736.952L786.041 738.041L785.905 738.313V738.586L785.769 738.994L785.632 739.267V739.539L785.496 739.948L785.224 740.492L784.951 740.765L784.679 741.309V741.582L784.407 742.126L784.271 742.535L783.862 743.352V743.624L783.045 745.259L782.364 747.029L781.411 748.935V749.344L780.321 751.523L780.049 751.795L779.096 753.702H778.96V754.246L778.687 754.11L778.551 754.246H778.415V754.382H778.687L778.551 754.519H778.415L778.279 754.655H778.143L777.598 755.2H777.462V755.472L777.326 755.608V755.744L777.462 756.017V756.153H777.189V756.425H776.781V756.561H776.508V756.698L776.372 756.834V757.106L776.917 756.97H777.189L777.598 757.106L778.279 757.242L778.687 757.378H778.823L779.504 758.059L781.002 759.421L780.866 760.783L780.594 761.6L780.321 762.689L780.049 763.643L779.641 764.732L779.368 765.685L778.96 766.638L778.687 767.728L778.279 768.681L778.006 769.771L777.598 770.724L777.326 771.813L777.053 772.766L776.645 773.856L777.326 774.401L779.368 776.307L779.232 777.26L779.096 779.303L777.053 780.937L775.964 781.618L775.011 782.435L773.921 783.252L772.968 783.933V784.478L773.104 785.159L773.24 785.567L773.104 785.84V786.112L772.968 786.384L772.695 787.065L772.423 787.201L772.015 787.474H771.606L771.334 787.338L770.925 787.201L770.653 787.065H769.972L769.155 787.474L768.746 787.882V788.291L768.474 788.835V789.244L768.338 789.653L768.202 789.925L767.929 790.061H767.657L767.385 789.925L767.248 789.516V789.108L767.385 788.835V788.427L767.521 787.338V786.657L767.385 786.384L766.704 785.703L765.614 785.159L764.933 785.022L764.116 783.388L763.844 783.252L763.708 782.98L763.163 782.707L762.755 782.299L762.482 782.163L762.346 781.89L761.529 781.073L760.712 780.665L760.576 780.392L760.167 780.256L759.759 779.984L759.486 779.848L758.805 779.303L758.533 779.031L757.852 778.622L757.58 778.35L756.899 777.941L754.039 779.848L753.086 780.529L750.907 781.89L749.954 782.707L748.864 783.388L747.911 784.069L747.503 784.614L746.958 785.703L746.413 786.657L745.868 787.746L745.324 788.699L744.643 789.653L743.009 792.785L742.872 792.921L742.736 793.193L742.328 793.602L742.192 793.874L741.375 794.691L741.238 794.963L741.102 795.1L740.694 795.644L740.285 796.053L740.149 796.325L739.74 796.734L739.468 796.87V797.278L739.332 797.415V797.551H739.196L739.332 797.687L739.06 797.959V798.232H738.923V798.368L738.787 798.504V798.776H738.651L738.515 798.64L739.332 799.594L739.468 800.683L739.74 801.636L739.877 802.726L740.149 803.815L740.285 804.768L740.558 805.858L740.694 806.811L740.966 807.9L741.102 808.854L741.375 809.943L741.511 810.896L741.783 811.986L741.919 812.939L742.192 814.028L742.464 816.071H742.6L742.464 816.48V816.888L742.055 817.705L741.783 817.841L741.647 818.114L741.783 818.522L741.919 819.067V819.475L741.783 819.884L741.647 820.156L741.102 820.701L740.966 820.973V823.697L740.83 823.833L739.877 824.923L737.698 826.829L736.745 827.918L735.655 828.872L735.519 829.144L735.247 831.187L734.974 832.276L734.838 833.229L734.566 834.319L734.293 836.362L733.885 836.906L733.476 837.859L732.523 839.902L732.115 840.992L731.297 842.898L730.753 843.987L730.344 844.941V845.077L729.799 846.983L729.527 848.073L729.255 849.026L728.982 850.115L728.71 851.069L728.438 852.158L727.893 854.065L727.621 855.154L727.484 856.107L727.212 857.197L728.438 860.329H714.956V860.057L715.092 859.376L714.956 858.967L715.092 858.558V857.741L715.228 857.197V856.652L715.365 855.835V855.018L715.501 854.609L715.637 854.065V852.975L715.773 852.703V852.294L715.909 851.886V850.115L716.046 849.571V849.162L716.318 848.618V848.481L716.454 848.209V846.983L716.59 846.711V846.439L716.726 846.166L716.863 845.758L716.999 845.622V845.077L717.271 844.532H717.407L717.543 844.396L718.224 844.26H718.361L718.769 843.851L719.041 843.443L719.178 843.17L719.45 842.762V842.626L719.859 842.353L719.995 842.081L720.131 841.945V840.583L720.267 840.311V839.902L720.539 839.221V838.132L720.676 837.723L721.084 836.906L721.356 835.953L721.629 835.544V834.864L721.493 834.319V833.366L721.356 832.957V832.685L721.493 832.412L721.629 831.731L721.765 831.459V831.323L722.037 831.051L722.174 830.778V830.37L722.037 829.961L721.901 829.417V829.28L721.765 829.008V827.782L721.901 827.374V826.965L721.765 826.693L721.084 826.012L720.812 825.603L720.539 825.331V825.195L720.403 824.923V824.106L720.267 823.833V823.152L720.403 822.608V822.063L719.859 821.654L719.041 821.382H718.633V821.246H718.224L716.59 820.429L710.735 810.76L702.836 804.496L697.253 796.734L693.985 792.512L678.052 784.478L679.55 781.482L675.601 757.378L671.788 745.122L673.694 731.096L674.239 726.466L678.46 702.635L678.597 702.499V702.226L678.733 702.09L678.597 701.818V701.409H678.46V701.273H678.597L678.733 701.137V701.001H679.005L678.869 700.865V700.728H679.005L678.869 700.592H679.005L678.869 700.456H679.141V700.184H679.277L679.414 700.047H679.55L679.686 699.911L679.822 700.047V699.911L679.958 699.775H680.095V699.639L680.367 699.775L680.503 699.503L680.639 699.367V699.23H680.775V698.822L680.912 698.686V698.55L678.324 698.413H677.916L670.29 698.141L649.999 697.46H648.093V697.732L648.501 698.55L648.638 698.958L648.774 699.23V700.728L648.638 701.001V701.137L648.501 701.409V702.499L648.365 702.635V703.043L648.501 703.316V703.588L648.91 704.405V705.086L649.046 705.767L649.182 706.312L649.455 706.856V707.537L649.318 707.946V708.082L649.182 708.491V708.899L649.318 709.035L649.455 709.444L649.591 709.716V710.669L649.727 710.806L649.591 711.078L649.455 711.623V711.895L649.591 712.304V712.576L649.455 712.712V712.984L649.318 713.529L649.046 714.074L648.91 714.21V714.482H610.916L615.002 717.887L628.075 729.19V760.51L632.705 768.681L629.436 771.269L614.048 786.793L604.652 792.104L595.937 808.173L592.396 813.484L589.672 815.662L584.634 821.79L579.323 828.191L576.872 831.187L573.331 835.408L568.156 841.536L566.658 843.034L565.841 843.579L565.297 843.987L564.888 844.26L563.799 844.805L563.254 844.941L557.398 845.485H537.38V845.622L537.244 845.894L537.38 846.166H537.516V846.847H537.653V846.983H537.516V847.12L537.38 847.392H537.244V847.664L537.108 847.8L531.388 843.034L519.405 832.957L506.332 824.786L488.356 813.62H484.952L483.862 814.165L467.385 822.744L461.393 825.74V845.485H436.881L436.745 845.622H436.609V846.302H436.472L436.336 846.166L436.2 845.894L436.064 845.758L435.928 846.03V846.166H435.792L435.383 845.758V846.166L435.247 846.03L435.111 846.166V846.302H434.702L434.294 845.894V845.758L434.157 845.622L434.021 845.758V845.894L434.157 846.03L434.021 846.166V846.302H434.157L434.294 846.439L434.157 846.575H433.749L433.613 846.439L433.34 846.302H433.204L433.068 846.439H432.932L432.796 846.302H432.659V846.439L432.523 846.575L432.387 846.847V846.983L432.115 847.392H431.706L431.57 847.528H431.434L431.298 847.664L431.161 848.073L430.617 848.89L430.481 849.435L429.936 849.979L428.71 851.613L418.088 860.057L417.544 860.601L417.271 861.418L417.135 861.963V862.78L414.548 866.048L415.092 869.317H373.831L366.068 853.656L361.166 854.065L356.945 853.929L342.374 852.975L327.803 852.703L321.402 852.839L314.457 854.201L303.971 858.558L298.524 860.465L295.801 861.01L286.677 858.967L277.689 856.516L277.144 856.243L276.463 855.971L275.646 855.426L274.829 854.746L274.148 853.929L273.604 853.248L273.059 852.43L272.65 851.75L272.378 850.933L267.203 835.544L261.484 830.642L259.305 827.238L257.807 824.242L257.399 823.697L256.854 823.289L255.628 822.063L255.22 821.79L254.675 821.382L253.994 820.973L253.177 820.701L252.496 820.429L251.543 820.293L250.726 820.02V808.037L250.59 807.764L250.453 807.9H250.317V808.309L250.181 808.581H250.045V808.445H249.909L249.636 808.309V808.173L249.5 808.037H249.228V808.173H249.5L249.364 808.309H249.228V808.173H248.956L248.819 808.309V808.173H248.683L248.819 807.9L248.956 807.764V807.628L249.092 807.492V806.811H248.819V806.539L248.683 806.402V806.266H248.411V806.539H248.547V806.675L248.275 806.539H248.138V806.811H247.866L248.002 806.539H247.866L247.594 806.811L247.321 806.675L247.185 806.811V806.675H247.049L246.913 806.811H246.641V806.947L246.777 807.083H246.913L246.641 807.356H246.504L246.641 807.219V807.083H246.504V806.947L246.368 806.811L246.232 806.947H246.096L246.232 806.811V806.675L246.368 806.402V806.266H246.096V806.539L245.96 806.675H245.551V806.266H245.687V806.13H245.551V805.858L245.415 805.585L245.279 805.449L245.143 805.585H245.006V805.858H244.598L244.462 805.721H244.325V805.585H244.189L244.325 805.721V805.858L244.189 805.994V806.13H244.053V805.994L243.645 805.585L243.781 805.449V805.313H243.645V805.177H243.236V805.041L243.1 805.177H243.236V805.313L243.372 805.449L243.236 805.585V805.858V805.721H243.1L242.828 805.994V805.721H242.147V805.449L242.01 805.313V805.041H241.874V805.585H241.738V805.449H241.602V805.721H241.057V805.585L241.193 805.449V805.313H240.649V805.177L240.785 805.041V804.632H240.513L240.376 804.768L240.513 804.904V805.313H240.376L240.24 805.449V805.585H240.104V805.313H239.968V805.585H239.559L239.423 805.858V805.994H239.015V806.266H238.878V806.13L238.742 805.994H238.606L238.47 805.858V805.721H238.334L238.197 805.858H238.061L237.925 805.721H237.789V805.858L237.653 805.994H237.38L237.244 806.13V806.266H237.108L236.836 806.13H236.7V806.675L236.563 806.811L236.291 806.539H235.882L235.746 806.402V806.266H235.61L235.338 806.13V806.266L235.202 806.13H235.338V805.994L235.202 805.858V805.585L235.338 805.449V805.313L235.065 805.041H234.929V805.177L235.065 805.313L234.929 805.449L234.793 805.313H234.657L234.521 805.449H234.385V805.721L234.521 805.858H234.248L234.112 805.994L234.248 806.13V806.402H234.385V806.539L234.248 806.675H234.112V806.811L233.976 806.947H233.704L233.567 807.083L233.431 806.947L233.567 806.811L233.431 806.675V806.539H233.295L233.159 806.675H233.023L232.887 806.539L232.75 806.675H232.342L232.206 806.811H232.069L231.797 806.539H231.525L231.389 806.675H230.98L230.844 806.947H230.572L230.435 807.083H230.299V806.947L230.435 806.811V806.539H230.299L230.027 806.811L229.754 806.947L229.891 807.083H230.027V807.356L229.891 807.492V807.628L229.482 807.219V807.083L229.346 806.675V807.083H229.21L229.074 807.219V807.083L228.801 806.811V806.539L228.665 806.402L228.529 806.539H228.393V806.675L228.257 806.811L228.12 807.083L227.984 807.219H227.848V807.628L227.712 807.764H227.576L227.712 807.492V807.356L227.576 807.219L227.439 807.356L227.303 807.219H227.167V807.083H226.895L226.759 807.219L226.895 807.492L226.759 807.764H226.622L226.486 807.628V807.492H226.214L226.078 807.356V807.219H225.805V807.764L225.533 808.037H225.397L225.533 808.173V808.309L225.397 808.445H225.261V808.173H224.716L224.58 808.037L224.444 807.764L224.171 807.628V807.492H223.763V807.628L223.899 807.9V808.581H223.763L223.626 808.309H223.354L223.218 808.445H222.946L222.673 808.173H222.401L222.265 808.037V807.9L222.401 807.628V807.356L222.128 807.083L221.992 807.219L222.128 807.492V807.764L221.856 808.037L221.448 807.9V807.628L221.311 807.764H221.175L221.039 807.9L220.767 807.764V807.628L220.631 807.492V807.356L220.494 807.492H220.358V807.628L220.494 808.037L220.358 808.173H220.222L220.086 808.037H219.677L219.541 808.173V808.445L219.405 808.581L219.269 808.445V808.309L219.405 808.173V807.9L218.996 807.492H218.86V807.764L218.724 808.037V808.173L218.452 808.309L218.316 808.445V808.581H217.907L217.635 808.717H217.498V808.581H217.907L218.043 808.445V808.309L217.771 808.037H217.362V808.173L217.226 808.309H216.954L216.818 808.173L216.681 808.309L216.818 808.445V808.717H216.681L216.409 808.445L216.273 808.173H216.001L215.864 808.445V808.581H215.592V808.854L215.456 808.99H214.911V809.534H215.047L215.183 809.671H214.503L214.366 809.534H214.094V809.398L213.958 809.262H213.822L213.958 809.398L213.685 809.671H213.549L213.413 809.534H213.277L213.141 809.671H213.005L212.868 809.534V809.398H212.596L212.324 809.262V809.398L212.46 809.671V810.079L212.324 810.352V810.76L212.188 810.896L212.051 810.76L212.188 810.624V810.488H212.051L211.643 810.352H211.37L211.234 810.215H211.098L210.962 810.352V810.624L210.826 810.76H210.69L210.553 810.624L210.69 810.488H210.826V810.215L210.553 810.079V810.215L210.281 810.488L210.145 810.352H210.009V810.079H210.281L210.417 809.807V809.671L210.281 809.534H210.145L209.736 809.943H209.6L209.464 809.807L209.6 809.671L209.328 809.398H209.192L208.919 809.262H208.783L208.511 809.398V809.534L208.375 809.671V809.807H208.511L208.647 809.943V810.215L208.238 809.807V809.943H208.102V810.352L207.966 810.624H207.694V809.943H207.557L207.285 810.079V810.215L207.557 810.488V810.76L207.421 810.896H207.285L207.149 810.76H207.013L206.877 810.624H206.74L206.604 810.76V810.896L206.877 811.169V811.577H207.013L206.877 811.713H206.604L206.332 811.577V811.305L206.06 811.032H205.923V811.577H205.787L205.651 811.713H205.515V811.577L205.379 811.441V811.305H204.834V810.76H204.562L204.425 811.169L204.289 811.305H203.608L203.336 811.577V812.122L203.608 812.394L203.336 812.667L203.2 812.53H203.064V812.258L202.655 811.849H201.974L201.838 812.122L201.702 812.258H201.429L201.293 812.53L201.157 812.667V813.892L201.021 814.165L200.885 814.301H200.612L200.476 814.165H200.34V814.573L200.204 814.709L200.068 814.573H199.932L199.795 814.709V814.845H199.932L200.204 814.982V815.118H199.932L199.523 815.526L199.659 815.662V815.799L199.932 816.071L199.659 816.343V816.48H199.932L200.068 816.616L199.932 816.752H199.659L199.523 816.888V817.297H199.114V817.569L199.387 817.705L199.523 817.841V817.978L199.659 818.114V818.25H199.251V818.658H199.387L199.251 818.795V818.931H199.114L198.978 819.067L198.842 819.339L198.706 819.475L198.842 819.612L199.114 819.748H199.387V819.884H199.523V820.02H198.978V820.156L198.706 820.429H198.434L198.161 820.701H198.025V821.246L198.161 821.11L198.434 821.246L198.706 821.518V821.654H198.434H198.57L198.842 821.79H198.978L199.251 821.518H199.387L199.659 821.79V821.927H199.523L199.387 822.063L199.523 822.199H199.795V822.335L200.068 822.471L200.204 822.608V822.744L200.612 823.152V823.289L200.34 823.833L200.476 823.969L200.612 823.833H200.749L200.885 823.969V824.106L200.749 824.242V824.378L200.476 824.65V824.923L200.749 825.059V825.195L200.885 825.331V825.467L200.749 825.603V825.74L200.476 825.467H200.34V825.603L200.476 825.74V825.876H200.34L200.204 825.74H199.932V826.284H199.659V826.148L199.523 825.876L199.387 825.74H198.978V825.876L199.251 826.148V826.557H199.387L199.523 826.693V826.965L199.387 827.238H199.251V827.101L199.114 826.965H198.842L198.706 827.101L198.434 826.965L198.161 827.238V827.374L198.025 827.51V827.646H198.161L198.434 827.782V827.918L198.297 828.055V828.327L198.161 828.463H198.025V828.599H198.297L198.434 828.463H198.706V828.599L198.57 828.736L198.297 828.872V829.008H198.57L198.978 828.599V828.872H198.842L198.706 829.008V829.144H198.842L199.114 829.417L198.978 829.689H198.706V829.553L198.434 829.417H198.297L198.57 829.689L198.434 829.825V829.961L198.297 830.097H198.025L197.889 830.234H197.753L197.48 829.961L197.344 830.097V830.234L197.48 830.37V830.506H197.344L197.208 830.37H197.072L196.936 830.642V831.051L196.799 831.323L196.936 831.595L197.072 831.731L197.208 832.004L197.344 831.868H197.48V832.004H197.344L197.208 832.14L197.344 832.412L197.208 832.549H196.527V832.276L196.391 832.14L196.255 832.276V832.412L196.119 832.549L196.255 832.685V832.821H195.982V832.549H195.846V832.957H195.438V833.093L195.301 833.229V833.366H195.438V833.638L195.301 833.502H195.165V833.774H195.301L195.438 833.638H195.574V833.91L195.301 834.047H195.438V834.319H195.574L195.438 834.455H195.301L195.438 834.591V834.727H194.757V834.864H194.893L195.029 835V835.272L194.893 835.408H194.757V835.817L194.621 835.953H194.484L194.621 836.089L194.484 836.225V836.362L194.621 836.498H194.757L195.029 836.362V836.225L195.165 836.362H195.301V836.634L195.029 836.906H194.757L194.621 836.77V836.634H194.212L194.076 836.498H193.667V836.634L193.803 836.77H193.667L193.531 836.634L193.395 836.77H193.259V837.042H193.667L193.803 837.179V837.315H193.667L193.531 837.451H193.395V837.315L193.259 837.179H192.986V837.315L193.123 837.587V837.859H192.986L192.85 837.723L192.714 837.859V837.996H192.986V838.132L192.85 838.268H192.442L192.306 838.132H192.033L191.897 838.268V838.404L191.761 838.54H191.897V838.677H191.625V838.813L191.488 838.949H191.08V838.813L190.808 839.085H190.944V839.221H191.216V839.357L191.08 839.494L190.808 839.357L190.671 839.085V838.949H190.535V839.085L190.671 839.221L190.535 839.357H190.399L189.991 839.766L190.263 840.038H189.991L189.854 839.902H189.718V840.038H189.446V839.902H189.173V840.174H188.901V840.447H188.765V840.583H189.037V840.855L188.901 840.992L188.765 840.855V840.719H188.493L188.356 840.855H188.22V840.992H188.356V841.264H188.22L188.084 841.128H187.948V841.4H187.676V841.536H186.995V841.809L186.722 841.945V842.081H186.858V842.217L186.722 842.353H186.586V842.626L186.45 842.762V843.034H186.314V843.443H185.905L185.769 843.715L185.633 843.851H185.497L185.224 843.715V843.579H184.952V843.715L184.816 843.851V843.987L184.952 844.26V844.396L184.816 844.532H184.543V844.805H184.407L184.271 844.668H184.135V845.077L183.863 845.349V845.485H183.726L183.454 845.349V845.213H183.045L182.909 845.485V845.758L182.637 846.03H182.501V845.894L182.365 845.758H181.956L181.82 845.622L181.684 845.758L181.82 845.894V846.03L181.956 846.302V846.439L181.684 846.575H181.548V846.983H181.275V846.711H181.003V847.12L180.867 847.256V847.392L181.139 847.664V847.937L181.003 848.209H181.139L181.275 848.073H181.411V848.345H181.684L181.548 848.481L181.411 848.754L181.548 848.89H181.684V849.162H181.82V849.298H181.684V849.571L181.548 849.707L181.684 849.843H181.548V850.252L181.411 850.388H181.275L181.139 850.252V850.388H181.003L181.139 850.66H181.275V851.069H181.139V851.205L181.275 851.069L181.411 851.205V851.069H181.548L181.684 851.205H181.82V851.341L181.956 851.613L181.82 851.75V851.886L182.092 851.75V851.886H181.956L182.092 852.022V852.158H181.684V852.294H181.82L181.956 852.43L181.82 852.567H181.684L181.82 852.839V852.975L181.956 853.111L181.82 853.248L181.956 853.384V854.337H181.82V854.746H181.684V855.018H181.548V854.882L181.411 855.018H181.275L181.139 854.882H181.003L181.139 855.018V855.29L181.275 855.426H181.003L180.867 855.699L180.73 855.835H180.458V856.107L180.322 856.243V856.38H180.186V856.243H180.05V856.38H180.186V856.788H179.641V856.924H179.913V857.061L179.777 857.333L179.913 857.469V857.605H179.777L179.641 857.469L179.505 857.333V857.469H179.641V857.741H179.505L179.369 857.878L179.505 858.014L179.369 858.286V858.422L179.232 858.558H179.096V858.695H179.232V858.831H178.688V859.103L178.824 859.239L178.688 859.512H178.552V859.648H178.688V859.92H178.552V859.784L178.415 859.648L178.279 859.784H178.143V859.92H178.552V860.193H178.415V860.329H178.552V860.465L178.415 860.601H178.552V860.874H178.007L178.143 861.01H178.279V861.146H178.143V861.01L178.007 861.146V861.282H177.871V861.554H177.598L177.735 861.827H177.326V861.963H177.598L177.735 862.099H177.598L177.462 862.235V862.371L177.326 862.508H177.19V862.371H177.054V862.644H176.917V862.78L176.781 862.644V862.508L176.645 862.644V862.916H176.509V863.189H176.781V863.052L176.917 863.189V863.325H176.781L176.645 863.461V863.597H176.509V863.733H176.645L176.509 863.869L176.645 864.006V863.869L176.781 864.006V864.142H176.509L176.645 864.278V864.55H176.509L176.373 864.687H176.645V865.231L176.509 865.367V865.504H176.373L176.509 865.64L176.373 865.776V865.912H176.237V866.048L176.1 866.185V866.048H175.964V865.912H175.828V866.185H175.692V866.048H175.42V866.185H175.283V866.321H175.42L175.283 866.457H175.147L175.011 866.321V866.457H175.147L175.283 866.593V866.729H175.147V866.593H175.011H174.739L174.602 866.729L174.739 866.865V867.138L174.466 866.865L174.194 867.138H174.33V867.274H174.058V867.41H173.922V867.546L173.785 867.682V868.091H173.649V868.363L173.922 868.499L173.785 868.636H173.513V868.772L173.377 868.908V869.044H173.649L173.513 869.18V869.997H173.377V870.134L173.513 870.406H173.377L173.513 870.542V870.815H173.377V870.951H173.513V871.087H173.377L173.241 871.223H172.968L173.104 871.359H172.968V871.495L172.832 871.632V871.495L172.696 871.632L172.56 871.495L172.424 871.632V871.768H172.287L172.56 872.04L172.696 871.904V872.04L172.56 872.176V872.04L172.424 872.176V872.585H172.287V872.449L172.151 872.585L172.015 872.449V872.585L171.879 872.721V872.585H171.743V872.721H171.879L171.743 872.857V872.993L171.607 872.857V872.993H171.47L171.607 873.13V873.266H171.47V873.538H171.198V873.81H170.926V873.947H171.062L170.926 874.083H171.198V874.219H171.334L171.198 874.355H171.062L171.198 874.491L171.062 874.627L170.926 874.491V874.627L170.653 874.9H170.789L170.653 875.036H170.517V875.172H170.789L170.926 875.036H171.062V875.172H170.926V875.308H170.789V875.445H170.517V875.717V875.989H170.245V876.67L170.381 876.534V876.943H170.517L170.381 877.079L170.517 877.215H170.381L170.517 877.351H170.653V877.487L170.789 877.623H170.653L170.789 877.76L170.653 877.896H170.789V878.032L170.926 878.168H171.062V878.44H171.198L171.062 878.577H171.198L171.062 878.713H171.198L170.926 878.985L171.062 879.121V879.258L171.198 879.394L171.062 879.53L171.198 879.802H170.926V879.938H171.062L171.198 880.075H171.062L171.198 880.211V880.347L171.062 880.483H171.198L171.062 880.619V881.164L170.926 881.3H170.789V881.573L170.653 881.709L170.381 881.981L170.517 882.117H170.245V882.39H170.109L170.245 882.662H170.109L170.245 882.798L170.109 882.934V883.07H169.836V883.479H169.7V883.751L169.564 883.888V884.16L169.428 884.024V884.432H169.7V884.568L169.564 884.705L169.7 884.841V884.977L169.564 885.113H169.428L169.564 885.249H169.428V885.658H169.564V885.794L169.7 885.93L169.564 886.066H169.7V886.475L169.836 886.611V886.747H169.7V887.02H169.428L169.564 887.292V887.428H169.7L169.564 887.564H169.7V887.701H169.836V888.109L169.972 888.381V888.654L169.7 888.926L169.836 889.062V889.198L170.109 889.743H169.972V890.424L169.836 890.697L169.972 890.833L170.109 890.969L170.381 891.105V891.241L170.517 891.514L170.789 891.786V891.65L170.926 891.786L171.062 892.194H171.198V892.467H171.334V892.603L171.47 892.739V892.875H171.334L171.47 893.148V893.284L171.607 893.42L171.47 893.692V894.237L171.607 894.373V894.509H171.47V895.054H171.334V895.19H171.198V895.327L170.926 895.19H170.789L170.517 895.463H170.381V895.735H170.245L170.109 895.871H170.245V896.144H169.972H169.836V896.552H169.7L169.564 896.416L169.292 896.688L169.155 896.961H169.019L168.883 897.097V897.233L168.611 897.369H168.474L168.338 897.505H167.93L167.657 897.642H167.521V897.778L167.249 897.642L167.113 897.778H166.976L166.704 898.05H166.568L165.887 898.322H165.751L165.615 898.459L165.342 898.595L165.206 898.731H164.934V898.867H164.525L164.389 899.003H164.117L163.981 899.139V899.548L164.117 899.684L164.389 900.093L164.661 900.91L164.389 901.591L163.981 901.863L163.572 901.591L163.3 901.182H162.619L161.802 901.863L161.257 902.68V904.45L160.985 905.267L160.304 905.948L158.942 906.357L157.444 906.221H156.491L155.401 906.902L154.312 907.038L153.359 907.583L152.814 908.4L152.678 908.127L152.133 907.855H151.044L149.954 908.4H149.546L149.137 908.263L148.865 908.127H148.592L148.048 907.855L147.639 907.719L146.005 908.536H145.188L144.916 908.4H144.099L143.69 908.263L143.282 908.4L142.056 908.263L140.694 907.991L140.422 907.855L140.013 907.719H139.741L139.06 907.446H138.379L138.107 907.583L137.971 907.719L137.562 907.855H137.154L135.247 906.902H134.566L134.158 906.766L133.885 906.629L133.477 906.493L132.66 906.902H131.979L131.57 907.038H131.298L131.026 907.174H130.617L130.208 907.038H129.8L127.893 906.085L127.485 905.948H127.213L126.804 906.085L126.532 906.221L126.123 906.085L125.715 906.221H125.034L124.217 906.629L124.08 906.766L123.263 907.174H122.855L122.583 907.31H121.902L121.629 907.174L121.221 906.766L120.948 906.629L120.54 906.493H119.995L119.723 906.629L119.042 906.902L118.633 906.766H118.361L118.089 906.493L117.68 906.221L117.408 905.948L116.999 905.676L116.591 905.54L116.454 905.404H115.637L115.365 905.54H114.276L113.186 906.085L112.914 906.357L112.642 906.766L112.233 907.174L111.961 907.31H110.463L109.918 907.038L109.646 906.766L109.373 906.629L109.509 906.221V905.54L109.101 904.723L108.829 904.587L108.42 903.77V903.361L108.556 902.953V902.68L108.692 902.272V901.999L108.965 901.318L109.101 901.046L109.509 900.637L110.19 900.501L110.326 900.229L111.552 899.003L112.233 897.642L112.778 896.825L113.05 896.28V896.007L113.322 895.735V895.463L113.459 895.19V894.101L113.322 893.692V892.603L113.459 890.969V890.288L113.322 890.016L112.778 889.607H112.097L111.961 889.879L111.688 890.152L111.144 891.241L111.007 891.377L110.599 892.194L110.326 892.331L109.918 892.467H109.509L108.829 892.331L107.739 891.786L107.603 891.514L107.331 891.377L106.922 890.969L106.514 890.833L106.241 890.697L105.969 890.152V889.471L105.56 889.062V888.381L106.241 887.02L106.377 886.611V885.386L106.514 885.113V884.705L106.65 884.432L106.786 884.024V883.343L106.922 882.934V882.526L107.058 882.253L107.194 881.845V881.573L107.331 881.3L107.739 880.892L108.011 880.347L108.148 879.938V879.666L108.42 879.394L108.692 879.258L109.373 879.121H109.782L110.054 879.258H111.552L111.961 879.121L112.097 878.985L112.642 878.713L112.778 878.44L113.595 877.623L113.731 877.351L114.82 876.398L115.501 875.036L115.774 874.764L116.182 874.491L116.727 874.083L116.863 873.947L117.135 873.81L117.544 873.402V872.993L117.408 872.585L117.135 872.04L116.863 871.223L116.727 870.951V869.861L116.863 869.453L117.135 868.908V868.636L117.272 868.227L117.816 867.138V866.729L117.952 866.321V865.912L118.089 865.64L118.225 865.231V864.55L118.361 864.142L118.225 863.733L117.952 863.597H117.68L116.863 864.006L116.591 863.869L116.318 863.325L116.454 862.099L116.591 861.01V859.512L116.454 859.103L116.318 858.967L116.046 858.831L115.774 858.286L116.046 857.469L116.182 857.333L116.591 856.516L117.408 855.563L118.361 853.656L118.497 853.248L119.178 851.886V851.613L119.45 851.341L119.995 850.252V850.115L119.859 849.298V848.481L119.587 847.664V846.847L119.45 846.03L119.178 844.26V843.443L118.906 841.809L118.77 840.174L118.497 838.54L117.952 837.723L117.408 836.77L116.999 835.953L115.91 834.319L115.365 833.366L114.957 832.549L114.412 831.731L113.867 830.778L112.233 828.327L111.28 826.557L110.735 825.74L110.19 824.786L109.646 823.969L109.237 823.152L108.692 822.199L107.058 819.748L106.65 818.795L105.56 817.16L105.016 816.207L104.062 814.573L103.518 813.756L102.973 812.803L102.428 811.986L102.02 811.169L101.339 810.215L100.93 809.398L100.386 808.581L99.2961 806.811L98.8876 805.994L97.7981 804.224L97.2534 803.406H97.1172L96.3002 802.998L96.0278 802.726L95.7555 802.589L95.6193 802.453L95.0746 802.181L94.5299 801.772L94.2575 801.636L93.4404 800.002L93.0319 799.594L92.4872 799.321L92.0787 798.913H91.8063L91.2616 798.504L90.8531 798.096L90.5807 797.551L89.3551 796.734L88.9466 796.325L88.2657 794.963L87.9933 794.827L87.5848 794.419L87.3124 794.283L86.9039 793.874L86.3592 793.466L86.0868 793.329L85.406 792.785L84.9974 792.512L84.7251 792.24L84.1804 791.968L83.3633 791.423L83.2271 791.287L82.41 790.878L82.0015 790.47L81.7291 790.333L81.1844 789.925L80.095 789.38L79.9588 789.108V788.835L79.5503 788.018L79.1418 787.474L78.8694 786.929L78.7332 786.793L78.5971 786.52L78.3247 786.248L78.0524 785.703L77.78 785.567L77.5076 785.022L76.9629 784.478L76.8268 784.205L76.5544 783.933L76.4182 783.661L76.282 783.525L75.8735 782.707L75.6012 782.435V782.163L75.3288 782.027L74.3755 780.12L73.967 779.712L73.6947 779.167L73.2861 778.758L72.6052 777.397L72.3329 777.26V776.852L72.1967 776.579V775.899L72.4691 775.762V775.354L72.6052 775.081L72.7414 774.673L72.8776 774.401V774.128L73.1499 772.63L73.2861 772.358V771.949L73.4223 771.541L73.5585 770.86L73.8308 769.907L73.967 769.634L74.1032 769.226L74.2394 768.953V768.545L74.3755 768.273L74.5117 767.592L74.9203 766.775L75.3288 766.366L75.6012 766.23L76.0097 765.685L76.1459 765.413V763.098L76.4182 762.417L76.5544 761.872L76.6906 761.464L77.0991 760.647L77.2353 760.238L77.78 759.149L77.9162 758.74V757.651L77.78 757.378L77.6438 755.063L77.78 754.655L77.6438 754.382L77.5076 753.838L76.8268 753.157L76.6906 752.885L76.4182 752.476L76.282 751.795L76.1459 751.523V751.114L76.0097 750.433L75.8735 750.161V749.072L75.7373 748.663V747.574L75.3288 746.757V746.484L73.8308 746.62L72.1967 746.893H71.3796L70.4264 747.029H69.6093L68.7923 747.165L67.1581 747.301V745.667L67.0219 745.259V744.986L66.6134 744.169L65.9325 743.488H65.6602L65.1155 743.216L64.4346 742.944H64.1622L63.3451 742.671H63.0728L62.8004 742.535L62.1195 742.263L61.8472 742.126H61.5748L61.1663 741.99L59.2598 741.037L58.7151 740.629L58.4427 740.492L58.0342 740.084L57.898 739.811L57.4895 739.403L57.2171 738.858L56.8086 738.45L56.5363 737.905L56.2639 737.769L55.8554 736.952L55.4468 736.543L55.3107 736.271L54.9021 735.862L54.7659 735.59L54.4936 735.318L54.3574 735.045L54.2212 734.909L53.9489 734.364L53.8127 734.228L53.5403 733.547L53.4042 733.275V733.003L53.268 732.322V731.096L53.4042 730.007L53.8127 728.236V727.828L53.9489 727.147L54.085 726.738V726.33L54.2212 725.513V725.104L54.3574 724.423V723.606L54.6298 722.517L54.7659 722.108V721.427L54.9021 721.155L55.0383 720.338L55.583 717.887V717.478L55.7192 717.07L55.8554 715.98L55.9915 715.708L56.1277 714.619L56.2639 714.21L56.5363 712.712V712.44L56.6724 712.031L56.8086 711.759V711.35L56.9448 711.078L57.081 710.669L57.2171 710.397L57.3533 709.716L57.7619 708.899L58.0342 708.218L58.4427 707.401L58.1704 707.265L58.0342 707.129L57.7619 707.265L57.4895 707.81L57.2171 708.082L56.8086 708.218L56.4001 707.946L55.9915 707.81L55.7192 707.537L55.4468 707.673L55.3107 707.946H55.0383L54.4936 708.082L53.9489 708.354L53.5403 708.082H52.7233L52.3147 708.218L51.77 708.491L51.4977 708.763L51.3615 709.035L50.5444 709.58L50.1359 709.716H49.7274L49.3188 709.852H48.9103V708.899L49.0465 708.491L49.1827 708.218V707.81L49.455 707.265L49.5912 706.856V706.584L49.7274 706.175L49.8635 705.495L49.9997 705.086L50.1359 704.405V703.997L50.2721 703.316V702.09L50.4082 701.682L50.2721 701.409V701.001L49.8635 700.184V699.911L49.7274 699.503L49.455 698.958V698.686L49.1827 698.141L49.0465 697.732V697.46L48.6379 696.643L48.5018 696.235V695.962L48.3656 695.417L48.2294 695.009L47.6847 693.919V693.647L47.4123 692.966L47.14 692.149L46.7314 691.332L46.5953 690.651L46.4591 690.379V688.064L45.642 686.43L45.2335 686.021L44.9611 685.885L44.825 685.613L44.5526 685.477L43.8717 684.796L43.5994 684.387L43.327 683.842L43.7355 683.298L44.2802 683.025L44.4164 682.753H44.6888L44.825 682.481L45.5058 680.846L45.9144 680.029L46.1867 679.212L46.5953 678.395L46.8676 677.714L47.2762 676.897L47.5485 676.08L47.957 675.263L48.2294 674.446L47.0038 673.901L44.5526 673.084L43.7355 672.676L41.2843 671.859L40.4673 671.45L40.3311 671.314L37.8799 669.68L37.199 669.135L33.9307 666.956L33.7946 667.365L33.5222 667.637L33.2498 668.046L32.9775 668.318L32.8413 668.59L32.569 668.863L31.8881 669.68L31.4795 670.225L31.3434 670.497L30.9348 670.905L30.6625 671.45L30.3901 671.586L29.9816 671.995L29.1645 672.403L28.2113 672.676L27.6665 672.948H26.9857L26.5771 673.084H26.3048L25.3515 673.357H24.2621L23.8536 673.493H20.4491L20.0406 673.357H19.2235L18.9512 673.221L18.1341 673.084L17.317 672.676H16.9085L16.7723 672.403L16.6361 672.267L16.3638 671.859L15.9553 671.314L15.4105 671.042H15.1382L14.8658 670.905L14.5935 670.361L14.1849 669.952V669.544L13.9126 668.999L13.7764 668.863L13.5041 668.727L12.8232 668.046L12.687 667.773L12.5508 667.229V666.82L12.687 666.548V666.412L12.8232 666.003V665.867L12.687 665.458L12.1423 665.186L11.7337 665.05L11.4614 664.914V664.641L11.3252 664.369L11.0529 664.097L10.5081 663.824L10.0996 663.416L10.2358 663.007L10.372 662.462L10.9167 662.19L11.3252 662.054L11.8699 661.781L12.0061 661.509L12.1423 661.101L12.2785 660.828V660.42L12.5508 659.875L12.687 659.466V659.194L12.9593 658.649L13.0955 658.241L13.5041 657.424L13.6402 657.015V656.743L13.9126 656.198L14.0488 655.79L14.7297 654.428L14.8658 654.019L15.6829 652.385L16.0914 651.841L16.2276 651.568L17.1809 650.615L17.317 650.343L17.4532 649.526V648.845L17.5894 648.572L17.9979 648.164L18.4065 647.619L18.6788 647.483L18.9512 646.938L19.3597 646.53L19.9044 646.257L20.0406 645.985L20.5853 645.713L20.7215 645.44L21.13 645.032L21.6747 643.942L22.0833 643.534L22.628 643.125H23.3089L23.9897 642.989H24.3983L24.6706 642.853H25.0792L25.6239 642.581L26.0324 642.172L26.3048 642.036L26.7133 641.627L27.258 641.355L27.9389 641.219H28.3474L28.6198 641.083H28.8922L29.3007 640.946L29.4369 640.81L30.2539 640.402L30.6625 639.857L31.7519 637.678L32.8413 636.589L32.9775 636.316L33.5222 636.044L33.9307 635.635L34.0669 635.363L34.3393 635.227L34.4754 634.818L35.2925 634.001L35.5649 633.593L37.0628 632.095L37.6075 631.278L38.1522 630.188V628.826L37.7437 628.282L37.4714 627.873L36.7905 627.192L36.3819 626.648L36.2458 626.511L35.9734 625.967L35.701 625.694L35.5649 625.422L35.4287 625.286L35.2925 625.013L35.0202 624.741L34.884 624.469L34.7478 623.924L34.6116 623.652L34.4754 623.243V622.971L34.3393 622.29L34.2031 622.018V621.201L34.3393 620.383V618.477L34.2031 617.66L34.0669 617.388L33.6584 616.707L32.9775 616.026L32.4328 615.753L32.0242 615.345L31.4795 615.073L30.7986 614.528L29.9816 613.711L29.8454 613.302L29.3007 612.213L29.0283 612.077L28.756 611.532V611.26L28.6198 610.443L28.756 610.034L29.0283 609.081L29.1645 608.808V608.264L28.756 607.447L28.3474 607.038L28.0751 606.902L27.9389 606.63L27.6665 606.493L27.5304 606.221L26.9857 605.949L26.5771 605.54L26.3048 605.404L25.8962 604.995L26.441 604.315L26.9857 603.497L28.2113 601.999L28.8922 601.182L29.4369 600.365L30.1178 599.548L31.2072 597.914L31.8881 597.233Z" fill="white"/>
<path fill-rule="evenodd" clip-rule="evenodd" d="M955.855 301.044L955.719 300.908L955.582 300.636V300.5H955.446V300.363L955.582 300.227V299.819L955.855 299.683H955.991L956.4 299.819H956.672L956.944 299.955L957.489 300.5L957.625 300.772V301.18L957.489 301.317H957.353L956.944 301.18H956.4L955.991 301.044H955.855Z" fill="white"/>
<path fill-rule="evenodd" clip-rule="evenodd" d="M965.932 298.055H965.796V297.782H965.659V297.646L965.523 297.51L965.251 297.374H965.115L964.979 297.51H964.842L964.979 297.374L964.842 297.238L965.387 296.693L965.659 296.829H965.932L966.204 296.965V297.374L966.068 297.646V297.782L965.932 298.055Z" fill="white"/>
<path fill-rule="evenodd" clip-rule="evenodd" d="M913.912 173.173V173.854L913.776 174.263V175.216L913.64 175.488V176.578L913.503 176.714V176.986L913.367 177.122V177.259L913.231 177.531H912.822L912.959 177.395H912.822L912.55 177.531L912.414 177.667V177.94V178.076H912.55L912.686 178.212L912.55 178.348V178.212L912.414 177.94L912.278 177.803L912.005 177.667V177.122L912.142 176.85L912.005 176.578V176.305L912.142 176.033V173.582L912.414 173.037V172.629L912.686 172.22L912.822 172.084V171.948L913.095 171.675H913.367L913.64 171.812L913.776 172.084H914.32V172.492L914.184 172.765L914.048 172.901V173.037L913.912 173.173Z" fill="white"/>
<circle id="644" cx="652" cy="530" fill="#5CE50D"/>
<circle id="1509" cx="906" cy="252" fill="#E52A0D"/>
<circle id="646" cx="190" cy="729" fill="#E52A0D"/>
<circle id="1087" cx="735" cy="339" fill="#E52A0D"/>
</svg>
