<svg width="1000" height="1000" viewBox="0 0 1000 1000" fill="none" xmlns="http://www.w3.org/2000/svg">
<path d="M603.244 22.9335C603.244 23.4936 602.218 24.9872 600.912 26.2007C599.234 27.9744 597.648 28.5345 594.571 28.5345H590.374L595.783 42.3503L592.986 48.9782C591.493 52.6188 589.162 57.0997 587.763 58.8733C586.364 60.7403 585.432 62.3273 585.618 62.4206C585.805 62.6073 587.39 63.5408 589.069 64.5677L592.053 66.4347L589.162 70.3554C587.577 72.5025 586.085 74.2761 585.898 74.2761C585.711 74.2761 581.328 72.2224 576.293 69.702L567.153 65.0344L555.59 64.8477C548.595 64.7544 543 65.0344 541.508 65.6879C539.083 66.7148 538.897 67.1815 538.897 71.6623C538.897 74.3695 539.549 79.2237 540.296 82.4909L541.694 88.372L534.234 103.121L526.4 99.3873L518.473 95.56L515.862 97.427C514.463 98.4539 511.293 101.348 508.868 103.868C504.578 108.256 503.366 111.336 498.237 129.353C498.05 130.193 496.465 131.5 494.786 132.433C492.362 133.74 491.336 135.234 490.124 138.874L488.631 143.635L491.429 147.743C494.227 151.757 494.227 151.85 493.574 160.718L492.921 169.587L487.606 174.441C483.316 178.362 481.637 180.695 479.586 185.83C478 189.844 474.643 195.258 471.006 199.832L465.131 207.3L465.597 213.181C466.25 221.116 465.317 222.796 458.416 225.784C453.66 227.837 451.236 228.304 445.081 228.304H437.527L438.273 232.225C441.257 248.001 441.257 248.468 438.273 263.217C436.687 270.872 435.382 279.46 435.382 282.261C435.382 285.808 434.822 288.048 433.517 289.915C432.491 291.409 431.372 293.929 430.999 295.61C430.719 297.29 425.03 306.812 418.409 316.707C411.881 326.602 406.472 334.91 406.472 335.003C406.472 335.19 409.177 337.337 412.534 339.858C419.155 344.898 418.875 344.152 419.901 358.621C420.554 366.742 418.316 373.09 413.933 375.331C411.228 376.731 410.855 376.638 401.903 372.063C392.018 367.116 389.873 366.836 383.904 369.916C379.055 372.344 371.501 379.905 367.211 386.533C364.787 390.267 361.336 395.028 359.378 397.175C355.741 401.189 355.741 401.375 357.513 408.563C357.886 410.244 356.953 412.391 353.409 417.152L348.84 423.499L351.638 432.088L354.528 440.676L351.638 445.437C348.933 449.824 348.747 450.478 349.493 455.145C350.239 459.626 350.052 460.746 347.907 465.227L345.389 470.175L348 480.163L350.518 490.152L348.187 508.822C346.975 519.09 345.856 528.985 345.856 530.852C345.856 535.24 350.239 541.494 353.969 542.241C356.114 542.708 357.419 544.201 360.963 550.642L365.346 558.484L364.041 563.898C363.388 566.885 362.175 569.686 361.336 570.153C360.497 570.619 359.005 572.58 357.979 574.54C356.207 577.994 356.114 578.087 349.959 578.648C346.229 578.928 343.244 579.674 342.405 580.515C341.1 581.822 341.193 582.195 342.965 584.529C343.99 585.836 344.923 588.076 344.923 589.29C344.923 592.65 349.493 610.293 350.985 612.534C352.943 615.614 351.731 622.989 348.467 627.19C345.856 630.55 345.669 631.204 346.229 636.245L346.881 641.752L339.141 649.22C331.681 656.502 331.308 656.782 327.857 656.222C322.541 655.382 320.676 657.435 321.889 662.85C323.101 668.077 321.422 672.651 318.345 672.651C315.734 672.651 313.216 676.292 313.216 679.839C313.216 681.24 313.869 684.787 314.615 687.587C316.293 693.842 316.573 700.563 315.361 702.99C314.801 704.017 314.148 706.351 313.775 708.124C313.496 709.898 312.376 713.072 311.444 715.126C310.418 717.179 309.206 719.98 308.646 721.38C308.087 722.967 306.874 724.087 305.755 724.181C300.626 724.554 300.626 724.554 300.906 721.567C301.372 717.273 297.642 708.124 295.497 708.124C292.513 708.124 288.876 712.045 288.969 715.126C289.062 716.619 289.249 724.741 289.529 733.142C289.715 741.544 290.275 749.199 290.834 750.132C292.233 752.746 291.953 753.866 289.902 753.866C286.824 753.866 287.663 757.04 291.114 758.627C292.979 759.467 294.191 760.681 294.378 761.987C294.564 763.201 295.031 764.135 295.497 764.135C296.803 764.135 300.16 768.055 300.16 769.549C300.16 770.482 299.507 770.669 297.922 770.296C296.243 769.922 295.217 770.202 294.191 771.696C292.979 773.47 292.979 773.843 294.658 775.71C296.336 777.39 299.134 778.23 304.17 778.23C305.009 778.23 305.755 778.604 305.755 779.164C305.755 779.631 304.823 780.004 303.61 780.004C302.491 780.004 299.973 781.031 298.015 782.338C294.658 784.672 294.564 784.765 296.057 787.005C297.642 789.526 298.761 789.899 299.694 788.406C299.973 787.846 301.465 786.819 302.958 786.072L305.662 784.672L305.102 788.219C304.823 790.086 303.797 792.606 302.771 793.633C301.186 795.407 301.092 795.967 302.118 797.647C302.864 798.674 303.983 799.701 304.823 799.888C305.755 800.074 305.382 800.635 303.61 801.475C300.067 803.155 300.719 805.582 304.823 806.142C306.968 806.422 307.714 806.889 306.968 807.356C305.289 808.383 305.475 810.343 307.247 812.117C307.993 812.957 308.366 814.077 308.087 814.637C306.035 817.811 306.874 832.28 309.019 832.28C309.672 832.28 311.164 830.32 312.283 827.799C314.615 822.945 315.734 823.692 314.242 829.013C313.589 831.44 313.589 832.934 314.335 834.147C315.174 835.454 315.174 836.201 314.148 837.414C313.123 838.628 313.123 839.095 314.055 839.748C314.894 840.215 314.988 840.588 314.242 841.055C313.496 841.522 313.775 842.549 315.081 844.229C316.293 845.723 316.853 847.403 316.573 848.71C316.2 850.11 316.853 851.697 318.531 853.657C319.93 855.244 321.049 857.672 321.143 859.072C321.143 861.125 321.795 861.966 324.127 862.992C327.764 864.579 330.748 870.087 331.121 875.875C331.308 878.115 331.867 879.889 332.427 879.889C333.079 879.889 333.732 880.822 334.012 881.849C334.478 883.436 335.131 883.81 337.463 883.436C339.887 883.063 340.353 883.343 340.913 885.303C341.752 888.57 339.141 896.132 337.089 896.505C336.157 896.692 335.038 896.318 334.665 895.758C334.105 894.825 333.266 894.825 331.028 895.852C327.671 897.345 327.391 898.559 330.002 900.893C331.028 901.826 331.867 903.133 331.867 903.88C331.867 904.533 332.52 905.374 333.266 905.654C334.012 906.027 334.665 907.241 334.665 908.454C334.665 911.721 331.028 911.441 327.671 907.894C324.873 904.907 321.609 904.16 321.609 906.494C321.609 908.454 324.407 915.455 326.458 918.349C327.391 919.749 328.976 923.297 330.002 926.191C331.681 931.512 331.681 931.512 329.815 933.099C327.391 935.059 328.044 936.272 332.893 938.7C336.064 940.38 336.53 940.94 336.343 943.554C336.064 945.981 336.53 946.821 338.675 947.848C343.244 950.088 341.006 954.849 334.851 956.063C331.401 956.81 330.935 959.05 333.732 961.57C336.25 963.904 336.064 966.145 333.266 967.451C330.562 968.665 330.188 970.439 332.613 970.439C333.452 970.439 335.318 970.999 336.623 971.746C337.929 972.399 340.633 973.239 342.685 973.613C344.643 973.986 347.721 975.106 349.493 976.133L352.663 978L356.86 975.013C360.031 972.679 362.175 971.932 365.346 971.839C367.678 971.746 370.569 971.372 371.781 970.999C373.273 970.532 375.045 970.999 378.029 972.679C382.972 975.666 387.821 975.946 387.821 973.333C387.821 972.399 388.474 971.372 389.22 971.092C389.966 970.719 391.458 968.758 392.484 966.611C394.536 962.597 394.442 961.57 391.458 956.436C389.313 952.795 388.94 950.928 389.779 946.821C390.619 942.06 393.696 937.206 396.401 936.272C397.24 935.992 398.732 934.592 399.665 933.005C401.53 929.831 402.649 929.645 405.633 932.072C408.804 934.499 412.534 933.192 411.695 929.831C409.83 922.27 409.736 922.83 413.094 922.643C414.865 922.643 416.917 922.643 417.663 922.737C422.792 923.39 426.15 923.39 426.616 922.737C427.455 921.336 430.719 921.803 430.719 923.203C430.719 925.444 432.491 925.911 434.916 924.324C436.128 923.483 437.807 923.11 438.646 923.39C439.392 923.763 440.604 923.577 441.257 923.11C444.055 921.15 452.168 923.857 452.168 926.751C452.168 928.898 454.499 928.898 456.738 926.657C459.162 924.23 462.986 916.669 464.758 910.694C465.597 907.894 467.089 903.693 468.022 901.359C468.954 899.026 469.98 895.945 470.353 894.545C470.633 893.051 471.752 891.651 472.964 891.184C475.669 890.157 476.881 886.143 478.373 873.821C479.026 867.94 479.959 864.206 480.705 863.739C482.476 862.712 482.383 857.018 480.611 855.244C479.026 853.657 478.746 851.324 480.145 850.484C480.705 850.203 481.078 848.897 481.078 847.59C481.078 846.376 481.544 845.349 482.01 845.349C482.57 845.349 482.943 844.789 482.943 844.042C482.943 843.296 483.689 842.082 484.715 841.429C485.647 840.775 486.953 838.535 487.512 836.481C488.165 834.427 489.098 831.44 489.657 829.946C491.243 825.186 491.056 824.345 488.818 824.532C485.74 824.906 486.02 821.265 489.191 818.651L491.709 816.691L488.258 812.023C483.782 805.862 483.782 804.835 488.445 805.582C491.709 806.049 492.082 805.955 492.641 803.902C492.921 802.595 492.735 800.448 492.082 799.141C491.243 797.181 491.243 796.527 492.175 795.874C492.921 795.407 493.294 794.193 493.014 792.793C492.735 791.206 493.014 790.179 493.947 789.806C494.693 789.526 495.066 788.779 494.786 788.032C494.507 787.379 494.786 786.259 495.346 785.698C496.092 784.952 495.812 783.925 494.32 781.964C492.921 780.004 492.641 779.071 493.481 778.791C494.227 778.51 493.854 777.67 492.455 775.99C490.963 774.403 490.59 773.563 491.429 773.283C493.387 772.629 491.616 769.829 488.258 768.429C486.486 767.682 484.715 766.655 484.435 766.095C483.596 764.695 484.062 764.788 488.631 766.562C491.895 767.869 492.921 767.962 496.092 766.935C498.89 766.002 499.729 765.255 499.729 763.668C499.729 762.081 499.076 761.427 497.024 761.054C494.88 760.587 494.413 760.121 494.786 758.627C495.159 757.133 494.6 756.573 492.175 755.826C489.098 754.893 489.191 754.893 493.201 755.266C502.06 756.2 504.019 755.453 502.9 751.626C502.433 750.132 502.713 749.945 504.765 750.505C506.537 750.972 507.469 750.599 508.309 749.198C509.148 747.985 510.547 747.332 512.505 747.332C514.93 747.332 515.676 746.865 516.142 744.998C516.422 743.691 517.261 742.664 518.007 742.664C518.753 742.664 519.313 741.73 519.313 740.237C519.313 738.93 519.686 738.09 520.245 738.463C520.805 738.743 521.178 738.37 521.178 737.623C521.178 736.783 521.737 736.223 522.39 736.316C523.043 736.503 523.416 735.663 523.323 733.982C523.136 731.275 523.882 730.809 525.561 732.489C526.214 733.142 526.773 732.209 527.24 729.035C527.613 726.514 528.452 723.807 529.011 722.874C530.037 721.38 530.131 721.847 529.758 725.768C529.478 729.502 529.851 731.369 531.996 735.849L534.607 741.264L535.166 738.277C536.286 733.142 540.575 726.888 544.399 724.927C546.357 723.994 548.222 722.5 548.502 721.66C548.875 720.913 550.181 719.793 551.486 719.14C554.564 717.74 555.31 715.032 553.258 712.699C551.486 710.738 552.046 710.458 554.75 711.858C556.242 712.605 557.175 712.232 559.786 709.618C562.77 706.537 562.957 706.164 561.931 703.457C560.719 700.096 558.667 699.256 552.419 699.256C547.663 699.256 545.425 697.669 549.341 697.016C550.554 696.922 552.978 695.055 554.844 693.095C556.709 691.041 559.04 689.454 560.159 689.454C561.372 689.454 562.211 688.894 562.211 688.054C562.211 687.214 562.957 686.28 563.889 686C566.034 685.16 566.967 683.667 566.314 681.706C565.848 680.306 566.128 680.213 568.366 681.053C571.536 682.266 572.283 681.613 570.138 679.186C568.272 677.132 569.205 676.385 573.402 676.665C575.453 676.852 575.733 676.479 575.826 673.585C575.92 671.811 576.199 669.571 576.572 668.731C577.412 666.957 574.241 663.316 572.003 663.316C571.257 663.316 570.604 662.569 570.604 661.636C570.604 659.769 568.739 654.448 567.06 651.554C566.128 649.78 565.382 649.594 561.745 649.967C557.735 650.434 557.548 650.434 557.548 648.1C557.548 646.7 558.294 644.926 559.32 643.993C561.838 641.566 562.77 638.112 560.905 638.112C560.066 638.112 559.227 637.085 558.854 635.778C558.574 634.564 557.735 633.071 556.988 632.417C556.242 631.857 555.683 630.177 555.683 628.777C555.683 625.603 553.351 623.269 551.766 624.856C550.927 625.696 551.02 626.816 552.232 629.243C553.072 631.11 553.818 632.977 553.818 633.444C553.818 635.125 550.087 634.378 548.502 632.511C547.57 631.484 546.544 630.644 546.077 630.644C544.958 630.644 541.788 626.723 541.694 625.229C541.694 624.669 541.042 624.109 540.296 624.109C539.27 624.109 538.897 623.082 538.897 620.375C538.897 616.921 538.71 616.641 536.286 616.641C534.887 616.641 532.182 617.668 530.224 618.975C528.359 620.282 526.307 621.122 525.841 620.842C525.281 620.562 524.908 618.602 524.908 616.548V612.907H519.779C515.303 612.907 514.65 612.72 514.65 611.04C514.65 609.92 513.997 609.173 513.065 609.173C511.666 609.173 511.759 608.986 513.344 607.866C515.396 606.279 515.862 601.705 513.904 601.705C513.158 601.705 512.692 600.865 512.878 599.558C512.971 598.438 512.598 596.291 512.039 594.891C510.64 591.53 510.64 591.437 512.505 589.383C513.904 587.796 513.904 587.703 512.505 587.703C510.733 587.703 510.826 587.889 510.36 581.635C510.174 578.461 510.453 576.594 511.479 575.474C512.412 574.447 512.692 573.047 512.225 571.46C511.852 569.966 512.039 569.033 512.692 569.033C514.184 569.033 513.904 566.232 512.319 565.672C510.36 564.925 509.801 562.125 511.013 559.324C511.852 557.55 511.852 556.337 511.106 554.75C509.055 550.549 508.868 548.402 510.453 546.068C511.386 544.575 511.759 542.801 511.479 541.401C510.826 538.787 511.106 538.787 515.21 540.281C517.261 541.027 518.66 542.334 519.22 544.015C520.805 548.589 522.111 547.469 523.509 540.374C524.069 537.667 523.976 537.48 521.364 537.667C518.753 537.854 518.66 537.667 519.313 535.24C519.966 533.186 519.779 532.626 518.473 532.159C517.075 531.786 516.888 530.852 517.168 527.678C517.354 525.531 518.007 522.637 518.567 521.237C519.033 519.837 519.313 518.343 519.033 517.97C518.753 517.503 519.499 515.076 520.712 512.556C522.111 509.662 522.763 507.141 522.39 505.741C521.924 503.687 522.017 503.594 523.789 504.714C525.374 505.741 526.027 505.741 526.96 504.808C527.799 503.967 527.24 503.407 524.535 502.287C522.67 501.447 520.805 500.14 520.525 499.207C520.152 498.366 519.313 497.153 518.66 496.686C517.634 495.939 517.541 495.099 518.38 492.952C518.94 491.458 519.22 489.405 518.94 488.285C518.66 487.258 518.847 485.764 519.313 485.111C519.966 483.99 520.339 483.99 521.551 484.924C522.39 485.671 523.043 486.698 523.043 487.444C523.043 488.938 526.4 490.898 527.706 490.152C528.172 489.871 528.359 489.031 527.986 488.285C527.146 486.044 528.452 483.71 529.851 484.924C531.25 486.044 533.301 484.644 533.301 482.59C533.301 482.03 534.141 481.283 535.166 481.003C537.591 480.35 538.71 477.549 536.845 476.522C534.98 475.496 534.98 470.268 536.845 467.094C538.524 464.2 539.829 463.733 539.829 465.88C539.829 467.841 540.575 467.654 543.093 464.667C544.306 463.267 545.145 461.493 544.865 460.56C544.306 458.599 546.171 457.386 546.917 459.253C547.57 461.026 549.155 461.12 551.3 459.533C552.699 458.506 552.699 458.132 551.58 455.892C550.367 453.558 550.367 453.372 552.232 453.091C553.351 452.905 554.284 452.158 554.284 451.411C554.284 450.384 553.165 450.011 550.554 449.918C545.145 449.731 544.958 449.637 545.984 448.611C546.544 448.051 548.595 447.584 550.554 447.49C554.844 447.304 557.641 444.97 556.895 442.076C556.522 440.489 557.361 439.089 560.812 435.728L565.288 431.434L567.06 433.675C568.739 435.728 568.832 435.728 570.604 434.141C571.63 433.208 572.656 431.621 573.029 430.501C573.308 429.474 574.334 427.7 575.267 426.673C576.199 425.646 577.132 423.593 577.318 422.099C577.505 419.859 578.158 419.205 580.769 418.552C583.94 417.712 584.033 417.245 582.261 412.858C581.888 412.017 581.981 411.271 582.541 411.271C583.567 411.271 588.323 417.245 588.323 418.552C588.323 419.112 589.162 419.299 590.188 419.019C591.493 418.645 592.053 417.712 592.053 415.751C592.053 412.297 595.317 408.003 597.928 408.003C599.607 408.003 599.886 407.537 599.7 405.296C599.42 402.962 599.607 402.682 601.379 403.149C603.99 403.803 606.041 403.056 606.041 401.282C606.041 400.535 606.508 399.042 607.067 398.015C608.093 396.148 608.186 396.148 609.585 399.228L610.984 402.402L611.823 398.855C612.383 396.988 613.315 395.401 614.061 395.401C614.808 395.401 615.367 394.841 615.367 394.094C615.367 393.347 616.3 392.601 617.325 392.414C618.818 392.227 619.657 391.014 620.589 388.12C621.242 385.879 622.361 383.359 623.107 382.519C624.599 380.838 628.423 370.757 628.423 368.423C628.423 367.676 631.127 364.502 634.391 361.422C637.655 358.248 641.386 353.58 642.785 350.873C645.396 345.645 646.142 341.818 644.09 343.872C642.598 345.365 641.479 345.272 641.479 343.592C641.479 342.845 641.013 342.191 640.546 342.191C639.987 342.191 639.8 341.258 640.173 339.951C640.546 338.271 640.267 337.431 638.868 336.684C637.842 336.124 636.816 335.937 636.63 336.217C636.35 336.404 635.51 335.657 634.671 334.35C633.272 332.296 633.272 332.016 634.671 331.549C635.977 330.989 635.977 330.803 634.578 329.309C633.739 328.376 633.086 327.162 633.086 326.695C633.086 326.228 632.247 325.108 631.221 324.175C628.983 322.308 628.889 321.281 630.754 319.414C631.5 318.667 632.153 317.36 632.153 316.52C632.153 315.493 632.62 315.12 633.552 315.4C634.578 315.867 634.764 315.4 634.298 313.253C633.832 310.826 634.018 310.452 635.79 310.452C636.909 310.452 637.655 310.079 637.376 309.612C636.63 308.492 640.36 303.918 642.038 303.918C643.064 303.918 643.251 303.358 642.785 301.771C642.411 300.65 642.132 298.97 642.225 298.037C642.225 297.103 641.292 294.209 639.987 291.502C638.774 288.795 637.749 285.808 637.749 284.688C637.749 282.541 640.733 279.273 641.759 280.3C642.132 280.58 642.411 280.487 642.411 279.927C642.411 279.273 643.81 279.087 646.048 279.367C651.83 280.113 655.934 275.539 651.737 272.925C649.033 271.152 649.499 270.312 653.043 270.312C654.815 270.312 656.586 269.845 656.866 269.378C657.146 268.818 658.825 268.445 660.503 268.445H663.581L662.555 265.177C661.902 263.124 661.249 262.284 660.69 262.844C660.13 263.404 659.384 263.777 659.011 263.777C657.892 263.777 658.079 259.296 659.198 258.643C659.757 258.363 660.13 258.55 660.13 259.11C660.13 259.67 660.503 259.95 660.876 259.67C661.343 259.39 661.716 257.336 661.716 255.002C661.809 249.775 662.555 248.374 664.42 249.868C665.166 250.428 665.726 251.455 665.726 252.202C665.726 253.602 668.99 254.816 670.482 253.882C671.134 253.509 671.321 251.642 671.041 249.215C670.855 246.974 670.855 244.92 671.134 244.64C671.974 243.8 675.051 247.161 675.051 248.934C675.051 249.868 675.518 250.895 675.984 251.175C676.543 251.455 676.916 252.762 676.916 253.882C676.916 256.402 679.621 259.39 679.807 257.149C679.901 256.402 679.901 255.562 679.807 255.096C679.807 254.722 680.367 254.442 681.113 254.442C681.952 254.442 682.512 255.282 682.512 256.496C682.512 258.643 682.512 258.643 684.377 256.309C685.403 255.002 686.242 252.575 686.242 250.895C686.242 248.188 686.522 247.814 688.107 248.281C689.133 248.561 690.812 249.121 691.837 249.401C694.449 250.148 706.479 248.001 709.836 246.321C711.794 245.294 712.354 244.547 711.794 243.427C711.421 242.587 710.489 239.973 709.649 237.639C708.81 235.305 707.598 232.505 706.945 231.385C706.292 230.264 705.826 228.491 705.826 227.371C705.826 226.157 704.707 224.943 702.562 223.917C698.832 222.143 696.221 217.475 694.915 210.101C694.169 205.9 694.355 204.873 696.78 199.832C699.298 194.698 699.484 193.764 699.018 187.043C698.645 182.562 698.738 179.762 699.298 179.762C700.697 179.762 700.324 176.868 698.552 173.601C697.713 172.014 695.941 168.84 694.728 166.6C693.516 164.359 692.304 162.305 691.931 162.025C690.439 160.812 687.175 153.531 687.175 151.383C687.175 149.61 687.827 148.676 689.599 147.929C692.024 147.089 692.024 146.809 691.464 141.768C690.718 135.327 690.066 134.394 685.216 133.647C681.579 133.087 681.486 132.993 682.046 130.006C682.325 128.419 683.071 126.086 683.724 124.872C684.563 123.192 684.47 122.071 683.351 119.738C679.807 112.456 679.714 109.469 683.165 103.028C684.284 100.788 684.284 100.134 683.071 97.8937C682.325 96.4935 680.647 94.3464 679.341 93.2262C678.035 92.0127 676.916 90.239 676.916 89.2122C676.916 87.3452 676.077 86.9718 673.093 87.2518C671.974 87.3452 671.321 86.4116 670.855 83.8912C669.922 78.7569 667.871 75.303 664.98 73.996C663.581 73.436 662.275 72.6891 661.995 72.3158C660.876 70.9155 653.509 67.7416 651.271 67.7416C649.965 67.7416 648.939 67.2748 648.939 66.8081C648.939 66.248 647.914 65.8746 646.608 65.8746C643.064 65.8746 638.868 63.4475 637.376 60.3669C636.536 58.8733 634.951 57.473 633.645 57.0997C632.34 56.8196 631.127 55.6994 630.754 54.7659C630.475 53.739 628.796 52.0588 627.024 51.0319C625.252 50.005 623.76 48.5114 623.76 47.6713C623.76 46.9245 622.175 45.3376 620.216 44.0307C618.351 42.8171 616.206 41.1368 615.46 40.2966C614.714 39.4565 612.849 38.803 610.984 38.803C608.186 38.803 607.813 38.5229 608.373 37.1227C609.865 33.482 609.958 32.1751 608.466 29.9347C607.627 28.7212 606.974 26.8542 606.974 25.9207C606.974 24.2404 605.295 22 603.99 22C603.617 22 603.244 22.4667 603.244 22.9335Z" fill="white"/>
<path d="M580.582 799.611C578.624 801.852 577.411 802.412 574.52 802.412C571.629 802.412 570.697 802.785 570.324 804.279C570.044 805.306 569.391 806.146 568.832 806.146C568.272 806.146 567.806 805.306 567.806 804.279C567.806 801.852 564.635 801.758 562.956 804.186C562.304 805.119 560.345 806.613 558.667 807.453C556.428 808.573 554.936 810.533 552.885 815.107C551.113 819.028 548.688 822.576 546.17 824.816C542.16 828.363 542.16 828.363 543.466 831.444C545.517 836.485 545.89 843.579 544.119 844.606C542.253 845.633 542.16 847.78 543.932 848.807C545.051 849.46 546.077 852.914 546.73 858.422C546.823 859.729 547.662 860.849 548.502 861.036C550.18 861.409 550.74 863.09 549.061 863.09C548.595 863.09 547.569 864.49 546.823 866.263C546.077 868.037 545.051 869.811 544.492 870.091C542.72 871.211 544.585 872.425 548.129 872.425C552.232 872.425 553.817 870.091 553.164 865.237C552.791 863.183 553.258 861.783 554.47 860.569C555.496 859.542 556.149 858.329 555.962 857.862C555.496 856.462 562.677 850.954 564.915 850.954C567.712 850.954 568.365 848.994 565.941 847.22C563.982 845.82 563.982 845.54 565.474 844.139C566.314 843.299 568.832 841.432 571.163 840.125C573.401 838.818 575.266 837.325 575.266 836.858C575.266 836.391 574.054 835.458 572.655 834.711C568.738 832.657 567.34 830.697 568.645 829.11C569.298 828.363 569.671 826.403 569.578 824.629C569.111 818.561 569.578 816.414 571.35 816.414C573.308 816.414 575.266 814.734 575.266 812.96C575.266 812.214 576.758 810.44 578.53 808.853C580.302 807.266 581.794 805.399 581.794 804.652C581.794 803.905 582.82 802.412 584.032 801.385C586.364 799.425 586.364 796.811 584.126 796.811C583.473 796.811 581.794 798.024 580.582 799.611Z" fill="white"/>
<path d="M499.915 843.667C498.889 845.907 497.117 851.041 495.998 855.149C493.946 862.804 488.444 873.912 485.74 875.873C484.341 876.899 483.595 878.393 477.906 891.462C475.388 897.25 474.642 904.811 476.507 906.678C477.16 907.332 477.44 910.226 477.16 914.333C476.787 920.774 476.88 920.867 478.746 919.654C481.45 917.88 483.781 912.653 483.875 908.265C483.875 904.718 485.18 900.237 488.91 890.622C489.657 888.568 490.309 886.048 490.403 884.928C490.403 883.807 491.335 881.567 492.548 879.793C495.159 875.873 496.651 872.045 497.21 867.564C497.49 865.604 498.982 861.403 500.568 858.043C502.153 854.775 503.459 851.041 503.459 849.735C503.459 848.521 504.298 846.374 505.324 845.16C507.096 842.92 507.096 842.733 505.417 841.24C502.899 838.999 502.06 839.373 499.915 843.667Z" fill="white"/>
<circle id="652" cx="535" cy="713" fill="#5CE50D"/>
<circle id="1515" cx="424" cy="713" fill="#E52A0D"/>
<circle id="653" cx="313" cy="812" fill="#E52A0D"/>
<circle id="654" cx="343" cy="950" fill="#E52A0D"/>
</svg>
