<svg width="1000" height="1000" viewBox="0 0 1000 1000" fill="none" xmlns="http://www.w3.org/2000/svg">
<path d="M328.405 725.699L331.557 729.213L331.65 729.317L331.67 729.455L332.02 731.819L334.197 734.249H337.323L337.457 734.375L340.501 737.241L344.142 737.787L344.213 737.825L346.666 739.139L349.101 738.719L353.004 736.177L353.046 736.15L353.093 736.132L358.002 734.278L358.067 734.254L358.137 734.249L367.31 733.682L370.139 736.122L370.27 736.235L370.295 736.406L371.87 747.156L371.877 747.209L371.873 747.262L371.409 752.823L371.405 752.884L371.384 752.941L370.18 756.278L370.13 756.415L370.012 756.498L367.141 758.537L367.106 758.562L367.066 758.581L360.435 761.628L359.364 768.243L359.345 768.36L359.271 768.455L355.566 773.181L355.516 773.245L355.448 773.287L348.038 777.921L347.911 778L341.743 777.621L341.602 777.612L338.711 775.394L338.685 775.374L338.662 775.351L328.751 765.249L328.692 765.189L328.659 765.113L327.917 763.445L327.848 763.289L329.044 759.236L326.017 753.913L326.026 753.777L326.113 752.277L323.912 744.476L323.89 744.399L323.895 744.318L324.273 738.944L326.221 735.043L326.851 728.73L326.044 725.945L326.017 725.852L326.028 725.757L326.677 720.659L327.594 720.645L328.405 725.699Z" fill="white"/>
<path d="M253.841 728.623L257.176 729.828L257.436 729.922L257.996 733.664L261.348 735.34L265.558 734.566L266.939 732.761L267.308 733.05L269.708 734.93L268.936 736.919L268.883 737.056L268.76 737.136L265.836 739.087L266.92 740.509L269.075 741.027L269.206 741.058L272.329 744.275L274.196 744.446L274.368 744.461L274.487 744.584L277.687 747.893L274.24 749.795L274.012 749.662L271.703 748.307L270.649 749.89L270.543 750.049L270.357 750.087L263.596 751.477L263.5 751.497L263.405 751.476L256.138 749.912L251.885 750.002L245.814 751.291L245.731 751.309L245.646 751.296L225.639 748.145L225.291 748.09L224.88 744.496L224.848 744.216L232.881 738.825L235.187 735.411L235.246 735.364L238.488 732.863L238.578 732.794L238.688 732.773L248.264 731.023L253.492 728.637L253.664 728.559L253.841 728.623Z" fill="white"/>
<path fill-rule="evenodd" clip-rule="evenodd" d="M442.519 221.033L452.516 224.626L452.33 225.074L451.682 226.65L451.629 226.778L446.032 230.604L444.005 233.689L444.877 234.356L447.558 231.003L447.618 230.927L447.703 230.883L451.038 229.122L451.259 229.005L451.479 229.126L455.647 231.443L456.05 231.668L454.478 234.534L456.077 235.396L462.012 225.008L475.751 232.836L476.148 233.061L471.515 241.498L472.476 242.055L477.039 233.929L477.363 233.987L481.531 234.729L481.609 234.742L481.677 234.781L486.123 237.283L486.178 237.314L490.109 241.248L491.241 240.946L491.464 240.887L491.645 241.029L497.088 245.274L502.216 248.389L505.603 249.673L505.699 249.709L505.772 249.782L509.477 253.581L509.556 253.664L509.589 253.774L511.17 259.111L502.819 264.49L502.519 264.683L500.032 262.403L499.877 262.259L499.882 262.047L500.061 255.936L499.148 254.964L498.505 256.133L499.046 261.458L499.052 261.515L498.466 265.543L503.749 266.407L508.585 265.152L510.652 263.805L510.831 263.687L511.036 263.748L516.038 265.231L516.199 265.279L516.292 265.418L517.403 267.086L517.448 267.153L517.467 267.229L519.396 274.765L524.507 283.347L528.519 286.633L528.581 286.682L528.622 286.751L531.587 291.663L531.682 291.822L531.642 292.003L530.346 297.842L530.308 298.007L530.174 298.109L526.809 300.679L526.338 304.447L526.108 304.555L522.949 306.048L521.479 310.295L532.244 315.593L533.753 313.463L534.031 313.501L537.222 313.931L538.861 312.202L539.055 312.199L544.734 312.11L545.749 310.515L543.502 306.488L546.679 302.813L546.727 302.758L546.79 302.719L552.811 299.105L552.851 299.081L552.894 299.065L557.062 297.583L557.143 297.555L561.674 297.649L561.75 297.651L561.821 297.676L566.175 299.252L566.234 299.273L566.285 299.31L573.953 304.763L582.442 310.134L582.129 310.537L579.217 314.283L579.839 314.633L582.504 310.222L585.839 311.681L585.869 311.695L585.897 311.712L599.33 320.019L599.388 320.114L600.963 322.708L601.036 322.83L601.029 322.97L600.844 327.048L600.839 327.151L600.792 327.243L599.075 330.513L600.898 331.331L602.65 327.662L602.695 327.567L602.776 327.501L608.519 322.867L608.563 322.832L613.707 320.399L613.819 320.345L613.943 320.356L618.168 320.707L619.88 318.905L625.96 317.858L626.057 317.842L630.349 318.94L630.441 319.139L633.034 324.7L633.073 324.782L633.078 324.873L633.23 328.081L636.869 326.42L637.179 326.278L637.406 326.533L643.57 333.437L650.601 338.065L656.284 343.752L666.647 353.473L666.807 353.622L666.607 356.621L666.591 356.861L666.386 356.987L664.507 358.13L664.91 361.842L669.213 363.863L669.284 363.896L669.34 363.95L672.766 367.287L672.816 367.335L672.85 367.397L680.097 380.614L685.526 383.33L685.561 383.348L685.593 383.372L695.014 390.302L701.881 393.967L714.013 397.001L724.369 397.735L732.248 395.858L732.401 395.938L734.56 397.061L737.948 396.214L737.13 394.207L736.987 393.855L741.61 390.803L744.07 388.069L744.121 388.012L748.885 385.33L751.383 387.06L753.011 386.844L751.709 386.51L751.487 386.454L749.823 382.536L749.775 382.422L749.79 382.299L750.067 379.982L750.093 379.777L755.172 376.229L755.258 376.168L755.361 376.151L766.013 374.391L766.103 374.375L766.193 374.396L776.659 376.805L776.782 376.834L776.874 376.921L778.57 378.529L778.784 378.616L775.692 373.089L792.914 380.062L800.49 382.281L800.649 382.327L800.742 382.464L803.151 385.985L803.186 386.038L803.207 386.098L804.561 390.073L807.282 392.795L807.302 392.949L807.665 395.579L811.894 405.881L813.886 409.778L816.947 412.578L820.159 412.786L819.751 415.507L819.379 415.531L815.597 415.784L815.123 420.051L820.074 422.016L824.297 421.839L827.895 419.5L828.073 419.384L828.277 419.444L831.148 420.277L831.32 420.328L831.414 420.48L833.095 423.226L839.081 425.781L841.404 424.834L841.618 424.747L841.816 424.867L845.028 426.794L857.599 432.159L857.638 432.176L857.673 432.198L865.801 437.59H867.096L875.732 443.225L875.751 443.238L875.769 443.252L883.781 449.684L883.816 449.731L887.614 454.828L887.689 454.929L887.703 455.053L888.444 461.54L888.486 461.909L885.727 462.865L885.404 462.976L884.184 461.311L883.999 461.06L885.848 458.04L885.766 455.717L882.637 451.067L876.781 446.38L874.791 446.207L874.671 446.197L874.572 446.129L870.659 443.489L867.861 442.83L866.013 444.921L865.484 449.953L866.349 452.457L866.255 452.635L863.146 458.491L862.879 460.631L862.865 460.742L862.802 460.834L858.659 466.913L853.501 479.446L851.657 485.908L851.645 485.95L851.625 485.989L849.462 490.318L846.645 493.137L845.927 497.989L845.916 498.066L845.88 498.135L844.62 500.564L844.19 504.098L846.809 507.679L848.84 508.949L866.357 508.761L866.931 510.37L866.956 510.439L866.957 510.512L867.321 522.691L868.789 523.671L869.197 523.942L866.68 527.3L866.546 527.479L866.321 527.486L859.282 527.67L858.827 527.683L858.456 519.248L847.887 519.503L848.062 527.382L848.073 527.898L847.559 527.855L844.344 527.578L831.7 527.855L827.221 528.221L820.213 530.497L815.087 534.343L815.063 534.362L815.036 534.377L809.757 537.342L809.702 537.373L809.643 537.388L805.938 538.314L805.856 538.335L805.772 538.325L798.455 537.492L798.335 537.478L798.237 537.408L793.672 534.118L783.872 531.303L769.095 535.543L772.602 531.904L770.66 525.82L761.55 525.909L756.019 528.224L755.71 526.673L743.528 527.386L740.844 528.908L740.761 528.955L740.665 528.965L735.542 529.515L730.419 531.621L730.14 531.736L728.22 529.901L726.781 531.419L726.702 531.502L726.593 531.538L721.438 533.288L715.447 536.332L715.281 536.416L715.104 536.363L713.379 535.845L706.374 537.756L706.325 537.77L706.275 537.772L700.778 538.047L690.19 541.455L671.684 548.585L671.549 548.636L671.409 548.603L668.496 547.895L660.854 550.991L660.8 551.013L660.741 551.021L655.208 551.759L638.967 555.822L626.958 560.814L626.929 560.826L611.178 564.997L600.715 569.313L598.547 571.121L598.434 571.215L592.673 571.68L584.721 577.443L584.662 577.486L582.096 578.31L576.842 583.292L576.776 583.324L570.815 586.168L563.827 592.516L563.807 592.535L563.784 592.552L557.763 596.814L557.502 597L557.237 596.821L553.246 594.13L549.249 597.068L550.336 600.079L550.388 600.226L550.342 600.375L548.953 604.823L548.908 604.967L548.787 605.058L532.778 616.911L532.848 617L533.151 617.378L526.65 622.116L530.178 626.947L527.668 628.666L527.399 628.327L521.562 620.955L521.703 620.688L522.518 619.129L511.943 612.817L510.067 612.47L509.977 630.783L508.364 631.321L511.187 634.675L509.072 636.456L508.73 636.745L497.734 624.541L495.965 626.312L500.585 632.043L498.372 634.468L498.051 634.821L485.712 622.853L471.295 623.216L456.007 631.839H446.947L440.427 630.534L440.519 630.08L440.823 628.556L439.856 630.714L433.2 625.523L430.11 625.273L427.665 627.458L427.544 627.566L427.382 627.575L423.955 627.761L423.795 627.769L423.664 627.678L421.236 625.985L420.961 628.19L420.939 628.375L420.793 628.492L418.536 630.315L418.189 633.908L409.448 626.067L409.204 625.847L409.33 625.544L409.663 624.744L404.629 620.463L403.022 621.536L401.828 617.854L398.543 617.948L398.15 615.984L391.818 626.882L391.815 626.887L379.496 647.461L379.256 647.861L364.852 639.135L380.598 612.258L362.308 601.153L350.083 621.817L309.206 597.39L308.813 597.156L314.713 587.021L314.934 586.988L321.951 585.945L342.379 598.17L346.697 600.542L352.526 590.851L329.552 577.227L334.243 569.528L324.328 558.992L321.29 561.703L319.659 564.424L319.549 564.608L319.337 564.642L312.576 565.754L312.539 565.761H307.064L307 565.743L298.133 563.194L296.306 560.506L296.44 560.258L298.091 557.188L295.882 556.719L291.15 561.362L268.88 555.673L268.803 555.428L264.079 540.414L264.048 540.314L264.062 540.21L265.081 533.073L265.099 532.951L265.174 532.854L269.039 527.881L272.077 522.17L272.1 522.129L272.13 522.093L274.734 518.948L275.548 513.607L275.555 513.569L275.566 513.533L277.329 508.149L276.234 507.053L276.464 508.507L276.485 508.642L276.43 508.766L273.374 515.717L273.346 515.781L273.299 515.833L270.362 519.232L267.25 524.482L267.461 525.114L267.529 525.32L267.416 525.505L262.256 533.892L259.864 540.888L259.859 540.905L259.852 540.921L256.934 547.73L258.216 548.742L261.359 547.642L261.279 545.575L262.18 545.405L266.44 557.732L266.535 558.005L266.33 558.211L265.96 558.582L265.722 558.819L265.422 558.667L254.63 553.174L241.639 542.205L235.08 541.624L235.728 545.01L239.594 545.098L239.719 545.205L252.131 555.769L252.377 555.979L251.435 558.548L253.862 559.004L253.772 559.922L234.501 559.74L234.408 564.463H232.467L232.656 545.355L231.629 542.431L227.58 543.756L228.142 554.807L215.261 555.288L214.792 555.306L214.695 550.983L209.067 548.959L208.915 548.904L208.83 548.768L205.631 543.611H200.931L199.013 546.112L198.387 550.672L198.777 557.492L198.413 557.59L192.855 559.072L192.787 559.091L192.716 559.088L188.506 558.904L178.356 560.839L175.816 542.017L173.949 540.672L172.943 541.49L175.226 559.121L175.229 559.144L175.229 559.168L175.331 562.721L175.049 562.847L171.225 564.559L166.787 559.756L166.699 559.844L170.566 564.091L170.11 564.389L167.93 565.806L157.384 554.398L157.28 554.287L157.263 554.135L156.296 545.521L149.441 546.419L150.846 557.396L160.7 567.824L156.09 572.034L156.074 572.049L140.883 584.653L140.256 583.972L143.76 580.381L141.531 577.737L141.465 577.66L140.656 574.778L129.054 568.014L128.679 567.796L129.478 566.194L128.12 564.563L124.964 567.258L123.304 565.182L125.72 562.584L121.42 559.463L121.336 559.402L121.286 559.311L118.409 554.063L113.58 558.167L111.243 555.403L110.985 555.098L119.49 545.346L119.498 545.337L119.506 545.329L126.056 538.508L124.169 536.48L119.329 540.977L111.844 549.115L111.519 549.467L105.899 543.942L105.862 543.906L103.786 540.685L115.215 528.511L111.503 524.719L104.61 531.794L104.586 531.818L104.56 531.839L98.6315 536.379L98.3502 536.596L98.0679 536.379L92.8813 532.394L92.8496 532.37L92.8234 532.341L87.6439 526.727L85.0379 530.231L82.7214 534.865L83.1221 536.631L88.9284 543.362L88.9564 543.427L91.0785 548.318L109.316 581.571L109.32 581.577L109.322 581.584L112.132 587.112L112.144 587.179L112.793 590.794L112.81 590.894L112.786 590.991L111.86 594.605L111.836 594.695L111.781 594.768L109.558 597.734L109.492 597.822L105.134 600.002L105.027 600.055L94.722 599.59L93.4204 600.097L92.268 617.486L99.3714 617.671L99.3696 618.125L99.2764 635.734L98.352 635.772L98.1168 633.106L95.2647 633.503L95.2078 633.51L95.1508 633.504L90.1088 632.954L85.3428 633.504L85.1917 633.521L81.474 631.383L76.9811 631.652L76.9694 631.653H76.9567L63.3234 631.745L59.0141 633.23L60.0815 633.6H66.3328L66.5182 634.897H93.9966V636.102H52.495L52.9428 635.392L54.097 633.555L50.1287 633.335L45.644 639.316L45.559 646.297H47.4205L47.4911 646.675L47.8837 648.796L79.1982 648.705L79.2633 649.093L79.4442 650.182L48.9058 650.557L47.8647 651.672L47.7805 655.654L49.0614 656.935L55.2159 656.349L55.0938 658.555L55.0694 658.986L54.6388 658.993L49.1717 659.082L45.6512 662.519L45.7299 665.255L46.7539 665.665H54.9093L54.94 666.591L45.5463 667.218L45.1239 668.839L46.8534 671.753L46.8507 671.886L46.6661 679.514L48.212 685.701L49.8212 688.753L54.2354 688.946L54.6307 695.759L54.6587 696.253L44.554 696.16L44.905 704.477L44.9095 704.591L43.5201 707.556L44.0565 720.275L50.3893 722.211L75.2136 728.421L79.939 729.875L82.0466 729.436L82.0963 729.426H82.147L89.6493 729.52H89.6945L89.738 729.53L95.6157 730.758L96.3828 729.432L95.3 723.11L96.1648 722.813L100.981 731.803L101.1 732.023L99.1244 735.663L96.7998 736.269L96.684 736.3L30.9885 719.403L30.9107 719.383L30.8438 719.338L25.9348 716.001L25.8109 715.918L25.7602 715.778L24 710.958L24.7978 710.511L26.473 712.621V709.872L24.4704 705.046L24.4224 704.929L24.4396 704.804L24.986 700.879L24.2542 695.383L24.2469 695.335L24.2515 695.285L25.27 682.588L25.2727 682.558L25.279 682.528L25.9475 679.406L26.4522 679.597L29.1378 680.617L29.3893 680.712L29.4309 680.977L29.6706 682.485L30.4648 678.458L30.5227 678.162L30.8167 678.096L33.1034 677.576L35.2589 679.732L36.0911 678.246L33.5701 675.561L24.1574 674.611V669.187H37.4027V664.739H25.1759L25.1379 663.814L30.3635 663.385V662.052H36.6031L36.6248 661.773H30.3635V652.284L25.1379 651.855L25.1723 650.93L36.5605 650.841L36.4846 646.389H24.6205L24.5934 645.463L32.1228 645.025V637.399H24.1574V634.717L24.6151 634.712L32.3083 634.623V628.688H25.9936L33.5412 608.232L33.5448 608.221L33.5493 608.212L35.6705 603.193L40.6554 601.657L45.0931 599.301L48.4436 596.036L48.705 593.425L48.7149 593.325L48.7665 593.238L50.6489 590.007L50.742 582.451L51.9903 578.97L49.7868 575.265L49.7552 575.211L49.7389 575.151L48.8 571.737L47.3246 571.526L48.7945 563.752L49.2369 563.82L50.0618 563.946L55.3986 548.924L55.4014 548.918L55.4032 548.912L60.4008 536.039L63.0846 528.078L63.0882 528.067L72.9993 501.191L73.0029 501.181L76.509 492.318L77.6134 487.349L77.6306 487.269L77.6749 487.201L78.9377 485.213L81.2705 477.67L80.1887 475.602L80.4139 475.363L83.1339 472.458L84.5269 469.084L83.6259 469.275L83.3591 469.331L83.18 469.125L80.7721 466.345L80.6916 466.252L80.6681 466.132L80.1118 463.352L80.0901 463.24L80.1217 463.132L81.1746 459.492L81.2633 459.406L83.8575 456.903L83.9398 456.824L84.0493 456.792L86.9212 455.958L87.2441 455.864L88.6769 457.977L92.6189 446.742L93.0178 443.951L97.4004 441.853L99.2565 439.375L110.923 417.499L110.412 414.938L114.282 413.71V411.363L115.171 411.181L116.524 414.366L117.296 413.834L116.786 410.771L118.54 410.88L125.92 395.752L125.325 393.796L125.25 393.551L129.216 389.001L129.297 388.908L129.413 388.868L131.312 388.206L132.267 384.644L132.31 384.484L132.445 384.387L134.196 383.134V381.15L134.233 381.064L136.593 375.429L136.053 370.824L136.044 370.76L136.055 370.696L136.956 365.195L135.916 363.2L135.819 363.013L135.895 362.816L138.334 356.579L135.911 349.498L139.59 348.577L141.085 346.832L141.895 343.056L141.955 342.773L142.235 342.703L145.017 342.008L145.182 342.108L147.024 343.23L152.953 338.146L151.679 336.074L151.493 335.772L153.218 333.938L153.316 333.834L156.427 333.15L154.179 330.902L154.782 326.077L154.887 325.967L156.279 324.499L154.986 323.575L158.066 320.293L157.821 318.662L157.808 318.575L157.828 318.49L159.309 312.003L159.354 311.81L163.799 309.141L163.398 308.257L166.607 303.685L166.757 303.469L171.919 303.845L176.959 299.342L177.149 299.172L177.395 299.242L182.127 300.595L182.912 297.632L187.085 296.66L189.703 294.945L189.802 294.879L189.919 294.87L196.573 294.322L203.649 290.056L211.261 281.976L211.34 281.938L214.95 280.222L219.147 275.112L219.171 275.082L219.201 275.056L222.629 272.09L222.664 272.06L222.705 272.036L226.485 269.914L236.002 263.166L236.065 263.121L242.993 261.061L243.02 261.053L243.049 261.048L252.764 259.443L255.97 261.484L256.238 261.655L255.518 265.256L257.812 265.923L265.898 262.105L266.027 262.044L266.168 262.067L270.244 262.715L270.476 262.752L270.582 262.961L272.107 265.923L274.522 267.713L274.598 267.769L277.128 272.109L279.466 272.469L284.927 277.834L282.606 281.703L282.926 283.404L285.335 279.924L286.536 283.751L293.735 283.837L297.316 281.24L297.564 281.061L308.738 287.768L311.44 286.596L313.699 287.139L316.492 285.132L316.614 285.043L330.895 285.137L333.737 284.634L335.314 280.254L335.325 280.224L335.34 280.196L338.304 274.542L338.409 274.341L338.632 274.301L342.525 273.602L342.581 273.678L341.981 271.944L341.923 271.775L341.993 271.612L343.054 269.101L346.295 266.321L347.762 262.777L346.144 257.47L346.012 257.038L347.702 256.474L347.856 256.898L350.626 264.519L356.903 260.647L356.968 260.607L362.665 259.291L362.586 258.488L362.825 258.334L372.796 251.96L379.255 246.237L379.277 246.217L379.302 246.201L388.286 240.085L388.3 240.076L401.515 231.753L405.795 228.153L406.995 228.708L410.66 225.565L410.729 225.506L410.815 225.477L417.527 223.239L418.482 224.545L417.969 223.645L417.664 223.108L424.84 221.389L424.971 221.357L425.099 221.401L428.214 222.47L431.233 221.759L431.271 221.75L431.309 221.748L442.33 221.006L442.427 221L442.519 221.033ZM255.903 472.313L254.632 474.35L254.526 474.519L254.479 474.528L256.938 476.812L258.893 476.079L259.114 475.997L265.283 480.078L264.908 484.574L267.094 486.579L267.111 486.754L267.771 493.256L267.734 493.357L265.728 498.738L265.807 500.896L267.325 501.808L273.113 501.536L273.356 501.525L275.34 504.146L274.938 502.424L273.128 500.696L266.416 500.505L266.191 498.246L266.176 498.108L269.39 491.961L269.49 491.77L269.7 491.724L272.2 491.167L272.48 491.106L272.66 491.327L274.622 493.736L277.858 495.016V490.407L275.865 485.24L273.427 480.901L271.831 479.66L271.725 479.576L269.711 473.901L266.389 472.589L266.282 472.546L266.277 473.206L265.887 473.265L262.83 473.728L262.667 473.753L262.526 473.669L259.51 471.894L255.903 472.313ZM782.317 380.045L782.402 379.588L780.444 379.286L782.317 380.045ZM498.342 266.395L499.497 267.255L498.423 265.835L498.342 266.395Z" fill="white"/>
<path d="M234.325 571.87L235.485 574.436L244.701 576.438L245.663 574.194L245.841 573.777L250.509 575.665L253.321 575.384L253.449 575.456L259.47 578.886L259.578 578.947L262.048 583.13L262.091 583.204L263.193 589.542L267.44 593.972L273.78 599.591L278.34 599.77L278.436 599.774L278.523 599.816L281.21 601.113L281.281 601.148L281.337 601.205L290.137 610.101L290.271 610.237V611.832L290.126 611.968L286.514 615.398L286.447 615.462L286.36 615.495L275.15 619.772L274.938 619.56L273.18 617.801L265.718 616.162L265.683 616.155L265.65 616.143L262.593 614.953L258.432 619.039L261.872 619.712L261.912 619.727L269.708 622.809V627.815L270.753 629.559L270.921 629.839L268.583 632.686L268.517 632.767L256.942 638.178L248.235 634.77L248.145 634.735L245.343 631.931L231.14 624.078L230.173 619.835L228.808 622.501L228.605 622.9L223.711 620.596L222.927 621.119L220.473 626.454L238.445 636.716L238.707 636.866L238.675 637.166L238.373 640.089L238.169 640.208L224.518 648.105L224.48 648.119L203.506 655.767L203.368 655.733L202.997 655.64L202.734 655.574L202.663 655.312L197.603 636.629L180.912 621.462L172.08 631.252L183.142 641.594L192.255 673.319L192.275 673.389L192.273 673.461L192.18 676.704L192.177 676.81L190.523 680.023L190.476 680.072L187.475 683.173L185.064 682.152L176.673 690.635L177.415 693.323L159.997 710.845L159.892 710.951L156.236 711.56L156.086 711.466L154.214 710.282L154.156 710.162L149.889 701.207L151.756 701.83L151.945 701.893L152.029 702.073L155.01 708.4L155.851 708.761L162.725 701.615L163.872 699.73L160.782 692.487L158.043 690.843L157.984 690.754L156.164 687.979L148.622 687.421L141.21 671.932L137.446 667.154L137.406 667.104L137.381 667.045L126.451 640.632L126.448 640.624L118.945 621.44L118.911 621.354L119.103 611.775L119.275 611.639L128.83 604.107L132.684 609.616L133.128 609.174L133.156 609.145L133.19 609.121L162.552 588.547L162.566 588.538L178.603 578.891L178.655 578.86L178.712 578.844L186.307 576.619L186.368 576.601H186.431L202.02 576.412L202.143 576.691L202.634 577.795L202.44 578.018L194.353 587.303L192.807 592.307L192.775 592.414L184.453 600.928L184.441 600.94L184.43 600.951L179.808 605.059L187.751 612.414L192.449 605.713L192.478 605.672L192.514 605.639L194.922 603.415L195.228 603.132L195.542 603.406L197.47 605.095L201.15 602.098L201.243 602.022L201.362 602.001L202.205 601.852L200.142 599.024L199.773 598.519L202.277 597.646L203.688 593.324L203.743 593.156L203.896 593.068L208.926 590.139L211.231 587.586L210.32 586.218L210.128 585.93L218.501 575.932L218.659 575.745L220.508 575.929L222.945 572.97L223.114 572.764L223.378 572.807L232.297 574.294L232.481 564.646H234.424L234.325 571.87Z" fill="white"/>
<path d="M332.741 675.415L338.576 677.269L338.665 677.297L344.756 682.454L344.771 682.468L344.787 682.483L350.877 688.667L352.381 688.835L352.515 688.85L352.62 688.934L357.344 692.733L357.368 692.753L357.389 692.775L363.126 698.803L362.51 701.09L363.921 701.758L364.059 701.824L366.91 707.148L366.997 707.311L366.948 707.489L366.548 708.955L361.058 707.457L354.995 707.181L354.645 707.165L353.392 701.769L349.668 698.22L343.046 695.679L335.509 694.76L335.436 694.751L329.79 692.122L327.795 683.187L327.778 683.108L327.788 683.03L328.528 677.006L328.565 676.715L328.841 676.622L332.454 675.417L332.597 675.37L332.741 675.415Z" fill="white"/>
<path d="M303.812 681.431L309.461 682.821L309.624 682.861L311.217 685.018L317.876 687.58L318.456 685.985L318.504 685.854L321.766 683.454L321.934 683.331L324.731 683.93L325.004 683.989L327.448 692.645L330.042 694.807L336.075 696.519L343.036 696.061L343.17 696.053L343.288 696.116L348.568 698.99L348.65 699.034L348.708 699.108L350.79 701.711L346.765 706.819L346.616 707.01L346.374 706.996L336.895 706.438L336.866 706.432L326.77 704.485L326.731 704.478L326.694 704.465L321.785 702.611L321.746 702.596L321.711 702.575L313.252 697.515L300.408 694.67H294.787L294.685 694.617L289.649 691.955L289.582 691.827L288.656 690.067L288.635 690.027L288.623 689.985L287.968 687.799L295.759 682.698L295.843 682.643L303.721 681.409L303.812 681.431Z" fill="white"/>
<path fill-rule="evenodd" clip-rule="evenodd" d="M424.71 636.677L431.241 638.609L436.535 639.058L441.146 636.888L441.297 636.816L447.632 638.449L447.685 638.479L453.891 642L453.957 642.038L454.009 642.095L457.722 646.265L461.417 647.498L468.651 647.223L468.695 647.222L468.74 647.229L472.908 647.877L472.999 647.891L476.773 650.194L480.841 650.368L483.197 648.576L483.409 648.625L490.45 650.294L490.872 650.394L490.8 650.823L490.446 652.903L490.675 652.474L490.773 652.287L490.979 652.24L499.315 650.293L499.494 650.252L499.654 650.345L503.452 652.57L503.743 652.74L503.114 655.572L503.094 655.658L503.044 655.733L494.708 667.965L494.685 668L494.657 668.029L489.218 673.582L489.247 673.216L488.927 673.575L486.519 676.262L486.483 676.302L486.44 676.332L481.531 679.761L481.379 679.867L481.196 679.84L477.136 679.221L474.888 681.039L474.786 681.122L471.674 681.536L471.517 681.402L467.719 678.159L467.606 678.063L467.571 677.919L466.892 675.204L465.101 674.633L464.982 674.595L464.898 674.503L462.581 671.946L461.287 673.613L453.815 665.438L453.855 665.212L454.354 662.471L451.019 660.504L450.952 660.464L450.901 660.404L449.115 658.293L446.75 659.697L446.534 659.604L444.588 658.77L444.535 658.747L444.489 658.712L436.893 652.873L436.799 652.801L436.752 652.693L435.781 650.485L429.091 645.466L427.025 646.747L426.78 646.357L424.776 643.168L421.12 639.875L421.043 639.806L421.002 639.711L420.034 637.409L424.503 636.664L424.608 636.647L424.71 636.677ZM487.123 664.39L487.559 667.265L487.576 667.376L487.54 667.483L486.103 671.708L488.764 672.839L489.262 673.05L490.141 662.597L489.108 661.564L487.123 664.39Z" fill="white"/>
<path fill-rule="evenodd" clip-rule="evenodd" d="M912.261 297.557L917.075 297.652L917.157 297.687L930.012 303.147L939.46 306.668L939.513 306.688L939.56 306.72L945.395 310.706L945.412 310.718L945.429 310.731L955.503 319.054L961.228 322.842L961.309 322.896L961.361 322.976L965.993 330.113L966.017 330.151L966.034 330.192L967.873 334.793L971.71 341.224L968.021 346.673L971.929 347.711L972.009 347.732L972.077 347.78L974.678 349.611L974.73 349.722L976.953 354.448L977 354.549L976.997 354.658L976.719 364.853L976.718 364.911L976.702 364.967L975.498 369.229L975.487 369.268L975.47 369.304L970.93 378.757L970.918 378.785L970.901 378.811L964.89 387.969L960.101 396.998L953.544 414.832L951.61 422.384L949.769 436.938L951.601 449.771L959.236 464.129L968.305 477.647L968.372 477.747L968.381 477.868L968.679 481.541L967.056 482.847L967.041 482.94L966.83 483.046L966.777 483.073L964.69 484.753L964.52 484.891L961.62 484.29L961.494 484.265L961.4 484.177L955.482 478.718L943.729 469.089L943.722 469.083L914.177 443.918L914.338 443.593L914.524 443.223L914.788 442.693L937.555 462.07L955.06 476.435L955.068 476.441L955.077 476.449L962.214 482.858L964.161 483.345L966.204 482.322L966.875 478.294L961.891 471.221L961.882 471.208L961.873 471.195L954.186 458.498L954.175 458.48L954.166 458.46L949.319 448.483L949.308 448.416L948.474 443.319L948.469 443.286V443.254L948.283 433.615L948.282 433.58L948.287 433.546L949.121 427.151L949.124 427.128L949.129 427.106L951.167 418.394L951.171 418.378L951.175 418.364L954.046 409.003L954.055 408.976L959.243 395.168L959.25 395.147L959.26 395.127L961.483 390.586L961.497 390.558L961.514 390.531L965.757 384.206L960.63 381.678L960.415 383.975L960.404 384.093L960.337 384.191L958.207 387.342L958.132 387.453L958.01 387.507L954.212 389.175L954.184 389.187L954.155 389.196L944.55 391.968L934.86 396.4L934.849 396.406L934.838 396.41L923.615 400.883L922.755 402.7L922.516 402.738L914.701 404.026L908.355 406.838L903.54 411.897L916.487 412.81L914.545 415.863L912.119 414.597L901.793 413.699L896.964 419.247L893.328 424.444L912.193 440.529L911.561 441.162L911.259 441.464L888.611 422.283L888.609 422.281L862.118 399.575L862.057 399.523L861.647 398.804L861.487 398.525L882.02 373.89L881.37 370.786L880.363 371.439L880.133 371.587L877.114 369.976L876.889 369.856L876.688 367.151L874.784 361.069L871.073 356.12L871.465 354.943L871.259 354.921L864.824 354.195L863.146 355.071L864.015 358.393L871.201 361.713L871.272 361.872L875.87 372.269L878.718 375.218L877.011 378.935L876.985 378.994L876.944 379.043L865.55 392.388L864.815 391.826L869.539 384.876L869.557 384.849L869.579 384.825L875.651 378.123L871.742 371.279L871.717 371.234L871.702 371.183L870.518 367.266L868.144 363.747L863.382 362.128L863.279 362.093L861.869 360.682L853.552 365.063L853.171 366.492L852.942 366.574L846.914 368.734L845.829 370.984L849.068 374.926L849.137 375.009L849.161 375.115L850.181 379.47L850.19 379.508L850.192 379.548L850.562 385.572L850.571 385.715L850.497 385.838L849.861 386.897L854.296 390.813L854.454 390.951V393.16L848.509 388.275L848.48 388.251L848.456 388.223L842.435 381.364L842.414 381.342L842.397 381.315L838.322 375.199L838.302 375.17L835.417 369.022L835.405 368.998L835.396 368.972L832.154 359.241L832.073 358.996L832.238 358.798L833.628 357.13L833.777 356.95L843.44 357.518L852.784 357.426L858.803 354.91L861.095 352.207L857.487 346.972L857.793 345.028L857.806 344.948L857.845 344.877L861.279 338.605L857.616 337.435L855.006 338.446L850.73 343.455L850.636 343.565L850.495 343.602L846.976 344.529L846.909 344.546L846.839 344.543L830.723 343.895L830.636 343.892L830.557 343.857L827.779 342.653L827.669 342.606L827.597 342.512L825.652 340.009L825.607 339.952L825.582 339.884L819.932 324.407L819.915 324.361L819.908 324.312L819.341 320.243L819.36 320.161L820.934 313.21L820.954 313.125L821.003 313.053L822.763 310.457L822.791 310.415L830.052 303.523L830.165 303.417L830.319 303.399L834.394 302.935L834.54 302.919L834.67 302.99L836.631 304.069L838.688 307.465L837.404 309.756L840.484 313.95L842.213 314.643L842.389 314.713L842.465 314.886L844.14 318.678L850.424 320.655L850.572 320.702L850.663 320.829L854.09 325.648L854.13 325.704L856.494 332.799L856.414 335.27L862.996 335.188L863.157 331.895L862.171 327.95L860.139 324.622L858.361 318.445L858.345 318.389L858.344 318.33L858.152 311.679L858.365 311.537L861.134 309.689L863.308 311.271L875.979 311.182L882.601 306.526L883.662 303.785L883.695 303.697L883.76 303.63L886.224 301.076V298.493L888.987 298.954L889.125 298.976L889.227 299.073L892.125 301.797L896.355 301.268L896.482 301.252L905.064 305.019L905.12 304.019L905.134 303.77L909.578 301.177L909.67 299.253L911.987 297.641L912.111 297.555L912.261 297.557ZM872.323 352.366L872.405 352.119L872.396 352.079L872.323 352.366Z" fill="white"/>
<path d="M675.573 306.647L675.624 306.655L675.672 306.674L692.098 313.229L694.903 313.501L695.019 313.512L695.116 313.577L702.005 318.172L701.991 318.438L701.827 321.298L707.336 322.676L714.236 322.953L714.546 322.965L715.233 324.833L718.839 326.466L727.185 325.83L735.186 323.07L735.244 323.05L735.307 323.046L741.081 322.679L743.526 321.864L743.648 321.823L750.442 323.334L750.631 323.375L752.014 325.575L753.753 324L761.897 326.809L765.619 325.125L765.792 325.046L765.97 325.112L767.589 325.709L772.329 324.392L774.074 322.648L774.4 323.015L775.751 324.536L781.855 324.806L782.022 324.814L782.146 324.926L785.282 327.778L785.322 327.879L786.781 331.577L786.707 331.752L784.691 336.518L783.908 341.128L788.392 345.178L780.879 345.285L779.395 346.399H775.431L770.852 348.022L770.664 347.908L768.26 346.447L765.249 347.543L760.274 345.607L751.934 349.689L751.827 349.741L750.741 349.684L751.96 352.123L752.094 352.392L749.699 355.31L749.591 355.354L743.773 357.74L743.604 357.677L741.441 356.875L739.978 358.989L739.844 359.182L732.746 359.371L728.654 361.009L728.612 361.025L728.568 361.034L719.371 362.777L719.243 362.394L717.718 357.816L714.144 355.402L714.036 355.33L713.982 355.211L712.458 351.894L708.66 349.217L704.963 350.166L704.776 349.928L701.071 345.202L700.998 345.109L700.978 344.992L700.49 342.059L698.676 342.136L698.527 342.141L698.403 342.061L693.709 338.989L691.04 339.082L690.928 339.019L686.297 336.423L686.242 336.394L686.199 336.35L681.762 332.002L672.082 330.293L672.074 329.913L671.992 326.368L665.401 327.437L662.729 324.19L660.643 323.583L660.457 323.528L660.365 323.358L657.309 317.704L657.271 317.635L657.259 317.556L656.632 313.587L657.078 313.507L662.51 312.526L664.67 308.582L664.95 308.587L669.073 308.675L671.061 306.168L671.23 305.955L675.573 306.647Z" fill="white"/>
</svg>
