<svg width="1000" height="1000" viewBox="0 0 1000 1000" fill="none" xmlns="http://www.w3.org/2000/svg">
<path d="M868.089 176.425C865.159 177.207 861.643 178.672 860.276 179.55C858.909 180.527 855.198 181.894 852.073 182.578C846.409 183.945 846.116 183.847 841.624 181.308C837.132 178.769 836.936 178.769 832.737 180.332C830.491 181.211 826.585 183.75 824.143 185.996C819.554 190.293 814.182 192.929 812.522 191.855C811.936 191.562 809.397 192.148 806.956 193.222C804.417 194.394 801.585 195.273 800.608 195.273C798.069 195.273 797.288 198.789 799.241 201.816C800.413 203.574 800.706 205.234 800.218 207.871C799.827 209.824 799.339 217.343 799.143 224.57L798.851 237.754L806.565 245.566L814.378 253.379L814.964 260.898C815.647 268.222 814.378 274.375 812.327 274.375C810.081 274.375 802.464 267.929 800.511 264.316C798.655 260.996 797.19 259.824 792.308 257.773C789.085 256.406 784.593 253.574 782.347 251.328C777.854 246.933 773.753 245.371 761.643 243.613C751.878 242.246 746.897 243.808 738.987 250.644L733.03 255.722L721.702 255.234C712.522 254.746 709.886 254.257 707.64 252.695C703.929 250.156 700.804 251.035 698.167 255.332C695.237 260.117 689.378 262.949 684.397 262.168C679.905 261.386 674.534 262.949 670.14 266.367C667.503 268.32 666.917 269.394 666.917 272.519C666.917 274.57 666.331 278.281 665.745 280.722C664.671 284.726 663.89 285.605 659.104 288.437C656.175 290.293 651.976 291.953 649.827 292.246C647.679 292.539 645.14 293.027 644.261 293.418C642.21 294.297 638.597 288.828 638.597 284.824C638.597 281.992 635.862 280.234 631.37 280.234C630.101 280.234 628.44 279.453 627.561 278.476C626.097 276.816 624.143 276.718 606.175 276.816C587.522 277.011 586.058 277.109 582.151 279.257C578.05 281.406 577.561 281.406 569.456 280.332C564.28 279.55 559.886 278.379 558.323 277.207C555.979 275.644 553.929 275.351 542.308 275.351C530.686 275.351 528.538 275.644 525.804 277.304C523.069 278.964 522.483 279.062 520.823 277.793C517.698 275.449 511.643 276.035 507.054 279.062C502.659 281.992 497.483 288.437 496.507 292.148C496.116 293.418 495.042 295.468 493.968 296.738C492.405 298.593 491.819 298.789 490.647 297.812C489.866 297.129 489.183 295.664 489.183 294.492C489.183 293.418 488.401 291.269 487.425 289.804C485.862 287.363 485.472 287.265 483.714 288.437C482.737 289.121 480.198 290.293 478.147 290.879C476.097 291.562 473.753 293.125 472.972 294.394C471.507 296.64 471.311 296.64 467.503 295.273C464.183 294.101 463.304 294.101 460.862 295.371C457.933 296.836 452.073 304.746 448.362 311.972C446.214 316.367 443.186 331.601 443.577 336.777C443.675 339.218 443.186 340.488 441.331 341.855C438.499 344.004 429.905 345.664 427.073 344.589C426.097 344.199 422.581 343.808 419.261 343.808C412.425 343.711 411.741 344.199 408.128 352.207C405.882 356.992 403.147 359.336 399.827 359.336C398.948 359.336 398.362 360.312 398.362 361.582C398.362 364.902 395.433 367.148 390.94 367.148C388.89 367.246 386.058 367.832 384.69 368.613C383.323 369.394 380.979 369.98 379.417 370.078C375.706 370.078 370.335 374.277 369.554 377.695C369.261 379.257 369.456 381.601 369.944 382.968C370.921 385.507 370.237 389.804 367.991 395.566C366.136 400.351 359.3 399.179 359.3 394.199C359.3 393.32 357.933 389.414 356.175 385.703C352.464 377.304 349.046 374.668 346.018 377.988C342.796 381.504 341.233 381.894 336.253 380.136C327.757 377.304 324.632 374.57 324.632 370.078C324.632 367.929 324.241 367.636 321.214 367.832C313.987 368.125 300.999 370.175 297.483 371.543C292.308 373.593 289.28 373.398 284.202 370.371L279.808 367.832L271.214 369.589C263.987 371.054 262.132 371.152 259.886 370.078C258.226 369.394 253.44 368.906 247.386 369.004L237.522 369.101L234.202 363.632C227.464 352.5 227.073 352.109 222.093 350.351C219.358 349.375 214.671 347.91 211.546 347.129C206.077 345.664 205.784 345.664 200.999 348.007C195.042 350.839 192.698 350.351 186.448 344.98C180.101 339.511 171.507 335.898 161.058 334.238C151.878 332.871 151.585 332.871 140.745 335.507L129.71 338.144L124.046 335.019C119.163 332.48 117.308 331.992 111.351 331.992C104.808 331.992 104.417 332.089 104.417 334.14C104.319 335.41 103.733 337.461 102.952 338.828C102.171 340.195 101.585 343.906 101.487 347.129C101.487 351.23 100.706 354.55 99.0458 358.164C97.6786 361.093 96.6044 364.218 96.6044 365.195C96.6044 368.222 92.0146 368.906 84.6904 367.05C81.8583 366.269 77.9521 366.172 72.7763 366.757L65.1591 367.636L62.62 372.031C61.2529 374.472 59.8857 377.695 59.5927 379.355C59.0068 381.797 57.7372 382.773 51.1943 385.996C46.8974 388.047 41.8193 391.269 39.9638 393.027C35.9599 396.933 30.5888 399.375 26.0966 399.375C18.9677 399.375 18.4794 399.863 18.4794 407.285C18.4794 412.168 18.0888 414.316 16.9169 415.195C13.6943 417.832 11.9365 419.589 10.5693 421.445C9.78802 422.519 7.24896 424.472 4.80755 425.839C-0.270575 428.574 -0.954168 430.429 1.78021 434.238C2.85443 435.703 4.41693 439.804 5.39349 443.32C6.27239 446.836 7.73724 450.449 8.51849 451.328C9.88568 452.89 9.88568 455.429 8.51849 464.316C8.32318 465.879 8.81146 466.367 11.7411 466.562C14.7685 466.855 15.8427 466.269 18.6747 463.437C21.3115 460.703 22.288 460.312 23.7529 461.093C24.7294 461.582 27.0732 461.875 29.0263 461.582C32.0536 461.289 33.0302 461.582 35.081 464.023C37.3271 466.66 37.7177 466.757 40.5497 465.683C43.1865 464.609 44.0654 464.707 47.0927 466.66C51.3896 469.297 54.6122 473.203 54.6122 475.644C54.6122 477.597 56.8583 477.793 74.1435 477.988C79.7099 478.086 84.3974 479.746 85.2763 481.992C86.0575 484.043 81.4677 496.64 78.7333 499.863C77.3661 501.523 75.999 503.672 75.706 504.55C75.413 505.527 72.874 507.578 70.1396 509.14C67.3075 510.703 62.0341 514.707 58.3232 518.125C53.4404 522.617 50.8036 524.375 48.8505 524.375C46.7997 524.375 45.5302 525.254 43.7724 527.988C41.8193 531.015 40.7451 531.797 37.5224 532.187C33.7138 532.675 33.6161 532.773 33.3232 536.679C33.1279 539.316 33.5185 541.074 34.5927 541.953C37.5224 544.394 36.4482 549.277 31.663 554.648C29.2216 557.382 27.2685 560.117 27.2685 560.8C27.2685 562.754 31.1747 567.539 37.3271 573.203L42.9911 578.379L47.3857 576.328C49.7294 575.156 52.1708 574.179 52.7568 574.179C53.3427 574.179 54.9052 573.3 56.2724 572.226C58.3232 570.566 60.2763 570.273 67.3075 570.273H75.8036L76.4872 573.886C76.7802 575.937 77.0732 580.82 77.0732 584.726C77.0732 591.562 76.9755 591.953 73.5575 595.468C71.6044 597.422 69.456 600.254 68.7724 601.621C67.9911 602.988 65.745 605.82 63.5966 607.968C60.8622 610.703 59.495 613.047 59.0068 615.683C58.6161 617.832 57.7372 620.957 56.956 622.714C55.1005 626.816 55.1982 629.746 57.5419 633.261C58.7138 635.117 59.495 637.851 59.495 640.586C59.495 646.543 63.1083 651.816 68.0888 653.183C70.0419 653.769 74.4365 654.257 77.8544 654.257H84.0068L92.1122 661.875C103.245 672.422 106.175 674.472 111.448 675.644C113.987 676.23 117.112 677.207 118.382 677.793C122.19 679.55 131.761 693.32 137.132 705.039L142.015 715.683L149.632 720.566C158.909 726.621 159.397 728.672 153.05 734.824C150.706 737.07 147.972 740.39 146.897 742.246C144.456 746.347 134.69 751.816 129.808 751.914C125.315 751.914 118.675 749.765 112.913 746.543C108.518 744.004 107.64 743.906 101.194 744.492C94.6513 745.078 92.0146 745.859 94.163 746.64C94.749 746.836 96.6044 748.007 98.4599 749.277C100.315 750.449 102.659 751.914 103.733 752.597C106.468 754.16 107.347 755.918 106.761 758.457C106.272 760.214 106.761 760.898 108.714 761.679C111.936 762.851 111.936 765.195 108.714 765.976C107.054 766.464 105.589 766.172 104.515 765.097C102.366 763.242 101.585 763.242 99.4365 765.195C98.1669 766.367 97.288 766.464 95.7255 765.683C94.6513 765.097 92.9911 764.609 91.9169 764.609C88.6943 764.609 79.7099 767.832 77.8544 769.687C76.0966 771.445 73.3622 771.347 66.624 769.394C63.9872 768.515 63.3036 768.711 60.9599 771.054C58.8115 773.203 57.8349 773.496 55.0029 773.007C51.9755 772.422 51.6825 772.519 51.6825 774.668C51.6825 777.5 54.5146 780.234 57.3466 780.234C59.9833 780.234 59.9833 780.82 57.5419 785.605C55.2958 790 55.0029 793.808 56.8583 796.054C60.5693 800.644 76.5849 809.043 83.4208 809.922C87.4247 810.41 89.2802 810.019 93.4794 808.066C96.4091 806.699 99.2411 805.625 99.8271 805.625C100.413 805.625 102.268 804.355 103.929 802.695L106.858 799.863L112.62 801.914C118.186 803.964 118.479 803.964 122.972 802.402C130.101 799.863 130.784 800.058 130.784 804.941C130.784 810.8 133.128 812.851 138.597 811.972C141.917 811.386 142.893 811.582 143.968 813.144C144.944 814.414 145.726 814.609 146.702 813.925C147.483 813.339 149.143 812.168 150.511 811.289C152.171 810.019 155.491 809.433 162.62 809.043C175.12 808.457 178.147 807.48 183.226 802.597L187.327 798.496L185.472 795.859C184.202 794.101 183.909 792.832 184.593 791.855C185.081 791.172 185.472 788.925 185.472 787.07C185.472 783.945 185.96 783.359 190.354 780.918L195.335 778.086L199.632 781.601C201.976 783.554 204.808 786.386 205.882 787.949C207.737 790.488 208.616 790.781 215.452 791.367C226.194 792.246 226.292 792.246 230.589 790.097L234.593 788.144L239.378 793.515C242.601 797.031 245.042 798.789 246.507 798.789C248.655 798.789 255.784 795.273 255.784 794.199C255.784 793.906 254.808 792.929 253.733 792.05C249.143 788.437 254.808 780.234 261.839 780.234C264.476 780.234 264.476 780.234 264.768 788.242C265.061 795.468 265.257 796.347 267.015 796.64C268.382 796.738 269.651 795.761 271.214 793.418C273.558 789.707 275.413 789.316 282.737 790.976C291.917 793.125 296.702 792.539 305.589 788.339C310.179 786.093 315.843 783.847 318.284 783.164C323.948 781.699 324.436 781.113 328.245 774.277C330.491 770.273 332.054 768.515 333.323 768.515C334.397 768.515 336.741 767.539 338.499 766.269L341.722 764.121V751.816C341.722 740.976 341.917 739.316 343.577 737.851C344.651 736.875 346.311 736.289 347.288 736.484C348.265 736.582 350.413 736.191 352.073 735.507C354.808 734.336 355.393 733.359 356.663 728.183C357.542 724.863 358.518 719.882 358.909 717.246C359.69 711.289 360.96 709.433 362.913 710.996C363.89 711.875 364.866 711.875 366.722 710.996C368.089 710.41 369.554 709.922 370.042 709.922C370.628 709.922 371.018 714.218 371.018 719.98V730.039L375.511 734.433C377.952 736.777 380.979 740.39 382.347 742.441C385.374 747.031 392.015 751.914 395.433 751.914C396.995 751.914 399.143 753.086 401.097 755.136L404.222 758.359L402.757 762.754C401.878 765.097 400.901 769.98 400.608 773.593L400.022 780.234H402.659C404.222 780.234 406.468 779.355 407.835 778.281C410.276 776.328 410.276 776.328 413.108 778.379C414.671 779.453 416.624 781.699 417.405 783.261C418.577 785.41 419.651 786.093 421.702 786.093C423.265 786.093 424.729 786.679 425.022 787.461C425.315 788.242 427.659 789.414 430.198 790.195C434.397 791.367 435.081 791.953 437.815 797.324C439.476 800.547 441.331 804.257 441.819 805.625C443.186 809.14 447.483 809.238 458.811 806.113C471.995 802.402 472.972 801.328 473.558 789.218L474.046 779.746L476.976 779.941C478.831 780.136 480.784 781.211 482.347 783.066C487.132 788.828 493.284 792.929 497.19 792.929C499.143 792.929 501.976 793.418 503.538 794.004C505.003 794.589 508.421 795.273 511.058 795.468C518.968 796.054 522.386 797.617 523.948 801.328C525.901 806.015 530.784 811.191 534.397 812.363C536.448 813.047 538.987 815.293 541.233 818.32C545.53 824.082 550.706 826.23 555.979 824.375C557.737 823.691 560.765 823.203 562.718 823.203C566.038 823.203 566.722 822.714 570.823 816.953C576.585 808.945 580.393 807.382 588.206 809.824C591.038 810.703 595.14 811.484 597.386 811.484C600.999 811.484 602.073 810.898 607.542 805.527C610.96 802.304 614.671 798.691 615.94 797.519C617.112 796.445 618.089 794.785 618.089 793.906C618.089 792.148 613.987 788.73 610.569 787.656C609.495 787.265 606.761 785.703 604.515 784.14C599.241 780.234 592.698 767.636 592.015 759.824C591.819 756.797 590.745 752.597 589.768 750.449C586.448 743.222 586.351 741.757 589.671 740.488C591.526 739.804 593.186 738.047 594.358 735.703C596.116 731.992 596.214 731.992 601.292 732.285C606.175 732.48 606.37 732.382 606.37 730.039C606.37 728.379 606.761 727.695 607.737 728.086C609.495 728.769 613.206 723.984 613.206 720.957C613.206 718.222 609.3 711.093 606.37 708.457C605.003 707.285 603.636 706.894 601.487 707.285C597.581 708.164 597.581 705.918 601.487 701.914C603.44 699.961 604.222 698.593 603.538 697.812C603.05 697.226 602.073 694.199 601.39 691.074C600.706 687.949 599.632 684.726 598.948 683.75C597.19 681.308 593.382 683.75 590.55 689.316C588.401 693.515 588.304 694.199 589.476 699.668C591.429 708.945 589.866 710.214 583.714 704.55C581.663 702.695 579.612 699.472 578.929 697.226C577.854 693.906 577.366 693.32 574.925 693.32C572.288 693.32 572.19 693.125 572.19 689.023C572.19 684.043 572.972 683.164 576.487 684.531C578.733 685.312 579.319 684.922 583.128 680.722C585.472 678.086 588.792 675.254 590.55 674.375C593.186 673.007 593.675 672.226 593.675 669.101C593.772 663.632 596.8 660.8 605.296 658.261C610.179 656.797 613.206 655.234 614.476 653.574C616.331 651.23 616.722 651.23 626.683 651.523L636.936 651.816L636.741 645.664C636.546 640.586 636.839 639.218 638.304 638.047C641.136 635.898 644.163 636.386 646.409 639.414C648.069 641.562 649.046 642.05 651.292 641.757C654.417 641.269 657.737 638.144 658.323 635.214C658.616 633.457 659.3 633.261 664.28 633.554C669.847 633.945 669.847 633.945 671.311 630.527C672.093 628.672 673.265 626.914 673.948 626.621C674.632 626.425 679.124 628.867 683.811 631.992L692.405 637.754L694.358 635.312C695.628 633.652 697.288 632.773 699.046 632.773C700.608 632.773 703.147 632.285 704.808 631.699C707.347 630.82 708.03 629.746 709.69 624.668C710.862 620.859 711.253 618.027 710.667 616.953C708.909 613.437 709.788 607.773 712.425 605.332C713.792 604.062 715.843 601.23 716.917 599.179C718.968 595.078 718.968 595.468 717.015 574.57C716.722 570.566 716.917 567.832 717.796 566.269C718.479 565 719.358 562.168 719.749 560.019C720.042 557.871 721.409 553.379 722.581 550.156L724.827 544.101L722.679 541.464C719.358 537.168 713.694 533.359 709.397 532.675C706.663 532.187 704.417 530.82 701.976 528.183C699.925 526.035 697.093 524.082 695.335 523.789C693.479 523.398 692.112 522.422 691.722 521.054C691.331 519.98 690.061 517.832 688.89 516.367C685.667 512.558 684.886 502.988 687.327 496.054C688.401 493.125 689.671 490.586 690.257 490.39C690.843 490.195 693.382 486.972 695.823 483.261C699.827 477.402 700.315 476.132 699.339 474.179C697.679 470.371 699.436 469.687 710.862 469.687C718.675 469.687 721.702 469.297 723.362 468.125C726.097 466.269 728.147 467.539 728.636 471.445C728.929 473.789 729.417 474.082 732.835 474.277C736.155 474.472 737.132 474.082 739.183 471.445C741.429 468.515 742.893 461.191 743.284 450.547C743.284 448.789 745.628 447.519 757.151 442.832C768.87 438.047 772.093 437.07 779.222 436.582C785.667 436.093 788.499 435.41 791.917 433.457C794.358 432.089 797.776 430.625 799.632 430.234C801.683 429.843 805.296 427.695 808.421 424.863C811.448 422.324 814.964 419.785 816.331 419.394C820.042 418.222 824.827 414.218 825.999 411.191C826.878 409.336 826.878 407.285 826.194 404.16C825.608 401.816 825.12 399.57 825.12 399.179C825.12 398.886 827.464 398.398 830.296 398.105C838.499 397.422 842.698 395.859 846.507 392.148C848.46 390.195 850.706 388.632 851.39 388.632C852.073 388.632 854.515 390.586 856.858 393.027C861.35 397.617 862.132 397.812 876.39 397.519C878.05 397.519 881.077 397.422 883.225 397.422C886.155 397.324 887.522 397.812 888.499 399.375C889.475 400.839 890.843 401.328 894.358 401.328C900.999 401.328 901.585 400.644 901.097 393.418C900.804 388.144 900.12 386.289 896.8 381.308C893.284 376.132 892.893 374.961 893.284 370.957C893.577 367.734 893.089 365.293 891.624 362.461C890.159 359.629 889.573 356.601 889.573 352.109C889.573 346.445 889.866 345.566 892.307 343.32C893.772 342.05 896.897 339.121 899.339 336.972C902.171 334.336 904.515 332.968 906.272 332.968C909.886 332.968 912.034 332.089 912.034 330.527C912.034 328.672 914.671 327.988 917.6 329.16C919.163 329.746 921.702 329.941 923.362 329.55C925.413 329.16 926.78 329.453 927.659 330.527C928.343 331.308 929.612 331.992 930.589 331.992C931.468 331.992 933.03 332.871 934.007 333.945C936.253 336.386 942.112 338.437 943.479 337.07C945.432 335.117 957.542 344.394 961.057 350.644C963.206 354.55 964.573 355.234 966.429 353.379C967.112 352.695 968.87 353.086 972.386 354.843C977.366 357.382 982.054 357.968 985.765 356.504C986.839 356.015 988.987 356.113 990.55 356.699C992.6 357.382 994.065 357.285 996.604 356.113C1002.46 353.281 1000.02 351.23 991.331 351.621C987.425 351.816 985.374 351.23 980.784 348.593C969.651 342.343 967.698 340.879 967.698 338.535C967.698 336.289 966.331 327.109 965.159 321.543C964.378 317.636 960.96 314.414 956.761 313.535C954.124 312.949 953.44 312.265 952.561 309.238C950.999 303.672 943.87 295.175 938.401 292.441C935.765 291.074 933.421 289.218 933.128 288.339C932.835 287.363 930.589 285.41 928.147 283.945C922.776 280.625 922.093 279.257 923.948 274.57C925.218 271.347 925.706 270.957 928.44 271.152C931.175 271.445 931.565 271.152 932.054 268.222C932.444 266.562 932.542 262.851 932.347 260.214L932.054 255.332L928.147 255.039C925.999 254.941 922.581 254.355 920.53 253.672C917.307 252.695 916.819 252.207 917.112 250.058C917.405 246.543 916.233 245.078 913.011 245.078C910.472 245.078 909.983 244.589 908.421 239.511C907.347 236.093 905.491 232.773 903.44 230.82C900.218 227.695 900.218 227.597 901.682 224.668C903.538 221.25 902.854 218.906 899.729 217.636C897.972 217.05 897.386 216.074 897.386 214.023C897.386 211.777 898.069 210.898 901.585 209.238C905.1 207.48 905.979 206.504 907.249 202.5C908.518 198.203 908.518 197.226 907.151 192.539C906.077 188.73 905.1 187.265 903.538 186.875C902.268 186.484 901.292 185.703 901.292 184.922C901.292 184.238 900.12 183.359 898.655 182.968C897.093 182.675 894.749 181.015 893.382 179.355C891.331 177.011 889.671 176.23 885.569 175.644C878.245 174.57 874.339 174.765 868.089 176.425Z" fill="white"/>
<circle id="612" cx="306" cy="520" fill="#5CE50D"/>
<circle id="613" cx="721" cy="331" fill="#E52A0D"/>
<circle id="1079" cx="105" cy="771" fill="#E52A0D"/>
<circle id="1498" cx="550" cy="644" fill="#E52A0D"/>
</svg>
