<svg width="1000" height="1000" viewBox="0 0 1000 1000" fill="none" xmlns="http://www.w3.org/2000/svg">
<path d="M463.884 264.986C463.031 266.218 459.241 270.482 455.261 274.651L448.154 282.043L441.994 281.379C436.498 280.811 435.456 281 432.897 282.801C431.097 284.128 430.054 285.644 430.054 287.065C430.054 288.297 429.201 291.424 428.254 293.983C426.927 297.299 426.738 299.005 427.401 300.237C428.443 302.037 427.117 303.648 424.748 303.648C423.611 303.648 420.578 310.187 420.578 312.556C420.578 314.262 409.965 315.493 407.406 314.072C404.658 312.651 398.215 312.935 396.888 314.546C395.467 316.346 385.517 316.536 385.517 314.83C385.517 314.262 385.99 312.366 386.559 310.755C387.507 308.292 387.317 307.06 385.611 303.269C384.569 300.711 383.621 296.731 383.621 294.267C383.621 287.065 382.105 286.118 369.218 285.265C360.5 284.601 359.647 284.696 353.582 287.349C347.138 290.003 347.044 290.003 344.296 288.297C340.979 286.307 337.378 286.118 330.555 287.634C326.291 288.581 325.533 288.487 324.491 286.97C323.543 285.738 322.501 285.454 319.563 285.928C315.109 286.686 313.024 288.96 312.266 293.888C311.793 296.92 311.034 297.868 308.381 299.195C306.107 300.237 304.212 302.227 302.695 305.259C299 312.272 297.863 313.409 295.209 312.745C292.082 311.987 290.187 314.451 289.524 320.137C288.955 325.443 286.681 327.907 278.152 332.55C274.741 334.446 254.841 340.605 252.283 340.605C252.093 340.605 251.904 341.174 251.904 341.837C251.904 342.595 250.672 344.206 249.155 345.627C247.165 347.333 246.123 349.323 245.744 352.355C245.365 354.63 245.365 356.999 245.649 357.473C245.934 358.041 245.176 360.694 243.849 363.537C242.522 366.285 241.48 369.602 241.48 370.929C241.48 372.255 240.627 374.34 239.585 375.667C238.258 377.372 237.689 379.552 237.689 383.248C237.595 391.681 235.415 399.167 232.098 402.579C229.161 405.516 229.066 405.516 217.316 405.801L205.565 406.18L203.67 409.117C202.723 410.823 201.585 414.234 201.206 416.888C200.827 419.446 199.69 423.332 198.648 425.416L196.658 429.301L188.508 429.491C179.411 429.68 181.022 428.733 171.925 439.63C167.851 444.558 163.681 446.737 158.659 446.737C154.584 446.737 148.804 449.391 148.14 451.57C147.477 453.466 140.654 454.697 135.347 453.845C132.884 453.466 131.462 452.613 130.799 451.096C129.472 448.064 123.692 447.306 121.323 449.865C118.29 453.276 114.879 454.413 110.71 453.466C107.203 452.707 104.171 450.338 104.076 448.443C104.076 448.064 103.034 447.211 101.802 446.548C92.326 441.336 89.5779 440.104 85.5032 439.63C81.1442 438.967 80.4809 439.251 76.8799 442.094C74.7004 443.895 71.4785 446.169 69.7729 447.211C67.5933 448.538 65.6981 451.096 63.6134 455.455C61.7182 459.341 59.8229 461.994 58.591 462.373C57.5487 462.657 55.7482 464.742 54.6111 466.922C53.5687 469.101 51.6735 472.133 50.5364 473.744C49.3045 475.261 48.0726 477.63 47.6935 478.956C47.3145 480.283 45.9878 482.557 44.8507 484.168C43.7136 485.684 42.2922 488.906 41.6288 491.275C39.7336 498.287 38.5965 500.562 36.2274 502.173C34.3322 503.405 33.9532 504.447 33.9532 508.427C33.9532 510.985 34.427 515.06 34.9956 517.429C36.0379 521.599 36.0379 521.788 33.1951 524.726C31.6789 526.432 30.068 528.706 29.7837 529.843C29.4047 530.98 28.2675 532.212 27.2251 532.496C25.8985 532.97 25.5195 533.633 25.8985 534.865C26.2775 536.192 25.8985 536.666 24.2876 536.95C22.9609 537.139 21.1604 538.845 19.4547 541.688C16.991 545.668 16.8014 546.237 18.0333 548.606C19.2652 550.785 19.2652 551.733 18.0333 555.334C17.2752 557.608 16.3276 559.503 15.8538 559.503C15.38 559.503 15.001 561.872 15.001 564.715C15.001 569.169 15.2853 569.927 16.8014 569.927C19.6443 569.927 25.6142 576.371 24.8561 578.645C24.098 581.109 26.2775 588.879 27.7937 588.879C30.3523 588.879 32.3422 592.48 31.6789 596.27C31.2999 598.829 31.5842 601.008 32.6265 602.998C33.4794 604.704 34.6165 608.589 35.1851 611.811C36.5117 618.634 40.2074 623.467 45.7036 625.267C48.7359 626.31 49.9678 627.542 52.3368 631.901C54.9901 636.828 55.1797 637.397 53.6635 638.439C51.863 639.86 51.6735 640.619 51.863 648.294L51.9578 654.264H54.8006C56.4115 654.264 59.1596 655.117 61.0548 656.065C63.9924 657.676 65.6981 657.865 72.4262 657.391C79.0594 656.917 80.3861 657.012 80.3861 658.244C80.3861 660.992 84.6503 663.74 89.7674 664.404C94.4107 664.972 94.8845 665.256 98.2012 669.994C100.096 672.837 102.371 675.301 103.129 675.585C105.308 676.438 111.752 685.346 112.794 688.947C113.742 692.737 120.28 698.328 124.639 699.276C127.103 699.749 127.861 700.602 128.809 703.35C130.42 708.467 133.168 711.121 136.864 711.121C139.801 711.121 143.876 713.964 143.876 716.048C143.876 716.427 147.098 719.46 150.983 722.871C155.816 726.946 159.322 729.125 161.691 729.599C163.586 729.978 165.766 730.736 166.524 731.305C167.756 732.347 175.81 732.821 190.783 732.916C193.436 732.916 197.132 732.252 199.027 731.4C202.533 729.789 202.628 729.883 204.428 732.063L206.229 734.337L208.503 732.158C211.346 729.599 214.473 729.504 223.001 731.968C226.602 733.011 233.804 734.242 239.016 734.811C244.323 735.38 251.051 736.138 253.988 736.706C258.726 737.464 261.001 737.18 271.045 734.716C277.489 733.105 283.08 731.494 283.459 731.115C283.933 730.641 285.828 731.115 287.723 732.063C291.608 734.053 294.641 734.337 296.157 732.821C297.294 731.684 301.179 731.589 311.982 732.537C316.625 732.916 320.7 732.726 322.88 732.063C327.239 730.736 331.977 726.377 333.777 722.113C335.009 719.27 335.578 718.796 339.842 718.228C342.779 717.849 345.338 718.038 346.475 718.607C349.792 720.313 353.298 719.934 353.298 717.754C353.298 716.806 352.445 715.48 351.497 714.911C350.455 714.437 349.507 713.016 349.318 711.879C349.128 710.457 347.707 709.131 345.054 707.899C340.884 705.814 339.652 703.919 338.61 697.475C338.136 694.632 338.515 692.927 340.221 689.705C342.116 686.009 342.211 685.346 341.074 682.124C339.937 678.902 339.937 678.428 341.547 677.291C342.495 676.628 344.106 676.059 345.148 676.059C348.655 676.059 349.886 674.448 349.981 670.184C350.076 664.309 351.308 661.087 353.582 660.329C355.477 659.665 366.849 659.002 375.093 659.002C377.557 659.097 378.978 658.434 380.4 656.538L382.484 653.98L385.801 656.538C389.118 659.097 389.212 659.097 392.245 657.581C394.14 656.538 396.414 656.159 398.309 656.444C400.015 656.728 401.815 656.538 402.289 656.065C403.047 655.306 408.923 656.633 419.062 659.95C421.431 660.708 422.094 660.518 423.231 658.907C423.895 657.865 427.117 655.78 430.339 654.359C435.266 652.085 437.161 651.706 441.899 651.99C445.027 652.179 448.817 652.653 450.238 652.937C452.228 653.411 453.46 653.032 455.166 651.421L457.44 649.242L459.241 651.421L460.946 653.506L463.505 650.474C465.4 648.294 466.063 646.399 466.063 643.556C466.063 641.092 466.822 638.723 467.959 637.207C469.001 635.88 469.854 633.511 469.854 631.806C469.854 630.195 470.328 628.489 470.802 628.205C471.37 627.921 471.749 626.594 471.749 625.362C471.749 623.562 472.412 623.088 475.445 622.519C478.098 622.045 480.562 620.624 483.973 617.307C488.238 613.138 489.185 612.664 491.933 613.138C496.766 613.991 497.05 614.18 497.714 617.023C499.135 622.424 503.778 624.888 506.337 621.477C507.379 620.055 507.758 620.055 511.644 621.761C513.918 622.803 516.666 624.604 517.708 625.741C519.509 627.826 519.509 628.015 517.898 630.763C516.761 632.848 516.476 633.985 517.234 634.743C517.898 635.407 518.561 635.312 519.224 634.649C519.888 633.985 521.593 633.796 523.015 634.08C525.005 634.459 525.858 634.175 526.331 633.038C526.9 631.616 527.184 631.711 530.027 633.417C531.733 634.459 533.723 635.312 534.576 635.312C536.281 635.312 537.419 639.102 536.092 640.713C535.523 641.282 535.334 642.324 535.713 642.893C536.945 644.883 539.409 643.746 543.768 639.197C549.358 633.417 553.433 631.521 559.214 632.185C563.288 632.659 563.667 632.469 564.52 630.384C564.994 629.058 567.837 625.741 570.68 622.993C574.754 619.203 575.986 617.307 575.986 615.317C575.986 612.664 576.081 612.569 581.198 612.569C586.694 612.569 592.096 609.916 592.096 607.168C592.096 605.367 593.422 605.652 598.634 608.305L603.183 610.579L605.078 608.495C606.215 607.357 608.205 604.609 609.532 602.335C610.953 600.061 612.659 598.071 613.417 597.787C614.08 597.502 615.028 595.891 615.312 594.28C615.691 592.575 617.302 589.827 618.913 588.121C621.756 585.183 622.514 583.193 625.167 571.822C626.494 566.421 627.252 565.189 629.621 564.62C632.085 563.957 634.264 561.019 633.317 559.503C633.032 559.029 633.317 558.366 633.98 557.892C638.813 554.86 642.224 546.521 639.287 544.72C637.581 543.678 641.371 541.498 643.93 542.067C645.541 542.541 646.109 542.257 646.109 541.214C646.109 538.845 647.91 538.371 650.468 540.077C652.648 541.499 653.027 541.498 655.396 539.888C659.281 537.234 664.872 534.865 667.241 534.865C668.378 534.865 670.179 534.297 671.221 533.539C672.263 532.875 677.191 532.022 682.592 531.643C687.804 531.264 692.921 530.791 693.964 530.506C695.385 530.127 696.143 530.696 696.996 532.97C697.754 534.96 698.702 535.813 700.313 535.908C710.168 536.192 710.831 536.381 711.874 538.087C714.527 542.636 716.138 543.488 721.729 543.299C727.983 543.109 736.132 544.247 737.838 545.573C738.407 546.047 738.975 547.279 738.975 548.227C738.975 549.364 740.018 550.406 741.439 550.975C744.661 552.206 744.566 552.206 745.609 549.648C746.177 548.132 747.978 546.805 751.01 545.668C753.474 544.815 756.222 543.488 757.075 542.73C757.833 542.067 759.254 541.499 760.107 541.499C760.96 541.499 761.907 541.025 762.192 540.456C762.665 539.793 763.329 539.982 764.371 540.835C766.74 542.92 773.089 544.436 774.984 543.394C775.932 542.92 776.88 540.835 777.259 538.75C777.922 534.486 778.775 534.107 789.672 533.633C794.505 533.444 795.358 533.16 795.642 531.549C796.211 528.516 797.443 527.948 799.338 529.653C802.37 532.307 808.34 536.76 809.098 536.76C809.477 536.76 810.141 538.561 810.615 540.74C811.657 545.763 816.206 548.416 823.786 548.511C827.577 548.606 827.577 548.606 828.24 552.87C829.377 560.261 830.135 562.725 832.031 564.62C834.4 566.8 836.579 571.917 836.579 575.044C836.579 576.75 837.148 577.413 838.759 577.697C840.085 577.887 840.938 578.74 841.128 579.971C841.317 581.109 842.265 582.814 843.307 583.762C844.255 584.615 845.108 585.941 845.108 586.699C845.108 587.363 846.15 587.931 847.761 587.931C849.182 588.026 851.362 588.595 852.594 589.258C854.11 590.111 855.816 590.3 857.521 589.827C859.037 589.353 861.122 589.258 862.259 589.542C864.534 590.206 865.955 588.595 865.955 585.278C865.955 582.909 868.04 582.53 869.745 584.615C871.262 586.415 872.967 586.415 874.578 584.52C875.431 583.478 876.758 583.193 878.937 583.478C880.643 583.762 882.064 583.667 882.064 583.193C882.064 581.298 885.286 579.403 888.319 579.403C890.119 579.403 892.867 578.74 894.478 577.981C897.131 576.56 897.51 576.655 899.974 578.361C902.438 580.161 902.722 580.161 904.238 578.645C905.565 577.318 905.944 577.223 906.607 578.361C907.65 580.066 917.126 578.834 917.126 577.034C917.126 576.276 917.884 575.328 918.737 574.854C920.253 574.002 920.253 573.812 918.737 572.296C916.652 570.211 916.557 559.598 918.642 550.501C919.495 546.805 920.443 539.793 920.822 534.77C921.485 525.484 923.285 520.651 926.034 520.651C926.792 520.651 927.55 519.988 927.929 519.23C928.213 518.377 929.919 516.861 931.814 515.818C933.709 514.681 935.131 513.07 935.131 512.028C935.131 510.891 937.784 508.427 942.522 505.11C949.724 500.088 950.008 499.709 951.524 494.213C953.419 487.485 953.514 485.021 952.093 484.073C950.482 483.126 951.809 478.388 954.651 475.64C956.831 473.46 957.115 472.607 956.641 468.722C956.452 466.258 956.073 463.794 955.978 463.321C955.883 462.752 955.788 460.573 955.883 458.393C955.978 454.792 956.357 454.034 959.768 451.855L963.559 449.296V442.947C963.559 437.83 963.938 436.314 965.454 434.892C966.496 433.945 968.771 430.06 970.571 426.269C973.888 419.446 973.983 419.352 977.015 419.825C981.09 420.489 984.406 418.309 982.606 416.13C981.753 414.993 981.658 414.14 982.416 412.718C982.985 411.676 983.459 409.117 983.459 407.033C983.459 404.948 983.932 402.105 984.406 400.684C986.491 395.377 982.795 392.25 977.868 395.187C975.214 396.704 974.835 396.704 970.95 395.282C968.392 394.24 965.644 393.861 963.843 394.24C961.19 394.714 960.716 394.429 957.589 389.597C953.704 383.816 951.145 382.584 944.701 383.721C942.806 384.006 938.258 383.816 934.752 383.248C929.634 382.3 928.592 381.826 929.445 380.784C930.108 380.12 930.393 378.604 930.203 377.372C929.919 375.477 929.255 375.098 923.949 374.624C919.874 374.245 917.41 373.487 915.894 372.066C914.757 371.023 910.493 369.128 906.323 367.802C901.775 366.38 898.458 364.769 897.889 363.727C897.321 362.684 896.752 359.178 896.658 355.767C896.468 350.46 896.184 349.513 894.004 347.902C892.678 346.954 891.54 345.722 891.54 345.248C891.54 344.775 889.93 341.837 888.034 338.71C884.339 332.835 880.833 330.466 877.421 331.603C876 331.982 875.052 331.413 873.346 329.044C871.83 326.865 870.598 326.012 869.082 326.201C867.661 326.391 866.618 325.633 865.386 323.643C863.491 320.421 861.88 320.421 857.332 323.643C855.342 324.97 854.963 325.917 855.342 327.907C855.721 330.087 855.531 330.371 854.205 329.897C853.257 329.518 852.309 329.234 852.12 329.234C851.93 329.234 851.741 328.286 851.741 327.054C851.741 325.822 850.509 323.643 848.993 322.221C847.477 320.705 845.96 318.526 845.676 317.294C845.202 315.493 844.444 315.02 841.886 315.02C836.2 315.02 832.694 313.883 829.851 311.04C827.293 308.386 826.819 308.292 824.355 309.334C822.839 309.903 820.849 310.282 819.901 310.187C818.859 309.997 815.637 310.661 812.605 311.608C809.667 312.651 806.919 313.124 806.635 312.84C806.35 312.556 804.645 312.935 802.939 313.693C798.39 315.588 794.6 315.399 791.757 313.124C790.43 312.082 788.44 311.229 787.209 311.229C786.071 311.229 784.176 310.471 783.134 309.523C780.765 307.439 770.815 305.07 769.109 306.207C768.446 306.586 766.361 307.439 764.561 307.913C761.623 308.765 761.244 309.334 760.96 312.461C760.77 314.925 760.012 316.441 758.401 317.483C755.464 319.379 753.284 318.621 748.451 313.977C744.945 310.566 744.377 310.282 742.955 311.513C742.102 312.272 739.354 313.219 736.891 313.503C732.721 314.167 732.342 314.356 732.342 316.82C732.342 319.379 736.227 324.496 738.122 324.496C738.596 324.496 738.975 325.159 738.975 325.917C738.975 326.96 737.933 327.339 735.374 327.339C732.721 327.339 731.015 328.097 728.741 330.087C727.13 331.698 725.709 333.403 725.709 334.067C725.709 334.635 724.666 336.151 723.34 337.383C722.013 338.615 720.971 340.321 720.971 341.268C720.971 342.595 719.739 343.353 716.517 344.206C712.347 345.343 712.063 345.343 709.505 342.879C707.704 341.174 706.377 340.605 704.956 341.079C702.871 341.742 702.492 340.984 703.819 338.805C704.387 337.857 704.008 336.53 702.682 334.73C700.692 332.077 700.692 332.077 698.797 333.877C696.996 335.488 696.428 335.583 693.3 334.635C690.931 333.877 689.7 332.929 689.7 331.792C689.7 330.845 689.036 329.897 688.278 329.613C687.52 329.234 686.857 328.191 686.857 327.149C686.857 325.728 686.383 325.443 685.246 325.822C683.54 326.486 682.119 324.97 682.119 322.316C682.119 321.369 680.982 319.094 679.655 317.294C676.717 313.503 672.643 313.03 668.852 315.967C665.82 318.336 664.967 318.336 661.84 315.872L659.376 313.977V316.157C659.376 317.578 657.86 319.852 655.586 322.127C651.89 325.822 651.795 325.822 648.289 324.591C646.299 323.927 643.646 322.316 642.319 321.179C639.287 318.431 636.065 316.82 632.085 315.872C629.431 315.304 628.768 315.493 627.536 317.294C626.778 318.526 625.073 319.947 623.651 320.611C621.472 321.653 620.903 321.558 619.861 320.137C618.913 318.81 617.586 318.526 614.08 318.715C611.616 318.81 609.532 319.094 609.342 319.189C609.247 319.379 609.532 320.611 610.1 322.032C610.764 323.832 610.764 325.917 610.005 328.855L608.963 333.024L604.036 332.929C601.382 332.835 598.16 332.55 596.834 332.171C592.948 330.939 587.831 334.54 583.946 341.174C583.093 342.69 582.62 342.785 581.388 341.742C580.061 340.605 579.682 341.079 578.45 345.438C577.597 348.186 576.934 350.934 576.934 351.503C576.934 352.166 576.081 353.777 575.039 355.104C573.996 356.43 572.67 359.747 572.101 362.59C569.448 375.761 568.784 376.993 566.605 374.435C566.036 373.677 563.952 372.634 561.867 372.066C559.308 371.213 557.982 370.265 557.603 368.654C556.939 366.096 548.979 359.557 546.421 359.557C543.483 359.557 541.304 361.168 540.072 364.106C539.409 365.622 537.798 367.328 536.566 367.991C531.07 370.455 516.287 367.991 516.287 364.674C516.287 362.116 521.972 351.976 524.247 350.555C526.805 348.849 526.616 345.817 523.773 344.301C522.446 343.637 522.162 342.974 522.825 341.837C524.057 339.563 523.015 324.591 521.214 320.042C520.267 317.768 518.94 315.967 518.277 315.967C517.519 315.967 515.244 317.104 513.16 318.526C510.885 320.137 509.275 320.705 508.895 320.042C507.948 318.621 503.968 316.725 500.651 315.967C497.903 315.399 497.808 315.209 497.335 309.334L496.861 303.174L493.355 303.459C489.185 303.838 485.016 301.469 485.016 298.531C485.016 297.489 484.352 295.688 483.594 294.741C482.836 293.698 482.173 291.708 482.173 290.192C482.173 288.487 481.51 287.255 480.183 286.497C478.382 285.549 478.193 284.886 478.761 280.053C479.33 275.22 479.141 274.462 477.245 272.661C476.013 271.619 474.118 270.198 472.981 269.629C471.654 268.966 470.802 267.639 470.802 266.312C470.802 262.522 466.158 261.669 463.884 264.986Z" fill="white"/>
<circle id="608" cx="58" cy="629" fill="#5CE50D"/>
<circle id="609" cx="766" cy="487" fill="#E52A0D"/>
<circle id="611" cx="341" cy="374" fill="#E52A0D"/>
<circle id="1495" cx="210" cy="599" fill="#E52A0D"/>
</svg>
