<svg width="1000" height="1000" viewBox="0 0 1000 1000" fill="none" xmlns="http://www.w3.org/2000/svg">
<path d="M466.522 16.6943C464.063 17.1672 463.496 18.0183 461.51 24.3545C460.28 28.2318 459.524 32.582 459.713 33.906C460.186 36.3648 460.186 36.3648 427.465 46.1055C390.772 57.1702 395.878 56.6027 378.478 51.3068C369.115 48.4697 364.86 45.9164 363.536 42.3227C362.968 40.8096 361.644 39.391 360.509 39.1073C358.618 38.6345 336.016 44.2141 318.52 49.4155C314.17 50.7394 309.253 51.7796 307.456 51.7796C302.633 51.7796 293.743 55.4679 290.055 58.967C288.164 60.7638 285.988 62.1824 285.043 62.1824C284.192 62.1824 281.733 62.8443 279.558 63.79C275.775 65.3031 275.68 65.3977 276.153 68.8968C276.721 73.4361 273.694 83.7442 268.966 93.1066C264.427 102.091 260.644 106.252 256.388 107.008C253.646 107.576 253.173 107.954 253.646 109.562C254.024 110.697 254.024 112.966 253.74 114.669C253.267 117.222 252.416 118.073 249.295 119.302C245.513 120.816 245.418 121.005 246.08 124.22C246.364 126.111 246.364 129.894 246.08 132.637C245.418 137.554 245.418 137.649 241.446 138.406C237.947 139.162 237.285 139.824 235.015 144.269C233.219 147.862 232.651 150.132 233.029 152.402C233.502 155.333 233.219 155.712 229.909 157.319C225.748 159.305 224.896 161.859 226.693 166.304C227.733 168.573 227.639 169.424 226.504 170.748C222.721 175.004 218.371 184.839 217.898 190.041C217.236 196.566 216.858 197.417 213.926 197.417C212.413 197.417 211.467 198.079 210.995 199.498C209.671 203.942 207.874 204.983 201.632 204.983C196.431 204.983 195.674 205.266 194.54 207.252C193.594 209.049 193.594 210.468 194.54 214.345C195.107 216.898 195.391 219.452 195.107 219.925C194.823 220.492 193.026 221.154 191.23 221.438C188.298 222.005 187.92 222.478 187.92 224.842C187.92 226.639 187.258 228.058 186.028 228.814C184.799 229.571 184.326 230.611 184.704 231.935C185.083 233.543 184.326 234.299 180.449 236.096C176.193 238.176 174.964 238.271 166.831 237.704L157.846 237.042L153.496 240.824C148.484 245.175 148.484 245.175 144.796 243.283C141.58 241.581 139.311 241.486 136.757 242.81C135.339 243.567 134.961 244.796 134.961 248.201C134.961 251.7 134.393 253.213 132.407 255.294L129.854 257.942L131.556 265.98C132.407 270.425 132.975 274.397 132.596 274.87C132.313 275.342 130.894 276.004 129.381 276.383C126.355 277.045 123.423 281.584 121.721 288.393C120.87 291.608 119.546 293.783 117.087 295.864C111.696 300.403 102.239 306.172 100.159 306.172C99.0241 306.172 96.6599 308.063 94.3902 310.806C90.8911 314.967 90.1346 315.44 85.2169 316.007C78.9753 316.764 74.8143 314.778 71.7881 309.482C69.6129 305.888 66.2084 303.808 60.818 302.862C57.7917 302.295 56.9406 302.484 54.7655 304.564C53.2524 305.888 47.8619 308.442 41.8095 310.428C36.1353 312.414 30.272 314.589 28.8534 315.345C25.1652 317.142 24.6923 320.358 27.1512 326.505C28.948 330.855 29.0426 332.179 28.1914 334.638C27.0566 337.948 26.7729 344.851 27.7186 347.215C28.6643 349.674 32.7308 349.012 35.757 345.986C37.9321 343.716 38.4995 342.392 38.4995 338.893C38.4995 336.624 38.9724 334.354 39.5398 333.976C40.3909 333.503 40.4855 335.016 40.0126 339.555C39.2561 346.553 40.1072 347.877 43.89 345.419C45.4977 344.284 47.2945 344 49.7533 344.378C51.6447 344.662 53.7252 345.04 54.3872 345.135C56.2786 345.324 55.7112 346.837 53.347 347.688C51.7393 348.35 51.0773 348.161 50.4153 346.742C49.375 344.567 48.0511 344.473 47.3891 346.364C46.5379 348.445 56.0895 356.861 61.8582 359.037C67.4378 361.212 68.951 360.928 73.0175 357.24C75.098 355.348 77.6514 354.403 82.9473 353.457C91.6477 352.038 92.4042 351.755 92.4042 350.052C92.4042 349.296 93.0662 348.728 93.8228 348.728C95.6196 348.728 95.6196 349.58 93.7282 351.66C92.4042 353.173 92.4042 353.362 94.2011 354.403C97.1327 355.916 107.346 354.592 110.845 352.228C112.453 351.187 115.101 349.012 116.803 347.404C119.546 344.851 119.829 344.757 119.829 346.553C119.829 347.877 117.843 349.769 113.304 352.795L106.684 357.145L97.4164 356.294C92.3097 355.821 87.4866 355.254 86.6355 355.159C84.8387 354.875 70.6532 368.021 70.6532 369.912C70.6532 371.614 74.1523 375.965 76.5165 377.194C78.1242 378.045 83.5147 378.612 96.6599 379.18C98.2676 379.274 102.807 378.802 106.968 378.14C114.817 376.91 120.491 377.383 124.842 379.653C129.192 381.828 127.206 381.922 120.964 379.842L115.101 377.856L103.374 379.842C96.9436 380.977 90.4183 381.922 88.9052 381.922C82.6636 382.112 63.7496 379.842 60.6288 378.518C58.7374 377.761 56.6569 377.099 55.9949 377.099C54.009 377.099 41.6203 387.407 40.9583 389.583C39.4452 395.351 41.5258 411.239 44.7411 417.953C45.6868 420.034 46.0651 422.02 45.5922 423.155C44.9303 424.763 44.8357 424.763 44.1737 422.966C43.6063 421.358 43.4171 421.547 42.7552 424.384C42.3769 426.181 41.9986 430.248 41.9986 433.368C41.9986 439.61 44.6466 446.23 47.9565 448.027C50.699 449.54 53.2524 455.025 55.1438 463.914C56.6569 471.007 57.2243 472.236 61.5745 476.965C67.3433 483.301 71.3152 484.625 77.8405 482.355C81.0559 481.315 83.0418 479.613 86.1626 475.546C92.1205 467.886 92.5934 467.508 96.5653 468.832C101.105 470.345 102.05 471.669 100.443 474.506C99.6861 475.83 98.4567 478.289 97.6056 479.991C96.6599 481.977 93.7282 484.72 89.2834 487.557C75.1926 496.919 73.4903 498.338 73.4903 501.08C73.4903 502.499 73.8686 504.768 74.436 506.092C74.9089 507.416 75.0034 508.551 74.7197 508.551C74.3414 508.551 71.3152 505.714 67.9107 502.31C59.494 493.893 53.7252 491.529 41.3366 491.529C34.3385 491.529 31.5014 491.15 28.7588 489.732C26.8675 488.786 25.2598 488.124 25.2598 488.313C25.2598 488.597 26.1109 490.488 27.2457 492.569C28.948 495.973 29.0426 497.392 28.4751 505.147C28.0023 512.05 28.1914 514.415 29.3263 516.684C31.6905 521.318 38.2158 528.033 45.1194 533.139C52.2121 538.246 55.9949 543.164 56.9406 548.554C57.3189 550.54 58.9266 553.283 61.0071 555.269C67.0596 561.321 69.8967 573.615 67.8161 584.68C67.1541 588.084 66.8704 591.205 67.2487 591.489C67.5324 591.773 70.2749 590.354 73.2066 588.273C76.2328 586.193 81.3396 583.167 84.4604 581.559C87.6758 579.951 91.0803 577.493 92.026 576.169C93.0662 574.845 95.525 573.142 97.6056 572.386C101.956 570.873 110.183 570.589 113.493 571.818C115.196 572.48 116.33 572.386 117.56 571.44C118.6 570.683 119.64 570.022 120.113 570.022C121.059 570.022 120.964 574.183 119.829 577.02C119.073 579.1 119.829 580.519 127.111 590.07C131.556 595.934 136.663 602.27 138.365 604.161C139.973 606.053 141.675 608.606 142.053 609.835C143.188 613.524 145.458 615.415 149.335 615.982C153.685 616.739 153.875 617.59 149.903 618.725C147.349 619.481 146.687 620.333 145.931 623.359C144.796 628.276 146.782 639.436 149.619 644.353C150.848 646.528 151.699 648.514 151.321 648.798C151.037 649.082 151.132 651.351 151.416 653.716L152.078 657.971L160.778 662.132C165.601 664.497 171.181 667.428 173.261 668.847L177.044 671.211L173.261 670.644C171.181 670.36 168.344 669.32 167.02 668.374C165.601 667.428 161.818 665.442 158.603 664.118C151.51 661.092 148.2 661.47 142.999 665.537C141.013 667.145 137.325 669.131 134.866 669.982C130.989 671.4 130.327 671.968 130.8 673.575C131.745 676.412 139.5 684.735 142.904 686.531C145.742 688.045 150.375 692.678 157.846 701.663C160.778 705.256 162.48 706.296 169.479 708.661C178.557 711.687 177.895 711.876 181.489 705.351C183.475 701.757 188.582 700.244 194.067 701.473C196.147 701.946 199.173 702.419 200.687 702.419C204.091 702.419 206.361 703.743 205.51 705.162C205.037 705.918 203.996 705.824 202.105 704.783C198.039 702.703 188.676 702.892 186.596 705.162C184.704 707.242 182.907 717.172 184.042 719.347C185.272 721.617 188.96 724.643 192.364 726.44C193.972 727.291 196.242 729.561 197.377 731.547C198.984 734.478 200.403 735.518 204.375 736.842C207.779 738.072 210.616 738.356 213.075 737.977C215.25 737.599 218.087 737.788 219.6 738.356C226.693 741.098 238.893 744.219 242.865 744.313C246.931 744.408 247.688 743.935 255.537 737.315C260.076 733.438 265.75 728.899 268.115 727.102C271.992 724.265 275.207 720.955 278.234 716.888C278.896 715.943 280.125 715.753 281.827 716.132C284.854 716.888 285.232 718.496 282.489 718.496C281.071 718.496 280.031 719.725 278.801 722.657C277.666 725.116 276.248 726.913 275.018 727.291C273.032 727.764 270.763 731.925 269.722 736.748C269.439 738.45 268.115 740.058 266.223 741.004C261.117 743.841 257.901 746.961 257.901 749.231C257.901 751.595 261.684 755.756 265.75 757.932C268.682 759.445 268.304 759.539 275.018 754.338C276.815 753.014 279.936 750.839 282.016 749.609L285.799 747.434L284.286 749.704C283.435 751.028 280.882 753.487 278.612 755.284C276.342 756.986 274.356 759.066 274.167 759.823C273.978 760.485 275.302 762.849 277.193 764.835C279.085 766.916 280.598 769.091 280.598 769.658C280.598 770.226 281.449 773.63 282.584 777.224C284.948 785.073 287.123 786.586 295.445 786.586C298.377 786.586 302.727 787.248 304.997 788.194C308.212 789.423 309.915 789.518 313.224 788.761C316.534 788.005 317.196 788.099 316.818 789.14C315.967 791.22 311.238 793.206 306.983 793.206C302.538 793.206 292.23 794.908 290.055 796.043C289.298 796.421 287.123 799.542 285.232 803.041C283.34 806.54 280.693 810.512 279.274 811.931C276.248 815.146 276.248 817.132 278.99 822.05C281.071 825.738 281.26 825.833 286.65 826.116C289.771 826.305 293.459 825.927 294.973 825.265C297.242 824.319 297.999 824.414 299.606 825.927C301.403 827.535 301.403 827.724 299.89 828.197C298.093 828.859 300.552 830.466 313.603 837.276C322.587 841.909 320.695 842.666 311.049 838.221C303.106 834.533 295.162 832.925 284.948 832.925C279.463 832.925 277.761 833.304 274.356 835.479C272.087 836.992 270.195 838.41 270.195 838.789C270.195 839.64 273.127 840.491 293.838 845.314C311.333 849.475 339.893 859.499 375.168 873.874C385.287 877.94 394.744 881.44 396.068 881.44C397.486 881.534 399.472 882.385 400.512 883.331C401.458 884.277 407.794 887.114 414.509 889.762C421.223 892.41 428.694 895.436 431.247 896.382C433.706 897.327 436.449 898.178 437.394 898.178C438.34 898.178 441.272 899.219 443.825 900.543C446.379 901.867 452.526 904.704 457.443 906.784C462.361 908.959 469.454 912.648 473.047 915.106C476.735 917.565 489.692 924.469 501.891 930.332C514.469 936.479 525.25 942.248 526.668 943.761C528.087 945.18 529.884 946.409 530.829 946.409C531.68 946.409 533.856 947.638 535.652 949.246C537.355 950.759 539.435 952.083 540.097 952.083C540.759 952.083 542.083 953.88 542.934 956.055C543.88 958.608 546.055 961.445 548.798 963.621L553.148 967.214L557.12 964.377C559.2 962.864 562.51 961.256 564.307 960.973L567.617 960.311L565.347 962.769C564.118 964.188 562.132 966.836 560.997 968.822L558.822 972.321L563.74 974.402C566.388 975.536 572.156 977.995 576.506 979.887C587.193 984.521 591.543 985.088 595.988 982.345C599.014 980.454 599.865 980.359 603.553 981.305C609.322 982.724 609.606 982.724 610.741 979.887C611.403 977.901 611.308 976.955 609.984 975.536C608.471 973.834 608.566 973.74 610.457 972.321C611.592 971.564 612.538 970.524 612.538 970.146C612.538 969.295 617.171 963.999 623.318 957.757C626.156 954.92 626.628 953.596 626.818 949.719C626.912 947.071 626.723 943.572 626.25 941.87L625.494 938.654L630.506 938.938C635.045 939.222 635.613 939.032 636.369 936.857C637.599 933.831 636.464 923.239 634.667 919.74L633.154 916.903L641.098 918.227L639.49 915.39C637.882 912.837 637.882 912.458 639.395 910.378C640.246 909.148 640.908 906.69 641.003 904.798C641.098 900.826 642.989 895.152 644.502 894.585C645.07 894.396 645.826 895.814 646.204 897.611C646.488 899.502 647.055 901.015 647.434 901.015C647.812 901.015 649.231 898.651 650.649 895.814C652.919 891.086 653.486 890.613 656.985 890.045C659.633 889.573 661.43 888.627 662.376 887.208C663.227 885.884 665.402 884.56 667.766 883.993C676.845 881.629 681.668 879.075 684.978 874.725C686.775 872.361 688.193 870.091 688.193 869.618C688.193 869.051 690.085 866.498 692.449 863.85C694.813 861.107 696.705 857.986 696.705 856.851C696.705 854.865 700.109 851.461 703.135 850.421C704.081 850.232 705.783 848.151 707.013 845.881C708.62 842.95 710.701 840.964 714.105 839.072C716.753 837.654 721.482 833.966 724.603 830.939C727.723 827.913 732.263 824.603 734.722 823.468C737.18 822.428 739.45 820.726 739.734 819.591C740.112 818.551 744.841 814.39 750.326 810.229C758.553 804.082 760.728 802.852 762.809 803.23C764.795 803.609 766.308 803.041 769.618 800.393C771.887 798.502 777.656 794.435 782.29 791.22C792.598 784.222 794.584 782.425 797.232 777.886C798.651 775.238 799.596 774.387 800.92 774.859C801.866 775.143 803.852 774.576 805.46 773.63C807.54 772.401 808.297 771.266 808.297 769.28C808.297 763.606 810.566 758.877 815.579 753.865C818.321 751.123 821.537 748.758 822.671 748.569C824.279 748.38 825.887 746.11 829.102 740.058C833.358 732.019 836.668 728.52 842.342 726.062C843.666 725.494 845.557 724.17 846.692 723.13C847.827 722.09 851.326 720.766 854.447 720.198C864.093 718.401 863.526 721.049 864.093 673.103L864.566 632.059L870.524 630.262C874.874 628.938 876.387 628.087 876.387 626.763C876.387 625.818 877.995 622.981 879.981 620.427C881.967 617.968 885.371 612.578 887.546 608.606C891.613 601.419 891.613 601.324 897.76 599.338C903.339 597.447 905.042 597.352 915.539 597.92C926.793 598.582 927.36 598.487 930.197 596.406C933.034 594.326 933.223 594.326 936.628 595.934C939.37 597.258 940.221 597.352 940.6 596.406C941.262 594.421 948.354 587.139 952.988 583.734C958.757 579.573 959.514 576.831 956.487 571.629C954.974 568.981 954.029 565.482 953.65 561.227C953.083 555.458 953.272 554.228 955.353 550.351C956.677 547.892 957.717 544.961 957.717 543.92C957.717 542.785 958.568 540.043 959.608 537.773C960.649 535.504 961.5 532.194 961.5 530.491C961.5 528.789 962.635 525.668 964.053 523.399C966.323 519.805 966.606 518.386 966.985 507.416L967.458 495.501L971.051 493.798C973.132 492.947 974.739 491.907 974.739 491.529C974.739 490.299 962.445 485.665 956.298 484.436C951.286 483.49 950.151 483.585 946.558 485.098C944.288 486.044 940.978 486.8 939.181 486.8C933.507 486.8 929.724 490.299 924.996 499.945C920.362 509.402 920.173 509.686 908.352 519.143C903.812 522.831 898.233 528.222 895.963 531.248C890.194 539.003 881.588 546.001 876.671 546.757C872.793 547.419 872.699 547.419 870.24 543.164L867.687 538.814H859.837C852.366 538.814 851.893 538.719 850.002 536.26L848.111 533.612L844.422 541.651C839.221 552.715 833.831 558.295 833.831 552.526C833.831 551.297 833.358 549.216 832.79 547.987C831.939 546.095 832.223 544.961 834.682 540.989C836.479 538.152 837.613 534.936 837.613 533.045C837.613 528.411 839.599 526.141 846.503 522.926L852.555 520.089V515.266C852.555 509.591 855.203 498.054 857.568 493.231C858.608 491.245 859.364 488.219 859.364 486.517C859.364 484.341 860.31 482.072 862.296 479.613C867.497 473.182 873.55 463.347 873.55 461.361C873.55 459.942 874.117 459.375 875.725 459.375C876.86 459.375 879.413 458.335 881.305 457.011C883.669 455.403 886.128 454.647 888.87 454.647C892.464 454.647 893.693 453.985 899.084 449.351C905.987 443.487 906.46 442.636 906.555 436.678C906.649 430.531 905.325 426.559 902.11 423.911C898.895 421.263 896.814 414.644 898.233 411.996C899.462 409.537 899.367 409.253 896.625 409.253C894.544 409.253 893.693 408.213 890.005 400.364C886.506 392.893 885.466 391.474 883.196 391.001C880.643 390.434 880.548 390.339 878.94 378.423C877.995 371.331 876.292 363.67 874.779 359.699C872.604 353.835 872.226 351.282 871.848 340.028C871.564 327.639 871.659 326.883 874.023 322.249L876.482 317.52L867.687 311.846C860.405 307.118 858.23 306.172 854.825 306.172C852.65 306.172 849.813 305.51 848.678 304.754C846.976 303.619 845.084 303.524 838.086 304.281C826.454 305.51 825.508 305.51 824.941 303.524C824.657 302.673 825.698 297.188 827.211 291.514C830.615 279.125 830.71 276.855 828.156 276.193C827.116 275.91 826.265 275.153 826.265 274.491C826.265 272.316 829.102 270.898 833.641 270.708C837.046 270.614 839.127 269.857 842.626 267.399C847.922 263.616 848.205 261.819 844.517 255.104L841.869 250.376L844.044 246.688C847.165 241.108 846.787 237.893 842.626 233.259C840.64 231.084 837.424 228.247 835.438 227.017C833.547 225.788 830.426 222.667 828.535 220.114C826.643 217.466 824.563 215.385 823.806 215.385C823.144 215.385 821.915 214.061 821.064 212.548C819.361 209.144 818.983 209.144 816.241 211.697C814.255 213.588 813.971 213.588 811.228 212.075C809.621 211.319 806.5 210.562 804.23 210.468H800.258L800.542 205.455L800.92 200.538L794.868 196.188C785.316 189.095 783.141 187.014 785.6 187.014C786.167 187.014 787.586 186.352 788.815 185.596C790.896 184.272 790.991 183.799 789.95 181.246C789.005 178.692 789.194 177.747 791.558 173.585C793.071 170.937 794.111 168.762 793.922 168.573C793.733 168.479 790.896 166.966 787.491 165.263C784.087 163.561 781.155 162.048 780.966 161.859C780.777 161.67 781.155 160.251 781.817 158.738C782.858 156.09 782.668 155.617 779.548 151.456C777.656 148.997 776.143 146.444 776.143 145.782C776.143 145.025 774.535 143.418 772.549 142.188C769.24 140.108 768.767 139.257 767.726 133.866C767.064 130.651 766.308 127.341 766.119 126.679C765.93 125.922 763.754 125.544 759.688 125.544C754.297 125.544 753.541 125.26 752.122 123.18C751.271 121.95 750.609 119.019 750.609 116.749C750.609 112.683 746.543 99.1591 743.706 93.8632C742.855 92.2555 739.45 88.5672 736.046 85.5411C732.641 82.5148 729.804 79.4886 729.804 78.8266C729.804 77.0298 718.739 66.7217 713.633 63.79C711.268 62.3714 707.202 60.9529 704.648 60.6692C699.731 60.0072 695.948 58.3995 693.584 56.1299C692.733 55.1842 691.976 51.5905 691.503 45.9164C690.463 32.6766 685.545 24.3545 678.642 24.3545C675.332 24.3545 675.143 24.1653 674.575 20.7608L674.008 17.0726L636.464 16.5052C590.408 15.7486 470.305 15.8432 466.522 16.6943Z" fill="white"/>
<path d="M262.819 736.745C260.644 739.015 260.076 742.135 261.684 742.135C263.954 742.135 267.358 738.92 267.358 736.84C267.358 734.003 265.467 733.908 262.819 736.745Z" fill="white"/>
<path d="M102.807 754.907C101.01 756.704 98.8348 758.217 97.8891 758.217C94.1063 758.217 97.6999 762.378 102.145 763.135C105.076 763.702 105.265 763.229 103.28 760.676C101.388 758.123 101.483 757.555 104.036 756.704C106.779 755.948 109.521 753.489 108.859 752.449C107.913 750.841 106.022 751.597 102.807 754.907Z" fill="white"/>
<path d="M256.01 753.867C256.01 754.151 256.956 756.326 258.09 758.69C260.265 763.04 261.4 763.702 264.521 762C266.696 760.865 266.034 758.217 263.575 758.217C262.63 758.217 260.549 757.082 258.941 755.758C257.334 754.434 256.01 753.583 256.01 753.867Z" fill="white"/>
<path d="M212.98 758.401C211.467 758.968 209.292 760.103 208.252 761.049C205.415 763.413 202.956 764.075 201.348 762.751C199.362 761.049 180.827 760.481 178.935 761.995C177.611 763.035 177.611 763.413 179.03 764.926C181.205 767.29 179.976 768.425 177.611 766.345C176.287 765.115 175.625 765.021 175.058 765.872C174.585 766.723 174.112 766.534 173.167 765.304C172.126 763.98 171.275 763.791 168.344 764.453C166.358 764.832 162.196 765.115 158.981 764.926C154.725 764.737 153.023 765.021 152.078 766.156C151.321 767.007 150.186 767.669 149.524 767.669C148.768 767.669 146.687 768.614 144.89 769.749C141.297 772.113 140.445 775.234 143.377 775.234C144.323 775.234 145.458 775.896 145.741 776.747C146.592 778.828 146.498 779.206 145.269 778.544C144.701 778.166 141.58 777.693 138.27 777.504C133.92 777.315 131.934 777.599 131.178 778.544C129.665 780.341 130.894 782.327 132.596 780.908C134.109 779.584 141.391 781.57 146.309 784.597C148.389 785.826 151.226 786.583 153.969 786.583C156.711 786.583 158.792 787.15 159.549 788.001C160.4 789.041 162.858 789.42 169.573 789.42C177.99 789.42 178.557 789.514 181.583 792.257C184.042 794.432 185.744 795.094 188.676 795.094C190.851 795.094 192.932 795.661 193.594 796.512C194.445 797.553 195.769 797.742 198.417 797.364C203.24 796.607 206.171 797.458 209.86 800.673C213.548 803.794 218.087 805.497 222.91 805.497C225.085 805.497 227.45 806.348 229.53 807.861C231.327 809.185 233.407 810.225 234.353 810.225C235.204 810.225 236.434 810.887 237.096 811.644C237.758 812.4 239.271 813.062 240.595 813.062C242.202 813.062 244.567 814.764 248.066 818.453C253.645 824.316 253.645 824.221 252.038 834.246C251.565 836.988 254.118 838.029 258.563 836.799C263.197 835.57 263.575 834.624 263.575 822.803V814.102L268.304 808.239C272.465 803.038 273.032 801.808 273.032 797.931C273.032 794.432 272.559 793.108 270.668 791.311C268.02 788.852 267.358 785.07 269.722 786.015C271.424 786.677 273.032 783.84 273.032 780.152C273.032 777.504 271.708 775.802 267.831 773.721C266.791 773.154 263.859 771.546 261.4 770.222C256.199 767.29 254.402 767.101 249.863 769.087C245.796 770.695 244.85 772.87 247.026 775.234C249.011 777.409 248.444 778.544 245.796 777.693C242.108 776.464 241.73 769.466 245.229 767.669C251.092 764.453 249.673 761.333 241.068 758.779C236.055 757.361 227.166 757.644 226.126 759.252C225.274 760.671 221.019 760.198 220.451 758.685C219.789 757.077 217.141 756.982 212.98 758.401Z" fill="white"/>
<path d="M270.195 766.251C270.195 767.575 276.531 771.452 278.707 771.452C280.787 771.452 279.463 768.993 276.248 766.913C272.37 764.454 270.195 764.265 270.195 766.251Z" fill="white"/>
<path d="M120.775 774.289C120.775 774.762 121.248 775.424 121.721 775.708C122.288 775.991 122.667 776.653 122.667 777.221C122.667 778.639 120.87 778.167 118.978 776.275C117.276 774.573 116.047 774.573 116.047 776.275C116.047 777.41 122.288 780.909 124.369 780.909C125.598 780.909 126.449 780.058 126.828 778.45C127.206 777.032 127.395 775.897 127.206 775.708C125.976 774.762 120.775 773.627 120.775 774.289Z" fill="white"/>
<path d="M273.978 791.318C273.978 792.264 274.829 793.588 275.869 794.155C278.045 795.29 278.423 794.25 276.815 791.224C275.491 788.859 273.978 788.954 273.978 791.318Z" fill="white"/>
<path d="M280.315 791.224C279.653 793.966 282.868 796.709 284.854 795.101C285.61 794.439 286.272 792.926 286.272 791.696C286.272 789.805 285.8 789.427 283.53 789.427C281.638 789.427 280.693 789.994 280.315 791.224Z" fill="white"/>
<circle id="604" cx="55" cy="500" fill="#5CE50D"/>
<circle id="605" cx="683" cy="709" fill="#E52A0D"/>
<circle id="606" cx="500" cy="679" fill="#E52A0D"/>
<circle id="607" cx="791" cy="456" fill="#E52A0D"/>
</svg>
