<svg width="1000" height="1000" viewBox="0 0 1000 1000" fill="none" xmlns="http://www.w3.org/2000/svg">
<path d="M846.306 16.3648C845.926 17.6935 844.597 19.4017 843.364 20.2559C841.086 21.7744 840.801 21.6794 839.093 20.1609C836.625 17.9781 834.253 18.9272 831.5 23.4826C829.318 27.089 828.938 27.2787 824.383 27.2787C821.82 27.2787 819.163 27.6584 818.594 28.038C816.601 29.4615 814.418 33.4475 814.418 35.8201C814.418 37.8131 813.753 38.4775 810.432 39.6163C807.964 40.4705 805.876 41.9889 805.022 43.6023C803.694 45.88 803.694 46.2596 805.212 47.9678C807.395 50.4354 807.3 51.0048 803.409 57.5532L799.992 63.3423H794.108C789.743 63.3423 786.421 64.1965 780.442 66.5691C776.076 68.3723 769.908 70.0805 766.586 70.4601C759.089 71.3143 756.336 73.7818 751.307 84.3162C748.08 91.1492 747.605 91.7186 743.43 93.2371C740.962 94.1862 738.115 95.9893 736.976 97.318C734.888 99.8804 735.078 99.8804 722.835 97.6027C718.185 96.7486 715.528 97.8874 707.651 104.151C704.519 106.619 698.54 110.984 694.364 113.736L686.772 118.861H669.689C652.796 118.861 652.606 118.861 648.146 121.424C645.678 122.942 643.116 124.081 642.452 124.081C641.787 124.081 639.604 124.935 637.706 125.979C635.713 127.023 630.873 128.162 626.318 128.731C615.309 129.87 607.242 133.382 601.833 139.361C598.131 143.536 596.708 144.296 590.919 145.814C583.611 147.712 576.778 151.413 568.142 158.246C565.01 160.714 559.695 164.51 556.279 166.788C552.862 169.065 528.092 186.433 501.139 205.319L452.169 239.769L440.021 252.961L427.968 266.152L418.003 269.379L407.943 272.606L403.198 279.724C400.636 283.615 388.868 299.748 377.005 315.408C359.353 338.944 354.892 344.353 351.665 345.967C348.913 347.39 346.635 349.763 343.219 354.983L338.569 362.1L331.83 362.67C327.939 363.049 319.967 362.765 312.375 361.911C288.364 359.158 268.245 357.545 258.659 357.545C250.118 357.545 248.41 357.26 241.102 354.318C236.736 352.61 230.947 350.902 228.195 350.522L223.26 349.858L214.624 362.48C209.879 369.408 203.046 379.183 199.439 384.118L192.891 393.134L187.386 393.798C176.093 395.222 175.713 395.317 175.713 398.259C175.713 402.34 170.399 405.946 168.595 403.099C167.836 401.865 162.711 401.865 161.952 403.099C161.003 404.617 155.499 403.004 151.797 400.062C149.615 398.354 144.68 396.266 138.985 394.653C133.86 393.134 126.268 390.572 122.187 388.958L114.69 385.921L111.178 389.338C106.718 393.703 103.776 402.909 102.068 417.809L100.929 428.249L104.25 441.725L107.667 455.296L105.769 473.138C102.732 500.66 104.155 506.639 116.683 520.306C120.574 524.481 123.231 526.474 127.027 527.898C130.159 529.037 136.518 533.307 143.446 538.717C155.404 548.112 158.82 552.288 161.762 561.114C162.901 564.436 164.325 566.429 166.507 567.853C169.355 569.751 169.829 570.7 171.158 577.343C172.012 581.519 173.815 587.308 175.144 590.345C177.137 594.805 178.086 595.944 180.363 596.324C182.926 596.893 183.116 597.178 183.59 603.157C183.875 606.668 184.444 610.275 184.729 611.129C185.298 612.457 184.919 612.837 183.211 612.837C178.75 612.837 178.465 613.786 180.458 621.378C182.262 628.401 182.262 628.686 180.553 635.424C178.94 641.403 177.991 643.111 172.676 649.09C169.449 652.792 163.945 658.106 160.623 660.859C154.455 665.983 151.702 669.969 140.409 690.184C135.284 699.39 135.094 699.959 134.525 708.785C133.86 717.706 133.955 718.37 142.497 756.996C149.899 790.308 152.272 799.419 158.251 816.881L165.274 837.38L163.755 841.841C162.427 845.732 161.762 846.396 158.63 847.345C155.309 848.389 154.55 849.243 149.709 858.639C145.154 867.37 144.395 869.553 144.395 874.013C144.395 878.758 143.92 879.802 138.226 888.059L131.962 897.075L140.314 899.827C146.957 902.01 149.994 903.623 155.499 908.084C159.2 911.216 162.996 913.683 163.85 913.683C164.799 913.683 167.836 915.012 170.778 916.72C179.035 921.465 188.81 922.984 202.761 921.75C217.945 920.421 234.364 916.056 235.693 913.114C236.262 911.88 237.875 910.646 239.394 910.361C242.526 909.602 243.285 908.748 247.366 901.251L250.498 895.367L259.703 891.665C268.15 888.249 269.004 888.154 270.143 889.577C270.997 890.811 272.136 891.001 275.552 890.526L279.823 889.862L288.174 903.718L294.818 904.288C300.607 904.762 302.22 904.572 307.155 902.389C310.287 901.061 315.127 898.498 317.974 896.695C320.916 894.892 324.902 893.279 327.085 893.089C330.597 892.614 331.071 892.804 332.115 895.272L333.349 897.834L335.816 895.367C338.284 892.994 338.379 892.899 341.036 894.512C343.598 896.031 343.788 895.936 345.781 894.038C347.584 892.14 347.679 891.57 346.73 888.249C346.066 886.161 345.591 884.073 345.591 883.598C345.591 883.029 348.344 880.182 351.76 877.145C357.739 871.925 358.498 871.546 368.938 868.983C374.917 867.465 380.231 866.421 380.611 866.706C381.086 866.895 381.75 868.224 382.035 869.553C382.414 870.881 383.553 874.298 384.502 877.05C386.4 881.985 386.685 882.27 401.015 891.381C412.594 898.783 416.01 901.44 417.908 904.667L420.281 908.653L418.003 914.252C416.2 918.713 415.915 920.231 416.77 921.56C417.624 922.984 417.529 923.743 416.39 924.977C413.163 928.583 415.915 934.562 422.749 938.833L427.019 941.585L425.691 945.286C424.931 947.374 424.362 950.031 424.362 951.265C424.362 955.346 434.706 964.836 440.78 966.355C442.204 966.734 444.197 968.443 445.336 970.246C446.475 972.049 448.373 973.757 449.796 974.137C451.22 974.422 454.257 976.035 456.629 977.648C459.192 979.452 464.791 981.729 470.58 983.343L480.26 986L485.195 982.963C491.364 979.167 493.927 978.123 499.241 977.269C502.942 976.699 504.461 977.079 511.389 980.211C515.755 982.299 519.456 983.912 519.646 983.912C519.741 983.912 520.974 980.97 522.208 977.364C524.296 971.005 524.581 970.625 528.756 969.107C534.451 967.019 538.437 964.552 545.175 958.857L550.869 954.207L553.147 956.769L555.424 959.427L559.031 957.054C563.207 954.302 566.244 954.017 581.903 954.966C589.875 955.441 593.291 955.251 598.985 953.827C605.819 952.119 608.001 952.119 650.993 953.448C675.573 954.207 695.977 954.587 696.167 954.397C696.926 953.733 706.322 917.1 707.556 910.361C708.6 904.572 709.644 902.484 715.433 894.228C719.039 889.008 723.215 881.7 724.638 878.094C726.062 874.393 728.814 868.888 730.712 865.851C733.559 861.106 734.034 859.493 733.844 855.412L733.559 850.762L742.196 842.315L750.832 833.964V828.364C750.832 822.955 750.737 822.765 747.605 821.246C745.802 820.392 743.714 819.728 742.86 819.728C741.816 819.728 741.342 818.874 741.342 816.691C741.342 814.888 740.487 812.8 739.349 811.471C737.451 809.478 737.356 809.004 738.4 803.879C739.538 798.564 739.349 770.663 738.21 767.531C737.545 765.822 736.691 758.894 736.027 749.973C735.363 742.666 734.888 743.805 744.189 731.752C746.561 728.715 749.219 725.678 750.073 725.014C750.927 724.444 751.971 722.451 752.35 720.743C753.11 717.232 759.658 707.741 764.308 703.376C768.579 699.295 775.887 697.017 781.961 697.871C786.231 698.441 787.37 698.156 793.159 695.024C805.117 688.76 808.059 686.008 812.33 677.182C816.126 669.59 816.316 668.83 816.316 660.384C816.316 652.317 816.506 651.178 818.688 648.331C820.207 646.338 821.061 643.966 821.061 641.783C821.061 635.234 823.813 626.788 827.23 623.276C832.355 617.867 839.757 603.631 840.516 597.652C841.276 591.768 843.553 588.731 852 582.468C857.219 578.577 860.541 573.642 863.388 565.48C866.046 557.982 872.119 553.142 881.705 551.149L888.917 549.631L893.947 536.344L899.072 523.153V490.885L894.327 472.854C891.67 462.889 888.158 449.128 886.545 442.199L883.508 429.482L867.659 401.865C858.928 386.586 848.299 368.744 844.028 362.1L836.246 350.048L844.787 328.504L853.234 306.866L848.678 298.799C844.407 291.207 844.028 290.068 843.458 282.096C843.079 277.351 841.75 267.766 840.516 260.743C839.283 253.72 837.29 242.616 836.246 236.068C835.107 229.519 834.063 223.351 833.778 222.212C833.304 220.314 833.778 220.219 842.509 219.649C850.956 219.08 852 218.795 854.657 216.328C856.27 214.809 859.497 212.816 861.87 211.962C876.01 206.553 877.149 203.706 871.36 188.141C868.323 179.979 867.564 176.658 867.564 171.628C867.564 163.276 865.002 142.777 863.293 137.367C862.629 134.995 861.49 130.629 860.921 127.687C859.972 122.942 860.067 121.898 861.68 118.671C862.724 116.678 864.527 114.211 865.666 113.167C869.083 110.035 873.258 103.487 873.258 101.114C873.258 97.5078 881.99 91.3391 890.721 88.7766C896.51 87.0684 897.838 86.4041 897.364 85.1703C896.984 84.411 896.605 77.1034 896.415 68.8467C896.32 60.0207 895.561 51.0048 894.707 46.5443C893.852 42.4634 892.619 34.2068 891.954 28.2278L890.816 17.4088L887.779 16.4597C883.603 15.3209 881.99 16.8393 881.61 22.3438C881.42 25.8552 880.851 26.9941 879.047 27.8482C877.244 28.7972 876.295 28.7023 873.733 27.089C871.93 26.1399 870.032 24.6215 869.462 23.8622C867.849 22.059 864.907 22.1539 860.826 24.3367L857.314 26.2348L855.511 24.1469C854.467 23.0081 853.139 20.2559 852.474 17.9781C851.525 14.7514 850.956 13.9922 849.153 13.9922C847.539 13.9922 846.685 14.6566 846.306 16.3648Z" fill="white"/>
<circle id="833" cx="500" cy="555" fill="#5CE50D"/>
<circle id="865" cx="775" cy="115" fill="#E52A0D"/>
<circle cx="153" cy="452" fill="#E52A0D"/>
<circle cx="500" cy="934" fill="#E52A0D"/>
</svg>
