<svg width="1000" height="1000" viewBox="0 0 1000 1000" fill="none" xmlns="http://www.w3.org/2000/svg">
<path d="M461.432 105.33C461.147 106.09 459.818 107.419 458.584 108.274C456.305 109.699 455.926 109.699 451.844 107.324C448.237 105.14 447.192 104.95 445.294 105.805C442.541 107.04 442.446 108.464 444.914 111.599C447.192 114.543 447.192 115.303 445.294 117.393C444.06 118.818 442.731 119.008 437.89 118.533C433.143 118.153 431.15 118.438 427.353 120.052C423.271 121.762 421.752 121.952 416.626 121.287C411.69 120.622 409.221 120.812 402.577 122.522C393.938 124.802 391.755 124.422 388.148 120.242C386.819 118.723 385.679 118.533 381.218 118.913L375.902 119.388L376.377 123.567C376.756 127.366 376.661 127.651 374.193 128.316C372.769 128.696 369.067 128.696 366.03 128.411C360.619 127.936 360.239 128.031 357.011 131.071C352.265 135.535 349.987 135.82 341.064 133.16C336.792 131.831 328.533 130.121 322.648 129.361C312.87 128.126 311.351 128.126 307.175 129.456C303.472 130.691 301.859 130.786 299.675 129.931C297.397 129.076 295.973 129.171 292.841 130.406L288.949 131.926L285.721 128.221C284.012 126.227 282.209 123.187 281.829 121.667C280.69 117.393 276.703 117.203 271.387 121.097C267.97 123.567 266.641 123.947 261.325 123.947C255.249 123.947 252.212 125.277 252.212 128.031C252.212 128.696 250.883 131.071 249.364 133.445C247.75 135.915 246.516 138.955 246.516 140.664C246.516 142.374 245.757 144.274 244.712 145.224C243.668 146.173 242.529 148.643 242.244 150.733C241.77 153.297 240.915 154.722 239.396 155.482C236.738 156.717 235.22 159.851 235.789 162.986C235.979 164.506 235.03 167.07 232.846 170.585C229.999 175.049 229.049 175.904 227.151 175.524C225.537 175.144 224.018 175.999 221.455 178.563C218.133 181.888 217.943 182.363 218.133 187.397C218.417 195.281 215.854 202.5 211.298 206.584L207.596 209.909L205.223 225.581C201.615 249.043 200.096 252.937 190.794 263.005C186.617 267.565 184.339 270.889 183.579 273.739C182.915 276.493 179.687 281.338 173.802 288.651C168.96 294.636 164.784 300.715 164.499 302.234C164.024 304.039 162.6 305.749 160.037 307.269C157.189 308.978 153.202 313.728 145.608 324.366C139.913 332.44 130.42 344.598 124.629 351.437C118.839 358.181 112.573 365.685 110.77 368.059C108.966 370.434 102.321 377.748 95.9612 384.302C87.038 393.705 84.0953 397.41 82.7663 401.114L81.0576 405.863L55.3323 415.932C41.1881 421.441 28.3729 426 26.8541 426C25.3352 426 21.8229 426.76 18.9751 427.615C12.8048 429.515 12.4251 431.604 17.5512 435.024C19.5447 436.354 22.3925 439.488 23.9113 442.148C25.4302 444.712 26.949 446.897 27.3287 446.897C27.6135 446.897 28.9425 444.238 30.1765 440.913L32.5497 435.024L37.4859 434.739C41.7577 434.454 43.2765 434.929 47.2635 437.304C49.8265 438.918 53.054 440.248 54.2881 440.248C57.5156 440.248 63.3062 444.048 66.5337 448.322C68.0525 450.317 70.3308 454.876 71.5649 458.675C72.8938 462.38 74.8873 466.464 76.1214 467.794C77.5453 469.409 78.3996 471.878 78.8743 475.393C79.159 478.242 79.9185 480.807 80.488 480.997C83.8105 482.042 91.9742 490.21 96.246 496.574C100.043 502.464 101.182 505.028 101.562 508.923C102.321 516.616 104.22 522.316 106.688 524.215C108.966 525.83 108.966 525.83 108.397 523.17L107.827 520.511L109.441 523.36C110.675 525.355 111.055 527.825 110.865 532.099L110.675 537.893L113.997 539.128C115.896 539.793 117.415 540.838 117.415 541.503C117.415 542.073 118.079 543.212 118.934 543.877C120.358 545.017 120.452 547.962 120.073 570.093C119.788 588.9 119.978 594.789 120.832 594.124C121.497 593.555 122.066 588.71 122.351 582.061C122.826 571.043 122.921 570.853 125.768 568.478C128.521 566.199 131.559 560.5 132.888 555.18C133.363 553.281 134.407 552.521 137.539 551.666C141.431 550.621 141.431 550.621 139.438 552.141C138.299 552.996 136.4 555.75 135.166 558.22C133.078 562.304 133.078 562.779 134.502 562.779C135.356 562.779 136.875 563.634 137.824 564.679C140.577 567.719 144.089 567.054 148.266 562.684C150.355 560.5 153.962 557.46 156.335 555.75C161.936 551.951 169.055 544.162 167.726 543.307C167.252 543.022 166.777 541.598 166.777 540.268V537.798L168.77 540.363C171.239 543.497 176.27 543.877 176.27 540.933C176.27 538.463 180.352 537.418 183.199 539.223C185.003 540.458 186.332 540.458 192.407 539.413C198.483 538.368 199.812 538.368 201.71 539.603C205.318 541.978 203.704 544.827 199.907 542.737C198.293 541.978 196.489 541.978 192.312 542.832C187.566 543.877 186.237 543.782 183.104 542.547C179.118 540.933 178.168 541.218 178.168 543.877C178.168 545.492 175.605 546.632 171.903 546.632C170.859 546.632 168.486 548.152 166.682 550.051C164.973 551.951 161.651 554.706 159.468 556.225C156.525 558.315 155.386 559.74 155.386 561.355C155.386 564.109 155.86 564.204 159.183 562.304C161.936 560.69 165.828 560.405 165.828 561.829C165.828 562.304 166.682 562.779 167.726 562.779C168.96 562.779 169.625 562.114 169.625 560.975C169.625 560.025 170.669 558.505 171.903 557.65C173.991 556.32 174.656 556.32 177.883 557.555C181.491 558.79 181.491 558.885 178.643 558.885C172.662 559.075 171.523 559.835 171.523 563.729C171.523 565.724 170.954 567.814 170.194 568.383C169.435 568.953 168.676 570.663 168.391 572.088C168.106 573.513 166.872 577.312 165.733 580.637C164.594 583.866 163.929 586.811 164.214 587.096C165.163 588.045 168.391 585.291 169.34 582.631C170.954 578.547 172.473 579.307 172.473 584.151C172.473 587.95 172.188 588.425 170.384 588.425C167.441 588.425 166.492 589.28 165.353 592.7C164.404 595.359 164.119 595.454 159.847 595.169C154.342 594.884 153.962 596.499 159.183 598.019C163.644 599.349 163.929 600.963 160.607 605.903C158.423 609.037 158.423 609.322 160.132 609.322C163.265 609.322 163.17 612.647 159.942 620.151C157.189 626.704 156.525 627.464 153.487 628.319C151.684 628.794 149.405 629.269 148.551 629.269C147.412 629.269 146.842 630.029 146.842 631.454C146.842 634.018 148.456 635.918 150.165 635.348C150.829 635.063 151.873 636.108 152.443 637.723C153.582 640.382 153.962 640.477 160.891 641.047C173.232 641.997 324.356 646.746 324.831 646.177C325.116 645.892 327.204 640.667 329.388 634.588L333.375 623.38L343.342 619.296L353.214 615.211L359.764 618.536L366.314 621.765L378.37 617.016C391.85 611.507 395.552 611.127 403.621 614.166C406.564 615.306 409.886 615.876 411.025 615.591C412.354 615.211 416.721 616.636 423.366 619.486C435.516 624.71 438.364 627.844 439.219 636.773C439.693 641.807 439.883 642.092 445.389 646.461L451.084 650.926L466.083 642.567L476.715 645.892L487.442 649.216L489.53 656.15C490.574 659.854 491.713 663.654 491.998 664.414C492.188 665.174 495.51 667.928 499.213 670.588C505.003 674.577 507.186 675.527 512.787 676.382C518.863 677.332 519.907 677.237 525.602 675.147C529.02 673.912 534.146 671.538 536.994 669.923C544.398 665.744 551.707 663.464 557.783 663.464C560.726 663.369 565.852 662.799 569.269 662.039C574.015 661.089 576.483 660.994 579.996 661.849C585.122 662.989 585.596 663.559 596.133 678.756L602.399 687.875L594.14 695.949C586.166 703.738 585.691 704.023 580.47 704.688C577.528 704.972 571.547 706.112 567.181 707.157C562.814 708.202 557.688 709.057 555.694 709.057C552.752 709.057 551.043 709.912 547.151 713.236C543.069 716.656 541.076 717.605 535.38 718.84L528.45 720.17L524.938 717.51C521.521 714.946 520.761 714.851 511.743 714.756H502.25L496.934 710.007C493.802 707.157 489.435 704.497 486.113 703.263C482.98 702.123 478.708 699.938 476.525 698.513C472.158 695.474 470.545 695.284 464.469 696.804C460.577 697.754 460.197 697.659 452.983 693.289C448.521 690.63 444.914 687.59 443.87 685.785C441.592 681.891 432.669 677.712 426.783 677.712C419.189 677.617 415.961 676.192 404.855 667.928C395.742 660.994 393.653 658.905 391.755 654.915C389.761 650.641 389.192 650.166 386.534 650.166C384.35 650.166 381.503 651.591 376.946 654.915L370.491 659.664L367.548 670.303L364.701 681.036L357.581 684.551C351.221 687.685 349.702 688.065 342.677 688.065C335.463 688.16 334.229 687.875 327.679 684.646L320.559 681.131L313.06 684.836L305.466 688.54L296.638 686.545C289.328 684.836 287.43 684.741 285.436 685.69C283.917 686.45 280.785 686.735 276.703 686.45C273.096 686.26 270.248 686.165 270.153 686.355C270.153 686.545 269.583 692.814 268.824 700.318C268.159 707.822 267.305 714.186 267.02 714.471C266.546 715.041 163.265 712.666 129.755 711.336C117.605 710.862 115.231 710.956 116.276 712.001C117.984 713.901 117.7 714.566 114.472 716.276C112.004 717.51 111.624 718.175 112.004 720.265C112.289 721.785 111.719 723.97 110.39 726.059C109.251 727.959 107.827 730.618 107.258 732.043C105.264 736.508 98.4293 762.913 98.4293 765.858C98.4293 767.378 97.8597 768.898 97.1003 769.183C96.4358 769.468 95.5815 771.367 95.2018 773.362C94.8221 775.357 94.3474 778.206 94.0626 779.821L93.588 782.67L96.4358 777.921L96.5308 781.341C96.5308 783.43 95.8663 785.33 94.917 786.09C93.588 787.23 90.8351 792.549 90.8351 794.069C90.8351 795.209 93.4931 794.354 96.7206 792.169C98.6192 790.839 101.277 789.794 102.606 789.794C104.125 789.794 105.074 789.224 105.074 788.465C105.074 786.755 113.238 782.101 114.947 782.765C115.706 783.05 117.984 782.386 120.168 781.341C126.243 778.206 126.908 778.586 126.908 784.57C126.908 789.604 126.813 789.794 122.731 792.549C120.452 794.164 118.364 796.063 117.984 796.918C117.225 799.008 115.516 797.773 115.516 795.114C115.516 793.024 115.326 792.929 107.732 793.404C99.8532 793.784 99.8532 793.784 96.3409 797.678L92.7337 801.668L93.3032 808.791C93.7779 814.681 93.588 816.2 92.4489 817.245C91.5945 817.91 91.2148 819.05 91.4996 819.81C92.0692 821.235 97.0054 821.709 97.8597 820.38C98.1445 819.905 102.226 817.245 106.878 814.396C114.092 810.121 115.516 808.886 115.516 806.797C115.516 803.282 117.225 802.142 122.636 802.142C126.718 802.142 127.857 802.522 130.135 804.897C133.173 808.032 136.875 809.076 138.394 807.272C140.007 805.277 141.147 805.657 141.147 808.221C141.147 809.551 142.191 811.356 143.52 812.401C144.849 813.446 145.893 814.965 145.893 815.725C145.893 817.435 150.26 820.855 153.013 821.234C155.481 821.614 159.183 819.525 159.183 817.815C159.183 816.77 160.417 816.39 163.929 816.39C169.34 816.39 170.005 817.625 166.492 820.95C164.973 822.374 162.505 823.229 158.518 823.609C153.582 824.179 152.063 823.894 147.032 821.614C142.571 819.62 140.197 819.145 137.35 819.525L133.552 820L130.705 813.921C129.091 810.596 127.192 807.842 126.623 807.842C125.958 807.842 123.11 810.121 120.358 812.971C117.605 815.82 113.713 818.86 111.719 819.715C107.637 821.519 106.973 823.609 106.973 834.817C106.973 840.042 106.688 841.181 105.834 840.327C105.169 839.662 104.41 837.192 104.125 834.722C103.65 830.543 103.46 830.163 100.518 829.593C98.809 829.213 96.5308 828.168 95.4866 827.219C93.6829 825.604 93.588 825.604 91.5945 827.599C88.8416 830.353 88.0822 837.002 89.6011 845.551C91.3098 854.574 94.7271 860.084 98.809 860.084C100.423 860.084 106.213 860.273 111.719 860.558C117.225 860.748 127.382 861.033 134.312 861.128L146.842 861.223L163.36 852.295L179.782 843.366L184.718 844.981C189.18 846.501 190.509 846.596 200.666 845.361L211.773 844.126L217.373 846.881C222.404 849.445 223.449 849.635 229.239 849.16C233.986 848.685 239.301 849.16 250.313 851.06C258.382 852.39 266.071 853.53 267.4 853.625C268.729 853.625 288.189 844.031 310.687 832.253L351.601 810.976L449.755 816.865C503.769 820.19 570.313 824.179 597.747 825.889L647.584 828.833L652.805 831.493C657.551 833.963 658.311 834.058 660.874 832.918C665.241 831.018 671.506 831.303 674.733 833.583C676.727 835.007 678.246 835.387 680.334 834.912C682.043 834.532 685.08 834.912 687.928 835.862C691.915 837.192 693.149 837.192 695.902 836.242C698.845 835.197 699.509 835.197 701.218 836.812C704.066 839.377 703.591 843.081 699.794 847.451C696.756 851.06 696.472 851.82 696.472 857.519V863.598L700.079 864.263C701.977 864.548 704.825 864.833 706.344 864.833C708.053 864.833 710.141 865.783 711.66 867.207C713.938 869.392 714.508 869.487 717.166 868.537L720.203 867.492V859.989C720.203 852.77 720.298 852.485 722.861 851.155C725.614 849.73 725.614 849.825 731.69 855.904C735.012 859.324 739.284 862.933 741.088 863.883C742.891 864.833 745.454 866.733 746.688 868.062C748.872 870.342 749.631 870.532 757.13 870.532H765.294L771.749 876.231C775.356 879.366 778.584 881.93 778.964 881.93C779.343 881.93 781.906 881.265 784.754 880.41C789.975 878.891 790.26 878.891 802.126 882.025C805.448 882.88 806.018 883.64 808.581 889.339C810.195 892.854 811.618 895.798 811.713 895.988C811.903 896.178 819.308 894.088 828.041 891.334C842.85 886.774 844.368 886.204 847.881 882.5C851.488 878.701 852.152 878.416 864.208 875.851L876.644 873.097L883.668 876.896C890.218 880.505 890.883 880.695 897.148 880.22C901.04 879.935 905.027 880.315 907.21 880.98C910.533 882.12 912.241 881.835 926.576 878.226C939.77 874.996 943.757 874.331 951.541 874.331C959.42 874.426 961.509 874.806 965.116 876.611C969.388 878.891 969.388 878.891 972.9 877.086C975.463 875.756 976.223 874.901 975.843 873.477C975.558 872.242 976.033 871.482 977.362 871.007C979.355 870.437 979.355 870.437 977.077 867.397C975.843 865.688 974.229 862.743 973.565 860.653C972.615 858.089 971.286 856.569 968.723 855.239C966.35 854.004 965.116 852.77 965.116 851.535C965.116 850.49 965.401 849.635 965.875 849.635C966.255 849.635 967.964 848.78 969.673 847.735L972.9 845.741L970.432 842.511C969.103 840.802 967.964 838.427 967.964 837.382C967.964 836.337 967.584 834.438 967.109 833.203C966.35 831.303 966.73 829.973 968.913 826.459C971.476 822.469 972.046 822.089 975.558 822.089C979.165 822.089 980.494 820.95 978.406 819.715C977.931 819.43 977.457 816.2 977.457 812.686C977.457 809.076 976.792 804.327 976.033 802.142C974.894 798.913 974.799 797.393 975.653 794.449C976.602 791.409 977.457 790.554 981.349 788.94C985.43 787.325 986 786.66 986 784.285C986 780.866 984.196 775.547 983.057 775.547C982.678 775.547 981.823 776.401 981.254 777.446C980.02 779.726 974.988 780.201 975.843 778.016C977.267 774.312 977.457 769.847 976.317 765.383C975.273 761.584 974.134 759.779 971.286 757.499C969.293 755.885 966.825 753.32 965.875 751.705C964.926 750.185 963.502 748.666 962.743 748.381C961.509 747.906 961.509 747.526 962.743 745.816C964.546 743.157 964.546 739.452 962.648 736.793C961.794 735.558 961.414 734.038 961.699 733.278C962.363 731.473 960.465 725.204 958.376 722.165C957.332 720.835 956.573 718.27 956.573 716.466C956.573 711.431 954.389 709.057 950.402 709.722C948.124 710.102 946.51 709.817 945.371 708.867C944.517 708.012 942.808 707.062 941.669 706.777C940.435 706.397 939.486 705.447 939.486 704.688C939.486 703.738 931.417 698.608 929.803 698.608C929.613 698.608 929.613 700.223 929.803 702.218C930.088 704.877 929.708 706.207 928.189 707.537C927.05 708.582 926.196 710.387 926.196 711.621C926.196 713.521 925.721 713.806 922.968 713.806C920.12 713.806 919.646 714.186 919.076 716.656C918.602 718.84 917.937 719.505 916.228 719.505C914.33 719.505 913.855 718.84 913.286 715.991C912.906 713.996 911.577 710.577 910.343 708.392C908.16 704.593 908.16 704.403 909.678 700.793C912.241 694.809 911.577 690.535 907.21 684.741C905.122 681.891 902.179 679.041 900.66 678.282C897.433 676.572 893.256 671.253 892.402 667.643C892.022 666.123 890.503 663.274 888.889 661.279C885.852 657.29 882.434 644.752 884.238 643.612C884.713 643.327 889.174 640.382 894.11 637.058L903.223 631.074L904.268 622.715C905.786 610.557 905.786 610.082 901.515 605.238C899.331 602.863 897.053 599.064 896.294 596.784C894.965 592.795 894.965 592.415 899.901 577.122C904.647 562.304 904.932 561.165 904.078 555.75C903.128 548.532 901.23 545.777 895.534 543.022C891.263 541.028 891.073 540.743 891.073 537.038C891.073 531.909 888.13 527.92 882.814 525.64C876.644 522.98 875.315 520.796 874.46 512.437C873.226 499.709 873.416 498.569 876.074 495.815C877.498 494.485 880.346 490.97 882.624 488.121C886.326 483.277 886.516 482.707 886.136 478.052C885.757 474.348 885.092 472.733 883.384 471.498C876.834 466.559 876.074 465.704 875.125 461.905C874.176 458.39 873.416 457.441 869.524 455.446C866.107 453.641 864.778 452.311 864.113 450.032C863.449 448.037 862.405 446.802 860.886 446.422C859.652 446.137 855.095 443.953 850.729 441.578C844.368 438.158 842.66 436.829 842.28 434.739C841.995 433.314 841.236 429.42 840.666 426C839.337 418.876 836.964 415.647 830.224 412.133C824.149 409.093 819.023 404.059 818.358 400.449C817.884 398.075 817.314 397.505 815.226 397.505C813.897 397.6 811.049 398.17 808.961 398.93C803.834 400.829 802.79 400.734 802.79 398.265C802.79 397.03 800.607 394.085 797.095 390.761C793.962 387.626 791.209 384.112 790.829 382.592C789.5 376.418 789.595 376.513 786.178 377.178C783.235 377.653 782.856 377.463 780.482 373.758C776.685 367.774 776.685 367.584 780.957 366.255C784.469 365.21 784.754 364.83 784.754 361.885C784.754 359.036 784.279 358.371 781.242 356.851C779.248 355.806 776.4 354.761 774.977 354.381C771.369 353.527 768.427 347.258 769.661 342.983C770.515 339.944 768.616 330.92 766.528 328.355C765.864 327.596 762.826 327.216 757.89 327.216C750.58 327.216 750.011 327.121 747.068 324.176L744.03 321.232L746.309 318.477C749.821 314.393 749.346 311.638 744.22 305.749C740.328 301.38 739.189 300.62 736.341 300.62C729.886 300.525 728.747 299.86 728.747 295.775C728.747 293.401 729.601 290.836 731.215 288.557L733.683 284.947L729.317 280.958C726.184 278.203 724.95 276.303 724.95 274.499C724.95 272.029 725.14 272.029 728.747 272.599C732.164 273.169 732.544 273.074 732.544 271.269C732.544 270.129 731.785 268.99 730.93 268.705C722.387 265.95 720.203 263.1 720.203 254.742C720.203 249.613 719.919 248.853 716.406 244.673C713.084 240.779 712.609 239.544 712.609 235.46C712.609 229.476 708.243 221.402 704.446 220.452C703.117 220.072 700.838 218.932 699.414 217.887C697.231 216.273 696.472 216.178 694.288 217.128C690.871 218.647 688.877 217.697 688.877 214.278C688.877 211.713 689.257 211.333 692.959 210.669C696.092 210.004 697.041 209.434 697.231 207.724C697.516 205.824 697.231 205.634 694.858 206.109C693.434 206.489 690.681 207.344 688.783 208.009C686.125 208.959 684.416 209.054 681.853 208.389C678.815 207.534 677.771 207.724 673.879 210.004C664.481 215.323 652.33 210.953 659.07 204.589C663.722 200.22 660.589 197.75 655.178 201.455C653.28 202.69 650.527 203.735 648.913 203.735C645.211 203.735 640.749 206.109 639.99 208.484C639.041 211.428 636.667 210.763 635.149 206.964C634.009 204.305 633.915 202.88 634.674 200.6C636.003 196.801 636.003 196.136 634.294 196.136C631.636 196.136 628.599 194.046 626.51 190.912C624.612 188.062 623.947 187.682 621.669 188.157C617.777 188.917 616.923 186.257 620.055 183.313L622.523 181.128L619.865 179.133L617.207 177.044L619.391 175.619C620.53 174.764 621.479 173.529 621.479 172.769C621.479 171.06 617.872 169.255 615.688 169.825C614.359 170.205 613.41 169.54 612.461 167.64C611.702 166.12 610.088 164.126 608.854 163.176C607.62 162.226 606.291 160.326 606.006 158.996C605.626 157.477 603.633 155.387 600.595 153.487C595.659 150.258 594.71 147.978 597.273 145.794C598.602 144.654 598.507 144.274 596.228 141.804C594.804 140.379 592.621 139.145 591.482 139.145C590.153 139.145 588.634 137.815 586.925 135.345C583.888 130.691 581.04 130.311 580.186 134.395C579.806 135.915 578.952 137.245 578.192 137.245C576.483 137.245 575.534 133.35 576.199 128.601C576.768 124.422 575.154 122.807 572.591 124.897C568.984 127.841 566.801 122.712 569.839 118.438C570.693 117.203 571.168 116.158 571.073 115.968C570.883 115.873 568.604 115.113 565.947 114.163C557.213 111.124 547.815 112.359 542.405 117.203C540.696 118.628 540.411 118.533 538.228 115.968L535.855 113.214L531.108 114.923C527.786 116.063 526.077 116.253 525.413 115.588C524.653 114.828 523.799 114.828 522.565 115.493C521.236 116.158 520.286 116.158 519.337 115.303C518.103 114.353 518.103 113.973 519.432 112.549C520.192 111.694 520.856 110.649 520.856 110.364C520.856 109.129 516.489 109.699 514.591 111.124C513.642 111.884 511.458 112.549 509.844 112.549C507.851 112.549 506.427 113.214 505.478 114.543C504.339 116.348 503.864 116.443 501.965 115.493C500.447 114.638 500.162 113.973 500.826 113.214C501.396 112.359 501.206 111.314 499.972 109.699L498.263 107.419L496.46 109.604C494.941 111.409 494.276 111.694 492.758 110.934C491.808 110.364 489.625 110.079 488.011 110.364C486.113 110.649 484.689 110.269 483.929 109.319C482.505 107.609 479.088 107.229 479.088 108.749C479.088 109.224 477.664 109.699 475.86 109.699C473.297 109.699 472.158 109.034 470.545 106.85C468.931 104.665 467.792 104 465.229 104C463.235 104 461.716 104.57 461.432 105.33Z" fill="white"/>
<path d="M144.63 566.996C142.188 567.679 139.356 569.242 138.185 570.316C135.938 572.367 129.493 573.05 128.419 571.292C127.442 569.73 123.341 570.218 119.728 572.367C116.7 574.124 116.212 574.906 116.212 578.128C116.212 582.523 117.97 584.281 121.583 583.402C124.122 582.816 124.122 582.913 123.048 584.964C122.462 586.136 122.071 588.773 122.267 590.824C122.462 592.874 122.267 594.339 121.876 594.144C121.388 593.851 121.095 593.07 121.095 592.484C121.095 591.8 120.216 590.238 119.239 588.968C117.97 587.21 116.993 586.82 115.333 587.406C113.185 588.089 113.087 588.382 113.77 594.632C114.161 598.148 115.04 601.761 115.821 602.64C116.603 603.421 117.188 605.081 117.188 606.253C117.188 607.425 117.481 608.402 117.97 608.402C119.044 608.402 125.196 604.496 127.638 602.347C128.81 601.273 131.935 599.613 134.669 598.734C139.063 597.367 140.138 596.39 144.923 589.456C150.001 582.23 150.294 581.937 151.368 583.988C152.54 586.038 152.638 585.941 154.493 580.96C155.567 578.031 156.642 573.929 156.935 571.683C157.325 568.167 157.13 567.679 154.786 566.605C151.661 565.14 150.196 565.238 144.63 566.996Z" fill="white"/>
<path d="M137.403 602.738C131.446 606.839 128.614 610.843 128.126 615.726C127.247 623.734 127.54 627.64 129.2 630.179C130.763 632.621 131.056 632.718 133.106 631.449C134.278 630.667 136.915 629.691 138.868 629.398C141.7 628.812 143.067 627.835 144.63 625.101C145.802 623.148 147.657 620.706 148.634 619.535C150.392 617.581 150.392 617.484 148.438 615.726C145.899 613.382 145.997 611.722 148.927 607.816C151.759 604.105 151.856 603.519 149.903 603.519C149.024 603.519 147.267 602.445 145.899 601.078C144.532 599.71 143.36 598.636 143.263 598.734C143.165 598.734 140.528 600.589 137.403 602.738Z" fill="white"/>
<circle id="1490" cx="235" cy="189" fill="#E52A0D"/>
<circle id="1492" cx="187" cy="810" fill="#E52A0D"/>
<circle id="593" cx="295" cy="384" fill="#E52A0D"/>
<circle id="592" cx="37" cy="426" fill="#5CE50D"/>
</svg>
