<svg width="1000" height="1000" viewBox="0 0 1000 1000" fill="none" xmlns="http://www.w3.org/2000/svg">
<path d="M832.625 1.21316C830.867 1.99441 828.426 2.678 827.254 2.678C824.324 2.678 820.027 7.3655 819.246 11.4671C818.855 13.3225 817.683 15.9593 816.707 17.3264C814.851 19.9632 813.484 20.7444 801.765 26.2132C798.054 27.971 794.734 29.7288 794.441 30.1194C793.172 31.8772 784.773 34.221 780.086 34.0257C776.668 33.928 773.347 34.5139 770.418 35.8811C766.804 37.4436 763.777 37.8343 756.258 37.8343C747.078 37.8343 746.492 37.9319 745.515 40.0803C744.148 43.1077 737.117 46.6233 732.429 46.6233C730.281 46.6233 725.886 47.6975 722.664 49.0647C719.441 50.3343 715.242 51.5061 713.386 51.5061C711.531 51.5061 708.406 51.8968 706.551 52.4827C704.011 53.1663 701.668 53.0686 697.469 51.9944C694.344 51.2132 690.144 50.5296 688.191 50.5296C685.945 50.5296 683.894 49.7483 682.429 48.4788C680.574 46.6233 679.988 46.5257 678.719 47.5999C677.84 48.2835 675.984 48.9671 674.519 49.1624C668.367 49.7483 660.457 51.5061 657.918 52.8733C656.453 53.6546 653.816 55.0218 652.156 55.9007C650.398 56.6819 648.933 57.7561 648.933 58.1468C648.933 59.6116 636.336 62.346 626.961 62.7366C621.59 63.0296 615.34 63.5178 612.996 63.8108C609.285 64.2991 608.211 64.0061 604.5 61.3694C599.519 57.7561 596.297 57.5608 587.508 60.2952C579.597 62.8343 567.195 68.6936 566.219 70.4514C565.828 71.2327 563.875 72.5022 562.019 73.3811C556.16 76.2132 552.547 78.3616 549.226 81.2913C543.953 85.6858 530.965 91.3499 522.469 93.01C512.019 94.9632 511.531 94.9632 509.871 91.6428C507.918 87.9319 503.914 86.6624 495.906 87.346C489.265 87.8343 486.238 87.1507 475.301 82.6585C472.273 81.3889 471.687 81.4866 466.316 84.5139C463.191 86.1741 459.773 87.6389 458.699 87.6389C457.722 87.6389 455.867 88.8108 454.5 90.178C450.008 94.9632 446.101 96.721 441.121 96.135C436.726 95.6468 436.433 95.8421 431.16 100.627C425.984 105.412 417.683 110.1 414.461 110.1C413.582 110.1 412.215 111.076 411.433 112.248C410.066 114.299 409.383 114.397 400.789 114.201C394.734 114.006 390.242 114.397 387.703 115.276C384.676 116.35 382.234 116.448 376.961 115.764C373.25 115.276 368.269 114.592 365.926 114.397C362.605 114.006 360.554 112.834 356.355 109.026C353.426 106.389 350.594 104.241 350.008 104.241C349.422 104.241 346.883 102.58 344.344 100.53C341.902 98.4788 338.191 95.8421 336.238 94.5725C330.769 91.3499 314.851 73.2835 310.554 65.7639C308.504 62.1507 306.258 58.928 305.574 58.635C304.89 58.4397 303.621 55.9007 302.644 53.1663C300.594 46.8186 298.738 43.6936 296.785 43.6936C296.004 43.6936 293.855 42.1311 291.902 40.2757C290.047 38.4202 287.996 36.8577 287.312 36.8577C286.629 36.9553 277.351 49.9436 266.609 65.7639C255.867 81.5843 246.101 95.8421 244.929 97.4046C242 101.018 242.097 102.678 245.515 106.975C247.176 109.026 249.519 114.201 250.984 119.084C253.523 127.678 255.281 130.022 264.265 136.955C265.828 138.225 267.586 141.35 268.855 145.256L271.004 151.604L277.351 153.459L283.601 155.217L285.164 162.737C286.043 166.838 287.019 170.94 287.312 171.916C287.508 172.795 289.461 174.455 291.511 175.53C294.441 176.994 295.613 178.362 296.492 181.194C297.859 185.979 303.035 190.178 308.992 191.448C312.996 192.326 314.754 193.791 326.179 205.412L338.875 218.401L379.402 232.073C401.668 239.592 451.57 256.096 490.34 268.694L560.75 291.741H630.672L623.933 298.869C595.613 328.557 523.152 403.166 472.273 455.022L411.14 517.326L403.328 516.838C387.703 515.862 339.363 514.299 338.582 514.787C338.191 514.983 329.402 517.424 318.953 520.159C304.207 524.065 297.566 526.311 288.289 530.901C272.371 538.518 269.051 541.155 266.804 547.405C265.828 550.334 262.801 555.119 259.676 558.83C254.597 564.787 254.011 565.178 250.105 565.178C247.761 565.178 242.976 566.252 239.461 567.619C233.992 569.67 230.379 570.159 215.926 570.842L198.836 571.721L195.027 575.041C192.879 576.897 190.34 579.826 189.461 581.584C188.582 583.342 187.215 585.1 186.433 585.393C185.652 585.686 184.09 587.639 183.015 589.787C181.941 591.936 178.719 596.819 175.886 600.725C173.054 604.534 164.949 615.764 157.82 625.725C147.761 639.885 142.097 646.623 131.844 656.975L118.66 670.159L118.269 938.909L138.777 966.448C150.008 981.584 159.676 995.354 160.261 997.014L161.238 1000.14L166.804 991.643C169.929 986.955 172.664 982.366 173.054 981.487C173.347 980.51 175.105 978.069 176.863 976.116C178.719 974.065 180.379 971.33 180.769 969.963C181.062 968.596 181.941 967.522 182.722 967.522C184.187 967.522 186.043 964.201 189.07 956.389C190.144 953.362 191.414 950.92 191.902 950.92C192.976 950.92 198.738 942.424 198.738 940.862C198.738 940.178 200.105 939.201 201.668 938.713C203.621 938.03 206.941 934.807 211.726 928.85C223.543 914.006 235.554 900.627 252.058 884.123C260.652 875.53 269.929 865.764 272.566 862.639C275.203 859.416 278.719 855.412 280.281 853.752C281.941 851.994 286.629 846.916 290.73 842.326C294.832 837.834 302.058 830.803 306.844 826.799C311.531 822.795 317.195 817.815 319.344 815.666C324.129 810.881 332.039 804.436 333.211 804.436C333.699 804.436 334.773 803.655 335.652 802.678C336.629 801.799 339.363 799.26 341.804 797.112C344.246 794.963 348.836 790.764 351.863 787.834C367.683 772.405 409.383 743.498 426.668 735.881C430.476 734.221 443.074 727.092 454.597 719.963C466.121 712.834 478.035 705.705 480.965 704.045C485.945 701.213 508.308 679.729 508.308 677.776C508.308 677.287 509.48 676.213 511.043 675.334C512.508 674.455 516.316 671.135 519.539 668.01C522.761 664.885 527.351 660.588 529.793 658.44C532.234 656.194 535.75 652.678 537.605 650.627C539.461 648.479 542.39 645.549 544.148 644.182C545.906 642.717 548.054 640.178 549.129 638.518C551.668 634.416 575.301 609.026 583.797 601.409C587.605 597.991 592.586 592.717 594.929 589.787C598.64 585.002 604.402 578.557 623.64 557.854C626.668 554.631 630.769 548.869 632.82 545.159C634.871 541.35 637.312 537.444 638.289 536.272C639.265 535.198 642.488 529.826 645.515 524.26C648.445 518.791 654.597 509.319 659.187 503.362C663.777 497.307 670.711 488.127 674.812 482.854C689.851 463.127 713.484 419.768 712.019 414.397C711.433 412.248 717.39 393.401 719.832 389.69C720.613 388.518 721.199 386.467 721.199 385.1C721.199 383.733 723.25 380.022 725.886 376.506C728.426 373.088 733.308 365.764 736.726 360.1C740.144 354.436 744.441 348.283 746.199 346.428C749.422 343.01 759.48 323.869 760.75 318.791C761.14 317.229 762.508 315.373 763.679 314.592C765.535 313.323 765.926 312.053 766.316 305.412C766.707 298.186 767 297.405 770.515 293.108C772.664 290.569 776.277 287.346 778.621 285.979C786.629 281.291 789.656 278.069 790.242 273.186C790.535 270.744 791.414 268.401 792.097 268.01C792.879 267.619 794.148 265.862 795.027 264.104C795.906 262.346 798.445 258.83 800.496 256.096C803.719 252.092 804.304 250.627 803.914 248.186C803.523 245.744 803.914 244.573 805.672 242.912C807.527 241.155 808.113 239.299 808.699 234.026L809.285 227.385L815.144 222.795C821.98 217.424 826.668 211.369 826.668 207.951C826.668 205.119 829.988 199.455 832.039 198.576C832.82 198.283 833.504 197.6 833.504 197.014C833.504 196.428 835.359 193.401 837.508 190.178L841.609 184.514L839.656 182.073C837.801 179.631 837.801 179.436 839.461 169.475C840.437 163.908 842.39 156.096 843.855 152.092C846.101 145.842 846.297 144.182 845.418 140.959C844.734 138.42 844.734 136.272 845.418 134.319C846.004 132.756 846.199 129.533 845.808 127.092C845.32 122.991 845.418 122.698 848.933 120.354C853.914 117.131 868.953 113.811 870.808 115.569C871.492 116.252 873.836 117.131 875.984 117.424C879.695 118.01 880.086 117.912 881.16 115.471C882.527 112.444 881.355 110.1 878.523 110.1C877.644 110.1 874.812 109.319 872.273 108.44C868.269 106.975 867.488 106.975 866.707 108.147C866.219 109.026 866.219 110.002 866.804 110.686C868.074 112.248 865.73 113.03 859.578 113.03H854.5L857.722 110.881C860.359 109.319 860.847 108.342 860.457 106.584C859.969 104.826 860.359 104.338 862.019 104.045C863.972 103.752 864.265 103.264 863.972 100.334C863.777 98.4788 863.191 96.5257 862.703 95.9397C862.215 95.4514 861.824 90.0803 861.824 84.0257C861.824 74.553 862.117 72.3069 864.168 67.6194C866.804 61.8577 866.316 60.2952 861.922 58.8303C860.75 58.5374 859.676 56.7796 859.187 54.6311C858.406 51.7014 858.699 50.0413 860.457 46.0374C861.629 43.303 862.41 39.885 862.117 38.6155C861.531 35.3928 863.875 30.803 868.269 26.8968C871.101 24.26 871.687 23.1858 871.297 20.7444C871.004 19.1819 871.492 16.5452 872.273 15.0803C873.836 11.9553 873.347 9.31863 871.297 10.0022C870.613 10.2952 868.367 9.90457 866.414 9.02566C864.461 8.24441 861.531 7.56082 859.969 7.56082C858.406 7.56082 856.746 7.17019 856.453 6.58425C856.16 6.09597 852.742 4.72878 848.836 3.65457C844.929 2.58035 841.023 1.21316 840.144 0.724878C837.898 -0.544653 836.629 -0.446997 832.625 1.21316Z" fill="white"/>
<circle id="620" cx="434" cy="731" fill="#5CE50D"/>
<circle id="622" cx="714" cy="56" fill="#E52A0D"/>
<circle id="621" cx="374" cy="188" fill="#E52A0D"/>
<circle cx="703" cy="408" fill="#E52A0D"/>
</svg>
