<svg width="1000" height="1000" viewBox="0 0 1000 1000" fill="none" xmlns="http://www.w3.org/2000/svg">
<path d="M712.517 31.2653C711.049 31.9997 708.386 32.5505 706.734 32.6423C705.082 32.6423 701.685 33.6521 699.206 34.9373C693.056 38.0585 693.148 39.8027 700.216 47.6057C705.449 53.3891 706 53.7563 709.672 53.7563C711.875 53.7563 716.006 54.6743 719.035 55.6841C722.707 57.0611 727.573 57.7955 734.549 58.0709C740.057 58.3463 745.933 59.1725 747.677 59.9069L750.706 61.1921L748.687 64.1297C747.493 65.7821 746.575 67.1591 746.483 67.3427C746.392 67.4345 743.087 66.0575 739.231 64.2215C732.254 60.9167 732.163 60.9167 729.225 62.4773C726.379 63.9461 726.104 63.9461 721.422 62.1101C714.353 59.3561 713.068 59.6315 709.029 64.8641C707.193 67.3427 705.173 69.3623 704.714 69.3623C702.878 69.3623 702.603 66.3329 703.98 63.7625C705.357 61.3757 705.357 61.1921 703.062 58.9889C697.738 54.0317 689.659 52.1957 682.04 54.1235C677.725 55.3169 677.542 55.2251 672.584 51.9203C667.352 48.4319 649.635 41.9141 638.251 39.3437C633.294 38.1503 627.419 37.8749 613.833 37.9667C604.01 38.0585 592.719 37.6913 588.863 37.1405C580.876 36.1307 571.329 37.0487 559.579 40.0781C555.723 40.9961 548.379 42.2813 543.33 42.8321L534.058 43.9337L530.478 48.1565C527.541 51.7367 522.951 60.7331 522.951 62.9363C522.951 63.3953 524.052 64.0379 525.521 64.5887C527.816 65.4149 528 65.7821 527.724 69.6377C527.449 72.6671 526.714 74.4113 524.878 76.1555L522.4 78.5423L513.036 77.4407C504.866 76.5227 503.489 76.0637 502.296 74.2277C501.01 72.2999 500.184 72.1163 494.125 72.1163C488.25 72.1163 486.965 71.8409 483.844 69.5459C479.162 66.1493 478.336 65.8739 468.238 64.4051C461.904 63.3953 458.14 62.2019 453.366 59.7233C446.94 56.4185 435.465 53.7563 427.111 53.7563C424.725 53.7563 422.521 53.0219 420.685 51.5531C417.197 48.9827 413.984 47.8811 402.693 45.4025C386.536 41.8223 383.69 41.6387 375.612 43.5665L368.268 45.4025L361.383 42.2813C351.468 37.9667 350.918 37.7831 340.636 38.0585C332.741 38.2421 330.354 37.8749 324.663 35.9471C320.899 34.6619 316.217 33.5603 314.198 33.5603C312.086 33.5603 306.303 32.9177 301.254 32.1833C295.838 31.3571 290.054 30.9899 287.208 31.3571C282.527 31.9079 282.251 32.0915 280.048 36.4061L277.845 40.9043H272.796C268.206 40.9043 267.655 41.1797 265.544 43.9337C264.167 45.7697 263.157 48.2483 263.157 49.9007C263.157 51.5531 260.311 59.3561 256.823 67.2509C249.754 83.5913 249.387 84.7847 248.469 96.9023C247.184 113.243 243.879 128.206 240.023 134.907C238.187 138.029 237.086 138.855 232.22 140.415C226.712 142.16 226.529 142.343 224.234 147.484C223.04 150.33 221.48 156.205 220.837 160.428C219.644 169.149 218.542 171.077 210.188 179.155C206.975 182.276 204.405 185.214 204.405 185.673C204.405 186.132 204.956 187.325 205.69 188.243C206.792 189.804 207.434 189.896 211.198 188.978L215.421 188.06V196.23C215.421 202.38 215.788 205.134 216.981 207.154C217.899 208.623 218.817 209.816 219.185 209.816C219.735 209.816 222.214 205.134 222.122 204.308C222.03 204.033 221.755 202.748 221.388 201.462C220.837 199.351 221.112 198.984 223.132 198.617C225.152 198.249 226.345 198.984 230.292 203.298C238.646 212.387 239.381 216.793 233.505 222.485L229.466 226.432L226.896 222.209C224.417 218.354 223.958 218.078 220.378 218.078C214.962 218.078 211.749 220.832 211.749 225.33C211.749 227.258 210.739 231.297 209.454 234.419C206.516 241.671 206.608 242.864 209.913 246.077C211.473 247.546 212.667 249.474 212.667 250.484C212.667 251.952 212.208 252.136 209.178 251.585C206.424 251.126 204.864 251.493 201.559 253.329C199.356 254.615 196.602 255.716 195.408 255.716C194.215 255.716 192.195 256.267 190.818 257.001C187.422 258.746 169.337 258.746 165.023 257.001C160.249 254.982 155.384 255.441 149.508 258.378L144.184 261.041L140.604 258.378C137.575 256.083 136.198 255.716 131.516 255.716C126.191 255.716 125.549 255.992 119.765 260.398C115.267 263.703 113.064 266.181 111.779 269.027C110.31 272.424 109.484 273.158 106.638 273.709C104.802 273.984 100.487 274.076 96.9989 273.893L90.7565 273.434L85.3403 280.41C82.4027 284.266 78.1799 289.04 75.9767 291.151L71.9376 294.915L73.0392 300.882C74.1408 306.665 74.3244 306.849 77.5373 307.675C80.9339 308.501 80.9339 308.501 81.3929 314.193C81.7601 319.15 82.2191 320.343 85.1567 323.373C88.2779 326.586 88.5533 327.412 89.0123 333.746C89.8385 343.936 88.0943 349.719 78.6389 368.538C74.1408 377.535 70.377 385.338 70.377 385.797C70.377 386.256 69.1836 387.541 67.623 388.642C64.41 391.029 64.1346 393.783 66.246 401.678C66.9804 404.432 67.623 408.747 67.5312 411.317V415.907L57.8922 423.251C51.3744 428.208 47.0598 432.247 44.5812 435.828C41.3682 440.601 41.001 441.611 41.001 446.844C41.001 450.057 41.6436 454.647 42.378 457.125C43.1124 459.604 43.755 464.561 43.755 468.141C43.755 478.147 45.6828 484.206 49.9056 487.511C51.8334 488.98 55.0464 492.101 57.066 494.304C59.0856 496.507 63.033 500.822 65.8788 503.943C69.2754 507.615 71.8458 511.746 73.59 515.969C75.0588 519.457 78.5471 525.241 81.3929 528.729C86.4419 535.063 86.4419 535.155 86.9927 542.775C87.4517 549.751 87.7271 550.761 91.1237 555.535C94.2449 560.033 95.9891 561.41 103.884 565.725C113.431 570.865 115.634 572.793 119.674 579.862C121.51 582.983 123.437 584.911 127.201 586.93C132.067 589.593 132.434 590.052 134.453 596.018L136.565 602.261L134.27 611.441C132.893 616.49 131.883 621.08 131.883 621.722C131.883 623.65 138.493 627.322 143.817 628.332C146.571 628.791 149.876 629.617 151.069 630.076C152.538 630.627 154.649 630.535 157.036 629.801C160.433 628.791 161.167 628.975 167.318 631.82C170.99 633.473 174.57 634.85 175.212 634.85C177.599 634.758 184.576 628.608 185.678 625.486C186.596 622.824 187.055 622.457 189.625 622.732C191.277 622.824 194.215 623.742 196.143 624.752C201.467 627.506 203.946 627.139 206.516 623.375C208.995 619.703 209.362 619.886 212.483 626.129C214.87 631.086 215.788 639.256 214.411 643.846C213.585 646.876 213.585 648.253 214.962 652.292C216.431 656.79 216.431 657.249 214.962 661.105C213.493 664.96 213.493 665.603 214.962 671.57C216.614 678.179 217.165 678.73 221.204 677.17C223.04 676.435 223.866 676.619 224.968 677.904C226.437 679.465 226.345 679.648 224.142 680.199C222.214 680.658 221.847 681.301 221.847 684.33C221.847 687.268 222.398 688.461 225.427 691.123C231.853 696.998 232.771 700.12 230.935 710.493C230.201 714.899 230.292 717.011 231.21 720.224C232.312 723.896 232.863 724.447 235.617 724.814C238.095 725.181 238.83 725.824 239.381 727.843C240.023 730.322 239.84 730.597 236.076 732.25L232.037 733.994L233.414 737.207C234.148 738.951 234.699 742.164 234.699 744.459C234.699 748.406 234.791 748.59 239.748 751.344C242.502 752.905 245.99 754.19 247.551 754.19C249.754 754.19 250.305 754.557 250.305 756.209C250.305 760.34 251.406 762.176 254.528 763.645C256.823 764.747 257.649 765.757 257.649 767.409C257.649 768.694 258.934 771.173 260.403 772.917C263.432 776.314 265.911 782.372 265.911 786.32C265.911 788.431 266.462 788.982 269.675 789.9C273.989 791.185 274.815 792.838 273.347 796.969C272.337 799.631 272.52 800.365 274.356 803.211C275.55 805.047 277.845 807.158 279.497 808.076C281.15 808.994 282.435 810.371 282.435 811.381C282.435 813.952 284.73 817.715 288.769 821.663C291.615 824.417 292.533 825.977 292.533 828.181C292.533 830.567 293.084 831.577 295.287 832.771C296.756 833.689 298.5 835.616 299.051 837.085C300.06 839.564 299.969 839.839 296.756 842.501L293.267 845.347L299.693 848.285C304.1 850.396 306.578 852.14 307.496 853.885C308.781 856.363 308.69 856.822 306.67 860.861L304.467 865.268L308.781 867.838C311.168 869.215 315.116 872.153 317.594 874.448L322.092 878.579L321.633 884.087C321.174 890.88 323.01 894.46 332.19 904.742C335.679 908.505 341.003 915.207 344.124 919.521L349.908 927.416L378.182 928.334L381.854 932.282C385.618 936.229 391.493 939.534 394.982 939.626C396.542 939.626 397.185 940.452 398.011 943.665C398.929 947.521 399.204 947.796 403.794 949.173C412.148 951.56 415.728 951.835 421.512 950.274C426.652 948.989 427.203 948.989 430.967 950.642C433.17 951.651 437.026 953.946 439.504 955.782C445.288 960.005 451.347 960.74 459.976 958.445L465.943 956.792L472.002 960.648C478.978 964.962 494.952 969.92 502.112 969.92C504.499 969.92 508.997 969.185 512.21 968.359C516.892 967.074 518.728 965.88 522.583 962.025C528.091 956.425 529.193 952.753 527.082 947.612C525.337 943.39 525.337 939.626 527.082 931.18C527.908 927.508 528.275 923.469 528 922.276C527.724 921.082 523.318 915.941 518.361 910.709C513.312 905.568 509.181 900.703 509.181 899.876C509.181 898.132 508.354 897.49 502.296 895.011C497.797 893.175 497.706 893.083 497.063 888.31C496.604 884.27 495.961 882.985 493.391 880.874C490.453 878.303 483.018 875.366 479.805 875.366C474.939 875.366 473.562 871.327 477.326 868.297C478.428 867.379 479.988 865.176 480.723 863.432C481.365 861.688 482.926 858.199 484.119 855.812L486.322 851.406L489.444 853.334C493.116 855.629 492.932 855.721 501.194 848.377C506.702 843.419 507.253 842.501 506.794 840.206C506.518 838.738 506.518 833.321 506.886 827.997C507.528 819.551 507.895 817.991 509.823 815.604C511.476 813.676 512.944 812.942 514.964 812.942C519.462 812.942 527.082 816.981 532.131 822.03C536.629 826.528 537.088 826.712 545.717 828.456C558.385 830.935 559.303 831.394 559.946 835.616C560.497 838.554 561.139 839.38 564.536 841.216C568.3 843.236 568.667 843.236 572.523 841.859C574.818 841.033 579.132 840.115 582.162 839.839C585.558 839.472 589.322 838.37 591.984 836.81C596.023 834.607 596.666 834.515 601.715 835.249C605.662 835.984 610.069 835.8 618.698 834.698L630.357 833.23L636.691 835.341L643.025 837.544L646.054 834.423C648.258 832.22 649.359 829.925 650.094 826.069L651.103 820.928L657.07 818.633C661.293 817.073 663.955 816.614 666.617 816.981C679.745 818.817 678.276 819.092 682.958 813.86C685.345 811.198 687.272 808.811 687.272 808.444C687.272 807.342 693.882 805.598 697.738 805.598C700.675 805.598 701.226 805.965 702.603 808.811C704.898 813.584 707.744 813.952 711.875 809.912C717.75 804.313 726.655 799.172 730.51 799.172C732.989 799.172 735.1 798.346 738.13 795.959C740.516 794.215 742.536 792.746 742.811 792.746C744.28 792.746 742.811 797.611 740.057 801.65C738.313 804.313 736.844 807.067 736.844 807.893C736.844 808.627 739.048 810.739 741.71 812.483C745.106 814.778 747.218 816.981 748.595 819.919C749.788 822.214 751.9 825.702 753.46 827.63C756.031 830.843 756.857 831.21 764.384 832.679L772.555 834.239L777.42 829.925L782.285 825.702L788.711 826.253C792.292 826.528 796.606 827.079 798.442 827.354L801.655 827.813L800.737 832.22C800.186 835.249 800.186 837.361 800.737 838.738C801.563 840.574 801.288 841.216 799.085 843.052C796.055 845.623 795.872 848.009 798.35 851.498C799.36 852.875 800.554 855.078 801.013 856.271C801.563 857.832 802.849 858.75 804.776 859.209C810.927 860.402 813.589 859.852 819.464 855.996L825.156 852.324L830.848 854.344L836.631 856.455L839.936 853.885C842.965 851.498 844.159 849.478 847.463 839.747C847.739 839.105 849.667 838.646 852.788 838.646H857.745L865.64 830.108C872.341 822.764 873.718 820.745 875.003 816.063C875.83 813.125 878.125 808.168 880.052 805.139C881.98 802.018 884.092 797.244 884.734 794.306C885.652 789.992 886.846 787.88 890.701 783.566C893.363 780.628 899.055 773.009 903.37 766.766C910.255 756.668 911.264 754.832 911.264 751.344C911.264 748.039 911.815 746.846 914.569 744C917.782 740.695 917.874 740.603 915.946 739.594C912.917 737.941 913.284 730.414 916.589 724.906C918.7 721.509 921.362 715.45 921.362 714.165C921.362 713.981 920.077 712.421 918.425 710.585C915.946 707.647 915.487 706.454 915.12 700.67C914.844 695.254 915.028 693.785 916.221 692.776C917.231 691.949 917.69 690.022 917.69 686.625C917.69 681.851 917.599 681.576 915.028 681.117C913.468 680.75 911.54 679.74 910.714 678.822C909.336 677.261 909.428 676.711 912.274 669.734C914.477 664.409 916.13 661.931 917.782 661.013C920.628 659.452 924.943 654.311 927.605 649.079C928.615 647.059 931.552 643.387 934.122 640.817C938.712 636.411 938.804 636.227 938.804 630.811C938.804 625.67 938.988 625.211 942.384 622.273C944.404 620.529 947.801 615.939 950.188 611.441C954.043 604.372 954.41 603.087 954.41 597.304C954.41 590.694 956.43 578.393 958.174 574.17C959 571.967 958.725 571.049 955.695 566.551C953.217 562.787 951.84 561.502 950.83 561.869C944.312 564.439 941.834 562.42 938.345 552.23C937.06 548.466 933.939 542.224 931.368 538.368C926.962 531.667 926.503 531.208 919.526 528.087L912.366 524.874L911.264 519.825C910.438 515.51 909.704 514.408 906.583 512.205C904.563 510.828 902.084 508.166 901.166 506.422C900.248 504.586 897.403 501.097 894.832 498.619C891.436 495.314 890.15 493.203 889.691 490.54C889.049 486.777 884.367 480.534 879.593 477.046C872.892 472.18 873.167 472.823 875.462 469.61C876.564 468.049 878.125 464.377 878.859 461.532C879.593 458.686 880.97 454.83 881.98 452.994L883.724 449.506L879.869 446.293C877.757 444.457 875.371 442.988 874.636 442.988C873.81 442.988 871.699 442.529 869.863 442.07C867.109 441.336 866.374 440.509 865.548 437.572C864.905 435.644 864.446 432.064 864.446 429.769C864.446 420.956 862.335 407.461 859.765 399.199C857.929 393.232 856.735 386.715 855.817 377.259C854.624 364.591 854.716 363.581 856.184 360.919C857.653 358.44 857.837 355.778 857.745 339.438L857.653 320.802L852.88 317.681L848.198 314.56L847.647 302.351C847.372 295.649 846.637 287.938 845.995 285.184L844.801 280.227L848.014 277.381C851.778 274.076 853.43 268.935 853.43 260.306C853.43 252.411 856.368 246.995 863.896 240.936C869.587 236.438 870.872 234.51 870.872 230.379C870.872 229.37 872.341 227.075 874.177 225.33C876.013 223.678 878.951 219.272 880.695 215.783C882.531 212.203 885.652 206.511 887.672 203.023C891.344 196.781 891.619 196.597 899.881 192.741C910.714 187.692 914.753 183.194 926.87 162.998C928.156 160.887 933.939 154.644 939.814 149.136L950.555 139.13L950.922 133.347C951.289 129.124 950.922 126.462 949.728 123.249C946.883 115.997 947.433 110.489 951.748 102.227C954.594 96.7187 959 85.9781 959 84.5093C959 84.4175 957.348 83.5913 955.236 82.6733C953.033 81.6635 951.014 79.8275 950.096 78.1751C949.361 76.6145 947.25 73.7687 945.414 71.8409C942.568 68.9033 941.558 68.4443 937.886 68.4443C931.828 68.4443 927.788 67.0673 918.976 61.9265C911.723 57.7955 910.714 57.4283 906.766 57.9791C903.828 58.3463 898.871 57.7037 890.609 56.0513C884.092 54.6743 876.013 53.2055 872.708 52.7465C869.404 52.2875 864.263 51.5531 861.233 51.0941C858.204 50.6351 851.594 50.1761 846.545 50.1761C833.143 50.0843 823.779 48.1565 814.966 43.7501C808.999 40.7207 806.612 39.9863 802.481 39.9863C799.36 39.9863 795.321 39.1601 791.741 37.7831C786.416 35.7635 783.938 35.4881 760.253 34.5701C740.792 33.8357 732.438 33.1931 725.92 31.7243C716.006 29.6129 716.189 29.6129 712.517 31.2653Z" fill="white"/>
<circle id="648" cx="676" cy="60" fill="#5CE50D"/>
<circle id="650" cx="285" cy="48" fill="#E52A0D"/>
<circle id="651" cx="857" cy="108" fill="#E52A0D"/>
<circle id="1513" cx="722" cy="231" fill="#E52A0D"/>
</svg>
