<svg width="1000" height="1000" viewBox="0 0 1000 1000" fill="none" xmlns="http://www.w3.org/2000/svg">
<path d="M717.987 130.957C717.401 132.227 717.401 135.742 717.89 140.234C718.378 144.141 718.476 149.023 718.085 150.977L717.499 154.59L692.108 153.906C678.241 153.516 666.815 153.32 666.815 153.613C666.815 153.809 672.089 158.789 678.534 164.648L690.253 175.195V221.094L693.573 224.609L696.991 228.027L681.269 242.188C672.675 250 663.202 257.812 660.273 259.668C655.194 262.793 654.511 263.672 650.312 272.559C646.308 281.152 643.476 284.961 622.87 309.473L599.921 336.914H584.882C573.456 336.914 568.573 337.305 564.569 338.574L559.394 340.234L555.194 336.328C552.948 334.277 548.651 330.273 545.722 327.441C538.983 321.094 492.694 291.992 489.276 291.992C488.788 291.992 481.073 295.996 472.187 300.879L455.878 309.766L455.78 317.188C455.78 325.684 454.608 333.691 453.339 334.961C452.851 335.449 445.429 336.328 436.835 337.012C424.042 337.988 420.331 338.672 416.62 340.527L411.933 342.773V305.371L364.862 306.055C338.983 306.445 317.597 306.934 317.401 307.129C317.108 307.324 316.718 315.137 316.425 324.414C316.034 340.527 316.034 341.602 318.085 345.605C319.257 347.852 320.038 350 319.745 350.293C319.452 350.586 304.413 350.391 286.249 349.902L253.241 349.023L247.87 351.66C241.913 354.688 228.534 359.375 223.944 360.059C221.21 360.449 203.632 356.836 197.968 354.59C194.55 353.32 189.862 344.727 186.737 334.082C184.687 326.953 183.515 324.902 177.558 317.871C173.847 313.477 168.378 307.715 165.448 305.176L159.98 300.586L160.663 292.09C161.347 282.031 161.933 282.617 149.823 281.641C142.401 281.055 141.23 281.25 138.202 283.105C135.468 284.766 133.319 285.156 126.191 285.156C110.077 285.156 92.8897 290.43 88.7882 296.68C86.6397 299.902 86.6397 300.293 88.1046 303.32C90.6436 308.789 88.1046 312.891 74.5303 325.098L62.8116 335.547L62.5186 348.242L62.128 360.84L56.3663 365.527C50.7999 370.117 50.6046 370.41 50.6046 374.805C50.6046 377.832 49.921 380.176 48.6514 381.836C46.4054 384.766 46.1124 392.773 47.7725 403.32C48.8468 409.766 48.8468 410.059 46.4054 413.184C44.2569 416.113 41.5225 417.383 25.3116 423.34L6.65926 430.078L6.07332 433.496C5.48739 436.23 5.78036 437.109 7.73348 438.574C10.3702 440.527 10.3702 440.332 2.94832 448.34C0.116293 451.367 -0.274332 452.344 0.311605 455.273C1.19051 459.668 1.28817 459.863 8.41707 464.844L14.4718 469.043L20.8194 468.164C26.6788 467.285 27.2647 467.383 29.3155 469.336C31.2686 471.191 33.71 471.777 46.3077 473.242L61.1514 475L64.8624 483.691C67.9874 491.016 69.3546 493.066 73.3585 496.191C77.3624 499.414 78.3389 499.805 80.4874 499.023C81.8546 498.438 83.5147 498.047 84.1007 498.047C85.9561 498.047 89.3741 504.102 91.2296 510.352C92.1085 513.574 93.085 516.602 93.2803 517.188C93.4757 517.871 92.1085 518.848 90.253 519.531L86.7374 520.703V532.91L90.253 534.277C92.5968 535.156 96.4054 538.672 101.776 544.922L109.687 554.102L127.851 561.035L145.917 567.871L161.054 584.473C173.261 597.754 177.265 601.562 181.269 603.418C184.101 604.785 186.347 606.25 186.347 606.836C186.347 607.324 184.98 609.277 183.319 610.938L180.292 614.16L181.659 632.324L191.327 638.086L201.093 643.75L198.066 649.023C196.503 651.953 195.136 654.688 195.136 655.273C195.136 655.762 196.503 656.25 198.163 656.25C200.409 656.25 202.46 657.324 205.487 660.156C209.589 663.867 209.98 664.062 216.327 664.062L222.968 664.16L238.105 674.707C251.483 683.984 253.632 685.84 256.757 691.016C260.175 696.582 260.273 697.07 260.858 708.984C261.151 715.723 261.64 722.07 262.03 723.242C262.323 724.316 266.62 728.223 271.405 731.934C280.194 738.672 280.194 738.672 277.753 739.941L275.312 741.211L278.046 747.363C280.683 753.32 280.78 753.418 286.835 755.371C291.23 756.836 293.573 758.203 295.038 760.254C296.112 761.914 297.968 764.258 299.237 765.625C300.507 767.09 301.679 770.117 302.069 772.949C302.46 776.172 303.534 778.711 305.292 780.469C307.636 783.008 308.417 783.203 315.351 783.203H322.87L325.116 788.574C327.265 793.457 327.753 794.043 330.097 793.652C332.343 793.359 332.929 793.945 334.882 798.047C337.226 803.125 337.714 803.32 345.233 801.855C349.14 801.074 349.53 801.27 351.679 804.004L353.925 806.836L364.667 801.465C373.944 796.777 376.288 795.215 380.39 790.234L385.273 784.375L389.472 787.695C393.866 791.211 394.648 791.309 403.144 790.039C408.515 789.258 408.515 789.258 418.573 795.117C427.558 800.391 428.73 800.879 430.292 799.609C444.062 788.086 443.769 788.281 445.624 781.738C447.284 775.488 447.382 775.391 450.605 775.391C453.827 775.391 459.198 777.246 469.745 781.934L475.214 784.375L476.581 799.805L481.757 803.418C485.077 805.762 486.737 807.52 486.444 808.594C486.151 809.57 488.886 812.109 494.843 816.406C503.339 822.461 503.827 823.047 505.683 828.711L507.733 834.668L522.48 838.965C534.003 842.285 537.323 843.652 538.007 845.215C538.398 846.289 539.081 851.074 539.374 855.859L540.058 864.551L547.577 863.867C553.632 863.379 555.292 862.891 556.659 861.133C557.538 859.863 558.417 859.082 558.612 859.375C558.905 859.668 560.761 862.012 562.812 864.746C564.96 867.383 566.913 870.02 567.304 870.508C567.694 870.996 569.648 868.164 571.601 864.355L575.116 857.324L583.222 853.516C587.714 851.465 593.573 849.512 596.308 849.121C600.898 848.535 602.167 848.828 613.886 854.004L626.483 859.473L632.929 855.566C636.444 853.418 641.034 850.781 643.183 849.707L647.187 847.656L652.558 852.637C655.585 855.371 658.026 858.203 658.026 858.984C658.026 861.816 674.628 871.094 679.706 871.094C680.097 871.094 680.487 869.629 680.487 867.773C680.487 864.648 681.171 863.965 689.569 858.008L698.554 851.562H724.14L737.519 845.605L750.8 839.746L757.831 845.215L764.862 850.781L795.233 849.414L831.366 813.477L867.499 777.441L914.862 776.465C940.937 775.879 970.722 775.098 981.073 774.805L999.921 774.219L997.675 771.387C986.64 757.715 987.323 758.984 985.663 747.559L984.198 736.816L986.347 735.156C987.616 734.18 988.983 733.398 989.472 733.398C989.96 733.398 990.058 731.348 989.667 728.711C989.374 726.172 989.472 722.559 990.058 720.703C990.937 717.676 990.741 717.09 988.105 714.355C985.858 712.012 982.636 710.547 974.628 708.105L964.081 704.883L956.757 708.887L949.335 712.891L947.382 710.645C946.21 709.473 945.038 706.445 944.648 703.906C943.964 699.316 943.769 699.121 935.858 694.141L927.851 689.16L922.284 678.027C917.206 667.773 916.815 666.504 916.815 660.156C916.815 653.809 916.523 652.832 912.909 646.973C907.343 638.184 900.409 622.363 899.14 615.625C896.894 603.223 892.987 599.121 881.659 596.68L875.8 595.41V590.527C875.8 586.133 875.507 585.449 871.698 581.934C868.476 579.102 866.62 578.223 863.983 578.125C855.292 578.027 854.511 577.539 850.214 568.848C846.503 561.426 845.819 560.645 840.546 557.715C834.882 554.59 834.784 554.492 834.784 550.195C834.784 546.094 834.491 545.508 828.241 539.844C824.53 536.523 818.085 530.273 813.788 525.879C806.952 518.75 805.487 517.773 801.581 517.188C799.14 516.797 794.648 515.625 791.523 514.453C785.956 512.5 785.761 512.5 780.194 514.16L774.53 515.82L770.331 513.086C766.425 510.449 765.351 510.254 757.929 510.449C749.921 510.547 749.823 510.547 749.237 508.008C748.944 506.543 748.261 503.906 747.87 502.148C747.382 500.195 747.382 497.852 747.87 496.484C749.14 493.164 756.171 484.18 758.515 482.617C759.687 481.934 760.565 480.371 760.565 479.004C760.565 477.637 761.054 475.684 761.737 474.707C762.616 473.34 762.519 472.461 761.249 470.605C758.515 466.699 759.101 461.816 762.812 458.301C765.839 455.371 766.425 455.176 780.487 453.711C796.698 452.051 796.015 451.953 804.999 458.398L809.882 462.012L812.812 458.496C815.058 455.859 816.523 455.078 818.964 455.078C826.679 455.078 830.194 453.32 834.687 447.07L838.983 441.211L837.323 409.863C836.444 392.578 835.468 376.465 835.175 374.023L834.589 369.629L825.312 365.234C814.765 360.254 811.737 357.031 810.761 349.609C810.273 345.41 810.468 344.824 816.62 336.426C820.136 331.641 823.065 327.441 823.065 327.148C823.065 325.977 819.159 304.395 818.964 304.199C818.769 304.004 817.206 303.516 815.351 303.027C812.421 302.246 811.64 301.367 809.296 295.898C807.05 290.625 805.097 288.086 797.382 280.762C792.304 275.879 786.054 269.238 783.612 265.82L779.023 259.766H772.382C766.034 259.766 765.741 259.668 762.128 255.957L758.417 252.148L760.077 249.219C761.835 246.387 761.737 245.703 756.269 216.699C753.241 200.391 750.8 185.84 750.8 184.375C750.8 182.91 751.874 177.832 753.241 173.242C755.487 165.527 756.952 156.836 758.319 142.578C758.612 139.648 759.687 136.035 760.761 134.57L762.519 131.934L758.417 131.445C754.023 130.859 724.53 128.906 720.917 128.906C719.745 128.906 718.476 129.785 717.987 130.957Z" fill="white"/>
<circle id="632" cx="629" cy="759" fill="#5CE50D"/>
<circle id="635" cx="282" cy="388" fill="#E52A0D"/>
<circle id="634" cx="330" cy="530" fill="#E52A0D"/>
<circle id="633" cx="629" cy="370" fill="#E52A0D"/>
</svg>
