<svg width="1000" height="1000" viewBox="0 0 1000 1000" fill="none" xmlns="http://www.w3.org/2000/svg">
<path fill-rule="evenodd" clip-rule="evenodd" d="M252.486 969.608L252.952 969.048L253.885 969.794L254.445 969.328L254.538 968.582L255.378 968.955L257.524 967.555L257.15 968.488L257.524 969.141L256.964 970.261L256.124 970.168L256.031 971.007H256.497L257.337 971.94L257.71 972.78L256.777 973.993L256.87 974.366L256.124 974.832L255.938 976.139L255.005 976.978L254.445 977.072L253.325 976.325L252.859 976.792L251.366 977.351L251.553 976.698L250.806 977.072L250.246 976.325L251.366 975.392L250.713 974.739L249.593 974.179L248.381 974.553L249.034 973.806L248.474 973.153L249.22 972.22V971.38L250.34 970.634L251.459 970.541L252.486 969.608Z" fill="white"/>
<path fill-rule="evenodd" clip-rule="evenodd" d="M704.691 74.2411L704.784 73.4947L705.344 73.0283L706.091 71.6288L708.423 70.416L711.222 71.7221L711.875 72.3752L712.155 73.4015L712.901 74.7076L715.42 73.9612L717.753 74.8942L718.872 74.2411H719.805L720.645 74.521L721.671 73.0283L722.791 72.4685L724.097 72.6551L724.843 72.2819L725.403 70.7892L724.936 70.3227L724.75 68.9232L725.31 68.1769L725.776 66.964L727.549 65.7512L727.735 65.0981L728.108 62.2059L727.269 61.1797L726.989 59.5936V57.9143L726.522 57.0746L725.869 56.9813L725.216 56.235L725.403 55.2087L724.936 54.0892L725.589 51.6635L726.242 50.8238L728.015 49.7043H729.041L729.601 48.3981V47.3719L728.388 45.9724L728.295 45.226L727.549 43.9199L726.802 43.5467L726.056 44.0132L726.896 42.8003L727.175 41.6808V40.3746L727.922 38.9752L727.269 38.0422L727.082 37.1093L726.522 36.9227L725.963 35.9897V35.43L727.549 34.2171L727.269 33.2841L727.549 32.5378L727.082 31.3249L727.175 30.2054L727.549 29.6456H728.108L729.228 28.4328L730.068 28.9925L730.161 29.6456L731.28 30.2987L731.654 30.0188H732.773L733.24 30.7652L734.639 30.6719L736.785 30.0188L737.998 30.2987L739.397 29.459L739.77 28.6193L741.45 28.0596L742.476 26.94L742.756 26.1936L742.196 25.6339L741.356 23.3948L741.45 22.7417L743.502 23.6747L743.689 24.5143L745.275 24.2344L746.674 22.6484L747.421 23.768L748.447 24.421L749.38 24.5143L750.033 23.9545L751.619 24.8875L751.432 25.354L752.179 25.5406L753.392 24.5143L754.418 24.9808L754.884 25.6339L756.097 26.2869L756.47 26.1004L757.59 26.3802L758.43 27.2199L758.336 27.7797L759.549 28.2462L760.482 27.9663L760.575 27.2199L761.508 27.0333L761.975 26.4735L762.535 26.7534L762.721 27.7797L763.747 28.1529L764.68 28.0596L765.893 27.4065L767.199 26.1004L767.479 24.8875L767.386 23.8612L768.039 23.4881L768.132 24.1411L768.972 24.9808H769.812V25.6339L770.745 26.1936L771.771 25.9138L772.89 28.0596L774.197 28.9925L776.436 29.7389L777.182 29.3657L778.208 29.8322L779.515 30.0188L779.421 31.1383L779.888 31.7914L779.235 32.7244L777.928 33.2841L778.115 34.0305L779.888 36.2696L779.048 36.8294L778.208 36.7361L776.529 35.3367L775.689 34.3104L774.197 33.4707L773.45 33.564L771.398 35.2434L770.185 37.1093L770.092 38.8819L771.398 39.9082L770.465 40.4679L769.905 40.2814L769.159 41.121L767.759 41.2143L765.893 40.6545L763.934 41.2143L763.281 41.8674L762.908 42.8003L761.882 43.5467L761.695 44.8529L760.762 46.9054L759.922 46.7188L759.269 47.2786V47.8383L757.963 48.9579L757.497 50.1707L756.844 50.5439V51.6635L757.59 52.2232L759.083 52.783L759.922 51.5702L759.829 50.9171L760.669 50.0774L761.228 50.1707L762.255 49.5177L762.815 49.7976L764.774 49.3311L765.24 49.0512L765.334 48.0249H766.453L766.826 49.0512L767.013 50.6372L768.879 52.5964L769.812 52.4098L769.625 52.9696L770.465 53.8093H771.771L772.517 52.2232H772.984L773.544 52.9696H775.969L775.596 54.4624L774.756 55.6752L773.917 56.4216L774.103 56.9813L776.063 57.7277L776.716 57.5411V56.3283L776.996 55.8618L777.742 56.1417L777.649 56.7015L778.115 58.2875L778.861 58.0076L779.701 58.4741L778.768 59.9668L779.794 60.8065L779.421 61.3663L778.488 61.5529V62.2992L776.249 63.6987L775.503 65.4713L773.17 67.1506L772.424 66.5908L772.051 65.378L771.304 65.9378L770.185 65.378L769.439 65.8445L768.879 65.4713L767.573 65.6579L766.826 66.1244L766.546 66.8707L765.893 67.3372L766.173 68.0836L765.893 68.6434L764.587 69.2031L764.027 69.7629L764.121 70.416L763.468 70.3227L762.815 71.1623L762.721 71.8154L762.068 71.9087L761.788 72.3752L760.949 72.7484L760.855 73.4015L760.296 72.5618L759.083 73.2149L758.616 73.9612L758.43 75.2674L758.803 76.4802L758.336 77.4132V78.7193L759.456 79.8389V80.3054L760.669 81.145L760.855 82.4512L761.788 83.2908L761.508 85.1568L761.695 86.8361L761.135 87.3959L761.042 88.7953L760.202 89.2618L759.829 90.5679L759.456 91.0344L759.642 91.6875L760.482 91.9674L758.523 93.2735L758.989 94.6729L757.59 95.2327L757.31 96.1657L758.243 97.4718L759.083 98.2182L759.642 99.1512L759.176 100.27L758.056 100.643L758.243 100.923L757.31 101.11L757.217 102.043L755.911 101.67L755.631 101.017L756.004 99.8974L754.884 98.9646L753.578 98.8713L751.059 99.7114L750.033 100.457L749.473 101.39H749.193L748.82 102.23L747.887 102.509L747.794 103.256L747.141 102.789L746.581 103.349L747.234 104.375L746.208 104.655L745.368 104.375L744.622 105.215L744.435 106.148L745.555 106.801V107.547L746.115 108.854H746.581L747.327 110.906L747.98 111.279L747.047 114.918L745.461 116.224L744.808 115.757L744.528 114.638L744.995 113.425L744.342 112.865L743.969 111.466L744.342 110.533L743.969 109.88V109.04L743.502 108.854L742.663 109.227L742.289 108.76L740.61 108.854L740.144 109.227L739.397 109.04L738.744 109.6L736.412 110.533L736.878 111.279L736.225 112.212L735.945 111.932L736.505 110.906L736.132 110.533L735.479 110.719V109.6L734.453 109.04L734.826 107.361L734.266 106.335L732.587 105.028L732.4 104.469L731.28 103.162L730.254 103.349L729.974 104.095L729.135 104.002L729.508 104.562L728.482 105.028L727.362 104.095L725.496 104.282L724.843 103.069L723.817 102.416L723.257 101.297L722.697 101.11L721.951 99.0579L721.111 98.778L720.458 98.0316L717.753 97.6584L716.166 98.3115L715.793 98.8713L715.14 98.4981L714.767 99.3378L714.954 99.7114L714.674 101.297L714.114 101.67L712.248 101.483L711.782 99.8044L710.475 98.2182L710.382 97.3785L710.849 96.4456L710.662 96.0724L711.688 95.1394L711.968 93.5534L711.035 92.4338L711.408 89.5417L710.475 87.769L710.662 87.4892L710.196 86.2763L708.889 85.1568L708.703 83.7573L708.143 82.2646L709.076 80.2121L709.263 78.7193L709.822 78.0663L709.729 77.5998L708.796 77.7864L707.77 77.5065L707.21 76.4802L706.184 75.7339H705.064L704.691 74.2411Z" fill="white"/>
<path fill-rule="evenodd" clip-rule="evenodd" d="M261.534 951.504L260.881 951.224L260.322 951.784L260.601 953.276L258.176 955.515L257.15 954.862L256.217 954.956L255.004 955.795L254.91 956.262L254.071 955.795L253.045 955.889L252.298 956.355L251.832 957.568L251.925 958.781L250.899 959.061L250.805 957.755L250.152 957.381H248.753L248.939 956.635L248.286 955.889L248.66 955.049L248.1 954.396L248.38 953.929H249.033L249.406 953.183L248.566 951.97L249.033 951.41L248.753 950.944L249.219 949.358L248.566 946.652L247.447 944.413L246.327 943.107L245.208 943.014L246.047 942.174L245.674 941.428L245.954 940.495L247.447 940.122L248.286 940.868L249.313 940.681L249.966 939.935L250.246 938.909L249.779 938.069L249.593 936.856L249.219 936.483L250.152 935.923L250.619 935.27L250.059 933.777L250.526 933.591L250.246 932.751L250.619 931.725L250.526 930.885L250.059 930.512L249.219 930.605L249.313 930.046H250.339L250.712 929.393L250.899 927.806L251.458 927.433L251.272 927.06L251.925 926.407L250.619 923.888L251.365 921.836L250.619 920.063L249.313 919.596L249.686 917.544L250.526 917.171L250.619 915.212L250.059 913.532L248.753 910.92L247.447 909.707L245.954 910.08L244.555 909.987L243.622 910.547L242.129 910.36L241.569 909.987L241.942 908.867L240.916 909.147L241.009 908.308L240.263 907.375L239.143 906.908H238.49L236.998 907.748L236.811 907.561L236.998 906.442L237.744 905.789L238.024 906.162L238.864 905.882L239.237 905.136L239.423 902.99L239.143 902.337L239.796 901.31L239.89 899.631L239.517 899.444L237.371 897.112L235.505 897.019L233.732 895.713H233.359L232.893 894.686L233.826 893.753L234.945 894.033L235.318 893.567L235.412 892.541L234.945 891.421L233.826 891.701L233.266 891.421L232.613 889.275L232.146 889.369L231.307 888.715L231.213 888.249L230 888.436L229.627 887.876L230.467 884.984L230.094 884.331V883.118L230.56 882.091L230.187 879.013L229.907 878.36L229.067 877.707L229.627 876.494L229.067 875.747V875.094L229.907 873.322L229.347 871.922L228.694 871.456L227.948 870.336L227.668 869.31L226.362 868.377L226.269 868.004L225.149 867.164L223.75 865.485L223.563 863.712L224.123 863.059L224.309 861.846L223.936 860.727L222.443 859.234L221.231 860.074V859.607L222.443 858.488L222.91 858.581L223.563 857.461L223.096 855.502L222.537 855.222L223.003 854.662L222.723 852.796L222.257 852.237V850.931L221.79 849.904L221.977 849.251L221.51 849.158L222.07 848.505L222.537 847.385L221.977 846.639L221.79 845.519L221.137 844.68L220.204 843.933L221.231 842.534L221.044 841.788L221.79 841.134L222.257 840.108L222.164 837.589L221.884 837.123L221.137 836.656L221.044 835.91L220.111 835.63L220.391 833.951L221.044 833.204L220.671 831.338L221.137 830.499L222.164 829.472L222.537 826.767L223.096 825.554V823.128L225.149 819.676L226.548 818.464L227.668 817.904L228.321 817.81L229.534 818.09L230.56 817.157L231.4 815.198L232.146 812.306L232.613 810.813L233.079 810.253L233.919 807.361L234.758 806.242L235.225 804.469L235.318 802.51L235.598 801.857V800.551L236.065 799.431V797.565L235.878 796.166L236.065 794.953L236.531 794.393L237.837 791.688H238.677L238.77 791.221L240.916 790.755L241.849 790.195L242.689 790.102L244.368 789.448L246.794 786.929L247.633 784.69L250.619 783.851L252.765 784.131L253.977 784.597L254.724 783.571L256.217 779.839L256.963 778.906L257.243 777.88L257.616 777.786L258.456 776.48L260.508 775.547L262.747 775.174L263.587 774.708L263.96 774.055L264.427 771.442L265.173 769.763L268.065 768.084L272.917 768.55L275.622 769.483L278.141 767.71L278.794 767.524L280.287 766.498L282.339 765.565L283.832 764.259L284.765 762.859L286.071 760.527L287.004 759.5L289.057 758.288L290.27 757.261L290.643 756.142L291.669 754.742L292.509 754.556L293.628 753.343L294.561 752.783H295.214L295.774 751.757L296.52 751.01H297.08L297.92 750.171L298.293 749.145L298.76 748.771H300.346L300.905 746.812L301.745 745.879L302.678 743.64L302.398 742.707L302.678 742.054L303.518 741.867L303.704 742.707L305.01 742.147L306.503 741.961L307.063 742.241L308.556 741.961L309.022 742.427L309.862 742.241L310.795 741.028L311.634 740.935L312.288 740.188L314.62 740.935L316.113 741.588L316.672 742.241L319.285 742.427L319.378 741.494L319.751 741.121L320.684 740.935L321.244 741.401L323.39 740.935L323.763 740.188L324.323 740.281L324.882 739.628H326.189L327.028 739.162L328.428 739.628L330.2 739.722L331.506 739.069L331.88 738.602L332.999 738.975L334.305 739.815L335.798 739.908L336.078 740.841L336.731 741.401L339.063 741.681L343.355 742.987L345.687 743.36L346.434 743.733L348.02 744.013L348.953 744.48L349.326 745.04L350.819 751.29L352.218 752.41L352.965 752.597L353.524 753.436L354.084 753.623L354.737 755.022L355.204 755.395L355.577 754.836L356.603 755.022L357.629 755.862L357.723 756.328L358.562 755.769L360.895 755.489L361.455 756.422L362.201 756.981L364.253 756.795L364.627 756.981L364.906 758.661L366.026 759.314L365.839 760.06L364.533 759.687L363.507 760.247L363.227 761.086L362.108 761.833H360.988L360.615 763.512L360.895 765.658L361.455 767.244L362.201 768.084L363.32 768.83L364.72 768.923L365.933 767.71L367.146 767.99L367.985 769.017L368.358 769.95L367.705 770.976L367.239 771.256L365.933 773.308V773.961L366.213 775.641L366.866 776.853L368.358 778.626L369.571 779.279L371.717 779.839L373.023 779.279L373.49 778.346L373.303 777.6L374.236 776.853L374.049 776.294L374.703 774.894L375.262 776.574L375.822 776.2L376.382 778.16L376.475 779.372L375.822 782.078L376.009 783.291L377.222 783.571L376.942 786.743L376.382 789.169L376.942 791.874L377.968 793.274L378.714 793.553L379.181 793.18L379.741 793.553L380.953 795.419L380.674 797.099L380.767 798.498L381.14 798.965L382.073 799.338L382.633 800.457L382.539 801.484L383.566 802.043L384.405 802.79L384.592 803.536L385.525 804.283L387.018 804.189L387.577 805.215L386.831 806.335L387.204 807.548L385.805 809.321L384.965 809.041L382.26 808.481L381.606 809.88L381.98 810.627V811.653L380.953 812.213L380.02 813.146L379.087 814.825L378.994 815.665L380.207 818.277L381.42 818.743L381.513 820.05L380.767 820.609L379.741 820.796L379.461 821.542L380.114 822.195L380.02 823.408L378.994 824.061L377.688 824.434L377.595 824.994L377.968 826.3L378.434 826.02L378.994 826.58L378.061 828.726L379.181 829.566L378.341 829.939L378.155 830.499L378.714 830.685L378.621 831.712L379.554 832.831L380.207 832.551L380.86 832.738L381.047 834.324L380.674 835.257L380.02 835.35L379.461 836.19H378.341L377.781 836.47L377.875 837.029L377.408 837.962L378.248 838.242L379.087 840.015L378.341 840.202L377.688 839.175L376.755 840.108H375.822L374.423 840.948L373.303 842.347L371.904 844.68L372.37 845.613L372.09 846.266H371.157L369.012 848.505L367.985 848.598L368.732 849.624L369.758 849.438L369.478 850.557L368.079 850.184L366.399 850.651L366.119 851.77L366.399 853.076L365.186 855.409L364.253 854.849L363.227 855.036L362.481 855.595L361.268 855.782L360.801 857.088L359.309 857.275L358.562 856.622L357.256 856.995L356.696 857.555L356.79 858.767L356.137 859.234H355.484L354.644 860.074L354.457 860.913L354.924 861.939L352.871 864.272L353.338 864.832L352.778 865.205L353.244 866.604L352.125 866.418L350.725 867.071L350.352 868.657L349.606 869.496H348.953L348.3 868.937L346.62 870.243L346.341 871.736L348.02 872.482L348.766 873.601L348.113 874.534L346.341 875.001L344.195 875.188L343.635 874.441L342.515 874.721L341.862 875.561L342.422 876.307L342.702 877.24L343.448 877.52L343.168 877.8L343.728 879.013H343.262L343.542 880.505L343.075 880.879L341.676 879.852L340.743 879.479L340.183 879.946L339.623 879.572L339.25 879.852L338.41 881.812V882.558L340.09 883.304L339.623 883.864L338.877 883.771L337.291 882.838L336.731 882.931L335.612 884.237L335.518 886.476L336.638 887.969L337.757 887.316H338.597V887.969L337.477 887.876L336.358 888.809L335.798 889.555L334.212 889.928L333.746 889.835L332.346 891.234L331.6 891.141L330.947 892.354L329.734 892.167L328.614 892.447L327.775 893.66L327.868 894.78L328.521 895.153L329.081 896.086L328.241 896.646L326.189 896.925L324.976 896.366L324.229 896.552L323.483 897.485L323.203 898.791L323.67 900.191L324.696 900.098L325.536 901.031L326.748 901.777L327.215 902.43H328.148L328.241 903.27L327.868 904.576L327.215 905.042L327.775 905.322V907.001L327.495 908.494L326.468 909.334L323.017 909.894L321.99 909.427L319.565 909.707L317.325 910.92L318.258 912.599L318.072 913.066L316.766 912.693L315.46 913.532L314.34 912.972H313.314L312.661 913.346L312.101 915.212L311.448 914.465L310.888 914.652L310.701 915.398L310.048 915.025L308.462 917.077L308.089 918.197L306.69 919.223L306.037 920.903L304.264 921.182L303.798 922.209L305.57 923.795L305.477 924.168L304.264 923.981L303.798 923.515L303.331 923.795L302.958 923.142L302.305 923.701L301.745 922.395L301.279 923.235L300.625 922.675L300.159 923.608L299.319 922.489L298.293 922.675V923.142L296.8 924.168L296.52 925.101L296.894 925.941L297.08 927.247L296.52 926.687L294.468 926.5L294.095 925.474L291.949 925.661L292.136 926.22L291.482 927.153L290.456 926.967L289.99 926.314L290.55 926.034L290.829 925.194L290.27 925.288L289.523 924.728L289.71 922.955L288.497 922.582L287.284 922.675L287.098 923.608L286.165 923.422L286.071 921.649L285.418 921.276L283.739 921.556L283.552 921.089L282.713 921.836L280.194 922.489L279.634 922.955L279.541 923.888L280.007 925.381L279.261 926.594L278.328 927.153L277.675 928.646L277.395 930.605L278.328 931.818L278.421 933.404L277.581 935.457L278.048 937.136L279.074 937.976H278.048L277.208 938.442L276.928 939.282L277.581 940.775L276.555 940.308L275.342 940.775L274.316 941.801V943.574L273.85 944.32L273.756 945.719L274.689 946.932L273.663 947.772L274.129 949.638L271.797 949.824V949.078L271.331 948.518L270.211 949.544L269.651 948.985L268.625 949.451V950.571L267.599 950.384L267.412 949.358L267.692 948.705L267.039 947.119L267.132 946.746L265.546 945.906L265.36 944.88L264.8 944.6L264.427 943.294L263.96 943.014L262.747 942.92L260.695 944.6L260.975 945.719L262.001 946.186L261.161 946.932V948.518L260.788 949.265L261.348 950.104L262.001 950.011L262.188 950.571L261.534 951.504Z" fill="white"/>
<circle id="834" cx="372" cy="791" fill="#5CE50D"/>
<circle id="835" cx="258" cy="771" fill="#E52A0D"/>
<circle id="1076" cx="758" cy="53" fill="#E52A0D"/>
<circle cx="253" cy="900" fill="#E52A0D"/>
</svg>
