<svg width="1000" height="1000" viewBox="0 0 1000 1000" fill="none" xmlns="http://www.w3.org/2000/svg">
<path d="M276.891 216.942C276.402 217.138 273.375 217.919 270.348 218.798C266.246 219.97 264.586 220.946 264.098 222.509C263.805 223.681 261.754 226.513 259.605 228.759C254.918 233.544 250.523 234.716 246.227 232.47C244.566 231.688 242.418 231.005 241.246 231.005C239.488 231.005 239.293 231.591 239.293 237.645C239.293 242.431 238.512 246.727 236.363 252.977C234.801 257.763 233.434 261.766 233.434 261.962C233.434 262.157 235.777 262.255 238.609 262.255C243.297 262.255 244.176 262.645 249.84 267.138L255.895 272.118V294.091L251.305 300.731C247.008 306.884 246.031 307.665 238.805 310.79C227.867 315.575 220.543 317.431 203.746 319.774C195.738 320.946 188.512 322.411 187.633 323.095C169.859 338.231 168.492 339.599 160.582 352.196C156.187 359.13 152.086 365.38 151.5 366.063C151.012 366.747 140.074 371.434 127.379 376.513C105.895 385.106 103.844 386.083 97.8867 391.356C94.3711 394.579 89.8789 397.509 87.6328 398.192C84.5078 399.169 83.3359 400.243 80.9922 404.442C77.1836 411.181 70.25 417.528 66.7344 417.528C65.0742 417.528 62.2422 418.895 59.8008 420.946C57.457 422.802 52.7695 425.927 49.3516 427.88C43.5898 431.298 43.1016 431.786 41.5391 436.962C39.9766 442.333 39.5859 442.724 33.1406 446.337C28.0625 449.169 25.6211 451.317 23.375 454.833C21.7148 457.372 18.5898 460.888 16.4414 462.548C14.0977 464.501 11.3633 468.212 9.11719 472.606L5.60156 479.54L7.26172 486.571L9.01953 493.602L4.42969 501.903L-0.0625 510.204L4.13672 512.548C29.5273 527.099 29.8203 527.196 38.8047 525.341C41.6367 524.755 43.7852 528.27 41.9297 530.419C41.2461 531.298 41.0508 532.177 41.6367 532.763C43.1992 534.325 74.1562 552.196 82.8476 556.688C94.1758 562.352 112.926 578.759 112.633 582.567C112.437 584.618 114.293 595.556 115.855 601.317C116.148 602.196 118.199 604.345 120.445 606.005L124.547 609.032L139.195 608.837C147.594 608.739 156.578 609.13 160.191 609.813C165.855 610.79 167.125 610.79 171.812 609.13L177.086 607.372L194.566 612.938C209.898 617.919 213.414 618.7 222.984 619.286C233.629 619.97 234.02 620.067 237.828 623.29C241.734 626.708 241.832 626.708 249.059 626.122C253.062 625.829 266.051 625.927 277.867 626.415C297.105 627.099 299.742 627.001 303.355 625.536L307.262 623.876L310.973 626.806C315.074 630.028 318.883 630.712 331.676 630.516L339.684 630.321L358.043 640.282C368.199 645.751 382.652 653.27 390.27 656.884C398.082 660.595 408.824 666.845 415.172 671.239C422.398 676.317 432.75 682.079 444.664 687.841C454.723 692.724 462.926 696.434 462.926 696.239C462.926 695.946 461.754 694.188 460.387 692.333C458.043 689.306 457.945 689.013 459.703 689.013C460.777 689.013 462.633 690.087 463.902 691.454C465.172 692.821 466.637 693.895 467.125 693.895C467.613 693.895 469.566 694.579 471.422 695.556L474.84 697.118L472.008 698.29C469.371 699.462 469.566 699.657 484.312 706.981C493.395 711.571 500.133 714.403 501.598 714.208C503.648 713.915 503.16 713.231 497.008 708.349C489.781 702.391 489.488 701.024 496.422 705.028C498.668 706.298 502.281 707.665 504.43 708.056C507.945 708.544 508.629 709.227 511.461 714.306C513.805 718.505 514.293 720.263 513.512 721.044C512.144 722.411 511.168 721.63 523.18 728.954C537.73 737.841 554.625 743.7 576.305 747.509C594.566 750.731 616.148 755.614 642.711 762.645C656.48 766.259 660.387 767.724 669.566 772.802C675.426 776.024 680.309 778.368 680.504 777.88C680.699 777.391 680.309 775.341 679.723 773.192C678.258 767.528 673.375 763.622 666.832 762.743C664 762.352 659.898 760.985 657.75 759.716C655.602 758.544 651.402 757.177 648.473 756.786C645.543 756.395 641.539 755.321 639.684 754.442L636.363 752.684L641.441 752.001C644.273 751.61 646.519 751.024 646.519 750.634C646.519 750.341 643.102 746.63 639 742.431L631.383 734.911L622.105 735.985C616.93 736.571 612.437 737.548 611.852 738.231C610.582 739.794 605.016 741.747 601.793 741.747C600.426 741.747 597.496 740.673 595.348 739.403C593.102 738.134 589.098 736.766 586.266 736.376C583.238 735.985 580.602 735.009 579.527 733.837C577.965 732.079 577.965 731.981 580.699 731.981C582.262 731.981 584.117 732.372 584.898 732.86C585.875 733.446 587.242 733.349 588.805 732.567C591.539 731.2 600.914 731.102 603.844 732.47C605.113 732.958 606.187 732.665 607.262 731.591C608.824 730.028 608.824 729.735 607.262 727.099L605.602 724.169L608.727 723.388C610.875 722.802 611.949 721.923 612.144 720.458C612.633 717.333 614.098 717.821 615.855 721.63L617.418 724.852L626.402 725.536C636.559 726.317 637.633 727.099 646.324 738.524L650.914 744.677H659.312C665.66 744.677 668.102 745.067 668.98 746.141C670.055 747.411 669.273 747.606 663.219 747.606C655.992 747.606 655.699 747.802 656.871 752.196C657.457 754.247 658.043 754.442 665.074 754.442C669.176 754.442 673.961 754.931 675.621 755.516C678.062 756.395 679.625 756.2 683.141 754.931C687.828 753.075 688.609 751.317 686.07 748.583C683.922 746.239 682.945 739.794 684.703 739.794C687.144 739.794 688.219 741.161 692.809 750.243L697.301 759.227L694.371 765.38C692.711 768.798 691.441 772.02 691.441 772.606C691.441 773.974 695.738 775.927 698.57 775.927C702.086 775.927 717.809 772.802 717.809 772.118C717.809 771.825 716.734 770.849 715.269 769.97C712.828 768.505 712.926 768.407 720.934 766.747C725.426 765.77 730.894 764.013 733.043 762.645L737.144 760.302L737.73 762.548C738.609 765.868 738.512 765.966 734.898 767.138C731.773 768.114 731.676 768.407 732.652 770.653C733.238 771.923 734.703 773.29 735.777 773.485C736.949 773.778 743.59 775.243 750.621 776.903C769.664 781.298 779.723 781.981 804.43 780.907C822.496 780.028 825.816 779.638 826.891 778.27C827.867 776.903 829.234 776.708 835.68 777.196C839.879 777.587 851.598 778.27 861.754 778.856C871.812 779.442 880.504 780.126 880.992 780.419C881.578 780.712 889.293 781.395 898.277 781.884C907.262 782.372 915.758 783.056 917.32 783.349C919.762 783.837 919.957 783.641 919.957 780.614C919.957 777.88 919.273 776.903 915.074 774.071C906.773 768.407 907.359 767.821 928.551 758.837L946.812 751.024L958.336 739.794C972.398 726.22 972.398 726.22 961.656 715.77C955.406 709.618 953.844 708.544 947.789 706.688L940.953 704.638L937.73 696.044C935.094 689.11 934.703 686.962 935.484 684.813C936.949 680.907 949.254 661.669 950.328 661.669C951.695 661.669 951.402 663.427 949.644 666.063C946.715 670.556 948.473 674.266 955.602 678.954C959.117 681.298 962.34 683.153 962.73 683.153C964.781 683.153 967.809 678.27 968.394 674.169C968.98 669.97 969.273 669.579 974.059 667.235C976.793 665.868 980.894 664.403 983.238 664.11C986.656 663.524 987.926 662.645 990.758 659.032C993.59 655.419 994.176 653.661 994.176 649.95C994.176 645.849 993.785 645.067 990.465 642.431C987.535 640.087 985.582 639.403 980.016 638.817C968.98 637.743 968.98 637.743 967.223 631.688C966.051 627.587 965.855 624.364 966.344 617.724C966.93 609.716 967.32 608.739 970.348 605.126C977.086 597.216 981.48 583.641 981.48 570.458C981.48 560.692 983.141 556.493 990.66 547.411C993.102 544.481 995.152 541.747 995.152 541.454C995.152 541.161 993.59 538.915 991.734 536.571C986.754 530.321 987.144 527.391 993.394 522.509C1001.3 516.259 1002.09 511.571 996.227 504.638C994.176 502.099 990.855 496.923 988.902 493.016C985.777 486.669 984.898 485.692 979.332 482.567C973.863 479.54 972.594 478.27 968.297 471.141C965.66 466.747 962.73 462.645 961.754 462.059C960.484 461.278 958.238 462.352 951.012 467.138L941.832 473.192L934.215 471.727C927.477 470.458 925.621 470.458 919.176 471.63C912.34 472.899 911.461 472.899 908.336 471.239L904.918 469.481L893.98 474.95C883.824 479.931 882.652 480.321 879.234 479.442C876.012 478.661 875.133 477.782 871.715 471.727C861.266 452.88 856.48 442.626 856.48 439.013C856.48 435.497 856.383 435.302 849.547 432.274C841.441 428.759 840.758 428.759 828.355 430.809C819.762 432.274 818.297 432.274 810.094 430.809C799.254 428.856 792.027 428.759 792.027 430.419C792.027 431.102 792.906 434.52 794.078 438.036C795.934 444.091 795.934 444.481 794.273 447.509C792.418 451.024 787.535 453.27 783.824 452.294C782.066 451.903 780.699 452.684 777.477 456.102C772.301 461.669 769.566 463.036 762.242 463.72C753.355 464.599 743.59 468.016 739.488 471.63C732.555 477.684 731.383 478.075 720.738 478.075C711.363 478.075 710.582 478.27 706.578 481.005C703.844 482.86 701.109 483.934 698.863 483.934C696.91 483.934 695.152 484.52 694.664 485.302C694.273 486.083 692.32 486.962 690.465 487.255C687.34 487.841 686.559 487.45 681.578 482.958C676.891 478.856 675.816 477.294 674.742 472.997C674.156 470.165 672.301 464.11 670.836 459.618C669.273 455.126 668.199 451.22 668.394 450.829C668.59 450.536 669.469 447.899 670.25 445.165C671.812 440.087 671.812 439.989 669.371 437.157C667.906 435.399 664.195 433.251 660.094 431.591C656.285 430.028 651.793 427.489 650.035 425.927C643.785 419.774 641.441 418.505 636.754 418.505C633.531 418.505 631.676 417.919 630.504 416.747C627.477 413.329 621.715 412.352 612.828 413.72C603.453 415.087 601.5 414.306 597.008 407.177C594.273 402.977 594.176 402.88 588.902 402.88C585.973 402.88 581.383 402.099 578.648 401.024C574.449 399.462 573.668 398.681 572.496 395.263C571.324 391.552 571.324 391.063 573.668 387.352C576.207 383.349 576.793 377.977 575.426 372.802C574.742 370.653 574.742 370.653 568.98 374.266L563.219 377.88L558.629 376.22C556.09 375.341 550.523 374.071 546.324 373.388C537.34 372.118 534.996 370.458 533.238 364.11C530.602 354.931 521.031 342.235 511.168 334.911C505.016 330.419 503.355 329.638 499.742 329.638C490.855 329.638 479.527 324.071 479.527 319.774C479.527 315.184 476.598 311.083 469.957 306.298C460.973 299.755 458.238 295.458 456.578 285.204C455.895 280.809 454.82 276.317 454.332 275.243C453.746 274.266 449.645 271.434 445.152 268.895C437.535 264.696 436.461 264.403 427.281 263.72C416.637 262.938 412.34 261.571 404.82 256.786C401.402 254.638 397.789 253.368 393.004 252.587C388.902 252.001 380.504 249.266 371.91 245.751C360.387 240.966 356.383 239.794 350.035 239.208L342.32 238.622L326.695 228.563C305.895 215.184 303.453 214.501 294.957 218.798C289 221.825 288.219 221.825 282.457 218.895C279.918 217.626 277.477 216.747 276.891 216.942Z" fill="white"/>
<circle id="201" cx="351" cy="529" fill="#5CE50D"/>
<circle id="203" cx="237" cy="418" fill="#E52A0D"/>
<circle cx="586" cy="714" fill="#E52A0D"/>
<circle id="204" cx="822" cy="654" fill="#E52A0D"/>
</svg>
