<svg width="1000" height="1000" viewBox="0 0 1000 1000" fill="none" xmlns="http://www.w3.org/2000/svg">
<path d="M956.285 59.158C954.201 61.2423 948.421 66.548 943.4 70.9062C935.157 78.1068 933.83 78.9595 927.767 80.4754C924.167 81.3281 919.145 83.223 916.492 84.6442C911.187 87.4865 899.912 90.3289 893.564 90.3289C889.49 90.3289 884.942 92.129 878.121 96.4872C873.668 99.4243 861.351 100.751 840.697 100.845C827.243 100.845 823.453 100.561 817.769 98.9506C812.463 97.4346 808.01 96.9609 798.82 96.9609C792.093 96.8662 782.24 96.4872 776.744 96.0135C762.248 94.8765 757.227 95.9188 748.037 102.456C739.605 108.33 729.372 112.973 724.919 113.067C720.94 113.067 704.644 121.689 690.053 131.448C679.821 138.175 678.021 139.122 672.052 140.07C666.083 141.017 664.378 141.775 655.187 148.123C649.597 152.007 642.965 156.366 640.407 157.787C635.386 160.724 624.585 163.282 617.669 163.282C615.111 163.282 611.416 163.945 609.426 164.798C603.931 167.167 597.014 168.872 589.624 169.914C586.024 170.388 579.108 171.619 574.465 172.567C569.728 173.609 562.717 174.746 558.832 175.03C554.948 175.409 549.358 176.167 546.516 176.736C541.778 177.588 540.831 177.399 537.894 175.693C532.304 172.377 521.977 171.619 498.67 172.567C471.668 173.704 471.952 173.799 468.067 167.924C465.509 164.04 462.288 161.482 451.487 154.376C433.391 142.533 430.643 141.017 422.874 138.838C406.294 134.101 395.872 135.996 380.713 146.417C366.596 156.081 360.343 159.113 351.437 160.819C347.079 161.671 341.678 162.335 339.31 162.335C332.488 162.335 315.055 169.156 301.602 177.02C294.117 181.473 288.243 183.178 284.548 182.041C278.673 180.241 266.167 179.01 256.124 179.199C247.313 179.388 245.323 179.673 243.144 181.283C239.734 183.747 238.786 183.652 235.565 180.715C233.291 178.441 233.101 177.683 233.575 174.178C233.954 171.335 233.575 169.251 232.249 166.598C230.449 163.092 229.975 162.808 214.342 157.408C195.204 150.681 187.529 149.26 184.024 151.628C180.613 154.092 174.17 167.167 174.17 171.619C174.17 173.514 173.507 176.167 172.655 177.399C171.518 179.01 171.044 181.947 170.949 188.294C170.854 196.348 170.665 197.39 168.296 200.516C165.833 203.643 165.643 204.591 165.643 212.644V221.455L169.623 225.529C173.034 228.94 173.413 229.887 172.655 231.687C171.139 235.193 172.086 237.183 175.118 237.183C176.634 237.183 179.097 238.225 180.708 239.646C183.361 241.825 183.645 242.678 183.645 247.225C183.645 253.952 182.413 254.615 170.949 253.858C163.18 253.289 161.569 253.479 155.316 255.563C151.432 256.984 147.926 258.026 147.453 258.026C146.979 258.026 146.126 256.7 145.652 255.184C144.894 253.194 144.042 252.342 142.526 252.342C139.399 252.342 139.02 253.194 140.536 256.795C142.242 260.963 142.242 260.869 140.441 260.869C139.21 260.869 139.02 261.627 139.494 264.374C139.778 266.364 140.252 271.669 140.536 276.312C141.199 284.27 141.105 284.744 138.547 288.818C136.178 292.513 135.42 292.987 132.104 293.271C128.504 293.555 128.219 293.84 127.462 297.25L126.514 300.851L122.345 300.282C114.197 299.145 111.734 302.461 110.123 316.389C109.176 324.347 106.334 325.958 103.87 319.8C102.544 316.484 102.07 316.105 98.1855 315.536C90.606 314.494 89.0901 313.357 88.4268 308.051L87.7636 303.314L82.079 303.883C73.8362 304.83 70.1412 306.914 69.3832 310.894C68.9095 313.073 68.0568 314.399 66.2567 315.157C64.9303 315.726 62.7511 316.957 61.5195 317.905C60.2878 318.852 58.3929 319.61 57.4455 319.61C56.0243 319.61 55.7401 319.989 56.2138 321.221C57.6349 325.011 59.5298 334.58 59.5298 338.18C59.5298 342.633 56.5928 346.044 50.7186 348.507C47.4973 349.834 47.3078 350.213 48.2553 352.013C49.6764 354.76 48.729 361.013 46.4551 363.477C45.4129 364.614 44.276 366.698 43.897 368.119C43.3286 370.204 43.6128 370.677 45.5077 371.246C47.971 372.098 65.3092 387.826 67.7726 391.521C69.1938 393.605 69.3832 395.974 69.099 407.249C68.9095 420.134 68.9095 420.608 71.3729 425.061C73.7415 429.324 73.8362 429.893 72.794 434.061C72.2256 436.43 70.2359 441.641 68.4358 445.525C66.1619 450.547 65.2145 453.863 65.2145 457.368C65.2145 462.485 64.267 466.843 62.2774 471.959C61.1405 474.612 61.2352 476.033 63.1301 483.328C64.267 487.876 65.2145 492.992 65.2145 494.698C65.2145 497.35 67.2041 504.93 73.0783 524.637C75.1626 531.364 77.1523 532.122 96.2906 532.974C105.481 533.353 114.671 534.017 116.566 534.49C119.977 535.343 120.261 535.248 122.156 532.216L124.051 528.995L127.556 530.511C129.451 531.269 132.483 532.785 134.188 533.827C135.894 534.774 138.168 535.627 139.115 535.627C142.147 535.627 143.852 536.669 143.852 538.564C143.852 539.891 143.189 540.364 141.389 540.364C137.599 540.364 135.325 542.07 135.325 544.817C135.325 546.428 134.378 548.133 132.957 549.365C131.725 550.407 130.493 552.492 130.399 553.913C130.114 556.566 130.399 556.755 136.367 558.271C142.905 559.882 147.926 563.198 153.327 569.451C156.169 572.578 156.359 573.241 155.885 577.599C155.222 583.094 158.159 591.526 160.812 591.526C161.664 591.526 162.896 591.905 163.654 592.379C164.791 593.137 164.791 593.611 163.464 595.695C161.475 598.632 161.38 602.138 163.18 605.548C165.549 610.096 165.359 612.275 162.801 613.602C161.096 614.454 160.338 615.686 160.148 617.865C159.864 620.234 159.011 621.56 156.074 623.455C152.853 625.54 152.379 626.392 152.379 629.424C152.379 632.645 152 633.119 148.4 634.73C145.842 635.867 142.905 636.435 140.347 636.246L136.273 635.867V639.183C136.273 642.12 135.515 643.162 129.925 647.994C126.325 651.026 121.872 654.91 119.977 656.71L116.566 660.026L118.082 663.153C119.408 666.09 119.882 666.374 123.956 666.374C127.367 666.374 128.883 666.848 130.493 668.648C132.483 670.827 132.578 671.017 131.157 673.859C128.504 678.881 126.798 679.07 121.208 674.901L116.282 671.206L106.618 671.775C99.0382 672.154 96.5749 672.722 94.9642 674.049C93.8273 675.186 91.5534 675.849 89.2795 675.944C85.8688 675.944 85.1108 676.512 80.3736 682.291C72.6045 691.576 70.0465 695.366 69.3832 698.303C69.0043 699.724 67.9621 701.619 66.9199 702.472C64.1723 704.651 65.404 708.441 68.6253 707.778C70.5202 707.493 71.2781 707.967 72.4151 710.052C73.173 711.662 74.5942 712.799 75.6364 712.799C76.6786 712.799 78.8577 714.125 80.5631 715.641L83.6896 718.484L81.0368 720.852C79.6156 722.179 77.3418 723.221 76.0153 723.221C74.6889 723.221 71.9413 724.074 69.9517 725.116C66.4462 726.916 66.1619 727.295 66.1619 731.18C66.1619 734.59 65.4987 736.106 62.1827 740.18C59.8141 743.117 57.4455 745.012 56.3085 745.012C52.045 745.012 50.4344 746.244 47.6868 751.36C45.1287 756.192 44.276 756.95 38.0229 759.887C34.2331 761.592 30.7276 763.866 30.2538 764.814C29.6854 765.761 27.8852 767.088 26.1798 767.656C21.0636 769.551 15 772.677 15 773.53C15 774.857 18.6003 775.425 22.2006 774.762L25.7061 774.099L25.0429 777.32C24.6639 779.12 24.0955 782.626 23.8112 785.279C23.527 787.837 22.2953 792.953 21.0636 796.458C19.7372 800.248 18.7898 805.175 18.7898 808.301C18.695 811.238 18.1266 814.744 17.3686 816.07C16.4212 817.776 16.0422 821.85 15.9474 830.851C15.9474 846.199 17.0844 852.547 20.4004 856.052C23.8112 859.653 23.148 864.864 18.3161 870.169C16.4212 872.349 15 874.149 15.1895 874.338C15.379 874.528 16.9896 874.812 18.8845 874.907C21.4426 875.096 23.7165 874.149 29.5906 870.264C37.9281 864.769 39.823 864.58 47.7815 868.275C49.8659 869.222 53.3715 870.075 55.4558 870.075C58.4876 870.075 59.6246 870.548 60.8563 872.443C61.9932 874.243 63.3196 874.812 65.9724 874.907L69.478 875.001L66.6357 875.949C62.9406 877.275 63.0354 877.18 63.7933 879.454C64.267 881.16 65.2145 881.444 69.0043 881.444H73.6467L74.2152 885.897C74.4994 888.455 76.0153 893.003 77.5313 896.129C79.0472 899.256 80.4683 902.667 80.5631 903.614C80.8473 905.225 81.6053 905.414 87.4794 905.225C91.1744 905.13 95.1537 904.751 96.2906 904.467C98.0908 904.088 99.6067 905.035 103.87 909.109C106.902 911.952 111.45 915.647 114.197 917.352C116.945 919.057 121.303 923.132 123.956 926.353C128.788 932.322 128.883 932.322 134.567 932.985C137.789 933.269 140.915 934.027 141.578 934.596C142.242 935.164 148.874 936.301 156.359 937.059C163.843 937.912 170.57 939.049 171.328 939.712C172.086 940.375 174.455 940.943 176.539 941.038C178.623 941.038 183.455 941.891 187.245 942.933L194.256 944.733L195.677 942.175C196.72 940.47 220.121 924.932 268.346 894.045C351.437 840.893 512.881 743.307 692.138 637.951L804.125 572.104L809.526 559.313C815.684 544.817 824.969 525.963 831.98 513.457L836.718 504.93L834.159 469.875C832.833 450.547 831.696 432.545 831.696 429.893C831.696 426.576 832.643 422.881 834.917 417.576C837.949 410.659 838.233 409.049 839.181 394.553C840.318 377.404 839.655 379.394 849.603 363.193L854.529 355.139L854.245 338.085C853.961 321.221 853.961 320.937 850.929 313.925C849.224 309.946 844.676 301.324 840.792 294.692L833.686 282.66L835.202 255.847L836.623 229.129L844.866 213.212C852.54 198.337 853.203 197.295 856.33 196.443C858.13 195.969 871.868 192.558 886.837 188.768L914.124 182.041L949.653 141.396C983.192 103.119 987.835 96.9609 983.761 96.9609C982.055 96.9609 982.055 97.2452 983.382 91.371C984.329 87.0128 984.234 86.2548 982.34 83.602C980.35 80.9492 980.255 80.2859 981.297 75.3593L982.34 69.9588L977.887 65.9796C974.381 63.0425 972.297 61.9055 968.886 61.5266C964.528 60.9581 964.433 60.8633 965.001 58.1158C965.475 55.4629 965.286 55.2734 962.727 55.2734C960.738 55.2734 958.938 56.3156 956.285 59.158Z" fill="white"/>
<circle id="661" cx="104" cy="749" fill="#5CE50D"/>
<circle id="660" cx="250" cy="281" fill="#E52A0D"/>
<circle id="662" cx="198" cy="500" fill="#E52A0D"/>
<circle id="1643" cx="500" cy="341" fill="#E52A0D"/>
</svg>
