<svg width="1000" height="1000" viewBox="0 0 1000 1000" fill="none" xmlns="http://www.w3.org/2000/svg">
<path d="M480.518 5.61345L453.662 11.1799L436.377 32.176L419.189 53.172L380.127 80.0275L341.064 106.785L309.424 191.844L295.557 215.77C287.842 228.953 272.217 255.906 260.791 275.633C241.748 308.641 239.502 312.059 234.033 316.844C230.713 319.676 220.361 328.563 210.986 336.57C194.58 350.535 193.604 351.512 187.158 361.766C182.275 369.676 177.588 375.438 169.775 383.348L159.131 394.188L152.197 412.645C139.307 447.117 139.404 446.922 132.471 501.414L126.221 550.242L127.1 601.512C127.881 643.602 128.369 653.856 129.639 659.031L131.299 665.184L136.182 664.598C140.576 664.012 141.65 663.426 145.557 659.129C149.658 654.539 150.244 654.246 154.443 654.246C158.154 654.246 159.912 653.465 165.576 649.559C171.826 645.262 172.412 644.578 174.463 638.621C175.635 635.106 176.709 632.567 176.709 632.86C176.807 633.153 177.881 641.453 179.15 651.414C180.518 661.278 182.275 671.238 183.057 673.582C185.01 678.953 194.287 689.695 200.732 693.895C203.467 695.75 208.447 699.754 211.865 702.879L218.115 708.641L216.943 720.75C215.967 730.028 214.6 736.668 210.986 748.68L206.201 764.598L217.139 791.16L237.744 810.203L258.447 829.246L279.834 862.742L301.318 896.238L486.865 981.395L618.799 990.672C691.357 995.75 751.416 999.949 752.197 999.949C754.834 999.949 755.127 992.918 755.42 937.449L755.615 884.227L760.986 862.254C765.283 844.676 766.553 838.035 766.943 829.051C767.432 819.481 768.311 815.379 772.51 801.024C775.146 791.844 778.271 778.66 779.346 771.727C780.322 764.891 784.229 745.945 787.744 729.637L794.385 699.949L798.584 696.531C802.393 693.406 802.979 693.211 805.518 694.188C807.178 694.871 809.033 696.824 810.01 698.875C811.572 702.195 811.768 702.293 816.26 701.805C818.799 701.61 822.607 700.633 824.756 699.852C828.662 698.289 840.283 697.703 844.58 698.778C846.338 699.266 846.729 700.047 846.729 702.977C846.729 708.445 850.83 716.356 854.053 717.137C855.518 717.528 856.885 717.625 857.08 717.43C857.275 717.235 861.182 673.582 865.674 620.457L873.779 523.875L845.459 451.61L849.365 379.344L860.01 341.453L870.557 303.465L864.307 221.531L868.213 213.719C871.045 208.25 871.826 205.809 870.947 205.516C870.264 205.32 860.498 202.684 849.17 199.754C829.736 194.578 828.662 194.383 826.318 195.945C824.951 196.824 823.779 197.117 823.584 196.629C821.826 191.746 810.4 168.309 809.619 168.113C809.131 167.918 795.654 172.41 779.834 178.172C760.01 185.399 750.635 188.328 749.756 187.742C749.17 187.156 695.068 144.676 629.639 93.3088C564.209 41.9416 510.01 -0.0506113 509.033 0.047045C508.154 0.144701 495.264 2.58611 480.518 5.61345Z" fill="white"/>
<circle id="218" cx="335" cy="344" fill="#5CE50D"/>
<circle id="866" cx="365" cy="449" fill="#5CE50D"/>
<circle cx="736" cy="314" fill="#E52A0D"/>
<circle id="1264" cx="335" cy="841" fill="#E52A0D"/>
<circle id="219" cx="757" cy="675" fill="#E52A0D"/>
</svg>
