<svg width="1000" height="1000" viewBox="0 0 1000 1000" fill="none" xmlns="http://www.w3.org/2000/svg">
<path d="M318.922 29.2472L291.396 42.9629L295.558 70.1106C298.68 90.9207 299.815 101.326 300.288 114.758L300.95 132.257L311.733 148.054C322.044 163.378 322.422 164.04 321.382 166.878C320.814 168.58 320.341 171.702 320.341 173.972C320.341 177.85 320.625 178.229 324.03 180.026C326.3 181.161 330.557 185.228 334.624 190.147C338.408 194.782 342.003 199.133 342.759 199.985C343.8 201.214 343.043 203.201 337.746 213.416C331.598 225.335 331.598 225.43 328.381 243.591C324.503 265.347 323.557 275.468 317.976 351.236C313.909 406.856 313.625 409.41 311.544 411.68C310.409 413.004 297.261 426.625 282.315 442.044C253.087 472.218 240.317 487.353 226.696 507.879C221.966 515.068 216.764 522.352 215.25 523.865C212.885 526.419 212.507 527.554 212.507 532.095C212.507 537.297 212.412 537.392 208.534 539.757C204.94 541.838 204.656 542.405 204.561 546.189C204.467 549.878 204.183 550.351 201.629 551.107C193.683 553.567 194.251 552.621 194.724 563.404C195.102 569.174 196.521 578.539 198.413 586.768C201.44 600.39 201.534 600.484 210.237 614.957C215.061 622.902 219.223 630.091 219.507 631.037C219.791 631.888 221.966 633.875 224.331 635.388C228.493 637.942 228.966 638.037 236.25 637.469C242.965 636.807 244.006 636.996 246.56 638.794C249.871 641.158 251.762 646.928 250.911 652.226C250.344 655.631 250.533 655.915 255.168 659.604C257.816 661.685 260.559 663.387 261.222 663.387C261.884 663.387 263.019 664.049 263.681 664.995C264.438 665.847 266.424 667.076 268.127 667.833C270.302 668.779 271.154 669.725 271.154 671.333C271.154 672.563 271.816 675.401 272.667 677.671C273.708 680.698 273.991 683.535 273.518 688.265C272.762 696.211 273.235 697.819 277.302 700.183C280.424 701.981 280.518 702.17 279.951 706.805C279.478 710.967 279.667 711.913 281.937 714.467C284.68 717.777 285.153 721.561 282.883 724.02C281.559 725.439 281.748 726.007 284.302 730.169L287.234 734.709L285.342 736.696C284.302 737.831 283.451 740.006 283.451 741.614C283.451 743.128 282.599 746.911 281.464 750.033C279.762 754.952 279.572 756.938 280.045 766.965C280.518 776.802 280.991 778.978 283.451 784.275C285.059 787.586 286.288 791.559 286.288 792.978C286.288 794.775 286.856 795.91 287.991 796.194C290.167 796.95 292.91 801.585 292.91 804.707C292.91 806.315 293.95 807.923 296.315 809.626C298.112 811.044 300.666 814.166 301.896 816.531C303.504 819.652 305.585 821.828 309.369 824.193C312.301 825.99 314.666 827.787 314.666 828.071C314.666 828.449 311.544 829.584 307.855 830.625C301.234 832.328 300.761 832.422 297.639 830.814C293.193 828.638 286.95 827.787 283.924 828.922C282.221 829.584 280.234 829.584 278.059 829.017C275.41 828.26 273.708 828.544 268.789 830.341C263.208 832.517 262.451 832.517 259.046 831.382C253.371 829.301 236.817 826.936 233.223 827.598C229.534 828.355 227.453 830.53 224.709 836.584C223.29 839.895 221.872 841.408 219.128 842.638C216.102 844.057 213.453 847.178 213.453 849.543C213.453 849.922 215.156 851.246 217.237 852.57C219.507 853.894 222.628 857.3 224.804 860.61C226.79 863.732 230.385 867.894 232.75 869.786C235.02 871.772 237.385 874.704 238.047 876.407C238.803 878.772 242.398 881.988 252.614 889.839C260.087 895.514 267.748 900.812 269.64 901.568C272.1 902.514 273.046 903.46 273.046 905.068C273.046 907.433 275.789 910.271 278.059 910.271C278.91 910.271 279.667 910.555 279.667 911.027C279.667 911.406 281.559 913.865 283.924 916.608C287.045 920.203 289.315 924.365 292.531 932.689C294.991 938.837 297.734 945.459 298.68 947.351C299.72 949.432 300.477 952.837 300.477 955.58C300.477 960.026 300.761 960.499 303.977 962.769C305.963 964.093 308.328 965.134 309.179 965.134C311.26 965.134 311.26 964.566 308.99 970.62C307.95 973.363 307.098 976.579 307.098 977.904C307.098 980.079 307.382 980.268 311.828 980.268C315.422 980.268 317.03 980.741 318.544 982.255C320.341 984.052 321.287 984.241 325.733 983.768C329.044 983.39 332.26 982.349 334.624 980.836C336.611 979.512 339.354 978.376 340.678 978.376C343.8 978.376 349.57 975.917 352.124 973.552C353.259 972.512 355.34 971.377 356.853 970.904C358.934 970.431 359.691 969.579 359.88 967.593C360.07 966.174 360.921 964.755 361.772 964.472C362.624 964.093 364.61 962.864 366.029 961.634C369.623 958.702 370.191 958.891 370.948 962.958C371.326 964.945 371.988 967.12 372.556 967.688C373.123 968.35 373.312 969.485 373.029 970.242C372.65 971.188 374.447 973.079 378.515 975.917C383.623 979.417 384.758 979.89 385.704 978.755C386.271 977.998 387.312 977.431 387.879 977.431C388.542 977.431 390.623 976.579 392.704 975.539C394.69 974.498 397.811 973.363 399.514 973.079C401.406 972.701 405 970.336 408.784 967.026C414.554 961.918 415.595 961.445 421.838 960.31C426.189 959.553 429.783 958.323 431.864 956.81C434.797 954.634 435.459 954.539 442.932 955.107C449.742 955.58 451.445 955.391 454.472 953.877C457.309 952.364 461.093 951.986 474.998 951.418C484.363 951.04 492.497 950.283 493.16 949.81C493.822 949.337 494.957 946.783 495.808 944.324C497.132 940.256 498.078 939.31 502.429 936.756C507.632 933.824 515.294 925.122 519.74 917.176C520.969 915 522.767 912.919 523.807 912.635C526.266 911.784 526.077 910.744 522.956 908.663C519.267 906.298 512.078 898.258 512.74 897.217C513.024 896.744 514.916 895.231 516.997 893.812C520.307 891.447 522.01 891.069 532.415 890.312C561.927 888.136 573.184 886.434 579.048 883.123C581.224 881.799 583.683 881.515 590.116 881.799C597.683 881.988 598.818 881.799 603.169 879.434C605.818 878.015 608.466 875.745 609.128 874.421C609.98 872.529 611.209 871.867 614.047 871.488C617.074 871.11 617.925 870.542 618.115 868.934C618.398 867.232 619.061 866.759 621.142 866.759C623.033 866.759 624.452 865.907 626.06 863.921C627.29 862.313 630.222 858.719 632.682 855.881C635.614 852.57 637.6 849.165 638.263 846.422C639.019 843.395 639.776 842.165 641.006 842.165C641.952 842.165 643.938 840.273 645.641 837.625C648.762 832.8 654.343 828.922 658.411 828.922C660.302 828.922 661.248 828.071 662.856 824.855C666.451 817.666 669.005 815.112 673.64 813.788C679.126 812.274 679.788 810.761 679.788 799.599C679.788 787.68 681.207 785.505 688.396 785.41C689.815 785.41 691.517 784.748 692.18 783.897C692.842 783.045 694.355 782.005 695.585 781.532C696.815 781.059 697.761 779.924 697.761 778.978C697.761 776.329 699.747 775.005 703.625 775.005C706.368 775.005 709.395 773.775 715.165 770.276C723.962 764.978 726.422 764.6 741.178 766.587C745.435 767.154 749.218 767.438 749.407 767.154C750.259 766.397 754.515 749.276 754.515 746.817C754.515 745.114 752.434 739.817 751.205 738.304C751.11 738.209 749.218 738.682 747.137 739.439C743.164 740.858 743.164 740.858 743.164 738.588C743.164 736.79 742.218 735.939 739.192 734.52C736.921 733.48 733.611 731.02 731.624 729.034L728.219 725.345L728.976 717.304C729.449 712.859 730.489 707.089 731.246 704.535C732.097 701.886 732.759 699.71 732.759 699.616C732.759 699.521 730.962 699.332 728.786 699.143L724.908 698.859L722.26 687.035C720.841 680.508 719.611 672.941 719.611 670.198L719.517 665.185L713.652 662.536L707.693 659.888L703.909 661.779C700.598 663.482 690.95 666.509 690.666 665.941C690.572 665.847 689.342 664.239 688.018 662.347C684.802 658.09 684.707 653.928 687.639 645.131C689.247 639.929 690.288 638.132 692.558 636.807C706.085 628.956 707.125 628.199 708.26 623.47C709.112 619.592 709.112 618.551 707.787 616.565C706.936 615.335 706.274 612.97 706.274 611.457C706.274 609.565 705.517 608.146 704.193 607.106C702.679 606.16 701.544 603.7 700.504 599.538L699.085 593.484L704.76 587.809C707.976 584.782 713.841 580.242 717.908 577.782C724.151 573.999 727.084 571.35 727.084 569.458C727.084 569.174 724.908 568.418 722.354 567.756C718.571 566.81 717.719 566.242 718.192 565.107C719.517 561.985 717.908 553.661 715.638 551.959C714.219 551.013 714.125 550.351 714.976 547.986C715.827 545.432 716.773 544.865 724.341 542.594C731.151 540.513 732.665 539.757 732.192 538.621C729.07 531.243 728.976 530.581 731.908 528.879C733.8 527.743 734.651 526.419 734.651 524.717C734.651 521.5 739.097 515.825 742.881 514.217C744.867 513.46 746.002 512.325 746.002 511.095C746.002 510.149 746.38 509.014 746.948 508.731C747.421 508.447 748.461 505.987 749.313 503.244L750.826 498.326L747.421 495.204C742.502 490.664 742.881 488.015 749.218 482.529L754.326 477.988L762.745 478.556C770.123 479.124 771.636 478.934 774.947 477.232C779.771 474.772 790.649 473.732 798.973 474.961C802.379 475.434 805.311 475.718 805.5 475.529C805.689 475.34 803.987 424.071 801.811 361.452C799.068 280.86 797.554 247.375 796.798 246.618C795.663 245.483 350.327 16.8557 347.773 16.0044C347.016 15.8152 333.962 21.7745 318.922 29.2472Z" fill="white"/>
<circle id="129" cx="293" cy="713" fill="#5CE50D"/>
<circle cx="450" cy="221" fill="#E52A0D"/>
<circle id="130" cx="353" cy="909" fill="#E52A0D"/>
<circle id="132" cx="632" cy="595" fill="#E52A0D"/>
</svg>
