<svg width="1000" height="1000" viewBox="0 0 1000 1000" fill="none" xmlns="http://www.w3.org/2000/svg">
<path d="M322.001 36.8285C321.365 38.1012 320.91 39.3739 320.91 39.4648C320.91 39.6466 323.637 41.0102 327.092 42.3738C331.637 44.2828 335.273 45.1009 341.364 45.4645L349.545 45.9191L355.363 62.6457L350.727 66.0091C346.455 69.1908 346.182 69.6454 346.636 72.4634C347 74.2815 346.273 79.8268 344.909 85.7356C342.727 95.8262 342.637 95.917 337.637 100.826C332.819 105.462 332.637 105.917 332.182 111.28C331.728 115.825 332.092 117.825 333.91 122.28C336.182 127.734 336.182 127.734 345.546 132.825C351.727 136.188 355.545 138.915 356.545 140.643C357.727 142.643 359.818 143.915 365.363 145.915L372.635 148.551L376.453 158.551C378.544 164.096 380.635 169.187 381.18 169.732C381.635 170.369 383.908 170.914 386.271 171.005C396.725 171.187 397.543 171.55 404.089 180.277L410.179 188.368L414.179 187.732L418.179 187.186V191.731C418.179 196.095 418.088 196.368 415.27 197.095C412.725 197.731 412.27 198.368 410.816 203.822C409.27 209.276 409.27 210.276 410.452 213.731C411.179 215.821 411.816 220.094 411.816 223.185V228.821L417.27 232.639C422.361 236.275 422.724 236.73 422.724 240.093C422.724 242.002 422.633 243.638 422.542 243.638C422.361 243.638 419.997 243.002 417.27 242.275C411.725 240.82 410.907 241.275 410.907 245.82C410.907 247.547 412.179 249.911 414.634 252.82L418.361 257.274L415.543 260.638C413.088 263.638 412.725 264.729 412.725 269.91C412.725 275.092 412.361 276.183 409.088 281.092C405.907 285.91 405.452 287.182 405.452 291.818C405.452 296.727 405.634 297.273 408.27 299.182C410.725 300.909 410.997 301.545 410.634 304.182C410.27 306.363 410.997 309.363 413.27 315.09C414.997 319.363 416.361 323.09 416.179 323.181C415.997 323.363 410.179 324.181 403.18 324.999C396.18 325.817 390.271 326.635 390.089 326.908C389.907 327.09 389.544 329.271 389.271 331.817L388.817 336.362H395.816C399.634 336.362 402.725 336.544 402.725 336.726C402.725 336.908 401.634 338.907 400.362 341.271L398.089 345.453L392.544 342.635C389.544 341.089 386.908 340.089 386.726 340.271C386.453 340.453 387.18 342.998 388.18 345.816C390.453 351.725 390.18 351.634 401.725 348.998C409.361 347.271 409.907 346.998 410.452 344.453C410.816 342.998 411.361 341.635 411.816 341.362C412.27 341.089 417.815 341.453 424.27 342.271C430.633 342.998 436.178 343.635 436.633 343.635C436.996 343.635 437.269 345.453 437.269 347.634C437.269 351.543 437.451 351.725 443.451 355.998C446.814 358.361 449.632 360.361 449.723 360.452C449.905 360.543 448.996 363.997 447.723 368.088C446.36 372.724 444.178 377.542 441.905 380.633L438.36 385.633L440.633 390.542C441.814 393.269 442.542 395.905 442.178 396.542C441.814 397.178 439.996 399.723 438.087 402.269C436.087 404.996 433.724 410.086 432.178 414.814L429.633 422.813L435.269 434.085C441.724 447.085 442.36 450.903 438.724 455.721C436.815 458.266 436.633 459.175 437.269 462.993L437.906 467.448L432.997 466.811C428.633 466.266 427.724 466.448 425.815 468.266C423.724 470.266 423.633 470.266 419.997 468.63C416.361 466.993 416.361 466.993 414.088 469.084L411.816 471.266L413.997 473.538C415.452 475.175 415.997 476.447 415.543 477.629C415.088 478.811 416.815 483.174 421.179 491.72C424.633 498.537 428.179 504.719 428.997 505.537C429.815 506.355 433.178 508.083 436.451 509.537C440.542 511.173 443.996 513.446 446.905 516.446C451.087 520.718 451.45 520.9 456.45 520.9C461.45 520.9 461.541 520.9 463.086 524.446C464.632 527.627 464.632 528.173 463.268 530.718C460.996 535.081 461.45 535.991 466.632 537.9C470.904 539.536 471.631 540.172 473.995 545.081C475.449 547.99 476.813 552.535 477.086 555.081L477.449 559.717L470.904 562.353C466.45 564.08 463.632 565.807 462.177 567.716C460.996 569.262 457.723 572.171 454.905 574.08L449.814 577.625L456.359 582.898L454.087 585.807C451.905 588.716 451.814 589.261 451.814 603.715C451.814 617.987 451.905 618.987 454.45 625.441C457.905 634.441 458.814 642.441 456.905 646.259C455.632 648.713 455.541 649.441 456.632 652.077C457.814 654.804 457.723 655.259 455.814 658.167L453.723 661.258L455.541 664.258L457.45 667.258H454.632C452.178 667.258 451.814 667.622 451.36 670.622C449.36 681.985 448.996 682.803 444.087 684.621C441.633 685.621 438.633 686.712 437.633 687.166L435.633 688.075L437.451 696.53C438.451 701.438 438.996 706.438 438.633 708.438C438.178 711.347 438.815 713.074 442.36 719.62C444.633 723.801 446.723 727.256 446.905 727.256C447.178 727.256 448.632 726.619 450.178 725.801C452.178 724.801 454.087 724.528 457.268 724.983C462.45 725.71 462.359 725.347 463.268 739.982C463.995 752.618 462.814 757.8 456.268 770.981L451.905 779.708L452.996 795.98L445.542 800.798C441.542 803.434 438.178 805.98 438.178 806.253C438.178 806.616 439.996 808.707 442.269 810.889C444.542 813.07 446.36 815.252 446.36 815.707C446.36 816.161 444.542 818.888 442.269 821.797L438.178 827.161L442.269 829.524C445.814 831.706 446.36 832.342 446.36 835.07C446.36 837.888 446.905 838.524 452.905 842.342C456.541 844.706 459.632 846.705 459.814 846.796C459.996 846.978 459.45 850.433 458.541 854.432L456.996 861.796L460.541 866.977C463.541 871.25 464.904 872.341 469.086 873.886C477.449 876.886 478.813 878.977 475.449 883.613L473.54 886.249L476.722 892.431C480.358 899.794 480.722 900.067 491.994 906.794C496.903 909.612 501.176 912.43 501.63 912.976C502.085 913.612 502.903 915.794 503.448 917.794C504.721 922.157 505.812 922.612 514.084 922.793C517.084 922.884 520.72 923.157 522.175 923.521C524.811 924.066 524.902 924.157 529.356 936.429C530.538 939.52 531.72 940.974 533.993 942.065C536.083 943.065 537.902 945.065 539.72 948.338L542.265 953.156L561.355 954.065L561.901 959.337C562.264 962.246 562.628 964.792 562.901 964.973C563.082 965.246 569.446 963.428 576.9 960.883C600.535 953.156 624.08 946.429 633.352 944.883C640.443 943.792 677.714 934.066 678.896 933.157C679.35 932.702 668.169 896.885 667.442 896.34C666.987 896.067 665.169 894.976 663.351 893.794C660.442 891.885 659.988 891.158 659.988 888.067C659.988 884.613 659.806 884.431 650.897 878.613L641.807 872.795V867.523C641.807 863.341 641.352 861.887 639.625 860.069C638.443 858.705 637.261 856.16 636.989 854.341C636.443 850.978 636.534 850.887 640.079 849.978C643.534 849.069 643.625 848.887 643.625 845.16C643.534 842.433 642.806 840.251 640.988 837.797L638.443 834.251L639.716 827.07L640.988 819.797L638.625 816.707C635.716 812.889 630.716 801.889 631.443 800.798C631.716 800.344 632.989 799.98 634.352 799.889C635.716 799.889 638.898 799.344 641.534 798.798L646.261 797.707L647.17 571.353L644.352 561.444C640.807 548.445 641.079 544.445 646.261 534.354L650.17 526.809L648.17 521.809C646.352 517.082 646.261 515.9 646.806 502.265C647.17 494.083 646.988 477.447 646.352 464.266C645.534 445.63 645.534 439.54 646.443 435.085L647.534 429.358L641.352 417.541L635.08 405.632L628.443 401.723C622.807 398.269 620.989 396.542 615.717 389.178C612.262 384.451 609.262 380.179 608.99 379.633C608.626 379.088 607.444 371.452 606.353 362.725C605.263 353.998 603.808 345.816 603.172 344.544C602.444 343.089 600.445 341.816 597.626 340.907C593.354 339.453 593.172 339.271 592.899 335.544C592.627 332.362 593.172 330.999 595.899 327.181L599.172 322.544L597.717 287C596.99 267.365 595.99 251.093 595.627 250.82C595.263 250.456 571.446 233.548 542.72 213.185C513.993 192.822 490.267 176.096 490.176 175.914C489.994 175.732 490.358 169.551 490.903 162.096L492.085 148.551L495.54 146.097C499.721 143.097 499.63 143.279 497.449 127.098L495.812 115.553L511.084 98.0988L513.63 82.4631C514.993 73.918 516.084 66.7364 515.902 66.5546C515.812 66.4637 505.903 65.9183 493.994 65.3729L472.177 64.3729L458.996 68.5545C451.723 70.8271 445.269 72.7362 444.723 72.7362C444.087 72.7362 443.633 71.918 443.633 71.009C443.633 70.009 442.996 68.6454 442.269 67.9182C441.633 67.191 440.724 65.5546 440.451 64.3729C439.905 62.1912 437.633 61.6457 383.362 48.7371C352.273 41.3738 326.001 35.1013 324.91 34.9195C323.546 34.5559 322.819 35.1013 322.001 36.8285Z" fill="white"/>
<circle id="684" cx="568" cy="959" fill="#5CE50D"/>
<circle id="685" cx="568" cy="470" fill="#E52A0D"/>
<circle cx="408" cy="112" fill="#E52A0D"/>
<circle id="686" cx="568" cy="346" fill="#E52A0D"/>
</svg>
