<svg width="1000" height="1000" viewBox="0 0 1000 1000" fill="none" xmlns="http://www.w3.org/2000/svg">
<path d="M391.992 0.781445C391.406 1.17207 390.137 2.92988 389.063 4.6877C387.598 7.32441 386.719 7.8127 384.766 7.51973C383.496 7.22676 381.25 7.61738 379.785 8.30098C377.734 9.47285 376.66 9.47285 373.438 8.30098C367.676 6.34785 362.305 5.46895 362.305 6.54316C362.305 7.1291 363.184 8.30098 364.258 9.27754C365.234 10.1564 366.895 12.8908 367.774 15.3322L369.434 19.6291L366.113 22.9494C363.281 25.7814 362.012 26.2697 357.91 26.465C355.274 26.5627 350.977 26.0744 348.535 25.3908C344.434 24.2189 343.652 24.2189 339.649 26.2697L335.156 28.4182L334.57 34.9611C333.399 46.2893 333.301 46.6799 329.297 47.8518C324.316 49.2189 324.512 49.2189 323.731 45.1174L323.047 41.5041L320.508 44.5314C318.945 46.3869 316.211 48.0471 313.965 48.7307C311.816 49.3166 308.594 50.6838 306.738 51.8557C304.883 52.9299 303.125 53.4182 302.832 52.9299C301.856 51.3674 288.184 51.6604 285.156 53.2229C281.445 55.0783 281.641 55.176 280.469 51.8557C279.785 50.0002 278.027 48.2424 275.488 46.9729C269.043 43.6525 267.578 44.4338 267.578 51.2697C267.578 54.1994 267.09 54.6877 261.719 57.2268C256.152 59.9611 255.859 60.2541 255.859 63.5744C255.859 66.2111 255.274 67.5783 253.711 68.6525C251.758 69.8244 251.465 70.801 251.66 75.2932C251.758 78.2229 251.465 80.7619 250.781 81.1525C250.098 81.6408 250.195 82.5197 251.367 84.0822C253.613 87.3049 253.223 89.8439 250 93.7502C248.34 95.6057 247.07 97.6564 247.07 98.34C247.07 99.0236 246.192 100.488 245.02 101.66L242.969 103.711L245.508 106.348C247.461 108.301 248.047 109.961 248.047 113.184C248.047 115.43 248.731 118.555 249.414 120.02C251.465 123.926 250.488 126.66 246.68 127.442C245.02 127.832 242.09 129.004 240.234 130.078C235.547 132.813 227.93 132.031 225.098 128.418C223.926 127.051 222.266 125.977 221.289 125.977C219.238 125.977 219.336 126.172 223.535 132.031C226.465 136.035 226.856 137.305 226.953 143.164C227.051 149.024 227.344 149.903 229.004 150.196C230.176 150.488 231.641 149.61 233.008 147.852C234.961 145.41 235.449 145.215 237.695 146.289C239.356 147.071 240.234 148.242 240.234 149.707C240.234 150.977 240.918 152.832 241.699 153.906C242.481 154.883 243.164 157.129 243.164 158.789C243.164 160.352 243.848 162.598 244.629 163.672C246.68 166.309 246.387 169.629 244.141 170.899C243.067 171.485 242.188 172.559 242.188 173.242C242.188 175.977 254.492 192.871 258.887 196.289C263.574 199.805 279.297 217.969 281.738 222.657C283.594 226.367 290.625 232.422 292.969 232.422C294.043 232.422 295.215 233.203 295.606 234.082C295.899 235.059 297.07 236.817 298.145 237.989C299.219 239.258 299.805 240.821 299.414 241.699C299.121 242.578 299.219 244.141 299.805 245.117C300.488 246.387 300.391 246.973 299.316 247.461C297.852 248.047 297.461 251.758 298.438 255.567C298.731 256.739 300.293 258.106 301.856 258.692C304.004 259.473 304.688 260.254 304.688 262.305C304.688 263.77 305.274 265.723 305.957 266.504C307.422 268.262 310.547 277.637 310.547 280.371C310.547 282.91 311.035 282.715 315.625 278.321C319.922 274.219 323.926 273.242 325.977 275.684C327.344 277.344 325.684 284.278 323.633 285.449C322.852 285.84 322.266 287.598 322.266 289.356C322.266 294.336 321.191 295.215 316.797 294.043C311.426 292.578 310.645 292.676 309.375 295.41C308.496 297.364 308.008 297.559 306.934 296.68C305.859 295.801 305.176 295.899 304.004 297.168C302.637 298.438 302.637 299.121 303.711 301.758C304.59 303.906 304.688 306.641 304.102 311.817C303.711 315.625 303.418 324.707 303.516 331.836C303.613 344.239 303.613 344.727 301.758 343.75C300.781 343.262 299.121 342.774 298.047 342.774C295.801 342.774 291.992 346.68 291.992 349.024C291.992 350.293 291.504 350.586 290.332 350.098C286.035 348.242 284.57 348.438 283.399 350.977C282.813 352.442 281.445 353.516 280.371 353.516C277.149 353.516 276.27 361.914 279.004 367.285C279.883 369.141 280.957 372.754 281.348 375.489C281.738 378.125 282.91 382.813 284.082 385.742C285.742 390.235 286.816 391.504 290.527 393.555C293.848 395.41 294.922 396.485 294.922 398.242C294.922 400.098 295.313 400.489 296.777 400.098C298.34 399.707 298.926 400.391 299.902 404.492C300.684 407.813 301.66 409.571 302.832 409.864C303.809 410.156 305.078 411.817 305.664 413.672C306.641 416.406 308.203 417.676 315.234 421.582C326.367 427.637 330.469 431.446 332.031 437.11C333.008 440.43 333.984 441.797 335.84 442.481C338.867 443.653 339.844 445.02 339.844 448.438C339.844 450.098 340.625 451.465 341.797 452.149C343.457 453.028 343.75 454.199 343.75 459.082C343.75 462.5 344.434 466.211 345.313 467.969C346.387 470.02 346.68 472.168 346.191 475C345.899 477.149 345.41 481.446 345.117 484.571C344.727 488.672 344.141 490.137 342.871 490.528C340.137 491.211 339.453 499.805 341.895 502.539C342.871 503.613 343.75 505.664 343.75 507.129C343.75 510.547 348.828 520.117 352.051 522.656C353.418 523.633 354.492 525.196 354.492 525.879C354.492 526.563 355.957 528.321 357.715 529.688C360.547 531.934 360.84 532.715 360.938 537.305C360.938 540.137 361.621 544.922 362.5 547.852C363.281 550.781 364.063 554.004 364.16 554.883C364.16 555.86 364.356 557.91 364.453 559.375C364.551 561.817 364.844 562.11 367.481 561.719C370.41 561.231 370.508 561.524 368.457 567.09C368.164 567.774 368.652 568.653 369.531 568.946C370.801 569.434 371.094 571.289 371.094 579.59C371.094 588.574 370.899 589.746 369.043 591.406C367.871 592.383 365.82 595.606 364.551 598.535C363.281 601.465 361.328 604.981 360.254 606.25C359.277 607.617 358.399 609.473 358.399 610.449C358.399 611.621 357.422 612.5 355.957 612.891C353.906 613.379 353.516 614.063 353.613 616.602C354.004 622.168 339.063 641.016 335.059 639.942C332.813 639.356 331.641 641.114 331.543 645.02C331.543 647.364 331.152 647.949 329.492 647.949C328.223 647.949 325.684 650 322.852 653.223C318.457 658.399 318.359 658.789 318.359 665.137C318.359 668.75 317.676 673.242 316.895 675.098C316.113 677.051 315.43 679.883 315.43 681.446C315.43 683.301 313.281 687.305 308.984 693.457C300.879 704.981 300.879 704.883 299.805 703.125C298.926 701.856 298.731 701.856 297.852 703.125C297.363 703.906 296.875 705.762 296.875 707.324C296.875 710.156 296.777 710.449 292.676 718.36C291.211 721.192 290.039 723.926 290.039 724.512C290.039 726.074 291.602 725.879 293.359 724.024C296.387 720.996 297.852 724.707 295.996 730.86C295.508 732.52 294.141 737.403 292.871 741.699C289.356 754.688 288.965 755.762 287.988 756.446C287.402 756.739 286.426 756.446 285.645 755.86C284.375 754.883 283.887 755.274 282.617 758.399C280.957 762.305 280.859 766.602 281.543 830.274L281.738 852.442L284.57 855.371C288.281 859.18 292.09 859.375 294.629 855.86C296.289 853.614 296.387 852.637 295.606 848.438C294.922 845.02 294.922 842.09 295.703 838.672C296.387 836.035 296.875 832.617 296.875 831.055C296.875 828.809 297.168 828.418 298.828 828.809C300.488 829.297 300.781 830.176 300.781 834.571C300.781 845.117 304.785 848.438 305.664 838.574C305.957 835.645 306.348 832.91 306.641 832.617C307.617 831.739 317.871 837.598 318.164 839.16C318.457 840.43 319.531 840.723 323.535 840.528C328.418 840.332 328.516 840.332 329.199 843.75C329.785 846.387 329.59 847.461 328.418 848.34C326.953 849.512 326.953 849.805 328.809 851.758C331.152 854.395 333.008 860.254 333.008 865.43C333.008 868.164 333.789 870.02 336.133 872.559L339.16 876.074L340.527 873.047C341.211 871.289 341.797 867.481 341.797 864.649C341.797 861.719 342.188 859.375 342.774 859.375C343.262 859.375 344.824 861.133 346.191 863.281C347.461 865.332 349.512 867.578 350.586 868.164C351.758 868.75 352.539 870.215 352.539 871.68C352.539 873.047 353.418 875.781 354.492 877.735C355.469 879.688 356.641 882.52 356.934 883.985C357.617 887.696 361.328 889.942 364.551 888.77C367.09 887.793 367.383 888.086 369.531 894.824C369.824 895.899 371.094 896.485 372.949 896.485C377.441 896.485 378.418 898.242 378.125 905.371C378.027 908.789 377.637 913.086 377.344 914.844C376.856 917.383 377.051 917.871 378.125 917.481C378.906 917.188 380.176 917.578 380.859 918.457C381.543 919.239 382.617 919.922 383.203 919.922C384.863 919.922 388.672 924.121 388.672 925.977C388.672 926.856 389.746 927.832 391.113 928.125C392.481 928.516 393.555 929.297 393.555 929.981C393.555 930.664 394.922 933.106 396.582 935.449C399.512 939.356 399.902 939.551 403.223 938.965C412.793 937.403 412.109 937.891 412.109 932.031V926.66L415.82 927.344C420.508 928.223 420.899 928.418 420.899 930.664C420.899 934.473 423.047 937.5 426.367 938.086C428.125 938.379 430.078 939.258 430.762 940.039C431.348 940.821 432.52 941.406 433.399 941.406C434.18 941.406 437.207 942.188 440.039 943.067C444.922 944.531 445.41 944.531 447.07 943.067C449.316 941.016 450.195 941.016 450.195 942.871C450.195 943.653 451.074 944.336 452.051 944.336C454.395 944.336 455.274 946.289 455.957 953.125C456.543 958.106 456.738 958.496 459.277 958.789C460.84 958.985 462.695 958.594 463.477 957.91C464.551 957.031 465.234 957.129 466.797 958.496C468.555 960.059 468.848 960.156 471.191 958.594C473.633 957.031 473.633 957.031 473.633 959.473C473.633 960.938 473.242 962.891 472.656 963.867C471.973 965.137 472.07 965.918 473.145 966.797C474.121 967.578 474.609 969.727 474.609 972.852C474.609 977.246 474.316 977.735 471.191 979.59C469.336 980.762 467.774 982.422 467.774 983.301C467.774 984.18 467.285 985.449 466.602 986.133C465.234 987.5 469.531 993.457 473.535 995.606C475.098 996.387 476.66 997.754 476.953 998.633C477.539 1000.1 478.027 999.903 480.566 997.461C482.227 995.899 484.18 993.164 484.863 991.406C485.938 989.063 486.816 988.281 488.77 988.281C490.137 988.281 491.992 987.403 492.871 986.328C493.848 985.254 495.41 984.375 496.289 984.375C497.266 984.375 499.805 983.203 501.953 981.836C506.445 978.809 507.227 979.199 511.231 985.938C512.598 988.379 514.16 990.039 514.649 989.746C515.137 989.453 517.285 990.039 519.434 991.114L523.242 993.067L524.414 990.332C525.098 988.672 526.856 987.012 528.613 986.231C530.371 985.547 531.836 984.864 532.031 984.766C532.227 984.668 531.738 983.301 530.957 981.739C529.688 979.395 529.688 978.516 530.762 975.781C531.543 974.121 532.617 972.656 533.203 972.656C534.375 972.656 537.598 969.434 542.09 963.77L544.922 960.156L538.672 956.543C527.93 950.293 520.801 942.969 511.816 928.711C507.324 921.68 502.93 915.625 502.051 915.332C501.172 915.039 497.168 913.574 493.164 912.012C489.16 910.449 485.742 909.571 485.547 910.059C485.352 910.645 484.277 912.207 483.203 913.574C481.25 916.114 480.859 916.211 472.559 915.821C464.746 915.528 463.77 915.235 461.231 912.891C459.668 911.426 457.031 909.961 455.371 909.571C452.832 909.082 451.27 907.422 446.777 900.586C443.652 895.996 439.258 890.235 436.914 887.696C431.445 881.836 427.539 870.996 424.805 853.516C420.313 825.586 415.039 808.692 409.961 806.055C406.152 804.102 405.566 804.395 408.008 806.934C409.18 808.203 410.449 810.645 410.742 812.5L411.426 815.918L408.691 813.477C407.227 812.11 405.274 809.473 404.199 807.52C403.223 805.567 401.27 803.125 399.805 802.051C397.363 800.293 397.266 799.61 395.996 784.278C395.117 774.414 394.043 767.285 393.066 765.43C392.285 763.77 391.602 760.938 391.602 759.18C391.602 752.637 384.277 750.196 374.609 753.516C372.07 754.395 369.727 754.785 369.434 754.492C369.043 754.199 367.871 754.688 366.797 755.762C364.453 757.813 358.984 758.496 353.027 757.422C350.098 756.836 348.633 755.86 347.363 753.809C345.801 750.977 345.801 750.879 348.731 748.242C351.66 745.703 351.66 745.508 350.195 742.676C349.316 741.016 348.633 738.184 348.633 736.231C348.633 733.594 347.852 732.031 345.215 729.492C341.797 726.172 341.797 726.172 341.797 717.383C341.895 711.817 342.383 707.617 343.164 706.153C344.043 704.59 344.336 701.856 344.043 698.34C343.555 693.653 343.848 692.578 345.606 691.016C348.34 688.574 348.242 687.5 345.117 687.5C343.164 687.5 342.676 687.11 343.164 685.938C343.457 685.059 343.75 683.985 343.75 683.496C343.75 682.91 344.531 682.715 345.606 683.106C349.902 684.473 356.25 675.098 352.051 673.438C348.926 672.266 351.66 663.086 356.445 658.692C359.082 656.25 361.328 652.149 361.328 649.414C361.328 647.266 362.305 646.875 363.965 648.535C367.188 651.758 369.336 636.231 366.211 632.129C363.867 629.004 364.746 625 367.774 625C369.727 625 370.117 624.512 370.117 621.778C370.117 617.188 372.852 609.375 375.488 606.446C376.66 605.078 378.223 602.442 378.809 600.489C379.395 598.535 381.25 595.703 382.91 594.141C387.109 590.137 387.988 588.281 388.867 581.543C390.137 570.801 390.625 569.629 394.629 566.992C398.633 564.258 401.856 558.301 400.781 555.762C400.488 554.883 400 550.196 399.902 545.313C399.707 540.332 399.121 535.449 398.535 534.375C396.484 530.567 397.266 520.215 399.902 514.453C401.27 511.621 402.637 507.715 402.93 505.86C403.32 504.004 404.102 501.66 404.785 500.684C405.859 499.219 405.469 497.949 402.832 492.676C401.172 489.258 399.121 485.742 398.535 484.961C396.582 482.617 399.902 477.93 405.371 475.586C407.91 474.512 410.84 473.633 411.719 473.633C412.695 473.633 414.746 472.461 416.211 470.996C418.75 468.555 418.945 468.555 418.945 470.313C418.945 473.438 419.727 473.633 425.488 471.582C428.516 470.606 432.52 469.727 434.473 469.727C436.426 469.727 438.574 469.336 439.356 468.848C440.234 468.262 441.797 468.653 443.75 469.727C445.508 470.703 449.805 471.68 454.102 471.973C459.375 472.461 461.719 473.047 462.598 474.317C464.063 476.27 464.356 491.797 462.988 495.313C462.402 496.875 462.598 498.633 463.379 500.488C464.551 503.223 464.356 503.613 461.133 507.031C458.008 510.352 457.813 510.938 458.789 513.184C460.547 516.895 460.254 519.531 458.203 519.531C455.957 519.531 453.711 525.196 455.176 527.051C455.762 527.735 457.422 528.321 458.691 528.321C460.547 528.321 461.426 529.102 462.598 532.227C464.356 536.621 465.82 535.938 465.82 530.567C465.82 527.93 466.309 527.246 468.359 526.758C472.07 525.781 486.328 526.953 489.453 528.321C493.359 530.176 509.473 528.028 512.012 525.293C515.918 521.094 521.191 523.828 527.734 533.692C529.492 536.328 530.274 537.012 530.274 535.742C530.274 534.375 530.762 534.082 532.52 534.571C533.691 534.864 534.961 535.156 535.449 535.156C535.84 535.156 535.938 536.231 535.547 537.598C535.059 539.746 535.254 540.039 537.5 540.039C541.406 540.039 544.238 542.285 550.293 550.391C553.32 554.395 556.25 557.617 556.934 557.52C559.961 557.129 561.719 557.91 566.504 561.524C569.434 563.672 572.266 565.43 572.852 565.43C573.535 565.43 573.926 563.965 573.828 561.719C573.731 559.473 574.219 558.106 574.902 558.106C576.367 558.106 577.734 560.449 586.328 577.149C589.844 583.887 593.75 591.114 595.117 593.262L597.559 597.168L596.973 591.309C596.582 587.012 595.801 584.766 594.141 582.91C592.871 581.543 591.797 579.59 591.797 578.516C591.797 577.344 590.918 575.684 589.844 574.707C588.672 573.633 587.891 571.68 587.891 569.824C587.891 568.067 586.914 565.43 585.742 563.867C583.887 561.524 583.496 559.864 583.496 554.102C583.496 548.145 583.789 546.68 585.742 544.629L587.891 542.285L585.547 541.211C584.277 540.625 582.227 538.184 581.055 535.645C579.688 532.813 577.441 530.274 575 528.711C570.41 525.781 568.457 522.266 570.215 520.117C570.996 519.239 571.191 517.774 570.703 516.406C570.02 514.356 569.434 509.082 569.238 504.492C569.238 503.418 567.481 500.391 565.43 497.754C563.281 495.117 561.524 492.285 561.524 491.504C561.524 490.821 560.645 488.477 559.668 486.426C558.399 484.082 558.106 482.324 558.594 481.348C559.082 480.567 559.277 476.758 558.887 472.852L558.301 465.723L564.063 466.309C568.945 466.895 570.508 466.699 573.047 465.137C574.805 464.063 575.781 462.891 575.293 462.305C573.731 460.645 573.047 457.031 574.316 457.031C574.902 457.031 577.246 456.153 579.492 454.981C582.91 453.321 583.984 451.953 586.621 446.289C588.867 441.309 590.527 438.965 592.969 437.5C595.703 435.938 596.582 434.571 597.559 430.469C599.316 423.633 600.293 421.875 602.441 421.875C603.32 421.875 605.957 420.313 608.106 418.457C611.426 415.625 613.281 414.942 619.238 414.063C623.242 413.477 627.539 412.5 628.906 411.914C630.273 411.328 631.934 410.84 632.52 411.035C633.203 411.133 635.156 410.449 636.816 409.571C638.672 408.594 641.016 408.203 642.773 408.594C644.727 408.985 645.703 408.692 646.191 407.715C646.582 406.446 647.363 406.641 650.977 408.692C654.199 410.547 657.324 411.328 664.258 412.012C677.051 413.184 684.57 412.403 686.719 409.766L688.379 407.715L692.09 409.766C696.68 412.403 707.52 412.696 710.156 410.352C711.133 409.571 712.402 409.18 713.184 409.473C713.965 409.766 715.137 409.571 715.82 409.18C716.602 408.692 717.969 408.789 719.043 409.278C720.41 410.059 721.289 409.864 722.656 408.692C724.219 407.324 724.707 407.324 728.613 408.692C730.957 409.571 733.691 410.547 734.668 410.84C736.328 411.328 737.012 413.086 737.5 418.36C737.695 420.703 738.379 421.387 741.016 422.071C743.75 422.852 744.531 422.559 746.094 420.703C747.168 419.434 747.949 417.774 748.047 416.895C748.047 414.649 752.148 412.207 757.52 411.231C761.328 410.449 763.086 409.375 767.383 404.785L772.754 399.317L772.266 390.43C771.777 382.031 771.875 381.348 774.023 379.199C775.977 377.344 776.172 376.465 775.293 374.317C774.609 372.364 774.707 371.387 775.977 370.02C776.953 368.946 777.148 368.164 776.563 368.164C776.074 368.164 773.926 366.016 771.973 363.281L768.359 358.399L770.508 355.078C771.875 352.832 773.438 351.563 775.195 351.367C777.051 351.172 777.832 350.489 777.832 349.121C777.832 347.559 777.051 347.071 774.414 346.875C772.559 346.68 770.41 345.996 769.727 345.41C768.652 344.629 768.945 344.043 771.191 342.969C775.293 340.821 777.344 338.77 777.344 336.719C777.344 335.742 778.027 333.887 778.906 332.52C780.859 329.492 780.957 324.903 779.102 322.071C778.223 320.703 775.391 318.946 772.363 317.969C765.918 315.723 760.449 309.571 761.816 305.86C762.305 304.688 763.086 303.711 763.672 303.711C764.16 303.711 764.648 302.637 764.648 301.367C764.648 299.219 764.16 298.926 756.152 297.754C745.703 296.289 740.234 293.848 740.234 290.723C740.234 287.598 735.254 280.078 732.031 278.321C730.566 277.539 728.516 275.293 727.441 273.34C726.367 271.094 724.707 269.531 723.145 269.141C720.605 268.457 720.508 268.36 720.605 259.473C720.703 254.492 720.313 246.387 719.727 241.407C718.75 232.715 718.848 232.227 721.191 227.539C723.242 223.535 723.633 221.289 723.633 214.746C723.633 205.469 722.07 202.344 715.527 199.024C705.566 194.043 700.293 189.551 697.363 183.692C694.922 178.809 693.945 177.93 690.527 176.953C687.207 175.879 686.523 175.293 685.938 172.363C685.645 170.508 683.106 166.016 680.273 162.305C677.539 158.496 673.633 152.832 671.68 149.512C669.727 146.289 667.676 143.555 667.09 143.555C666.602 143.555 664.844 144.727 663.184 146.094C660.449 148.34 660.156 148.438 660.156 146.778C660.156 145.215 658.984 144.629 654.199 143.75C650.977 143.164 646.289 141.699 643.945 140.528C641.504 139.356 638.672 138.672 637.5 138.965C636.328 139.258 634.18 138.867 632.617 138.086C629.492 136.426 623.731 136.914 621.094 138.965C620.215 139.649 619.531 141.602 619.629 143.555C619.629 146.582 619.336 146.973 616.016 147.754C612.793 148.535 612.305 149.024 612.305 151.367C612.305 152.832 611.426 155.176 610.352 156.543C609.277 157.91 608.398 159.961 608.398 161.035C608.398 166.016 603.613 169.629 600.781 166.797C599.902 165.918 598.047 166.309 593.066 168.457C584.961 171.875 583.984 172.559 582.324 176.465C581.543 178.516 580.566 179.395 579.688 179.102C577.539 178.321 575 173.828 575.586 172.168C576.563 169.727 574.219 167.969 569.922 167.969C567.774 167.969 563.965 167.09 561.621 165.918C559.18 164.844 556.738 164.16 556.055 164.453C554.688 165.039 549.316 159.375 548.34 156.348C547.754 154.395 546.875 154.004 541.504 152.832C538.867 152.344 537.988 152.93 533.399 157.617L528.223 162.891L523.926 161.524C519.629 160.254 519.531 160.254 518.164 162.891C517.481 164.356 516.504 166.895 516.211 168.457C515.723 170.703 514.356 172.071 510.645 174.219C507.031 176.27 505.762 177.442 506.152 178.711C506.543 180.078 505.469 180.762 501.074 182.227C496.387 183.692 494.238 185.352 486.816 192.969L478.027 201.953L473.633 199.61C471.191 198.34 468.75 197.266 468.066 197.266C466.504 197.266 466.309 190.137 467.774 187.5C468.359 186.524 468.359 184.766 467.969 183.594C466.992 180.86 470.41 173.34 473.34 171.778C474.707 171.094 475.586 169.629 475.586 168.36C475.586 167.09 476.465 165.625 477.539 165.039C479.688 163.867 479.883 161.524 478.906 149.121C478.32 142.285 478.027 141.602 475.684 140.723C470.703 138.867 470.02 137.988 471.973 136.035C475.879 131.934 478.516 128.516 478.516 127.832C478.516 127.344 479.199 126.953 479.981 126.953C480.762 126.953 482.422 124.903 483.691 122.461C485.645 118.457 485.645 117.871 484.277 116.895C482.91 115.918 482.91 115.235 483.984 112.305C484.668 110.449 485.254 107.52 485.254 105.86C485.352 103.613 486.328 101.758 488.867 99.3166C492.285 96.0939 492.285 95.8986 490.332 95.215C487.5 94.3361 484.375 87.8908 484.375 82.715C484.375 80.4689 483.984 78.1252 483.496 77.5393C483.106 77.051 482.227 75.1955 481.641 73.4377C480.566 70.4104 480.664 70.1174 483.399 68.5549C486.719 66.6994 487.305 63.1838 484.766 60.4494C483.399 58.8869 482.91 58.8869 479.199 60.1564C475.586 61.426 475.098 61.426 473.242 59.6682C471.289 57.8127 468.066 57.1291 462.695 57.4221C461.328 57.5197 458.106 59.1799 455.566 61.133C451.172 64.4533 450.879 64.551 448.535 62.9885C446.094 61.3283 441.016 61.7189 439.941 63.5744C439.063 64.9416 433.594 61.7189 433.594 59.7658C433.594 58.8869 432.715 57.5197 431.641 56.8361C430.566 56.1525 429.688 54.7854 429.688 53.7111C429.688 52.6369 429.199 50.8791 428.516 49.9025C426.758 47.0705 428.906 43.0666 432.52 42.383C435.449 41.7971 436.426 39.6486 437.988 29.7854C438.379 27.6369 438.867 24.6096 439.16 23.0471C439.649 20.4104 439.551 20.3127 437.305 20.801C434.668 21.4846 431.25 18.5549 426.758 11.7189C422.266 4.98066 417.578 2.83223 416.406 7.22676C415.82 9.57051 409.18 14.6486 406.543 14.6486C405.274 14.6486 405.078 13.8674 405.566 10.3518C406.25 5.76191 404.492 2.92988 400.977 2.92988C400.098 2.92988 399.121 2.24629 398.828 1.46504C398.242 -0.0974607 393.848 -0.488086 391.992 0.781445Z" fill="white"/>
<path d="M551.758 561.035C551.758 561.231 552.832 563.867 554.199 566.895C556.25 571.582 557.227 572.656 561.035 574.317C566.406 576.758 567.578 576.172 564.649 572.461C563.477 570.996 561.621 568.262 560.645 566.309C559.57 564.453 557.617 562.403 556.152 561.719C553.516 560.547 551.758 560.254 551.758 561.035Z" fill="white"/>
<path d="M570.508 589.16C569.238 590.723 570.117 597.754 571.68 598.828C573.535 600.098 573.926 599.707 574.512 595.508C575.293 589.551 573.047 586.035 570.508 589.16Z" fill="white"/>
<path d="M278.613 702.149C277.344 702.637 276.367 703.906 276.367 704.981C276.367 706.055 275.488 707.422 274.414 708.008C272.461 709.082 271.777 712.989 273.047 716.114C273.926 718.36 284.375 706.543 283.984 703.809C283.691 701.367 281.836 700.879 278.613 702.149Z" fill="white"/>
<path d="M398.731 721.582C397.754 725.293 397.754 725.391 400.977 726.367L404.297 727.344V723.535C404.297 720.801 403.809 719.531 402.442 718.75C399.707 717.383 399.805 717.383 398.731 721.582Z" fill="white"/>
<path d="M397.266 734.278C394.336 734.766 393.75 735.156 394.531 736.328C395.02 737.11 395.508 739.844 395.508 742.383C395.508 745.02 395.899 747.07 396.484 747.07C398.242 747.07 404.102 741.211 405.274 738.184C406.348 735.645 406.348 735.059 405.176 734.278C403.711 733.399 402.832 733.399 397.266 734.278Z" fill="white"/>
<path d="M255.078 741.406C253.711 742.774 253.516 745.703 254.785 746.582C256.055 747.266 258.789 743.262 258.106 741.602C257.52 739.942 256.641 739.844 255.078 741.406Z" fill="white"/>
<path d="M374.024 926.563C374.024 927.539 373.34 929.199 372.559 930.469C370.899 932.813 371.484 934.766 374.805 937.793C377.93 940.625 379.492 939.063 379.688 932.715C379.883 927.539 379.59 926.953 377.344 925.977C374.121 924.512 374.024 924.512 374.024 926.563Z" fill="white"/>
<path d="M349.219 934.473C345.41 935.449 342.188 936.719 341.992 937.305C341.602 938.574 345.996 939.942 348.047 939.16C348.731 938.867 350.293 939.258 351.465 940.039C353.418 941.406 353.613 941.309 354.492 938.965C355.078 937.5 355.957 935.547 356.445 934.473C357.617 932.324 358.008 932.324 349.219 934.473Z" fill="white"/>
<path d="M386.231 943.848C384.668 944.531 381.348 945.606 378.906 945.996L374.512 946.875L377.637 948.828C380.957 950.781 381.836 952.637 381.836 957.715C381.836 960.254 382.227 960.938 383.789 960.938C384.961 960.938 386.231 959.961 386.914 958.496C387.598 956.934 388.77 956.055 390.137 956.055C395.313 956.055 396.387 950.684 392.188 945.02C390.039 941.992 390.137 942.09 386.231 943.848Z" fill="white"/>
<circle id="676" cx="434" cy="464" fill="#5CE50D"/>
<circle id="678" cx="536" cy="372" fill="#E52A0D"/>
<circle id="1094" cx="288" cy="848" fill="#E52A0D"/>
<circle id="677" cx="327" cy="121" fill="#E52A0D"/>
</svg>
