<svg width="1000" height="1000" viewBox="0 0 1000 1000" fill="none" xmlns="http://www.w3.org/2000/svg">
<path fill-rule="evenodd" clip-rule="evenodd" d="M8.4152 656.407L9.31481 656.476L10.6988 655.992L11.5292 655.438L12.2212 655.923L12.9132 655.992L14.2972 655.577L15.7505 654.677L16.9961 653.778L17.6189 653.086L19.0029 653.224L19.3489 653.847L19.6949 653.639L20.1101 653.847L21.1481 653.778L23.0857 653.016L24.1929 652.947L24.5389 652.67L25.4385 651.425L27.1685 650.248L27.5837 649.902L27.9989 649.21L28.4833 648.795L28.8985 648.657L29.1061 648.795H30.4209L32.0126 648.518L33.4658 647.757L33.881 647.688L34.7806 646.996L35.957 645.128L36.7874 644.574H37.2718L37.9638 644.851L39.1402 644.643L41.9774 644.297L42.185 644.228L43.4306 643.259L44.4686 642.636L45.0914 641.667L45.3682 640.768L45.9218 640.353L46.8215 639.522L47.3751 638.346L47.9979 637.308L48.4131 635.647L49.0359 635.093L49.3127 634.401L49.5895 632.879L50.0739 632.325L50.9043 630.457L51.8039 630.18L52.1499 629.973L53.3263 629.834L53.9491 629.419L55.2639 629.35L56.4403 628.658H57.9627L58.6547 628.865H59.2775L60.6615 628.035L61.3535 626.997L61.838 626.72L62.8068 626.513L63.7064 626.72L64.3984 626.582H65.0904L66.4052 626.028L66.9588 625.959L67.72 626.167L68.6196 626.028L69.6576 626.097L70.9032 626.513L71.3876 626.443L71.9412 625.89L72.8408 624.575L73.3944 623.468L74.4324 622.914L77.4773 622.361L81.4909 620.423L82.7365 620.215L84.3281 619.316L84.8817 619.177L85.3661 618.762L85.8505 618.139L85.9889 617.447L86.9577 615.925L87.4421 615.302L88.1341 615.025L89.1721 614.956L89.7257 615.094L90.2793 615.51H90.8329L94.0162 614.333L96.6458 614.126H97.8222L99.483 614.264L101.559 614.887L102.805 614.749L104.327 614.818L105.157 614.956L105.988 614.818L106.472 614.472L107.303 614.264L107.718 613.918L109.033 613.434L110.347 613.295L111.385 612.326L111.731 611.842L112.285 611.496L112.977 611.634L113.807 611.911L114.499 611.565L115.122 610.458L115.745 610.112L116.437 609.074L117.06 608.728L118.236 607.413L118.513 607.206L119.413 607.136L120.589 606.583L121.835 605.891L122.942 605.614L125.018 605.683L126.264 606.029H126.54L127.371 605.545L128.686 605.406L129.585 605.476L131.315 606.029L131.938 606.375L132.63 606.514L134.429 607.206L135.329 606.929L135.813 607.136L136.436 607.69L136.99 607.759L137.543 607.552L138.097 608.105L138.028 608.728L138.374 609.697L138.235 610.527L138.374 611.288L138.65 611.842L138.72 612.534L138.858 612.949L138.72 613.78L138.512 614.056L139.412 614.541L139.342 614.887H138.927L137.82 615.44L137.751 615.786H137.474L137.405 616.409L136.99 616.479L135.744 617.586L135.19 617.793V618.278L134.914 618.831L135.052 619.8L134.844 620.008L134.983 620.492L134.637 621.184L134.706 621.669L134.429 622.153L134.498 622.914L134.844 623.399L134.914 624.229L134.36 624.783V625.682L134.775 626.789V627.135L134.152 628.035L133.945 628.589V629.419L134.498 630.249L134.152 630.734H133.737L133.253 631.703L132.768 632.602L130.9 635.439L130.831 635.716L131.038 636.339L131.384 637.723L131.454 638.83L131.384 640.007L131.177 640.629L131.661 641.114L132.215 642.429L132.907 643.19L133.114 643.743L133.253 645.404L132.907 646.165L132.215 647.134L131.8 647.342L131.038 648.242L130.07 647.965L129.585 647.549L128.686 647.48L127.786 649.28L127.302 649.833L126.748 649.972L126.471 650.802L126.748 651.356L126.402 652.048V652.394L126.679 652.601L126.54 652.878V653.847L126.056 654.124V654.816L126.333 655.023L126.056 655.715H125.641L125.433 655.992H125.087L124.949 655.646L125.018 655.162H124.464L123.98 655.784L123.357 655.231L122.596 655.092L122.112 655.715L121.558 656.338L121.074 656.407L120.52 656.2L119.62 656.338H118.998L118.375 656.961L118.029 657.099L117.96 656.546L117.406 656.615L117.129 657.03L116.368 657.238L115.745 657.653L115.953 657.722L115.814 658.691L115.261 659.314L115.399 659.59V660.006L115.607 660.421L115.191 660.628L114.915 661.39L114.361 661.736L113.946 662.22L113.323 662.566L113.046 662.843H112.7L112.147 663.189L112.008 663.604L111.524 663.673L111.178 663.95L110.624 663.396L110.14 663.466V663.189L109.655 663.12L109.309 662.704H108.687L108.756 663.466L108.41 664.227L108.548 664.988L108.133 665.196L108.341 665.888L108.202 666.787L107.925 667.064L107.649 667.687L107.787 668.033L107.233 668.171L106.818 668.794L106.957 669.14L107.925 669.278L108.548 669.97L108.479 670.939L108.548 671.354L109.309 672.046L109.171 673.084L108.479 673.638L108.825 674.261L108.756 674.745L108.202 675.506L107.649 675.783L107.026 675.714L106.749 676.129L107.303 676.337L107.718 676.891L107.164 677.582L106.818 677.306H106.403L105.78 677.859V678.966L105.573 679.728L104.327 681.181L103.289 681.873L102.805 682.011L102.459 682.357L101.974 682.565H101.559L101.49 682.911H101.005V683.257L100.313 683.672L100.106 684.433V685.679L99.829 686.925L100.037 687.686L100.452 688.309L101.075 688.862H101.974L102.735 689.208L103.358 689.9L103.22 690.177L103.358 691.077L103.704 692.045V692.599L103.981 693.291L104.327 693.706L104.05 693.983L103.22 694.467L102.735 694.606L101.905 695.021L101.767 695.436L101.836 695.851L101.351 696.613V696.82L101.905 697.235L101.628 697.651L101.836 698.343L101.559 698.758V699.242L101.005 700.488L101.351 701.457H100.175L99.7598 701.595L99.2062 701.249H98.9294L98.1682 700.834L97.407 700.695L96.4382 701.457L95.8154 701.526L95.5386 701.733L94.9158 701.595L93.947 702.01L93.255 702.633L92.0785 703.048L91.3173 703.463L90.9021 703.879L90.6253 704.363L89.1721 704.709L88.7569 704.294L87.9957 704.432L86.9577 704.294L86.1273 704.363L84.8817 705.124L84.3281 705.747L83.9821 706.854L83.0133 706.577L82.6673 706.37L82.5981 706.716L81.8369 706.854L81.0757 707.2L80.7989 706.923L79.9685 706.647L79.2765 706.716L78.8613 706.923L78.3077 706.647L78.4461 704.64L78.8613 703.463V702.633L79.2073 702.01L79.6225 701.526L79.8993 700.142V699.657L80.5913 698.827V698.481L81.2141 697.927L81.3525 697.512L81.1449 696.751L80.9373 696.267L81.0757 695.229L80.6605 694.952L80.2453 694.191L80.1761 693.083L80.4529 692.807L80.2453 692.391L80.5913 691.907L81.0757 691.63L80.9373 690.869L80.6605 690.731L80.3145 690.177L80.2453 689.208L79.9685 689.07L79.3457 688.032L79.1381 687.963L78.7229 687.34H78.3769L77.8233 686.579L77.5465 686.44L77.2697 685.956L77.3389 685.471L77.8925 685.333L77.9617 684.641L77.6849 683.257L76.9928 683.119L76.8544 682.496L77.3389 682.081L77.062 681.596L76.6468 681.112L76.5084 680.42L76.3008 680.212L76.5084 679.451L76.024 679.036L75.4704 679.52V678.966L74.8476 678.621L75.1244 678.413L75.0552 677.928L74.64 677.721L74.294 676.891L73.8788 676.96L73.7404 675.576L73.3944 674.468L73.1868 674.33L71.0416 673.776L70.6264 673.43L70.5572 673.015L69.9344 672.669L69.3116 671.977L69.2424 671.631L68.2044 670.87L66.9588 670.455L66.4744 669.624L65.99 669.14L65.7132 668.24L65.1596 668.102L64.1216 668.31L63.3604 667.618L61.6303 666.51L60.8691 666.303L60.5231 665.542L60.1771 665.403L59.6927 665.68L58.7239 666.095L58.4471 666.787L58.0319 666.441L57.8243 666.856L57.2015 666.51L56.5095 667.133V667.687L56.1635 667.964L56.3019 668.794L55.8867 669.14L55.1947 669.071L54.3643 669.417L53.3263 669.002L52.7727 669.071L52.5651 669.694L52.1499 670.316L52.2883 670.801L52.0115 671.008L51.3887 671.147L50.8351 671.908L50.4199 671.977L49.7279 672.462L49.2435 672.392L47.3751 672.808L46.8907 673.707L45.645 674.053V674.745L46.8215 675.645L46.6831 675.991L45.9218 676.406L45.7142 677.167L44.8838 677.721L44.3302 678.897L43.8458 679.312L43.223 679.589L43.7074 680.281L44.0534 681.043L43.9842 681.527L43.3614 681.665L43.0154 682.15L41.9774 682.288L41.4238 682.703L40.801 682.427L40.3166 682.565L40.5934 683.257V683.672L40.109 684.087L39.0018 682.98L37.8946 683.188L36.649 683.119L35.6802 683.603L35.265 683.395L34.7114 682.496L34.0194 681.458L33.7426 680.904L32.843 680.42L32.7046 679.589L32.843 679.036L31.805 678.551L31.3898 677.859H30.7669L30.4901 678.621L30.2133 678.828L29.5905 677.928L29.2445 677.79L28.7601 677.928V678.482L28.5525 678.828L27.5145 678.69L27.2377 678.413L25.5769 678.69L25.1617 678.621L24.5389 678.205L23.8469 676.96L23.4317 676.475L22.9473 675.299L22.0477 674.745L21.5633 674.053L20.8021 673.084L19.6949 671.493L17.6189 668.102L17.3421 667.825L15.8197 666.58L15.4044 665.888L14.7124 665.818V665.472L14.228 664.78L14.0896 664.296V663.466L13.3976 663.12L12.5672 662.497L12.4288 661.874L12.6364 661.459L12.3596 661.044L11.5984 660.905L11.2524 661.044L10.422 660.905L10.2144 660.421L10.2836 659.59L10.1452 659.314L9.59161 658.829L9.17641 659.037L8.4844 658.76L8.346 657.999L8 657.653L8.4152 656.892V656.407Z" fill="white"/>
<path fill-rule="evenodd" clip-rule="evenodd" d="M988.086 387.56L987.878 388.252L987.463 388.598H987.048L986.494 388.321L985.664 388.183L985.595 387.975H984.695L984.28 387.698L983.865 387.145L983.45 386.384L982.066 385.553L981.581 385.069L981.443 384.169L981.166 382.924V381.609L981.097 380.709L981.304 380.017L981.374 379.325L982.066 378.91L982.896 378.149L983.726 377.803L984.764 377.734L985.249 377.872L985.664 377.664L986.702 378.356L987.463 378.702L988.155 378.91L988.916 379.533L989.816 380.778L990.508 382.024L991.062 383.408L991.2 383.962V385.415L990.923 386.314L990.3 386.937L989.885 387.145L988.986 387.491L988.086 387.56Z" fill="white"/>
<path fill-rule="evenodd" clip-rule="evenodd" d="M477.94 294.076L478.286 293.592L478.909 293.315L479.255 293.384L480.57 292.761L481.262 292.554L482.3 292L482.992 292.138V292.692L483.269 293.453L483.684 293.799L483.822 294.145L483.615 295.322L484.237 296.29L484.445 297.121L484.376 297.744L484.099 298.366V299.404L484.376 300.581L484.653 301.896L484.86 302.518H485.206L485.275 303.349L484.791 303.072L484.583 302.726L484.307 303.349V304.248L484.168 305.079L484.376 305.494L483.822 307.155L483.407 307.847L482.853 307.985L482.438 308.677L482.3 310.338V310.615L482.023 312.276L481.539 312.553L481.331 312.899L480.916 313.037L480.362 313.798L479.878 314.075L479.255 315.182L478.84 315.459L478.563 316.082L477.94 316.566L477.317 316.843L476.833 317.812L476.141 318.711L475.795 319.542L475.449 320.095L475.103 320.995L475.034 321.964L474.826 323.002L474.273 323.625L474.619 324.87L474.411 326.946L474.342 328.884L474.619 330.268L474.965 331.167L474.48 332.275L474.203 332.621L473.65 335.319L473.165 335.942L472.889 336.911L472.75 337.603L472.335 337.949V338.849L472.127 339.056L472.058 339.748L471.505 340.371L470.882 340.717L470.051 341.824L469.913 342.655L469.152 343.347L468.598 344.385L468.46 344.938L468.114 345.284L467.491 345.008L467.422 345.769L467.007 346.184L465.969 346.253L465.623 346.738L464.169 345.976L463.616 345.907L463.547 346.115L462.647 345.976L462.093 346.115L461.817 345.907L460.571 346.046L460.779 345.423L460.571 344.938L460.087 344.731L459.256 344.938L459.049 344.454L458.91 343.762L458.564 343.347L457.872 343.208L456.765 343.485L456.211 343.208L455.589 343.139L454.204 343.278L453.236 343.485L452.613 343.416L451.575 343.208L450.744 342.724L450.191 342.309L450.052 341.755L449.776 341.824L449.084 340.994L447.215 339.402L446.662 338.71L446.246 338.433L445.416 337.534L444.447 336.842L444.24 336.288L443.755 335.735L442.994 333.935L442.786 333.174L443.617 331.721L444.932 330.545L445.624 330.268L446.177 329.922L447.976 328.33L448.945 326.877L449.222 324.386L449.36 323.486L449.983 322.171L450.883 321.272L452.059 320.58L453.028 320.372H453.928L454.758 320.649L455.519 320.718L456.35 320.58L457.249 320.165L457.595 319.819L458.149 318.711L458.495 318.158L458.979 317.051L459.741 316.359L460.363 316.013L460.502 314.836L460.986 313.937L461.609 313.175L462.716 312.622L462.993 311.999L463.547 311.445L464.515 310.131L465.415 309.231L466.176 308.401L467.699 307.155L468.321 306.186L469.013 305.01L469.429 303.21L469.705 302.518L470.397 302.172L470.674 302.311L471.366 301.965L472.197 301.204L472.958 300.304L473.927 299.404L474.965 298.228L476.003 296.706L476.279 296.014L476.833 295.529L477.663 294.56L477.94 294.076Z" fill="white"/>
<path fill-rule="evenodd" clip-rule="evenodd" d="M278.643 542.576L278.366 542.299L278.92 542.161L279.958 541.192L280.442 540.223L281.203 539.739L281.965 539.601L282.933 538.909L283.625 538.839H284.525L284.94 538.563L285.286 538.147L285.84 537.94L286.324 537.525L287.016 536.487L287.777 533.926L288.954 533.096L289.577 532.335L290.338 530.674L290.545 529.497L291.03 527.698L291.514 526.453L291.929 525.691L292.76 524.723L293.798 522.785L293.867 521.124L293.936 520.64L294.767 518.702L294.697 517.526L294.767 516.488L295.251 513.996L295.597 513.512L296.012 513.374L296.358 512.82V512.474H296.704L297.465 511.574L297.673 510.882L298.157 510.952L298.919 510.121L298.988 509.498L299.749 509.222L300.233 508.253L300.926 507.907L301.894 506.661V506.384L302.586 506.592L303.348 506.108L303.901 505.554L304.316 504.516L304.247 504.308L304.732 504.378L305.078 504.239L305.562 503.478L306.185 503.409L306.531 503.686L306.877 503.547H307.569L308.122 503.34L308.884 503.409L309.022 503.755L309.368 503.686L309.991 503.755L311.029 503.547L310.96 503.27L311.928 502.786L313.174 502.578L314.074 502.232L314.489 501.748L314.835 501.125L315.458 500.572L316.357 499.949L317.257 499.534L318.433 498.08L318.987 497.665L319.54 496.766L319.956 496.558L320.302 496.212L321.34 495.451L321.616 494.759L322.101 494.067L322.516 492.614L322.585 491.645L322.516 490.261L321.962 486.247V485.486L321.686 484.171L321.27 481.265L321.201 479.881L320.786 478.566L320.924 478.151L320.786 477.528L320.717 476.628V475.106L320.786 474.552L321.755 473.583L322.239 472.961L322.516 471.992V471.577L323 469.985V469.708L323.416 468.67L323.554 467.84L323.623 466.387L323.416 464.864L323.208 464.449L323.416 463.757V463.134L322.654 461.543L323 460.851L323.692 460.435L324.108 459.12L324.454 459.051L324.938 458.29L325.353 458.013L325.492 456.975L325.63 456.698L325.699 455.522L325.768 455.107L326.53 453.515L326.806 453.238L326.876 452.616L327.222 452.131L327.36 451.508L327.568 451.37L328.329 450.332L328.467 449.917L329.021 449.64L329.436 449.086V448.74L329.92 448.118L330.059 447.564V446.595L330.405 446.388L330.682 446.595H331.235L332.066 446.318L332.758 445.765L333.519 445.834L334.211 445.35L334.765 445.419L337.602 444.173L338.709 443.481L339.193 443.066L340.024 442.582H340.439L342.307 442.028L343.484 441.267L344.037 440.575L345.145 440.09L346.044 440.021L346.805 439.814L348.12 439.26L349.158 438.983L350.542 438.43L351.719 437.807H352.895L354.21 437.599L355.179 436.838L356.424 436.284L357.324 436.561H358.085L358.708 436.146L359.538 435.8L361.061 436.077L362.237 435.938L363.344 435.662L364.521 435.592L365.005 435.662L367.496 435.869L368.396 435.454H369.226L371.994 436.008L373.24 435.869L374.416 436.077L377.669 435.523L379.053 435.385L379.468 435.454L381.89 435.177L382.651 434.762L384.174 433.101L385.35 431.51L386.111 431.164L387.08 431.371H388.187L389.087 431.648L390.125 431.856L390.678 431.786L391.024 431.302L391.993 429.918L392.478 429.641H393.17L394.069 429.364L395.384 429.503L396.215 429.434L396.907 429.295L397.806 428.672L398.083 428.326L398.567 428.188L399.605 428.257L400.297 428.119L401.474 427.565L403.411 427.288L404.103 426.873L404.311 426.389L404.865 426.527L405.833 426.112L406.664 425.351L407.702 424.659L408.463 424.313H409.086L410.47 423.69L411.646 423.759L414.207 423.482H415.314L416.006 423.275L417.943 422.998L418.22 423.413L418.774 423.482L420.435 423.551L420.365 423.897L421.127 424.313L422.441 424.52L422.58 424.797L423.133 424.935L423.479 424.382L423.895 424.728L424.656 425.074L425.486 424.935L425.832 425.143L426.109 425.697L426.455 425.904L427.147 425.835L427.424 425.627L427.493 424.866H427.839L427.493 425.904L428.116 426.458L428.6 426.389L429.085 425.627H430.746L431.092 425.835V425.212L431.438 425.074L432.337 425.143L432.545 424.866L433.514 425.143L433.79 424.728L434.275 425.005L433.929 425.351L434.206 426.527L434.69 426.873L435.244 426.942L435.59 426.458L435.936 426.804L436.628 426.596L437.666 425.005V424.866L438.219 424.036L438.496 423.967L438.427 423.551L438.081 423.413V422.79L437.458 421.96L436.697 421.752L436.835 421.545L437.596 421.268L437.873 421.337L438.219 421.129L438.427 421.268L439.949 421.475H441.195L441.679 421.406L442.094 421.199L442.233 421.406L443.271 421.683L444.101 421.614L445.278 421.06L446.246 419.953L447.146 418.915L448.115 418.154L448.807 417.808L449.637 417.254L450.468 416.908L451.575 416.631L451.921 416.493L452.613 415.663H452.959L453.928 416.216L455.45 416.701L456.35 417.185L457.319 417.877L457.734 418.015L460.017 418.707H461.747L462.093 418.846H462.855L463.408 419.053L463.823 419.538L464.861 420.507L465.415 420.437L466.245 420.161L467.214 419.607L467.906 418.846L469.013 418.5L469.775 418.707L470.813 418.5L471.159 418.569L472.266 418.361L473.373 417.877L474.065 418.223L474.826 417.808L475.864 416.701L476.695 415.178L476.556 414.832L476.695 414.209L476.487 413.448L476.21 413.241L475.795 413.448L475.172 413.102L475.241 412.479L474.965 410.957L474.342 410.611L474.757 410.057L475.172 410.196L475.587 410.68L476.349 410.888L477.179 410.819L477.594 410.68L478.217 410.057L478.701 410.196V410.68L478.978 410.819L478.632 411.649L479.186 412.203L480.155 412.479L480.777 411.995L480.916 412.133L481.677 411.995L481.608 412.479L481.815 412.618L482.992 412.756L483.961 412.272L484.445 412.41L484.999 412.272L485.414 412.479L485.898 412.203L486.037 411.511L486.244 411.857L487.698 412.064L488.874 412.133L489.358 412.203L490.95 412.272L491.85 411.995L492.057 411.787L492.196 412.341L492.542 412.618L493.441 412.756L494.341 413.379L495.24 413.794L495.725 414.209H496.278L496.209 414.901L496.624 414.555L496.486 415.109L497.87 415.455H498.839L498.908 415.04L499.531 414.901L500.084 415.109L500.361 414.763L500.223 414.348L500.5 414.209L500.984 414.555V414.763L501.399 414.901L501.261 415.455L501.676 415.386L502.23 414.901L503.06 414.486L503.544 414.348L504.375 414.694L504.721 414.348L504.79 413.517L504.721 412.964L504.167 413.656V413.448L504.513 413.033V412.687L505.274 411.857L506.174 411.165L506.312 410.473L507.281 410.127L508.181 410.749L508.319 411.303L508.942 411.857L508.181 411.926L508.112 412.341L508.873 412.825H509.15L509.98 413.31L510.464 413.102L510.81 412.479L511.918 411.511L512.61 411.303L513.371 411.372L513.648 411.303L514.132 411.441L514.409 411.926L515.516 412.272L515.931 411.787L516.623 411.234V410.888L517.454 410.611L517.869 410.265L518.561 409.296L519.045 409.019L519.391 408.673L519.876 408.604L520.637 408.327H521.121L521.675 408.051L522.921 408.12L523.613 407.705L524.927 408.189L526.242 407.705L527.211 407.843L527.557 407.705L528.111 406.874L528.664 406.459L529.564 406.113L530.463 405.836L530.325 405.352L530.671 405.144L531.086 405.352L531.432 405.213L531.709 405.421L532.124 405.283L533.024 405.49H533.577L534.2 405.213L534.408 404.867L535.031 404.729L535.238 404.314L536.276 403.691L536.345 403.414L536.83 403.276L537.245 402.445V401.961L537.729 401.546L538.767 401.2L539.875 401.615H540.013L541.466 400.923L542.227 400.023L542.712 399.608L543.404 399.331L544.58 398.293L544.719 397.809L544.995 397.947L545.618 397.67L546.795 396.978L547.002 396.632L547.487 396.84L548.802 396.909H549.563L551.362 397.186L551.846 397.048L552.677 397.255L554.199 397.186L555.306 397.324L555.86 397.117H556.552L556.829 396.978L557.59 397.324L558.697 397.601L559.251 397.394L559.597 397.048L560.012 396.909L561.534 397.048L561.95 396.84L563.057 396.978L563.61 397.255L563.956 397.67L564.302 397.809L565.34 397.878L566.448 398.016L567.07 397.947L567.555 398.224L568.8 398.432H569.146L569.769 398.086H570.738L571.015 397.809L572.122 397.878L573.091 397.67L573.783 397.255L575.029 397.947L575.79 398.016L576.136 397.809L576.828 398.086L577.381 398.57L577.866 399.4L578.558 399.885L579.319 400.023L579.596 399.885H580.288L580.495 399.747L582.018 400.231L582.987 400.646H583.886L584.371 400.023L584.855 399.747L585.755 399.885L586.654 400.508L587.623 400.715L588.661 401.892L588.938 402.376L589.907 403.414L590.253 403.691L591.152 403.968L591.844 403.829L592.675 404.106L593.159 404.521L593.643 404.729L594.474 405.283L595.512 406.805L595.858 407.082L597.173 407.774L598.211 407.912L598.833 407.843L599.456 408.051L600.148 408.12L600.84 407.912L601.463 408.051L602.293 407.981L603.608 407.774L604.577 408.12L605.546 408.881L606.169 409.158L606.792 409.296L608.176 408.466L609.49 408.258L610.598 408.327L611.497 408.743L611.635 409.227L611.497 410.265L611.635 411.095L612.051 411.303L612.328 410.542L613.227 410.127L613.642 409.642L614.68 409.781L615.442 409.988L615.649 409.919L616.618 410.196L617.102 409.988L617.864 410.057L618.279 410.196L619.248 410.127L620.216 409.296L620.562 408.673L621.462 407.981L623.123 407.151L624.23 407.359L624.853 407.289L625.683 406.943L626.444 406.182L627.621 405.559L628.797 405.421L629.558 405.49L630.389 406.113L631.288 406.597H632.188L632.672 406.182L632.88 405.905L633.503 405.283L635.025 404.66L636.063 404.452L637.516 404.591L638.139 404.314L638.831 403.345L639.523 402.999H639.938L641.807 403.276L642.637 403.691L643.814 404.383L645.475 404.867L645.751 405.006L646.928 405.213L648.035 405.144L649.211 404.66L649.765 404.175L651.011 403.76L652.602 402.861L653.502 403.068H654.332L655.647 403.483L657.377 403.76L658.069 403.899L659.453 404.591L660.283 404.937L661.045 405.075L662.221 405.006L663.328 404.314L664.92 402.791L665.681 402.238L666.166 401.684L666.857 400.577L667.203 400.231L667.619 400.023L668.864 400.3L670.041 399.816L671.148 399.747L671.702 399.331L672.324 399.193L673.155 398.708L673.639 398.778L674.539 398.57L675.646 397.74L676.961 396.909L677.238 396.563L678.345 395.594L678.691 394.972L679.798 393.934L680.282 393.242L680.974 392.48L682.082 391.858L683.327 391.027L684.158 390.681L685.334 390.197L687.825 389.782L688.24 389.851L689.555 389.643L690.524 389.574H691.839L692.738 389.228L693.638 388.121L694.261 386.944L694.192 386.737L695.091 385.491L697.236 383.484L698.62 382.239L699.174 382.031L700.005 382.1L701.112 381.893L701.734 381.478L702.011 381.062L702.703 381.201L703.326 381.824L703.741 382.446L704.295 382.723L704.849 382.792L705.471 382.377L705.887 381.754L707.34 381.408L708.239 380.924L709.208 380.786L710.661 380.024L712.322 379.54L712.668 379.332L712.945 379.471L714.191 379.402L714.537 379.056L715.436 378.64L716.128 378.986L716.82 379.54H717.097L717.858 380.094L718.55 380.37H719.035L720.557 380.647L721.872 381.062L722.702 381.547L723.187 382.031L723.948 382.585L724.917 383.761L727.131 385.353H728.1L728.515 385.491L729 385.906L730.037 386.529L730.453 386.391L730.868 386.806L731.56 387.221L732.044 387.152L733.428 387.567L734.812 387.775L735.643 387.706L737.373 388.398L737.857 388.536L738.272 388.398L738.618 388.674H739.034L740.902 389.297L741.663 389.643L742.009 389.574L743.462 390.681L744.846 391.512L745.123 391.788L745.815 392.065L747.338 393.518L747.822 393.795L748.583 394.072L749.69 394.141L751.974 395.318L752.874 395.94L754.258 397.255L755.434 398.155L756.541 398.778H757.787L758.548 398.501L758.894 398.57L759.517 399.124L760.14 399.193L760.901 398.57L761.731 398.224L762.354 397.601L763.184 396.494L764.568 395.387H765.33L766.091 395.456L767.198 395.733L768.375 395.179L769.136 395.456L769.62 395.387L770.035 395.041L770.797 394.141L771.904 393.103L772.873 392.342L775.917 390.958L776.955 390.82L778.616 390.128L780.415 389.851L782.007 389.297L782.837 388.813L783.945 387.844L784.498 387.567L786.021 386.46L787.266 385.699L787.958 385.491L788.166 385.56L789.065 385.353L791.072 384.315L792.179 383.692L793.218 383.346L794.948 383L795.57 382.931L796.47 382.654L798.062 382.031L799.93 381.201L800.899 380.647L801.452 380.37L802.629 379.748L803.252 379.194L804.497 377.81L804.636 377.741L805.328 377.672L806.227 376.98L807.68 376.149L808.372 375.526L808.511 375.18L808.857 375.042L809.964 375.18H810.794L811.694 376.149L812.524 377.395L813.078 378.087L813.632 378.502L815.708 379.817L817.369 380.44L818.683 380.647L819.652 380.924L820.344 380.786L821.244 380.37L822.351 379.817L823.389 379.54L824.012 379.678H825.327L826.365 379.056L826.987 378.502L827.403 377.672L828.025 377.118L828.233 376.357L829.202 375.942L829.686 376.08L829.963 375.872H831.278L832.039 375.734L832.523 376.011H833.146L833.977 375.734L835.222 374.973L836.329 374.488L837.852 374.281L838.682 373.52L838.89 373.104L839.859 372.62L840.343 372.551L840.758 372.758L841.519 372.343L842.142 371.79L843.18 371.513L843.803 371.098L844.703 370.336L845.741 369.644L846.225 369.229L846.986 368.675L849.893 367.222L851.277 366.392L852.176 365.907L853.906 365.146L854.806 365.492L855.498 365.423L856.397 365.077L856.951 364.662L857.02 364.8L857.712 363.831L858.612 363.555L860.065 362.932L861.034 362.447L862.141 361.202L863.802 360.233L864.494 359.749L866.501 358.088L866.847 357.673L868.023 356.565L869.13 355.735L869.753 355.389L871.206 354.835L874.113 354.005L875.151 353.521L876.396 352.69L877.85 352.067L880.133 351.791L881.725 351.652H883.109L885.116 351.306L887.399 351.168L888.991 350.753L889.821 350.614L890.237 350.891L890.79 351.514L891.344 351.998L892.174 352.344L892.52 352.275L893.766 353.728H893.973L894.873 354.559L896.603 355.597L897.018 355.943L897.641 356.081L898.817 356.565L899.717 355.873L900.478 356.289L902.693 357.188H903.385L904.284 358.226L905.322 359.749L906.291 360.787L907.606 362.032L908.021 362.586L908.298 363.278L908.851 363.416L909.405 363.278L910.651 363.624L911.066 363.347H912.381L913.28 363.555L914.249 363.485L915.771 364.108L919.301 364.039L920.892 364.454L922.415 364.385L924.076 364.662L924.491 364.177L925.667 364.454L926.636 364.039L928.228 363.831H929.612L930.165 363.624L930.373 363.347L930.996 363.278L931.549 362.863H932.103L932.656 362.655L933.487 361.963L934.594 361.479L935.217 360.925L935.424 360.441L936.324 359.679L937.57 358.226L938.538 357.534L938.746 357.119L939.715 356.704L939.784 356.427L940.407 356.358L941.237 355.804L941.998 354.905L943.036 354.351L943.729 354.559L944.559 355.043L944.974 354.905L945.874 354.974L946.981 354.766L947.88 354.974L948.503 355.735L949.126 356.15L949.472 356.565L949.818 357.396V357.949L950.095 358.711L950.787 359.333L950.925 359.61L951.548 360.441L952.309 360.994L952.655 361.063L953.278 362.101L953.97 362.863L954.801 364.247L955.562 365.008L956.461 365.423L956.531 365.769L957.569 366.876L958.537 367.43L958.676 367.776L959.299 367.845L959.645 367.707L960.613 367.914L961.444 367.776L962.343 368.468L963.935 369.16L964.973 369.368L965.319 369.783L965.665 369.714H967.118L968.295 369.506L968.502 369.783L968.987 369.644L969.54 369.783L969.955 370.406L970.717 370.475L970.924 370.613L972.031 370.682L972.654 370.336L973.277 370.129L974.592 370.821L974.938 370.682L975.699 370.752L976.668 371.098L977.291 371.513L977.844 372.066L978.121 372.62L978.398 375.18L978.329 375.803L978.398 376.841L979.228 379.748V380.855L979.021 380.993L979.159 382.17L978.882 383.415L978.675 383.83L978.052 384.176L976.46 384.938L974.038 385.422L972.724 385.768L972.101 386.183L971.685 386.322L970.924 386.944L969.54 388.536V389.297L969.056 389.989L968.987 390.543L969.125 390.75L967.949 392.342L967.049 392.619L966.426 393.172L966.495 393.588L966.288 393.864L965.388 394.349H965.181L964.835 394.833L963.658 395.802L962.413 396.425L959.506 397.394L958.814 397.532L958.191 397.878L957.569 398.362L956.531 400.3L956.461 400.508L955.977 400.992L954.247 402.238L953.486 402.584L952.932 403.068L952.24 403.968L951.479 405.213L951.202 406.667L950.787 407.359L948.849 408.881L947.535 410.334L945.666 411.649L944.836 412.341L943.729 413.102L941.998 413.933H941.583L940.615 414.486L940.268 414.763L939.576 415.663L938.746 416.424L938.538 416.355L937.708 416.701H937.431L937.085 417.254L936.878 417.116L936.116 417.185L935.77 418.015L935.148 418.569L933.487 419.192L932.518 419.815L931.688 420.714L930.926 421.268L930.442 421.475H929.681L928.574 422.029L928.02 422.929L927.743 423.621L927.328 423.967L926.705 424.313L924.698 425.489L923.037 426.735L922.346 427.357H921.93L921.584 427.773L921.654 427.98L921.169 428.049L920.962 428.326L920.546 429.295L919.578 430.541L918.54 431.579L916.533 433.309L916.048 433.516L915.633 433.378L915.079 434.07L915.01 434.485L914.526 435.385L913.349 436.769L911.896 438.222L911.481 438.706L910.443 439.606L909.336 441.198L909.128 441.82L908.713 442.374L908.229 442.72L907.813 442.582L907.606 442.789L907.675 443.412L907.537 443.689L906.845 444.45L904.976 447.356L904.215 448.325L903.592 448.879L902.762 449.432L902.001 449.778L900.34 451.508L899.094 452.339L896.811 454.692L896.465 455.314L896.257 455.937L895.634 456.975L895.011 458.359L894.319 459.466L893.697 459.536L893.558 460.297L893.281 460.505L892.589 460.435L891.69 460.159L890.583 459.536L890.098 459.397L889.683 459.536L888.161 459.674L887.192 459.536L886.5 458.705L885.877 458.428L885.323 458.636L885.254 459.536L884.216 459.674L883.662 459.466L883.178 458.636L882.901 458.359H882.14L881.794 458.705L881.656 459.536L881.102 459.328L880.687 458.775L880.272 458.567L879.58 458.775L878.749 458.844L878.403 458.636L877.85 459.12L876.396 459.259L875.843 459.605V459.951L874.666 460.781L873.974 461.058L873.352 460.781L872.867 460.92L871.622 461.473L870.584 462.096L868.715 463.411L866.847 465.003L865.601 466.248L865.463 466.733L864.632 467.425V467.632L863.94 467.701L863.387 467.909H861.311L859.581 468.878L858.681 469.57L858.197 469.708L857.02 470.262L856.674 470.885L856.052 471.3L855.152 471.646L853.353 473.445L852.453 474.552L851.761 474.898L850.377 476.351L850.169 477.043L849.339 477.597L848.993 477.735L848.232 478.358L846.225 479.465L844.841 480.573L844.218 480.849L843.388 480.919L842.073 480.711L841.727 480.849L840.758 480.988L839.997 481.403L838.405 481.472L837.921 481.611L837.506 482.026L836.883 482.233L836.26 482.787L835.707 482.856L834.046 482.579L833.769 482.441L833.146 481.68L832.869 481.541L831.831 481.611L830.24 481.057L829.34 481.195L828.164 481.68L827.403 481.541L826.019 480.711L825.465 480.642L825.05 480.849L824.289 480.78L823.666 481.057L824.081 480.642L823.597 480.365L823.389 479.673L822.697 478.981L821.659 478.843L820.828 478.912L819.721 479.119L819.029 478.843L818.199 478.912L816.469 479.396L814.254 480.365L813.009 481.126L812.04 481.749L811.971 481.818L811.486 482.51L810.518 482.579L808.995 482.372L808.165 482.095L807.75 481.749L805.95 481.611L803.667 481.887L801.868 482.026L800.414 482.372L799.584 482.441L797.162 482.995L797.231 482.925L795.293 483.341L794.809 483.41L789.065 485.555L785.675 487.769L785.605 487.977L784.706 488.115L784.498 488.323L784.152 488.254L782.284 489.499L781.661 489.569V489.707L778.339 492.198L777.301 493.306L776.886 494.067L776.471 494.413L775.779 494.62L775.71 495.105L775.156 495.52L774.049 495.658L773.911 495.52L772.319 495.105L771.627 494.897H770.658V494.759L769.482 494.69V494.551L767.613 494.62L767.129 494.759L766.022 495.589L764.914 496.627L764.223 497.665H764.084L763.392 499.257L763.115 499.326L762.285 500.295L761.178 500.433L760.001 501.402L758.963 502.786L758.686 502.855L758.479 503.34L757.994 503.962H757.856L756.541 505.762L756.126 506.038L755.918 506.523L755.296 507.076L754.258 508.737H754.05L753.704 509.083L753.496 509.706L753.081 509.844L752.597 510.813L752.112 511.367L751.144 512.958H751.005L750.106 514.481L749.621 515.034L749.068 516.142L748.652 516.626L748.583 517.249L748.099 517.387L747.96 517.941L747.753 517.802L747.338 518.079L747.753 518.148L747.476 518.84H747.338L746.576 520.501H746.369L745.608 522.093L745.192 522.439L744.846 522.577L744.708 523.131L744.085 523.615L743.324 525.276H743.186L742.77 525.899L741.871 528.529H741.732L741.386 529.982L741.248 529.913L740.556 531.227H740.348L739.103 534.48L738.065 535.379L737.373 535.656L737.304 535.795L736.127 536.625L735.643 537.801L735.02 538.078L734.674 538.632L734.397 538.701L733.982 539.047L731.698 539.255L728.446 540.085L727.477 540.5H726.785L726.024 540.154L725.747 539.531L724.917 539.255L724.086 539.462L721.733 539.255L721.318 539.047L718.965 539.67L717.997 539.601L717.166 539.808L716.613 539.255L715.159 539.047V538.909L714.191 538.978L713.083 539.116L711.146 539.601L707.824 540.915L706.717 541.261L706.994 541.4L705.887 541.469L702.772 542.023L697.098 543.683L690.87 546.105L687.825 547.282L687.756 547.42L681.943 549.704L680.144 549.565L675.646 550.05L675.923 549.773L675.715 549.427L675.231 549.289L674.885 549.496L672.947 549.219L659.176 547.559L656.408 547.489L651.564 547.42L646.236 548.389L632.88 553.856L628.59 556.347L627.482 557.039L623.054 560.153L620.493 562.16L618.348 564.167L617.725 564.582L616.618 565.62L616.48 565.897L615.234 567.142L613.227 569.564L613.089 569.772L610.252 572.955L609.698 573.301L609.006 573.44L608.106 573.509L606.861 573.786L605.892 574.201L603.401 575.446L601.117 576.692L598.695 578.214L597.034 579.46L595.443 580.844L593.643 582.505L592.259 583.958L591.014 585.135L589.145 586.726L587.692 587.903L586.793 588.456L585.132 589.217L583.471 589.84L581.326 590.671L579.734 591.639L577.797 593.093L576.551 593.923L574.89 594.753L574.475 595.03L572.953 595.445L571.638 595.653L570.392 595.515L569.492 595.584L568.731 595.376L567.555 595.307L566.309 595.515L563.818 595.307L560.012 594.684L553.369 592.954L552.192 592.816L551.777 592.608L549.909 592.401H547.625L545.48 593.023L544.58 593.369L543.957 593.923L543.196 594.477L542.089 595.515L541.12 595.653L540.359 596.137L539.736 597.175L539.183 598.767L538.975 599.044L538.075 599.874L537.176 600.428L536.691 600.566L535.999 600.359L535.238 599.528L534.269 599.044L533.439 598.905L532.193 598.836L531.363 598.905L529.702 599.251L527.626 600.151L526.519 600.912L525.273 601.189H523.959L523.336 601.327L522.851 601.881L522.505 602.642L521.883 603.334L521.467 603.542L520.568 603.611L519.876 603.957L519.461 604.58L518.561 604.995L516.969 605.41H516.346L515.239 604.995L514.34 604.372H513.509L512.402 604.718L511.364 605.133H510.81L509.634 605.687L508.112 606.933L506.382 608.939L505.897 609.562L505.205 610.185L503.821 611.984L503.198 612.607L502.922 613.299L502.091 613.853H501.468L499.185 614.614L497.87 615.444L497.316 615.652L494.272 615.859L489.082 615.375L486.037 614.199L484.583 613.576L481.539 612.192L480.57 611.638L475.795 610.946L471.781 611.5H471.297L467.491 612.953L464.861 614.614L460.294 618.282L457.042 620.427L456.073 621.188L455.935 621.119L453.858 621.05L452.682 621.188L451.644 621.465L451.021 621.88L449.706 622.088H448.046L443.202 623.264L436.628 626.586L435.866 627.139L430.884 630.322L428.877 631.291L422.234 633.713L421.403 633.921H418.289L416.283 633.852L410.539 634.682L404.519 637.381L403.757 637.865V638.004L402.858 638.419V638.557L400.574 640.426L398.844 641.948L398.36 642.432L396.63 643.817L394.415 645.201L394.277 645.616L393.17 645.823L391.301 646.723L390.332 647.415L389.64 647.83L388.948 648.522L387.564 649.007L387.011 649.353L385.765 650.114L384.035 651.705L383.412 652.328L382.79 652.813L380.921 654.819L380.644 655.235L379.883 656.134L379.399 656.965L379.053 657.795L378.845 658.556L378.361 659.317L377.323 660.563L376.285 661.463L375.662 661.601L374.832 661.117L373.932 660.978L372.894 661.117L371.579 661.947L371.164 662.085L370.264 662.916L369.434 664.092L368.534 667.068L367.842 667.76L366.251 668.59L365.628 669.282L364.452 670.251L363.829 670.735L363.69 671.151L362.791 671.981L360.991 673.711L360.023 674.957L359.261 675.51V675.649L358.016 676.548L356.839 678.002L355.663 679.109H355.04V678.901H354.002V678.763L350.819 678.417L349.297 678.763L345.145 679.386L340.024 680.147L334.003 682.223L332.066 683.122L331.166 683.814L328.606 685.406L327.083 686.582L325.561 687.897L323.762 689.835L323.485 690.042L321.755 692.049L320.924 693.087L320.717 693.502L319.748 694.679L319.402 694.748L319.679 694.402L319.402 693.918L319.817 693.641L319.471 693.156L319.54 692.81L318.71 692.257L319.125 691.842L319.056 691.565L319.54 691.288L319.264 690.873L318.502 690.734L318.226 689.973L317.741 689.696V689.143L317.534 688.797L316.911 688.589L317.603 687.482L317.534 686.998L316.911 686.236L317.741 685.544V684.852L317.257 685.129L317.049 684.783L317.534 684.022L316.911 683.814L316.842 683.538L317.534 682.569L317.603 682.084L316.842 681.877L316.634 680.7L316.772 680.424L317.257 680.285L317.741 680.008L317.81 679.662L317.118 678.763L317.188 678.278L316.496 677.379L316.426 676.341L316.565 675.58V674.818L317.118 674.334L317.257 673.434L317.049 673.088L317.118 672.742L316.98 672.189L316.496 672.12L315.734 670.735L314.835 670.597L314.42 670.32L314.074 669.698L313.728 669.559L313.589 669.144L313.52 668.037L313.451 667.76L312.759 667.414L311.721 667.483L311.029 666.929L311.098 666.376L310.96 665.615L310.544 665.545L310.198 665.13L309.16 664.715L309.022 664.092L308.468 663.4L308.399 663.123L308.884 662.224L308.745 661.878L308.33 662.224L308.122 661.947L308.053 661.532L308.33 660.84L308.192 660.079L308.607 659.663L308.745 659.041L308.468 658.625L308.745 658.21L308.607 657.172L308.814 656.895L308.676 656.273L308.468 655.927L308.814 655.304L309.091 655.027L308.745 654.197L308.192 653.851L308.053 653.089L307.569 652.743L306.808 652.536L306.185 652.051L305.631 651.844L305.285 651.982L304.524 652.743H303.832L302.31 651.775L301.964 650.806L301.479 650.114L300.51 649.491L300.095 648.868L298.919 647.553L297.535 646.446L296.635 645.823L296.151 644.785L295.043 643.886L294.628 643.747L293.521 643.886L292.483 643.609L292.275 642.986L291.791 642.502L292.068 642.225V641.187L292.691 640.633L292.621 640.01L292.898 639.734L292.552 638.28L292.068 638.073L292.137 637.796L291.929 637.381L292.068 636.481L292.552 635.512L292.691 634.336V633.99L291.653 633.921L289.784 632.052L289.369 631.43L289.023 631.291L289.507 631.153L289.092 630.945L288.954 630.461L289.369 629.284L289.023 629.146L288.608 628.454L288.746 628.316L288.193 628.039L288.677 627.624L288.539 627.278H288.262L288.4 626.309L288.469 624.648L288.123 620.219V615.721L288.4 612.676L289.231 612.815L290.13 612.261L290.615 612.192L290.822 611.777L291.445 611.292H291.999L293.037 611.638L293.175 611.431L295.113 610.116L295.874 609.355L297.05 607.971L297.465 607.348L297.673 606.587L297.535 606.033L298.78 606.379L301.271 606.794L302.033 606.448H303.348L303.555 606.587L304.178 607.555L304.455 607.625L305.493 607.348L305.77 607.694L306.185 607.555L306.392 607.209L308.745 606.31L309.091 605.964L310.337 606.379V606.794L310.821 606.863L311.375 607.14H312.067L312.966 607.348L313.451 607.694L313.52 608.109L314.143 607.971L314.627 607.763L315.25 607.971H315.734V608.317L316.15 609.009L316.219 609.424L316.426 609.631V610.254L316.98 610.323L316.842 610.669L317.257 610.946V611.846H317.88L318.364 612.123L318.502 612.676H318.779L318.987 613.022L320.094 613.645L320.44 613.714L321.201 614.406L321.478 614.891L322.239 615.513L322.862 615.444L323.623 614.822L323.9 614.891L324.177 614.06L324.384 613.922L325.215 614.268L325.838 613.438L326.114 612.745H326.46L326.668 612.469L327.914 611.846L328.329 611.292L329.228 611.085H329.713L330.474 610.462L330.889 609.977H331.305L331.927 609.355L332.55 609.147L333.173 608.663L333.311 607.901L333.727 607.694H334.073L334.903 607.348H335.872L336.425 606.933L337.117 606.863L337.74 606.587L339.055 606.863L339.885 607.279L340.162 607.071L340.716 607.279L341.754 607.14L342.307 607.279L343.207 607.14L343.83 607.209L344.591 607.071L345.421 607.486V607.763L345.975 607.002L346.113 606.448L346.39 606.102L346.875 605.895L347.151 605.064L347.567 604.787L348.12 604.718L348.466 604.165L348.743 603.196L349.158 602.988L349.989 602.919L350.75 602.504L350.888 602.227L350.611 601.604L350.196 601.466L349.85 600.635L348.951 600.013L348.812 598.905L348.051 598.698H347.428L347.29 598.836L346.39 598.213V597.729L346.113 597.798L346.044 597.314L346.183 596.691L346.113 595.93H345.837L345.283 595.445L345.145 594.753L345.283 594.338L345.006 594.131V593.577L344.66 593.093L344.868 592.262L344.453 592.055L344.66 591.847L344.937 590.809L345.906 590.463L347.013 590.809L347.151 590.186L346.667 589.771L346.598 588.733L346.044 588.11L345.214 586.865L345.421 586.726L346.113 586.588L346.39 585.757L346.667 584.996L346.529 584.443V583.958L347.013 582.989L346.944 582.367L347.013 581.328L347.428 580.567V580.083L348.051 579.46L348.674 579.183L348.535 578.284L348.812 577.453L349.435 577.246L349.573 577.038L349.089 576.346L348.812 575.377L348.674 574.685L348.397 574.132L348.605 573.024L348.951 572.748L349.573 572.678L349.85 571.986L349.919 570.602L349.643 569.772L350.058 569.218L349.573 567.488L348.881 567.073L348.535 565.966L348.743 565.205V564.374L349.297 563.821L348.812 562.99L347.982 562.437L347.774 562.229L346.598 561.26L345.629 561.053L344.868 560.499L343.968 559.461L341.615 557.939L341.269 557.593L340.854 556.693L340.093 555.655L339.609 555.24L338.501 554.756L337.74 553.925L337.256 553.648L336.218 553.994L334.834 553.856L334.28 553.648L333.035 552.541L332.481 551.711L332.412 551.019L332.204 550.327L331.651 549.773L331.443 549.289L330.059 548.181L329.505 546.867L327.36 544.721L326.806 544.791L326.599 545.067L325.146 546.175L324.592 546.936L324.315 547.835V548.527L324.177 550.88L323.9 552.264L323.346 553.441L321.686 556.209L321.201 556.624L320.717 557.178L320.094 558.285L319.679 558.631L319.125 558.908L318.018 559.254L317.603 560.084L316.634 561.191L316.426 561.745H315.527L315.181 561.952L314.696 562.644L314.004 563.198L313.105 563.544L312.205 563.267L311.582 563.406L310.821 563.06L309.852 563.682L309.23 564.513L308.192 564.582L307.846 564.513L306.116 564.582L305.562 565.343L305.216 565.412L305.008 565.136L304.662 565.066L304.386 565.966L304.178 566.174L303.278 566.381L303.071 566.589L302.863 567.419L302.932 567.765L302.379 568.18L301.133 568.25L300.579 567.765L299.887 567.973L299.68 568.319L300.164 570.256L299.887 570.533L298.573 570.602L297.881 570.256L296.981 570.049L296.566 570.187L296.081 570.533L295.666 571.364L295.735 572.194L295.528 572.955L295.113 573.578L294.282 574.339L293.867 574.478L292.691 574.547L292.137 574.478L291.514 574.201L290.199 573.301L289.992 573.44L289.577 574.339L289.161 574.616L288.885 575.031L287.639 575.239L287.57 574.962L287.708 574.478L287.57 574.132L286.047 573.647L284.802 573.716V573.44L285.079 572.748L285.009 572.402L284.456 572.056L283.971 571.986L283.487 572.471L283.003 572.748H280.996L280.511 572.609L279.958 571.986L279.75 571.294L279.681 570.118L279.543 569.772L278.92 569.703L278.712 570.118L278.643 570.81L278.089 570.948L277.882 569.98L277.536 569.703L276.498 569.772V569.357L275.667 569.08L275.806 568.872L275.944 568.111L275.737 567.834L275.875 567.142L276.083 567.004L276.29 566.174H275.806L274.768 565.343L274.837 565.136L274.145 564.513L273.868 564.028L273.176 563.336L273.315 562.852L273.522 560.499L273.868 560.638L274.076 560.499L274.906 560.707L274.768 559.876L274.906 559.392L274.975 558.146L274.837 557.316L274.699 557.178L275.114 556.07L274.768 555.378L274.145 554.963L274.007 554.617L274.214 554.34L273.799 553.856L274.007 553.718L274.214 552.956L274.56 552.887L275.045 551.78L275.321 550.95L275.944 550.258L276.083 549.289L276.013 548.597H276.221L276.636 548.181L277.121 547.905L277.467 546.936L278.366 546.105L279.404 544.929L279.473 544.583L279.335 543.891V542.991L278.989 542.576H278.643Z" fill="white"/>
<circle id="680" cx="470" cy="419" fill="#5CE50D"/>
<circle id="681" cx="736" cy="389" fill="#E52A0D"/>
<circle id="682" cx="88" cy="624" fill="#E52A0D"/>
<circle id="683" cx="861" cy="419" fill="#E52A0D"/>
</svg>
