<svg width="1000" height="1000" viewBox="0 0 1000 1000" fill="none" xmlns="http://www.w3.org/2000/svg">
<path d="M419.641 166.579C419.26 169.245 418.499 170.578 416.69 171.339C413.738 172.672 407.645 172.767 402.408 171.53C398.79 170.673 398.41 170.863 395.077 174.1C390.603 178.385 391.364 180.67 397.553 181.527C401.361 182.098 401.932 182.574 403.17 185.716C403.932 187.62 404.503 189.238 404.408 189.429C404.217 189.524 402.313 188.953 400.028 188.191C394.601 186.287 391.555 186.382 383.557 188.762C379.749 189.905 376.607 190.952 376.512 190.952C376.416 191.047 376.702 192.761 377.273 194.665C378.035 197.522 377.845 198.95 375.75 203.805C374.417 206.947 373.37 210.47 373.37 211.517C373.37 212.565 373.275 213.421 373.179 213.421C372.989 213.421 366.515 214.659 358.612 216.278C350.805 217.801 343.284 219.134 342.046 219.134C339 219.134 332.335 224.751 329.003 229.893C326.622 233.796 325.956 234.177 321.1 234.939C316.245 235.7 315.673 236.081 313.674 239.604C311.865 242.746 311.484 244.84 311.484 251.981C311.484 260.264 311.579 260.74 314.817 265.501C316.816 268.547 318.149 271.594 318.149 273.403C318.149 275.021 318.625 278.258 319.196 280.639C320.053 283.781 320.815 285.018 322.528 285.399L324.813 285.97L322.148 288.541C320.719 289.874 318.815 292.064 317.863 293.301L316.34 295.586L310.342 293.873C306.248 292.73 299.107 291.969 288.158 291.492C278.161 291.016 268.164 289.969 261.976 288.731C249.694 286.256 240.649 286.161 231.414 288.541C217.799 291.969 217.989 291.969 213.8 287.875C202.661 276.926 198.757 271.403 195.711 262.168C193.235 254.742 192.093 252.743 189.046 250.267C187.047 248.553 184.666 246.554 183.714 245.792C182.572 244.84 181.429 241.413 180.477 236.271L178.859 228.179L169.814 219.61C164.768 214.85 157.246 208.947 153.057 206.376C144.584 201.235 123.923 191.047 119.925 190.095C118.306 189.715 113.736 190.476 107.071 192.38C98.5979 194.761 94.98 195.332 87.0777 195.332C77.9376 195.332 77.0808 195.522 69.4641 198.95C65.1797 200.949 58.8007 203.139 55.4684 203.805C49.5655 204.948 48.899 205.424 31.1902 220.276C21.1933 228.75 12.9102 235.891 12.815 236.176C12.6246 236.462 13.9575 237.7 15.7665 238.937C18.4323 240.746 19.0035 241.889 19.4796 245.411C19.67 247.792 19.3844 251.6 18.6227 253.885L17.385 258.169L21.955 263.12C29.0957 271.118 32.3327 275.973 32.9992 280.353C33.38 282.543 34.9034 288.922 36.4267 294.539C39.9494 307.678 39.9494 310.534 36.3315 315.771C33.9513 319.198 33.1896 321.674 32.428 328.338C31.4759 335.574 30.9998 337.097 27.7627 341.382C25.3825 344.619 23.4783 348.808 22.0502 353.854C20.1461 360.519 20.0508 362.137 21.0029 367.85C21.5742 371.372 22.0502 377.656 22.0502 381.845C22.0502 386.32 22.4311 389.748 23.0975 390.129C23.6688 390.414 25.8586 393.366 27.9532 396.603L31.7615 402.41L31.1902 397.269C30.619 392.604 30.619 392.223 32.2375 392.985C33.1896 393.366 38.7117 393.937 44.4242 394.318C55.9445 394.889 70.6066 398.983 70.6066 401.458C70.6066 402.22 69.7497 404.981 68.7024 407.647C66.227 413.931 66.227 419.358 68.7976 422.785C70.7018 425.356 70.7018 425.641 69.1785 428.022C67.7503 430.211 66.8935 430.497 61.9426 430.497C56.5157 430.497 56.3253 430.402 56.3253 428.022C56.3253 426.689 56.8013 424.784 57.3726 423.737C59.6576 419.453 57.3726 420.31 51.0888 426.022C46.3284 430.307 43.6626 433.734 41.7584 437.733L39.1878 443.35L42.9009 452.871L46.7092 462.392V456.013L46.8044 449.634L49.9463 450.586C51.5649 451.062 55.0876 451.919 57.6582 452.395C68.8928 454.68 69.1785 454.775 71.8443 460.773C73.1772 463.725 74.5101 467.247 74.891 468.58C75.4622 470.675 78.3185 475.911 80.9843 480.005C81.5556 480.862 84.1262 481.624 87.4585 481.91C92.5046 482.386 92.9806 482.576 93.2662 484.766C93.4566 486.099 95.2656 488.669 97.4554 490.574L101.264 494.096L98.6931 501.999C96.7889 507.711 94.7896 511.424 91.9333 514.757C88.4106 518.946 87.8393 520.374 86.9825 526.182C86.5064 529.895 86.4112 535.226 86.8873 538.083C88.2202 547.413 87.7441 555.696 85.3639 567.597C82.4124 582.164 82.222 594.637 84.8879 609.965C85.9352 616.058 86.792 623.39 86.792 626.151C86.792 630.245 87.1729 631.387 88.5058 631.673C96.0273 633.767 101.93 634.624 109.737 634.624C118.782 634.719 119.068 634.624 126.875 630.625C131.445 628.245 136.777 626.246 139.252 625.96C147.535 625.008 151.534 618.534 151.534 606.062C151.534 601.968 151.629 601.777 155.723 599.968C158.675 598.73 160.483 597.112 162.102 594.351C163.816 591.304 165.53 589.876 170.29 587.686C173.622 586.068 178.859 582.831 182.001 580.45L187.713 576.071L201.328 574.357C213.039 572.929 215.324 572.834 218.656 573.976C220.75 574.738 226.749 575.69 231.985 576.166C253.788 578.165 260.452 576.833 262.357 569.978C263.214 567.026 264.451 565.503 268.164 563.122C271.497 560.933 273.496 560.171 274.829 560.647C275.876 561.028 280.827 561.314 285.778 561.409C293.585 561.504 295.489 561.885 299.678 563.979C302.249 565.408 306.057 566.836 308.057 567.121C311.103 567.788 312.055 567.407 315.293 564.836C317.482 563.122 320.053 561.885 321.672 561.885C324.147 561.885 324.813 562.646 328.431 569.978C330.621 574.452 332.43 579.213 332.43 580.45C332.43 587.02 339.19 590.828 358.517 595.208C365.372 596.731 375.274 599.587 380.51 601.682L389.936 605.395L391.079 609.965C392.412 615.202 392.697 615.487 397.077 617.011C402.599 618.82 408.216 618.343 412.596 615.582L416.595 613.012L421.736 614.63C426.02 616.058 427.544 616.154 431.257 615.202C435.541 614.059 435.922 614.154 440.968 617.106C443.824 618.82 448.394 621.009 451.155 621.961C453.916 622.818 457.725 624.722 459.724 626.055C462.295 627.864 464.58 628.531 467.817 628.531H472.387V634.434C472.387 639.575 473.053 641.67 476.481 648.525C480.003 655.665 481.051 656.903 484.764 658.712C487.144 659.95 489.81 661.759 490.667 662.901C492.095 664.615 493.237 664.805 499.997 664.615L507.614 664.424L509.804 667.661C511.422 670.137 512.946 670.994 516.183 671.66C521.8 672.803 523.514 674.421 526.846 681.848C531.13 691.368 535.129 696.986 538.557 698.414C540.366 699.176 542.079 700.889 542.746 702.603C543.412 704.126 544.84 705.745 545.983 706.031C547.125 706.316 559.503 706.602 573.498 706.602H598.919L600.347 711.553C601.109 714.314 601.966 720.407 602.346 725.167C602.632 729.833 603.489 736.688 604.251 740.401C605.488 746.494 605.393 747.922 603.489 757.919C601.394 768.678 601.394 768.773 603.299 770.011C608.916 773.724 608.821 773.533 609.106 782.293C609.297 786.863 609.677 791.813 609.963 793.337C610.534 795.812 610.915 796.098 614.628 796.098C618.437 796.098 619.008 796.479 623.768 802.001C630.243 809.808 633.67 812.093 640.811 813.807C646.238 815.044 647.38 814.949 653.569 813.426C662.994 811.046 668.612 812.093 671.468 816.663C672.515 818.472 674.8 820.662 676.419 821.423C681.465 823.994 683.655 826.565 685.178 831.896C686.035 834.753 686.987 837.038 687.463 837.038C687.939 837.038 691.747 833.61 695.936 829.326L703.648 821.709L708.409 824.089C711.36 825.612 714.788 826.565 717.454 826.565C721.357 826.565 722.119 826.089 730.021 818.758C734.686 814.378 740.494 809.808 743.065 808.475C747.254 806.19 747.539 805.904 747.539 802.191C747.539 800.001 747.825 796.288 748.111 793.908C748.682 789.814 748.872 789.529 752.966 788.386L757.156 787.243L752.395 782.388C749.444 779.436 747.349 776.294 746.968 774.39L746.397 771.344L750.681 771.915C754.299 772.486 756.489 772.01 763.915 768.963C768.771 767.059 774.96 764.203 777.625 762.68C780.291 761.156 783.719 759.919 785.242 759.919C786.765 759.919 790.383 758.967 793.24 757.824C796.191 756.682 801.618 755.539 805.617 755.158C813.329 754.682 813.138 754.777 811.996 748.494C811.52 746.399 812.091 745.828 817.327 743.448C820.564 742.019 824.373 740.877 825.896 740.877C827.515 740.877 828.467 740.401 828.467 739.449C828.467 738.687 830.276 737.259 832.561 736.307C835.607 734.974 837.892 732.784 841.034 728.405C850.079 715.551 850.365 714.79 850.365 703.079V692.511L855.125 681.848C858.838 673.469 859.886 670.137 859.886 666.138C859.886 663.377 860.171 659.188 860.457 656.713C861.123 652.333 861.123 652.333 869.311 647.953C877.023 643.764 877.88 643.479 883.973 643.669C887.496 643.764 892.637 643.288 895.398 642.431C898.064 641.67 903.206 640.527 906.633 639.956L913.012 638.813L915.011 632.053C916.154 628.245 917.011 624.151 917.011 623.009C917.011 620.152 921.39 613.964 924.723 611.964C927.103 610.536 927.388 610.536 928.721 612.631C929.578 613.964 932.244 615.487 935.672 616.534C938.813 617.487 943.479 619.486 946.24 621.009C951.857 624.151 963.092 626.817 969.375 626.627C976.135 626.436 979.182 624.151 980.134 618.534C980.705 615.392 980.515 612.536 979.848 610.156C979.087 607.394 979.087 605.3 979.848 601.587C980.61 598.35 980.705 595.493 980.134 593.304C978.992 588.924 980.42 582.069 983.085 579.022C987.751 573.786 987.751 573.691 985.656 569.787C983.562 565.503 980.42 563.789 975.088 563.789C972.422 563.789 968.709 562.456 962.52 559.124C957.665 556.553 952.333 554.173 950.715 553.792C949.096 553.506 946.716 552.174 945.478 550.841C942.812 547.984 938.242 546.651 931.102 546.651C926.341 546.651 925.484 546.937 923.39 549.508C922.057 551.031 920.343 552.364 919.677 552.364C914.726 552.364 897.303 543.129 876.547 529.609C869.787 525.229 859.219 519.231 853.221 516.375C842.558 511.234 835.512 506.378 822.564 494.953L816.28 489.336L810.948 491.05L805.712 492.668L788.479 482.29C772.008 472.389 771.056 471.532 765.058 464.01C759.345 456.87 757.917 455.727 750.491 451.919C746.016 449.634 740.78 446.206 738.971 444.302C735.353 440.399 707.742 421.928 694.984 414.788C687.653 410.694 686.701 409.837 684.416 405.172C682.702 401.649 681.846 398.412 681.846 395.27C681.846 391.747 681.179 389.557 678.989 386.035C677.371 383.464 675.847 379.656 675.562 377.561C675.276 375.562 674.134 371.849 673.086 369.373C671.373 365.565 670.516 364.708 666.231 363.089C661.852 361.471 661.376 360.995 661.09 358.138C660.9 356.329 659.567 353.188 658.139 351.093C652.426 342.715 648.523 333.67 648.427 328.433C648.427 325.672 647.666 321.293 646.809 318.817C643.191 308.63 627.482 294.349 619.865 294.349C617.961 294.349 614.533 293.682 612.343 292.921C610.154 292.159 608.154 291.492 608.059 291.492C607.869 291.492 607.488 293.397 607.202 295.682C606.25 301.489 603.203 303.584 597.681 301.965C595.491 301.394 592.159 299.871 590.255 298.538C585.971 295.777 585.495 295.777 583.305 298.157C581.686 299.871 581.496 299.871 578.639 298.443C573.689 295.777 565.977 295.301 560.074 297.3C550.172 300.728 541.984 297.776 525.894 285.018C522.371 282.162 521.99 281.496 522.466 278.83C522.847 277.116 523.895 273.974 524.942 271.689L526.846 267.595L523.895 260.931C520.562 253.409 520.372 252.267 522.371 250.553C523.609 249.505 524.561 249.696 527.703 251.41C529.797 252.647 531.797 253.409 531.987 253.123C532.273 252.838 532.178 251.124 531.892 249.315C531.321 246.554 530.083 245.126 523.99 240.746C519.896 237.89 514.945 235.034 512.946 234.367L509.137 233.13L511.232 231.416C512.374 230.559 513.802 229.607 514.279 229.417C514.85 229.226 514.755 227.798 514.088 225.513C513.136 222.371 513.231 221.419 514.659 218.753C516.183 215.897 516.183 215.326 514.945 212.85C512.374 207.804 506.376 204.186 497.427 201.996C492.857 200.949 491.904 201.044 487.144 203.044L481.908 205.234L473.624 202.377L465.246 199.616L464.96 195.713C464.77 192.571 463.913 191.047 460.581 187.81C456.963 184.288 456.106 183.907 454.488 184.764C453.44 185.335 450.679 185.811 448.394 185.811C444.395 185.811 443.919 185.43 432.875 174.386C426.591 168.102 421.165 162.961 420.879 162.961C420.498 162.961 420.022 164.579 419.641 166.579Z" fill="white"/>
<circle id="700" cx="404" cy="585" fill="#5CE50D"/>
<circle id="1104" cx="30" cy="384" fill="#E52A0D"/>
<circle id="701" cx="765" cy="491" fill="#E52A0D"/>
<circle id="703" cx="673" cy="659" fill="#E52A0D"/>
</svg>
