<svg width="1000" height="1000" viewBox="0 0 1000 1000" fill="none" xmlns="http://www.w3.org/2000/svg">
<path d="M532.896 20.4156C530.357 22.296 526.221 23.4241 511.836 26.2446C506.759 27.1848 501.965 28.501 501.306 29.0651C499.614 30.4754 486.546 31.3215 484.384 30.0993C482.879 29.2531 481.657 30.0053 476.486 34.9881C470.657 40.629 469.999 41.0051 464.64 41.6632C459.093 42.2273 458.623 42.5093 452.888 48.4324C449.598 51.817 443.675 57.1759 439.82 60.2784L432.769 66.1074L425.718 66.2014C421.769 66.2954 417.162 66.9535 415.188 67.7997C411.991 69.1159 411.709 69.586 410.205 76.3551L408.607 83.5003L400.521 88.3892C396.009 91.0216 392.06 93.6541 391.684 94.2181C391.308 94.7822 390.932 98.4489 390.932 102.398V109.543L381.06 111.517L371.094 113.491L356.052 127.218L368.744 133.329L381.342 139.44L375.231 153.072C366.958 171.405 361.505 192.089 360 211.456L358.872 225.182L364.137 234.208L369.308 243.233V255.644C369.308 267.678 369.214 268.148 366.394 273.037L363.573 278.019L364.795 286.293L366.112 294.566L376.453 295.13L378.052 301.335L379.65 307.634L375.701 311.865C373.445 314.216 369.214 318.728 366.3 321.831L360.847 327.472L352.855 354.924C348.437 370.061 344.864 382.659 344.864 382.941C344.864 383.129 341.479 384.916 337.343 386.796L329.915 390.18L330.479 394.223C331.138 399.018 331.232 399.018 318.445 399.864L309.42 400.522L301.993 411.334C295.506 420.736 294.283 423.274 292.121 431.171C289.3 441.607 290.993 440.667 276.514 439.539L268.899 438.881L263.258 443.581C257.993 447.906 257.523 448.752 255.267 455.992C253.386 462.009 252.54 467.462 251.788 479.308L250.754 494.82L253.668 507.042C256.301 518.136 257.147 520.299 263.446 531.016C269.369 540.982 271.155 545.213 275.386 558.563L280.369 574.452L288.83 578.776C294.659 581.785 298.984 584.888 302.557 588.554C306.693 592.785 308.856 594.195 313.275 595.605C318.727 597.204 319.104 597.58 327.847 608.58C332.736 614.785 337.061 620.332 337.437 620.802C337.813 621.366 339.505 631.519 341.103 643.365C342.608 655.306 344.112 665.929 344.394 667.057C344.676 668.374 359.248 679.938 386.889 700.809C410.111 718.202 429.102 732.587 429.196 732.681C429.29 732.681 440.948 788.432 454.957 856.406C468.965 924.285 480.811 980.225 481.093 980.601C481.469 980.977 489.931 978.438 499.99 974.866C513.811 969.977 521.52 967.815 531.298 966.216L544.272 963.96L579.622 920.525L582.63 901.345C584.229 890.815 585.545 881.226 585.545 880.192C585.545 879.063 582.16 867.123 578.024 853.679L570.502 829.235L571.066 819.645L571.724 810.15L580.562 800.372L589.399 790.688L612.339 784.671L616.852 778.466C619.391 774.988 622.681 770.193 624.185 767.749C625.69 765.304 628.886 761.732 631.331 759.945C635.185 757.125 636.501 756.655 640.168 756.843L644.587 757.125L662.45 736.441L686.8 723.843C708.424 712.749 712.09 710.587 718.577 704.664C724.03 699.681 727.885 697.049 733.526 694.604L741.047 691.314L743.868 685.015L746.594 678.715L739.261 667.622L731.928 656.622L733.056 651.357C733.62 648.536 734.372 645.152 734.748 643.93C735.218 641.861 735.124 641.861 733.15 642.895C730.988 644.024 730.988 643.93 731.552 640.451C731.928 638.477 733.432 634.998 735.03 632.742C737.569 629.169 737.945 627.665 738.509 620.049C738.979 612.81 738.791 611.212 737.569 610.084C735.406 608.297 730.423 609.614 729.201 612.34C727.227 616.665 725.817 615.819 724.5 609.708C723.372 604.255 723.09 603.879 719.988 603.033C716.979 602.186 715.381 600.964 715.287 599.554C715.287 599.272 718.013 599.554 721.304 600.118C726.193 601.058 727.697 601.058 729.765 599.93C731.646 598.896 732.68 598.896 734.184 599.742C735.312 600.306 738.509 600.776 741.423 600.87C746.312 600.87 746.594 600.776 747.816 597.768C749.415 594.007 749.133 593.443 744.714 592.597C742.74 592.315 738.979 590.622 736.346 588.93C730.329 584.888 723.654 581.503 723.09 582.161C722.808 582.349 723.748 584.229 725.065 586.204C726.381 588.084 727.509 590.152 727.509 590.622C727.509 591.093 723.56 591.281 718.107 590.905C706.731 590.34 703.253 588.554 699.68 581.691C697.612 577.554 697.518 576.99 698.928 576.426C699.774 576.144 703.253 576.52 706.637 577.272C710.21 578.212 713.595 578.494 714.723 578.024C716.321 577.46 715.287 576.896 709.646 575.204C705.133 573.888 701.561 572.101 699.68 570.315C697.424 568.153 696.202 567.683 694.603 568.153C692.535 568.811 692.441 568.623 693.005 565.05C693.381 562.982 693.193 560.067 692.629 558.469C691.877 556.119 691.971 554.99 693.569 551.794C694.697 549.726 695.543 547.093 695.543 545.965C695.543 543.802 690.937 534.777 689.903 534.777C689.526 534.777 686.612 533.085 683.603 531.016L677.963 527.256L673.356 528.854C670.817 529.7 668.655 530.452 668.467 530.546C668.373 530.64 668.655 531.957 669.219 533.367C671.757 540.042 666.493 545.307 654.741 547.751C648.63 548.973 648.159 548.973 645.809 547.281C644.493 546.247 642.707 544.273 641.954 542.956C640.638 540.606 640.732 540.324 644.211 536.751C647.407 533.461 647.971 532.239 648.253 528.008C648.818 520.863 647.971 520.016 641.672 521.333C638.852 521.897 633.775 523.495 630.39 524.811C624.938 527.068 623.903 527.162 619.297 526.316C608.203 524.059 602.656 520.957 590.152 509.675C575.673 496.701 573.229 493.598 569.562 484.478C567.964 480.53 565.707 475.265 564.391 472.726C561.195 466.521 561.195 459.282 564.297 453.171C565.519 450.727 567.118 446.966 567.776 444.71C568.622 441.607 569.938 439.915 572.947 437.846C575.203 436.342 577.835 433.898 578.87 432.394C580.468 430.137 581.596 429.667 586.015 429.291C588.835 429.009 591.938 428.163 592.784 427.411C593.724 426.565 595.981 425.624 597.767 425.248C601.716 424.402 607.262 420.548 609.613 417.069C610.647 415.565 613.844 413.402 617.04 411.992C629.638 406.445 632.177 404.941 633.963 402.214C634.997 400.71 636.595 399.112 637.536 398.83C638.382 398.548 639.792 397.044 640.544 395.539C641.39 393.941 643.083 392.625 644.587 392.249C650.228 390.839 652.296 389.146 652.296 385.856C652.296 383.317 653.142 382.001 656.339 378.993C658.501 377.018 661.604 374.856 663.108 374.198C664.706 373.446 668.185 369.873 671.381 365.736C675.518 360.189 676.74 357.839 676.74 355.206C676.834 350.788 678.245 348.625 683.98 344.113C688.022 340.822 688.868 339.694 689.432 336.215C690.655 328.13 691.031 327.096 692.911 326.438C693.945 326.156 695.355 324.557 696.014 322.865C696.766 321.173 697.894 319.292 698.646 318.634C699.398 318.07 700.338 316.472 700.62 315.25C701.09 313.557 702.031 312.805 704.475 312.335C707.39 311.865 707.672 311.583 706.637 310.267C705.979 309.515 703.253 307.916 700.62 306.694C696.954 305.096 695.261 303.592 693.381 300.489C691.313 296.917 691.125 295.694 691.501 289.865C691.783 286.199 692.535 282.438 693.193 281.404C695.355 277.925 695.261 275.857 692.911 272.66C691.031 270.028 690.655 268.712 691.031 264.857C691.501 260.344 691.407 260.156 686.424 254.703C682.287 250.097 680.783 249.062 677.398 248.498C670.253 247.37 670.159 247.37 670.159 242.857C670.159 239.097 669.783 238.439 666.681 236.37C663.484 234.114 663.014 234.114 661.04 235.336C659.911 236.088 657.373 236.746 655.399 236.652C652.108 236.652 651.356 236.088 645.339 228.567C640.544 222.644 638.1 218.507 635.937 212.866C634.339 208.636 631.801 203.653 630.296 201.678L627.664 198.2L628.04 185.32L628.51 172.345L633.211 162.004L638.006 151.662L642.707 151.192C645.245 150.91 648.065 150.158 648.912 149.406C649.758 148.653 654.741 146.961 659.911 145.457C665.176 144.047 669.595 142.73 669.689 142.542C669.783 142.354 672.039 138.03 674.672 132.859C682.945 116.312 701.843 92.1498 705.321 93.466C706.073 93.7481 707.484 92.8079 708.612 91.4917C710.398 89.0473 710.492 88.7652 708.988 85.5687C708.142 83.5944 707.296 80.5858 707.013 78.7996C706.825 77.0133 705.791 74.3808 704.757 72.8765C703.535 71.0902 703.065 69.492 703.535 67.7056C703.911 65.6373 703.441 64.5091 700.996 62.1587L697.894 59.1502L691.031 62.3468C685.578 64.9792 683.886 66.2954 682.663 69.0219C680.031 74.4748 667.339 81.432 655.399 84.0645L647.783 85.6627L643.929 92.4318C641.766 96.0985 640.074 99.7651 640.074 100.611C640.074 101.645 638.382 102.304 633.587 103.15C624.279 104.654 620.331 104.466 616.758 102.304C615.066 101.269 613.091 99.0129 612.433 97.4147C611.211 94.5002 611.023 94.4062 605.758 94.6882C600.117 94.9703 598.707 94.1242 598.707 90.7396C598.707 88.3892 603.69 86.5089 611.775 85.7567C615.442 85.3807 618.45 84.8165 618.45 84.4405C618.45 82.8422 611.117 77.2012 607.074 75.697C602.186 73.8167 600.963 71.9364 599.177 63.3809C597.673 56.6118 598.143 55.2955 601.622 55.2955C603.69 55.2955 604.348 54.8255 604.348 53.4152C604.348 52.3811 603.784 51.3469 603.22 51.1588C602.562 50.9708 599.929 50.2187 597.391 49.5606C593.254 48.5264 592.972 48.2443 594.57 47.1162C595.51 46.4581 597.391 45.8939 598.895 45.8939C601.904 45.8939 609.049 43.2615 609.049 42.1333C609.049 40.8171 607.357 40.065 592.596 34.518L578.494 29.2531L574.545 31.0394C571.16 32.5437 569.938 32.6377 566.836 31.7916C563.639 30.9454 562.887 30.2873 562.041 27.2788C561.571 25.3984 561.101 23.2361 561.101 22.672C561.101 22.0139 560.16 21.2618 559.032 21.0737C552.263 19.6635 549.537 19.3815 542.768 19.0994C536.656 18.8173 534.776 19.0994 532.896 20.4156Z" fill="white"/>
<path d="M669.595 493.786C668.749 495.949 663.954 496.607 661.51 494.914C658.971 493.128 653.424 493.034 651.262 494.632C647.501 497.453 646.467 509.205 649.476 515.034C651.262 518.512 653.236 520.017 653.236 517.854C653.236 516.256 658.501 516.82 660.099 518.606C661.04 519.547 661.698 521.897 661.698 523.683C661.698 525.564 662.262 527.538 663.014 528.102C664.142 529.042 664.706 528.76 666.022 526.88C668.185 523.401 675.8 518.418 675.8 520.299C675.8 522.649 677.492 520.863 678.15 517.76C678.715 515.504 679.749 514.47 683.039 512.966L687.176 511.179L686.894 506.29C686.612 501.684 686.424 501.402 683.791 500.931C680.313 500.367 677.586 498.487 675.424 495.008C673.544 492.282 670.441 491.624 669.595 493.786Z" fill="white"/>
<circle id="692" cx="601" cy="91" fill="#5CE50D"/>
<circle id="1645" cx="657" cy="246" fill="#E52A0D"/>
<circle id="693" cx="646" cy="383" fill="#E52A0D"/>
<circle id="1102" cx="616" cy="637" fill="#E52A0D"/>
</svg>
