<svg width="1000" height="1000" viewBox="0 0 1000 1000" fill="none" xmlns="http://www.w3.org/2000/svg">
<path d="M67.3626 286.44C64.6919 289.492 62.4982 290.35 55.6309 291.113C49.7174 291.876 49.1451 292.163 45.5207 296.264C43.1362 299.03 40.9425 300.651 39.6072 300.651C36.4597 300.651 31.7861 306.183 33.1214 308.282C33.4075 308.759 36.6504 310.952 40.2748 313.051L46.9514 316.961V323.161C46.9514 327.071 46.3791 330.123 45.5207 331.554C43.7085 334.225 35.9828 339.375 32.263 340.329L29.497 340.997L30.1646 348.913C30.9277 358.547 30.4508 359.786 21.7713 368.371C17.0023 372.949 15.4762 375.143 15.4762 377.145C15.4762 379.339 16.0485 379.911 19.1006 380.675C21.0082 381.151 26.1587 381.914 30.4508 382.296C37.1273 382.773 38.7488 382.677 40.9425 381.247C46.6653 377.527 53.6279 377.718 53.6279 381.628C53.6279 382.964 51.8157 384.013 46.4745 386.016C42.5639 387.446 37.5088 389.926 35.3151 391.548C33.026 393.265 29.497 395.268 27.3986 396.126C23.6788 397.652 23.5835 397.843 23.3927 402.326C23.3927 404.901 22.4389 408.907 21.3897 411.291C20.2452 413.58 19.5775 415.774 19.8637 415.965C20.0544 416.251 22.725 414.057 25.7772 411.196C28.7339 408.335 33.6937 404.042 36.7458 401.753C39.7979 399.464 43.1362 396.603 44.09 395.363C46.2837 392.502 59.2553 386.493 63.0705 386.493C65.2642 386.493 66.5995 385.634 68.6025 383.154C70.2239 381.056 72.6084 379.435 74.8022 378.862C78.8081 377.718 86.1523 370.087 89.2044 363.792C90.8259 360.549 91.6843 359.786 93.7826 359.786C95.118 359.786 97.5978 359.31 99.1239 358.833C101.413 357.974 103.034 358.165 106.754 359.596L111.619 361.408L115.624 358.737C119.154 356.353 120.68 355.971 126.021 355.971C131.362 355.971 133.365 356.448 139.374 359.5C146.909 363.315 149.198 363.602 160.739 362.171L166.271 361.408L170.277 365.891C172.566 368.275 174.76 370.278 175.237 370.278C175.713 370.278 178.098 372.281 180.578 374.666L185.061 379.053L195.743 379.911C208.715 380.961 211.29 382.201 199.081 381.438C193.645 381.151 188.971 381.438 186.205 382.201C183.821 382.868 177.716 384.013 172.566 384.871C165.794 385.92 162.17 386.97 159.404 388.782C154.921 391.834 154.73 393.36 158.545 396.031C160.834 397.652 162.265 397.938 165.126 397.461C168.369 396.889 169.037 397.175 169.991 398.797C170.849 400.418 170.754 400.8 169.514 400.8C168.751 400.8 168.083 401.467 168.083 402.326C168.083 403.756 167.32 403.852 162.17 403.184C151.392 401.944 141.186 401.372 125.925 401.276C110.76 401.276 107.231 400.418 112.382 398.034C116.578 396.126 115.243 393.551 109.139 391.834C106.087 390.975 102.653 390.308 101.604 390.308C99.6008 390.308 99.6008 390.403 101.127 394.314C101.89 396.603 103.225 399.178 103.988 400.037C106.277 402.803 102.271 403.947 92.0658 403.47C83.4817 402.993 82.9094 402.803 79.7619 399.75C77.9497 398.034 76.519 396.031 76.519 395.268C76.519 394.123 75.5652 394.028 71.5593 394.505C68.8886 394.886 65.9319 395.554 64.9781 396.126C62.7844 397.271 56.8708 397.271 52.7695 396.031C49.1451 394.981 46.9514 396.126 39.2257 403.279C36.8412 405.473 33.9798 407.571 32.8353 407.858C31.3092 408.335 30.3554 410.051 29.2108 414.153C27.6848 419.589 27.5894 419.685 23.5835 420.257C20.2452 420.829 19.2914 421.401 18.5284 423.5C16.5254 428.65 15.4762 433.801 15.4762 438.951C15.4762 441.813 14.6178 446.963 13.5686 450.301C11.2795 457.455 11.8518 458.79 16.6208 457.169C21.8666 455.261 40.3702 452.304 47.1422 452.304C52.4834 452.304 53.7233 452.59 54.4864 454.117C55.3448 455.643 54.6771 456.596 50.385 460.316C46.6653 463.464 44.3762 464.704 42.2778 464.704C39.7979 464.704 39.321 465.085 39.321 467.088C39.321 468.519 40.1795 470.045 41.7055 470.999C43.0408 471.857 44.09 473.383 44.09 474.337C44.09 475.291 45.3299 477.485 46.856 479.201C50.6712 483.589 51.2435 485.973 48.859 488.072C45.1392 491.41 47.5237 494.271 54.0095 494.271C58.2062 494.271 59.7322 497.419 56.5847 499.708C53.9141 501.52 50.7666 504.954 50.7666 505.908C50.7666 507.052 44.2808 506.861 43.6131 505.717C42.2778 503.523 41.2286 505.049 41.2286 508.96C41.2286 512.393 41.7055 513.633 43.6131 515.064C45.1392 516.304 45.9976 517.925 45.9976 519.642C45.9976 523.648 46.7606 524.316 54.1048 527.749L60.7814 530.802L56.0124 531.66C50.4804 532.518 44.5669 531.851 41.5148 529.943C38.6534 528.131 38.558 528.131 38.1765 531.66L37.8904 534.807L35.792 530.802C33.9798 527.559 33.789 526.414 34.6475 524.03C35.5059 521.454 35.2197 520.501 32.263 515.827C29.4016 511.249 28.4478 510.486 25.9679 510.486H23.1066V517.162C23.1066 521.454 23.6788 524.983 24.6326 526.891C26.4448 530.325 25.3003 531.66 20.9128 531.278C18.8145 531.088 17.8607 531.66 16.6208 533.568C15.1901 535.952 15.1901 536.238 16.9069 538.05C17.8607 539.195 19.7683 540.053 21.1036 540.053C22.6297 540.053 24.9188 541.484 27.494 543.964L31.4999 547.97L34.0752 545.395C37.6996 541.77 42.5639 541.961 44.5669 545.776C45.3299 547.302 45.9976 549.877 45.9976 551.499C45.9976 554.265 46.2837 554.456 48.7636 554.265C50.4804 554.074 52.8649 554.837 55.3448 556.459C57.4431 557.889 60.3045 559.32 61.6398 559.702C64.5012 560.369 65.455 561.418 66.6949 565.329C68.221 569.716 65.8365 572.959 59.1599 575.534C56.1078 576.774 53.6279 578.014 53.6279 578.3C53.6279 578.682 54.6771 579.254 55.917 579.54C58.9692 580.303 61.2583 587.075 61.2583 595.469C61.2583 600.619 61.5444 601.955 62.9751 602.527C64.1197 602.908 65.3596 602.241 67.0764 600.238C69.8424 596.804 74.4206 595.946 72.7038 599.093C71.1777 602.05 71.5593 603.957 73.6576 603.957C74.8975 603.957 75.3744 604.434 74.9929 605.388C74.516 606.437 75.2791 607.01 77.3774 607.391C80.2388 607.963 80.3342 608.25 80.1434 612.16C79.8573 615.975 79.5711 616.452 76.8051 617.406C74.516 618.169 72.8946 618.074 70.4147 617.215C67.5533 616.166 66.8857 616.261 64.3104 618.074C61.6398 620.077 61.5444 620.363 62.4028 623.415C63.2613 626.276 63.6428 626.562 65.1688 625.609C66.4088 624.846 67.7441 624.941 70.5101 625.799C72.9899 626.658 77.0913 626.849 83.6724 626.467C109.329 624.846 117.723 624.846 117.341 626.085C117.055 626.753 115.815 627.421 114.385 627.612C113.049 627.802 111.428 628.565 110.856 629.328C110.188 630.091 108.471 630.664 106.945 630.664C104.656 630.664 104.084 631.236 103.13 634.479L101.985 638.294L96.1671 638.485C92.9242 638.58 88.2506 638.771 85.58 638.771C82.6233 638.771 78.2358 639.82 73.8484 641.537C67.5533 644.112 66.9811 644.494 68.5071 645.638C70.7962 647.26 81.8602 647.26 82.9094 645.638C83.2909 644.971 84.9124 643.635 86.4384 642.681C88.6322 641.251 89.586 641.155 91.4935 642.014C94.4503 643.349 99.6008 643.349 102.748 641.918C104.084 641.346 105.419 641.155 105.8 641.537C106.945 642.586 104.656 645.352 102.176 645.924C100.268 646.401 100.173 646.592 101.604 647.164C103.607 647.927 103.797 650.693 101.795 650.693C100.65 650.693 98.4562 653.364 98.4562 654.89C98.4562 656.798 103.034 654.89 106.85 651.361C109.329 649.072 112.572 646.783 114.098 646.115C116.006 645.257 116.674 644.398 116.292 643.158C115.911 641.632 116.578 641.251 121.252 640.774C129.55 639.82 132.507 640.774 133.747 644.589C134.605 646.974 135.845 648.213 138.325 649.358C140.328 650.121 142.521 651.743 143.475 652.792C144.811 654.604 145.287 654.699 146.527 653.65C147.386 652.982 148.053 651.838 148.053 651.266C148.053 650.693 148.721 649.167 149.58 648.023L151.01 645.829L154.921 648.881C158.068 651.456 158.45 652.124 157.21 652.792C155.112 653.936 155.302 656.988 157.496 658.514C158.927 659.564 159.308 660.994 159.308 665.286L159.213 670.818L164.84 675.969C168.846 679.593 171.04 680.929 172.375 680.642C173.615 680.356 175.046 680.929 176.095 682.073C177.43 683.504 179.052 684.076 181.913 684.076C184.965 684.076 186.301 684.648 187.922 686.461C190.497 689.417 192.214 689.417 196.125 686.461C197.841 685.125 200.321 684.076 201.752 684.076C204.804 684.076 212.053 681.024 213.674 679.021C214.819 677.686 215.391 677.686 218.73 678.83C220.828 679.593 223.785 680.929 225.406 681.882C228.84 683.885 229.507 683.218 231.033 675.969C231.606 673.394 232.941 669.769 233.99 667.862C235.23 665.859 236.089 662.33 236.375 658.801C237.042 647.546 237.71 645.066 240.667 642.968C243.337 641.06 243.719 641.06 247.343 642.491C249.919 643.54 254.115 644.017 260.506 644.017C267.85 644.017 270.997 644.494 274.336 645.924C276.72 646.878 278.723 648.213 278.723 648.69C278.723 649.167 280.154 649.93 281.871 650.216C283.492 650.598 286.449 652.124 288.261 653.555C290.073 654.985 296.941 658.896 303.522 662.139C316.398 668.529 317.256 669.292 324.982 680.738C331.372 690.371 336.237 695.522 338.812 695.522C339.861 695.522 341.96 696.38 343.486 697.525C347.682 700.577 353.119 700.958 358.365 698.383C362.085 696.571 363.229 696.38 365.232 697.334C367.617 698.478 369.238 697.62 369.333 695.235C369.333 694.854 374.865 694.568 381.637 694.568C391.366 694.568 394.132 694.282 395.086 693.137C396.421 691.516 398.996 691.23 400.427 692.66C401.095 693.328 402.907 691.993 406.055 688.845C411.3 683.599 412.636 683.122 414.257 686.174L415.306 688.177L416.928 685.698C417.691 684.267 419.121 683.122 420.075 683.122C421.411 683.122 421.601 682.55 421.22 680.356C420.743 677.972 421.506 676.827 428.659 669.769C432.952 665.477 438.293 660.899 440.391 659.564C442.489 658.228 445.255 656.13 446.591 654.89C448.498 653.173 450.501 652.601 456.319 652.029C463.282 651.456 463.759 651.552 466.62 653.936C468.242 655.272 470.149 656.416 470.722 656.416C471.389 656.416 473.965 658.133 476.54 660.231C479.02 662.33 481.786 664.046 482.549 664.046C483.407 664.046 485.505 664.905 487.222 666.049C489.702 667.575 490.847 667.766 492.277 667.003C493.327 666.431 495.997 665.954 498.286 665.954C500.575 665.954 502.865 665.573 503.437 665.191C504.772 664.333 506.68 658.705 506.68 655.844C506.68 654.032 507.157 653.555 509.16 653.555C510.876 653.555 513.452 651.933 517.362 648.309C520.414 645.447 523.371 643.063 523.943 643.063C526.042 643.063 532.337 648.214 533.386 650.789C534.054 652.41 534.435 655.844 534.149 658.801C533.767 663.188 533.195 664.714 530.525 667.385C528.808 669.102 526.232 671.105 524.897 671.677C523.466 672.249 520.51 674.824 518.316 677.4L514.215 682.169L518.03 691.23C522.227 700.863 522.513 702.961 520.891 707.826C519.365 712.213 521.654 714.311 528.617 714.788C533.672 715.074 533.767 715.074 534.626 712.022C535.198 710.305 536.343 708.684 537.296 708.398C538.155 708.112 540.062 706.967 541.398 705.918C543.687 704.201 543.878 703.343 543.878 697.334V690.753H548.074C550.459 690.753 553.416 691.134 554.751 691.706C556.754 692.469 557.612 692.183 559.997 689.799L562.858 686.937L560.092 685.507C555.419 683.122 553.129 678.83 553.797 674.252C554.179 672.058 554.751 667.671 555.228 664.428C555.991 659.277 557.231 655.748 559.901 651.838C560.569 650.789 561.523 650.884 564.48 652.506C566.483 653.65 569.249 654.509 570.584 654.509C575.83 654.509 577.451 655.558 577.07 658.514C576.402 662.52 579.74 664.714 584.032 663.188C585.749 662.616 590.423 662.139 594.429 662.139C600.438 662.139 602.059 661.853 603.394 660.327C605.302 658.228 612.551 655.462 616.271 655.462C617.606 655.462 620.944 654.127 623.519 652.601C633.916 646.497 637.731 644.971 642.881 644.971C649.176 644.971 656.425 648.404 661.385 653.936L665.009 657.847L685.802 657.751C711.745 657.561 718.613 656.607 730.058 651.552C734.922 649.358 741.504 646.592 744.651 645.257C747.799 643.921 751.9 641.442 753.712 639.629C755.524 637.913 758.576 635.814 760.389 635.051C762.296 634.288 764.585 632.762 765.539 631.713C766.684 630.473 768.496 629.71 770.499 629.71C772.216 629.71 775.649 629.233 778.225 628.661C782.04 627.802 784.71 627.898 792.055 629.138C803.309 631.045 809.032 631.045 813.324 629.328C815.136 628.565 818.665 627.612 821.145 627.325C829.539 626.181 840.317 622.175 842.606 619.218C843.846 617.787 846.23 615.88 847.947 615.021C850.904 613.495 851.285 613.495 854.147 615.117C856.531 616.548 857.294 617.692 857.676 620.744C858.057 623.51 858.534 624.464 859.869 624.369C860.728 624.369 862.826 624.273 864.448 624.178C868.167 623.987 873.032 618.932 874.844 613.495C875.512 611.397 877.133 609.013 878.468 608.154C880.567 606.723 881.139 606.724 884.954 608.25C888.96 609.776 889.437 609.776 893.824 608.154C897.544 606.819 898.975 606.723 901.55 607.677C903.267 608.25 906.128 608.726 907.94 608.726C909.657 608.726 912.805 609.776 914.903 611.111C916.906 612.446 919.291 613.209 920.149 612.923C920.912 612.542 922.247 612.828 923.01 613.495C923.964 614.258 926.826 614.545 931.69 614.258C938.367 613.972 939.13 613.686 941.133 611.206C943.231 608.536 943.612 608.44 948.954 609.108C952.864 609.49 954.963 610.253 956.202 611.683C958.015 613.877 958.396 617.787 956.87 618.741C955.058 619.886 955.916 624.559 958.301 626.849C960.208 628.661 961.162 628.947 962.402 628.184C963.26 627.612 964.119 626.276 964.31 625.132C964.5 623.892 965.931 622.652 968.602 621.603C970.7 620.744 973.943 618.741 975.66 617.215C977.663 615.498 979.952 614.449 981.764 614.449C983.576 614.449 984.816 613.877 985.198 612.732C985.484 611.874 986.438 610.348 987.201 609.49C988.441 607.963 988.345 607.773 986.152 606.914C984.721 606.342 982.527 604.053 981.001 601.859C979.57 599.57 977.663 596.899 976.709 595.755C975.469 594.324 974.801 591.367 974.229 585.263C973.561 576.965 973.466 576.774 970.986 576.488C969.46 576.297 968.125 575.439 967.839 574.295C967.076 571.91 962.593 569.621 958.492 569.621C955.535 569.621 955.153 569.335 954.772 566.569C954.486 564.947 954.867 562.467 955.535 561.132C956.298 559.797 956.87 558.175 956.87 557.603C956.87 557.031 957.919 555.6 959.255 554.36C960.59 553.12 961.639 551.022 961.639 549.687C961.639 548.447 962.497 545.49 963.642 543.201C966.217 537.86 965.74 535.857 961.925 535.475C960.304 535.284 958.396 534.617 957.824 533.854C956.679 532.423 955.058 522.027 954.39 510.486C953.913 504.191 953.627 503.142 951.815 502.379C948.572 500.948 947.237 497.323 947.904 491.791C948.667 485.592 947.904 483.398 944.948 482.063C943.231 481.3 942.563 480.251 942.563 478.248C942.563 476.721 942.086 474.051 941.514 472.334C940.656 469.854 940.656 469.091 941.705 468.423C943.422 467.374 948 467.374 950.098 468.423C951.243 469.091 952.769 468.614 955.726 466.802C959.636 464.322 959.731 464.131 959.731 458.981C959.827 450.683 961.067 446.772 964.882 443.243C966.79 441.527 968.316 439.714 968.316 439.142C968.316 438.665 965.55 435.231 962.211 431.702L956.107 425.121L944.375 425.026C928.352 424.931 916.906 421.878 919.672 418.445C920.435 417.586 920.435 417.014 919.672 416.537C918.337 415.679 913.949 405.855 913.949 403.756C913.949 402.898 913.282 401.276 912.519 400.132C911.279 398.32 911.374 397.843 913.854 394.409C915.38 392.311 917.383 388.209 918.337 385.253C919.863 380.293 919.863 379.721 918.432 375.81C917.478 373.521 916.811 370.755 916.811 369.706C916.811 366.845 913.568 363.029 908.608 360.168C905.651 358.451 904.411 357.116 904.411 355.59C904.411 354.445 903.744 352.538 902.885 351.393C901.741 349.676 900.501 349.295 896.304 349.295C891.631 349.295 890.963 349.009 889.818 346.624C889.055 345.193 888.578 343.572 888.865 343C889.055 342.523 887.434 341.283 885.336 340.329C883.047 339.375 880.185 336.895 878.373 334.416C876.179 331.363 874.844 330.314 873.413 330.6C871.982 330.982 871.124 330.314 870.075 328.025C868.74 325.259 868.167 324.973 863.78 324.687C859.392 324.401 858.629 324.687 856.817 326.976C855.673 328.407 854.814 330.219 854.814 331.077C854.814 334.034 853.384 335.179 850.904 334.129C849.664 333.557 843.083 332.699 836.311 332.222L824.007 331.363L821.622 334.129C819.524 336.705 819.142 336.8 817.616 335.465C816.758 334.702 814.946 334.034 813.515 334.034C812.18 334.034 809.891 333.557 808.365 332.985C805.789 332.031 805.408 332.222 799.494 338.612C794.63 343.858 792.531 345.48 789.67 345.956C787.763 346.338 784.043 348.341 781.468 350.344C778.511 352.728 775.84 354.064 774.123 354.064C769.259 354.064 764.872 355.876 761.438 359.214C757.813 362.743 753.998 364.555 750.469 364.555C749.229 364.555 747.703 365.223 746.94 366.081C746.273 366.94 743.125 368.847 739.978 370.469C734.445 373.33 734.064 373.33 731.489 371.804C729.963 370.946 726.624 370.278 723.858 370.278C720.139 370.278 716.514 369.229 709.17 366.081C700.681 362.362 699.06 361.98 695.817 362.743C693.814 363.22 690.19 363.602 687.805 363.602C685.325 363.602 677.313 365.605 668.729 368.275C660.622 370.85 652.133 373.235 649.939 373.616C645.457 374.379 634.011 372.949 624.282 370.564C618.56 369.134 618.369 369.038 617.797 365.414C617.129 361.789 617.129 361.694 613.028 361.694C609.594 361.694 608.736 362.076 608.259 363.697C607.686 365.414 607.114 365.605 604.157 365.032C602.25 364.651 599.484 363.792 598.053 363.029C596.527 362.266 592.14 361.122 588.134 360.454C581.171 359.405 580.98 359.214 578.691 355.304C575.162 349.39 571.728 347.387 563.907 346.719L557.135 346.147L553.416 349.772C549.887 353.205 549.696 353.301 546.262 352.156C543.687 351.298 542.352 350.153 541.398 347.864C540.444 345.384 539.299 344.526 536.533 343.858L532.909 343L532.241 336.132C531.86 332.413 530.811 328.216 529.952 326.976C527.759 323.542 521.464 322.779 513.165 324.973C504.581 327.167 497.428 326.499 491.514 322.875C486.364 319.632 481.404 312.86 480.641 307.614C479.878 303.131 476.349 297.504 473.965 297.027C473.011 296.836 471.389 297.695 470.34 299.03C465.953 304.657 463.568 305.325 447.163 305.325C436.004 305.325 431.235 305.039 428.755 303.99C426.847 303.227 423.414 302.559 420.934 302.559C418.454 302.559 411.587 301.891 405.578 301.033C399.569 300.174 393.178 299.697 391.366 299.984C384.022 300.937 375.342 303.894 372.195 306.374C369.524 308.472 366.758 309.331 359.509 310.475C352.547 311.525 349.018 312.669 345.679 314.767C343.2 316.293 339.957 317.915 338.431 318.201C336.905 318.583 333.757 320.49 331.277 322.493C328.893 324.496 325.077 326.594 322.884 327.262C320.595 327.834 316.112 330.505 312.869 333.176C307.146 337.658 304.38 339.185 294.556 343.477C290.932 345.098 290.169 345.956 288.738 350.153C287.403 354.254 286.449 355.399 283.206 357.02C279.677 358.833 278.055 359.023 265.942 358.642C252.494 358.26 252.494 358.26 245.722 354.731C237.042 350.058 233.036 349.39 229.412 351.87C227.981 352.919 224.929 354.064 222.735 354.445C218.253 355.113 206.235 353.682 199.177 351.584C190.211 349.009 177.716 347.292 175.809 348.341C173.138 349.676 172.852 349.581 172.852 346.91C172.852 344.144 172.566 344.049 169.895 345.67C168.178 346.815 166.08 345.956 152.346 338.898C139.183 332.126 135.654 329.837 130.027 324.401C126.212 320.681 123.064 316.77 122.683 315.244C122.301 313.814 121.252 310.952 120.298 309.045C118.104 304.753 118.009 300.747 119.917 300.079C122.301 299.125 121.538 296.931 118.295 294.929C114.098 292.449 110.283 292.449 108.853 295.024C108.185 296.359 107.231 296.836 105.896 296.455C104.751 296.264 102.271 296.836 100.364 297.79L96.8348 299.602L93.6873 295.119C88.7275 287.775 80.7157 282.529 78.9035 285.391C78.6173 285.867 77.0913 286.344 75.5652 286.344C74.0391 286.344 72.5131 285.867 72.2269 285.391C71.2731 283.865 69.3655 284.246 67.3626 286.44Z" fill="white"/>
<circle id="697" cx="376" cy="443" fill="#5CE50D"/>
<circle id="696" cx="173" cy="355" fill="#E52A0D"/>
<circle id="698" cx="67" cy="542" fill="#E52A0D"/>
<circle id="1103" cx="266" cy="639" fill="#E52A0D"/>
</svg>
