<svg width="1000" height="1000" viewBox="0 0 1000 1000" fill="none" xmlns="http://www.w3.org/2000/svg">
<path d="M958.769 53.8607C955.283 55.1796 955.283 55.368 956.319 61.5855C956.885 64.9768 956.696 65.6363 954.812 66.8609C950.479 69.7813 947.37 69.6871 939.457 66.5783C932.58 63.9406 931.355 63.7522 924.855 64.3174C919.862 64.7884 916.565 65.6363 913.645 67.332C907.333 71.0059 902.246 75.9988 902.246 78.5423C902.246 80.709 901.869 80.8032 896.876 80.8032C892.355 80.8032 889.717 81.5568 881.992 85.1366C876.811 87.5859 869.18 90.412 864.941 91.4483C857.405 93.3323 857.311 93.4265 853.919 98.6078C847.608 108.217 840.919 114.246 833.194 117.166C820.854 121.782 819.817 122.536 813.788 131.579C810.68 136.195 806.817 140.906 805.216 142.036C803.52 143.261 799.94 146.935 797.114 150.42C792.781 155.696 791.179 156.92 786.563 158.522L781.194 160.406L780.911 165.304C780.628 169.732 780.346 170.391 778.273 170.862C777.049 171.145 775.165 172.652 774.128 174.065C772.433 176.515 771.962 176.609 768.759 175.855C761.693 174.254 761.599 174.348 762.259 180.377C763.577 191.682 762.73 190.834 772.527 191.211C780.723 191.493 781.476 191.682 786.375 195.073C790.331 197.711 792.498 198.559 795.513 198.559C798.904 198.559 799.563 198.276 799.563 196.769C799.563 195.261 800.317 194.885 803.143 194.602C806.064 194.414 806.723 193.943 806.911 191.964C807.1 190.74 808.513 188.196 810.114 186.406C811.622 184.71 813.317 182.261 813.883 181.037C814.542 179.718 816.614 178.21 819.158 177.174C821.513 176.326 824.622 174.536 826.223 173.218C828.861 170.957 829.144 170.957 834.325 172.087C844.781 174.536 846.571 174.536 847.513 171.899C848.079 170.486 849.303 169.355 850.528 169.167C852.035 168.978 852.883 167.848 853.637 165.116L854.767 161.348L871.63 160.783C892.637 160.123 897.442 158.804 901.21 152.681C902.717 150.232 905.261 147.782 907.993 146.275C910.442 144.956 914.022 142.13 916 139.963C918.355 137.232 920.804 135.63 923.348 134.971C926.645 134.123 927.21 133.558 927.493 131.202C927.681 129.601 928.906 127.246 930.225 125.833C931.544 124.514 932.297 122.912 932.015 122.347C931.261 121.123 940.21 121.028 946.24 122.159C949.537 122.818 950.479 122.63 953.022 120.652C955.377 118.767 955.943 117.637 955.943 114.717C955.943 111.985 956.508 110.666 958.015 109.535C960.088 108.217 960.276 108.217 961.877 110.478C964.421 113.869 968.189 113.586 971.109 109.724C973.182 106.992 973.37 105.862 973.37 96.8179C973.276 91.3541 972.899 85.325 972.523 83.3467C971.769 80.0495 971.957 79.4843 974.783 76.564C976.573 74.7741 978.646 71.1001 979.588 68.3682C980.436 65.6363 981.472 62.6217 981.849 61.7739C982.32 60.5493 981.755 59.8898 979.211 58.7594C976.95 57.8173 975.82 56.6869 975.537 55.1796C975.254 53.2013 974.783 53.0129 968.66 52.8245C965.08 52.7303 960.559 53.2013 958.769 53.8607Z" fill="white"/>
<path d="M696.881 401.663C688.874 405.054 683.598 405.62 671.823 404.301C642.054 400.909 628.865 401.286 622.648 405.62C620.387 407.315 618.974 407.598 616.054 407.127C611.343 406.373 589.959 409.199 582.423 411.554C578.372 412.779 573.85 413.344 566.785 413.344C557.364 413.344 556.705 413.439 553.125 416.076C551.147 417.584 542.857 422.105 534.85 426.156L520.248 433.598H501.878C490.008 433.692 482.849 434.069 481.53 434.823C480.023 435.671 478.327 435.482 473.523 433.975C465.704 431.432 457.602 430.395 439.703 429.453C426.515 428.794 424.631 428.511 420.203 426.25C416.812 424.555 413.797 423.707 410.688 423.707H406.167L402.21 429.83L398.348 435.953H392.036C386.195 435.953 385.536 436.142 382.144 439.251C379.224 441.794 377.623 442.548 374.796 442.548C370.086 442.548 365.282 446.693 365.282 450.743C365.282 453.287 364.905 453.57 360.477 454.606C352.658 456.396 351.151 456.207 351.151 453.099C351.151 451.591 350.398 449.707 349.456 448.859C347.854 447.352 347.571 447.446 345.499 449.613C344.18 451.026 342.202 451.968 340.6 451.968C338.434 451.968 337.963 451.591 337.963 449.707C337.963 447.258 337.209 446.881 331.18 445.751L327.6 445.185V455.548L318.839 457.055C310.078 458.657 309.984 458.657 306.498 456.584L303.013 454.606L298.868 457.809C294.723 461.012 294.534 461.106 283.041 461.765C276.541 462.048 269.288 462.99 266.744 463.744C263.541 464.686 257.701 465.157 247.997 465.157C234.338 465.157 233.773 465.251 229.439 467.794C222.657 471.657 211.917 480.418 210.787 482.961C209.845 485.034 209.562 485.128 202.591 484.469L195.431 483.809L195.997 486.07C196.374 487.201 196.656 488.99 196.656 489.838C196.656 490.686 197.692 492.664 199.011 494.266C201.272 496.809 201.366 497.563 200.801 503.027L200.236 509.056L203.627 510.092C206.548 510.94 207.301 510.846 209.28 509.339C210.504 508.396 212.765 507.549 214.367 507.549C216.816 507.549 217.381 508.114 219.736 513.672C221.149 517.063 222.751 519.795 223.316 519.795C225.012 519.795 232.454 516.781 232.454 516.121C232.454 515.744 231.135 514.426 229.439 513.201L226.519 511.034L231.606 508.396C237.729 505.194 239.142 505.099 241.403 507.549C242.439 508.679 244.324 509.433 246.302 509.433C247.997 509.433 251.012 510.092 252.99 510.846C254.874 511.694 260.432 512.636 265.425 512.918C275.788 513.578 282.099 516.121 286.433 521.302C287.94 523.092 291.143 525.636 293.498 527.049C295.947 528.462 300.375 531.477 303.39 533.737C308.759 537.977 308.759 537.977 308.759 543.064C308.759 547.585 309.23 548.904 313.469 555.122C319.499 563.977 330.803 592.803 333.158 605.238L334.854 613.999L331.839 618.427C329.673 621.724 328.26 625.587 326.846 632.369C325.716 637.551 323.361 647.536 321.571 654.507C319.781 661.478 317.897 670.428 317.332 674.29C316.484 680.131 315.825 681.732 313.658 683.522L311.114 685.689L313.375 687.479C314.6 688.515 316.201 689.363 316.955 689.363C317.803 689.363 318.085 690.022 317.803 690.964C317.614 691.906 316.861 695.109 316.201 698.03L315.071 703.494L319.404 709.052C321.854 712.16 323.832 715.552 323.832 716.776C323.832 720.45 327.694 731.849 330.426 736.371C332.405 739.668 333.347 742.777 334.194 749.654C334.76 754.552 335.702 761.429 336.173 764.915C336.926 770.755 336.832 771.509 334.194 777.444C332.687 780.929 330.709 786.299 329.861 789.408C327.977 796.756 323.173 802.785 317.426 804.669C315.165 805.517 310.738 808.155 307.44 810.698C299.904 816.633 299.527 816.821 289.447 819.647C281.817 821.72 280.027 821.814 272.02 821.155C260.056 820.118 253.838 818.423 246.867 814.278C241.309 811.075 240.65 810.886 232.36 810.886H223.693L220.584 814.278C217.852 817.198 217.381 818.234 217.381 822.379C217.381 826.619 216.91 827.749 212.953 832.742C207.584 839.336 193.547 849.416 187.801 850.546C185.728 851.017 182.997 851.583 181.866 851.865C180.359 852.242 179.699 853.278 179.228 856.104C178.757 859.025 177.627 860.626 174.236 863.452C164.721 871.366 150.119 874.945 127.604 874.945C120.539 874.945 114.604 875.322 114.322 875.699C112.814 878.148 105.184 882.011 95.7633 885.214C85.8719 888.605 85.024 889.076 84.4588 891.62C83.611 895.67 77.0167 906.975 73.8137 909.895C71.2702 912.062 69.9514 912.439 61.7556 913.004C56.7628 913.381 50.1685 914.511 47.2481 915.453C44.2336 916.489 39.806 917.337 37.2625 917.337C29.8203 917.337 26.5232 920.258 21.7188 931.091C19.1752 936.838 17.668 941.548 17.668 943.903V947.671L26.9 947.294C36.8856 946.917 37.9219 946.541 52.5236 938.062C56.3859 935.801 61.473 933.446 63.7339 932.693C65.9948 932.033 69.1977 930.432 70.7992 929.207C75.5094 925.721 84.6472 921.388 91.2415 919.692C98.4953 917.808 101.133 918.374 112.249 924.403L119.691 928.548L124.496 926.098C127.133 924.685 131.749 923.084 134.764 922.424C142.583 920.823 165.663 921.671 176.025 924.026C180.547 924.968 186.294 925.816 188.931 925.816C193.547 925.816 193.736 925.91 196.562 930.337C198.163 932.787 200.707 936.178 202.214 937.968C204.946 941.077 204.946 941.077 209.845 940.041C212.482 939.475 216.251 939.004 218.135 939.004C220.019 939.004 225.954 937.968 231.323 936.649C236.693 935.33 242.722 934.294 244.7 934.294C246.773 934.294 250.164 933.635 252.237 932.787C255.44 931.468 258.548 931.374 272.302 931.845C321.759 933.729 318.18 933.729 326.187 931.468C332.593 929.678 334.948 929.49 342.673 930.055C355.673 930.997 359.63 930.997 372.912 930.055C382.521 929.49 387.326 929.678 397.5 930.997C410.123 932.693 410.123 932.693 422.746 930.62C431.413 929.113 436.218 927.888 438.102 926.569C441.211 924.403 450.348 922.142 456.472 922.047C458.732 922.047 467.493 924.12 476.16 926.758C486.805 929.961 494.342 931.656 499.711 932.127C507.53 932.693 507.625 932.693 511.298 929.678C515.538 926.287 517.704 926.098 531.27 928.171C538.052 929.207 541.821 929.301 545.306 928.642C548.038 928.077 551.806 927.7 553.69 927.7C556.046 927.7 559.908 926.287 565.089 923.555C569.423 921.294 575.452 918.468 578.466 917.243C582.234 915.736 584.401 914.229 585.343 912.533C586.662 909.895 587.792 909.518 596.553 908.294C606.633 906.975 614.358 901.699 616.901 894.446C617.749 891.996 619.633 889.735 622.46 887.663C624.815 885.967 628.3 882.764 630.279 880.598C634.329 876.076 635.366 875.982 645.728 879.75C649.685 881.069 651.851 882.388 652.228 883.706C652.511 884.743 653.453 887.004 654.206 888.793L655.525 891.996L658.257 890.018L661.083 888.04L656.844 879.75C651.192 868.351 648.177 855.728 649.59 848.474C650.25 844.706 650.25 841.032 649.59 836.039C648.837 830.669 648.837 827.561 649.685 823.416C650.344 820.401 651.286 810.51 651.663 801.466C652.511 783.944 654.018 777.255 658.728 770.85C659.953 769.248 662.025 765.763 663.438 762.936L665.982 757.944L671.069 762.842L672.199 758.415C672.765 755.871 673.518 753.139 673.801 752.197C674.366 750.878 673.989 750.596 671.823 750.596C670.315 750.501 668.054 749.936 666.736 749.183C664.569 747.958 664.192 748.052 662.402 750.407L660.33 752.857L656.091 749.654L651.757 746.357L641.866 716.682C630.561 682.863 624.344 659.406 624.344 650.551C624.344 647.254 624.815 641.319 625.474 637.362L626.51 630.108L633.67 625.963C637.626 623.608 641.771 621.442 642.996 621.065C645.445 620.311 645.445 620.029 643.656 612.586C642.902 609.478 642.337 603.731 642.242 599.775C642.242 595.159 641.583 590.731 640.358 587.057C639.322 584.042 637.155 573.963 635.648 564.542C634.141 555.216 631.786 542.593 630.467 536.564C627.452 522.433 627.358 515.085 630.279 510.563C631.409 508.679 632.822 505.476 633.293 503.309L634.329 499.541L651.851 498.222L657.786 491.817C661.083 488.331 664.098 484.28 664.38 482.867C664.757 481.266 665.699 480.229 667.018 480.041C668.337 479.853 669.939 478.251 671.446 475.425C672.765 473.07 675.497 469.678 677.475 467.889C683.881 462.331 689.345 454.041 689.345 449.801C689.345 447.823 689.816 445.28 690.475 444.149C691.135 443.019 691.888 439.722 692.171 436.895L692.642 431.808L699.424 427.946C708.562 422.859 711.954 419.468 711.954 415.605C711.954 413.533 712.802 411.649 714.309 410.141C718.736 405.62 717.7 405.243 707.149 407.315C705.077 407.692 704.323 407.221 702.439 404.018L700.178 400.25L696.881 401.663Z" fill="white"/>
<path d="M137.967 495.018C137.59 495.3 137.307 496.242 137.307 497.09C137.307 497.844 136.365 499.445 135.235 500.67C133.916 502.083 132.974 504.721 132.503 508.3C132.126 511.221 131.749 514.329 131.561 515.083C131.278 516.119 132.126 516.59 134.481 516.779C137.496 517.061 138.061 516.685 139.474 513.67C140.322 511.786 141.076 509.713 141.076 508.96C141.076 506.887 143.808 505.851 147.858 506.322C153.04 507.076 152.663 504.532 146.539 498.88C141.923 494.641 139.38 493.51 137.967 495.018Z" fill="white"/>
<path d="M180.924 496.433C177.627 497.093 176.496 498.035 174.518 501.332C173.199 503.499 172.163 505.665 172.163 505.948C172.163 507.078 175.931 506.607 182.902 504.535C189.497 502.651 189.779 502.462 190.721 498.883L191.663 495.303L188.272 495.397C186.388 495.491 183.091 495.868 180.924 496.433Z" fill="white"/>
<circle id="690" cx="293" cy="530" fill="#5CE50D"/>
<circle cx="625" cy="627" fill="#E52A0D"/>
<circle id="689" cx="323" cy="807" fill="#E52A0D"/>
<circle cx="780" cy="169" fill="#E52A0D"/>
</svg>
