<svg width="1000" height="1000" viewBox="0 0 1000 1000" fill="none" xmlns="http://www.w3.org/2000/svg">
<path d="M955.085 853.994L955.288 847.54L953.459 843.727L952.6 843.352L954.413 847.915L954.803 854.682L955.085 853.994Z" fill="white"/>
<path d="M45.7737 113.032L45.6799 111.657L44.7109 109.375L44.8047 110.11L45.4611 111.672L45.5392 112.438V113.407L45.7737 113.032Z" fill="white"/>
<path d="M554.721 211.175L554.486 207.893L553.736 205.017L552.814 204.689L545.188 197.922L546.094 201.11L550.986 210.393L553.846 212.769L554.721 211.175Z" fill="white"/>
<path d="M454.482 388.773L452.012 393.009L449.481 398.619L448.762 402.933L451.153 403.261L454.482 388.773Z" fill="white"/>
<path d="M725.054 556.809L727.633 553.684L726.961 550.589L724.226 546.292L723.944 538.134L721.631 533.648L721.022 540.634L721.209 546.073L722.6 550.042L723.194 553.137L721.85 556.669L718.943 560.857L725.054 556.809Z" fill="white"/>
<path d="M945.942 834.634L944.239 829.977L942.441 828.742L942.301 829.133L943.739 831.086L945.458 835.369L945.942 834.634Z" fill="white"/>
<ellipse cx="452.5" cy="403.5" rx="51.5" ry="51.5" stroke="#CCCCCC" stroke-width="2"/>
<ellipse cx="550.5" cy="213.5" rx="51.5" ry="51.5" stroke="#CCCCCC" stroke-width="2"/>
<ellipse cx="719.5" cy="552.5" rx="51.5" ry="51.5" stroke="#CCCCCC" stroke-width="2"/>
<ellipse cx="942.5" cy="843.5" rx="51.5" ry="51.5" stroke="#CCCCCC" stroke-width="2"/>
</svg>
