<svg width="1000" height="1000" viewBox="0 0 1000 1000" fill="none" xmlns="http://www.w3.org/2000/svg">
<path d="M705.112 22.4222C699.038 23.2632 696.889 24.478 688.292 32.2339C683.526 36.5324 680.349 40.2702 678.574 43.9145C677.079 46.8113 674.743 50.1753 673.434 51.3901C671.192 53.4459 671.192 53.7262 672.687 54.7541C673.528 55.4083 675.864 56.4361 677.826 56.9968C680.069 57.7443 681.844 59.146 682.685 60.828C685.115 65.5002 683.9 65.874 679.415 62.1362C677.266 60.2673 675.49 59.7067 672.126 59.6132C668.295 59.5198 666.519 60.2673 660.632 63.8182C654.091 67.9298 653.157 68.2101 643.906 69.238C628.207 70.8266 624.563 71.8545 610.733 78.5825C603.538 82.1334 595.969 85.4974 593.913 86.0581C585.69 88.5811 581.485 91.4779 577.654 97.178C575.598 100.168 572.794 105.401 571.486 108.672C569.804 112.783 567.655 116.147 564.478 119.231C561.207 122.502 559.806 124.557 559.806 126.333C559.806 127.734 558.497 130.351 556.909 132.407C551.209 139.415 542.986 160.253 542.986 167.542C542.986 168.476 541.117 171.28 538.874 173.709C534.015 178.849 528.034 190.716 528.034 195.015C528.034 197.911 527.941 198.005 523.082 198.379C515.326 199.033 509.439 202.397 506.075 208.097C504.486 210.807 501.403 214.358 499.16 216.04C496.076 218.563 494.394 220.899 491.685 227.16C487.666 236.317 483.181 243.606 471.874 258.931C461.035 273.788 458.885 277.152 458.885 280.049C458.885 281.451 457.203 285.562 455.241 289.207C453.185 292.851 450.008 299.392 448.139 303.784C446.27 308.176 443.561 313.596 442.065 315.932C440.57 318.268 438.608 323.314 437.673 327.052C436.178 333.406 435.618 334.247 431.226 338.078C427.768 341.069 426.086 343.311 425.339 346.115C424.685 348.264 422.255 353.87 419.919 358.543C416.275 365.831 415.153 367.327 411.602 369.102C408.238 370.877 407.024 372.372 404.594 377.512C403.006 380.876 400.483 387.043 399.081 391.155C397.679 395.266 394.409 402.836 391.886 407.975C389.269 413.114 386.185 420.029 384.971 423.3C383.195 428.159 381.887 429.841 378.71 432.177C376 434.139 373.103 437.597 370.206 442.549C360.675 458.622 360.769 458.342 360.769 464.883C360.769 470.957 360.769 471.05 358.246 471.05C352.919 471.144 344.883 488.524 344.883 500.018C344.883 502.821 346.004 510.39 347.313 516.838C348.995 524.781 349.836 531.042 349.742 536.368C349.649 541.507 350.209 546.74 351.424 551.506C353.76 560.477 353.76 561.224 351.424 564.495C350.396 565.99 348.901 568.887 348.154 570.942L346.845 574.68L349.649 575.615C351.144 576.082 352.359 577.016 352.359 577.484C352.359 578.044 350.49 581.034 348.247 584.118C345.911 587.202 343.201 592.154 342.08 595.145C340.958 598.041 339.183 601.219 338.061 602.06C336.286 603.461 336.006 604.489 336.006 611.591C336.006 618.319 335.725 619.814 334.043 621.683C332.922 622.898 331.801 625.047 331.427 626.542C330.866 628.972 331.24 629.719 334.791 632.803L338.809 636.354L335.819 636.447C333.856 636.447 332.361 637.101 331.333 638.503C329.932 640.652 329.932 640.652 334.043 641.587C336.286 642.054 338.529 642.801 338.902 643.175C340.304 644.577 336.099 647.567 331.24 648.688L326.287 649.81L327.596 652.239C330.586 657.939 330.96 658.126 335.912 656.911C340.024 655.884 340.584 655.977 341.706 657.472C342.453 658.5 343.014 661.117 343.014 663.359C343.014 667.19 343.201 667.471 345.163 666.91C346.285 666.63 347.78 666.349 348.434 666.349C349.088 666.349 350.303 664.854 351.144 663.079L352.732 659.808L355.349 662.331C357.778 664.667 357.872 665.041 357.311 671.582C356.47 681.768 358.526 695.317 362.264 703.914C364.88 709.988 365.441 712.604 366.001 721.482L366.656 731.948L373.197 743.254L379.738 754.655L378.71 761.663L377.775 768.578L381.139 774.465C383.662 778.67 385.344 780.539 387.4 781.286C391.886 782.781 397.119 789.696 398.333 795.77C399.174 800.256 400.202 801.844 406.276 808.385C412.724 815.3 413.565 815.861 416.929 815.861C422.162 815.861 430.478 820.346 435.991 826.327C438.608 829.037 445.523 834.456 451.503 838.288C462.249 845.203 462.343 845.389 464.025 850.435C465.146 854.08 467.015 857.07 470.566 860.714C476.453 866.882 488.694 889.028 492.619 900.802C496.17 911.174 496.357 921.453 493.273 927.34C491.498 930.704 491.217 932.667 491.311 940.142C491.404 948.272 491.685 949.58 494.768 956.028C496.637 959.859 498.132 964.344 498.132 966.026C498.132 969.017 498.226 969.11 502.244 969.11C505.701 969.11 506.729 968.643 508.318 966.587L510.187 963.971L513.924 966.12C515.98 967.241 518.503 968.176 519.624 968.176C522.428 968.176 524.857 969.577 530.744 974.53L535.697 978.828L535.136 974.623C533.267 961.354 533.361 959.112 535.697 955.841C537.005 954.159 539.809 949.393 542.051 945.375C545.789 938.273 545.976 937.713 545.415 932.293C544.107 920.986 543.827 871.647 544.855 860.247C545.882 849.407 546.069 848.753 551.863 836.419C556.722 826.233 558.124 822.122 559.338 814.926C561.114 804.18 561.955 801.377 565.693 793.154C568.309 787.267 568.776 786.8 572.514 785.865L576.532 784.837L577.934 778.39C578.775 774.932 579.429 771.381 579.429 770.634C579.429 769.793 582.139 767.083 585.316 764.466C588.587 761.85 591.951 758.299 592.792 756.617C593.913 754.281 596.156 752.412 601.575 749.422C611.387 744.002 617.087 738.489 621.105 730.639C623.535 725.78 624.283 722.977 624.283 719.333C624.283 714.567 624.376 714.38 629.235 710.549C635.87 705.409 642.224 695.691 651.568 676.628C655.773 668.125 659.978 659.995 661.006 658.594C662.034 657.098 663.155 654.295 663.623 652.239C664.183 649.997 665.865 647.1 668.108 644.857C673.808 638.97 679.228 629.999 679.882 625.14C680.256 622.617 680.069 618.599 679.415 615.609C677.639 607.946 680.723 596.172 687.825 583.184C693.058 573.559 693.151 573.092 694.74 560.757C695.861 552.254 697.543 544.311 700.066 536.555C702.122 530.014 703.71 523.099 703.71 520.669C703.71 518.333 704.645 514.035 705.766 511.231C707.074 507.68 708.009 502.728 708.476 495.346C709.878 474.601 710.345 471.798 713.335 465.911C715.671 461.145 716.232 458.809 716.793 450.492C717.26 442.736 718.007 439.185 720.25 433.672C724.455 423.393 728.006 411.619 728.006 408.068C728.006 404.518 732.772 389.847 734.921 386.763C737.257 383.492 736.883 377.792 734.173 375.643C731.183 373.307 729.501 368.074 730.342 363.776C730.716 362 732.585 356.954 734.641 352.843C736.977 347.983 738.285 343.778 738.285 341.536C738.285 338.639 739.126 336.77 742.583 332.472C745.013 329.481 747.629 327.145 748.564 327.145C751.554 327.145 753.236 326.024 753.236 324.155C753.236 321.726 762.954 305.933 766.318 302.85C767.72 301.541 769.402 299.486 770.056 298.271C770.991 296.402 770.991 295.841 769.776 295C768.561 294.066 768.655 292.477 770.71 281.357C772.018 274.443 773.233 267.808 773.42 266.593C773.701 265.472 776.691 261.547 780.055 257.903L786.316 251.268L786.129 244.54L785.848 237.906L789.399 236.037C791.922 234.635 792.857 233.607 792.67 232.299C792.576 231.271 792.203 227.44 791.829 223.702L791.268 217.068L793.978 216.694C796.314 216.413 795.753 216.04 790.521 214.264L784.353 212.115L782.671 206.508C781.176 201.649 781.083 200.061 782.017 193.706C782.858 188.66 782.858 185.577 782.204 183.241C780.989 178.942 778.466 159.973 778.466 154.646C778.466 149.133 781.737 142.872 787.717 136.985C791.548 133.248 792.483 131.752 792.483 129.229C792.483 122.221 801.173 114.465 813.228 110.727C819.769 108.672 821.451 107.644 824.067 104.56C825.656 102.504 827.057 100.075 827.057 99.1403C827.057 97.4583 825.095 96.9911 812.106 96.0566C809.116 95.8697 808.555 95.4025 806.219 90.6369C804.818 87.7401 803.229 82.881 802.762 79.7973C801.734 72.4152 799.772 68.5839 796.501 67.9298C795.006 67.556 789.212 66.9954 783.512 66.5281C775.569 65.874 772.205 65.2199 768.561 63.351C766.038 62.1362 761.272 60.0804 757.908 58.9591C751.834 56.8099 743.892 50.6426 743.892 48.0261C743.892 46.9048 742.397 46.3441 737.911 45.69C736.603 45.5031 734.641 42.5129 731.464 36.1586C727.072 27.2814 726.698 26.9076 721.745 24.6649C716.045 22.0485 711.934 21.4878 705.112 22.4222Z" fill="white"/>
<path d="M199.482 479.927C196.959 481.703 197.519 485.441 200.603 486.749C201.818 487.309 203.78 489.272 204.901 491.141C206.116 492.916 207.331 494.411 207.611 494.411C208.452 494.411 210.321 486.749 210.321 483.665C210.321 481.796 209.574 480.955 207.051 479.834C203.032 478.152 201.911 478.152 199.482 479.927Z" fill="white"/>
<path d="M181.448 492.359C180.046 494.508 179.018 497.685 178.738 500.676C178.364 505.441 178.177 505.628 175.654 505.628C172.757 505.628 172.383 506.563 173.879 509.272C174.626 510.768 175.28 510.861 179.112 510.02C184.438 508.805 185.746 506.936 187.989 497.405C190.138 488.247 190.231 488.808 186.774 488.808C184.251 488.808 183.223 489.462 181.448 492.359Z" fill="white"/>
<path d="M208.641 499.364C204.716 500.579 199.763 507.4 200.231 511.044C200.418 513.1 201.072 513.661 203.314 513.848C205.837 514.128 207.426 515.343 207.519 516.838C207.519 517.118 204.716 517.212 201.352 517.025L195.185 516.651L195.839 519.735C197.053 525.341 197.895 526.182 202.193 526.182C206.865 526.182 210.79 523.94 215.649 518.707C219.667 514.221 222.657 512.446 227.984 511.605C231.348 511.044 231.815 510.671 231.815 508.521C231.815 506.559 230.974 505.531 228.171 503.943C226.208 502.821 223.218 501.887 221.536 501.887C219.947 501.887 217.518 501.046 216.21 500.018C213.593 497.962 213.126 497.869 208.641 499.364Z" fill="white"/>
<path d="M694.086 758.488C693.712 758.862 693.432 760.544 693.432 762.133C693.432 764.562 694.179 765.59 697.637 768.113C702.496 771.57 702.87 771.29 703.15 763.254L703.243 758.395L699.038 758.114C696.702 757.928 694.459 758.114 694.086 758.488Z" fill="white"/>
<path d="M715.391 927.153C709.597 928.087 706.7 929.582 705.953 932.012C705.485 933.507 706.794 935.376 712.307 940.702C719.315 947.617 722.399 949.206 726.604 948.178C729.594 947.43 729.688 943.973 726.884 939.3C725.669 937.525 724.268 933.881 723.801 931.264C722.679 926.125 722.399 925.938 715.391 927.153Z" fill="white"/>
<circle id="667" cx="716" cy="92" fill="#5CE50D"/>
<circle id="665" cx="518" cy="338" fill="#E52A0D"/>
<circle id="1092" cx="389" cy="671" fill="#E52A0D"/>
<circle cx="449" cy="826" fill="#E52A0D"/>
</svg>
