<svg width="1000" height="1000" viewBox="0 0 1000 1000" fill="none" xmlns="http://www.w3.org/2000/svg">
<path d="M140.581 19.9706C137.76 20.7227 134.658 22.603 132.496 24.6713C129.581 27.5858 127.983 28.3378 123.376 28.996C113.787 30.3121 112.471 30.8762 113.035 33.1326C113.317 34.1668 113.975 37.9273 114.633 41.3118L115.761 47.6108L125.445 56.2601C134.47 64.4393 135.316 65.4735 139.359 74.1227C143.683 83.2421 143.683 83.3361 143.683 93.3956C143.683 102.609 143.871 103.831 145.94 106.464C150.922 113.045 151.298 114.737 149.794 121.6C148.854 125.36 148.572 129.497 148.854 131.847C149.418 135.608 149.324 135.984 146.222 138.334C144.341 139.745 141.709 140.873 140.205 140.873C138.795 140.873 135.786 142.095 133.53 143.599C131.273 145.197 127.607 146.608 124.975 146.984C119.71 147.736 119.522 147.924 112.753 158.641C107.3 167.197 107.3 167.667 113.881 168.701C119.052 169.641 118.77 172.932 113.035 177.914C109.65 181.017 108.616 182.521 108.24 185.529C107.77 189.102 107.958 189.384 111.248 190.982C114.069 192.298 115.291 192.393 118.206 191.546C121.402 190.606 122.248 190.794 127.607 193.521C132.778 196.059 133.906 196.341 136.35 195.495C137.948 194.931 139.641 194.461 140.017 194.461C141.803 194.461 143.589 201.418 143.871 209.879C144.153 218.904 144.153 218.904 141.239 221.819C139.453 223.605 135.786 225.579 132.308 226.802C126.573 228.682 126.291 228.964 126.009 232.066C125.633 235.827 122.812 239.212 113.411 246.827L107.018 251.903V263.937L103.163 266.1C100.155 267.792 98.0865 270.33 93.3858 278.133C88.9671 285.466 85.9587 289.227 81.728 292.706C76.8393 296.748 75.8992 298.158 74.4889 302.953C72.8907 308.406 72.7967 308.5 66.6858 311.226C61.797 313.389 60.0108 313.859 58.1305 313.107C56.0622 312.354 55.216 312.825 50.8914 316.961L46.0027 321.662L42.3361 320.252L38.5755 318.841L38.0115 323.072C37.7294 325.328 37.4474 330.969 37.4474 335.388C37.3534 339.807 36.7893 346.2 36.0372 349.584C35.2851 352.969 34.721 358.233 34.627 361.336C34.627 366.507 35.003 367.541 38.1055 371.959C40.2678 374.874 42.9942 377.318 44.9685 378.164C47.4129 379.105 49.0111 380.797 51.0794 384.651C53.8058 389.822 53.8058 389.916 52.6777 396.497C50.0453 411.727 51.2675 420.189 57.0023 426.676C59.6347 429.684 63.1132 435.701 66.2157 442.282L71.1984 453.094L69.0361 456.29C67.8139 457.982 66.3097 460.709 65.6516 462.307C64.7115 464.657 63.9594 465.221 61.703 465.221C60.1988 465.221 57.1903 465.692 54.934 466.256C51.2675 467.196 50.8914 467.572 49.7632 471.614C49.0111 474.059 48.259 479.324 47.8829 483.366L47.3189 490.699L50.1393 491.357C52.3956 492.015 53.7118 493.52 56.7203 498.879C58.7886 502.545 62.5491 507.716 65.0875 510.254L69.6942 514.955L74.3949 512.605C81.728 508.844 84.6425 509.784 92.6337 518.621C96.2062 522.57 102.693 531.125 106.924 537.612C111.248 544.099 116.419 551.15 118.488 553.219C122.154 557.073 122.248 557.167 120.744 559.988C119.898 561.586 119.24 563.56 119.24 564.406C119.24 565.158 118.206 566.381 116.889 566.945C115.573 567.509 114.539 568.261 114.539 568.637C114.539 569.577 118.676 579.731 121.872 586.5C123.47 589.884 125.257 595.807 125.821 599.662C126.761 605.302 127.701 607.747 130.709 611.883C138.983 623.447 140.863 626.832 140.863 630.216C140.863 633.131 141.145 633.507 143.213 633.507C145 633.507 146.034 634.447 147.82 637.925C149.042 640.464 150.922 643.19 151.957 644.224C153.649 645.635 153.837 646.669 153.367 650.523C153.085 653.25 153.273 655.6 153.837 656.352C154.401 657.01 154.777 658.42 154.777 659.361C154.495 662.933 157.879 671.112 159.572 671.112C162.392 671.112 165.307 673.933 165.307 676.659C165.307 678.163 166.247 680.138 167.657 681.454C168.973 682.676 170.007 684.744 170.007 686.061C170.007 687.377 170.289 689.539 170.665 690.667C171.135 692.642 171.606 692.83 174.144 692.266C182.417 690.573 182.981 690.667 188.998 693.582C192.289 695.086 196.143 697.436 197.553 698.753C199.904 700.915 199.998 701.573 199.622 706.556L199.152 712.009L212.878 722.538L215.416 720.752C217.484 719.248 218.519 719.06 220.963 719.812C222.655 720.376 225.664 721.034 227.544 721.41C230.834 721.88 231.022 722.162 230.552 724.606C230.176 726.581 230.646 728.367 232.527 731.187C235.347 735.418 235.629 735.512 240.424 734.102C245.689 732.598 250.765 733.914 255.184 738.05C259.133 741.623 259.227 741.717 265.15 741.153C268.346 740.871 273.141 740.965 275.773 741.341C280.286 742.093 280.38 742.187 281.414 746.23C282.354 750.178 282.448 750.272 289.123 752.435C292.884 753.563 298.149 754.879 300.875 755.161C305.106 755.725 306.328 756.289 308.49 759.016C310.558 761.648 311.781 762.306 314.413 762.306C316.857 762.306 318.644 763.152 321.746 766.067C324.284 768.417 326.729 769.827 328.233 769.827C329.549 769.827 331.053 770.391 331.43 771.143C333.404 774.622 341.207 779.229 348.258 781.109C352.301 782.143 356.249 782.989 357.095 782.989C357.942 782.989 360.104 784.493 361.89 786.374C367.061 791.826 368.941 792.391 380.787 792.391C391.317 792.391 391.505 792.391 397.051 795.775C400.154 797.655 403.632 800.006 404.855 801.134C406.735 802.92 407.111 802.92 408.427 801.604C409.273 800.758 410.119 797.749 410.401 794.365C410.871 789.382 411.342 788.254 413.504 786.75C417.734 783.741 419.333 784.305 422.905 790.134C424.598 793.049 427.23 796.339 428.734 797.373C430.144 798.408 431.649 800.194 431.931 801.228C432.307 802.262 434.845 805.553 437.571 808.373C440.298 811.287 443.306 815.33 444.152 817.398C444.999 819.373 448.007 824.073 450.733 827.74L455.904 834.415L456.374 849.833C456.656 858.294 456.844 866.286 456.938 867.602C456.938 868.918 456.75 871.927 456.28 874.277C455.716 878.131 455.998 879.354 459.477 886.405C463.425 894.584 464.083 898.156 462.297 903.233C461.451 905.678 461.545 906.618 462.861 908.592C464.366 911.036 464.366 911.13 461.545 914.045C459.007 916.677 458.631 917.711 458.631 922.318C458.631 927.301 458.913 927.865 462.767 931.814C465.024 934.164 468.22 938.959 470.006 942.437C472.827 948.078 473.767 949.206 477.621 951.086C482.416 953.343 483.638 955.599 482.886 960.676C482.51 963.214 482.792 963.59 485.801 964.342C487.681 964.812 501.031 965.377 515.509 965.565C546.628 965.941 549.072 965.471 551.329 959.736C552.175 957.667 553.491 955.975 554.243 955.975C554.901 955.975 556.687 954.847 558.098 953.437C560.26 951.274 561.294 950.992 565.243 951.18C570.413 951.462 574.644 953.719 573.892 955.599C573.516 956.351 573.046 957.479 572.764 958.232C572.388 959.266 573.328 959.924 576.336 960.676C588.37 963.778 591.567 966.129 592.507 972.334C593.071 975.906 593.541 976.564 596.643 977.786C599.558 978.915 600.686 978.915 603.412 977.974C605.199 977.316 607.925 976.752 609.335 976.752C610.84 976.658 612.814 976.188 613.848 975.718C615.352 974.872 616.198 975.248 618.831 978.068C621.557 980.889 622.497 981.359 626.352 981.359C629.736 981.359 631.711 980.701 634.249 978.821C640.172 974.496 644.779 969.795 644.779 968.009C644.779 965.847 645.625 965.847 648.539 967.915C650.419 969.325 653.804 969.701 666.872 970.171C680.692 970.641 683.418 971.017 686.803 972.804C690.093 974.402 692.444 974.778 700.059 974.778C710.306 974.778 708.614 975.436 725.349 965.377C730.143 962.556 730.331 962.274 732.776 954.659L735.126 946.856L749.416 946.292C768.407 945.446 773.202 946.668 777.339 953.155L780.159 957.573L785.142 956.727C787.962 956.163 790.971 954.941 792.381 953.625C795.013 951.18 802.346 949.394 809.585 949.394C814.192 949.394 814.85 949.018 820.209 944.411L826.038 939.335L841.174 938.771L856.31 938.3L860.917 935.01C863.455 933.13 867.686 930.967 870.413 930.215C873.045 929.463 877.652 927.301 880.66 925.421C883.669 923.634 886.771 922.13 887.523 922.13C894.104 922.13 918.36 911.695 929.547 903.985C933.496 901.259 938.761 897.122 941.205 894.584C945.342 890.447 946.094 890.165 950.419 890.165C955.401 890.165 957.188 888.943 960.102 883.584C961.982 880.106 962.64 873.243 961.418 869.388C960.572 866.286 960.666 865.816 962.922 863.559C966.119 860.363 966.025 859.423 962.358 857.824C959.82 856.79 959.068 856.79 958.222 857.824C957.564 858.577 955.965 858.859 953.333 858.482L949.478 857.918L948.914 846.449L945.436 846.167C942.991 845.979 941.863 846.261 941.863 847.107C941.863 847.765 941.487 848.893 941.017 849.645C940.265 850.773 939.137 850.303 934.812 847.295C931.898 845.32 928.043 842.03 926.257 840.15L923.06 836.577V839.398C923.06 841.56 922.684 842.218 921.18 842.218C919.676 842.218 919.3 841.56 919.3 839.304C919.3 837.611 918.83 834.697 918.172 832.629C915.915 825.013 906.514 823.697 899.933 830.09L896.736 833.193V830.372C896.736 828.398 897.771 826.612 900.309 824.073C902.283 822.193 904.352 820.595 905.01 820.595C905.668 820.595 906.138 819.937 906.138 819.185C906.138 818.432 906.89 817.116 907.924 816.27C909.616 814.766 909.616 814.484 906.42 805.647C904.634 800.664 902.471 793.989 901.625 790.698C900.403 786.186 899.275 784.211 896.924 782.331C895.138 781.015 893.352 778.947 892.882 777.724C892.412 776.408 891.002 774.998 889.591 774.528C887.523 773.682 887.335 773.306 888.275 772.178C888.933 771.425 890.25 770.767 891.19 770.767C892.13 770.767 893.54 769.639 894.292 768.135C895.42 765.973 895.42 765.221 894.292 763.246C893.634 761.93 892.976 759.58 892.976 758.075C892.976 754.503 892.224 753.563 888.557 751.588L885.455 749.99V752.905C885.455 755.443 885.173 755.819 883.386 755.537C881.6 755.349 881.13 754.597 880.942 751.682C880.66 748.486 880.848 748.204 883.104 748.204C885.925 748.204 887.335 745.384 887.335 739.743C887.335 735.324 884.797 733.162 879.532 733.162C876.241 733.162 875.959 732.974 876.617 730.999C877.558 727.991 877.37 727.991 884.139 729.307C889.403 730.435 890.532 730.341 891.19 729.307C892.882 726.581 892.036 723.948 888.745 721.88C886.865 720.752 884.797 718.684 884.139 717.273C883.386 715.863 881.694 714.171 880.378 713.419C877.746 712.009 877.276 709.564 878.874 705.333C879.626 703.453 879.532 702.419 878.498 701.291C875.489 697.906 872.481 689.915 871.541 683.334C870.695 676.941 870.789 676.001 872.387 673.745C873.609 671.958 874.173 669.608 874.173 665.942V660.771L878.028 661.335L881.882 661.993L881.6 657.856C881.318 654.19 881.506 653.72 883.574 653.25C885.361 652.874 886.019 652.028 886.207 649.677C886.583 645.823 885.267 645.823 877.746 649.583L872.011 652.498L872.575 649.113C873.045 646.293 872.857 645.729 871.447 645.729C870.224 645.729 869.472 644.788 869.096 642.814C868.25 638.396 869.378 635.575 872.857 633.413L876.053 631.438L875.395 616.114L874.831 600.696L877.182 600.132C879.156 599.662 879.908 598.345 881.694 592.423C882.916 588.568 884.797 584.807 885.737 584.149C887.241 583.115 887.335 582.551 886.395 580.859C884.985 578.226 885.549 577.662 888.557 579.073C891.848 580.577 895.702 579.449 896.736 576.534C898.335 572.492 897.771 562.338 895.702 555.945C893.822 550.022 893.634 549.74 889.779 548.8C886.677 548.048 885.361 547.108 884.327 544.851C883.01 542.219 880.19 538.646 871.729 529.057C869.378 526.425 862.233 520.408 856.78 516.459C854.712 514.955 851.234 512.134 849.165 510.066C846.251 507.34 844.747 506.588 843.336 506.964C841.55 507.622 841.456 507.434 842.302 504.519C842.772 502.827 843.148 498.596 843.148 495.024C843.148 489.101 842.866 488.349 839.482 483.742C834.405 476.973 834.029 474.341 836.943 466.162C838.26 462.495 839.388 458.452 839.388 457.324C839.388 456.102 840.704 452.624 842.208 449.615C843.807 446.513 845.311 441.812 845.687 438.898C846.063 435.513 847.191 432.411 848.789 429.966C852.362 424.701 854.43 419.531 854.43 415.676C854.43 413.608 855.746 410.317 858.191 406.275C862.233 399.506 862.703 398.001 860.541 398.847C858.473 399.6 858.755 396.873 861.481 389.634C862.797 386.062 863.832 381.361 863.832 378.728C863.832 374.122 865.336 369.327 866.746 369.327C867.216 369.327 867.968 370.267 868.626 371.301C869.66 373.276 869.66 373.276 871.353 370.737C872.951 368.293 872.951 368.105 871.165 365.002C869.66 362.464 869.378 360.866 869.848 357.763C870.413 354.097 870.224 353.533 867.404 350.806C865.712 349.208 863.173 347.61 861.857 347.234C860.541 346.952 835.345 327.021 805.919 303.047C756.937 263.091 752.237 258.954 749.886 254.442C748.382 251.433 744.998 247.203 741.237 243.818L735.126 238.177L742.647 225.956L742.365 214.862C742.083 206.777 741.613 203.486 740.579 202.546C739.921 201.888 716.041 187.88 687.555 171.427C659.163 154.975 624.001 134.574 609.617 125.924C595.139 117.369 550.106 91.0453 509.492 67.4478L435.597 24.5773L433.153 26.2695C431.837 27.2097 428.358 30.3121 425.444 33.1326C422.529 36.047 419.145 38.5854 417.923 38.8674C416.512 39.2435 415.008 40.8417 414.068 42.91C412.47 46.1065 412.47 46.3886 414.068 47.5167C415.008 48.1749 416.888 48.7389 418.393 48.7389C420.273 48.7389 421.307 49.491 422.435 51.5593C423.281 53.0636 423.751 54.3798 423.657 54.3798C423.469 54.3798 419.803 53.7217 415.384 52.9695C410.965 52.2175 407.299 51.5593 407.205 51.5593C407.111 51.5593 407.393 52.6875 407.863 54.0037C409.367 57.8583 408.991 58.5164 406.265 56.7301C403.914 55.1319 403.82 55.1319 404.479 56.8242C404.855 57.8583 405.419 59.7386 405.701 61.2428C406.077 63.0291 406.923 63.9692 408.709 64.3453C410.025 64.6273 411.906 65.2854 412.846 65.7555C414.068 66.4136 415.008 66.4136 415.948 65.5674C416.982 64.7213 417.264 64.8153 417.264 65.9435C417.264 70.5502 413.974 71.5844 408.615 68.858C407.017 68.0118 404.479 67.5418 402.974 67.7298C401.47 68.0118 399.872 67.6357 399.308 66.8837C398.086 65.4735 395.077 65.2854 394.231 66.6016C393.949 67.0717 394.137 68.3879 394.701 69.422C395.641 71.1143 395.453 71.3023 393.009 71.3023C388.59 71.3023 388.684 72.5245 393.385 76.5671C399.59 81.9259 398.838 83.5242 389.906 83.5242C382.479 83.5242 381.633 84.6523 387.18 87.4727C388.872 88.3188 390.752 89.5411 391.223 90.0111C393.009 91.7974 391.223 92.1735 388.214 90.6692C384.453 88.6949 384.359 88.6949 384.359 92.3615C384.359 94.8058 383.889 95.652 382.291 96.122C378.061 97.2502 375.24 96.6861 373.078 94.3358C370.915 91.9854 370.821 91.9854 368.941 93.7717C367.813 94.7119 366.027 96.028 364.899 96.5921C363.676 97.1562 362.736 98.2844 362.736 98.9424C362.736 99.6006 361.89 101.293 360.856 102.515L359.07 104.865L361.232 105.899C362.924 106.652 363.77 106.558 364.805 105.523C366.779 103.549 374.77 101.293 375.522 102.421C375.804 102.985 376.368 104.489 376.744 105.899C377.308 107.968 378.249 108.532 382.103 109.378C384.642 109.848 386.71 110.788 386.71 111.258C386.71 113.045 382.573 112.763 378.155 110.882C373.078 108.532 368.847 109.096 369.599 111.822C369.975 113.327 369.505 113.609 365.933 113.609C363.488 113.609 361.796 114.079 361.796 114.643C361.796 115.677 360.104 115.489 355.685 114.079C353.899 113.515 353.805 113.891 354.087 119.25C354.369 124.232 354.651 124.89 355.967 124.326C359.728 122.822 361.89 122.822 363.77 124.514C365.369 125.924 367.343 126.301 372.984 126.395C376.932 126.395 382.385 127.053 385.206 127.805C389.248 128.839 390.376 128.839 390.752 127.899C391.317 126.113 400.812 120.19 403.068 120.19C405.983 120.19 409.743 124.232 409.743 127.429C409.649 131.565 407.017 133.916 399.12 136.736C394.795 138.24 391.129 140.121 390.094 141.437C389.06 142.659 387.65 143.693 386.898 143.693C385.112 143.693 381.539 148.112 381.539 150.274C381.539 151.402 380.787 151.872 379.001 151.872C377.496 151.872 374.582 152.625 372.42 153.471C370.163 154.317 365.463 155.257 361.89 155.539C354.745 156.197 354.745 156.291 349.574 148.77C347.6 145.856 346.096 144.727 343.557 144.257C338.763 143.317 334.532 144.351 330.959 147.266C327.951 149.71 327.857 150.18 327.293 158.359C326.823 165.222 327.011 167.385 328.327 169.923C330.207 173.496 329.831 174.248 326.635 173.402C324.943 173.026 324.096 171.991 323.72 170.205C323.438 168.795 322.498 165.504 321.746 162.872C320.524 159.017 320.43 157.607 321.37 156.009C322.874 153.189 322.216 152.813 316.481 152.719L311.499 152.625L308.96 147.454C306.61 142.753 306.422 142.565 306.328 145.103C306.328 148.864 302.849 152.719 299.089 153.471C296.456 153.941 295.986 153.753 295.986 152.154C295.986 150.744 295.328 150.274 293.354 150.274C291.85 150.274 289.875 149.428 289.029 148.488C287.431 146.702 287.431 146.608 290.533 145.291C293.824 143.881 297.866 139.275 297.866 136.924C297.866 136.266 297.208 134.856 296.456 133.916C295.046 132.129 295.046 132.129 292.884 134.104C290.251 136.548 289.405 136.736 289.405 134.668C289.405 133.728 288.747 133.352 287.807 133.54C286.867 133.728 286.209 134.292 286.209 134.856C286.303 135.326 286.585 137.488 286.961 139.651L287.525 143.693H282.824C279.252 143.693 277.936 143.317 277.183 141.907C275.773 139.18 275.961 138.992 279.816 138.898C282.918 138.898 283.106 138.71 281.508 137.77C280.568 137.112 278.688 135.514 277.465 134.104C276.149 132.694 274.551 131.847 273.799 132.129C273.047 132.411 271.825 132.129 271.072 131.471C269.286 130.061 269.38 129.967 267.876 134.95C266.654 139.369 263.363 141.813 258.569 141.813C257.064 141.813 255.278 142.377 254.714 143.129C253.116 145.009 256.5 150.18 260.167 151.778C261.765 152.436 263.081 153.659 263.081 154.599C263.081 155.727 262.611 155.915 261.483 155.351C260.543 154.975 258.663 154.599 257.158 154.505C255.748 154.411 253.586 153.377 252.458 152.248L250.201 150.274L249.167 152.625C248.509 154.035 248.321 156.667 248.603 158.829C249.073 161.838 248.979 162.496 247.663 162.496C245.595 162.496 245.783 163.812 248.415 167.949C249.731 169.829 251.047 172.65 251.424 174.154L252.082 176.88L249.073 174.624C247.005 173.12 246.159 171.709 246.159 169.829C246.159 165.88 243.526 165.316 240.894 168.701C239.672 170.205 237.98 171.427 237.227 171.427C235.441 171.427 233.937 173.59 233.937 176.222C233.937 177.35 233.279 178.76 232.527 179.419C231.305 180.453 231.116 179.795 231.116 174.812C231.116 168.325 232.245 165.316 234.689 165.222C235.535 165.222 234.125 164.188 231.493 163.06C228.766 161.838 225.758 159.488 224.535 157.795C222.373 154.787 222.373 154.693 224.065 153.471C225.006 152.719 226.51 152.154 227.356 152.154C228.202 152.154 229.706 151.496 230.74 150.744C232.527 149.334 232.527 149.334 230.364 147.454C228.954 146.326 228.296 145.009 228.672 143.975C229.33 141.813 227.45 139.369 224.441 138.146C222.467 137.488 221.809 137.676 220.963 139.086C219.741 141.061 215.134 141.531 215.134 139.651C215.134 139.086 216.262 135.514 217.578 131.941C221.057 122.634 221.433 120.19 219.365 120.19C217.766 120.19 217.766 120.096 219.177 118.497C220.869 116.617 221.433 109.848 219.929 109.848C219.459 109.848 217.954 110.224 216.638 110.788C214.57 111.54 214.194 111.446 214.194 110.036C214.194 108.062 217.484 101.575 219.929 98.9424C221.245 97.5322 221.903 94.9938 222.279 89.5411C222.561 85.4984 223.689 79.9516 224.724 77.2252C226.04 73.7467 226.416 71.3023 225.946 68.6699C225.476 65.9435 225.758 64.7213 226.792 63.7812C228.014 62.8411 228.296 62.8411 228.296 63.8752C228.39 66.9777 231.116 61.2428 231.116 57.9523C231.116 56.072 232.057 52.6875 233.185 50.4312C234.877 47.1407 235.253 44.8843 235.347 36.7991C235.347 31.4403 235.723 27.1157 236.099 27.1157C236.475 27.1157 236.381 26.2695 235.817 25.2354C234.783 23.2611 231.587 22.791 229.236 24.2952C228.202 24.9534 227.732 24.6713 227.356 23.0731C226.886 21.1928 225.946 20.9108 218.425 20.1586C213.724 19.6885 205.921 19.4065 201.032 19.5945C187.87 20.0646 180.819 19.9706 162.016 19.3125C148.948 18.7484 144.059 18.9365 140.581 19.9706Z" fill="white"/>
<path d="M334.532 95.6484C334.532 98.4688 335.096 99.785 336.694 100.913C338.669 102.323 338.857 102.229 340.831 99.973C343.933 96.4005 341.959 91.9818 337.258 91.9818C334.72 91.9818 334.532 92.2639 334.532 95.6484Z" fill="white"/>
<path d="M324.567 104.112C320.336 106.745 319.772 107.967 322.31 109.847L324.473 111.445L322.31 112.95C320.618 114.078 320.43 114.736 321.276 116.24C322.404 118.402 323.626 118.873 330.489 119.719C333.404 120.095 335.942 121.035 336.976 122.163C337.823 123.103 339.609 123.949 340.925 123.949C342.241 123.949 344.78 124.419 346.472 125.077C350.42 126.488 351.173 125.642 350.702 119.813C350.42 116.24 349.95 115.394 348.258 114.924C347.13 114.642 345.72 113.232 345.156 111.633C344.122 109.001 343.933 108.907 338.011 108.907C331.43 108.907 328.891 107.591 328.891 104.112C328.891 101.856 328.233 101.856 324.567 104.112Z" fill="white"/>
<path d="M229.236 130.531C229.236 133.728 229.612 136.172 230.176 136.172C232.057 136.172 234.877 142.189 234.407 144.822C233.655 148.018 234.689 148.582 239.014 147.266C241.928 146.326 242.398 145.856 241.834 144.257C241.552 143.129 241.176 140.967 241.082 139.463C240.988 137.3 240.33 136.266 238.167 135.232C236.099 134.198 235.253 133.07 235.065 131.001C234.783 128.463 231.869 124.985 229.988 124.891C229.518 124.891 229.236 127.429 229.236 130.531Z" fill="white"/>
<path d="M246.441 131.095C243.057 133.727 242.493 135.231 244.843 135.231C245.877 135.231 246.253 135.796 245.877 137.112C245.501 138.522 246.065 139.368 247.946 140.308C251.8 142.377 253.681 140.778 253.681 135.419C253.681 128.368 251.424 127.052 246.441 131.095Z" fill="white"/>
<path d="M911.967 377.508C911.967 382.115 912.625 385.406 914.317 389.448C916.48 394.713 916.574 395.183 915.069 396.217C913.565 397.345 913.565 397.534 915.069 400.166C916.668 402.798 916.668 402.892 913.283 407.311C909.429 412.482 909.335 412.764 911.497 416.43C912.907 418.875 913.565 419.157 916.01 418.593C919.206 417.935 920.24 416.806 920.24 413.798C920.24 412.67 921.744 409.285 923.531 406.277C927.103 400.354 927.667 396.311 925.787 389.918C924.847 387.004 924.941 385.5 926.257 381.645C927.103 379.107 927.761 375.816 927.761 374.406C927.761 371.868 927.761 371.868 925.881 373.56C924.001 375.252 923.719 375.252 919.018 373.654C916.386 372.714 913.659 371.774 913.001 371.586C912.249 371.21 911.967 372.996 911.967 377.508Z" fill="white"/>
<path d="M878.592 448.864C878.404 449.334 877.84 451.214 877.464 453C877.087 454.786 875.865 457.325 874.643 458.641C873.515 459.957 872.199 462.026 871.823 463.248L871.07 465.598L869.472 463.53C868.532 462.496 867.592 461.838 867.216 462.12C866.934 462.496 866.652 466.444 866.652 470.957C866.652 482.145 869.19 490.418 873.421 492.768C875.395 493.896 876.617 494.178 876.805 493.52C876.993 492.956 878.78 493.708 880.754 495.307C883.386 497.375 884.985 498.033 886.583 497.657C888.463 497.187 888.933 497.751 890.813 502.546C892.6 506.964 893.54 508.281 895.89 509.127C899.181 510.349 902.847 509.221 902.095 507.246C901.907 506.588 900.685 502.358 899.557 497.845L897.394 489.572L893.258 488.444C889.403 487.409 889.215 487.221 889.215 483.931C889.215 480.264 887.241 474.717 884.515 470.863C882.446 467.854 881.694 461.65 882.728 456.573C883.574 453.094 883.48 452.436 881.412 450.368C880.096 449.146 878.874 448.488 878.592 448.864Z" fill="white"/>
<circle id="675" cx="572" cy="479" fill="#5CE50D"/>
<circle id="672" cx="880" cy="569" fill="#E52A0D"/>
<circle id="673" cx="333" cy="164" fill="#E52A0D"/>
<circle id="674" cx="639" cy="224" fill="#E52A0D"/>
</svg>
