<svg width="1000" height="1000" viewBox="0 0 1000 1000" fill="none" xmlns="http://www.w3.org/2000/svg">
<path d="M623.145 165.623C618.555 166.6 615.918 166.697 613.379 166.014C608.301 164.647 603.516 164.842 602.93 166.404C602.637 167.186 599.512 169.725 596.094 171.971C590.918 175.291 589.551 175.779 588.379 174.803C587.11 173.826 586.524 173.826 585.059 175.193C583.789 176.365 582.422 176.561 579.981 176.072C575.684 175.291 570.606 173.143 569.825 171.873C569.532 171.385 568.164 170.897 566.895 170.897C565.625 170.897 564.258 170.408 563.965 169.92C563.672 169.334 562.696 168.943 561.914 168.943C560.742 168.943 560.547 169.822 561.035 173.143C561.524 176.365 561.328 177.635 560.157 178.611C558.789 179.686 558.789 180.174 560.059 181.834C561.231 183.592 561.231 184.178 559.766 186.326C558.887 187.693 556.446 190.037 554.297 191.502C548.926 195.408 543.653 195.408 539.551 191.404C536.914 188.768 536.133 188.572 533.887 189.354C532.325 189.939 530.274 190.037 528.125 189.354C526.367 188.865 523.145 188.475 521.094 188.475C518.946 188.475 516.504 187.791 515.625 187.01C514.16 185.643 513.672 185.74 511.426 187.596C509.961 188.67 508.789 190.428 508.789 191.404C508.789 193.162 504.883 194.92 503.907 193.455C502.539 191.404 497.559 190.721 494.434 192.186C492.676 193.064 491.211 194.139 491.211 194.627C491.211 195.506 488.086 199.705 483.008 205.369C481.543 207.127 479.395 210.154 478.418 212.205C477.344 214.256 475 217.576 473.242 219.529C471.387 221.482 469.629 224.607 469.239 226.365C468.262 230.955 468.36 236.424 469.434 237.205C470.899 238.182 471.778 242.967 470.606 243.65C469.922 244.139 470.02 244.822 470.996 245.897C473.34 248.631 473.926 252.049 472.657 255.955C471.582 259.178 470.996 259.764 468.555 259.764C466.992 259.764 465.528 259.178 465.235 258.299C464.844 257.518 463.867 256.834 462.989 256.834C462.012 256.834 460.352 255.857 459.082 254.783C457.227 253.123 456.934 252.049 457.52 249.314C458.008 246.58 457.617 245.311 455.664 242.674C452.246 238.279 447.071 237.303 441.504 240.135C438.184 241.893 437.207 241.99 435.45 241.014C433.789 239.939 433.301 240.037 432.129 241.502C430.274 244.139 427.344 243.26 426.953 239.939C426.66 237.889 426.075 237.303 424.317 237.303C423.047 237.303 421.094 238.182 420.02 239.354C418.946 240.525 417.676 241.111 417.09 240.818C416.504 240.428 415.821 241.6 415.43 243.65C414.746 247.459 414.746 247.459 412.012 245.994C410.45 245.213 409.473 245.311 407.617 246.58C405.567 247.947 405.274 247.947 405.274 246.58C405.274 245.799 404.492 244.627 403.418 243.943C402.051 243.064 401.66 241.99 402.051 239.256C402.93 232.615 395.41 226.854 391.211 230.955C390.43 231.736 388.575 232.322 387.012 232.225C380.664 231.834 379.2 232.322 376.563 236.326C375.196 238.475 373.438 240.232 372.754 240.232C372.071 240.232 371.094 238.377 370.508 236.033C369.629 231.932 369.629 231.932 363.965 231.053C359.18 230.272 358.008 230.369 356.739 231.736C355.176 233.201 354.883 233.104 352.344 229.197C350.879 226.951 349.61 224.51 349.61 223.826C349.61 221.971 345.703 222.459 345.02 224.314C343.067 230.076 336.719 232.225 333.008 228.514C331.934 227.439 329.883 226.561 328.516 226.561C326.172 226.561 325.977 226.756 326.563 229.881C327.149 232.811 326.856 233.494 324.219 235.35C319.434 238.768 317.578 235.643 321.289 230.467L323.34 227.635L318.262 226.072C312.207 224.314 310.157 224.217 307.52 225.584C306.25 226.268 305.078 226.268 303.809 225.584C302.442 224.9 301.075 224.9 299.219 225.584C296.778 226.561 296.68 226.463 297.071 223.729C297.364 221.775 297.071 220.604 296.094 220.213C295.02 219.822 294.825 218.65 295.313 215.33L295.996 210.936H290.821C287.891 210.936 285.059 211.424 284.473 212.01C283.692 212.791 282.813 212.791 281.446 212.01C280.371 211.424 278.516 210.936 277.344 210.936C276.27 210.936 274.219 209.764 272.95 208.397C269.727 204.979 265.918 204.1 262.012 205.857C258.301 207.615 255.86 206.346 255.86 202.439C255.86 200.584 255.371 200.096 253.711 200.193C245.801 200.877 242.09 200.193 239.649 197.557C237.598 195.408 236.231 194.822 232.617 194.725C230.078 194.725 226.758 193.943 225.098 193.162C222.657 191.99 220.313 191.893 212.012 192.576C202.832 193.357 201.66 193.26 199.805 191.6C195.606 187.889 193.36 187.596 186.524 189.842C179.981 191.893 173.828 192.186 158.789 191.111C152.344 190.623 151.856 190.721 147.754 193.65C144.532 196.092 143.653 197.361 143.75 199.217C144.043 202.439 143.164 203.709 138.575 206.639C136.426 208.006 133.496 210.35 132.032 212.01C129.59 214.647 129.102 214.842 126.075 213.963C124.219 213.377 122.364 213.182 121.875 213.572C121.289 213.865 121.192 213.279 121.582 212.01C122.071 210.447 121.68 209.764 119.825 209.08C118.457 208.494 117.09 207.713 116.797 207.225C116.504 206.639 114.453 206.932 111.817 207.908C108.594 209.08 107.52 209.861 108.008 210.936C108.399 211.717 108.496 213.084 108.399 213.865C108.301 214.647 108.301 218.455 108.301 222.361C108.301 226.268 107.91 229.686 107.422 229.979C106.153 230.76 106.153 238.279 107.422 238.279C107.91 238.279 109.18 240.135 110.157 242.381C111.133 244.725 112.696 247.166 113.575 247.947C114.551 248.631 115.235 250.682 115.235 252.537C115.235 254.295 115.723 256.053 116.211 256.346C116.797 256.639 117.188 257.713 117.188 258.689C117.188 259.666 117.774 261.033 118.555 261.619C119.239 262.205 120.117 264.061 120.508 265.721C120.801 267.381 122.364 269.92 124.024 271.482C125.586 272.947 126.953 275.096 126.953 276.17C126.953 277.928 126.563 278.123 124.024 277.342C121.289 276.561 120.899 276.756 120.02 279.002C119.336 280.955 119.434 282.42 120.606 284.861C121.485 286.619 122.559 288.084 123.047 288.084C124.805 288.084 123.926 299.217 121.778 305.174L119.629 311.033L103.418 312.01L98.8284 317.088C96.2894 319.92 90.723 324.705 86.5237 327.732C77.4417 334.08 58.7894 352.635 53.3206 360.643C50.9769 363.963 48.7308 366.209 47.6565 366.209C46.5823 366.209 45.8987 366.893 45.8987 367.967C45.8987 368.943 44.4339 370.408 42.6761 371.385C38.6722 373.631 36.2308 379.1 38.2815 381.541C39.1605 382.713 39.5511 386.229 39.3558 394.432C39.3558 400.682 39.0628 406.834 38.8675 408.201C38.6722 409.959 39.2581 410.936 41.2112 411.912C44.6292 413.475 46.094 416.209 45.7034 419.92L45.4105 422.752L38.2815 419.822C29.1995 416.209 27.8323 416.209 26.5628 419.92C25.8792 421.775 24.219 423.436 22.0706 424.51C18.9456 425.975 18.555 426.561 18.555 429.783C18.555 432.029 17.969 433.787 17.0901 434.275C16.3089 434.764 15.0394 437.01 14.1605 439.451C12.598 443.846 9.27764 448.729 4.78546 453.318C0.195612 457.908 -0.487981 461.912 1.85577 469.041C4.00421 475.486 8.20342 482.42 9.86358 482.42C10.4495 482.42 13.2815 484.666 16.2112 487.4C19.9222 491.014 21.4847 493.162 21.4847 495.018C21.4847 499.119 22.7542 500.096 28.5159 500.389C35.9378 500.779 36.5237 501.365 35.7425 506.639C35.3519 509.373 35.5472 511.522 36.2308 512.303C37.8909 514.354 39.0628 513.963 39.0628 511.229C39.0628 508.885 39.3558 508.787 42.7737 509.373C45.8011 509.861 46.8753 509.568 48.8284 507.615C50.1956 506.346 51.7581 504.393 52.344 503.416C53.7112 500.975 58.2034 502.147 59.0823 505.174C59.473 506.346 61.1331 508.787 62.7933 510.545C65.6253 513.475 66.3089 513.67 72.0706 513.67C80.1761 513.67 86.719 515.33 87.9886 517.772C88.8675 519.432 89.6487 519.627 94.6292 519.041C99.805 518.455 100.586 518.65 106.153 521.873C112.305 525.486 114.453 525.584 120.508 522.361C122.266 521.287 130.469 521.971 132.52 523.24C133.008 523.631 134.375 525.975 135.45 528.416C136.719 531.15 138.672 533.689 140.528 534.764C142.188 535.74 144.141 538.084 145.02 540.232C146.192 543.357 146.973 543.943 149.317 543.943C155.86 543.943 158.399 542.674 164.844 536.131C170.996 529.979 171.778 529.49 176.758 528.904C179.785 528.514 185.938 528.514 190.43 528.807C195.41 529.197 200.684 529.002 203.614 528.318C206.348 527.635 211.231 527.147 214.551 527.147C220.41 527.147 220.703 527.049 222.657 523.826C223.828 522.068 225.782 519.725 226.953 518.846C228.125 517.869 229.492 516.014 229.785 514.647C230.762 510.936 231.543 510.35 236.817 508.982C242.676 507.518 250.586 502.342 251.465 499.51C251.953 497.654 252.051 497.654 253.028 499.217C254.395 501.658 259.766 501.561 259.766 499.217C259.766 498.338 258.887 496.971 257.813 496.287C255.274 494.725 255.274 492.186 257.715 492.186C258.789 492.186 261.719 493.26 264.16 494.529C269.239 497.264 271.485 496.971 271.485 493.553C271.485 490.721 272.559 490.623 274.903 493.162C276.27 494.725 277.442 495.018 279.59 494.529C281.641 494.139 282.715 494.432 283.594 495.701C285.059 497.654 287.11 496.775 287.11 494.236C287.11 493.357 287.696 491.697 288.477 490.623C289.844 488.865 289.942 488.865 290.528 491.502C291.407 494.822 294.141 495.018 296.289 491.795C298.535 488.279 301.563 487.596 303.418 490.232C304.688 491.99 305.469 492.186 309.082 491.697C313.086 491.014 313.282 491.111 315.43 494.822C319.239 501.072 321.387 502.928 324.805 502.928C328.223 502.928 329.297 503.904 329.492 507.225C329.59 508.689 330.371 509.373 332.325 509.568C333.789 509.764 334.961 510.545 334.961 511.229C334.961 513.475 336.719 513.865 339.063 512.303C342.09 510.154 344.727 510.35 344.727 512.596C344.727 513.572 344.141 514.939 343.36 515.525C342.578 516.111 341.797 517.576 341.504 518.553C340.821 521.189 343.262 521.092 345.117 518.357L346.582 516.307L347.461 518.65C347.95 519.92 348.535 521.873 348.731 522.85C349.317 525.877 351.27 525.682 351.856 522.654C352.539 519.041 357.617 516.6 360.45 518.357C361.426 519.041 363.575 519.236 365.332 518.846C369.043 518.162 371.094 520.213 371.094 524.705C371.094 526.268 371.973 528.611 373.047 529.979C374.121 531.346 375 533.299 375 534.373C375 535.838 375.391 536.033 376.563 535.35C377.637 534.764 379.2 534.959 381.055 535.838C383.692 537.205 384.082 537.205 386.328 535.057C389.16 532.42 390.332 533.201 390.821 538.084C391.016 540.623 391.504 541.502 392.871 541.404C394.922 541.209 394.825 540.916 393.067 545.311C391.7 548.631 391.797 549.314 393.848 548.924C394.336 548.826 393.946 549.803 393.164 550.975C392.285 552.147 391.602 555.076 391.602 557.42C391.602 560.447 390.918 562.596 389.063 564.939C387.5 567.088 386.817 568.748 387.305 569.529C387.793 570.213 387.989 573.143 387.793 575.975C387.598 580.272 387.696 580.955 389.063 580.467C389.942 580.174 391.211 580.272 391.895 580.857C392.481 581.346 394.239 582.029 395.606 582.322C398.047 582.908 398.828 584.275 400.782 590.135C401.758 593.26 404.297 593.162 407.813 589.744L411.133 586.522V590.037C411.133 591.99 410.645 593.943 410.059 594.236C409.375 594.725 409.278 596.678 409.668 599.705C410.254 603.611 410.059 604.49 408.887 604.49C406.153 604.49 406.055 606.346 408.594 608.787C411.231 611.131 412.207 617.381 410.157 618.65C408.399 619.725 410.059 620.897 414.16 621.58C417.09 622.068 418.36 622.85 419.043 624.705C419.825 626.854 420.41 627.147 423.828 626.756C426.953 626.463 427.735 626.756 427.735 628.025C427.735 628.904 428.614 630.369 429.688 631.346C431.348 632.908 431.641 634.373 431.641 642.772C431.641 651.658 431.543 652.342 429.688 652.342C426.953 652.342 427.246 653.904 430.371 656.834C431.934 658.201 434.18 660.35 435.547 661.619C436.914 662.791 439.063 664.354 440.332 665.037C442.383 666.111 442.481 666.307 441.114 667.674C439.844 668.943 438.867 669.041 435.45 668.162C430.957 666.99 429.688 667.283 429.688 669.529C429.688 672.85 425.196 669.529 422.364 664.158C420.703 660.936 418.946 660.154 418.946 662.693C418.946 663.768 418.36 663.963 417.09 663.572C415.625 663.084 414.746 663.768 413.379 666.209C411.817 669.041 411.621 669.236 411.328 667.283C411.133 666.111 409.864 664.744 408.399 664.158C406.934 663.572 405.274 662.107 404.785 660.936C403.418 658.006 401.66 657.713 400.879 660.057C400.098 662.693 398.731 662.693 397.95 660.154C397.657 659.08 396.973 658.201 396.485 658.201C395.313 658.201 394.141 662.693 395.02 663.963C395.313 664.549 394.922 665.037 394.141 665.037C393.36 665.037 392.285 665.818 391.7 666.697C391.211 667.674 390.43 668.162 390.137 667.772C389.746 667.381 389.844 666.6 390.235 665.818C390.625 665.135 391.016 662.107 391.114 658.982C391.211 653.807 391.016 653.318 389.063 653.318C387.891 653.318 386.426 654.002 385.742 654.783C385.059 655.564 383.301 656.248 381.739 656.248C379.883 656.248 378.418 657.029 377.442 658.592C376.563 659.861 375.098 661.131 374.121 661.424C372.364 661.814 372.364 662.303 373.438 667.674C374.317 671.775 374.414 674.119 373.633 675.682C372.754 677.635 373.047 678.318 375.782 680.76C377.539 682.322 378.907 683.787 378.907 684.08C378.907 684.275 377.539 686.522 375.782 688.963C373.047 692.869 372.754 693.65 373.926 695.408C374.61 696.58 375 697.557 374.805 697.752C374.61 697.85 372.071 698.729 369.141 699.705C361.426 702.147 360.547 703.221 361.133 709.08C361.524 713.475 361.328 714.061 359.473 714.549C358.301 714.842 357.422 715.818 357.422 716.893C357.422 718.357 356.739 718.748 354.004 718.748C351.563 718.748 350.586 719.139 350.586 720.311C350.586 721.287 350 721.678 349.121 721.287C347.266 720.604 345.41 727.049 346.289 731.346C346.68 733.299 346.582 734.373 345.801 734.373C345.215 734.373 344.727 735.643 344.727 737.303C344.727 740.525 342.871 741.209 340.821 738.768C338.965 736.619 332.422 736.912 330.078 739.256C327.735 741.6 327.539 743.162 329.59 743.162C330.469 743.162 331.055 744.041 331.055 745.604C331.055 749.119 333.301 753.025 336.621 755.467C341.797 759.275 349.317 762.596 354.297 763.279C359.668 763.963 363.672 763.182 361.524 761.815C360.547 761.229 360.547 760.35 361.231 758.494C362.403 755.369 363.672 755.272 367.969 757.811C371.875 760.154 371.778 760.154 372.364 757.811C372.852 755.857 374.414 754.979 381.543 752.83C383.887 752.244 386.426 750.877 387.305 749.803C388.575 748.533 390.332 748.045 394.727 748.045C401.172 748.045 405.176 749.51 410.157 753.709C412.989 756.15 413.575 757.42 414.063 761.619C415.137 772.166 419.141 765.623 419.532 752.732L419.825 744.236L415.43 744.822C412.403 745.213 411.133 745.018 411.133 744.236C411.133 741.795 422.657 731.053 433.301 723.436C439.942 718.748 446.973 712.791 450.977 708.299C459.18 699.217 460.45 697.068 459.473 694.725C458.985 693.65 457.91 690.916 457.129 688.572C455.762 685.057 454.785 683.982 451.563 682.713C449.414 681.834 446.485 680.272 445.215 679.197C440.528 675.486 440.918 668.943 445.899 668.943C447.364 668.943 448.145 669.334 447.754 670.018C446.875 671.385 449.903 674.607 454.297 676.854C458.594 679.002 459.473 680.272 459.18 683.69C459.082 685.447 459.668 686.522 461.426 687.498C463.379 688.572 463.575 689.061 462.793 690.623C462.207 691.6 461.914 693.26 462.11 694.139C462.403 695.506 462.696 695.311 463.77 693.357C467.188 687.01 476.075 672.166 477.539 670.408C478.516 669.334 479.688 667.088 480.274 665.428C481.055 662.791 480.957 662.01 479.395 660.447C476.172 657.322 477.93 655.564 484.668 654.783C487.989 654.393 493.262 653.221 496.387 652.147C500.977 650.486 502.442 650.291 504.492 651.268C508.887 653.221 511.719 652.537 515.235 648.729C517.09 646.775 518.848 645.506 519.239 645.799C519.629 646.189 519.336 647.068 518.75 647.654C518.067 648.338 517.578 649.119 517.578 649.51C517.578 650.779 522.657 651.463 524.024 650.389C524.903 649.607 527.637 649.412 532.422 649.9C542.871 650.877 544.532 648.826 542.481 637.596C541.7 633.592 544.043 627.928 546.387 627.928C548.145 627.928 548.34 629.49 546.778 630.467C546.192 630.76 545.117 632.518 544.336 634.373C543.164 637.107 543.164 637.986 544.336 640.33C545.117 641.795 546.387 644.725 547.266 646.873C548.633 650.096 549.219 650.584 551.367 650.096C553.223 649.803 554.297 650.291 555.86 652.342C557.52 654.588 558.887 655.272 563.575 655.76C569.727 656.443 571.094 658.201 567.188 660.252C564.551 661.619 547.266 660.545 541.7 658.592C539.551 657.811 534.668 657.225 530.86 657.225C526.758 657.225 523.34 656.736 522.657 656.053C520.313 653.709 520.508 656.053 522.852 658.885C526.172 662.889 530.371 664.549 533.106 663.084C534.473 662.4 535.742 662.4 536.914 662.986C537.793 663.475 541.114 664.158 544.239 664.549C548.34 665.037 550.098 665.818 550.879 667.186C551.465 668.26 551.758 669.236 551.563 669.334C548.145 671.873 543.555 673.826 541.309 673.826C537.5 673.826 535.352 676.072 537.11 678.221C538.867 680.369 541.992 680.076 541.992 677.732C541.992 674.9 543.457 675.291 545.899 678.709C547.364 680.76 548.828 681.639 550.782 681.639C552.246 681.639 553.711 682.322 554.102 683.104C554.395 683.885 555.762 684.568 557.032 684.568C559.571 684.568 562.5 687.693 562.5 690.428C562.5 691.502 564.942 692.576 570.899 694.236L579.395 696.58L584.375 694.725C587.891 693.455 592.09 692.869 598.633 692.772C610.938 692.674 610.84 692.772 609.375 690.916C607.52 688.67 609.082 687.889 612.11 689.647C615.235 691.502 618.164 690.428 618.164 687.498C618.164 686.424 618.653 685.545 619.141 685.545C619.727 685.545 620.117 687.205 620.117 689.158C620.117 692.381 620.215 692.576 621.387 690.916C622.852 688.963 625.489 689.744 624.61 691.893C624.317 692.674 624.707 693.748 625.489 694.334C626.465 695.115 626.856 695.115 627.246 694.139C627.539 693.26 628.418 693.748 629.883 695.604C631.934 698.143 632.129 698.24 634.375 696.775C635.645 695.994 637.403 695.311 638.282 695.311C639.551 695.311 639.649 695.018 638.77 693.943C637.793 692.772 637.989 692.088 639.453 690.623C641.016 689.061 641.602 688.963 642.969 689.94C644.239 690.916 644.434 692.088 643.946 695.115C643.653 697.361 643.653 700.682 643.946 702.635C644.532 705.76 644.922 706.053 647.95 706.053C649.805 706.053 651.367 706.443 651.367 707.029C651.367 707.518 650.684 707.713 649.903 707.42C648.828 706.932 648.242 707.713 647.852 709.861C647.168 713.084 646.778 713.377 644.629 712.01C643.653 711.326 642.383 711.717 640.821 712.986C639.063 714.354 638.086 714.549 637.11 713.768C636.231 712.986 634.961 713.572 632.129 716.111C625.684 721.873 621.875 723.045 619.532 720.018C618.36 718.455 618.164 718.553 616.797 721.775C615.821 724.119 614.258 725.779 612.11 726.658C606.739 728.807 599.61 734.373 599.024 736.912C598.731 738.182 597.754 739.256 597.071 739.256C596.289 739.256 594.434 740.037 592.969 741.014C589.453 743.357 587.11 744.725 582.715 747.068C578.907 749.217 576.953 752.049 578.907 752.732C579.59 752.928 580.078 754.1 580.078 755.272C580.078 756.932 580.957 757.615 584.18 758.494C587.696 759.471 588.575 759.373 590.625 757.811C591.895 756.736 594.825 755.662 597.168 755.369C601.953 754.588 603.321 755.369 613.77 764.256C616.992 766.99 621.094 770.018 622.852 770.897C625.782 772.459 626.27 772.459 629.395 770.897C631.25 770.018 632.813 768.943 632.813 768.553C632.813 767.088 637.305 766.014 640.43 766.795C643.848 767.674 644.434 769.529 641.992 771.58C640.235 773.045 640.821 776.365 643.555 780.174C644.629 781.541 645.996 785.252 646.582 788.377C647.657 793.65 647.559 794.236 645.508 797.068C643.653 799.607 643.457 800.779 643.946 805.076C644.336 807.908 644.141 811.326 643.653 812.791C642.969 814.549 642.969 815.525 643.75 816.014C644.922 816.795 639.453 819.334 636.621 819.334C634.278 819.334 634.278 819.822 636.621 823.143C637.891 824.803 640.723 826.561 644.825 828.025C650.196 829.881 651.367 830.76 652.246 833.201L653.321 836.131L661.719 835.447C671.485 834.666 676.075 833.006 679.297 829.1C680.664 827.537 683.203 825.779 685.059 825.193C686.914 824.607 688.477 823.533 688.477 822.947C688.477 822.264 689.356 821.19 690.332 820.604C691.309 819.92 692.871 817.283 693.75 814.647C695.215 810.154 696.094 809.275 703.223 804.783C711.817 799.217 714.746 797.85 718.164 797.85C720.801 797.85 730.957 793.553 731.934 791.99C732.227 791.404 734.668 789.94 737.305 788.572C739.844 787.303 742.188 785.74 742.383 785.057C742.774 783.885 748.633 783.592 751.856 784.666C753.418 785.154 753.809 784.959 753.321 783.787C753.028 782.908 753.028 781.443 753.418 780.467C753.809 779.588 754.297 778.123 754.395 777.147C754.492 776.268 755.274 774.412 756.153 773.045C757.617 770.799 758.496 770.506 763.282 770.506C769.434 770.506 775.684 773.143 777.442 776.658C779.004 779.588 780.371 780.272 782.422 779.197C783.399 778.611 785.059 778.416 786.035 778.807C787.207 779.197 788.086 778.611 788.867 776.854C790.137 774.217 790.137 774.217 799.903 775.975C801.563 776.268 802.93 775.779 804.2 774.412C805.176 773.338 806.836 772.459 807.813 772.459C810.059 772.459 815.43 769.822 815.43 768.65C815.43 768.162 814.746 767.186 813.867 766.502C811.817 764.842 812.5 754.588 814.844 752.049C815.723 751.072 816.407 749.9 816.407 749.315C816.407 748.729 817.188 748.436 818.164 748.631C819.141 748.924 820.899 748.045 822.461 746.385L825.098 743.65L821.485 740.721C818.164 738.084 817.09 737.791 809.18 737.4C801.856 737.107 799.903 737.4 796.387 739.158C793.75 740.525 791.992 742.088 791.602 743.553C790.723 747.166 786.133 747.85 782.227 744.92C780.274 743.455 779.297 742.088 779.59 741.014C780.371 738.182 776.465 738.865 775.391 741.697C774.903 743.065 774.024 744.139 773.438 744.139C772.95 744.139 772.461 744.92 772.461 745.799C772.461 746.775 771.875 748.338 771.192 749.217C769.532 751.365 760.938 755.857 758.496 755.857C757.422 755.857 756.055 756.443 755.469 757.225C753.907 759.08 749.024 760.154 749.024 758.592C749.024 757.225 738.672 751.951 736.133 751.951C734.375 751.951 730.469 747.947 730.469 746.092C730.469 745.311 731.348 743.846 732.422 742.674C734.082 740.916 734.18 740.135 733.301 736.815C731.836 731.736 724.707 724.51 721.778 725.291C720.313 725.682 719.727 725.389 719.727 724.217C719.727 723.338 719.141 722.654 718.36 722.654C717.578 722.654 716.797 722.166 716.602 721.482C716.309 720.604 715.43 720.604 713.086 721.58C711.426 722.264 709.18 722.557 708.301 722.166C706.739 721.58 706.934 721.287 709.278 720.115C712.696 718.26 712.598 714.549 709.278 714.061C706.25 713.572 706.446 711.131 709.473 710.35C712.305 709.666 712.793 708.006 710.157 708.006C708.301 708.006 704.004 710.936 700.391 714.549C699.219 715.818 697.559 716.795 696.68 716.795C695.41 716.795 695.508 716.404 697.071 714.158C698.145 712.596 700.196 710.35 701.563 709.08C704.102 706.639 704.883 703.318 703.125 701.561C702.637 701.072 702.442 697.166 702.832 692.088L703.418 683.592H707.422C709.766 683.592 712.5 682.811 713.867 681.932C715.137 680.955 718.848 678.807 722.168 677.244C726.367 675.193 728.418 673.436 729.297 671.287C730.078 669.725 731.641 667.967 732.715 667.381C735.45 666.209 736.035 662.498 733.887 660.154C733.008 659.178 732.422 657.713 732.617 657.029C732.91 656.248 733.496 656.541 734.278 658.006C734.864 659.178 736.035 660.154 736.817 660.154C737.696 660.154 738.282 661.424 738.477 663.768C738.867 668.357 741.602 669.334 743.36 665.525C744.336 663.279 744.239 662.303 742.481 658.885C739.551 653.025 739.063 651.463 738.672 645.506C738.282 639.647 739.551 636.131 741.114 638.572C741.602 639.354 742.285 642.381 742.676 645.311C743.067 648.24 744.141 651.951 745.215 653.709C746.192 655.369 747.071 657.811 747.071 659.08C747.071 661.229 747.168 661.326 748.828 659.959C749.707 659.08 751.563 658.104 752.832 657.713C754.102 657.322 758.985 653.221 763.575 648.533C770.703 641.404 772.657 639.939 776.563 639.158C779.004 638.572 782.032 638.377 783.106 638.865C784.18 639.256 786.426 639.061 788.086 638.572C792.188 637.107 793.946 637.986 793.946 641.6C793.946 643.65 792.871 645.799 790.332 648.533C786.914 652.342 786.817 652.537 789.063 652.147C791.016 651.951 792.481 649.998 796.192 643.064C798.731 638.182 801.27 634.178 801.758 633.982C802.246 633.787 804.2 632.615 806.153 631.248C808.106 629.979 810.45 628.904 811.524 628.904C812.5 628.904 813.672 628.416 813.965 627.928C814.844 626.463 821.485 626.854 823.633 628.416C825.098 629.588 825.293 630.564 824.805 633.982C824.219 637.791 824.317 637.986 825.489 636.229C826.27 635.154 827.832 631.346 829.004 627.732C830.664 622.85 832.129 620.408 834.571 618.357C843.164 611.326 852.344 609.275 853.516 614.256C854.102 616.6 854.2 616.502 856.934 612.303C858.496 609.861 861.133 605.662 862.891 602.928L866.114 597.947L873.145 597.361C877.246 596.971 880.762 596.189 881.739 595.311C882.617 594.529 884.864 593.943 886.719 594.041C888.575 594.139 891.309 593.846 892.871 593.455C895.02 592.869 895.508 593.064 895.508 594.432C895.606 598.729 897.071 598.436 902.637 593.26C906.153 590.037 908.203 587.303 908.203 585.936C908.203 584.764 908.985 582.615 910.059 581.248C911.035 579.783 912.012 577.439 912.305 575.975C912.696 573.729 912.403 573.338 910.254 573.045C907.422 572.752 907.52 573.24 908.789 561.229C909.375 555.076 909.766 554.393 913.282 551.268C915.43 549.51 918.262 547.752 919.629 547.361C920.996 547.068 923.535 545.701 925.196 544.432C926.856 543.162 929.395 541.697 930.957 541.111C932.422 540.525 933.594 539.549 933.594 538.865C933.594 538.182 934.668 535.35 935.938 532.615L938.282 527.635L955.664 527.537C975.586 527.342 983.008 526.658 985.938 524.705C987.696 523.631 988.379 521.385 989.746 512.4C991.309 502.049 995.215 491.502 998.047 489.744C999.317 488.963 999.317 483.299 998.047 479.979C997.461 478.514 994.825 474.9 992.188 471.873C988.184 467.381 987.305 465.721 987.305 462.791C987.305 459.471 987.012 459.08 982.325 456.932C977.442 454.588 977.442 454.588 977.93 450.682C979.004 441.6 979.981 438.963 982.129 438.67C983.301 438.475 985.157 438.865 986.328 439.451C990.039 441.502 996.778 434.275 994.141 431.15C992.774 429.49 989.258 429.197 989.258 430.76C989.258 431.248 988.867 431.443 988.282 431.15C987.793 430.857 984.864 430.174 981.934 429.686C977.93 429.002 975.782 428.025 973.633 425.877C971.973 424.314 970.703 422.752 970.703 422.557C970.703 422.068 976.367 420.994 980.567 420.604C984.278 420.311 985.938 418.455 987.207 413.377C988.477 408.494 992.774 403.709 997.364 402.147C998.828 401.561 1000 400.877 1000 400.486C1000 400.096 998.926 397.166 997.657 393.943C995.508 388.572 995.02 388.084 990.821 386.717C986.719 385.35 984.473 383.592 984.375 381.639C984.375 381.346 985.938 380.467 987.793 379.881C989.649 379.295 991.407 378.416 991.7 377.928C992.774 376.17 990.918 371.971 988.379 370.701C986.133 369.529 984.864 369.529 979.395 370.799C973.438 372.264 972.657 372.264 968.555 370.701C964.453 369.139 962.989 367.479 961.524 362.986C961.035 361.522 959.668 361.326 951.27 361.326H941.602L938.477 357.42C935.059 353.123 931.836 352.342 929.981 355.467C929.297 356.541 927.344 358.104 925.684 358.982C922.754 360.447 922.559 360.447 920.02 358.104C918.653 356.736 916.211 355.272 914.746 354.881C912.598 354.393 912.11 353.807 912.403 352.342C912.793 350.975 911.914 349.803 908.887 347.85C906.153 345.994 904.785 345.604 904.492 346.482C904.297 347.166 902.344 347.654 899.707 347.654C896.094 347.654 894.825 347.166 892.481 344.627C890.918 342.967 889.649 341.209 889.649 340.721C889.649 340.232 886.621 339.842 882.813 339.842C875.684 339.842 875.391 340.037 876.953 344.334C877.539 345.701 877.735 348.338 877.344 350.096C876.856 352.928 876.465 353.221 874.414 352.635C873.047 352.342 871.192 350.682 870.117 349.119C869.043 347.459 864.844 344.334 860.157 341.697L852.051 337.205L851.758 332.713C851.563 329.1 850.879 327.732 848.535 325.682C846.875 324.314 845.02 323.24 844.336 323.24C843.653 323.24 842.285 322.361 841.309 321.287C839.746 319.529 839.746 319.334 841.211 318.748C842.09 318.357 842.774 317.088 842.774 315.428C842.774 312.791 842.676 312.693 839.649 313.572C837.891 314.061 835.059 314.451 833.399 314.451C831.543 314.451 828.125 315.916 824.317 318.357C819.629 321.385 817.383 322.264 813.965 322.264C810.547 322.264 808.301 323.143 803.516 326.17C795.996 331.053 793.946 331.639 790.235 329.686C788.575 328.807 785.45 328.123 783.301 328.123C781.153 328.123 779.102 327.635 778.809 327.147C778.516 326.561 775.586 324.412 772.461 322.264C765.235 317.381 761.133 317.186 749.805 321.385C737.989 325.682 738.282 325.584 738.282 323.924C738.282 323.045 736.914 320.799 735.254 318.943C731.055 314.061 730.371 310.936 732.129 303.123C733.692 295.604 733.008 291.404 729.2 285.252C728.125 283.397 726.856 279.49 726.465 276.561C725.684 270.897 723.828 268.65 719.922 268.553C716.309 268.553 714.063 266.893 712.891 263.182C710.742 256.639 706.543 255.662 695.508 259.373C689.746 261.326 687.5 261.131 687.5 258.885C687.5 257.811 686.231 256.053 684.668 254.979C682.325 253.318 680.371 252.928 673.926 252.928C665.43 252.928 664.649 252.342 667.578 248.143C669.239 245.897 668.75 245.018 665.625 243.846C665.039 243.65 665.137 242.381 665.723 240.623C667.285 236.326 666.114 231.736 662.696 228.025L659.571 224.803L663.086 223.729C664.942 223.143 667.969 221.775 669.629 220.701C672.657 218.846 672.754 218.553 672.266 214.158C671.582 208.885 668.555 204.979 662.989 202.049C659.961 200.584 658.887 199.022 656.348 192.967C654.688 188.963 653.321 185.057 653.321 184.178C653.321 183.397 652.344 181.541 651.075 179.979C649.805 178.514 647.364 175.096 645.606 172.459C642.188 167.576 636.426 164.061 631.836 164.158C630.469 164.256 626.563 164.842 623.145 165.623Z" fill="white"/>
<circle id="708" cx="486" cy="333" fill="#5CE50D"/>
<circle id="710" cx="486" cy="659" fill="#E52A0D"/>
<circle id="1110" cx="122" cy="397" fill="#E52A0D"/>
<circle id="709" cx="801" cy="367" fill="#E52A0D"/>
</svg>
