<svg width="1000" height="1000" viewBox="0 0 1000 1000" fill="none" xmlns="http://www.w3.org/2000/svg">
<path d="M749.509 60.3167L708.858 99.0057L651.852 97.8843L638.115 87.2308C630.639 81.4368 624.003 76.6707 623.443 76.6707C622.976 76.6707 618.209 79.7546 612.883 83.5861C603.444 90.3146 602.977 90.595 588.305 94.7069L573.353 98.9122L518.403 100.221L500.928 111.061L483.452 121.995L482.798 129.845C482.518 134.237 482.144 137.882 481.957 137.975C481.864 138.068 478.312 137.788 474.014 137.227L466.351 136.199L463.454 131.246L460.65 126.294L451.959 126.854C441.679 127.508 441.866 127.602 440.091 116.948C439.25 111.902 438.409 109.753 436.913 108.538C435.698 107.697 433.269 104.613 431.493 101.809C429.717 99.0057 425.699 94.2396 422.615 91.2492L416.915 85.7355L412.055 90.1277C406.542 95.0807 403.551 98.8188 401.869 102.837C400.748 105.641 400.093 105.734 381.403 108.07C377.758 108.538 375.516 109.472 373.273 111.528L370.095 114.238L362.339 110.22C358.134 108.07 348.788 103.118 341.686 99.3794L328.603 92.464L307.67 91.3426L302.063 95.7348C298.979 98.1646 294.867 100.594 292.904 101.155C290.848 101.622 287.297 103.491 284.961 105.267C282.344 107.136 279.541 108.444 277.859 108.444C274.681 108.444 271.037 111.809 271.037 114.799C271.037 116.107 269.822 117.416 267.299 118.817C262.906 121.341 257.767 128.723 255.711 135.545C254.87 138.349 254.215 140.872 254.215 141.246C254.215 142.461 260.196 140.124 261.505 138.442C262.626 137.04 262.813 137.134 263.841 138.816C264.495 139.844 265.43 143.582 265.897 147.227C266.831 153.675 266.831 153.862 263.654 159.843C260.29 166.197 256.552 171.524 252.253 176.197C250.384 178.159 248.702 182.271 246.459 189.747C244.683 195.635 242.16 203.391 240.852 207.036C236.833 218.343 236.833 218.437 241.039 222.268C253.842 234.23 253.748 234.137 254.963 239.183C257.393 249.93 255.43 260.116 250.197 263.481C247.861 264.976 247.02 266.378 245.711 271.704C244.87 275.162 242.627 281.61 240.758 286.002C238.422 291.703 237.394 295.348 237.394 298.899C237.394 302.824 236.833 304.506 234.591 307.683C232.441 310.674 231.787 312.449 231.974 314.972L232.254 318.243L240.665 319.365C245.337 319.925 249.169 320.486 249.169 320.486C249.262 320.579 249.636 322.168 249.917 324.037C250.29 326 251.318 329.364 252.159 331.607C253.468 334.784 254.402 335.719 257.019 336.466C258.794 336.934 260.757 337.401 261.318 337.401C262.439 337.401 265.336 333.663 267.672 329.177C270.289 324.131 273.747 324.972 283.933 333.009C288.886 336.934 289.727 338.055 289.353 339.831C288.886 341.606 289.447 342.354 293.091 344.503C297.203 346.933 297.577 347.026 303.277 345.998C312.249 344.316 311.875 344.129 314.024 351.605C315.239 355.437 316.921 358.988 318.043 359.923C319.912 361.418 326.36 363.567 328.883 363.567C329.444 363.567 331.78 360.951 334.117 357.773C338.041 352.26 338.322 352.166 339.069 354.316C339.537 355.53 340.845 358.988 341.966 361.979C343.088 364.969 344.116 369.922 344.209 373.006C344.396 377.024 345.05 379.267 346.639 381.416C348.788 384.314 348.788 384.407 347.2 389.64C345.798 394.313 345.798 395.902 346.732 402.256L347.854 409.545L341.312 419.545C337.668 425.339 334.584 431.226 334.21 433.282C333.275 438.329 329.911 443.188 324.117 447.767C321.407 449.823 317.669 453.374 315.707 455.617C309.352 462.813 306.922 463.841 295.334 463.747H285.148L283.746 467.392C282.531 470.289 281.223 471.504 276.737 473.747C273.373 475.522 270.102 478.046 268.14 480.569C266.458 482.812 262.719 487.297 259.822 490.661C256.925 494.026 253.187 499.072 251.599 501.876C250.01 504.679 244.683 511.034 239.73 515.893C232.721 522.902 230.852 525.332 230.852 527.388C230.852 531.126 226.741 538.696 223.657 540.658C222.255 541.593 218.05 545.237 214.405 548.788L207.77 555.143L201.415 554.302C197.957 553.835 194.967 553.181 194.687 552.9C194.406 552.62 194.687 550.471 195.247 548.134C196.182 544.583 196.088 543.462 194.874 541.78C194.126 540.658 193.472 538.322 193.378 536.453C193.378 534.677 193.005 532.341 192.631 531.313C192.07 530.005 192.444 528.696 193.565 526.921L195.341 524.491L191.696 523.837C188.986 523.37 187.117 523.743 184.407 525.052C182.444 525.986 178.987 527.108 176.65 527.388C174.314 527.762 170.856 528.416 168.894 528.977C165.904 529.911 165.436 530.378 165.436 532.808C165.436 535.518 165.436 535.612 162.633 534.117C158.895 532.154 158.427 532.247 154.316 536.079C148.428 541.312 145.064 547.387 143.475 555.704C140.858 568.413 139.737 571.123 134.784 575.422C132.167 577.572 128.429 579.721 126.093 580.375C123.85 580.936 117.496 583.833 111.982 586.73C102.263 591.87 101.983 592.057 100.955 596.168C100.3 598.692 100.207 603.084 100.581 607.57C101.142 613.831 100.955 615.233 99.2725 617.943C97.5904 620.746 97.4969 621.774 98.338 628.503C98.8053 632.615 99.8332 636.633 100.581 637.474C101.422 638.409 101.889 641.025 101.889 644.67V650.37L94.1327 659.155C86.5631 667.846 86.3762 668.126 83.3857 678.312C81.1429 686.256 80.3953 690.368 80.3953 696.255V703.825L75.2555 703.264L70.1156 702.61V705.413C70.1156 707.563 69.5549 708.404 67.4055 709.338C65.443 710.086 64.0413 711.862 62.6395 715.226C60.677 719.805 60.5835 720.179 62.0788 724.758C63.3871 728.963 63.3871 729.991 62.1722 734.57C60.2097 741.953 60.3032 742.701 64.0413 743.915C65.8168 744.476 68.7138 746.625 70.4894 748.775C72.265 750.831 75.3489 753.915 77.4048 755.69C81.0495 758.774 81.2364 758.868 84.5072 757.466C86.2827 756.718 88.9928 756.064 90.3012 756.064H92.8244L90.9553 758.12C89.4601 759.802 88.8994 761.952 88.5256 767.278C87.5911 780.829 81.0495 795.314 75.8162 795.314C74.3209 795.314 71.0501 796.902 67.9662 799.052C65.1627 801.108 61.9853 802.79 60.9574 802.79C58.1538 802.79 51.1449 810.827 51.7056 813.35C51.986 814.471 52.5467 818.396 52.8271 821.948C53.4812 828.302 53.3878 828.583 51.3318 829.517C49.7432 830.265 49.089 831.386 48.9955 833.255C48.9955 834.75 48.1545 838.489 47.3134 841.572C46.3789 844.656 45.3509 852.88 44.8837 859.795L44.1361 872.411L46.8462 876.336C48.3414 878.486 49.5563 880.448 49.5563 880.729C49.5563 881.009 47.0331 881.289 43.9492 881.289H38.4355L37.501 884.747C36.9403 886.71 36.473 889.793 36.3796 891.569C36.3796 893.345 35.632 897.176 34.6974 899.98C33.1088 904.933 33.1088 905.213 34.8843 909.325C36.1927 912.315 36.7534 915.96 36.8468 921.941C37.0337 928.95 37.4075 931.006 39.2766 933.996C41.1456 937.08 41.3325 938.108 40.5849 941.005C40.0242 942.967 39.9307 945.678 40.398 947.266C40.8652 948.761 41.5194 952.873 41.9867 956.424C42.4539 959.976 43.3884 963.153 44.0426 963.62C44.6968 963.994 47.0331 964.555 49.3693 964.929C52.9205 965.489 53.855 965.209 56.0044 963.34C61.4246 958.387 63.2002 957.733 68.9007 958.854C75.7227 960.069 75.2555 960.163 76.4703 957.452C77.3114 955.677 78.2459 955.116 80.5822 955.116C84.5072 955.116 89.1797 960.443 90.0208 965.77C90.7684 970.349 95.3476 977.918 97.5904 978.292C98.5249 978.479 102.637 976.89 106.655 974.834C111.795 972.124 114.692 971.096 116.187 971.47C117.963 971.938 118.804 971.47 120.112 969.414C122.635 965.489 127.308 961.751 129.738 961.658C133.382 961.658 137.12 959.041 138.242 955.864C140.952 948.107 142.541 945.864 145.811 944.743C147.587 944.182 150.204 942.22 151.699 940.538C153.101 938.856 155.063 937.173 156.091 936.893C157.119 936.613 160.016 932.875 162.539 928.669C165.997 922.875 167.305 919.698 167.773 915.68L168.427 910.353H179.734C189.08 910.446 191.696 910.727 194.687 912.315L198.331 914.091L200.387 912.222C202.91 909.886 206.835 909.699 214.031 911.661C216.835 912.409 219.171 913.063 219.171 913.063C219.264 913.063 220.853 910.914 222.816 908.39C225.806 904.465 227.208 903.437 231.694 902.223C234.591 901.381 237.301 900.073 237.674 899.419C238.702 897.737 243.188 897.737 247.393 899.512C250.29 900.727 261.878 900.914 332.341 900.914C421.307 900.914 415.887 901.288 412.896 895.961C412.149 894.653 411.868 891.102 412.055 886.149C412.429 876.617 411.214 874.748 405.14 874.748C400.934 874.748 400 873.813 400 869.608C400 866.057 404.299 857.646 407.943 854.188C409.812 852.413 411.868 849.609 412.616 848.021C413.27 846.338 414.952 844.656 416.728 844.002C420.279 842.507 420.279 842.133 417.195 839.703C414.859 837.834 414.859 837.834 415.98 831.012C416.634 827.368 417.569 824.284 418.13 824.284C418.69 824.284 420.559 821.667 422.335 818.396C427.194 809.705 429.904 806.528 432.895 806.528C435.138 806.528 439.25 803.444 439.25 801.855C439.25 800.734 449.436 787.651 451.305 786.342C452.8 785.221 453.267 785.315 454.202 786.436C454.856 787.184 455.697 787.838 456.164 787.838C457.473 787.838 457.192 785.595 455.043 780.548C453.548 776.997 452.333 775.596 450.37 774.848C448.127 774.1 447.66 773.353 447.66 771.016C447.66 766.437 446.165 764.475 442.614 764.475H439.53L439.997 759.055C440.278 754.943 440.932 753.167 442.801 751.111C445.137 748.681 445.604 748.588 454.482 748.588H463.734L462.426 746.532C461.585 745.224 459.809 744.289 458.127 744.102C455.697 743.822 453.454 741.579 454.482 740.458C454.763 740.271 457.286 739.43 460.183 738.589C465.323 737.187 465.509 737.187 467.565 738.963C470.369 741.579 476.35 744.476 480.368 745.224C483.359 745.691 483.826 745.504 484.761 743.261C485.415 741.766 486.443 739.897 487.097 739.056C488.031 737.748 487.844 737.093 485.975 735.038C482.611 731.393 485.975 731.954 491.115 735.972C494.853 738.776 495.694 739.056 497.657 738.121C500.928 736.626 500.928 731.486 497.657 729.337C496.349 728.496 495.321 727.281 495.321 726.533C495.321 725.599 496.909 725.879 501.675 727.655C509.245 730.552 510.273 731.299 510.273 734.196C510.273 737.093 511.675 737.093 513.637 734.196C514.572 732.701 515.132 729.898 515.039 726.16C515.039 720.552 515.132 720.366 518.216 719.057C519.898 718.403 521.58 716.908 521.954 715.88C522.328 714.572 523.356 714.011 525.319 714.011C526.814 714.011 528.029 714.385 528.029 714.852C528.029 715.319 526.627 717.842 524.851 720.459C522.328 724.197 521.954 725.319 522.889 726.16C524.571 727.561 528.683 726.347 529.243 724.291C529.711 722.608 535.224 721.113 536.065 722.515C536.72 723.636 547.56 723.356 548.214 722.235C548.588 721.674 547.747 720.179 546.345 718.964C544.476 717.375 543.915 716.254 544.383 714.852C544.756 713.731 545.504 713.17 546.345 713.45C547.093 713.731 548.308 714.291 549.149 714.572C550.27 715.039 550.457 714.665 549.896 712.703C549.523 710.927 549.709 710.179 550.831 709.712C552.046 709.245 551.952 708.871 549.896 707.282C546.532 704.572 546.999 699.993 550.924 698.778C552.513 698.311 554.475 697.283 555.317 696.535C556.158 695.694 558.868 694.853 561.204 694.666C564.942 694.199 565.409 694.386 565.409 695.975C565.409 697.096 564.755 698.404 563.914 699.059C563.166 699.806 562.606 701.395 562.793 702.703C563.166 706.254 566.531 706.348 571.297 702.797L575.222 699.9L576.81 701.956C578.399 703.825 578.399 704.012 576.343 705.6C575.128 706.535 572.512 707.563 570.456 707.937C563.727 709.058 563.54 709.245 563.54 712.796V716.16L569.428 715.506C572.605 715.132 575.969 714.104 576.904 713.357C578.212 712.048 579.053 712.048 581.95 712.89C583.819 713.45 585.408 713.824 585.408 713.731C585.969 711.675 588.585 709.338 593.258 707.002C596.342 705.413 599.613 703.544 600.36 702.89C601.575 701.862 601.949 702.329 602.79 705.694C603.724 709.245 603.724 709.806 602.229 710.927C600.641 712.142 600.641 712.329 602.136 714.852C602.977 716.347 603.724 718.216 603.724 719.057C603.724 720.833 605.78 720.553 614.752 717.188C621.293 714.759 626.34 711.394 632.975 705.32C637.928 700.554 638.395 698.872 635.031 696.629C631.947 694.666 633.442 692.517 637.928 692.517C640.451 692.517 641.105 692.891 641.105 694.386C641.105 695.414 641.479 696.255 641.946 696.255C643.815 696.255 645.778 695.04 645.778 693.919C645.778 693.265 646.712 692.143 647.834 691.396C649.703 690.181 649.796 689.714 648.675 687.284C647.553 684.293 648.581 679.434 650.357 679.434C651.478 679.434 667.085 670.276 667.645 669.248C667.926 668.78 666.524 667.285 664.561 665.977L661.01 663.454L662.692 659.996C663.72 658.127 664.468 656.071 664.468 655.417C664.468 653.735 665.122 653.828 669.795 656.632C673.439 658.688 674.28 658.874 676.897 657.94C678.486 657.379 681.009 655.697 682.504 654.108C684.56 651.772 685.308 651.398 686.429 652.333C687.551 653.267 687.457 653.922 685.495 656.445C684.093 658.22 683.158 660.743 683.158 662.519C683.158 664.949 682.878 665.416 681.57 665.042C675.122 663.173 674.935 663.173 674.28 666.631C673.346 671.49 674.187 672.238 679.701 671.677C684.28 671.117 684.28 671.117 682.691 672.892C678.953 677.004 687.364 679.527 692.223 675.696C695.307 673.359 697.737 673.359 699.232 675.696C699.98 676.817 701.475 677.565 702.97 677.565C705.12 677.565 705.587 677.939 705.587 679.901C705.587 681.209 706.147 682.518 706.895 682.798C707.643 683.078 708.016 683.92 707.736 684.667C707.175 686.162 703.624 686.443 702.222 685.041C701.662 684.48 699.886 684.574 697.363 685.228C694.186 685.975 693.625 686.443 694.466 687.471C695.307 688.499 695.12 689.34 693.905 691.209C692.971 692.61 692.69 694.012 693.158 694.48C694.559 695.881 705.867 699.993 708.297 699.993C709.605 699.993 711.941 700.647 713.437 701.395C716.053 702.797 716.334 702.703 718.67 700.46C719.978 699.152 721.754 698.124 722.595 698.124C724.184 698.124 725.679 694.853 726.613 689.246C726.894 687.19 727.641 684.106 728.296 682.424C729.23 679.714 729.604 679.434 732.314 679.995C734.276 680.368 736.706 679.901 739.416 678.686C742.407 677.378 743.995 677.191 745.491 677.845L747.547 678.78L744.836 682.237C741.192 686.817 741.192 688.779 744.836 688.779H747.64L745.771 692.517C744.743 694.479 743.902 697.283 743.902 698.591C743.902 700.834 744.089 700.928 749.976 700.928C755.957 700.928 756.051 700.928 756.051 698.311C756.144 695.881 756.144 695.881 757.452 697.563C758.2 698.591 758.854 701.208 758.854 703.451C758.854 706.815 759.135 707.469 760.63 707.469C761.938 707.469 762.592 706.535 763.06 704.479C764.087 699.993 764.274 699.9 767.545 701.862C771.283 704.198 773.526 704.198 774.274 701.956C774.554 700.928 775.395 699.9 776.143 699.619C776.89 699.339 777.544 698.311 777.544 697.283C777.544 696.068 778.386 695.321 780.255 694.853C781.75 694.573 783.993 693.078 785.394 691.489C786.703 689.994 788.198 688.779 788.665 688.779C789.039 688.779 789.039 691.209 788.572 694.106C787.357 701.862 787.918 702.984 790.815 698.124C792.123 695.788 795.394 692.143 797.917 689.994C800.627 687.658 803.991 683.452 805.954 679.995C808.757 674.948 809.318 673.079 809.318 668.22C809.318 664.575 809.972 661.304 811.094 659.061C813.15 654.949 818.103 641.306 819.504 635.885C820.532 632.147 820.719 631.96 828.569 628.876L836.606 625.699L839.877 619.158C841.746 615.513 843.708 610.466 844.269 607.943L845.297 603.271L849.783 602.803C855.857 602.149 860.717 598.318 860.717 594.112C860.717 591.776 861.651 590.188 864.548 587.384C866.604 585.328 869.501 581.683 871.09 579.347C873.426 575.703 873.8 574.207 873.8 568.6C873.8 561.778 875.388 556.358 879.313 550.19C880.715 547.854 881.93 546.826 883.051 547.106C889.593 549.069 889.313 549.256 891.556 542.621L893.612 536.453H897.817C901.181 536.453 902.863 535.799 905.76 533.462C908.564 531.313 911.274 530.191 916.227 529.257C919.871 528.603 925.105 527.575 927.815 527.014L932.674 526.08V520.94C932.674 518.136 932.02 514.305 931.179 512.342C930.431 510.473 929.404 507.202 928.936 505.146C928.469 503.091 927.815 500.474 927.534 499.352C926.88 497.483 927.534 496.923 932.768 494.586C939.216 491.689 941.926 488.045 942.113 481.97C942.3 475.335 943.047 474.401 949.028 473.373C954.355 472.438 954.635 472.251 955.85 468.7C956.598 466.644 958.373 461.691 959.869 457.673C962.485 450.664 962.579 449.73 962.579 434.31C962.579 419.825 962.766 417.956 964.448 415.433C966.971 411.601 966.784 410.387 963.326 406.835C960.71 404.125 960.149 402.723 959.308 395.995C958.373 389.173 958.373 387.958 959.962 384.874L961.644 381.323L958.841 375.809C954.542 367.212 949.028 352.82 945.197 340.298C941.365 327.495 941.365 327.495 948.374 323.196C951.365 321.327 951.552 321.047 950.991 317.215C950.71 315.066 949.215 311.234 947.627 308.805C946.131 306.375 944.823 303.197 944.823 301.796C944.823 300.487 944.543 298.058 944.262 296.562L943.702 293.759L940.057 295.721C935.758 297.964 936.599 298.712 930.618 287.591C927.628 282.264 927.067 280.302 927.067 275.723C927.067 269.929 923.049 257.126 921.086 256.565C920.526 256.378 919.03 256.004 917.722 255.724C916.04 255.35 914.732 253.948 913.236 250.865L911.087 246.472L908.283 249.182L905.386 251.893L900.807 246.753C898.191 243.949 895.481 240.305 894.639 238.809C892.49 234.884 890.621 227.315 890.621 222.736C890.621 220.306 889.406 216.101 887.257 211.428L883.893 204.045L878.846 202.924C874.36 201.896 873.519 201.335 871.931 198.158C870.903 196.102 870.062 193.485 870.062 192.177C870.062 190.869 869.221 187.691 868.193 185.075C867.165 182.458 866.324 178.626 866.324 176.477C866.324 173.86 865.296 170.87 863.053 166.852L859.875 161.058L861.371 156.291C862.866 151.806 862.866 151.245 861.371 148.255L859.875 144.984L862.866 144.703C865.763 144.423 865.856 144.236 866.417 139.283C866.791 136.48 867.632 131.807 868.286 129.004C869.781 123.116 869.594 116.014 867.912 115.453C867.258 115.266 865.669 114.892 864.268 114.612C861.838 114.051 861.651 113.678 861.651 109.379V104.706H855.016C849.876 104.706 847.633 105.173 845.204 106.669L842.026 108.631L840.998 106.015C840.531 104.519 839.596 101.249 839.036 98.6318C838.475 96.1086 838.008 93.8658 837.914 93.7724C837.821 93.5854 834.457 94.1462 830.438 94.8938C820.906 96.7628 820.719 96.6694 823.336 93.9593C824.551 92.6509 825.392 91.5295 825.111 91.3426C824.925 91.2492 823.242 90.4081 821.467 89.6605L818.196 88.1653L823.616 86.5766C826.513 85.7355 828.943 84.801 828.943 84.5207C828.943 84.3337 828.382 82.6516 827.635 80.876C826.42 78.0725 825.859 77.6987 822.214 77.4183C819.972 77.2314 815.953 77.8856 813.15 78.7267L808.197 80.4088L808.851 72.9327C809.505 65.55 809.505 65.4565 806.515 61.7184L803.431 57.8869L805.487 55.7375C806.515 54.6161 807.729 51.8125 808.01 49.4763C808.57 45.5513 808.477 45.271 804.646 42.1871C801.468 39.6639 800.814 38.6359 801.281 36.8603C801.562 35.6454 802.122 33.683 802.403 32.4681C802.776 30.599 802.029 29.5711 797.73 26.3003C794.833 24.1509 791.936 22.2818 791.375 22.0015C790.721 21.8146 771.844 39.0097 749.509 60.3167Z" fill="white"/>
<path d="M661.664 682.892C660.263 683.266 653.721 691.49 654.375 692.05C654.469 692.237 656.805 693.359 659.328 694.574C663.066 696.256 664.094 697.284 664.281 699.34C664.561 701.582 664.281 701.863 661.945 701.863C657.646 701.863 656.338 703.358 659.609 704.479C661.104 704.947 663.907 707.376 665.87 709.713C668.954 713.357 669.608 713.731 670.542 712.516C671.383 711.208 671.757 711.582 672.692 714.666C673.72 718.03 674 718.31 676.617 717.936C679.888 717.469 679.888 717.563 677.925 713.918C677.084 712.142 676.71 710.087 677.084 708.311C677.645 705.975 677.458 705.601 675.776 705.601C673.066 705.601 673.159 701.863 676.056 699.153C677.551 697.657 678.86 697.284 680.542 697.657C683.345 698.405 685.868 695.788 686.523 691.396C686.99 688.686 686.709 687.939 684.654 686.63C682.317 685.042 682.224 685.042 680.916 687.752C678.86 691.583 677.084 691.864 673.72 688.873C671.197 686.537 671.01 685.883 671.851 684.2C672.879 682.331 672.785 682.238 668.019 682.331C665.309 682.425 662.412 682.612 661.664 682.892Z" fill="white"/>
<path d="M716.521 709.616L713.81 710.737L716.24 713.354C719.231 716.531 722.875 716.905 722.034 713.728C721.754 712.607 721.474 710.924 721.474 709.99C721.474 708.121 720.165 708.027 716.521 709.616Z" fill="white"/>
<path d="M752.499 715.693C751.658 716.254 751.471 717.375 751.939 718.964C752.499 721.394 752.686 721.487 759.882 721.487C766.33 721.487 767.358 721.3 768.573 719.431C769.975 717.469 769.975 717.282 768.106 716.628C764.928 715.413 753.808 714.759 752.499 715.693Z" fill="white"/>
<path d="M583.352 729.152C581.016 729.993 580.175 730.928 579.427 733.638C578.399 737.563 574.381 743.45 568.774 749.431L564.942 753.449L569.428 752.795C572.885 752.328 574.474 752.515 576.343 753.823C578.679 755.318 578.96 755.318 582.791 753.263C584.941 752.048 587.37 749.898 588.211 748.403C589.987 745.506 589.707 745.413 585.221 746.628C582.604 747.469 582.231 747.282 582.231 745.693C582.231 743.731 584.754 739.619 588.679 735.32C590.828 732.89 590.828 732.703 589.333 730.367C587.651 727.75 587.744 727.844 583.352 729.152Z" fill="white"/>
<path d="M461.397 773.633C459.248 775.969 459.341 776.25 463.453 778.493C465.416 779.614 467.659 781.857 468.313 783.445C469.434 785.782 470.743 786.716 476.069 788.492C479.714 789.707 483.545 790.641 484.76 790.641C487.377 790.641 489.713 794.753 489.713 799.519C489.713 802.229 489.433 802.79 487.657 802.79C485.601 802.79 477.565 810.36 474.294 815.219C472.798 817.555 472.798 817.836 474.761 821.013L476.817 824.284L480.929 820.079C483.172 817.742 485.041 814.939 485.041 813.911C485.041 812.135 485.414 812.042 488.592 812.602C490.461 812.976 492.33 813.817 492.704 814.471C493.078 815.126 494.386 815.406 495.694 815.219C497.283 814.845 498.124 813.911 498.498 811.948C499.432 807.276 499.152 803.257 497.657 799.706C496.909 797.837 496.255 795.875 496.255 795.407C496.255 794.94 498.311 793.351 500.927 791.856C505.507 789.24 505.507 789.146 504.105 786.997C502.796 785.128 502.049 784.941 498.685 785.501C492.797 786.529 480.462 786.436 479.34 785.315C478.779 784.754 478.125 782.698 477.845 780.642C477.378 777.278 477.658 776.81 480.368 775.035L483.265 773.166L476.91 772.605C466.257 771.577 463.08 771.764 461.397 773.633Z" fill="white"/>
<circle id="704" cx="548" cy="691" fill="#5CE50D"/>
<circle id="1108" cx="666" cy="649" fill="#E52A0D"/>
<circle id="1544" cx="215" cy="838" fill="#E52A0D"/>
<circle id="1545" cx="836" cy="539" fill="#E52A0D"/>
</svg>
