<svg width="1000" height="1000" viewBox="0 0 1000 1000" fill="none" xmlns="http://www.w3.org/2000/svg">
<path d="M684.18 146.582C648.243 160.938 618.751 172.95 618.653 173.047C618.458 173.243 619.239 177.93 620.215 183.594C621.29 189.161 621.778 194.043 621.29 194.434C620.899 194.727 611.426 197.95 600.196 201.563L579.883 208.106L577.735 206.153C575.782 204.297 574.317 204.2 552.247 204.004L528.809 203.907L505.176 214.454C483.106 224.317 481.446 225.293 481.446 227.637C481.446 229.004 480.86 230.762 480.274 231.641C479.102 233.106 438.77 246.778 438.087 245.997C437.891 245.801 436.329 241.309 434.669 236.133C431.641 226.954 431.446 226.661 428.907 227.149C427.442 227.344 412.305 229.297 395.215 231.348C378.126 233.497 363.965 235.352 363.77 235.547C363.575 235.645 359.669 247.852 355.079 262.598C348.243 284.766 346.973 289.551 348.145 290.43C348.829 291.016 352.54 293.848 356.348 296.778C362.989 301.954 363.184 302.149 361.524 304.2C360.645 305.274 342.969 323.926 322.266 345.606L284.669 384.961L279.59 379.297L274.415 373.731L260.255 380.372C248.829 385.743 246.094 387.403 245.997 389.063C245.997 390.235 245.215 398.243 244.337 407.032C243.36 415.821 242.872 423.145 243.165 423.34C243.458 423.438 246.192 424.122 249.317 424.805C252.637 425.586 254.883 426.563 254.883 427.344C254.883 429.2 226.563 524.805 225.782 525.586C225.391 525.879 220.508 525.196 214.844 523.926C204.786 521.582 204.59 521.582 203.126 523.438C190.528 539.356 188.673 541.211 175.684 550.489L162.501 559.961L156.055 571.582L149.61 583.301L155.665 588.184C158.887 590.821 162.208 593.653 162.989 594.239C164.063 595.313 158.399 601.954 130.372 632.52C111.719 652.833 95.0202 670.899 93.2624 672.754L90.0397 675.977L81.446 669.532C76.7585 665.918 72.5592 663.184 72.1686 663.282C68.653 664.649 0.293619 706.739 0.7819 707.227C1.75846 708.204 65.7233 738.282 66.7975 738.282C67.2858 738.282 70.8014 735.45 74.7077 731.934L81.7389 725.684L127.051 763.184C151.954 783.887 172.755 801.368 173.243 802.149C173.926 803.125 173.243 804.883 171.094 808.204C168.555 812.208 168.262 813.184 169.337 814.454C170.02 815.235 173.731 819.727 177.637 824.415C181.837 829.59 185.352 833.008 186.426 833.008C187.989 833.008 236.426 824.219 242.774 822.754C244.63 822.364 245.02 821.094 246.192 813.282L247.559 804.2L250.977 804.297C252.833 804.395 287.696 807.032 328.321 810.157L402.247 815.918L402.833 837.208L444.825 851.27L486.817 865.235L523.438 867.579C543.555 868.848 560.352 869.727 560.743 869.532C561.036 869.336 561.622 865.821 562.012 861.817C562.501 857.032 563.184 854.493 563.965 854.493C564.551 854.493 594.337 860.254 629.981 867.188C665.626 874.219 695.118 879.883 695.508 879.883C695.899 879.883 698.438 876.075 701.172 871.485L706.251 863.184L849.708 864.551L849.219 861.231C847.852 853.321 843.653 821.973 842.872 813.965C842.188 807.032 841.114 803.028 837.891 795.411L833.79 785.645L833.301 768.067C832.813 750.782 833.985 731.153 835.645 728.125C836.329 726.856 838.672 729.883 846.192 741.407C861.133 764.454 868.458 770.411 893.946 780.372C902.247 783.594 905.372 784.278 913.575 784.766C918.946 785.059 927.54 784.864 932.715 784.375C941.309 783.399 943.067 782.813 953.711 777.54C968.458 770.118 974.122 765.43 982.422 753.907C996.876 733.594 998.438 727.93 998.633 692.872C998.633 678.907 999.024 662.208 999.415 655.762C1000.39 639.747 998.243 622.168 994.141 611.524C989.649 599.903 980.958 586.133 974.122 579.883C970.899 576.954 964.063 571.973 958.985 568.848C953.907 565.723 949.61 563.086 949.415 562.989C949.219 562.793 947.852 499.317 946.29 421.875C944.727 344.434 943.36 280.957 943.165 280.86C942.969 280.664 906.836 271.094 862.794 259.375C818.751 247.754 782.715 238.086 782.618 237.989C782.422 237.891 775.489 212.11 767.09 180.664C749.317 114.161 750.977 120.118 750.196 120.215C749.805 120.215 720.118 132.129 684.18 146.582Z" fill="white"/>
</svg>
