<svg width="1000" height="1000" viewBox="0 0 1000 1000" fill="none" xmlns="http://www.w3.org/2000/svg">
<path d="M635.704 17.1245C634.663 17.881 632.299 18.6376 630.408 18.6376C628.611 18.6376 624.923 19.2996 622.275 20.0562C618.492 21.191 617.168 22.1367 615.749 24.7847C614.047 28.0001 613.763 28.0946 608.562 28.0946C604.779 28.0946 603.077 28.4729 603.077 29.2295C603.077 29.8914 601.564 31.4991 599.767 32.7286C597.97 33.958 596.457 35.5657 596.457 36.3222C596.457 39.7268 590.499 55.2363 588.229 57.6005C586.622 59.2082 586.054 60.6268 586.433 61.9508C586.905 63.2747 585.96 64.7879 582.744 67.625C577.638 72.3535 575.841 75.758 574.99 81.716C574.138 88.6196 570.639 94.6721 565.627 98.0766L561.371 101.103L561.939 111.6L562.506 122.192L558.818 124.745C555.508 127.015 554.941 127.204 553.333 125.975C550.685 123.989 547.564 124.178 546.997 126.448C546.713 127.488 545.484 128.717 544.16 129.19C542.836 129.663 541.512 130.609 541.133 131.176C540.755 131.744 539.62 131.933 538.58 131.649C537.634 131.271 535.743 131.271 534.514 131.554C531.676 132.311 529.69 137.702 531.109 140.444C531.866 141.957 531.582 143.281 529.785 146.686C526.664 152.549 526.664 154.819 529.785 154.819C533.095 154.819 532.717 156.805 528.839 159.453C526.948 160.682 524.773 162.952 523.922 164.465C522.881 166.073 521.463 167.113 520.139 167.113C517.585 167.113 516.451 170.234 517.775 173.733C519.004 177.232 518.153 179.407 515.599 179.407C513.708 179.407 513.235 179.974 512.762 183.663C512.29 186.5 512.573 189.242 513.614 192.269C515.599 198.132 515.505 203.428 513.519 206.643C512.573 207.967 511.722 210.804 511.533 212.979C511.438 215.06 511.06 220.356 510.776 224.706L510.209 232.65L512.479 232.083C515.127 231.421 517.302 234.352 518.342 240.216C518.815 242.485 519.95 244.377 521.747 245.701L524.489 247.781L522.598 252.415C520.328 258.279 520.328 258.846 523.071 258.846C526.286 258.846 528.366 259.792 528.366 261.21C528.366 261.967 529.69 262.629 531.487 262.818C534.135 263.102 534.514 263.48 534.797 266.128C535.176 270.005 538.013 272.086 541.985 271.424C546.997 270.667 548.415 272.653 548.605 280.503C548.794 285.799 548.51 287.501 547.375 288.163C546.051 289.014 546.051 289.203 547.281 290.054C548.605 291 550.212 290.905 560.993 289.487C564.681 289.014 565.911 289.298 569.977 291.946C575.273 295.35 575.368 296.012 571.68 304.523L569.694 308.968L571.869 311.333L574.044 313.697L577.07 311.805C581.042 309.347 587 309.347 591.445 311.805C593.431 312.846 596.457 313.98 598.159 314.264C600.334 314.737 601.942 315.872 603.361 318.047C604.496 319.844 606.198 321.262 607.049 321.262C607.9 321.262 609.981 322.019 611.777 322.87C613.48 323.816 614.993 324.667 615.182 324.761C615.371 324.856 614.804 325.991 613.858 327.409C612.345 329.679 612.345 329.963 613.763 331.476C615.182 332.895 615.466 332.8 617.641 330.814C620.194 328.45 624.828 327.977 632.015 329.301C635.042 329.868 636.649 329.585 638.635 328.355C641.378 326.747 647.525 317.385 647.525 315.021C647.525 314.264 648.092 313.697 648.754 313.697C649.322 313.697 651.402 311.143 653.388 308.117C656.036 303.672 657.36 302.443 659.535 302.159C661.616 301.97 662.656 300.93 664.358 297.62C665.588 295.256 667.101 292.702 667.858 291.946C671.073 288.163 671.64 285.515 672.113 271.991C672.586 258.846 672.681 257.995 675.139 254.496C676.558 252.415 678.166 248.632 678.639 246.174C679.111 243.62 680.814 239.743 682.421 237.379C684.029 235.109 685.353 232.555 685.353 231.61C685.353 230.759 686.204 228.584 687.244 226.881C688.285 225.179 689.136 222.626 689.136 221.207C689.136 219.789 690.365 214.587 691.878 209.575C693.959 202.198 695.378 199.361 698.877 195.011C701.335 192.079 703.794 188.107 704.362 186.122C705.307 182.906 705.118 182.055 702.47 176.759C699.255 170.423 698.877 167.207 700.863 163.992C703.416 159.926 704.551 108.763 702.187 102.9C701.619 101.576 700.957 95.3341 700.673 89.0924C700.201 78.2169 700.106 77.6494 697.553 75.096C695.85 73.4883 694.81 71.4078 694.81 69.8947C694.81 68.4761 693.77 65.7336 692.446 63.8422C691.122 61.9508 690.082 59.7757 690.082 59.0191C690.082 58.2625 689.041 55.8037 687.812 53.534C686.015 50.4132 685.731 49.0892 686.393 47.6707C686.961 46.725 687.244 45.7793 687.055 45.6847C686.866 45.5901 685.637 44.739 684.218 43.8878C681.097 41.9965 680.719 39.4431 683.462 39.4431C684.975 39.4431 685.353 38.7811 685.353 36.3222C685.353 31.8774 682.705 29.7023 678.544 30.4589C676.085 30.9317 674.95 30.648 673.626 29.1349C671.924 27.2435 671.924 27.1489 674.383 26.1086C677.409 24.6901 677.125 23.4607 673.248 21.191C670.316 19.4887 670.222 19.4887 667.196 21.853C663.791 24.3118 661.9 24.0281 658.873 20.3399C657.36 18.543 651.308 16.9353 642.796 16.1788C638.919 15.8005 637.122 15.9896 635.704 17.1245Z" fill="white"/>
<path d="M597.308 422.449C596.457 422.921 595.416 424.435 595.133 425.853C594.754 427.177 593.43 430.014 592.106 432.095C590.026 435.31 589.364 435.783 587.378 435.31C585.77 434.837 584.068 435.31 582.082 436.823C580.38 438.053 576.881 440.228 574.138 441.836C565.154 447.037 560.614 450.347 559.48 452.427C558.628 454.035 557.494 454.603 554.846 454.603C551.725 454.603 551.252 454.981 549.455 458.764L547.375 462.925L549.55 464.911C551.157 466.424 552.86 466.897 556.548 466.897C561.371 466.897 561.466 466.991 561.466 469.639C561.466 473.422 552.86 482.974 549.455 482.974C548.226 482.974 546.24 483.446 545.105 484.108C543.876 484.77 537.823 485.338 529.785 485.527C518.342 485.811 516.166 486.094 513.991 487.702C512.573 488.742 510.776 489.594 509.925 489.594C508.506 489.594 502.832 492.147 502.832 492.809C502.832 492.998 510.209 493.093 519.287 493.093C535.364 493.093 535.932 493.187 540.187 495.646C546.713 499.24 555.791 498.767 555.791 494.7C555.791 492.998 559.574 491.485 563.924 491.485C566.478 491.485 567.14 491.863 567.14 493.376C567.14 494.417 567.518 495.268 567.991 495.268C569.126 495.268 572.814 490.634 572.814 489.215C572.814 488.553 575.178 485.811 578.015 482.974C581.325 479.758 583.217 477.016 583.217 475.692C583.217 474.462 583.784 473.517 584.541 473.517C587.094 473.517 588.324 470.869 587.283 467.464C586.621 465.384 586.621 463.776 587.283 462.641C588.418 460.56 586.716 459.331 582.649 459.331C580.001 459.331 579.718 459.047 580.096 457.061C580.38 455.548 581.42 454.508 583.122 454.13C584.446 453.846 586.432 452.711 587.472 451.765C592.674 446.848 593.809 446.091 595.605 446.091C600.334 446.091 602.32 443.16 600.05 439.471C599.105 438.053 599.199 437.012 600.523 434.27C602.415 430.393 602.604 424.245 600.996 422.638C599.672 421.314 599.294 421.314 597.308 422.449Z" fill="white"/>
<path d="M551.726 509.074C550.308 509.831 549.173 511.249 549.173 512.101C549.173 513.046 548.7 514.276 548.038 514.938C546.525 516.451 549.268 517.397 553.429 516.64C558.063 515.694 559.481 512.857 556.55 509.925C554.469 507.94 554.185 507.845 551.726 509.074Z" fill="white"/>
<path d="M542.362 526.665C539.809 529.313 537.823 531.867 537.823 532.245C537.823 532.718 536.594 533.096 535.175 533.096C532.243 533.096 526.475 538.203 526.475 540.851C526.475 543.026 529.69 543.782 533.567 542.553C535.932 541.796 537.256 541.796 538.769 542.553C539.904 543.12 541.984 543.31 543.497 543.026C545.956 542.458 546.334 541.891 546.902 538.014C547.28 535.555 548.32 531.961 549.361 530.07C551.347 526.003 550.874 521.748 548.32 521.842C547.469 521.842 544.821 524.017 542.362 526.665Z" fill="white"/>
<path d="M685.352 524.114C685.352 525.438 685.069 526.478 684.69 526.478C684.218 526.478 683.366 526.857 682.704 527.329C681.664 527.897 681.759 528.748 683.083 531.491C684.407 534.138 684.974 534.706 686.014 533.949C686.676 533.382 687.906 533.098 688.662 533.477C689.608 533.76 690.365 533.382 690.743 532.342C691.027 531.491 692.067 529.883 693.107 528.748C694.904 526.762 694.809 526.762 692.445 525.154C691.121 524.303 689.041 523.168 687.717 522.695C685.636 521.844 685.352 522.034 685.352 524.114Z" fill="white"/>
<path d="M667.005 533.281C666.154 534.416 665.492 536.969 665.492 538.955C665.492 541.981 665.87 542.643 667.951 543.116C670.032 543.684 670.315 544.156 669.937 546.237C668.708 552.195 668.708 552.479 670.694 552.289C673.247 552.1 679.678 550.398 680.34 549.831C681.002 549.074 678.732 545.197 676.179 542.832C674.476 541.225 674.098 540.09 674.571 538.198C675.044 536.213 674.666 535.267 672.49 533.47C669.086 530.727 668.802 530.727 667.005 533.281Z" fill="white"/>
<path d="M634.852 609.414C630.313 612.629 628.043 613.008 623.788 611.211C622.558 610.738 621.896 611.494 620.667 614.332C619.816 616.507 618.681 618.209 618.113 618.209C617.451 618.209 617.262 619.06 617.735 620.762C618.87 625.018 618.302 628.612 615.654 633.056C613.479 636.839 613.29 637.69 614.236 640.338C614.898 642.041 615.371 644.121 615.371 644.972C615.371 645.823 616.695 647.242 618.208 647.999C619.816 648.85 621.896 650.836 622.936 652.443L624.733 655.375L625.395 652.632C625.773 651.119 626.625 649.133 627.381 648.282C628.138 647.431 628.989 644.878 629.273 642.608C629.556 640.338 631.069 634.664 632.583 629.841C635.325 621.519 635.514 621.141 638.446 620.857C640.621 620.668 641.472 620.1 641.661 618.398C641.85 617.263 641.472 616.317 640.81 616.317C639.959 616.317 639.959 616.034 640.905 614.899C642.04 613.48 641.378 605.82 640.148 606.009C639.77 606.009 637.406 607.522 634.852 609.414Z" fill="white"/>
<path d="M609.224 674.004C606.954 676.463 607.995 678.449 611.872 678.922C614.236 679.205 615.371 678.827 616.601 677.219C618.019 675.328 617.925 675.139 614.804 673.72C610.832 671.734 611.305 671.734 609.224 674.004Z" fill="white"/>
<path d="M593.242 714.856C593.998 717.598 594.187 717.787 595.417 717.031C597.308 715.896 596.646 712.775 594.471 712.775C592.958 712.775 592.674 713.153 593.242 714.856Z" fill="white"/>
<path d="M447.036 801.671C446.469 802.711 445.712 805.737 445.428 808.196C444.955 812.641 445.05 812.924 447.887 814.343C450.724 815.856 451.008 816.518 452.237 823.895C452.616 825.975 453.088 828.812 453.372 830.231C454.791 837.891 450.724 842.809 444.01 841.768C441.173 841.296 440.605 841.485 440.132 843.187C439.376 846.213 434.174 845.835 429.446 842.43C427.365 840.917 424.434 839.499 422.921 839.31C420.556 839.12 419.989 839.404 419.8 841.106C419.516 842.903 419.894 843.282 421.975 843.282C424.623 843.282 430.013 845.74 431.243 847.443C431.621 848.01 432.378 850.091 432.945 852.171L433.891 855.859L437.484 852.36C441.362 848.577 445.807 847.821 448.076 850.469C448.738 851.32 450.157 852.36 451.292 852.739C452.899 853.306 453.467 852.739 455.453 848.105C458.384 840.917 459.519 836.094 459.425 830.893C459.33 827.015 459.519 826.448 461.411 825.975C462.64 825.691 466.234 824.557 469.544 823.327C475.974 821.058 476.353 820.301 474.083 814.816C473.232 812.735 472.948 809.898 473.232 806.777C473.705 802.427 473.516 801.765 471.719 800.725C470.017 799.874 469.26 800.063 466.801 802.049C464.059 804.413 458.006 805.453 457.25 803.751C456.966 802.995 450.251 799.779 448.927 799.779C448.454 799.779 447.603 800.63 447.036 801.671Z" fill="white"/>
<path d="M377.054 909.199C377.054 911.563 376.959 911.563 375.351 910.145C373.365 908.348 372.325 908.915 372.325 911.563C372.325 912.509 371.19 914.968 369.866 917.048C367.786 920.169 367.597 921.02 368.542 922.25C369.488 923.385 369.488 924.236 368.637 926.127C367.124 929.437 368.164 932.18 370.812 932.18C373.46 932.18 374.5 930.95 376.013 926.411C376.959 923.385 377.81 922.723 382.728 920.926C386.038 919.696 388.402 918.278 388.402 917.521C388.402 916.765 386.7 915.062 384.619 913.738C382.444 912.32 380.836 910.618 380.836 909.577C380.836 908.632 379.985 907.591 378.945 907.308C377.432 906.929 377.054 907.308 377.054 909.199Z" fill="white"/>
<path d="M314.921 950.244C314.448 951.757 313.786 952.136 311.895 951.757C309.058 951.19 303.289 953.365 303.289 954.878C303.289 955.54 304.613 957.243 306.126 958.661C307.734 960.08 308.963 962.16 308.963 963.295C308.963 966.038 303.856 970.293 299.223 971.428C295.345 972.468 295.251 972.563 294.967 976.819C294.683 981.736 293.927 981.358 304.708 982.682C306.788 982.966 309.436 983.438 310.571 983.817C312.273 984.29 312.935 983.911 313.692 981.925C314.354 980.129 315.299 979.467 317.285 979.467C319.177 979.467 320.312 978.71 321.541 976.629C323.622 973.225 324.189 973.13 327.499 976.157C330.242 978.71 331.282 978.994 332.133 977.575C332.417 977.102 334.686 976.629 337.145 976.629C342.441 976.629 343.481 976.062 344.805 972.468C345.467 970.955 346.98 969.442 348.683 968.78C350.858 967.929 351.52 967.078 351.52 965.186C351.52 963.011 350.952 962.444 348.494 961.876C346.791 961.498 344.238 961.309 342.819 961.404C340.928 961.593 340.171 961.214 340.171 960.174C340.171 958.472 337.807 958.094 336.861 959.607C336.578 960.08 334.308 960.552 331.849 960.552C325.986 960.458 322.203 957.337 321.541 952.041C321.068 948.637 320.785 948.258 318.231 948.258C316.151 948.258 315.299 948.826 314.921 950.244Z" fill="white"/>
<circle cx="572" cy="284" fill="#5CE50D"/>
<circle cx="587" cy="68" fill="#E52A0D"/>
<circle cx="460" cy="800" fill="#E52A0D"/>
<circle cx="588" cy="470" fill="#E52A0D"/>
</svg>
