<svg width="1000" height="1000" viewBox="0 0 1000 1000" fill="none" xmlns="http://www.w3.org/2000/svg">
<path d="M239.157 120.57C238.111 120.855 235.261 122.946 232.79 125.226C230.319 127.507 227.469 129.407 226.328 129.407C225.283 129.407 224.428 129.978 224.428 130.738C224.428 131.403 223.193 134.729 221.672 138.055L218.917 144.136L220.817 147.462C221.957 149.267 223.668 151.738 224.808 152.973C226.518 154.874 226.613 155.539 225.568 158.105C223.763 163.046 225.378 163.521 233.74 160.48C237.731 158.96 242.387 157.534 243.908 157.249C245.523 156.964 247.994 155.919 249.419 154.874C252.745 152.498 254.265 153.543 257.401 160.575C259.872 166.182 259.682 166.847 255.976 168.747C251.225 171.123 249.134 171.503 249.134 169.888C249.134 168.937 248.279 168.367 246.854 168.367C245.523 168.367 244.193 167.892 243.908 167.417C242.958 165.802 239.347 166.277 240.012 167.892C240.677 169.698 237.921 171.123 234.691 170.553C232.505 170.173 232.125 170.458 231.555 173.023C230.604 177.585 220.817 184.521 215.401 184.521C211.695 184.521 208.274 185.947 207.039 187.942C206.563 188.892 204.188 189.273 199.722 189.273C196.111 189.273 192.88 189.653 192.595 190.223C192.31 190.698 190.979 191.173 189.649 191.173C188.224 191.173 186.323 192.218 184.898 193.739C179.767 199.535 178.436 200.675 176.726 200.675C175.776 200.675 174.73 201.341 174.445 202.101C174.065 202.861 173.115 203.526 172.165 203.526C170.454 203.526 156.486 210.463 154.68 212.173C154.11 212.648 152.685 213.029 151.354 213.029C146.318 213.029 144.608 214.074 144.608 216.925C144.608 218.445 145.083 219.68 145.558 219.68C146.223 219.68 146.223 220.25 145.653 221.391C145.083 222.341 144.988 224.051 145.273 225.192C145.748 227.187 145.463 227.282 140.047 227.282C136.816 227.282 134.06 227.662 133.775 228.137C133.49 228.517 134.25 229.848 135.58 231.083C138.241 233.554 139.571 238.4 138.051 239.92C136.056 241.916 137.006 244.387 140.617 246.762C144.323 249.138 145.748 251.228 147.078 255.694C148.124 259.59 153.92 267.952 157.341 270.518C159.336 272.039 161.142 274.604 161.902 276.885C162.947 280.021 163.898 280.971 166.463 281.826C169.029 282.586 170.454 284.012 172.355 287.622C174.635 291.804 174.92 293.324 174.825 300.451C174.73 304.917 175.205 311.664 175.776 315.56C176.441 319.456 176.726 323.352 176.441 324.207C176.156 325.062 174.065 327.152 171.69 328.863C168.554 331.048 167.318 332.759 166.843 335.135C166.463 337.51 165.418 338.935 162.947 340.361C158.481 343.021 149.264 345.112 142.137 345.112C135.2 345.112 131.304 342.736 131.304 338.65C131.304 335.8 130.164 333.519 128.834 333.804C128.359 333.899 127.408 333.899 126.743 333.804C125.033 333.614 127.503 329.908 129.404 329.908C130.449 329.908 130.924 328.958 131.019 326.582C131.114 323.542 130.924 323.352 129.214 324.302C126.933 325.537 124.653 324.777 124.653 322.781C124.653 320.976 123.322 320.976 121.422 322.781C120.662 323.542 119.616 324.207 119.046 324.207C117.336 324.207 117.906 322.496 119.996 321.071C121.897 319.646 121.897 319.646 119.141 318.98C117.431 318.6 115.53 318.885 114.295 319.646C113.25 320.311 112.014 320.501 111.634 320.026C111.254 319.646 111.634 318.885 112.585 318.41C114.01 317.555 114.105 317.175 112.775 314.039L111.349 310.713L113.725 312.234C115.055 313.089 116.1 313.374 116.1 312.899C116.1 311.759 107.833 304.917 104.222 303.016C102.702 302.256 100.326 300.451 99.0912 299.12C97.0007 296.935 96.9056 296.46 98.1409 295.414C98.9962 294.844 101.372 291.233 103.557 287.622C105.648 283.917 109.164 279.07 111.254 276.79C113.44 274.509 115.15 272.134 115.15 271.563C115.15 270.993 116.671 268.428 118.476 265.862C120.282 263.296 121.802 260.636 121.802 259.97C121.802 258.355 128.074 253.034 130.734 252.369C133.49 251.703 134.535 249.613 133.205 247.237C132.635 246.287 132.255 243.626 132.255 241.441C132.255 238.685 131.304 235.929 129.024 232.128C127.313 229.183 125.318 225.287 124.748 223.386C122.942 217.875 121.042 216.734 114.2 217.02C110.779 217.21 108.118 216.925 107.928 216.354C107.358 214.929 112.3 212.934 114.105 213.884C116.956 215.404 128.169 215.879 129.309 214.549C130.069 213.694 128.549 212.553 122.562 209.608C117.336 207.042 113.63 204.476 110.874 201.436C106.503 196.589 105.933 194.784 104.983 182.716C104.508 176.349 104.603 175.779 106.123 176.254C106.978 176.634 109.354 175.969 111.634 174.639C113.82 173.404 118.001 171.598 120.852 170.743C123.702 169.793 126.838 167.987 127.788 166.752C128.739 165.612 130.354 164.566 131.304 164.566C133.585 164.566 139.952 161.906 142.042 160.005C142.897 159.245 143.657 157.82 143.657 156.774C143.657 153.924 139.096 154.684 132.825 158.77C129.594 160.86 124.748 162.951 121.992 163.521C114.2 165.136 104.793 170.458 100.326 175.684C98.236 178.155 93.1047 185.947 88.9236 192.788L81.4167 205.427L76.0954 206.472L70.679 207.517L59.4661 223.671C53.2896 232.604 45.9727 242.011 43.217 244.672C39.036 248.568 38.1808 249.993 38.1808 252.654C38.1808 254.554 36.2803 259.97 33.6196 265.577L29.0584 275.269L30.1987 282.396C30.8639 286.292 32.2893 291.518 33.4296 294.084C35.4251 298.55 35.4251 298.645 33.9047 314.039L32.3843 329.433L27.7281 333.709C25.1625 336.085 22.2167 339.696 21.1714 341.881C19.9361 344.352 18.2257 346.252 16.4202 347.013C11.384 349.008 13.5695 351.764 20.1262 351.764C23.452 351.764 25.3525 351.099 28.2983 348.913C31.5291 346.632 32.7644 346.252 35.7101 346.727C37.7056 347.013 39.8912 348.153 40.9365 349.483C42.7419 351.859 46.1628 352.429 48.5384 350.909C50.819 349.483 52.9095 351.289 54.2398 355.755C56.1403 362.216 69.1586 385.022 74.0999 390.534C77.8058 394.62 79.3262 395.665 82.747 396.235C86.8331 396.9 87.0231 397.09 88.0684 401.271C88.7336 403.647 89.4938 409.538 89.8738 414.29L90.539 422.937L87.5933 424.457C84.9326 425.883 84.6475 426.263 85.3127 429.018C85.6928 430.729 85.9779 435.48 85.8828 439.661C85.8828 445.267 86.2629 448.118 87.6883 450.779C88.6385 452.679 90.1589 456.67 90.9191 459.616C92.6295 466.553 92.6295 466.553 97.8559 467.978C101.657 469.023 102.607 469.879 104.508 473.49C106.313 477.1 107.263 477.861 110.874 478.716C113.155 479.381 119.046 482.612 124.083 486.128C129.974 490.214 133.965 492.399 135.77 492.399C138.811 492.399 156.866 488.978 157.531 488.313C157.816 488.028 159.431 488.218 161.047 488.693C165.323 489.834 182.332 487.553 185.753 485.273C188.319 483.657 188.699 483.657 193.45 485.082C196.206 486.033 198.961 486.698 199.627 486.698C200.862 486.698 210.649 479.761 211.6 478.146C212.74 476.34 218.631 474.44 221.862 475.01C224.048 475.295 225.378 475.01 226.233 473.965C227.374 472.634 227.849 472.729 230.985 475.2C237.351 480.236 249.609 482.612 254.17 479.666C256.546 478.051 256.926 478.051 258.447 479.286C259.302 480.141 272.89 492.114 288.474 506.083L316.886 531.359H323.253C329.43 531.359 329.525 531.264 333.706 527.083L337.887 522.807H346.534C354.421 522.902 365.159 524.422 369.055 526.038C370.1 526.513 370.955 526.133 371.62 524.898C373.046 522.237 380.933 519.861 391.1 519.006C395.851 518.626 401.458 517.581 403.643 516.726C407.159 515.3 407.729 515.3 411.055 516.63C414.571 518.151 414.571 518.151 419.227 514.73C425.974 509.789 430.44 508.458 436.522 509.599C439.277 510.169 444.409 510.834 447.925 511.119L454.386 511.594L457.712 517.106C459.517 520.146 461.703 523.092 462.463 523.757C463.699 524.803 463.508 525.373 460.943 528.223C459.422 530.029 457.047 533.83 455.812 536.681C454.576 539.436 452.296 543.617 450.68 545.993C448.21 549.604 447.734 551.124 447.734 555.97C447.734 564.048 445.834 567.373 439.467 570.794C434.716 573.455 434.336 573.835 434.811 576.401C435.096 577.921 435.381 579.346 435.381 579.726C435.381 580.107 436.617 581.057 438.042 581.912C439.848 582.957 441.178 584.953 441.938 587.423C443.173 591.604 443.268 591.224 438.707 597.401C437.947 598.541 436.617 603.863 435.856 609.279C435.001 614.79 433.766 621.822 433.006 624.958C432.056 629.519 431.961 630.944 432.911 632.085C435.001 634.555 436.237 638.927 436.902 646.338C437.662 654.891 439.087 658.786 442.413 661.162C443.839 662.207 446.879 665.723 449.35 669.144C455.907 678.457 459.137 681.497 462.083 681.497C466.644 681.497 469.59 683.208 470.73 686.439C471.395 688.149 473.011 691.855 474.531 694.706C476.717 698.792 477.192 700.977 477.192 706.109V712.38L473.011 714.756C470.065 716.371 465.789 720.932 458.947 729.484C449.73 740.982 444.124 748.964 445.169 748.964C445.454 748.964 447.449 748.109 449.73 747.159C452.961 745.639 454.196 745.543 455.717 746.399C456.857 746.969 458.947 747.539 460.563 747.539C463.033 747.539 463.413 747.919 463.984 750.865C464.269 752.67 465.029 755.426 465.599 756.851C466.644 759.322 466.834 759.417 468.925 757.992C471.015 756.661 471.3 756.756 473.961 759.512C475.482 761.127 478.902 763.883 481.468 765.594C488.405 770.155 493.726 775.951 493.061 778.327C492.586 780.322 496.007 786.024 499.428 788.779C500.853 790.015 501.043 791.155 500.473 796.476C499.808 802.748 499.903 802.938 502.658 805.124C504.559 806.644 506.554 809.875 508.455 814.816C510.07 818.807 512.446 823.843 513.776 825.934C516.437 830.115 521.283 841.708 523.659 849.69L525.274 854.916L541.333 863.563C550.075 868.41 559.388 874.016 561.858 876.202C566.42 880.098 566.42 880.098 574.307 880.098C583.239 880.098 583.999 879.622 589.605 870.88C594.357 863.373 600.818 860.143 610.796 860.143C615.927 860.143 616.972 860.428 617.828 862.138C618.683 863.658 618.588 864.419 617.543 865.654C615.927 867.554 612.791 873.541 613.266 873.826C613.456 874.016 614.882 874.586 616.592 875.156C619.443 876.107 619.823 875.917 623.814 871.735C626.095 869.265 628.375 866.604 628.85 865.749C629.326 864.894 633.031 862.043 637.022 859.382C641.108 856.627 644.909 853.396 645.575 852.161C647.38 848.93 652.226 845.129 656.692 843.513C658.878 842.753 662.014 841.138 663.724 839.902C667.62 836.957 674.082 834.486 677.788 834.486C681.494 834.486 691.661 827.359 695.842 821.848C700.594 815.671 700.689 815.671 699.928 819.662C699.168 824.033 699.073 824.128 708.766 816.241C713.992 811.965 716.463 809.115 719.408 803.793C722.924 797.427 723.209 796.381 722.639 792.01C722.259 788.114 722.544 786.499 724.255 783.363L726.44 779.562L733.662 779.277C740.789 778.897 741.074 778.802 746.3 774.431C749.151 771.865 752.762 769.68 754.282 769.395C755.803 769.204 758.653 768.729 760.554 768.444C765.305 767.684 768.346 762.743 767.49 756.946C766.92 752.955 766.825 752.955 762.359 752.29C758.938 751.815 755.803 752.29 749.436 754.096C739.268 757.041 734.422 757.232 728.055 754.666C725.395 753.621 721.974 752.765 720.454 752.765C716.843 752.765 706.96 749.154 705.535 747.254C704.87 746.399 704.299 744.403 704.299 742.883C704.299 741.267 703.159 737.561 701.829 734.711C700.499 731.86 698.598 726.919 697.553 723.783C696.603 720.647 694.417 713.805 692.612 708.579L689.381 699.077L691.566 696.226C692.802 694.611 694.607 691.475 695.557 689.289L697.363 685.298L694.132 673.135C692.326 666.483 690.616 660.782 690.236 660.497C689.856 660.212 684.725 658.216 678.738 656.221L668 652.515L660.969 643.488C657.073 638.546 653.937 633.7 653.937 632.75C653.937 630.754 656.027 630.659 668.19 632.56C673.132 633.32 679.973 633.985 683.299 633.985C688.621 633.985 689.856 633.7 692.041 631.515C694.512 629.139 694.702 629.139 697.458 630.564C699.073 631.42 701.259 633.415 702.494 635.031C705.725 639.592 711.046 641.587 718.458 640.922C723.589 640.542 727.961 641.207 742.024 644.343C751.621 646.528 761.124 648.239 763.119 648.239C765.4 648.239 769.486 649.474 773.762 651.565C785.07 656.981 787.826 655.841 789.916 645.293L790.961 639.782L803.41 634.935C810.346 632.275 817.093 628.949 818.899 627.334C820.704 625.813 823.745 624.198 825.645 623.818C830.396 622.867 840.564 622.867 845.885 623.818C850.066 624.578 850.161 624.578 851.967 621.252C853.772 617.926 853.867 617.831 858.143 618.401C864.415 619.257 870.117 617.451 872.682 613.935C874.583 611.37 875.248 611.084 878.384 611.56C881.614 612.13 882.09 611.845 886.461 606.618C889.121 603.673 891.972 600.062 892.827 598.636C893.778 597.211 895.678 595.786 897.198 595.5C898.814 595.12 900.809 593.505 902.425 591.224C904.8 587.804 905.18 587.613 907.936 588.469C909.647 588.944 914.683 589.324 919.149 589.324C927.226 589.324 927.416 589.229 927.986 586.853C929.221 582.007 933.117 577.256 938.249 574.31C943.76 571.269 947.086 567.088 950.222 559.296C954.308 549.414 956.779 552.93 922.38 519.766C905.37 503.422 891.497 489.644 891.497 489.169C891.497 488.788 893.873 486.223 896.818 483.467C899.764 480.806 902.71 477.481 903.47 476.055C905.846 471.399 904.705 460.566 900.809 451.444C899.099 447.358 899.099 446.788 900.429 444.127C901.855 441.276 905.085 440.136 911.642 440.136C915.538 440.136 919.054 438.141 920.669 435.1L922.095 432.344L923.9 434.34C926.181 436.81 931.027 437 934.163 434.72C935.398 433.865 938.154 432.249 940.339 431.109C957.634 421.891 959.439 420.466 961.055 415.335C962.575 410.108 960.865 406.498 956.208 405.072C950.982 403.552 945.661 403.742 943.57 405.642C942.24 406.878 941.195 407.068 939.199 406.308C936.823 405.452 936.633 404.977 936.348 399.371C936.063 393.669 935.778 393.004 931.787 388.443C927.131 383.122 925.516 379.226 927.701 378.465C929.697 377.8 933.403 373.619 938.344 366.302C941.955 360.791 943.57 359.271 947.466 357.56C950.032 356.515 952.883 355.565 953.738 355.565C956.113 355.565 965.141 349.198 967.896 345.587C969.227 343.877 971.792 341.976 973.503 341.406C976.734 340.266 978.919 337.225 978.919 333.709C978.919 332.759 980.44 330.763 982.245 329.338C986.711 326.012 987.186 323.352 984.621 317.46C982.245 311.854 978.539 308.148 975.308 308.053C974.073 308.053 968.371 307.007 962.575 305.677C956.779 304.347 950.792 303.301 949.272 303.301C946.611 303.301 946.421 303.491 946.801 306.152C947.181 308.338 946.801 309.098 945.281 309.573C944.14 309.953 942.905 310.808 942.335 311.474C941.575 312.519 939.864 312.519 932.357 311.283C918.579 308.908 908.316 310.048 904.99 314.134C903.945 315.465 901.379 316.605 897.198 317.46C893.778 318.125 890.357 319.266 889.501 320.026C888.076 321.261 884.085 321.736 876.388 321.451C875.058 321.356 871.732 320.501 868.976 319.456C866.126 318.41 862.895 317.555 861.754 317.555C858.429 317.46 855.958 315.179 857.098 313.184C857.953 311.664 859.569 311.474 870.117 311.474L882.09 311.378L884.845 308.053C886.366 306.247 887.696 304.252 887.696 303.682C887.696 303.206 888.741 301.211 890.072 299.5C891.402 297.695 892.447 295.129 892.352 293.799C891.687 285.437 892.257 283.917 897.198 280.021C901.284 276.79 901.95 275.744 901.76 273.464C901.57 271.943 900.904 270.518 900.334 270.233C899.669 270.043 896.723 272.419 893.778 275.459C889.121 280.306 888.741 280.591 890.547 277.455C891.687 275.459 892.352 273.464 892.067 272.989C891.782 272.514 892.637 271.848 893.968 271.563C895.393 271.183 898.529 269.188 900.904 267.097C903.375 265.102 906.036 263.391 906.891 263.391C908.981 263.391 913.352 259.02 913.352 257.025C913.257 254.839 911.832 253.034 907.461 249.708C904.23 247.237 903.755 247.142 902.425 248.568C901.57 249.423 900.714 250.088 900.429 250.088C900.239 250.088 899.004 247.712 897.674 244.767L895.298 239.35L889.596 239.92C885.13 240.3 883.23 240.015 880.379 238.495C878.384 237.545 874.678 235.834 872.017 234.789C869.451 233.744 865.745 231.368 863.94 229.658C858.714 224.526 849.686 221.581 849.686 224.907C849.686 225.667 850.352 226.332 851.112 226.332C851.872 226.332 853.107 227.852 853.867 229.563C854.628 231.368 856.148 233.459 857.193 234.124C859.664 235.644 859.854 240.3 857.668 246.667C856.813 249.138 856.053 251.038 855.863 250.848C855.768 250.658 856.053 247.617 856.528 244.006C857.288 238.495 857.193 237.26 855.863 235.834C852.632 232.318 839.614 229.373 840.754 232.413C841.039 233.079 840.564 233.934 839.614 234.314C837.998 234.979 836.858 233.839 833.817 228.993C832.962 227.567 830.967 225.952 829.351 225.382C827.831 224.907 825.265 223.386 823.65 222.246C822.034 221.011 818.613 219.49 816.048 218.825C812.057 217.875 811.202 217.875 809.681 219.3C808.731 220.155 807.686 222.056 807.401 223.481C807.021 225.382 806.355 226.047 805.405 225.667C804.36 225.287 804.075 226.142 804.075 229.563C804.075 232.033 803.315 235.549 802.269 237.545C801.319 239.445 800.274 242.106 799.894 243.436C799.229 246.287 795.903 250.753 795.143 249.993C794.382 249.233 797.613 240.586 798.563 240.586C799.704 240.586 799.514 236.024 798.278 233.649C797.708 232.508 796.188 230.418 794.857 229.088C793.527 227.567 792.292 224.812 791.817 221.866C791.342 218.445 790.106 215.784 787.541 212.743C782.314 206.377 779.369 205.807 779.369 211.128C779.369 212.648 778.893 215.024 778.418 216.449C777.468 218.73 777.088 218.92 773.382 218.445C770.151 217.97 769.011 218.255 767.3 219.87C765.685 221.391 765.115 221.581 765.115 220.535C765.115 218.255 767.205 216.83 770.341 216.83C772.242 216.83 774.142 215.974 775.378 214.644C777.373 212.553 777.373 212.268 776.043 209.513C774.807 206.947 774.807 206.377 776.138 203.621C777.658 200.675 777.563 200.485 775.473 198.11C774.237 196.779 771.196 194.689 768.726 193.454C762.454 190.223 762.929 186.137 769.866 184.046C772.052 183.381 772.147 183.381 770.816 184.996C769.486 186.612 769.486 186.612 771.672 185.567C773.097 184.806 775.568 184.521 778.798 184.996C781.459 185.282 786.685 185.757 790.391 186.042C796.948 186.517 797.138 186.517 800.939 183.381C804.265 180.53 805.975 179.96 813.102 178.915C818.518 178.06 822.034 177.014 823.08 175.969C824.03 175.019 825.74 173.784 826.786 173.118C827.926 172.548 828.781 171.408 828.781 170.553C828.781 169.698 829.541 168.177 830.492 167.132C832.012 165.326 832.012 165.326 829.731 165.992C826.596 166.942 822.034 169.222 820.229 170.743C818.708 172.073 811.297 173.308 806.45 173.023C804.93 172.928 794.762 172.928 783.93 172.928C767.205 173.023 763.88 173.214 761.124 174.639C759.413 175.589 756.658 176.254 755.042 176.159C753.427 175.969 748.391 177.014 743.924 178.345C737.843 180.055 733.377 180.72 727.2 180.72C718.743 180.72 718.648 180.72 716.273 183.761C713.897 186.802 713.802 186.802 706.58 186.517C700.784 186.327 698.503 185.852 695.652 183.951C691.281 181.195 690.046 181.1 690.046 183.476C690.046 184.426 689.096 185.947 687.86 186.707C684.725 188.797 677.028 189.748 675.412 188.417C674.367 187.467 673.322 187.562 670.946 188.797C668.76 190.033 666.67 190.223 663.439 189.843C658.593 189.177 657.738 189.843 657.738 194.499C657.738 197.635 659.543 197.825 663.439 195.164C666.67 192.978 667.05 192.883 679.403 193.549C687.1 193.929 693.467 194.784 695.462 195.639L698.883 196.969L695.937 198.775C691.661 201.341 683.204 202.671 671.421 202.386C660.113 202.196 653.937 203.526 653.842 206.187C653.842 207.517 653.652 207.422 653.082 205.902C652.321 204.191 652.131 204.286 650.516 207.042C649.471 208.753 648.14 210.178 647.57 210.178C646.905 210.178 646.335 210.843 646.335 211.698C646.335 212.839 647 213.029 649.186 212.553C650.991 212.173 652.036 212.268 652.036 212.934C652.036 214.644 646.43 216.925 640.443 217.78C634.362 218.635 627.805 222.341 626.855 225.382C625.81 228.612 623.814 229.183 609.656 229.658C594.927 230.228 585.139 229.278 559.388 224.526C553.686 223.481 548.365 222.531 547.605 222.531C545.609 222.531 547.225 223.766 550.646 225.097L553.686 226.142L550.265 226.237C548.46 226.332 546.084 225.667 545.039 224.907C544.089 224.146 542.474 223.481 541.618 223.481C539.528 223.481 539.338 221.581 541.333 221.581C542.093 221.581 542.759 220.916 542.759 220.06C542.759 219.205 540.098 217.4 535.727 215.309C528.125 211.793 526.7 210.653 528.41 208.943C530.215 207.137 529.55 205.617 526.509 204.571C522.328 203.146 514.822 203.241 511.021 204.857C508.645 205.807 506.649 205.997 503.229 205.332C500.283 204.761 496.007 204.761 491.636 205.427C487.835 205.902 482.228 206.377 479.283 206.377C476.052 206.472 473.106 207.042 472.061 207.802C469.97 209.418 465.124 209.703 463.033 208.372C462.083 207.802 459.613 208.277 455.526 209.798C452.201 211.033 447.83 212.078 445.834 212.078C443.743 212.078 437.282 213.979 430.915 216.544C423.408 219.49 418.182 221.011 414.951 221.011C412.386 221.106 408.965 221.866 407.349 222.626C403.738 224.526 385.494 225.002 380.457 223.386C373.806 221.296 369.72 215.404 369.625 207.612C369.53 205.237 369.055 203.431 368.199 203.146C366.204 202.291 366.774 201.151 369.815 200.01C371.43 199.44 372.665 198.205 372.665 197.35C372.665 196.209 372.19 195.924 371.05 196.399C367.439 197.92 365.349 198.015 364.778 196.589C364.398 195.639 364.969 194.974 366.489 194.594C368.579 194.024 368.674 193.739 367.819 191.553C367.344 190.128 364.969 186.897 362.688 184.331C360.312 181.671 358.412 179.2 358.412 178.725C358.412 178.25 356.987 177.87 355.276 177.87C353.281 177.87 351.38 177.109 350.43 176.064C349.48 175.019 347.579 173.879 346.059 173.594C344.633 173.308 342.543 171.978 341.403 170.743C339.977 169.032 338.457 168.367 335.796 168.367C333.801 168.367 331.33 167.702 330.285 166.942C328.859 165.802 326.674 165.707 319.452 166.087C310.995 166.657 310.33 166.562 308.619 164.661C304.723 160.29 290.755 158.675 289.329 162.286C288.949 163.236 287.144 163.616 283.248 163.616C278.687 163.616 276.881 164.091 273.84 166.182L269.944 168.652L267.854 166.657C262.438 161.621 257.496 150.028 255.311 137.484C254.361 131.878 250.655 126.082 245.808 122.756C243.528 121.235 241.532 120 241.342 120C241.152 120.095 240.202 120.38 239.157 120.57Z" fill="white"/>
<path d="M677.788 155.157C672.371 160.288 671.516 160.764 667.525 160.764C665.245 160.764 662.014 160.003 660.588 159.148C658.213 157.818 657.358 157.723 653.842 158.768C649.566 160.098 643.959 164.85 644.909 166.465C645.195 166.94 648.615 167.415 652.511 167.415C658.023 167.415 659.733 167.035 660.398 165.895C661.349 164.089 662.774 164.66 669.901 169.696C674.272 172.642 676.267 172.451 677.693 168.841C678.833 165.705 682.919 165.42 681.969 168.46C681.114 171.216 683.489 170.456 684.915 167.51C685.485 166.37 686.91 164.755 688.05 163.994C689.096 163.234 690.046 161.714 690.046 160.668C690.046 158.483 686.15 150.501 684.724 149.931C684.249 149.741 681.114 152.116 677.788 155.157Z" fill="white"/>
<path d="M576.302 173.119C575.067 173.594 574.116 174.639 574.116 175.494C574.116 176.634 575.257 176.919 579.248 176.919C585.614 176.919 587.42 176.254 587.42 173.974C587.42 172.453 586.755 172.168 582.954 172.263C580.388 172.263 577.442 172.643 576.302 173.119Z" fill="white"/>
<path d="M662.299 175.682C660.588 175.967 659.923 176.537 660.303 177.487C660.968 179.197 664.769 179.197 666.195 177.582C667.145 176.347 666.67 174.826 665.435 175.111C665.15 175.206 663.724 175.491 662.299 175.682Z" fill="white"/>
<path d="M676.077 176.539C675.412 178.44 677.313 179.77 680.828 179.77C684.344 179.77 683.774 177.87 679.783 176.254C677.123 175.114 676.647 175.209 676.077 176.539Z" fill="white"/>
<path d="M912.022 266.718C910.312 268.428 909.171 271.849 909.932 272.704C910.597 273.275 916.203 268.238 916.203 267.098C916.203 265.673 913.352 265.483 912.022 266.718Z" fill="white"/>
<path d="M903.85 270.995C903.28 272.04 903.09 273.371 903.375 273.846C904.04 274.986 906.701 275.081 906.701 274.036C906.701 273.656 906.986 272.42 907.271 271.185C908.031 268.429 905.275 268.239 903.85 270.995Z" fill="white"/>
<path d="M901.474 279.068C898.624 281.349 899.574 282.299 902.805 280.493C904.61 279.543 906.226 276.692 904.99 276.692C904.61 276.692 903.09 277.738 901.474 279.068Z" fill="white"/>
<path d="M904.325 282.589C902.9 284.299 901.284 286.77 900.714 288.1C900.144 289.431 899.099 291.236 898.244 292.186C897.483 293.041 897.103 294.087 897.483 294.372C897.768 294.657 901.094 291.901 904.895 288.1C910.122 282.874 911.452 281.068 910.407 280.403C908.126 278.978 906.986 279.453 904.325 282.589Z" fill="white"/>
<path d="M895.583 284.012C894.253 284.487 893.873 287.147 895.108 287.147C895.488 287.147 896.343 286.672 897.008 286.007C899.099 283.917 898.339 282.871 895.583 284.012Z" fill="white"/>
<path d="M908.886 287.432C904.42 290.758 903.85 291.899 906.606 291.899C908.221 291.899 915.253 286.102 915.253 284.772C915.253 283.536 912.497 284.677 908.886 287.432Z" fill="white"/>
<path d="M897.293 287.716C894.538 291.232 894.823 292.942 897.673 289.712C899.859 287.336 900.714 285.245 899.669 285.245C899.384 285.245 898.339 286.386 897.293 287.716Z" fill="white"/>
<path d="M908.886 293.517C907.651 293.707 906.701 294.563 906.701 295.323C906.701 296.463 907.081 296.463 909.076 295.133C910.407 294.278 911.452 293.422 911.452 293.232C911.452 293.042 911.357 292.947 911.262 292.947C911.072 293.042 910.027 293.327 908.886 293.517Z" fill="white"/>
<path d="M899.764 295.703C898.434 296.748 896.818 297.603 896.058 297.603C894.348 297.699 891.022 300.454 889.786 302.925C888.171 305.966 889.691 307.296 893.967 306.631C900.524 305.395 902.52 303.495 904.23 296.368C904.99 293.232 903.28 292.947 899.764 295.703Z" fill="white"/>
<path d="M909.076 297.598C906.986 298.644 906.036 299.309 906.986 299.024C907.936 298.739 909.266 298.549 909.932 298.549C910.597 298.549 911.927 297.884 912.972 297.123C915.538 295.128 913.542 295.413 909.076 297.598Z" fill="white"/>
<path d="M914.303 300.644L910.977 302.734L913.828 303.4C918.389 304.445 929.506 304.35 929.506 303.305C929.506 302.734 927.796 302.354 925.706 302.354C922.095 302.354 921.905 302.164 922.855 300.454C923.805 298.743 923.615 298.553 920.764 298.553C919.054 298.553 916.108 299.504 914.303 300.644Z" fill="white"/>
<path d="M906.416 302.063C902.805 303.964 903.66 304.629 907.651 303.013C909.362 302.253 910.407 301.398 909.932 301.113C909.457 300.828 907.841 301.303 906.416 302.063Z" fill="white"/>
<path d="M905.276 306.153C904.515 307.388 905.751 307.388 907.651 306.153C908.886 305.393 908.886 305.203 907.461 305.203C906.606 305.203 905.561 305.583 905.276 306.153Z" fill="white"/>
<path d="M887.696 309.478C886.746 310.618 886.841 310.903 888.361 310.903C889.311 310.903 891.022 310.238 892.067 309.478C893.777 308.148 893.777 308.148 891.402 308.053C889.977 308.053 888.361 308.718 887.696 309.478Z" fill="white"/>
<path d="M889.121 311.566C887.601 311.851 885.891 312.421 885.415 312.896C884.845 313.371 880.854 313.751 876.388 313.751C868.216 313.751 865.08 314.607 866.125 316.412C867.836 319.073 884.655 320.498 884.18 317.932C884.085 317.267 886.366 316.697 890.167 316.317C895.963 315.937 900.049 313.941 900.049 311.661C900.049 310.901 894.443 310.806 889.121 311.566Z" fill="white"/>
<circle id="732" cx="470" cy="216" fill="#5CE50D"/>
<circle id="1565" cx="711" cy="380" fill="#E52A0D"/>
<circle id="733" cx="125" cy="231" fill="#E52A0D"/>
<circle id="1647" cx="633" cy="226" fill="#E52A0D"/>
</svg>
