<svg width="1000" height="1000" viewBox="0 0 1000 1000" fill="none" xmlns="http://www.w3.org/2000/svg">
<path d="M456.045 18.6469C454.438 20.0648 449.239 22.6172 444.512 24.3187C437.517 26.871 435.343 28.1 433.357 30.7468C431.183 33.5828 430.9 34.7171 431.372 37.7421C431.939 41.1452 431.656 41.6179 428.631 43.9811C426.457 45.5881 425.322 47.2897 425.322 48.7076C425.322 50.7874 424.944 50.9764 420.407 50.9764C416.247 50.9764 414.546 51.6381 408.685 55.2303C401.312 59.8623 400.65 60.0513 396.112 58.4443C392.804 57.3099 392.52 56.1756 394.694 53.7178C396.396 51.8271 395.734 50.0311 393.465 50.0311C390.724 50.0311 384.674 54.1904 382.783 57.3099C381.649 59.2951 380.893 62.2256 380.893 65.0615C380.893 71.5841 379.948 72.0568 372.48 69.3154C368.32 67.7083 365.106 65.7232 362.743 63.2654C358.3 58.5389 355.653 57.8771 351.494 60.335C349.698 61.4693 347.618 62.3201 346.767 62.3201C345.066 62.3201 341.19 58.5389 341.19 56.8373C341.19 56.1756 340.812 55.7029 340.339 55.7029C338.07 55.7029 336.274 57.1209 334.384 60.524C333.249 62.5092 331.548 64.3998 330.603 64.7779C329.279 65.156 328.901 66.1013 329.09 68.2755C329.374 71.1115 329.185 71.3005 326.254 71.5841C323.796 71.8677 322.662 72.624 321.244 75.0817C318.786 79.2411 316.99 79.8083 315.099 76.9724C314.343 75.7435 310.94 73.0021 307.537 70.8279C304.228 68.6536 301.487 66.4794 301.487 66.0068C301.487 65.5341 300.542 65.156 299.407 65.156C298.178 65.156 294.492 63.8326 291.089 62.2256C287.78 60.6185 284.85 59.6732 284.755 60.1459C283.243 64.4943 280.785 67.4247 277.854 68.3701C275.018 69.2208 274.546 69.8826 274.262 72.7184C273.884 76.4997 271.899 79.1465 268.212 80.6591L265.66 81.7934L269.158 86.9926C271.048 89.923 278.8 98.7144 286.268 106.56L299.975 120.929L299.407 131.611L302.621 129.626C305.363 127.83 305.835 127.074 306.214 122.442C306.497 119.606 306.97 116.959 307.348 116.581C308.388 115.541 311.602 118.755 312.264 121.496C312.831 123.482 313.303 123.765 315.005 123.198C318.975 121.969 319.921 122.253 319.731 124.71C319.542 126.034 319.259 129.059 319.07 131.517C318.786 135.487 318.219 136.527 314.721 139.646C311.696 142.293 310.751 143.711 311.224 144.94C311.696 146.074 312.453 146.358 313.776 145.98C317.557 144.751 315.478 148.721 311.602 150.139C309.428 150.99 309.05 151.557 309.617 153.353C310.467 156.095 320.677 170.558 325.025 175.095C329.846 180.294 339.583 184.548 344.593 183.792C348.091 183.319 348.752 183.603 352.628 186.912C354.897 188.991 358.111 191.26 359.813 192.205C365.295 195.041 369.455 193.529 366.146 189.842C364.35 187.857 364.35 187.857 367.47 186.25C369.171 185.305 369.455 184.832 368.604 183.792C367.659 182.658 368.226 182.563 372.102 183.036C376.544 183.508 376.923 183.414 379.569 180.294C381.082 178.498 383.445 176.23 384.958 175.284C387.226 173.772 387.794 173.772 389.212 175.001C390.062 175.757 392.615 176.891 394.694 177.459C397.814 178.404 398.948 179.349 400.366 182.185C402.257 186.25 410.103 195.608 411.521 195.608C412.088 195.608 413.128 195.987 413.79 196.365C416.153 197.877 413.601 201.375 408.212 203.927C405.093 205.534 403.013 207.236 402.729 208.276C402.257 210.922 406.227 213.569 409.441 212.908C410.954 212.624 412.75 212.908 413.506 213.569C414.735 214.609 415.397 214.42 417.287 212.624L419.461 210.544L420.974 213.38C422.865 217.067 422.865 217.067 420.596 217.634C419.65 217.918 418.043 219.619 417.193 221.415C415.869 224.251 415.775 225.102 416.815 226.331C418.516 228.316 419.934 228.127 422.486 225.386C425.322 222.361 430.049 222.077 430.049 224.913C430.049 226.425 430.711 226.804 433.263 226.804C436.761 226.804 439.124 229.356 440.069 234.272C440.542 236.446 440.258 237.297 438.557 238.336C436.193 239.754 433.452 244.764 432.412 249.491C431.561 253.65 430.332 255.163 427.875 255.163C426.74 255.163 424.566 256.486 422.865 258.093C420.312 260.551 419.367 260.929 416.815 260.362C414.924 259.984 413.601 258.944 413.033 257.526C412.277 255.446 411.899 255.352 409.063 256.203C404.147 257.715 393.182 259.228 387.794 259.039L382.783 258.944L384.674 261.969C385.714 263.671 386.565 265.75 386.565 266.601C386.565 268.775 383.067 272.084 376.261 276.243C373.141 278.228 370.494 280.214 370.494 280.686C370.494 282.293 382.594 288.249 385.903 288.249C388.644 288.249 389.873 288.91 392.52 292.03C394.694 294.582 396.207 295.622 397.247 295.244C398.097 294.96 399.894 295.527 401.312 296.662C402.729 297.796 404.431 298.647 405.187 298.647C405.944 298.647 408.212 300.538 410.292 302.806C413.317 306.115 415.869 307.627 423.243 310.463C428.253 312.448 432.979 314.812 433.736 315.757C434.681 317.081 436.193 317.553 439.691 317.553C443.756 317.553 444.89 318.026 448.955 321.523L453.492 325.399L453.02 330.409C452.547 334.947 452.831 335.987 456.99 343.927C460.96 351.395 462 352.624 464.931 353.569C471.926 355.838 475.235 358.107 475.896 360.848C476.18 362.361 477.692 364.535 479.205 365.669C481.19 367.087 482.041 368.505 482.041 370.301C482.041 371.814 483.553 375.406 485.349 378.431C489.32 385.048 498.584 395.73 501.041 396.486C502.27 396.864 502.838 397.999 502.838 399.7C502.838 403.103 505.484 405.845 512.291 409.248C515.41 410.855 518.813 413.313 519.853 414.731C521.271 416.621 522.5 417.378 523.918 417.094C525.714 416.81 526.47 417.85 529.306 423.617C531.102 427.303 534.411 432.313 536.68 434.582C541.122 439.214 541.028 438.742 539.704 446.493C538.854 451.881 538.948 452.165 541.501 455.095C543.013 456.797 544.431 459.727 544.809 461.523C545.282 463.981 546.511 465.777 549.252 467.952C553.601 471.355 553.979 471.166 555.964 464.737C557.098 461.051 558.894 460.484 559.367 463.698C559.556 464.643 561.258 467.857 563.148 470.693C566.551 475.703 566.835 475.892 571.372 476.176C578.084 476.554 580.353 477.877 580.353 481.564C580.353 483.455 581.109 485.251 582.527 486.574C584.985 488.937 586.781 489.126 590.184 487.614C593.776 485.912 597.368 488.559 597.368 492.908C597.368 496.405 595.194 499.052 590.278 501.604C588.766 502.455 587.159 503.59 586.781 504.157C586.403 504.724 586.025 504.819 586.025 504.346C586.025 503.779 584.796 504.629 583.189 506.142C579.691 509.451 579.502 512.854 582.716 514.366C583.945 514.933 585.363 516.635 585.93 518.053C586.403 519.565 587.348 520.794 587.821 520.794C588.388 520.794 589.428 522.307 590.184 524.103C591.129 526.372 592.264 527.411 593.492 527.411C594.627 527.411 595.478 527.884 595.478 528.451C595.478 529.207 596.612 529.397 598.692 529.018C601.528 528.546 602 528.735 602.284 530.531C602.473 531.76 603.513 532.705 604.931 533.083C607.861 533.745 608.428 536.203 606.349 539.417C604.836 541.685 604.836 542.064 606.916 546.412L609.09 551.044L606.065 554.164C604.458 555.771 602.851 558.417 602.473 559.835C602.189 561.348 600.866 562.955 599.542 563.617L597.274 564.562L600.393 567.776C602.473 569.95 602.946 570.896 601.906 570.896C599.164 570.896 598.975 575.339 601.622 579.214C603.418 581.767 603.985 583.941 603.985 587.627C603.985 590.274 604.458 593.677 604.931 595.095C605.781 597.175 605.592 598.026 604.174 599.633C598.881 605.777 594.154 615.23 594.721 618.634C595.005 619.673 594.532 621.186 593.776 621.942C592.547 623.076 592.642 623.36 594.154 624.494C595.194 625.251 596.99 626.101 598.314 626.385C601.433 627.141 602.189 628.465 601.528 631.679C601.149 633.664 602.284 636.878 606.349 645.008C609.279 650.963 611.926 657.391 612.21 659.471C612.588 662.118 611.737 666.182 609.279 674.029L605.781 684.994L606.632 699.835C607.483 714.11 607.578 714.866 610.224 718.647L612.966 722.523L603.702 740.106L600.677 738.215C598.881 737.081 595.95 736.324 593.492 736.324C589.9 736.324 588.955 736.797 585.079 740.862C576.193 749.842 576.288 749.842 572.129 748.708C566.835 747.29 563.432 748.708 558.611 754.38C555.113 758.539 554.262 759.012 550.954 759.012C548.874 759.012 545.66 758.35 543.769 757.594C539.137 755.609 537.814 757.499 541.312 761.091L543.769 763.644L541.217 766.952C538.759 770.166 538.759 770.45 540.177 773.191C540.933 774.704 542.068 776.027 542.54 776.027C543.108 776.027 543.486 776.689 543.486 777.54C543.486 778.674 542.446 778.958 538.097 778.769C535.073 778.579 531.858 778.863 530.913 779.241C529.59 779.903 529.212 779.43 528.739 777.067C528.077 773.853 525.998 773.286 520.231 774.987C517.49 775.744 517.112 775.555 516.072 773.38C514.937 770.922 514.937 770.923 513.519 772.719C512.763 773.758 511.912 775.744 511.629 777.162C511.156 779.619 510.967 779.714 506.808 779.147C503.31 778.674 502.365 778.863 501.325 780.281C499.623 782.644 499.623 787.087 501.42 792.097C502.176 794.272 502.838 797.486 502.838 799.093C502.932 800.7 503.405 802.969 504.066 804.103C505.768 807.222 514.748 813.556 519.853 815.257C523.351 816.392 524.58 817.337 524.958 819.133C525.336 820.551 525.147 822.158 524.485 822.914C523.351 824.332 523.54 825.656 525.998 831.233L527.51 834.92L523.067 834.353C519.569 833.975 517.962 833.218 516.45 831.328C513.519 827.546 510.778 828.586 509.077 833.88C508.793 834.92 507.659 835.582 506.241 835.582C504.255 835.582 503.783 835.014 503.216 832.273C502.932 830.382 501.798 828.492 500.852 827.925C499.529 827.263 499.056 825.939 499.056 823.198C499.056 818.85 497.071 817.432 494.424 819.889C493.479 820.74 489.792 822.442 486.2 823.671C482.608 824.9 478.07 826.885 476.085 828.019C472.588 830.099 472.304 830.099 469.185 828.586C467.294 827.736 463.04 826.601 459.542 826.128C453.587 825.278 453.114 825.372 451.696 827.263C449.711 829.815 450.278 831.517 454.06 834.825L456.99 837.378L449.428 845.035C442.243 852.219 441.676 852.597 437.611 852.597C431.845 852.597 422.297 854.677 419.556 856.567C418.138 857.418 416.625 859.971 415.586 863.09L413.979 868.195L418.327 872.543C422.392 876.702 422.959 876.891 425.417 876.041C429.576 874.623 434.681 875.852 435.91 878.688C436.666 880.389 437.989 881.145 440.825 881.618C444.323 882.185 449.9 886.534 449.9 888.708C449.9 889.18 447.064 892.111 443.661 895.42L437.422 901.28L436.95 909.788C436.666 914.515 435.815 919.43 435.059 920.943C434.397 922.361 433.83 925.102 433.925 927.087C434.019 928.978 433.357 933.137 432.507 936.257C430.616 943.158 430.522 950.72 432.318 952.705C433.357 954.029 433.357 955.163 432.318 960.268C431.656 963.671 431.278 966.601 431.561 966.885C431.939 967.357 433.452 966.885 438.84 964.616C440.069 964.049 440.447 964.427 440.447 966.318C440.447 967.641 440.92 969.059 441.393 969.343C441.96 969.626 442.338 970.95 442.338 972.178C442.338 974.825 440.258 975.487 436.288 974.258C434.019 973.502 433.357 973.596 431.939 975.393C430.711 977.094 429.671 977.472 427.118 977.189C424.755 977 423.904 977.283 423.621 978.512C423.432 979.646 424.282 980.403 427.118 981.064C429.293 981.632 432.696 982.577 434.775 983.049C437.517 983.806 440.825 983.806 446.403 982.955C454.91 981.726 456.99 980.308 457.935 975.203C458.408 972.651 459.259 971.8 462.851 970.382C467.672 968.397 472.588 962.442 472.588 958.566C472.588 957.243 473.06 954.596 473.533 952.8C475.613 945.426 500.663 933.043 513.519 932.948C516.072 932.948 517.773 932.286 519.38 930.585C521.555 928.505 521.744 927.56 521.744 919.808V911.395L524.958 914.609C528.361 918.012 529.779 918.296 539.704 917.918C543.675 917.729 545.471 917.162 547.078 915.555L549.347 913.38L546.889 908.748C544.053 903.266 541.784 900.524 538.948 899.012C537.719 898.35 536.869 897.027 536.869 895.703C536.869 892.395 539.515 893.434 542.919 897.972C546.227 902.32 550.765 904.684 552.088 902.604C554.262 899.106 552.088 894.852 546.416 891.638C539.61 887.857 540.083 886.628 548.212 886.628C551.899 886.628 554.829 886.25 554.829 885.777C554.829 885.21 556.342 885.116 558.138 885.399L561.447 885.966V881.996C561.447 878.404 561.163 878.026 558.705 877.553C557.287 877.27 554.829 875.946 553.317 874.717L550.576 872.543L554.168 872.449C557.665 872.449 561.447 869.896 561.447 867.533C561.447 866.871 560.312 865.264 558.894 863.752C556.058 860.821 556.436 859.403 559.556 861.105C560.69 861.672 562.297 861.956 563.054 861.672C564.377 861.105 564.377 860.821 562.865 859.309C560.312 856.378 561.352 854.677 564.944 855.622C567.78 856.378 567.969 856.567 566.929 858.836C565.984 860.821 566.173 861.483 567.875 863.185C569.009 864.319 570.049 865.075 570.143 864.792C570.332 864.602 571.183 863.09 572.034 861.578C573.925 858.08 575.343 857.796 579.786 859.592C582.621 860.821 583.189 861.483 583.189 863.941C583.189 867.438 583.283 867.438 595.572 861.956C600.204 859.876 605.214 858.269 607.199 858.269C609.09 858.269 610.603 857.891 610.603 857.513C610.603 857.135 612.021 855.149 613.817 853.259C616.18 850.706 617.787 849.761 619.867 849.761C621.474 849.761 623.931 848.816 625.444 847.492C629.131 844.467 631.872 843.144 634.519 843.144C637.827 843.144 646.052 834.164 646.902 829.626C647.47 826.601 647.942 826.128 650.116 826.128C651.534 826.128 653.803 826.696 655.127 827.452C658.152 828.964 660.042 828.114 661.649 824.238C662.5 822.253 663.634 821.307 665.903 820.835C668.077 820.457 669.306 819.511 670.346 817.243C671.575 814.69 672.615 814.029 676.774 813.083C680.555 812.232 682.068 812.138 683.108 812.989C684.147 813.934 685.187 813.367 688.401 810.342C694.073 805.048 697.287 803.252 700.69 803.63C703.054 803.819 703.715 803.536 703.999 802.023C704.188 800.983 704.85 798.62 705.511 796.824C706.268 794.839 706.646 791.53 706.362 788.505C705.795 783.59 707.213 781.51 708.253 785.575C709.387 789.923 713.263 784.819 715.721 775.46C716.761 771.584 716.761 770.828 714.87 767.425C713.736 765.44 713.263 763.738 713.736 763.738C714.208 763.738 715.059 762.698 715.532 761.375L716.382 759.012L718.746 761.375C721.96 764.589 724.228 764.494 723.85 761.091C723.661 759.295 722.716 758.161 720.636 757.216C716.382 755.419 714.492 750.977 716.099 746.723C717.706 742.28 716.761 733.583 714.492 731.314C712.412 729.329 712.129 726.871 713.925 726.871C716.382 726.871 718.651 729.424 719.218 733.016C719.502 735.001 720.353 736.797 721.014 737.081C722.338 737.459 725.646 730.652 726.119 726.399C726.403 723.657 726.308 723.563 722.905 723.846C719.691 724.13 719.313 723.941 719.313 721.956C719.313 720.632 718.273 718.647 716.95 717.418C713.925 714.582 714.019 713.826 717.139 713.826C719.029 713.826 720.731 712.692 723.283 709.856C725.268 707.682 726.875 705.224 726.875 704.562C726.875 703.806 727.726 703.239 728.861 703.239C731.224 703.239 734.438 701.631 734.438 700.403C734.438 699.93 732.169 697.85 729.522 695.771C722.621 690.571 721.865 689.153 723.189 683.954C724.039 680.457 723.945 679.228 722.716 676.675C721.771 674.69 721.487 673.272 722.054 672.611C723.283 671.193 722.149 669.491 719.88 669.113C717.989 668.735 715.815 663.914 716.95 662.779C717.328 662.401 718.557 663.252 719.786 664.67C721.204 666.277 722.621 667.128 723.472 666.75C724.701 666.277 724.701 665.615 723.094 661.456C722.149 658.809 720.447 655.879 719.313 654.839C718.084 653.61 717.422 651.908 717.422 649.356C717.422 647.371 716.95 644.535 716.477 643.212C715.91 641.604 715.815 640.092 716.382 639.147C717.139 637.823 717.422 637.918 718.368 640.376C720.447 646.237 720.447 646.142 721.393 643.495C721.96 641.699 721.865 639.997 720.825 637.54C719.975 635.555 719.313 632.624 719.313 631.017C719.218 627.614 717.422 624.778 715.154 624.778C714.303 624.778 713.168 623.738 712.696 622.509C712.223 621.28 711.372 619.957 710.9 619.579C710.332 619.295 709.86 618.539 709.86 617.972C709.86 617.405 710.805 617.783 712.034 618.823C716.288 622.698 716.761 622.604 716.288 618.066C715.815 614.001 710.805 604.832 707.686 602.28C705.7 600.578 704.566 592.07 706.173 590.18C707.969 588.006 704.472 578.552 701.447 577.418C699.745 576.756 699.367 576 699.745 574.11C699.934 572.692 699.367 569.383 698.422 566.547C697.382 563.806 696.626 560.97 696.626 560.308C696.626 559.646 695.775 558.512 694.64 557.85L692.655 556.621L694.735 554.353C696.342 552.651 696.72 551.517 696.247 549.437C695.869 548.019 695.302 545.372 695.018 543.671C694.64 541.496 693.979 540.646 692.75 540.646C691.804 540.646 690.576 539.795 690.008 538.755C688.779 536.486 686.7 536.297 685.849 538.282C684.998 540.646 683.391 539.889 682.824 536.864C682.162 533.65 681.784 533.461 679.515 535.541C677.152 537.621 676.301 536.77 674.883 530.72C674.127 527.411 672.426 524.103 670.44 521.834C668.739 519.754 666.565 516.446 665.809 514.461C664.107 510.396 660.987 506.615 659.191 506.615C658.624 506.615 657.584 505.291 656.923 503.779C656.261 502.172 654.937 500.47 653.992 499.903C651.44 498.579 651.723 495.555 654.559 493.758C655.883 492.908 656.923 491.584 656.923 490.923C656.923 489.032 650.873 489.221 648.982 491.112C648.131 491.868 646.524 492.435 645.39 492.246L643.216 491.962L645.39 489.788C646.524 488.654 647.47 486.952 647.47 485.912C647.47 484.494 646.808 484.211 643.688 484.305C638.962 484.4 637.449 483.076 638.962 480.051C640.002 478.255 639.907 477.783 638.395 476.648C636.882 475.514 636.504 475.609 635.559 476.837C634.991 477.594 633.384 478.255 632.061 478.255C630.738 478.255 629.32 478.728 629.036 479.201C628.28 480.335 624.688 479.484 623.648 477.877C623.27 477.31 622.892 475.703 622.892 474.38C622.892 472.205 622.135 471.544 617.598 469.748C612.588 467.668 596.045 457.553 596.707 456.891C597.463 456.041 605.687 459.727 607.389 461.713C609.185 463.603 609.752 463.792 611.075 462.752C612.588 461.713 612.493 461.429 610.035 459.444C606.254 456.513 600.299 452.732 599.448 452.732C599.07 452.732 596.801 450.841 594.532 448.478C590.846 444.792 589.806 444.224 586.308 444.224C582.527 444.224 582.243 444.035 581.393 440.632C580.825 438.742 580.353 436.189 580.353 434.96C580.353 432.313 577.989 427.587 575.248 424.467C574.208 423.239 570.238 420.875 566.457 419.174C562.014 417.094 559.556 415.392 559.083 413.974C558.705 412.84 556.436 410.477 553.884 408.681C548.874 405.089 546.889 401.591 545.944 394.974C545.471 391.571 544.809 390.342 543.013 389.586C541.69 388.924 540.65 387.789 540.65 387.033C540.65 386.182 539.704 384.292 538.665 382.779L536.585 380.038L539.137 377.107C542.068 373.515 542.162 373.137 539.61 370.963C538.476 369.829 537.814 368.222 538.003 366.709C538.287 363.684 537.247 361.983 534.978 361.983C533.938 361.983 531.669 360.47 529.873 358.674C527.983 356.878 525.714 355.365 524.674 355.365C523.729 355.365 522.594 354.704 522.311 353.853C521.933 352.908 520.798 352.529 519.097 352.719C516.923 352.908 515.694 352.151 512.48 348.465C510.305 345.912 508.509 343.549 508.509 342.982C508.509 342.509 507.942 342.131 507.186 342.131C504.823 342.131 502.838 339.295 502.838 335.798C502.838 333.907 501.987 331.449 500.947 330.126C499.907 328.802 499.056 326.25 499.056 324.548C499.056 322.091 498.678 321.429 496.977 321.145C495.464 320.956 494.613 319.916 494.046 317.459C493.574 315.19 492.345 313.583 490.454 312.448C487.618 310.747 485.822 307.627 485.822 304.319C485.822 302.995 486.862 302.239 489.603 301.483C494.519 300.159 496.315 297.04 493.952 293.542C492.061 290.517 492.061 290.423 494.33 289.856C495.559 289.572 496.22 288.532 496.22 287.02C496.22 285.696 496.693 283.428 497.26 281.915C498.773 277.945 500.285 268.492 500.191 263.482C500.191 259.606 500.38 259.039 502.554 258.471C504.539 257.999 504.823 257.432 504.539 255.163C504.255 253.178 504.634 251.854 505.863 250.72C506.808 249.869 507.564 247.979 507.564 246.561C507.564 243.346 508.226 242.874 516.544 240.511C521.933 238.998 523.445 238.053 525.241 235.406C526.47 233.61 528.644 231.436 530.157 230.49C531.669 229.64 533.182 227.654 533.465 226.142C534.127 223.779 534.316 223.684 535.356 225.197C536.774 227.087 539.988 227.371 541.312 225.575C543.58 222.455 546.322 211.679 546.511 204.683C546.7 197.972 546.889 197.499 548.023 199.295C548.779 200.43 550.197 201.28 551.143 201.28C553.317 201.28 553.411 200.335 551.521 197.877C549.441 195.136 549.819 194.474 552.844 195.136C556.625 195.987 558.043 193.245 557.854 185.399C557.854 181.996 558.138 179.727 558.705 180.011C559.178 180.389 559.556 181.145 559.556 181.712C559.65 183.036 562.865 187.101 563.81 187.101C564.188 187.101 564.283 185.966 563.999 184.548C563.432 181.523 567.686 176.702 570.805 176.702C572.129 176.702 572.79 176.135 572.79 174.812C572.79 172.259 574.586 172.448 577.611 175.379L580.258 177.837L583 175.852C584.607 174.812 586.97 173.866 588.293 173.866C589.806 173.866 591.318 173.016 592.264 171.409C593.682 169.329 594.06 169.234 594.721 170.463C595.761 172.354 597.368 172.448 597.368 170.652C597.368 169.896 599.732 167.249 602.567 164.886C607.483 160.632 609.279 158.08 606.632 159.025C605.971 159.214 604.553 159.025 603.607 158.458C602.189 157.796 601.433 157.985 600.204 159.403C597.746 162.523 594.91 162.995 594.249 160.443C593.492 157.796 594.91 156.851 599.921 156.851C602.946 156.851 604.269 156.378 605.12 154.96C605.781 153.92 607.01 153.07 607.767 152.975C608.523 152.975 610.319 152.219 611.642 151.368C616.653 148.154 619.583 145.98 620.528 144.94C621.946 143.238 626.673 142.482 628.091 143.617C629.981 145.129 632.912 143.333 633.668 140.213C634.235 138.228 633.952 137.378 632.628 136.716C631.683 136.149 629.225 133.974 627.24 131.895C618.26 122.536 614.762 121.874 603.891 127.074C595.856 130.949 594.91 131.044 594.249 128.492C593.871 126.979 592.925 126.601 589.806 126.601C586.686 126.601 585.741 126.223 585.363 124.71C584.985 123.292 584.039 122.82 581.676 122.82C577.139 122.82 569.009 116.675 569.009 113.178C569.009 109.018 568.158 107.6 566.268 108.829C563.337 110.625 559.934 109.018 558.422 105.237L557.004 101.739L554.924 104.764C553.601 106.655 551.993 107.695 550.576 107.695C548.401 107.695 548.401 107.6 548.779 98.2418L549.252 88.8832L545.565 86.9926C540.177 84.2512 539.61 83.1168 539.894 76.4052L540.177 70.4497L543.675 69.5989C546.794 68.8427 547.361 68.181 549.725 62.6982C551.143 59.3896 552.844 56.1756 553.601 55.6084C555.491 54.0014 555.113 53.1506 551.993 51.3546C550.481 50.4092 548.59 48.1405 547.834 46.1553C546.511 42.8467 546.227 42.6577 540.933 42.0905C532.709 41.1452 532.142 41.2397 527.037 43.8866C523.067 45.9662 522.122 46.1553 521.271 45.0209C519.759 42.9413 514.559 40.578 511.345 40.578C509.738 40.578 506.146 41.3343 503.405 42.3741C497.071 44.5483 493.857 43.9811 490.359 40.0109C488.847 38.3093 486.2 36.4186 484.499 35.8515C482.702 35.2843 480.528 33.9609 479.677 33.0156C478.354 31.5976 477.692 31.4085 476.747 32.1648C475.707 33.0156 475.329 32.3538 474.856 29.3289C474.384 26.2094 473.344 24.6968 470.319 22.2391C466.443 19.1196 461.055 16 459.637 16C459.259 16 457.557 17.2289 456.045 18.6469Z" fill="white"/>
<circle id="737" cx="500" cy="181" fill="#5CE50D"/>
<circle id="738" cx="679" cy="539" fill="#E52A0D"/>
<circle cx="355" cy="105" fill="#E52A0D"/>
<circle id="736" cx="572" cy="859" fill="#E52A0D"/>
</svg>
