<svg width="1000" height="1000" viewBox="0 0 1000 1000" fill="none" xmlns="http://www.w3.org/2000/svg">
<path d="M259.493 16.7947C259.21 17.2674 259.399 18.9691 259.966 20.5763C260.817 22.8453 260.722 24.2634 259.777 26.5323C258.737 29.0849 258.832 29.5576 260.344 30.6921C261.29 31.4484 263.086 32.0156 264.22 32.0156C265.827 32.0156 266.395 31.2593 266.867 28.7067C267.246 26.9105 267.907 25.3978 268.38 25.3978C270.365 25.3978 269.231 22.5616 266.962 21.9944C265.733 21.7108 264.409 20.4818 264.031 19.4418C263.086 16.4165 260.533 14.9984 259.493 16.7947Z" fill="white"/>
<path d="M266.773 36.4507C265.166 37.0179 265.166 40.4213 266.773 41.0831C268.664 41.7449 273.107 39.8541 273.107 38.2469C273.107 36.2616 269.704 35.2216 266.773 36.4507Z" fill="white"/>
<path d="M271.5 48.1758C268.947 49.1212 268.853 50.0665 270.933 54.0372L272.445 57.0625L273.674 54.2263C276.038 48.8375 275.187 46.7577 271.5 48.1758Z" fill="white"/>
<path d="M275.943 60.2801C275.943 63.589 276.227 64.1562 277.928 64.1562C279.536 64.1562 279.819 63.6836 279.536 60.6583C279.347 58.1057 278.779 56.9712 277.645 56.7821C276.227 56.4985 275.943 57.1603 275.943 60.2801Z" fill="white"/>
<path d="M360.462 68.0331C358.665 70.0185 358.76 70.0185 361.312 72.2874C364.81 75.3127 370.483 75.5018 370.483 72.6656C370.483 71.6256 369.821 70.4912 369.065 70.2075C368.308 69.8294 367.647 68.7894 367.647 67.844C367.647 65.2915 362.825 65.4805 360.462 68.0331Z" fill="white"/>
<path d="M407.354 88.3604C406.597 89.6839 405.274 90.6293 403.95 90.6293C402.248 90.6293 400.736 92.2365 400.736 93.9382C400.736 95.0727 403.95 95.0727 406.125 93.9382C407.543 93.1819 409.623 92.5201 410.757 92.5201C413.121 92.5201 416.619 89.0221 415.295 87.8877C414.822 87.415 413.121 86.8477 411.513 86.5641C409.055 86.0914 408.394 86.375 407.354 88.3604Z" fill="white"/>
<path d="M374.548 96.0133C371.617 97.5259 371.428 97.9041 371.428 102.537C371.428 105.278 371.05 107.831 370.483 108.114C369.159 108.871 371.523 113.125 375.115 116.528C376.722 118.136 378.046 119.932 378.046 120.688C378.046 121.444 378.519 123.713 379.181 125.793C380.031 128.724 380.693 129.386 382.206 129.197C383.908 128.913 384.191 128.346 384.002 125.321L383.813 121.728L387.027 122.39C389.391 122.768 390.336 122.674 390.336 121.823C390.336 121.161 391.093 120.877 392.132 121.161C393.267 121.444 394.685 120.877 395.63 119.837C396.481 118.892 397.994 118.041 398.939 118.041C401.019 118.041 401.87 116.812 401.114 114.827C400.641 113.692 400.074 113.598 398.845 114.259C397.899 114.827 395.914 115.205 394.591 115.205C392.322 115.205 392.132 114.921 392.7 112.652C392.983 111.234 393.929 109.627 394.78 109.06C396.103 108.114 396.009 107.547 394.307 104.238C392.038 99.7003 389.864 97.715 385.326 95.8242C381.071 94.0279 378.424 94.1225 374.548 96.0133Z" fill="white"/>
<path d="M389.58 159.262C387.973 160.397 386.271 160.586 383.151 160.113C379.464 159.64 378.992 159.735 378.992 161.248C378.992 162.288 377.952 164.462 376.628 166.258C374.737 168.811 374.265 170.607 374.265 174.956C374.265 182.236 375.494 184.221 379.559 183.275C381.261 182.897 384.664 182.897 387.217 183.37C393.267 184.504 396.103 182.519 397.521 176.09C398.089 173.538 398.845 170.702 399.318 169.756C399.696 168.811 399.601 167.109 399.129 165.975C398.561 164.84 397.805 162.571 397.332 161.059C396.292 157.655 392.889 156.899 389.58 159.262Z" fill="white"/>
<path d="M453.206 190.836C451.787 192.443 451.693 193.105 452.733 195.563C453.962 198.494 456.514 199.345 458.216 197.17C458.878 196.414 458.689 194.996 457.743 192.443C456.136 188.473 455.569 188.189 453.206 190.836Z" fill="white"/>
<path d="M266.678 229.887C266.017 230.643 265.166 233.291 264.693 235.938C264.126 238.49 263.275 242.556 262.708 244.919C261.668 249.079 261.668 249.457 264.22 252.86C266.678 256.075 266.962 257.115 266.962 263.638C266.962 269.972 267.246 271.296 269.42 274.132C271.5 276.779 272.162 279.048 272.918 286.517C273.674 293.796 274.431 296.443 276.321 299.279C279.158 303.439 279.536 309.017 277.361 316.202C274.998 324.049 275.471 326.412 281.237 335.866C284.263 340.593 287.477 345.699 288.612 347.306C289.652 348.818 290.975 352.505 291.637 355.342C292.488 359.596 293.055 360.73 295.04 361.392C296.931 362.054 298.066 361.865 300.051 360.258C301.469 359.123 303.738 358.178 304.967 358.178C306.196 358.178 308.276 357.138 309.599 355.814C311.207 354.113 312.625 353.545 313.854 353.923C315.083 354.396 316.312 353.829 317.446 352.316C319.148 350.236 319.337 350.236 321.133 351.844C322.93 353.451 326.049 353.167 326.049 351.465C326.049 349.858 327.751 350.615 328.224 352.316C328.413 353.356 329.453 354.302 330.493 354.585C333.613 355.436 336.354 353.64 338.434 349.386C340.798 344.564 344.39 342.862 350.63 343.713C353.371 344.091 354.411 343.902 354.411 342.957C354.411 342.295 352.331 337.379 349.684 331.99C344.201 320.645 343.917 319.133 347.51 319.984C349.968 320.645 349.968 320.551 349.401 316.958C348.739 312.893 345.808 310.057 342.216 309.962C340.514 309.962 340.136 309.584 340.798 308.261C341.176 307.41 341.648 303.439 341.743 299.563C341.932 293.796 341.648 292 340.23 290.109C338.718 288.218 338.34 288.029 338.34 289.353C338.34 291.149 336.732 291.527 334.747 290.204C333.896 289.636 333.707 288.407 334.085 286.044C334.653 283.397 334.463 282.451 333.329 281.979C330.965 281.128 329.831 276.59 330.965 272.43C332.762 265.34 332.667 265.056 327.751 264.772C324.064 264.489 323.119 264.867 321.89 266.663C321.039 267.798 320.377 269.878 320.377 271.296C320.377 272.714 319.715 274.321 318.864 275.077C317.919 275.834 317.635 277.063 318.013 278.575C318.297 279.804 318.297 283.397 317.919 286.422C317.446 290.771 316.974 292 315.934 291.622C315.177 291.338 313.381 292 311.868 293.04C309.599 294.742 308.465 295.025 304.022 294.458C297.12 293.607 295.418 291.244 296.269 284.059C296.742 280.466 296.553 278.292 295.513 276.306C294.284 273.848 293.055 267.892 291.542 257.966C291.164 255.318 290.219 254.089 286.815 251.82C283.696 249.741 282.466 248.133 281.994 245.864C281.71 244.163 280.67 242.272 279.819 241.61C278.969 241.043 277.55 239.341 276.605 237.829C275.66 236.41 274.431 235.276 273.769 235.276C273.012 235.276 271.878 233.952 271.122 232.251C269.609 228.753 268.191 228.091 266.678 229.887Z" fill="white"/>
<path d="M463.227 259.757C462.187 260.419 462.376 261.176 464.172 263.539C466.063 266.092 466.346 267.982 466.914 278.004C467.197 284.432 467.954 290.577 468.615 291.712C469.277 292.846 469.75 295.21 469.75 296.912C469.75 298.708 470.412 300.977 471.168 302.017C472.964 304.38 472.964 307.217 471.168 309.58C468.994 312.511 469.466 315.536 472.586 318.183C474.193 319.412 475.422 321.303 475.422 322.343C475.422 324.612 478.542 326.314 479.96 324.895C481.473 323.383 481.378 321.114 479.771 318.845C478.542 317.238 478.542 316.86 480.244 315.631C482.04 314.212 482.04 313.74 481 307.122C480.433 303.246 479.204 298.519 478.258 296.723C477.313 294.926 476.084 290.199 475.517 286.323C474.855 282.447 474.004 276.869 473.437 274.033C472.964 271.197 472.491 267.699 472.302 266.281C472.208 264.579 470.979 262.877 468.899 261.27C465.212 258.623 465.117 258.623 463.227 259.757Z" fill="white"/>
<path d="M436.661 313.836C435.054 315.254 432.028 316.577 430.043 316.956C427.585 317.334 425.978 318.279 424.843 320.075C422.007 324.424 416.524 328.773 413.877 328.868C412.458 328.868 410.851 329.435 410.284 330.191C407.921 332.933 418.414 338.132 422.952 336.431C423.992 336.053 425.505 336.053 426.261 336.431C427.112 336.903 429.759 336.809 432.217 336.242C435.526 335.58 437.133 334.634 438.741 332.366C439.875 330.664 441.388 328.962 442.144 328.584C446.587 325.748 449.707 321.966 450.274 318.563C450.558 316.294 451.693 314.214 452.827 313.458C455.663 311.472 453.772 310.81 446.209 311.094C440.82 311.378 439.213 311.756 436.661 313.836Z" fill="white"/>
<path d="M473.059 335.391C472.775 335.958 472.397 339.078 472.208 342.293C472.019 345.601 471.263 349.478 470.412 351.085C469.278 353.165 468.899 356.095 468.994 362.335C469.088 369.52 469.467 371.316 471.263 374.058C473.059 376.611 473.343 378.029 472.87 381.338C472.492 384.174 472.87 386.348 473.91 388.523C474.761 390.13 475.423 393.533 475.423 395.991C475.423 400.151 475.706 400.624 479.582 403.365C481.851 405.067 484.404 406.391 485.16 406.391C486.011 406.391 487.051 404.027 488.185 399.3C489.604 393.25 489.698 391.453 488.658 386.348C488.091 383.039 487.146 378.029 486.673 375.192C486.106 372.356 485.066 369.331 484.404 368.48C483.648 367.724 482.986 365.833 482.986 364.415C482.986 362.997 482.513 360.917 481.946 359.877C481.284 358.743 480.528 353.826 480.15 349.005C479.677 342.387 479.015 339.456 477.692 337.66C475.517 334.729 474.005 333.973 473.059 335.391Z" fill="white"/>
<path d="M344.201 347.775C340.892 349.287 340.136 350.044 340.419 351.745C340.703 353.636 341.365 353.92 345.525 354.203C350.63 354.487 352.804 352.785 350.157 350.611C349.495 350.044 349.117 348.72 349.401 347.775C350.062 345.411 349.306 345.411 344.201 347.775Z" fill="white"/>
<path d="M354.411 349.286C352.615 353.824 353.655 354.675 357.342 351.744C358.665 350.61 359.233 349.381 358.854 348.435C357.909 346.072 355.451 346.544 354.411 349.286Z" fill="white"/>
<path d="M334.085 357.508C333.707 358.265 333.612 360.723 333.802 362.992C334.085 366.584 334.369 367.151 336.449 367.435C337.772 367.624 340.136 369.042 341.648 370.555C347.415 376.038 354.222 374.998 352.993 368.853C352.615 366.868 352.899 365.072 353.939 363.559C356.302 359.966 354.979 358.454 348.928 357.887C345.997 357.603 341.554 357.036 339.096 356.658C335.503 356.185 334.463 356.374 334.085 357.508Z" fill="white"/>
<path d="M349.968 392.585C345.714 393.908 344.39 396.839 345.714 401.566C347.226 406.577 347.132 408.373 344.957 411.115C342.594 414.14 342.594 415.936 345.052 420.663C346.281 423.216 348.077 424.917 350.157 425.863C354.506 427.659 359.044 427.565 359.8 425.674C360.084 424.917 361.407 423.783 362.636 423.31C364.527 422.648 365.283 422.932 367.93 425.863C373.036 431.724 373.603 433.237 372.752 440.8C371.901 448.836 371.996 450.16 374.359 455.265C375.305 457.439 376.155 459.897 376.155 460.653C376.155 461.41 377.195 463.301 378.519 464.813C381.45 468.311 381.639 471.62 378.992 471.62C376.723 471.62 376.628 473.322 378.424 477.671C379.37 480.034 379.464 481.169 378.708 481.925C377.29 483.343 378.519 484.194 382.395 484.288C384.475 484.383 386.649 485.234 387.973 486.557C389.486 488.07 390.242 488.354 390.525 487.503C390.809 486.841 391.755 486.274 392.7 486.274C393.74 486.274 394.969 485.423 395.536 484.288C396.009 483.249 396.954 482.492 397.616 482.681C398.278 482.965 399.696 480.98 400.83 478.332C403.005 473.227 403.95 472.471 404.896 475.118C405.463 476.442 405.652 476.442 406.692 475.213C407.259 474.362 409.433 473.416 411.324 473.133C414.255 472.566 414.822 472.755 415.389 474.456C415.862 475.78 416.524 476.253 417.753 475.874C418.793 475.591 419.644 475.874 420.022 476.82C420.684 478.522 423.425 478.711 423.425 477.009C423.425 476.442 424.749 474.74 426.451 473.322L429.57 470.769L426.545 469.54C424.087 468.595 423.425 467.839 423.425 465.759C423.425 464.246 423.898 462.261 424.56 461.315C425.411 459.992 425.316 458.857 424.371 456.588C423.709 454.981 422.858 453.658 422.385 453.658C421.913 453.658 420.211 452.429 418.415 450.821C416.618 449.309 414.066 447.607 412.648 447.04C410.662 446.283 410.19 445.622 410.662 444.298C411.23 442.313 408.961 440.422 405.746 440.422C404.801 440.327 402.721 438.531 401.114 436.357C398.94 433.426 396.954 431.913 393.173 430.59L388.257 428.794L388.729 424.35C389.202 420.38 389.013 419.718 387.406 419.34C386.366 419.056 385.231 419.434 384.759 420.38C384.002 421.703 383.435 421.609 379.181 419.623C374.265 417.26 372.752 414.896 374.265 412.06C375.683 409.318 374.265 406.482 371.05 405.631C368.876 405.064 368.025 404.213 367.647 402.322C367.269 400.526 365.662 398.919 361.502 396.366C353.56 391.639 353.371 391.545 349.968 392.585Z" fill="white"/>
<path d="M471.263 419.817C470.412 420.952 469.75 423.032 469.75 424.355C469.75 429.082 466.536 430.973 458.783 430.973C452.544 430.973 443.279 434.755 443.279 437.307C443.279 441.845 453.962 451.772 458.878 451.772C460.201 451.772 463.416 452.812 465.968 454.135C470.601 456.499 475.801 457.255 476.746 455.648C477.03 455.27 479.299 454.608 481.757 454.324C492.818 452.906 495.087 451.11 493.952 444.776C493.479 442.507 492.534 441.278 490.171 440.238C486.2 438.253 481.473 431.446 480.622 426.151C479.866 421.992 476.557 417.737 474.099 417.737C473.342 417.737 472.019 418.683 471.263 419.817Z" fill="white"/>
<path d="M482.891 468.316C480.527 473.705 480.811 475.785 484.12 476.163C486.294 476.447 486.767 475.974 487.618 473.043C488.563 469.451 487.429 464.062 485.633 464.062C485.16 464.062 483.931 465.953 482.891 468.316Z" fill="white"/>
<path d="M494.047 470.303C492.912 471.438 495.465 476.07 498.206 477.677C501.043 479.379 505.675 479.19 505.675 477.299C505.675 476.165 497.167 469.83 495.654 469.736C495.087 469.736 494.425 470.02 494.047 470.303Z" fill="white"/>
<path d="M475.422 481.929C474.949 482.969 474.477 484.86 474.477 486.184C474.477 487.507 473.437 490.06 472.208 491.95C469.939 495.259 469.939 495.448 471.262 500.27C472.113 503.201 473.815 506.226 475.517 507.739C477.313 509.44 478.258 511.331 478.258 513.127C478.258 515.491 478.826 516.058 482.607 517.476C487.334 519.272 487.145 519.272 495.275 514.64C498.963 512.466 502.555 512.844 504.351 515.585C505.202 516.909 506.809 517.949 507.849 517.949C508.889 517.949 510.496 518.516 511.253 519.272C512.104 519.934 514.278 520.785 516.074 521.069C519.194 521.541 519.572 521.258 520.707 518.705C521.936 515.964 521.841 515.68 519.572 513.978C517.965 512.844 517.02 511.237 517.02 509.818C517.02 508.211 516.452 507.55 515.129 507.55C514.089 507.55 513.238 507.928 513.238 508.495C513.238 509.629 509.74 509.724 509.078 508.589C508.795 508.117 507.093 507.455 505.202 507.171C502.555 506.604 501.421 505.659 498.868 501.404C496.126 496.867 495.181 496.016 490.548 494.503C485.443 492.801 485.349 492.707 485.065 488.831C484.782 485.427 484.214 484.482 481.284 482.496C477.124 479.66 476.746 479.66 475.422 481.929Z" fill="white"/>
<path d="M527.041 527.588C526.663 529.478 526.946 531.275 527.892 532.693L529.31 534.867L531.673 532.504C535.171 529.006 535.644 525.886 532.902 525.13C528.743 524.09 527.703 524.468 527.041 527.588Z" fill="white"/>
<path d="M502.177 546.311C500.098 547.162 498.49 550.376 499.436 551.889C500.192 553.118 505.581 553.685 505.959 552.551C506.148 552.078 507.944 551.133 510.024 550.565C512.671 549.809 513.711 549.053 513.711 547.729C513.711 546.122 512.955 545.839 508.984 545.649C506.432 545.555 503.312 545.839 502.177 546.311Z" fill="white"/>
<path d="M498.774 596.136C497.545 597.27 498.112 601.997 499.625 603.415C501.326 605.212 505.392 605.401 505.959 603.699C506.337 602.565 501.326 595.474 500.097 595.474C499.719 595.474 499.057 595.758 498.774 596.136Z" fill="white"/>
<path d="M515.319 600.392C513.522 602.188 513.901 605.875 515.886 605.875C518.533 605.875 521.086 603.606 520.613 601.526C520.235 599.446 517.02 598.69 515.319 600.392Z" fill="white"/>
<path d="M486.295 610.601C484.498 614.099 484.498 614.383 486.673 614.383C488.658 614.383 489.982 612.965 490.927 609.845C491.967 606.536 488.091 607.103 486.295 610.601Z" fill="white"/>
<path d="M492.156 614.478C491.589 615.424 490.265 616.274 489.414 616.274C488.185 616.274 487.713 617.031 487.713 619.111C487.713 621.096 486.956 622.514 484.971 623.932C483.269 625.161 482.04 627.052 481.757 629.037C481.473 630.834 480.244 633.481 479.109 635.088C477.408 637.451 477.219 638.208 478.259 639.437C479.677 641.138 482.135 641.327 483.647 639.815C484.971 638.491 491.305 637.073 493.007 637.735C495.465 638.68 494.519 641.611 491.778 641.989C489.887 642.178 489.036 642.84 488.847 644.447C488.374 647.473 491.116 648.134 493.763 645.676C494.898 644.636 496.41 643.691 497.072 643.691C498.49 643.691 502.272 647.378 503.123 649.647C503.406 650.403 505.202 651.538 506.999 652.2C509.74 653.05 511.348 653.05 515.507 651.821C518.343 650.971 522.787 650.309 525.434 650.309H530.256V645.582C530.256 641.895 530.634 640.571 532.146 639.72C534.982 637.924 534.604 634.426 531.485 633.67C526.19 632.535 525.623 632.252 524.961 630.172C524.583 629.037 523.543 626.957 522.598 625.634C521.652 624.31 520.612 622.136 520.329 620.907C519.856 619.111 518.249 617.882 514.373 615.991C509.551 613.816 508.511 613.627 504.919 614.573C501.61 615.424 500.097 615.329 497.072 614.1C493.479 612.682 493.29 612.682 492.156 614.478Z" fill="white"/>
<path d="M481.095 620.336C481.095 623.172 482.04 624.118 483.647 622.794C485.538 621.092 485.16 618.162 482.986 618.162C481.662 618.162 481.095 618.823 481.095 620.336Z" fill="white"/>
<path d="M473.248 628.184C472.397 629.129 474.382 632.344 475.8 632.344C477.88 632.344 479.298 629.98 478.069 628.751C476.84 627.522 474.193 627.239 473.248 628.184Z" fill="white"/>
<path d="M587.547 757.51C583.671 758.455 582.442 759.306 580.551 762.331C576.864 768.193 576.391 772.541 579.038 776.228C581.78 779.916 581.969 783.224 579.416 784.737C578.376 785.399 577.526 787.006 577.526 788.33C577.526 790.977 582.631 797.784 584.522 797.784C585.183 797.784 589.059 799.485 593.125 801.565C597.19 803.645 600.971 805.347 601.633 805.347C602.295 805.347 603.808 806.103 605.037 807.048C606.927 808.656 607.4 808.75 610.047 807.427C613.734 805.63 618.178 801.565 618.178 799.958C618.178 797.405 613.073 785.872 610.993 783.697C609.764 782.374 606.549 780.672 603.808 779.821C600.688 778.876 598.797 777.836 598.797 776.985C598.797 775.85 600.215 775.567 605.698 775.756C613.451 775.945 614.491 774.81 609.575 771.218C607.211 769.516 606.266 769.327 604.375 770.178C602.484 771.123 602.011 770.934 601.161 769.327C600.593 768.287 600.404 766.207 600.688 764.695C601.539 760.629 600.499 758.36 597.19 757.226C593.786 755.997 593.786 755.997 587.547 757.51Z" fill="white"/>
<path d="M657.412 846.001C657.033 846.568 657.128 848.27 657.412 849.877C658.357 854.037 661.099 853.186 661.477 848.554C661.76 845.623 661.477 845.056 659.87 845.056C658.83 845.056 657.695 845.528 657.412 846.001Z" fill="white"/>
<path d="M621.014 856.305C620.257 856.778 617.988 857.345 616.098 857.723C612.694 858.385 612.6 858.48 612.789 862.356C612.789 864.53 612.127 867.934 611.276 869.825L609.669 873.323L613.923 879.657C616.287 883.155 618.178 886.653 618.178 887.504C618.178 889.678 619.501 891.38 622.054 892.609C623.283 893.27 624.512 894.783 624.795 896.107C625.268 898.092 626.024 898.565 629.05 898.754C633.398 899.132 637.558 897.336 636.14 895.634C635.478 894.878 635.667 893.554 636.613 891.758C637.369 890.245 638.031 888.543 638.031 887.882C638.031 887.314 639.354 885.707 640.962 884.478C644.176 881.926 644.271 879.089 641.056 879.089C640.016 879.089 638.693 877.766 637.747 875.781C636.896 873.89 635.384 872.188 634.533 871.904C627.159 869.541 627.348 869.73 627.915 863.963C628.388 859.425 628.199 858.291 626.781 856.967C624.984 855.265 623.188 855.076 621.014 856.305Z" fill="white"/>
<path d="M733.233 884.195C732.382 886.275 734.84 887.693 738.149 887.031C740.134 886.558 741.08 885.897 741.08 884.668C741.08 883.25 740.323 882.871 737.392 882.871C735.124 882.871 733.516 883.344 733.233 884.195Z" fill="white"/>
<path d="M680.291 966.916C680.669 968.428 680.196 968.806 677.549 969.09C674.902 969.374 674.429 969.752 674.146 972.21C673.862 974.006 674.335 975.33 675.375 976.086C676.32 976.748 677.265 978.733 677.643 980.435C678.211 983.082 678.683 983.46 680.669 983.271C681.898 983.082 685.679 982.704 689.083 982.326L695.133 981.664L694.85 976.464C694.566 970.697 692.864 967.956 689.366 967.956C688.137 967.956 685.585 967.294 683.694 966.538C679.534 964.741 679.723 964.741 680.291 966.916Z" fill="white"/>
<circle cx="494" cy="651" fill="#5CE50D"/>
<circle cx="404" cy="125" fill="#E52A0D"/>
<circle cx="648" cy="887" fill="#E52A0D"/>
<circle cx="302" cy="295" fill="#E52A0D"/>
</svg>
