<svg width="1000" height="1000" viewBox="0 0 1000 1000" fill="none" xmlns="http://www.w3.org/2000/svg">
<path d="M323.953 276.381C320.426 279.431 319.95 279.527 310.323 280.098C300.125 280.67 287.353 283.816 282.968 286.961C281.825 287.819 280.395 290.202 279.823 292.299C279.061 295.158 278.393 296.016 277.345 295.635C276.487 295.349 274.867 295.063 273.723 295.063C271.817 295.063 271.626 294.681 272.007 292.489C272.389 290.583 272.198 290.106 271.054 290.488C270.292 290.869 267.337 291.345 264.478 291.727C260.379 292.203 258.282 291.917 254.279 290.392C245.892 287.056 241.126 287.628 227.115 293.728L214.819 299.066L210.244 297.064C203.001 293.919 199.569 294.395 188.322 299.924C182.794 302.592 175.455 306.5 171.929 308.502C165.828 312.124 165.352 312.219 156.678 312.219C148.291 312.219 147.242 312.505 137.806 316.413C129.514 319.939 127.608 321.083 126.464 323.466L125.13 326.325L120.936 324.324C118.267 322.989 116.933 321.846 117.314 320.988C117.6 320.225 118.077 318.7 118.362 317.461L118.934 315.269L108.45 317.557C102.731 318.796 94.7248 320.988 90.531 322.418C83.4779 324.991 82.5247 325.086 76.8059 324.133C73.3747 323.561 67.9418 322.132 64.6059 320.988C61.3652 319.844 57.362 318.891 55.837 318.891C54.2167 318.891 52.9776 318.605 52.9776 318.128C52.9776 317.747 51.7386 316.032 50.2136 314.221C47.926 311.457 47.3542 311.171 45.6385 312.028C44.1135 312.886 42.3979 312.696 38.0135 311.075C32.4853 309.074 32.1994 309.074 28.1009 310.599C25.8134 311.457 21.143 314.697 17.8071 317.747L11.707 323.18L14.6617 329.089C16.3774 332.33 17.9977 336.81 18.2836 339.002C18.7602 342.052 20.0946 344.34 23.3352 347.866C31.2462 356.349 42.4932 364.641 53.073 369.693C62.6043 374.363 63.3668 374.935 66.8934 380.368C74.0419 391.424 85.1935 401.527 92.8186 403.815C95.7733 404.673 97.3936 405.912 98.9186 408.39C100.062 410.296 105.972 416.968 112.072 423.259C119.22 430.503 124.653 437.175 127.131 441.368C132.85 451.281 141.428 459.097 150.006 462.337C153.724 463.767 156.869 465.387 156.869 465.959C156.869 466.626 157.346 470.915 157.917 475.681C159.061 485.117 160.396 488.453 164.685 492.933C166.21 494.648 168.497 498.652 169.736 501.988L171.929 508.088L178.124 509.899C183.461 511.424 184.605 512.186 185.558 514.569C186.225 516.189 189.276 520.86 192.421 525.053L198.044 532.583L204.335 532.011C219.871 530.677 223.207 529.914 231.785 525.911C243.89 520.288 245.415 520.097 250.753 523.624C253.231 525.244 256.471 526.864 258.092 527.15C260.57 527.722 261.523 527.341 264.954 523.91C268.767 520.192 269.243 520.002 274.867 520.002C279.061 520.002 282.015 519.43 284.779 518L288.782 515.999L290.593 518.477C291.547 519.811 292.786 520.955 293.167 520.955C293.643 520.955 296.598 519.43 299.743 517.619L305.558 514.188L324.62 514.378L343.588 514.474L345.97 511.805C347.305 510.28 349.211 507.039 350.069 504.466C351.689 500.081 351.88 499.986 355.692 499.986C357.885 499.986 362.174 500.272 365.414 500.558L371.228 501.225L371.8 507.23C372.467 513.139 372.563 513.235 379.807 520.288L387.05 527.341L396.868 529.342C409.735 532.107 411.26 532.011 416.693 528.294C425.652 522.289 427.368 516.285 424.223 501.892C423.46 498.461 422.888 493.886 422.793 491.694C422.793 487.691 422.888 487.5 429.941 482.639C437.757 477.206 438.234 476.062 436.041 468.533C434.516 463.481 436.804 459.192 445.382 450.614C454.056 442.036 454.437 439.462 448.623 431.17C441.474 420.876 438.234 414.109 437.566 407.532C436.899 401.432 434.04 394.57 428.798 386.277C427.177 383.704 426.51 381.512 426.701 378.938C426.987 375.984 426.415 374.649 423.841 371.599C422.126 369.598 417.932 363.688 414.501 358.446C411.069 353.204 405.732 346.532 402.777 343.672C398.679 339.765 396.677 337 395.057 332.711C392.388 325.468 391.816 324.8 388.004 324.038C385.716 323.657 384.572 322.799 383.905 320.988C383.333 319.558 379.33 313.935 374.946 308.407C369.894 302.211 365.891 296.016 364.271 292.203C362.174 287.152 360.935 285.436 357.694 283.434C349.402 278.288 345.78 276.953 340.156 276.953C336.344 276.953 333.675 276.381 331.483 275.047C329.767 273.998 328.147 273.141 327.956 273.141C327.67 273.141 325.859 274.57 323.953 276.381Z" fill="white"/>
<path d="M691.29 527.246C691.005 527.532 685.476 528.199 678.995 528.675C644.301 531.249 646.112 530.963 632.196 535.633C625.048 538.016 617.137 540.303 614.563 540.685C611.609 541.066 609.416 541.924 608.177 543.449C604.841 547.261 594.834 549.549 581.013 549.549C569.766 549.549 568.146 549.835 559.282 552.694L549.75 555.935L538.408 567.277C525.636 579.954 524.778 581.765 526.875 592.249C527.828 597.015 528.4 597.777 535.072 603.401C542.125 609.31 542.602 609.501 554.039 612.36C560.425 613.981 567.002 615.315 568.622 615.315C571.482 615.315 571.482 615.315 569.957 617.698C568.432 620.081 568.718 624.846 570.433 624.846C572.054 624.846 580.727 632.471 583.301 636.189C585.683 639.62 586.255 639.906 588.066 638.953C590.83 637.523 591.498 636.284 591.498 632.662C591.498 630.089 591.879 629.612 593.785 629.612C597.121 629.612 601.315 635.14 603.507 642.193C604.555 645.911 606.843 650.009 609.893 653.822C612.466 656.967 615.231 660.875 615.993 662.4C616.946 664.306 619.615 666.117 625.143 668.786C629.432 670.787 634.674 673.742 636.867 675.362L640.774 678.317L646.875 676.887C654.404 675.172 669.273 668.404 672.609 665.259C674.706 663.258 675.183 663.067 675.659 664.306C676.136 665.545 677.947 665.831 684.333 665.831C691.672 665.831 692.53 666.022 693.959 667.928C695.389 670.025 695.389 670.12 692.148 670.597L688.908 671.073L693.483 676.029C696.247 679.079 698.916 681.081 700.155 681.081C702.728 681.081 728.558 687.562 730.845 688.801C733.61 690.231 739.805 699.286 741.33 703.956L742.76 708.245L761.346 708.817L768.589 704.528C778.121 699 782.791 697.761 791.083 698.714C797.374 699.381 797.755 699.572 801.949 704.052L806.238 708.722H813.196C818.82 708.722 821.298 708.15 826.445 705.862C830.543 704.052 834.356 703.003 837.215 703.003C839.693 703.003 843.22 702.527 845.126 702.05C847.985 701.192 849.415 701.478 853.704 703.289C857.993 705.195 861.329 705.767 873.148 706.339C881.059 706.816 891.734 707.102 896.976 707.006C902.219 706.816 917.85 706.72 931.766 706.53L957.024 706.339L965.602 709.866C970.272 711.867 974.371 713.488 974.752 713.488C975.896 713.488 976.753 710.438 977.516 703.956C977.897 700.239 979.613 694.425 981.71 689.659C983.807 684.703 985.141 680.223 985.141 677.65C985.141 673.837 984.95 673.551 978.946 669.643C975.514 667.356 970.844 663.448 968.652 660.875C965.411 657.062 963.696 656.014 959.406 654.87C956.547 654.107 952.83 653.44 951.21 653.44C948.922 653.44 947.588 652.678 945.681 650.2C944.347 648.389 942.822 645.815 942.25 644.481C941.583 642.765 940.249 641.812 937.294 641.05C932.338 639.906 927.667 638.381 923.473 636.57C920.709 635.426 920.328 634.854 920.328 631.518C920.328 628.087 919.947 627.515 915.372 624.465L910.511 621.129L907.651 623.512C902.886 627.515 895.356 630.946 888.97 632.09L882.965 633.139L883.537 629.231C883.918 627.134 884.681 625.037 885.348 624.656C885.92 624.274 890.304 622.654 895.07 620.938C899.74 619.318 903.934 617.603 904.411 617.317C905.65 616.077 896.881 610.549 893.736 610.549C891.162 610.549 890.781 610.168 890.781 608.071C890.781 606.07 890.018 605.307 886.015 603.687C882.775 602.352 881.25 601.209 881.25 599.97C881.25 597.777 879.915 596.92 874.387 595.776L869.812 594.823L872.672 590.534C874.197 588.151 875.531 585.959 875.531 585.673C875.531 584.91 864.093 582.909 859.423 582.909C856.945 582.909 853.418 583.957 849.796 585.768C843.22 589.104 841.599 589.294 840.36 586.816C839.598 585.482 837.882 585.005 832.068 584.529C825.015 584.052 824.538 583.862 820.345 579.763C814.054 573.663 809.765 572.805 796.04 574.902L785.365 576.523L781.076 573.187C778.693 571.376 775.166 568.135 773.26 566.038C770.686 563.274 768.399 561.844 764.586 560.701C761.727 559.938 757.343 557.746 754.96 555.84C752.482 554.029 749.908 552.79 749.146 553.075C745.81 554.315 740.853 552.218 736.088 547.357L731.227 542.4L730.369 546.785L729.511 551.265L721.409 546.404C714.737 542.305 712.927 540.685 711.116 537.158C709.114 533.25 708.256 532.583 701.394 529.724C693.769 526.578 692.339 526.197 691.29 527.246Z" fill="white"/>
<path d="M468.543 547.166C468.543 549.168 469.02 549.549 471.403 549.549C473.785 549.549 474.262 549.168 474.262 547.166C474.262 545.164 473.785 544.783 471.403 544.783C469.02 544.783 468.543 545.164 468.543 547.166Z" fill="white"/>
<path d="M493.611 561.654C489.989 563.465 489.894 563.941 492.372 569.279C494.088 573.187 494.374 573.377 498.472 573.377C502.571 573.377 502.761 573.282 503.238 570.232C503.524 568.612 503.429 565.657 503.047 563.846C502.38 560.986 501.904 560.51 499.521 560.319C497.9 560.224 495.232 560.796 493.611 561.654Z" fill="white"/>
<path d="M978.659 721.299L978.945 725.398L983.52 725.684L988 725.97V722.634C988 719.203 987.809 719.012 981.519 717.773L978.373 717.106L978.659 721.299Z" fill="white"/>
<circle id="584" cx="736" cy="557" fill="#5CE50D"/>
<circle cx="423" cy="497" fill="#E52A0D"/>
<circle cx="124" cy="321" fill="#E52A0D"/>
<circle cx="931" cy="702" fill="#E52A0D"/>
</svg>
