<svg width="1000" height="1000" viewBox="0 0 1000 1000" fill="none" xmlns="http://www.w3.org/2000/svg">
<path d="M659.929 94.3821C618.336 99.4983 584.132 103.857 583.753 104.141C583.469 104.52 584.322 106.604 585.554 108.878C587.828 112.668 587.922 113.426 587.164 119.774L586.406 126.595L576.648 138.912C567.647 150.187 565.752 151.987 554.003 160.42C541.781 169.231 539.792 170.842 539.792 172.358C539.792 172.736 542.065 174.726 544.908 176.811L550.024 180.6L554.382 193.77C558.077 204.76 558.646 207.413 557.793 209.498C556.562 212.909 556.372 212.624 560.067 213.856L563.288 214.898L561.015 221.625C559.688 225.51 558.741 230.626 558.741 233.563C558.741 236.405 557.793 242.28 556.656 246.638C554.856 253.365 554.761 255.07 555.709 257.723C556.372 259.428 556.846 261.702 556.846 262.745C556.846 263.692 557.698 265.776 558.646 267.198C560.067 269.377 560.257 270.608 559.499 273.735C558.835 276.672 559.025 278.093 560.162 279.799C560.92 281.03 561.583 283.304 561.583 284.82C561.583 286.431 562.246 288.042 563.099 288.515C564.52 289.273 564.52 289.652 563.004 292.495C562.151 294.2 560.636 295.716 559.688 296C556.751 296.758 551.161 306.138 551.161 310.307C551.161 312.77 550.498 314.57 549.266 315.707C547.94 316.939 547.371 318.644 547.371 321.771C547.371 328.024 542.729 348.11 540.076 353.416C538.844 355.974 537.518 360.048 537.233 362.511C536.76 366.585 536.949 367.249 539.223 368.954C541.213 370.565 541.687 371.702 541.687 375.207C541.687 377.955 542.255 379.85 543.202 380.703C544.624 381.84 544.529 382.124 542.729 383.545C540.265 385.535 540.929 387.714 544.624 389.609C546.045 390.367 547.466 391.882 547.845 392.925C548.319 394.441 549.266 394.82 552.582 394.82C556.277 394.82 556.846 395.199 558.646 398.136C560.162 400.694 561.204 401.452 563.288 401.452C566.889 401.452 568.12 402.589 573.426 411.116C576.742 416.422 578.542 418.506 579.964 418.506C581.385 418.601 583.469 420.969 587.638 427.602L593.228 436.602L602.324 435.939C611.419 435.371 611.419 435.371 613.03 437.834C614.167 439.539 615.493 440.297 617.483 440.297C618.999 440.297 621.746 441.245 623.641 442.287L627.052 444.371L633.684 437.929L631.221 437.171C629.136 436.413 628.852 435.844 628.852 432.149C628.852 428.454 629.136 427.791 631.505 426.844C632.926 426.275 635.958 425.707 638.327 425.612C645.054 425.328 648.37 424.285 650.644 421.727C651.875 420.496 653.676 419.453 654.718 419.453C656.518 419.453 656.613 420.022 655.949 440.961C655.665 452.898 655.097 476.585 654.812 493.639L654.149 524.81L651.97 525.758C648.37 527.463 643.254 525.852 641.169 522.442L639.369 519.504L642.211 514.578L645.054 509.556L640.98 508.514C638.706 507.946 636.242 507.282 635.484 506.998C634.632 506.809 631.979 508.325 629.61 510.314C626.863 512.588 620.988 515.62 614.261 518.273C603.555 522.631 603.46 522.631 599.671 521.21C596.165 519.789 595.691 519.789 591.523 521.589L587.164 523.579L583.848 519.22C581.101 515.525 580.532 514.104 580.532 510.03C580.532 505.766 580.248 504.914 577.5 502.64C574.563 500.271 574.374 499.703 574.089 493.071L573.71 485.965L559.688 472.132L556.846 474.879C554.098 477.532 554.003 477.532 552.109 475.827C551.066 474.879 550.214 473.648 550.214 473.174C550.214 472.606 548.982 470.237 547.466 467.868C545.097 464.173 544.813 462.941 545.382 459.72C545.95 456.499 545.666 455.362 543.392 451.951C541.118 448.635 540.739 447.024 540.739 441.624V435.276L532.875 435.939C528.138 436.318 523.969 436.223 522.169 435.56C520.085 434.802 518.474 434.802 516.484 435.56C514.116 436.508 513.547 436.318 512.221 434.707C511.178 433.476 509.473 432.718 507.768 432.718C502.936 432.718 499.999 431.107 499.999 428.549C499.999 426.749 499.051 425.896 494.788 424.191C489.956 422.201 489.387 422.201 487.871 423.527C486.355 424.854 485.408 424.949 480.292 424.001C475.744 423.148 474.417 422.485 474.417 421.254C474.417 420.306 472.428 418.411 469.68 416.706C467.027 415.095 464.943 413.105 464.943 412.253C464.943 411.4 463.711 409.126 462.1 407.137C460.111 404.578 459.163 402.115 458.69 398.325C458.026 393.019 458.026 392.925 450.731 387.24L443.436 381.46L442.299 373.312C441.73 368.859 441.162 365.07 440.972 364.88C440.783 364.691 437.277 364.88 433.203 365.259L425.623 365.922L425.908 369.712C426.097 372.554 425.623 374.26 424.108 376.155C422.402 378.429 422.213 379.566 422.686 383.355L423.255 387.903L418.328 392.072C409.801 399.178 410.464 398.894 407.432 397.378C405.064 396.051 404.495 396.146 401.369 397.757L397.863 399.462L375.882 391.693L372.187 393.304C368.776 394.914 368.303 394.914 362.713 393.304C357.596 391.882 356.365 391.882 353.049 392.925C347.364 394.82 344.427 393.493 343.384 388.566C342.816 385.25 342.153 384.492 339.595 383.829C337.321 383.166 336.468 382.313 336.279 380.418C335.9 377.386 333.626 376.629 330.404 378.523C328.13 379.755 327.467 379.566 321.498 376.25C315.15 372.839 314.961 372.744 310.413 373.881C304.918 375.302 302.928 374.355 302.928 370.186C302.928 367.912 302.076 367.059 296.959 364.217C292.506 361.659 290.611 359.953 289.285 357.3C287.864 354.174 287.769 353.605 289.001 352.658C290.232 351.805 290.232 350.384 289.38 343.373C288.622 336.835 288.716 334.277 289.664 331.245C290.801 327.929 290.801 327.266 289.569 326.508C287.579 325.277 286.158 325.466 281.326 327.929C278.105 329.54 273.841 330.488 265.978 331.34C259.63 332.003 253.661 333.14 251.766 334.183C249.966 335.035 246.46 336.077 244.091 336.456C240.302 337.025 238.88 337.878 234.333 342.71C231.206 345.931 227.511 348.773 225.616 349.342C222.584 350.384 221.731 350.289 218.51 348.489C216.141 347.163 214.057 346.594 212.825 346.973C210.173 347.826 203.446 344.794 204.109 343.183C204.298 342.425 206.193 341.667 208.183 341.288C211.309 340.72 211.973 340.246 213.204 336.741C214.057 334.467 214.626 329.635 214.626 325.371V318.076L211.025 315.233C208.751 313.433 206.288 312.391 204.298 312.296C197.761 312.107 196.434 311.254 195.676 306.801C194.824 301.59 192.645 299.127 188.95 299.127C186.581 299.127 186.297 299.316 187.339 300.548C188.286 301.685 188.286 302.822 187.339 306.233C186.391 309.454 186.391 311.444 187.244 314.476C187.813 316.749 188.76 323.571 189.234 329.635L190.276 340.815L179.286 361.469L181.559 366.585C182.886 369.333 183.833 372.839 183.739 374.449C183.644 375.965 183.265 383.545 182.981 391.219L182.507 405.242L186.676 414.148L190.939 423.054L186.77 427.791C184.212 430.728 181.18 435.844 179.096 440.771L175.685 449.014L176.822 455.836C178.528 465.405 178.528 465.405 182.128 467.395C184.97 468.91 185.444 469.574 185.444 472.7V476.301L162.516 475.827C149.82 475.543 111.732 475.164 77.8133 474.879L16.0393 474.406L15.4708 476.49C15.1866 477.722 14.9023 540.443 14.9023 615.955V753.147L18.9764 757.6C22.0082 761.01 23.4294 763.853 25.1348 769.348L27.2192 776.643L34.7041 780.338C42.4732 784.318 43.3259 785.455 43.3259 792.466C43.3259 794.171 48.0632 799.667 61.9908 814.163C80.2766 833.112 81.3188 833.964 103.489 849.787L126.133 866.083L139.492 863.335C146.788 861.914 158.536 858.977 165.547 856.987C172.559 854.998 179.665 853.387 181.37 853.387C183.075 853.387 189.234 855.093 195.108 857.177C205.909 861.062 215.857 863.146 229.027 864.378C232.911 864.662 238.407 865.799 241.059 866.841C248.355 869.494 256.882 875.557 260.672 880.674C262.756 883.516 266.925 887.022 272.325 890.527L280.758 895.928L293.075 896.591C308.992 897.349 319.035 900.191 323.867 905.118L327.088 908.529L334.194 908.055C338.079 907.771 343.195 906.823 345.564 905.971C348.88 904.739 351.627 904.55 357.881 905.023C372.377 906.065 377.019 907.202 379.767 910.519C382.135 913.361 382.514 913.456 391.326 913.835C399.379 914.214 400.8 914.024 403.643 912.224C405.443 911.182 407.527 910.234 408.285 910.234C410.464 910.234 418.612 905.592 422.118 902.276C423.823 900.665 426.76 896.307 428.561 892.517C431.403 886.548 433.014 884.653 441.067 877.737C446.088 873.473 453.194 867.599 456.7 864.757C463.806 859.072 466.08 855.945 467.785 849.597C468.638 846.66 471.385 842.491 477.26 835.291L485.692 825.248L497.346 819.942C508.715 814.731 509.094 814.447 515.726 806.772L522.358 798.909L544.055 791.329L565.847 783.655L567.457 779.296C568.31 776.928 569.257 771.243 569.447 766.6C569.731 761.958 570.584 756.557 571.437 754.662C572.289 752.673 572.952 749.546 572.952 747.746C572.952 743.009 577.879 736.85 581.669 736.85C584.89 736.85 592.944 732.113 598.25 727.092C602.513 723.018 608.671 720.649 623.925 716.859C628.284 715.817 633.021 714.49 634.347 714.017C635.769 713.448 640.506 712.217 644.864 711.269C652.728 709.564 652.918 709.564 657.655 711.364C661.634 712.785 663.813 713.069 669.782 712.596C673.762 712.217 677.836 712.311 678.783 712.69C679.73 713.164 684.373 713.543 689.016 713.543L697.637 713.638L697.827 702.079L698.111 690.52L693.753 684.267C688.731 676.971 688.352 675.55 688.731 668.255L689.016 662.759L712.418 653.001C735.63 643.337 736.104 643.147 763.485 636.989C790.962 630.736 791.056 630.736 795.794 626.756C799.773 623.44 801.573 622.682 807.542 621.64C812.469 620.787 816.448 619.271 820.901 616.713C826.681 613.302 832.744 611.597 882.296 598.996C912.52 591.321 937.438 584.974 937.533 584.784C937.722 584.595 936.68 582.984 935.259 581.184C932.985 578.247 932.227 577.868 929.29 578.341C927.395 578.626 925.026 579.668 923.984 580.615C921.9 582.415 918.773 581.563 918.773 579.194C918.773 578.436 917.257 575.404 915.457 572.467C913.657 569.435 911.951 566.214 911.667 565.266C911.288 564.224 909.677 563.466 906.93 562.993C904.087 562.614 902.287 561.761 901.719 560.529C901.15 559.582 901.056 558.729 901.435 558.729C901.814 558.634 903.235 557.782 904.466 556.739L906.74 554.845L904.182 552.192C902.761 550.676 900.298 549.255 898.782 548.876C896.792 548.497 896.034 547.833 896.034 546.412C896.034 545.37 896.697 544.517 897.455 544.517C900.203 544.517 906.172 540.822 907.877 538.169C908.825 536.748 910.53 534.474 911.667 533.148C912.899 531.821 914.13 529.263 914.509 527.463C915.362 523.2 919.341 515.43 920.857 514.957C921.71 514.672 921.615 513.725 920.478 510.977C919.247 507.661 919.247 506.809 920.857 501.124C921.805 497.618 922.563 492.786 922.563 490.418C922.563 486.817 922.184 485.87 920.668 485.491C919.152 485.112 918.773 484.164 918.773 480.943C918.773 477.817 919.626 475.543 922.658 470.9C926.353 465.31 926.826 464.931 930.237 464.931C932.227 464.931 934.974 465.405 936.301 466.068C938.48 467.016 939.049 466.826 942.08 463.889C944.449 461.615 946.818 460.383 950.323 459.72C954.682 458.867 955.25 458.488 955.534 456.215C955.818 454.13 956.482 453.467 959.135 452.993C960.935 452.709 962.356 451.951 962.356 451.383C962.356 450.814 963.209 449.393 964.346 448.256L966.335 446.172L963.588 444.656C961.977 443.898 958.85 442.761 956.482 442.192C952.976 441.34 951.934 440.487 950.607 437.834C949.755 436.034 949.092 433.855 949.092 432.907C948.997 432.055 948.428 429.686 947.765 427.696C946.628 424.57 946.628 423.717 947.765 421.538C948.523 420.117 949.092 418.316 949.092 417.464C949.092 416.611 949.755 414.337 950.513 412.442C951.555 409.979 951.744 408.084 951.081 405.336C950.418 402.399 950.607 401.262 951.744 400.125C953.071 398.799 953.071 398.325 951.744 395.009C950.607 392.072 950.513 390.746 951.46 387.524C952.502 383.924 952.502 383.45 950.418 381.271C949.186 379.945 947.291 378.618 946.249 378.239C944.26 377.576 943.975 376.534 945.207 373.502C945.681 372.46 945.681 370.66 945.207 369.617C944.828 368.48 944.733 366.68 945.017 365.638C945.491 363.838 945.681 363.743 947.576 364.975C949.755 366.491 950.986 366.017 950.986 363.933C950.986 363.269 953.355 358.816 956.197 354.079C959.04 349.342 961.408 344.984 961.408 344.32C961.408 343.657 959.703 340.625 957.619 337.499C954.966 333.519 953.829 330.772 953.829 328.403C953.829 326.413 953.166 324.424 952.313 323.761C951.555 323.003 950.418 321.676 949.849 320.634C948.997 319.023 949.092 318.834 950.513 319.402C951.555 319.781 952.881 319.402 953.829 318.55C954.871 317.602 958.092 316.844 962.072 316.465C968.23 315.991 968.893 315.707 970.409 312.96C971.357 311.349 975.052 306.991 978.652 303.39L985 296.663L979.694 288.705L974.389 280.841L975.525 266.819L966.525 259.713C961.598 255.733 957.619 252.228 957.619 251.849C957.713 251.565 958.471 247.87 959.513 243.701C960.461 239.532 961.029 235.742 960.65 235.174C960.366 234.7 958.092 231.668 955.629 228.542C952.029 223.804 951.271 222.383 951.65 219.92C952.408 215.182 950.607 212.909 946.249 212.909C943.123 212.909 942.459 213.193 942.459 214.803C942.459 217.077 941.607 217.172 937.248 215.372C934.501 214.14 933.932 213.477 933.932 211.014C933.932 209.403 934.311 207.224 934.88 206.276C935.638 204.855 935.259 204.192 932.511 202.581C930.237 201.255 929.195 199.928 929.195 198.413C929.195 195.665 927.679 194.244 919.436 189.696C915.173 187.327 912.141 184.864 910.53 182.495C907.972 178.611 907.593 178.421 894.802 175.484C887.981 173.779 887.697 173.684 885.707 169.61L883.717 165.536H874.622C866.568 165.536 865.242 165.252 862.589 163.262C857.473 159.472 852.451 157.767 847.714 158.335C843.64 158.809 843.356 158.619 840.892 155.398C839.376 153.503 838.239 151.04 838.239 149.808C838.239 147.724 836.25 146.682 826.87 143.555C826.112 143.271 823.743 143.934 821.754 144.881L818.059 146.776L813.227 141.944C808.584 137.302 808.489 137.017 808.395 131.712V126.216L805.079 125.932C802.994 125.743 799.868 124.132 796.741 121.669C792.004 118.068 791.435 117.879 788.119 118.732C785.087 119.584 784.14 119.395 781.297 117.595C778.739 115.794 776.655 115.416 770.875 115.416L763.675 115.321L752.116 100.162C742.073 86.8972 740.273 85.0022 737.999 85.097C736.578 85.1917 701.427 89.3606 659.929 94.3821Z" fill="white"/>
<circle id="748" cx="500" cy="689" fill="#5CE50D"/>
<circle id="750" cx="544" cy="491" fill="#E52A0D"/>
<circle id="1578" cx="316" cy="884" fill="#E52A0D"/>
<circle id="1579" cx="883" cy="551" fill="#E52A0D"/>
</svg>
