<svg width="1000" height="1000" viewBox="0 0 1000 1000" fill="none" xmlns="http://www.w3.org/2000/svg">
<path d="M598.351 52.2201C591.826 52.8821 584.449 53.5441 581.991 53.5441C579.059 53.6387 574.993 54.6789 570.926 56.4757C566.292 58.5562 562.982 59.3127 559.105 59.3127C555.039 59.3127 551.729 60.1638 545.109 63.0009C540.286 64.9868 533.288 67.8238 529.505 69.2424C520.521 72.5522 509.835 79.7394 505.674 85.1298C503.121 88.4397 501.702 89.4799 499.716 89.5745C498.109 89.5745 494.231 91.5604 490.07 94.3029L482.978 99.1258V104.043C482.978 107.637 482.316 110.001 480.614 112.744C478.817 115.675 478.249 117.85 478.249 122.673C478.249 126.078 477.587 131.563 476.831 134.967C476.074 138.372 475.412 143.478 475.412 146.315C475.223 153.219 473.71 157.663 469.927 161.919C464.726 167.782 438.625 178.468 399.758 190.573C398.15 191.046 396.259 193.41 393.611 198.233L389.828 205.231L378.953 209.108C367.321 213.364 356.257 218.849 347.746 224.618C341.41 228.873 328.832 245.044 319.848 260.27C316.538 265.944 310.297 275.306 305.947 281.075C299.138 289.964 297.152 291.95 291.288 295.449C273.793 305.757 260.743 319.469 259.324 329.21C258.757 332.614 258.001 334.127 255.825 335.735C254.312 336.87 251.759 340.18 250.246 343.017C247.693 347.745 246.652 348.691 238.425 353.23C233.035 356.162 227.644 358.431 225.091 358.81C222.538 359.188 218.944 360.606 216.201 362.592C210.717 366.375 209.96 366.375 208.541 363.443L207.501 361.079L202.962 363.443C197.761 365.997 192.181 366.375 189.155 364.295C188.02 363.443 186.129 361.079 184.899 358.999C183.386 356.351 181.59 354.649 178.469 353.325C174.686 351.622 172.322 351.433 155.773 351.433C139.601 351.433 136.481 351.717 130.712 353.514C125.038 355.216 122.579 355.5 112.271 355.121C105.746 354.838 99.7882 354.365 98.9371 353.987C98.086 353.608 97.1403 351.717 96.7621 349.826C96.2892 346.516 95.8164 346.043 88.1564 342.26L80.1181 338.288H63.285C38.7919 338.194 29.4296 337.154 22.0533 333.749L16.001 330.912L16.4738 341.031C16.9467 349.826 17.4195 352.284 20.9185 361.268C24.7012 371.198 24.8904 371.576 29.5242 374.224C34.2526 376.872 34.3472 377.061 39.3593 389.544C47.4921 409.687 51.1803 416.023 57.7055 421.225C61.7719 424.44 63.947 426.993 65.6492 430.587C67.7297 435.221 68.2971 435.693 73.3092 437.396L78.6996 439.192L78.4159 447.514C78.2267 454.229 78.6996 457.35 80.5909 463.496L82.9551 471.156L90.3314 475.317L97.8023 479.478L98.8426 488.368C99.5991 494.704 99.5991 498.108 98.8426 500.189C97.8969 502.837 98.2752 503.972 102.247 511.726C105.841 518.724 107.637 524.304 111.988 541.326L117.189 562.225L122.674 564.306C125.794 565.441 129.577 566.197 131.658 566.008C134.968 565.724 135.44 566.008 136.291 568.372C137.048 570.358 136.859 571.588 135.63 573.763C134.022 576.411 134.022 576.505 136.102 577.829C137.332 578.586 139.791 579.531 141.587 579.815C144.141 580.288 145.465 581.234 147.261 584.165C149.342 587.57 150.193 588.043 157.286 589.934L165.04 591.92L167.594 598.729C171.471 608.753 172.227 609.699 176.483 609.699C179.415 609.699 181.211 610.55 185.561 614.143C190.763 618.399 191.425 618.683 205.232 621.709C213.175 623.411 221.497 624.829 223.861 624.829C227.644 624.829 228.779 625.397 234.264 630.125C240.411 635.516 240.411 635.516 244.477 647.431L248.449 659.347L247.882 673.437L247.22 687.528L249.489 686.961C259.514 684.596 266.795 684.218 280.791 685.353C288.735 685.92 295.26 686.582 295.355 686.582C295.355 686.677 296.111 688.474 296.868 690.46C298.192 693.864 298.192 694.715 296.868 699.349C295.639 703.605 295.544 705.78 296.395 711.643C297.341 718.074 297.246 719.303 295.639 723.558C293.085 729.895 291.099 741.81 291.667 747.011C291.95 749.565 291.572 753.442 290.532 756.752C289.019 762.237 289.019 762.426 291.005 766.776C293.085 771.126 294.693 772.261 299.043 772.356C302.164 772.45 311.904 787.392 315.876 798.173C317.862 803.185 319.375 808.859 319.375 810.561C319.375 812.358 320.699 816.519 322.307 820.018C325.995 827.867 326.846 828.151 347.746 829.096C362.498 829.664 363.917 829.948 373.279 833.257C381.506 836.189 384.06 836.756 388.315 836.284C392.949 835.905 394.273 836.284 404.392 841.012C411.106 844.227 420.658 847.726 428.885 849.996C440.801 853.306 446.947 855.765 447.042 857.467C447.042 857.75 445.34 860.777 443.354 864.276L439.666 870.517L442.124 877.326C443.638 881.676 445.907 885.554 448.366 888.391L452.243 892.646L461.416 893.119L470.589 893.686L479.668 904.656H487.233C491.394 904.751 497.163 904.089 500 903.332C503.121 902.481 506.904 902.198 509.457 902.481C511.821 902.765 514.753 902.576 516.171 902.103C518.157 901.252 519.576 901.819 526.101 905.791C532.91 910.047 534.045 910.425 538.773 910.236L543.88 910.047L545.676 917.234C547.852 925.934 548.797 926.407 559.389 924.137C569.224 922.057 570.17 922.246 578.302 926.974C586.53 931.797 589.934 932.27 599.391 929.622C604.876 928.109 605.443 928.109 609.699 929.622C615.468 931.703 618.399 931.608 622.749 929.433C625.397 928.109 629.369 927.542 638.731 926.974C656.227 926.029 659.347 926.596 666.818 932.27C672.303 936.431 673.532 936.904 677.788 936.904C681.003 936.904 684.124 936.147 687.245 934.54C689.798 933.216 692.919 932.176 694.148 932.176C696.796 932.176 704.078 937.566 710.13 943.997L714.575 948.725L733.299 930.19C743.607 919.976 764.129 900.495 778.976 886.783C793.823 873.071 819.64 848.294 836.379 831.65C869.005 799.118 867.113 800.537 873.828 803.09C875.246 803.658 875.435 803.185 875.435 798.835C875.435 794.579 874.773 792.782 870.612 785.973C867.775 781.245 866.167 777.557 866.546 776.895C866.924 776.233 871.463 769.991 876.665 762.993L886.027 750.227L884.987 735.001C883.568 714.291 883.379 715.804 888.202 710.224C892.174 705.685 892.836 705.307 897.942 704.739C900.874 704.456 904.184 703.983 905.319 703.794C906.643 703.51 910.142 698.971 915.721 690.176C921.773 680.719 925.083 676.369 927.637 674.856C930.379 673.154 931.609 671.452 932.743 668.047C933.784 665.021 933.973 663.13 933.311 662.468C932.743 661.9 933.5 659.441 935.391 655.659C937.661 651.025 938.985 649.417 941.255 648.566C942.957 647.999 944.47 646.675 944.754 645.634C945.037 644.405 946.077 643.743 947.591 643.743C948.82 643.743 951.184 643.459 952.697 643.176L955.534 642.608L956.575 632.017C957.237 626.248 958.56 618.304 959.601 614.427C960.641 610.55 961.492 607.051 961.492 606.767C961.492 606.483 956.575 602.228 950.617 597.405L939.647 588.515L940.309 582.179L940.876 575.843L936.526 569.696C932.554 564.117 932.176 563.171 932.176 558.064V552.485L941.444 545.865L942.578 536.881C943.146 531.964 944.47 525.155 945.605 521.845C947.401 516.076 947.496 515.698 945.983 513.145C944.848 511.159 944.564 509.456 945.037 506.998L945.699 503.499L939.174 504.161C932.838 504.728 932.554 504.728 929.623 501.986C927.92 500.473 926.502 498.581 926.502 497.919C926.502 497.163 928.015 495.177 929.717 493.38C932.932 490.354 932.932 490.165 931.609 487.611C930.947 486.193 930.285 484.491 930.285 484.018C930.285 483.45 932.838 481.653 936.053 480.14L941.822 477.209L947.307 479.1C953.643 481.181 952.981 481.559 957.709 473.142L960.83 467.563L958.655 460.849C957.52 457.16 955.723 452.999 954.778 451.581C953.737 450.257 952.981 447.704 952.981 445.907C952.981 442.975 953.359 442.691 958.088 440.8C962.816 438.909 963.383 438.909 964.802 440.327C966.22 441.746 966.504 441.557 969.057 438.53C971.138 436.072 971.895 434.275 971.895 431.249C971.895 428.033 972.367 426.993 974.07 426.142C976.15 425.007 977.569 423.494 977.569 422.265C977.569 421.887 975.866 420.373 973.786 419.049L970.003 416.496V409.404C970.003 402.878 969.625 401.46 965.18 391.625L960.263 380.844L963.289 374.13C965.275 369.496 966.22 365.902 966.22 362.592C966.22 356.635 967.923 350.771 970.098 349.637C972.273 348.407 973.786 343.773 973.786 338.288C973.786 335.451 974.353 333.371 975.204 332.614C975.961 331.952 976.623 330.061 976.623 328.264C976.623 323.63 974.07 314.646 972.178 312.566C970.098 310.296 970.381 305.662 972.746 302.353C973.691 301.029 974.732 298.664 975.11 297.151C975.488 295.354 976.812 293.652 978.609 292.707L981.446 291.004L979.271 287.978C977.758 285.803 977.096 283.439 977.001 280.129C976.907 277.481 975.394 268.875 973.597 260.932C970.476 247.219 970.098 246.274 965.748 240.789C961.019 234.736 961.019 234.074 965.842 232.75C967.072 232.467 970.571 227.549 975.772 218.944C980.122 211.567 983.81 205.326 983.999 205.042C984.094 204.758 975.677 204.664 965.275 204.853L946.361 205.137V191.897L924.327 180.076C902.765 168.539 902.198 168.255 893.876 167.215C889.148 166.647 880.164 166.175 873.733 166.175C862.668 166.175 861.912 166.08 856.427 163.338C851.793 160.973 850.658 159.933 850.185 157.569C849.807 155.394 848.483 153.881 845.363 151.895C842.904 150.382 839.121 146.41 836.189 142.343L831.177 135.44L818.127 132.225C810.845 130.428 801.767 127.875 797.889 126.456C791.742 124.186 790.702 123.43 789.946 120.971C789.567 119.458 788.149 117.567 786.919 116.999C785.69 116.337 783.704 114.351 782.569 112.649C780.016 108.866 769.33 104.422 763.372 104.611C756.563 104.8 749.281 106.786 745.215 109.528C740.297 112.933 738.122 112.933 735.096 109.717L732.827 107.259L702.659 106.029C686.11 105.367 672.398 104.8 672.208 104.8C672.019 104.705 672.114 93.9246 672.398 80.6851L672.965 56.7594L667.48 56.192C664.454 55.8137 660.86 55.0572 659.536 54.4897C657.361 53.5441 656.699 53.7332 653.106 56.5702L649.134 59.691L646.108 56.2865L643.082 52.9767L629.464 52.3147C621.993 52.031 614.617 51.5582 613.009 51.369C611.496 51.1799 604.876 51.5582 598.351 52.2201Z" fill="white"/>
<circle id="752" cx="766" cy="317" fill="#5CE50D"/>
<circle id="1648" cx="580" cy="570" fill="#E52A0D"/>
<circle id="753" cx="426" cy="659" fill="#E52A0D"/>
<circle id="755" cx="913" cy="500" fill="#E52A0D"/>
</svg>
